<?xml version="1.0" standalone="no"?>
<!DOCTYPE svg PUBLIC "-//W3C//DTD SVG 1.1//EN" "http://www.w3.org/Graphics/SVG/1.1/DTD/svg11.dtd" >
<svg xmlns="http://www.w3.org/2000/svg">
<metadata></metadata>
<defs>
<font id="ayar_tawthalinlight" horiz-adv-x="0" >
<font-face units-per-em="2048" ascent="1638" descent="-410" />
<missing-glyph horiz-adv-x="802" />
<glyph horiz-adv-x="2048" />
<glyph horiz-adv-x="2048" />
<glyph unicode="&#xd;" horiz-adv-x="2048" />
<glyph unicode=" "  horiz-adv-x="802" />
<glyph unicode="&#x09;" horiz-adv-x="802" />
<glyph unicode="&#xa0;" horiz-adv-x="802" />
<glyph unicode="&#x1000;" horiz-adv-x="1866" d="M18 0v47h90v767q0 42 4.5 77.5t15.5 67t30 60.5t48 58q30 30 61.5 48t66 28t72 13t80.5 3q33 0 62.5 -9.5t55.5 -24.5t48.5 -34t40.5 -39q43 -47 76 -106l100 87q74 53 159 87t176 34q141 0 247.5 -37t178.5 -106.5t108.5 -170t36.5 -226.5q0 -50 -13.5 -108.5 t-37.5 -116.5t-57 -111t-71 -93q-44 -46 -84.5 -82t-83 -60.5t-90 -37.5t-104.5 -13q-60 0 -111.5 15t-84.5 30v-118h-42v416h42v-158q10 -19 22.5 -33t32.5 -25.5t50.5 -21t76.5 -18.5q30 -6 58 -6q42 0 79 11.5t71 32.5t66 49.5t64 62.5q34 37 57.5 74t37.5 76t20.5 80.5 t6.5 88.5q0 60 -5.5 110t-19.5 94t-38 84t-61 81q-36 40 -73.5 69t-78.5 47.5t-87 27.5t-99 9q-47 0 -87 -4.5t-76 -16.5t-69 -32.5t-64 -51.5q-62 -62 -93 -131t-31 -149v-550q0 -67 37 -87q7 0 39 -11v-47h-287v47h93v836q0 38 -21.5 81t-57.5 79t-82 60t-95 24 q-36 0 -70.5 -8.5t-62.5 -27.5t-45 -48.5t-17 -72.5v-820q0 -48 28.5 -72.5t100.5 -30.5v-47h-340z" />
<glyph unicode="&#x1001;" horiz-adv-x="953" d="M102 367q0 79 34.5 149t105.5 130q70 60 149 88t165 28q48 0 94 -11.5t90 -33.5v113q0 58 -17 107.5t-48.5 86t-76 57t-100.5 20.5q-55 0 -105.5 -23.5t-90.5 -71.5t-66 -120t-31 -169h-40v508h40v-216l66 58q48 42 114.5 64.5t149.5 22.5q76 0 136.5 -26t101.5 -73.5 t63 -113t22 -143.5v-811h-113v87q-155 -90 -287 -90q-82 0 -147.5 32t-112 85.5t-71.5 122.5t-25 143zM200 403q0 -67 24 -130t66 -112t100 -78.5t126 -29.5q57 0 117.5 27.5t106.5 75.5v421q-42 60 -102.5 89.5t-137.5 29.5q-64 0 -118.5 -22.5t-95 -62.5t-63.5 -93.5 t-23 -114.5z" />
<glyph unicode="&#x1002;" horiz-adv-x="913" d="M4 0v47h88v756q0 164 96 273q102 94 276 78q60 0 119 -31q110 -52 162 -179q20 -52 23 -93.5t5 -60.5v-647q0 -65 37 -86q2 0 39 -10v-47h-284v47h91v824q0 94 -96 174q-78 65 -156 68q-42 2 -96 -18q-78 -34 -91 -97q-5 -23 -5 -67v-783q0 -65 62 -91q16 -5 65 -10v-47 h-335z" />
<glyph unicode="&#x1003;" horiz-adv-x="1892" d="M100 964v243h23v-86q68 34 128 34q37 0 70 -12t57.5 -34t38.5 -51.5t14 -63.5q0 -29 -9.5 -48t-26.5 -33t-40 -24.5t-51 -22.5v-456q0 -179 54.5 -264.5t166.5 -85.5q229 0 229 274v656q0 118 -152 118v47h269v-737q0 -135 42 -193q105 -149 345 -149q37 0 85 15t99 47 t99.5 82.5t87.5 121.5q39 72 59.5 142.5t20.5 139.5q0 52 -15 110.5t-43 114.5t-68.5 104t-91.5 79q-44 26 -98.5 36.5t-106.5 10.5q-30 0 -57.5 -2.5t-50 -7t-38.5 -10t-23 -11.5v-228h-52v414h52v-116q15 6 39 12.5t54 12t64.5 9.5t70.5 4q95 0 176.5 -31.5t144.5 -89.5 q35 -33 60 -74.5t40.5 -89t23 -99t7.5 -103.5q0 -62 -10 -123.5t-32.5 -122t-58.5 -118.5t-88 -112q-49 -50 -106.5 -88t-116 -63t-114 -37.5t-99.5 -12.5q-181 0 -340 120l-39 40l-42 -61q-99 -99 -256 -99q-71 0 -128 23.5t-97 71.5t-61.5 120t-21.5 169v499q0 9 6.5 17 t17.5 16q13 8 33 16t39 14.5t33.5 11t17.5 5.5q37 21 37 51q0 32 -10 55t-25.5 38t-36 22t-41.5 7q-39 -2 -64.5 -21.5t-41.5 -45.5t-22.5 -53.5t-6.5 -43.5h-23z" />
<glyph unicode="&#x1004;" horiz-adv-x="1075" d="M92 537q-2 160 92 309q87 139 232 225.5t310 86.5q121 0 231 -47v118h42v-624h-42v367q-110 102 -291 102q-209 0 -341.5 -152t-135.5 -364q-2 -173 144 -320q126 -125 328 -154q26 0 47 -3q197 0 362 181l39 -42q-107 -113 -218 -165q-39 -16 -117 -42q-50 -10 -113 -13 q-238 -5 -398 144q-168 157 -171 393z" />
<glyph unicode="&#x1005;" horiz-adv-x="1217" d="M82 1030q55 60 176 97q104 36 199 36q175 3 285 -34q74 -23 179 -110q89 -89 136 -183q50 -102 52 -223q3 -217 -160 -398q-47 -53 -99.5 -91t-125.5 -72q-37 -18 -79 -31q-62 -21 -178 -21h-364v37h60v883q0 70 -15 81q-16 8 -40 -8zM268 76q84 -31 184 -34 q167 -3 285 71q218 136 257 340q10 63 13 150q3 180 -160 374q-157 150 -403 150q-168 0 -176 -63v-89q131 -16 202 -124q60 -96 63 -235q2 -144 -68 -270q-71 -134 -197 -194v-76zM268 202q168 102 173 374q3 121 -48 226t-125 123v-723z" />
<glyph unicode="&#x1006;" horiz-adv-x="1989" d="M96 372q-2 162 139 283q136 113 301 115q103 3 194 -44v112q0 113 -63 190.5t-170 79.5q-194 5 -278 -243q-15 -50 -21 -139h-39v505h39v-214l66 57q94 84 257 87q144 2 241 -97q63 -63 81 -171q181 265 521 268q220 2 378.5 -163t158.5 -385q0 -241 -195 -427t-439 -189 q-243 -2 -419 205v-116h-113q-151 -89 -285 -89q-160 0 -255.5 114t-98.5 261zM193 427q-2 -139 88 -249t227 -113q57 0 117.5 28t104.5 75v419q-84 118 -238 118q-121 0 -208.5 -80t-90.5 -198zM848 432q32 -107 129 -199q154 -149 366 -152q257 -2 399 249q62 113 62 241 q0 129 -68 248t-179.5 188.5t-239.5 69.5q-275 0 -427 -239q-18 -28 -42 -89v-317z" />
<glyph unicode="&#x1007;" horiz-adv-x="1308" d="M102 537q-2 160 92 309q87 139 232 225.5t310 86.5q92 0 152 -16q95 -23 173 -110l-42 131l50 16l197 -652l-50 -16l-113 367h-804q-100 -134 -100 -320q0 -175 144 -320q126 -125 328 -154q26 0 47 -3q197 0 362 181l39 -42q-107 -113 -218 -165q-39 -16 -117 -42 q-50 -10 -113 -13q-238 -5 -398 144q-168 157 -171 393zM354 943h642l-29 29q-102 102 -291 102q-183 0 -322 -131z" />
<glyph unicode="&#x1008;" horiz-adv-x="1468" d="M82 1030q55 60 176 97q104 36 199 36q175 3 285 -34q74 -23 179 -110q89 -89 136 -183q50 -102 52 -223q3 -217 -160 -398q-47 -53 -99.5 -91t-125.5 -72q-37 -18 -79 -31q-62 -21 -178 -21h-364v37h60v883q0 70 -15 81q-16 8 -40 -8zM268 76q84 -31 184 -34 q167 -3 285 71q218 136 257 340q10 63 13 150q3 180 -160 374q-157 150 -403 150q-168 0 -176 -63v-89q131 -16 202 -124q60 -96 63 -235q2 -144 -68 -270q-71 -134 -197 -194v-76zM268 202q168 102 173 374q3 121 -48 226t-125 123v-723zM769 8v39h412v-39h-126 q-81 -126 -87 -315q-2 -96 6 -157q0 -44 97 -147.5t144 -106.5q36 -3 36 58v1653q0 29 -1 46t-21 45.5t-34 28.5t-22 3v47h183v-1823q0 -139 -97 -142q-84 -2 -239.5 129t-155.5 209q0 131 -6 173q0 170 87 299h-176z" />
<glyph unicode="&#x1009;" horiz-adv-x="1087" d="M102 63v152q126 -141 336 -144q288 -5 429 249q63 113 63 241q0 129 -68 248t-180.5 188.5t-238.5 69.5q-113 0 -225 -53v-390h-42v574h42v-105q110 55 272 58q220 2 378.5 -163t158.5 -385q0 -244 -194 -427t-440 -189l-76 6v-737q0 -44 18.5 -74t76.5 -30h812 q105 0 183.5 99.5t78.5 230.5v199h42v-595h-40v105q-52 -79 -196 -79h-1171v40h78v799q0 39 -36 84q-11 13 -29 20z" />
<glyph unicode="&#x100a;" horiz-adv-x="1753" d="M92 21v105q88 -66 192 -66q59 0 109.5 30t87 79.5t57.5 113t21 131.5v550q0 39 -17.5 65.5t-46 42.5t-64.5 22.5t-72 6.5q-26 0 -57 -11.5t-61 -34t-56.5 -56t-44.5 -77.5v-317h-48v624h45v-189q16 19 44.5 40.5t68 40t89 30.5t106.5 12q41 0 83 -17.5t75.5 -47.5 t54.5 -69t21 -81v-505q-2 -48 13.5 -94.5t48 -89t83 -79.5t120.5 -67q75 -32 126 -32q50 0 102.5 14.5t101.5 40t92 60t73 74.5q55 72 84 161.5t29 193.5q0 172 -121 297q-174 153 -351 157q-13 0 -34.5 -1.5t-51.5 -5.5v-441h-45v598h42v-81q9 2 22 5.5t30 7.5h35 q141 0 248 -38.5t178.5 -109t108 -170t36.5 -222.5q0 -238 -168 -406q-107 -107 -211 -162.5t-204 -55.5q-76 0 -149.5 25.5t-135 63t-106.5 80t-64 75.5q-126 -204 -304 -246v-729q0 -22 4 -41t14.5 -33t29 -22t47.5 -8h812q52 0 99.5 27.5t83.5 73.5t57.5 105.5 t21.5 123.5v199h42v-595h-40v105q-52 -79 -196 -79h-1171v40h78v746q0 42 -20 69t-77 44z" />
<glyph unicode="&#x100b;" horiz-adv-x="1214" d="M101 601q0 212 155 375q152 157 359 157h8q79 -2 145 -15.5t120 -40.5v102h41v-558h-41v379q-56 25 -109.5 38t-109.5 13h-15q-88 0 -170.5 -41t-146.5 -108.5t-102.5 -154t-38.5 -177.5v-10q0 -124 61 -234q68 -123 170.5 -182.5t239.5 -59.5h7q102 2 183 36.5 t143 103.5v-276q-25 -23 -57 -39t-69.5 -26t-78.5 -15t-83 -7q-48 0 -93 1q-38 0 -80 0.5t-71 0.5h-9q-17 0 -29.5 1.5t-25.5 5.5t-29.5 9.5t-41.5 14.5v-126h333q132 0 212 -62q92 -70 92 -195v-244q0 -18 3.5 -34t12.5 -27.5t24 -18t39 -6.5h21q108 0 108 78v206h32v-338 h-30v41q-20 -10 -48.5 -15t-69.5 -5h-253v33h62v260v6q0 172 -87 232q-31 21 -80 32t-119 11h-353v362q31 -35 59.5 -60.5t60.5 -43t70 -26.5t89 -10h35h56t53 1q28 0 54 1q29 3 58.5 5t57.5 8t53.5 16.5t47.5 29.5l2 40q-60 -24 -108.5 -33t-92.5 -9h-9q-240 3 -428 183 q-189 180 -189 415z" />
<glyph unicode="&#x100c;" horiz-adv-x="1116" d="M104 613q0 220 158.5 385t378.5 163q162 -3 272 -58v105h42v-574h-42v390q-112 53 -225 53q-126 0 -238.5 -69.5t-180.5 -188.5t-68 -248q0 -128 63 -241q141 -254 429 -249q210 3 336 144v-152l-32 -8q-18 -7 -29 -20q-36 -45 -36 -84v-799h78v-40h-568q-144 0 -197 79 v-105h-39v595h42v-199q0 -134 78.5 -232t183.5 -98h209q58 0 76.5 30t18.5 74v737l-76 -6q-246 6 -440 189t-194 427z" />
<glyph unicode="&#x100d;" horiz-adv-x="1279" d="M102 118l1 112q123 -139 329 -142q142 -2 247.5 58t174.5 187q63 111 63 236q1 63 -17 125.5t-51 118.5t-78.5 103.5t-99 81.5t-113.5 52.5t-121 15.5q-56 0 -110 -13t-111 -38v-384h-42v564h42v-103q54 27 121 41t147 16q215 4 370 -160q158 -161 158 -378 q0 -121 -48 -225t-143 -195q-191 -183 -433 -186q-41 -1 -85.5 5.5t-98.5 26.5v-128h432q134 0 217 -61q92 -74 92 -198v-391q0 -38 16 -62.5t63 -24.5h22q109 0 109 78v210h32v-342h-30v41q-40 -20 -120 -20h-255v33h62l1 406q0 180 -89 242q-31 21 -80.5 32t-120.5 11 h-453v255z" />
<glyph unicode="&#x100e;" horiz-adv-x="1308" d="M97 886v238h22v-84q66 34 120 34h4q36 -1 68 -12.5t56 -32t38.5 -49t14.5 -61.5t-16 -59t-45 -40q-17 -8 -33 -15.5t-30 -12.5v-353q0 -82 9.5 -136.5t29.5 -92.5q122 -131 322 -134h10q275 0 409 242q30 55 45.5 113t15.5 121q0 61 -17.5 121.5t-49 115.5t-75 102 t-94.5 81t-108.5 53.5t-116.5 19.5l-9 -3v-380h-41v559h41v-102h5v6q9 1 18 1h18h15q103 0 190.5 -39.5t162.5 -117.5q79 -81 117 -174t38 -201q0 -120 -47 -222.5t-141 -193.5q-47 -45 -94.5 -78.5t-99.5 -56.5t-109.5 -35t-125.5 -14h-19q-84 0 -146 19.5t-105 45.5 t-68 52t-34 39q-61 91 -61 255v395q0 10 6.5 17.5t16.5 14.5l3 1q12 8 31.5 16t38 14t32.5 10t17 5q35 21 35 50q0 33 -7 50q-16 33 -40 51t-56 18h-7q-71 -2 -101 -63q-15 -30 -23 -54t-8 -44h-22z" />
<glyph unicode="&#x100f;" horiz-adv-x="2207" d="M-7 0v47h89v763q0 165 97 275q113 102 278 89q79 -8 141.5 -50t123.5 -144q57 102 73 120q55 63 147 63q76 0 120.5 -56t44.5 -145v-19q194 218 450 218q239 0 399 -147q167 -155 170 -393q3 -163 -89 -305.5t-236 -229t-309 -86.5h-45q-57 0 -81 21v-92h-42v440h42v-183 q19 -37 71 -69.5t115 -32.5q210 -3 346 154q128 150 131 362q0 81 -37 165q-76 170 -262 270q-76 39 -173 42q-136 2 -257.5 -66t-192.5 -183v-419q0 -152 -63 -268q-79 -141 -218 -141q-170 0 -170 362v463q0 126 -89 223q-97 73 -170 73q-45 0 -101 -26t-88 -89 q-5 -24 -5 -68v-789q0 -65 63 -91q16 -6 65 -11v-47h-338zM766 280q0 -212 66 -217q89 0 133 113q32 81 32 186v634q0 62 -3 70q-8 29 -52 34q-63 0 -116 -86q-26 -45 -49 -118q-6 -21 -7 -63t-4 -52v-501z" />
<glyph unicode="&#x1010;" horiz-adv-x="1866" d="M102 267v446q3 120 71 230q105 168 262 207q47 11 115 13q87 3 157.5 -53.5t73.5 -140.5q89 87 181 134q146 55 230 55q268 0 412 -131q157 -141 157 -406q0 -100 -55 -216.5t-131 -194.5q-186 -194 -375 -200q-65 -2 -88.5 4.5t-84.5 32.5v-118h-42v414h42v-157 q63 -63 79 -71q37 -26 102 -26q176 0 333 176q123 138 123 348q0 97 -27.5 171.5t-93.5 137.5q-89 87 -178 118q-55 18 -173 34q-157 19 -280 -103t-123 -279v-283q0 -95 -121 -244q-133 -165 -254 -165q-50 0 -63 -3q-26 0 -39 6q-63 15 -121 78q-10 11 -60 81 q-5 16 -21 55q-8 32 -8 50zM226 283q0 -60 10 -89q16 -45 107 -118q14 -8 37 -11q24 0 34 3q115 0 191 121q66 104 66 225v550q0 60 -46 97t-109 39q-57 3 -82 -1t-64 -33q-66 -39 -116 -139q-28 -78 -28 -212v-432z" />
<glyph unicode="&#x1011;" horiz-adv-x="1854" d="M102 267l3 446q0 120 68 230q105 168 262 207q47 11 115 13q87 3 157.5 -53.5t73.5 -140.5q89 87 181 134q146 55 230 55q268 0 412 -131q157 -141 157 -406q0 -102 -63 -246q-107 -247 -383 -351q-62 -24 -193 -27q-281 -5 -407 239q-123 -231 -301 -236q-26 0 -63 -3 q-26 0 -39 6q-63 15 -121 78q-10 11 -60 81q-5 16 -21 55q-8 32 -8 50zM226 283q0 -60 10 -89q16 -45 107 -118q14 -8 37 -11q24 0 34 3q115 0 191 121q66 104 66 225v550q0 60 -46 97t-109 39q-57 3 -82 -1t-64 -33q-66 -39 -116 -139q-28 -78 -28 -212v-432zM789 464 q0 -176 144 -299q99 -86 191 -86q139 0 194 15.5t163 88.5q178 121 183 430q3 92 -26 169t-95 140q-89 87 -178 118q-55 18 -173 34q-157 19 -280 -103t-123 -279v-228z" />
<glyph unicode="&#x1012;" horiz-adv-x="775" d="M26 22l17 52q36 -19 72 -28.5t79 -9.5q140 0 255.5 128.5t115.5 286.5q0 110 -66 181t-171 71q-49 0 -94 -19t-91 -58l-20 50q50 44 146 74q34 11 46 16q62 25 96 71.5t34 103.5q0 72 -36.5 115t-98.5 43q-71 0 -118 -57.5t-47 -147.5v-8h-41v302h39v-131q41 60 103 91 t141 31q92 0 149.5 -54.5t57.5 -142.5q0 -75 -33.5 -128.5t-109.5 -97.5q125 -20 196 -99t71 -197q0 -188 -154.5 -331t-368.5 -143q-46 0 -87.5 9t-81.5 27z" />
<glyph unicode="&#x1013;" horiz-adv-x="1379" d="M102 555q-2 150 95 304q188 299 545 302q220 2 378.5 -163t158.5 -385q0 -186 -92 -304l-63 -81h136v-58h-193q-53 -44 -121 -84q-149 -86 -301 -89q-304 -5 -469 281q-71 123 -74 277zM199 597q-2 -207 155 -364l5 -5h689q131 141 134 343q2 121 -68 246 q-144 260 -419 260q-278 0 -428 -239q-65 -104 -68 -241zM430 170q134 -86 291 -89q139 -2 236 68l28 21h-555z" />
<glyph unicode="&#x1014;" horiz-adv-x="1098" d="M102 338q-2 120 79 204t202 84q86 0 158 -49.5t72 -131.5v-403q123 0 226 86q78 68 81 215q2 123 -79 186q-65 53 -233 108q-113 36 -160 63q-94 47 -120 112q-16 42 -16 95q-3 112 94 186q87 65 202 65q97 0 210 -52v112h47v-440h-47q0 338 -220 338q-184 0 -189 -189 q-3 -73 81 -120q34 -18 149 -55q184 -58 285 -140.5t103 -236.5q3 -241 -270 -351q-55 -21 -144 -27v-746h134v-37h-398v34h131v752q-118 16 -215 73q-160 97 -163 265zM163 375q-3 -234 317 -307v362q0 44 -47.5 79.5t-94.5 38.5q-73 2 -124 -47.5t-51 -125.5z" />
<glyph unicode="&#x1015;" horiz-adv-x="885" d="M29 1116v47h191v-746q0 -349 213 -352q123 -2 180.5 70t57.5 206v657q0 118 -152 118v47h270v-686q0 -157 -60 -286q-14 -29 -61 -94q-91 -100 -256 -100q-163 0 -247 124q-63 94 -63 262v620q0 53 3 69q0 23 -13 31t-63 13z" />
<glyph unicode="&#x1016;" horiz-adv-x="897" d="M29 1116v47h191v-746q0 -349 213 -352q183 -2 230 171q-330 228 -330 508v199q0 79 64 149.5t143 70.5h249v-686q0 -157 -60 -286q-14 -29 -61 -94q-91 -100 -256 -100q-163 0 -247 124q-63 94 -63 262v670q0 37 -11.5 47.5t-61.5 15.5zM438 744q0 -322 233 -403v657 q0 71 -29 89l-42 21q-2 0 -44 5q-50 0 -84 -58.5t-34 -111.5v-199z" />
<glyph unicode="&#x1017;" horiz-adv-x="889" d="M29 1116v47h139q102 0 191 -102t94 -207l150 252q-24 5 -84 10v47h270v-686q0 -157 -60 -286q-14 -29 -61 -94q-91 -100 -256 -100q-163 0 -247 124q-63 94 -63 262v620q0 53 3 69q0 23 -13 31t-63 13zM220 417q0 -349 213 -352q123 -2 180.5 70t57.5 206v657l-128 -204 q-32 -50 -74 -53q-42 0 -65 61q-24 212 -184 291v-676z" />
<glyph unicode="&#x1018;" horiz-adv-x="1697" d="M52 605v624h45v-189q24 29 86 68q84 53 215 55q81 3 150.5 -52t88.5 -134q186 178 401 184q264 5 413 -134q158 -147 158 -406q0 -238 -168 -406q-212 -212 -409 -218q-102 -2 -157 29v-99h-39v416h39v-188q24 -29 65.5 -46t86.5 -23q225 0 372 186q63 82 86.5 171 t26.5 170q2 92 -26.5 169t-94.5 140q-81 81 -181 118q-86 32 -175 34q-163 3 -271.5 -94t-126.5 -260v-277q0 -212 -144 -343q-110 -100 -231 -100h-52q-16 0 -63 16v68q10 -8 31 -19q11 -2 37 -5q29 0 44 3q131 0 202 115q58 97 58 236v550q0 60 -46 97t-109 39 q-57 3 -82 -1t-65 -33q-76 -44 -117 -144l-3 -317h-45z" />
<glyph unicode="&#x1019;" horiz-adv-x="889" d="M29 1096v47h191v-521q42 52 119.5 100.5t210.5 53.5q58 3 121 -31v233q0 118 -152 118v47h270v-686q0 -157 -60 -286q-14 -29 -61 -94q-91 -100 -256 -100q-163 0 -247 124q-63 94 -63 272v610q0 53 3 69q0 23 -13 31t-63 13zM226 328q-6 -283 207 -283q123 0 180.5 71 t57.5 205v256q0 61 -46 97.5t-109 39.5q-57 2 -82 -2t-64 -32q-66 -40 -116 -139q-26 -71 -28 -213z" />
<glyph unicode="&#x101a;" horiz-adv-x="1805" d="M17 1119v44h204v-746q0 -349 215 -352q236 -2 236 276v657q0 118 -152 118v47h270v-739q0 -133 42 -193q102 -145 335 -150q94 -2 215 76q94 60 168 191q65 116 73 365q-8 83 -73.5 180t-139 147t-238.5 55q-81 3 -136 -39v-228h-52v414h52v-115q94 36 152 36 q121 3 233 -23q87 -21 165 -97q71 -74 102 -163q27 -78 29 -199q3 -89 -40.5 -233t-147.5 -249q-32 -31 -116 -94q-144 -108 -322 -108q-181 0 -340 121l-40 39l-42 -60q-99 -100 -256 -100q-163 0 -247 124q-63 94 -63 262v670q0 32 -15.5 49t-70.5 17z" />
<glyph unicode="&#x101b;" horiz-adv-x="1387" d="M102 555q-2 150 95 304q186 296 545 302q165 2 262 -63q118 -81 170 -152t76 -157q10 -37 24 -150v-1451h227v-40h-455v40h110v1250q0 34 -13 170q-14 128 -29 181q-24 81 -89 154q-116 129 -330 134q-126 2 -242.5 -63.5t-183.5 -172.5t-70 -244q-2 -196 131 -340h548 q47 0 47 -47q0 -116 -144 -186q-52 -24 -136 -27q-304 -5 -469 281q-71 123 -74 277zM401 191q142 -110 320 -110q118 0 139 110h-459z" />
<glyph unicode="&#x101c;" horiz-adv-x="1927" d="M2 1v46q12 1 27 2t29 1h31v719q3 165 63 256q82 123 243 123q162 0 252 -99q23 -32 38 -54.5t21 -36.5q30 -64 44.5 -134.5t14.5 -148.5v-111q0 -92 39.5 -170.5t108.5 -146.5q143 -140 350 -143h9q237 0 368 235q30 54 45 110t15 119q0 89 -37.5 175t-100 153.5 t-143 108.5t-167.5 41h-14q-94 0 -175 -29v-167h-53v394h53v-124q51 17 106 26t115 9h12q214 0 367 -161q81 -85 120 -180t39 -206q0 -121 -48.5 -228t-147.5 -201q-97 -92 -206 -139t-233 -49h-9q-148 0 -263.5 69t-196.5 211q-35 62 -50.5 132t-18.5 147v259 q0 131 -54.5 201.5t-173.5 70.5h-5q-209 -3 -209 -346v-588q0 -49 33 -73.5t94 -26.5l-2 -46h-330z" />
<glyph unicode="&#x101d;" horiz-adv-x="1363" d="M84 592v8q0 40 4 74t12.5 65.5t22.5 63t34 67.5q80 140 194.5 210t275.5 70h23q64 0 119 -12t104.5 -35.5t96 -59t94.5 -82.5q49 -48 85.5 -94.5t61.5 -97t37.5 -107t12.5 -124.5v-4q0 -61 -9 -112.5t-28 -98t-49.5 -89.5t-73.5 -86q-42 -42 -84 -71.5t-87.5 -48.5 t-96 -29t-110.5 -13q-9 -1 -18 -1h-18q-168 0 -292.5 77t-216.5 226q-24 39 -42 74t-29 70.5t-17 74t-6 85.5zM181 550q2 -69 18 -128.5t49 -112.5q76 -121 182 -180t246 -59h14q61 0 120 20t111.5 55t97 83.5t77 104.5t50.5 118t18 125q0 66 -15.5 125t-47.5 116 q-140 249 -390 249h-9q-109 -2 -200.5 -39.5t-168.5 -112.5q-75 -75 -113.5 -162.5t-38.5 -190.5v-11z" />
<glyph unicode="&#x101e;" horiz-adv-x="1697" d="M52 605v624h45v-189q24 29 86 68q84 53 215 55q87 3 164 -62.5t77 -152.5v-505q-2 -126 105 -231q58 -55 160 -99q73 -32 126 -32q102 0 204 54t165 135q107 141 113 343q5 178 -121 309q-173 152 -351 157q-26 0 -86 -7v-441h-45v598h42v-81q18 5 52 13h35 q269 0 413 -134q158 -147 158 -406q0 -238 -168 -406q-212 -212 -409 -218q-84 -2 -190 41t-172.5 95.5t-98.5 107.5q-154 -241 -309 -241h-52q-16 0 -63 16v68q10 -8 31 -19q11 -2 37 -5q29 0 44 3q113 0 192 123q68 107 68 228v550q0 60 -46 97t-109 39q-57 3 -82 -1 t-65 -33q-76 -44 -117 -144v-317h-48z" />
<glyph unicode="&#x101f;" horiz-adv-x="1829" d="M-47 1116v47h270v-746q0 -349 215 -352q235 -2 235 276v657q0 118 -152 118v47h270v-152q50 45 139 92q147 55 231 55q238 0 398 -144q168 -152 170 -393q3 -163 -89 -305.5t-236 -229t-309 -86.5q-47 0 -57 5q-24 24 -69 42v-118h-42v440h42v-183q34 -39 76 -76 q34 -26 110 -26q210 -3 346 154q129 150 131 362q0 81 -38 167.5t-106 152.5q-128 125 -327 154q-27 0 -48 3q-175 0 -322 -139v-461q0 -157 -60 -286q-13 -29 -60 -94q-92 -100 -257 -100q-162 0 -246 124q-63 94 -63 262v620q0 110 -152 113z" />
<glyph unicode="&#x1020;" horiz-adv-x="1098" d="M103 598v11q3 221 159 383q25 27 49.5 47.5t51 37.5t56.5 30.5t66 25.5q32 11 67 15.5t70 4.5q47 0 92.5 -6.5t83.5 -15.5t66.5 -18.5t42.5 -15.5v104h42v-571h-42v389q-57 25 -112 38.5t-112 13.5h-14q-91 0 -175.5 -43.5t-150 -114.5t-105 -161t-39.5 -184 q0 -127 62 -240q139 -247 418 -247h10q67 2 130.5 24t124.5 67q19 15 37 15q21 -2 31 -16t10 -44v-260h-464q-72 0 -123 -11.5t-82 -33.5q-92 -63 -92 -247v-310q0 -92 58 -92h291q126 0 183 19q122 38 122 153v8q-2 54 -21.5 96t-61.5 71q-29 22 -56.5 32t-52.5 10 q-35 0 -68 -12t-59.5 -33t-42.5 -49t-16 -60l-36 6q2 37 20 72t53 68q32 31 68 46.5t72 15.5h3q308 -6 308 -273q0 -212 -415 -219h-505v49h55v475q0 130 94 202q85 64 221 64h443v117q-45 -17 -90 -26t-89 -9h-6q-242 4 -438 189q-192 180 -192 413z" />
<glyph unicode="&#x1021;" horiz-adv-x="1677" d="M40 24v41q126 -31 157 -31q170 0 288 134q21 26 55 78q55 110 58 197q3 102 -81 181q-68 65 -170 68q-45 2 -106.5 -20t-111.5 -59l-16 47q37 32 147 81q134 42 176 82q52 47 52 136q0 105 -97 144q-16 5 -58 10q-41 0 -79 -18t-104 -115q-8 -16 -16 -58v-131h-34v419h29 v-141q113 97 244 100q81 2 146 -58q55 -50 63 -115q210 159 435 162q113 3 214 -32.5t184 -111.5q168 -152 171 -393q2 -160 -88 -305.5t-230.5 -228t-289.5 -84.5q-60 0 -136 36.5t-95 88.5q-7 32 15 66t59 37h526l11 10q128 128 131 359q0 81 -38 167.5t-106 152.5 q-129 125 -328 154q-21 0 -42 3q-235 0 -406 -186q-29 -71 -118 -126q126 -29 192 -107q57 -69 60 -184q2 -141 -84 -267q-42 -60 -144 -128q-155 -84 -273 -84q-89 0 -162 29zM839 178q68 -89 181 -92q152 -2 270 92h-451z" />
<glyph unicode="&#x1022;" horiz-adv-x="1903" d="M100 -38v243h23q0 -17 6.5 -44t22.5 -53t41.5 -46t64.5 -21q21 0 41.5 7t36 22t25.5 38t10 55q0 30 -37 51q-3 1 -17.5 5.5t-33.5 11t-39 14.5t-33 16q-11 8 -17.5 16t-6.5 17v499q0 97 21.5 169t61.5 120t97 71.5t128 23.5q157 0 256 -99l42 -61l39 40q159 120 340 120 q44 0 99.5 -12.5t114 -37.5t116 -63t106.5 -88q52 -54 88 -112t58.5 -118.5t32.5 -122.5t10 -123q0 -52 -7.5 -103.5t-23 -99t-40.5 -89t-60 -74.5q-63 -58 -144.5 -89.5t-176.5 -31.5q-36 0 -70.5 4t-64.5 9.5t-54 12t-39 12.5v-116h-52v414h52v-228q7 -6 23 -11.5 t38.5 -10t50 -7t57.5 -2.5q52 0 106.5 10.5t98.5 36.5q51 31 91.5 79t68.5 104t43 114.5t15 110.5q0 69 -20.5 139.5t-59.5 142.5q-39 71 -87.5 121.5t-99.5 82.5t-99 47t-85 15q-240 0 -345 -149q-42 -58 -42 -193v-737h-269v47q152 0 152 118v656q0 274 -229 274 q-112 0 -166.5 -85.5t-54.5 -264.5v-456q28 -12 51 -22.5t40 -24.5t26.5 -33.5t9.5 -47.5q0 -35 -14 -64t-38.5 -51t-57.5 -34t-70 -12q-60 0 -128 34v-86h-23z" />
<glyph unicode="&#x1023;" horiz-adv-x="1981" d="M94 -703h91q0 38 -0.5 70.5t-0.5 61.5q0 100 1.5 156t3.5 84t4 36t4 13q0 1 0.5 1.5t0.5 1.5q12 40 41 77t71.5 66t96.5 46.5t116 17.5q41 0 82.5 -9.5t82 -31.5t78.5 -58.5t71 -89.5l5 -10q6 -11 11 -18q38 47 88 86.5t106.5 67.5t116.5 43.5t118 15.5q77 0 148 -27 t126 -76t89.5 -116t37.5 -146v-9.5v-6.5t-0.5 -7t-0.5 -11q0 -20 -6.5 -47.5t-19.5 -57t-33 -58.5t-46.5 -52.5t-59.5 -38.5t-73 -16q-47 2 -71.5 6.5t-40.5 12.5q0 -4 -0.5 -7.5t-0.5 -6.5q0 -25 6 -40t18.5 -24t31 -13t42.5 -6h184v-57h-281q-38 4 -43 77v265h43v-29 q0 -17 6.5 -38t19.5 -39t31 -30t41 -12h9.5t9.5 2q37 9 64.5 30.5t45 50t25 61t6.5 62.5q-5 92 -48.5 165t-134.5 119q-50 25 -89.5 33.5t-74.5 8.5q-361 0 -361 -320v-126q0 -66 38 -87q2 0 12 -2.5t28 -8.5v-48h-291v48h93v334q0 50 -21.5 92.5t-68.5 77.5q-95 70 -183 70 q-48 0 -82.5 -13.5t-56.5 -47t-32.5 -90t-10.5 -143.5v-181q0 -48 29.5 -73t101.5 -31v-48h-344v48zM99 -23v48h91v775q0 166 98 279q69 80 283 80q53 0 104 -22.5t111 -78.5l72 -114l102 87q17 15 43 30.5t60 36.5q150 56 235 56q141 0 249 -37t180.5 -107.5t110 -172 t37.5 -229.5q0 -51 -15 -108t-41 -112.5t-60 -106.5t-73 -91q-53 -55 -104 -94t-102 -63.5t-102.5 -35.5t-106.5 -11q-23 0 -37 1t-26.5 4.5t-28 10t-39.5 18.5l-10 5v-120h-43v421h43v-160q32 -32 52 -49.5t28 -22.5q19 -13 44 -20t60 -7q49 0 102.5 16.5t105 48.5t97.5 78 t81.5 105.5t56 131t20.5 153.5q0 98 -28 173.5t-95 140.5q-41 39 -73 64t-70 42t-88 27.5t-125 21.5q-11 2 -21 2h-21q-74 0 -140.5 -34.5t-117 -90t-80.5 -125.5t-30 -141v-556q0 -67 37 -89q2 0 12 -2.5t28 -7.5v-48h-290v48h93v844q0 41 -23.5 85t-62 80t-86 59.5 t-95.5 23.5q-38 0 -79 -22q-36 -12 -57.5 -27t-33.5 -35t-15.5 -45t-3.5 -58v-802q0 -47 28.5 -72t102.5 -31v-48h-344z" />
<glyph unicode="&#x1024;" horiz-adv-x="2130" d="M102 0v47h89v763q0 165 97 275q94 81 278 78q60 0 121 -31q41 -21 91 -68l71 -113q31 29 100 87q36 26 102 65q146 55 230 55q414 0 537 -314q42 -108 42 -223v-1072q3 -188 -108.5 -307.5t-297.5 -119.5h-293q-165 0 -283 82q-131 91 -131 251q0 155 128 249 q113 84 275 86q134 3 291 -102v312h39v-605h-39v97q5 86 -101 166t-195 80q-120 0 -203 -81t-85 -202q-3 -134 83.5 -210t220.5 -76h293q113 0 210 137q89 123 89 249v1058q0 97 -27.5 171.5t-93.5 137.5q-89 87 -178 118q-55 18 -173 34q-157 19 -280 -103t-123 -279v-548 q0 -65 37 -86q2 0 39 -11v-47h-286v47h92v831q0 94 -97 175q-79 66 -157 68q-42 3 -87 -21q-89 -31 -102 -94q-5 -24 -5 -68v-789q0 -65 63 -91q16 -6 65 -11v-47h-338zM1399 1567q0 136 97 204t239 68h31q121 0 231 -47v87h31v-467h-31v254q-34 50 -102.5 88t-128.5 38 q-110 0 -186 -63t-76 -167q0 -50 18 -84q50 -92 268 -205q36 -18 167 -78q102 -63 102 -160v-1866h55v-49h-366v47h152q57 2 57 94v1701q0 144 -63 193q-31 21 -125 66q-289 136 -329.5 207t-40.5 139z" />
<glyph unicode="&#x1025;" horiz-adv-x="1060" d="M32 73v152q126 -141 336 -144q288 -5 429 249q63 113 63 241q0 129 -68 248t-180.5 188.5t-238.5 69.5q-113 0 -225 -53v-390h-42v574h42v-105q110 55 272 58q220 2 378.5 -163t158.5 -385q0 -244 -194 -427t-440 -189l-76 6v-737q0 -44 18.5 -74t76.5 -30h209 q105 0 183.5 98t78.5 232v199h42v-595h-39v105q-53 -79 -197 -79h-568v40h78v799q0 39 -36 84q-11 13 -29 20z" />
<glyph unicode="&#x1026;" horiz-adv-x="1276" d="M32 73v152q126 -141 336 -144q288 -5 429 249q63 113 63 241q0 129 -68 248t-180.5 188.5t-238.5 69.5q-113 0 -225 -53v-390h-42v574h42v-105q89 44 211 55q-69 13 -115 50q-19 13 -53 42q-39 39 -55 78q-13 19 -28 71q-8 39 -8 92q0 52 21 107q23 87 102 165 q60 61 173 95q57 18 94 15q68 -2 102 -13q63 -8 134 -71q34 -31 65 -78q19 -26 34 -97q8 -63 11 -113q3 -57 -37 -141h71v-42h-92q-31 -42 -61 -67t-85 -56l-87 -29q-25 -5 -52 -10q174 -22 305 -158q159 -165 159 -385q0 -244 -194 -427t-440 -189l-76 6v-737 q0 -44 18.5 -74t76.5 -30h209q105 0 183.5 98t78.5 232v199h42v-595h-39v105q-53 -79 -197 -79h-568v40h78v799q0 39 -36 84q-11 13 -29 20zM199 1517q0 -37 14.5 -77.5t43.5 -79.5h461l11 23q15 34 15 113q0 29 -2 39q-13 79 -53 126q-29 34 -97 89q-70 39 -136 39 q-47 0 -68 -5q-97 -13 -152 -123q-34 -65 -37 -144zM288 1318q24 -26 76.5 -46t89 -24t57.5 -6q84 0 123 29q42 18 63 47h-409z" />
<glyph unicode="&#x1027;" horiz-adv-x="1209" d="M102 537q-2 160 92 309q87 139 232 225.5t310 86.5q200 0 325 -126q55 -55 55 -97q0 -23 -18 -44q-3 -3 -21 -13h-778q-100 -134 -100 -320q0 -92 34 -168q40 -89 110 -152l27 -23h613q57 0 60 -39q0 -16 -1.5 -24t-14.5 -18.5t-42 -31.5q-73 -55 -201 -89 q-45 -10 -113 -13q-238 -5 -398 144q-168 157 -171 393zM354 943h642l-29 29q-102 102 -291 102q-183 0 -322 -131zM440 162q108 -62 231 -78q26 0 47 -3q128 0 252 81h-530z" />
<glyph unicode="&#x1028;" horiz-adv-x="998" d="M99 -483v1263q0 143 71 246q79 118 218 118h193q117 0 212 -96q95 -95 98 -213q1 -56 -19 -104.5t-51 -104.5q-17 -29 -33 -51.5t-34 -42t-38.5 -38.5t-46.5 -42q-16 -14 -37.5 -23.5t-45 -12.5t-45.5 2t-38.5 20t-25 40.5t-3.5 65.5q16 26 28 52q11 21 20 43.5t9 36.5 v46q0 80 -68 80q-33 0 -66 -37q-14 -17 -24 -34t-16 -36v-139h-27v281h27v-44q32 38 98 41q55 0 101 -31q52 -33 52 -87v-53q0 -17 -10 -40t-21 -44q-14 -25 -31 -51q6 -26 18 -35t25 -7.5t26.5 10.5t22.5 19q31 32 59.5 67t48.5 74t30 83.5t5 95.5q-5 52 -17.5 89.5 t-44.5 78.5q-65 83 -148 83h-168q-188 0 -188 -351v-1231q0 -173 63 -249q78 -94 207 -97q172 -3 272 81q69 58 98.5 140.5t29.5 179.5v47h32v-500h-32v115q-163 -107 -403 -113q-87 -2 -176 42q-207 102 -207 367z" />
<glyph unicode="&#x1029;" horiz-adv-x="1936" d="M-5 1787v47h1226q131 0 194 -89l-95 -84q-23 63 -157 100q-99 26 -194 26h-799v-2377q0 -199 215 -199h928q152 0 254 163q36 57 36 196v231q0 37 -10.5 60.5t-28.5 46.5q-29 37 -110 45h-175v47h505v-47h-147q76 -39 76 -150v-272q0 -68 -43 -149.5t-98 -125.5 q-118 -94 -231 -94h-1126q-66 0 -114.5 55t-48.5 123v2324q0 73 -10.5 96.5t-46.5 26.5zM282 605v624h45v-189q24 29 86 68q84 53 215 55q87 3 164 -62.5t77 -152.5l-2 -505q0 -126 107 -231q58 -55 160 -99q73 -32 126 -32q102 0 204 54t165 135q107 141 113 343 q5 178 -121 309q-173 152 -351 157q-26 0 -86 -7l-3 -441h-42v598h42v-81q18 5 52 13h35q269 0 413 -134q158 -147 158 -406q0 -238 -168 -406q-212 -212 -409 -218q-84 -2 -190 41t-172.5 95.5t-98.5 107.5q-154 -241 -309 -241h-52q-16 0 -63 16v68q10 -8 31 -19 q11 -2 37 -5q29 0 44 3q113 0 192 123q68 107 68 228v550q0 60 -46 97t-109 39q-57 3 -82 -1t-65 -33q-76 -44 -117 -144l-3 -317h-45z" />
<glyph unicode="&#x102a;" horiz-adv-x="5141" d="M102 537q-2 160 92 309q87 139 232 225.5t310 86.5q121 0 231 -47v118h42v-624h-42v367q-110 102 -291 102q-209 0 -341.5 -152t-135.5 -364q-2 -155 123 -296h760q26 0 29 -29q0 -18 -1.5 -22t-6.5 -9q-212 -197 -432 -202q-238 -5 -398 144q-168 157 -171 393zM391 196 q115 -94 280 -112q26 0 50 -3q154 0 293 115h-623zM1205 1787v47h1226q131 0 194 -89l-95 -84q-23 63 -157 100q-99 26 -194 26h-799v-2377q0 -199 215 -199h928q152 0 254 163q36 57 36 196v231q0 37 -10.5 60.5t-28.5 46.5q-29 37 -110 45h-175v47h505v-47h-147 q76 -39 76 -150v-272q0 -68 -43 -149.5t-98 -125.5q-118 -94 -231 -94h-1126q-66 0 -114.5 55t-48.5 123v2324q0 73 -10.5 96.5t-46.5 26.5zM1492 605v624h45v-189q24 29 86 68q84 53 215 55q87 3 164 -62.5t77 -152.5v-505q-2 -126 105 -231q58 -55 160 -99q73 -32 126 -32 q102 0 204 54t165 135q107 141 113 343q5 178 -121 309q-173 152 -351 157q-26 0 -86 -7v-441h-45v598h42v-81q18 5 52 13h35q269 0 413 -134q158 -147 158 -406q0 -238 -168 -406q-212 -212 -409 -218q-84 -2 -190 41t-172.5 95.5t-98.5 107.5q-154 -241 -309 -241h-52 q-16 0 -63 16v68q10 -8 31 -19q11 -2 37 -5q29 0 44 3q113 0 192 123q68 107 68 228v550q0 60 -46 97t-109 39q-57 3 -82 -1t-65 -33q-76 -44 -117 -144v-317h-48zM3060 647q45 212 215 361q115 102 251 136q-22 14 -40 32q-126 116 -129 294q-2 97 63 194q50 73 123 118 q66 57 244 57q134 -5 220 -42v87h31v-467h-31v255q-102 94 -220 96q-118 3 -173 -20q-113 -32 -155 -150q-15 -42 -15 -110q0 -113 112 -236q58 -63 129 -81q23 -5 78 -13v-5q56 -8 111 -28q106 -38 184 -111q168 -155 171 -393q2 -163 -89.5 -305.5t-235.5 -229t-309 -86.5 h-45q-57 0 -81 21v-92h-42v440h42v-183q18 -37 70.5 -69.5t115.5 -32.5q210 -3 346 154q128 150 131 362q0 81 -37 165q-76 170 -262 270q-78 42 -173 42h-31q-194 0 -337 -131t-145 -325z" />
<glyph unicode="&#x102b;" horiz-adv-x="389" d="M-492 1420q0 73 36.5 162.5t89.5 136.5q131 112 238 98q213 22 304 -211q32 -79 32 -173v-1299q0 -92 68 -97h68v-37h-356v37h104v1378q0 361 -220 347q-91 17 -194 -85q-81 -102 -81 -226q0 -73 33 -133t122 -102q50 -16 94 -19q29 -2 68 16l19 -34q-55 -31 -150 -34 q-136 -3 -220 97q-29 37 -38 84t-17 94z" />
<glyph unicode="&#x102c;" horiz-adv-x="1117" d="M-137 647q45 212 215 361.5t385 152.5q108 2 214 -36t184 -111q168 -155 171 -393q2 -163 -89.5 -305.5t-235.5 -229t-309 -86.5h-45q-57 0 -81 21v-92h-42v440h42v-183q18 -37 70.5 -69.5t115.5 -32.5q210 -3 346 154q128 150 131 362q0 81 -37 165q-76 170 -262 270 q-78 42 -173 42h-31q-194 0 -337 -131t-145 -325z" />
<glyph unicode="&#x102d;" d="M-770 1491q0 52 21 107q23 87 102 165q60 61 173 95q57 18 94 15q68 -2 102 -13q63 -8 134 -71q34 -31 65 -78q19 -26 34 -97q8 -66 11 -113q3 -86 -55 -173q-32 -47 -68 -78q-26 -21 -81 -53q-40 -15 -85.5 -27t-95.5 -20q-134 0 -207 58q-19 13 -53 42q-39 39 -55 78 q-13 19 -28 71q-8 39 -8 92zM-671 1517q-2 -102 97 -199q60 -58 176 -74q18 0 39 -2q79 0 123 29q66 44 95 112q15 37 15 113q0 29 -2 39q-13 79 -53 126q-29 34 -97 89q-70 39 -136 39q-47 0 -68 -5q-97 -13 -152 -123q-34 -68 -37 -144z" />
<glyph unicode="&#x102e;" d="M-770 1491q0 52 21 107q23 87 102 165q60 61 173 95q57 18 94 15q68 -2 102 -13q63 -8 134 -71q34 -31 65 -78q19 -26 34 -97q8 -63 11 -113q3 -57 -37 -141h71v-42h-92q-31 -42 -61 -67t-85 -56l-87 -29q-44 -8 -94 -16q-134 0 -207 58q-19 13 -53 42q-39 39 -55 78 q-13 19 -28 71q-8 39 -8 92zM-671 1517q0 -37 14.5 -77.5t43.5 -79.5h461l11 23q15 34 15 113q0 29 -2 39q-13 79 -53 126q-29 34 -97 89q-70 39 -136 39q-47 0 -68 -5q-97 -13 -152 -123q-34 -65 -37 -144zM-582 1318q24 -26 76.5 -46t89 -24t57.5 -6q84 0 123 29 q42 18 63 47h-409z" />
<glyph unicode="&#x102f;" d="M-545 -18v36h197v-752q0 -44 18 -74t76 -30h26q131 0 131 94v251h39v-411h-36v50q-47 -24 -144 -24h-307v40h79v746q0 40 -12 57t-30 17h-37z" />
<glyph unicode="&#x1030;" d="M-639 18h222v-896h-117v768q0 44 -6 58q-10 23 -47 26h-52v44zM-325 18h118v-752q0 -42 26 -72t68 -32h27q47 0 89 26t42 68v251h39v-411h-37v50q-47 -24 -144 -24h-79q-65 0 -107 47.5t-42 109.5v739z" />
<glyph unicode="&#x1031;" horiz-adv-x="1204" d="M102 537q-2 160 92 309q87 139 232 225.5t310 86.5q121 0 231 -47v118h42v-624h-42v367q-110 102 -291 102q-209 0 -341.5 -152t-135.5 -364q-2 -155 123 -296h760q26 0 29 -29q0 -18 -1.5 -22t-6.5 -9q-212 -197 -432 -202q-238 -5 -398 144q-168 157 -171 393zM391 196 q115 -94 280 -112q26 0 50 -3q154 0 293 115h-623z" />
<glyph unicode="&#x1032;" d="M-723 1698l65 65l530 -529l-66 -65z" />
<glyph unicode="&#x1033;" d="M-926 1491q0 52 21 107q23 87 102 165q60 61 173 95q57 18 94 15q68 -2 102 -13q63 -8 134 -71q34 -31 65 -78q19 -26 34 -97q8 -66 11 -113q3 -86 -55 -173q-32 -47 -68 -78q-26 -21 -81 -53q-40 -15 -85.5 -27t-95.5 -20q-134 0 -207 58q-19 13 -53 42q-39 39 -55 78 q-13 19 -28 71q-8 39 -8 92zM-827 1517q-2 -102 97 -199q60 -58 176 -74q18 0 39 -2q79 0 123 29q66 44 95 112q15 37 15 113q0 29 -2 39q-13 79 -53 126q-29 34 -97 89q-70 39 -136 39q-47 0 -68 -5q-97 -13 -152 -123q-34 -68 -37 -144zM-713 1460q0 29 2 41q0 91 100 147 q44 25 114 28q35 2 66.5 -23t31.5 -64v-75q0 -52 -52.5 -114t-105.5 -62h-35q-36 0 -54 13q-36 23 -57 58q-6 9 -7 28.5t-3 22.5zM-629 1452q0 -63 37 -83h35q74 0 74 127v72q0 72 -46 78q-38 0 -69 -25q-10 -10 -23 -48q-4 -25 -8 -67v-54z" />
<glyph unicode="&#x1034;" d="M-858 1234l530 529l65 -65l-529 -529z" />
<glyph unicode="&#x1035;" d="M-926 1483q0 53 15.5 102t44.5 97q28 45 66 81.5t83 62.5t95.5 40.5t103.5 14.5q69 0 132 -24v68h38v-413h-38v238q-32 26 -73.5 40.5t-95.5 14.5q-124 0 -205 -90q-77 -90 -80 -220q-3 -87 70 -172h467q16 0 22.5 -8t8.5 -19v-2v-8v-8q-2 -3 -2.5 -4.5t-2.5 -3.5l-2 -2 l-2 -3q-135 -124 -276 -129q-154 -3 -257 94q-109 99 -112 253zM-725 1278q15 -10 35.5 -20.5t43 -20t46 -16.5t43.5 -9h15.5t15.5 -2q19 0 43 6t49 15t48.5 20.5t40.5 23.5z" />
<glyph unicode="&#x1036;" d="M-585 1420q0 37 3 52q0 113 125 184q55 31 142 34q44 3 83.5 -28.5t39.5 -79.5v-94q0 -65 -65.5 -142.5t-131.5 -77.5h-44q-45 0 -68 16q-45 29 -71 73q-8 11 -9 35.5t-4 27.5zM-480 1410q0 -79 47 -103h44q92 0 92 158v91q0 89 -57 97q-48 0 -87 -31q-13 -13 -29 -60 q-5 -32 -10 -84v-68z" />
<glyph unicode="&#x1037;" d="M-645 -492q0 37 3 52q0 113 125 184q55 31 142 34q44 3 83.5 -28.5t39.5 -79.5v-94q0 -65 -65.5 -142.5t-131.5 -77.5h-44q-45 0 -68 16q-45 29 -71 73q-8 11 -9 35.5t-4 27.5zM-540 -434v-68q0 -79 47 -103h44q92 0 92 158v91q0 89 -57 97q-48 0 -87 -31 q-13 -13 -29 -60q-5 -32 -10 -84z" />
<glyph unicode="&#x1038;" horiz-adv-x="615" d="M92 174v37q0 10 3 36q3 42 6.5 52.5t27.5 47.5q18 29 42 52q92 76 207 76q50 0 89 -31.5t39 -80.5v-152q0 -69 -70.5 -150t-136.5 -81h-81q-50 0 -110 92q-16 23 -16 102zM92 842v37q0 10 3 36q3 42 6.5 52.5t27.5 47.5q18 29 42 52q92 76 207 76q50 0 89 -31.5t39 -80.5 v-152q0 -68 -70.5 -149.5t-136.5 -81.5h-81q-50 0 -110 92q-16 23 -16 102zM189 127q0 -45 58 -102q8 -3 52 -6q53 -2 81.5 50t28.5 118v149q0 50 -10.5 73.5t-41.5 28.5q-63 0 -113 -34q-55 -18 -55 -152v-125zM189 795q0 -45 58 -102q8 -3 52 -6q53 -2 81.5 50.5 t28.5 117.5v149q0 50 -10.5 73.5t-41.5 29.5q-63 0 -113 -34q-55 -19 -55 -152v-126z" />
<glyph unicode="&#x1039;" horiz-adv-x="430" d="M0 875q0 111 44.5 183.5t139.5 72.5h246v-105h-55v-1036h-66v1036h-87v-1036h-65v637q-76 8 -116.5 77.5t-40.5 170.5z" />
<glyph unicode="&#x103a;" d="M-905 1470q-2 97 63 194q50 73 123 118q66 57 244 57q134 -5 220 -42v87h31v-467h-31v255q-102 94 -220 96q-118 3 -173 -20q-113 -32 -155 -150q-15 -42 -15 -110q0 -113 112 -236q58 -63 129 -81q23 -5 78 -13v-63q-89 0 -139 11q-81 15 -138 70q-126 116 -129 294z " />
<glyph unicode="&#x103b;" horiz-adv-x="202" d="M-487 -3h412v-39h-126q-81 -126 -87 -315q-2 -96 6 -157q0 -44 97 -147.5t144 -106.5q36 -3 36 58v1653q0 29 -1 46t-21 45.5t-34 28.5t-22 3v47h183v-1823q0 -139 -97 -142q-84 -2 -239.5 129t-155.5 209q0 131 -6 173q0 170 87 299h-176v39z" />
<glyph unicode="&#x103c;" horiz-adv-x="411" d="M45 1787v47h807q36 0 63.5 -10.5t56.5 -41.5v159h47v-568h-47v92q0 209 -112 275q-82 47 -312 47h-328v-2377q0 -199 215 -199h115q152 0 255 163q36 57 36 196v231q0 73 -34 115q-57 58 -115 58h-176v47h506v-47h-147q76 -42 76 -171v-272q0 -68 -43 -149.5t-98 -125.5 q-118 -94 -231 -94h-314q-66 0 -114.5 55t-48.5 123v2324q0 73 -10.5 96.5t-46.5 26.5z" />
<glyph unicode="&#x103d;" d="M-1033 -459q0 186 144 323q97 91 222 115q61 10 137 13q89 3 159.5 -55t70.5 -144v-273q0 -112 -127 -260t-240 -148q-60 0 -81 -3q-44 0 -65 5q-66 8 -134 82q-21 23 -60 78q-26 37 -26 184v83zM-923 -453q0 -129 5 -165q13 -90 68 -145q37 -36 51.5 -45.5t55.5 -14.5 q50 0 76 3q97 0 181 123q76 110 76 223v267q0 60 -45.5 96.5t-108.5 39.5q-118 5 -194 -39q-42 -24 -74 -60q-15 -19 -53 -76.5t-38 -206.5z" />
<glyph unicode="&#x103e;" d="M-1067 -844q0 84 94 74q37 -3 58 -51.5t42 -43.5q107 24 141 129q21 65 21 204v367q0 47 -12 66.5t-54 38.5q-28 5 -86 10v47h270v-471q0 -181 -79 -307q-94 -146 -264 -149q-32 0 -53 5q-47 0 -70 50q-6 16 -8 31z" />
<glyph unicode="&#x103f;" horiz-adv-x="2324" d="M102 605v624h45v-189q24 29 86 68q84 53 215 55q87 3 164 -62.5t77 -152.5v-589q0 -113 3 -131q10 -71 63 -110q65 -50 112 -50q126 -3 202 113q68 102 68 233v550q0 42 -28.5 77.5t-70.5 35.5q-32 0 -54 -27.5t-22 -106.5v-338h-45v624h45v-68h70q84 0 153.5 -58 t69.5 -155v-505q0 -126 108 -231q57 -55 159 -99q74 -32 126 -32q102 0 204.5 54t165.5 135q107 141 112 343q6 178 -120 309q-173 152 -351 157q-27 0 -87 -7v-441h-44v598h42v-81q18 5 52 13h34q270 0 414 -134q157 -147 157 -406q0 -238 -167 -406q-213 -212 -409 -218 q-84 -2 -190 41t-173 95.5t-98 107.5q-150 -244 -330 -244q-79 0 -110 19q-111 55 -163 173q-152 -189 -275 -189h-52q-16 0 -63 16v68q10 -8 31 -19q11 -2 37 -5q29 0 44 3q113 0 192 123q68 107 68 228v550q0 60 -46 97t-109 39q-57 3 -82 -1t-65 -33q-76 -44 -117 -144 l-3 -317h-45z" />
<glyph unicode="&#x1040;" horiz-adv-x="1401" d="M80 584v8q0 40 4 73.5t12.5 65t22.5 62.5t34 66q78 137 190.5 205t269.5 75q-4 -20 -7.5 -43.5t-7.5 -49.5q-154 -27 -269 -142q-75 -74 -113.5 -161.5t-38.5 -189.5v-11q2 -69 18 -127.5t49 -111.5q130 -209 358 -234q3 -25 6.5 -45.5t7.5 -39.5q-144 14 -252 89.5 t-190 208.5q-24 39 -42 74t-29 70t-17 73.5t-6 84.5zM716 -18q2 19 6 40t7 45q83 11 160 57t136 114t94 151.5t35 170.5v8q0 128 -62 240q-131 233 -360 247l-13 80q49 -6 93 -20.5t84.5 -37.5t79.5 -54.5t79 -70.5q49 -48 85.5 -94.5t61 -96.5t37 -106.5t12.5 -124.5v-4 q0 -60 -9 -111.5t-28 -97.5t-49 -88.5t-73 -85.5q-42 -42 -83.5 -71.5t-86.5 -48.5t-95.5 -28.5t-110.5 -12.5z" />
<glyph unicode="&#x1041;" horiz-adv-x="1117" d="M82 86v147q150 -149 336 -152q288 -5 429 249q63 113 63 241q0 129 -68 248t-180.5 188.5t-238.5 69.5q-113 0 -225 -53v-390h-42v574h42v-105q110 55 272 58q220 2 378.5 -163t158.5 -385q0 -241 -195 -425.5t-439 -190.5q-157 -2 -291 89z" />
<glyph unicode="&#x1042;" horiz-adv-x="931" d="M90 -537q-3 65 38 134.5t98 101.5l21 -29q-57 -73 -60 -173q-3 -89 56 -160t148 -71q226 0 226 365v1407q0 44 -29 65q-8 8 -89 24h-139v36h456v-36h-84v-1515q0 -105 -29 -173q-31 -99 -117.5 -162t-194.5 -66q-115 -2 -206.5 68.5t-94.5 183.5z" />
<glyph unicode="&#x1043;" horiz-adv-x="797" d="M113 21v105q89 -66 192 -66q133 0 209 116q66 99 66 238v550q0 60 -46 97t-109 39q-57 3 -82 -1t-65 -33q-76 -44 -117 -144v-317h-48v624h45v-189q24 29 86 68q84 53 215 55q87 3 164 -62.5t77 -152.5v-505q0 -81 -42 -176q-31 -71 -57 -105q-53 -68 -89 -94 q-89 -63 -220 -68l293 -760q16 -39 63 -65q18 -8 63 -13h42v-40h-333v40h79l-289 746q0 55 -36 84q-11 11 -48 26q-2 0 -13 3z" />
<glyph unicode="&#x1044;" horiz-adv-x="1214" d="M102 537q-2 160 92 309q87 139 232 225.5t310 86.5q121 0 231 -47v118h42v-624h-42v367q-110 102 -291 102q-209 0 -341.5 -152t-135.5 -364q-2 -173 144 -320q126 -125 328 -154q26 0 47 -3q197 0 362 181l39 -42q-178 -377 -383 -644q-86 -113 -220 -257 q-159 -171 -243 -226q-34 -15 -76 -20q-53 0 -79 36q-13 16 -16 47q0 87 82 89q5 0 31 -15.5t42 -15.5q21 0 45 16q188 128 387 416q163 236 218 412q-42 -19 -121 -45q-50 -10 -115 -13q-238 -5 -398 144q-168 157 -171 393z" />
<glyph unicode="&#x1045;" horiz-adv-x="916" d="M102 183v627q0 104 34 180q58 131 179 155q76 16 162 16h396v-34h-84v-1515q0 -105 -29 -173q-31 -99 -117.5 -162t-194.5 -66q-115 -2 -206.5 68.5t-94.5 183.5q-3 65 38 134.5t98 101.5l21 -29q-58 -73 -60 -173q-3 -89 56 -160t148 -71q226 0 226 365v1407 q0 44 -26.5 66.5t-167.5 22.5q-142 0 -223 -74q-16 -15 -25 -46.5t-9 -68.5v-94q113 -27 199 -144.5t86 -233.5q0 -283 -157 -283h-249zM223 333q0 -66 63 -92q16 -5 65 -10q47 7 58 99q3 66 3 131q2 97 -58 191.5t-131 120.5v-440z" />
<glyph unicode="&#x1046;" horiz-adv-x="1013" d="M102 134v1289q0 146 71 251q105 152 312 157q92 3 204 -23q100 -21 199 -89v115h32v-500h-32v47q0 204 -128 319q-86 79 -272 82q-124 2 -207 -97q-63 -76 -63 -249v-1258q0 -123 89 -123h398q45 0 68 63q3 16 11 65v150q0 36 -19 57q-44 53 -262 184q-160 97 -160 202 v151q0 53 -2 69q0 110 173 110h55q55 0 86.5 -14.5t57.5 -46.5v66h39v-414h-39v204q-42 157 -157 157h-29q-29 0 -50 -23.5t-21 -93.5v-147q0 -147 139 -210q210 -97 241 -128q50 -50 58 -113v-212q0 -131 -205 -131h-482q-105 0 -105 134z" />
<glyph unicode="&#x1047;" horiz-adv-x="1363" d="M112 272v891h40v-385q18 45 42 81q91 139 235 226q124 73 310 76q165 2 262 -63q117 -81 172 -155q76 -102 84 -272v-42q-2 -11 -5 -26q-23 -121 -139 -310q-194 -317 -228 -385q-118 -233 -118 -403q0 -163 97 -281q16 -15 37 -18q31 8 52 8q42 0 63 -37q6 -10 8 -31 q0 -50 -52 -66q-19 -7 -63 -7q-47 0 -97 45.5t-68 92.5q-39 97 -42 247q-3 191 105 442q47 113 199 401q110 210 118 254q0 27 5 82q0 191 -105 304q-123 131 -333 136q-193 2 -351 -142q-36 -34 -76 -97q-112 -183 -112 -537v-29h-40z" />
<glyph unicode="&#x1048;" horiz-adv-x="916" d="M102 0v810q0 165 97 275q95 81 270 81q68 -3 129 -34q102 -53 162 -181q21 -52 23.5 -94t5.5 -61v-652q0 -65 37 -86q2 0 39 -11v-47h-286v47h92v831q0 94 -97 175q-79 66 -157 68q-42 3 -109 -24.5t-80 -90.5q-5 -24 -5 -68v-94q118 -37 201.5 -147t83.5 -231v-188 q0 -118 -23 -178q-39 -100 -134 -100h-249zM223 149q0 -65 63 -91q18 -8 65 -11q40 -2 55 94q6 35 6 131v189q0 94 -52.5 182t-136.5 130v-624z" />
<glyph unicode="&#x1049;" horiz-adv-x="1013" d="M112 -469v1263q0 144 71 246q79 118 218 118h193q118 0 212.5 -95.5t97.5 -213.5q2 -113 -70 -208.5t-182 -132.5q-73 -23 -129.5 -107t-56.5 -163v-68q0 -118 100 -118q49 0 97 55q42 48 60 103v204h39v-414h-39v65q-50 -57 -144 -60q-81 -2 -150 45q-76 50 -76 128v79 q0 99 87 194q78 86 181 120q167 55 173 278q2 86 -62 168.5t-148 82.5h-168q-188 0 -188 -351v-1231q0 -173 63 -249q78 -94 207 -97q172 -3 272 81q68 58 98 140.5t30 179.5v47h32v-500h-32v115q-162 -107 -403 -113q-87 -2 -176 42q-207 102 -207 367z" />
<glyph unicode="&#x104a;" horiz-adv-x="500" d="M55 865l278 327l31 -31l-68 -76v-930q0 -95 84 -113l34 5v-47h-354v47h118v894l-92 -108z" />
<glyph unicode="&#x104b;" horiz-adv-x="894" d="M55 865l278 327l31 -31l-68 -76v-930q0 -108 92 -108h123v894l-92 -108l-31 32l277 327l32 -31l-68 -76v-930q0 -108 84 -108h34v-47h-687v47h118v894l-92 -108z" />
<glyph unicode="&#x104c;" horiz-adv-x="1073" d="M50 -660q0 267 309 272q76 3 145.5 -61.5t71.5 -140.5l-36 -5q0 66 -59 110.5t-127 44.5q-53 0 -110 -42q-82 -60 -84 -168q-3 -123 123 -162q58 -19 183 -19h294q57 0 57 92v312q0 186 -91 249q-63 44 -207 44h-467v262q0 58 42 61q16 0 37 -16q123 -89 257 -92 q288 -2 429 249q63 113 63 241q0 129 -68 248t-180.5 188.5t-238.5 69.5q-113 0 -225 -53v-390h-42v574h42v-105q76 34 173 52l-27 21q-125 100 -128 294q-3 97 63 194q50 73 123 118q60 42 291 49q86 3 173 -34v87h31v-467h-31v255q-102 94 -220 96q-118 3 -173 -20 q-113 -32 -155 -150q-16 -42 -16 -110q0 -113 113 -236q37 -39 89 -68q34 -13 118 -26v-18q123 -34 225 -142q158 -165 160 -385q3 -241 -193.5 -425.5t-440.5 -190.5q-91 -2 -186 34v-117h446q136 0 222 -63q95 -74 95 -205v-477h55v-49h-509q-416 5 -416 220z" />
<glyph unicode="&#x104d;" horiz-adv-x="1110" d="M102 0v810q0 165 97 275q68 78 278 78q60 0 121 -31q41 -21 91 -68l71 -113q21 -52 23.5 -94t5.5 -61v-1530h-118v1612q0 94 -97 175q-79 66 -157 68q-42 3 -87 -21q-89 -31 -102 -94q-5 -24 -5 -68v-94q118 -37 201.5 -147t83.5 -231v-188q0 -118 -23 -178 q-39 -100 -134 -100h-249zM123 -660q0 267 310 272q75 3 144.5 -61.5t72.5 -140.5l-37 -5q0 66 -59 110.5t-127 44.5q-52 0 -110 -42q-81 -60 -84 -168q-2 -123 124 -162q57 -19 183 -19h293q58 0 58 92v1701q0 131 -26 178t-131 86l-168 66q-113 49 -162 99q-68 68 -71 173 q-3 55 26 115q50 110 178 134q68 13 144 13h76q92 0 173 -34v87h32v-467h-32v254q-104 97 -220 97h-73q-50 0 -79 -10q-73 -19 -115 -102q-8 -24 -13 -79q0 -71 42 -121q26 -31 102 -83q65 -45 155 -84q146 -66 165 -81q99 -69 99 -168v-1866h55v-49l-508 2q-417 3 -417 218 zM223 149q0 -65 63 -91q18 -8 65 -11q40 -2 55 94q6 35 6 131v189q0 94 -52.5 182t-136.5 130v-624z" />
<glyph unicode="&#x104e;" horiz-adv-x="1107" d="M104 613q0 220 158.5 385t378.5 163q162 -3 272 -58v105h42v-574h-42v390q-112 53 -225 53q-126 0 -238.5 -69.5t-180.5 -188.5t-68 -248q0 -128 63 -241q141 -254 429 -249q210 3 336 144v-152l-32 -8q-18 -7 -29 -20q-36 -45 -36 -84v-799h78v-40h-377v40 q144 0 162.5 30t18.5 74v737l-76 -6q-246 6 -440 189t-194 427z" />
<glyph unicode="&#x104f;" horiz-adv-x="1439" d="M95 527q-2 160 92 309q87 139 232 225.5t310 86.5q71 0 170.5 -32.5t154.5 -93.5l21 -23v152l66 2v-1163h-66v880l-783 -2q-100 -134 -100 -320q0 -92 34 -168q40 -89 110 -152l27 -23h560q58 0 61 -39q0 -16 -1.5 -24t-12.5 -16q-34 -31 -133 -94q-66 -32 -102 -37 q-24 -5 -71 -5q-244 0 -398 144q-168 157 -171 393zM347 933h642l-29 29q-102 102 -291 102q-183 0 -322 -131zM433 152q95 -52 147 -68q37 -8 84 -10q123 -3 246 78h-477zM716 1554q-2 55 27 115q49 110 178 134q68 13 144 13h76q91 0 173 -34v87h31v-467h-31v254 q-105 97 -220 97h-74q-50 0 -78 -10q-74 -19 -116 -102q-7 -24 -13 -79q0 -71 42 -121q26 -31 102 -83q66 -45 155 -84q147 -66 165 -81q100 -69 100 -168v-985h55v-50h-273v50h58q57 0 57 91v821q0 131 -26 178t-131 86l-167 66q-113 49 -163 99q-68 68 -71 173z" />
<glyph unicode="&#x1050;" horiz-adv-x="879" d="M4 0v47h88v756q0 164 96 273q102 94 276 78q60 0 119 -31q110 -52 162 -179q20 -52 23 -93.5t5 -60.5v-647q0 -65 37 -86q2 0 39 -10v-47h-284v47h91v824q0 94 -96 174q-78 65 -156 68q-42 2 -96 -18q-78 -34 -91 -97q-5 -23 -5 -67v-783q0 -65 62 -91q16 -5 65 -10v-47 h-335zM269 491q0 31 3 44q0 97 107 158q47 26 121 29q38 2 71.5 -25t33.5 -68v-80q0 -56 -56 -122t-112 -66h-38q-38 0 -58 13q-38 25 -60 63q-7 9 -8 30t-4 24zM359 482q0 -67 40 -88h38q79 0 79 135v78q0 76 -49 83q-41 0 -74 -27q-12 -11 -25 -51q-5 -27 -9 -72v-58z" />
<glyph unicode="&#x1051;" horiz-adv-x="886" d="M29 1116v47h191v-746q0 -349 213 -352q123 -2 180.5 70t57.5 206v657q0 118 -152 118v47h270v-686q0 -157 -60 -286q-14 -29 -61 -94q-91 -100 -256 -100q-163 0 -247 124q-63 94 -63 262v620q0 53 3 69q0 23 -13 31t-63 13zM269 491q0 31 3 44q0 97 107 158 q47 26 121 29q38 2 71.5 -25t33.5 -68v-80q0 -56 -56 -122t-112 -66h-38q-38 0 -58 13q-38 25 -60 63q-7 9 -8 30t-4 24zM359 482q0 -67 40 -88h38q79 0 79 135v78q0 76 -49 83q-41 0 -74 -27q-12 -11 -25 -51q-5 -27 -9 -72v-58z" />
<glyph unicode="&#x1052;" horiz-adv-x="1334" d="M97 594q0 108 38 201t117 174q75 78 162.5 117.5t190.5 39.5h15h18t18 -1v-6h5v102h41v-559h-41v380l-9 3q-59 0 -116.5 -19.5t-108.5 -53.5t-94.5 -81t-75 -102t-49 -115.5t-17.5 -121.5q0 -63 15.5 -121t45.5 -113q134 -242 409 -242h10q200 3 322 134q20 38 29.5 92.5 t9.5 136.5v353q-14 5 -30 12.5t-33 15.5q-29 14 -45 40t-16 59t14.5 61.5t38.5 49t56 32t68 12.5h4q54 0 120 -34v84h22v-238h-22q0 20 -8 44t-23 54q-30 61 -101 63h-7q-32 0 -56 -18t-40 -51q-7 -17 -7 -50q0 -29 35 -50q3 -1 17 -5t32.5 -10t38 -14t31.5 -16l3 -1 q10 -7 16.5 -14.5t6.5 -17.5v-395q0 -164 -61 -255q-9 -13 -34 -39t-68 -52t-105 -45.5t-146 -19.5h-19q-68 2 -125.5 14t-109.5 35t-99.5 56.5t-94.5 78.5q-94 91 -141 193.5t-47 222.5z" />
<glyph unicode="&#x1053;" horiz-adv-x="1092" d="M13 891v238h22v-84q32 16 61 24.5t56 8.5h8q35 -1 67 -12.5t56 -32t38.5 -48.5t14.5 -62q0 -18 -1.5 -40.5t-7.5 -45t-18 -44t-33 -36.5q-17 -12 -33.5 -17.5t-30.5 -10.5q-2 -57 -3 -100t-1 -84q0 -29 1 -58t1 -62q0 -30 1.5 -67.5t10 -77t26.5 -77t50 -68t80.5 -50.5 t118.5 -24q7 0 14 -0.5t14 -0.5q54 0 101 8t89.5 26.5t80 48.5t71.5 74q32 41 43 84.5t11.5 89.5t-3.5 93.5t-3 96.5q0 13 -2 25q-2 11 -4 23t-5 22q-23 67 -76.5 99t-126.5 33q-22 0 -37.5 7.5t-32.5 19.5q-21 15 -33 36.5t-18 44t-7.5 45t-1.5 40.5q0 34 14.5 62 t38.5 48.5t56 32t67 12.5h8q27 0 56 -8.5t61 -24.5v84h22v-238h-22q0 34 -31 99q-28 59 -101 62h-5q-66 0 -98 -69q-5 -9 -6 -22t-1 -28q0 -8 1.5 -20t6 -25.5t11 -27.5t17.5 -25q12 -14 25.5 -21.5t28.5 -11.5t31.5 -7t34.5 -7q37 -9 75 -18.5t70.5 -29.5t57 -57t34.5 -101 q2 -8 2 -18v-21h1q-2 -56 -6.5 -111t-17 -108.5t-36.5 -103t-64 -94.5q-45 -49 -89.5 -84.5t-93 -58.5t-104 -34t-121.5 -11q-93 0 -166.5 27t-124.5 77.5t-78 123.5t-27 165q0 61 -1 120t-1 136v55t1 61q0 10 6.5 17.5t17.5 14.5q13 9 29 12l32 6t31.5 9t27.5 20 q10 11 17 25t11.5 27.5t6 25.5t1.5 20q0 15 -1 28t-6 22q-32 69 -98 69h-5q-73 -3 -101 -62q-31 -65 -31 -99h-22z" />
<glyph unicode="&#x1054;" horiz-adv-x="1178" d="M102 687q3 236 171 393q160 149 398 144q220 -5 432 -202q5 -5 6.5 -9t1.5 -22q-3 -29 -29 -29h-760q-125 -141 -123 -296q3 -212 135.5 -364t341.5 -152q181 0 291 102v367h42v-624h-42v118q-110 -47 -231 -47q-165 0 -310 86.5t-232 225.5q-94 149 -92 309zM391 1028 h623q-139 115 -293 115q-24 -3 -50 -3q-165 -18 -280 -112z" />
<glyph unicode="&#x1055;" horiz-adv-x="1302" d="M106 616v5q3 239 173 398q158 146 386 146h18q222 -4 438 -205l1 -1q5 -5 6 -9t1 -21q-3 -29 -29 -29h-771q-125 -143 -125 -297v-4q3 -215 137 -369q25 -29 53 -53.5t59 -42t66.5 -27.5t76.5 -10q5 0 9.5 0.5t9.5 0.5q42 2 81.5 11t72.5 26.5t57.5 44t36.5 63.5 q11 -62 31.5 -97.5t46 -53t53 -21.5t53.5 -4q47 7 80.5 32.5t57.5 63.5t41.5 85t31.5 97v-252q-2 -2 -3 -2.5t-3 -2.5q-12 -11 -30.5 -26t-42.5 -29t-52 -24t-59 -10q-29 0 -61 3.5t-61.5 15t-55.5 34t-43 61.5q-28 -60 -74 -87t-103 -27q-73 0 -134 19t-109 47 q-75 45 -129 108t-99 134q-48 75 -70.5 151.5t-22.5 157.5zM399 966h632q-141 117 -297 117q-26 -3 -51 -3q-169 -18 -284 -114z" />
<glyph unicode="&#x1056;" horiz-adv-x="1225" d="M-4 611l111 4v-40q1 -49 3.5 -93.5t11 -86.5t26 -82.5t49.5 -81.5q69 -89 149 -133t188 -44q7 0 14 0.5t14 0.5q70 4 126 24t99 50.5t74 68t50.5 77t28.5 77t9 67.5q0 33 1 62t1 58q0 41 -1 84t-3 100q-14 5 -30.5 10.5t-33.5 17.5q-21 15 -33 36.5t-18 44t-7.5 45 t-1.5 40.5q0 34 14.5 62t38.5 48.5t56 32t67 12.5h8q27 0 56 -8.5t61 -24.5v84h22v-238h-22q0 34 -31 99q-28 59 -101 62h-5q-66 0 -98 -69q-5 -9 -6 -22t-1 -28q0 -8 1.5 -20t6 -25.5t11 -27.5t17.5 -25q12 -14 27.5 -20t31.5 -9l32 -6t29 -12q11 -7 17.5 -14.5t6.5 -17.5 q1 -32 1 -61v-55q0 -77 -1 -136t-1 -120q0 -92 -42.5 -165t-112 -123.5t-159 -77.5t-182.5 -27q-66 0 -121 13.5t-103 39t-92 63t-89 86.5q-85 94 -124.5 200t-39.5 224z" />
<glyph unicode="&#x1057;" horiz-adv-x="1275" d="M-3 631l119 4v-43q0 -52 2 -100t11.5 -93t29 -88.5t53.5 -87.5q13 -16 23 -29.5t27 -27.5q31 -25 64.5 -38.5t65.5 -13.5q48 0 88 35t58 115h72q12 -37 28.5 -62.5t36 -41t41.5 -22t44 -6.5q26 0 51 8t48 19q31 31 54 66.5t37.5 70.5t21.5 68t7 60q0 36 1 66.5t1 62.5 q0 45 -1 90.5t-3 107.5q-16 5 -33 10.5t-36 19.5q-23 16 -35.5 38.5t-19 47t-8 49t-1.5 43.5q0 36 15.5 66t41.5 52t60 34.5t71 13.5h9q29 0 60 -9.5t66 -26.5v91h23v-256h-23q0 38 -34 106q-30 64 -108 67h-5q-72 0 -105 -74q-6 -10 -7 -23.5t-1 -30.5q0 -8 1.5 -21t6 -28 t12 -29.5t19.5 -26.5q13 -15 29.5 -21.5t33.5 -9.5l34 -6t31 -13q26 -16 26 -34q1 -35 1 -65.5v-59.5q0 -41 -0.5 -77t-0.5 -69t-0.5 -64t-0.5 -64q0 -63 -16 -125t-48.5 -112t-81 -84t-112.5 -42q-10 -2 -18.5 -2h-17.5q-41 0 -75 10t-66 24q-31 14 -55 38t-37 63 q-29 -43 -54 -70.5t-50 -43.5q-19 -12 -38 -17t-36 -5q-22 0 -40 7t-31 19q-39 26 -75.5 59.5t-74.5 75.5q-91 101 -133.5 214t-42.5 241z" />
<glyph unicode="&#x1058;" d="M-948 -440q3 170 123 284q117 108 288 105q159 -5 310 -146q6 -5 7.5 -10.5t1.5 -18.5v-2q-2 -14 -9.5 -22t-21.5 -8h-528q-81 -95 -80 -196q1 -145 91 -248q92 -103 232 -103q61 0 108.5 17t84.5 49v263h52v-460h-52v77q-36 -14 -73.5 -21t-77.5 -7q-118 0 -223 63 q-103 61 -167 162q-68 107 -66 222zM-699 -189h369q-83 58 -172 58q-8 -1 -17 -1.5t-18 -0.5q-92 -10 -162 -56z" />
<glyph unicode="&#x1059;" horiz-adv-x="1707" d="M-944 -433q2 173 125 289q60 54 132.5 81t160.5 25q82 -2 160.5 -39t155.5 -109q7 -6 8 -11t1 -19v-2q-1 -14 -9.5 -22.5t-22.5 -8.5h-538q-42 -48 -61.5 -98t-19.5 -101q2 -147 94 -252q37 -42 80 -67.5t103 -22.5q29 2 55.5 8t48.5 17.5t37.5 28.5t22.5 40l23 -1 q7 -41 20.5 -64t29 -34t33 -14t34.5 -3q30 5 51.5 21.5t37.5 42t27.5 57.5t22.5 67l22 -3v-182l-4 -4q-8 -8 -21 -18q-15 -12 -32 -23q-18 -11 -40.5 -19.5t-48.5 -8.5q-19 0 -40 2t-41.5 9t-39.5 20.5t-34 36.5q-22 -36 -54 -52t-71 -16q-53 0 -97.5 13.5t-78.5 34.5 q-54 32 -93.5 77.5t-71.5 96.5q-68 110 -67 227zM-691 -178h375q-42 30 -85.5 44t-88.5 14q-8 -1 -17 -1h-19q-95 -11 -165 -57z" />
<glyph unicode="&#x105a;" horiz-adv-x="1277" d="M92 537q-2 160 92 309q87 139 232 225.5t310 86.5q121 0 231 -47v118h42v-624h-42v367q-110 102 -291 102q-209 0 -341.5 -152t-135.5 -364q-2 -173 144 -320q126 -125 328 -154q26 0 47 -3q197 0 362 181l39 -42q-107 -113 -218 -165q-39 -16 -117 -42q-50 -10 -113 -13 q-238 -5 -398 144q-168 157 -171 393zM480 -63h44v-98q33 37 76 64q56 32 136 34q73 0 119 -30q50 -34 75 -67q35 -47 38 -123v-20l-3 -12q-5 -28 -20 -61t-38 -71q-39 -63 -61.5 -101.5t-29.5 -52.5q-14 -26 -20 -58t-6 -61q0 -21 3 -38t10 -25q5 1 10 1.5t10 0.5 q30 0 45 -27q6 -9 6 -23q0 -38 -37 -49q-7 -2 -15.5 -3t-16.5 -1q-15 0 -29 7t-26 18q-11 10 -19.5 21t-13.5 24q-3 7 -4 19.5t-1 29.5q0 20 2 44t5.5 48t9.5 47.5t14 41.5q18 45 80 163q22 41 32.5 63.5t12.5 29.5q0 6 0.5 13.5t1.5 18.5q0 35 -9.5 60.5t-26.5 44.5 q-21 23 -50 35.5t-67 12.5q-70 0 -125 -51q-6 -6 -12.5 -14.5t-14.5 -20.5q-41 -65 -41 -203v-35h-44v404z" />
<glyph unicode="&#x105b;" horiz-adv-x="1769" d="M102 537q-2 160 92 309q87 139 232 225.5t310 86.5q92 0 152 -16q95 -23 173 -110l-42 131l50 16l197 -652l-50 -16l-113 367h-804q-100 -134 -100 -320q0 -175 144 -320q126 -125 328 -154q26 0 47 -3q197 0 362 181l39 -42q-107 -113 -218 -165q-39 -16 -117 -42 q-50 -10 -113 -13q-238 -5 -398 144q-168 157 -171 393zM354 943h642l-29 29q-102 102 -291 102q-183 0 -322 -131zM818 -3h412v-39h-126q-81 -126 -87 -315q-2 -96 6 -157q0 -44 97 -147.5t144 -106.5q36 -3 36 58v1693q0 29 -1 46t-21 45.5t-34 28.5t-22 3v47h183v-1863 q0 -139 -97 -142q-84 -2 -239.5 129t-155.5 209q0 131 -6 173q0 170 87 299h-176v39z" />
<glyph unicode="&#x105c;" horiz-adv-x="1363" d="M84 592v8q0 40 4 74t12.5 65.5t22.5 63t34 67.5q80 140 194.5 210t275.5 70h23q64 0 119 -12t104.5 -35.5t96 -59t94.5 -82.5q49 -48 85.5 -94.5t61.5 -97t37.5 -107t12.5 -124.5v-4q0 -61 -9 -112.5t-28 -98t-49.5 -89.5t-73.5 -86q-42 -42 -84 -71.5t-87.5 -48.5 t-96 -29t-110.5 -13q-9 -1 -18 -1h-18q-168 0 -292.5 77t-216.5 226q-24 39 -42 74t-29 70.5t-17 74t-6 85.5zM181 550q2 -69 18 -128.5t49 -112.5q76 -121 182 -180t246 -59h14q61 0 120 20t111.5 55t97 83.5t77 104.5t50.5 118t18 125q0 66 -15.5 125t-47.5 116 q-140 249 -390 249h-9q-109 -2 -200.5 -39.5t-168.5 -112.5q-75 -75 -113.5 -162.5t-38.5 -190.5v-11zM483 493q0 37 3 52q0 113 125 184q55 31 142 34q44 3 83.5 -28.5t39.5 -79.5v-94q0 -65 -65.5 -142.5t-131.5 -77.5h-44q-45 0 -68 16q-45 29 -71 73q-8 11 -9 35.5 t-4 27.5zM588 483q0 -79 47 -103h44q92 0 92 158v91q0 89 -57 97q-48 0 -87 -31q-13 -13 -29 -60q-5 -32 -10 -84v-68z" />
<glyph unicode="&#x105d;" horiz-adv-x="894" d="M29 1096v47h191v-521q42 52 119.5 100.5t210.5 53.5q58 3 121 -31v233q0 118 -152 118v47h270v-1974h46v-49l-328 2q-417 3 -417 218q0 267 310 272q75 3 144.5 -61.5t72.5 -140.5l-37 -5q0 66 -59 110.5t-127 44.5q-52 0 -110 -42q-81 -60 -84 -168q-2 -123 124 -162 q57 -19 183 -19h113q58 0 58 92v829q-5 -6 -10 -13q-91 -100 -256 -100q-163 0 -247 124q-63 94 -63 272v610q0 53 3 69q0 23 -13 31t-63 13zM226 328q-6 -283 207 -283q123 0 180.5 71t57.5 205v256q0 61 -46 97.5t-109 39.5q-57 2 -82 -2t-64 -32q-66 -40 -116 -139 q-26 -71 -28 -213z" />
<glyph unicode="&#x105e;" d="M-932 -579q0 52 31 108q42 73 110 79h290v143q0 78 -23.5 111.5t-74.5 33.5h-36v51h392v-51h-89v-288h213v-113h-213v-212l75 70l33 -34l-296 -278l-33 36l45 43q-109 3 -244 77q-72 40 -115 86.5t-62 103.5q-3 16 -3 34zM-784 -507q110 -220 285 -228l-2 230z" />
<glyph unicode="&#x105f;" d="M-975 -590q0 105 118 185q103 70 241 77v277h106v-426h-106v87q-23 -5 -45 -11t-44 -15q-79 -31 -125 -83q-46 -54 -46 -110q0 -58 43 -108q94 -110 289 -110h5q125 1 231 68l24 16v-96l-6 -3q-96 -42 -209 -42h-8q-180 3 -323 90q-145 88 -145 204z" />
<glyph unicode="&#x1060;" d="M-1143 -842h56l451 647q51 51 107.5 81.5t110.5 47t102.5 22t84.5 5.5q16 0 29 -0.5t22 -1.5q11 -1 18 -2v-62h-12q-17 0 -52 -4.5t-79 -23.5t-92.5 -56t-90.5 -102l-322 -444q0 -16 -0.5 -28t-0.5 -23q0 -17 3 -28t13 -17t29 -8.5t52 -2.5h210q48 0 93.5 8.5t80 26 t55.5 44t21 61.5v42h59v-280h-55v74q-18 -9 -52 -15.5t-92 -11t-143.5 -6.5t-204.5 -2h-401v59z" />
<glyph unicode="&#x1061;" horiz-adv-x="1440" d="M102 555q-2 150 95 304q186 296 545 302q165 2 262 -63q118 -81 170 -152t76 -157q10 -37 24 -150v-1451h227v-40h-455v40h110v1250q0 34 -13 170q-14 128 -29 181q-24 81 -89 154q-116 129 -330 134q-126 2 -242.5 -63.5t-183.5 -172.5t-70 -244q-2 -196 131 -340h548 q47 0 47 -47q0 -116 -144 -186q-52 -24 -136 -27q-304 -5 -469 281q-71 123 -74 277zM293 -844q0 84 94 74q37 -3 58 -51.5t42 -43.5q107 24 141 129q21 65 21 204v367q0 47 -12 66.5t-54 38.5q-28 5 -86 10v47h270v-471q0 -181 -79 -307q-94 -146 -264 -149q-32 0 -53 5 q-47 0 -70 50q-6 16 -8 31zM401 191q142 -110 320 -110q118 0 139 110h-459z" />
<glyph unicode="&#x1062;" horiz-adv-x="479" d="M6 809v348h31v-42q20 10 50 15t72 5h259v-33h-63v-1101h-102v1012q0 19 -4 35.5t-13 28.5t-24.5 18.5t-39.5 6.5h-22q-111 0 -111 -80v-213h-33z" />
<glyph unicode="&#x1063;" horiz-adv-x="1044" d="M32 73v152q126 -141 336 -144q288 -5 429 249q63 113 63 241q0 129 -68 248t-180.5 188.5t-238.5 69.5q-113 0 -225 -53v-390h-42v574h42v-105q110 55 272 58q220 2 378.5 -163t158.5 -385q0 -244 -194 -427t-440 -189l-76 6v-737q0 -44 18.5 -74t76.5 -30h26v-40h-317 v40h78v799q0 39 -36 84q-11 13 -29 20z" />
<glyph unicode="&#x1064;" horiz-adv-x="1050" d="M107 823v355h31v-43q40 21 124 21h530v-34h-65l-260 -987q-3 -11 -3 -28t7.5 -32.5t24 -26.5t45.5 -11h111q54 0 100 25.5t87 76.5t60.5 110t19.5 126v203h43v-607h-40v107q-52 -81 -201 -81h-477v40h81l261 1000q0 19 -4 34.5t-13.5 26.5t-25 17.5t-39.5 6.5h-250 q-113 0 -113 -82v-217h-34z" />
<glyph unicode="&#x1065;" horiz-adv-x="1096" d="M82 86v147q150 -149 336 -152q288 -5 429 249q63 113 63 241q0 129 -68 248t-180.5 188.5t-238.5 69.5q-113 0 -225 -53v-390h-42v574h42v-105q110 55 272 58q220 2 378.5 -163t158.5 -385q0 -241 -195 -425.5t-439 -190.5q-157 -2 -291 89z" />
<glyph unicode="&#x1066;" horiz-adv-x="908" d="M29 1119v47h191v-746q0 -349 213 -352q123 -2 180.5 70t57.5 206v657q0 118 -152 118v47h270v-686q0 -157 -60 -286q-14 -29 -61 -94q-91 -100 -256 -100q-163 0 -247 124q-63 94 -63 262v620q0 53 3 69q0 23 -13 31t-63 13zM327 -841q0 84 94 74q37 -3 58 -51.5 t42 -43.5q107 24 141 129q21 65 21 204v367q0 47 -12 66.5t-54 38.5q-28 5 -86 10v47h270v-471q0 -181 -79 -307q-94 -146 -264 -149q-32 0 -53 5q-47 0 -70 50q-6 16 -8 31z" />
<glyph unicode="&#x1067;" horiz-adv-x="648" d="M6 187q0 88 59 147q59 58 148 58q62 0 106 -27v777l-14 -13l-21 20l125 118l21 -21l-23 -22v-1139q0 -26 5.5 -35t13.5 -9h28v-39h-135v20q-51 -30 -108 -30q-87 0 -146 56t-59 139zM92 217q0 -74 41 -121q39 -47 100 -47q43 0 86 28v211q-15 25 -43 40q-27 17 -63 17 q-55 0 -87 -35q-34 -36 -34 -93z" />
<glyph unicode="&#x1068;" horiz-adv-x="922" d="M2 -29v435l46 -6q0 -71 21 -133.5t64 -116.5t92 -81t107 -27h118q31 0 50.5 8.5t31 23.5t16 36t4.5 45v990h129v-1103h85v-43h-508q-157 0 -213 85v-113h-43zM443 1405q0 37 3 52q0 113 125 184q55 31 142 34q44 3 83.5 -28.5t39.5 -79.5v-94q0 -65 -65.5 -142.5 t-131.5 -77.5h-44q-45 0 -68 16q-45 29 -71 73q-8 11 -9 35.5t-4 27.5zM548 1395q0 -79 47 -103h44q92 0 92 158v91q0 89 -57 97q-48 0 -87 -31q-13 -13 -29 -60q-5 -32 -10 -84v-68z" />
<glyph unicode="&#x1069;" horiz-adv-x="817" d="M28 247q0 59 0.5 96t6 64.5t18 51.5t35.5 57q25 35 65 66.5t87 60.5t98.5 55.5t98.5 51t86.5 47.5t63.5 46q21 21 32 43.5t11 48.5q0 62 -50 104q-51 42 -126 42q-89 0 -146 -63q-59 -62 -59 -160v-84h-55v420h55v-124q55 34 112.5 51.5t113.5 17.5q121 0 203 -76 q81 -75 81 -187q0 -48 -10.5 -85.5t-44.5 -72.5q-26 -27 -63.5 -48t-82.5 -40.5t-93.5 -40t-96.5 -46.5t-92 -61t-79 -82q-27 -36 -39.5 -79t-11.5 -86.5t16.5 -83t45.5 -66.5q25 -22 56.5 -32t69.5 -10q87 0 145 62q60 65 60 161v83h55v-419h-55v123q-55 -33 -113 -50.5 t-113 -17.5q-121 0 -203 76t-82 186z" />
<glyph unicode="&#x106a;" horiz-adv-x="765" d="M-1 -72v479h37q2 -43 7 -75.5t13 -56.5q76 -231 258 -231h5q51 1 92.5 21.5t71.5 55t46 80.5t16 99v844h106v-814q0 -74 -20.5 -135.5t-59.5 -105.5t-95.5 -69t-128.5 -25h-6q-152 3 -243 82l-62 55v-204h-37z" />
<glyph unicode="&#x106b;" horiz-adv-x="743" d="M-1 735v479h37v-204l62 55q91 79 243 82h6q72 0 128.5 -25t95.5 -69t59.5 -106t20.5 -135v-814h-106v844q0 53 -16 99t-46 80.5t-71.5 55t-92.5 21.5h-5q-182 0 -258 -231q-8 -24 -13 -56.5t-7 -75.5h-37z" />
<glyph unicode="&#x106c;" horiz-adv-x="737" d="M-1 330v814h106v-844q0 -53 16 -99t46 -80.5t71.5 -55t92.5 -21.5h5q181 0 258 231q8 24 13 56.5t7 75.5h37v-479h-37v204l-62 -55q-91 -79 -243 -82h-6q-72 0 -128.5 25t-95.5 69t-59.5 105.5t-20.5 135.5z" />
<glyph unicode="&#x106d;" horiz-adv-x="817" d="M-6 876q0 112 81 187q82 76 203 76q56 0 113.5 -17.5t112.5 -51.5v124h55v-420h-55v84q0 98 -59 160q-57 63 -146 63q-75 0 -126 -42q-50 -42 -50 -104q0 -26 11 -48.5t32 -43.5q24 -23 63.5 -46t86.5 -47.5t98.5 -51t98.5 -55.5t87 -60.5t65 -66.5q23 -33 35.5 -57 t18 -51.5t6 -64.5t0.5 -96q0 -110 -82 -186t-203 -76q-55 0 -113 17.5t-113 50.5v-123h-55v419h55v-83q0 -96 60 -161q58 -62 145 -62q38 0 69.5 10t56.5 32q30 27 45.5 66.5t16.5 83t-11.5 86.5t-39.5 79q-35 47 -79 82t-92 61t-96.5 46.5t-93.5 40t-82.5 40.5t-63.5 48 q-34 35 -44.5 72.5t-10.5 85.5z" />
<glyph unicode="&#x106e;" horiz-adv-x="2204" d="M18 4v46l88 1v751q0 82 20 145.5t76 119.5l2 3q29 29 55.5 46.5t55 27t61.5 12.5t75 3q16 0 31.5 -2.5t31.5 -7.5q28 -7 52 -17t47 -26q16 -11 31 -25t31 -32l4 -4q16 -17 30.5 -34.5t27.5 -40.5q53 96 69 113q54 62 144 62q74 0 117 -55q44 -56 44 -143v-17 q189 212 441 212q233 0 390 -143q164 -152 167 -385v-10q0 -155 -87 -290q-89 -138 -232 -223q-70 -42 -145.5 -64t-156.5 -22h-44q-55 0 -79 21v-90h-42v431h42v-179q10 -18 26.5 -35t42.5 -33q52 -32 113 -32h8q201 0 330 151q63 74 96 162t33 192q0 80 -36 161 q-77 169 -257 264q-75 41 -169 42h-11q-125 0 -242 -64q-119 -65 -188 -180v-436q0 -148 -62 -263q-53 -94 -133 -124l-40 53q63 18 96 105q31 80 31 183v647q0 60 -2 68q-8 29 -51 34q-62 0 -115 -84q-11 -23 -23.5 -51t-23.5 -65q-2 -8 -3 -17.5t-3 -20.5q1 -9 2 -50.5 t1.5 -102t0.5 -135.5v-151q0 -77 -0.5 -149t-0.5 -129v-124h-210v46h91v809q-12 95 -84 173q-96 72 -166 72q-23 0 -47.5 -7t-51.5 -20q-55 -22 -86 -87q-5 -23 -5 -66v-773q0 -64 62 -88q15 -6 63 -12v-46z" />
<glyph unicode="&#x106f;" horiz-adv-x="1834" d="M-47 1116v47h270v-746q0 -349 215 -352q235 -2 235 276v657q0 118 -152 118v47h270v-152q50 45 139 92q147 55 231 55q238 0 398 -144q168 -152 170 -393q3 -163 -89 -305.5t-236 -229t-309 -86.5q-47 0 -57 5q-24 24 -69 42v-118h-42v440h42v-183q34 -39 76 -76 q34 -26 110 -26q210 -3 346 154q129 150 131 362q0 81 -38 167.5t-106 152.5q-128 125 -327 154q-27 0 -48 3q-175 0 -322 -139v-461q0 -157 -60 -286q-13 -29 -60 -94q-92 -100 -257 -100q-162 0 -246 124q-63 94 -63 262v620q0 110 -152 113zM1256 -844q0 84 94 74 q37 -3 58 -51.5t42 -43.5q107 24 141 129q21 65 21 204v487q0 47 -12 66.5t-54 38.5q-28 5 -86 10v47h270v-591q0 -181 -79 -307q-94 -146 -264 -149q-32 0 -53 5q-47 0 -70 50q-6 16 -8 31z" />
<glyph unicode="&#x1070;" horiz-adv-x="1867" d="M100 964v243h23v-86q68 34 128 34q37 0 70 -12t57.5 -34t38.5 -51.5t14 -63.5q0 -29 -9.5 -48t-26.5 -33t-40 -24.5t-51 -22.5v-456q0 -179 54.5 -264.5t166.5 -85.5q229 0 229 274v656q0 118 -152 118v47h269v-737q0 -135 42 -193q105 -149 345 -149q37 0 85 15t99 47 t99.5 82.5t87.5 121.5q39 72 59.5 142.5t20.5 139.5q0 52 -15 110.5t-43 114.5t-68.5 104t-91.5 79q-44 26 -98.5 36.5t-106.5 10.5q-30 0 -57.5 -2.5t-50 -7t-38.5 -10t-23 -11.5v-228h-52v414h52v-116q15 6 39 12.5t54 12t64.5 9.5t70.5 4q95 0 176.5 -31.5t144.5 -89.5 q35 -33 60 -74.5t40.5 -89t23 -99t7.5 -103.5q0 -62 -10 -123.5t-32.5 -122t-58.5 -118.5t-88 -112q-49 -50 -106.5 -88t-116 -63t-114 -37.5t-99.5 -12.5q-181 0 -340 120l-39 40l-42 -61q-99 -99 -256 -99q-71 0 -128 23.5t-97 71.5t-61.5 120t-21.5 169v499q0 9 6.5 17 t17.5 16q13 8 33 16t39 14.5t33.5 11t17.5 5.5q37 21 37 51q0 32 -10 55t-25.5 38t-36 22t-41.5 7q-39 -2 -64.5 -21.5t-41.5 -45.5t-22.5 -53.5t-6.5 -43.5h-23zM1326 -844q0 84 94 74q37 -3 58 -51.5t42 -43.5q107 24 141 129q21 65 21 204v487q0 47 -12 66.5t-54 38.5 q-28 5 -86 10v47h270v-591q0 -181 -79 -307q-94 -146 -264 -149q-32 0 -53 5q-47 0 -70 50q-6 16 -8 31z" />
<glyph unicode="&#x1071;" d="M-1065 1472q0 37 3 52q0 113 125 184q55 31 142 34q44 3 83.5 -28.5t39.5 -79.5v-94q0 -65 -65.5 -142.5t-131.5 -77.5h-44q-45 0 -68 16q-45 29 -71 73q-8 11 -9 35.5t-4 27.5zM-960 1462q0 -79 47 -103h44q92 0 92 158v91q0 89 -57 97q-48 0 -87 -31q-13 -13 -29 -60 q-5 -32 -10 -84v-68zM-484 1472q0 37 3 52q0 113 125 184q55 31 142 34q44 3 83.5 -28.5t39.5 -79.5v-94q0 -65 -65.5 -142.5t-131.5 -77.5h-44q-45 0 -68 16q-45 29 -71 73q-8 11 -9 35.5t-4 27.5zM-379 1462q0 -79 47 -103h44q92 0 92 158v91q0 89 -57 97q-48 0 -87 -31 q-13 -13 -29 -60q-5 -32 -10 -84v-68z" />
<glyph unicode="&#x1072;" d="M-727 1539q0 137 99 239q97 102 236 102q44 -2 81.5 -8t69.5 -20v56h49v-369h-49v238q-32 14 -62 20.5t-62 6.5q-35 0 -69 -9.5t-66 -29.5q-65 -40 -105 -109q-39 -69 -39 -143q0 -36 8.5 -71t27.5 -68q83 -146 247 -143q108 3 193 88l21 21v-124l-5 -4q-83 -56 -182 -55 q-152 3 -272 117q-121 114 -121 265z" />
<glyph unicode="&#x1073;" d="M-1127 1159l13 45l17 -2l13 -8q12 0 24 5t25 9q16 5 33.5 16t35.5 26t36 31.5t33 32.5l366 358l365 -358q16 -15 31 -32t30 -31.5t30 -26t31 -16.5q12 -4 24.5 -9t24.5 -5l13 8l17 2l29 -45l-19 -6q-20 -6 -39.5 -13t-39.5 -7t-41.5 7t-43.5 13q-84 24 -183 103 q-39 30 -96.5 85t-132.5 133q-76 -78 -133.5 -133t-96.5 -85q-99 -79 -183 -103q-22 -6 -43 -13t-41 -7t-39.5 7t-39.5 13z" />
<glyph unicode="&#x1074;" d="M-792 1811v47h192v-278q0 -349 212 -351q120 -3 183 71q29 31 42 95t13 109v189q0 71 -36 97q-32 16 -116 21v47h270v-218q0 -157 -60 -285q-13 -29 -60 -95q-92 -99 -257 -99q-163 0 -246 123q-63 94 -63 262v153q0 52 2 68q0 23 -13 31t-63 13z" />
<glyph unicode="&#x1075;" horiz-adv-x="1315" d="M97 11v238h22q0 -20 8 -44t23 -54q30 -61 101 -63h7q32 0 56 18t40 51q7 17 7 50q0 29 -35 50q-3 1 -17 5t-32.5 10t-38 14t-31.5 16l-3 1q-10 7 -16.5 14.5t-6.5 17.5v395q0 164 61 255q9 13 34 39t68 52t105 45.5t146 19.5h19q68 -2 125.5 -14t109.5 -35t99.5 -56.5 t94.5 -78.5q94 -91 141 -193.5t47 -222.5q0 -108 -38 -201t-117 -174q-75 -78 -162.5 -117.5t-190.5 -39.5h-15h-18t-18 1v6h-5v-102h-41v559h41v-380l9 -3q59 0 116.5 19.5t108.5 53.5t94.5 81t75 102t49 115.5t17.5 121.5q0 63 -15.5 121t-45.5 113q-134 242 -409 242h-10 q-200 -3 -322 -134q-20 -38 -29.5 -92.5t-9.5 -136.5v-353q14 -5 30 -12.5t33 -15.5q29 -14 45 -40t16 -59t-14.5 -61.5t-38.5 -49t-56 -32t-68 -12.5h-4q-54 0 -120 34v-84h-22z" />
<glyph unicode="&#x1076;" horiz-adv-x="1021" d="M101 1031q0 24 8 44q20 48 65 65q21 8 39 8q16 0 33 -6q36 -12 48 -46q5 -15 5 -27t-5 -27q-9 -29 -33 -39q-4 -2 -14 -2t-18 4.5t-12 15.5q-3 7 -3 22q0 7 -0.5 11t-1.5 7q-7 14 -23 14q-3 0 -9 -2q-26 -10 -26 -40q0 -12 6 -27q4 -10 16 -28.5t29 -37t38 -32.5t43 -14 q14 0 24 5q32 15 61 39t55.5 51.5t50 55.5t45 51t41 37.5t36.5 14.5h6q76 0 136 -26t101 -72.5t63 -111.5t22 -143v-807h-113v87q-77 -46 -147.5 -67.5t-138.5 -21.5q-81 0 -144 27.5t-111 84.5t-72 123t-26 139v10q0 155 140 272q68 58 142.5 86.5t157.5 30.5h11 q48 0 94 -11.5t89 -33.5v113q0 56 -17.5 101.5t-42 78.5t-52 52t-48.5 21q-4 0 -16.5 -14t-32 -36t-44.5 -49.5t-53 -53.5t-57.5 -48t-58.5 -34q-38 -16 -73 -16q-33 0 -69 13q-27 9 -48.5 25t-38.5 35.5t-29 39t-18 36.5q-10 26 -10 53zM271 406q0 -133 88 -239 q45 -56 101.5 -84.5t125.5 -28.5q57 0 117.5 27t105.5 75v419q-42 60 -102 89t-137 29q-60 0 -113.5 -21.5t-94.5 -59t-65.5 -88t-25.5 -109.5v-9z" />
<glyph unicode="&#x1077;" horiz-adv-x="1359" d="M103 -28v245h23q0 -20 8 -45t23 -56q32 -63 104 -65h8q32 0 57 18.5t42 52.5q3 10 5 22.5t2 29.5q0 29 -36 51q-3 1 -17.5 5.5t-34 10.5t-39 14t-32.5 16l-3 2q-10 7 -17 14.5t-7 18.5v406q0 168 63 263q9 13 35 40t70 53.5t108 46.5t150 20h20q70 -2 129.5 -14.5 t112.5 -36t102 -58t98 -80.5q96 -94 144.5 -199.5t48.5 -229.5q0 -111 -39 -206t-120 -179q-154 -162 -364 -162h-15q-3 0 -6 4q-65 8 -117 57t-90 146q-3 5 -4 9t-1 22q2 29 19 29h517q57 69 90 152.5t33 171.5q0 65 -15.5 124.5t-46.5 116.5q-139 249 -421 249h-11 q-205 -3 -331 -138q-21 -40 -30.5 -95.5t-9.5 -140.5v-363q28 -12 64 -29q30 -14 46.5 -41t16.5 -61q0 -35 -14.5 -64t-39.5 -50t-58 -33t-70 -13h-4q-29 0 -59.5 9t-63.5 26v-86h-23zM577 171q26 -57 55.5 -87t79.5 -30q8 2 16 2.5t16 0.5q25 5 56 13t63 21q66 30 122 80 h-408z" />
<glyph unicode="&#x1078;" horiz-adv-x="1850" d="M102 621q0 265 157 406q144 131 412 131q84 0 230 -55q92 -47 181 -134q3 84 73.5 140.5t157.5 53.5q68 -2 115 -13q157 -39 262 -207q68 -110 71 -230v-446q0 -18 -8 -50q-16 -39 -21 -55q-50 -70 -60 -81q-58 -63 -121 -78q-13 -6 -39 -6q-13 3 -63 3q-121 0 -254 165 q-121 149 -121 244v283q0 157 -123 279t-280 103q-118 -16 -173 -34q-89 -31 -178 -118q-66 -63 -93.5 -137.5t-27.5 -171.5q0 -210 123 -348q157 -176 333 -176q65 0 102 26q16 8 79 71v157h42v-414h-42v118q-61 -26 -84.5 -32.5t-88.5 -4.5q-189 6 -375 200 q-76 78 -131 194.5t-55 216.5zM1192 414q0 -121 66 -225q76 -121 191 -121q10 -3 34 -3q23 3 37 11q91 73 107 118q10 29 10 89v432q0 134 -28 212q-50 100 -116 139q-39 29 -64 33t-82 1q-63 -2 -109 -39t-46 -97v-550z" />
<glyph unicode="&#x1079;" horiz-adv-x="1847" d="M102 621q0 265 157 406q145 131 412 131q86 0 230 -55q93 -47 181 -134q3 84 74 140q67 54 148 54h9q34 -1 63 -4.5t52 -8.5q157 -39 262 -207q68 -110 71 -230v-446q0 -16 -8 -50q-17 -40 -21 -55q-50 -71 -60 -81q-59 -63 -121 -78q-14 -6 -39 -6q-14 3 -63 3 q-121 0 -254 165q-121 148 -121 244v283q0 157 -123 279q-108 106 -238 106q-21 0 -42 -3q-60 -8 -102.5 -16.5t-70.5 -18.5q-88 -30 -179 -116q-65 -64 -92.5 -138.5t-27.5 -171.5q0 -210 123 -348q7 -8 14 -15.5t15 -15.5h505q14 -7 28 -17t25.5 -22t19 -25.5t7.5 -27.5 q0 -18 -13 -34q-45 -27 -90 -48q-39 -18 -84 -33.5t-86 -16.5h-15q-59 0 -105.5 13.5t-88 39.5t-81.5 63t-85 84q-38 39 -70.5 87.5t-60.5 106.5q-55 116 -55 217zM409 181q118 -92 244 -92q64 0 102 26q16 7 75 66h-421zM1191 414q0 -122 66 -225q76 -121 191 -121 q10 -3 34 -3q23 3 37 11q90 73 107 118q10 27 10 89v432q0 135 -28 212q-49 99 -116 139q-39 29 -64 33q-7 2 -16 2h-21h-21t-24 -1q-62 -1 -109 -39q-46 -37 -46 -97v-550z" />
<glyph unicode="&#x107a;" horiz-adv-x="1839" d="M2 1v46q12 1 27 2t29 1h31v719q3 165 63 256q82 123 243 123q162 0 252 -99q23 -32 38 -54.5t21 -36.5q30 -64 44.5 -134.5t14.5 -148.5v-111q0 -92 39.5 -170.5t108.5 -146.5q143 -140 350 -143h9q237 0 368 235q30 54 45 110t15 119q0 89 -37.5 175t-100 153.5 t-143 108.5t-167.5 41h-14q-94 0 -175 -29v-167h-53v394h53v-124q51 17 106 26t115 9h12q214 0 367 -161q81 -85 120 -180t39 -206q0 -121 -48.5 -228t-147.5 -201q-97 -92 -206 -139t-233 -49h-9q-148 0 -263.5 69t-196.5 211q-35 62 -50.5 132t-18.5 147v259 q0 131 -54.5 201.5t-173.5 70.5h-5q-209 -3 -209 -346v-588q0 -49 33 -73.5t94 -26.5l-2 -46h-330zM663 12v36h197v-782q0 -44 18 -74t76 -30h26q131 0 131 94v251h39v-411h-36v50q-47 -24 -144 -24h-307v40h79v776q0 40 -12 57t-30 17h-37z" />
<glyph unicode="&#x107b;" horiz-adv-x="1837" d="M102 267v446q3 120 71 230q105 168 262 207q23 5 52 8.5t63 4.5q87 3 157 -54q71 -56 74 -140q88 87 181 134q144 55 230 55q267 0 412 -131q157 -141 157 -406q0 -101 -55 -217q-28 -58 -60.5 -106.5t-70.5 -87.5q-47 -48 -88 -86t-84 -64t-92 -39t-111 -11 q-20 0 -42 4.5t-44.5 11.5t-44 16t-40.5 18q-46 21 -89 48q-15 18 -13 37t14 36t30 30.5t36 22.5h505q8 8 15 15.5t14 15.5q123 138 123 348q0 97 -27.5 171.5t-93.5 137.5q-87 86 -178 118q-54 17 -173 34q-156 19 -280 -103q-123 -122 -123 -279v-283q0 -96 -121 -244 q-134 -165 -254 -165q-50 0 -63 -3q-26 0 -39 6q-62 15 -121 78q-11 10 -60 81q-4 15 -21 55q-8 34 -8 50zM227 283q0 -62 10 -89q17 -45 107 -118q14 -8 37 -11q23 0 34 3q115 0 191 121q66 103 66 225v550q0 60 -46 97q-47 38 -109 39q-59 3 -82 -1q-25 -4 -64 -33 q-67 -40 -116 -139q-28 -77 -28 -212v-432zM1033 181q58 -59 75 -66q38 -26 102 -26q126 0 244 92h-421z" />
<glyph unicode="&#x107c;" horiz-adv-x="1747" d="M41 359v7q0 157 139 274q68 58 142 86t157 30h11q48 0 93.5 -11.5t88.5 -33.5v112q0 56 -16 104.5t-46 85t-73 58t-97 22.5h-5q-190 0 -272 -243q-7 -26 -12.5 -60t-7.5 -79h-39v504h39v-214l65 58q95 82 255 84h7q70 0 125.5 -22t96 -61.5t65 -95.5t30.5 -123 q87 134 226 216q147 87 311 87q120 0 231 -47v118h42v-625h-42v368q-110 102 -291 102q-208 0 -343 -152q-114 -130 -132 -308v-109q18 -128 120 -245h761q13 0 21 -7t8 -22q0 -14 -1.5 -19.5t-6.5 -10.5q-213 -198 -433 -202h-14q-228 0 -383 143q-20 20 -37.5 40t-34.5 41 q-9 -23 -19.5 -41t-23 -34t-29.5 -30t-39 -29q-151 -89 -284 -89q-81 0 -144 27.5t-111 84.5q-95 113 -98 261zM137 402q0 -130 86 -236q45 -55 101.5 -83.5t125.5 -28.5q58 0 117.5 27t104.5 75v417q-41 59 -101 88.5t-136 29.5q-60 0 -113.5 -21.5t-94 -58.5t-65 -87.5 t-25.5 -108.5v-13zM979 181q116 -95 279 -113q27 0 51 -3q153 0 293 116h-623z" />
<glyph unicode="&#x107d;" horiz-adv-x="2078" d="M94 963v238h22v-84q67 32 117 32h8q35 -1 67 -12t56 -31.5t38.5 -48.5t14.5 -62q0 -18 -1.5 -40.5t-7.5 -45.5t-18 -44t-33 -36q-17 -13 -33.5 -18t-30.5 -10q-3 -57 -3.5 -99.5t-0.5 -84.5q0 -15 0.5 -39.5t1 -51.5t1 -52.5t0.5 -41.5q0 -30 1.5 -67.5t10 -77t26 -77 t49.5 -68t80.5 -50.5t118.5 -24q6 0 13.5 -0.5t13.5 -0.5q109 0 189 43.5t149 134.5q36 47 51 87.5t19 83.5q-5 27 -8 54.5t-3 56.5q0 81 22 157.5t70 151.5q87 140 232 225q144 86 310 86q119 0 231 -46v117h41v-623h-41v366q-109 103 -291 103q-207 0 -342 -152 q-132 -150 -135 -364v-4q0 -153 123 -292h759q27 0 30 -29q0 -17 -1.5 -21t-6.5 -9l-1 -1q-211 -198 -432 -202h-14q-226 0 -382 145q-43 39 -74.5 83t-53.5 93q-11 -23 -27.5 -50t-39.5 -60q-37 -55 -79.5 -93.5t-92.5 -62.5t-108 -35t-124 -11q-93 0 -166 27t-124 77.5 t-78 123.5t-27 165q0 30 -0.5 69.5t-1 82t-1 86t-0.5 82.5v55t2 61q0 17 24 32q13 9 28.5 12t31.5 6t31.5 8.5t27.5 19.5q10 12 17 26t11 27.5t6 25.5t2 20q0 15 -1 28t-6 22q-32 69 -97 69h-6q-72 -3 -101 -62q-15 -33 -23 -57.5t-8 -41.5h-22zM1291 186q113 -94 279 -112 q14 0 26.5 -1t24.5 -3q153 0 293 116h-623z" />
<glyph unicode="&#x107e;" horiz-adv-x="2075" d="M94 963v238h22v-84q67 32 117 32h8q35 -1 67 -12t56 -31.5t38.5 -48.5t14.5 -62q0 -18 -1.5 -40.5t-7.5 -45.5t-18 -44t-33 -36q-17 -13 -33.5 -18t-30.5 -10q-3 -57 -3.5 -99.5t-0.5 -84.5q0 -15 0.5 -39.5t1 -51.5t1 -52.5t0.5 -41.5q0 -30 1.5 -67.5t10 -77t26 -77 t49.5 -68t80.5 -50.5t118.5 -24q6 0 13.5 -0.5t13.5 -0.5q109 0 189 43.5t149 134.5q36 47 51 87.5t19 83.5q-5 27 -8 54.5t-3 56.5q0 81 22 157.5t70 151.5q87 140 232 225q144 86 310 86q119 0 231 -46v117h41v-623h-41v366q-109 103 -291 103q-207 0 -342 -152 q-132 -150 -135 -364v-4q0 -153 123 -292h759q27 0 30 -29q0 -17 -1.5 -21t-6.5 -9l-1 -1q-211 -198 -432 -202h-14q-226 0 -382 145q-43 39 -74.5 83t-53.5 93q-11 -23 -27.5 -50t-39.5 -60q-37 -55 -79.5 -93.5t-92.5 -62.5t-108 -35t-124 -11q-93 0 -166 27t-124 77.5 t-78 123.5t-27 165q0 30 -0.5 69.5t-1 82t-1 86t-0.5 82.5v55t2 61q0 17 24 32q13 9 28.5 12t31.5 6t31.5 8.5t27.5 19.5q10 12 17 26t11 27.5t6 25.5t2 20q0 15 -1 28t-6 22q-32 69 -97 69h-6q-72 -3 -101 -62q-15 -33 -23 -57.5t-8 -41.5h-22zM926 -844q0 84 94 74 q37 -3 58 -51.5t42 -43.5q107 24 141 129q21 65 21 204v367q0 47 -12 66.5t-54 38.5q-28 5 -86 10v47h270v-471q0 -181 -79 -307q-94 -146 -264 -149q-32 0 -53 5q-47 0 -70 50q-6 16 -8 31zM1291 186q113 -94 279 -112q14 0 26.5 -1t24.5 -3q153 0 293 116h-623z" />
<glyph unicode="&#x107f;" horiz-adv-x="954" d="M106 477v686h249q79 0 143 -70.5t64 -149.5v-199q0 -280 -330 -508q47 -173 230 -171q213 3 213 352v746h191v-47q-50 -5 -61.5 -15.5t-11.5 -47.5v-670q0 -168 -63 -262q-84 -124 -247 -124q-165 0 -256 100q-47 65 -61 94q-60 129 -60 286zM224 341q233 81 233 403v199 q0 53 -34 111.5t-84 58.5q-42 -5 -44 -5l-42 -21q-29 -18 -29 -89v-657z" />
<glyph unicode="&#x1080;" horiz-adv-x="1953" d="M91 376q0 161 139 279q132 113 297 116h6q97 0 186 -45v111q0 110 -63 187q-63 79 -168 80h-7q-185 0 -268 -241q-7 -24 -12.5 -58t-8.5 -79h-38v499h38v-212l66 57q94 83 254 86h4q139 0 235 -96q31 -31 51 -73t28 -96q1 -7 2 -30t1.5 -56.5t0.5 -73.5t0.5 -81.5 t0.5 -80v-68.5v-66q32 -107 127 -196q155 -149 363 -150h6q249 0 387 246q62 110 62 238q0 126 -67 245q-65 116 -177 186q-56 35 -115 52t-122 17h-17v-258h-44v432h44v-94q31 3 63 3h4q216 0 370 -161q157 -163 157 -380q0 -239 -193 -423t-434 -187h-4q-240 0 -410 203 q-16 -29 -41 -57.5t-71 -57.5q-150 -88 -281 -88q-159 0 -253 113q-48 57 -73 121.5t-25 136.5zM189 422q0 -135 86 -237q45 -54 100.5 -82.5t123.5 -29.5q57 0 116 27.5t104 73.5v414q-83 117 -235 117q-61 0 -112 -20t-96 -59q-85 -78 -87 -195v-9z" />
<glyph unicode="&#x1081;" horiz-adv-x="1344" d="M45 -844q0 84 94 74q37 -3 58 -51.5t42 -43.5q107 24 141 129q21 65 21 204v367q0 47 -12 66.5t-54 38.5q-28 5 -86 10v47h270v-471q0 -181 -79 -307q-94 -146 -264 -149q-32 0 -53 5q-47 0 -70 50q-6 16 -8 31zM102 555q-2 150 95 304q186 296 545 302q165 2 262 -63 q118 -81 170 -152t76 -157h-136q-24 81 -89 154q-116 129 -330 134q-126 2 -242.5 -63.5t-183.5 -172.5t-70 -244q-2 -196 131 -340h358q47 0 47 -47q0 -116 -144 -186q-180 -85 -415 254q-71 123 -74 277zM401 191q83 -107 130 -110q118 0 139 110h-269z" />
<glyph unicode="&#x1082;" horiz-adv-x="168" d="M-727 -452q0 151 121 265q120 114 272 117l-1 -74h-26h-7q-81 0 -140 -35.5t-100 -107.5q-19 -33 -27.5 -68t-8.5 -71q0 -74 39 -143q40 -69 105 -109q32 -20 66 -29.5t69 -9.5q32 0 62 6.5t62 20.5v238h49v-369h-49v56q-32 -14 -69.5 -21t-81.5 -7q-139 0 -236 102 q-99 102 -99 239z" />
<glyph unicode="&#x1083;" horiz-adv-x="802" d="M6 779v348h31v-42q20 10 50 15t72 5h259v-33h-63v-1834q0 -38 16.5 -63.5t64.5 -25.5h22q111 0 111 80v213h33v-348h-31v42q-20 -10 -50 -15t-72 -5h-259v33h63v1834q0 38 -16.5 63.5t-64.5 25.5h-22q-111 0 -111 -80v-213h-33z" />
<glyph unicode="&#x1084;" horiz-adv-x="799" d="M96 460q0 118 71 197t196 99q-76 44 -109.5 97.5t-33.5 128.5q0 88 57.5 142.5t149.5 54.5q79 0 141 -31t103 -91v131h39v-302h-41v8q0 90 -47 147.5t-118 57.5q-62 0 -98.5 -43t-36.5 -115q0 -57 34 -103.5t96 -71.5q12 -5 46 -16q96 -30 146 -74l-20 -50q-46 39 -91 58 t-94 19q-105 0 -171 -71t-66 -181q0 -158 115.5 -286.5t255.5 -128.5q43 0 79 9.5t72 28.5l17 -52q-40 -18 -81.5 -27t-87.5 -9q-214 0 -368.5 143t-154.5 331z" />
<glyph unicode="&#x1085;" d="M-723 1413q0 69 41.5 115.5t114.5 57.5q-44 26 -63.5 57.5t-19.5 75.5q0 51 33.5 83t87.5 32q46 0 82 -18.5t60 -53.5v77h23v-177h-24v5q0 53 -27.5 86.5t-68.5 33.5q-37 0 -58 -25t-21 -67q0 -34 19.5 -61t56.5 -42q7 -3 27 -9q56 -18 85 -43l-12 -30q-27 23 -53 34 t-55 11q-61 0 -100 -41.5t-39 -105.5q0 -92 68 -167.5t149 -75.5q26 0 47 6t42 17l10 -31q-24 -10 -48 -15.5t-51 -5.5q-125 0 -215.5 83.5t-90.5 193.5z" />
<glyph unicode="&#x1086;" d="M-880 1807q0 83 59 140q61 55 148 55q55 0 108 -30v21h136v-40l-27 -1q-8 0 -13.5 -9t-5.5 -35l-1 -256q0 -69 -12 -129t-44 -105q-60 -92 -143 -92q-41 0 -69 22q-29 20 -29 51q0 16 12 33q11 17 19 17q9 0 26 -45q16 -45 56 -45q42 0 67 47q13 23 20 53t7 68v20 q1 9 1 17v16v47q-42 -26 -107 -26q-89 0 -148 58q-60 58 -60 148zM-793 1776q0 -57 34 -93q32 -35 87 -35q33 0 64 17q28 15 43 40v213q-44 27 -86 27q-60 0 -101 -47t-41 -122z" />
<glyph unicode="&#x1087;" horiz-adv-x="599" d="M95 200q0 83 59 140q61 55 148 55q55 0 108 -30v21h136v-40l-27 -1q-8 0 -13.5 -9t-5.5 -35l-1 -256q0 -69 -12 -129t-44 -105q-60 -92 -143 -92q-41 0 -69 22q-29 20 -29 51q0 16 12 33q11 17 19 17q9 0 26 -45q16 -45 56 -45q42 0 67 47q13 23 20 53t7 68v20q1 9 1 17 v16v47q-42 -26 -107 -26q-89 0 -148 58q-60 58 -60 148zM182 169q0 -57 34 -93q32 -35 87 -35q33 0 64 17q28 15 43 40v213q-44 27 -86 27q-60 0 -101 -47t-41 -122z" />
<glyph unicode="&#x1088;" horiz-adv-x="615" d="M92 842v37q0 10 3 36q3 42 6.5 52.5t27.5 47.5q18 29 42 52q92 76 207 76q50 0 89 -31.5t39 -80.5v-152q0 -68 -70.5 -149.5t-136.5 -81.5h-81q-50 0 -110 92q-16 23 -16 102zM95 200q0 83 60 139q59 56 147 56q55 0 108 -30v21h136v-40l-27 -1q-8 0 -13.5 -9t-5.5 -35 v-256q-1 -69 -13 -129t-43 -106q-62 -91 -144 -91q-41 0 -69 22q-29 20 -29 51q0 16 12 33q11 17 19 17q9 0 26 -45q16 -45 56 -45q42 0 67 47q13 23 20 53t7 68v20q1 9 1 17v16v47q-42 -26 -107 -26q-89 0 -148 58q-60 58 -60 148zM182 169q0 -57 34 -93q32 -35 87 -35 q33 0 64 17q28 15 43 40v213q-44 27 -86 27q-60 0 -101 -47t-41 -122zM189 795q0 -45 58 -102q8 -3 52 -6q53 -2 81.5 50.5t28.5 117.5v149q0 50 -10.5 73.5t-41.5 29.5q-63 0 -113 -34q-55 -19 -55 -152v-126z" />
<glyph unicode="&#x1089;" horiz-adv-x="615" d="M108 196v37q0 10 3 36q3 42 6.5 52.5t27.5 47.5q18 29 42 52q92 76 207 76q50 0 89 -31.5t39 -80.5v-152q0 -68 -70.5 -149.5t-136.5 -81.5h-81q-50 0 -110 92q-16 23 -16 102zM205 149q0 -45 58 -102q8 -3 52 -6q53 -2 81.5 50.5t28.5 117.5v149q0 50 -10.5 73.5 t-41.5 29.5q-63 0 -113 -34q-55 -19 -55 -152v-126z" />
<glyph unicode="&#x108a;" horiz-adv-x="882" d="M85 238q0 88 56 147q55 60 139 60q89 0 148 -60q58 -59 58 -148q0 -65 -26 -107h47h16t17 1h20q38 0 68 7t53 20q47 25 47 67q0 39 -45 56q-45 16 -45 26q0 8 17 19q16 12 33 12q31 0 51 -29q22 -28 22 -69q0 -82 -91 -144q-46 -31 -106 -43t-129 -12l-256 -1 q-26 0 -35 -5.5t-9 -13.5l-1 -27h-40v136h21q-30 52 -30 108zM85 902q0 88 56 147q55 60 139 60q89 0 148 -60q58 -59 58 -148q0 -65 -26 -107h47h16t17 1h20q38 0 68 7t53 20q47 25 47 67q0 39 -45 56q-45 16 -45 26q0 8 17 19q16 12 33 12q31 0 51 -29q22 -28 22 -69 q0 -82 -91 -144q-46 -31 -106 -43t-129 -12l-256 -1q-26 0 -35 -5.5t-9 -13.5l-1 -27h-40v136h21q-30 52 -30 108zM142 216q0 -43 27 -86h213q25 15 40 43q17 31 17 64q0 55 -35 87q-36 34 -93 34q-75 0 -122 -41t-47 -101zM142 880q0 -43 27 -86h213q25 15 40 43 q17 31 17 64q0 55 -35 87q-36 34 -93 34q-75 0 -122 -41t-47 -101z" />
<glyph unicode="&#x108b;" horiz-adv-x="615" d="M86 473v37q0 10 3 36q3 42 6.5 52.5t27.5 47.5q18 29 42 52q92 76 207 76q50 0 89 -31.5t39 -80.5v-152q0 -68 -70.5 -149.5t-136.5 -81.5h-81q-50 0 -110 92q-16 23 -16 102zM183 426q0 -45 58 -102q8 -3 52 -6q53 -2 81.5 50.5t28.5 117.5v149q0 50 -10.5 73.5 t-41.5 29.5q-63 0 -113 -34q-55 -19 -55 -152v-126z" />
<glyph unicode="&#x108c;" horiz-adv-x="1191" d="M114 390v37q0 10 3 36q3 42 6.5 52.5t27.5 47.5q18 29 42 52q92 76 207 76q50 0 89 -31.5t39 -80.5v-152q0 -68 -70.5 -149.5t-136.5 -81.5h-81q-50 0 -110 92q-16 23 -16 102zM211 343q0 -45 58 -102q8 -3 52 -6q53 -2 81.5 50.5t28.5 117.5v149q0 50 -10.5 73.5 t-41.5 29.5q-63 0 -113 -34q-55 -19 -55 -152v-126zM687 390v37q0 10 3 36q3 42 6.5 52.5t27.5 47.5q18 29 42 52q92 76 207 76q50 0 89 -31.5t39 -80.5v-152q0 -68 -70.5 -149.5t-136.5 -81.5h-81q-50 0 -110 92q-16 23 -16 102zM784 343q0 -45 58 -102q8 -3 52 -6 q53 -2 81.5 50.5t28.5 117.5v149q0 50 -10.5 73.5t-41.5 29.5q-63 0 -113 -34q-55 -19 -55 -152v-126z" />
<glyph unicode="&#x108d;" d="M-854 -350l749 -1v-92h-749v93z" />
<glyph unicode="&#x108e;" horiz-adv-x="1362" d="M102 600q3 154 74 277q165 286 469 281q152 -3 301 -89q68 -40 121 -84h193v-58h-136l63 -81q92 -118 92 -304q0 -220 -158.5 -385t-378.5 -163q-357 3 -545 302q-97 154 -95 304zM199 558q3 -137 68 -241q150 -239 428 -239q275 0 419 260q70 125 68 246 q-3 202 -134 343h-689l-5 -5q-157 -157 -155 -364zM430 985h555l-28 21q-97 70 -236 68q-157 -3 -291 -89z" />
<glyph unicode="&#x108f;" horiz-adv-x="615" d="M86 861v37q0 10 3 36q3 42 6.5 52.5t27.5 47.5q18 29 42 52q92 76 207 76q50 0 89 -31.5t39 -80.5v-152q0 -68 -70.5 -149.5t-136.5 -81.5h-81q-50 0 -110 92q-16 23 -16 102zM95 346v40h136v-21q52 30 108 30q87 0 148 -55q59 -57 59 -140q0 -90 -60 -148 q-59 -58 -148 -58q-65 0 -107 26v-47v-16t1 -17v-20q0 -38 7 -68t20 -53q25 -47 67 -47q39 0 56 45q16 45 26 45q8 0 19 -17q12 -17 12 -33q0 -31 -29 -51q-28 -22 -69 -22q-83 0 -143 92q-32 45 -44 105t-12 129l-1 256q0 26 -5.5 35t-13.5 9zM183 814q0 -45 58 -102 q8 -3 52 -6q53 -2 81.5 50.5t28.5 117.5v149q0 50 -10.5 73.5t-41.5 29.5q-63 0 -113 -34q-55 -19 -55 -152v-126zM231 98q15 -25 43 -40q31 -17 64 -17q55 0 87 35q34 36 34 93q0 75 -41 122t-101 47q-43 0 -86 -27v-213z" />
<glyph unicode="&#x1090;" horiz-adv-x="769" d="M106 297v894q3 150 76 224.5t214 72.5q134 -2 204.5 -76.5t68.5 -211.5v-911q2 -138 -68.5 -212.5t-204.5 -76.5q-141 -2 -214 73t-76 224zM257 265q2 -89 49.5 -134t137.5 -43q91 2 134.5 56t41.5 168v865q2 113 -41.5 167.5t-134.5 56.5q-90 2 -137.5 -43.5 t-49.5 -133.5v-959z" />
<glyph unicode="&#x1091;" horiz-adv-x="659" d="M85 1257l327 315l35 -33l-51 -47v-1240l151 144l30 -35l-347 -339l-35 33l51 47v1240l-129 -120z" />
<glyph unicode="&#x1092;" horiz-adv-x="800" d="M102 1020v550h33v-181l55 48q79 70 217 73q66 1 117 -20.5t86.5 -61t54 -95t18.5 -121.5v-329l-59 -98v-3q-15 -24 -39 -68t-51 -98.5t-54.5 -114.5t-49.5 -116t-36 -103.5t-14 -75.5q0 -90 40 -127q40 -36 146 -36h18v-42h-363q14 99 46.5 197t79.5 202.5t108 220 t132 249.5l-3 368q0 47 -13.5 88.5t-39 72t-62 48.5t-82.5 19q-81 2 -140 -49t-94 -157q-3 -11 -6 -42.5t-5.5 -69t-4 -73.5t-2.5 -55h-33z" />
<glyph unicode="&#x1093;" horiz-adv-x="997" d="M92 -6q7 54 29 126t53.5 156.5t71.5 179t84.5 192t91 196t91.5 192t86 178.5t75 156h-207v-92h-43v254h24q31 -17 63 -17q5 0 16 0.5t17 0.5h200q25 0 62 16h28q-36 -60 -78 -135.5t-85 -157t-83 -163.5t-72 -154q23 5 48 8.5t52 4.5q66 1 117 -21t86.5 -61.5t54 -95 t18.5 -121.5v-539l37 36l29 -29l-183 -183l-29 29l51 51l-4 662q0 47 -13.5 88t-39 72t-62 49t-82.5 19q-57 0 -103 -24q-18 -44 -43 -102.5t-52 -123.5t-53.5 -131.5t-47.5 -126.5t-34 -108t-13 -76q0 -90 40 -127q42 -36 147 -36h18v-42h-363z" />
<glyph unicode="&#x1094;" horiz-adv-x="897" d="M52 -2q10 72 44.5 175.5t84 225t110 254t121.5 261.5t119 247.5t103 213.5h-207v-92h-43v254h24q15 -8 30.5 -13t32.5 -5q5 0 16 1t17 1h200q13 0 29 4t33 12h28q-32 -54 -69.5 -120t-75.5 -138l1 -1176q0 -32 13.5 -53.5t54.5 -21.5h19q93 0 93 67v180h28v-294h-26v35 q-32 -16 -103 -16h-219v28h53l1 1086q-31 -63 -58.5 -122t-49.5 -112q-18 -43 -43 -101.5t-52.5 -124.5t-54.5 -133.5t-48 -128.5t-34.5 -110.5t-13.5 -78.5q0 -90 40 -127q43 -35 147 -35h18v-43h-363z" />
<glyph unicode="&#x1095;" horiz-adv-x="1021" d="M101 297v198q0 165 128 287q87 81 197 102q54 9 122 12q60 2 112 -28l-1 529q0 32 -13 53.5t-54 21.5h-19q-94 0 -94 -67v-180h-28v294h26v-36q33 17 103 17h219v-28h-53l1 -577h162v87h37v-331l-37 2q0 81 -40 125t-112 44h-10v-833h-87v158q-5 -7 -10.5 -13t-10.5 -13 q-113 -131 -213 -131q-26 0 -44 -0.5t-28 -1.5q-41 0 -58 4q-56 6 -119 73q-9 10 -22.5 27t-30.5 42q-23 34 -23 163zM199 501q0 -29 0.5 -72t1 -84.5t1 -74t1.5 -40.5q12 -80 61 -129q17 -16 28 -26t18 -14q13 -10 49 -13q22 0 39 0.5t28 1.5q86 0 161 110q67 95 67 198 v361q0 53 -40 86q-39 32 -97 35q-53 2 -95 -6.5t-77 -28.5q-38 -21 -65 -53q-7 -9 -18.5 -25.5t-28.5 -42.5q-34 -50 -34 -183z" />
<glyph unicode="&#x1096;" horiz-adv-x="1021" d="M101 1004v198q0 129 23 163q17 25 30.5 42t22.5 27q63 67 119 73q17 4 58 4q10 -1 28 -1.5t44 -0.5q100 0 213 -131q5 -7 10.5 -13t10.5 -13v158h87v-833h10q72 0 112 44t40 125l37 2v-331h-37v87h-162l-1 -577h53v-28h-219q-70 0 -103 17v-36h-26v294h28v-180 q0 -67 94 -67h19q41 0 54 21.5t13 53.5l1 529q-52 -30 -112 -28q-68 3 -122 12q-110 21 -197 102q-128 122 -128 287zM199 998q0 -133 34 -183q17 -26 28.5 -42.5t18.5 -25.5q27 -32 65 -53q35 -20 77 -28.5t95 -6.5q58 3 97 35q40 33 40 86v361q0 103 -67 198 q-75 110 -161 110q-11 1 -28 1.5t-39 0.5q-36 -3 -49 -13q-7 -4 -18 -14t-28 -26q-49 -49 -61 -129q-1 -8 -1.5 -40.5t-1 -74t-1 -84.5t-0.5 -72z" />
<glyph unicode="&#x1097;" horiz-adv-x="826" d="M50 -5l506 1476h-211q-111 0 -155 -40q-46 -41 -46 -136v-80h-47v366h47v-65h570l-511 -1477h295q103 0 147 43q45 43 45 142v138h47v-440h-47v73h-640z" />
<glyph unicode="&#x1098;" horiz-adv-x="973" d="M57 389q0 133 71 240q35 51 81.5 90.5t107.5 67.5q-71 27 -119 85q-16 20 -27.5 38.5t-19.5 39.5t-12 47t-4 62v329q0 44 3 58q0 20 -13 26q-15 7 -63 11v40h191v-435q0 -74 13.5 -124t40 -80.5t66.5 -44t93 -14.5q61 -1 106 16t74.5 45t43.5 64t14 74v359 q0 100 -152 100v40h270v-385q0 -57 -9.5 -101.5t-26 -79t-38.5 -60.5t-47 -45q-39 -32 -82 -50q152 -45 224.5 -135t72.5 -233q0 -186 -124 -310q-123 -124 -307 -124q-189 0 -308 110q-120 111 -120 279zM138 477q0 -156 126 -271q126 -117 296 -117q130 0 207 72 q78 73 78 192q0 153 -128 266q-126 114 -296 114q-125 0 -205 -71q-78 -71 -78 -185z" />
<glyph unicode="&#x1099;" horiz-adv-x="978" d="M57 1132q0 168 120 279q119 110 308 110q184 0 307 -124q124 -124 124 -310q0 -143 -72.5 -233t-224.5 -135q43 -18 82 -50q25 -19 47 -45t38.5 -60.5t26 -79t9.5 -101.5v-385h-270v40q152 0 152 100v359q0 37 -14 73.5t-43.5 64.5t-74.5 45t-106 16q-53 -1 -93 -14.5 t-66.5 -44t-40 -80.5t-13.5 -124v-435h-191v40q48 4 63 11q13 6 13 26q-3 13 -3 58v329q0 36 4 62t12 47t19.5 39.5t27.5 38.5q48 58 119 85q-61 28 -107.5 67.5t-81.5 90.5q-71 107 -71 240zM138 1044q0 -115 78 -185q80 -71 205 -71q170 0 296 114q128 113 128 266 q0 118 -78 192q-77 72 -207 72q-170 0 -296 -117q-126 -116 -126 -271z" />
<glyph unicode="&#x109a;" horiz-adv-x="606" d="M86 1476v37q0 10 3 36q3 42 6.5 52.5t27.5 47.5q18 29 42 52q92 76 207 76q50 0 89 -31.5t39 -80.5v-152q0 -68 -70.5 -149.5t-136.5 -81.5h-81q-50 0 -110 92q-16 23 -16 102zM183 1429q0 -45 58 -102q8 -3 52 -6q53 -2 81.5 50.5t28.5 117.5v149q0 50 -10.5 73.5 t-41.5 29.5q-63 0 -113 -34q-55 -19 -55 -152v-126z" />
<glyph unicode="&#x109b;" horiz-adv-x="623" d="M106 1617q0 83 60 139q59 56 147 56q55 0 108 -30v21h136v-40l-27 -1q-8 0 -13.5 -9t-5.5 -35l-1 -256q0 -69 -12 -129t-43 -106q-62 -91 -144 -91q-41 0 -69 22q-29 20 -29 51q0 16 12 33q11 17 19 17q9 0 26 -45q16 -45 56 -45q42 0 67 47q13 23 20 53t7 68v20 q1 9 1 17v16v47q-42 -26 -107 -26q-89 0 -148 58q-60 58 -60 148zM193 1586q0 -57 34 -93q32 -35 87 -35q33 0 64 17q28 15 43 40v213q-44 27 -86 27q-60 0 -101 -47t-41 -122z" />
<glyph unicode="&#x109c;" horiz-adv-x="904" d="M85 201q0 55 30 108h-21v136h40l1 -27q0 -8 9 -13.5t35 -5.5l256 -1q69 0 129 -12t106 -43q91 -62 91 -144q0 -41 -22 -69q-20 -29 -51 -29q-17 0 -33 12q-17 11 -17 19q0 9 45 26q45 16 45 56q0 42 -47 67q-23 13 -53 20t-68 7h-20q-9 1 -17 1h-16h-47q26 -42 26 -107 q0 -89 -58 -148q-59 -60 -148 -60q-84 0 -139 60q-56 59 -56 147zM85 865q0 55 30 108h-21v136h40l1 -27q0 -8 9 -13.5t35 -5.5l256 -1q69 0 129 -12t106 -43q91 -62 91 -144q0 -41 -22 -69q-20 -29 -51 -29q-17 0 -33 12q-17 11 -17 19q0 9 45 26q45 16 45 56q0 42 -47 67 q-23 13 -53 20t-68 7h-20q-9 1 -17 1h-16h-47q26 -42 26 -107q0 -89 -58 -148q-59 -60 -148 -60q-84 0 -139 60q-56 59 -56 147zM142 223q0 -60 47 -101t122 -41q57 0 93 34q35 32 35 87q0 33 -17 64q-15 28 -40 43h-213q-27 -44 -27 -86zM142 887q0 -60 47 -101t122 -41 q57 0 93 34q35 32 35 87q0 33 -17 64q-15 28 -40 43h-213q-27 -44 -27 -86z" />
<glyph unicode="&#x109d;" d="M-917 1372v551h43v-234l71 63q103 90 280 93h8q83 0 148 -28.5t109.5 -79.5t68 -121.5t23.5 -154.5v-306l48 47l37 -37l-236 -236l-38 37l66 66v463q0 61 -18.5 114t-52.5 93t-82 63t-107 24h-7q-103 0 -176.5 -65.5t-118.5 -199.5q-9 -29 -15 -65.5t-8 -86.5h-43z" />
<glyph unicode="&#x109e;" horiz-adv-x="668" d="M6 779v348h31v-42q20 10 50 15t72 5h259v-33h-63v-1834q0 -38 16.5 -63.5t64.5 -25.5h22q111 0 111 80v213h33v-348h-31v42q-20 -10 -50 -15t-72 -5h-259v33h63v1834q0 38 -16.5 63.5t-64.5 25.5h-22q-111 0 -111 -80v-213h-33zM86 1476v37q0 10 3 36q3 42 6.5 52.5 t27.5 47.5q18 29 42 52q92 76 207 76q50 0 89 -31.5t39 -80.5v-152q0 -68 -70.5 -149.5t-136.5 -81.5h-81q-50 0 -110 92q-16 23 -16 102zM183 1429q0 -45 58 -102q8 -3 52 -6q53 -2 81.5 50.5t28.5 117.5v149q0 50 -10.5 73.5t-41.5 29.5q-63 0 -113 -34q-55 -19 -55 -152 v-126z" />
<glyph unicode="&#x109f;" horiz-adv-x="1162" d="M130 3v817q0 168 98 278q69 79 281 79q60 0 121 -31q20 -11 43.5 -28.5t48.5 -40.5l72 -114q11 -26 16.5 -50.5t7.5 -45t2.5 -36.5t2.5 -26v-1379q0 -35 -4.5 -50.5t-13.5 -22t-22.5 -7.5t-31.5 -6q-35 -8 -58.5 -31.5t-24.5 -59.5q0 -24 13 -40.5t34 -26t46.5 -12.5 t49.5 0q21 2 42 7.5t37 15.5t26 26t10 39v1715q0 66 -6 111.5t-20 68.5q-27 48 -133 88l-168 66q-113 49 -164 100q-69 68 -71 175q-3 53 26 115q50 110 180 136q33 6 69.5 9.5t74.5 3.5h77q91 0 175 -35v88h32v-471h-32v255q-103 99 -223 99h-73q-51 0 -79 -11 q-38 -9 -66 -34.5t-50 -67.5q-5 -12 -8 -32t-5 -48q0 -74 42 -122q13 -16 38.5 -36.5t63.5 -46.5q66 -46 156 -85q74 -33 115.5 -53.5t51.5 -27.5q101 -72 101 -170v-1882h55v-51l-277 2q-57 0 -98 5t-68 18t-42 36t-20 60q-8 62 24.5 112t99.5 64v1477q0 96 -98 177 q-78 66 -158 69q-21 2 -42.5 -4t-44.5 -18q-89 -31 -104 -95q-2 -12 -3 -29t-1 -40v-95q119 -38 203 -147q84 -111 84 -233v-190q0 -119 -23 -180q-41 -101 -136 -101h-251zM253 154q0 -67 63 -92q16 -8 65 -11q41 -3 56 95q6 33 6 132v191q0 94 -53 183q-55 91 -137 130 v-628z" />
<glyph unicode="&#x2000;" horiz-adv-x="1001" />
<glyph unicode="&#x2001;" horiz-adv-x="2002" />
<glyph unicode="&#x2002;" horiz-adv-x="1001" />
<glyph unicode="&#x2003;" horiz-adv-x="2002" />
<glyph unicode="&#x2004;" horiz-adv-x="667" />
<glyph unicode="&#x2005;" horiz-adv-x="500" />
<glyph unicode="&#x2006;" horiz-adv-x="333" />
<glyph unicode="&#x2007;" horiz-adv-x="333" />
<glyph unicode="&#x2008;" horiz-adv-x="250" />
<glyph unicode="&#x2009;" horiz-adv-x="400" />
<glyph unicode="&#x200a;" horiz-adv-x="111" />
<glyph unicode="&#x202f;" horiz-adv-x="400" />
<glyph unicode="&#x205f;" horiz-adv-x="500" />
<glyph unicode="&#xaa60;" horiz-adv-x="1899" d="M0 1v47h88v759q0 41 4.5 76t15.5 66.5t30 60.5t48 58q30 30 61 47.5t64.5 27t70.5 13t79 3.5q33 0 62.5 -8.5t55.5 -23.5t48.5 -34t40.5 -39q43 -47 75 -106l100 86q27 25 70.5 48.5t97.5 41t115 27t124 8.5q123 -3 218.5 -35.5t178.5 -108.5q167 -152 170 -392 q1 -161 -87 -306q-45 -72 -102.5 -129t-128.5 -98q-69 -42 -141.5 -62.5t-146.5 -21.5q-58 0 -136 35q-77 38 -96 90q-6 32 16 66q22 33 59 37h525l10 9q128 128 131 359q0 80 -37 166q-19 44 -46 82.5t-61 71.5q-32 31 -67.5 57t-75.5 46t-85.5 33t-97.5 17 q-109 8 -201.5 -20t-154.5 -89q-60 -61 -90.5 -129.5t-30.5 -147.5v-545q0 -65 35 -86q7 0 40 -10v-47h-284v47h91v826q0 95 -97 176q-20 16 -37.5 29t-35.5 21t-38 12.5t-45 4.5q-32 0 -62 -6t-55 -19.5t-43.5 -35.5t-27.5 -53q-6 -20 -5.5 -33t0.5 -35v-785 q0 -34 15.5 -56t46.5 -36q8 -2 24 -5t41 -5v-47h-336zM1071 181q34 -45 79.5 -68t101.5 -25q151 -2 270 93h-451z" />
<glyph unicode="&#xaa61;" horiz-adv-x="1933" d="M33 -61v264h48v-13q0 -29 29 -92q26 -53 90 -56q62 0 93 62q2 8 3.5 18.5t1.5 25.5q0 11 -6 21t-23 19q-2 0 -3 1l-45 14q-18 6 -38 14t-34 17q-12 8 -22 19t-10 25v489q0 167 63 263q43 63 106.5 94.5t146.5 31.5q39 0 73.5 -5.5t66 -17.5t61.5 -31.5t60 -47.5 q38 -34 61 -76.5t37 -87.5q185 263 522 267h9q215 0 371 -162q159 -167 159 -388q0 -121 -48.5 -227.5t-148.5 -200.5q-194 -185 -438 -188h-13q-238 0 -390 182v-170h-291v59h14q72 0 104 26t32 76v377l-1 8v16t1 16v227q0 132 -53.5 194.5t-159.5 62.5h-5 q-97 -2 -147.5 -81.5t-50.5 -250.5v-438l57 -26q34 -15 50 -43t17 -65q0 -38 -15.5 -69t-41.5 -53.5t-60 -35.5t-71 -14h-5q-26 0 -53 7t-55 20v-77h-48zM815 541q13 -162 138 -284q70 -69 154 -103t184 -36h10q227 0 354 227q58 104 58 221q0 57 -16.5 114t-45.5 108.5 t-69.5 95.5t-88.5 76t-101.5 50.5t-109.5 18.5h-15q-257 0 -391 -218q-54 -85 -61 -191v-79z" />
<glyph unicode="&#xaa62;" horiz-adv-x="1562" d="M1 1104v46h211q1 -197 1 -356v-134t-0.5 -120t-1 -91t-1.5 -46q0 -4 10 -30.5t25 -64.5t34 -81t37.5 -79.5t35 -60.5t26.5 -24q45 5 52 33q3 7 3 69v336v123.5v108v77v29.5q16 23 37 10t41.5 -49t36.5 -89.5t21 -110.5q-3 -92 -1 -168q0 -32 1.5 -64.5t4 -59.5t6.5 -46.5 t9 -26.5q100 -143 332 -148q47 -2 99.5 17t112.5 58q48 29 89.5 76.5t76.5 112.5q75 139 79.5 272.5t-79.5 267.5q-15 25 -29 45t-30 37t-34.5 32.5t-43.5 30.5q-46 28 -104.5 38t-113 8.5t-97 -11t-56.5 -20.5v-225h-52v410h52v-115q23 9 66 19.5t95.5 15.5t109.5 1.5 t110 -22.5q26 -10 47.5 -19t40.5 -20t37.5 -24.5t38.5 -32.5q34 -32 58.5 -73t40 -87t23 -96.5t7.5 -101.5q1 -62 -8.5 -124t-31.5 -122.5t-58 -118.5t-88 -112q-49 -50 -106.5 -87.5t-115.5 -62.5t-113 -37.5t-98 -12.5q-172 0 -325 110q-5 -20 -10.5 -35t-13.5 -23 q-44 -56 -119 -56q-26 0 -58 28.5t-64.5 73t-62.5 98t-53 103.5t-36 89.5t-11 55.5v656h-92z" />
<glyph unicode="&#xaa63;" horiz-adv-x="1951" d="M12 -65v268h49v-14q0 -30 29 -94q28 -53 92 -56h5q58 0 88 62q6 15 6 46q0 10 -6.5 20t-23.5 20h-1q-2 0 -2 1l-11 3l-34 11q-18 6 -38.5 14t-34.5 17q-13 8 -22.5 19t-9.5 26v496q0 171 65 267q87 128 255 128q40 0 75 -5.5t67 -18t62 -32.5t61 -48q38 -35 61 -78.5 t37 -88.5q190 268 531 271h8q218 0 376 -164q162 -168 162 -393q0 -246 -200 -434q-197 -188 -445 -192h-8q-245 0 -400 185v-172h-294v60v27q0 20 1 51t4.5 65.5t10 68.5t17.5 60q22 52 55 91t63 59v334q0 134 -53 197t-160 63h-8q-98 -2 -149 -82.5t-51 -252.5v-445 l57 -25q35 -15 51 -43.5t17 -66.5v-5q0 -38 -16 -68.5t-42 -52.5t-61 -34.5t-72 -13.5h-5q-26 0 -53 7t-56 19v-77h-49zM576 63q1 0 1.5 0.5t1.5 0.5q7 1 21 5t27.5 17t24 38t10.5 67v199q-26 -23 -42.5 -52t-26.5 -64.5t-13.5 -78.5t-3.5 -95v-37zM805 545q7 -83 42 -154.5 t98 -134.5q141 -138 343 -141h6q233 0 363 231q59 105 59 224q0 58 -17 116t-46.5 110t-71 96.5t-90 77.5t-103 51.5t-111.5 18.5h-14q-259 0 -396 -221q-28 -44 -42.5 -92t-19.5 -103v-79z" />
<glyph unicode="&#xaa64;" horiz-adv-x="1953" d="M24 1103v46h189v-738q0 -345 211 -348q122 -2 179 68.5t57 204.5v650q0 117 -151 117v46h267v-265q189 270 530 273q220 4 380 -163q82 -84 121.5 -180.5t39.5 -207.5q0 -121 -49.5 -229.5t-149.5 -202.5q-195 -186 -440 -189q-149 -2 -265.5 64t-200.5 205 q-5 -17 -11.5 -33.5t-13.5 -32.5q-7 -15 -22 -38.5t-38 -55.5q-92 -99 -254 -99q-163 0 -244 123q-62 93 -62 259v614q0 51 3 68q0 24 -14 31q-7 3 -22.5 7t-39.5 6zM802 588q-2 -98 33 -181t107 -154q71 -70 155.5 -104t184.5 -36q118 -2 209.5 55.5t156.5 173.5 q59 104 59 222q1 59 -16 117t-48 110.5t-73.5 97.5t-93 77t-106.5 49t-113 15q-255 0 -393 -220q-31 -49 -45.5 -104t-16.5 -118z" />
<glyph unicode="&#xaa65;" horiz-adv-x="1916" d="M18 1083v46h327l2 -45q-60 -3 -93 -27.5t-33 -72.5v-584q0 -341 208 -344h5q118 0 172.5 69.5t54.5 200.5v258q2 77 17 146.5t50 129.5q81 141 195.5 210t262.5 69h9q244 -5 436 -186q195 -186 195 -426q0 -220 -158 -384q-155 -161 -368 -161h-8q-119 1 -220 36v-124 h-53v391h53v-165q39 -15 82 -22t91 -7h14q86 0 166.5 41t142.5 108t99 152t37 174q0 122 -59 227q-131 234 -366 234h-9q-205 -3 -348 -143q-68 -67 -107 -145t-39 -169v-111q0 -155 -58 -280q-7 -14 -22 -36.5t-38 -54.5q-88 -98 -250 -98q-159 0 -241 121q-31 46 -46 110 t-17 146v713h-31q-14 0 -28.5 0.5t-26.5 2.5zM579 -18v36h197v-752q0 -44 18 -74t76 -30h26q131 0 131 94v251h39v-411h-36v50q-47 -24 -144 -24h-307v40h79v746q0 40 -12 57t-30 17h-37z" />
<glyph unicode="&#xaa66;" horiz-adv-x="1830" d="M102 252v446q3 120 71 230q105 168 262 207q47 11 115 13q87 3 157.5 -53.5t73.5 -140.5q89 87 181 134q146 55 230 55q268 0 412 -131q157 -141 157 -406q0 -100 -55 -216.5t-131 -194.5q-186 -194 -375 -200q-65 -2 -88.5 4.5t-84.5 32.5v-118h-42v414h42v-157 q63 -63 79 -71q37 -26 102 -26q176 0 333 176q123 138 123 348q0 97 -27.5 171.5t-93.5 137.5q-89 87 -178 118q-55 18 -173 34q-157 19 -280 -103t-123 -279v-283q0 -95 -121 -244q-133 -165 -254 -165q-50 0 -63 -3q-26 0 -39 6q-63 15 -121 78q-10 11 -60 81 q-5 16 -21 55q-8 32 -8 50zM226 268q0 -60 10 -89q16 -45 107 -118q14 -8 37 -11q24 0 34 3q115 0 191 121q66 104 66 225v550q0 60 -46 97t-109 39q-57 3 -82 -1t-64 -33q-66 -39 -116 -139q-28 -78 -28 -212v-432zM295 504v29q0 7 2 28q3 32 5.5 40.5t21.5 36.5 q14 23 32 41q72 59 161 59q39 0 69.5 -24.5t30.5 -62.5v-118q0 -53 -55 -116.5t-106 -63.5h-63q-39 0 -86 72q-12 17 -12 79zM370 467q0 -35 46 -79q6 -2 40 -5q41 -1 63.5 39.5t22.5 91.5v116q0 39 -8.5 57t-32.5 23q-49 0 -88 -26q-43 -15 -43 -119v-98z" />
<glyph unicode="&#xaa67;" horiz-adv-x="1829" d="M102 267l3 446q0 120 68 230q105 168 262 207q47 11 115 13q87 3 157.5 -53.5t73.5 -140.5q89 87 181 134q146 55 230 55q268 0 412 -131q157 -141 157 -406q0 -102 -63 -246q-107 -247 -383 -351q-62 -24 -193 -27q-281 -5 -407 239q-123 -231 -301 -236q-26 0 -63 -3 q-26 0 -39 6q-63 15 -121 78q-10 11 -60 81q-5 16 -21 55q-8 32 -8 50zM226 283q0 -60 10 -89q16 -45 107 -118q14 -8 37 -11q24 0 34 3q115 0 191 121q66 104 66 225v550q0 60 -46 97t-109 39q-57 3 -82 -1t-64 -33q-66 -39 -116 -139q-28 -78 -28 -212v-432zM295 504v29 q0 7 2 28q3 32 5.5 40.5t21.5 36.5q14 23 32 41q72 59 161 59q39 0 69.5 -24.5t30.5 -62.5v-118q0 -53 -55 -116.5t-106 -63.5h-63q-39 0 -86 72q-12 17 -12 79zM370 467q0 -35 46 -79q6 -2 40 -5q41 -1 63.5 39.5t22.5 91.5v116q0 39 -8.5 57t-32.5 23q-49 0 -88 -26 q-43 -15 -43 -119v-98zM789 464q0 -176 144 -299q99 -86 191 -86q139 0 194 15.5t163 88.5q178 121 183 430q3 92 -26 169t-95 140q-89 87 -178 118q-55 18 -173 34q-157 19 -280 -103t-123 -279v-228z" />
<glyph unicode="&#xaa68;" horiz-adv-x="1844" d="M102 267v446q3 120 71 230q105 168 262 207q23 5 52 8.5t63 4.5q87 3 157 -54q71 -56 74 -140q88 87 181 134q144 55 230 55q267 0 412 -131q157 -141 157 -406q0 -101 -55 -217q-28 -58 -60.5 -106.5t-70.5 -87.5q-47 -48 -88 -86t-84 -64t-92 -39t-111 -11 q-20 0 -42 4.5t-44.5 11.5t-44 16t-40.5 18q-46 21 -89 48q-15 18 -13 37t14 36t30 30.5t36 22.5h505q8 8 15 15.5t14 15.5q123 138 123 348q0 97 -27.5 171.5t-93.5 137.5q-87 86 -178 118q-54 17 -173 34q-156 19 -280 -103q-123 -122 -123 -279v-283q0 -96 -121 -244 q-134 -165 -254 -165q-50 0 -63 -3q-26 0 -39 6q-62 15 -121 78q-11 10 -60 81q-4 15 -21 55q-8 34 -8 50zM227 283q0 -62 10 -89q17 -45 107 -118q14 -8 37 -11q23 0 34 3q115 0 191 121q66 103 66 225v550q0 60 -46 97q-47 38 -109 39q-59 3 -82 -1q-25 -4 -64 -33 q-67 -40 -116 -139q-28 -77 -28 -212v-432zM295 504v29q0 7 2 28q3 32 5.5 40.5t21.5 36.5q14 23 32 41q72 59 161 59q39 0 69.5 -24.5t30.5 -62.5v-118q0 -53 -55 -116.5t-106 -63.5h-63q-39 0 -86 72q-12 17 -12 79zM370 467q0 -35 46 -79q6 -2 40 -5q41 -1 63.5 39.5 t22.5 91.5v116q0 39 -8.5 57t-32.5 23q-49 0 -88 -26q-43 -15 -43 -119v-98zM1033 181q58 -59 75 -66q38 -26 102 -26q126 0 244 92h-421z" />
<glyph unicode="&#xaa69;" horiz-adv-x="1858" d="M98 258v452q4 123 73 233q106 171 264 210q25 6 54.5 8.5t62.5 4.5h8q43 0 83.5 -15t72 -41.5t50.5 -62t20 -77.5q47 44 92.5 78t91.5 58q74 28 133 41.5t101 13.5q271 0 418 -132q159 -144 159 -412q0 -53 -16 -114.5t-48 -135.5q-107 -249 -388 -356 q-32 -13 -81.5 -18.5t-115.5 -7.5h-13q-137 0 -236.5 60t-162.5 181q-62 -119 -138.5 -178t-167.5 -61q-14 0 -29.5 -0.5t-33.5 -2.5q-14 0 -24.5 1.5t-15.5 3.5q-32 8 -62.5 28t-60.5 51l-61 83l-21 56q-4 16 -6 28t-2 23zM223 274q0 -30 2 -53.5t8 -37.5q16 -43 109 -119 q7 -5 16.5 -7t20.5 -4h20.5t14.5 2q58 0 107.5 30t87.5 92q34 55 50 111t16 119v558q0 31 -12.5 56t-34 43t-50 28.5t-60.5 11.5q-13 0 -23.5 0.5t-19.5 0.5q-17 0 -29.5 -1.5t-24.5 -5.5t-24.5 -11t-27.5 -19q-34 -20 -62.5 -55t-54.5 -85q-29 -82 -29 -215v-439zM295 504 v29q0 7 2 28q3 32 5.5 40.5t21.5 36.5q14 23 32 41q72 59 161 59q39 0 69.5 -24.5t30.5 -62.5v-118q0 -53 -55 -116.5t-106 -63.5h-63q-39 0 -86 72q-12 17 -12 79zM370 467q0 -35 46 -79q6 -2 40 -5q41 -1 63.5 39.5t22.5 91.5v116q0 39 -8.5 57t-32.5 23q-49 0 -88 -26 q-43 -15 -43 -119v-98zM795 457q0 -180 145 -304q101 -86 195 -86h7l-347 518v-128zM795 681l412 -613q83 1 125 14q28 8 69.5 30.5t95.5 60.5q91 62 137 169.5t49 265.5v10q0 92 -29 166.5t-93 137.5q-47 45 -91 74.5t-91 45.5q-54 19 -175 34q-23 3 -43 3 q-133 0 -242 -109q-124 -124 -124 -282v-7z" />
</font>
</defs>
</svg>
