<?xml version="1.0" standalone="no"?>
<!DOCTYPE svg PUBLIC "-//W3C//DTD SVG 1.1//EN" "http://www.w3.org/Graphics/SVG/1.1/DTD/svg11.dtd" >
<svg xmlns="http://www.w3.org/2000/svg">
<metadata></metadata>
<defs>
<font id="ayar_pyathoregular" horiz-adv-x="0" >
<font-face units-per-em="2048" ascent="1638" descent="-410" />
<missing-glyph horiz-adv-x="466" />
<glyph horiz-adv-x="2048" />
<glyph horiz-adv-x="2048" />
<glyph unicode="&#xd;" horiz-adv-x="2048" />
<glyph unicode=" "  horiz-adv-x="466" />
<glyph unicode="&#x09;" horiz-adv-x="466" />
<glyph unicode="&#xa0;" horiz-adv-x="466" />
<glyph unicode="&#x1000;" horiz-adv-x="1171" d="M61 111v850l111 110h391l21 -22l22 22h391l113 -110v-850l-113 -111h-110v848h-189v-737l-114 -111h-111v848h-188v-848h-113z" />
<glyph unicode="&#x1001;" horiz-adv-x="759" d="M61 111v342l111 110h270l31 -35v320h-412v113l111 110h412l114 -110v-850l-114 -111h-412zM285 223h188v117h-188v-117z" />
<glyph unicode="&#x1002;" horiz-adv-x="751" d="M61 111v850l111 110h412l114 -110v-850l-114 -111h-111v848h-188v-848h-113z" />
<glyph unicode="&#x1003;" horiz-adv-x="1171" d="M61 111v389l134 348h-134v223h246l111 -110v-113l-133 -367v-258h190v848h111l112 -110v-738h189v848h110l113 -110v-850l-113 -111h-391l-20 23l-23 -23h-391z" />
<glyph unicode="&#x1004;" horiz-adv-x="751" d="M61 111v850l111 110h412l114 -110v-113h-413v-625h413v-112l-114 -111h-412z" />
<glyph unicode="&#x1005;" horiz-adv-x="759" d="M61 111v850l111 110h412l114 -110v-850l-114 -111h-412zM285 223h188v625h-188v-74h94l53 -53v-377l-53 -57h-94v-64zM285 401h37v263h-37v-263z" />
<glyph unicode="&#x1006;" horiz-adv-x="1171" d="M61 111v342l111 110h301v285h-412v113l111 110h391l21 -22l22 22h391l113 -110v-850l-113 -111h-391l-22 23l-21 -23h-391zM285 223h188v117h-188v-117zM698 223h189v625h-189v-625z" />
<glyph unicode="&#x1007;" horiz-adv-x="759" d="M61 111v850l111 110h412l114 -110v-381l-45 -43l74 -80l-139 -127l-139 139h-68l-57 57v222l57 53h92v47h-188v-625h413v-112l-114 -111h-412zM434 580h39v110h-39v-110z" />
<glyph unicode="&#x1008;" horiz-adv-x="1062" d="M61 111v850l111 110h412l114 -110v-850l-114 -111h-412zM285 223h188v625h-188v-74h94l53 -53v-377l-53 -57h-94v-64zM285 401h37v263h-37v-263zM477 0h223v-381l82 -39v1491h111l113 -110v-1563l-164 -98l-303 155l-62 99v446z" />
<glyph unicode="&#x1009;" horiz-adv-x="759" d="M61 111l111 112h301v625h-412v113l111 110h412l114 -110v-855l-108 -106h-305v-469h602v49h223v-160l-113 -112h-825l-111 112v691z" />
<glyph unicode="&#x100a;" horiz-adv-x="1171" d="M61 111l111 112h301v625h-412v113l111 110h412l114 -110v-738h189v848h110l113 -110v-850l-113 -111h-391l-22 23l-21 -23h-278v-469h602v49h223v-160l-113 -112h-825l-111 112v691z" />
<glyph unicode="&#x100b;" horiz-adv-x="759" d="M61 109v849l111 111h412l114 -111v-112h-413v-625h413v-307l-123 -111h-335v-30h311l111 -107v-137h36l-4 -223h-143l-115 112v138h-266l-109 112v191l115 106h301v33h-305z" />
<glyph unicode="&#x100c;" horiz-adv-x="759" d="M59 111v850l111 110h410l114 -110v-113h-413v-625h299l114 -112v-691l-114 -112h-410l-111 112v160h222v-49h188v469h-299z" />
<glyph unicode="&#x100d;" horiz-adv-x="897" d="M61 -37h488l110 -110v-322h37l-4 -223h-143l-115 112v322h-373v221zM61 111v112h414v625h-414v113l115 110h412l110 -110v-850l-110 -111h-412z" />
<glyph unicode="&#x100e;" horiz-adv-x="759" d="M61 111v389l134 348h-134v223h246l111 -110v-113l-133 -367v-258h190v848h111l112 -110v-738l-135 -223h-391z" />
<glyph unicode="&#x100f;" horiz-adv-x="1427" d="M61 111v850l111 110h381l29 -29l32 29h199l33 -29l28 29h381l111 -110v-850l-111 -111h-110v848h-193v-737l-110 -111h-258l-111 111v737h-188v-848h-113zM698 223h31v625h-31v-625z" />
<glyph unicode="&#x1010;" horiz-adv-x="1171" d="M61 111v850l111 110h391l21 -22l22 22h391l113 -110v-850l-113 -111h-110v848h-189v-737l-114 -111h-412zM285 223h188v625h-188v-625z" />
<glyph unicode="&#x1011;" horiz-adv-x="1171" d="M61 111v850l111 110h391l21 -22l22 22h391l113 -110v-850l-113 -111h-381l-26 33l-25 -33h-393zM285 223h188v625h-188v-625zM698 223h189v625h-189v-625z" />
<glyph unicode="&#x1012;" horiz-adv-x="759" d="M61 111v112h345l-181 269v114l181 242h-121v-45h-224v158l111 110h412l114 -110v-113l-225 -291l225 -334v-112l-114 -111h-412z" />
<glyph unicode="&#x1013;" horiz-adv-x="759" d="M61 111v850l111 110h412l114 -110v-850l-114 -111h-412zM285 223h12v256l35 33h96l31 -33v-256h14v625h-188v-625zM362 223h31v221h-31v-221z" />
<glyph unicode="&#x1014;" horiz-adv-x="759" d="M61 111v200l54 58h266l53 -58v-88h39v154l-412 471v113l111 110h526v-110l-114 -113h-226l310 -352l30 -76v-309l-114 -111h-99v-692h-112l-111 110v582h-90zM172 223h152v35h-152v-35z" />
<glyph unicode="&#x1015;" horiz-adv-x="759" d="M61 111v850l111 110h113v-848h188v848h111l114 -110v-850l-114 -111h-412z" />
<glyph unicode="&#x1016;" horiz-adv-x="759" d="M61 111v850l111 110h113v-848h188v305h-94l-57 54v436l57 53h205l114 -110v-850l-114 -111h-412zM432 639h41v322h-41v-322z" />
<glyph unicode="&#x1017;" horiz-adv-x="759" d="M61 111v850l111 110h113l77 -78v-276h31v276l80 78h111l114 -110v-850l-114 -111h-412zM285 223h188v625h-14v-164l-31 -33h-96l-35 33v164h-12v-625z" />
<glyph unicode="&#x1018;" horiz-adv-x="1171" d="M61 111v112h412v625h-412v113l111 110h391l21 -22l22 22h391l113 -110v-850l-113 -111h-110v848h-189v-737l-114 -111h-412z" />
<glyph unicode="&#x1019;" horiz-adv-x="759" d="M61 111v850l111 110h113v-848h12v256l35 33h96l31 -33v-256h14v848h111l114 -110v-850l-114 -111h-412zM362 223h31v221h-31v-221z" />
<glyph unicode="&#x101a;" horiz-adv-x="1171" d="M61 111v850l111 110h113v-848h188v848h111l114 -110v-738h189v848h110l113 -110v-850l-113 -111h-391l-22 23l-21 -23h-391z" />
<glyph unicode="&#x101b;" horiz-adv-x="759" d="M61 111v850l111 110h412l114 -110v-1430h105v-223h-219l-111 112v1428h-188v-303h94l53 -56v-432l-53 -57h-207zM285 111h37v321h-37v-321z" />
<glyph unicode="&#x101c;" horiz-adv-x="1171" d="M61 111v850l111 110h412l114 -110v-738h189v848h110l113 -110v-850l-113 -111h-413l-111 111v737h-188v-848h-113z" />
<glyph unicode="&#x101d;" horiz-adv-x="759" d="M61 111v850l111 110h412l114 -110v-850l-114 -111h-412zM285 223h188v625h-188v-625z" />
<glyph unicode="&#x101e;" horiz-adv-x="1171" d="M61 111v112h412v625h-412v113l111 110h412l114 -110v-738h189v848h110l113 -110v-850l-113 -111h-391l-22 23l-21 -23h-391z" />
<glyph unicode="&#x101f;" horiz-adv-x="1171" d="M61 111v850l111 110h113v-848h188v848h90l21 -22l22 22h391l113 -110v-850l-113 -111h-110v848h-189v-737l-114 -111h-412z" />
<glyph unicode="&#x1020;" horiz-adv-x="759" d="M61 111v850l111 110h412l114 -110v-113h-413v-625h413v-112l-114 -111h-412zM61 -125l111 113h526v-224h-413v-233h188v53h225v-164l-114 -112h-412l-111 112v455z" />
<glyph unicode="&#x1021;" horiz-adv-x="1171" d="M61 111v112h345l-181 269v114l181 242h-121v-45h-224v158l111 110h412l34 -31l35 31h344l113 -110v-850l-113 -111h-209l-57 57v369l57 53h99v369h-189l-225 -291l225 -334v-112l-114 -111h-412zM846 111h41v258h-41v-258z" />
<glyph unicode="&#x1022;" horiz-adv-x="1171" d="M61 0v223h134l-134 348v390l111 110h391l23 -22l20 22h391l113 -110v-850l-113 -111h-110v848h-189v-737l-112 -111h-111v848h-190v-258l133 -367v-112l-111 -111h-246z" />
<glyph unicode="&#x1023;" horiz-adv-x="1171" d="M61 111v850l111 110h391l21 -22l22 22h391l113 -110v-850l-113 -111h-110v848h-189v-737l-114 -111h-111v848h-188v-848h-113zM162 -129l92 94h326l18 -18l18 18h328l92 -69v-404h58v-186h-150l-94 94v379h-158v-279l-94 -94h-92v373h-158v-373h-94l-92 94v371z" />
<glyph unicode="&#x1024;" horiz-adv-x="1480" d="M61 92v864l113 113h395l23 -22l22 22h398l114 -113v-1564l-114 -115l-836 2l-113 115v276l113 115h416l115 -115v-110h-418v-54h610v1336h-192v-750l-115 -110h-111v860h-192v-860h-115zM762 1206v424l112 111h420l115 -109v-116h-422v-199h307l115 -111v-1925h-227v1811 h-308z" />
<glyph unicode="&#x1025;" horiz-adv-x="759" d="M63 106l111 115h303v625h-414v112l111 111h414l112 -111v-852l-112 -108h-301v-471h190v49h223v-160l-112 -112h-414l-111 112v690z" />
<glyph unicode="&#x1026;" horiz-adv-x="759" d="M63 106l111 115h303v625h-414v112l111 111h414l112 -111v-852l-112 -108h-301v-471h190v49h223v-160l-112 -112h-414l-111 112v690z" />
<glyph unicode="&#x1027;" horiz-adv-x="759" d="M63 111v843l111 111h410l112 -111v-221l-55 -57h-246l-55 57v111h-53v-621h53v107l55 53h246l55 -53v-219l-112 -111h-410zM453 223h131v51h-131v-51zM453 788h131v56h-131v-56z" />
<glyph unicode="&#x1028;" horiz-adv-x="970" d="M92 -270v977q2 63 37 124.5t90 107.5t127 73.5t148 27.5q80 -2 151.5 -28.5t125.5 -71.5t87 -103.5t33 -123.5v-133v-7q2 -260 -9.5 -319t-34 -95t-55 -49.5t-73.5 -13.5h-84q-53 0 -80 29t-36 70t-3 88t25.5 187t9.5 157q-8 10 -30.5 16t-47 -1t-43 -30.5t-16.5 -68.5 l-109 88q10 59 55.5 99t103.5 55.5t115.5 -2t98.5 -74.5q12 -23 16 -48.5t3 -52t-6 -50t-15 -139.5t-14.5 -146.5t18.5 -30.5q25 0 38 5t21.5 21.5t9.5 133t-4 171.5l-10 134q0 31 -14 65.5t-45 62t-76 45t-106 17.5q-51 0 -96.5 -18.5t-79 -48t-54 -65.5t-20.5 -71v-964 q0 -31 17.5 -60.5t48 -57.5t73.5 -46.5t92 -18.5q51 -2 97 14.5t82 42t56.5 58.5t20.5 68v77h156v-77q0 -72 -38 -133.5t-98.5 -104.5t-134 -67.5t-147.5 -20.5t-140.5 30.5t-119.5 69.5t-85 100.5t-32 125.5z" />
<glyph unicode="&#x1029;" horiz-adv-x="1462" d="M61 -582v2204l111 111h1120l113 -111v-186h-223v73h-897v-1980h897v471h-283l-22 23l-21 -23h-391l-111 111v112h412v625h-412v113l111 110h412l114 -110v-738h189v848h110l113 -110v-850l-70 -68h72v-625l-113 -112h-1120z" />
<glyph unicode="&#x102a;" horiz-adv-x="2867" d="M61 111v850l111 110h412l114 -110v-113h-413v-320l34 35h265l114 -110v-342l-114 -111h-412zM285 223h188v115h-188v-115zM782 -582v2204l111 111h1120l113 -111v-186h-223v73h-897v-1980h897v471h-283l-23 23l-20 -23h-391l-111 111v112h412v625h-412v113l111 110h411 l115 -110v-738h189v848h110l113 -110v-850l-70 -68h72v-625l-113 -112h-1120zM2165 1206v418l112 111h412l111 -109v-115h-412v-194h301l111 -111v-239h-9l7 -6v-850l-111 -111h-113v848h-379v113l111 110h272v23h-301z" />
<glyph unicode="&#x102b;" horiz-adv-x="323" d="M-291 1223v403l111 111h317l113 -111v-1626h-113l-110 111v1402h-97v-399h-112z" />
<glyph unicode="&#x102c;" horiz-adv-x="786" d="M-14 848v113l110 110h381l111 -110v-850l-111 -111h-112v848h-379z" />
<glyph unicode="&#x102d;" d="M-692 1184v440l114 111h410l111 -111v-440l-111 -113h-410zM-469 1296h190v215h-190v-215z" />
<glyph unicode="&#x102e;" d="M-758 1184v444l113 113h416l112 -113v-444l-112 -115h-416zM-530 1296h14v88l27 29h102l31 -29v-88h14v217h-188v-217zM-459 1296h45v60h-45v-60z" />
<glyph unicode="&#x102f;" d="M-420 -2h223v-469h66v-223h-178l-111 112v580z" />
<glyph unicode="&#x1030;" d="M-569 0h221v-698h-221v698zM-313 0h221v-477h65v-221h-174l-112 112v586z" />
<glyph unicode="&#x1031;" horiz-adv-x="757" d="M61 111v850l111 110h412l114 -110v-113h-413v-320l34 35h265l114 -110v-342l-114 -111h-412zM285 223h188v115h-188v-115z" />
<glyph unicode="&#x1032;" d="M-639 1427l160 158l446 -444l-155 -160z" />
<glyph unicode="&#x1033;" d="M-752 1184v440l115 111h410l110 -111v-440l-110 -113h-410zM-528 1296h190v215h-190v-215zM-479 1358h96v96h-96v-96z" />
<glyph unicode="&#x1034;" d="M-639 1141l446 444l160 -158l-450 -446z" />
<glyph unicode="&#x1035;" d="M-795 1300q0 57 23.5 107.5t61.5 88.5t91.5 58.5t112.5 20.5q76 0 137.5 -33t100.5 -86l-97 -65q-27 31 -62.5 51t-78.5 20q-35 0 -64.5 -13t-53 -35.5t-37 -50.5t-13.5 -63q0 -66 45 -108q29 33 65 54.5t75.5 31.5t84 9t82.5 -17h3q55 -51 55 -119q-39 -55 -102.5 -89 t-139.5 -34q-59 0 -112.5 21.5t-91.5 58.5t-61.5 87t-23.5 105zM-571 1155q31 -14 65 -14q43 0 79.5 20t61.5 51q-57 16 -113.5 -2t-92.5 -55z" />
<glyph unicode="&#x1036;" d="M-508 1188v274l53 56h176l56 -56v-274l-56 -53h-176zM-403 1239h71v170h-71v-170z" />
<glyph unicode="&#x1037;" d="M-508 -180l53 55h176l56 -55v-275l-56 -53h-176l-53 53v275zM-403 -233v-170h71v170h-71z" />
<glyph unicode="&#x1038;" horiz-adv-x="475" d="M61 55v412l52 55h180l55 -55v-412l-55 -55h-180zM61 610v416l52 51h180l55 -51v-416l-55 -53h-180zM168 109h72v305h-72v-305zM168 666h72v305h-72v-305z" />
<glyph unicode="&#x1039;" horiz-adv-x="444" d="M-2 840q0 76 46 125t144 49h258v-72h-55v-942h-69v942h-93v-942h-69v676q-78 6 -120 52t-42 112z" />
<glyph unicode="&#x103a;" d="M-700 1206v418l112 111h412l110 -109v-115h-411v-194h301l110 -111v-239h-221v127h-301z" />
<glyph unicode="&#x103b;" horiz-adv-x="270" d="M-295 0h223v-381l82 -39v1493h111l112 -110v-1565l-163 -98l-303 155l-62 99v446z" />
<glyph unicode="&#x103c;" horiz-adv-x="339" d="M61 -580v2204l111 111h743l113 -111v-186h-223v73h-520v-1980h520v469h223v-580l-113 -112h-743z" />
<glyph unicode="&#x103d;" d="M-709 -537l228 537h207l219 -535l-105 -157h-446zM-438 -467h114l-55 135z" />
<glyph unicode="&#x103e;" d="M-473 -475h65v475h220v-584l-109 -110h-176v219z" />
<glyph unicode="&#x103f;" horiz-adv-x="1585" d="M61 111v112h414v625h-414v113l111 110h414l112 -110v-738h189v848h110l113 -110v-738h190v848h113l111 -110v-850l-111 -111h-369l-22 23l-25 -23h-391l-20 23l-23 -23h-391z" />
<glyph unicode="&#x1040;" horiz-adv-x="753" d="M59 111v850l111 110h190v-223h-77v-625h77v-223h-190zM422 0v223h49v625h-49v223h160l114 -110v-850l-114 -111h-160z" />
<glyph unicode="&#x1041;" horiz-adv-x="757" d="M61 111v114h414v625h-414v115l111 110h414l114 -110v-854l-114 -111h-414z" />
<glyph unicode="&#x1042;" horiz-adv-x="761" d="M59 -403h224v-68h190v1436l109 108h114v-1655l-112 -112h-414l-111 112v179z" />
<glyph unicode="&#x1043;" horiz-adv-x="757" d="M61 111v112h412v625h-412v113l111 110h412l114 -110v-850l-114 -111h-197l315 -584l-196 -108z" />
<glyph unicode="&#x1044;" horiz-adv-x="757" d="M61 -584l316 584h-197l-114 111v850l114 110h412l110 -110v-113h-411v-625h411v-112l-444 -803z" />
<glyph unicode="&#x1045;" horiz-adv-x="747" d="M59 223v738l111 110h412l114 -110v-1541l-114 -112h-412l-111 112v181h224v-70h188v1317h-188v-193h94l53 -53v-434l-53 -57h-207zM283 223h36v322h-36v-322z" />
<glyph unicode="&#x1046;" horiz-adv-x="751" d="M59 111v1513l111 111h412l112 -111v-182h-223v69h-188v-1288h188v207l-149 150v323l57 55h258l57 -57v-143h-178v-53l178 -181v-413l-112 -111h-412z" />
<glyph unicode="&#x1047;" horiz-adv-x="757" d="M59 223v740l111 110h414l112 -110v-963l-135 -471h86v-223h-219l-113 112l158 559v873h-190v-739h-113z" />
<glyph unicode="&#x1048;" horiz-adv-x="753" d="M59 111v850l111 110h412l114 -110v-850l-114 -111h-111v848h-188v-303h94l53 -56v-432l-53 -57h-207zM283 111h36v321h-36v-321z" />
<glyph unicode="&#x1049;" horiz-adv-x="751" d="M59 -582v1543l111 110h414l112 -110v-414l-178 -182v-54h178v-143l-57 -57h-260l-55 55v323l149 152v209h-190v-1321h190v70h223v-181l-112 -112h-414z" />
<glyph unicode="&#x104a;" horiz-adv-x="358" d="M59 0v862h228v-862h-228z" />
<glyph unicode="&#x104b;" horiz-adv-x="612" d="M59 0v862h228v-862h-228zM319 0v862h228v-862h-228z" />
<glyph unicode="&#x104c;" horiz-adv-x="759" d="M61 113l111 112h303v625h-414v113l111 110h303v23h-301l-111 112v418l111 111h414l110 -109v-115h-413v-194h303l110 -111v-184h-63l63 -61v-850l-112 -111h-301v-31h301l112 -110v-441l-112 -112h-414l-111 112v166h224v-55h190v217h-303l-111 113v252z" />
<glyph unicode="&#x104d;" horiz-adv-x="1030" d="M63 111v847l111 111h412l112 -111v-1269h-112l-111 110v1047h-188v-301h94l53 -58v-432l-53 -55h-207zM63 -322l111 113h272l111 -113v-110h-270v-37h444v1561h-299l-113 112v418l113 111h412l110 -109v-115h-411v-194h301l110 -111v-1784l-110 -112h-670l-111 112v258z M287 111h37v321h-37v-321z" />
<glyph unicode="&#x104e;" horiz-adv-x="759" d="M63 119v846l111 110h410l112 -110v-113h-409v-621h409v-911h-112l-111 113v575h-299z" />
<glyph unicode="&#x104f;" horiz-adv-x="1308" d="M66 111v850l110 110h414l37 -37l37 37h200l113 -110v-961h-223v848h-52v-111l-57 -57h-246l-55 57v111h-55v-625h55v109l55 53h246l57 -53v-221l-112 -111h-414zM457 223h133v51h-133v-51zM457 795h133v53h-133v-53zM610 1206v418l115 111h412l110 -109v-115h-411v-194 h301l110 -111v-1206h-221v1094h-301z" />
<glyph unicode="&#x1050;" horiz-adv-x="907" d="M88 266v463q0 66 35 122t90 97t126 63.5t140 20.5q63 -4 128 -29.5t114 -67.5t79.5 -94.5t30.5 -111.5v-479q0 -41 -15 -83t-44 -78t-67.5 -63.5t-86.5 -48.5l-51 125q51 23 85 65t34 83v479q0 27 -16.5 55.5t-45 52t-68.5 40t-85 20.5q-49 2 -91 -12.5t-77 -40 t-54.5 -56t-19.5 -59.5v-463q0 -43 36 -88t85 -72q-20 -51 -32.5 -80.5t-18.5 -43.5q-47 20 -86 50.5t-66.5 67.5t-43 80t-15.5 86zM293 487q0 -37 13 -67.5t36 -52t52.5 -35t64.5 -13.5t64.5 13.5t52 35t36 52.5t13.5 67q0 45 -23 86q-23 37 -59.5 58.5t-83.5 21.5 q-45 0 -82 -21.5t-62 -58.5q-23 -41 -22 -86zM387 487q0 31 21.5 49.5t50.5 18.5t49 -18.5t20 -49.5q0 -29 -20 -49t-49 -20t-50.5 20.5t-21.5 48.5z" />
<glyph unicode="&#x1051;" horiz-adv-x="907" d="M88 283v462q0 45 15.5 87t43 79t66.5 68t86 53q6 -14 18.5 -45t32.5 -82q-49 -27 -85 -70.5t-36 -89.5v-462q0 -29 19.5 -59.5t54.5 -55.5t77 -39t91 -14q45 4 85 20.5t68.5 40t45 53t16.5 54.5v481q0 41 -34 82t-85 65l51 123q47 -20 86 -48t68 -63.5t44 -76.5t15 -82 v-481q0 -59 -30.5 -111.5t-79.5 -94.5t-113.5 -66.5t-128.5 -28.5q-70 -4 -140.5 19.5t-125.5 63t-90 96t-35 122.5zM293 524q0 -45 22 -86q25 -35 62 -57.5t82 -22.5q47 0 83.5 22.5t59.5 57.5q23 41 23 86q0 37 -13.5 68t-36 53.5t-52 34.5t-64.5 12t-64.5 -12 t-52.5 -34.5t-36 -53.5t-13 -68zM387 524q0 31 21.5 50.5t50.5 19.5t49 -19.5t20 -50.5t-20.5 -49t-48.5 -18q-29 0 -50.5 18.5t-21.5 48.5z" />
<glyph unicode="&#x1052;" horiz-adv-x="919" d="M94 307v4v455q0 43 16.5 84t45 76t68.5 63.5t83 46.5l51 -125q-55 -27 -86.5 -66.5t-31.5 -78.5v-475q0 -29 17 -60.5t49 -54t72 -39t85 -16.5t87 17.5t73.5 45t49 60t17.5 63.5v262q0 31 -21.5 64t-54.5 57q-39 33 -69.5 71t-30.5 95q0 61 33 102t82 60.5t105.5 20.5 t105.5 -17l-39 -123q-33 16 -59.5 16t-47 -9t-31 -23.5t-10.5 -26.5q0 -23 18.5 -37t39.5 -28q63 -45 95 -100.5t32 -121.5v-262q0 -61 -32 -119.5t-83 -102.5t-119.5 -70.5t-142.5 -26.5q-51 0 -114.5 19.5t-120 61.5t-94.5 101t-38 137z" />
<glyph unicode="&#x1053;" horiz-adv-x="919" d="M92 1016q47 18 104.5 17t106.5 -21.5t82 -60.5t33 -105q0 -55 -30 -93t-69 -67q-35 -29 -58 -60.5t-23 -64.5v-260q0 -33 18 -65.5t50 -59t72 -44t83 -17.5h10q45 0 86 17.5t71.5 44t48 59t17.5 65.5v260q0 33 -22.5 64.5t-57.5 60.5q-37 29 -68.5 67t-31.5 93 q0 66 33 105.5t82 60t106.5 21.5t106.5 -17l-41 -123q-31 14 -57.5 14t-47 -8t-32 -23.5t-11.5 -29.5q0 -18 18.5 -32.5t41.5 -31.5q61 -43 93 -98t32 -123v-260q0 -59 -28 -115.5t-76 -99.5t-111.5 -71.5t-133.5 -32.5h-45q-68 4 -132 32.5t-111 71.5t-77 99.5t-30 115.5 v260q0 68 33 123t92 98q23 16 41.5 30.5t18.5 33.5q0 14 -10.5 29.5t-31 23.5t-48 8t-56.5 -14z" />
<glyph unicode="&#x1054;" horiz-adv-x="901" d="M94 287v448q0 59 31 111.5t80 94.5t111.5 66.5t127.5 30.5q70 2 139.5 -19.5t125 -62.5t91.5 -96t36 -119q-16 -33 -41 -60t-70 -50q-63 -33 -131 -37t-133.5 13.5t-122.5 54t-96 90.5q-2 -6 -2 -17v-448q0 -31 17 -61.5t48 -54.5t71 -39t85 -15q102 0 165.5 43t84.5 106 l127 -71q-51 -113 -150.5 -162t-226.5 -49q-74 0 -140.5 25.5t-116.5 67.5t-80 97t-30 113zM305 846q29 -49 78 -85t104.5 -53.5t112 -9.5t107.5 43q-12 33 -37 64t-58.5 53.5t-74.5 33.5t-84 9q-41 -2 -79 -16.5t-69 -38.5z" />
<glyph unicode="&#x1055;" horiz-adv-x="901" d="M90 735q0 61 31 113.5t80 93.5t112.5 65.5t126.5 30.5q68 2 138.5 -19.5t126 -62.5t90 -96t36.5 -117q-14 -35 -39.5 -61.5t-72.5 -50.5q-61 -31 -128 -35t-133.5 12.5t-124 53t-97.5 90.5v-17l-3 -512q0 -41 21.5 -68.5t52.5 -27.5q37 0 56.5 23.5t19.5 64.5v47h143v-45 q2 -39 23.5 -64.5t50.5 -25.5q35 0 56.5 24.5t21.5 65.5v45h141v-45q0 -53 -15.5 -94t-45 -73t-69.5 -48t-91 -16q-43 2 -78 16t-61 39q-31 -27 -68 -41t-86 -14q-51 2 -91 21.5t-67.5 52t-41 74.5t-13.5 89zM303 848q29 -51 76 -87t103.5 -52.5t113.5 -9.5t106 44 q-10 33 -34.5 64t-59.5 52.5t-77 33.5t-80 10q-43 -2 -81 -17.5t-67 -37.5z" />
<glyph unicode="&#x1056;" horiz-adv-x="919" d="M94 303v4v305h146v-323q0 -31 17 -62.5t49 -54t72 -38t85 -15.5t88 17.5t73.5 45t49 59t18.5 62.5v264q0 31 -22.5 63t-55.5 60q-39 29 -69.5 67t-30.5 95q0 63 33 104t82 60.5t105.5 20.5t105.5 -17l-39 -123q-33 14 -59.5 14t-47 -9t-31 -23.5t-10.5 -26.5 q0 -20 18.5 -35.5t39.5 -30.5q61 -41 94 -97t33 -122v-264q0 -61 -32 -118.5t-83 -101.5t-119.5 -71.5t-142.5 -27.5q-51 0 -114.5 21.5t-120 62.5t-94.5 100t-38 135z" />
<glyph unicode="&#x1057;" horiz-adv-x="913" d="M94 217v385h144v-385q0 -41 21.5 -65.5t57.5 -24.5q31 2 51.5 26.5t22.5 63.5v45h148v-49q0 -39 20.5 -62.5t56.5 -23.5q33 2 53.5 28.5t20.5 65.5v344q0 31 -23.5 62.5t-56.5 60.5q-39 29 -69.5 68t-30.5 94q0 63 34 104t82 61.5t105 20.5t107 -18l-39 -123 q-33 16 -60.5 16t-47 -9t-30 -24.5t-10.5 -27.5q0 -18 19.5 -33.5t38.5 -32.5q61 -41 94 -96t33 -123v-344q0 -45 -14.5 -87t-42 -74.5t-68.5 -54t-95 -21.5q-92 0 -153 55q-29 -25 -65 -39t-79 -16q-53 0 -93 16t-70.5 48t-46 74t-15.5 95z" />
<glyph unicode="&#x1058;" d="M-803 -301q0 59 23.5 109.5t63.5 88t94.5 59t113.5 21.5q78 0 141.5 -33.5t102.5 -90.5q2 -66 -55 -121h-3q-41 -16 -85 -17.5t-84.5 9t-76.5 33t-63 53.5q-47 -43 -47 -111q0 -33 12.5 -62.5t37 -50t55 -34t65.5 -13.5q45 0 82 18.5t59 51.5l101 -66q-39 -53 -102.5 -87 t-139.5 -34q-59 0 -113.5 21.5t-94.5 59.5t-63.5 88.5t-23.5 107.5zM-573 -152q37 -39 93 -57t115 -4v2q-25 35 -61.5 53.5t-81.5 18.5q-35 0 -65 -13z" />
<glyph unicode="&#x1059;" d="M-840 -295q0 57 24.5 107.5t64.5 88.5t94.5 60.5t113.5 22.5q76 0 140.5 -34t103.5 -89q6 -72 -55 -125v2q-43 -14 -87 -17.5t-86 8t-78 34t-63 53.5q-43 -41 -47 -99v-86q0 -35 9.5 -58.5t37.5 -25.5q31 0 36 21.5t5 58.5h123v-21t2 -22q4 -14 14.5 -25.5t34.5 -11.5 q29 0 37 25t8 59h121q0 -41 -9 -77.5t-28.5 -65.5t-51.5 -46t-77 -17q-68 0 -110 30q-39 -31 -107 -30q-45 0 -76.5 20t-51 51t-30 67t-10.5 68v50q-2 8 -2 13v11zM-610 -145q35 -41 92.5 -58.5t118.5 -1.5h-2q-23 33 -61 53.5t-81 20.5q-18 0 -35.5 -4t-31.5 -10z" />
<glyph unicode="&#x105a;" horiz-adv-x="884" d="M90 285v444q0 61 30 114.5t79 96.5t115.5 67.5t138.5 24.5q59 2 115.5 -16.5t103.5 -50t81.5 -71.5t53.5 -89l-125 -70q-8 29 -27.5 58.5t-49.5 53t-68.5 38t-81.5 14.5t-84 -14.5t-72 -39t-49.5 -54t-18.5 -62.5v-444q0 -27 17.5 -55.5t45.5 -52t66.5 -41t85.5 -19.5 q45 0 87 12t74 35.5t52.5 52.5t24.5 55l125 -73q-18 -47 -57 -88t-89.5 -71t-108.5 -44t-116 -12q-43 4 -87 15t-82 30.5t-70.5 47t-57 60.5t-38 70t-13.5 78zM231 -217q0 33 17.5 66.5t46.5 63.5t72 48.5t94 18.5q45 0 84 -17.5t69.5 -47.5t47 -64.5t16.5 -69.5v-43 q0 -35 -18.5 -57.5t-41 -44t-46 -43t-29.5 -50.5q-2 -6 -3 -10t1 -8q2 -12 11 -22.5t15 -16.5l-80 -59q-47 12 -60 49t-7 78q2 31 20.5 58.5t42 50t45 42t29.5 33.5v43q0 8 -7 20.5t-19.5 25.5t-30 21.5t-39.5 8.5q-29 0 -48.5 -9.5t-33.5 -22.5t-19.5 -25.5t-5.5 -16.5v-84 h-123v84z" />
<glyph unicode="&#x105b;" horiz-adv-x="1202" d="M94 289v446q0 59 30 111.5t79 93.5t111.5 64.5t125.5 29.5q47 2 92.5 -6t87.5 -26.5t77.5 -45t64.5 -59.5q31 12 59.5 12t57 -8t51 -25.5t43.5 -37.5l-70 -127q-4 23 -14 39t-22.5 23t-27 9t-28.5 0q-4 -33 -23 -86q-37 -43 -85 -60.5t-95 -14t-93 26t-83 56t-57.5 78.5 t-20.5 95q-27 -10 -48 -28t-37.5 -36t-26 -38.5t-9.5 -39.5v-446q0 -31 18.5 -61.5t49.5 -53t72 -39t86 -16.5q41 0 80 15.5t67.5 38t50 52t27.5 60.5l127 -72q-20 -47 -55 -89t-82 -71.5t-103.5 -47t-113.5 -17.5q-74 2 -139.5 26.5t-114.5 65.5t-79 95t-30 114zM483 850.5 q6 -23.5 22.5 -43t38 -32.5t46 -20t48.5 -4t44 15q-10 23 -28.5 46.5t-45 41.5t-57.5 29.5t-66 15.5q-8 -25 -2 -48.5zM627 12h139v-352l207 -72v1446h141v-1540q0 -14 -5 -26.5t-15.5 -21.5t-22.5 -16.5t-27 -7.5l-348 113q-6 4 -19 11.5t-24.5 19.5t-18.5 25.5t-7 27.5 v393z" />
<glyph unicode="&#x105c;" horiz-adv-x="919" d="M96 285v430q0 63 30 120.5t83 103.5t119.5 72.5t140.5 24.5t140.5 -26.5t116.5 -66.5t80 -96t30 -116v-446q0 -59 -30 -112.5t-79 -93.5t-111.5 -65.5t-128.5 -29.5q-72 -4 -141.5 19.5t-125.5 63t-90 96t-34 122.5zM240 285q0 -29 19.5 -60.5t52 -55.5t75.5 -38t92 -12 q45 0 83 17.5t66.5 41t46 53t17.5 54.5v34v412q0 33 -17.5 63.5t-48 54t-71.5 39t-86 15.5q-47 0 -88 -17.5t-73 -44t-50 -61t-18 -65.5v-430zM299 506q0 -45 23 -84t60.5 -60.5t82.5 -21.5t82.5 21.5t60.5 60.5q27 37 27 84q0 37 -13.5 66.5t-37 53t-53 36t-66.5 12.5 q-33 0 -63.5 -12.5t-53 -36t-36 -53t-13.5 -66.5zM395 506q0 31 19.5 51.5t52.5 20.5q29 0 49.5 -20.5t20.5 -51.5t-20.5 -49.5t-49.5 -18.5q-33 0 -52.5 18.5t-19.5 49.5z" />
<glyph unicode="&#x105d;" horiz-adv-x="884" d="M92 291v454q0 43 15.5 82t42 71t63.5 59.5t80 46.5l49 -119q-51 -27 -82 -65t-31 -75v-411q45 41 100.5 60.5t114 21.5t115 -15.5t105.5 -52.5v397q0 37 -33 76t-84 64l51 119q41 -18 78 -46t64.5 -61t44 -71t16.5 -81v-469q0 -66 -37 -124t-96 -99v-336v-225 q0 -29 -20.5 -49.5t-49.5 -20.5h-178h-262q-25 0 -45.5 20.5t-20.5 49.5v117q0 14 3 40.5t14.5 54.5t38 50.5t77.5 32.5q41 10 80 0t74 -27.5t61.5 -40t42.5 -38.5l-96 -97q-6 6 -19.5 17.5t-32 24t-35.5 21.5t-34.5 10t-27 -8t-11.5 -32v-57h187h121v147v289 q-23 -4 -43.5 -6t-40.5 -4q-70 0 -134.5 25.5t-114.5 67.5t-80 97t-30 115zM256 215q29 -41 80 -71.5t115 -28.5q66 2 119 31.5t77 72.5q-39 49 -91 72.5t-106.5 22.5t-105.5 -24.5t-88 -74.5z" />
<glyph unicode="&#x105e;" d="M-794.5 -283q8.5 47 47 82t112.5 35h174v133h125v-133h100v-129h-100v-86q0 -104 -35.5 -151.5t-117.5 -47.5q-12 0 -22.5 2.5t-16.5 6.5q-10 6 -17 8l-166 112q-49 27 -70.5 74t-13 94zM-669 -311.5q-5 -16.5 16 -26.5l159 -98q23 -14 29 -2t4 26v117h-174 q-29 0 -34 -16.5z" />
<glyph unicode="&#x105f;" d="M-782 -381q0 37 14 66.5t36.5 53t53.5 36t66 12.5h49v184h129v-311h-178q-16 0 -28.5 -11t-12.5 -30v-27q0 -16 12 -29.5t29 -13.5h225q14 0 27.5 13.5t13.5 29.5v21l127 -41q-6 -31 -20.5 -58.5t-36 -47t-50 -32t-61.5 -12.5h-225q-35 0 -66 14.5t-53.5 37t-36.5 53.5 t-14 65v27z" />
<glyph unicode="&#x1060;" d="M-809 -458q-8 48 13.5 97.5t70.5 73.5l418 269l71 -111l-426 -272q-23 -14 -17.5 -29.5t34.5 -15.5h409v-132h-409q-74 0 -115 36t-49 84z" />
<glyph unicode="&#x1061;" horiz-adv-x="890" d="M90 289v448q0 59 28.5 110.5t76 91.5t112 62.5t131.5 26.5q68 0 132.5 -23.5t111.5 -65.5t79 -95t36 -113v-1175h88v-134h-158q-25 0 -46.5 19.5t-21.5 46.5v1237q0 31 -17 61.5t-48 56t-70 41t-84 15.5t-83 -13.5t-67.5 -37t-46 -52t-16.5 -59.5v-311q68 -14 120 -53 t86 -93.5t44 -119t-10 -131.5l-2 -537q0 -27 -20.5 -48.5t-49.5 -21.5h-217v136h152l2 460q-49 14 -93 40t-77 62t-52.5 79t-19.5 90zM227 289q0 -23 11.5 -46.5t33 -44t51 -37t64.5 -26.5q-6 70 -49 122t-111 73v-41z" />
<glyph unicode="&#x1062;" horiz-adv-x="526" d="M23 897v141h333q27 0 48.5 -21.5t21.5 -49.5v-979h-141v909h-262z" />
<glyph unicode="&#x1063;" horiz-adv-x="849" d="M88 197l123 69q4 -25 24.5 -52.5t51 -50t71.5 -35.5t84 -11q45 2 82 18.5t64.5 40t44 50t16.5 53.5v464q0 31 -17.5 59.5t-47 52.5t-69.5 39t-83 15q-41 0 -78 -15t-66.5 -36.5t-49 -51.5t-27.5 -58l-121 69q18 45 52 86t80 69.5t100.5 46t111.5 17.5q72 -2 136.5 -26.5 t111.5 -63.5t75.5 -92t28.5 -111v-464q0 -57 -28.5 -108.5t-75.5 -90.5t-108.5 -63.5t-122.5 -26.5q-47 -2 -94.5 7t-88.5 28v-615h-135v717q-14 14 -24.5 31.5t-20.5 38.5z" />
<glyph unicode="&#x1064;" horiz-adv-x="802" d="M94 877v143h488q31 0 51 -21.5t20 -50.5v-78v-16t-8 -18l-293 -695h377v-141h-461q-27 0 -48 21.5t-21 50.5v69q0 12 5 22.5t5 12.5l297 701h-412z" />
<glyph unicode="&#x1065;" horiz-adv-x="878" d="M84 197l123 71q4 -27 23.5 -53.5t52 -50t72.5 -36.5t85 -9q45 0 82 17.5t64.5 40t44 50t16.5 54.5v458q0 29 -17.5 58.5t-47 53t-69.5 39t-83 17.5q-41 0 -78 -15t-67.5 -38t-51 -52.5t-24.5 -56.5l-125 68q18 45 54 86t82 71.5t99.5 48t110.5 15.5q74 0 138.5 -24.5 t112.5 -64.5t76.5 -94t28.5 -112v-458q0 -39 -12 -75t-35.5 -69t-56.5 -59.5t-70 -46t-80 -30.5t-83 -13q-57 -2 -116 12t-107 42t-86 69t-56 86z" />
<glyph unicode="&#x1066;" horiz-adv-x="878" d="M90 270v502q0 43 14.5 82t42 75t64.5 64.5t78 48.5q6 -12 18 -41.5t33 -74.5q-51 -27 -82 -70t-31 -84v-502q0 -25 18.5 -54.5t49.5 -54t73 -38.5t87 -10q43 2 80.5 17t64.5 39t42 50.5t15 50.5v516q0 43 -30.5 81t-81.5 61l51 119q88 -39 143.5 -108t55.5 -153v-516 q0 -70 -41 -129t-105 -96v-553q0 -29 -20.5 -49.5t-48.5 -20.5h-244v138h176v432q-10 -2 -23.5 -3t-27.5 -3q-66 -4 -131.5 18.5t-119.5 60t-87 91t-33 114.5z" />
<glyph unicode="&#x1067;" horiz-adv-x="542" d="M92 160q0 39 13.5 71.5t38 56t56 38t68.5 14.5q21 0 41 -4v698h142v-862v-12v-6v-2v-5q-4 -33 -19.5 -63.5t-40 -53t-55.5 -34.5t-68 -12t-68.5 13t-56 38.5t-38 57.5t-13.5 67zM211 160q0 -23 17.5 -38.5t39.5 -15.5q27 0 42.5 15.5t15.5 38.5q0 27 -15.5 42t-42.5 15 q-23 0 -40 -15.5t-17 -41.5z" />
<glyph unicode="&#x1068;" horiz-adv-x="647" d="M100 0v141h295v897h142v-966q0 -29 -20.5 -50.5t-49.5 -21.5h-367zM287 1309q0 35 13 65.5t35.5 52t53.5 34t68 12.5q33 0 62.5 -12.5t52 -34t36 -52.5t13.5 -65q0 -35 -13.5 -65t-36 -52.5t-52.5 -35.5t-62 -13q-37 0 -68 13t-53.5 35.5t-35.5 52.5t-13 65zM401 1309 q0 -25 15.5 -37t40.5 -12q18 0 33.5 12t15.5 37q0 20 -15.5 35.5t-33.5 15.5q-25 0 -40.5 -15.5t-15.5 -35.5z" />
<glyph unicode="&#x1069;" horiz-adv-x="647" d="M63 872q4 35 20.5 65t42.5 53.5t57.5 35.5t68.5 12h110q37 0 72 -15t60.5 -41t40 -60.5t14.5 -73.5v-217q0 -41 -14.5 -75t-40 -59.5t-60.5 -40t-72 -14.5h-77q-18 0 -32.5 -14t-14.5 -33v-219q0 -18 14 -30.5t33 -12.5h106q23 0 35 12.5t12 30.5v21l142 -41 q-4 -37 -20.5 -66t-41 -53.5t-57.5 -35.5t-70 -11h-106q-41 0 -75 14t-59.5 40t-40 60.5t-14.5 71.5v219q0 39 14.5 73t40 59.5t59.5 40t75 14.5h77q16 0 30 15t14 34v217q0 20 -13.5 32.5t-30.5 12.5h-110q-20 0 -33.5 -12.5t-13.5 -32.5v-19z" />
<glyph unicode="&#x106a;" horiz-adv-x="808" d="M94 156l142 41v-21q0 -20 13 -31.5t34 -11.5h217q18 0 29.5 11.5t11.5 31.5v864h145l2 -864q0 -39 -15.5 -72.5t-41 -59.5t-59 -40t-72.5 -14h-217q-35 0 -68 12t-58.5 34.5t-41 52.5t-21.5 67z" />
<glyph unicode="&#x106b;" horiz-adv-x="802" d="M88 874q6 35 21.5 65t41 52.5t58.5 34.5t67 12h218q39 0 72.5 -14t60 -40t41 -59.5t14.5 -74.5l-2 -862h-145v862q0 20 -11.5 32.5t-29.5 12.5h-218q-20 0 -33.5 -12.5t-13.5 -32.5v-21z" />
<glyph unicode="&#x106c;" horiz-adv-x="774" d="M92 174l2 856h146v-856q0 -18 12 -30.5t31 -12.5h217q20 0 31.5 12.5t11.5 30.5v21l143 -41q-4 -37 -20.5 -67t-42 -52.5t-57 -34.5t-66.5 -12h-217q-39 0 -74 14t-61.5 40t-41 60.5t-14.5 71.5z" />
<glyph unicode="&#x106d;" horiz-adv-x="675" d="M63 156l142 41v-21q0 -18 12 -30.5t33 -12.5h108q18 0 31.5 12.5t13.5 30.5v219q0 18 -13 32.5t-32 14.5h-77q-39 0 -73 14.5t-60.5 40t-41 59.5t-14.5 75v217q0 39 14.5 73.5t41 60.5t60.5 41t73 15h108q37 0 70 -12t58.5 -35.5t41.5 -53.5t21 -65l-144 -43v19 q0 20 -12 32.5t-35 12.5h-108q-16 0 -30.5 -12.5t-14.5 -32.5v-217q0 -18 14 -33.5t31 -15.5h77q39 0 74 -14.5t60.5 -40t40 -59.5t14.5 -73v-219q0 -37 -14.5 -71.5t-40 -60.5t-60.5 -40t-74 -14h-108q-37 0 -68.5 11t-56.5 35.5t-41 53.5t-21 66z" />
<glyph unicode="&#x106e;" horiz-adv-x="1785" d="M90 264v451q0 59 31 117.5t83 103.5t119.5 71.5t139.5 26.5q78 -2 143.5 -28.5t120.5 -71.5q25 43 74 70.5t104 27.5t105.5 -28.5t76.5 -71.5q51 47 120 74.5t143 27.5q74 -2 140 -26.5t115.5 -67.5t79 -97.5t29.5 -113.5v-446q0 -59 -30.5 -112.5t-79 -93.5 t-110.5 -65.5t-126 -29.5h-37q-4 18 -9 51t-11 86q27 -4 47 -2q47 0 86 17.5t66.5 41t45 52t17.5 55.5v446q0 33 -18.5 61.5t-48 54t-70.5 40t-86 14.5q-43 0 -83 -14.5t-70 -39t-50.5 -53t-24.5 -61.5v-16.5t-1 -38t-1 -159.5v-167v-162q0 -35 -11 -65.5t-30.5 -58t-47 -48 t-60.5 -32.5q-4 16 -17.5 49t-33.5 86q20 4 38.5 21.5t18.5 47.5v629q0 18 -8 31.5t-18.5 23t-24 14.5t-21.5 5q-12 0 -24.5 -6t-24.5 -16.5t-20.5 -25t-8.5 -32.5v-547q0 -49 -20.5 -93t-54 -82t-80.5 -65.5t-99 -41.5l-49 122q37 12 65.5 30t50.5 38.5t34 45t12 46.5v465 q0 33 -17.5 61.5t-49 54t-72.5 40t-86 14.5t-86 -17.5t-74 -45t-51.5 -59.5t-18.5 -62v-451q0 -23 12.5 -47t34 -43.5t49 -38t60.5 -29.5l-53 -120q-49 16 -95 43.5t-78 63.5t-51.5 80t-19.5 91z" />
<glyph unicode="&#x106f;" horiz-adv-x="1497" d="M94 291v461q0 43 15.5 85t45 78.5t67.5 65.5t81 49l51 -121q-29 -14 -49 -33.5t-35.5 -41t-24.5 -44t-9 -38.5v-461q0 -29 17 -59.5t48 -54t72 -39t84 -15.5q45 0 85 17.5t71.5 44t51 59t19.5 63.5v445q0 18 -9 40.5t-24.5 43t-37 39t-48.5 34.5l51 119q41 -18 77 -50 t65 -65q51 61 130 92t165 29q72 -2 137 -26.5t114.5 -66.5t79 -96t29.5 -114v-442q0 -4 -1 -11.5t-3 -13.5v-770q0 -27 -19.5 -48t-46.5 -21h-421v139h350v499q-90 -63 -205 -71q-16 -2 -35 0q-2 16 -6 51t-14 84q12 -4 23.5 -4h23.5q45 2 85 18.5t67.5 42t43 53t15.5 52.5 v442q0 33 -17.5 62.5t-47 53t-69.5 38t-85 14.5q-47 2 -88 -11.5t-72 -38t-49.5 -55t-18.5 -63.5v-424q0 -59 -29.5 -117.5t-83 -102.5t-120 -69.5t-137.5 -25.5q-72 0 -137.5 25.5t-114.5 66.5t-78 94t-29 113z" />
<glyph unicode="&#x1070;" horiz-adv-x="1503" d="M88 1014q49 16 104.5 16t104.5 -20.5t82 -60.5t33 -103q0 -55 -31 -92t-68 -68q-35 -25 -58.5 -57.5t-23.5 -63.5v-262q0 -31 19.5 -62.5t51.5 -59t72 -45t87 -17.5q45 0 86 14t71.5 38t48 54.5t17.5 61.5v475q0 37 -34 77t-87 64l53 123q43 -18 81 -46t67 -62.5 t45 -73.5t16 -82v-455v-4q0 -31 18.5 -62.5t49.5 -59t72 -45t88 -17.5q43 0 83 14t70.5 37t48 51.5t17.5 61.5v14v436q0 29 -15.5 56.5t-43 51t-66.5 40t-86 20.5q-10 0 -22.5 -1t-22.5 -3l18 137h37q63 -4 127 -28.5t112 -66.5t77.5 -94t29.5 -112v-446v-15.5v-19.5v-756 q0 -29 -22.5 -50t-48.5 -21h-424v141h350v487q-92 -63 -217 -65q-88 -2 -166 34.5t-129 98.5q-51 -59 -129 -95t-168 -38q-76 -2 -142.5 24.5t-116.5 70.5t-82 101.5t-32 118.5v262q0 68 33 123t90 94q20 16 39.5 30.5t19.5 33.5q0 12 -11 28.5t-30.5 25.5t-45 9t-56.5 -18z " />
<glyph unicode="&#x1071;" horiz-adv-x="878" d="M96 1262q0 31 11.5 57.5t30 45.5t46 31.5t58.5 12.5q29 0 55.5 -12.5t47 -31.5t30.5 -46t10 -57q0 -31 -10 -57.5t-30.5 -47t-47.5 -32t-55 -11.5q-31 0 -58.5 11.5t-46 32t-30 47t-11.5 57.5zM207 1262q0 -14 10 -22.5t25 -8.5q12 0 22 8t10 23q0 16 -10 24t-22 8 q-14 0 -24.5 -8t-10.5 -24zM506 1262q0 31 11 57.5t31.5 45.5t46 31.5t58.5 12.5q29 0 55.5 -12.5t47 -31.5t32 -46t11.5 -57q0 -31 -11.5 -57.5t-32 -47t-47 -32t-55.5 -11.5q-33 0 -58.5 11.5t-46 32t-31.5 47t-11 57.5zM616 1262q0 -14 11.5 -22.5t25.5 -8.5t23.5 8 t9.5 23q0 16 -9.5 24t-23.5 8t-25.5 -8t-11.5 -24z" />
<glyph unicode="&#x1072;" d="M-778 1303q0 55 22.5 106t61.5 89t91 59.5t114 21.5q39 0 78.5 -11.5t72.5 -31.5t59.5 -48t45.5 -63l-115 -55q-10 16 -24.5 33.5t-33 29t-41 17.5t-45.5 6q-35 0 -62.5 -12t-49 -32.5t-34.5 -48.5t-13 -60q0 -31 13 -58.5t34.5 -50.5t49.5 -33t62 -10q41 0 77 19.5 t59 52.5l114 -56q-18 -31 -44.5 -57.5t-59.5 -44.5t-69.5 -27.5t-73.5 -9.5q-61 0 -113.5 21.5t-91.5 58.5t-61.5 88t-22.5 107z" />
<glyph unicode="&#x1073;" d="M-842 1212l234 228q27 25 47 40t38.5 16t39 -11t47.5 -35l233 -244l-88 -88l-231 232l-232 -228z" />
<glyph unicode="&#x1074;" d="M-842 1434l88 90l232 -226l231 230l88 -88l-233 -244q-27 -25 -47.5 -35t-39 -9t-39 15.5t-46.5 38.5z" />
<glyph unicode="&#x1075;" horiz-adv-x="919" d="M88 -2l39 121q31 -16 58.5 -16.5t48 9t30.5 26t10 26.5q0 20 -18 35.5t-39 29.5q-61 43 -93 98.5t-32 121.5v264q0 61 31 119.5t83 102.5t119.5 70.5t141.5 26.5q53 0 116.5 -21.5t119 -61.5t93.5 -100.5t38 -135.5v-4v-457q0 -41 -16.5 -83t-46.5 -76t-68.5 -62.5 t-81.5 -46.5l-52 122q53 27 87 68t34 78v475q0 33 -18.5 62.5t-49 54t-72.5 39t-85 14.5q-47 0 -88 -16.5t-74 -45t-51.5 -60.5t-18.5 -62v-264q0 -29 25 -62t57 -59q39 -29 69 -68t30 -96q0 -63 -33 -103.5t-82 -60.5t-105.5 -20t-105.5 18z" />
<glyph unicode="&#x1076;" horiz-adv-x="907" d="M89 903q-5 51 1 101l148 30q-20 -51 -21.5 -87t6.5 -57.5t22.5 -30.5t28.5 -9q20 0 31.5 16.5t16.5 42.5q6 39 19 63.5t30.5 37t43 18.5t56.5 6q25 -2 49 -6q18 -4 40 -7t38 -11q53 -18 94 -48t72 -67t48 -78t17 -88v-446q0 -59 -30.5 -111.5t-78.5 -94.5t-112.5 -66.5 t-128.5 -28.5q-70 -4 -138.5 18.5t-123.5 62t-91 95t-36 118.5q14 33 40 59.5t71 51.5q61 31 128.5 36t133 -13.5t124 -55.5t97.5 -88q2 4 2 17v446q0 27 -5 51.5t-16.5 46t-34 39t-55.5 25.5q-20 4 -42.5 10t-41 8t-30.5 -4t-17 -20q-6 -12 -10 -26.5t-14 -37.5 q-16 -45 -52 -77.5t-94 -32.5q-63 0 -101 26.5t-58.5 70.5t-25.5 95zM219 274q10 -33 35 -62.5t58.5 -52t75.5 -34.5t83 -10q43 4 81 18t64 37q-27 53 -74.5 89t-103 50.5t-114 7t-105.5 -42.5z" />
<glyph unicode="&#x1077;" horiz-adv-x="901" d="M80 -2l41 121q33 -16 58.5 -16.5t46 9t30.5 26t10 26.5q0 20 -18.5 35.5t-38.5 29.5q-61 43 -94 98.5t-33 121.5v264q0 61 27.5 119.5t75.5 102.5t119 70.5t155 26.5q63 0 127.5 -21.5t117 -61.5t86 -100.5t33.5 -135.5v-4v-457q0 -41 -15 -83t-45 -76t-69 -62.5 t-82 -46.5l-129 -4q-20 66 -14 130t32.5 118.5t73 95.5t107.5 63v340q0 33 -16.5 62.5t-47 54t-71.5 39t-92 14.5t-93.5 -17.5t-73 -45t-46 -59.5t-15.5 -62v-264q0 -31 22.5 -63t57.5 -58q39 -29 69 -68t30 -96q0 -63 -33 -104.5t-81 -60.5t-105.5 -19t-106.5 18zM565 109 q51 27 84 66.5t33 76.5v31q-47 -29 -78 -74t-39 -100z" />
<glyph unicode="&#x1078;" horiz-adv-x="1497" d="M92 287v446q0 59 30 113.5t79 96.5t115.5 66.5t140.5 26.5q43 0 84 -9t79.5 -26.5t72.5 -44t59 -55.5q27 29 59.5 54.5t70.5 43t80 26.5t89 11q47 0 93 -12t88 -34.5t76.5 -51.5t60.5 -64.5t40 -74.5t14 -82v-430q0 -41 -16 -81t-44 -74t-64.5 -62.5t-80.5 -47 t-91.5 -27.5t-92.5 -5q-43 0 -85 12t-82 31.5t-72.5 47.5t-56 60.5t-37 69.5t-13.5 76v430q0 31 -19.5 64.5t-51 61t-72.5 45t-88 15.5q-43 0 -84 -14.5t-73 -39t-49.5 -55t-17.5 -61.5v-446q0 -25 16.5 -53.5t45.5 -53t68.5 -42t87.5 -17.5q23 -2 45 0q-8 -49 -12.5 -83 t-6.5 -48h-37q-66 0 -129 25.5t-110 65.5t-78 94t-31 112zM829 287q0 -25 15.5 -53.5t45.5 -53t68.5 -42t81.5 -17.5q51 -2 93.5 13.5t76 39t52 55t18.5 58.5v430q0 31 -18.5 64.5t-49 61t-72.5 44t-87 16.5q-47 -2 -87 -16.5t-71 -38t-48.5 -54t-17.5 -61.5v-446z" />
<glyph unicode="&#x1079;" horiz-adv-x="1503" d="M92 287v446q0 61 30 115.5t79 95.5t115.5 67.5t140.5 26.5q88 2 166.5 -35.5t132.5 -99.5q49 59 128 97t169 38q72 0 140.5 -26.5t120.5 -71.5t82.5 -102.5t30.5 -118.5v-432q0 -63 -34.5 -119.5t-90 -98.5t-125 -63.5t-139.5 -17.5q-68 2 -130 26.5t-111 65.5t-79 95 t-30 112v428v4q0 29 -18.5 62.5t-50 61t-72.5 45t-88 15.5q-45 0 -86 -14.5t-73 -38t-49.5 -54t-17.5 -63.5v-364q74 0 136.5 -31t108.5 -81t67.5 -118.5t15.5 -144.5l-84 -6h-37q-63 2 -126.5 26.5t-111.5 65.5t-79 95t-31 112zM236 272q4 -25 21 -51t47 -46.5t66 -38 t79 -17.5h2q-25 68 -82 109.5t-133 43.5zM834 287q0 -27 16 -55.5t45 -52t67.5 -42t81.5 -18.5q51 -2 93.5 13t75 40t52 55.5t19.5 59.5v432q0 29 -18.5 62.5t-49 61t-72.5 45t-87 15.5q-47 0 -87 -14.5t-71 -38t-48 -54t-17 -63.5v-446z" />
<glyph unicode="&#x107a;" horiz-adv-x="1503" d="M92 285v444q0 61 30 114.5t79 95.5t114.5 66.5t137.5 26.5q74 0 140 -26.5t118.5 -70.5t83 -102.5t30.5 -117.5v-420q2 -29 21.5 -61.5t50.5 -58t71 -42t85 -14.5q45 0 86 14t70.5 38t48 54.5t18.5 61.5v446q0 27 -16.5 54.5t-45 51t-68.5 40t-83 18.5h-24.5t-24.5 -2 q8 53 13 86t7 49q19 2 37 0q63 -4 127 -28.5t112 -64.5t78.5 -92t30.5 -112v-446q0 -59 -30.5 -113.5t-79.5 -95.5t-115 -65.5t-137 -24.5q-66 -2 -125.5 18.5t-110.5 56.5v-497h158v-139h-227q-27 0 -48.5 21.5t-21.5 49.5l4 1217q0 31 -18.5 62.5t-51 59t-73.5 44 t-86 16.5q-43 0 -84 -13.5t-73 -38t-49.5 -54t-17.5 -62.5v-444q0 -25 16.5 -52.5t45.5 -52t68.5 -42t85.5 -19.5q10 -2 22 -1t25 1q-8 -49 -12.5 -83t-8.5 -48q-20 -4 -35 0q-63 2 -126.5 26.5t-111.5 65.5t-79 94t-31 111z" />
<glyph unicode="&#x107b;" horiz-adv-x="1515" d="M92 285v430q0 61 31 119.5t83 103.5t119.5 71.5t141.5 26.5q90 -2 169 -38.5t128 -98.5q53 61 131 100t166 37q74 -2 140.5 -27.5t117.5 -67.5t79.5 -96t28.5 -116v-444q0 -59 -29.5 -112.5t-78.5 -94.5t-111.5 -66.5t-130.5 -27.5h-37l-79 6q-10 76 12 144.5t67 118.5 t107.5 81t136.5 31v364q0 35 -17.5 64.5t-48 54t-70.5 38t-89 13.5q-43 2 -85 -15.5t-73 -45t-49 -60.5t-18 -63v-4v-426q0 -59 -31 -112.5t-81 -94.5t-112.5 -66.5t-128.5 -27.5q-68 -4 -139.5 18.5t-126.5 63t-89 97t-34 122.5zM233 285q0 -31 19.5 -61.5t53.5 -55.5 t76 -40t91 -11q45 0 84 17.5t67.5 41t46 52t17.5 57.5v444q0 35 -17.5 64.5t-49 54t-72.5 38t-86 13.5q-45 2 -86 -15.5t-74 -45t-51.5 -60t-18.5 -63.5v-430zM1067 117h4q43 0 80 16.5t64.5 38t46 46.5t20.5 50q-76 -2 -132 -44t-83 -107z" />
<glyph unicode="&#x107c;" horiz-adv-x="1515" d="M90 834q49 113 149.5 161.5t227.5 48.5q90 0 166 -36.5t129 -92.5q51 55 128 92t165 37q127 0 227 -49t150 -161l-127 -72q-20 63 -84 106t-162 43q-47 0 -88 -15t-72 -38.5t-48 -54.5t-17 -62v-448q0 -10 2 -17q39 51 96 88t122.5 55.5t134 14.5t128.5 -37 q47 -23 71.5 -49t38.5 -61q0 -61 -35.5 -116.5t-91 -96.5t-124 -62.5t-138.5 -19.5q-80 6 -153.5 40t-122.5 89q-51 -55 -125 -89t-152 -40q-72 -2 -140.5 19.5t-124.5 62.5t-91 96t-37 117q14 35 39 61t74 49q59 33 127.5 37t134 -14.5t123 -55t98.5 -88.5q2 6 2 17v448 q0 31 -18.5 62t-49 54.5t-71.5 38.5t-86 15q-100 0 -163.5 -43t-84.5 -106zM221 285q8 -33 35 -62.5t60.5 -52.5t74.5 -36t82 -9q45 4 83 17.5t65 39.5q-29 49 -76 86t-104.5 53.5t-115 8.5t-104.5 -45zM901 182q29 -27 66 -40t80 -17q41 -4 81.5 9t76.5 36t60.5 52.5 t34.5 62.5q-49 37 -106 45t-113.5 -8.5t-103.5 -53.5t-76 -86z" />
<glyph unicode="&#x107d;" horiz-adv-x="1509" d="M90 1022q47 18 104.5 18t106.5 -20.5t82 -61t33 -104.5q0 -55 -30 -93t-69 -69q-35 -25 -57 -57.5t-22 -63.5v-264q0 -31 17 -63.5t50 -60t74 -45t86 -17.5t86 16.5t71.5 39t49 54t18.5 62.5v475q0 35 -33.5 77t-85.5 66l50 125q45 -20 84.5 -49t68.5 -63q51 51 124 83.5 t159 32.5q127 0 226 -50t149 -163l-125 -71q-23 63 -86.5 106t-161.5 43q-47 0 -88 -15.5t-72 -39t-48 -53t-17 -62.5v-446q0 -4 1 -9.5t1 -9.5q39 53 96 90t123.5 54.5t134 13.5t127.5 -35q49 -25 72.5 -50.5t40.5 -59.5q-2 -63 -38 -118.5t-90.5 -96.5t-123 -61.5 t-138.5 -18.5q-80 4 -154.5 39.5t-125.5 91.5q-31 -31 -68 -55.5t-75.5 -41t-77.5 -24.5t-72 -8q-74 0 -140.5 26.5t-118.5 70.5t-84 102.5t-32 117.5v264q0 66 32 120t95 97q20 14 38.5 31t18.5 35q0 14 -11 28.5t-30.5 23.5t-46 9t-57.5 -16zM901 176q29 -23 66 -38 t80 -19q43 -2 83.5 10t75.5 35.5t59.5 53.5t34.5 65q-49 35 -106 41t-112.5 -9.5t-103.5 -50.5t-77 -88z" />
<glyph unicode="&#x107e;" horiz-adv-x="1497" d="M82 1018q47 18 104.5 18t106.5 -20.5t82 -62.5t33 -105q0 -55 -31 -93t-70 -67q-33 -27 -55.5 -58.5t-22.5 -62.5v-262q0 -31 18.5 -63.5t49.5 -60t72 -45t88 -17.5q45 0 85 15.5t70.5 39t48 54t17.5 61.5v473q0 37 -33 78t-84 65l51 125q41 -18 81 -48t71 -64 q51 51 124 83.5t154 32.5q127 0 227.5 -50t149.5 -163l-125 -71q-23 66 -85 108.5t-165 42.5q-45 0 -84.5 -15.5t-71.5 -40t-49.5 -54t-17.5 -62.5v-444q0 -10 2 -17q41 51 98.5 89t123 54.5t132 12.5t126.5 -35q49 -25 73.5 -51.5t40.5 -58.5q-2 -63 -36.5 -118t-91 -94.5 t-125 -62t-138.5 -18.5q-27 2 -53.5 8t-52.5 14l-76 -514q0 -27 -20.5 -48t-47.5 -21h-227v141h162l75 514q-10 6 -18 16t-23 23q-29 -35 -64.5 -58.5t-75.5 -41t-77.5 -24.5t-70.5 -7q-72 0 -139.5 25.5t-119 70.5t-83 102.5t-31.5 118.5v262q0 68 33 122t92 97 q20 12 39.5 27.5t19.5 34.5q0 14 -10 29.5t-30.5 24.5t-47 9t-59.5 -16zM889 172q31 -23 67.5 -37t77.5 -16q43 -2 84 9t75 33.5t59.5 53.5t35.5 64q-47 33 -105.5 40t-113.5 -7.5t-103 -50.5t-77 -89z" />
<glyph unicode="&#x107f;" horiz-adv-x="942" d="M90 293v455q0 43 14.5 84.5t43 77.5t67.5 65t84 49l80 -29q51 -35 72.5 -80t23.5 -96t-14.5 -99t-49 -88t-77.5 -64.5t-96 -26.5v-248q0 -27 16 -55.5t47 -54t72 -43t86 -19.5q47 -2 93 14.5t79 41t53.5 56t20.5 60.5v438q0 25 -9.5 47.5t-26 45t-41 42t-50.5 33.5 l49 127q47 -20 89 -50t72.5 -70t48 -84t17.5 -91v-438q0 -45 -17.5 -85t-45 -75t-66.5 -64.5t-84 -48t-93 -28.5t-97 -8q-68 6 -132.5 30.5t-114.5 66.5t-82 96t-32 116zM238 666q25 4 44 15t32.5 29.5t22.5 41t10 45t-4 44t-21 40.5q-37 -25 -60.5 -61t-23.5 -72v-82z" />
<glyph unicode="&#x1080;" horiz-adv-x="1515" d="M92 283q16 33 41 59t74 51q59 29 126.5 34t134.5 -13.5t124 -55t98 -90.5v19v448q0 31 -18.5 61.5t-48 54t-71.5 39t-85 15.5q-100 0 -163.5 -43t-84.5 -106l-127 71q49 111 149.5 162t225.5 51q74 0 140.5 -25.5t116.5 -67.5t80 -97t30 -115v-432q2 -33 21 -64.5t49 -58 t72 -44t87 -17.5q47 0 87 16.5t70.5 39t49 54t18.5 62.5v446q0 27 -17.5 54.5t-46 53t-68.5 41t-81 19.5q-14 2 -25.5 1t-25.5 -3q8 51 12 85t6 52h37q68 -2 129.5 -28.5t111.5 -67.5t80 -93t30 -114v-446q0 -61 -29 -114.5t-80 -95.5t-116.5 -66.5t-139.5 -26.5 q-88 -2 -167 35.5t-132 99.5q-51 -57 -127 -95t-154 -40q-72 -4 -140.5 17.5t-123.5 62.5t-91 96t-38 119zM223 281q8 -33 35 -63t60.5 -53.5t73.5 -35.5t83 -10q45 4 82 19.5t64 35.5q-27 55 -74 91t-104.5 50.5t-115 7.5t-104.5 -42z" />
<glyph unicode="&#x1081;" horiz-adv-x="907" d="M90 274v451q0 59 31 113.5t81 97.5t117.5 68.5t141.5 27.5q72 0 139.5 -25.5t119.5 -69.5t85 -101.5t35 -118.5v-244h-144v236q0 33 -19.5 65.5t-51 59t-75.5 44t-87 17.5q-47 0 -88 -15.5t-73 -39t-50.5 -55t-18.5 -60.5v-303q72 -16 129.5 -57t91 -97.5t44 -127 t-8.5 -140.5l-104 -8l-63 -498q0 -14 -6.5 -26.5t-15.5 -21.5t-21.5 -15t-26.5 -6h-152v139h84l68 463l-8 6q-47 29 -80 65.5t-53.5 82.5t-20.5 93zM233 274q0 -23 13.5 -47t36 -47.5t54.5 -42t69 -24.5q-6 74 -51.5 130t-121.5 79v-48z" />
<glyph unicode="&#x1082;" d="M-817 -301q0 57 22.5 108.5t62.5 89t94.5 59t113.5 21.5q27 0 53 -4l-16 -114q-8 2 -17.5 2h-19.5q-37 0 -67 -11.5t-54.5 -35t-36.5 -53t-12 -62.5t12 -61.5t36.5 -50t54.5 -35t67 -13.5q45 0 81.5 19.5t59.5 52.5l102 -64q-37 -55 -101 -90t-142 -35q-59 0 -113.5 21.5 t-94.5 58.5t-62.5 88.5t-22.5 108.5z" />
<glyph unicode="&#x1083;" horiz-adv-x="815" d="M96 874q4 33 18.5 62t38 49.5t54.5 33.5t63 13h47q37 0 71 -14t57.5 -39t38 -57.5t14.5 -69.5v-1245q0 -18 9 -30.5t30 -12.5h45q16 0 30.5 12.5t14.5 30.5v20l135 -43q-6 -35 -21.5 -62.5t-39 -48t-54.5 -33.5t-65 -13h-45q-39 0 -72 14t-57.5 38.5t-38 57.5t-13.5 70 l2 1245q0 18 -10 30.5t-31 12.5h-47q-18 0 -29.5 -12.5t-11.5 -30.5v-21z" />
<glyph unicode="&#x1084;" horiz-adv-x="901" d="M88 326q0 51 27.5 98t77.5 76q-43 16 -74 64.5t-31 111.5q-4 156 21.5 212t73.5 88t120 45t156 13q82 0 139 -11t99 -32.5t66.5 -50.5t39.5 -68q8 -35 12 -70.5t-2 -68.5t-21.5 -62.5t-41.5 -52.5l-111 99q20 10 30.5 36.5t2.5 53.5q-6 31 -28.5 48t-52.5 27.5 t-63.5 13.5t-66.5 3q-43 0 -84 -6t-75 -21.5t-53.5 -41t-15.5 -136.5q0 -43 17.5 -67.5t41 -35.5t54.5 -13.5t58.5 -3.5t55 -1h46.5v-145h-43t-53.5 -2t-58 -7t-51 -15.5t-40 -36t-22.5 -64.5q-12 -117 42 -151.5t171 -34.5q70 0 114.5 10t72.5 28.5t40 48t12 68.5l127 -73 q-6 -53 -28.5 -93t-66.5 -68t-112.5 -41t-167.5 -13q-94 0 -162.5 16t-114.5 53t-64.5 93.5t-12.5 179.5z" />
<glyph unicode="&#x1085;" d="M-768 1415q0 45 17.5 76t47 50.5t68.5 27.5t88 8h80q66 0 115 -26.5t82 -73.5l-101 -68q-27 49 -92 49h-90q-43 0 -70.5 -8t-27.5 -45q0 -10 7 -17.5t17.5 -11.5t20.5 -7t18 -3h119v-104h-127q-4 0 -13 -4.5t-18.5 -10.5t-15.5 -14t-6 -16q0 -18 10 -26.5t25.5 -15 t36 -6.5h42.5h72q41 0 65.5 17.5t37.5 48.5l98 -66q-27 -55 -79 -88.5t-126 -33.5h-80q-49 0 -88 8t-67.5 27.5t-46 50t-17.5 73.5q0 31 8 52.5t19 33.5q10 14 28 23q-18 10 -28 24q-12 12 -20.5 32t-8.5 44z" />
<glyph unicode="&#x1086;" d="M-524 1417q0 35 13 64.5t35.5 52t52.5 34t63 11.5q37 0 64.5 -11.5t50 -34t36.5 -52t14 -64.5q1 -49 -28 -90l-174 -299l-105 59l99 173q-51 16 -86 59t-35 98zM-412 1417q0 -23 15.5 -36t36.5 -13q20 0 36.5 13.5t16.5 35.5q0 23 -16.5 36t-36.5 13t-36 -13t-16 -36z " />
<glyph unicode="&#x1087;" horiz-adv-x="507" d="M98 154q0 35 12.5 64.5t36 51t53 34.5t66.5 13q35 0 63.5 -13t52.5 -34.5t37 -51.5t13 -64q0 -54 -29 -95l-176 -307l-110 64l102 174q-53 16 -87 60t-34 104zM211 154q0 -27 15.5 -40.5t39.5 -13.5q18 0 34.5 13.5t16.5 40.5q0 18 -16.5 32.5t-34.5 14.5 q-25 0 -40 -14.5t-15 -32.5z" />
<glyph unicode="&#x1088;" horiz-adv-x="503" d="M88 162q0 35 14.5 65.5t36 53t52 35t65.5 12.5t64.5 -12.5t52 -35t36 -53t13.5 -65.5q0 -51 -27 -94l-178 -306l-108 62l102 176q-55 14 -89 59t-34 103zM92 856q0 35 13.5 64.5t35 52t51 35t64.5 12.5q33 0 63.5 -12.5t53 -35t35 -52t12.5 -64.5t-12.5 -64.5t-35 -52 t-53 -36t-63.5 -13.5q-35 0 -64.5 13.5t-51 36t-35 52t-13.5 64.5zM203 162q0 -25 14 -38t39 -13q20 0 35.5 13t15.5 38q0 20 -15.5 34.5t-35.5 14.5q-25 0 -39 -14.5t-14 -34.5zM203 856q0 -23 14 -36t39 -13q20 0 35.5 13.5t15.5 35.5q0 20 -15.5 35.5t-35.5 15.5 q-25 0 -39 -15t-14 -36z" />
<glyph unicode="&#x1089;" horiz-adv-x="497" d="M82 162q0 33 13.5 63.5t36 53t51 35t65.5 12.5q33 0 62.5 -12.5t52 -35t36 -53t13.5 -63.5t-13.5 -63.5t-36 -53t-52 -36t-62.5 -13.5q-37 0 -65.5 13.5t-51 36t-36 53t-13.5 63.5zM193 162q0 -25 16 -37t39 -12q20 0 35.5 12t15.5 37q0 23 -15.5 37t-35.5 14 q-23 0 -39 -14.5t-16 -36.5z" />
<glyph unicode="&#x108a;" horiz-adv-x="729" d="M86 168q0 33 14.5 63.5t35 53t51 37t65.5 14.5q57 0 102 -35t62 -88l174 102l63 -108l-307 -180q-43 -27 -94 -27q-35 0 -65.5 13.5t-51 36t-35 53t-14.5 65.5zM86 850q0 35 14.5 65.5t35 53t51 36t65.5 13.5q57 0 102 -35t62 -88l174 104l63 -110l-307 -180 q-43 -27 -94 -27q-35 0 -65.5 13.5t-51 37t-35 53t-14.5 64.5zM203 168q0 -23 14 -38t35 -15q27 0 40 15t13 38q0 25 -13 39t-40 14q-20 0 -34.5 -14t-14.5 -39zM203 850q0 -20 14 -35.5t35 -15.5q27 0 40 15t13 36q0 25 -13 40t-40 15q-20 0 -34.5 -15t-14.5 -40z" />
<glyph unicode="&#x108b;" horiz-adv-x="503" d="M82 489q0 35 13.5 65t36 52.5t51 34.5t65.5 12q33 0 62.5 -12t52 -34.5t36 -52.5t13.5 -65q0 -33 -13.5 -63.5t-36 -54t-52 -36.5t-62.5 -13q-37 0 -65.5 13t-51 36.5t-36 54.5t-13.5 63zM193 489q0 -23 16 -37t39 -14q20 0 35.5 14.5t15.5 36.5q0 20 -15.5 36t-35.5 16 q-23 0 -39 -15.5t-16 -36.5z" />
<glyph unicode="&#x108c;" horiz-adv-x="1058" d="M94 489q0 35 12.5 65t36 52.5t52 34.5t63.5 12q33 0 63.5 -12t52 -34.5t35 -52.5t13.5 -65q0 -33 -13.5 -63.5t-35 -54t-52 -36.5t-63.5 -13q-35 0 -63.5 13t-52 36.5t-36 54.5t-12.5 63zM207 489q0 -23 14.5 -37t36.5 -14q23 0 37 14.5t14 36.5q0 20 -14 36t-37 16 t-37 -15.5t-14 -36.5zM616 489q0 35 14.5 65t37 52.5t51 34.5t63.5 12q33 0 62.5 -12t52.5 -34.5t37 -52.5t14 -65q0 -33 -14 -63.5t-37 -54t-52.5 -36.5t-62.5 -13q-35 0 -63.5 13t-51 36.5t-37 54.5t-14.5 63zM729 489q0 -23 15.5 -37t37.5 -14q20 0 36 14.5t16 36.5 q0 20 -16 36t-36 16q-23 0 -38 -15.5t-15 -36.5z" />
<glyph unicode="&#x108d;" d="M-848 -203h653v-139h-653v139z" />
<glyph unicode="&#x108e;" horiz-adv-x="919" d="M96 303v430q0 41 14.5 81t43 74t66.5 61.5t81 47t89 28.5t93 5q63 -2 126 -26.5t111 -65.5t78.5 -93t30.5 -112v-446q0 -57 -29.5 -112.5t-78.5 -96.5t-114.5 -65.5t-137.5 -24.5q-51 -2 -97 9t-87 33.5t-76 52.5t-60.5 64.5t-39 74.5t-13.5 81zM238 303q0 -31 17 -63.5 t49 -59t74 -44t87 -17.5t86 14t71.5 38t48 54.5t17.5 61.5v446q0 23 -14 45q-20 -37 -54 -62.5t-74 -36.5t-82 -11t-83 11t-77 33.5t-58 57.5q-8 -20 -8 -37v-430zM340 866q6 -27 25.5 -43t45 -23t52 -5t51.5 10t42 24.5t22 40.5q-23 12 -48.5 19.5t-54.5 7.5 q-37 4 -71.5 -5.5t-63.5 -25.5z" />
<glyph unicode="&#x108f;" horiz-adv-x="577" d="M123 172q0 35 14.5 64.5t37 51t53 36t65.5 14.5q33 0 63.5 -14.5t53 -36t36 -51t13.5 -64.5q0 -57 -34 -102t-85 -62l100 -174l-108 -63l-178 307q-31 41 -31 94zM127 819q0 35 13.5 64.5t36 52t53 36t63.5 13.5t62.5 -13.5t52 -36t36 -52t13.5 -64.5t-13.5 -63.5 t-36 -52t-52 -37t-62.5 -13.5t-63.5 13.5t-53 37t-36 52t-13.5 63.5zM240 172q0 -27 15 -40t38 -13t38 13t15 40q0 20 -15 34.5t-38 14.5t-38 -14t-15 -35zM242 819q0 -23 14 -36t37 -13t37 13.5t14 35.5q0 20 -14 35.5t-37 15.5t-37 -15t-14 -36z" />
<glyph unicode="&#x1090;" horiz-adv-x="878" d="M88 268v801q0 59 31 113.5t80 96.5t113.5 67.5t131.5 25.5q68 -2 130.5 -25.5t109.5 -63.5t75.5 -91t28.5 -109v-815q0 -55 -28.5 -104t-74.5 -88t-104.5 -62.5t-121.5 -25.5q-66 -4 -132.5 17.5t-119.5 59t-86 92t-33 111.5zM225 268q0 -25 18.5 -53.5t48.5 -53 t72 -37.5t87 -9q43 2 78.5 16t64.5 38t44 50.5t15 48.5v815q0 31 -17.5 58.5t-46 51.5t-66.5 38t-83 14t-83 -16.5t-67.5 -42t-47 -57t-17.5 -60.5v-801z" />
<glyph unicode="&#x1091;" horiz-adv-x="704" d="M82 1309l147 82q29 16 62 10t61.5 -26.5t47 -54.5t18.5 -77v-1069q0 -6 9 -15t22 -3l102 80l84 -105q-39 -31 -66.5 -49.5t-46 -31.5t-28 -19t-15.5 -8q-41 -25 -76.5 -18t-62.5 32.5t-42 62.5t-15 74v1069q0 8 -5.5 11t-17.5 -1l-113 -63z" />
<glyph unicode="&#x1092;" horiz-adv-x="868" d="M98 1036v371h131v-68q47 31 100.5 48.5t112.5 19.5q66 0 129.5 -24.5t111.5 -65.5t78 -93.5t32 -109.5v-242q0 -41 -13.5 -94t-33 -112.5t-42 -119t-41 -113.5t-32 -95t-13.5 -64q2 -63 18.5 -115.5t35.5 -80.5l-117 -60q-18 43 -33 82q-14 37 -23.5 79t-9.5 79 q0 59 27 140t59.5 168t59.5 171t27 154v215q0 29 -17.5 59.5t-48.5 56t-70 42t-82 16.5q-45 0 -82.5 -13.5t-66.5 -37t-46.5 -52t-17.5 -57.5v-84h-131h-2z" />
<glyph unicode="&#x1093;" horiz-adv-x="983" d="M98 10l221 1381l132 -21l-86 -534q37 18 77.5 29.5t81.5 13.5q63 4 131 -17.5t121 -60.5t86 -93.5t33 -115.5v-326q0 -39 -15.5 -80t-42 -75.5t-63.5 -63.5t-80 -47q-4 10 -16 39t-33 78q49 25 82 68.5t33 80.5v326q0 27 -18.5 56.5t-51.5 54t-72.5 38t-87.5 11.5 q-39 -2 -71.5 -14.5t-59 -32t-45 -44t-24.5 -47.5l-101 -624z" />
<glyph unicode="&#x1094;" horiz-adv-x="1226" d="M90 53l481 1235v113h142l-2 -1223q0 -20 10 -34.5t33 -14.5h207q18 0 30.5 13.5t12.5 33.5v17l137 -39q-4 -35 -19.5 -64t-40 -50.5t-54.5 -34.5t-66 -13h-207q-39 0 -72 15.5t-58.5 40t-39 57t-13.5 71.5v739l-354 -915z" />
<glyph unicode="&#x1095;" horiz-adv-x="878" d="M90 283v104q0 57 17.5 109.5t52.5 93.5t90 65.5t133 24.5h231v706h136v-706h90v-137h-90v-260q0 -94 -29 -150.5t-73 -87.5t-95 -41t-94 -10h-68q-45 0 -96 13t-97 45t-77 87.5t-31 143.5zM225 283q0 -152 166 -152h68q47 0 77.5 7t47 24.5t23.5 46.5t7 74v260h-231 q-45 0 -76 -15.5t-49 -39t-25.5 -51t-7.5 -50.5v-104z" />
<glyph unicode="&#x1096;" horiz-adv-x="868" d="M90 1004v104q0 86 31 141.5t77 88t97 45t96 12.5h68q43 0 94 -10.5t95 -40t73 -86t29 -150.5v-264h90v-135h-90v-705h-136v705h-231q-78 0 -133 25.5t-90 65.5t-52.5 93t-17.5 111zM225 1004q0 -23 7.5 -50.5t25.5 -52t49 -41t76 -16.5h231v264q0 43 -7 71.5t-23.5 46 t-47 26t-77.5 8.5h-68q-166 0 -166 -152v-104z" />
<glyph unicode="&#x1097;" horiz-adv-x="862" d="M84 1231q6 33 21.5 61.5t39 50t54 35t67.5 13.5h303q37 0 70 -14.5t58.5 -39t39 -58.5t13.5 -71q-4 -35 -11 -51l-497 -954q-8 -68 30 -68h301q18 0 30.5 11.5t12.5 31.5v21l136 -43q-6 -35 -20.5 -64t-38 -48t-54.5 -32.5t-66 -13.5h-301q-37 0 -69.5 14.5t-57 39 t-39 57t-14.5 69.5q0 16 6 38t17 52l487 920q14 31 0 48t-33 17h-303q-20 0 -32.5 -12t-12.5 -33v-20z" />
<glyph unicode="&#x1098;" horiz-adv-x="862" d="M80 285v174q0 68 39 131t104 102q-61 39 -102 96.5t-41 126.5v197q0 39 16.5 81t44 77t65.5 65.5t81 48.5l47 -118q-51 -27 -84 -71t-33 -83v-197q0 -23 15.5 -49t41 -47.5t59.5 -38t75 -20.5q6 2 24.5 2t24.5 -2q41 4 74.5 20.5t59 39t40 48t14.5 47.5v211 q0 39 -29.5 76t-74.5 60l49 118q82 -37 137 -105.5t55 -148.5v-211q0 -66 -38.5 -123t-100.5 -96q63 -41 101 -99t38 -126v-186q0 -55 -28.5 -106.5t-75.5 -90.5t-106.5 -62.5t-120.5 -25.5q-68 -4 -133.5 17.5t-118 60.5t-86 92t-33.5 115zM217 285q0 -27 18.5 -56.5 t50 -53t70.5 -38t86 -10.5q45 0 82 15.5t63.5 40t42 51t15.5 51.5v186q0 29 -14.5 56.5t-41 49t-59 36t-73.5 20.5h-6q-23 -2 -41 0q-41 -6 -75 -23.5t-60.5 -42t-42 -53t-15.5 -55.5v-174z" />
<glyph unicode="&#x1099;" horiz-adv-x="878" d="M90 252v166q0 70 41 127t100 96q-63 43 -102 104.5t-39 131.5v202q0 63 33 115.5t87 92.5t119.5 60.5t131.5 16.5q61 -2 119.5 -25.5t105.5 -62.5t76 -90t29 -107v-217q0 -66 -38 -125t-100 -100q59 -39 98.5 -95.5t39.5 -123.5v-180q0 -82 -53.5 -148.5t-139.5 -105.5 l-49 118q49 20 76.5 57.5t27.5 78.5v180q0 23 -13 49.5t-39 49t-60.5 38.5t-73.5 23q-6 -2 -24.5 -2.5t-24.5 2.5q-41 -6 -76 -22.5t-60.5 -38t-40 -49.5t-14.5 -50v-166q0 -41 33 -85t84 -69l-45 -118q-45 20 -84 49.5t-66.5 64.5t-43 76t-15.5 82zM227 877 q0 -27 14.5 -56.5t41 -53.5t61.5 -41t76 -24q18 2 41 0h6q39 6 73.5 19.5t59.5 36t39 50.5t14 54v217q0 25 -15 51.5t-42 51t-63.5 40t-79.5 15.5q-45 4 -86 -10.5t-71 -38t-49.5 -52t-19.5 -57.5v-202z" />
<glyph unicode="&#x109a;" horiz-adv-x="507" d="M92 817q0 33 13.5 63.5t35 52t51 35t64.5 13.5q33 0 63.5 -13.5t53 -35t35 -52t12.5 -63.5q0 -35 -12.5 -64.5t-35 -53t-53 -36t-63.5 -12.5q-35 0 -64.5 12.5t-51 36t-35 53t-13.5 64.5zM203 817q0 -25 14 -38t39 -13q20 0 35.5 13.5t15.5 37.5q0 20 -15.5 34.5 t-35.5 14.5q-25 0 -39 -14t-14 -35z" />
<glyph unicode="&#x109b;" horiz-adv-x="514" d="M98 1411q0 35 12.5 64.5t36 52t53 35t66.5 12.5q35 0 63.5 -12.5t52.5 -35t37 -52t13 -64.5q0 -53 -29 -94l-176 -305l-110 63l102 172q-53 16 -87 61.5t-34 102.5zM211 1411q0 -25 15.5 -39t39.5 -14q18 0 34.5 14t16.5 39q0 18 -16.5 33.5t-34.5 15.5q-25 0 -40 -15 t-15 -34z" />
<glyph unicode="&#x109c;" horiz-adv-x="729" d="M96 166q0 35 12.5 65.5t35 53t53 37t65.5 14.5q49 0 94 -29l306 -180l-64 -109l-174 101q-14 -51 -59.5 -85t-102.5 -34q-35 0 -65.5 13.5t-53 36t-35 53t-12.5 63.5zM96 850q0 35 12.5 65.5t35 53t53 36t65.5 13.5q49 0 94 -29l306 -178l-64 -109l-174 103 q-14 -53 -59.5 -87t-102.5 -34q-35 0 -65.5 12.5t-53 36t-35 54t-12.5 63.5zM211 166q0 -25 15.5 -39t35.5 -14q25 0 38 14t13 39q0 23 -13 38t-38 15q-20 0 -35.5 -15t-15.5 -38zM211 850q0 -25 15.5 -38t35.5 -13q25 0 38 13t13 38t-13 39t-38 14q-20 0 -35.5 -14 t-15.5 -39z" />
<glyph unicode="&#x109d;" d="M-874 1407q12 55 46.5 93t81 56.5t98.5 18.5t96 -26.5t71.5 -77t27.5 -132.5v-163v-62t1 -53.5t1 -39.5v-17q0 -6 21 -23l-109 -76q-16 14 -28.5 31.5t-14.5 40.5v362q0 63 -27.5 88t-59 21t-56.5 -29.5t-23 -62.5z" />
<glyph unicode="&#x109e;" horiz-adv-x="763" d="M86 657q6 33 20.5 63t38 51.5t54 33.5t65.5 12h45q37 0 71 -14.5t57.5 -39t37.5 -58t14 -68.5l-2 -1034q0 -18 10.5 -30.5t30.5 -12.5h47q16 0 28.5 12.5t12.5 30.5v20l136 -43q-4 -33 -19.5 -60.5t-39 -49t-54.5 -35t-64 -13.5h-47q-39 0 -71.5 15.5t-56 39t-38 56.5 t-14.5 70l2 1034q0 16 -10 29.5t-31 13.5h-45q-18 0 -31.5 -13.5t-13.5 -29.5v-21zM137 1130q0 33 13.5 64t36 52.5t51 33.5t65.5 12q33 0 62.5 -12t51 -33.5t36 -52.5t14.5 -64q0 -35 -14.5 -64.5t-36 -53t-51 -36.5t-62.5 -13q-37 0 -65.5 13t-51 36.5t-36 53.5t-13.5 64z M248 1130q0 -25 15.5 -39t39.5 -14q18 0 33.5 14.5t15.5 38.5q0 20 -15.5 35t-33.5 15q-25 0 -40 -14.5t-15 -35.5z" />
<glyph unicode="&#x109f;" horiz-adv-x="1110" d="M96 236v454q0 55 28 103.5t73 85t101 59.5t118 27q63 2 126.5 -17.5t115 -56.5t82 -89t30.5 -112l2 -1096q0 -16 11.5 -28t25.5 -12h45q16 0 26.5 9t12.5 21v1039q2 55 -1 118.5t-19.5 120t-53.5 98t-96 52.5q-59 6 -108.5 29.5t-85 61.5t-57 86t-21.5 105 q0 59 23.5 111.5t64.5 90.5t94 58.5t115 20.5q51 0 97 -14.5t84 -41t65.5 -64.5t41.5 -81l-121 -33q-18 49 -63 84t-104 35q-35 0 -66 -14t-55.5 -35.5t-38 -52.5t-13.5 -64t11.5 -60.5t34 -50t51 -36.5t61.5 -17h6q131 -23 205 -135q16 -29 29.5 -63.5t25 -73.5t17.5 -83 t6 -85l2 -1116q-2 -31 -17.5 -58.5t-38 -48t-53 -33t-61.5 -12.5h-45q-35 0 -66.5 14.5t-55 38t-37 54.5t-13.5 65l2 1096q0 29 -17.5 55.5t-48 50t-69.5 37t-82 11.5q-41 0 -77 -15.5t-61.5 -38t-41 -49t-15.5 -51.5v-454q0 -39 29 -76t78 -58l-49 -110 q-82 35 -135.5 100.5t-53.5 143.5z" />
<glyph unicode="&#x2000;" horiz-adv-x="870" />
<glyph unicode="&#x2001;" horiz-adv-x="1741" />
<glyph unicode="&#x2002;" horiz-adv-x="870" />
<glyph unicode="&#x2003;" horiz-adv-x="1741" />
<glyph unicode="&#x2004;" horiz-adv-x="580" />
<glyph unicode="&#x2005;" horiz-adv-x="435" />
<glyph unicode="&#x2006;" horiz-adv-x="290" />
<glyph unicode="&#x2007;" horiz-adv-x="290" />
<glyph unicode="&#x2008;" horiz-adv-x="217" />
<glyph unicode="&#x2009;" horiz-adv-x="348" />
<glyph unicode="&#x200a;" horiz-adv-x="96" />
<glyph unicode="&#x202f;" horiz-adv-x="348" />
<glyph unicode="&#x205f;" horiz-adv-x="435" />
<glyph unicode="&#xaa60;" horiz-adv-x="1509" d="M90 283v444q0 59 30 113.5t80 96.5t115.5 66.5t137.5 24.5q90 2 166.5 -35t130.5 -98q51 59 128.5 95t168.5 38q72 2 139 -24.5t118.5 -70.5t83 -102.5t31.5 -117.5v-469q0 -45 -16.5 -85t-45 -74t-66.5 -60.5t-83 -47.5l-112 31q-29 68 -26 130.5t27.5 115.5t70.5 93 t108 65v301q0 31 -18.5 62.5t-49 59t-71.5 45t-88 17.5q-45 0 -86 -15.5t-72 -39t-48.5 -53t-17.5 -62.5v-483q0 -39 33 -79t86 -65l-51 -125q-43 20 -82 48t-67.5 62t-44 75t-15.5 84v465v4q0 31 -18.5 62.5t-50 59t-72.5 45t-88 17.5q-43 0 -84 -15.5t-72 -39t-49.5 -53 t-18.5 -62.5v-444q0 -27 17.5 -55.5t45.5 -52t67.5 -41t84.5 -17.5h22.5t23.5 2q-6 -51 -10.5 -85t-6.5 -50q-20 -2 -37 0q-63 4 -126.5 28.5t-111.5 65.5t-79 93t-31 112zM1163 102q51 25 82 65t31 77v61q-51 -33 -82 -86.5t-31 -116.5z" />
<glyph unicode="&#xaa61;" horiz-adv-x="1503" d="M82 -4l39 123q33 -18 60.5 -18.5t47 9t29.5 25t10 27.5q0 20 -18.5 34.5t-38.5 30.5q-61 41 -94 96.5t-33 120.5v265q0 61 31.5 118.5t84 101.5t120 71.5t141.5 27.5q35 0 73.5 -9t77.5 -25.5t77 -42t67 -58.5q51 59 130 98t167 37q74 -2 140.5 -26.5t116.5 -66.5 t79.5 -97.5t29.5 -112.5v-449q0 -59 -30.5 -111t-78.5 -94t-111.5 -66.5t-129.5 -29.5q-84 -4 -166 28t-139 89q-29 -35 -68 -62.5t-82 -49.5l-53 126q53 23 85 63t36 75q0 4 -1 24.5t-1 51v65.5v171t1 157.5t1 23.5q-6 31 -24.5 58.5t-49 50t-68.5 35t-81 12.5 q-45 2 -87 -15.5t-74 -45t-50.5 -60.5t-18.5 -63v-265q0 -29 22.5 -61.5t57.5 -58.5q39 -29 69 -67t30 -95q0 -61 -33 -102.5t-81 -62t-105.5 -20.5t-106.5 19zM825 254q6 -25 27.5 -52.5t53.5 -48t72 -34t83 -8.5q47 0 87 17t67.5 41t44 52.5t16.5 54.5v449 q0 31 -17.5 62.5t-48 54t-72.5 37t-85 14.5q-45 2 -82 -12.5t-67 -38t-51.5 -52t-27.5 -61.5v-475z" />
<glyph unicode="&#xaa62;" horiz-adv-x="1249" d="M57 1032h148l43 -864q0 -20 12 -34.5t33 -14.5h16q20 0 30.5 17.5t22.5 33.5q16 23 27.5 49.5t20.5 48.5q-2 4 -2 13v462q0 45 15 87t44 79t67.5 68t81.5 51q6 -12 19.5 -43t34.5 -82q-53 -27 -86 -72t-33 -88v-462q0 -31 19.5 -61t52 -55.5t75.5 -39.5t93 -12 q47 2 84.5 18t66.5 40t46.5 53.5t17.5 56.5v481q0 41 -33 81t-86 66l53 123q92 -39 150.5 -112.5t58.5 -157.5v-481q0 -59 -31 -111.5t-80 -94.5t-111.5 -67.5t-125.5 -27.5q-90 -6 -174 27.5t-140 92.5q-20 -53 -67 -88t-111 -35h-16q-41 0 -75 15.5t-59.5 41t-41 59.5 t-15.5 75z" />
<glyph unicode="&#xaa63;" horiz-adv-x="1509" d="M86 -4l39 123q31 -18 58.5 -18.5t48 9t30.5 26t10 28.5q0 18 -19.5 33.5t-37.5 31.5q-61 41 -93 95.5t-32 124.5v260q0 61 25.5 119.5t75 102.5t118 70.5t156.5 26.5q78 0 160 -32.5t139 -98.5q51 61 129 99t168 36q74 0 140.5 -25.5t116.5 -67.5t79.5 -96.5t29.5 -115.5 v-444q0 -59 -30.5 -112.5t-79.5 -94.5t-111.5 -66.5t-128.5 -29.5q-84 -4 -166 27.5t-139 88.5q-59 -72 -156 -114l-127 -5q-20 68 -14 132.5t33 118t73 95.5t107 64v338q0 31 -17.5 62.5t-46 55t-70.5 38t-91 14.5q-53 0 -96 -17.5t-72 -44t-46.5 -59.5t-17.5 -65v-260 q0 -31 25 -65t57 -58q39 -31 70 -68t31 -94q0 -63 -34 -104.5t-82 -62t-105.5 -20.5t-106.5 19zM571 111q51 25 84 63.5t33 75.5v31q-49 -27 -78.5 -72t-38.5 -98zM829 283q0 -31 19.5 -60.5t52.5 -55.5t77 -41t91 -11q45 2 84 18.5t67.5 40t46 52t17.5 57.5v444 q0 33 -18.5 62.5t-48 54t-70.5 39t-88 14.5q-45 0 -86 -15.5t-71 -42t-50.5 -58t-22.5 -62.5v-10v-426z" />
<glyph unicode="&#xaa64;" horiz-adv-x="1521" d="M88 283v462q0 43 15.5 86t44 80t66.5 67t85 52q4 -14 17.5 -45t33.5 -80q-53 -27 -87 -72t-34 -88v-462q0 -31 19.5 -60.5t53.5 -55.5t77 -41t90 -11q47 2 86 18.5t67.5 40t46 52t17.5 57.5v479q0 41 -35 81t-84 66l51 125q49 -23 88 -53.5t70 -67.5q53 53 128 87t155 34 q76 -2 142.5 -27.5t116.5 -67.5t79.5 -96.5t29.5 -115.5v-446q0 -59 -30.5 -111.5t-79.5 -94.5t-111.5 -67.5t-128.5 -27.5q-45 -4 -89 5t-87 25.5t-80 43t-63 57.5q-51 -55 -125 -90t-156 -41q-70 -4 -139.5 18t-125.5 63t-90 98.5t-34 123.5zM829 281q0 -29 19.5 -60 t52.5 -55.5t76 -39.5t92 -11q45 2 84 18.5t67.5 40t45 52t16.5 55.5v446q0 35 -17.5 63.5t-47 53t-70.5 39t-88 14.5q-47 2 -88 -15.5t-73 -45t-50.5 -60t-18.5 -63.5v-432z" />
<glyph unicode="&#xaa65;" horiz-adv-x="1509" d="M94 281v446q0 41 16.5 82t45 75t67.5 61.5t82 47.5l53 -125q-27 -12 -50 -29.5t-37.5 -37t-23.5 -39t-9 -35.5v-446q0 -33 17 -63t49 -54.5t72 -38.5t85 -14t87 17t73.5 44t48.5 59q14 23 18 45l2 451q0 16 -9 36.5t-24.5 39t-37 36t-46.5 29.5l50 123q43 -18 78.5 -43.5 t64.5 -56.5q27 31 59.5 55.5t71.5 43t81 27.5t85 7q72 0 138.5 -24.5t117.5 -66.5t79.5 -96.5t28.5 -111.5v-449q0 -59 -29.5 -111t-78.5 -93t-111.5 -66.5t-130.5 -28.5q-16 -2 -35 0q-2 18 -6 52t-14 86l25 -4h24q43 2 83 18t69.5 40t45 52.5t15.5 54.5v449 q0 29 -17.5 60.5t-48 54t-71.5 38t-86 15.5t-87 -17.5t-73 -45t-49 -60.5t-18 -63l-3 -1096q0 -39 -14 -73t-39.5 -58.5t-58.5 -39.5t-70 -15h-360q-35 0 -65.5 13t-56.5 34.5t-41 50t-22 63.5l140 45v-20q0 -20 12 -32.5t33 -12.5h360q18 0 29.5 12t11.5 33l-2 438 q-23 -14 -47 -26q-41 -23 -88 -35.5t-94 -10.5q-72 0 -138.5 25t-116.5 68t-80 96t-30 115z" />
<glyph unicode="&#xaa66;" horiz-adv-x="1497" d="M84 276v433q0 61 31.5 119.5t83 103.5t120 71.5t142.5 24.5q90 -2 169 -39t130 -96q53 61 131 99t168 36q74 0 139.5 -24.5t116.5 -67.5t80.5 -97.5t29.5 -113.5v-449q0 -59 -30.5 -112t-79.5 -94t-111.5 -65.5t-128.5 -31.5h-37q-2 18 -8 53t-12 87q25 -4 49 -2 q47 0 85 17t66.5 41t45 52.5t16.5 54.5v449q0 31 -18.5 62.5t-48 54t-70.5 38t-86 15.5q-47 0 -88 -17.5t-74 -45t-51.5 -60.5t-18.5 -63v-2v-431q0 -59 -30.5 -112t-78.5 -94t-110.5 -65.5t-130.5 -31.5q-70 -2 -139.5 20.5t-125.5 64.5t-91 97.5t-35 120.5zM229 276 q0 -29 18.5 -58.5t52.5 -55t77 -41t92 -10.5q43 0 83 17t69.5 41t46 52.5t16.5 54.5v449q0 31 -18.5 62.5t-50 54t-71.5 38t-87 15.5q-43 0 -85 -17.5t-74 -45t-50.5 -60t-18.5 -63.5v-433zM287 489q0 35 14 66t35.5 54.5t52.5 34.5t66 11q33 0 63.5 -11t54 -34.5t36 -54.5 t12.5 -66t-12.5 -64.5t-36 -53t-54.5 -36.5t-63 -13q-35 0 -66 13t-52.5 36.5t-35.5 53.5t-14 64zM383 489q0 -31 19.5 -49t52.5 -18q31 0 50 18.5t19 48.5q0 31 -19 50.5t-50 19.5q-33 0 -52.5 -19.5t-19.5 -50.5z" />
<glyph unicode="&#xaa67;" horiz-adv-x="1509" d="M94 276v433q0 61 31 119.5t83 103.5t119.5 71.5t141.5 24.5q92 -2 170 -39t129 -96q53 61 132 99t167 36q74 0 140.5 -24.5t116.5 -67.5t80 -97.5t30 -113.5v-449q0 -59 -31 -112t-80 -94t-110.5 -65.5t-131.5 -31.5q-88 -2 -175 34t-142 99q-51 -57 -126 -91.5 t-153 -41.5q-72 -2 -141.5 20.5t-125.5 64.5t-90 97.5t-34 120.5zM238 276q0 -29 19 -58.5t52 -55t76 -41t92 -10.5q45 0 84 17t67.5 41t45 52.5t16.5 54.5v449q0 31 -17.5 62.5t-48 54t-71.5 38t-86 15.5t-86 -17.5t-74 -45t-51 -60t-18 -63.5v-433zM299 496 q0 35 12.5 65.5t36 52t54 35t63.5 13.5q35 0 64.5 -13.5t52 -35t37 -52.5t14.5 -65q0 -35 -14.5 -66t-37 -53.5t-52 -35.5t-64.5 -13q-33 0 -63.5 13t-54 35.5t-36 53.5t-12.5 66zM393 494q0 -29 19.5 -47.5t52.5 -18.5q29 0 49.5 18.5t20.5 47.5q0 31 -20.5 50t-49.5 19 q-33 0 -52.5 -19.5t-19.5 -49.5zM836 276q0 -29 19 -58.5t52 -55t76 -41t92 -10.5q45 0 84 17t68.5 41t45 52.5t15.5 54.5v449q0 31 -17.5 62.5t-49 54t-70.5 38t-86 15.5q-45 0 -87 -17.5t-74 -45t-50 -60t-18 -63.5v-433z" />
<glyph unicode="&#xaa68;" horiz-adv-x="1515" d="M94 274v435q0 61 31 118.5t84 102.5t119.5 71.5t140.5 26.5q92 -2 171 -39t128 -96q53 61 132 99t169 36q72 -2 138.5 -26.5t116.5 -66.5t80 -97.5t30 -112.5v-451q0 -31 -9 -63q-16 -49 -49 -90t-80 -73t-101 -51.5t-112 -23.5h-36l-82 9q-6 66 7 124t46 105 q43 66 115.5 106.5t156.5 40.5v367q0 31 -17.5 61.5t-49 54t-70.5 38t-86 14.5q-47 2 -89 -15.5t-73 -45t-49 -60.5t-18 -63v-435q0 -14 -3.5 -30.5t-9.5 -32.5q-14 -49 -48 -90t-80 -73t-100 -51.5t-110 -23.5q-63 -2 -123.5 15.5t-113.5 49.5t-92 75t-56 98q-8 33 -8 63z M238 274q0 -27 24 -63q14 -20 37 -39.5t50.5 -35t60 -23t69.5 -2.5q63 2 113.5 32.5t77.5 67.5q20 37 20 63v451q0 31 -17.5 61.5t-48 54t-70.5 38t-85 14.5q-47 2 -88 -15.5t-74 -45t-51 -60t-18 -63.5v-435zM303 483q0 -37 12.5 -67.5t36 -53t52 -36t65.5 -13.5 q35 0 64.5 13.5t53 36t36 53t12.5 67.5q0 27 -8 56q-16 47 -59.5 78.5t-98.5 31.5t-98.5 -31.5t-59.5 -78.5q-4 -14 -6 -27.5t-2 -28.5zM397 483q0 36 29 56q18 12 43 12t41 -12q29 -20 29 -56q0 -33 -19.5 -51t-50.5 -18t-51.5 18.5t-20.5 50.5zM1075 111h2 q63 2 114.5 32.5t76.5 67.5q16 27 20 51q-39 0 -74.5 -14t-64.5 -37q-27 -20 -45.5 -47t-28.5 -53z" />
<glyph unicode="&#xaa69;" horiz-adv-x="1521" d="M84 276v433q0 61 30.5 119.5t83 103.5t120 71.5t141.5 24.5q84 -2 157.5 -33.5t126.5 -85.5q57 66 140.5 97.5t183.5 31.5q76 0 141.5 -25.5t115.5 -67.5t80 -96t30 -116v-448q0 -57 -31 -111.5t-80 -94.5t-110.5 -64.5t-129.5 -28.5q-43 -4 -89 5t-88 26.5t-78.5 42 t-63.5 59.5q-51 -61 -127 -99t-162 -45q-70 -4 -139.5 19.5t-125.5 64.5t-91 96t-35 121zM229 276q0 -29 18.5 -58.5t52.5 -55t77 -39.5t92 -12q43 2 82 18t68.5 40t46 53.5t16.5 53.5v449q0 31 -17.5 62.5t-49 54t-71.5 38t-85 15.5t-87 -17.5t-74 -44t-50.5 -60 t-18.5 -64.5v-433zM287 500q0 -47 24 -86q23 -37 61 -59.5t83 -22.5t82.5 22.5t60.5 59.5q25 37 25 86q0 35 -13.5 64.5t-36 52t-53.5 36t-65 13.5q-35 0 -66 -13.5t-52.5 -36t-35.5 -52t-14 -64.5zM383 500q0 29 20.5 48t51.5 19t50 -19.5t19 -47.5q0 -33 -19.5 -50.5 t-49.5 -17.5q-31 0 -51.5 17.5t-20.5 50.5zM819 764q4 -21 4 -39v-326q59 25 126 28t129.5 -15.5t116.5 -55.5t93 -88q2 6 2 17v448q0 31 -18.5 61.5t-49 55t-69.5 40t-86 15.5q-98 0 -160.5 -41t-87.5 -100zM823 274q12 -33 37 -61.5t58.5 -51t74.5 -33.5t82 -9 q41 0 79 17.5t69 37.5q-31 51 -78 87t-102.5 51.5t-112 8t-107.5 -39.5v-5v-2z" />
<glyph unicode="&#xaa6a;" horiz-adv-x="1515" d="M92 276v433q0 61 31 119.5t83 103.5t119.5 71.5t141.5 24.5q82 -2 156.5 -33.5t126.5 -85.5q57 66 141 97.5t184 31.5q76 0 140.5 -25.5t115.5 -67.5t81 -96t30 -116v-448q0 -57 -31 -111.5t-81 -94.5t-112.5 -64.5t-125.5 -28.5q-45 -4 -90.5 5t-87.5 26.5t-78.5 42 t-67.5 59.5q-47 -61 -124 -99t-161 -45q-70 -4 -140.5 19.5t-126.5 64.5t-90 96t-34 121zM236 276q0 -29 19 -58.5t52 -55t76 -39.5t92 -12q45 2 84 18t66.5 40t46 53.5t18.5 53.5v449q0 31 -18.5 62.5t-49 54t-71.5 38t-86 15.5t-86 -17.5t-74 -44t-51 -60t-18 -64.5v-433z M827 764q4 -21 4 -39v-326q59 25 125 28t129.5 -15.5t117.5 -55.5t93 -88q2 6 2 17v448q0 31 -18 61.5t-49 55t-72 40t-84 15.5q-98 0 -160.5 -41t-87.5 -100zM831 274q10 -33 36 -61.5t60 -51t73.5 -33.5t80.5 -9q43 0 81 17.5t67 37.5q-29 51 -76 87t-102.5 51.5t-112.5 8 t-107 -39.5v-5v-2z" />
<glyph unicode="&#xaa6b;" horiz-adv-x="995" d="M72 1028l139 -6q-4 -98 14 -148q49 70 134 113t182 41q74 0 139 -25.5t116.5 -67.5t82 -97.5t30.5 -112.5v-451q0 -45 -17.5 -84.5t-46 -74.5t-67.5 -63.5t-84 -49.5l-51 125q53 27 87 68t34 79v451q0 29 -18.5 60.5t-49 54t-71.5 38t-86 15.5q-68 2 -123.5 -32 t-83.5 -79q2 0 8 -4l4 -4q74 -35 123 -93t71.5 -235.5t15.5 -252t-48 -146.5q-6 -12 -17 -24q-6 -14 -14 -25.5t-16 -22.5q-27 6 -46.5 14.5t-37.5 14.5q-45 20 -84 48t-68.5 63t-45 74.5t-15.5 84.5v433v18q-51 45 -73.5 116.5t-16.5 186.5zM307 274q0 -39 33 -78.5 t86 -66.5q18 45 20.5 94t-14 199.5t-48.5 188.5t-77 61v-398z" />
<glyph unicode="&#xaa6c;" horiz-adv-x="1757" d="M92 285v448q0 51 22.5 99.5t60.5 87t90 67.5t112 41l74 -125q-43 -2 -82 -17.5t-70 -39t-47 -53t-16 -60.5v-448q0 -23 16 -52.5t46 -53t69 -42t84 -18.5q49 -2 91 12t75.5 39t53 55.5t19.5 59.5v432q0 45 -37 88q-18 31 -26.5 64.5t8.5 76.5q18 41 54 66.5t79 25.5h240 q45 0 75.5 -19.5t49 -51t17.5 -69.5t-26 -75q-14 -12 -31.5 -38.5t-17.5 -67.5v-432q0 -29 19.5 -59.5t52.5 -55.5t77 -39t91 -12q45 0 84 18.5t68.5 42t45 53t15.5 52.5v448q0 31 -16.5 60.5t-47 53t-69.5 39t-82 17.5l73 125q59 -12 111.5 -41t91.5 -67.5t60.5 -87 t21.5 -99.5v-448q0 -57 -29.5 -111.5t-79 -94.5t-111.5 -64.5t-128 -28.5q-72 -4 -140.5 18.5t-125 64.5t-91 97t-34.5 119v432q0 47 13 82t32 63q20 31 -10 33l-166 -2q-37 0 -17 -31q20 -25 33.5 -62.5t13.5 -82.5v-432q0 -63 -33.5 -118.5t-89 -97.5t-126 -64.5 t-140.5 -18.5q-66 4 -129 28.5t-111 64.5t-79 94t-31 112z" />
<glyph unicode="&#xaa6d;" horiz-adv-x="1179" d="M59 -416l134 43v-20q0 -18 15 -30.5t32 -12.5h106q18 0 29.5 12t11.5 31l2 1098q-8 -2 -15 -2.5t-16 -0.5q-33 0 -61.5 12.5t-50 34t-34.5 52t-13 63.5t13 63.5t34.5 52t50 34t61.5 12.5q51 0 89 -24.5t59 -65.5q51 43 113.5 66.5t132.5 23.5q70 -2 135 -25.5 t113.5 -64.5t78 -94.5t29.5 -110.5v-438q0 -59 -29.5 -110.5t-77 -90.5t-109 -63.5t-124.5 -26.5q-18 -4 -37 0q-2 16 -5 48t-11 81q12 -2 22.5 -3t24.5 1q43 2 81 18.5t65.5 40t44 51t16.5 54.5v438q0 33 -18.5 60.5t-47.5 52t-67.5 39t-83.5 14.5q-41 0 -79 -14.5 t-66.5 -37t-49 -52t-27.5 -58.5v-1128q0 -37 -14 -71t-39.5 -58.5t-58.5 -38.5t-72 -14h-106q-35 0 -66 13t-55.5 33.5t-40 50t-19.5 62.5zM307 864q0 -25 15.5 -36t35.5 -11t36 11.5t16 35.5q0 20 -16 35.5t-36 15.5t-35.5 -15t-15.5 -36z" />
<glyph unicode="&#xaa6e;" horiz-adv-x="1509" d="M94 279v446q0 59 30 113.5t80 97.5t116.5 67.5t140.5 24.5q72 2 139.5 -24.5t119.5 -71.5t84 -103.5t32 -119.5l-2 -420q2 -29 21 -62.5t50 -58.5t72 -41t86 -16t85 15t71.5 39.5t49 54.5t17.5 63v444q0 27 -16.5 55.5t-45 53t-68.5 41t-83 18.5h-25.5t-23.5 -2 q8 51 12 85t6 50h37q66 -4 128.5 -28.5t112.5 -65.5t78.5 -94.5t28.5 -112.5v-444q0 -61 -28.5 -115.5t-78.5 -97.5t-116.5 -68t-138.5 -25q-72 -2 -139.5 25t-119.5 71t-84 101t-32 119v416q0 33 -18.5 65.5t-49 59t-73.5 44t-88 17.5t-85 -15.5t-72 -38t-49 -54t-17 -62.5 v-293q76 -10 136 -48t99 -95.5t53.5 -129t-8.5 -149.5l-33 -16q-14 -6 -25 -11.5t-16 -5.5q-66 2 -128 28t-111 67t-80 93t-31 114zM238 279q0 -25 14 -52.5t42 -50t62.5 -41t75.5 -22.5q0 41 -14.5 78.5t-41 67.5t-62 49.5t-76.5 27.5v-57z" />
<glyph unicode="&#xaa6f;" horiz-adv-x="1243" d="M90 840q0 39 14.5 73.5t41 60t60.5 40t73 14.5h139q43 0 83 -19.5t64 -50.5q49 33 106.5 52.5t123.5 17.5q72 0 138 -24.5t115.5 -67.5t79 -97.5t29.5 -113.5v-449q0 -59 -30.5 -111t-79 -93t-111 -66.5t-129.5 -28.5q-68 -6 -138.5 18.5t-126 64.5t-90 95.5t-34.5 120.5 v433q0 73 45 143q-4 16 -17.5 24.5t-27.5 8.5h-139q-18 0 -30.5 -13.5t-12.5 -31.5l2 -865h-146zM561 276q0 -29 19.5 -58.5t53.5 -55t76 -39.5t91 -12q43 2 83 18t68.5 40t45 53.5t16.5 53.5v449q0 31 -17.5 62.5t-48 54t-70.5 38t-87 15.5q-45 0 -87 -17.5t-74 -45 t-50.5 -59t-18.5 -64.5v-433z" />
<glyph unicode="&#xaa70;" horiz-adv-x="1490" d="M88 244v469q0 59 32 117.5t83 102.5t117.5 70.5t140.5 24.5q90 -2 168 -38t129 -95q51 61 130 98t167 35q72 0 138.5 -24.5t115.5 -66.5t78.5 -96.5t29.5 -113.5v-444q0 -59 -30.5 -111.5t-78.5 -93.5t-111.5 -65.5t-127.5 -28.5q-16 -2 -37 0q-2 16 -6 50t-12 85 q12 -2 24.5 -2h22.5q45 0 85 17.5t68.5 41t44 52t15.5 55.5v444q0 33 -17.5 62.5t-47 53t-71.5 39t-85 15.5q-47 0 -88 -17.5t-73 -45t-50.5 -59.5t-18.5 -62v-4v-465q0 -43 -15 -84t-45 -75t-68 -61.5t-81 -48.5l-51 125q53 25 86 65t33 79v483q0 33 -17.5 62.5t-49 53 t-70.5 39t-86 15.5q-45 0 -87 -17.5t-73 -45t-49.5 -59.5t-18.5 -62v-301q61 -25 107.5 -65t71 -93t27.5 -115.5t-23 -130.5l-115 -31q-45 20 -83 47t-67.5 61t-45 74t-15.5 85zM231 244q0 -37 31 -77t82 -65q0 63 -29.5 116.5t-83.5 86.5v-61z" />
<glyph unicode="&#xaa71;" d="M-719 1337q70 53 148.5 79t159.5 26t159 -25.5t150 -79.5l-64 -86q-57 43 -118.5 63.5t-125 20.5t-127 -20.5t-118.5 -63.5zM-688 1151q61 53 132 76.5t144.5 23.5t145 -24.5t133.5 -75.5l-68 -88q-45 41 -97 59.5t-106.5 20.5t-106.5 -15.5t-99 -52.5z" />
<glyph unicode="&#xaa72;" horiz-adv-x="1785" d="M80 207v100q0 53 18.5 90t44 60.5t57 32t60.5 4t50.5 -18.5t27.5 -39q16 -20 34.5 -88.5t35.5 -187.5q6 23 7 54.5t1 78.5v418q0 59 30.5 115.5t81 99.5t116.5 69.5t138 26.5q33 0 71 -9t76 -25.5t74.5 -41t63.5 -55.5q51 57 129 94t164 37q70 0 135.5 -24.5t113.5 -65.5 t77.5 -94.5t29.5 -110.5v-442q0 -57 -30.5 -109.5t-77.5 -91.5t-108.5 -63.5t-125.5 -28.5q-80 -2 -160.5 27.5t-136.5 84.5q-27 -35 -64.5 -61.5t-82.5 -44.5l-47 121q49 23 80.5 60.5t33.5 72.5q0 2 -1 23.5t-1 52v64.5v169t1 155.5t1 22.5q-4 29 -22.5 56.5t-48 49 t-67.5 35t-79 13.5q-45 0 -86 -17.5t-70.5 -44t-48 -58.5t-18.5 -62v-416q0 -70 -10 -121t-28.5 -85t-43 -52.5t-53.5 -28.5v-12t2 -10l-109 -17l-4 25h-18q-35 0 -73 13t-69.5 40t-51 67t-19.5 93zM221 262q0 -51 15.5 -92t56.5 -53q-16 78 -31.5 133t-40.5 80v-68z M1137 266q6 -29 28.5 -54.5t52 -46t68.5 -33.5t82 -11t81 18.5t65.5 41t44 52t16.5 52.5v442q0 31 -17.5 60.5t-46 51t-68.5 37t-85 15.5q-41 2 -78 -12.5t-66.5 -37t-50 -51t-26.5 -59.5v-465z" />
<glyph unicode="&#xaa73;" horiz-adv-x="1132" d="M92 -25v865q0 39 13.5 73.5t41 60t61.5 40t75 14.5q47 0 79.5 -16.5t54 -44t31 -60.5t9.5 -67v-16q0 -17 1 -39.5t1 -55.5v-65v-385q0 -31 19.5 -60t52 -55.5t76.5 -40.5t89 -12q47 2 86 18t68 40t45 53.5t16 56.5v479q0 43 -32.5 83t-83.5 64l51 123q47 -20 85 -49 t65.5 -63.5t44 -74.5t16.5 -83v-479q0 -61 -31 -113.5t-80 -93.5t-111.5 -66.5t-127.5 -28.5q-72 -4 -140.5 19.5t-125 63.5t-91.5 96.5t-35 122.5v561q-2 20 -9 32.5t-23 12.5q-18 0 -30.5 -13.5t-12.5 -31.5v-865h-148z" />
<glyph unicode="&#xaa74;" horiz-adv-x="1040" d="M92 252v426q0 39 14.5 74.5t41 68.5t62.5 57.5t75 43.5l45 -113q-45 -25 -76 -61.5t-31 -69.5v-426q0 -29 16.5 -56.5t44 -49t64.5 -35t78 -13.5q61 -2 111.5 28t74.5 73q-70 31 -115.5 85t-67 223t-15.5 239.5t41 134.5v6q10 12 20 27.5t23 31.5q23 -6 42 -12t35 -12 q39 -18 74 -43t60.5 -56.5t40 -68.5t14.5 -76v-412q0 -59 -31 -113.5t-82 -97.5v-415l189 -66v1116q2 55 -1 86t-20.5 96.5t-53.5 98.5t-97 45q-57 4 -107.5 28.5t-86.5 61.5t-57.5 86t-21.5 106q0 55 23.5 108.5t64.5 91.5t95.5 59.5t115.5 21.5q51 0 97.5 -15.5t83 -41 t64.5 -63.5t42 -83l-123 -30q-14 49 -60 81.5t-104 32.5q-37 0 -67.5 -13t-55 -34.5t-38 -51.5t-13.5 -63q0 -68 45 -113.5t111 -51.5h3h3h4q129 -25 201 -115q37 -55 57.5 -148.5t22.5 -111.5v-1268q0 -27 -19.5 -46t-44.5 -19l-272 86q-20 -35 -55 -55.5t-80 -20.5 q-31 0 -57.5 11t-48 31.5t-33 47t-11.5 57.5q0 33 11.5 60.5t33 48t48 32t57.5 11.5h26v256q-45 -14 -100 -15q-63 2 -123.5 26t-107 61.5t-73 86t-26.5 103.5zM449 -418q0 -18 14 -30.5t33 -12.5q20 0 34.5 12.5t14.5 30.5q0 20 -14.5 35.5t-34.5 15.5q-18 0 -32.5 -15 t-14.5 -36zM507 722q-1 -44 15.5 -189.5t45 -179.5t67.5 -54v379q0 33 -30 68.5t-77 60.5h-2q-18 -41 -19 -85z" />
<glyph unicode="&#xaa75;" horiz-adv-x="1595" d="M82 -10l39 110q29 -16 53.5 -16t41.5 8t28.5 21.5t11.5 25.5q0 16 -18.5 31.5t-36.5 28.5q-115 80 -115 196v258q0 57 28.5 110.5t76 93.5t107.5 64.5t128 24.5q82 -2 154.5 -35.5t117.5 -87.5q47 55 119 90t150 33q70 -2 129 -25.5t104 -60.5t72.5 -86t27.5 -102v-426 q0 -57 -29.5 -107.5t-80.5 -89.5v-409l190 -66l2 840q0 266 -4 329.5t-21.5 120t-52 98.5t-98.5 54q-55 4 -104 27.5t-86 61.5t-57.5 87t-20.5 106q0 55 23.5 107.5t63.5 91.5t94.5 59.5t115.5 20.5q51 0 97 -15.5t84 -41t64.5 -63.5t41.5 -83l-121 -31q-16 49 -60.5 83 t-105.5 34q-35 0 -66.5 -13t-55 -34.5t-38 -51.5t-14.5 -63q0 -35 13 -63.5t33.5 -50t49.5 -35.5t64 -16h6q70 -12 119 -44t86 -88q18 -29 32.5 -63.5t22.5 -76.5t14 -85t6 -86v-1200q0 -27 -18.5 -46t-44.5 -19l-275 86q-18 -37 -54 -57.5t-77 -20.5q-33 0 -59.5 11 t-47 32.5t-31.5 48t-11 59.5t11 59.5t31.5 48t47.5 32t59 10.5h25v383q49 20 77.5 57t28.5 72v426q0 27 -16 54.5t-44 49t-64.5 35.5t-77.5 14t-79 -15t-65.5 -41t-45 -55.5t-17.5 -60.5v-434q0 -39 -15.5 -74.5t-42 -67.5t-61.5 -57.5t-76 -44.5l-45 113q49 23 79 60.5 t30 70.5v453q0 27 -16.5 54.5t-44 49t-64.5 35.5t-78 14q-43 0 -81 -15t-66.5 -41t-45 -55.5t-16.5 -60.5v-258q0 -27 21.5 -55.5t50.5 -54.5q33 -25 62.5 -58.5t29.5 -87.5q0 -57 -29.5 -94t-76 -55.5t-96.5 -18.5t-97 19zM989 -416q0 -20 14.5 -32.5t34.5 -12.5t34.5 12.5 t14.5 32.5t-14.5 33.5t-34.5 13.5t-34.5 -13t-14.5 -34z" />
<glyph unicode="&#xaa76;" horiz-adv-x="1490" d="M70 831q49 51 117.5 84t150.5 33q80 -2 151.5 -35.5t118.5 -87.5q47 55 120 89t151 34q68 0 127 -23.5t104 -61.5t72.5 -87t27.5 -104v-424q0 -57 -29.5 -108.5t-78.5 -88.5v-411l188 -66l2 1053q2 57 -2 119.5t-22.5 119t-53 98.5t-98.5 54q-57 4 -105 28.5t-85 61.5 t-57.5 86t-20.5 104q0 59 23.5 110.5t63.5 90.5t95 60.5t119 21.5q49 0 95 -15.5t84 -41t65.5 -63.5t38.5 -81l-119 -32q-16 49 -61.5 82.5t-102.5 33.5q-37 0 -69.5 -13t-56.5 -36.5t-37 -51.5t-13 -65q0 -66 45 -111.5t115 -51.5v-2h4q70 -12 119 -44t87 -90 q18 -27 33 -62.5t24 -75.5t14 -83t7 -84v-1204q0 -27 -19.5 -46t-45.5 -19l-275 86q-20 -37 -54 -57.5t-77 -20.5q-31 0 -59.5 11t-50 32.5t-31.5 48t-10 59.5t10 59.5t31.5 48t50.5 32t59 10.5h12.5h12.5v383q47 20 75.5 57t28.5 74v424q0 27 -15 54.5t-43 50t-64.5 35.5 t-79.5 13q-41 0 -79 -14t-67 -40t-46 -55.5t-17 -60.5v-2l-2 -1155q0 -25 -18.5 -44t-45.5 -19l-199 -2l-245 2q-25 0 -44.5 19.5t-19.5 43.5v113q0 14 3 38.5t13.5 50.5t37 47.5t71.5 31.5q39 8 78 -1t69.5 -25.5t57.5 -37t43 -34.5l-92 -95q-8 10 -33 29.5t-50.5 31 t-47 8.5t-23.5 -40v-51h176h142v1108q0 27 -16.5 54.5t-44 50t-64.5 35.5t-78 13q-55 2 -99 -22.5t-77 -59.5zM899 -416q0 -20 15.5 -32.5t35.5 -12.5q18 0 32.5 12.5t14.5 32.5t-14.5 34.5t-32.5 14.5q-20 0 -35.5 -14t-15.5 -35z" />
<glyph unicode="&#xaa77;" horiz-adv-x="954" d="M82 2l39 119q33 -14 59.5 -13t46 9t30.5 23.5t11 27.5q0 20 -19.5 34.5t-39.5 26.5q-125 86 -125 220v260q0 59 31.5 116.5t82 100.5t118 69.5t137.5 26.5q51 0 113.5 -20.5t116.5 -60.5t91 -98.5t37 -133.5v-985q0 -20 11.5 -34t33.5 -14h55q18 0 30.5 14t12.5 34v22 l140 -47q-4 -35 -19.5 -64.5t-40 -50t-56.5 -34t-67 -13.5h-55q-41 0 -73.5 14.5t-57.5 40t-39 59.5t-14 73v155q-29 -45 -52.5 -87t-41 -76.5t-28.5 -61.5t-11 -41q2 -35 9 -58.5t19.5 -40t26.5 -27.5t29 -22l-121 -57q-29 25 -51 53q-18 27 -34 61t-14 70q0 39 17.5 88.5 t44.5 102.5t59.5 111.5t62 115t51 111.5t34.5 104v8v11v4v475q0 31 -18.5 60.5t-47 53t-69.5 39t-86 17.5q-45 0 -86 -17.5t-71 -45t-48.5 -59.5t-18.5 -62v-260q0 -33 21.5 -65t56.5 -56q37 -29 66.5 -66t29.5 -94q0 -63 -30.5 -103t-78.5 -59.5t-104.5 -19.5t-105.5 16z M168 1303q0 55 22.5 106t62.5 89t92 57.5t114 19.5q49 0 95 -14.5t83 -40t64.5 -63.5t39.5 -81l-127 -33q-8 25 -21 45.5t-33.5 35t-46.5 22.5t-54 8q-33 0 -61.5 -12t-52 -31.5t-35 -47.5t-11.5 -60q0 -33 11.5 -59.5t35 -48t52 -33t61.5 -11.5h18h19l-4 -123 q-6 -2 -14.5 -2h-18.5q-61 0 -113.5 22.5t-92.5 59.5t-62.5 87t-22.5 108z" />
<glyph unicode="&#xaa78;" horiz-adv-x="1775" d="M37 82q74 72 110.5 159t38.5 282.5t-32.5 282.5t-106.5 157l109 100q90 -94 135 -207t43 -336t-50 -335.5t-143 -204.5zM240 51q66 84 156.5 135.5t189 65.5t198 -6.5t185.5 -83.5q8 109 31.5 329t59.5 330.5t83 214t102 191.5t116.5 154.5t125.5 105.5q23 14 55.5 25.5 t69.5 13.5t78 -11.5t82 -50.5l-21 -147q-72 61 -133.5 60t-116.5 -36q-102 -111 -175 -247t-121 -279t-73.5 -392t-35.5 -374l-131 -88q-59 74 -139.5 112t-164 39t-164.5 -37t-141 -114zM311 948l84 103q57 -74 129 -111t145.5 -38t145.5 33t133 105l80 -108 q-78 -92 -171 -135t-188.5 -41t-188.5 50t-169 142z" />
<glyph unicode="&#xaa79;" horiz-adv-x="897" d="M82 4l41 123q31 -16 57.5 -16t46 8t30.5 22.5t11 28.5q0 20 -19.5 34.5t-39.5 26.5q-59 43 -92 98.5t-33 121.5v260q0 61 31.5 118.5t83 100.5t118 69.5t140.5 26.5q49 0 112.5 -20.5t118.5 -59.5t92 -98.5t37 -136.5l-2 -455v-11v-12q-4 -41 -19.5 -95t-36 -110.5 t-44 -113.5t-43 -107.5t-30.5 -89.5t-9 -61q0 -35 9 -61.5t20.5 -47t27 -37t25.5 -28.5l-121 -60q-29 33 -51 70q-18 31 -32.5 70t-14.5 78q0 59 25.5 137t59 159.5t62.5 163.5t31 154v475q0 33 -17.5 61.5t-48 52t-70.5 38t-85 14.5t-87 -17.5t-72 -44t-48.5 -58.5 t-18.5 -64v-260q0 -31 22.5 -63t55.5 -58q39 -29 70 -67t31 -93q0 -61 -33 -102t-81 -59.5t-104.5 -19.5t-105.5 15z" />
<glyph unicode="&#xaa7a;" horiz-adv-x="1728" d="M86 -508v1884q0 27 21.5 48.5t48.5 21.5h766v129h137v-199q0 -29 -20.5 -49t-47.5 -20h-764v-1745h695v1143q0 31 -18.5 62.5t-49.5 58t-71 43t-85 16.5t-84 -14.5t-69.5 -39t-48 -53t-17.5 -59.5v-445q0 -25 15.5 -53t44 -51t66.5 -38t83 -17h24.5t20.5 2 q-6 -53 -10 -86t-8 -49q-16 -2 -35 0q-63 6 -124.5 29.5t-111 64.5t-77 91t-27.5 107v445q0 57 27.5 110.5t78 95.5t115 66.5t135.5 24.5q70 0 136.5 -24.5t117.5 -69.5t81 -101.5t30 -115.5v-420q0 -29 19.5 -60.5t51 -55.5t70.5 -39t82 -15q45 0 85 13t69.5 37.5t47 53.5 t17.5 57v447q0 23 -15 50.5t-44 52t-68 41t-82 18.5q-25 4 -47 -4q8 51 12.5 84.5t8.5 50.5h37q63 -2 124.5 -27.5t108.5 -65.5t78 -92.5t31 -107.5v-447q0 -57 -30 -109t-79 -94t-114.5 -66.5t-135.5 -26.5q-63 0 -121.5 21.5t-107.5 57.5l2 -567q0 -31 -20.5 -50.5 t-49.5 -19.5h-835q-27 0 -48.5 19.5t-21.5 50.5z" />
<glyph unicode="&#xaa7b;" horiz-adv-x="503" d="M84 145q0 35 13.5 65t36 52.5t53 35.5t65.5 13q33 0 63.5 -13t54 -35.5t37 -52.5t13.5 -65q0 -59 -35 -103t-86 -60l100 -175l-108 -61l-178 305q-29 41 -29 94zM199 145q0 -27 15 -40t38 -13t38 13.5t15 39.5q0 18 -15 33t-38 15t-38 -14.5t-15 -33.5z" />
<glyph unicode="&#xe000;" horiz-adv-x="1443" d="M0 0v1444h1444v-1444h-1444z" />
</font>
</defs>
</svg>
