<?xml version="1.0" standalone="no"?>
<!DOCTYPE svg PUBLIC "-//W3C//DTD SVG 1.1//EN" "http://www.w3.org/Graphics/SVG/1.1/DTD/svg11.dtd" >
<svg xmlns="http://www.w3.org/2000/svg">
<metadata></metadata>
<defs>
<font id="ayar_pyathoregular" horiz-adv-x="0" >
<font-face units-per-em="1000" ascent="800" descent="-200" />
<missing-glyph horiz-adv-x="228" />
<glyph unicode="&#x100a;&#x1039;&#x100a;" horiz-adv-x="729" d="M32 397q12 28 32.5 50.5t46.5 38t55.5 24t59.5 8.5q33 -2 66 -15t58.5 -34.5t41.5 -49t16 -58.5v-218q1 -12 10 -25.5t23 -24.5t31.5 -18t36.5 -7q20 0 38 6.5t31.5 17t21.5 24t8 26.5v218q0 12 -7 24t-20 22.5t-30 17.5t-37 9h-9.5t-9.5 -1q-1 0 -8 -0.5t-9 -0.5l13 87 h27q34 -2 66 -15.5t57.5 -34.5t41 -49t15.5 -59v-218q0 -32 -15 -60.5t-41 -49.5t-60.5 -34t-72.5 -14q-40 0 -78.5 15.5t-66.5 44.5q-26 -27 -64 -42.5t-80 -17.5q-45 0 -81 15v-281h251v-90h-296q-17 0 -31 13.5t-14 31.5v403l-17 34l82 45q3 -15 12.5 -30.5t23.5 -28 t31 -20.5t36 -8q41 2 70 23.5t31 47.5v222q0 11 -7.5 23t-21 22.5t-31 17.5t-38.5 9q-20 0 -38.5 -8t-32.5 -20t-23.5 -26.5t-12.5 -28.5zM441 -76q9 22 30.5 34.5t44.5 12.5q13 -1 25.5 -6t22.5 -13.5t16 -19t6 -22.5v-84q2 -9 13.5 -18.5t25.5 -9.5q16 0 27 9t11 19v84 q0 9 -10 17.5t-26 10.5h-7q-1 0 -3.5 -0.5t-3.5 -0.5l5 34h11q13 -1 25 -6t22 -13.5t16 -19t6 -22.5v-84q0 -25 -22 -42.5t-51 -18.5q-15 0 -30 6t-26 17q-10 -11 -24.5 -16.5t-30.5 -6.5q-18 0 -31 6v-108h181v21h34v-39q0 -7 -5 -12t-12 -5h-216q-6 0 -11.5 5t-5.5 12v156 l-7 13l32 17q2 -11 13.5 -22t26.5 -11q15 1 26 9t13 18v85q0 9 -11 18t-27 10q-16 0 -27.5 -10.5t-13.5 -21.5z" />
<glyph unicode="&#x1039;&#x100c;" d="M-627 -338l-54 55v200l54 54h79v-109h-24v-91h142v146l54 54h277l55 -54v-200l-55 -55h-54v200h-168v-145l-55 -55h-251z" />
<glyph unicode="&#x100b;&#x1039;&#x100c;" horiz-adv-x="373" d="M341 54l-56 -54h-201l-54 54v415l54 54h201l56 -54v-55h-202v-305h202v-55zM341 -283l-56 -55h-201l-54 55v80h109v-26h92v114h-201v109h255l56 -55v-222z" />
<glyph unicode="&#x100d;&#x1039;&#x100e;" horiz-adv-x="371" d="M148 155h55v84h-55v15l15 15h55l15 -15v-114l-15 -15h-48v-16h73v414h43l55 -54v-360l-17 -28v-310h18l-2 -109h-70l-50 55v283h-136l-54 54v190l65 170h-65v109h120l54 -54v-43l-67 -179v-138h11v46z" />
<glyph unicode="&#x1009;&#x1039;&#x1005;" horiz-adv-x="368" d="M29 54l54 55h147v305h-201v55l54 54h201l56 -54v-415l-56 -54h-146v-229h202v-54l-56 -55h-201l-54 55v337zM340 -180l-34 -32h-120l-34 32v131l34 32h120l34 -32v-131zM218 -138v-10h56v66h-56v-7h24l14 -13v-24l-14 -12h-24zM218 -108v-11h17v11h-17z" />
<glyph unicode="&#x1009;&#x1039;&#x1007;" horiz-adv-x="371" d="M30 54l54 55h147v305h-201v55l54 54h201l56 -54v-415l-56 -54h-146v-229h202v-54l-56 -55h-201l-54 55v337zM338 -114l-17 -31l-44 19h-31l-15 14v36h-10v-78h109v-30l-30 -28h-109l-29 28v138l29 29h109l30 -29v-50l-11 -11zM271 -96v20h-11v-20h11z" />
<glyph unicode="&#x102b;&#x103a;" horiz-adv-x="184" d="M82 836l12 12h90v-109h-58v-739h-55l-54 54v684h-47v-184h-58l-50 52v187l54 54h155z" />
<glyph unicode="&#x102d;&#x1036;" horiz-adv-x="68" d="M-107 578l-54 -55h-200l-56 55v215l56 54h200l54 -54v-215zM-215 633v105h-93v-105h93zM49 580l-27 -26h-86l-26 26v134l26 27h86l27 -27v-134zM-4 605v83h-35v-83h35z" />
<glyph unicode="&#x1004;&#x103a;&#x1039;&#x102d;" horiz-adv-x="82" d="M12 581l-54 -56h-152l-54 56v214l54 54h152l54 -54v-214zM-75 635v105h-87v-105h87zM-337 716h32l36 -36v-25h-68v-36h68v-25l-36 -36h-57l-36 36v72l8 7l-8 7v101l36 36h57l36 -36v-25h-68v-40z" />
<glyph unicode="&#x1004;&#x103a;&#x1039;&#x102e;" horiz-adv-x="49" d="M21 582l-54 -56h-153l-54 56v214l54 54h153l54 -54v-214zM-74 636h7v105h-86v-105h8v43l13 13h43l15 -13v-43zM-117 636h15v28h-15v-28zM-329 717h33l36 -36v-25h-69v-36h69v-25l-36 -36h-58l-36 36v72l9 7l-9 7v101l36 36h58l36 -36v-25h-69v-40z" />
<glyph unicode="&#x1004;&#x103a;&#x1039;&#x1036;" horiz-adv-x="21" d="M-296 725h99l36 -36v-36h-135v-47h135v-36l-36 -36h-135l-36 36v104l7 8l-7 8v121l36 36h135l36 -36v-36h-135v-50zM1 580l-27 -26h-86l-26 26v134l26 27h86l27 -27v-134zM-52 605v83h-35v-83h35z" />
<glyph unicode="&#x1004;&#x103a;&#x1039;" d="M-212 725h99l36 -36v-36h-135v-47h135v-36l-36 -36h-135l-36 36v104l7 8l-7 8v121l36 36h135l36 -36v-36h-135v-50z" />
<glyph unicode="&#x103e;&#x1030;" d="M-254 -283l-54 -55h-66v109h33v236h87v-290zM-8 -338h-66l-54 55v290h87v-236h33v-109zM-147 -338h-87v345h87v-345z" />
<glyph unicode="&#x103b;&#x103e;" horiz-adv-x="118" d="M-230 -233h86v233h109v-186l40 -19v729h54l55 -54v-764l-80 -48l-125 65l-54 -64h-85v108z" />
<glyph unicode="&#x103d;&#x103e;" d="M-142 -228l-28 66l-29 -66h57zM-297 -314l-24 -24h-54v110h59l97 228h101l107 -262l-51 -76h-218z" />
<glyph unicode="&#x100a;&#x1039;&#x1009;" horiz-adv-x="997" d="M33 394q10 26 30.5 48t46 38t55 24t58.5 7q33 -2 65 -14.5t56.5 -33t40 -47.5t15.5 -58v-220v1q1 -14 9 -26.5t21.5 -23t31 -16.5t36.5 -6t36.5 6t30 16t20.5 22.5t9 25.5l3 -8l-2 4q-1 2 -1 7v4v5v209q0 11 -7 23t-20 21.5t-30 16.5t-37 8h-12h-20l8 52q3 15 3 32h27 q33 -2 64.5 -14.5t56 -33t39.5 -47.5t15 -58v-213q0 -13 8 -27t22 -25t31.5 -18.5t37.5 -7.5t37.5 6t30.5 16t20.5 22.5t7.5 26.5v220q0 11 -7 23t-19.5 22t-29.5 17t-36 8h1q-5 0 -11 -0.5t-24 -2.5q2 12 4 25.5t3.5 25.5t3 21.5t1.5 13.5h26q33 -2 65 -14.5t56.5 -33 t40 -47.5t15.5 -58v-220q0 -30 -15 -58t-40.5 -49.5t-59 -34t-69.5 -12.5h1q-42 -2 -78 15t-64 43q-26 -26 -62 -42t-79 -16q-42 0 -78.5 16t-64.5 42q-25 -26 -61.5 -41.5t-78.5 -16.5q-23 -1 -40.5 2t-36.5 11v-282h725v56h86v-99q0 -19 -12 -31.5t-31 -12.5h-813 q-16 0 -29 12.5t-13 31.5v397q-5 8 -9 17.5t-8 20.5l83 45q0 -2 6 -15t18 -29t30.5 -28.5t42.5 -12.5q19 0 36.5 6t30.5 15.5t20.5 22t8.5 25.5v-1v167v56q0 11 -7 23t-19.5 21.5t-29.5 16.5t-36 8q-20 2 -38 -5t-32.5 -19t-23.5 -27t-11 -28z" />
<glyph unicode="&#x1009;&#x1039;&#x1006;" horiz-adv-x="472" d="M30 54l54 55h147v305h-201v55l54 54h201l56 -54v-417l-53 -52h-149v-229h315v24h88v-78l-55 -55h-403l-54 55v337zM391 -160v78h-59v-78h59zM271 -160v7h-59v-7h59zM301 -216l-2 -4h-117l-30 30v67l30 30h81l8 -8v19h-119v30l30 31h117l2 -3l4 3h116l30 -31v-138l-30 -30 h-116z" />
<glyph unicode="&#x1009;&#x1039;&#x1008;" horiz-adv-x="576" d="M544 -301l-80 -48l-103 53v121l74 -37v729h54l55 -54v-764zM31 52l54 56h148v305h-202v55l54 54h202l55 -54v-416l-55 -53h-147v-230h202v-54l-55 -55h-202l-54 55v337zM343 -184l-32 -34h-118l-33 34v134l33 34h118l32 -34v-134zM224 -143v-8h56v68h-56v-7h25l12 -14 v-24l-12 -15h-25zM224 -110v-13h18v13h-18z" />
<glyph unicode="&#x1020;&#x103e;" horiz-adv-x="434" d="M184 -202h33v74h70v-109q0 -14 -10 -25t-26 -11h-67v71zM408 105q-7 -23 -16 -35v-150l-10 -5q-37 -21 -77 -31t-82 -10q-21 0 -47.5 2t-48.5 6v-165h191v39h89v-84q0 -17 -13.5 -30.5t-30.5 -13.5h-280q-17 0 -30.5 13.5t-13.5 30.5v298q6 28 26 28q9 0 18 -4 q12 -5 29 -10.5t36 -10t38 -7.5t35 -3q46 0 82 12v24q-18 -8 -37.5 -11t-40.5 -3h-11q-34 1 -66 14t-57 34t-40.5 48.5t-15.5 58.5v218q0 32 15 60.5t41 50t60 34.5t72 14q30 0 58.5 -10t53.5 -27.5t44 -40.5t28 -49l-80 -44q-3 15 -12.5 30t-23.5 27.5t-31 20.5t-36 8 q-20 -1 -38 -7.5t-32 -16.5t-22 -23t-8 -27v-218q0 -10 7 -22t20 -22.5t30.5 -18t37.5 -8.5h5q20 0 38 7.5t31.5 19.5t22.5 26.5t11 28.5z" />
<glyph unicode="&#x102d;&#x103e;&#x102f;" d="M-94 -341h-85l-55 55v286h108v-233h32v-108zM-390 -233h32v233h108v-286l-55 -55h-85v108zM-58 578l-54 -55h-200l-56 55v215l56 54h200l54 -54v-215zM-166 633v105h-93v-105h93z" />
<glyph unicode="&#x1036;&#x103e;&#x102f;" d="M-99 -341h-85l-55 55v286h108v-233h32v-108zM-395 -233h32v233h108v-286l-55 -55h-85v108zM-148 580l-27 -26h-86l-26 26v134l26 27h86l27 -27v-134zM-201 605v83h-35v-83h35z" />
<glyph unicode=" "  horiz-adv-x="228" />
<glyph unicode="&#x09;" horiz-adv-x="228" />
<glyph unicode="&#xa0;" horiz-adv-x="228" />
<glyph unicode="!" horiz-adv-x="245" d="M196 706v-206l-42 -297h-63l-42 297v206h147zM51 0v137h143v-137h-143z" />
<glyph unicode="&#x22;" horiz-adv-x="331" d="M198 702h94v-273h-94v273zM39 702h94v-273h-94v273z" />
<glyph unicode="#" horiz-adv-x="769" d="M346 414l-43 -119h123l42 119h-122zM346 715h108l-71 -203h118l72 203h108l-72 -203h138l-36 -98h-137l-41 -118h142l-35 -98h-142l-72 -203h-108l72 203h-119l-73 -203h-107l71 203h-140l37 98h138l42 118h-146l36 98h145z" />
<glyph unicode="$" horiz-adv-x="456" d="M271 0v-79h-87v79h-41l-105 97v129h148v-92h83v146l-116 11l-115 104v214l105 97h41v79h87v-79h42l105 -97v-123h-149v86h-83v-142l117 -11l115 -104v-218l-105 -97h-42z" />
<glyph unicode="%" horiz-adv-x="648" d="M352 62v230l65 62h136l65 -62v-230l-65 -62h-125zM451 90h68v174h-68v-174zM130 442h67v174h-67v-174zM30 414v230l65 62h136l65 -62v-230l-65 -62h-125zM66 27l459 681l57 -30l-460 -684z" />
<glyph unicode="&#x26;" horiz-adv-x="593" d="M134 358l-79 70v185l100 93h167l100 -93v-126l-71 -81l43 -70l28 52h141l-96 -167l139 -221h-154l-58 95l-53 -95h-192l-105 97v192zM289 431v141h-97v-141h97zM192 134h92l43 75l-54 91h-81v-166z" />
<glyph unicode="'" horiz-adv-x="172" d="M39 702h94v-273h-94v273z" />
<glyph unicode="(" horiz-adv-x="343" d="M204 50h122v-79h-114l-113 111v544l113 109h114v-79h-122v-606z" />
<glyph unicode=")" horiz-adv-x="343" d="M139 656h-122v79h114l113 -111v-544l-113 -109h-114v79h122v606z" />
<glyph unicode="*" horiz-adv-x="435" d="M114 387l-40 41l74 74h-105v58h105l-74 74l41 41l74 -74v105h58v-105l74 74l40 -41l-74 -74h105v-58h-105l74 -74l-40 -40l-74 74v-106h-58v106z" />
<glyph unicode="+" horiz-adv-x="833" d="M367 596h99v-249h243v-97h-243v-250h-99v250h-243v97h243v249z" />
<glyph unicode="," horiz-adv-x="228" d="M47 0v139h134v-121l-85 -133l-59 36l57 79h-47z" />
<glyph unicode="-" horiz-adv-x="273" d="M44 273v93h185v-93h-185z" />
<glyph unicode="." horiz-adv-x="228" d="M40 0v139h148v-139h-148z" />
<glyph unicode="/" horiz-adv-x="234" d="M214 706l-134 -799h-77l133 799h78z" />
<glyph unicode="0" horiz-adv-x="456" d="M179 134h98v438h-98v-438zM31 97v512l105 97h184l105 -97v-512l-105 -97h-184z" />
<glyph unicode="1" horiz-adv-x="456" d="M158 0v572h-85v103l127 31h106v-706h-148z" />
<glyph unicode="2" horiz-adv-x="456" d="M179 134h246v-134h-394v240l246 224v108h-98v-93h-141v130l98 97h184l105 -97v-190l-246 -231v-54z" />
<glyph unicode="3" horiz-adv-x="456" d="M25 97v130h144v-93h102v158h-104v128h104v153h-102v-87h-144v123l105 97h172l105 -97v-172l-80 -79l92 -80v-181l-105 -97h-184z" />
<glyph unicode="4" horiz-adv-x="456" d="M246 263v240l-125 -240h125zM254 0v140h-200l-47 131l238 435h151v-443h64v-123h-64v-140h-142z" />
<glyph unicode="5" horiz-adv-x="456" d="M29 97v141h144v-103h102v170h-130l-104 97v304h333v-134h-197v-131h141l105 -98v-246l-105 -97h-184z" />
<glyph unicode="6" horiz-adv-x="456" d="M181 134h97v153h-97v-153zM32 97v512l105 97h184l105 -97v-132h-144v95h-101v-149h140l105 -97v-229l-105 -97h-184z" />
<glyph unicode="7" horiz-adv-x="456" d="M53 0l217 572h-103v-65h-130v199h371v-134l-198 -572h-157z" />
<glyph unicode="8" horiz-adv-x="456" d="M178 572v-153h102v153h-102zM137 0l-104 97v192l92 72l-80 76v172l104 97h158l103 -97v-172l-79 -76l91 -72v-192l-103 -97h-182zM178 134h102v158h-102v-158z" />
<glyph unicode="9" horiz-adv-x="456" d="M275 572h-97v-153h97v153zM424 609v-512l-105 -97h-184l-105 97v132h144v-95h101v149h-140l-105 97v229l105 97h184z" />
<glyph unicode=":" horiz-adv-x="251" d="M51 194v139h149v-139h-149zM51 0v139h149v-139h-149z" />
<glyph unicode=";" horiz-adv-x="251" d="M58 0v139h135v-121l-86 -133l-58 36l56 79h-47zM58 194v139h135v-139h-135z" />
<glyph unicode="&#x3c;" horiz-adv-x="833" d="M704 583v-107l-436 -178l436 -178v-107l-575 237v97z" />
<glyph unicode="=" horiz-adv-x="833" d="M124 242h585v-97h-585v97zM124 452h585v-97h-585v97z" />
<glyph unicode="&#x3e;" horiz-adv-x="833" d="M129 583l575 -236v-97l-575 -237v107l437 178l-437 178v107z" />
<glyph unicode="?" horiz-adv-x="444" d="M152 203v152l112 102v119h-85v-130h-143v163l105 97h163l105 -97v-184l-114 -108v-114h-143zM152 0v137h143v-137h-143z" />
<glyph unicode="@" horiz-adv-x="1000" d="M570 133q-27 -41 -62 -60.5t-83 -19.5q-77 0 -117.5 42t-40.5 124q0 117 68 196t168 79q39 0 68 -16t47 -48l26 48h87l-72 -292q-1 -5 -2 -11t-1 -9q0 -17 11.5 -25.5t34.5 -8.5q19 0 40 9.5t39 27.5q42 39 63.5 91t21.5 115q0 117 -90.5 192.5t-233.5 75.5 q-69 0 -128.5 -16.5t-107.5 -49.5q-83 -56 -127.5 -139.5t-44.5 -182.5q0 -150 101 -239.5t270 -89.5q79 0 154.5 24t140.5 69l40 -57q-75 -56 -158.5 -84.5t-174.5 -28.5q-94 0 -172.5 23.5t-139.5 70.5q-76 59 -113.5 136t-37.5 175q0 81 25.5 155t75.5 135 q72 88 173.5 133.5t226.5 45.5q82 0 154.5 -22t126.5 -63q66 -51 98.5 -116.5t32.5 -148.5q0 -81 -32 -149t-92 -116q-34 -27 -74.5 -41.5t-83.5 -14.5q-52 0 -78 20.5t-27 60.5zM594 342q-6 39 -28 60t-57 21q-56 0 -97 -60.5t-41 -145.5q0 -45 20 -68.5t57 -23.5 q41 0 74.5 31t45.5 80z" />
<glyph unicode="A" horiz-adv-x="465" d="M183 266h89l-36 308h-15zM6 0l108 706h237l104 -706h-150l-16 132h-123l-15 -132h-145z" />
<glyph unicode="B" horiz-adv-x="456" d="M280 421v151h-97v-151h97zM183 134h97v155h-97v-155zM35 0v706h282l100 -93v-185l-79 -70l90 -69v-192l-104 -97h-289z" />
<glyph unicode="C" horiz-adv-x="463" d="M320 706l108 -97v-173h-148v136h-101v-438h101v169h148v-206l-108 -97h-184l-105 97v512l105 97h184z" />
<glyph unicode="D" horiz-adv-x="463" d="M183 134h97v438h-97v-438zM35 0v706h289l104 -97v-512l-104 -97h-289z" />
<glyph unicode="E" horiz-adv-x="377" d="M35 0v706h313v-134h-165v-130h138v-134h-138v-174h165v-134h-313z" />
<glyph unicode="F" horiz-adv-x="366" d="M35 0v706h306v-134h-158v-130h131v-134h-131v-308h-148z" />
<glyph unicode="G" horiz-adv-x="463" d="M31 609l105 97h184l108 -97v-165h-148v128h-101v-438h101v104h-56v130h204v-271l-108 -97h-184l-105 97v512z" />
<glyph unicode="H" horiz-adv-x="468" d="M35 0v706h148v-290h102v290h148v-706h-148v282h-102v-282h-148z" />
<glyph unicode="I" horiz-adv-x="225" d="M38 0v706h148v-706h-148z" />
<glyph unicode="J" horiz-adv-x="426" d="M243 134v572h148v-609l-104 -97h-155l-104 97v190h148v-153h67z" />
<glyph unicode="K" horiz-adv-x="458" d="M35 0v706h148v-315l116 315h157l-140 -332l153 -374h-163l-123 326v-326h-148z" />
<glyph unicode="L" horiz-adv-x="384" d="M35 0v706h148v-572h176v-134h-324z" />
<glyph unicode="M" horiz-adv-x="572" d="M28 0v706h197l60 -371l61 371h198v-706h-137v528l-89 -528h-65l-89 534v-534h-136z" />
<glyph unicode="N" horiz-adv-x="461" d="M35 0v706h139l122 -396v396h130v-706h-130l-132 425v-425h-129z" />
<glyph unicode="O" horiz-adv-x="456" d="M179 134h98v438h-98v-438zM31 97v512l105 97h184l105 -97v-512l-105 -97h-184z" />
<glyph unicode="P" horiz-adv-x="447" d="M269 373v199h-86v-199h86zM35 0v706h268l114 -97v-273l-114 -98h-120v-238h-148z" />
<glyph unicode="Q" horiz-adv-x="456" d="M179 134h98v438h-98v-438zM31 97v512l105 97h184l105 -97v-465l-70 -64h77v-80h-296z" />
<glyph unicode="R" horiz-adv-x="451" d="M280 421v151h-97v-151h97zM35 0v706h282l100 -93v-185l-79 -70l90 -69v-289h-148v289h-97v-289h-148z" />
<glyph unicode="S" horiz-adv-x="463" d="M35 227h148v-93h97v146l-131 11l-114 104v214l104 97h170l105 -97v-132h-134v95h-97v-142l131 -11l114 -104v-218l-104 -97h-185l-104 97v130z" />
<glyph unicode="T" horiz-adv-x="389" d="M120 0v572h-104v134h357v-134h-104v-572h-149z" />
<glyph unicode="U" horiz-adv-x="463" d="M35 97v609h148v-572h97v572h148v-609l-104 -97h-185z" />
<glyph unicode="V" horiz-adv-x="426" d="M95 0l-89 706h154l52 -574h17l39 574h152l-84 -706h-241z" />
<glyph unicode="W" horiz-adv-x="565" d="M314 706l53 -381l54 381h146l-130 -706h-97l-58 413l-57 -413h-97l-131 706h148l54 -372l52 372h63z" />
<glyph unicode="X" horiz-adv-x="454" d="M2 0l134 370l-134 336h159l63 -190l49 190h152l-116 -336l136 -370h-160l-67 202l-60 -202h-156z" />
<glyph unicode="Y" horiz-adv-x="419" d="M284 299v-299h-149v299l-141 407h159l59 -233l59 233h153z" />
<glyph unicode="Z" horiz-adv-x="440" d="M96 0l-85 117l232 455h-178v134h266l90 -112l-234 -460h202v-134h-293z" />
<glyph unicode="[" horiz-adv-x="343" d="M211 35h110v-65h-215v764h215v-65h-110v-634z" />
<glyph unicode="\" horiz-adv-x="234" d="M154 -93l-134 799h77l134 -799h-77z" />
<glyph unicode="]" horiz-adv-x="343" d="M132 35v634h-110v65h214v-764h-214v65h110z" />
<glyph unicode="^" horiz-adv-x="1000" d="M438 713h123l235 -274h-115l-181 181l-182 -181h-115z" />
<glyph unicode="_" horiz-adv-x="500" d="M0 -136h500v-100h-500v100z" />
<glyph unicode="`" horiz-adv-x="500" d="M326 742h-65l-165 139h132z" />
<glyph unicode="a" horiz-adv-x="465" d="M183 266h89l-36 308h-15zM6 0l108 706h237l104 -706h-150l-16 132h-123l-15 -132h-145z" />
<glyph unicode="b" horiz-adv-x="456" d="M280 421v151h-97v-151h97zM183 134h97v155h-97v-155zM35 0v706h282l100 -93v-185l-79 -70l90 -69v-192l-104 -97h-289z" />
<glyph unicode="c" horiz-adv-x="463" d="M320 706l108 -97v-173h-148v136h-101v-438h101v169h148v-206l-108 -97h-184l-105 97v512l105 97h184z" />
<glyph unicode="d" horiz-adv-x="463" d="M183 134h97v438h-97v-438zM35 0v706h289l104 -97v-512l-104 -97h-289z" />
<glyph unicode="e" horiz-adv-x="377" d="M35 0v706h313v-134h-165v-130h138v-134h-138v-174h165v-134h-313z" />
<glyph unicode="f" horiz-adv-x="366" d="M35 0v706h306v-134h-158v-130h131v-134h-131v-308h-148z" />
<glyph unicode="g" horiz-adv-x="463" d="M31 609l105 97h184l108 -97v-165h-148v128h-101v-438h101v104h-56v130h204v-271l-108 -97h-184l-105 97v512z" />
<glyph unicode="h" horiz-adv-x="468" d="M35 0v706h148v-290h102v290h148v-706h-148v282h-102v-282h-148z" />
<glyph unicode="i" horiz-adv-x="225" d="M38 0v706h148v-706h-148z" />
<glyph unicode="j" horiz-adv-x="426" d="M243 134v572h148v-609l-104 -97h-155l-104 97v190h148v-153h67z" />
<glyph unicode="k" horiz-adv-x="458" d="M35 0v706h148v-315l116 315h157l-140 -332l153 -374h-163l-123 326v-326h-148z" />
<glyph unicode="l" horiz-adv-x="384" d="M35 0v706h148v-572h176v-134h-324z" />
<glyph unicode="m" horiz-adv-x="572" d="M28 0v706h197l60 -371l61 371h198v-706h-137v528l-89 -528h-65l-89 534v-534h-136z" />
<glyph unicode="n" horiz-adv-x="461" d="M35 0v706h139l122 -396v396h130v-706h-130l-132 425v-425h-129z" />
<glyph unicode="o" horiz-adv-x="456" d="M179 134h98v438h-98v-438zM31 97v512l105 97h184l105 -97v-512l-105 -97h-184z" />
<glyph unicode="p" horiz-adv-x="447" d="M269 373v199h-86v-199h86zM35 0v706h268l114 -97v-273l-114 -98h-120v-238h-148z" />
<glyph unicode="q" horiz-adv-x="456" d="M179 134h98v438h-98v-438zM31 97v512l105 97h184l105 -97v-465l-70 -64h77v-80h-296z" />
<glyph unicode="r" horiz-adv-x="451" d="M280 421v151h-97v-151h97zM35 0v706h282l100 -93v-185l-79 -70l90 -69v-289h-148v289h-97v-289h-148z" />
<glyph unicode="s" horiz-adv-x="463" d="M35 227h148v-93h97v146l-131 11l-114 104v214l104 97h170l105 -97v-132h-134v95h-97v-142l131 -11l114 -104v-218l-104 -97h-185l-104 97v130z" />
<glyph unicode="t" horiz-adv-x="389" d="M120 0v572h-104v134h357v-134h-104v-572h-149z" />
<glyph unicode="u" horiz-adv-x="463" d="M35 97v609h148v-572h97v572h148v-609l-104 -97h-185z" />
<glyph unicode="v" horiz-adv-x="426" d="M95 0l-89 706h154l52 -574h17l39 574h152l-84 -706h-241z" />
<glyph unicode="w" horiz-adv-x="565" d="M314 706l53 -381l54 381h146l-130 -706h-97l-58 413l-57 -413h-97l-131 706h148l54 -372l52 372h63z" />
<glyph unicode="x" horiz-adv-x="454" d="M2 0l134 370l-134 336h159l63 -190l49 190h152l-116 -336l136 -370h-160l-67 202l-60 -202h-156z" />
<glyph unicode="y" horiz-adv-x="419" d="M284 299v-299h-149v299l-141 407h159l59 -233l59 233h153z" />
<glyph unicode="z" horiz-adv-x="440" d="M96 0l-85 117l232 455h-178v134h266l90 -112l-234 -460h202v-134h-293z" />
<glyph unicode="{" horiz-adv-x="500" d="M431 721v-102q-4 0 -12 0.5t-11 0.5q-49 0 -66.5 -18.5t-17.5 -79.5v-117q0 -72 -22 -102.5t-79 -43.5q57 -13 79 -43t22 -102v-118q0 -60 17 -78.5t67 -18.5q3 0 11 0.5t12 0.5v-102q-7 0 -19 -0.5t-18 -0.5q-49 0 -81.5 6t-55.5 18q-28 16 -39.5 44.5t-11.5 97.5v123 q0 67 -25 95t-84 28q-3 0 -9.5 -0.5t-10.5 -0.5v102q4 0 10.5 -0.5t9.5 -0.5q59 0 84 28.5t25 95.5v122q0 70 11.5 98.5t39.5 44.5q23 12 55.5 18t81.5 6q6 0 18 -0.5t19 -0.5z" />
<glyph unicode="|" horiz-adv-x="500" d="M200 764h101v-1000h-101v1000z" />
<glyph unicode="}" horiz-adv-x="500" d="M70 721h33q54 0 86.5 -6t54.5 -18q28 -16 39.5 -45t11.5 -97v-123q0 -67 25 -95t84 -28q3 0 9.5 0.5t10.5 0.5v-102h-18q-61 0 -86 -27.5t-25 -94.5v-123q0 -70 -11.5 -98.5t-39.5 -43.5q-23 -12 -55.5 -18t-81.5 -6q-6 0 -18 0.5t-19 0.5v102q4 0 12 -0.5t11 -0.5 q49 0 66.5 19t17.5 78v117q0 73 22 103t79 43q-57 13 -79 43.5t-22 102.5v118q0 60 -17.5 78.5t-66.5 18.5q-3 0 -11 -0.5t-12 -0.5v102z" />
<glyph unicode="~" horiz-adv-x="833" d="M747 392v-108q-51 -34 -96 -50.5t-89 -16.5q-22 0 -44.5 4t-45.5 11q-12 4 -35 12q-106 37 -162 37q-42 0 -87 -18.5t-101 -58.5v108q52 35 99.5 52.5t89.5 17.5q57 0 142 -28q1 -1 2 -1l27 -9q75 -27 117 -27q41 0 85 18t98 57z" />
<glyph unicode="&#xa1;" horiz-adv-x="298" d="M99 -36l22 341h52l24 -341v-143h-98v143zM103 465h90v-90h-90v90z" />
<glyph unicode="&#xa2;" horiz-adv-x="495" d="M456 162q-16 -87 -72 -130.5t-125 -43.5q-22 0 -45 6l-51 -174l-50 14l51 175q-55 27 -85 84.5t-30 136.5q0 125 60.5 186.5t146.5 61.5q16 0 44 -4l50 170l48 -14l-49 -170q82 -36 99 -131l-77 -11q-9 47 -42 74l-98 -336q15 -4 27 -4q44 0 78 30.5t42 88.5zM283 413 q-89 7 -126 -58q-27 -45 -27 -120q0 -119 54 -158z" />
<glyph unicode="&#xa3;" horiz-adv-x="456" d="M28 304v41h66q-45 75 -48 153q2 79 53 129t139 50q74 0 128 -44t54 -148v-14h-77q7 43 -6.5 74.5t-41.5 47t-61 15.5q-50 0 -80 -32.5t-33 -85.5q3 -75 51 -145h147v-41h-129q14 -29 14 -66q0 -53 -34 -104.5t-76 -78.5q10 5 33 13.5t54 12.5h18q30 0 75 -10.5t54 -11.5 q40 2 83 29l25 -60q-49 -37 -97 -37q-24 0 -80 15.5t-84 15.5q-54 0 -112 -36l-35 56q103 83 103 178q0 44 -20 84h-83z" />
<glyph unicode="&#xa5;" horiz-adv-x="448" d="M-16 675h92l149 -338l157 338h84l-208 -411v-28h124v-41h-124v-68h124v-39l-124 2v-90h-74v90h-125v37h125v68h-125v41h125v28z" />
<glyph unicode="&#xa7;" horiz-adv-x="452" d="M382 517h-74q5 45 -20.5 71t-64.5 26q-33 0 -58 -22t-25 -63q1 -33 33 -58t111 -76t105 -82q31 -35 31 -83q0 -46 -32 -90t-67 -57q68 -43 68 -124q0 -58 -43 -102t-117 -45q-96 0 -133.5 49t-38.5 115q1 1 1 5h72q0 -53 27 -80.5t68 -27.5q34 0 60 17.5t32 48.5 q6 41 -21.5 71t-102.5 79t-108 77q-51 39 -54 107q2 45 28.5 83.5t73.5 54.5q-59 33 -63 120q2 60 41 102.5t118 43.5q63 0 108 -37.5t45 -122.5zM175 382q-71 -50 -73 -98q1 -30 28 -58t81.5 -63t71.5 -47q65 50 65 98q0 32 -26 59.5t-64.5 53.5t-82.5 55z" />
<glyph unicode="&#xa8;" horiz-adv-x="305" d="M48 675h70v-90h-70v90zM183 675h70v-90h-70v90z" />
<glyph unicode="&#xa9;" horiz-adv-x="717" d="M365 688q107 0 188 -53.5t122.5 -138t36.5 -175.5q-5 -82 -44 -157t-116 -125.5t-188 -52.5q-108 -1 -189 50t-124.5 133.5t-45.5 173.5q2 5 2 11q2 72 44.5 151.5t123.5 131t190 51.5zM179 334q-1 66 26 113t72.5 72t95.5 25q39 0 75 -15.5t61 -46.5t31 -74h-50 q-9 44 -43 68.5t-74 24.5q-56 0 -98 -43.5t-41 -118.5q1 -74 43.5 -117t96.5 -45q42 2 73.5 26t42.5 70h48q1 0 1.5 -1.5t0.5 -6.5q0 -21 -22.5 -58t-60.5 -54q-41 -17 -84 -20q-78 2 -134.5 57t-59.5 144zM61 321q1 -80 45 -146t114 -103.5t144 -34.5q94 3 167.5 50 t108.5 142q21 56 21 101q0 73 -28.5 133t-72.5 98.5t-95.5 57.5t-99.5 19q-55 0 -112.5 -22t-99 -61.5t-67.5 -99.5t-25 -134z" />
<glyph unicode="&#xab;" horiz-adv-x="445" d="M373 445v-74l-90 -91l90 -92v-76l-135 141v55zM212 445v-74l-89 -91l89 -92v-76l-135 141v55z" />
<glyph unicode="&#xac;" horiz-adv-x="456" d="M40 346h371v-241h-61v178h-310v63z" />
<glyph unicode="&#xae;" horiz-adv-x="717" d="M345 689q100 6 184.5 -42t133.5 -132.5t49 -180.5q0 -69 -25.5 -131t-73.5 -112t-109 -78t-130 -31q-78 -3 -149.5 29t-122.5 84.5t-71 108.5q-19 58 -22 126q2 92 41.5 171t115 130.5t179.5 57.5zM229 536h203q52 0 82 -33t30 -79q0 -43 -32.5 -73t-94.5 -30l119 -181 h-58l-114 181h-84v-181h-51v396zM346 636q-132 -9 -207 -95.5t-80 -194.5q-2 -81 37.5 -153t109 -114.5t152.5 -43.5q63 1 118 25.5t96.5 66t64 97t22.5 115.5q0 87 -44 156.5t-115.5 107.5t-153.5 33zM280 499v-141h128q40 0 63 21.5t23 51.5q0 29 -22 48.5t-64 19.5h-128z " />
<glyph unicode="&#xaf;" horiz-adv-x="456" d="M455 714h-460v45h460v-45z" />
<glyph unicode="&#xb0;" horiz-adv-x="359" d="M180 652q50 0 85.5 -35.5t35.5 -85.5t-36 -86t-85 -36q-50 0 -86 36t-36 86t36 85.5t86 35.5zM180 456q31 0 52.5 22t21.5 53t-21.5 52.5t-52.5 21.5t-52.5 -21.5t-21.5 -52.5t21.5 -53t52.5 -22z" />
<glyph unicode="&#xb1;" horiz-adv-x="452" d="M193 315v140h63v-140h155v-64h-155v-144h-63v144h-153v64h153zM40 0v63h371v-63h-371z" />
<glyph unicode="&#xb4;" horiz-adv-x="273" d="M170 689h97l-116 -127h-61z" />
<glyph unicode="&#xb5;" horiz-adv-x="448" d="M139 501v-398q0 -54 68 -57q45 7 74 36.5t29 74.5v344h70v-501h-70v59q-52 -72 -118 -72q-28 0 -53 13v-170h-72v671h72z" />
<glyph unicode="&#xb6;" horiz-adv-x="352" d="M280 -104v720h-66v-720h-72v431q-66 6 -102 57t-38 117q2 71 39 122.5t101 51.5h210v-779h-72z" />
<glyph unicode="&#xb7;" horiz-adv-x="301" d="M149 476q37 0 68 -18.5t50 -51t19 -69.5q-1 -57 -41.5 -96.5t-93.5 -39.5q-54 0 -95.5 39.5t-41.5 96.5q0 59 40 99t95 40z" />
<glyph unicode="&#xbb;" horiz-adv-x="502" d="M438 232l-139 -201h-65l114 201l-114 201h65zM266 232l-139 -201h-65l114 201l-114 201h65z" />
<glyph unicode="&#xbf;" horiz-adv-x="542" d="M483 -2q-11 -90 -66 -138t-143 -48q-90 0 -148.5 49.5t-58.5 124.5q0 38 17 73.5t81 91.5q47 43 60 68t14 90h76q0 -52 -4 -75t-16 -45.5t-30 -42.5t-53 -50q-43 -38 -53.5 -59.5t-10.5 -43.5q0 -47 36.5 -81.5t89.5 -34.5q106 0 127 129zM229 467h90v-91h-90v91z" />
<glyph unicode="&#xc0;" horiz-adv-x="499" d="M11 0l191 677h100l190 -677h-83l-53 195h-214l-48 -195h-83zM339 262l-88 360l-91 -360h179zM251 738l-118 127h99l81 -127h-62z" />
<glyph unicode="&#xc2;" horiz-adv-x="499" d="M11 0l191 677h100l190 -677h-83l-53 195h-214l-48 -195h-83zM339 262l-88 360l-91 -360h179zM121 738l90 127h82l90 -127h-72l-58 85l-60 -85h-72z" />
<glyph unicode="&#xc3;" horiz-adv-x="502" d="M11 0l191 677h100l190 -677h-83l-53 195h-214l-48 -195h-83zM339 262l-88 360l-91 -360h179zM96 747q3 43 28.5 70.5t59.5 27.5q23 0 71 -17.5t64 -17.5q14 0 25.5 11.5t13.5 28.5h44q-3 -38 -26.5 -68t-67.5 -30q-14 0 -61 17.5t-66 17.5q-15 0 -28.5 -13.5t-13.5 -26.5 h-43z" />
<glyph unicode="&#xc4;" horiz-adv-x="495" d="M11 0l191 677h100l190 -677h-83l-53 195h-214l-48 -195h-83zM339 262l-88 360l-91 -360h179zM146 850h70v-89h-70v89zM282 850h70v-89h-70v89z" />
<glyph unicode="&#xc5;" horiz-adv-x="495" d="M11 0l191 677h100l190 -677h-83l-53 195h-214l-48 -195h-83zM339 262l-88 360l-91 -360h179zM343 796q-2 -35 -29 -60.5t-61 -25.5q-36 0 -65 26t-28 70q2 35 28 61t61 26q38 0 66.5 -26.5t27.5 -70.5zM308 802q0 24 -18 39t-39 15q-19 0 -38 -14.5t-18 -43.5 q2 -21 19.5 -37t36.5 -16q23 2 40 17.5t17 39.5z" />
<glyph unicode="&#xc6;" horiz-adv-x="725" d="M0 0l328 675h377v-67h-248v-223h234v-66h-234v-252h248v-67h-320v193h-210l-90 -193h-85zM207 260h178v348h-14z" />
<glyph unicode="&#xca;" horiz-adv-x="470" d="M67 0v677h337v-69h-262v-223h247v-66h-247v-251h264v-68h-339zM94 738l89 127h82l90 -127h-72l-58 85l-59 -85h-72z" />
<glyph unicode="&#xcb;" horiz-adv-x="463" d="M67 0v677h337v-69h-262v-223h247v-66h-247v-251h264v-68h-339zM121 850h71v-89h-71v89zM256 850h71v-89h-71v89z" />
<glyph unicode="&#xcd;" horiz-adv-x="251" d="M88 0v675h76v-675h-76zM146 865h97l-116 -127h-62z" />
<glyph unicode="&#xce;" horiz-adv-x="248" d="M88 0v675h76v-675h-76zM-5 738l90 127h82l89 -127h-72l-57 85l-60 -85h-72z" />
<glyph unicode="&#xd1;" horiz-adv-x="542" d="M70 0v677h122l216 -626l-2 626h75v-677h-123l-201 580l-13 62v-642h-74zM121 743q3 44 28.5 71.5t59.5 27.5q22 0 69 -18t65 -18q14 0 26.5 12t13.5 29h44q-3 -38 -26 -68t-69 -30q-14 0 -60.5 17.5t-65.5 17.5q-16 0 -29 -14t-13 -27h-43z" />
<glyph unicode="&#xd2;" horiz-adv-x="552" d="M57 348q0 81 9.5 149t59 129.5t150.5 64.5q124 1 174.5 -89.5t50.5 -246.5q0 -159 -41.5 -264.5t-177.5 -106.5q-88 0 -138 45t-69.5 125.5t-17.5 193.5zM132 360q0 -92 7 -155t39 -109.5t98 -46.5q72 0 103.5 47.5t36.5 99t8 141.5q7 285 -151 285q-81 0 -111 -74 t-30 -188zM276 738l-118 127h98l81 -127h-61z" />
<glyph unicode="&#xd3;" horiz-adv-x="545" d="M57 348q0 81 9.5 149t59 129.5t150.5 64.5q124 1 174.5 -89.5t50.5 -246.5q0 -159 -41.5 -264.5t-177.5 -106.5q-88 0 -138 45t-69.5 125.5t-17.5 193.5zM132 360q0 -92 7 -155t39 -109.5t98 -46.5q72 0 103.5 47.5t36.5 99t8 141.5q7 285 -151 285q-81 0 -111 -74 t-30 -188zM299 865h97l-116 -127h-62z" />
<glyph unicode="&#xd4;" horiz-adv-x="552" d="M57 348q0 81 9.5 149t59 129.5t150.5 64.5q124 1 174.5 -89.5t50.5 -246.5q0 -159 -41.5 -264.5t-177.5 -106.5q-88 0 -138 45t-69.5 125.5t-17.5 193.5zM132 360q0 -92 7 -155t39 -109.5t98 -46.5q72 0 103.5 47.5t36.5 99t8 141.5q7 285 -151 285q-81 0 -111 -74 t-30 -188zM148 738l90 127h82l89 -127h-72l-57 85l-60 -85h-72z" />
<glyph unicode="&#xd5;" horiz-adv-x="545" d="M57 348q0 81 9.5 149t59 129.5t150.5 64.5q124 1 174.5 -89.5t50.5 -246.5q0 -159 -41.5 -264.5t-177.5 -106.5q-88 0 -138 45t-69.5 125.5t-17.5 193.5zM132 360q0 -92 7 -155t39 -109.5t98 -46.5q72 0 103.5 47.5t36.5 99t8 141.5q7 285 -151 285q-81 0 -111 -74 t-30 -188zM127 743q3 44 28.5 71.5t58.5 27.5q23 0 69.5 -18t64.5 -18q15 0 27 12t14 29h44q-4 -38 -27 -68t-69 -30q-13 0 -60.5 17.5t-65.5 17.5q-16 0 -29 -14t-13 -27h-42z" />
<glyph unicode="&#xd6;" horiz-adv-x="549" d="M57 348q0 81 9.5 149t59 129.5t150.5 64.5q124 1 174.5 -89.5t50.5 -246.5q0 -159 -41.5 -264.5t-177.5 -106.5q-88 0 -138 45t-69.5 125.5t-17.5 193.5zM132 360q0 -92 7 -155t39 -109.5t98 -46.5q72 0 103.5 47.5t36.5 99t8 141.5q7 285 -151 285q-81 0 -111 -74 t-30 -188zM174 850h71v-89h-71v89zM310 850h70v-89h-70v89z" />
<glyph unicode="&#xd8;" horiz-adv-x="545" d="M55 348q0 19 -2 32q2 123 43.5 215t174.5 94q102 3 158 -56l56 84l32 -21l-63 -98q49 -87 45 -259q0 -128 -36 -241.5t-185 -113.5q-107 0 -160 73l-59 -96l-31 23l66 110q-42 87 -39 254zM146 175l241 387q-15 35 -48 47.5t-68 12.5q-42 0 -71.5 -23.5t-44 -63 t-19.5 -82t-5 -97.5q0 -111 15 -181zM162 125q16 -34 44 -52.5t72 -19.5q55 -3 84.5 25t42.5 72.5t14.5 100.5t2.5 85v47q0 57 -16 135z" />
<glyph unicode="&#xd9;" horiz-adv-x="542" d="M72 677h76v-487q0 -75 33.5 -106t96.5 -31q47 0 74.5 15.5t39.5 47.5t12 86v473h74v-515q0 -77 -51 -126.5t-144 -49.5q-77 0 -124 23.5t-67 68.5t-20 114v487zM274 738l-117 127h98l81 -127h-62z" />
<glyph unicode="&#xda;" horiz-adv-x="542" d="M72 677h76v-487q0 -75 33.5 -106t96.5 -31q47 0 74.5 15.5t39.5 47.5t12 86v473h74v-515q0 -77 -51 -126.5t-144 -49.5q-77 0 -124 23.5t-67 68.5t-20 114v487zM295 865h97l-116 -127h-62z" />
<glyph unicode="&#xdb;" horiz-adv-x="545" d="M146 738l90 127h83l89 -127h-72l-58 85l-60 -85h-72zM72 677h76v-487q0 -75 33.5 -106t96.5 -31q47 0 74.5 15.5t39.5 47.5t12 86v473h74v-515q0 -77 -51 -126.5t-144 -49.5q-77 0 -124 23.5t-67 68.5t-20 114v487z" />
<glyph unicode="&#xdc;" horiz-adv-x="542" d="M72 677h76v-487q0 -75 33.5 -106t96.5 -31q47 0 74.5 15.5t39.5 47.5t12 86v473h74v-515q0 -77 -51 -126.5t-144 -49.5q-77 0 -124 23.5t-67 68.5t-20 114v487zM172 850h71v-89h-71v89zM308 850h70v-89h-70v89z" />
<glyph unicode="&#xdf;" horiz-adv-x="448" d="M63 0v509q0 82 43 130.5t114 49.5q61 0 107.5 -35.5t50.5 -127.5q2 -40 -15 -81.5t-59 -55.5q42 -13 69.5 -58t26.5 -127q0 -94 -32.5 -151t-102.5 -57q-29 0 -66 11v70q31 -21 61 -24q67 2 67 144v28q0 97 -51 121q-15 7 -69 9v60q58 0 81 28t22 79q-6 105 -94 105 q-41 3 -61 -32t-20 -78v-517h-72z" />
<glyph unicode="&#xe0;" horiz-adv-x="398" d="M29 121q-1 62 20 93t63 46l107 44q10 5 21.5 9t18 11t6.5 19v52q0 25 -17.5 42.5t-56.5 17.5q-46 0 -62 -19t-16 -69h-64q-3 148 142 148q92 1 117 -40.5t25 -107.5v-269q0 -29 5 -38t18 -11q7 2 21 2v-51q-32 -4 -42 -4q-34 0 -48 17.5t-17 56.5q-38 -83 -120 -83 q-71 5 -95 41t-26 93zM259 271q-32 -18 -79 -39t-62 -41t-15 -64q-3 -78 65 -81q35 2 63 27.5t28 66.5v131zM200 562l-118 127h98l81 -127h-61z" />
<glyph unicode="&#xe1;" horiz-adv-x="398" d="M29 121q-1 62 20 93t63 46l107 44q10 5 21.5 9t18 11t6.5 19v52q0 25 -17.5 42.5t-56.5 17.5q-46 0 -62 -19t-16 -69h-64q-3 148 142 148q92 1 117 -40.5t25 -107.5v-269q0 -29 5 -38t18 -11q7 2 21 2v-51q-32 -4 -42 -4q-34 0 -48 17.5t-17 56.5q-38 -83 -120 -83 q-71 5 -95 41t-26 93zM259 271q-32 -18 -79 -39t-62 -41t-15 -64q-3 -78 65 -81q35 2 63 27.5t28 66.5v131zM222 689h97l-116 -127h-62z" />
<glyph unicode="&#xe2;" horiz-adv-x="395" d="M29 121q-1 62 20 93t63 46l107 44q10 5 21.5 9t18 11t6.5 19v52q0 25 -17.5 42.5t-56.5 17.5q-46 0 -62 -19t-16 -69h-64q-3 148 142 148q92 1 117 -40.5t25 -107.5v-269q0 -29 5 -38t18 -11q7 2 21 2v-51q-32 -4 -42 -4q-34 0 -48 17.5t-17 56.5q-38 -83 -120 -83 q-71 5 -95 41t-26 93zM259 271q-32 -18 -79 -39t-62 -41t-15 -64q-3 -78 65 -81q35 2 63 27.5t28 66.5v131zM71 562l90 127h83l89 -127h-72l-58 85l-60 -85h-72z" />
<glyph unicode="&#xe3;" horiz-adv-x="391" d="M29 121q-1 62 20 93t63 46l107 44q10 5 21.5 9t18 11t6.5 19v52q0 25 -17.5 42.5t-56.5 17.5q-46 0 -62 -19t-16 -69h-64q-3 148 142 148q92 1 117 -40.5t25 -107.5v-269q0 -29 5 -38t18 -11q7 2 21 2v-51q-32 -4 -42 -4q-34 0 -48 17.5t-17 56.5q-38 -83 -120 -83 q-71 5 -95 41t-26 93zM259 271q-32 -18 -79 -39t-62 -41t-15 -64q-3 -78 65 -81q35 2 63 27.5t28 66.5v131zM49 571q2 43 28 71t59 28q22 0 70.5 -18t63.5 -18q14 0 26.5 12t13.5 29h45q-4 -39 -27 -68.5t-69 -29.5q-14 0 -60.5 17.5t-66.5 17.5q-15 0 -28 -14t-13 -27h-42z " />
<glyph unicode="&#xe4;" horiz-adv-x="391" d="M29 121q-1 62 20 93t63 46l107 44q10 5 21.5 9t18 11t6.5 19v52q0 25 -17.5 42.5t-56.5 17.5q-46 0 -62 -19t-16 -69h-64q-3 148 142 148q92 1 117 -40.5t25 -107.5v-269q0 -29 5 -38t18 -11q7 2 21 2v-51q-32 -4 -42 -4q-34 0 -48 17.5t-17 56.5q-38 -83 -120 -83 q-71 5 -95 41t-26 93zM259 271q-32 -18 -79 -39t-62 -41t-15 -64q-3 -78 65 -81q35 2 63 27.5t28 66.5v131zM99 675h71v-90h-71v90zM235 675h70v-90h-70v90z" />
<glyph unicode="&#xe5;" horiz-adv-x="391" d="M29 121q-1 62 20 93t63 46l107 44q10 5 21.5 9t18 11t6.5 19v52q0 25 -17.5 42.5t-56.5 17.5q-46 0 -62 -19t-16 -69h-64q-3 148 142 148q92 1 117 -40.5t25 -107.5v-269q0 -29 5 -38t18 -11q7 2 21 2v-51q-32 -4 -42 -4q-34 0 -48 17.5t-17 56.5q-38 -83 -120 -83 q-71 5 -95 41t-26 93zM259 271q-32 -18 -79 -39t-62 -41t-15 -64q-3 -78 65 -81q35 2 63 27.5t28 66.5v131zM292 620q-1 -36 -28 -60.5t-61 -24.5q-36 0 -65 25.5t-28 70.5q2 34 28 60t62 26q37 0 65 -26.5t27 -70.5zM257 625q0 25 -18 40t-37 15q-21 0 -39.5 -14.5 t-17.5 -43.5q2 -21 19.5 -36.5t37.5 -15.5q21 1 38 17.5t17 37.5z" />
<glyph unicode="&#xe6;" horiz-adv-x="599" d="M42 364q15 153 146 151q80 -3 114 -60q44 56 106 56h14q69 -3 100.5 -44t38.5 -95t7 -129h-236q1 -40 2.5 -83t14.5 -77t48 -37q64 -4 79 26.5t20 91.5h66q-2 -87 -41 -132.5t-110 -45.5q-89 2 -123 86q-36 -82 -131 -86q-62 -3 -98.5 31t-36.5 103q0 61 22.5 93t52 46 t82 31t70.5 31q16 13 16 50q0 38 -19.5 59.5t-59.5 21.5q-39 1 -56.5 -21t-18.5 -67h-69zM494 302q0 63 -14.5 106.5t-66.5 43.5q-46 0 -62.5 -38.5t-18.5 -94.5q2 -6 2 -17h160zM260 271q-76 -36 -101.5 -49.5t-44 -38t-18.5 -63.5q0 -30 19 -52t52 -22q38 0 65.5 25 t27.5 66v134z" />
<glyph unicode="&#xe7;" horiz-adv-x="402" d="M40 255q0 260 172 260q44 0 77.5 -20t53 -58.5t19.5 -93.5h-69q0 111 -81 111q-64 0 -81 -58.5t-19 -148.5q-3 -199 95 -199q54 0 72 35.5t18 91.5h67q0 -73 -31 -126.5t-101 -62.5l-30 -41q10 0 16 2q86 -5 86 -70q0 -38 -30 -58t-77 -20q-46 0 -86 18l14 37 q27 -14 58 -14q21 0 37 9.5t16 27.5q0 13 -13 23.5t-33 11.5q-19 -4 -32 -7l-16 18l48 64q-96 8 -123 84.5t-27 183.5z" />
<glyph unicode="&#xe8;" horiz-adv-x="395" d="M39 244q0 96 32 183.5t130 87.5q95 0 124.5 -61t29.5 -161v-49h-243q0 -14 -1 -24q1 -77 18 -124.5t70 -47.5q56 0 71.5 34t15.5 85h68q1 -105 -49.5 -143t-105.5 -38q-160 0 -160 258zM282 302q0 71 -15.5 112t-64.5 41q-52 0 -71.5 -45.5t-18.5 -107.5h170zM199 562 l-118 127h98l81 -127h-61z" />
<glyph unicode="&#xe9;" horiz-adv-x="398" d="M39 244q0 96 32 183.5t130 87.5q95 0 124.5 -61t29.5 -161v-49h-243q0 -14 -1 -24q1 -77 18 -124.5t70 -47.5q56 0 71.5 34t15.5 85h68q1 -105 -49.5 -143t-105.5 -38q-160 0 -160 258zM282 302q0 71 -15.5 112t-64.5 41q-52 0 -71.5 -45.5t-18.5 -107.5h170zM221 689h98 l-117 -127h-62z" />
<glyph unicode="&#xea;" horiz-adv-x="398" d="M39 244q0 96 32 183.5t130 87.5q95 0 124.5 -61t29.5 -161v-49h-243q0 -14 -1 -24q1 -77 18 -124.5t70 -47.5q56 0 71.5 34t15.5 85h68q1 -105 -49.5 -143t-105.5 -38q-160 0 -160 258zM282 302q0 71 -15.5 112t-64.5 41q-52 0 -71.5 -45.5t-18.5 -107.5h170zM70 562 l90 127h83l89 -127h-72l-58 85l-60 -85h-72z" />
<glyph unicode="&#xeb;" horiz-adv-x="398" d="M39 244q0 96 32 183.5t130 87.5q95 0 124.5 -61t29.5 -161v-49h-243q0 -14 -1 -24q1 -77 18 -124.5t70 -47.5q56 0 71.5 34t15.5 85h68q1 -105 -49.5 -143t-105.5 -38q-160 0 -160 258zM282 302q0 71 -15.5 112t-64.5 41q-52 0 -71.5 -45.5t-18.5 -107.5h170zM100 675h70 v-90h-70v90zM236 675h70v-90h-70v90z" />
<glyph unicode="&#xec;" horiz-adv-x="194" d="M65 0v501h72v-501h-72zM98 562l-117 127h98l81 -127h-62z" />
<glyph unicode="&#xed;" horiz-adv-x="223" d="M65 0v501h72v-501h-72zM123 689h97l-117 -127h-61z" />
<glyph unicode="&#xee;" horiz-adv-x="204" d="M65 0v501h72v-501h-72zM-28 562l89 127h83l90 -127h-72l-59 85l-59 -85h-72z" />
<glyph unicode="&#xef;" horiz-adv-x="208" d="M65 0v501h72v-501h-72zM0 675h70v-90h-70v90zM135 675h71v-90h-71v90z" />
<glyph unicode="&#xf7;" horiz-adv-x="527" d="M308 414h-90v90h90v-90zM476 281h-427v74h427v-74zM308 131h-90v90h90v-90z" />
<glyph unicode="&#xf9;" horiz-adv-x="452" d="M70 503h70v-387q0 -68 53 -68q62 -1 90 34t28 85v336h72v-503h-72v67q-41 -80 -121 -80q-120 0 -120 134v382zM225 562l-118 127h99l80 -127h-61z" />
<glyph unicode="&#xfa;" horiz-adv-x="441" d="M70 503h70v-387q0 -68 53 -68q62 -1 90 34t28 85v336h72v-503h-72v67q-41 -80 -121 -80q-120 0 -120 134v382zM246 689h97l-116 -127h-61z" />
<glyph unicode="&#xfb;" horiz-adv-x="448" d="M70 503h70v-387q0 -68 53 -68q62 -1 90 34t28 85v336h72v-503h-72v67q-41 -80 -121 -80q-120 0 -120 134v382zM94 562l90 127h83l89 -127h-72l-57 85l-60 -85h-73z" />
<glyph unicode="&#xfc;" horiz-adv-x="452" d="M70 503h70v-387q0 -68 53 -68q62 -1 90 34t28 85v336h72v-503h-72v67q-41 -80 -121 -80q-120 0 -120 134v382zM123 675h70v-90h-70v90zM258 675h70v-90h-70v90z" />
<glyph unicode="&#xff;" horiz-adv-x="395" d="M22 -98q30 -11 55 -11q65 0 89 100l-161 510h74l114 -436l117 436h73l-136 -436q-34 -108 -49 -148.5t-41 -62.5q-32 -24 -87 -24q-29 0 -48 6v66zM98 675h71v-90h-71v90zM234 675h70v-90h-70v90z" />
<glyph unicode="&#x131;" horiz-adv-x="248" d="M165 0h-80v466h80v-466z" />
<glyph unicode="&#x152;" horiz-adv-x="746" d="M49 346q0 117 37.5 230t175.5 113q36 0 71 -20t59 -52v58h316v-67h-245v-221h230v-68h-230v-252h245v-67h-316v55q-31 -38 -61 -54.5t-71 -16.5q-126 -1 -168.5 108t-42.5 254zM129 336q0 -17 -2 -30q2 -65 11.5 -119.5t38 -95t78.5 -40.5q82 0 106 46t24 144v216 q0 90 -29 126.5t-92 38.5q-50 0 -78 -30t-39.5 -75t-14 -99.5t-3.5 -81.5z" />
<glyph unicode="&#x153;" horiz-adv-x="639" d="M111 253q0 -98 15.5 -152.5t84.5 -54.5q35 1 54 21t26 53t7.5 64.5t0.5 77.5v37q0 69 -19.5 112t-70.5 43q-67 -1 -82.5 -59t-15.5 -142zM336 59q-45 -74 -132 -72q-97 1 -133 69t-36 202q0 124 40 191.5t134 65.5q28 -2 52.5 -11t45 -25t30.5 -36q37 72 124 72 q63 -6 95.5 -40.5t42 -82t9.5 -110.5v-36h-235q0 -23 -2 -39q2 -71 18.5 -116t67.5 -45q76 0 81 120h70q-18 -180 -149 -180q-42 0 -75.5 21.5t-47.5 51.5zM540 306q0 70 -15 109.5t-64 39.5q-88 0 -88 -149h167z" />
<glyph unicode="&#x178;" horiz-adv-x="596" d="M423 701h-81v90h81v-90zM260 701h-81v90h81v-90zM595 644l-257 -371v-273h-85v273l-249 371h104l141 -217q22 -33 52 -86q18 36 195 303h99z" />
<glyph unicode="&#x192;" horiz-adv-x="448" d="M140 -11l64 378h-99v60h109q15 81 28 126t46.5 83.5t91.5 38.5q25 0 59 -9l-15 -70q-20 20 -55 20q-27 0 -42.5 -28.5t-25 -75t-17.5 -85.5h110v-60h-116l-53 -325q-16 -105 -50 -165q-26 -49 -107 -49q-36 0 -59 10l9 64q10 -11 37 -11q68 0 85 98z" />
<glyph unicode="&#x2c6;" horiz-adv-x="301" d="M19 562l90 127h83l90 -127h-73l-58 85l-59 -85h-73z" />
<glyph unicode="&#x2c7;" horiz-adv-x="900" d="M112 0v675h675v-675h-675zM169 57h563v562h-563v-562z" />
<glyph unicode="&#x2d8;" horiz-adv-x="298" d="M280 650q-2 -49 -38 -82t-93 -33q-56 0 -91.5 33t-37.5 82h54q5 -30 24 -45t51 -15q33 0 52 15t25 45h54z" />
<glyph unicode="&#x2d9;" horiz-adv-x="294" d="M190 550h-81v90h81v-90z" />
<glyph unicode="&#x2da;" horiz-adv-x="301" d="M150 677q34 0 56.5 -23t22.5 -56q0 -34 -22.5 -57t-56.5 -23q-33 0 -56 23t-23 57q0 33 23 56t56 23zM150 551q19 0 33 14t14 33t-13.5 32.5t-33.5 13.5q-19 0 -33 -13.5t-14 -32.5t14 -33t33 -14z" />
<glyph unicode="&#x2db;" horiz-adv-x="326" d="M273 -160q-53 -27 -97 -27q-42 0 -69 26.5t-27 70.5q0 37 18 101h55q-17 -40 -17 -73q0 -29 17.5 -48t45.5 -19q34 0 74 21v-52z" />
<glyph unicode="&#x2dc;" horiz-adv-x="309" d="M297 644q0 -49 -25 -74.5t-61 -25.5q-21 0 -34.5 4.5t-32.5 17.5q-32 20 -50 20q-36 0 -37 -42h-54q0 49 26.5 74.5t62.5 25.5q29 0 62 -20.5t54 -20.5q30 0 35 41h54z" />
<glyph unicode="&#x2dd;" horiz-adv-x="333" d="M336 655l-98 -123h-64l58 123h104zM187 655l-97 -123h-65l59 123h103z" />
<glyph unicode="&#x3c0;" horiz-adv-x="613" d="M596 401h-115v-401h-80v401h-193v-401h-78v401h-116v65h582v-65z" />
<glyph unicode="&#x1000;" horiz-adv-x="572" d="M542 54l-55 -54h-54v414h-92v-360l-56 -54h-54v414h-92v-414h-55l-54 54v415l54 54h191l10 -11l11 11h191l55 -54v-415z" />
<glyph unicode="&#x1001;" horiz-adv-x="371" d="M341 54l-56 -54h-201l-54 54v167l54 54h132l15 -17v156h-201v55l54 54h201l56 -54v-415zM231 109v57h-92v-57h92z" />
<glyph unicode="&#x1002;" horiz-adv-x="367" d="M139 0h-55l-54 54v415l54 54h201l56 -54v-415l-56 -54h-54v414h-92v-414z" />
<glyph unicode="&#x1003;" horiz-adv-x="572" d="M542 54l-55 -54h-191l-10 11l-11 -11h-191l-54 54v190l65 170h-65v109h120l54 -54v-55l-65 -179v-126h93v414h54l55 -54v-360h92v414h54l55 -54v-415z" />
<glyph unicode="&#x1004;" horiz-adv-x="367" d="M341 109v-55l-56 -54h-201l-54 54v415l54 54h201l56 -54v-55h-202v-305h202z" />
<glyph unicode="&#x1005;" horiz-adv-x="371" d="M341 54l-56 -54h-201l-54 54v415l54 54h201l56 -54v-415zM139 140v-31h92v305h-92v-36h46l26 -26v-184l-26 -28h-46zM139 324v-128h18v128h-18z" />
<glyph unicode="&#x1006;" horiz-adv-x="572" d="M433 109v305h-92v-305h92zM231 109v57h-92v-57h92zM84 0l-54 54v167l54 54h147v139h-201v55l54 54h191l10 -11l11 11h191l55 -54v-415l-55 -54h-191l-11 11l-10 -11h-191z" />
<glyph unicode="&#x1007;" horiz-adv-x="371" d="M231 283v54h-19v-54h19zM319 262l36 -39l-68 -62l-68 68h-33l-28 28v108l28 26h45v23h-92v-305h202v-55l-56 -54h-201l-54 54v415l54 54h201l56 -54v-186z" />
<glyph unicode="&#x1008;" horiz-adv-x="519" d="M341 54l-56 -54h-201l-54 54v415l54 54h201l56 -54v-415zM139 140v-31h92v305h-92v-36h46l26 -26v-184l-26 -28h-46zM139 324v-128h18v128h-18zM491 -294l-80 -48l-148 76l-30 48v218h109v-186l40 -19v728h54l55 -54v-763z" />
<glyph unicode="&#x1009;" horiz-adv-x="371" d="M30 54l54 55h147v305h-201v55l54 54h201l56 -54v-417l-53 -52h-149v-229h294v24h109v-78l-55 -55h-403l-54 55v337z" />
<glyph unicode="&#x100a;" horiz-adv-x="572" d="M30 54l54 55h147v305h-201v55l54 54h201l56 -54v-360h92v414h54l55 -54v-415l-55 -54h-191l-11 11l-10 -11h-136v-229h294v24h109v-78l-55 -55h-403l-54 55v337z" />
<glyph unicode="&#x100b;" horiz-adv-x="371" d="M339 -339h-70l-56 55v67h-130l-53 55v93l56 52h147v16h-149l-54 54v415l54 54h201l56 -54v-55h-202v-305h202v-150l-60 -54h-164v-15h152l54 -52v-67h18z" />
<glyph unicode="&#x100c;" horiz-adv-x="371" d="M339 -283l-56 -55h-200l-54 55v78h108v-24h92v229h-146l-54 54v415l54 54h200l56 -54v-55h-202v-305h146l56 -55v-337z" />
<glyph unicode="&#x100d;" horiz-adv-x="438" d="M30 109h202v305h-202v55l56 54h201l54 -54v-415l-54 -54h-201l-56 54v55zM338 -338h-70l-56 55v157h-182v108h238l54 -54v-157h18z" />
<glyph unicode="&#x100e;" horiz-adv-x="371" d="M275 0h-191l-54 54v190l65 170h-65v109h120l54 -54v-55l-65 -179v-126h93v414h54l55 -54v-360z" />
<glyph unicode="&#x100f;" horiz-adv-x="697" d="M341 414v-305h15v305h-15zM285 0l-54 54v360h-92v-414h-55l-54 54v415l54 54h186l14 -14l16 14h97l16 -14l14 14h186l54 -54v-415l-54 -54h-54v414h-94v-360l-54 -54h-126z" />
<glyph unicode="&#x1010;" horiz-adv-x="572" d="M231 109v305h-92v-305h92zM433 414h-92v-360l-56 -54h-201l-54 54v415l54 54h191l10 -11l11 11h191l55 -54v-415l-55 -54h-54v414z" />
<glyph unicode="&#x1011;" horiz-adv-x="572" d="M231 109v305h-92v-305h92zM433 109v305h-92v-305h92zM288 16l-12 -16h-192l-54 54v415l54 54h191l10 -11l11 11h191l55 -54v-415l-55 -54h-186z" />
<glyph unicode="&#x1012;" horiz-adv-x="371" d="M341 54l-56 -54h-201l-54 54v55h168l-88 131v56l88 118h-59v-22h-109v77l54 54h201l56 -54v-55l-110 -142l110 -163v-55z" />
<glyph unicode="&#x1013;" horiz-adv-x="371" d="M341 54l-56 -54h-201l-54 54v415l54 54h201l56 -54v-415zM224 109h7v305h-92v-305h6v125l17 16h47l15 -16v-125zM177 109h15v108h-15v-108z" />
<glyph unicode="&#x1014;" horiz-adv-x="371" d="M212 109h19v75l-201 230v55l54 54h257v-54l-56 -55h-110l151 -172l15 -37v-151l-56 -54h-48v-338h-55l-54 54v284h-44l-54 54v98l26 28h130l26 -28v-43zM84 109h74v17h-74v-17z" />
<glyph unicode="&#x1015;" horiz-adv-x="371" d="M341 54l-56 -54h-201l-54 54v415l54 54h55v-414h92v414h54l56 -54v-415z" />
<glyph unicode="&#x1016;" horiz-adv-x="371" d="M231 258h-46l-28 26v213l28 26h100l56 -54v-415l-56 -54h-201l-54 54v415l54 54h55v-414h92v149zM231 469h-20v-157h20v157z" />
<glyph unicode="&#x1017;" horiz-adv-x="371" d="M231 109v305h-7v-80l-15 -16h-47l-17 16v80h-6v-305h92zM231 523h54l56 -54v-415l-56 -54h-201l-54 54v415l54 54h55l38 -38v-135h15v135z" />
<glyph unicode="&#x1018;" horiz-adv-x="572" d="M341 414v-360l-56 -54h-201l-54 54v55h201v305h-201v55l54 54h191l10 -11l11 11h191l55 -54v-415l-55 -54h-54v414h-92z" />
<glyph unicode="&#x1019;" horiz-adv-x="371" d="M177 109h15v108h-15v-108zM285 523l56 -54v-415l-56 -54h-201l-54 54v415l54 54h55v-414h6v125l17 16h47l15 -16v-125h7v414h54z" />
<glyph unicode="&#x101a;" horiz-adv-x="572" d="M542 54l-55 -54h-191l-11 11l-10 -11h-191l-54 54v415l54 54h55v-414h92v414h54l56 -54v-360h92v414h54l55 -54v-415z" />
<glyph unicode="&#x101b;" horiz-adv-x="371" d="M341 -229h51v-109h-107l-54 55v697h-92v-148h46l26 -27v-211l-26 -28h-101l-54 54v415l54 54h201l56 -54v-698zM157 54v157h-18v-157h18z" />
<glyph unicode="&#x101c;" horiz-adv-x="572" d="M231 414h-92v-414h-55l-54 54v415l54 54h201l56 -54v-360h92v414h54l55 -54v-415l-55 -54h-202l-54 54v360z" />
<glyph unicode="&#x101d;" horiz-adv-x="371" d="M341 54l-56 -54h-201l-54 54v415l54 54h201l56 -54v-415zM231 109v305h-92v-305h92z" />
<glyph unicode="&#x101e;" horiz-adv-x="572" d="M542 54l-55 -54h-191l-11 11l-10 -11h-191l-54 54v55h201v305h-201v55l54 54h201l56 -54v-360h92v414h54l55 -54v-415z" />
<glyph unicode="&#x101f;" horiz-adv-x="572" d="M231 523h44l10 -11l11 11h191l55 -54v-415l-55 -54h-54v414h-92v-360l-56 -54h-201l-54 54v415l54 54h55v-414h92v414z" />
<glyph unicode="&#x1020;" horiz-adv-x="371" d="M341 54l-56 -54h-201l-54 54v415l54 54h201l56 -54v-55h-202v-305h202v-55zM341 -283l-56 -55h-201l-54 55v222l54 55h257v-109h-202v-114h92v26h110v-80z" />
<glyph unicode="&#x1021;" horiz-adv-x="572" d="M433 234v180h-92l-110 -142l110 -163v-55l-56 -54h-201l-54 54v55h168l-88 131v56l88 118h-59v-22h-109v77l54 54h201l17 -15l17 15h168l55 -54v-415l-55 -54h-102l-28 28v180l28 26h48zM433 54v126h-20v-126h20z" />
<glyph unicode="&#x1022;" horiz-adv-x="572" d="M542 54l-55 -54h-54v414h-92v-360l-55 -54h-54v414h-93v-126l65 -179v-55l-54 -54h-120v109h65l-65 170v190l54 54h191l11 -11l10 11h191l55 -54v-415z" />
<glyph unicode="&#x1023;" horiz-adv-x="572" d="M542 54l-55 -54h-54v414h-92v-360l-56 -54h-54v414h-92v-414h-55l-54 54v415l54 54h191l10 -11l11 11h191l55 -54v-415zM534 -339h-73l-46 46v185h-77v-136l-46 -46h-45v182h-77v-182h-46l-45 46v181l45 46h159l9 -9l9 9h160l45 -34v-197h28v-91z" />
<glyph unicode="&#x1024;" horiz-adv-x="723" d="M439 -241v652h-94v-366l-56 -54h-54v420h-94v-420h-56l-55 54v422l55 55h193l11 -11l11 11h194l56 -55v-764l-56 -56l-408 1l-55 56v135l55 56h203l56 -56v-54h-204v-26h298zM688 -351h-111v884h-150l-55 56v207l55 54h205l56 -53v-57h-206v-97h150l56 -54v-940z" />
<glyph unicode="&#x1025;" horiz-adv-x="371" d="M31 52l54 56h148v305h-202v55l54 54h202l55 -54v-416l-55 -53h-147v-230h93v24h109v-78l-55 -55h-202l-54 55v337z" />
<glyph unicode="&#x1026;" horiz-adv-x="371" d="M31 52l54 56h148v305h-202v55l54 54h202l55 -54v-416l-55 -53h-147v-230h93v24h109v-78l-55 -55h-202l-54 55v337z" />
<glyph unicode="&#x1027;" horiz-adv-x="371" d="M285 412h-64v-27h64v27zM166 109v52l27 26h120l27 -26v-107l-55 -54h-200l-54 54v412l54 54h200l55 -54v-108l-27 -28h-120l-27 28v54h-26v-303h26zM285 109v25h-64v-25h64z" />
<glyph unicode="&#x1028;" horiz-adv-x="474" d="M119 -132q0 -15 8.5 -29.5t23.5 -28t36 -22.5t45 -9q25 -1 47.5 7t40 20.5t27.5 28.5t10 33v38h76v-38q0 -35 -18.5 -65t-48 -51t-65.5 -33t-72 -10t-68.5 15t-58.5 34t-41.5 49t-15.5 61v477q1 31 18 61t44 52.5t62 36t72 13.5q39 -1 74 -14t61.5 -35t42.5 -50.5 t16 -60.5v-65v-3q1 -127 -4.5 -156t-16.5 -46.5t-27 -24t-36 -6.5h-41q-26 0 -39 14t-17.5 34t-1.5 43t12.5 91.5t4.5 76.5q-4 5 -15 8t-23 -0.5t-21 -15t-8 -33.5l-53 43q5 29 27 48.5t50.5 27t56.5 -1t48 -36.5q6 -11 8 -23.5t1.5 -25.5t-3 -24.5t-7.5 -68t-7 -71.5t9 -15 q12 0 18.5 2.5t10.5 10.5t4.5 65t-1.5 84l-5 65q0 15 -7 32t-22 30.5t-37 22t-52 8.5q-25 0 -47 -9t-38.5 -23.5t-26.5 -32t-10 -34.5v-471z" />
<glyph unicode="&#x1029;" horiz-adv-x="714" d="M685 54l-34 -33h35v-305l-55 -55h-547l-54 55v1076l54 54h547l55 -54v-91h-109v36h-438v-967h438v230h-138l-11 11l-10 -11h-191l-54 54v55h201v305h-201v55l54 54h201l56 -54v-360h92v414h54l55 -54v-415z" />
<glyph unicode="&#x102a;" horiz-adv-x="1400" d="M1037 54l-34 -33h35v-305l-55 -55h-547l-54 55v1076l54 54h547l55 -54v-91h-109v36h-438v-967h438v230h-138l-11 11l-10 -11h-191l-54 54v55h201v305h-201v55l54 54h201l56 -54v-360h92v414h54l55 -54v-415zM1367 472h-4l3 -3v-415l-54 -54h-55v414h-185v55l54 54h133v11 h-147l-55 55v204l55 54h201l54 -53v-56h-201v-95h147l54 -54v-117zM139 258l17 17h129l56 -54v-167l-56 -54h-201l-54 54v415l54 54h201l56 -54v-55h-202v-156zM231 109v56h-92v-56h92z" />
<glyph unicode="&#x102b;" horiz-adv-x="158" d="M122 0h-55l-54 54v685h-47v-195h-55l-53 53v197l54 54h155l55 -54v-794z" />
<glyph unicode="&#x102c;" horiz-adv-x="384" d="M287 54l-54 -54h-55v414h-185v55l54 54h186l54 -54v-415z" />
<glyph unicode="&#x102d;" d="M-28 578l-54 -55h-200l-56 55v215l56 54h200l54 -54v-215zM-136 633v105h-93v-105h93z" />
<glyph unicode="&#x102e;" d="M-57 578l-55 -56h-203l-55 56v217l55 55h203l55 -55v-217zM-174 633h7v106h-92v-106h7v43l13 14h50l15 -14v-43zM-224 633h22v29h-22v-29z" />
<glyph unicode="&#x102f;" d="M-64 -339h-87l-54 55v283h109v-229h32v-109z" />
<glyph unicode="&#x1030;" d="M-13 -341h-85l-55 55v286h108v-233h32v-108zM-170 -341h-108v341h108v-341z" />
<glyph unicode="&#x1031;" horiz-adv-x="370" d="M139 258l17 17h129l56 -54v-167l-56 -54h-201l-54 54v415l54 54h201l56 -54v-55h-202v-156zM231 109v56h-92v-56h92z" />
<glyph unicode="&#x1032;" d="M-16 557l-76 -78l-220 218l78 77z" />
<glyph unicode="&#x1033;" d="M-57 578l-54 -55h-200l-56 55v215l56 54h200l54 -54v-215zM-165 633v105h-93v-105h93zM-234 663h47v47h-47v-47z" />
<glyph unicode="&#x1034;" d="M-94 774l78 -77l-220 -218l-76 78z" />
<glyph unicode="&#x1035;" d="M-178 592q-28 8 -55.5 -1t-45.5 -27q15 -7 32 -7q21 0 39 10t30 25zM-247 502q-29 0 -55 10.5t-44.5 28.5t-30 42.5t-11.5 51.5q0 28 11.5 52.5t30 43t44.5 28.5t55 10q37 0 67 -16t49 -42l-47 -32q-13 15 -30.5 25t-38.5 10q-17 0 -31.5 -6.5t-26 -17.5t-18 -24.5 t-6.5 -30.5q0 -32 22 -53q14 16 31.5 26.5t37 15.5t41 4.5t40.5 -8.5h1q27 -25 27 -58q-19 -27 -50 -43.5t-68 -16.5z" />
<glyph unicode="&#x1036;" d="M-109 580l-27 -26h-86l-26 26v134l26 27h86l27 -27v-134zM-162 605v83h-35v-83h35z" />
<glyph unicode="&#x1037;" d="M-109 -222l-27 -26h-86l-26 26v134l26 27h86l27 -27v-134zM-162 -197v83h-35v-83h35z" />
<glyph unicode="&#x1038;" horiz-adv-x="232" d="M170 298l-27 -26h-88l-25 26v203l25 25h88l27 -25v-203zM117 325v149h-35v-149h35zM170 27l-27 -27h-88l-25 27v201l25 27h88l27 -27v-201zM117 53v149h-35v-149h35z" />
<glyph unicode="&#x1039;" horiz-adv-x="217" d="M218 460h-27v-460h-34v460h-45v-460h-34v330q-38 3 -58.5 25.5t-20.5 54.5q0 37 22.5 61t70.5 24h126v-35z" />
<glyph unicode="&#x103a;" d="M-32 472h-108v62h-147l-55 55v204l55 54h201l54 -53v-56h-201v-95h147l54 -54v-117z" />
<glyph unicode="&#x103b;" horiz-adv-x="132" d="M114 -294l-80 -48l-148 76l-30 48v218h109v-186l40 -19v729h54l55 -54v-764z" />
<glyph unicode="&#x103c;" horiz-adv-x="166" d="M502 -283l-55 -55h-363l-54 55v1076l54 54h363l55 -54v-91h-109v36h-254v-967h254v229h109v-283z" />
<glyph unicode="&#x103d;" d="M-27 -261l-51 -77h-218l-50 76l111 262h101zM-158 -228l-27 66l-29 -66h56z" />
<glyph unicode="&#x103e;" d="M-92 -285l-53 -54h-86v107h32v232h107v-285z" />
<glyph unicode="&#x103f;" horiz-adv-x="774" d="M499 11l-12 -11h-191l-10 11l-11 -11h-191l-54 54v55h202v305h-202v55l54 54h202l55 -54v-360h92v414h54l55 -54v-360h93v414h55l54 -54v-415l-54 -54h-180z" />
<glyph unicode="&#x1040;" horiz-adv-x="368" d="M29 54v415l54 54h93v-109h-38v-305h38v-109h-93zM230 109v305h-24v109h78l56 -54v-415l-56 -54h-78v109h24z" />
<glyph unicode="&#x1041;" horiz-adv-x="370" d="M342 54l-56 -54h-202l-54 54v56h202v305h-202v56l54 54h202l56 -54v-417z" />
<glyph unicode="&#x1042;" horiz-adv-x="372" d="M340 -284l-55 -55h-202l-54 55v87h109v-33h93v701l53 53h56v-808z" />
<glyph unicode="&#x1043;" horiz-adv-x="370" d="M189 0l154 -285l-96 -53l-217 392v55h201v305h-201v55l54 54h201l56 -54v-415l-56 -54h-96z" />
<glyph unicode="&#x1044;" horiz-adv-x="370" d="M88 0l-56 54v415l56 54h201l54 -54v-55h-201v-305h201v-55l-217 -392l-96 53l154 285h-96z" />
<glyph unicode="&#x1045;" horiz-adv-x="365" d="M156 109v157h-18v-157h18zM230 -229v643h-92v-94h46l26 -26v-212l-26 -28h-101l-54 55v360l54 54h201l56 -54v-752l-56 -55h-201l-54 55v88h109v-34h92z" />
<glyph unicode="&#x1046;" horiz-adv-x="367" d="M339 370h-87v-26l87 -88v-202l-55 -54h-201l-54 54v739l54 54h201l55 -54v-89h-109v34h-92v-629h92v101l-73 73v158l28 27h126l28 -28v-70z" />
<glyph unicode="&#x1047;" horiz-adv-x="370" d="M274 -230h42v-109h-107l-55 55l77 273v426h-93v-361h-55l-54 55v361l54 54h202l55 -54v-470z" />
<glyph unicode="&#x1048;" horiz-adv-x="368" d="M340 54l-56 -54h-54v414h-92v-148h46l26 -27v-211l-26 -28h-101l-54 54v415l54 54h201l56 -54v-415zM156 54v157h-18v-157h18z" />
<glyph unicode="&#x1049;" horiz-adv-x="367" d="M340 -284l-55 -55h-202l-54 55v753l54 54h202l55 -54v-202l-87 -89v-26h87v-70l-28 -28h-127l-27 27v158l73 74v102h-93v-645h93v34h109v-88z" />
<glyph unicode="&#x104a;" horiz-adv-x="175" d="M140 421v-421h-111v421h111z" />
<glyph unicode="&#x104b;" horiz-adv-x="299" d="M140 421v-421h-111v421h111zM267 421v-421h-111v421h111z" />
<glyph unicode="&#x104c;" horiz-adv-x="371" d="M232 524v11h-147l-54 55v204l54 54h202l54 -53v-56h-202v-95h148l54 -54v-90h-31l31 -30v-415l-55 -54h-147v-15h147l55 -54v-215l-55 -55h-202l-54 55v81h109v-27h93v106h-148l-54 55v123l54 55h148v305h-202v55l54 54h148z" />
<glyph unicode="&#x104d;" horiz-adv-x="503" d="M341 -152h-55l-54 54v511h-92v-147h46l26 -28v-211l-26 -27h-101l-54 54v414l54 54h201l55 -54v-620zM158 54v157h-18v-157h18zM466 -283l-54 -55h-327l-54 55v126l54 55h133l54 -55v-54h-132v-18h217v762h-146l-55 55v204l55 54h201l54 -53v-56h-201v-95h147l54 -54 v-871z" />
<glyph unicode="&#x104e;" horiz-adv-x="371" d="M340 -332h-55l-54 55v281h-146l-54 54v413l54 54h200l55 -54v-55h-200v-303h200v-445z" />
<glyph unicode="&#x104f;" horiz-adv-x="639" d="M288 109v25h-65v-25h65zM288 414h-65v-26h65v26zM306 505l18 18h98l55 -54v-469h-109v414h-25v-54l-28 -28h-120l-27 28v54h-27v-305h27v53l27 26h120l28 -26v-108l-55 -54h-202l-54 54v415l54 54h202zM609 0h-108v534h-147l-56 55v204l56 54h201l54 -53v-56h-201v-95 h147l54 -54v-589z" />
<glyph unicode="&#x1050;" horiz-adv-x="443" d="M335 356q0 13 -8 27t-22 25.5t-33.5 19.5t-41.5 10q-24 1 -44.5 -6t-37.5 -19.5t-26.5 -27.5t-9.5 -29v-226q0 -21 17.5 -43t41.5 -35q-10 -25 -16 -39.5t-9 -21.5q-23 10 -42 25t-32.5 33t-21 39t-7.5 42v226q0 32 17 59.5t44 47.5t61.5 31t68.5 10q31 -2 62.5 -14.5 t55.5 -33t39 -46t15 -54.5v-234q0 -20 -7.5 -40.5t-21.5 -38t-33 -31t-42 -23.5l-25 61q25 11 41.5 31.5t16.5 40.5v234zM294 280q-11 18 -29 28.5t-41 10.5q-22 0 -40 -10.5t-30 -28.5q-11 -20 -11 -42q0 -18 6.5 -33t17.5 -25.5t25.5 -17t31.5 -6.5t31.5 6.5t25.5 17 t17.5 25.5t6.5 33q0 22 -11 42zM224 204q-14 0 -24.5 10t-10.5 24q0 15 10.5 24t24.5 9t24 -9t10 -24q0 -14 -10 -24t-24 -10z" />
<glyph unicode="&#x1051;" horiz-adv-x="443" d="M335 373q0 20 -16.5 40t-41.5 32l25 60q23 -10 42 -23.5t33 -31t21.5 -37.5t7.5 -40v-235q0 -29 -15 -54.5t-39 -46t-55.5 -32.5t-62.5 -14q-34 -2 -68.5 9.5t-61.5 31t-44 47t-17 59.5v226q0 22 7.5 42.5t21 38.5t32.5 33t42 26q3 -7 9 -22l16 -40q-24 -13 -41.5 -34.5 t-17.5 -43.5v-226q0 -14 9.5 -29t26.5 -27t37.5 -19t44.5 -7q22 2 41.5 10t33.5 19.5t22 26t8 26.5v235zM294 214q11 20 11 42q0 18 -6.5 33t-17.5 26t-25.5 17t-31.5 6t-31.5 -6t-25.5 -17t-17.5 -26t-6.5 -33q0 -22 11 -42q12 -17 30 -28t40 -11q23 0 41 11t29 28z M224 290q14 0 24 -9.5t10 -24.5t-10 -24t-24 -9t-24.5 9t-10.5 24t10.5 24.5t24.5 9.5z" />
<glyph unicode="&#x1052;" horiz-adv-x="449" d="M225 -6q-25 0 -56 9.5t-58.5 30t-46 49.5t-18.5 67v2v222q0 21 8 41t22 37t33.5 31t40.5 23l25 -61q-27 -13 -42.5 -32.5t-15.5 -38.5v-232q0 -14 8.5 -29.5t24 -26.5t35 -19t41.5 -8t42.5 8.5t36 22t24 29.5t8.5 31v128q0 15 -10.5 31t-26.5 28q-19 16 -34 34.5 t-15 46.5q0 30 16 50t40 29.5t51.5 10t51.5 -8.5l-19 -60q-16 8 -29 8t-23 -4.5t-15 -11.5t-5 -13q0 -11 9 -18t19 -14q31 -22 46.5 -49t15.5 -59v-128q0 -30 -15.5 -58.5t-40.5 -50t-58.5 -34.5t-69.5 -13z" />
<glyph unicode="&#x1053;" horiz-adv-x="449" d="M217 -9q-33 2 -64.5 16t-54.5 35t-37.5 48.5t-14.5 56.5v127q0 33 16 60t45 48q11 8 20 15t9 16q0 7 -5 14.5t-15 11.5t-23.5 4t-27.5 -7l-20 60q23 9 51 8.5t52 -10.5t40 -29.5t16 -51.5q0 -27 -14.5 -45.5t-33.5 -32.5q-17 -14 -28.5 -29.5t-11.5 -31.5v-127 q0 -16 9 -32t24.5 -29t35 -21.5t40.5 -8.5h5q22 0 42 8.5t35 21.5t23.5 29t8.5 32v127q0 16 -11 31.5t-28 29.5q-18 14 -33.5 32.5t-15.5 45.5q0 32 16 51.5t40 29.5t52 10.5t52 -8.5l-20 -60q-15 7 -28 7t-23 -4t-15.5 -11.5t-5.5 -14.5q0 -9 9 -16t20 -15q30 -21 45.5 -48 t15.5 -60v-127q0 -29 -13.5 -56.5t-37 -48.5t-54.5 -35t-65 -16h-22z" />
<glyph unicode="&#x1054;" horiz-adv-x="440" d="M345 362q-6 16 -18 31t-28.5 26t-36.5 16.5t-41 4.5q-20 -1 -38.5 -8t-33.5 -19q14 -24 38 -41.5t51 -26t54.5 -4.5t52.5 21zM354 308q-31 -16 -64 -18t-65 6.5t-60 26.5t-47 44q-1 -3 -1 -8v-219q0 -15 8.5 -30t23.5 -26.5t34.5 -19t41.5 -7.5q50 0 81 21t41 52l62 -35 q-25 -55 -73.5 -79t-110.5 -24q-36 0 -68.5 12.5t-57 33t-39 47.5t-14.5 55v219q0 29 15 54.5t39 46t54.5 32.5t62.5 15q34 1 68 -9.5t61 -30.5t44.5 -47t17.5 -58q-8 -16 -20 -29.5t-34 -24.5z" />
<glyph unicode="&#x1055;" horiz-adv-x="440" d="M343 363q-5 16 -17 31t-29 25.5t-37.5 16.5t-39.5 5q-21 -1 -39.5 -8.5t-32.5 -18.5q14 -25 37 -42.5t50.5 -25.5t55.5 -4.5t52 21.5zM114 109q0 -20 10.5 -33.5t25.5 -13.5q18 0 27.5 11.5t9.5 31.5v23h70v-22q1 -19 11.5 -31.5t24.5 -12.5q17 0 27.5 12t10.5 32v22h69 v-22q0 -26 -7.5 -46t-22 -35.5t-34 -23.5t-44.5 -8q-21 1 -38 8t-30 19q-15 -13 -33 -20t-42 -7q-25 1 -44.5 10.5t-33 25.5t-20 36.5t-6.5 43.5l-1 250q0 30 15 55.5t39 45.5t55 32t62 15q33 1 67.5 -9.5t61.5 -30.5t44 -47t18 -57q-7 -17 -19.5 -30t-35.5 -25 q-30 -15 -62.5 -17t-65 6t-60.5 26t-48 44v-8z" />
<glyph unicode="&#x1056;" horiz-adv-x="449" d="M225 -8q-25 0 -56 10.5t-58.5 30.5t-46 49t-18.5 66v2v149h71v-158q0 -15 8.5 -30.5t24 -26.5t35 -18.5t41.5 -7.5t43 8.5t36 22t24 29t9 30.5v129q0 15 -11 30.5t-27 29.5q-19 14 -34 32.5t-15 46.5q0 31 16 51t40 29.5t51.5 10t51.5 -8.5l-19 -60q-16 7 -29 7t-23 -4.5 t-15 -11.5t-5 -13q0 -10 9 -17.5t19 -14.5q30 -20 46 -47.5t16 -59.5v-129q0 -30 -15.5 -58t-40.5 -49.5t-58.5 -35t-69.5 -13.5z" />
<glyph unicode="&#x1057;" horiz-adv-x="446" d="M337 276q0 15 -11.5 30.5t-27.5 29.5q-19 14 -34 33t-15 46q0 31 16.5 51t40 30t51.5 10t52 -9l-19 -60q-16 8 -29.5 8t-23 -4.5t-14.5 -12t-5 -13.5q0 -9 9.5 -16.5t18.5 -15.5q30 -20 46 -47t16 -60v-168q0 -22 -7 -42.5t-20.5 -36.5t-33.5 -26.5t-46 -10.5 q-45 0 -75 27q-14 -12 -31.5 -19t-38.5 -8q-26 0 -45.5 8t-34.5 23.5t-22.5 36t-7.5 46.5v188h70v-188q0 -20 10.5 -32t28.5 -12q15 1 25 13t11 31v22h72v-24q0 -19 10 -30.5t28 -11.5q16 1 26 14t10 32v168z" />
<glyph unicode="&#x1058;" d="M-178 -104v1q-12 17 -30 26t-40 9q-17 0 -32 -6q18 -19 45.5 -28t56.5 -2zM-248 -11q38 0 69 -16.5t50 -44.5q1 -32 -27 -59h-1q-20 -8 -41.5 -8.5t-41.5 4.5t-37.5 16t-30.5 26q-23 -21 -23 -54q0 -16 6 -30.5t18 -24.5t27 -16.5t32 -6.5q22 0 40 9t29 25l49 -32 q-19 -26 -50 -42.5t-68 -16.5q-29 0 -55.5 10.5t-46 29t-31 43t-11.5 52.5q0 29 11.5 53.5t31 43t46 29t55.5 10.5z" />
<glyph unicode="&#x1059;" d="M-195 -100h-1q-11 16 -29.5 26t-39.5 10q-9 0 -17.5 -2t-15.5 -5q17 -20 45 -28.5t58 -0.5zM-265 -8q37 0 68.5 -16.5t50.5 -43.5q3 -35 -27 -61v1q-21 -7 -42.5 -8.5t-42 4t-38 16.5t-30.5 26q-21 -20 -23 -48v-42q0 -17 4.5 -28.5t18.5 -12.5q15 0 17.5 10.5t2.5 28.5 h60v-10.5t1 -10.5q2 -7 7 -12.5t17 -5.5q14 0 18 12t4 29h59q0 -20 -4.5 -38t-14 -32t-25 -22.5t-37.5 -8.5q-33 0 -54 15q-19 -15 -52 -15q-22 0 -37.5 10t-25 25t-14.5 32.5t-5 33.5v24q-1 4 -1 6.5v5.5q0 28 12 52.5t31.5 43t46 29.5t55.5 11z" />
<glyph unicode="&#x105a;" horiz-adv-x="432" d="M395 97q-9 -23 -28 -43t-43.5 -34.5t-53 -21.5t-56.5 -6q-21 2 -42.5 7.5t-40 15t-34.5 23t-28 29.5t-18.5 34t-6.5 38v217q0 30 14.5 56t38.5 47t56.5 33t67.5 12q29 1 56.5 -8t50.5 -24.5t40 -35t26 -43.5l-61 -34q-4 14 -13.5 28.5t-24 26t-33.5 18.5t-40 7t-41 -7 t-35 -19t-24 -26.5t-9 -30.5v-217q0 -13 8.5 -27t22 -25.5t32.5 -20t42 -9.5q22 0 42.5 6t36 17.5t25.5 25.5t12 27zM113 -147v41q0 16 8.5 32.5t22.5 31t35 23.5t46 9q22 0 41 -8.5t34 -23t23 -31.5t8 -34v-21q0 -17 -9 -28t-20 -21.5t-22.5 -21t-14.5 -24.5q-1 -3 -1.5 -5 t0.5 -4q1 -6 5.5 -11t7.5 -8l-39 -29q-23 6 -29.5 24t-3.5 38q1 15 10 28.5t20.5 24.5t22 20.5t14.5 16.5v21q0 4 -3.5 10t-9.5 12.5t-14.5 10.5t-19.5 4q-14 0 -23.5 -4.5t-16.5 -11t-9.5 -12.5t-2.5 -8v-41h-60z" />
<glyph unicode="&#x105b;" horiz-adv-x="587" d="M237 439q-4 -12 -1 -23.5t11 -21t18.5 -16t22.5 -10t23.5 -2t21.5 7.5q-5 11 -14 22.5t-22 20.5t-28 14.5t-32 7.5zM396 382q-2 -16 -11 -42q-18 -21 -41.5 -29.5t-46.5 -7t-45.5 12.5t-40.5 27.5t-28 38.5t-10 46q-13 -5 -23.5 -13.5t-18.5 -17.5t-12.5 -19t-4.5 -19 v-218q0 -15 9 -30t24 -26t35 -19t42 -8q20 0 39 7.5t33 18.5t24.5 25.5t13.5 29.5l62 -35q-10 -23 -27 -43.5t-40 -35t-50.5 -23t-55.5 -8.5q-36 1 -68 13t-56 32t-38.5 46.5t-14.5 55.5v218q0 29 14.5 54.5t38.5 45.5t54.5 31.5t61.5 14.5q23 1 45 -3t42.5 -13t38 -22 t31.5 -29q15 6 29 6t28 -4t25 -12.5t21 -18.5l-34 -62q-2 11 -7 19t-11 11.5t-13 4.5t-14 0zM475 505h69v-752q0 -7 -2.5 -13t-7.5 -10.5t-11 -8t-13 -3.5l-170 55q-3 2 -9.5 5.5t-12 9.5t-9 12.5t-3.5 13.5v192h68v-172l101 -35v706z" />
<glyph unicode="&#x105c;" horiz-adv-x="449" d="M47 139v210q0 31 14.5 59t40.5 50.5t58.5 35.5t68.5 12t68.5 -13t57 -32.5t39 -47t14.5 -56.5v-218q0 -29 -14.5 -55t-38.5 -45.5t-54.5 -32t-62.5 -14.5q-35 -2 -69 9.5t-61.5 31t-44 47t-16.5 59.5zM117 349v-210q0 -14 9.5 -29.5t25.5 -27t37 -18.5t45 -6 q22 0 40.5 8.5t32.5 20t22.5 26t8.5 26.5v17v201q0 16 -8.5 31t-23.5 26.5t-35 19t-42 7.5q-23 0 -43 -8.5t-35.5 -21.5t-24.5 -30t-9 -32zM297 206q13 18 13 41q0 18 -6.5 32.5t-18 26t-26 17.5t-32.5 6q-16 0 -31 -6t-26 -17.5t-17.5 -26t-6.5 -32.5q0 -22 11 -41 t29.5 -29.5t40.5 -10.5t40.5 10.5t29.5 29.5zM228 282q14 0 24 -10t10 -25t-10 -24t-24 -9q-16 0 -25.5 9t-9.5 24t9.5 25t25.5 10z" />
<glyph unicode="&#x105d;" horiz-adv-x="432" d="M324 170v194q0 18 -16 37t-41 31l25 58q20 -9 38 -22.5t31.5 -29.5t21.5 -34.5t8 -39.5v-229q0 -32 -18 -60.5t-47 -48.5v-164v-110q0 -14 -10 -24t-24 -10h-87h-128q-12 0 -22 10t-10 24v57q0 7 1.5 20t7 26.5t18.5 24.5t38 16q20 5 39 0t36 -13.5t30 -19.5t21 -19 l-47 -47q-3 3 -9.5 8.5t-15.5 11.5t-17.5 10.5t-17 5t-13 -4t-5.5 -15.5v-28h91h59v72v141q-11 -2 -21 -3l-20 -2q-34 0 -65.5 12.5t-56 33t-39 47.5t-14.5 56v222q0 21 7.5 40t20.5 34.5t31 29t39 22.5l24 -58q-25 -13 -40 -31.5t-15 -36.5v-201q22 20 49 29.5t55.5 10.5 t56 -7.5t51.5 -25.5zM125 105q14 -20 39 -35t56 -14q32 1 58 15.5t38 35.5q-19 24 -44.5 35.5t-52 11t-51.5 -12t-43 -36.5z" />
<glyph unicode="&#x105e;" d="M-225 -144h-85q-14 0 -16.5 -8t7.5 -13l78 -48q11 -7 14 -1t2 13v57zM-239 -283q-6 0 -11 1t-8 3q-5 3 -8 4l-81 55q-24 13 -34.5 36t-6.5 46t23 40t55 17h85v65h61v-65h49v-63h-49v-42q0 -51 -17.5 -74t-57.5 -23z" />
<glyph unicode="&#x105f;" d="M-169 -199v10l62 -20q-3 -15 -10 -28.5t-17.5 -23t-24.5 -15.5t-30 -6h-110q-17 0 -32 7t-26 18t-18 26t-7 32v13q0 18 7 32.5t18 26t26 17.5t32 6h24v90h63v-152h-87q-8 0 -14 -5.5t-6 -14.5v-13q0 -8 6 -14.5t14 -6.5h110q7 0 13.5 6.5t6.5 14.5z" />
<glyph unicode="&#x1060;" d="M-115 -63l-208 -133q-11 -7 -8.5 -14.5t16.5 -7.5h200v-64h-200q-36 0 -56 17.5t-24 41t6.5 47.5t34.5 36l204 131z" />
<glyph unicode="&#x1061;" horiz-adv-x="435" d="M189 66q-3 34 -24 59.5t-54 35.5v-20q0 -11 5.5 -22.5t16 -21.5t25 -18t31.5 -13zM111 208q33 -7 58.5 -26t42 -45.5t21.5 -58t-5 -64.5l-1 -262q0 -13 -10 -23.5t-24 -10.5h-106v66h74l1 225q-24 7 -45.5 19.5t-37.5 30t-25.5 38.5t-9.5 44v219q0 29 14 54t37 44.5 t54.5 30.5t64.5 13q33 0 64.5 -11.5t54.5 -32t38.5 -46.5t17.5 -55v-574h43v-65h-77q-12 0 -22.5 9.5t-10.5 22.5v604q0 15 -8.5 30t-23.5 27.5t-34 20t-41 7.5t-40.5 -6.5t-33 -18t-22.5 -25.5t-8 -29v-152z" />
<glyph unicode="&#x1062;" horiz-adv-x="257" d="M11 507h163q13 0 23.5 -10.5t10.5 -24.5v-478h-69v444h-128v69z" />
<glyph unicode="&#x1063;" horiz-adv-x="415" d="M103 130q2 -12 12 -25.5t25 -24.5t35 -17.5t41 -5.5q22 1 40 9t31.5 19.5t21.5 24.5t8 26v227q0 15 -8.5 29t-23 25.5t-34 19t-40.5 7.5q-20 0 -38 -7.5t-32.5 -18t-24 -25t-13.5 -28.5l-59 34q9 22 25.5 42t39 34t49 22.5t54.5 8.5q35 -1 66.5 -13t54.5 -31t37 -45 t14 -54v-227q0 -28 -14 -53t-37 -44t-53 -31t-60 -13q-23 -1 -46 3.5t-43 13.5v-300h-66v350q-7 7 -12 15.5t-10 18.5z" />
<glyph unicode="&#x1064;" horiz-adv-x="392" d="M247 428h-201v70h238q15 0 25 -10.5t10 -24.5v-38v-8t-4 -9l-143 -339h184v-69h-225q-13 0 -23.5 10.5t-10.5 24.5v34q0 6 2.5 11t2.5 6z" />
<glyph unicode="&#x1065;" horiz-adv-x="429" d="M101 131q2 -13 11.5 -26t25.5 -24.5t35.5 -18t41.5 -4.5q22 0 40 8.5t31.5 19.5t21.5 24.5t8 26.5v224q0 14 -8.5 28.5t-23 26t-34 19t-40.5 8.5q-20 0 -38 -7.5t-33 -18.5t-25 -25.5t-12 -27.5l-61 33q9 22 26.5 42t40 35t48.5 23.5t54 7.5q36 0 67.5 -12t55 -31.5 t37.5 -46t14 -54.5v-224q0 -19 -6 -36.5t-17.5 -33.5t-27.5 -29t-34 -22.5t-39 -15t-41 -6.5q-28 -1 -56.5 6t-52 20.5t-42 33.5t-27.5 42z" />
<glyph unicode="&#x1066;" horiz-adv-x="429" d="M164 -215h86v211q-5 -1 -11.5 -1.5t-13.5 -1.5q-32 -2 -64 9t-58.5 29.5t-42.5 44.5t-16 56v245q0 21 7 40t20.5 36.5t31.5 31.5t38 24q3 -6 9 -20.5t16 -36.5q-25 -13 -40 -34t-15 -41v-245q0 -12 9 -26.5t24 -26.5t35.5 -19t42.5 -5q21 1 39.5 8.5t31.5 19t20.5 24.5 t7.5 25v252q0 21 -15 39.5t-40 29.5l25 58q43 -19 70 -52.5t27 -74.5v-252q0 -34 -20 -63t-51 -47v-270q0 -14 -10 -24t-24 -10h-119v67z" />
<glyph unicode="&#x1067;" horiz-adv-x="265" d="M131 106q-11 0 -19.5 -7.5t-8.5 -20.5q0 -11 8.5 -18.5t19.5 -7.5q13 0 20.5 7.5t7.5 18.5q0 13 -7.5 20.5t-20.5 7.5zM151 164v341h69v-421v-6v-3v-1v-2q-2 -16 -9.5 -31t-19.5 -26t-27 -17t-33 -6t-33.5 6.5t-27.5 19t-18.5 28t-6.5 32.5q0 19 6.5 35t18.5 27.5 t27.5 18.5t33.5 7q10 0 20 -2z" />
<glyph unicode="&#x1068;" horiz-adv-x="316" d="M223 719q16 0 30.5 -6t25.5 -16.5t17.5 -25.5t6.5 -32t-6.5 -31.5t-17.5 -25.5t-25.5 -17.5t-30.5 -6.5q-18 0 -33 6.5t-26 17.5t-17.5 25.5t-6.5 31.5t6.5 32t17.5 25.5t26 16.5t33 6zM223 664q-12 0 -19.5 -7.5t-7.5 -17.5q0 -12 7.5 -18t19.5 -6q9 0 16.5 6t7.5 18 q0 10 -7.5 17.5t-16.5 7.5zM49 69h144v438h69v-472q0 -14 -10 -24.5t-24 -10.5h-179v69z" />
<glyph unicode="&#x1069;" horiz-adv-x="316" d="M214 86v10l69 -20q-2 -18 -10 -32t-20 -26t-28 -17.5t-34 -5.5h-52q-20 0 -36.5 7t-29 19.5t-19.5 29.5t-7 35v107q0 19 7 35.5t19.5 29t29 19.5t36.5 7h38q8 0 14.5 7.5t6.5 16.5v106q0 10 -6.5 16t-14.5 6h-54q-10 0 -16.5 -6t-6.5 -16v-9l-69 21q2 17 10 31.5t20.5 26 t28 17.5t33.5 6h54q18 0 35 -7.5t29.5 -20t19.5 -29.5t7 -36v-106q0 -20 -7 -36.5t-19.5 -29t-29.5 -19.5t-35 -7h-38q-9 0 -16 -7t-7 -16v-107q0 -9 7 -15t16 -6h52q11 0 17 6t6 15z" />
<glyph unicode="&#x106a;" horiz-adv-x="395" d="M115 86q0 -10 6.5 -15.5t16.5 -5.5h106q9 0 14.5 5.5t5.5 15.5v422h71l1 -422q0 -19 -7.5 -35.5t-20 -29t-29 -19.5t-35.5 -7h-106q-17 0 -33 6t-28.5 17t-20 25.5t-10.5 32.5l69 20v-10z" />
<glyph unicode="&#x106b;" horiz-adv-x="392" d="M112 405l-69 22q3 17 10.5 31.5t20 25.5t28.5 17t33 6h106q19 0 35.5 -7t29.5 -19.5t20 -29t7 -36.5l-1 -421h-71v421q0 10 -5.5 16t-14.5 6h-106q-10 0 -16.5 -6t-6.5 -16v-10z" />
<glyph unicode="&#x106c;" horiz-adv-x="378" d="M265 95l70 -20q-2 -18 -10 -32.5t-20.5 -25.5t-28 -17t-32.5 -6h-106q-19 0 -36 7t-30 19.5t-20 29.5t-7 35l1 418h71v-418q0 -9 6 -15t15 -6h106q10 0 15.5 6t5.5 15v10z" />
<glyph unicode="&#x106d;" horiz-adv-x="330" d="M100 86q0 -9 6 -15t16 -6h53q9 0 15.5 6t6.5 15v107q0 9 -6.5 16t-15.5 7h-38q-19 0 -35.5 7t-29.5 19.5t-20 29t-7 36.5v106q0 19 7 36t20 29.5t29.5 20t35.5 7.5h53q18 0 34 -6t28.5 -17.5t20.5 -26t10 -31.5l-70 -21v9q0 10 -6 16t-17 6h-53q-8 0 -15 -6t-7 -16v-106 q0 -9 7 -16.5t15 -7.5h38q19 0 36 -7t29.5 -19.5t19.5 -29t7 -35.5v-107q0 -18 -7 -35t-19.5 -29.5t-29.5 -19.5t-36 -7h-53q-18 0 -33.5 5.5t-27.5 17.5t-20 26t-10 32l69 20v-10z" />
<glyph unicode="&#x106e;" horiz-adv-x="872" d="M113 129q0 -11 6 -23t16.5 -21.5t24 -18.5t29.5 -14l-26 -59q-24 8 -46.5 21.5t-38 31t-25 39t-9.5 44.5v220q0 29 15 57.5t40.5 50.5t58.5 35t68 13q38 -1 70 -14t59 -35q12 21 36 34.5t51 13.5t51.5 -14t37.5 -35q25 23 58.5 36.5t69.5 13.5q36 -1 68.5 -13t56.5 -33 t38.5 -47.5t14.5 -55.5v-218q0 -29 -15 -55t-38.5 -45.5t-54 -32t-61.5 -14.5h-18q-2 9 -4.5 25t-5.5 42q13 -2 23 -1q23 0 42 8.5t32.5 20t22 25.5t8.5 27v218q0 16 -9 30t-23.5 26.5t-34.5 19.5t-42 7q-21 0 -40.5 -7t-34 -19t-24.5 -26t-12 -30v-8t-0.5 -18.5t-0.5 -78 v-81.5v-79q0 -17 -5.5 -32t-15 -28.5t-23 -23.5t-29.5 -16q-2 8 -8.5 24t-16.5 42q10 2 19 10.5t9 23.5v307q0 9 -4 15.5t-9 11t-11.5 7t-10.5 2.5q-6 0 -12 -3t-12 -8t-10 -12t-4 -16v-267q0 -24 -10 -45.5t-26.5 -40t-39.5 -32t-48 -20.5l-24 60q18 6 32 14.5t24.5 18.5 t16.5 22t6 23v227q0 16 -8.5 30t-24 26.5t-35.5 19.5t-42 7t-42 -8.5t-36 -22t-25 -29t-9 -30.5v-220z" />
<glyph unicode="&#x106f;" horiz-adv-x="731" d="M334 150v217q0 9 -4.5 20t-12 21t-18 19t-23.5 17l25 58q20 -9 37.5 -24.5t31.5 -31.5q25 30 63.5 45t80.5 14q35 -1 67 -13t56 -32.5t38.5 -47t14.5 -55.5v-216q0 -2 -0.5 -5.5t-1.5 -6.5v-376q0 -13 -9.5 -23.5t-22.5 -10.5h-206v68h171v244q-44 -31 -100 -35 q-8 -1 -17 0q-1 8 -3 25t-7 41q6 -2 11.5 -2h11.5q22 1 41.5 9t33 20.5t21 26t7.5 25.5v216q0 16 -8.5 30.5t-23 26t-34 18.5t-41.5 7q-23 1 -43 -5.5t-35 -18.5t-24 -27t-9 -31v-207q0 -29 -14.5 -57.5t-40.5 -50t-58.5 -34t-67.5 -12.5t-67 12.5t-56 32.5t-38 46t-14 55 v225q0 21 7.5 41.5t22 38.5t33 32t39.5 24l25 -59q-14 -7 -24 -16.5t-17.5 -20t-12 -21.5t-4.5 -19v-225q0 -14 8.5 -29t23.5 -26.5t35 -19t41 -7.5q22 0 41.5 8.5t35 21.5t25 29t9.5 31z" />
<glyph unicode="&#x1070;" horiz-adv-x="734" d="M450 -212h171v238q-45 -31 -106 -32q-43 -1 -81 17t-63 48q-25 -29 -63 -46.5t-82 -18.5q-37 -1 -69.5 12t-57 34.5t-40 49.5t-15.5 58v128q0 33 16 60t44 46q10 8 19.5 15t9.5 16q0 6 -5.5 14t-15 12.5t-22 4.5t-27.5 -9l-20 60q24 8 51 8t51 -10t40 -29.5t16 -50.5 q0 -27 -15 -45t-33 -33q-17 -12 -28.5 -28t-11.5 -31v-128q0 -15 9.5 -30.5t25 -29t35 -22t42.5 -8.5q22 0 42 7t35 18.5t23.5 26.5t8.5 30v232q0 18 -16.5 37.5t-42.5 31.5l26 60q21 -9 39.5 -22.5t32.5 -30.5t22 -36t8 -40v-222v-2q0 -15 9 -30.5t24 -29t35 -22t43 -8.5 q21 0 40.5 7t34.5 18t23.5 25t8.5 30v7v213q0 14 -7.5 27.5t-21 25t-32.5 19.5t-42 10q-5 0 -11 -0.5t-11 -1.5l9 67h18q31 -2 62 -14t54.5 -32.5t38 -46t14.5 -54.5v-218v-7.5v-9.5v-369q0 -14 -11 -24.5t-24 -10.5h-207v69z" />
<glyph unicode="&#x1071;" horiz-adv-x="429" d="M118 632q-7 0 -12 -4t-5 -12q0 -7 5 -11t12 -4q6 0 11 4t5 11q0 8 -5 12t-11 4zM118 688q14 0 27 -6t23 -15.5t15 -22.5t5 -28t-5 -28t-15 -23t-23 -15.5t-27 -5.5q-15 0 -28.5 5.5t-22.5 15.5t-14.5 23t-5.5 28t5.5 28t14.5 22.5t22.5 15.5t28.5 6zM319 632 q-7 0 -12.5 -4t-5.5 -12q0 -7 5.5 -11t12.5 -4t11.5 4t4.5 11q0 8 -4.5 12t-11.5 4zM319 688q14 0 27 -6t23 -15.5t15.5 -22.5t5.5 -28t-5.5 -28t-15.5 -23t-23 -15.5t-27 -5.5q-16 0 -28.5 5.5t-22.5 15.5t-15.5 23t-5.5 28t5.5 28t15.5 22.5t22.5 15.5t28.5 6z" />
<glyph unicode="&#x1072;" d="M-239 502q-30 0 -55.5 10.5t-44.5 28.5t-30 43t-11 52t11 52t30 43.5t44.5 29t55.5 10.5q19 0 38.5 -5.5t35.5 -15.5t29 -23.5t22 -30.5l-56 -27q-5 8 -12 16.5t-16 14t-20 8.5t-22 3q-17 0 -30.5 -6t-24 -16t-17 -23.5t-6.5 -29.5q0 -15 6.5 -28.5t17 -24.5t24 -16 t30.5 -5q20 0 37.5 9.5t28.5 25.5l56 -27q-9 -15 -22 -28t-29 -22t-34 -13.5t-36 -4.5z" />
<glyph unicode="&#x1073;" d="M-411 592l114 111q13 12 23 19.5t19 8t19 -5.5t23 -17l114 -119l-43 -43l-113 113l-113 -111z" />
<glyph unicode="&#x1074;" d="M-368 744l113 -110l113 112l43 -43l-114 -119q-13 -12 -23 -17t-19 -4.5t-19 7.5t-23 19l-114 111z" />
<glyph unicode="&#x1075;" horiz-adv-x="449" d="M228 504q26 0 57 -10.5t58 -30t45.5 -49t18.5 -66.5v-2v-223q0 -20 -8 -40.5t-22.5 -37t-33.5 -30.5t-40 -23l-25 60q26 13 42.5 33t16.5 38v232q0 16 -9 30.5t-24 26.5t-35.5 19t-41.5 7q-23 0 -43 -8t-36 -22t-25 -29.5t-9 -30.5v-129q0 -14 12 -30t28 -29 q19 -14 33.5 -33t14.5 -47q0 -31 -16 -50.5t-40 -29.5t-51.5 -10t-51.5 9l19 59q15 -8 28.5 -8t23.5 4.5t15 12.5t5 13q0 10 -9 17.5t-19 14.5q-30 21 -45.5 48t-15.5 59v129q0 30 15 58.5t40.5 50t58.5 34.5t69 13z" />
<glyph unicode="&#x1076;" horiz-adv-x="443" d="M107 134q5 -16 17 -30.5t28.5 -25.5t37 -17t40.5 -5q21 2 39.5 9t31.5 18q-13 26 -36.5 43.5t-50.5 24.5t-55.5 3.5t-51.5 -20.5zM98 189q30 15 63 17.5t65 -6.5t60.5 -27t47.5 -43q1 2 1 8v218q0 13 -2.5 25t-8 22.5t-16.5 19t-27 12.5q-10 2 -21 5t-20 4t-15 -2t-8 -10 q-3 -6 -5 -13t-7 -18q-8 -22 -25.5 -38t-45.5 -16q-31 0 -49.5 13t-28.5 34.5t-12.5 46.5t0.5 49l72 15q-10 -25 -10.5 -42.5t3.5 -28t11 -15t14 -4.5q10 0 15.5 8t7.5 21q3 19 9.5 31t15 18t21 9t27.5 3q12 -1 24 -3q9 -2 19.5 -3.5t18.5 -5.5q26 -9 46 -23.5t35 -32.5 t23.5 -38t8.5 -43v-218q0 -29 -15 -54.5t-38.5 -46t-55 -32.5t-62.5 -14q-34 -2 -67.5 9t-60.5 30.5t-44.5 46.5t-17.5 58q7 16 19.5 29t34.5 25z" />
<glyph unicode="&#x1077;" horiz-adv-x="440" d="M333 138q-23 -14 -38 -36t-19 -49q25 13 41 32.5t16 37.5v15zM236 -10q-10 32 -7 63.5t16 58t35.5 46.5t52.5 31v166q0 16 -8 30.5t-23 26.5t-35 19t-45 7t-45.5 -8.5t-35.5 -22t-22.5 -29t-7.5 -30.5v-129q0 -15 11 -30.5t28 -28.5q19 -14 33.5 -33t14.5 -47 q0 -31 -16 -51t-39.5 -29.5t-51.5 -9.5t-52 9l20 59q16 -8 28.5 -8t22.5 4.5t15 12.5t5 13q0 10 -9 17.5t-19 14.5q-30 21 -46 48t-16 59v129q0 30 13.5 58.5t37 50t58 34.5t75.5 13q31 0 62.5 -10.5t57 -30t42 -49t16.5 -66.5v-2v-223q0 -20 -7.5 -40.5t-22 -37 t-33.5 -30.5t-40 -23z" />
<glyph unicode="&#x1078;" horiz-adv-x="731" d="M695 140q0 -20 -8 -39.5t-21.5 -36t-31.5 -30.5t-39.5 -23t-44.5 -13.5t-45 -2.5q-21 0 -41.5 6t-40 15.5t-35.5 23t-27.5 29.5t-18 34t-6.5 37v210q0 15 -9.5 31.5t-25 30t-35.5 22t-43 7.5q-21 0 -41 -7t-35.5 -19t-24 -27t-8.5 -30v-218q0 -12 8 -26t22 -26 t33.5 -20.5t42.5 -8.5q11 -1 22 0q-4 -24 -6 -40.5t-3 -23.5h-18q-32 0 -63 12.5t-54 32t-38 46t-15 54.5v218q0 29 14.5 55.5t38.5 47t56.5 32.5t68.5 13q21 0 41 -4.5t39 -13t35.5 -21.5t28.5 -27q13 14 29 26.5t34.5 21t39 13t43.5 5.5q23 0 45.5 -6t43 -17t37.5 -25 t29.5 -31.5t19.5 -36.5t7 -40v-210zM625 350q0 15 -9 31.5t-24 30t-35.5 21.5t-42.5 8q-23 -1 -42.5 -8t-34.5 -18.5t-23.5 -26.5t-8.5 -30v-218q0 -12 7.5 -26t22 -26t33.5 -20.5t40 -8.5q25 -1 45.5 6.5t37 19t25.5 27t9 28.5v210z" />
<glyph unicode="&#x1079;" horiz-adv-x="734" d="M115 133q2 -12 10.5 -25t23 -23t32 -18.5t38.5 -8.5h1q-12 33 -40 53.5t-65 21.5zM627 351q0 14 -9 30.5t-24 30t-35.5 22t-42.5 7.5q-23 0 -42.5 -7t-34.5 -18.5t-23.5 -26.5t-8.5 -31v-218q0 -13 8 -27t22 -25.5t33 -20.5t40 -9q25 -1 45.5 6.5t36.5 19.5t25.5 27 t9.5 29v211zM697 140q0 -31 -17 -58.5t-44 -48t-61 -31t-68 -8.5q-33 1 -63.5 13t-54.5 32t-38.5 46.5t-14.5 54.5v209v2q0 14 -9 30.5t-24.5 30t-35.5 22t-43 7.5q-22 0 -42 -7t-35.5 -18.5t-24 -26.5t-8.5 -31v-178q36 0 66.5 -15t53 -39.5t33 -58t7.5 -70.5l-41 -3h-18 q-31 1 -62 13t-54.5 32t-38.5 46.5t-15 54.5v218q0 30 14.5 56.5t38.5 46.5t56.5 33t68.5 13q43 1 81.5 -17.5t64.5 -48.5q24 29 62.5 47.5t82.5 18.5q35 0 68.5 -13t59 -35t40.5 -50t15 -58v-211z" />
<glyph unicode="&#x107a;" horiz-adv-x="734" d="M523 503q31 -2 62 -14t54.5 -31.5t38.5 -45t15 -54.5v-218q0 -29 -15 -55.5t-39 -46.5t-56 -32t-67 -12q-32 -1 -61 9t-54 28v-243h77v-68h-111q-13 0 -23.5 10.5t-10.5 24.5l2 594q0 15 -9 30.5t-25 29t-36 21.5t-42 8q-21 0 -41 -6.5t-35.5 -18.5t-24 -26.5t-8.5 -30.5 v-217q0 -12 8 -25.5t22 -25.5t33.5 -20.5t41.5 -9.5q5 -1 11 -0.5t12 0.5q-4 -24 -6 -40.5t-4 -23.5q-10 -2 -17 0q-31 1 -62 13t-54.5 32t-38.5 46t-15 54v217q0 30 14.5 56t38.5 46.5t56 32.5t67 13q36 0 68.5 -13t58 -34.5t40.5 -50t15 -57.5v-205q1 -14 10.5 -30 t24.5 -28.5t34.5 -20.5t41.5 -7q22 0 42 7t34.5 18.5t23.5 26.5t9 30v218q0 13 -8 26.5t-22 25t-33.5 19.5t-40.5 9h-12t-12 -1q4 26 6.5 42t3.5 24q9 1 18 0z" />
<glyph unicode="&#x107b;" horiz-adv-x="740" d="M626 131q-37 -1 -64.5 -21.5t-40.5 -52.5h2q21 0 39 8t31.5 18.5t22.5 23t10 24.5zM114 349v-210q0 -15 9.5 -30t26 -27t37 -19.5t44.5 -5.5q22 0 41 8.5t33 20t22.5 25.5t8.5 28v217q0 17 -8.5 31.5t-24 26.5t-35.5 18.5t-42 6.5q-22 1 -42 -7.5t-36 -22t-25 -29.5 t-9 -31zM45 349q0 30 15 58.5t40.5 50.5t58.5 35t69 13q44 -1 82.5 -19t62.5 -48q26 30 64 49t81 18q36 -1 68.5 -13.5t57.5 -33t39 -47t14 -56.5v-217q0 -29 -14.5 -55t-38.5 -46t-54.5 -32.5t-63.5 -13.5h-18l-39 3q-5 37 6 70.5t33 58t52.5 39.5t66.5 15v178 q0 17 -8.5 31.5t-23.5 26.5t-34.5 18.5t-43.5 6.5q-21 1 -41.5 -7.5t-35.5 -22t-24 -29.5t-9 -31v-2v-208q0 -29 -15 -55t-39.5 -46t-55 -32.5t-62.5 -13.5q-33 -2 -68 9t-62 31t-43.5 47.5t-16.5 59.5v210z" />
<glyph unicode="&#x107c;" horiz-adv-x="740" d="M635 139q-24 18 -52 22t-55.5 -4t-50.5 -26t-37 -42q14 -13 32 -19.5t39 -8.5q20 -2 40 4.5t37.5 17.5t29.5 25.5t17 30.5zM108 139q4 -16 17 -30.5t29.5 -25.5t36.5 -17.5t40 -4.5q22 2 40.5 8.5t31.5 19.5q-14 24 -37 42t-51 26t-56 4t-51 -22zM100 194q29 16 62.5 18 t65.5 -7t60 -27t48 -43q1 3 1 8v219q0 15 -9 30t-24 26.5t-35 19t-42 7.5q-49 0 -80 -21t-41 -52l-62 35q24 55 73 79t111 24q44 0 81 -18t63 -45q25 27 62.5 45t80.5 18q62 0 111 -24t73 -79l-62 -35q-10 31 -41 52t-79 21q-23 0 -43 -7.5t-35 -19t-23.5 -26.5t-8.5 -30 v-219q0 -5 1 -8q19 25 47 43t60 27t65.5 7t62.5 -18q23 -11 35 -24t19 -30q0 -30 -17.5 -57t-44.5 -47t-60.5 -30.5t-67.5 -9.5q-39 3 -75 19.5t-60 43.5q-25 -27 -61 -43.5t-74 -19.5q-35 -1 -68.5 9.5t-61 30.5t-44.5 47t-18 57q7 17 19 30t36 24z" />
<glyph unicode="&#x107d;" horiz-adv-x="737" d="M635 138q-24 17 -52 20t-55 -4.5t-50.5 -24.5t-37.5 -43q14 -11 32 -18.5t39 -9.5q21 -1 41 5t37 17.5t29 26t17 31.5zM228 -5q-36 0 -68.5 13t-58 34.5t-41 50t-15.5 57.5v129q0 32 15.5 58.5t46.5 47.5q10 7 19 15t9 17q0 7 -5.5 14t-15 11.5t-22.5 4.5t-28 -8l-20 60 q23 9 51 9t52 -10t40 -30t16 -51q0 -27 -14.5 -45.5t-33.5 -33.5q-17 -12 -28 -28t-11 -31v-129q0 -15 8.5 -31t24.5 -29.5t36 -22t42 -8.5t42 8t35 19t24 26.5t9 30.5v232q0 17 -16.5 37.5t-41.5 32.5l24 61q22 -10 41.5 -24t33.5 -31q25 25 60.5 41t77.5 16 q62 0 110.5 -24.5t72.5 -79.5l-61 -35q-11 31 -42 52t-79 21q-23 0 -43 -7.5t-35 -19t-23.5 -26t-8.5 -30.5v-218q0 -2 0.5 -4.5t0.5 -4.5q19 26 47 44t60.5 26.5t65.5 6.5t62 -17q24 -12 35.5 -24.5t19.5 -29.5q-1 -31 -18.5 -58t-44 -47t-60 -30t-67.5 -9 q-39 2 -75.5 19.5t-61.5 44.5q-15 -15 -33 -27t-37 -20t-38 -12t-35 -4z" />
<glyph unicode="&#x107e;" horiz-adv-x="731" d="M629 136q-23 16 -51.5 19.5t-55.5 -3.5t-50.5 -24.5t-37.5 -43.5q15 -11 33 -18t38 -8q21 -1 41 4.5t36.5 16.5t29 26t17.5 31zM223 -6q-35 0 -68 12.5t-58 34.5t-40.5 50t-15.5 58v128q0 33 16 59.5t45 47.5q10 6 19.5 13.5t9.5 16.5q0 7 -5 14.5t-15 12t-23 4.5t-29 -8 l-19 60q23 9 51 9t52 -10t40 -30.5t16 -51.5q0 -27 -15 -45.5t-34 -32.5q-16 -13 -27 -28.5t-11 -30.5v-128q0 -15 9 -31t24 -29.5t35 -22t43 -8.5q22 0 41.5 7.5t34.5 19t23.5 26.5t8.5 30v231q0 18 -16 38t-41 32l25 61q20 -9 39.5 -23.5t34.5 -31.5q25 25 60.5 41 t75.5 16q62 0 111 -24.5t73 -79.5l-61 -35q-11 32 -41.5 53t-80.5 21q-22 0 -41.5 -7.5t-35 -19.5t-24 -26.5t-8.5 -30.5v-217q0 -5 1 -8q20 25 48 43.5t60 26.5t64.5 6t61.5 -17q24 -12 36 -25t20 -29q-1 -31 -18 -57.5t-44.5 -46t-61 -30.5t-67.5 -9q-13 1 -26 4t-26 7 l-37 -251q0 -13 -10 -23.5t-23 -10.5h-111v69h79l37 251q-5 3 -9 8t-11 11q-14 -17 -31.5 -28.5t-37 -20t-38 -12t-34.5 -3.5z" />
<glyph unicode="&#x107f;" horiz-adv-x="460" d="M116 325q12 2 21.5 7.5t16 14.5t11 20t5 22t-2 21.5t-10.5 19.5q-18 -12 -29.5 -29.5t-11.5 -35.5v-40zM417 143q0 -22 -8.5 -41.5t-22 -36.5t-32.5 -31.5t-41 -23.5t-45.5 -14t-47.5 -4q-33 3 -64.5 15t-56 32.5t-40 47t-15.5 56.5v222q0 21 7 41.5t21 38t33 31.5t41 24 l39 -14q25 -17 35.5 -39t11.5 -47t-7 -48.5t-24 -43t-38 -31.5t-47 -13v-121q0 -13 8 -27t23 -26.5t35 -21t42 -9.5q23 -1 45.5 7t38.5 20t26 27.5t10 29.5v214q0 12 -4.5 23t-12.5 22t-20 20.5t-25 16.5l24 62q23 -10 43.5 -24.5t35.5 -34t23.5 -41t8.5 -44.5v-214z" />
<glyph unicode="&#x1080;" horiz-adv-x="740" d="M109 137q4 -16 17 -30.5t29.5 -26t36 -17.5t40.5 -5q22 2 40 9.5t31 17.5q-13 27 -36 44.5t-51 24.5t-56 3.5t-51 -20.5zM101 192q29 14 62 16.5t65.5 -6.5t60.5 -27t48 -44v9v219q0 15 -9 30t-23.5 26.5t-35 19t-41.5 7.5q-49 0 -80 -21t-41 -52l-62 35q24 54 73 79 t110 25q36 0 68.5 -12.5t57 -33t39 -47.5t14.5 -56v-211q1 -16 10.5 -31.5t24 -28.5t35 -21.5t42.5 -8.5q23 0 42.5 8t34.5 19t24 26.5t9 30.5v218q0 13 -8.5 26.5t-22.5 26t-33.5 20t-39.5 9.5q-7 1 -12.5 0.5t-12.5 -1.5q4 25 6 41.5t3 25.5h18q33 -1 63 -14t54.5 -33 t39 -45.5t14.5 -55.5v-218q0 -30 -14 -56t-39 -46.5t-57 -32.5t-68 -13q-43 -1 -81.5 17.5t-64.5 48.5q-25 -28 -62 -46.5t-75 -19.5q-35 -2 -68.5 8.5t-60.5 30.5t-44.5 47t-18.5 58q8 16 20 29t36 25z" />
<glyph unicode="&#x1081;" horiz-adv-x="443" d="M49 -213h41l33 226l-4 3q-23 14 -39 32t-26 40.5t-10 45.5v220q0 29 15 55.5t39.5 47.5t57.5 33.5t69 13.5q35 0 68 -12.5t58.5 -34t41.5 -49.5t17 -58v-119h-70v115q0 16 -9.5 32t-25 29t-37 21.5t-42.5 8.5q-23 0 -43 -7.5t-35.5 -19t-24.5 -27t-9 -29.5v-148 q35 -8 63 -28t44.5 -47.5t21.5 -62t-4 -68.5l-51 -4l-31 -243q0 -7 -3 -13t-7.5 -10.5t-10.5 -7.5t-13 -3h-74v68zM198 55q-3 36 -25 63.5t-59 38.5v-23q0 -11 6.5 -23t17.5 -23.5t26.5 -20.5t33.5 -12z" />
<glyph unicode="&#x1082;" d="M-256 -11q13 0 26 -2l-8 -56q-4 1 -8.5 1h-9.5q-18 0 -32.5 -5.5t-26.5 -17t-18 -26t-6 -30.5t6 -30t18 -24.5t26.5 -17t32.5 -6.5q22 0 40 9.5t29 25.5l50 -31q-18 -27 -49.5 -44t-69.5 -17q-29 0 -55.5 10.5t-46 28.5t-30.5 43t-11 53t11 53t30.5 43.5t46 29t55.5 10.5 z" />
<glyph unicode="&#x1083;" horiz-adv-x="398" d="M306 -192v10l66 -21q-3 -17 -10.5 -30.5t-19 -23.5t-26.5 -16.5t-32 -6.5h-22q-19 0 -35 7t-28 19t-18.5 28t-6.5 34l1 608q0 9 -5 15t-15 6h-23q-9 0 -14.5 -6t-5.5 -15v-10l-65 21q2 16 9 30t18.5 24t26.5 16.5t31 6.5h23q18 0 34.5 -7t28 -19t18.5 -28t7 -34v-608 q0 -9 4.5 -15t14.5 -6h22q8 0 15 6t7 15z" />
<glyph unicode="&#x1084;" horiz-adv-x="440" d="M43 330q-2 76 10.5 103.5t36 43t58.5 22t76 6.5q40 0 68 -5.5t48.5 -16t32.5 -24.5t19 -33q4 -17 6 -34.5t-1 -33.5t-10.5 -30.5t-20.5 -25.5l-54 48q10 5 15 18t1 26q-3 15 -14 23.5t-25.5 13.5t-31 6.5t-32.5 1.5q-21 0 -41 -3t-36.5 -10.5t-26 -20t-7.5 -66.5 q0 -21 8.5 -33t20 -17.5t26.5 -6.5t28.5 -1.5t27 -0.5h22.5v-71h-21t-26 -1t-28.5 -3.5t-25 -7.5t-19.5 -17.5t-11 -31.5q-6 -57 20.5 -74t83.5 -17q34 0 56 5t35.5 14t19.5 23.5t6 33.5l62 -36q-3 -26 -14 -45.5t-32.5 -33t-55 -20t-81.5 -6.5q-46 0 -79.5 8t-56 26 t-31.5 45.5t-6 87.5q0 25 13.5 48t37.5 37q-21 8 -36 31.5t-15 54.5z" />
<glyph unicode="&#x1085;" d="M-226 571q20 0 32 8.5t18 23.5l48 -32q-13 -27 -38.5 -43.5t-61.5 -16.5h-39q-24 0 -43 4t-33 13.5t-22.5 24.5t-8.5 36q0 15 4 25.5t9 16.5q5 7 14 11q-9 5 -14 12q-6 6 -10 15.5t-4 21.5q0 22 8.5 37t23 24.5t33.5 13.5t43 4h39q32 0 56 -13t40 -36l-49 -33 q-13 24 -45 24h-44q-21 0 -34.5 -4t-13.5 -22q0 -5 3.5 -8.5t8.5 -5.5t10 -3.5t9 -1.5h58v-51h-62q-2 0 -6.5 -2t-9 -5t-7.5 -7t-3 -8q0 -9 5 -13t12.5 -7t17.5 -3h21h35z" />
<glyph unicode="&#x1086;" d="M-109 648l-85 -146l-51 29l48 84q-25 8 -42 29t-17 48q0 17 6.5 31.5t17.5 25.5t25.5 16.5t30.5 5.5q18 0 31.5 -5.5t24.5 -16.5t18 -25.5t7 -31.5q0 -24 -14 -44zM-176 716q-10 0 -17.5 -6.5t-7.5 -17.5t7.5 -17.5t17.5 -6.5t18 6.5t8 17.5t-8 17.5t-18 6.5z" />
<glyph unicode="&#x1087;" horiz-adv-x="248" d="M197 29l-86 -150l-54 31l50 85q-26 8 -42.5 29.5t-16.5 50.5q0 17 6 31.5t17.5 25t26 17t32.5 6.5q17 0 31 -6.5t25.5 -17t18 -25t6.5 -31.5q0 -26 -14 -46zM130 98q-12 0 -19.5 -7t-7.5 -16q0 -13 7.5 -19.5t19.5 -6.5q9 0 17 6.5t8 19.5q0 9 -8 16t-17 7z" />
<glyph unicode="&#x1088;" horiz-adv-x="246" d="M125 498q16 0 31 -6t26 -17t17 -25.5t6 -31.5t-6 -31.5t-17 -25.5t-26 -17.5t-31 -6.5q-17 0 -31.5 6.5t-25 17.5t-17 25.5t-6.5 31.5t6.5 31.5t17 25.5t25 17t31.5 6zM125 443q-12 0 -19 -7.5t-7 -17.5q0 -11 7 -17.5t19 -6.5q10 0 17.5 6.5t7.5 17.5q0 10 -7.5 17.5 t-17.5 7.5zM193 33l-87 -149l-53 30l50 86q-27 7 -43.5 29t-16.5 50q0 17 7 32t17.5 26t25.5 17t32 6t31.5 -6t25.5 -17t17.5 -26t6.5 -32q0 -25 -13 -46zM125 103q-12 0 -19 -7t-7 -17q0 -12 7 -18.5t19 -6.5q10 0 17.5 6.5t7.5 18.5q0 10 -7.5 17t-17.5 7z" />
<glyph unicode="&#x1089;" horiz-adv-x="243" d="M121 159q16 0 30.5 -6t25.5 -17t17.5 -26t6.5 -31t-6.5 -31t-17.5 -26t-25.5 -17.5t-30.5 -6.5q-18 0 -32 6.5t-25 17.5t-17.5 26t-6.5 31t6.5 31t17.5 26t25 17t32 6zM121 104q-11 0 -19 -7t-8 -18q0 -12 8 -18t19 -6q10 0 17.5 6t7.5 18q0 11 -7.5 18t-17.5 7z" />
<glyph unicode="&#x108a;" horiz-adv-x="356" d="M169 13q-21 -13 -46 -13q-17 0 -32 6.5t-25 17.5t-17 26t-7 32q0 16 7 31t17 26t25 18t32 7q28 0 50 -17t30 -43l85 50l31 -53zM99 82q0 -11 7 -18.5t17 -7.5q13 0 19.5 7.5t6.5 18.5q0 12 -6.5 19t-19.5 7q-10 0 -17 -7t-7 -19zM169 346q-21 -13 -46 -13q-17 0 -32 6.5 t-25 18t-17 26t-7 31.5t7 32t17 26t25 17.5t32 6.5q28 0 50 -17t30 -43l85 51l31 -54zM99 415q0 -10 7 -17.5t17 -7.5q13 0 19.5 7.5t6.5 17.5q0 12 -6.5 19.5t-19.5 7.5q-10 0 -17 -7.5t-7 -19.5z" />
<glyph unicode="&#x108b;" horiz-adv-x="246" d="M121 319q16 0 30.5 -6t25.5 -17t17.5 -25.5t6.5 -31.5q0 -16 -6.5 -31t-17.5 -26.5t-25.5 -18t-30.5 -6.5q-18 0 -32 6.5t-25 18t-17.5 26.5t-6.5 31q0 17 6.5 31.5t17.5 25.5t25 17t32 6zM121 264q-11 0 -19 -7.5t-8 -17.5q0 -11 8 -18t19 -7q10 0 17.5 7t7.5 18 q0 10 -7.5 17.5t-17.5 7.5z" />
<glyph unicode="&#x108c;" horiz-adv-x="517" d="M126 319q16 0 31 -6t25.5 -17t17 -25.5t6.5 -31.5q0 -16 -6.5 -31t-17 -26.5t-25.5 -18t-31 -6.5q-17 0 -31 6.5t-25.5 18t-17.5 26.5t-6 31q0 17 6 31.5t17.5 25.5t25.5 17t31 6zM126 264q-11 0 -18 -7.5t-7 -17.5q0 -11 7 -18t18 -7t18 7t7 18q0 10 -7 17.5t-18 7.5z M382 319q16 0 30.5 -6t25.5 -17t18 -25.5t7 -31.5q0 -16 -7 -31t-18 -26.5t-25.5 -18t-30.5 -6.5q-17 0 -31 6.5t-25 18t-18 26.5t-7 31q0 17 7 31.5t18 25.5t25 17t31 6zM382 264q-11 0 -18.5 -7.5t-7.5 -17.5q0 -11 7.5 -18t18.5 -7q10 0 17.5 7t7.5 18q0 10 -7.5 17.5 t-17.5 7.5z" />
<glyph unicode="&#x108d;" d="M-414 -99h319v-68h-319v68z" />
<glyph unicode="&#x108e;" horiz-adv-x="449" d="M166 423q3 -13 12.5 -21t22 -11.5t25.5 -2.5t25 5t20.5 12t10.5 20q-11 6 -23.5 9.5t-26.5 3.5q-18 2 -35 -2.5t-31 -12.5zM116 148q0 -15 8.5 -31t24 -29t36 -21.5t42.5 -8.5t42 7t35 18.5t23.5 26.5t8.5 30v218q0 11 -7 22q-10 -18 -26.5 -30.5t-36 -18t-40 -5.5 t-40.5 5.5t-37.5 16.5t-28.5 28q-4 -10 -4 -18v-210zM47 358q0 20 7 39.5t21 36t32.5 30t39.5 23t43.5 14t45.5 2.5q31 -1 61.5 -13t54 -32t38.5 -45.5t15 -54.5v-218q0 -28 -14.5 -55t-38.5 -47t-56 -32t-67 -12q-25 -1 -47.5 4.5t-42.5 16.5t-37 25.5t-29.5 31.5t-19 36.5 t-6.5 39.5v210z" />
<glyph unicode="&#x108f;" horiz-adv-x="282" d="M143 481q16 0 30.5 -6.5t25.5 -17.5t17.5 -25.5t6.5 -31.5t-6.5 -31t-17.5 -25.5t-25.5 -18t-30.5 -6.5t-31 6.5t-26 18t-17.5 25.5t-6.5 31t6.5 31.5t17.5 25.5t26 17.5t31 6.5zM143 425q-11 0 -18 -7.5t-7 -17.5q0 -11 7 -17.5t18 -6.5t18 6.5t7 17.5q0 10 -7 17.5 t-18 7.5zM75 38q-15 20 -15 46q0 17 7 31.5t18 25t26 17.5t32 7q16 0 31 -7t26 -17.5t17.5 -25t6.5 -31.5q0 -28 -16.5 -50t-41.5 -30l49 -85l-53 -31zM143 108q-11 0 -18.5 -7t-7.5 -17q0 -13 7.5 -19.5t18.5 -6.5t18.5 6.5t7.5 19.5q0 10 -7.5 17t-18.5 7z" />
<glyph unicode="&#x1090;" horiz-adv-x="429" d="M110 522v-391q0 -12 9 -26t23.5 -26t35 -18.5t42.5 -4.5q21 1 38.5 8t31.5 18.5t21.5 24.5t7.5 24v398q0 15 -8.5 28.5t-22.5 25t-32.5 18.5t-40.5 7t-40.5 -8t-33 -20.5t-23 -28t-8.5 -29.5zM43 522q0 29 15 55.5t39 47t55.5 33t64.5 12.5q33 -1 63.5 -12.5t53.5 -31 t37 -44.5t14 -53v-398q0 -27 -14 -51t-36.5 -43t-51 -30.5t-59.5 -12.5q-32 -2 -64.5 8.5t-58.5 29t-42 45t-16 54.5v391z" />
<glyph unicode="&#x1091;" horiz-adv-x="344" d="M127 612l-55 -31l-32 58l72 40q14 8 30 5t30 -13t23 -26.5t9 -37.5v-522q0 -3 4.5 -7.5t10.5 -1.5l50 39l41 -51q-19 -15 -32.5 -24t-22.5 -15.5t-13.5 -9.5t-7.5 -4q-20 -12 -37.5 -8.5t-30.5 16t-20.5 30.5t-7.5 36v522q0 4 -2.5 5.5t-8.5 -0.5z" />
<glyph unicode="&#x1092;" horiz-adv-x="424" d="M48 506v181h64v-33q23 15 49 23.5t55 9.5q32 0 63 -12t54.5 -32t38 -45.5t15.5 -53.5v-118q0 -20 -6.5 -46t-16 -55t-20.5 -58t-20 -55.5t-15.5 -46.5t-6.5 -31q1 -31 9 -56.5t17 -39.5l-57 -29q-9 21 -16 40q-7 18 -11.5 38.5t-4.5 38.5q0 29 13 68.5t29 82t29 83.5 t13 75v105q0 14 -8.5 29t-23.5 27.5t-34 20.5t-40 8q-22 0 -40.5 -6.5t-32.5 -18t-22.5 -25.5t-8.5 -28v-41h-64h-1z" />
<glyph unicode="&#x1093;" horiz-adv-x="480" d="M220 669l-42 -261q18 9 38 14.5t40 6.5q31 2 64 -8.5t59 -29.5t42 -45.5t16 -56.5v-159q0 -19 -7.5 -39t-20.5 -37t-31 -31t-39 -23q-2 5 -8 19t-16 38q24 12 40 33.5t16 39.5v159q0 13 -9 27.5t-25 26.5t-35.5 18.5t-42.5 5.5q-19 -1 -35 -7t-29 -15.5t-22 -21.5 t-12 -23l-49 -305l-64 10l108 674z" />
<glyph unicode="&#x1094;" horiz-adv-x="599" d="M279 447l-173 -447l-62 26l235 603v55h69l-1 -597q0 -10 5 -17t16 -7h101q9 0 15 6.5t6 16.5v8l67 -19q-2 -17 -9.5 -31t-19.5 -24.5t-26.5 -17t-32.5 -6.5h-101q-19 0 -35 7.5t-28.5 19.5t-19 28t-6.5 35v361z" />
<glyph unicode="&#x1095;" horiz-adv-x="429" d="M300 265h-113q-22 0 -37 -7.5t-24 -19t-12.5 -25t-3.5 -24.5v-51q0 -74 81 -74h33q23 0 38 3.5t23 12t11.5 22.5t3.5 36v127zM366 677v-345h44v-67h-44v-127q0 -46 -14 -73.5t-35.5 -42.5t-46.5 -20t-46 -5h-33q-22 0 -47 6.5t-47.5 22t-37.5 42.5t-15 70v51 q0 28 8.5 53.5t25.5 45.5t44 32t65 12h113v345h66z" />
<glyph unicode="&#x1096;" horiz-adv-x="424" d="M300 412v129q0 21 -3.5 35t-11.5 22.5t-23 12.5t-38 4h-33q-81 0 -81 -74v-51q0 -11 3.5 -24.5t12.5 -25.5t24 -20t37 -8h113zM366 2h-66v344h-113q-38 0 -65 12.5t-44 32t-25.5 45.5t-8.5 54v51q0 42 15 69t37.5 43t47.5 22t47 6h33q21 0 46 -5t46.5 -19.5t35.5 -42 t14 -73.5v-129h44v-66h-44v-344z" />
<glyph unicode="&#x1097;" horiz-adv-x="421" d="M301 87v10l66 -21q-3 -17 -10 -31t-18.5 -23.5t-26.5 -16t-32 -6.5h-147q-18 0 -34 7t-28 19t-19 28t-7 34q0 8 3 18.5t8 25.5l238 449q7 15 0 23.5t-16 8.5h-148q-10 0 -16 -6t-6 -16v-10l-67 21q3 16 10.5 30t19 24.5t26.5 17t33 6.5h148q18 0 34 -7t28.5 -19t19 -28.5 t6.5 -34.5q-2 -17 -5 -25l-243 -466q-4 -33 15 -33h147q9 0 15 5.5t6 15.5z" />
<glyph unicode="&#x1098;" horiz-adv-x="421" d="M106 224v-85q0 -13 9 -27.5t24.5 -26t34.5 -18.5t42 -5q22 0 40 7.5t31 19.5t20.5 25t7.5 25v91q0 14 -7 27.5t-20 24t-29 17.5t-36 10h-3q-11 -1 -20 0q-20 -3 -36.5 -11.5t-29.5 -20.5t-20.5 -26t-7.5 -27zM39 224q0 33 19 64t51 50q-30 19 -50 47t-20 62v96 q0 19 8 39.5t21.5 37.5t32 32t39.5 24l23 -58q-25 -13 -41 -34.5t-16 -40.5v-96q0 -11 7.5 -24t20 -23.5t29 -18.5t36.5 -10q3 1 12 1t12 -1q20 2 36.5 10t29 19t19.5 23.5t7 23.5v103q0 19 -14.5 37t-36.5 29l24 58q40 -18 67 -51.5t27 -72.5v-103q0 -32 -19 -60t-49 -47 q31 -20 49.5 -48.5t18.5 -61.5v-91q0 -27 -14 -52t-37 -44t-52 -30.5t-59 -12.5q-33 -2 -65 8.5t-57.5 29.5t-42 45t-16.5 56v85z" />
<glyph unicode="&#x1099;" horiz-adv-x="429" d="M111 428q0 -13 7 -27.5t20 -26t30 -20t37 -11.5q9 1 20 0h3q19 3 36 9.5t29 17.5t19 24.5t7 26.5v106q0 12 -7.5 25t-20.5 25t-31 19.5t-39 7.5q-22 2 -42 -5t-34.5 -18.5t-24 -25.5t-9.5 -28v-99zM44 428v99q0 31 16 56.5t42.5 45t58.5 29.5t64 8q30 -1 58.5 -12.5 t51.5 -30.5t37 -44t14 -52v-106q0 -32 -18.5 -61t-48.5 -49q29 -19 48 -46.5t19 -60.5v-88q0 -40 -26 -72.5t-68 -51.5l-24 58q24 10 37.5 28t13.5 38v88q0 11 -6.5 24t-19 24t-29.5 19t-36 11q-3 -1 -12 -1t-12 1q-20 -3 -37 -11t-29.5 -18.5t-19.5 -24t-7 -24.5v-81 q0 -20 16 -41.5t41 -33.5l-22 -58q-22 10 -41 24.5t-32.5 31.5t-21 37t-7.5 40v81q0 34 20 62t49 47q-31 21 -50 51t-19 64z" />
<glyph unicode="&#x109a;" horiz-adv-x="248" d="M125 479q16 0 31 -6.5t26 -17t17 -25.5t6 -31q0 -17 -6 -31.5t-17 -26t-26 -17.5t-31 -6q-17 0 -31.5 6t-25 17.5t-17 26t-6.5 31.5q0 16 6.5 31t17 25.5t25 17t31.5 6.5zM125 423q-12 0 -19 -7t-7 -17q0 -12 7 -18.5t19 -6.5q10 0 17.5 6.5t7.5 18.5q0 10 -7.5 17 t-17.5 7z" />
<glyph unicode="&#x109b;" horiz-adv-x="251" d="M197 643l-86 -149l-54 31l50 84q-26 8 -42.5 30t-16.5 50q0 17 6 31.5t17.5 25.5t26 17t32.5 6q17 0 31 -6t25.5 -17t18 -25.5t6.5 -31.5q0 -26 -14 -46zM130 713q-12 0 -19.5 -7.5t-7.5 -16.5q0 -12 7.5 -19t19.5 -7q9 0 17 7t8 19q0 9 -8 16.5t-17 7.5z" />
<glyph unicode="&#x109c;" horiz-adv-x="356" d="M323 396l-31 -53l-85 50q-7 -26 -29 -42.5t-50 -16.5q-17 0 -32 6t-26 17.5t-17 26.5t-6 31q0 17 6 32t17 26t26 17.5t32 6.5q24 0 46 -14zM103 415q0 -12 7.5 -18.5t17.5 -6.5q12 0 18.5 6.5t6.5 18.5t-6.5 19t-18.5 7q-10 0 -17.5 -7t-7.5 -19zM323 62l-31 -53l-85 49 q-7 -25 -29 -41.5t-50 -16.5q-17 0 -32 6.5t-26 17.5t-17 26t-6 31q0 17 6 32t17 26t26 18t32 7q24 0 46 -14zM103 81q0 -12 7.5 -19t17.5 -7q12 0 18.5 7t6.5 19q0 11 -6.5 18.5t-18.5 7.5q-10 0 -17.5 -7.5t-7.5 -18.5z" />
<glyph unicode="&#x109d;" d="M-284 654q0 31 -13.5 43t-29 10t-27.5 -14.5t-11 -30.5l-62 25q6 27 23 45.5t39.5 27.5t48 9t47 -13t35 -37.5t13.5 -64.5v-80v-30t0.5 -26t0.5 -19.5v-8.5q0 -3 10 -11l-53 -37q-8 7 -14 15.5t-7 19.5v177z" />
<glyph unicode="&#x109e;" horiz-adv-x="373" d="M301 -194v10l66 -21q-2 -16 -9.5 -29.5t-19 -24t-26.5 -17t-31 -6.5h-23q-19 0 -35 7.5t-27.5 19t-18.5 27.5t-7 34l1 505q0 8 -5 14.5t-15 6.5h-22q-9 0 -15.5 -6.5t-6.5 -14.5v-10l-65 20q3 16 10 30.5t18.5 25t26.5 16.5t32 6h22q18 0 34.5 -7t28 -19t18.5 -28.5 t7 -33.5l-1 -505q0 -9 5 -15t15 -6h23q8 0 14 6t6 15zM148 631q16 0 30.5 -6t25 -16.5t17.5 -25.5t7 -31q0 -17 -7 -31.5t-17.5 -26t-25 -18t-30.5 -6.5q-18 0 -32 6.5t-25 18t-17.5 26t-6.5 31.5q0 16 6.5 31t17.5 25.5t25 16.5t32 6zM148 576q-12 0 -19.5 -7t-7.5 -17 q0 -12 7.5 -19t19.5 -7q9 0 16.5 7t7.5 19q0 10 -7.5 17t-16.5 7z" />
<glyph unicode="&#x109f;" horiz-adv-x="542" d="M500 -208q-1 -15 -8.5 -28.5t-18.5 -23.5t-26 -16t-30 -6h-22q-17 0 -32.5 7t-27 18.5t-18 26.5t-6.5 32l1 535q0 14 -8.5 27t-23.5 24.5t-34 18t-40 5.5q-20 0 -37.5 -7.5t-30 -18.5t-20 -24t-7.5 -25v-222q0 -19 14 -37t38 -28l-24 -54q-40 17 -66 49t-26 70v222 q0 27 13.5 50.5t35.5 41.5t49.5 29t57.5 13q31 1 62 -8.5t56 -27.5t40 -43.5t15 -54.5l1 -535q0 -8 5.5 -14t12.5 -6h22q8 0 13 4.5t6 10.5v507q1 27 -0.5 58t-9.5 58.5t-26 48t-47 25.5q-29 3 -53 14.5t-41.5 30t-28 42t-10.5 51.5q0 29 11.5 54.5t31.5 44t46 28.5t56 10 q25 0 47.5 -7t41 -20t32 -31.5t20.5 -39.5l-59 -16q-9 24 -31 41t-51 17q-17 0 -32 -7t-27 -17.5t-18.5 -25.5t-6.5 -31t5.5 -29.5t16.5 -24.5t25 -18t30 -8h3q64 -11 100 -66q8 -14 14.5 -31t12 -36t8.5 -40.5t3 -41.5z" />
<glyph unicode="&#x1700;" />
<glyph unicode="&#x200b;" />
<glyph unicode="&#x200c;" />
<glyph unicode="&#x200d;" />
<glyph unicode="&#x2013;" horiz-adv-x="448" d="M455 201h-460v64h460v-64z" />
<glyph unicode="&#x2014;" horiz-adv-x="897" d="M905 201h-910v64h910v-64z" />
<glyph unicode="&#x2018;" horiz-adv-x="201" d="M149 625q-47 -20 -48 -89h41v-91h-84v72q0 31 3.5 54t19 46t49.5 38z" />
<glyph unicode="&#x2019;" horiz-adv-x="201" d="M142 572q0 -31 -3.5 -54t-19.5 -46t-49 -38l-20 30q48 20 49 89h-41v91h84v-72z" />
<glyph unicode="&#x201a;" horiz-adv-x="204" d="M139 20q0 -32 -3.5 -55t-19 -46t-49.5 -38l-19 31q47 19 48 88h-41v92h84v-72z" />
<glyph unicode="&#x201c;" horiz-adv-x="309" d="M267 625q-47 -20 -48 -89h41v-91h-85v72q0 31 4 54t19.5 46t48.5 38zM130 625q-47 -20 -48 -89h41v-91h-84v72q0 31 3.5 54t19 46t49.5 38z" />
<glyph unicode="&#x201d;" horiz-adv-x="301" d="M261 572q0 -31 -3.5 -54t-19.5 -46t-49 -38l-20 30q48 20 49 89h-42v91h85v-72zM124 572q0 -31 -3.5 -54t-19.5 -46t-49 -38l-20 30q48 20 49 89h-41v91h84v-72z" />
<glyph unicode="&#x2020;" horiz-adv-x="506" d="M465 381h-175v-533h-79v533h-176v70h176v178h79v-178h175v-70z" />
<glyph unicode="&#x2022;" horiz-adv-x="330" d="M157 427q46 0 79 -33t33 -79t-33 -78.5t-79 -32.5q-45 0 -78 32.5t-33 78.5t33 79t78 33z" />
<glyph unicode="&#x2030;" horiz-adv-x="904" d="M463 655l-263 -678h-59l264 678h58zM141 650q62 0 94.5 -44t32.5 -122q0 -87 -31.5 -130.5t-94.5 -43.5q-61 0 -93.5 44t-32.5 128q0 80 32 124t93 44zM144 366q59 0 59 115t-61 115q-30 0 -45.5 -26t-15.5 -90q0 -114 63 -114zM757 315q62 0 94.5 -43.5t32.5 -122.5 q0 -87 -31.5 -130t-94.5 -43q-61 0 -93.5 43.5t-32.5 128.5q0 79 31.5 123t93.5 44zM760 31q59 0 59 114q0 115 -61 115q-29 0 -45 -25.5t-16 -90.5q0 -113 63 -113zM461 315q62 0 94.5 -43.5t32.5 -122.5q0 -87 -31.5 -130t-94.5 -43q-62 0 -94 43.5t-32 128.5q0 79 32 123 t93 44zM463 31q60 0 60 114q0 115 -61 115q-30 0 -46 -25.5t-16 -90.5q0 -113 63 -113z" />
<glyph unicode="&#x2039;" horiz-adv-x="283" d="M244 31h-65l-139 201l139 201h65l-114 -201z" />
<glyph unicode="&#x203a;" horiz-adv-x="305" d="M260 232l-139 -201h-65l114 201l-114 201h65z" />
<glyph unicode="&#x2044;" horiz-adv-x="167" d="M354 659l-485 -682h-69l485 682h69z" />
<glyph unicode="&#x20ac;" horiz-adv-x="499" d="M487 619l-18 -81q-54 44 -122 44q-91 0 -144 -52.5t-63 -118.5h300l-12 -59h-295l-1 -17l1 -41h283l-12 -59h-262q17 -89 72.5 -131t125.5 -42q83 0 129 43v-91q-55 -25 -122 -25q-242 0 -292 246h-68l13 59h46q-1 11 -1 40v18h-58l13 59h51q24 122 106.5 183t191.5 61 q82 0 138 -36z" />
<glyph unicode="&#x2122;" horiz-adv-x="868" d="M775 286h-55v301h-2l-90 -301h-54l-94 305h-2v-305h-55v358h88l89 -286h2l86 286h87v-358zM382 591h-117v-305h-59v305h-116v53h292v-53z" />
<glyph unicode="&#x2202;" horiz-adv-x="470" d="M130 492h-20q58 133 166 133q67 0 110 -47q51 -58 51 -174q0 -156 -73 -288q-72 -130 -187 -130q-69 0 -109 41q-39 40 -39 107q0 105 72.5 185t169.5 80q98 0 137 -84h1q5 45 5 82q0 75 -40 120t-112 45q-85 0 -132 -70zM400 276q-36 99 -125 99q-79 0 -129 -90 q-43 -77 -43 -169q0 -46 22 -75q24 -29 64 -29q59 0 122 70.5t89 193.5z" />
<glyph unicode="&#x220f;" horiz-adv-x="746" d="M723 -91h-247v21q50 0 69 17q18 15 18 56v634h-381v-634q0 -41 18 -56q19 -17 69 -17v-21h-247v21q51 0 71 17q17 15 17 56v579q0 40 -17 56q-20 17 -71 17v21h701v-21q-51 0 -70 -17q-18 -16 -18 -56v-579q0 -41 18 -56q19 -17 70 -17v-21z" />
<glyph unicode="&#x2211;" horiz-adv-x="631" d="M625 83q-36 -144 -36 -174h-574l327 380l-323 388l536 -1l6 -143h-18q-14 63 -46 85q-28 19 -92 19h-259l268 -324l-285 -332h354q53 0 78 22q20 19 44 80h20z" />
<glyph unicode="&#x221a;" horiz-adv-x="524" d="M494 704l-178 -721l-177 314l-87 -41l-15 28l132 67l141 -251h2l150 604h32z" />
<glyph unicode="&#x221e;" horiz-adv-x="502" d="M476 231q0 -68 -37 -107q-32 -35 -82 -35q-67 0 -113 97q-40 -79 -110 -79q-50 0 -83 35t-33 90q0 57 30 91q28 32 74 32q62 0 100 -77q19 51 47.5 73t76.5 22q57 0 93.5 -40.5t36.5 -101.5zM454 231q0 48 -27 80.5t-66 32.5q-36 0 -59 -29q-8 -10 -23 -46 q-23 -53 -25 -58q25 -49 47 -70q25 -23 58 -23q43 0 69 30.5t26 82.5zM212 252q-35 75 -91 75q-37 0 -59 -26.5t-22 -68.5q0 -40 22.5 -68t52.5 -28q60 0 97 116z" />
<glyph unicode="&#x222b;" horiz-adv-x="438" d="M391 851q0 -24 -13.5 -40t-34.5 -16q-22 0 -36.5 14t-14.5 35q0 7 2.5 18t2.5 15q0 12 -11 12q-19 0 -35 -21q-28 -37 -28 -102q0 -16 36 -276q24 -168 24 -281q0 -232 -27 -337q-12 -52 -46 -84t-76 -32q-34 0 -55.5 19t-21.5 49q0 25 14 40.5t34 15.5q21 0 34.5 -15 t13.5 -36q0 -7 -2.5 -16.5t-2.5 -13.5q0 -12 10 -12q26 0 44 31.5t18 78.5q0 45 -36 334q-22 169 -22 321q0 135 13 208q15 79 48.5 119.5t86.5 40.5q33 0 57 -20t24 -49z" />
<glyph unicode="&#x2248;" horiz-adv-x="531" d="M476 397q-48 -47 -114 -47q-25 0 -97 26q-77 29 -107 29q-55 0 -109 -56v81q46 49 116 49q30 0 114 -30q69 -25 91 -25q58 0 106 56v-83zM476 202q-48 -47 -114 -47q-25 0 -97 26q-77 29 -107 29q-55 0 -109 -56v81q46 48 116 48q30 0 114 -29q69 -25 91 -25q58 0 106 55 v-82z" />
<glyph unicode="&#x2260;" horiz-adv-x="524" d="M476 183h-201l-13 -90h-66l14 90h-161v73h171l19 123h-190v74h201l14 90h65l-13 -90h160v-74h-171l-19 -123h190v-73z" />
<glyph unicode="&#x2264;" horiz-adv-x="527" d="M476 149l-427 182v74l427 180v-78l-338 -139l338 -140v-79zM476 49h-427v74h427v-74z" />
<glyph unicode="&#x2265;" horiz-adv-x="531" d="M476 331l-427 -182v79l339 140l-339 139v78l427 -180v-74zM476 49h-427v74h427v-74z" />
<glyph unicode="&#x25ca;" horiz-adv-x="535" d="M463 337l-193 -265l-194 265l194 266zM421 337l-151 207l-151 -207l151 -207z" />
<glyph unicode="&#xa900;" horiz-adv-x="534" d="M151 -9q-46 0 -76 34q-32 35 -32 96v258q0 118 104 129h241q108 -3 108 -129v-258q0 -48 -16 -78q-17 -29 -40 -41q-23 -11 -45 -11h-244zM377 49q51 0 51 64v269q0 65 -61 65h-204q-58 -1 -58 -74v-253q0 -70 65 -70z" />
<glyph unicode="&#xa901;" horiz-adv-x="491" d="M215 44l127 -1q47 0 47 40v31q0 5 -16 5q-41 0 -91.5 -19.5t-66.5 -55.5zM389 332v65q0 30 -9 43.5t-40 13.5h-190q-33 0 -42 -19.5t-9 -46.5v-2h-56v7q0 105 93 115h222q91 -1 91 -115v-111h-299q-51 -1 -51 -75v-101q0 -62 58 -62q10 40 51 69t94.5 45t95.5 16 q51 0 51 -21v-46q0 -42 -15 -68.5t-35.5 -37t-40.5 -10.5h-218q-41 0 -69 31t-28 85v106q0 108 93 119h253z" />
<glyph unicode="&#xa902;" horiz-adv-x="536" d="M307 -9h-69l-195 517h62l167 -441l159 441h65z" />
<glyph unicode="&#xa903;" horiz-adv-x="539" d="M170 315h-127v64q0 118 104 129h241q108 -3 108 -129v-51l-389 -189l-2 -19q0 -41 22 -58q4 10 38 33q38 27 92.5 48.5t104.5 21.5h134v-44q0 -48 -16.5 -77.5t-39.5 -41t-45 -11.5h-244q-46 0 -77 34.5t-31 95.5v59l385 178v24q0 65 -61 65h-204q-58 -1 -58 -74v-15h65 v-43zM170 50l207 -1q51 0 51 49v17h-61q-39 0 -75.5 -12t-87.5 -34q-31 -12 -48 -18q7 -1 14 -1z" />
<glyph unicode="&#xa904;" horiz-adv-x="536" d="M105 426l83 82h200q108 -3 108 -129v-258q0 -69 -32.5 -99t-68.5 -30h-70v57l52 1q51 0 51 65v267q0 65 -61 65h-158l-104 -104v-65q0 -69 65 -69h41v-60h-60q-46 0 -77 35t-31 95v229h62v-82z" />
<glyph unicode="&#xa905;" horiz-adv-x="534" d="M229 49v-58h-78q-46 0 -77 34.5t-31 95.5v258q0 118 104 129h352v-133h-63v73h-273q-58 -2 -58 -75v-253q0 -70 65 -70z" />
<glyph unicode="&#xa906;" horiz-adv-x="534" d="M428 150v232q0 65 -61 65h-55l-207 -343v-113h-62v517h62v-277l169 277h114q108 -3 108 -129v-297q-31 -91 -119 -91q-49 0 -79 23.5t-31 62.5q0 38 20 72t67 34h15q8 0 18.5 -3t21 -10t19.5 -20zM408 80q-4 49 -49 49q-38 -4 -38 -46q0 -38 38 -43q42 0 49 40z" />
<glyph unicode="&#xa907;" horiz-adv-x="539" d="M238 359v-61h-75q-58 -1 -58 -75v-103q0 -70 65 -70l207 -1q51 0 51 64v184h-61v62h61v92l-61 -47v74l61 43h68v-400q0 -48 -16.5 -77.5t-39.5 -41t-45 -11.5h-244q-46 0 -77 34.5t-31 95.5v108q0 118 104 130h91z" />
<glyph unicode="&#xa908;" horiz-adv-x="536" d="M496 180v-59q0 -48 -16.5 -77.5t-39.5 -41t-45 -11.5h-244q-46 0 -77 34.5t-31 95.5v387h62v-388q0 -70 65 -70l207 -1q51 0 51 64v67h68z" />
<glyph unicode="&#xa909;" horiz-adv-x="534" d="M392 359q103 -12 103 -130v-108q0 -61 -31 -95.5t-77 -34.5h-244q-21 0 -44 11.5t-40 41t-17 77.5v400h69l61 -43v-74l-61 47v-92h61v-62h-61v-184q0 -64 51 -64l207 1q64 0 64 70v103q0 74 -57 75h-75v61h91z" />
<glyph unicode="&#xa90a;" horiz-adv-x="590" d="M398 449l-140 -141v-317h-215v138q0 27 6.5 47.5t28.5 34.5l118 117v51q0 38 -7 54t-34 16l-16 1q-21 0 -27.5 -14t-6.5 -48v-45h-62v88q0 75 65 77h76q36 0 55 -23t19 -63v-32l119 118h65q109 -3 109 -129v-388h-145v58h77v333q0 67 -62 67h-23zM105 126v-77l91 1v195 l-73 -73q-18 -21 -18 -46z" />
<glyph unicode="&#xa90b;" horiz-adv-x="539" d="M428 293v89q0 65 -61 65h-204q-58 -1 -58 -74v-80h323zM428 242h-385v137q0 118 104 129h241q108 -3 108 -129v-258q0 -48 -16.5 -77.5t-39.5 -41t-45 -11.5h-244q-46 0 -77 34.5t-31 95.5v48h177v-46h-115v-3q0 -70 65 -70l207 -1q51 0 51 64v129z" />
<glyph unicode="&#xa90c;" horiz-adv-x="536" d="M428 260v122q0 65 -61 65h-18l-183 -188zM105 278l220 230h63q108 -3 108 -129v-388h-152v58h84v152h-323v-152h93v-58h-155v517h62v-230z" />
<glyph unicode="&#xa90d;" horiz-adv-x="536" d="M331 206h165v-85q0 -48 -16.5 -77.5t-39.5 -41t-45 -11.5h-244q-46 0 -77 34.5t-31 95.5v258q0 118 104 129h241q108 -3 108 -129v-88h-163v50l95 2v39q0 65 -61 65h-204q-58 -1 -58 -74v-253q0 -70 65 -70l207 -1q51 0 51 64v38h-97v55z" />
<glyph unicode="&#xa90e;" horiz-adv-x="536" d="M203 256q10 -43 46 -43q37 0 42 43q0 50 -44 50q-19 -1 -31.5 -14.5t-12.5 -35.5zM428 50v332q0 65 -61 65h-204q-58 -1 -58 -74v-16q0 -69 60 -69q14 67 85 67q42 0 66 -27.5t24 -74.5q0 -25 -13.5 -46t-36.5 -31.5t-45 -10.5q-25 1 -47 17l-81 -132h79v-59h-153v52 l108 186q-46 0 -77 35t-31 94v21q0 118 104 129h241q108 -3 108 -129v-388h-163v59h95z" />
<glyph unicode="&#xa90f;" horiz-adv-x="573" d="M144 346h-62v34q0 117 103 128h242q108 -2 108 -128v-259q0 -48 -16.5 -77.5t-40 -41t-43.5 -11.5h-44v59h25q52 0 52 63v63q0 65 -62 65h-204q-39 -1 -48.5 -14t-9.5 -38v-198h-101v49h39v151q0 56 25 80.5t78 29.5h213q47 0 70 -18v100q0 66 -62 66h-204 q-58 -2 -58 -60v-43z" />
<glyph unicode="&#xa910;" horiz-adv-x="548" d="M229 -205v-61h-75q-47 0 -79 35.5t-32 96.5v642h64v-128q32 64 77 95t111 33q81 0 142.5 -47.5t69.5 -163.5q0 -52 -24 -88.5t-59 -61t-66 -24.5l130 -64v-68h-295v53h202l-195 88q93 0 146 31t72 65.5t19 67.5q0 62 -37.5 106.5t-108.5 44.5q-35 -2 -62.5 -19.5 t-48.5 -42.5t-40 -58.5t-33 -60.5v-402q0 -69 66 -69h56z" />
<glyph unicode="&#xa911;" horiz-adv-x="539" d="M110 -1v-142q0 -26 13 -45.5t40 -19.5l208 -1q31 0 44.5 9.5t17.5 32.5q3 9 3 45h-99v53h163v-86q0 -60 -33 -86.5t-78 -26.5h-245q-36 0 -68.5 31t-32.5 101v342h166v-56h-99v-37q0 -24 11.5 -44t41.5 -20l208 1q66 0 66 61q0 3 -1 8v254q0 73 -56 74h-207 q-38 0 -50.5 -21t-12.5 -44v-39l96 -2v-50h-163v88q0 126 109 129h243q105 -11 105 -129v-259q0 -62 -32 -96t-79 -34h-245q-21 0 -34 9z" />
<glyph unicode="&#xa912;" horiz-adv-x="539" d="M409 81q-5 48 -50 48q-38 -4 -38 -46q0 -38 38 -43q42 0 50 41zM499 185q0 -191 -122 -194q-47 0 -78 23.5t-32 62.5q0 38 20 72t67 34h15.5t18.5 -3t20.5 -10t20.5 -20q0 62 -21 93.5t-85 39.5q-44 0 -87 -22t-78.5 -63t-52.5 -94v-113h-62v517h62l388 -80v-54l-388 71 v-213q35 50 91 82.5t124 32.5q31 0 55 -5q58 -12 89 -54t35 -103z" />
<glyph unicode="&#xa913;" horiz-adv-x="542" d="M238 508v-61h-75q-58 -1 -58 -74v-253q0 -70 65 -70l207 -1q51 0 51 64v584l-61 -46v73l61 44h68v-647q0 -48 -16.5 -77.5t-39.5 -41t-45 -11.5h-244q-46 0 -77 34.5t-31 95.5v258q0 118 104 129h91z" />
<glyph unicode="&#xa914;" horiz-adv-x="534" d="M245 -206v-61h-94q-41 0 -74.5 33t-33.5 95v326h153v-49h-91v-18q0 -70 65 -70l207 -1q51 0 51 64v52l-172 56l-213 72v86q0 118 104 129h241q108 -3 108 -129v-60h-132v43l64 2v18q0 65 -61 65h-204q-58 -1 -58 -74v-43l177 -60l214 -64v-85q0 -48 -16.5 -77.5 t-39.5 -41t-45 -11.5h-244q-30 0 -46 8v-139q0 -66 65 -66h75z" />
<glyph unicode="&#xa915;" horiz-adv-x="536" d="M105 183l323 160v39q0 65 -61 65h-204q-58 -1 -58 -74v-190zM105 120q0 -70 65 -70l207 -1q51 0 51 64v23h-97v51h165v-66q0 -48 -16.5 -77.5t-39.5 -41t-45 -11.5h-244q-46 0 -77 34.5t-31 95.5v258q0 117 104 129h241q108 -3 108 -129v-64z" />
<glyph unicode="&#xa916;" horiz-adv-x="542" d="M321 620h110v34q0 45 -69 45h-190q-32 0 -46.5 -22.5t-14.5 -49.5v-147q10 28 69 28h211q55 -9 78.5 -35.5t23.5 -109.5v-318h39v-54h-101v373q0 42 -9.5 61.5t-46.5 20.5h-203q-61 -19 -61 -108v-214q0 -44 10 -63q9 -17 36 -17h30v-53h-43q-49 0 -75 29t-26 115v490 q0 131 108 137h234q54 -9 81 -36.5t27 -87.5v-72h-172v54z" />
<glyph unicode="&#xa917;" horiz-adv-x="536" d="M390 49l-122 123l-119 -122zM344 508h152v-387q0 -48 -16.5 -77.5t-39.5 -41t-45 -11.5h-244q-46 0 -77 34.5t-31 95.5v387h142v-61h-80v-346l163 155l160 -155v346h-84v61z" />
<glyph unicode="&#xa918;" horiz-adv-x="539" d="M43 508h345q108 -3 108 -129v-51l-389 -189l-2 -19q0 -70 65 -70l207 -1q51 0 51 49v17h-61q-39 0 -75.5 -12t-87.5 -33.5t-65 -21.5q-12 0 -12 11q0 10 38 36.5t92.5 48t104.5 21.5h134v-44q0 -48 -16.5 -77.5t-39.5 -41t-45 -11.5h-244q-46 0 -77 34.5t-31 95.5v59 l385 178v24q0 65 -61 65h-323z" />
<glyph unicode="&#xa919;" horiz-adv-x="534" d="M428 150v232q0 65 -61 65h-55l-207 -343v-113h-62v517h62v-277l169 277h114q108 -3 108 -129v-297q-31 -91 -119 -91q-49 0 -79 23.5t-31 62.5q0 38 20 72t67 34h15q8 0 18.5 -3t21 -10t19.5 -20zM408 80q-4 49 -49 49q-38 -4 -38 -46q0 -38 38 -43q42 0 49 40z" />
<glyph unicode="&#xa91a;" horiz-adv-x="542" d="M105 50h106v-59h-168v517h62v-82l83 82h200q108 -3 108 -129v-518q0 -69 -32.5 -98.5t-68.5 -29.5h-70v56l52 1q51 0 51 65v527q0 65 -61 65h-158l-104 -104v-293z" />
<glyph unicode="&#xa91b;" horiz-adv-x="760" d="M654 49v333q0 65 -63 65h-108q-65 0 -65 -65v-9v-253q0 -68 -36 -98.5t-85 -30.5h-146q-41 0 -74.5 33.5t-33.5 96.5v387h173v-61h-111v-327q0 -70 65 -70l112 -1q37 0 55.5 20.5t18.5 51.5v258q0 63 31.5 95.5t87.5 33.5h138q108 -3 108 -129v-388h-163v58h96z" />
<glyph unicode="&#xa91c;" horiz-adv-x="695" d="M654 -139q0 -69 -32 -98.5t-69 -29.5h-390q-47 0 -78 34t-31 94v73h170v-48h-103v-18q0 -74 60 -74l354 -2q52 0 52 62v138q-16 -7 -34 -7h-129q-47 0 -78 35t-31 94v269q0 65 -62 65h-90q-58 -2 -58 -75v-253q0 -70 65 -70l41 -1v-57h-60q-46 0 -77 34.5t-31 94.5v259 q0 117 104 128h127q108 -3 108 -128v-259q0 -80 60 -80l93 2q52 0 52 65v275q0 65 -62 65h-44v60h64q109 -3 109 -128v-519z" />
<glyph unicode="&#xa91d;" horiz-adv-x="542" d="M308 508h91q105 -10 105 -126v-261q0 -60 -32 -95t-79 -35h-245q-36 0 -69 30.5t-33 99.5v648h67l63 -38v-68l-63 38v-586q0 -66 53 -66l209 1q65 0 65 71v255q0 30 -10.5 51.5t-47.5 22.5h-74v58z" />
<glyph unicode="&#xa91e;" horiz-adv-x="542" d="M428 -1q-12 -8 -33 -8h-244q-46 0 -77 34.5t-31 95.5v258q0 118 104 129h241q108 -3 108 -129v-88h-163v50l95 2v39q0 65 -61 65h-204q-58 -1 -58 -74v-253q0 -70 65 -70l207 -1q51 0 51 64v38h-97v55h165v-342q0 -70 -32.5 -100.5t-68.5 -30.5h-244q-43 0 -75.5 26.5 t-32.5 86.5v86h160v-54h-95q0 -36 2 -45q3 -23 16.5 -32t43.5 -9l207 2q25 0 38 17t13 47v141z" />
<glyph unicode="&#xa91f;" horiz-adv-x="536" d="M105 151v-31q0 -70 65 -70l30 -1l228 229v230h68v-647q0 -69 -32.5 -98.5t-68.5 -29.5h-46v57h28q51 0 51 65v332l-196 -196h-81q-41 0 -74.5 33.5t-33.5 96.5v387h182v-177q-5 -70 -35 -115q-25 -36 -85 -65zM105 216q28 8 44 38t16 77v116h-60v-231z" />
<glyph unicode="&#xa920;" horiz-adv-x="536" d="M175 159h-70v-39q0 -70 65 -70l207 -1q51 0 51 64v330l-164 -123l-159 123v-107h-62v172h76l145 -114l149 114h83v-387q0 -48 -16.5 -77.5t-39.5 -41t-45 -11.5h-244q-46 0 -77 34.5t-31 95.5v90h132v-52z" />
<glyph unicode="&#xa921;" horiz-adv-x="542" d="M428 637q0 64 -61 64h-204q-58 -1 -58 -59v-27h117v-50h-179v68q0 117 104 128h241q108 -3 108 -128v-642h-65l-326 426v-372h91v-54h-153v517h65l320 -414v543z" />
<glyph unicode="&#xa922;" horiz-adv-x="536" d="M93 249q-50 2 -50 55v75q0 118 104 129h241q108 -3 108 -129v-88h-150v50l82 2v39q0 65 -61 65h-204q-58 -1 -58 -74v-58q0 -18 14.5 -29t35.5 -11h101v-56h-97q-25 0 -40 -18q-14 -16 -14 -27v-5v-49q0 -70 65 -70l207 -1q51 0 51 64v38h-84v55h152v-85 q0 -48 -16.5 -77.5t-39.5 -41t-45 -11.5h-244q-46 0 -77 34.5t-31 95.5v80q0 42 50 48z" />
<glyph unicode="&#xa923;" horiz-adv-x="536" d="M428 187l-196 -196h-81q-41 0 -74.5 33.5t-33.5 96.5v387h132v-61h-70v-327q0 -70 65 -70l30 -1l228 229v169h-66v61h134v-387q0 -48 -16.5 -77.5t-39.5 -41t-45 -11.5h-46v58h28q51 0 51 64v74z" />
<glyph unicode="&#xa924;" horiz-adv-x="536" d="M191 351v-52h-148v80q0 118 104 129h241q108 -3 108 -129v-258q0 -48 -16.5 -77.5t-39.5 -41t-45 -11.5h-244q-46 0 -77 34.5t-31 95.5v28l385 217v16q0 65 -61 65h-204q-58 -1 -58 -74v-22h86zM428 301l-323 -183v-17q0 -21 13.5 -36t38.5 -15l220 -1q51 0 51 64v188z " />
<glyph unicode="&#xa925;" horiz-adv-x="536" d="M151 -9q-46 0 -77 34.5t-31 95.5v258q0 118 104 129h241q108 -3 108 -129v-258q0 -48 -16.5 -77.5t-39.5 -41t-45 -11.5h-244zM427 417q-2 19 -17 24.5t-43 5.5h-204q-52 0 -55 -30q65 -58 168 -63q88 0 151 63zM428 344q-34 -34 -72 -43.5t-82 -9.5q-53 3 -91.5 12.5 t-77.5 42.5v-226q0 -70 65 -70l207 -1q51 0 51 64v231z" />
<glyph unicode="&#xa926;" d="M-300 747l17 17h56l21 -20v-56l-18 -18h-59l-17 18v59z" />
<glyph unicode="&#xa927;" d="M-195 622l82 -59h-74l-228 154h85z" />
<glyph unicode="&#xa928;" d="M-150 563l-121 120l-119 -120h-72l191 201l193 -201h-72z" />
<glyph unicode="&#xa929;" d="M-446 691q0 -69 66 -69l208 -1q52 0 52 65v77h68v-70q0 -72 -31 -102q-29 -29 -66 -29h-249q-48 0 -79 35t-31 96v70h62v-72z" />
<glyph unicode="&#xa92a;" d="M-446 692q0 -68 66 -68l208 -2q52 0 52 65v77h68v-70q0 -71 -31 -102q-30 -29 -66 -29h-250q-47 0 -78 35.5t-31 95.5v70h62v-72zM-258 670h-60l-20 21v55l18 18h62l20 -22v-51z" />
<glyph unicode="&#xa92b;" d="M-300 -82l17 18h58l20 -20v-57l-17 -18h-61l-17 18v59z" />
<glyph unicode="&#xa92c;" d="M-347 -9l-50 -17q-16 -16 -21 -30.5t-5 -42.5v-41q0 -68 64 -68l206 2q51 0 51 61v50h67v-44q0 -69 -32 -98.5t-68 -29.5h-242q-46 0 -77 34.5t-31 93.5v60q0 41 23 71t62 39z" />
<glyph unicode="&#xa92d;" d="M-341 -4l-53 -23q-18 -13 -23 -31t-5 -55v-26q0 -69 65 -69l208 2q52 0 52 62v50h68v-44q0 -70 -32.5 -99.5t-69.5 -29.5h-244q-47 0 -78.5 34.5t-31.5 94.5v61q0 92 76 111zM-261 -65q22 0 38.5 -12t16.5 -40q-4 -43 -58 -43q-42 4 -47 47q0 42 50 48z" />
<glyph unicode="&#xa92e;" horiz-adv-x="771" d="M720 -1h-88q-51 40 -125.5 65t-126.5 25q-51 0 -105.5 -17.5t-92.5 -39.5t-38 -33h-101q15 40 72.5 78.5t128 63t121.5 24.5q65 0 141.5 -23t135 -61t78.5 -82z" />
<glyph unicode="&#xa92f;" horiz-adv-x="150" d="M105 -9h-62v517l62 -1v-516z" />
<glyph unicode="&#xaa60;" horiz-adv-x="737" d="M568 50q25 12 40 31.5t15 37.5v30q-25 -16 -40 -42t-15 -57zM623 348q0 15 -9 30.5t-24 29t-35 22t-43 8.5q-22 0 -42 -7.5t-35 -19t-23.5 -26t-8.5 -30.5v-236q0 -19 16 -38.5t42 -31.5l-25 -61q-21 10 -40 23.5t-33 30t-21.5 36.5t-7.5 41v227v2q0 15 -9 30.5t-24.5 29 t-35.5 22t-43 8.5q-21 0 -41 -7.5t-35 -19t-24 -26t-9 -30.5v-217q0 -13 8.5 -27t22 -25.5t33 -20t41.5 -8.5h11t11 1q-3 -25 -5 -41.5t-3 -24.5q-10 -1 -18 0q-31 2 -62 14t-54.5 32t-38.5 45.5t-15 54.5v217q0 29 14.5 55.5t39 47t56.5 32.5t67 12q44 1 81.5 -17t63.5 -48 q25 29 63 46.5t82 18.5q35 1 68 -12t58 -34.5t40.5 -50t15.5 -57.5v-229q0 -22 -8 -41.5t-22 -36t-32.5 -29.5t-40.5 -23l-55 15q-14 33 -12.5 63.5t13.5 56.5t34.5 45.5t52.5 31.5v147z" />
<glyph unicode="&#xaa61;" horiz-adv-x="734" d="M403 356v-232q3 -12 13.5 -25.5t26 -23.5t35 -16.5t40.5 -4.5q23 0 42.5 8.5t33 20t21.5 25.5t8 27v219q0 15 -8.5 30.5t-23.5 26.5t-35.5 18t-41.5 7q-22 1 -40 -6t-32.5 -18.5t-25 -25.5t-13.5 -30zM225 502q17 0 36 -4.5t38 -12.5t37.5 -20.5t32.5 -28.5 q25 29 63.5 48t81.5 18q36 -1 68.5 -13t57 -32.5t39 -47.5t14.5 -55v-219q0 -29 -15 -54.5t-38.5 -46t-54.5 -32.5t-63 -14q-41 -2 -81 13.5t-68 43.5q-14 -17 -33 -30.5t-40 -24.5l-26 62q26 11 41.5 30.5t17.5 36.5q0 2 -0.5 12t-0.5 25v32v83.5t0.5 77t0.5 11.5 q-3 15 -12 28.5t-24 24.5t-33.5 17t-39.5 6q-22 1 -42.5 -7.5t-36 -22t-24.5 -29.5t-9 -31v-129q0 -14 11 -30t28 -29q19 -14 33.5 -32.5t14.5 -46.5q0 -30 -16 -50t-39.5 -30t-51.5 -10t-52 9l19 60q16 -9 29.5 -9t23 4.5t14.5 12t5 13.5q0 10 -9 17t-19 15q-30 20 -46 47 t-16 59v129q0 30 15.5 58t41 49.5t58.5 35t69 13.5z" />
<glyph unicode="&#xaa62;" horiz-adv-x="610" d="M177 83q8 11 13.5 24t9.5 24q-1 2 -1 6v226q0 22 7.5 42.5t21.5 38.5t33 33t40 25q3 -6 9.5 -21t16.5 -40q-26 -13 -42 -35t-16 -43v-226q0 -15 9.5 -29.5t25.5 -27t37 -19.5t45 -6q23 1 41.5 9t32.5 19.5t22.5 26t8.5 27.5v235q0 20 -16 39.5t-42 32.5l26 60 q45 -19 73.5 -55t28.5 -77v-235q0 -29 -15 -54.5t-39 -46t-54.5 -33t-61.5 -13.5q-44 -3 -85 13.5t-68 45.5q-10 -26 -33 -43t-54 -17h-8q-20 0 -36.5 7.5t-29 20t-20 29t-7.5 36.5l-22 422h72l21 -422q0 -10 6 -17t16 -7h8q10 0 15 8.5t11 16.5z" />
<glyph unicode="&#xaa63;" horiz-adv-x="737" d="M336 137q-24 -13 -38.5 -35t-18.5 -48q25 12 41 31t16 37v15zM405 351v-5v0v-208q0 -15 9.5 -29.5t25.5 -27t37.5 -20t44.5 -5.5q22 1 41 9t33 19.5t22.5 25.5t8.5 28v217q0 16 -9 30.5t-23.5 26.5t-34.5 19t-43 7q-22 0 -42 -7.5t-34.5 -20.5t-24.5 -28.5t-11 -30.5z M239 -11q-10 33 -7 64.5t16 57.5t35.5 46.5t52.5 31.5v165q0 15 -8.5 30.5t-22.5 27t-34.5 18.5t-44.5 7q-26 0 -47 -8.5t-35 -21.5t-22.5 -29t-8.5 -32v-127q0 -15 12 -31.5t28 -28.5q19 -15 34 -33t15 -46q0 -31 -16.5 -51t-40 -30t-51.5 -10t-52 9l19 60q15 -9 28.5 -9 t23.5 4.5t15 12.5t5 14q0 9 -9.5 16.5t-18.5 15.5q-30 20 -45.5 46.5t-15.5 60.5v127q0 30 12.5 58.5t36.5 50t57.5 34.5t76.5 13q38 0 78 -16t68 -48q25 30 63 48.5t82 17.5q36 0 68.5 -12.5t57 -33t39 -47t14.5 -56.5v-217q0 -29 -15 -55t-39 -46t-54.5 -32.5t-62.5 -14.5 q-41 -2 -81 13.5t-68 43.5q-29 -35 -76 -56z" />
<glyph unicode="&#xaa64;" horiz-adv-x="743" d="M379 446q26 26 62.5 42.5t75.5 16.5q37 -1 69.5 -13.5t57 -33t39 -47t14.5 -56.5v-218q0 -29 -15 -54.5t-39 -46t-54.5 -33t-62.5 -13.5q-22 -2 -43.5 2.5t-42.5 12.5t-39 21t-31 28q-25 -27 -61 -44t-76 -20q-34 -2 -68 9t-61.5 31t-44 48t-16.5 60v226q0 21 7.5 42 t21.5 39t32.5 32.5t41.5 25.5q2 -7 8.5 -22t16.5 -39q-26 -13 -42.5 -35t-16.5 -43v-226q0 -15 9.5 -29.5t26 -27t37.5 -20t44 -5.5q23 1 42 9t33 19.5t22.5 25.5t8.5 28v234q0 20 -17 39.5t-41 32.5l25 61q24 -11 43 -26t34 -33zM405 348v-211q0 -14 9.5 -29t25.5 -27 t37 -19.5t45 -5.5q22 1 41 9t33 19.5t22 25.5t8 27v218q0 17 -8.5 31t-23 26t-34.5 19t-43 7q-23 1 -43 -7.5t-35.5 -22t-24.5 -29.5t-9 -31z" />
<glyph unicode="&#xaa65;" horiz-adv-x="737" d="M119 -190q0 -10 6 -16t16 -6h176q9 0 14.5 6t5.5 16l-1 214q-11 -7 -23 -13q-20 -11 -43 -17t-46 -5q-35 0 -67.5 12t-57 33t-39 47t-14.5 56v218q0 20 8 40t22 36.5t33 30t40 23.5l26 -61q-13 -6 -24.5 -14.5t-18.5 -18t-11.5 -19t-4.5 -17.5v-218q0 -16 8.5 -30.5 t24 -26.5t35 -19t41.5 -7t42.5 8.5t36 21.5t23.5 29q7 11 9 22l1 220q0 8 -4.5 18t-12 19t-18 17.5t-22.5 14.5l24 60q21 -9 38.5 -21.5t31.5 -27.5q13 15 29 27t35 21t39.5 13.5t41.5 3.5q35 0 67.5 -12t57.5 -32.5t39 -47t14 -54.5v-219q0 -29 -14.5 -54.5t-38.5 -45.5 t-54.5 -32.5t-63.5 -13.5q-8 -1 -17 0q-1 9 -3 25.5t-7 41.5l12 -2h12q21 1 40.5 9t34 19.5t22 25.5t7.5 27v219q0 14 -8.5 29.5t-23.5 26.5t-35 18.5t-42 7.5t-42.5 -8.5t-35.5 -22t-24 -29.5t-9 -31l-1 -535q0 -19 -7 -35.5t-19.5 -28.5t-28.5 -19.5t-34 -7.5h-176 q-17 0 -32 6.5t-27.5 17t-20 24.5t-10.5 31l68 22v-10z" />
<glyph unicode="&#xaa66;" horiz-adv-x="731" d="M41 346q0 30 15.5 58.5t40.5 50.5t58.5 35t69.5 12q44 -1 82.5 -19t63.5 -47q26 30 64 48.5t82 17.5q36 0 68 -12t57 -33t39.5 -47.5t14.5 -55.5v-219q0 -29 -15 -55t-39 -46t-54.5 -32t-62.5 -15h-18q-1 9 -4 26t-6 42q12 -2 24 -1q23 0 41.5 8.5t32.5 20t22 25.5t8 27 v219q0 15 -9 30.5t-23.5 26.5t-34.5 18.5t-42 7.5q-23 0 -43 -8.5t-36 -22t-25 -29.5t-9 -31v-1v-210q0 -29 -15 -55t-38.5 -46t-54 -32t-63.5 -15q-34 -1 -68 10t-61.5 31.5t-44.5 47.5t-17 59v211zM112 346v-211q0 -14 9 -28.5t25.5 -27t37.5 -20t45 -5.5q21 0 40.5 8.5 t34 20t22.5 25.5t8 27v219q0 15 -9 30.5t-24.5 26.5t-35 18.5t-42.5 7.5q-21 0 -41.5 -8.5t-36 -22t-24.5 -29.5t-9 -31zM222 273q-16 0 -25.5 -9.5t-9.5 -24.5t9.5 -24t25.5 -9q15 0 24.5 9t9.5 24t-9.5 24.5t-24.5 9.5zM222 320q16 0 31 -5.5t26.5 -17t17.5 -26.5t6 -32 t-6 -31.5t-17.5 -26t-26.5 -18t-31 -6.5q-17 0 -32 6.5t-25.5 18t-17.5 26t-7 31.5t7 32t17.5 26.5t25.5 17t32 5.5z" />
<glyph unicode="&#xaa67;" horiz-adv-x="737" d="M408 346v-211q0 -14 9.5 -28.5t25.5 -27t37 -20t45 -5.5q22 0 41 8.5t33.5 20t22 25.5t7.5 27v219q0 15 -8.5 30.5t-24 26.5t-34.5 18.5t-42 7.5q-22 0 -42.5 -8.5t-36 -22t-24.5 -29.5t-9 -31zM46 346q0 30 15 58.5t40.5 50.5t58.5 35t69 12q45 -1 83 -19t63 -47 q26 30 64.5 48.5t81.5 17.5q36 0 68.5 -12t57 -33t39 -47.5t14.5 -55.5v-219q0 -29 -15 -55t-39 -46t-54 -32t-64 -15q-43 -1 -85.5 16.5t-69.5 48.5q-25 -28 -61.5 -45t-74.5 -20q-35 -1 -69 10t-61.5 31.5t-44 47.5t-16.5 59v211zM116 346v-211q0 -14 9.5 -28.5t25.5 -27 t37 -20t45 -5.5q22 0 41 8.5t33 20t22 25.5t8 27v219q0 15 -8.5 30.5t-23.5 26.5t-35 18.5t-42 7.5t-42 -8.5t-36 -22t-25 -29.5t-9 -31zM227 275q-16 0 -25.5 -9.5t-9.5 -24.5q0 -14 9.5 -23t25.5 -9q14 0 24 9t10 23q0 15 -10 24.5t-24 9.5zM227 323q17 0 31.5 -6.5 t25.5 -17t18 -25.5t7 -32t-7 -32t-18 -26t-25.5 -17.5t-31.5 -6.5q-16 0 -31 6.5t-26.5 17.5t-17.5 26t-6 32t6 32t17.5 25.5t26.5 17t31 6.5z" />
<glyph unicode="&#xaa68;" horiz-adv-x="740" d="M46 346q0 30 15 58t41 50t58.5 35t68.5 13q45 -1 83.5 -19t62.5 -47q26 30 64.5 48.5t82.5 17.5q35 -1 67.5 -13t57 -32.5t39 -47.5t14.5 -55v-220q0 -15 -4 -31q-8 -24 -24 -44t-39 -35.5t-49.5 -25t-54.5 -11.5h-18l-40 4q-3 32 3.5 60.5t22.5 51.5q21 32 56.5 52 t76.5 20v179q0 15 -8.5 30t-24 26.5t-34.5 18.5t-42 7q-23 1 -43.5 -7.5t-35.5 -22t-24 -29.5t-9 -31v-212q0 -7 -1.5 -15t-4.5 -16q-7 -24 -23.5 -44t-39 -35.5t-49 -25t-53.5 -11.5q-31 -1 -60.5 7.5t-55.5 24t-45 36.5t-27 48q-4 16 -4 31v212zM116 346v-212 q0 -13 12 -31q7 -10 18 -19.5t24.5 -17t29.5 -11t34 -1.5q31 1 55.5 16t37.5 33q10 18 10 31v220q0 15 -8.5 30t-23.5 26.5t-34.5 18.5t-41.5 7q-23 1 -43 -7.5t-36 -22t-25 -29.5t-9 -31zM152 263q-2 -7 -3 -13.5t-1 -13.5q0 -18 6 -33t17.5 -26t25.5 -17.5t32 -6.5 q17 0 31.5 6.5t26 17.5t17.5 26t6 33q0 13 -4 27q-8 23 -29 38.5t-48 15.5t-48 -15.5t-29 -38.5zM208 263q9 6 21 6t20 -6q14 -10 14 -27q0 -16 -9.5 -25t-24.5 -9t-25 9t-10 25q0 17 14 27zM561 103q-13 -10 -22 -23t-14 -26h1q31 1 56 16t37 33q8 13 10 25q-19 0 -36.5 -7 t-31.5 -18z" />
<glyph unicode="&#xaa69;" horiz-adv-x="743" d="M41 135v211q0 30 15 58.5t40.5 50.5t58.5 35t69 12q41 -1 77 -16.5t62 -41.5q28 32 68.5 47.5t89.5 15.5q37 0 69 -12.5t56.5 -33t39 -47t14.5 -56.5v-219q0 -28 -15 -54.5t-39 -46t-54 -31.5t-63 -14q-21 -2 -43.5 2.5t-43 13t-38.5 20.5t-31 29q-25 -30 -62 -48.5 t-79 -21.5q-34 -2 -68 9.5t-61.5 31.5t-44.5 47t-17 59zM112 346v-211q0 -14 9 -28.5t25.5 -27t37.5 -19.5t45 -6q21 1 40 9t33.5 19.5t22.5 26t8 26.5v219q0 15 -8.5 30.5t-24 26.5t-35 18.5t-41.5 7.5t-42.5 -8.5t-36 -21.5t-24.5 -29.5t-9 -31.5zM402 354v-159 q29 12 61.5 13.5t63 -7.5t57 -27t45.5 -43q1 3 1 8v219q0 15 -9 30t-24 27t-34 19.5t-42 7.5q-48 0 -78.5 -20t-42.5 -49q2 -10 2 -19zM292 202q12 18 12 42q0 17 -6.5 31.5t-17.5 25.5t-26 17.5t-32 6.5t-32 -6.5t-25.5 -17.5t-17.5 -25.5t-7 -31.5q0 -23 12 -42 q11 -18 29.5 -29t40.5 -11t40.5 11t29.5 29zM402 134q6 -16 18 -30t28.5 -25t36.5 -16.5t40 -4.5q20 0 38.5 8.5t33.5 18.5q-15 25 -38 42.5t-50 25t-54.5 4t-52.5 -19.5v-2v-1zM222 277q15 0 24.5 -9.5t9.5 -23.5q0 -16 -9.5 -24.5t-24.5 -8.5t-25 8.5t-10 24.5 q0 14 10 23.5t25 9.5z" />
<glyph unicode="&#xaa6a;" horiz-adv-x="740" d="M45 135v211q0 30 15 58.5t40.5 50.5t58.5 35t69 12q40 -1 76.5 -16.5t61.5 -41.5q28 32 69 47.5t90 15.5q37 0 68.5 -12.5t56.5 -33t39.5 -47t14.5 -56.5v-219q0 -28 -15 -54.5t-39.5 -46t-55 -31.5t-61.5 -14q-22 -2 -44 2.5t-42.5 13t-38.5 20.5t-33 29 q-23 -30 -60.5 -48.5t-78.5 -21.5q-34 -2 -68.5 9.5t-62 31.5t-44 47t-16.5 59zM115 346v-211q0 -14 9.5 -28.5t25.5 -27t37 -19.5t45 -6q22 1 41 9t32.5 19.5t22.5 26t9 26.5v219q0 15 -9 30.5t-24 26.5t-35 18.5t-42 7.5t-42 -8.5t-36 -21.5t-25 -29.5t-9 -31.5zM406 354 v-159q29 12 61 13.5t63 -7.5t57.5 -27t45.5 -43q1 3 1 8v219q0 15 -9 30t-24 27t-35 19.5t-41 7.5q-48 0 -78.5 -20t-42.5 -49q2 -10 2 -19zM406 134q5 -16 17.5 -30t29 -25t36 -16.5t39.5 -4.5q21 0 39.5 8.5t32.5 18.5q-14 25 -37 42.5t-50 25t-55 4t-52 -19.5v-2v-1z" />
<glyph unicode="&#xaa6b;" horiz-adv-x="486" d="M208 63q9 22 10 46t-7 97.5t-23.5 92t-37.5 29.5v-194q0 -19 16 -38.5t42 -32.5zM79 354q-25 22 -36 57t-8 91l68 -3q-2 -48 7 -72q24 34 65.5 55t88.5 20q36 0 68 -12.5t57 -33t40 -47.5t15 -55v-220q0 -22 -8.5 -41.5t-22.5 -36.5t-33 -31t-41 -24l-25 61 q26 13 42.5 33t16.5 39v220q0 14 -9 29.5t-24 26.5t-35 18.5t-42 7.5q-33 1 -60 -15.5t-41 -38.5q1 0 4 -2l2 -2q36 -17 60 -45.5t35 -115t7.5 -123t-23.5 -71.5q-3 -6 -8 -12q-3 -7 -7 -12.5t-8 -10.5q-13 3 -22.5 7t-18.5 7q-22 10 -41 23.5t-33.5 30.5t-22 36.5 t-7.5 41.5v211v9z" />
<glyph unicode="&#xaa6c;" horiz-adv-x="858" d="M455 350q0 23 6.5 40t15.5 31q10 15 -5 16l-81 -1q-18 0 -8 -15q10 -12 16.5 -30.5t6.5 -40.5v-211q0 -31 -16.5 -58t-43.5 -47.5t-61.5 -31.5t-68.5 -9q-32 2 -63 14t-54.5 31.5t-38.5 46t-15 54.5v219q0 25 11 48.5t29.5 42.5t44 33t54.5 20l36 -61q-21 -1 -40 -8.5 t-34 -19t-23 -26t-8 -29.5v-219q0 -11 8 -25.5t22.5 -26t33.5 -20.5t41 -9q24 -1 44.5 6t37 19t26 27t9.5 29v211q0 22 -18 43q-9 15 -13 31.5t4 37.5q9 20 26.5 32.5t38.5 12.5h117q22 0 37 -9.5t24 -25t8.5 -34t-12.5 -36.5q-7 -6 -15.5 -19t-8.5 -33v-211q0 -14 9.5 -29 t25.5 -27t37.5 -19t44.5 -6q22 0 41 9t33.5 20.5t22 26t7.5 25.5v219q0 15 -8 29.5t-23 26t-34 19t-40 8.5l36 61q29 -6 54.5 -20t44.5 -33t29.5 -42.5t10.5 -48.5v-219q0 -28 -14.5 -54.5t-38.5 -46t-54.5 -31.5t-62.5 -14q-35 -2 -68.5 9t-61 31.5t-44.5 47.5t-17 58v211z " />
<glyph unicode="&#xaa6d;" horiz-adv-x="576" d="M175 447q-10 0 -17.5 -7.5t-7.5 -17.5q0 -12 7.5 -17.5t17.5 -5.5t17.5 5.5t7.5 17.5q0 10 -7.5 17.5t-17.5 7.5zM175 501q25 0 43.5 -12t28.5 -32q25 21 55.5 32.5t64.5 11.5q34 -1 66 -12.5t55.5 -31.5t38 -46t14.5 -54v-214q0 -29 -14.5 -54t-37.5 -44t-53 -31 t-61 -13q-9 -2 -18 0q-1 8 -2.5 23.5t-5.5 39.5q6 -1 11 -1.5t12 0.5q21 1 39.5 9t32 19.5t21.5 25t8 26.5v214q0 16 -9 29.5t-23 25.5t-33 19t-41 7q-20 0 -38.5 -7t-32.5 -18t-24 -25.5t-13 -28.5v-551q0 -18 -7 -34.5t-19.5 -28.5t-28.5 -19t-35 -7h-52q-17 0 -32 6.5 t-27 16.5t-19.5 24.5t-9.5 30.5l65 21v-10q0 -9 7.5 -15t15.5 -6h52q9 0 14.5 6t5.5 15l1 536q-4 -1 -7.5 -1h-7.5q-16 0 -30 6t-24.5 16.5t-17 25.5t-6.5 31t6.5 31t17 25.5t24.5 16.5t30 6z" />
<glyph unicode="&#xaa6e;" horiz-adv-x="737" d="M211 55q0 20 -7 38.5t-20 33t-30.5 24t-37.5 13.5v-28q0 -12 7 -25.5t20.5 -24.5t30.5 -20t37 -11zM116 211q37 -5 66.5 -23.5t48.5 -46.5t26 -63t-4 -73l-16 -8q-7 -3 -12.5 -5.5t-7.5 -2.5q-32 1 -62.5 13.5t-54.5 32.5t-39 45.5t-15 55.5v218q0 29 14.5 55.5t39 47.5 t57 33t68.5 12q35 1 68 -12t58.5 -35t41 -50.5t15.5 -58.5l-1 -205q1 -14 10.5 -30.5t24.5 -28.5t35 -20t42 -8t41.5 7.5t35 19.5t24 26.5t8.5 30.5v217q0 13 -8 27t-22 26t-33.5 20t-40.5 9h-12.5t-11.5 -1q4 25 6 41.5t3 24.5h18q32 -2 62.5 -14t55 -32t38.5 -46t14 -55 v-217q0 -30 -14 -56.5t-38.5 -47.5t-57 -33t-67.5 -12q-35 -1 -68 12t-58.5 34.5t-41 49.5t-15.5 58v0v203q0 16 -9 32t-24 29t-36 21.5t-43 8.5t-41.5 -7.5t-35 -18.5t-24 -26.5t-8.5 -30.5v-143z" />
<glyph unicode="&#xaa6f;" horiz-adv-x="607" d="M274 346v-211q0 -14 9.5 -28.5t26 -27t37 -19.5t44.5 -6q21 1 40.5 9t33.5 19.5t22 26t8 26.5v219q0 15 -8.5 30.5t-23.5 26.5t-34.5 18.5t-42.5 7.5q-22 0 -42.5 -8.5t-36 -22t-24.5 -29t-9 -31.5zM226 416q-2 8 -8.5 12t-13.5 4h-68q-9 0 -15 -6.5t-6 -15.5l1 -422h-71 l-1 422q0 19 7 36t20 29.5t29.5 19.5t35.5 7h68q21 0 40.5 -9.5t31.5 -24.5q24 16 52 25.5t60 8.5q35 0 67.5 -12t56.5 -33t38.5 -47.5t14.5 -55.5v-219q0 -29 -15 -54.5t-38.5 -45.5t-54 -32.5t-63.5 -13.5q-33 -3 -67.5 9t-61.5 31.5t-44 46.5t-17 59v211q0 36 22 70z" />
<glyph unicode="&#xaa70;" horiz-adv-x="728" d="M168 50q0 31 -14.5 57t-40.5 42v-30q0 -18 15 -37.5t40 -31.5zM113 201q30 -12 52.5 -31.5t34.5 -45.5t13.5 -56.5t-11.5 -63.5l-56 -15q-22 10 -40.5 23t-33 29.5t-22 36t-7.5 41.5v229q0 29 15.5 57.5t40.5 50t57.5 34.5t68.5 12q44 -1 82 -18.5t63 -46.5 q25 30 63.5 48t81.5 17q35 0 67.5 -12t56.5 -32.5t38.5 -47t14.5 -55.5v-217q0 -29 -15 -54.5t-38.5 -45.5t-54.5 -32t-62 -14q-8 -1 -18 0q-1 8 -3 24.5t-6 41.5q6 -1 12 -1h11q22 0 41.5 8.5t33.5 20t21.5 25.5t7.5 27v217q0 16 -8.5 30.5t-23 26t-35 19t-41.5 7.5 q-23 0 -43 -8.5t-35.5 -22t-24.5 -29t-9 -30.5v-2v-227q0 -21 -7.5 -41t-22 -36.5t-33 -30t-39.5 -23.5l-25 61q26 12 42 31.5t16 38.5v236q0 16 -8.5 30.5t-24 26t-34.5 19t-42 7.5q-22 0 -42.5 -8.5t-35.5 -22t-24 -29t-9 -30.5v-147z" />
<glyph unicode="&#xaa71;" d="M-351 653q34 26 72.5 38.5t78 12.5t77.5 -12.5t73 -38.5l-31 -42q-28 21 -58 31t-61 10t-62 -10t-58 -31zM-98 519q-22 20 -47.5 29t-52 10t-52 -7.5t-48.5 -25.5l-38 37q30 26 64.5 37.5t70.5 11.5t71 -12t65 -37z" />
<glyph unicode="&#xaa72;" horiz-adv-x="872" d="M143 57q-8 38 -15.5 65t-19.5 39v-33q0 -25 7.5 -45t27.5 -26zM555 357v-227q3 -14 14 -26.5t25.5 -22.5t33.5 -16.5t40 -5.5t39.5 9t32 20t21.5 25.5t8 25.5v216q0 15 -8.5 29.5t-22.5 25t-33.5 18t-41.5 7.5q-20 1 -38 -6t-32.5 -18t-24.5 -25t-13 -29zM382 499 q16 0 34.5 -4.5t37 -12.5t36.5 -20t31 -27q25 28 63 46t80 18q34 0 66 -12t55.5 -32t38 -46t14.5 -54v-216q0 -28 -15 -53.5t-38 -44.5t-53 -31t-61 -14q-39 -1 -78.5 13.5t-66.5 41.5q-13 -17 -31.5 -30t-40.5 -22l-23 59q24 11 39.5 29.5t16.5 35.5q0 1 -0.5 11.5 t-0.5 25.5v31.5v82.5t0.5 76t0.5 11q-2 14 -11 27.5t-23.5 24t-33 17t-38.5 6.5q-22 0 -42 -8.5t-34.5 -21.5t-23.5 -28.5t-9 -30.5v-203q0 -34 -5 -59t-14 -41.5t-21 -25.5t-26 -14v-6t1 -5l-53 -8l-2 12h-9q-17 0 -35.5 6.5t-34 19.5t-25 32.5t-9.5 45.5v49q0 26 9 44 t21.5 29.5t28 15.5t29.5 2t24.5 -9t13.5 -19q8 -10 17 -43.5t17 -91.5q3 11 3.5 26.5t0.5 38.5v204q0 29 15 56.5t39.5 48.5t57 34t67.5 13z" />
<glyph unicode="&#xaa73;" horiz-adv-x="553" d="M154 410q-1 10 -4.5 16t-11.5 6q-9 0 -15 -6.5t-6 -15.5v-422h-72v422q0 19 6.5 36t20 29.5t30 19.5t36.5 7q23 0 39 -8t26.5 -21.5t15 -29.5t4.5 -33v-8t0.5 -19t0.5 -27v-32v-188q0 -15 9.5 -29t25.5 -27t37.5 -20t43.5 -6q23 1 42 9t33 19.5t22 26t8 27.5v234 q0 21 -16 40.5t-41 31.5l25 60q23 -10 41.5 -24t32 -31t21.5 -36.5t8 -40.5v-234q0 -30 -15 -55.5t-39 -45.5t-54.5 -32.5t-62.5 -13.5q-35 -2 -68.5 9.5t-61 31t-44.5 47t-17 59.5v274z" />
<glyph unicode="&#xaa74;" horiz-adv-x="508" d="M257 394q-9 -20 -9.5 -41.5t7.5 -92.5t22 -87.5t33 -26.5v185q0 16 -14.5 33.5t-37.5 29.5h-1zM242 -179q-9 0 -16 -7.5t-7 -17.5q0 -9 7 -15t16 -6q10 0 17 6t7 15q0 10 -7 17.5t-17 7.5zM410 337q1 27 -0.5 42t-10 47t-26 48t-47.5 22q-28 2 -52.5 14t-42 30t-28 42 t-10.5 52q0 27 11.5 53t31.5 44.5t46.5 29t56.5 10.5q25 0 47.5 -7.5t40.5 -20t31.5 -31t20.5 -40.5l-60 -15q-7 24 -29.5 40t-50.5 16q-18 0 -33 -6.5t-27 -17t-18.5 -25t-6.5 -30.5q0 -33 22 -55.5t54 -25.5h1.5h1.5h2q63 -12 98 -56q18 -27 28 -72.5t11 -54.5v-619 q0 -13 -9.5 -22.5t-21.5 -9.5l-133 42q-10 -17 -27 -27t-39 -10q-15 0 -28 5.5t-23.5 15.5t-16 23t-5.5 28q0 16 5.5 29.5t16 23.5t23.5 15.5t28 5.5h13v125q-22 -7 -49 -7q-31 1 -60.5 12.5t-52 30t-35.5 42t-13 50.5v208q0 19 7 36.5t20 33.5t30.5 28t36.5 21l22 -55 q-22 -12 -37 -30t-15 -34v-208q0 -14 8 -27.5t21.5 -24t31.5 -17t38 -6.5q30 -1 54.5 13.5t36.5 35.5q-34 15 -56.5 41.5t-33 109t-7.5 117t20 65.5v3q5 6 10 13.5t11 15.5q11 -3 20.5 -6t17.5 -6q19 -9 36 -21t29.5 -27.5t19.5 -33.5t7 -37v-201q0 -29 -15 -55.5t-40 -47.5 v-203l92 -32v545z" />
<glyph unicode="&#xaa75;" horiz-adv-x="779" d="M507 -180q-10 0 -17 -6.5t-7 -16.5t7 -16t17 -6t17 6t7 16t-7 16.5t-17 6.5zM675 202q0 130 -2 161t-10.5 58.5t-25.5 48t-48 26.5q-27 2 -51 13.5t-42 30t-28 42.5t-10 52q0 27 11.5 52.5t31 44.5t46 29t56.5 10q25 0 47.5 -7.5t41 -20t31.5 -31t20 -40.5l-59 -15 q-8 24 -29.5 40.5t-51.5 16.5q-17 0 -32.5 -6.5t-27 -17t-18.5 -25t-7 -30.5q0 -17 6.5 -31t16.5 -24.5t24 -17.5t31 -8h3q34 -6 58 -21.5t42 -42.5q9 -14 16 -31t11 -37.5t7 -41.5t3 -42v-586q0 -13 -9 -22.5t-22 -9.5l-134 42q-9 -18 -26.5 -28t-37.5 -10q-16 0 -29 5.5 t-23 16t-15.5 23.5t-5.5 29t5.5 29t15.5 23.5t23 15.5t29 5h12v187q24 10 38 28t14 35v208q0 13 -8 26.5t-21.5 24t-31.5 17.5t-38 7t-38.5 -7.5t-32 -20t-22 -27t-8.5 -29.5v0v-212q0 -19 -7.5 -36.5t-20.5 -33t-30 -28t-37 -21.5l-22 55q24 11 38.5 29.5t14.5 34.5v221 q0 13 -8 26.5t-21.5 24t-31.5 17.5t-38 7q-21 0 -39.5 -7.5t-32.5 -20t-22 -27t-8 -29.5v-126q0 -13 10.5 -27t24.5 -27q16 -12 30.5 -28.5t14.5 -42.5q0 -28 -14.5 -46t-37 -27t-47 -9t-47.5 9l19 54q14 -8 26 -8t20.5 4t14 10.5t5.5 12.5q0 8 -9 15.5t-18 13.5 q-56 39 -56 96v126q0 28 14 54t37 45.5t52.5 31.5t62.5 12q40 -1 75.5 -17.5t57.5 -42.5q23 27 58 44t73 16q34 -1 63 -12.5t51 -29.5t35.5 -42t13.5 -50v-208q0 -28 -14.5 -52.5t-39.5 -43.5v-200l93 -32z" />
<glyph unicode="&#xaa76;" horiz-adv-x="728" d="M464 -179q-10 0 -17.5 -7t-7.5 -17t7.5 -16t17.5 -6q9 0 16 6t7 16t-7 17t-16 7zM164 403q-27 1 -48.5 -11t-37.5 -29l-44 43q24 25 57.5 41t73.5 16q39 -1 74 -17.5t58 -42.5q23 27 58.5 43.5t73.5 16.5q33 0 62 -11.5t51 -30t35.5 -42.5t13.5 -51v-207q0 -28 -14.5 -53 t-38.5 -43v-201l92 -32l1 514q1 28 -1 58.5t-11 58t-26 48t-48 26.5q-28 2 -51.5 14t-41.5 30t-28 42t-10 51q0 29 11.5 54t31 44t46.5 29.5t58 10.5q24 0 46.5 -7.5t41 -20t32 -31t18.5 -39.5l-58 -16q-8 24 -30 40.5t-50 16.5q-18 0 -34 -6.5t-27.5 -18t-18 -25 t-6.5 -31.5q0 -32 22 -54.5t56 -25.5v-1h2q34 -6 58 -21.5t43 -43.5q9 -13 16 -30.5t11.5 -37t7 -40.5t3.5 -41v-588q0 -13 -9.5 -22.5t-22.5 -9.5l-134 42q-10 -18 -26.5 -28t-37.5 -10q-15 0 -29 5.5t-24.5 16t-15.5 23.5t-5 29t5 29t15.5 23.5t24.5 15.5t29 5h6h6v187 q23 10 37 28t14 36v207q0 13 -7.5 26.5t-21 24.5t-31.5 17.5t-39 6.5q-20 0 -38.5 -7t-32.5 -19.5t-22.5 -27t-8.5 -29.5v-1l-1 -564q0 -12 -9 -21.5t-22 -9.5l-97 -1l-120 1q-12 0 -21.5 9.5t-9.5 21.5v55q0 7 1.5 19t6.5 24.5t18 23t35 15.5q19 4 38 -0.5t34 -12.5t28 -18 t21 -17l-45 -46q-4 5 -16 14.5t-24.5 15t-23 4t-11.5 -19.5v-25h86h69v541q0 13 -8 26.5t-21.5 24.5t-31.5 17.5t-38 6.5z" />
<glyph unicode="&#xaa77;" horiz-adv-x="466" d="M466 -135v11l68 -23q-2 -17 -9.5 -31.5t-19.5 -24.5t-27.5 -16.5t-32.5 -6.5h-27q-20 0 -36 7t-28 19.5t-19 29t-7 35.5v76q-14 -22 -25.5 -42.5t-20 -37.5t-14 -30t-5.5 -20q1 -17 4.5 -28.5t9.5 -19.5t13 -13.5t14 -10.5l-59 -28q-14 12 -25 26q-9 13 -16.5 29.5 t-6.5 34.5q0 19 8.5 43t21.5 50t29 54.5t30.5 56t25 54.5t16.5 51v4v5v2v232q0 15 -9 29.5t-23 26t-34 19t-42 8.5q-22 0 -42 -8.5t-34.5 -22t-23.5 -29t-9 -30.5v-127q0 -16 10.5 -31.5t27.5 -27.5q18 -14 32.5 -32t14.5 -46q0 -31 -15 -50.5t-38.5 -29t-51 -9.5t-51.5 8 l19 58q16 -7 29 -6.5t22.5 4.5t15 11.5t5.5 13.5q0 10 -9.5 17t-19.5 13q-61 42 -61 107v127q0 29 15.5 57t40 49t57.5 34t67 13q25 0 55.5 -10t57 -29.5t44.5 -48t18 -65.5v-481q0 -10 5.5 -16.5t16.5 -6.5h27q9 0 15 6.5t6 16.5zM224 562h9h9l-2 -60q-3 -1 -7 -1h-9 q-30 0 -55.5 11t-45 29t-30.5 42.5t-11 52.5q0 27 11 52t30.5 43.5t45 28t55.5 9.5q24 0 46.5 -7t40.5 -19.5t31.5 -31t19.5 -39.5l-62 -16q-4 12 -10.5 22t-16.5 17t-22.5 11t-26.5 4q-16 0 -30 -6t-25.5 -15.5t-17 -23t-5.5 -29.5t5.5 -29t17 -23.5t25.5 -16t30 -5.5z" />
<glyph unicode="&#xaa78;" horiz-adv-x="867" d="M502 455q-38 -45 -83.5 -66t-92 -20t-92 24.5t-82.5 69.5l41 50q28 -36 63 -54t71 -18.5t71 16t65 51.5zM76 519q44 -46 66 -101t21 -164t-24.5 -164t-69.5 -100l-51 50q36 35 54 77.5t19 138t-16 138t-52 76.5zM117 25q32 41 76.5 66t92.5 32t96.5 -3t90.5 -41 q4 53 15.5 160.5t29 161.5t40.5 104.5t50 93.5t57 75.5t61 51.5q11 7 27 12.5t34 6.5t38 -5.5t40 -24.5l-10 -72q-35 30 -65 29.5t-57 -17.5q-50 -54 -85.5 -120.5t-59 -136.5t-36 -191.5t-17.5 -182.5l-64 -43q-29 36 -68 54.5t-80 19t-80.5 -18t-68.5 -55.5z" />
<glyph unicode="&#xaa79;" horiz-adv-x="438" d="M223 501q24 0 55 -10t58 -29t45 -48t18 -67l-1 -222v-5.5v-5.5q-2 -20 -9.5 -46.5t-17.5 -54t-21.5 -55.5t-21 -52.5t-15 -43.5t-4.5 -30q0 -17 4.5 -30t10 -23t13 -18t12.5 -14l-59 -29q-14 16 -25 34q-9 15 -16 34t-7 38q0 29 12.5 67t29 78t30.5 80t15 75v232 q0 16 -8.5 30t-23.5 25.5t-34.5 18.5t-41.5 7t-42.5 -8.5t-35 -21.5t-23.5 -28.5t-9 -31.5v-127q0 -15 11 -30.5t27 -28.5q19 -14 34 -32.5t15 -45.5q0 -30 -16 -50t-39.5 -29t-51 -9.5t-51.5 7.5l20 60q15 -8 28 -8t22.5 4t15 11t5.5 14q0 10 -9.5 17t-19.5 13 q-29 21 -45 48t-16 59v127q0 30 15.5 58t40.5 49t57.5 34t68.5 13z" />
<glyph unicode="&#xaa7a;" horiz-adv-x="844" d="M637 496q31 -1 61 -13.5t53 -32t38 -45t15 -52.5v-218q0 -28 -14.5 -53.5t-38.5 -46t-56 -32.5t-66 -13q-31 0 -59.5 10.5t-52.5 28.5l1 -277q0 -15 -10 -24.5t-24 -9.5h-408q-13 0 -23.5 9.5t-10.5 24.5v920q0 13 10.5 23.5t23.5 10.5h374v63h67v-97q0 -14 -10 -24 t-23 -10h-373v-852h339v558q0 15 -9 30.5t-24 28.5t-34.5 21t-41.5 8t-41 -7t-34 -19t-23.5 -26t-8.5 -29v-217q0 -12 7.5 -26t21.5 -25t32.5 -18.5t40.5 -8.5h12t10 1q-3 -26 -5 -42t-4 -24q-8 -1 -17 0q-31 3 -61 14.5t-54 31.5t-37.5 44.5t-13.5 52.5v217q0 28 13.5 54 t38 46.5t56 32.5t66.5 12q34 0 66.5 -12t57.5 -34t39.5 -49.5t14.5 -56.5v-205q0 -14 9.5 -29.5t25 -27t34.5 -19t40 -7.5q22 0 41.5 6.5t34 18.5t23 26t8.5 28v218q0 11 -7.5 24.5t-21.5 25.5t-33 20t-40 9q-12 2 -23 -2q4 25 6 41.5t4 24.5h18z" />
<glyph unicode="&#xaa7b;" horiz-adv-x="246" d="M55 25q-14 20 -14 46q0 17 6.5 31.5t17.5 25.5t26 17.5t32 6.5q16 0 31 -6.5t26.5 -17.5t18 -25.5t6.5 -31.5q0 -29 -17 -50.5t-42 -29.5l49 -85l-53 -30zM123 94q-11 0 -18.5 -7t-7.5 -16q0 -13 7.5 -19.5t18.5 -6.5t18.5 6.5t7.5 19.5q0 9 -7.5 16t-18.5 7z" />
<glyph unicode="&#xe000;" horiz-adv-x="705" d="M0 705h705v-705h-705v705z" />
<glyph unicode="&#xfb01;" horiz-adv-x="427" d="M285 647l-11 -69q-25 4 -47 4q-29 0 -47 -12t-18 -60v-44h90v-61h-90v-405h-79v405h-70v61h70v51q0 35 6 63.5t34.5 51.5t87.5 23q36 0 74 -8zM389 0h-79v466h79v-466zM389 554h-79v90h79v-90z" />
<glyph unicode="&#xfb02;" horiz-adv-x="445" d="M285 647l-11 -69q-25 4 -47 4q-29 0 -47 -12t-18 -60v-44h90v-61h-90v-405h-79v405h-70v61h70v51q0 35 6 63.5t34.5 51.5t87.5 23q36 0 74 -8zM387 0h-79v644h79v-644z" />
<glyph d="M-250 588q-7 16 -19 28t-27 18.5t-32 7.5t-33 -6q5 -6 9.5 -11.5t10.5 -9.5q20 -17 43 -24t48 -3zM-414 827q22 25 49 41t56.5 22t60.5 3t60 -16q15 -12 16 -27t-7 -27t-21 -17.5t-26 0.5q-16 6 -33.5 7t-34.5 -3t-31.5 -13t-27.5 -23q-17 -19 -23.5 -41.5t-3.5 -45.5 q22 9 44.5 9.5t44 -5.5t40 -18.5t32.5 -30.5t21.5 -40t6.5 -49q2 -13 -5.5 -25.5t-25.5 -17.5q-44 -10 -89.5 0.5t-82.5 42.5q-31 27 -47.5 61.5t-19.5 72t9 74t38 66.5z" />
<glyph d="M-397 588q-6 16 -18.5 28t-27 18.5t-31.5 7.5t-34 -6q5 -6 10 -11.5t10 -9.5q19 -17 43 -24t48 -3zM-561 827q22 25 49 41t56.5 22t60.5 3t59 -16q16 -12 16.5 -27t-7 -27t-20.5 -17.5t-26 0.5q-16 6 -33.5 7t-34 -3t-32 -13t-27.5 -23q-17 -19 -23 -41.5t-4 -45.5 q22 9 44.5 9.5t44 -5.5t40 -18.5t32.5 -30.5t21 -40t7 -49q1 -13 -6 -25.5t-25 -17.5q-44 -10 -90 0.5t-83 42.5q-30 27 -46.5 61.5t-19 72t9 74t37.5 66.5zM-221 617q15 -13 34 -20.5t40 -7.5q23 0 42 7.5t34 20.5q-7 16 -19.5 26t-26.5 15t-29 5t-29.5 -5t-26 -15 t-19.5 -26zM-257 697q0 -16 5 -30q20 24 48 36t58 12t58 -12t48 -36q4 14 4 30q0 22 -9 42t-24 34t-34.5 23t-43.5 9q-22 0 -42 -9t-35 -23t-24 -34t-9 -42zM-338 697q0 38 14.5 73t40.5 60.5t61.5 40.5t74.5 15q41 0 76 -15t61 -40.5t41 -60.5t15 -73q0 -40 -15 -74 t-41 -60t-61 -40.5t-76 -14.5q-39 0 -74.5 14.5t-61.5 40.5t-40.5 60t-14.5 74z" />
<glyph d="M-131 -31q18 -13 33 -31t26 -40t16.5 -46.5t5.5 -49.5q0 -42 -14.5 -79t-40.5 -64.5t-61 -43.5t-74 -16t-73.5 16t-60.5 43.5t-40.5 64.5t-14.5 79q0 25 5.5 49t16 45.5t25 39.5t32.5 32q11 9 21 9t19 -5t15 -13.5t8 -19.5t-2 -21.5t-14 -18.5q-22 -16 -34.5 -42 t-12.5 -55q0 -25 8.5 -46.5t24 -37.5t35 -25.5t42.5 -9.5t43.5 9.5t35.5 25.5t23.5 37.5t8.5 46.5q0 30 -13 56.5t-34 42.5q-11 7 -15 17.5t-2.5 21t7 19.5t14.5 14t19.5 4.5t21.5 -8.5zM-240 -140q13 0 24.5 -4.5t20 -13t13 -19.5t4.5 -24q0 -12 -4.5 -23.5t-13 -20 t-20 -13.5t-24.5 -5t-24 5t-19.5 13.5t-13.5 20t-5 23.5q0 13 5 24t13.5 19.5t19.5 13t24 4.5zM-240 -176q-10 0 -18 -7t-8 -18t8 -18t18 -7t17.5 7t7.5 18t-7.5 18t-17.5 7zM-240 -140q13 0 24.5 -4.5t20 -13t13 -19.5t4.5 -24q0 -12 -4.5 -23.5t-13 -20t-20 -13.5 t-24.5 -5t-24 5t-19.5 13.5t-13.5 20t-5 23.5q0 13 5 24t13.5 19.5t19.5 13t24 4.5zM-240 -176q-10 0 -18 -7t-8 -18t8 -18t18 -7t17.5 7t7.5 18t-7.5 18t-17.5 7z" />
<glyph d="M-246 692q0 -22 9 -41t24 -33.5t35 -22.5t44 -8q22 0 42.5 8t35.5 22.5t24 33.5t9 41t-9 41t-24 33.5t-35.5 23t-42.5 8.5q-24 0 -44 -8.5t-35 -23t-24 -33.5t-9 -41zM-329 692q0 39 15.5 72t42 58t61.5 40t76 15q39 0 75 -15t62 -40t41 -58t15 -72q0 -38 -15 -71.5 t-41 -58.5t-62 -39.5t-75 -14.5q-41 0 -76 14.5t-61.5 39.5t-42 58.5t-15.5 71.5zM-378 588q-6 16 -18 28t-27 18.5t-32 7.5t-33 -6q5 -6 9.5 -11.5t9.5 -9.5q20 -17 43.5 -24t47.5 -3zM-542 827q22 25 49.5 41t57 22t60 3t59.5 -16q15 -12 16 -27t-6.5 -27t-20.5 -17.5 t-27 0.5q-16 6 -33 7t-33.5 -3t-32 -13t-28.5 -23q-16 -19 -22 -41.5t-4 -45.5q21 9 44 9.5t44 -5.5t40 -18.5t32.5 -30.5t21 -40t6.5 -49q2 -13 -5.5 -25.5t-25.5 -17.5q-44 -10 -89.5 0.5t-82.5 42.5q-31 27 -47.5 61.5t-19 72t9 74t37.5 66.5z" />
<glyph d="M-464 657q-20 -1 -32.5 -3.5t-21 -7.5t-12 -11.5t-3.5 -14.5t4 -15t13 -12t23.5 -8.5t37.5 -3.5q19 0 35 5.5t27 12.5q9 7 18.5 7t16.5 -4.5t12 -12.5t6.5 -17.5t-2.5 -18.5t-14 -15q-19 -14 -45.5 -22t-53.5 -8q-25 0 -50.5 7.5t-47 21t-35 34.5t-13.5 49q0 23 9.5 41 t26.5 33q-17 13 -26.5 31.5t-9.5 42.5q0 28 13.5 48.5t35 34.5t47 20.5t50.5 6.5q27 0 53.5 -7.5t45.5 -21.5q10 -7 14 -16t2.5 -18t-6.5 -17t-12 -12.5t-16 -4.5t-19 6q-11 9 -27 13.5t-35 4.5q-23 0 -37.5 -3t-23.5 -9t-13 -12.5t-4 -12.5q0 -11 3.5 -17.5t12 -11t21 -6 t32.5 -3.5q1 1 3.5 1h5.5q27 0 53.5 -8t45.5 -22q10 -7 14 -16t2.5 -18t-6.5 -16.5t-12 -12t-16 -4.5t-19 7q-10 6 -24.5 10.5t-32.5 5.5h-7h-7zM-102 508q-39 -6 -76 4t-66.5 31.5t-49 53t-25.5 70.5t4.5 75t32.5 64.5t54.5 48t71.5 24.5q36 5 69.5 -2.5t62 -25t49 -44 t31.5 -58.5q3 -13 0 -23.5t-10.5 -17.5t-17.5 -10t-20 -1.5t-18.5 8.5t-12.5 19q-7 19 -18.5 34.5t-28 25.5t-35 14.5t-39.5 1.5q-23 -4 -41 -15t-31.5 -27t-19 -37t-2.5 -43t14.5 -40t28.5 -30.5t38 -18t44 -2.5q14 2 24 -2.5t15.5 -13t7 -18.5t-2 -19.5t-11.5 -17 t-22 -8.5z" />
<glyph d="M-102 508q-39 -6 -76 4t-66.5 31.5t-49 53t-25.5 70.5t4.5 75t32.5 64.5t54.5 48t71.5 24.5q36 5 69.5 -2.5t62 -25t49 -44t31.5 -58.5q3 -13 0 -23.5t-10.5 -17.5t-17.5 -10t-20 -1.5t-18.5 8.5t-12.5 19q-7 19 -18.5 34.5t-28 25.5t-35 14.5t-39.5 1.5q-23 -4 -41 -15 t-31.5 -27t-19 -37t-2.5 -43t14.5 -40t28.5 -30.5t38 -18t44 -2.5q14 2 24 -2.5t15.5 -13t7 -18.5t-2 -19.5t-11.5 -17t-22 -8.5zM-397 588q-6 16 -18.5 28t-27 18.5t-31.5 7.5t-34 -6q5 -6 10 -11.5t10 -9.5q19 -17 43 -24t48 -3zM-561 827q22 25 49 41t56.5 22t60.5 3 t59 -16q16 -12 16.5 -27t-7 -27t-20.5 -17.5t-26 0.5q-16 6 -33.5 7t-34 -3t-32 -13t-27.5 -23q-17 -19 -23 -41.5t-4 -45.5q22 9 44.5 9.5t44 -5.5t40 -18.5t32.5 -30.5t21 -40t7 -49q1 -13 -6 -25.5t-25 -17.5q-44 -10 -90 0.5t-83 42.5q-30 27 -46.5 61.5t-19 72t9 74 t37.5 66.5z" />
<glyph d="M-447 -12q16 -10 34 -16.5t37.5 -10.5t38 -6.5t36.5 -2.5q39 -1 73.5 5.5t68.5 27.5q4 3 9.5 5.5t11.5 3.5t11 0.5t7 -1.5q12 -4 20.5 -14t8.5 -26v-259q0 -7 2.5 -9.5t10.5 -2.5h46q13 0 22.5 -6t14 -15t4.5 -20t-4.5 -20t-14 -15.5t-22.5 -6.5h-46q-18 0 -35.5 6 t-30.5 18t-21 30t-8 41v193q-32 -11 -64.5 -14.5t-66.5 -3.5q-24 0 -48 3.5t-48.5 9t-48 14.5t-42.5 23q-12 7 -16.5 17.5t-3 20.5t6.5 19t14 14t20.5 5t22.5 -7z" />
<glyph d="M-448 -13q16 -10 35 -17.5t38 -12t39.5 -6.5t39.5 -2q38 0 74.5 8t70.5 29q13 9 25.5 7.5t22 -9t13.5 -19.5t2 -24v-215q0 -26 -10 -49t-27 -40.5t-40 -27.5t-50 -10h-198q-27 0 -50 10.5t-40 27.5t-27 40t-10 49q0 27 11 50.5t29.5 40t43.5 25t53 4.5q20 -3 36.5 -9 t31 -15t28 -20.5t28.5 -24.5q11 -9 14 -19.5t1 -20t-9 -17t-16.5 -11t-20 -2t-21.5 10.5q-7 5 -13 11t-13.5 12t-16 11.5t-18.5 9.5q-9 5 -20.5 6t-21.5 -3t-16.5 -13t-7.5 -26q0 -9 3.5 -17t9.5 -14t14 -9.5t18 -3.5h198q9 0 17.5 3.5t14.5 9.5t9.5 14t3.5 17v160 q-32 -11 -64 -15.5t-66 -3.5q-23 0 -48.5 2.5t-51 9t-49.5 16.5t-44 23q-12 7 -16.5 17t-3 20.5t7 19.5t14.5 14.5t20 5.5t23 -8z" />
<glyph d="M-528 -311v62q-4 3 -8 7t-8 10q-8 11 -4.5 22t13 17t22 5.5t21.5 -12.5q10 -16 28.5 -25t41.5 -9q17 0 32.5 6t27 16t18 24.5t7.5 30.5v5q-1 16 -7.5 30.5t-18 25t-27 16.5t-32.5 6q-22 0 -40.5 -9t-28.5 -24q-7 -8 -14.5 -11t-15 -1.5t-14 5.5t-10 11t-3 14.5t5.5 14.5 q20 26 51 42t69 16q30 0 57 -11t46.5 -30t31.5 -44t12 -53v-3q0 -16 7 -30.5t18.5 -24.5t27 -16t32.5 -6q18 0 34 6t27 17t18 25.5t7 31.5q0 16 -7 31t-18 26t-27 17t-34 6q-15 0 -23 9t-8 20t8 20t23 9q31 0 57.5 -11t46.5 -30t32 -44t12 -53q0 -29 -12 -54t-32 -43.5 t-46.5 -29.5t-57.5 -11q-35 0 -65 14.5t-51 38.5q-21 -24 -51 -38.5t-65 -14.5q-22 0 -44 7v-26q0 -13 10 -22.5t24 -9.5h291q13 0 23 9.5t10 22.5q0 9 10 13.5t21.5 4.5t21.5 -4.5t10 -13.5q0 -18 -7.5 -35t-20.5 -29t-31 -19t-37 -7h-291q-20 0 -37.5 7t-30.5 19t-20.5 29 t-7.5 35z" />
<glyph horiz-adv-x="556" d="M304 -149q10 -5 10.5 -12t-4 -12.5t-12.5 -8t-17 2.5q-6 3 -12.5 4.5t-13.5 1.5q-20 0 -30 -7.5t-10 -15.5q0 -7 10 -15.5t30 -8.5q7 0 13.5 2t12.5 5q9 5 17 3t12.5 -8t4 -13.5t-10.5 -11.5l-1.5 -0.5t-3.5 -1.5q0 -1 0.5 -4.5t0.5 -7.5v-9q0 -9 0.5 -13.5t11.5 -4.5h14 q9 0 13 -5t4 -11t-4 -11t-13 -5h-14q-14 0 -23 3.5t-15 10t-8 14.5t-2 16v17q-2 0 -5 -0.5t-4 -0.5q-17 0 -31.5 4.5t-26.5 12.5t-19 19t-7 24t7 24t19 18.5t26.5 12t31.5 4.5q13 0 26 -3t23 -9zM493 -46q0 -6 -2 -11t-5 -9.5t-6.5 -7.5t-6.5 -5q-21 -15 -46.5 -24.5 t-52 -15.5t-53 -9t-51.5 -3q-32 0 -65 4.5t-65 14.5v-163q0 -9 4 -17t9.5 -14t13.5 -9.5t18 -3.5h202q9 0 17 3.5t14 9.5t9.5 14t3.5 17q0 18 -5 27t-12 12.5t-15 3t-15 -1.5q-8 -2 -15 3.5t-12.5 13.5t-8.5 18.5t-1.5 19.5t8.5 16t21 9q28 4 53 -4.5t44 -25t30.5 -40.5 t11.5 -51q0 -26 -10.5 -49t-27.5 -41t-40.5 -28t-49.5 -10h-202q-27 0 -50 10t-41 27.5t-27.5 41t-9.5 49.5v220q-3 12 1.5 24t14 19.5t22 9t26.5 -7.5q33 -21 70.5 -29.5t75.5 -8.5q16 0 34.5 2t37 5t37 8.5t33.5 13.5v31q-49 -23 -106 -23q-53 0 -100 20.5t-82.5 55.5 t-55.5 82t-20 100q0 54 20 101t55.5 82.5t82.5 56t100 20.5q32 0 60.5 -7t54.5 -19.5t48 -31t40 -40.5q9 -11 10 -22t-3.5 -20.5t-13.5 -16t-18.5 -9t-20.5 1t-20 14.5q-23 31 -58.5 48.5t-78.5 17.5q-36 0 -67.5 -14t-55 -38t-37.5 -56t-14 -68t14 -67.5t37.5 -55.5 t55 -37.5t67.5 -13.5q43 0 79.5 18.5t60.5 49.5q8 12 18.5 15.5t21 2t19 -8t13.5 -16t4 -20.5t-9 -22q-4 -6 -8 -11t-10 -10l0.5 -9t0.5 -22v-28v-28v-21.5v-8.5z" />
<glyph d="M-266 -126q-3 -6 -5.5 -16.5t0.5 -22.5q1 -7 5 -13.5t8.5 -12t8.5 -9.5t6 -4q4 7 4 17.5t-3.5 21.5t-9.5 21.5t-14 17.5zM-304 -250q-24 20 -35 44.5t-11 50t9.5 50.5t28 44t45 29.5t59.5 8.5q25 0 49 -10t42 -26.5t28.5 -39t10.5 -48.5q0 -22 -5.5 -41t-13 -37 t-16.5 -34.5t-18 -34.5q-1 -5 -3 -11t-2 -11.5t4 -9t15 -0.5q14 1 23.5 -4t14.5 -13t4.5 -17.5t-5 -18t-14.5 -14.5t-23 -7q-26 -4 -45.5 1.5t-31 17t-16 28t-1.5 35.5q5 21 14.5 41t19 41.5t17 43.5t6.5 45q0 18 -10.5 30t-25 17t-31 2.5t-28.5 -11.5q10 -8 19 -21.5 t13.5 -28.5t5 -31t-4 -30.5t-14 -25.5t-25.5 -15q-10 -1 -19 1q-8 1 -16 3t-14 7z" />
<glyph horiz-adv-x="156" d="M179 -401h-8q-26 0 -49.5 9.5t-40.5 27t-27 40.5t-10 49v1044q0 26 10 49t27 40.5t40.5 27t49.5 9.5h157q12 0 20 -6t12 -15.5t4 -20t-4.5 -19.5t-12.5 -15t-19 -6h-157q-9 0 -17 -4t-14.5 -9.5t-9.5 -13.5t-3 -17v-1044q0 -9 3 -17t9.5 -13.5t14.5 -9.5t17 -4h8 q17 0 29 -6t17.5 -15t5.5 -20t-5.5 -20t-17.5 -15t-29 -6z" />
<glyph horiz-adv-x="160" d="M319 -401h-148q-26 0 -49.5 9.5t-40.5 27t-27 40.5t-10 49v1044q0 26 10 49t27 40.5t40.5 27t49.5 9.5h825q27 0 50 -9.5t40 -27t27.5 -40.5t10.5 -49v-52q0 -13 -6.5 -22t-15.5 -14t-20 -5t-20 5t-15.5 14t-6.5 22v52q0 9 -3.5 17t-9.5 13.5t-13.5 9.5t-17.5 4h-825 q-9 0 -17 -4t-14 -9.5t-9.5 -13.5t-3.5 -17v-1044q0 -9 3.5 -17t9.5 -13.5t14 -9.5t17 -4h148q14 0 25 -6t16.5 -15t6.5 -20t-4 -20t-15.5 -15t-28.5 -6z" />
<glyph horiz-adv-x="160" d="M171 -401q-26 0 -49.5 9.5t-40.5 27t-27 40.5t-10 49v1044q0 26 10 49t27 40.5t40.5 27t49.5 9.5h538q26 0 49.5 -9.5t40.5 -27t27 -40.5t10 -49v-52q0 -13 -6 -22t-15.5 -14t-20 -5t-19.5 5t-15.5 14t-6.5 22v52q0 9 -3.5 17t-9.5 13.5t-14 9.5t-17 4h-538q-9 0 -17 -4 t-14.5 -9.5t-9.5 -13.5t-3 -17v-1044q0 -9 3 -17t9.5 -13.5t14.5 -9.5t17 -4q11 0 17.5 -6t10 -15t3 -20t-4.5 -20t-10.5 -15t-15.5 -6z" />
<glyph d="M-173 -302q-2 -6 -0.5 -11t4.5 -8t6.5 -5.5t5.5 -2.5q9 -3 15 -10.5t8 -17t-1 -20t-11 -17.5t-21.5 -10t-33.5 3q-11 4 -21.5 13t-17.5 22.5t-9 30.5t3 37q7 22 16 43t18 40.5t16 36.5t6 29q0 18 -8.5 30t-21.5 18t-28 6t-27.5 -6.5t-20.5 -19.5t-8 -32t-12 -28.5 t-26 -9.5t-25.5 9.5t-11.5 28.5q0 32 11.5 57t29.5 41t42 24.5t48.5 8.5t48 -8t42.5 -23.5t30.5 -39.5t11.5 -56q0 -18 -6 -35t-14.5 -34.5t-18.5 -37.5t-19 -46z" />
<glyph horiz-adv-x="273" d="M239 -283v-55h-147l-54 55v1076l54 54h147v-54l-55 -55h-37v-967h37z" />
<glyph horiz-adv-x="264" d="M87 -229h37v967h-37l-55 55v54h147l54 -54v-1076l-54 -55h-147v55z" />
<glyph horiz-adv-x="94" d="M77 -290l-54 -55h-55v218h-93v-163l-55 -55h-54v218h-92v-218h-55l-54 55v217l54 55h190l11 -11l11 11h192l54 -55v-217z" />
<glyph d="M-35 -290l-54 -55h-55v218h-93v-163l-55 -55h-54v218h-92v-218h-55l-54 55v217l54 55h190l11 -11l11 11h192l54 -55v-217z" />
<glyph d="M-35 -289l-49 -49h-193l-49 49v110l49 49h131l13 -15v32h-193v49l49 50h193l49 -50v-225zM-133 -240v12h-96v-12h96z" />
<glyph d="M-34 -282l-54 -55h-54v218h-94v-218h-54l-55 55v217l55 55h202l54 -55v-217z" />
<glyph horiz-adv-x="87" d="M81 -283l-56 -55h-190l-11 10l-11 -10h-191l-55 55v68l66 94h-66v109h120l55 -54v-55l-66 -108h94v217h54l55 -54v-163h92v217h54l56 -54v-217z" />
<glyph d="M-26 -283l-56 -55h-190l-11 10l-11 -10h-191l-55 55v68l66 94h-66v109h120l55 -54v-55l-66 -108h94v217h54l55 -54v-163h92v217h54l56 -54v-217z" />
<glyph d="M-25 -283l-54 -55h-202l-55 55v217l55 55h202l54 -55v-217zM-227 -216v-13h94v109h-94v-11h41l22 -21v-42l-22 -22h-41zM-227 -163v-21h30v21h-30z" />
<glyph horiz-adv-x="75" d="M-36 -240v127h-96v-127h96zM-231 -240v12h-96v-12h96zM-181 -332l-5 -6h-190l-49 49v110l49 49h131l14 -15v32h-194v49l49 50h190l5 -5l6 5h188l49 -50v-225l-49 -49h-188z" />
<glyph d="M-136 -243v127h-96v-127h96zM-331 -243v12h-96v-12h96zM-281 -335l-5 -6h-190l-49 49v110l49 49h131l14 -15v32h-194v49l49 50h190l5 -5l6 5h188l49 -50v-225l-49 -49h-188z" />
<glyph d="M-29 -175l-27 -52l-75 33h-53l-24 25v60h-18v-131h182v-49l-49 -49h-182l-49 49v229l49 49h182l49 -49v-85l-18 -17zM-142 -145v35h-17v-35h17z" />
<glyph horiz-adv-x="141" d="M-45 -283l-54 -55h-202l-55 55v217l55 55h202l54 -55v-217zM-247 -216v-13h94v109h-94v-11h41l22 -21v-42l-22 -22h-41zM-247 -163v-21h30v21h-30zM114 -294l-80 -48l-73 53v121l44 -37v729h54l55 -54v-764z" />
<glyph horiz-adv-x="374" d="M31 52l54 56h148v305h-202v55l54 54h202l55 -54v-416l-55 -53h-147v-230h93v24h109v-78l-55 -55h-202l-54 55v337z" />
<glyph horiz-adv-x="572" d="M29 52l57 57h144v305h-201v55l54 54h201l56 -54v-360h92v414h54l55 -54v-415l-55 -54h-191l-11 11l-10 -11h-136v-229h125v-53l-55 -56h-125l-54 55v335z" />
<glyph horiz-adv-x="368" d="M340 54l-56 -54h-201l-54 54v415l54 54h201l56 -54v-55h-202v-305h202v-55zM338 -338h-70l-56 55v157h-182v108h238l54 -54v-157h18z" />
<glyph d="M-277 -16h158l44 -44v-44h-161v-48h161v-44l-44 -44h-1v-30h49l-2 -70h-82l-36 35v65h-89l-43 44v127z" />
<glyph d="M-299 -138h87l38 -30v-30h-89v-23h89v-29l-38 -30h-1v-12h42l-2 -47h-70l-31 24v35h-27l-37 30v76z" />
<glyph d="M-81 -339h-52l-41 38v32h-126v55h167l40 -38v-25h14zM-60 -66v-99l-43 -41h-160l-45 41v32h161v37h-161v39l44 41h158z" />
<glyph d="M-248 -339h-51l-15 17v21h-87v37h116l27 -22l1 -20h10zM-234 -166v-66l-30 -27h-112l-31 27v22h112v24h-112v26l30 27h111z" />
<glyph d="M-467 -339v216h-92v-216h-55l-54 55v214l54 54h201l56 -54v-162h27v129l55 55h136v24h108v-79l-54 -53h-136v-129l-54 -54h-192z" />
<glyph d="M-85 -338h-201l-54 55v68l65 94h-65v109h120l54 -54v-55l-65 -108h92v217h54l56 -54v-217z" />
<glyph horiz-adv-x="132" d="M-207 -126v-109h15v109h-15zM-263 -344l-54 55v163h-92v-218h-55l-54 55v217l54 55h186l14 -15l16 15h97l16 -15l14 15h186l54 -55v-217l-54 -55h-54v218h-94v-163l-54 -55h-126z" />
<glyph d="M-352 -126v-109h15v109h-15zM-408 -344l-54 55v163h-92v-218h-55l-54 55v217l54 55h186l14 -15l16 15h97l16 -15l14 15h186l54 -55v-217l-54 -55h-54v218h-94v-163l-54 -55h-126z" />
<glyph horiz-adv-x="152" d="M35 -253l-20 37l-22 -37h42zM-241 -231v109h-93v-109h93zM-40 -122h-92v-163l-54 -55h-203l-54 55v217l54 55h191l12 -11l11 11h191l54 -55v-84l-11 -11l75 -116l-38 -61h-165l-37 60l66 100v58z" />
<glyph horiz-adv-x="79" d="M-242 -229v109h-93v-109h93zM-41 -120h-92v-163l-54 -55h-203l-54 55v217l54 55h191l12 -11l11 11h191l54 -55v-217l-54 -55h-56v218z" />
<glyph d="M-343 -229v109h-93v-109h93zM-142 -120h-92v-163l-54 -55h-203l-54 55v217l54 55h191l12 -11l11 11h191l54 -55v-217l-54 -55h-56v218z" />
<glyph horiz-adv-x="79" d="M-239 -229v109h-93v-109h93zM-38 -229v109h-92v-109h92zM-183 -323l-12 -15h-192l-54 55v217l54 55h192l11 -11l11 11h190l54 -55v-217l-54 -55h-187z" />
<glyph d="M-336 -229v109h-93v-109h93zM-135 -229v109h-92v-109h92zM-280 -323l-12 -15h-192l-54 55v217l54 55h192l11 -11l11 11h190l54 -55v-217l-54 -55h-187z" />
<glyph d="M-23 -283l-54 -55h-203l-54 55v54h168l-43 43v23l43 43h-59v-22h-109v76l54 55h203l54 -55v-54l-66 -54l66 -55v-54z" />
<glyph d="M-35 -283l-54 -55h-202l-55 55v217l55 55h202l54 -55v-217zM-150 -229h7v109h-94v-109h8v69l15 17h47l17 -17v-69zM-197 -229h14v54h-14v-54z" />
<glyph d="M-180 -240h61v22l-211 98l-1 54l55 55h212l44 -43v-51l-84 2l-77 6l161 -69v-117l-27 -27l31 -20l-61 -60l-67 52h-132l-55 55v71l27 26h96l28 -26v-28zM-276 -240h41v22h-41v-22z" />
<glyph horiz-adv-x="372" d="M213 109h19v75l-200 230l-1 55l54 54h201l56 -54v-77h-110l-1 22h-54l150 -172l15 -37v-151l-27 -25l41 -31l-60 -62l-79 64h-132l-54 54v98l26 28h130l26 -28v-43zM85 109h74v17h-74v-17z" />
<glyph d="M-16 -283l-54 -55h-202l-55 55v217l55 55h54v-218h94v218h54l54 -55v-217z" />
<glyph d="M-137 -200h-46l-28 26v136l28 27h100l56 -55v-217l-56 -55h-201l-54 55v217l54 55h55v-218h92v29zM-137 -66h-20v-80h20v80z" />
<glyph d="M-139 -229v109h-7v-48l-16 -17h-46l-17 17v48h-6v-109h92zM-139 -11h54l55 -55v-217l-55 -55h-201l-54 55v217l54 55h55l38 -39v-101h15v101z" />
<glyph horiz-adv-x="81" d="M-127 -120v-163l-54 -55h-201l-55 55v54h201v109h-201v54l55 55h191l10 -11l11 11h191l54 -55v-217l-54 -55h-54v218h-94z" />
<glyph d="M-221 -120v-163l-54 -55h-201l-55 55v54h201v109h-201v54l55 55h191l10 -11l11 11h191l54 -55v-217l-54 -55h-54v218h-94z" />
<glyph d="M-186 -229h14v75h-14v-75zM-78 -11l54 -55v-217l-54 -55h-202l-55 55v217l55 55h54v-218h8v91l15 17h47l17 -17v-91h7v218h54z" />
<glyph horiz-adv-x="84" d="M77 -283l-54 -55h-192l-11 11l-11 -11h-190l-54 55v217l54 55h55v-218h92v218h54l55 -55v-163h93v218h55l54 -55v-217z" />
<glyph d="M-21 -283l-54 -55h-192l-11 11l-11 -11h-190l-54 55v217l54 55h55v-218h92v218h54l55 -55v-163h93v218h55l54 -55v-217z" />
<glyph horiz-adv-x="370" d="M341 -218h-56l-54 55v577h-92v-148h46l26 -27v-211l-26 -28h-101l-54 54v415l54 54h201l56 -54v-687zM157 54v157h-18v-157h18z" />
<glyph horiz-adv-x="74" d="M-239 -120h-93v-218h-55l-54 55v217l54 55h203l54 -55v-163h92v218h55l54 -55v-217l-54 -55h-201l-55 55v163z" />
<glyph d="M-341 -120h-93v-218h-55l-54 55v217l54 55h203l54 -55v-163h92v218h55l54 -55v-217l-54 -55h-201l-55 55v163z" />
<glyph horiz-adv-x="74" d="M-41 -231v213h54l54 -54v-212l-54 -55h-189l-11 11l-11 -11h-190l-55 55v53h201v106h-201v53l55 54h201l54 -54v-159h92z" />
<glyph d="M-140 -231v213h54l54 -54v-212l-54 -55h-189l-11 11l-11 -11h-190l-55 55v53h201v106h-201v53l55 54h201l54 -54v-159h92z" />
<glyph horiz-adv-x="81" d="M-226 -73l55 55h201l54 -55v-217l-54 -56h-55v219h-92v-163l-54 -56h-203l-54 56v217l54 55h55v-218h93v163z" />
<glyph d="M-341 -73l55 55h201l54 -55v-217l-54 -56h-55v219h-92v-163l-54 -56h-203l-54 56v217l54 55h55v-218h93v163z" />
<glyph horiz-adv-x="75" d="M-40 -122h-85l-64 -52l66 -55v-54l-54 -55h-203l-54 55v54h168l-43 43v23l43 43h-59v-22h-109v76l54 55h203l17 -17l14 15h160l56 -55v-217l-56 -55h-74l-28 27v107l28 26h20v58zM-40 -234h-13v-51h13v51z" />
<glyph d="M-136 -122h-85l-64 -52l66 -55v-54l-54 -55h-203l-54 55v54h168l-43 43v23l43 43h-59v-22h-109v76l54 55h203l17 -17l14 15h160l56 -55v-217l-56 -55h-74l-28 27v107l28 26h20v58zM-136 -234h-13v-51h13v51z" />
<glyph horiz-adv-x="147" d="M126 0h-55l-54 54v684h-47l8 109h93l55 -54v-793z" />
<glyph horiz-adv-x="36" d="M-17 578l-54 -55h-200l-56 55v215l56 54h200l54 -54v-215zM-125 633v105h-93v-105h93z" />
<glyph d="M-8 -339h-87l-54 55v283h109v-229h32v-109z" />
<glyph horiz-adv-x="174" d="M168 -338h-87l-54 55v805h109v-751h32v-109z" />
<glyph horiz-adv-x="299" d="M299 -338h-88l-54 55v806h109v-752h33v-109zM139 -338h-109v861h109v-861z" />
<glyph horiz-adv-x="140" d="M130 -222l-27 -26h-86l-26 26v134l26 27h86l27 -27v-134zM77 -197v83h-35v-83h35z" />
<glyph horiz-adv-x="138" d="M130 -222l-27 -26h-86l-26 26v134l26 27h86l27 -27v-134zM77 -197v83h-35v-83h35z" />
<glyph horiz-adv-x="217" d="M164 -222l-27 -26h-86l-26 26v134l26 27h86l27 -27v-134zM111 -197v83h-35v-83h35z" />
<glyph horiz-adv-x="150" d="M123 -294l-80 -48l-118 59l4 115l85 -37v729h54l55 -54v-764z" />
<glyph horiz-adv-x="155" d="M357 -284l-54 -55h-218l-54 55v1077l54 54h95v-109h-40v-968h108v251h109v-305z" />
<glyph horiz-adv-x="118" d="M509 -284l-55 -55h-370l-54 55v1076l54 54l258 1v-110h-203v-967h261v251h109v-305z" />
<glyph horiz-adv-x="143" d="M350 -283l-55 -55h-211l-54 55v1076l54 54h363l55 -54v-91h-109v36h-254v-967h102v229h109v-283z" />
<glyph horiz-adv-x="118" d="M511 -284l-55 -55h-372l-54 55v1076l54 54h547l55 -54v-91h-109v36h-438v-967h263v251h109v-305z" />
<glyph horiz-adv-x="143" d="M222 -338h-138l-54 55v1076l54 54h363l55 -54v-91h-109v36h-254v-967h88z" />
<glyph horiz-adv-x="119" d="M342 -339h-258l-54 55v1076l54 54h547l55 -54v-91h-109v36h-438v-967h208z" />
<glyph horiz-adv-x="143" d="M517 -284l-55 -55h-378l-54 55v1076l54 54h268l7 -109h-220v-967h269v251h109v-305z" />
<glyph horiz-adv-x="133" d="M686 -284l-55 -55h-547l-54 55v1076l54 54h268l7 -109h-220v-967h438v251h109v-305z" />
<glyph horiz-adv-x="165" d="M686 -284l-55 -55h-547l-54 55v1076l54 54h547l55 -54v-91h-109v36h-438v-967h438v251h109v-305z" />
<glyph d="M-149 -228l-28 66l-29 -66h57zM-310 -198h-54v97h96l42 101h101l107 -262l-51 -76h-218l-51 75z" />
<glyph d="M-27 -261l-51 -77h-218l-50 76l111 262h101zM-158 -228l-27 66l-29 -66h56z" />
<glyph d="M-27 -338h-88l-55 55v290h109v-236h34v-109zM-192 -282l-54 -55h-87v109h32v236h109v-290z" />
<glyph d="M-252 -285l-53 -54h-86v107h32v232h107v-285z" />
<glyph d="M-154 -186l-54 -55h-88v109h32v116h110v-170z" />
<glyph horiz-adv-x="273" d="M165 624l-23 -22h-66l-22 22v115l62 106l22 -13l-40 -70h40l27 -26v-112z" />
<glyph horiz-adv-x="268" d="M123 822l23 22h66l22 -22v-115l-62 -106l-22 13l40 70h-40l-27 26v112z" />
<glyph horiz-adv-x="470" d="M165 624l-23 -22h-66l-22 22v115l62 106l22 -13l-40 -70h40l27 -26v-112zM333 624l-23 -22h-66l-22 22v115l62 106l22 -13l-40 -70h40l27 -26v-112z" />
<glyph horiz-adv-x="431" d="M271 826l23 22h66l22 -22v-115l-62 -106l-22 13l40 70h-40l-27 26v112zM103 826l23 22h66l22 -22v-115l-62 -106l-22 13l40 70h-40l-27 26v112z" />
<glyph horiz-adv-x="560" d="M132 455q0 20 19 29q6 4 15 4q18 0 27 -19q4 -6 4 -14q0 -20 -19 -28q-5 -4 -12 -4q-21 0 -30 19q-4 6 -4 13zM49 373q0 19 18 27q7 4 15 4q19 0 29 -18q2 -6 2 -13q0 -21 -19 -29q-5 -4 -12 -4q-21 0 -29 18q-4 7 -4 15zM19 259q0 20 18 29q7 3 13 3q21 0 29 -17 q4 -8 4 -15q0 -20 -18 -29q-7 -2 -15 -2q-19 0 -28 17q-3 7 -3 14zM49 147q0 19 18 28q7 2 15 2q19 0 29 -18q2 -6 2 -12q0 -21 -19 -30q-5 -4 -12 -4q-21 0 -29 18q-4 8 -4 16zM132 63q0 20 19 29q6 2 15 2q18 0 27 -18q4 -6 4 -13q0 -21 -19 -29q-5 -3 -12 -3 q-21 0 -30 18q-4 7 -4 14zM247 32q0 21 18 29q7 4 14 4q20 0 29 -18q2 -8 2 -15q0 -19 -18 -28q-6 -4 -13 -4q-20 0 -30 19q-2 6 -2 13zM361 63q0 20 18 29q6 2 14 2q20 0 29 -18q3 -6 3 -13q0 -21 -18 -29q-7 -3 -14 -3q-20 0 -29 18q-3 7 -3 14zM444 147q0 19 19 28 q6 2 13 2q21 0 29 -18q3 -6 3 -12q0 -21 -18 -30q-6 -4 -14 -4q-20 0 -28 18q-4 8 -4 16zM474 259q0 20 18 29q7 3 15 3q19 0 28 -17q4 -8 4 -15q0 -20 -18 -29q-7 -2 -14 -2q-20 0 -29 17q-4 7 -4 14zM444 373q0 19 19 27q6 4 13 4q21 0 29 -18q3 -6 3 -13q0 -21 -18 -29 q-6 -4 -14 -4q-20 0 -28 18q-4 7 -4 15zM361 455q0 20 18 29q6 4 14 4q20 0 29 -19q3 -6 3 -14q0 -20 -18 -28q-7 -4 -14 -4q-20 0 -29 19q-3 6 -3 13zM247 486q0 21 18 29q7 2 14 2q20 0 29 -18q2 -6 2 -13q0 -21 -18 -29q-6 -3 -13 -3q-20 0 -30 18q-2 7 -2 14z" />
<glyph horiz-adv-x="255" d="M-53 -24l289 918h72l-286 -918h-75z" />
<glyph d="M-88 -184q0 -69 -48 -117q-24 -24 -54 -36t-64 -12q-69 0 -118 48q-48 49 -48 117q0 69 48 119t118 50q65 0 115 -50q26 -25 38.5 -54.5t12.5 -64.5zM-149 -184q0 23 -8 42.5t-22 33.5t-33 23t-42 9q-21 0 -40.5 -8.5t-34 -23t-23 -33.5t-8.5 -43q0 -21 8 -40.5t22 -33.5 t33.5 -22.5t42.5 -8.5q22 0 41 8t33 22t22.5 33.5t8.5 41.5z" />
<glyph d="M-355 -132q0 27 11.5 51.5t30.5 42.5t44.5 28.5t55.5 10.5q28 0 54 -10.5t44.5 -28.5t29.5 -42.5t11 -51.5t-11 -52t-29.5 -42.5t-44.5 -28t-54 -10.5q-30 0 -55.5 10.5t-44.5 28t-30.5 42.5t-11.5 52zM-296 -132q0 -17 6.5 -30.5t17.5 -24t26 -16.5t33 -6q16 0 31 6 t25.5 16.5t17.5 24t7 30.5q0 16 -7 30.5t-17.5 24.5t-25.5 16.5t-31 6.5q-18 0 -33 -6.5t-26 -16.5t-17.5 -24.5t-6.5 -30.5zM-213 -80q20 0 35 -15.5t15 -36.5q0 -22 -15 -37t-35 -15q-23 0 -38 15t-15 37q0 21 15 36.5t38 15.5zM-213 -111q-11 0 -17 -6t-6 -15t6 -15 t17 -6q8 0 14 6t6 15t-6 15t-14 6z" />
<glyph d="M-260 558q0 -32 -29 -32q-11 0 -22 9l-216 149q-5 5 -8 12t-5 15q0 7 2.5 14t9.5 13q4 4 10.5 6.5t13.5 4.5q7 0 14.5 -3.5t16.5 -10.5l206 -159zM54 675q0 -35 -12.5 -64.5t-36.5 -53.5q-48 -49 -118 -49t-117 49q-49 49 -49 118q0 67 49 118q47 50 117 50q64 0 116 -50 q51 -50 51 -118zM-7 675q0 22 -8 41.5t-22 34t-33.5 23t-42.5 8.5q-21 0 -40.5 -8t-34 -22.5t-23 -34.5t-8.5 -42t8 -41t22 -33.5t33.5 -22.5t42.5 -8q22 0 41.5 7.5t34 22t22.5 33.5t8 42z" />
<glyph d="M7 -341h-85l-55 55v286h108v-233h32v-108zM-150 -341h-108v341h108v-341z" />
</font>
</defs>
</svg>
