<?xml version="1.0" standalone="no"?>
<!DOCTYPE svg PUBLIC "-//W3C//DTD SVG 1.1//EN" "http://www.w3.org/Graphics/SVG/1.1/DTD/svg11.dtd" >
<svg xmlns="http://www.w3.org/2000/svg">
<metadata></metadata>
<defs>
<font id="ayar_thadingyutcondensed_bold" horiz-adv-x="0" >
<font-face units-per-em="2048" ascent="1638" descent="-410" />
<missing-glyph horiz-adv-x="512" />
<glyph unicode="&#x100a;&#x1039;&#x100a;" horiz-adv-x="784" d="M45 8l-29 373q0 -43 67 -85t114 -42q24 0 55 25l24 59v489q0 86 -79 86q-25 0 -45.5 -10t-29.5 -15t-42 -28q-60 -41 -64 -98l29 379l76 28l63 11q52 0 86 -4q27 -5 82 -11q39 -12 98.5 -64t67.5 -91q19 -52 19 -142v-524q0 -92 92 -92q86 0 100 92v481q0 72 -98 90 q-33 0 -62 -20l62 285q155 0 265 -108.5t110 -270.5v-449q0 -159 -105.5 -267t-269.5 -110q-137 -2 -219 74l-47 -24l-46 -9v-387q0 -30 36 -73t67 -43l-186 -254q-39 0 -73 19.5t-71 66.5q-47 53 -47 166v497zM819 -387q0 -11 8 -19t21 -8h10q11 0 20 8t9 19v194 q0 11 -9 20t-20 9h-10h-1q-1 0 -1 -2q2 12 5 37.5t9 60.5q28 -2 49.5 -10t42.5 -28q23 -25 32 -47.5t9 -51.5v-168q0 -29 -9 -53.5t-32 -44.5q-21 -19 -44.5 -30t-55.5 -13q-25 0 -45.5 7.5t-40.5 21.5q-17 -11 -34.5 -18t-39.5 -9v-141h193v43h106v-62q0 -17 -7 -33 t-19 -28t-28 -19.5t-34 -7.5h-221q-17 0 -33.5 6t-29.5 17t-21 27t-8 36v195q-9 9 -13 20.5t-4 22.5v59q4 -3 8.5 -7t10.5 -7q15 -9 35.5 -16t46.5 -7h6q11 0 23 9.5t12 23.5v184q0 14 -9 23.5t-24 9.5h-6q-35 0 -58 -7.5t-38 -18.5l-3.5 -3.5l-3.5 -3.5v56q0 31 22 52 t54 21h31q26 0 51.5 -6t48.5 -26q15 -15 23 -30t11.5 -28.5t4 -25.5t0.5 -21v-182z" />
<glyph unicode="&#x1039;&#x100c;" d="M-289 -500q0 -78 -41 -164q-32 -49 -127 -100l-90 201q51 14 51 76v151q0 66 -75 66q-29 -4 -44.5 -19.5t-21.5 -46.5v-151q0 -52 51 -76l-98 -201l-35 19q-14 0 -16 2t-21 18h-628q-64 0 -94.5 33t-30.5 114l-9 347q0 74 37 123t119 49h143l35 -184h-77q-33 0 -27 -48 v-186q0 -29 8 -38.5t45 -8.5h383v199q0 119 82 199.5t199 82.5q114 7 198 -80.5t84 -201.5v-175z" />
<glyph unicode="&#x100b;&#x1039;&#x100c;" horiz-adv-x="806" d="M518 1184q42 0 79.5 -16t65.5 -43.5t44 -64.5t16 -79v-141q-5 5 -11 9t-10 13q-37 25 -96.5 42.5t-148.5 17.5h-25q-38 0 -61 -25.5t-23 -69.5v-499q0 -18 8 -33t20.5 -26t29 -17t34.5 -6h21q69 0 122 15.5t95 41.5q12 8 24.5 18t20.5 19v-156q0 -43 -16 -80t-44 -64.5 t-65.5 -43.5t-79.5 -16q-22 -1 -39 -2q-15 -1 -27 -1h-14q-164 4 -268 111q-57 53 -85 120.5t-28 145.5v449q0 30 1 63.5t11.5 70.5t33.5 76t67 81q27 27 59.5 45t67 28t70.5 14t71 3h80zM416 -467v201h-215q-26 0 -42 6t-25.5 15t-13 19.5t-3.5 20.5v182q9 -15 29.5 -27.5 t54.5 -12.5h426q32 0 53.5 -18t21.5 -58v-371q0 -51 -14.5 -95.5t-40 -77.5t-60 -52t-75.5 -19h-297q-13 0 -30 4.5t-32 12t-25.5 18.5t-10.5 23v270q20 -14 46.5 -27.5t51.5 -13.5h201z" />
<glyph unicode="&#x100d;&#x1039;&#x100e;" horiz-adv-x="829" d="M651 46l-3 -571q22 5 40 11q16 5 32 11t25 13v-221q0 -11 -8.5 -19.5t-20.5 -14.5t-25.5 -9.5t-23.5 -3.5h-97q-58 6 -92.5 50.5t-34.5 113.5l-15 568q-55 0 -93.5 8t-67.5 21.5t-52 32.5t-46 42q-107 111 -107 265v185q0 36 8 73.5t19.5 75.5t25 78t25.5 81 q4 13 -3.5 21.5t-21.5 16.5q-22 0 -53 -49v242q24 31 50 57q23 21 50.5 39t56.5 19q32 0 56.5 -11t44.5 -30t36 -44.5t30 -54.5q6 -13 11.5 -37t8.5 -50t3.5 -49t-2.5 -33l-3 -13.5t-7.5 -34.5t-10 -48t-11.5 -52t-11 -47t-8 -33q-4 -25 -6 -43.5t-2 -32.5v-256 q0 -52 33 -72v42q-12 12 -12 29v34q4 -6 10 -10q8 -5 19.5 -8t25.5 -3h4q8 0 14 5t6 12v204q0 9 -5 14.5t-13 5.5h-4q-20 0 -32 -3.5t-19 -9.5q-2 -1 -3 -2t-3 -2v30q0 18 12.5 30t29.5 12h17q15 0 30.5 -3.5t26.5 -14.5q17 -18 19.5 -33.5t2.5 -26.5v-195q0 -33 -22 -56 q-3 -4 -7.5 -7t-8.5 -5l-1 -48q32 6 44 27.5t12 53.5v512q0 68 -73 82l45 262q34 -6 71 -17.5t72.5 -31t66 -48t51.5 -68.5q14 -26 20 -51.5t8 -50t1.5 -48.5t-0.5 -48v-511q0 -22 -8.5 -54t-26 -67t-42.5 -69t-58 -59z" />
<glyph unicode="&#x1009;&#x1039;&#x1005;" horiz-adv-x="771" d="M342 1180q35 0 71.5 -4t72 -14t67.5 -27t59 -43q42 -43 63.5 -83t31.5 -77t11 -70t1 -61v-449q0 -157 -107 -270q-24 -22 -50.5 -41.5t-58.5 -34t-70 -23t-83 -8.5v-454l62 2l-64 -285q-48 0 -94.5 16.5t-84 46.5t-60.5 71.5t-23 92.5v603q-17 24 -24 53t-7 55v162 q6 -9 18.5 -20.5t26.5 -20.5q42 -25 95 -40t124 -15h19q17 0 33.5 6t30 17t22 26t8.5 33v501q0 44 -24.5 67t-59.5 23h-26q-91 0 -150 -17t-94 -46q-5 -3 -11.5 -7.5t-11.5 -10.5v143q0 43 16 80t43.5 64.5t65.5 43t82 15.5q20 -1 37 -1h27t16 1zM739 -293q0 -80 -54 -139.5 t-136 -59.5q-76 -2 -131 62l-15 14l-20 29l-18 43q0 16 14 43l12 6l25 16l41 9l-41 14q-51 6 -51 72q16 69 68 111t116 42q82 2 136 -56t54 -146v-60zM598 -295v49q0 49 -49 53q-25 0 -43 -30l90 -47l-90 -43q8 -23 43 -31q49 0 49 49z" />
<glyph unicode="&#x1009;&#x1039;&#x1007;" horiz-adv-x="788" d="M342 1180q35 0 71.5 -4t72 -14t67.5 -27t59 -43q42 -43 63.5 -83t31.5 -77t11 -70t1 -61v-449q0 -157 -107 -270q-24 -22 -50.5 -41.5t-58.5 -34t-70 -23t-83 -8.5v-454l62 2l-64 -285q-48 0 -94.5 16.5t-84 46.5t-60.5 71.5t-23 92.5v603q-17 24 -24 53t-7 55v162 q6 -9 18.5 -20.5t26.5 -20.5q42 -25 95 -40t124 -15h19q17 0 33.5 6t30 17t22 26t8.5 33v501q0 44 -24.5 67t-59.5 23h-26q-91 0 -150 -17t-94 -46q-5 -3 -11.5 -7.5t-11.5 -10.5v143q0 43 16 80t43.5 64.5t65.5 43t82 15.5q20 -1 37 -1h27t16 1zM713 -326q-47 39 -178 105 q12 6 45 18l16 6q0 54 -47 56q-43 0 -51 -56v-73q0 -60 51 -60q31 0 31 49l41 -18l84 -51q-17 -49 -60 -78q-24 -21 -45.5 -29t-50.5 -8q-70 -2 -133 59q-51 62 -51 140v63q0 78 51 144q28 20 57 41q41 14 76 14q72 0 127 -55q47 -54 51 -144q-6 -28 -57 -43l20 -4h15z" />
<glyph unicode="&#x102b;&#x103a;" horiz-adv-x="502" d="M-336 1385v164q0 91 29.5 159.5t78 114.5t110.5 69t126 23q57 -1 111 -20t99 -58q32 23 76.5 37t106.5 14h187l46 -235h-180q-17 0 -38 -6.5t-39 -19t-30 -32t-12 -46.5v-1577h-235v1577q0 35 -8.5 60t-22 41.5t-31.5 24t-36 7.5q-19 -1 -37.5 -10t-32.5 -26t-23 -41.5 t-9 -55.5v-229z" />
<glyph unicode="&#x102d;&#x1036;" d="M-621 1661v-197q0 -21 17 -36t37 -15h41q20 0 35.5 15t15.5 36v197q0 22 -15.5 34.5t-35.5 12.5h-41q-20 0 -37 -12.5t-17 -34.5zM-268 1473q0 -60 -21.5 -111t-59.5 -88.5t-89.5 -59t-112.5 -22.5q-57 -3 -105.5 19.5t-88.5 64.5q-44 43 -67.5 91.5t-23.5 105.5v165 q0 58 23 108.5t62 88t90.5 59.5t109.5 23q122 3 201 -82q40 -40 61 -90.5t21 -106.5v-165zM-95 1474v-86q0 -14 12 -24t28 -10q15 1 26.5 10.5t11.5 23.5v86q0 15 -11.5 25.5t-26.5 11.5q-16 0 -28 -11t-12 -26zM-213 1500q0 30 11.5 57t31.5 47t47 31.5t57 11.5h20 q30 0 56.5 -11.5t46.5 -31.5t31.5 -47t11.5 -57v-128q0 -30 -11.5 -56.5t-31.5 -46.5t-46.5 -31.5t-56.5 -11.5h-20q-30 0 -57 11.5t-47 31.5t-31.5 46.5t-11.5 56.5v128zM-95 1474v-86q0 -14 12 -24t28 -10q15 1 26.5 10.5t11.5 23.5v86q0 15 -11.5 25.5t-26.5 11.5 q-16 0 -28 -11t-12 -26zM-213 1500q0 30 11.5 57t31.5 47t47 31.5t57 11.5h20q30 0 56.5 -11.5t46.5 -31.5t31.5 -47t11.5 -57v-128q0 -30 -11.5 -56.5t-31.5 -46.5t-46.5 -31.5t-56.5 -11.5h-20q-30 0 -57 11.5t-47 31.5t-31.5 46.5t-11.5 56.5v128z" />
<glyph unicode="&#x1004;&#x103a;&#x1039;&#x102d;" d="M-793 1664q-3 -10 7 -19t28 -17t43 -15t52 -13v-46q-26 -7 -49 -15t-40.5 -17t-28.5 -19t-12 -21q0 -22 14.5 -42.5t37.5 -20.5h30q8 0 19.5 2.5t22.5 6.5q13 4 27 10l-39 -216h-51q-28 -1 -53.5 0t-48.5 6t-44 16.5t-40 31.5q-21 20 -36 38t-25 37t-14.5 40t-4.5 47 q1 14 9.5 34.5t25 41t40 38.5t55.5 27q-30 0 -53 10t-39 25.5t-25.5 34.5t-12.5 36q0 56 13.5 98t45 70.5t82.5 43t125 14.5q28 0 56 -9.5t52 -25t42 -35t25 -38.5l-2 -158q-20 19 -42.5 34.5t-43.5 27t-38.5 18t-27.5 6.5h-30q-11 0 -20.5 -6.5t-16.5 -16.5t-11 -22t-4 -22 zM-332 1661v-197q0 -21 16.5 -36t39.5 -15h32q20 0 37 15t17 36v197q0 22 -17 34.5t-37 12.5h-32q-23 0 -39.5 -12.5t-16.5 -34.5zM18 1473q0 -60 -21.5 -111t-59.5 -88.5t-90.5 -59t-114.5 -22.5q-57 -3 -104.5 19.5t-90.5 64.5q-43 43 -64.5 91.5t-21.5 105.5v165 q0 58 23 108.5t61.5 88t89.5 59.5t107 23q118 3 207 -82q40 -40 59.5 -90.5t19.5 -106.5v-165z" />
<glyph unicode="&#x1004;&#x103a;&#x1039;&#x102e;" horiz-adv-x="72" d="M18 1475q0 -60 -21.5 -111t-59.5 -88.5t-90.5 -59t-114.5 -22.5q-57 -2 -104.5 20t-90.5 64q-86 86 -86 197v165q0 58 23 108.5t61.5 88t89.5 59.5t107 23q118 3 207 -82q40 -40 59.5 -90t19.5 -107v-165zM-188 1481q-8 27 -29.5 40t-44.5 12t-43 -15t-25 -41v-9 q0 -21 15.5 -37t38.5 -16h32q22 0 39 16t17 37v13zM-330 1587q14 16 33 23.5t35 7.5q23 0 39 -7.5t35 -23.5v74q0 23 -17 37t-39 14h-32q-23 0 -38.5 -14t-15.5 -37v-74zM-793 1664q-3 -10 7 -19t28 -17t43 -15t52 -13v-46q-26 -7 -49 -15t-40.5 -17t-28.5 -19t-12 -21 q0 -22 14.5 -42.5t37.5 -20.5h30q8 0 19.5 2.5t22.5 6.5q13 4 27 10l-39 -216h-51q-28 -1 -53.5 0t-48.5 6t-44 16.5t-40 31.5q-21 20 -36 38t-25 37t-14.5 40t-4.5 47q1 14 9.5 34.5t25 41t40 38.5t55.5 27q-30 0 -53 10t-39 25.5t-25.5 34.5t-12.5 36q0 56 13.5 98 t45 70.5t82.5 43t125 14.5q28 0 56 -9.5t52 -25t42 -35t25 -38.5l-2 -158q-20 19 -42.5 34.5t-43.5 27t-38.5 18t-27.5 6.5h-30q-11 0 -20.5 -6.5t-16.5 -16.5t-11 -22t-4 -22z" />
<glyph unicode="&#x1004;&#x103a;&#x1039;&#x1036;" d="M-225 1521v-86q0 -14 12 -24t28 -10q15 1 26.5 10.5t11.5 23.5v86q0 15 -11.5 25.5t-26.5 11.5q-16 0 -28 -11t-12 -26zM-343 1547q0 30 11.5 57t31.5 47t47 31.5t57 11.5h20q30 0 56.5 -11.5t46.5 -31.5t31.5 -47t11.5 -57v-128q0 -30 -11.5 -56.5t-31.5 -46.5 t-46.5 -31.5t-56.5 -11.5h-20q-30 0 -57 11.5t-47 31.5t-31.5 46.5t-11.5 56.5v128zM-225 1521v-86q0 -14 12 -24t28 -10q15 1 26.5 10.5t11.5 23.5v86q0 15 -11.5 25.5t-26.5 11.5q-16 0 -28 -11t-12 -26zM-343 1547q0 30 11.5 57t31.5 47t47 31.5t57 11.5h20 q30 0 56.5 -11.5t46.5 -31.5t31.5 -47t11.5 -57v-128q0 -30 -11.5 -56.5t-31.5 -46.5t-46.5 -31.5t-56.5 -11.5h-20q-30 0 -57 11.5t-47 31.5t-31.5 46.5t-11.5 56.5v128zM-589 1664q-3 -10 7 -19t28 -17t43 -15t52 -13v-46q-26 -7 -49 -15t-40.5 -17t-28.5 -19t-12 -21 q0 -22 14.5 -42.5t37.5 -20.5h30q8 0 19.5 2.5t22.5 6.5q13 4 27 10l-39 -216h-51q-28 -1 -53.5 0t-48.5 6t-44 16.5t-40 31.5q-21 20 -36 38t-25 37t-14.5 40t-4.5 47q1 14 9.5 34.5t25 41t40 38.5t55.5 27q-30 0 -53 10t-39 25.5t-25.5 34.5t-12.5 36q0 56 13.5 98 t45 70.5t82.5 43t125 14.5q28 0 56 -9.5t52 -25t42 -35t25 -38.5l-2 -158q-20 19 -42.5 34.5t-43.5 27t-38.5 18t-27.5 6.5h-30q-11 0 -20.5 -6.5t-16.5 -16.5t-11 -22t-4 -22z" />
<glyph unicode="&#x1004;&#x103a;&#x1039;" d="M-434 1657q-1 -11 10 -20t29.5 -17t43 -15.5t51.5 -13.5v-48q-26 -7 -49.5 -15t-42 -17.5t-30 -20t-12.5 -21.5q-2 -21 2 -33.5t11.5 -19.5t18 -9.5t20.5 -2.5h36q8 0 27.5 2t40.5 5q25 3 53 7l-27 -217h-116q-59 -3 -110 10t-87.5 39.5t-56.5 64.5t-17 85q-2 27 6.5 53 t25.5 48.5t42.5 40t58.5 27.5q-31 0 -56.5 11.5t-43.5 32t-27.5 49.5t-9.5 64q-2 46 13.5 82.5t49 61t86.5 35.5t126 6q34 0 60.5 -9.5t49 -24.5t41.5 -34t39 -40l4 -232q-21 19 -47 46t-50.5 51t-45 41t-29.5 17h-36q-10 0 -20.5 -4.5t-18.5 -13.5t-12 -22t-1 -29z" />
<glyph unicode="&#x103e;&#x1030;" d="M-567 -520q0 -115 -31 -164q-41 -53 -147 -57l-97 311q27 0 43 16q25 15 25 72v317h207v-495zM-274 -743h-236v718h236v-718zM-219 -25h215v-317q0 -64 65 -86q-4 -21 -10 -53q0 -15 -31 -109l-53 -151q-186 0 -186 221v495z" />
<glyph unicode="&#x103b;&#x103e;" horiz-adv-x="374" d="M334 -537q0 -73 -33 -139q-39 -82 -113 -82q-18 0 -63 17l-199 100q-35 -100 -164 -100h-182l-96 276h80q74 0 104 25l17 34l8 52v301h250l2 -301l110 -43v1583h279v-1723z" />
<glyph unicode="&#x103d;&#x103e;" d="M-359 -438l-51 188l-45 -188l14 -43l31 -11q43 0 51 13v41zM-605 -729q-27 -29 -70 -29q-32 0 -63 19l-98 290l55 -22l78 -23q28 0 37 25l34 63l175 363h106l207 -449v-114l-8 -56l-27 -47q-37 -43 -94 -43h-246q-55 0 -86 23z" />
<glyph unicode="&#x100a;&#x1039;&#x1009;" horiz-adv-x="1693" d="M735 322v-5q0 -27 20 -47t48 -20h41q25 0 45 20t20 47v533q0 31 -20 52.5t-45 21.5h-41h-4q3 32 15 99.5t34 164.5q139 -3 239 -111q59 -52 86 -117.5t27 -146.5v-455q0 -15 -2 -28.5t-4 -32.5q6 -22 24.5 -35.5t43.5 -13.5h38q29 0 48.5 20t19.5 49v531q0 29 -19.5 51.5 t-48.5 22.5h-38h-9q7 32 19 99.5t31 164.5q69 -2 129.5 -29.5t109.5 -81.5q117 -107 117 -268v-451q0 -78 -28.5 -145.5t-84.5 -118.5q-52 -54 -118 -82t-150 -30q-63 -2 -121 17.5t-110 57.5q-45 -35 -102.5 -53t-123.5 -20q-65 -2 -120.5 17.5t-106.5 57.5 q-43 -31 -93 -49t-106 -24v-453l936 2v115h287v-164q0 -48 -19.5 -91.5t-52.5 -76t-77 -51.5t-93 -19h-1014q-45 0 -90.5 16.5t-82.5 46.5t-60 72.5t-23 94.5v600q-30 45 -30 114v158q8 -12 19 -21t24 -22q40 -25 95 -41t124 -16h18q18 0 35 6t30.5 17t21.5 26t8 33v499 q0 44 -24.5 69.5t-61.5 25.5h-19q-94 0 -155.5 -16.5t-96.5 -41.5q-6 -5 -10.5 -12t-7.5 -12v141q0 43 16 80.5t43.5 65t63.5 43.5t77 16h82q73 3 144 -16.5t127 -73.5q42 -42 64 -82t32 -76t11 -68t1 -59v-242v-90t-0.5 -78.5t-1 -56.5t-0.5 -24z" />
<glyph unicode="&#x1009;&#x1039;&#x1006;" horiz-adv-x="1230" d="M325 1180q35 0 71.5 -4t71 -14t66.5 -27.5t58 -43.5q41 -40 63 -77.5t32.5 -72t12.5 -66t2 -59.5v-4v-11v-449q0 -78 -26.5 -146t-83.5 -123q-45 -45 -104 -73t-130 -35v-454h514v46l285 -4v-89q0 -48 -18.5 -90.5t-50.5 -75t-75 -51.5t-92 -19h-592q-48 0 -94 16.5 t-82.5 46.5t-59 71.5t-22.5 92.5v603q-15 24 -23 53t-8 55v162q8 -9 19 -20.5t22 -20.5q44 -25 96.5 -40t121.5 -15h24q18 0 34.5 6t29 17t20.5 26t8 33v501q0 44 -24.5 67t-61.5 23h-20q-91 0 -152.5 -17t-95.5 -46q-6 -3 -11 -7.5t-10 -10.5v143q0 43 16 80t44 64.5t65 43 t78 15.5q9 -1 20 -1h39h15.5t7.5 1zM703 -187v-110q0 -12 9.5 -21.5t23.5 -9.5h20q13 0 21.5 9.5t8.5 21.5v110q0 12 -8.5 21t-21.5 9h-20q-14 0 -23.5 -9t-9.5 -21zM448 -347q11 -8 24 -10.5t26 -4.5q-6 17 -11.5 32.5t-14.5 15.5q-4 0 -11 -6q-6 -6 -8.5 -13t-4.5 -14z M544 -39q25 0 52 -4.5t53 -24.5q19 13 42.5 21t49.5 8q69 0 118 -46q23 -23 37 -52.5t14 -63.5v-92q0 -36 -13 -65.5t-35.5 -51t-53.5 -33.5t-67 -13h-5q-50 0 -95 34q-22 -18 -45.5 -25t-51.5 -7h-74q-30 0 -51.5 20t-21.5 49v57q0 1 0.5 1.5t0.5 1.5q2 22 7.5 41t26.5 30 q7 5 19 5q17 0 37 -10.5t37 -26t29.5 -33t14.5 -31.5q8 5 8 16v27v106v43q0 13 -8.5 20.5t-20.5 7.5h-55q-32 0 -54 -5t-34 -17l-8 -5v49q0 30 21.5 49.5t51.5 19.5h74z" />
<glyph unicode="&#x1009;&#x1039;&#x1008;" horiz-adv-x="1233" d="M325 1180q35 0 71.5 -4t71 -14t66.5 -27.5t58 -43.5q41 -40 63 -77.5t32.5 -72t12.5 -66t2 -59.5v-4v-11v-449q0 -78 -26.5 -146t-83.5 -123q-45 -45 -104 -73t-130 -35v-454h74l-21 -283h-82q-48 0 -94 16.5t-82.5 46.5t-59 71.5t-22.5 92.5v603q-15 24 -23 53t-8 55 v162q8 -9 19 -20.5t22 -20.5q44 -25 96.5 -40t121.5 -15h24q18 0 34.5 6t29 17t20.5 26t8 33v501q0 44 -24.5 67t-61.5 23h-20q-91 0 -152.5 -17t-95.5 -46q-6 -3 -11 -7.5t-10 -10.5v143q0 43 16 80t44 64.5t65 43t78 15.5q9 -1 20 -1h39h15.5t7.5 1zM739 -293 q0 -80 -54 -139.5t-136 -59.5q-76 -2 -131 62l-15 14l-20 29l-18 43q0 16 14 43l12 6l25 16l41 9l-41 14q-51 6 -51 72q16 69 68 111t116 42q82 2 136 -56t54 -146v-60zM598 -295v49q0 49 -49 53q-25 0 -43 -30l90 -47l-90 -43q8 -23 43 -31q49 0 49 49zM745 -406l127 -57 l-2 1661h274v-1745q0 -192 -110 -194q-29 0 -51 12l-238 49v274z" />
<glyph unicode="&#x1020;&#x103e;" horiz-adv-x="793" d="M590 -469q21 0 47 12.5t45 28.5v-270q0 -14 -10 -25t-24.5 -19t-30 -12t-27.5 -4h-314q-41 0 -76 19t-60.5 52.5t-40.5 78.5t-15 96v371q0 42 22 57.5t56 15.5h282v43h-18q-81 2 -149 28t-119 79q-56 56 -82.5 124t-26.5 146v449q0 29 1 62.5t11 70.5t32.5 76.5 t64.5 81.5q26 27 58 45t67 28t71.5 13t71.5 2h86q41 0 77.5 -15.5t64 -43t43.5 -64.5t16 -80v-141q-6 6 -11.5 10.5t-11.5 13.5q-34 25 -93 42.5t-153 17.5h-24q-35 0 -60.5 -25.5t-25.5 -67.5v-501q0 -18 8 -33t21.5 -26t30 -17t34.5 -6h23q71 0 124 15.5t91 41.5 q15 6 27 17t20 20v-160q0 -26 -8 -53.5t-23 -50.5v-101v2v-114q0 -10 -3.5 -20.5t-12.5 -19.5t-25 -15t-41 -6h-227v-269h217zM635 -363q-33 -64 -55 -79q-30 -20 -73 -6l-40 21l-11 128l44 -23q24 0 31 23l40 88l107 -39z" />
<glyph unicode="&#x102d;&#x103e;&#x102f;" d="M-25 -500l-176 -241q-73 0 -126.5 85t-53.5 136v495h264v-317q0 -45 2 -59q11 -99 90 -99zM-444 -520q0 -51 -37 -123q-47 -94 -146 -98l-176 235q55 0 78 45q10 43 10 119v317h271v-495zM-463 1661v-197q0 -21 16.5 -36t40.5 -15h33q20 0 37 15t17 36v197q0 22 -17 34.5 t-37 12.5h-33q-24 0 -40.5 -12.5t-16.5 -34.5zM-115 1473q0 -60 -20.5 -111t-58 -89t-89.5 -60t-114 -23h-6q-53 0 -103 23t-88 63q-42 43 -63 91.5t-21 105.5v165q0 58 22.5 108.5t61 88t89.5 60t108 23.5h4q114 0 199 -82q42 -41 60.5 -91.5t18.5 -106.5v-165z" />
<glyph unicode="&#x1036;&#x103e;&#x102f;" d="M-25 -500l-176 -241q-73 0 -126.5 85t-53.5 136v495h264v-317q0 -45 2 -59q11 -99 90 -99zM-444 -520q0 -51 -37 -123q-47 -94 -146 -98l-176 235q55 0 78 45q10 43 10 119v317h271v-495zM-428 1420v-46q0 -14 12 -24t28 -10q15 1 26.5 10.5t11.5 23.5v46q0 15 -11.5 26 t-26.5 11q-16 0 -28 -11t-12 -26zM-546 1446q0 30 11.5 57t31.5 47t47 31.5t57 11.5h20q30 0 56.5 -11.5t46.5 -31.5t31.5 -47t11.5 -57v-88q0 -30 -11.5 -56.5t-31.5 -46.5t-46.5 -31.5t-56.5 -11.5h-20q-30 0 -57 11.5t-47 31.5t-31.5 46.5t-11.5 56.5v88zM-428 1420v-46 q0 -14 12 -24t28 -10q15 1 26.5 10.5t11.5 23.5v46q0 15 -11.5 26t-26.5 11q-16 0 -28 -11t-12 -26zM-546 1446q0 30 11.5 57t31.5 47t47 31.5t57 11.5h20q30 0 56.5 -11.5t46.5 -31.5t31.5 -47t11.5 -57v-88q0 -30 -11.5 -56.5t-31.5 -46.5t-46.5 -31.5t-56.5 -11.5h-20 q-30 0 -57 11.5t-47 31.5t-31.5 46.5t-11.5 56.5v88z" />
<glyph unicode=" "  horiz-adv-x="512" />
<glyph unicode="&#x09;" horiz-adv-x="512" />
<glyph unicode="&#xa0;" horiz-adv-x="512" />
<glyph unicode="!" horiz-adv-x="680" d="M209 268h262v-268h-262v268zM209 1536h262v-637l-43 -504h-168l-51 504v637z" />
<glyph unicode="&#x22;" horiz-adv-x="680" d="M33 1516h243v-555h-243v555zM408 1516h243v-555h-243v555z" />
<glyph unicode="#" horiz-adv-x="1024" d="M537 1511l-58 -444h154l51 444h176l-51 -444h152v-203h-181l-20 -184h151v-205h-176l-59 -475h-172l55 475h-147l-60 -475h-172l56 475h-173v205h201l25 184h-172v203h190l58 444h172zM461 864l-25 -184h144l28 184h-147z" />
<glyph unicode="$" horiz-adv-x="1024" d="M463 1516v133h139v-133q172 -23 256 -105q51 -51 67.5 -109.5t20.5 -197.5h-239q0 98 -24 141t-89 68v-410q381 -194 381 -500v-63q-19 -166 -108 -256t-265 -117v-219h-139v215q-393 37 -369 494h244q0 -138 25.5 -202.5t107.5 -78.5v467q-121 74 -193.5 134.5 t-113.5 136t-49 190.5q-13 172 83.5 284.5t264.5 127.5zM471 1313q-109 -21 -109 -154q0 -123 109 -203v357zM594 588v-412q57 12 91 63.5t34 116.5q0 144 -125 232z" />
<glyph unicode="%" horiz-adv-x="1704" d="M1331 748q178 0 250 -83t72 -288q0 -111 -18.5 -192t-88 -133t-207.5 -52q-198 0 -258.5 90t-60.5 270q0 209 60.5 298.5t250.5 89.5zM1335 600q-69 0 -93.5 -45t-29.5 -135q7 -88 19 -180.5t112 -92.5q66 3 87.5 48t21.5 182q0 141 -21.5 182t-95.5 41zM1116 1540h144 l-685 -1573h-147zM381 1507q178 0 246.5 -82t68.5 -288q0 -111 -17 -191t-86 -133t-206 -53t-207.5 44t-93.5 122t-23 194q0 140 23 220.5t91.5 123.5t203.5 43zM381 1360q-88 2 -102.5 -49t-18.5 -183q-2 -75 9.5 -128.5t41 -73t76.5 -19.5q47 4 71.5 22.5t33 66.5t8.5 141 q0 139 -22.5 181t-96.5 42z" />
<glyph unicode="&#x26;" horiz-adv-x="1368" d="M424 907q-119 164 -125 340q4 148 93 237t245 89q108 2 184 -41t116 -118t40 -167q0 -110 -58.5 -208.5t-175.5 -166.5l197 -340q43 185 43 283h229q0 -125 -38.5 -275.5t-98.5 -236.5l185 -311h-308l-55 104q-133 -133 -338 -133q-182 0 -291 109q-135 135 -139 348 q4 143 74.5 272t220.5 215zM629 1065q114 78 114 178q0 45 -25.5 84t-66.5 41q-47 6 -74.5 -23.5t-31.5 -76.5q4 -8 4 -25q4 -41 80 -178zM541 709q-138 -91 -146 -244q4 -68 27.5 -128.5t69 -101t112.5 -42.5q96 6 184 88z" />
<glyph unicode="'" horiz-adv-x="567" d="M164 1536h248v-264q0 -260 -248 -289v92q61 12 98 53t35 144h-133v264z" />
<glyph unicode="(" horiz-adv-x="680" d="M575 1577q-92 -168 -143 -398.5t-51 -615.5q0 -244 23.5 -407.5t63.5 -280.5t112 -283h-168q-176 304 -235.5 500.5t-63.5 474.5q-4 203 25.5 371t99 332t174.5 307h163z" />
<glyph unicode=")" horiz-adv-x="680" d="M109 1577h167q156 -252 227.5 -480.5t71.5 -533.5q0 -143 -19 -283.5t-56 -258t-93.5 -223t-130.5 -206.5h-167q69 129 110 269.5t60.5 302.5t23.5 395q4 221 -14.5 390t-61.5 318.5t-118 309.5z" />
<glyph unicode="*" horiz-adv-x="1024" d="M592 1511v-227l217 76l55 -160l-221 -63l141 -193l-137 -96l-127 184l-135 -188l-137 96l133 184l-221 72l53 156l215 -68v227h164z" />
<glyph unicode="+" horiz-adv-x="1024" d="M399 625v383h226v-383h348v-230h-348v-395h-226v395h-348v230h348z" />
<glyph unicode="," horiz-adv-x="680" d="M209 272h266v-272q0 -123 -65.5 -203t-200.5 -94v92q49 0 97 48t46 157h-143v272z" />
<glyph unicode="-" horiz-adv-x="680" d="M96 760h492v-236h-492v236z" />
<glyph unicode="." horiz-adv-x="680" d="M209 272h270v-272h-270v272z" />
<glyph unicode="/" horiz-adv-x="567" d="M461 1536h180l-485 -1729h-181z" />
<glyph unicode="0" horiz-adv-x="1024" d="M100 1128q0 416 412 416q416 0 416 -416v-733q0 -428 -416 -428q-412 0 -412 428v733zM385 1128v-733q0 -104 30.5 -153t96.5 -49q129 0 129 202v733q0 193 -129 193q-127 0 -127 -193z" />
<glyph unicode="1" horiz-adv-x="1024" d="M436 1065h-344v207q352 -10 420 264h213v-1536h-289v1065z" />
<glyph unicode="2" horiz-adv-x="1024" d="M84 1024q-16 319 108.5 417.5t319.5 102.5q111 2 207 -49t152.5 -142t56.5 -204q0 -166 -74 -275.5t-250 -293.5q-123 -127 -176 -201t-55 -156h534v-223h-844q7 164 23 248t57 161.5t114 163.5t218 242q80 82 123 157t43 165q0 86 -31.5 133t-89.5 47q-92 4 -133 -44 t-43 -190q4 -18 4 -59h-264z" />
<glyph unicode="3" horiz-adv-x="1024" d="M92 1087q-20 230 90.5 341.5t300.5 115.5q199 0 310 -92q51 -35 83.5 -124t32.5 -191q0 -113 -50 -200t-146 -110q82 -12 131 -65t72.5 -133t23.5 -180q0 -113 -29.5 -210.5t-83.5 -154.5q-51 -51 -146 -85t-194 -32q-217 4 -325.5 123t-93.5 418h272q0 -47 -4 -76 q4 -239 168 -239q86 0 120.5 71.5t28.5 175.5q0 47 -4 72q0 111 -50 159t-239 38v227q164 -6 216.5 44t52.5 157q0 80 -36 133t-112 51q-123 -6 -129 -176q4 -21 4 -58h-264z" />
<glyph unicode="4" horiz-adv-x="1024" d="M545 311h-498v226l465 974h319v-974h134v-226h-134v-311h-286v311zM545 537v626l-285 -626h285z" />
<glyph unicode="5" horiz-adv-x="1024" d="M102 709l37 802h740v-223h-517l-20 -327q78 83 221 83q62 0 135 -16q234 -70 248 -424q12 -254 -36 -392t-147 -191.5t-265 -53.5q-232 2 -327 129t-85 387h268q-6 -159 31 -222.5t117 -63.5q92 -4 126 62.5t34 256.5q2 172 -34 235.5t-114 67.5q-129 6 -160 -110h-252z " />
<glyph unicode="6" horiz-adv-x="1024" d="M373 932q63 104 227 104q184 0 262 -145.5t78 -349.5q0 -41 -1 -69t-3 -60q-16 -226 -115.5 -335.5t-308.5 -109.5q-201 0 -312.5 126t-111.5 368v522q0 324 114.5 444.5t342.5 116.5q160 0 266.5 -86t99.5 -262h-268q0 121 -106 121q-105 0 -131.5 -75t-36.5 -218 q4 -29 4 -92zM373 629v-248q0 -66 30.5 -127t104.5 -61q143 0 143 167v281q0 80 -39 125t-96 45t-100 -49t-43 -133z" />
<glyph unicode="7" horiz-adv-x="1024" d="M680 1288h-617v223h869v-206q-111 -175 -232.5 -543.5t-146.5 -761.5h-297q14 205 83 459t162 480t179 349z" />
<glyph unicode="8" horiz-adv-x="1024" d="M709 827q127 -26 179 -118.5t56 -284.5q0 -127 -42 -232.5t-136 -164t-250 -56.5q-156 4 -248 46t-138 146.5t-46 289.5q0 141 48 238t167 140q-70 35 -106.5 78t-52 101.5t-19.5 148.5q-4 105 37 193t128 139t230 53q205 2 294 -92t93 -285q2 -153 -39 -223t-155 -117z M512 1321q-127 -6 -127 -197q0 -196 131 -196q129 0 125 200q0 193 -129 193zM373 504v-123q0 -92 32.5 -136t106.5 -48q76 -2 109.5 42t33.5 138v127q0 223 -143 217q-74 0 -106.5 -41t-32.5 -176z" />
<glyph unicode="9" horiz-adv-x="1024" d="M670 588q-64 -105 -228 -113q-102 6 -151 33q-207 98 -197 483q6 191 50 313.5t129 179t229 60.5q227 0 337.5 -120.5t110.5 -454.5v-402q0 -215 -42 -345t-135 -191.5t-243 -63.5q-208 0 -308.5 91.5t-94.5 256.5h268q-6 -51 32 -86.5t91 -40.5q105 11 128.5 85.5 t23.5 213.5v101zM383 1137v-244q0 -90 42 -141.5t97 -55.5q60 4 100 54.5t40 142.5v244q0 90 -40 137t-100 47q-55 0 -97 -48t-42 -136z" />
<glyph unicode=":" horiz-adv-x="567" d="M143 1137h273v-273h-273v273zM143 268h273v-272h-273v272z" />
<glyph unicode=";" horiz-adv-x="567" d="M152 1141h268v-273h-268v273zM152 272h268v-272q0 -125 -72 -204t-201 -93v88q66 10 107 60.5t39 148.5h-141v272z" />
<glyph unicode="&#x3c;" horiz-adv-x="1024" d="M88 612l852 467v-227l-608 -340l608 -332v-227l-852 459v200z" />
<glyph unicode="=" horiz-adv-x="1024" d="M47 827h922v-223h-922v223zM47 201v231h922v-231h-922z" />
<glyph unicode="&#x3e;" horiz-adv-x="1024" d="M696 512l-608 340v227l852 -463v-204l-852 -459v227z" />
<glyph unicode="?" horiz-adv-x="1024" d="M326 264h260v-264h-260v264zM330 412q-4 143 23.5 235t101.5 180q100 121 146 201t46 180q0 156 -121 156q-82 -2 -110.5 -51t-24.5 -180h-256q-29 444 416 444q113 -4 199 -51t129 -125q47 -88 47 -221q0 -136 -56 -228q-65 -104 -152 -195t-116 -149.5t-27 -195.5h-245 z" />
<glyph unicode="@" horiz-adv-x="1704" d="M1343 303h197q-260 -346 -647 -340q-234 2 -421 117t-291.5 304t-100.5 413q2 190 102.5 370.5t282.5 292t416 113.5q239 2 411 -99.5t258 -253t86 -300.5q0 -142 -67.5 -280t-187 -228t-265.5 -105q-102 0 -108 109q4 12 4 33q-92 -123 -269 -130q-133 0 -231 98.5 t-100 266.5q4 41 7 65.5t5 55.5q37 186 155.5 282.5t260.5 96.5q186 0 268 -127l20 110h203l-106 -604q-13 -65 22 -71q47 4 112.5 76.5t88.5 152.5q25 90 25 178q0 150 -71 268.5t-193 183t-277 68.5q-270 11 -458.5 -135.5t-225.5 -411.5q-27 -198 36.5 -352.5t186.5 -251 t268 -133.5q97 -16 164 -22q248 6 440 190zM889 991q-113 0 -180.5 -85t-71.5 -197q4 -88 48 -146.5t124 -58.5q72 2 122 44t77.5 108.5t27.5 140.5q0 86 -39 140t-108 54z" />
<glyph unicode="A" horiz-adv-x="1141" d="M385 1540h391l344 -1540h-309l-72 387h-336l-79 -387h-304zM692 616l-92 517l-25 235h-4l-22 -235l-105 -517h248z" />
<glyph unicode="B" horiz-adv-x="1141" d="M131 1540h498q362 0 370 -364q2 -156 -46 -236t-144 -117q225 -32 231 -362q0 -123 -38.5 -229.5t-123.5 -169t-214 -62.5h-533v1540zM420 1313v-398h100q103 0 148 43t45 166q-2 125 -42 157t-151 32h-100zM567 692h-147v-469h155q160 0 168 238q7 231 -176 231z" />
<glyph unicode="C" horiz-adv-x="1141" d="M756 1061q-6 270 -144 282q-204 19 -204 -282v-529q0 -174 46 -254.5t138 -80.5q100 0 134 81.5t34 270.5h289q-7 -156 -26 -268.5t-113.5 -215t-293.5 -102.5q-188 -2 -298.5 61.5t-157.5 205t-47 378.5v260q0 265 44 414.5t146.5 218t284.5 72.5q252 6 352 -129 t100 -383h-284z" />
<glyph unicode="D" horiz-adv-x="1251" d="M147 1540h553q238 0 342.5 -179t85.5 -605q-8 -185 -21 -301.5t-51 -222t-123 -169t-228 -63.5h-558v1540zM436 1313v-1090h152q114 0 167.5 64.5t67 178.5t8.5 322q-4 289 -41.5 407t-152.5 118h-201z" />
<glyph unicode="E" horiz-adv-x="1024" d="M131 1540h809v-227h-520v-389h477v-224h-477v-477h520v-223h-809v1540z" />
<glyph unicode="F" horiz-adv-x="1024" d="M152 1536h813v-223h-529v-393h496v-224h-496v-696h-284v1536z" />
<glyph unicode="G" horiz-adv-x="1251" d="M1110 1057h-289q0 157 -44 219.5t-159 62.5q-83 2 -130.5 -41t-62.5 -121.5t-15 -193.5v-403q0 -123 13 -205t58 -130t137 -48q211 0 211 383v20h-198v223h475v-823h-211v180q-80 -221 -322 -221q-30 0 -96 8q-137 27 -214 94.5t-113.5 214t-34.5 383.5v164 q4 260 30.5 407.5t132 247t328.5 99.5q324 0 414 -149.5t90 -370.5z" />
<glyph unicode="H" horiz-adv-x="1251" d="M139 1540h289v-612h399v612h289v-1540h-289v705h-399v-705h-289v1540z" />
<glyph unicode="I" horiz-adv-x="567" d="M139 1540h289v-1540h-289v1540z" />
<glyph unicode="J" horiz-adv-x="907" d="M500 1540h288v-1204q0 -197 -95 -285t-308 -88q-141 0 -221 49t-109.5 125t-34.5 174l-8 176h291v-147q0 -86 21.5 -114.5t74.5 -28.5q68 -2 84.5 41t16.5 149v1153z" />
<glyph unicode="K" horiz-adv-x="1141" d="M139 1540h285v-684h8q55 133 108.5 236.5t137.5 258t102 189.5h324l-379 -663l395 -877h-323l-269 608l-104 -168v-440h-285v1540z" />
<glyph unicode="L" horiz-adv-x="1024" d="M139 1540h285v-1317h537v-223h-822v1540z" />
<glyph unicode="M" horiz-adv-x="1591" d="M135 1540h461l172 -809l37 -270l26 270l173 809h456v-1540h-289v872l25 529h-4l-307 -1401h-172l-310 1401h-4l25 -578v-823h-289v1540z" />
<glyph unicode="N" horiz-adv-x="1251" d="M139 1540h301l291 -747l141 -449q-28 369 -38.5 527.5t-10.5 324.5v344h289v-1540h-297l-307 756l-127 411q16 -223 29.5 -435t13.5 -341v-391h-285v1540z" />
<glyph unicode="O" horiz-adv-x="1251" d="M1133 629q-5 -223 -34.5 -356.5t-138 -223.5t-327.5 -90q-332 0 -416 165t-92 476v33v194v8.5t-4 24.5q2 39 5 102.5t16.5 163t37 175t51.5 118.5q93 113 184 142.5t218 29.5q223 0 333.5 -109.5t138.5 -259t28 -345.5v-248zM420 1049v-557q0 -295 213 -295 q203 0 203 295v532q0 102 -40 209.5t-163 109.5q-105 3 -159 -74t-54 -220z" />
<glyph unicode="P" horiz-adv-x="1141" d="M139 1540h586q182 0 272 -126t86 -306q0 -465 -446 -465h-213v-643h-285v1540zM424 1313v-445h172q192 0 192 265q0 88 -33.5 134t-142.5 46h-188z" />
<glyph unicode="Q" horiz-adv-x="1251" d="M600 1577q225 0 337 -76t148.5 -219t47.5 -397v-176q0 -428 -84 -566l155 -151l-147 -139l-158 159q-88 -49 -266 -49q-266 0 -377 117q-76 80 -103.5 229.5t-31.5 358.5q4 59 4 163q6 209 12 296t48 200t142.5 181.5t272.5 68.5zM831 1065q0 143 -58 213t-157 65 q-88 -4 -142 -77.5t-54 -204.5v-578q0 -286 209 -290q26 4 76 12l-62 51l158 135l18 -22q12 47 12 147v121v428z" />
<glyph unicode="R" horiz-adv-x="1251" d="M135 1540h557q410 0 424 -356q6 -166 -57.5 -270.5t-186.5 -116.5q89 -11 138 -49.5t66.5 -89t20.5 -102.5t3 -120q4 -157 18.5 -282t52.5 -125v-29h-331q-9 57 -13 163.5t-16 172.5v104q0 111 -44 165t-192 54h-151v-659h-289v1540zM633 1313h-209v-424h201 q94 0 142 59.5t48 151.5q0 112 -40 162.5t-142 50.5z" />
<glyph unicode="S" horiz-adv-x="1141" d="M727 1071q0 272 -172 272q-63 0 -110.5 -39.5t-49.5 -107.5q8 -109 105 -176q116 -76 238 -157t204 -171t94 -200q29 -259 -93 -387t-314 -138q-244 -8 -387.5 93.5t-145.5 379.5q8 70 8 105h287q0 -21 -1 -31t-2 -27.5t-3 -33.5q0 -252 186 -260q52 6 84 16 q35 10 61.5 58t26.5 106q0 131 -139 227q-102 66 -197.5 131.5t-159 123.5t-106.5 144t-37 197q19 358 408 377q487 16 487 -453v-49h-272z" />
<glyph unicode="T" horiz-adv-x="1024" d="M991 1313h-332v-1313h-286v1313h-336v227h954v-227z" />
<glyph unicode="U" horiz-adv-x="1251" d="M139 1540h285v-1083q0 -156 57.5 -210t151.5 -54q57 0 99 20t68.5 78.5t26.5 169.5v1079h289v-1104q0 -248 -113.5 -362.5t-373.5 -114.5q-248 0 -369 107.5t-121 369.5v1104z" />
<glyph unicode="V" horiz-adv-x="1141" d="M580 147l28 269l180 1124h312l-332 -1540h-383l-342 1540h305l207 -1124z" />
<glyph unicode="W" horiz-adv-x="1704" d="M47 1540h301l156 -1048l24 -316l27 316l176 1048h246l186 -1048l29 -316l29 316l143 1048h297l-285 -1540h-344l-135 743l-45 369l-41 -369l-119 -743h-348z" />
<glyph unicode="X" horiz-adv-x="1141" d="M399 776l-362 760h323l177 -395q26 -78 34 -146h4q7 72 37 146l168 395h324l-369 -756l381 -780h-328l-176 403q-32 95 -49 164v0q-14 -71 -47 -164l-180 -403h-316z" />
<glyph unicode="Y" horiz-adv-x="1141" d="M571 897q17 94 58 195l176 448h311l-403 -889v-651h-289v651l-399 889h311l180 -448q31 -78 51 -195h4z" />
<glyph unicode="Z" horiz-adv-x="1024" d="M629 1313h-529v223h840v-231q-139 -271 -302 -586.5t-257 -495.5h580v-223h-893v227z" />
<glyph unicode="[" horiz-adv-x="680" d="M571 1536v-152h-180v-1421h180v-156h-407v1729h407z" />
<glyph unicode="\" horiz-adv-x="512" d="M-180 1536h217l659 -1536h-217z" />
<glyph unicode="]" horiz-adv-x="680" d="M293 1380h-184v156h407v-1729h-407v156h184v1417z" />
<glyph unicode="^" horiz-adv-x="1024" d="M387 1536h250l367 -772l-211 -96l-281 571l-281 -571l-211 96z" />
<glyph unicode="_" horiz-adv-x="1024" d="M0 -125h1024v-119h-1024v119z" />
<glyph unicode="`" horiz-adv-x="680" d="M4 1587h315l193 -299h-209z" />
<glyph unicode="a" horiz-adv-x="1024" d="M102 811q-6 203 91.5 288t300.5 89q206 0 299.5 -76t93.5 -235v-697q0 -108 22 -180h-256q-10 25 -18 92q4 17 4 37q-94 -158 -248 -158q-57 0 -129 21q-168 55 -168 297q-6 141 46.5 217t150.5 135q53 33 156.5 75t134.5 68q41 35 41 93q0 106 -134 106q-81 -4 -98 -31 q-37 -45 -37 -141h-252zM618 608q-59 -37 -122.5 -79t-101.5 -91t-44 -119q12 -131 131 -147q45 6 58 12q32 21 47.5 41.5t25 86t6.5 167.5v129z" />
<glyph unicode="b" horiz-adv-x="1024" d="M395 1044q72 140 221 140q52 0 76 -4q115 -19 165 -116t50 -308v-369q0 -420 -266 -420q-170 0 -256 158v-125h-254v1536h264v-492zM395 805v-424q0 -98 36 -153.5t85 -59.5q55 4 91 58.5t36 154.5v424q0 82 -24.5 130t-98.5 46q-55 0 -90 -48t-35 -128z" />
<glyph unicode="c" horiz-adv-x="907" d="M827 756h-268v137q0 41 -27.5 65.5t-66.5 24.5q-96 0 -96 -143v-500q0 -164 92 -164q98 0 98 164v113h268v-113q0 -193 -92 -283t-274 -90q-172 0 -266.5 98.5t-94.5 274.5v416q0 274 102.5 351t258.5 81q86 0 163.5 -26.5t123.5 -82.5q43 -47 61 -103t18 -220z" />
<glyph unicode="d" horiz-adv-x="1024" d="M625 780q0 92 -34 147.5t-95 55.5q-72 0 -95.5 -51t-23.5 -152v-393q0 -100 33.5 -157.5t85.5 -57.5q129 0 129 215v393zM633 1032l-8 55v453h264v-1540h-264v131q-27 -76 -92.5 -120t-147.5 -44q-43 0 -86 13q-190 61 -190 407v397q0 361 219 400q18 2 32.5 3t34.5 1 q164 0 238 -156z" />
<glyph unicode="e" horiz-adv-x="1024" d="M109 788q0 400 407 400q174 -2 258 -65.5t108.5 -165t24.5 -273.5v-160h-530v-176q0 -170 127 -176q12 4 33 4q108 12 100 215h266q10 -194 -78 -306t-272 -114q-109 -4 -207 22.5t-167.5 134.5t-69.5 316v344zM377 727h264v117q0 139 -133 139q-131 0 -131 -139v-117z " />
<glyph unicode="f" horiz-adv-x="567" d="M143 1155q0 57 -4 84q4 96 19.5 154.5t64.5 99.5q64 43 221 43h84v-213q-30 12 -63 12q-53 0 -53 -43v-137h116v-194h-116v-961h-269v961h-100v194h100z" />
<glyph unicode="g" horiz-adv-x="1024" d="M889 1155v-1114q0 -139 -36 -230.5t-126 -142.5q-98 -55 -270 -55q-140 0 -235 61.5t-101 194.5h266q0 -74 129 -66q117 9 117 168v158q-31 -78 -98.5 -118t-149.5 -40t-149 41q-127 80 -127 373v332q0 266 62 361.5t189 105.5h43q164 0 218 -156v127h268zM377 727v-346 q0 -209 119 -209q125 12 125 205v391q0 109 -34 161t-91 52q-72 4 -95.5 -48t-23.5 -206z" />
<glyph unicode="h" horiz-adv-x="1024" d="M391 1036h4q37 72 102.5 112t139.5 40t135.5 -36t96 -96.5t34.5 -135.5v-920h-266v788q0 111 -29.5 155t-99.5 38q-117 -8 -117 -188v-793h-266v1540h266v-504z" />
<glyph unicode="i" horiz-adv-x="567" d="M152 1540h264v-244h-264v244zM152 1155h264v-1155h-264v1155z" />
<glyph unicode="j" horiz-adv-x="567" d="M164 1536h264v-240h-264v240zM164 1155h264v-1276q0 -168 -43 -221t-154 -53q-36 0 -168 8v203h29q37 0 54.5 13t17.5 58v1268z" />
<glyph unicode="k" horiz-adv-x="907" d="M100 1536h265v-717q0 -45 -1.5 -70.5t-3.5 -52.5h5l251 459h295l-295 -463l283 -692h-295l-168 471l-71 -119v-352h-265v1536z" />
<glyph unicode="l" horiz-adv-x="567" d="M152 1536h268v-1536h-268v1536z" />
<glyph unicode="m" horiz-adv-x="1591" d="M399 1036h4q31 74 103 111t153 37q93 0 166.5 -40t81.5 -108q33 74 108 111t161 37q114 0 199 -61.5t85 -174.5v-948h-268v809q0 180 -131 172q-129 -6 -129 -193v-788h-268v823q0 166 -136 160q-71 -2 -100 -50t-29 -140v-793h-264v1155h264v-119z" />
<glyph unicode="n" horiz-adv-x="1024" d="M391 1155v-131q23 76 94.5 118t151.5 42q111 0 186.5 -66.5t75.5 -189.5v-928h-262v788q0 89 -24.5 129.5t-88.5 43.5q-55 6 -94 -41.5t-39 -139.5v-780h-266v1155h266z" />
<glyph unicode="o" horiz-adv-x="1024" d="M516 1188q170 0 255 -62.5t112.5 -184.5t27.5 -341v-201q0 -204 -83 -320t-300 -116q-184 0 -272 56.5t-117.5 185.5t-29.5 370q0 230 28.5 359t116.5 191.5t262 62.5zM647 748q0 137 -24.5 186t-106.5 49t-110.5 -52t-28.5 -171v-420q0 -162 131 -168q78 0 108.5 38 t30.5 130v408z" />
<glyph unicode="p" horiz-adv-x="1024" d="M385 1155v-127q25 72 88.5 116t142.5 44q154 0 217.5 -128t63.5 -300v-387q0 -326 -184 -389q-43 -13 -97 -13q-165 0 -243 158v-516h-252v1542h264zM633 797q0 96 -25.5 141t-99.5 45q-53 0 -88 -54.5t-35 -144.5v-415q0 -179 111 -193q63 -8 100 44t37 157v420z" />
<glyph unicode="q" horiz-adv-x="1024" d="M616 135q-65 -164 -239 -164q-101 0 -154 45q-67 58 -93 152t-26 252v328q0 348 144 411q67 29 137 29q180 0 231 -164v131h265v-1540h-265v520zM373 760v-361q0 -223 114 -223q60 -2 94.5 51.5t34.5 137.5v423q0 95 -35.5 146t-88.5 47q-66 0 -92.5 -42t-26.5 -179z" />
<glyph unicode="r" horiz-adv-x="680" d="M651 1176v-312h-51q-90 0 -149.5 -40t-59.5 -165v-659h-266v1155h256v-215q86 236 270 236z" />
<glyph unicode="s" horiz-adv-x="907" d="M578 805q10 176 -119 176q-111 0 -117 -92q8 -60 41 -84q45 -41 191.5 -137.5t209 -169t62.5 -191.5q0 -51 -12 -110q-50 -230 -392 -230q-168 0 -276.5 104.5t-91.5 309.5h268q-27 -213 117 -221q114 14 114 112q0 72 -43 109q-12 10 -129.5 87t-196.5 148.5t-102 147.5 q-16 47 -24 135q2 152 117.5 218.5t275.5 66.5q379 0 379 -379h-272z" />
<glyph unicode="t" horiz-adv-x="567" d="M516 1155v-190h-113v-680q0 -58 18.5 -69t94.5 -11v-209q-16 0 -63 -4t-80 -4q-238 0 -238 196v781h-106v190h106v322h268v-322h113z" />
<glyph unicode="u" horiz-adv-x="1024" d="M616 1155h269v-1155h-256v184q-47 -217 -260 -217q-80 0 -146 33q-106 55 -106 293v862h268v-823q0 -164 115 -156q116 0 116 201v778z" />
<glyph unicode="v" horiz-adv-x="907" d="M20 1155h287l125 -694l29 -293l26 293l121 694h285l-268 -1155h-332z" />
<glyph unicode="w" horiz-adv-x="1368" d="M20 1155h283l92 -706l25 -252l33 252l106 706h225l127 -706l25 -252l29 252l92 706h266l-236 -1155h-290l-92 508l-33 252l-29 -252l-84 -508h-299z" />
<glyph unicode="x" horiz-adv-x="907" d="M319 592l-286 563h315l92 -231l25 -84l22 84l101 231h301l-289 -563l293 -592h-297l-113 252l-22 104l-29 -104l-113 -252h-303z" />
<glyph unicode="y" horiz-adv-x="907" d="M12 1155h281l123 -651l33 -268l34 268l125 651h273l-310 -1280q-32 -156 -96.5 -213t-189.5 -57q-80 0 -129 4v207h53h31q45 0 60 9t15 40q0 18 -18 110z" />
<glyph unicode="z" horiz-adv-x="797" d="M55 1155h693v-194l-420 -756h424v-205h-705v205l406 747h-398v203z" />
<glyph unicode="{" horiz-adv-x="559" d="M-63 672q71 6 111 60t40 149v379q0 153 59.5 214.5t188.5 61.5h160q-78 -25 -111 -58.5t-41 -87t-8 -173.5v-310q0 -110 -39 -162.5t-133 -76.5q172 -23 172 -260v-365q0 -106 38 -154.5t122 -76.5h-160q-154 0 -201 82.5t-47 226.5v348q0 162 -151 195v8z" />
<glyph unicode="|" horiz-adv-x="512" d="M152 1536h208v-1536h-208v1536z" />
<glyph unicode="}" horiz-adv-x="559" d="M629 668v-4q-90 -13 -124 -64t-34 -139v-344q4 -180 -38 -245t-220 -65h-145v5q86 22 120.5 74.5t34.5 160.5v373q0 213 185 244q-99 18 -142 76.5t-43 170.5v369q0 111 -29.5 171t-125.5 81v4h145q143 0 200.5 -64.5t57.5 -207.5v-375q0 -96 42 -153.5t116 -67.5z" />
<glyph unicode="~" horiz-adv-x="1024" d="M168 311l-117 154q70 135 130.5 193.5t142.5 58.5q51 0 95 -16.5t102.5 -48t102.5 -49t85 -23.5q39 2 76.5 40.5t70.5 114.5l117 -147q-60 -123 -121 -179.5t-139 -60.5q-88 6 -230 72q-114 59 -159 59q-37 0 -65 -25.5t-49.5 -66.5t-41.5 -76z" />
<glyph unicode="&#xa1;" horiz-adv-x="680" d="M209 1188h266v-273h-266v273zM252 793h180l43 -541v-600h-266v600z" />
<glyph unicode="&#xa2;" horiz-adv-x="1024" d="M555 1180l37 196h143l-43 -227q74 -31 116 -82t55.5 -106.5t14.5 -109.5t3 -103h-273v196l-133 -751q133 -33 133 184v72h269q6 -152 -28 -259.5t-114 -167t-207 -59.5q-53 0 -79 4l-41 -215h-140l43 256q-164 103 -164 361v419q0 191 91.5 295.5t230.5 104.5q33 0 86 -8 zM516 965q-59 0 -90 -35t-31 -121v-549z" />
<glyph unicode="&#xa3;" horiz-adv-x="1024" d="M205 811q-35 49 -64.5 143.5t-31.5 194.5q4 164 96 282.5t303 141.5q188 16 326.5 -81t138.5 -333v-67h-260q2 86 -13.5 146t-48.5 82.5t-92 27.5q-174 0 -182 -199q18 -121 94 -338h301v-119h-256q21 -67 21 -121q0 -116 -73 -220.5t-175 -170.5l8 -4q113 64 211 64 q45 0 146.5 -18.5t113.5 -20.5q82 6 172 67l55 -225q-106 -72 -264 -72q-53 0 -174 31t-192 31q-99 0 -222 -66l-71 197q90 49 151.5 151.5t61.5 221.5q0 77 -33 155h-176v119h129z" />
<glyph unicode="&#xa5;" horiz-adv-x="1024" d="M877 428h-222v-125h222v-102h-222v-201h-282v201h-234v102h234v125h-234v104h234v115l-410 889h322l186 -475l45 -168l43 168l193 475h313l-410 -885v-119h222v-104z" />
<glyph unicode="&#xa7;" horiz-adv-x="1024" d="M252 981q-94 86 -100 258q6 160 118.5 247t270.5 87q153 0 255.5 -84t102.5 -277h-252q0 80 -33.5 120t-85.5 40q-53 0 -92 -40t-41 -93q8 -65 45 -94q60 -53 144 -118.5t154.5 -121t113.5 -96.5q96 -92 96 -246q0 -90 -42 -171t-130 -136q43 -31 76 -107.5t33 -164.5 q0 -160 -118 -258.5t-280 -98.5q-155 0 -266.5 90t-111.5 308h256q0 -185 135 -185q53 0 95 37t42 94q0 64 -62 125q-24 25 -177.5 142.5t-245.5 210.5q-74 73 -80 223q4 67 22.5 124.5t58.5 105.5t99 79zM391 844q-78 -27 -84 -127q6 -70 58 -109l268 -221q72 43 72 129 q0 76 -50 113z" />
<glyph unicode="&#xa8;" horiz-adv-x="680" d="M408 1556h264v-235h-264v235zM12 1556h260v-235h-260v235z" />
<glyph unicode="&#xa9;" horiz-adv-x="1700" d="M848 1573q237 0 421.5 -110.5t284 -290t103.5 -375.5q4 -205 -94.5 -399.5t-285.5 -316.5t-429 -122q-195 0 -380 98.5t-303 289t-118 450.5q0 198 105.5 377.5t292 289t403.5 109.5zM848 1423q-172 0 -323.5 -89t-239.5 -236.5t-88 -300.5q0 -174 77.5 -331t225 -250 t348.5 -99q176 -2 329.5 88t241.5 240.5t88 326.5q0 168 -93 318.5t-247.5 241.5t-318.5 91zM1260 936h-181q-8 76 -65.5 116t-132.5 40q-103 0 -177.5 -70t-82.5 -207q-9 -113 42.5 -208t124.5 -124q31 -14 97 -22q174 8 194 168h185q-17 -148 -125.5 -231t-257.5 -87 q-170 4 -301 120t-140 321q-8 233 122 362t315 129q90 0 176 -36t140 -105.5t67 -165.5z" />
<glyph unicode="&#xab;" horiz-adv-x="1024" d="M860 915v-227l-196 -164l196 -164v-231l-328 291v209zM475 915v-227l-194 -164l194 -164v-231l-323 291v209z" />
<glyph unicode="&#xac;" horiz-adv-x="1024" d="M51 819h922v-604h-225v381h-697v223z" />
<glyph unicode="&#xae;" horiz-adv-x="1700" d="M868 1577q158 0 301.5 -62.5t251 -170t172 -263t64.5 -321.5q0 -191 -101.5 -376t-282.5 -303t-405 -118q-174 0 -326.5 63.5t-264 176t-173 258t-61.5 299.5q0 213 106.5 404.5t295 302t423.5 110.5zM868 1423q-297 2 -484 -201.5t-191 -457.5q4 0 4 -1v-3 q6 -246 186 -444.5t485 -198.5q140 0 260.5 57t201.5 150.5t127 209t46 226.5q2 162 -81 316.5t-227 249.5t-327 97zM520 1200h475q291 0 285 -289q-4 -92 -61.5 -151.5t-178.5 -59.5l211 -368h-198l-193 368h-168v-368h-172v868zM692 1071v-244h277q139 0 139 125 q0 119 -152 119h-264z" />
<glyph unicode="&#xaf;" horiz-adv-x="1024" d="M1036 1624h-1048v102h1048v-102z" />
<glyph unicode="&#xb0;" horiz-adv-x="819" d="M410 1485q114 0 195 -81.5t81 -195.5q0 -115 -81.5 -196.5t-194.5 -81.5q-114 0 -195.5 81.5t-81.5 196.5t81 196t196 81zM410 1038q69 0 118.5 50t49.5 120t-49.5 119t-118.5 49q-70 0 -119 -49t-49 -119t49 -120t119 -50z" />
<glyph unicode="&#xb1;" horiz-adv-x="1024" d="M399 776v277h226v-277h348v-223h-348v-277h-226v277h-348v223h348zM51 -33v230h922v-230h-922z" />
<glyph unicode="&#xb4;" horiz-adv-x="680" d="M365 1587h315l-303 -299h-209z" />
<glyph unicode="&#xb5;" horiz-adv-x="1024" d="M616 1155h269v-1155h-256v184q-47 -184 -180 -184q-35 0 -64 12v-399h-264v676v866h264v-823q0 -164 115 -156q116 0 116 193v786z" />
<glyph unicode="&#xb6;" horiz-adv-x="1128" d="M369 819q-150 6 -236 104.5t-86 264.5q0 153 108.5 250.5t297.5 97.5h626v-240h-88v-1532h-239v1532h-140v-1532h-243v1055z" />
<glyph unicode="&#xb7;" horiz-adv-x="860" d="M432 1149q158 0 270.5 -112.5t112.5 -272.5q0 -158 -112.5 -270.5t-270.5 -112.5t-273.5 113.5t-115.5 269.5q0 158 115.5 271.5t273.5 113.5z" />
<glyph unicode="&#xbb;" horiz-adv-x="1024" d="M553 915l319 -286v-209l-319 -291v227l195 176l-195 156v227zM164 915l328 -286v-209l-328 -291v231l201 172l-201 156v227z" />
<glyph unicode="&#xbf;" horiz-adv-x="1024" d="M721 924h-260v264h260v-264zM721 772q4 -143 -25.5 -237.5t-99.5 -182.5q-115 -135 -148.5 -183t-39.5 -118q0 -39 -5 -67q9 -160 121 -160q84 -2 112 45t28 182h251q7 -235 -93.5 -336.5t-305.5 -101.5q-252 0 -344 172q-45 80 -51 215q8 137 59 223q70 113 156 204 t115.5 151.5t27.5 193.5h242z" />
<glyph unicode="&#xc0;" horiz-adv-x="1141" d="M385 1540h391l344 -1540h-309l-72 387h-336l-79 -387h-304zM692 616l-92 517l-25 235h-4l-22 -235l-105 -517h248zM236 1968h317l190 -301h-206z" />
<glyph unicode="&#xc2;" horiz-adv-x="1141" d="M385 1540h391l344 -1540h-309l-72 387h-336l-79 -387h-304zM692 616l-92 517l-25 235h-4l-22 -235l-105 -517h248zM416 1956h260l235 -299h-235l-127 168l-133 -168h-232z" />
<glyph unicode="&#xc3;" horiz-adv-x="1141" d="M385 1540h391l344 -1540h-309l-72 387h-336l-79 -387h-304zM692 616l-92 517l-25 235h-4l-22 -235l-105 -517h248zM197 1645q0 96 71.5 171.5t171.5 75.5q56 0 146 -33.5t123 -37.5q84 0 102 88h133q-45 -238 -217 -248q-59 -4 -155.5 32t-151.5 36q-39 0 -58.5 -21.5 t-37.5 -62.5h-127z" />
<glyph unicode="&#xc4;" horiz-adv-x="1141" d="M385 1540h391l344 -1540h-309l-72 387h-336l-79 -387h-304zM692 616l-92 517l-25 235h-4l-22 -235l-105 -517h248zM643 1931h264v-235h-264v235zM248 1931h260v-235h-260v235z" />
<glyph unicode="&#xc5;" horiz-adv-x="1141" d="M385 1540h391l344 -1540h-309l-72 387h-336l-79 -387h-304zM692 616l-92 517l-25 235h-4l-22 -235l-105 -517h248zM571 1993q93 0 157.5 -62.5t64.5 -158.5q0 -91 -64.5 -153.5t-157.5 -62.5q-90 0 -154.5 62.5t-64.5 153.5q0 96 64.5 158.5t154.5 62.5zM571 1892 q-47 0 -80.5 -33.5t-33.5 -82.5q0 -52 33.5 -85.5t80.5 -33.5q56 0 88.5 32.5t32.5 86.5q0 51 -32.5 83.5t-88.5 32.5z" />
<glyph unicode="&#xc6;" horiz-adv-x="1591" d="M1536 1536v-223h-500v-393h467v-220h-467v-477h500v-223h-788v391h-353l-135 -391h-303l588 1536h991zM692 1251l-217 -630h273v630h-56z" />
<glyph unicode="&#xca;" horiz-adv-x="1024" d="M131 1540h809v-227h-520v-389h477v-224h-477v-477h520v-223h-809v1540zM381 1960h260l236 -299h-236l-129 168l-131 -168h-234z" />
<glyph unicode="&#xcb;" horiz-adv-x="1024" d="M131 1540h809v-227h-520v-389h477v-224h-477v-477h520v-223h-809v1540zM580 1935h264v-235h-264v235zM184 1935h260v-235h-260v235z" />
<glyph unicode="&#xcd;" horiz-adv-x="567" d="M139 1540h289v-1540h-289v1540zM307 1972h318l-306 -301h-206z" />
<glyph unicode="&#xce;" horiz-adv-x="567" d="M139 1540h289v-1540h-289v1540zM156 1960h260l235 -299h-235l-127 168l-133 -168h-232z" />
<glyph unicode="&#xd1;" horiz-adv-x="1251" d="M139 1540h301l291 -747l141 -449q-28 369 -38.5 527.5t-10.5 324.5v344h289v-1540h-297l-307 756l-127 411q16 -223 29.5 -435t13.5 -341v-391h-285v1540zM256 1645q0 96 71.5 171.5t172.5 75.5q55 0 145 -33.5t123 -37.5q84 0 104 88h132q-41 -238 -216 -248 q-61 -4 -157 32t-152 36q-39 0 -56 -19.5t-38 -64.5h-129z" />
<glyph unicode="&#xd2;" horiz-adv-x="1251" d="M1133 629q-5 -223 -34.5 -356.5t-138 -223.5t-327.5 -90q-332 0 -416 165t-92 476v33v194v8.5t-4 24.5q2 39 5 102.5t16.5 163t37 175t51.5 118.5q93 113 184 142.5t218 29.5q223 0 333.5 -109.5t138.5 -259t28 -345.5v-248zM420 1049v-557q0 -295 213 -295 q203 0 203 295v532q0 102 -40 209.5t-163 109.5q-105 3 -159 -74t-54 -220zM289 1972h315l193 -301h-209z" />
<glyph unicode="&#xd3;" horiz-adv-x="1251" d="M1133 629q-5 -223 -34.5 -356.5t-138 -223.5t-327.5 -90q-332 0 -416 165t-92 476v33v194v8.5t-4 24.5q2 39 5 102.5t16.5 163t37 175t51.5 118.5q93 113 184 142.5t218 29.5q223 0 333.5 -109.5t138.5 -259t28 -345.5v-248zM420 1049v-557q0 -295 213 -295 q203 0 203 295v532q0 102 -40 209.5t-163 109.5q-105 3 -159 -74t-54 -220zM651 1972h318l-305 -301h-207z" />
<glyph unicode="&#xd4;" horiz-adv-x="1251" d="M1133 629q-5 -223 -34.5 -356.5t-138 -223.5t-327.5 -90q-332 0 -416 165t-92 476v33v194v8.5t-4 24.5q2 39 5 102.5t16.5 163t37 175t51.5 118.5q93 113 184 142.5t218 29.5q223 0 333.5 -109.5t138.5 -259t28 -345.5v-248zM420 1049v-557q0 -295 213 -295 q203 0 203 295v532q0 102 -40 209.5t-163 109.5q-105 3 -159 -74t-54 -220zM496 1960h260l235 -299h-235l-127 168l-133 -168h-232z" />
<glyph unicode="&#xd5;" horiz-adv-x="1251" d="M1133 629q-5 -223 -34.5 -356.5t-138 -223.5t-327.5 -90q-332 0 -416 165t-92 476v33v194v8.5t-4 24.5q2 39 5 102.5t16.5 163t37 175t51.5 118.5q93 113 184 142.5t218 29.5q223 0 333.5 -109.5t138.5 -259t28 -345.5v-248zM420 1049v-557q0 -295 213 -295 q203 0 203 295v532q0 102 -40 209.5t-163 109.5q-105 3 -159 -74t-54 -220zM256 1645q0 96 71.5 171.5t172.5 75.5q55 0 145 -33.5t123 -37.5q84 0 104 88h132q-41 -238 -216 -248q-61 -4 -157 32t-152 36q-39 0 -56 -19.5t-38 -64.5h-129z" />
<glyph unicode="&#xd6;" horiz-adv-x="1251" d="M1133 629q-5 -223 -34.5 -356.5t-138 -223.5t-327.5 -90q-332 0 -416 165t-92 476v33v194v8.5t-4 24.5q2 39 5 102.5t16.5 163t37 175t51.5 118.5q93 113 184 142.5t218 29.5q223 0 333.5 -109.5t138.5 -259t28 -345.5v-248zM420 1049v-557q0 -295 213 -295 q203 0 203 295v532q0 102 -40 209.5t-163 109.5q-105 3 -159 -74t-54 -220zM696 1939h265v-235h-265v235zM299 1939h260v-235h-260v235z" />
<glyph unicode="&#xd8;" horiz-adv-x="1251" d="M991 1452l92 147l101 -71l-119 -193q68 -125 68 -458v-248q-5 -223 -34.5 -356.5t-138 -223.5t-327.5 -90q-248 0 -365 117l-92 -152l-104 60l121 188q-68 147 -68 461v194v8.5t-4 24.5q2 39 5 102.5t16.5 163t37 175t51.5 118.5q93 113 184 142.5t218 29.5 q246 0 358 -139zM420 563l385 617q-6 157 -172 163q-105 3 -159 -76t-54 -218v-486zM440 352q39 -155 193 -155q203 0 203 295v489z" />
<glyph unicode="&#xd9;" horiz-adv-x="1251" d="M139 1540h285v-1083q0 -156 57.5 -210t151.5 -54q57 0 99 20t68.5 78.5t26.5 169.5v1079h289v-1104q0 -248 -113.5 -362.5t-373.5 -114.5q-248 0 -369 107.5t-121 369.5v1104zM289 1972h315l193 -301h-209z" />
<glyph unicode="&#xda;" horiz-adv-x="1251" d="M139 1540h285v-1083q0 -156 57.5 -210t151.5 -54q57 0 99 20t68.5 78.5t26.5 169.5v1079h289v-1104q0 -248 -113.5 -362.5t-373.5 -114.5q-248 0 -369 107.5t-121 369.5v1104zM647 1968h318l-306 -301h-206z" />
<glyph unicode="&#xdb;" horiz-adv-x="1251" d="M139 1540h285v-1083q0 -156 57.5 -210t151.5 -54q57 0 99 20t68.5 78.5t26.5 169.5v1079h289v-1104q0 -248 -113.5 -362.5t-373.5 -114.5q-248 0 -369 107.5t-121 369.5v1104zM496 1960h260l235 -299h-235l-127 168l-133 -168h-232z" />
<glyph unicode="&#xdc;" horiz-adv-x="1251" d="M139 1540h285v-1083q0 -156 57.5 -210t151.5 -54q57 0 99 20t68.5 78.5t26.5 169.5v1079h289v-1104q0 -248 -113.5 -362.5t-373.5 -114.5q-248 0 -369 107.5t-121 369.5v1104zM692 1935h264v-235h-264v235zM297 1935h258v-235h-258v235z" />
<glyph unicode="&#xdf;" horiz-adv-x="1024" d="M387 0h-262v1188q0 192 106.5 290.5t260.5 98.5q141 0 248.5 -72.5t131.5 -191.5q13 -111 13 -150q0 -227 -164 -270q121 -21 159 -167t31 -298q-18 -457 -274 -457q-74 0 -154 29v193q21 -9 62 -17q98 6 98 176v244q0 86 -23.5 133t-115.5 47v201q69 4 97 25.5t28 105.5 v135q0 60 -34 92.5t-83 32.5q-51 0 -88 -38t-37 -109v-1221z" />
<glyph unicode="&#xe0;" horiz-adv-x="1024" d="M102 811q-6 203 91.5 288t300.5 89q206 0 299.5 -76t93.5 -235v-697q0 -108 22 -180h-256q-10 25 -18 92q4 17 4 37q-94 -158 -248 -158q-57 0 -129 21q-168 55 -168 297q-6 141 46.5 217t150.5 135q53 33 156.5 75t134.5 68q41 35 41 93q0 106 -134 106q-81 -4 -98 -31 q-37 -45 -37 -141h-252zM618 608q-59 -37 -122.5 -79t-101.5 -91t-44 -119q12 -131 131 -147q45 6 58 12q32 21 47.5 41.5t25 86t6.5 167.5v129zM182 1587h316l192 -299h-209z" />
<glyph unicode="&#xe1;" horiz-adv-x="1024" d="M102 811q-6 203 91.5 288t300.5 89q206 0 299.5 -76t93.5 -235v-697q0 -108 22 -180h-256q-10 25 -18 92q4 17 4 37q-94 -158 -248 -158q-57 0 -129 21q-168 55 -168 297q-6 141 46.5 217t150.5 135q53 33 156.5 75t134.5 68q41 35 41 93q0 106 -134 106q-81 -4 -98 -31 q-37 -45 -37 -141h-252zM618 608q-59 -37 -122.5 -79t-101.5 -91t-44 -119q12 -131 131 -147q45 6 58 12q32 21 47.5 41.5t25 86t6.5 167.5v129zM547 1587h315l-303 -299h-209z" />
<glyph unicode="&#xe2;" horiz-adv-x="1024" d="M102 811q-6 203 91.5 288t300.5 89q206 0 299.5 -76t93.5 -235v-697q0 -108 22 -180h-256q-10 25 -18 92q4 17 4 37q-94 -158 -248 -158q-57 0 -129 21q-168 55 -168 297q-6 141 46.5 217t150.5 135q53 33 156.5 75t134.5 68q41 35 41 93q0 106 -134 106q-81 -4 -98 -31 q-37 -45 -37 -141h-252zM618 608q-59 -37 -122.5 -79t-101.5 -91t-44 -119q12 -131 131 -147q45 6 58 12q32 21 47.5 41.5t25 86t6.5 167.5v129zM391 1579h258l238 -299h-238l-127 168l-131 -168h-233z" />
<glyph unicode="&#xe3;" horiz-adv-x="1024" d="M102 811q-6 203 91.5 288t300.5 89q206 0 299.5 -76t93.5 -235v-697q0 -108 22 -180h-256q-10 25 -18 92q4 17 4 37q-94 -158 -248 -158q-57 0 -129 21q-168 55 -168 297q-6 141 46.5 217t150.5 135q53 33 156.5 75t134.5 68q41 35 41 93q0 106 -134 106q-81 -4 -98 -31 q-37 -45 -37 -141h-252zM618 608q-59 -37 -122.5 -79t-101.5 -91t-44 -119q12 -131 131 -147q45 6 58 12q32 21 47.5 41.5t25 86t6.5 167.5v129zM145 1264q0 100 74 173.5t172 73.5q53 0 143.5 -33.5t122.5 -37.5q84 0 105 88h133q-43 -234 -217 -248q-62 -4 -158 32 t-149 36q-58 0 -97 -84h-129z" />
<glyph unicode="&#xe4;" horiz-adv-x="1024" d="M102 811q-6 203 91.5 288t300.5 89q206 0 299.5 -76t93.5 -235v-697q0 -108 22 -180h-256q-10 25 -18 92q4 17 4 37q-94 -158 -248 -158q-57 0 -129 21q-168 55 -168 297q-6 141 46.5 217t150.5 135q53 33 156.5 75t134.5 68q41 35 41 93q0 106 -134 106q-81 -4 -98 -31 q-37 -45 -37 -141h-252zM618 608q-59 -37 -122.5 -79t-101.5 -91t-44 -119q12 -131 131 -147q45 6 58 12q32 21 47.5 41.5t25 86t6.5 167.5v129zM586 1556h264v-235h-264v235zM190 1556h261v-235h-261v235z" />
<glyph unicode="&#xe5;" horiz-adv-x="1024" d="M102 811q-6 203 91.5 288t300.5 89q206 0 299.5 -76t93.5 -235v-697q0 -108 22 -180h-256q-10 25 -18 92q4 17 4 37q-94 -158 -248 -158q-57 0 -129 21q-168 55 -168 297q-6 141 46.5 217t150.5 135q53 33 156.5 75t134.5 68q41 35 41 93q0 106 -134 106q-81 -4 -98 -31 q-37 -45 -37 -141h-252zM618 608q-59 -37 -122.5 -79t-101.5 -91t-44 -119q12 -131 131 -147q45 6 58 12q32 21 47.5 41.5t25 86t6.5 167.5v129zM518 1733q88 0 153.5 -63.5t65.5 -158.5q0 -88 -65.5 -151.5t-153.5 -63.5t-153.5 63.5t-65.5 151.5q0 95 65.5 158.5 t153.5 63.5zM518 1632q-51 0 -84 -34.5t-33 -81.5q0 -50 33 -84.5t84 -34.5t86 32.5t35 86.5q0 51 -35 83.5t-86 32.5z" />
<glyph unicode="&#xe6;" horiz-adv-x="1481" d="M772 1116q72 72 248 72q156 0 260 -84t104 -277v-295h-503v-200q0 -80 33.5 -120t84.5 -44q52 4 86.5 34.5t34.5 82.5v106h264q15 -143 -36.5 -238.5t-143.5 -140.5t-196 -45q-93 0 -168.5 35t-110.5 94q-29 -57 -110.5 -93t-178.5 -36q-90 0 -143 21q-180 65 -197 260 q-10 153 45.5 246.5t126 133.5t185 89t139.5 84q29 37 29 80q0 55 -45 81.5t-107 20.5q-113 -16 -100 -164h-269q-12 254 172 334q93 35 203 35q191 0 293 -72zM616 608q-43 -26 -93 -57t-82.5 -59.5t-55.5 -76.5t-20 -116q0 -59 31.5 -93t76.5 -38q57 4 100 50t43 118v272z M1120 735v117q0 63 -33.5 97t-82.5 34q-48 0 -85.5 -34t-37.5 -97v-117h239z" />
<glyph unicode="&#xe7;" horiz-adv-x="907" d="M559 756v125q0 47 -23.5 73.5t-66.5 26.5q-41 0 -70.5 -36t-29.5 -101v-484q0 -98 22.5 -141t73.5 -43q94 0 94 184v93h268v-125q0 -84 -27.5 -165t-101 -136.5t-206.5 -55.5l-60 -96q117 21 182.5 -22t65.5 -121t-64.5 -137.5t-187.5 -59.5q-104 0 -231 53l34 84 q82 -32 154 -32q55 0 85 24.5t30 54.5q0 66 -92 72q-68 -12 -84 -18l-39 43l102 159q-287 25 -287 402v379q0 237 91.5 334.5t273.5 97.5q184 0 273 -95.5t89 -256.5v-80v0h-268z" />
<glyph unicode="&#xe8;" horiz-adv-x="1024" d="M109 788q0 400 407 400q174 -2 258 -65.5t108.5 -165t24.5 -273.5v-160h-530v-176q0 -170 127 -176q12 4 33 4q108 12 100 215h266q10 -194 -78 -306t-272 -114q-109 -4 -207 22.5t-167.5 134.5t-69.5 316v344zM377 727h264v117q0 139 -133 139q-131 0 -131 -139v-117z M176 1587h316l192 -299h-209z" />
<glyph unicode="&#xe9;" horiz-adv-x="1024" d="M109 788q0 400 407 400q174 -2 258 -65.5t108.5 -165t24.5 -273.5v-160h-530v-176q0 -170 127 -176q12 4 33 4q108 12 100 215h266q10 -194 -78 -306t-272 -114q-109 -4 -207 22.5t-167.5 134.5t-69.5 316v344zM377 727h264v117q0 139 -133 139q-131 0 -131 -139v-117z M541 1587h315l-303 -299h-209z" />
<glyph unicode="&#xea;" horiz-adv-x="1024" d="M109 788q0 400 407 400q174 -2 258 -65.5t108.5 -165t24.5 -273.5v-160h-530v-176q0 -170 127 -176q12 4 33 4q108 12 100 215h266q10 -194 -78 -306t-272 -114q-109 -4 -207 22.5t-167.5 134.5t-69.5 316v344zM377 727h264v117q0 139 -133 139q-131 0 -131 -139v-117z M381 1579h260l236 -299h-236l-129 168l-131 -168h-234z" />
<glyph unicode="&#xeb;" horiz-adv-x="1024" d="M109 788q0 400 407 400q174 -2 258 -65.5t108.5 -165t24.5 -273.5v-160h-530v-176q0 -170 127 -176q12 4 33 4q108 12 100 215h266q10 -194 -78 -306t-272 -114q-109 -4 -207 22.5t-167.5 134.5t-69.5 316v344zM377 727h264v117q0 139 -133 139q-131 0 -131 -139v-117z M580 1556h264v-235h-264v235zM184 1556h260v-235h-260v235z" />
<glyph unicode="&#xec;" horiz-adv-x="567" d="M152 1155h264v-1155h-264v1155zM-51 1587h315l193 -299h-209z" />
<glyph unicode="&#xed;" horiz-adv-x="567" d="M152 1155h264v-1155h-264v1155zM303 1587h318l-306 -299h-206z" />
<glyph unicode="&#xee;" horiz-adv-x="567" d="M152 1155h264v-1155h-264v1155zM131 1579h260l238 -299h-238l-127 168l-133 -168h-231z" />
<glyph unicode="&#xef;" horiz-adv-x="567" d="M152 1155h264v-1155h-264v1155zM352 1556h264v-235h-264v235zM-43 1556h258v-235h-258v235z" />
<glyph unicode="&#xf7;" horiz-adv-x="1196" d="M700 942h-204v205h204v-205zM1083 639h-970v168h970v-168zM700 299h-204v205h204v-205z" />
<glyph unicode="&#xf9;" horiz-adv-x="1024" d="M172 1587h315l193 -299h-209zM616 1155h269v-1155h-256v184q-47 -217 -260 -217q-80 0 -146 33q-106 55 -106 293v862h268v-823q0 -164 115 -156q116 0 116 201v778z" />
<glyph unicode="&#xfa;" horiz-adv-x="1024" d="M616 1155h269v-1155h-256v184q-47 -217 -260 -217q-80 0 -146 33q-106 55 -106 293v862h268v-823q0 -164 115 -156q116 0 116 201v778zM541 1587h315l-303 -299h-209z" />
<glyph unicode="&#xfb;" horiz-adv-x="1024" d="M616 1155h269v-1155h-256v184q-47 -217 -260 -217q-80 0 -146 33q-106 55 -106 293v862h268v-823q0 -164 115 -156q116 0 116 201v778zM381 1599h260l236 -299h-236l-129 168l-131 -168h-234z" />
<glyph unicode="&#xfc;" horiz-adv-x="1024" d="M616 1155h269v-1155h-256v184q-47 -217 -260 -217q-80 0 -146 33q-106 55 -106 293v862h268v-823q0 -164 115 -156q116 0 116 201v778zM580 1556h264v-235h-264v235zM184 1556h260v-235h-260v235z" />
<glyph unicode="&#xff;" horiz-adv-x="907" d="M12 1155h281l123 -651l33 -268l34 268l125 651h273l-310 -1280q-32 -156 -96.5 -213t-189.5 -57q-80 0 -129 4v207h53h31q45 0 60 9t15 40q0 18 -18 110zM524 1556h264v-235h-264v235zM129 1556h258v-235h-258v235z" />
<glyph unicode="&#x131;" horiz-adv-x="567" d="M152 1155h264v-1155h-264v1155z" />
<glyph unicode="&#x152;" horiz-adv-x="1704" d="M856 1405v135h768v-227h-508v-393h471v-224h-471v-473h508v-223h-776v156q-133 -189 -295 -189q-61 0 -141 25q-144 49 -215.5 216t-71.5 421v291q0 329 128 491t302 162q104 0 185 -46t116 -122zM827 1124q0 97 -54 158t-132 61q-92 0 -160.5 -101t-68.5 -310v-299 q0 -436 213 -436q88 -4 145 53t57 225v649z" />
<glyph unicode="&#x153;" horiz-adv-x="1481" d="M748 1067q28 55 103 88t169 33q90 0 172 -33q197 -84 197 -424v-203h-504v-209q0 -69 34.5 -108t84.5 -43q51 4 85.5 42t34.5 105v76h265q0 -211 -70 -299t-195 -108q-67 -13 -125 -13q-161 0 -251 109q-89 -109 -277 -109q-37 0 -106 9q-269 49 -269 411v344 q0 330 185 414q96 39 190 39q186 0 277 -121zM360 324q0 -70 36 -109t87 -43q56 4 94.5 45t38.5 111v512q0 69 -37.5 105t-91.5 36q-51 0 -89 -40t-38 -105v-512zM1124 731v133q0 56 -34.5 86.5t-85.5 30.5q-48 0 -83.5 -31.5t-35.5 -89.5v-129h239z" />
<glyph unicode="&#x178;" horiz-adv-x="1141" d="M571 897q17 94 58 195l176 448h311l-403 -889v-651h-289v651l-399 889h311l180 -448q31 -78 51 -195h4zM635 1942h264v-236h-264v236zM240 1942h260v-236h-260v236z" />
<glyph unicode="&#x192;" horiz-adv-x="1024" d="M176 1016h256q25 201 72 313.5t119.5 165.5t177.5 53q90 0 198 -32l-47 -211q-47 26 -84 26q-63 0 -107 -82t-56 -233h231v-193h-260l-144 -807q-45 -192 -111.5 -292.5t-252.5 -100.5q-62 0 -168 21l47 227q59 -18 88 -18q101 0 121 163l147 807h-227v193z" />
<glyph unicode="&#x2c6;" horiz-adv-x="680" d="M209 1620h260l236 -299h-236l-129 168l-131 -168h-234z" />
<glyph unicode="&#x2c7;" horiz-adv-x="2048" d="M256 0v1536h1536v-1536h-1536zM384 128h1280v1280h-1280v-1280z" />
<glyph unicode="&#x2d8;" horiz-adv-x="680" d="M131 1599q6 -143 201 -143q102 0 155.5 34t65.5 109h135q-39 -290 -348 -299q-135 0 -239.5 72t-104.5 227h135z" />
<glyph unicode="&#x2d9;" horiz-adv-x="682" d="M432 1251h-184v205h184v-205z" />
<glyph unicode="&#x2da;" horiz-adv-x="680" d="M340 1733q88 0 153.5 -63.5t65.5 -158.5q0 -88 -65.5 -151.5t-153.5 -63.5t-153.5 63.5t-65.5 151.5q0 95 65.5 158.5t153.5 63.5zM340 1632q-51 0 -84 -34.5t-33 -81.5q0 -50 33 -84.5t84 -34.5t86 32.5t35 86.5q0 51 -35 83.5t-86 32.5z" />
<glyph unicode="&#x2db;" horiz-adv-x="682" d="M621 -365q-120 -61 -220 -61q-96 0 -157.5 60t-61.5 161q0 85 41 230h125q-39 -91 -39 -166q0 -66 40.5 -109t103.5 -43q77 0 168 47v-119z" />
<glyph unicode="&#x2dc;" horiz-adv-x="680" d="M-33 1305q0 98 73 172.5t173 74.5q53 0 143 -33.5t123 -37.5q84 0 105 88h133q-45 -238 -217 -248q-62 -4 -158 32t-149 36q-39 0 -58.5 -21.5t-38.5 -62.5h-129z" />
<glyph unicode="&#x2dd;" horiz-adv-x="682" d="M764 1491l-221 -281h-148l133 281h236zM426 1491l-221 -281h-148l133 281h236z" />
<glyph unicode="&#x3c0;" horiz-adv-x="1389" d="M1356 913h-261v-913h-181v913h-440v-913h-180v913h-261v148h1323v-148z" />
<glyph unicode="&#x1000;" horiz-adv-x="1303" d="M1247 354q0 -157 -106.5 -264.5t-270.5 -112.5l-59 304l27 -13l32 -10q45 0 66 35q22 20 25 51v502q0 90 -93 90q-88 2 -88 -90v-502q0 -20 -4 -72q-4 -88 -61 -159q-88 -103 -226 -131l-47 272q60 0 74 84v502q0 88 -96 92q-86 2 -86 -92v-502q0 -80 69 -84l-51 -272 q-116 26 -221 131q-84 106 -84 241v449q0 158 110.5 269.5t262.5 111.5q127 0 227 -74q72 70 223 74q156 2 269 -117q108 -104 108 -264v-449z" />
<glyph unicode="&#x1001;" horiz-adv-x="781" d="M127 283q32 -14 67.5 -24.5t77.5 -12.5q-9 29 -20 58.5t-23.5 49t-27.5 25.5t-33 -12q-22 -20 -30.5 -39t-10.5 -45zM338 1180q35 1 71.5 -2t71.5 -13t67 -27t58 -44q43 -42 66 -82.5t33 -77.5t11 -70.5t1 -62.5v-449q0 -78 -27.5 -146t-83.5 -124q-49 -53 -118 -79 t-150 -28h-15t-28 1q-18 0 -39 1q-42 0 -79 16t-64.5 43.5t-43.5 64t-16 77.5v160q1 33 4 64.5t12 60t27 52t49 40.5q31 19 61 14.5t57 -25.5t50 -54t42 -70.5t32 -75.5t19 -68q11 11 16.5 22.5t5.5 27.5v501q0 42 -23.5 67.5t-58.5 25.5h-27q-91 0 -150 -17.5t-93 -42.5 q-18 -14 -23 -24v141q0 43 16 80t43.5 64.5t64.5 43t79 15.5h82z" />
<glyph unicode="&#x1002;" horiz-adv-x="840" d="M799 322q0 -115 -62.5 -210.5t-167.5 -138.5l-118 234q65 14 65 88v504q0 84 -94 86q-29 2 -60 -23q-14 -33 -24 -63v-504q0 -76 65 -88l-129 -234q-102 39 -168 133q-59 113 -59 216v452q0 160 108.5 265.5t264.5 107.5q158 2 268.5 -105.5t110.5 -267.5v-452z" />
<glyph unicode="&#x1003;" horiz-adv-x="1303" d="M1248 352q0 -81 -27.5 -149.5t-77 -119t-118 -79t-150.5 -29.5q-32 0 -65 4t-63 13t-55 23.5t-42 35.5q-101 -73 -225 -76q-154 -3 -266 107q-109 115 -109 270v176q0 32 12.5 68t27.5 74.5t27.5 79.5t12.5 84q0 12 -5 23t-22 17q-11 0 -24.5 -11.5t-28.5 -37.5v242 q24 33 51 59q23 23 51.5 41.5t57.5 18.5q34 1 59.5 -10.5t46 -31t37 -45.5t31.5 -55q9 -19 14 -42t8 -44q3 -25 4 -49l-3.5 -16t-9 -42t-12.5 -58t-13.5 -62t-12 -55t-8.5 -37q-6 -25 -8 -44t-2 -30v-241q0 -44 22 -64t64 -22q48 -5 71 18t23 68v501q0 34 -18.5 53.5 t-55.5 30.5l47 262q33 -5 67.5 -14t67.5 -25t62.5 -39t52.5 -57q18 -27 27 -57.5t12 -61.5t2.5 -60.5t-0.5 -55.5v-498q0 -86 90 -92q44 -3 68 21.5t24 70.5v498q0 25 -19.5 49t-70.5 37q-12 0 -29 -2.5t-34 -12.5l61 308q75 0 139 -27t121 -84q113 -101 113 -268v-449z" />
<glyph unicode="&#x1004;" horiz-adv-x="785" d="M436 1184q2 -2 14 -2.5t27 0.5q17 0 39 2q42 0 79 -16t64.5 -44t43.5 -66t16 -81v-141q-3 6 -9.5 11t-11.5 13q-35 25 -94.5 42.5t-148.5 17.5h-27q-37 0 -59.5 -24.5t-22.5 -68.5v-501q0 -18 8 -33t20.5 -26t29 -17t34.5 -6h19q71 0 124 15.5t95 41.5q12 9 23 19t20 18 v-160q0 -41 -16 -77.5t-43.5 -64t-64.5 -43.5t-79 -16q-22 -1 -39 -1h-27t-14 1q-83 0 -150 27.5t-118 77.5q-113 113 -113 270v449q0 29 1 62.5t11.5 70.5t33.5 77.5t67 82.5q27 27 59 44t66.5 27.5t71 14.5t71.5 4z" />
<glyph unicode="&#x1005;" horiz-adv-x="840" d="M799 352q0 -78 -27.5 -146t-83.5 -124q-51 -53 -120.5 -79t-149.5 -28q-161 -3 -264 107q-54 57 -80.5 124.5t-28.5 145.5q0 65 80 150l117 80l-115 67q-40 37 -61 75.5t-21 76.5q-3 78 24.5 143t84.5 121q54 59 121 87t143 28q80 0 147.5 -27t120.5 -86q57 -53 85 -118 t28 -148v-449zM512 334v500q0 89 -94 92q-42 2 -64 -22t-22 -70q0 -60 88 -156l92 -103l-92 -98q-44 -46 -65 -81.5t-23 -61.5q-2 -22 4.5 -37t18.5 -25t28.5 -15.5t34.5 -6.5q94 0 94 84z" />
<glyph unicode="&#x1006;" horiz-adv-x="1201" d="M117 286q57 -31 140 -39q-8 30 -19 59t-23.5 48.5t-28 25t-32.5 -10.5q-19 -20 -28 -39.5t-9 -43.5zM694 314q0 -29 19.5 -48.5t48.5 -19.5h35q29 0 48.5 19.5t19.5 48.5v525q0 29 -19.5 48.5t-48.5 19.5h-35q-27 0 -46.5 -18t-21.5 -45q1 -11 1 -23.5v-23.5zM1150 356 q0 -157 -108 -265q-51 -51 -117 -77.5t-146 -28.5q-128 -4 -227 75q-96 -74 -229 -75h-41q-18 0 -39 1q-41 0 -77.5 15.5t-63.5 42.5t-42.5 63.5t-15.5 77.5v158l1 -3q1 32 4 63t13 59t27.5 51.5t47.5 41.5t59 13.5t55 -25t49 -53t41.5 -69.5t32 -74.5t20.5 -68.5 q18 21 18 49v492q0 42 -23 65.5t-58 23.5h-24q-91 0 -149 -15.5t-93 -42.5q-6 -5 -11 -10l-10 -10v139q0 41 15.5 77.5t42.5 63.5t63.5 43t77.5 16q21 -1 39 -1h41q62 2 126 -13t115 -54q47 32 100.5 49t114.5 19q151 1 261 -107q110 -110 110 -265v-441z" />
<glyph unicode="&#x1007;" horiz-adv-x="840" d="M735 369q-18 28 -61 53l-318 170l76 76q33 37 66 92q14 18 20 65q0 47 -30.5 74t-73.5 27q-95 2 -95 -92v-500q0 -84 95 -84q43 0 73 35l13 49l258 -131q-41 -88 -137 -166q-97 -60 -205 -62q-154 -2 -264.5 109t-110.5 268v449q0 164 107.5 269.5t267.5 109.5 q135 4 260 -115q117 -107 119 -264q0 -78 -80 -152q-27 -26 -86 -61l102 -39z" />
<glyph unicode="&#x1008;" horiz-adv-x="1231" d="M1174 -537q0 -90 -31 -151q-29 -53 -86 -55l-58 14l-538 151v277l49 -12v272h266v-350l121 -37v1614h277v-1723zM811 352q0 -78 -28 -146t-81 -124q-105 -104 -270 -107q-163 -3 -264 107q-110 113 -113 270q0 67 82 150l117 80l-115 67q-84 75 -84 152q-3 154 113 264 q56 59 121 87t143 28q82 0 147 -27t119 -86q56 -53 84.5 -118t28.5 -148v-449zM524 334v500q0 89 -92 92q-43 2 -63.5 -22t-20.5 -70q0 -29 21 -68.5t67 -87.5l88 -103l-88 -98q-45 -46 -65.5 -81.5t-22.5 -61.5q-2 -22 3.5 -37t17 -25t28 -15.5t35.5 -6.5q92 0 92 84z" />
<glyph unicode="&#x1009;" horiz-adv-x="747" d="M325 1180q35 0 71.5 -4t71 -14t66.5 -27t59 -43q43 -43 65.5 -83t32 -77t10.5 -70t1 -61v-449q0 -78 -26.5 -146t-82.5 -124q-46 -45 -105 -72.5t-130 -34.5v-454l514 2v117h285v-166q0 -48 -18.5 -90.5t-50.5 -75t-75 -51.5t-92 -19h-592q-48 0 -94 16.5t-82.5 46.5 t-59 71.5t-22.5 92.5v603q-15 24 -23 53t-8 55v162q8 -9 19 -20.5t22 -20.5q44 -25 96.5 -40t121.5 -15h24q18 0 34.5 6t29 17t20.5 26t8 33v501q0 44 -24.5 67t-61.5 23h-20q-91 0 -152.5 -17t-95.5 -46q-6 -3 -11 -7.5t-10 -10.5v143q0 43 16 80t44 64.5t65 43t78 15.5 q21 -1 39 -1h28t15 1z" />
<glyph unicode="&#x100a;" horiz-adv-x="1197" d="M688 305v-2q0 -28 20.5 -46.5t49.5 -18.5h37q24 0 44.5 18.5t20.5 46.5v537q0 15 -5.5 27.5t-15 22.5t-21 15.5t-23.5 5.5h-52q11 32 23.5 98t32.5 162q139 -3 241 -106q57 -56 83 -121.5t26 -146.5v-449q0 -78 -25.5 -147t-81.5 -123q-100 -104 -270 -107 q-127 -3 -227 76q-42 -32 -92.5 -51.5t-104.5 -24.5v-452h510v112h285v-166q0 -47 -18.5 -88.5t-50 -73.5t-74.5 -50.5t-91 -18.5h-590q-48 0 -95 16.5t-84 46.5t-60 71.5t-23 92.5v600q-15 25 -21.5 53.5t-6.5 57.5v160q6 -8 17.5 -18.5t27.5 -18.5q40 -31 93 -44t124 -13 h18q18 0 34.5 6t30 16.5t21.5 25t8 31.5v504q0 42 -24.5 66t-59.5 24h-22q-94 0 -154 -17.5t-94 -45.5q-14 -7 -20 -21v146q0 43 15.5 80t42.5 64.5t63 43t77 15.5q23 -1 41 -2q16 -1 30 -0.5t17 2.5q33 0 69 -4.5t71 -15t67 -27.5t58 -42q43 -42 65.5 -82t32.5 -77t11 -70 t1 -61q-1 -134 -1 -240q0 -45 -0.5 -89t-0.5 -79.5v-58v-25.5z" />
<glyph unicode="&#x100b;" horiz-adv-x="768" d="M693 -469q19 0 33.5 7.5t36.5 33.5v-270q0 -28 -22.5 -44t-47.5 -16h-131q-74 10 -117 63.5t-43 141.5v102h-213q-24 0 -40.5 6t-26.5 15t-14.5 20.5t-4.5 22.5v188q0 21 7 44t20.5 41.5t33.5 31t46 12.5h266q26 0 57 6t59.5 19t51 33t31.5 49v-170q-12 -12 -30.5 -23.5 t-43.5 -21t-56.5 -15.5t-68.5 -6h-123q-13 0 -19.5 -8t-6 -17.5t7 -17.5t18.5 -8h215q32 0 54 -18t22 -56v-145h49zM427 1184h84q40 0 76 -16t63 -43.5t43 -64.5t16 -79v-141q-3 5 -8.5 9t-11.5 13q-34 25 -94 42.5t-156 17.5h-18q-38 0 -63.5 -25.5t-25.5 -69.5v-499 q0 -18 8.5 -33t22 -26t30.5 -17t34 -6h22q68 0 121.5 15.5t93.5 41.5q16 8 26.5 18t18.5 19v-156q0 -43 -16 -80t-43 -64.5t-63 -43.5t-76 -16l-84 -3q-82 2 -150.5 29.5t-122.5 81.5q-51 53 -78.5 120.5t-27.5 145.5v449q0 30 1 63.5t10.5 70.5t31.5 77t63 82q29 27 62 44 t68 27t71 14t72 3z" />
<glyph unicode="&#x100c;" horiz-adv-x="802" d="M442 1184h82q43 0 80.5 -16t65 -43.5t43.5 -64.5t16 -79v-141q-6 5 -11 9t-13 13q-32 25 -91.5 42.5t-152.5 17.5h-23q-37 0 -60.5 -25.5t-23.5 -69.5v-499q0 -18 8 -33t20.5 -26t29 -17t34.5 -6h19q72 0 124.5 15.5t92.5 41.5q15 8 26.5 18t20.5 19v-156q0 -28 -6.5 -52 t-17.5 -44v-598q0 -51 -14.5 -95.5t-40.5 -77.5t-61 -52t-77 -19h-338q-12 0 -28 4.5t-30.5 12t-25 18.5t-10.5 23v270q20 -14 46 -27.5t48 -13.5h242v447q-73 3 -132.5 31t-109.5 77q-56 53 -83.5 120.5t-27.5 145.5v449q0 30 1.5 63.5t11.5 70.5t33 76t65 81 q28 27 60.5 45t67 28t70 14t70.5 3z" />
<glyph unicode="&#x100d;" horiz-adv-x="794" d="M339 1178q34 1 70 -3t71 -14t67.5 -27t59.5 -44q42 -42 64.5 -82t32.5 -76.5t11 -70t1 -62.5v-449q0 -78 -27.5 -147t-81.5 -123q-51 -53 -118.5 -79t-149.5 -28h-15t-28 1q-18 0 -39 1q-43 0 -80.5 16t-65 43.5t-43.5 64t-16 77.5v162q11 -11 22.5 -22t25.5 -19 q38 -25 92 -40t123 -15h18q18 0 35.5 6t31 17t21.5 26t8 33v501q0 41 -23.5 65.5t-60.5 24.5h-22q-94 0 -153 -17t-93 -46q-8 -5 -12.5 -8.5t-12.5 -9.5v143q0 42 16 79t43.5 64t65 42.5t80.5 15.5h82zM718 -471q23 0 49.5 13t46.5 30v-272q0 -14 -10.5 -25t-25.5 -19 t-31.5 -12t-28.5 -4h-150v2q-38 3 -67.5 19t-50.5 42t-32 61t-11 77v289h-213q-26 0 -42 5.5t-25 14t-12 19t-3 20.5v184q8 -17 28 -30t54 -13h426q34 0 53.5 -16.5t19.5 -54.5v-330h25z" />
<glyph unicode="&#x100e;" horiz-adv-x="840" d="M651 51q-29 -21 -55.5 -35.5t-53.5 -23t-55.5 -12.5t-60.5 -5q-154 -3 -264 107q-57 57 -84 124.5t-27 145.5v170q0 37 8 74.5t20 75.5t26 78.5t26 83.5q5 12 -3 23t-24 17q-11 0 -23.5 -11.5t-29.5 -37.5v242q24 33 51 59q23 23 52.5 41.5t60.5 18.5q31 1 55.5 -10.5 t44 -31t35 -45.5t29.5 -55q7 -12 13 -36.5t9.5 -51t4 -50t-2.5 -32.5q0 1 -3 -13t-8 -36t-11 -49t-11.5 -53.5t-10.5 -49t-7 -34.5q-6 -50 -6 -74v-241q0 -44 20 -64t62 -22q48 -5 71 18t23 68v501q0 34 -18.5 53.5t-57.5 30.5l48 262q34 -5 72 -16.5t74.5 -30.5t68.5 -47.5 t53 -68.5q14 -27 19.5 -53t7 -51.5t0.5 -51t-1 -51.5v-498q0 -21 -9 -53.5t-26.5 -68t-43 -70.5t-58.5 -60z" />
<glyph unicode="&#x100f;" horiz-adv-x="1740" d="M1683 352q0 -159 -105 -265.5t-269 -111.5l-60 304l62 -21q61 0 84 82v506q0 88 -92 90q-43 0 -82 -62v-571q0 -102 -9.5 -126.5t-76.5 -94.5q-107 -105 -271 -107q-159 -2 -264 101q-16 16 -49 55q-4 10 -14.5 23.5t-15.5 28t-9 55.5v38v64v504q0 90 -92 92 q-92 0 -92 -92v-504q0 -23 24 -57q21 -15 64 -29q30 0 57 25l-57 -304q-154 0 -262.5 110t-108.5 267v449q0 151 103.5 265t267.5 114q57 0 123.5 -19.5t101.5 -54.5q94 70 223 74q115 4 223 -70l33 16l62 31q12 4 67 14q15 0 60 9q149 0 261.5 -107.5t112.5 -271.5v-449z M952 334v502q0 90 -88 92q-94 4 -94 -92v-502q0 -82 94 -82q33 0 56 20q10 13 32 62z" />
<glyph unicode="&#x1010;" horiz-adv-x="1303" d="M516 334v502q0 90 -94 92q-84 4 -84 -92v-502q0 -31 20 -62q17 -20 64 -20q94 -2 94 82zM420 -25q-152 -2 -262.5 110t-110.5 267v449q0 164 108.5 269.5t264.5 109.5q123 4 227 -74q35 29 94 51q45 12 129 23q152 0 264.5 -107.5t112.5 -271.5v-449 q0 -159 -105.5 -265.5t-271.5 -111.5l-59 304l61 -21q66 0 89 82v506q0 88 -93 90q-88 0 -88 -90v-506q0 -102 -10 -139q-14 -54 -80 -119q-106 -105 -270 -107z" />
<glyph unicode="&#x1011;" horiz-adv-x="1303" d="M1247 352q0 -159 -105.5 -267t-271.5 -110q-135 -2 -221 76q-94 -74 -229 -76q-152 -2 -262.5 110t-110.5 267v449q0 164 108.5 269.5t264.5 109.5q123 4 227 -74q35 29 94 51q45 12 129 23q152 0 264.5 -107.5t112.5 -271.5v-449zM961 334v502q0 90 -91 92 q-86 4 -86 -92v-502q0 -25 19 -62q20 -20 67 -20q91 -2 91 82zM516 334v502q0 90 -94 92q-84 4 -84 -92v-502q0 -31 20 -62q17 -20 64 -20q94 -2 94 82z" />
<glyph unicode="&#x1012;" horiz-adv-x="760" d="M334 1184q35 0 72 -4t72.5 -14.5t67.5 -27.5t58 -44q43 -42 66 -82.5t33 -77.5t11 -70.5t1 -62.5l-180 -221l180 -228q0 -78 -27.5 -144.5t-83.5 -119.5q-51 -54 -119 -82.5t-151 -28.5h-86q-42 0 -78.5 16t-63.5 43.5t-43 64t-16 77.5v160q6 -8 18.5 -18t24.5 -19 q40 -26 98 -41.5t127 -15.5h17q18 0 34.5 6t30 17t21.5 26t8 33l-150 247l150 254q0 44 -23.5 68.5t-60.5 24.5h-27q-47 0 -84.5 -4.5t-68 -13t-55 -19.5t-44.5 -23q-5 -8 -9 -13t-7 -11v141q0 43 16 81t43 66t63.5 44t78.5 16q24 -2 42 -2q16 -1 29.5 -0.5t14.5 2.5z" />
<glyph unicode="&#x1013;" horiz-adv-x="840" d="M799 352q0 -157 -107.5 -266t-271.5 -111q-152 -2 -262.5 110t-110.5 267v449q0 164 108.5 269.5t264.5 109.5q155 4 267 -106.5t112 -272.5v-449zM516 473v371q0 88 -96 90q-86 2 -86 -90v-350l24 94q21 76 62 76q18 0 53 -58zM510 301l-37 113q-16 51 -53 59 q-17 0 -51 -70l-27 -94l23 -30q18 -13 55 -27q41 0 90 49z" />
<glyph unicode="&#x1014;" horiz-adv-x="840" d="M389 281q-16 45 -96 77l-51 11q-39 0 -62 -25q-10 -20 6.5 -36.5t53.5 -26.5h149zM563 -29v-714h-274v716h-49q-72 0 -123 35q-27 23 -56 84l-16 80v96q0 129 68 181q30 28 104 28q55 0 109 -28l69 -52q8 -4 33 -49l18 -63q33 0 64 24q8 23 16 60q0 20 -14 47l-313 262 q-105 84 -97 213l11 127q32 166 249 166h160q70 0 99 -15q41 -8 73 -47q37 -22 62 -75q24 -39 24 -86l-213 -82q0 45 -45 47h-207l226 -221q188 -185 233 -256q25 -58 25 -148v-61v-68q-4 -43 -15 -70q-20 -79 -120 -120q-33 -7 -101 -11z" />
<glyph unicode="&#x1015;" horiz-adv-x="840" d="M569 1149q97 -39 163.5 -134t66.5 -214v-449q0 -157 -107.5 -266t-271.5 -111q-152 -2 -262.5 110t-110.5 267v449q0 250 227 348l129 -234q-65 -6 -65 -88v-499q0 -31 20 -70q21 -16 64 -16q94 -2 94 86v499q0 68 -65 88z" />
<glyph unicode="&#x1016;" horiz-adv-x="840" d="M799 352q0 -155 -107.5 -265t-273.5 -112q-154 -2 -263.5 109t-109.5 268v449q0 256 229 348l109 -252q-64 -12 -64 -90v-500q0 -84 95 -84q65 0 86 84v129l-64 178l-22 101l-11 92q-2 55 13 129q10 55 69 121l84 92q107 -43 162 -135l45 -99q23 -38 23 -114v-449z M518 596v172q0 92 -33 117q-20 -8 -22 -33l2 -90q2 -47 20 -80z" />
<glyph unicode="&#x1017;" horiz-adv-x="840" d="M518 797q-29 -35 -40 -43.5t-50 -16.5q-25 0 -47 13l-43 47v-459q0 -86 84 -86q90 -2 96 86v459zM735 1014q64 -92 64 -213v-449q0 -157 -107.5 -266t-271.5 -111q-152 -2 -262.5 110t-110.5 267v449q0 250 227 348l52 -160q36 -110 94 -112q37 -3 67 38l82 234l58 -31 l37 -24q26 -23 71 -80z" />
<glyph unicode="&#x1018;" horiz-adv-x="1226" d="M717 354q0 -27 -1 -60t-11 -70t-33 -77t-66 -81q-26 -26 -58 -43.5t-67 -28t-71.5 -15t-71.5 -4.5q-2 1 -15 1h-28q-18 0 -39 -1q-42 0 -79 16t-64.5 44t-43.5 65t-16 78v146q3 -8 8 -14t15 -9q34 -26 93.5 -41.5t152.5 -15.5h26q34 0 57 23t23 65v502q0 18 -8 34 t-21.5 27.5t-30 18t-34.5 6.5h-17q-69 0 -123 -17.5t-96 -42.5q-14 -12 -26.5 -22.5t-18.5 -16.5v156q0 43 16 80t43.5 64.5t64.5 43t79 15.5q21 0 39 1q15 0 28 0.5t15 -1.5q68 0 127.5 -19.5t105.5 -54.5q51 38 108 57.5t122 16.5q81 0 149 -27.5t121 -83.5 q107 -101 107 -266v-449q0 -78 -26.5 -145.5t-82.5 -126.5q-53 -50 -113.5 -76.5t-132.5 -28.5q-17 97 -28.5 165.5t-20.5 103.5q5 -2 7.5 -2h4.5h35q14 0 27 5t23.5 14t17 21t6.5 25v537q0 15 -6.5 28t-17 23.5t-23.5 16.5t-27 6h-35q-32 0 -50.5 -22.5t-18.5 -51.5v-492z " />
<glyph unicode="&#x1019;" horiz-adv-x="840" d="M518 442v375q0 82 -72 96l123 236q97 -39 163.5 -134t66.5 -214v-449q0 -157 -107.5 -266t-271.5 -111q-152 -2 -262.5 110t-110.5 267v449q0 250 227 348l121 -236q-67 -16 -67 -96v-377q6 78 28 105q19 63 62 78q28 0 63 -70l29 -51zM334 313q24 -61 86 -61q61 0 92 61 q0 54 -23 107q-26 67 -69 72q-19 0 -58 -78z" />
<glyph unicode="&#x101a;" horiz-adv-x="1303" d="M1247 352q0 -159 -105.5 -267t-271.5 -110q-65 0 -127.5 17.5t-95.5 58.5q-100 -74 -227 -76q-152 -2 -262.5 110t-110.5 267v449q0 137 86 242.5t219 127.5l51 -272q-69 0 -69 -76v-506q0 -86 86 -88q96 -2 96 88v506q0 74 -74 76l47 272q140 -22 226 -127 q26 -32 61 -116l10 -37l-2 -31l-4 -47v-504q0 -82 88 -86q93 -2 93 86v504q0 27 -23 53.5t-68 30.5q-18 0 -59 -14l59 297q152 0 264.5 -107.5t112.5 -271.5v-449z" />
<glyph unicode="&#x101b;" horiz-adv-x="866" d="M326 602v-292q0 -71 61 -116q9 0 14 17t7 45.5t0.5 65.5t-7.5 78q-5 32 -17 67t-25 65q-15 35 -33 70zM857 -512l-184 -254q-156 0 -156 201l3 1392q0 91 -90 91q-35 0 -63 -28q-14 -17 -25 -63v-167q24 -38 43 -76.5t36 -89.5q12 -36 20 -67t12 -61t5 -62t0 -72 q-2 -48 -16 -96.5t-38.5 -87.5t-59 -64.5t-77.5 -26.5q-14 0 -35.5 11t-45.5 30t-47.5 43t-41.5 51q-36 54 -47.5 110t-11.5 108v483q0 165 108 272q111 108 268 111q156 4 271 -108q112 -111 112 -275v-1124q0 -88 3 -107q12 -64 57 -74z" />
<glyph unicode="&#x101c;" horiz-adv-x="1303" d="M516 330v497q0 88 -96 88q-31 0 -52.5 -21.5t-33.5 -66.5v-497q0 -86 86 -88q35 0 67 22l-67 -289q-154 0 -263.5 111t-109.5 266v449q0 164 108.5 269.5t264.5 109.5q160 6 268 -103q62 -61 82 -116q10 -39 10 -148v-504q0 -82 88 -86q93 -2 93 86v504q0 27 -23 53.5 t-68 30.5q-18 0 -59 -14l59 297q152 0 264.5 -107.5t112.5 -271.5v-449q0 -159 -105.5 -267t-271.5 -110q-151 -2 -266 107q-53 59 -70.5 94t-17.5 154z" />
<glyph unicode="&#x101d;" horiz-adv-x="840" d="M332 844v-537q0 -26 20 -45.5t51 -19.5h37q29 0 50.5 19.5t21.5 45.5v537q0 31 -21.5 51t-50.5 20h-37q-31 0 -51 -20t-20 -51zM799 352q0 -78 -27.5 -146t-83.5 -124q-51 -53 -120 -79t-150 -28q-75 -2 -141.5 24.5t-120.5 82.5q-111 114 -111 270v449q0 83 27 149.5 t78 116.5q111 110 268 113q156 6 270 -111q56 -54 83.5 -119.5t27.5 -148.5v-449z" />
<glyph unicode="&#x101e;" horiz-adv-x="1235" d="M717 309q0 -26 18.5 -45.5t50.5 -19.5h35q14 0 27 5t23.5 14t17 21t6.5 25v537q0 15 -6.5 28t-17 23.5t-23.5 16.5t-27 6h-35q-2 0 -4.5 -0.5t-7.5 -4.5q9 36 20.5 102t28.5 163q72 -2 132.5 -28.5t113.5 -80.5q56 -56 82.5 -121.5t26.5 -148.5v-449q0 -78 -26.5 -144.5 t-80.5 -119.5q-53 -54 -121 -82.5t-149 -28.5q-65 -2 -122 18t-108 58q-46 -37 -105.5 -56.5t-127.5 -19.5q-2 -1 -15 -1h-28q-18 0 -39 1q-42 0 -79 16t-64.5 43.5t-43.5 64t-16 77.5v160q6 -8 18.5 -18t26.5 -19q42 -26 96 -41.5t123 -15.5h17q18 0 34.5 6t30 17t21.5 26 t8 33v501q0 44 -23 68.5t-57 24.5h-26q-93 0 -152.5 -17.5t-93.5 -42.5q-18 -14 -23 -24v141q0 43 16 81t43.5 66t64.5 44t79 16q21 -2 39 -2q15 -1 28 -0.5t15 2.5q35 0 71.5 -4t71.5 -14.5t67 -27.5t58 -44q43 -42 66 -82.5t33 -77.5t11 -70.5t1 -62.5v-492z" />
<glyph unicode="&#x101f;" horiz-adv-x="1303" d="M647 1106q35 29 94 51q45 12 129 23q152 0 264.5 -107.5t112.5 -271.5v-449q0 -159 -105.5 -265.5t-271.5 -111.5l-59 304l63 -21q66 0 87 86v502q0 88 -93 90q-47 0 -70.5 -20.5t-23.5 -63.5l2 -549q0 -102 -16.5 -132t-69.5 -89q-100 -105 -270 -107 q-152 -2 -262.5 110t-110.5 267v449q0 250 227 348l129 -234q-65 -6 -65 -88v-499q0 -31 20 -70q21 -16 64 -16q94 -2 94 86v499q0 68 -65 88l118 234q37 -14 78 -43z" />
<glyph unicode="&#x1020;" horiz-adv-x="781" d="M590 -469q21 0 47 12.5t45 28.5v-270q0 -14 -10 -25t-24.5 -19t-30 -12t-27.5 -4h-314q-41 0 -76 19t-60.5 52.5t-40.5 78.5t-15 96v371q0 42 22 57.5t56 15.5h282v43h-18q-81 2 -149 28t-119 79q-56 56 -82.5 124t-26.5 146v449q0 29 1 62.5t11 70.5t32.5 76.5 t64.5 81.5q26 27 58 45t67 28t71.5 13t71.5 2h86q41 0 77.5 -15.5t64 -43t43.5 -64.5t16 -80v-141q-6 6 -11.5 10.5t-11.5 13.5q-34 25 -93 42.5t-153 17.5h-24q-35 0 -60.5 -25.5t-25.5 -67.5v-501q0 -18 8 -33t21.5 -26t30 -17t34.5 -6h23q71 0 124 15.5t91 41.5 q15 6 27 17t20 20v-160q0 -26 -8 -53.5t-23 -50.5v-101v2v-182q0 -10 -3.5 -20.5t-12.5 -19.5t-25 -15t-41 -6h-227v-201h217z" />
<glyph unicode="&#x1021;" horiz-adv-x="1248" d="M848 246q20 3 37.5 21.5t17.5 41.5v99q-49 -80 -55 -162zM328 1184q69 0 130 -22.5t113 -65.5q51 40 112 62.5t132 25.5q78 0 144 -27t124 -86q56 -56 83.5 -121.5t27.5 -148.5v-449q0 -158 -109 -264q-105 -106 -268 -111q-3 36 -11 103t-18 166q5 66 35.5 126t79.5 117 v357q0 29 -21.5 51.5t-50.5 22.5h-32q-30 0 -48.5 -18t-28.5 -39.5t-13.5 -40.5t-3.5 -21l-179 -223l179 -226q0 -78 -26.5 -144.5t-80.5 -119.5q-54 -54 -120.5 -82.5t-149.5 -28.5h-88q-42 0 -79.5 16t-65.5 43.5t-44 64t-16 77.5v160q9 -8 20 -18t25 -19 q40 -26 98.5 -41.5t124.5 -15.5h23q18 0 34.5 6t29 17t20.5 26t8 33l-176 247l176 254q0 44 -24.5 68.5t-61.5 24.5h-29q-93 0 -153 -17.5t-95 -42.5q-5 -8 -10 -13t-10 -11v141q0 43 16 81t44 66t65.5 44t79.5 16q24 -2 43 -2q17 -1 30.5 -0.5t14.5 2.5z" />
<glyph unicode="&#x1022;" horiz-adv-x="1303" d="M1249 807v-451q0 -78 -28 -145.5t-85 -118.5q-111 -112 -260 -112l-61 313q17 -11 34 -15t29 -4q51 16 70.5 38.5t19.5 43.5v504q0 48 -24 71t-68 21q-90 -3 -90 -92v-504q0 -23 0.5 -51t-2.5 -58.5t-12 -62t-27 -59.5q-23 -35 -52.5 -58.5t-62.5 -39.5t-67.5 -25 t-67.5 -16l-47 266q74 21 74 86v502q0 43 -23 67t-71 21q-86 -3 -86 -88v-242q0 -14 2 -33.5t8 -42.5q2 -9 6 -25.5t8.5 -37t9.5 -44t10 -46.5q11 -55 25 -117q-1 -24 -4 -49q-3 -21 -8 -44.5t-14 -41.5q-15 -30 -31.5 -56t-37 -45.5t-46 -30.5t-59.5 -10q-29 0 -57.5 18 t-51.5 40q-27 26 -51 59v246q15 -26 28.5 -36.5t24.5 -10.5q17 5 22 13t5 24q0 41 -12.5 82t-27.5 79.5t-27.5 75t-12.5 68.5v174q0 161 109 268q113 114 266 111q63 -2 118.5 -19.5t106.5 -54.5q17 20 42 34t55 23t63 13t65 4q82 -1 150.5 -30t118 -79.5t77 -119.5 t27.5 -150z" />
<glyph unicode="&#x1023;" horiz-adv-x="1303" d="M1247 354q0 -157 -106.5 -264.5t-270.5 -112.5l-59 304l27 -13l32 -10q45 0 66 35q22 20 25 51v502q0 90 -93 90q-88 2 -88 -90v-502q0 -20 -4 -72q-4 -88 -61 -159q-88 -103 -226 -131l-47 272q60 0 74 84v502q0 88 -96 92q-86 2 -86 -92v-502q0 -80 69 -84l-51 -272 q-116 26 -221 131q-84 106 -84 241v449q0 158 110.5 269.5t262.5 111.5q127 0 227 -74q72 70 223 74q156 2 269 -117q108 -104 108 -264v-449zM219 -485v100q0 121 80 202t203 83q92 2 168 -56l22 15l51 24l43 13l56 4q186 0 252 -176q24 -52 24 -109v-164h45v-192h-137 q-41 0 -76 41q-30 32 -30 82l-5 212q-4 66 -69 70q-74 4 -74 -70v-110l-199 4v111q0 69 -71 71q-70 2 -70 -71v-109z" />
<glyph unicode="&#x1024;" horiz-adv-x="1681" d="M1379 -757v1532q0 37 -5 85t-23.5 99t-56 102t-102.5 96q-50 7 -95.5 35.5t-80.5 64.5q-85 86 -85 201v209q0 58 22.5 105t61.5 80t90 51.5t108 19.5q57 0 107 -18.5t91.5 -45.5t74 -56t53.5 -50l25 -27l-2 -235q-15 14 -39 36.5t-54 47.5t-63 50t-64 45.5t-58.5 33 t-45.5 12.5h-37q-23 0 -37.5 -15.5t-14.5 -38.5v-212q0 -23 14.5 -38.5t37.5 -15.5l57 -15q89 -36 158 -96.5t116.5 -138.5t72 -171t24.5 -195l2 -1537h-252zM665 1105q100 82 232 79q167 -5 270 -109q109 -109 109 -270v-1184q0 -82 -22.5 -151t-66.5 -119.5t-110.5 -79 t-154.5 -28.5h-491v-3q-158 0 -270 112t-108 268q1 39 11 70t28 57.5t42.5 51t53.5 51.5q37 34 85.5 49.5t103.5 18.5t113 -5t113 -21q128 -31 269 -93l12 -229q-106 48 -201 81q-41 14 -83 26.5t-80.5 21t-71 10.5t-54.5 -4q-35 -10 -55.5 -37.5t-18.5 -63.5 q2 -38 26 -63.5t62 -31.5h510q28 0 48.5 20t20.5 49v1269q0 29 -20.5 50t-48.5 21h-37q-29 0 -49 -21t-20 -50h-4v-25.5t0.5 -57.5t1 -79t0.5 -90q1 -107 1 -242q0 -158 -110 -268q-79 -79 -190 -100l-45 260q23 6 39 25.5t16 45.5v527q0 30 -22 51.5t-52 21.5h-29 q-31 0 -52 -21.5t-21 -51.5v-527q0 -29 20 -50t49 -22l-47 -265q-112 16 -202 106q-110 111 -110 268v452q0 161 107 268q54 52 121.5 80.5t147.5 30.5q133 3 234 -79z" />
<glyph unicode="&#x1025;" horiz-adv-x="777" d="M350 1184q34 1 70 -3t71 -14t67.5 -28t59.5 -45q42 -42 63.5 -81t30.5 -76t10 -70.5t1 -63.5v-449q0 -78 -25.5 -145.5t-79.5 -120.5q-49 -49 -110.5 -77t-132.5 -31v-447h243q20 0 46 13.5t49 27.5v-270q0 -12 -11 -23t-26 -18.5t-31 -12t-27 -4.5h-342q-40 0 -74.5 19 t-60 52t-40.5 77.5t-15 95.5v598q-9 20 -17 44t-8 52v156q11 -9 22 -19t23 -18q45 -26 96.5 -41.5t123.5 -15.5h20q18 0 34.5 6t29 17t20.5 26t8 33v499q0 44 -23.5 69.5t-60.5 25.5h-24q-91 0 -151 -17.5t-95 -42.5q-5 -9 -10 -13t-13 -9v141q0 42 16.5 79t44.5 64.5 t65.5 43.5t80.5 16h82z" />
<glyph unicode="&#x1026;" horiz-adv-x="781" d="M350 1184q34 1 70 -3t71 -14t67.5 -28t59.5 -45q42 -42 63.5 -81t30.5 -76t10 -70.5t1 -63.5v-449q0 -78 -25.5 -145.5t-79.5 -120.5q-49 -49 -110.5 -77t-132.5 -31v-447h243q20 0 46 13.5t49 27.5v-270q0 -12 -11 -23t-26 -18.5t-31 -12t-27 -4.5h-342q-40 0 -74.5 19 t-60 52t-40.5 77.5t-15 95.5v598q-9 20 -17 44t-8 52v156q11 -9 22 -19t23 -18q45 -26 96.5 -41.5t123.5 -15.5h20q18 0 34.5 6t29 17t20.5 26t8 33v499q0 44 -23.5 69.5t-60.5 25.5h-24q-91 0 -151 -17.5t-95 -42.5q-5 -9 -10 -13t-13 -9v141q0 42 16.5 79t44.5 64.5 t65.5 43.5t80.5 16h82zM664 1475q0 -60 -21 -111t-59 -88.5t-90.5 -59t-114.5 -22.5q-56 -2 -104.5 20t-92.5 64q-84 87 -84 197v165q0 58 22 108.5t60.5 88t89.5 59.5t109 23q117 3 201 -82q43 -40 63.5 -90t20.5 -107v-165zM457 1481q-6 27 -27 40t-44.5 12t-43.5 -15 t-25 -41v-9q0 -21 14 -37t34 -16h38q25 0 39.5 16t14.5 37v13zM317 1587q13 16 32.5 23.5t39.5 7.5q40 0 68 -31v74q0 23 -14.5 37t-39.5 14h-38q-20 0 -34 -14t-14 -37v-74z" />
<glyph unicode="&#x1027;" horiz-adv-x="806" d="M514 244q59 3 104 19t80 38q7 3 7 6q-4 12 -11.5 26.5t-18.5 24.5t-25.5 12t-33.5 -12q-31 -15 -54 -47t-48 -67zM741 840q-3 -91 -65 -129q-40 -18 -79.5 -13.5t-73 30.5t-58 73t-33.5 114q-29 -3 -48 -26.5t-19 -61.5v-501q0 -13 5.5 -26t14.5 -24t21 -18.5t26 -9.5 q4 74 26.5 128t57 84.5t76.5 38t84 -11.5q34 -24 49.5 -60t15.5 -89v-160q0 -41 -16 -77.5t-43 -64t-63 -43.5t-76 -16q-24 -1 -42 -1h-29t-15 1q-81 0 -147 27.5t-122 77.5q-108 116 -108 270v449q0 29 1 62.5t11 70.5t32 77.5t64 82.5q28 27 60.5 44t67 27.5t70 14.5 t71.5 4q2 -2 15 -2.5t29 0.5q18 0 42 2q40 0 76 -16t63 -44t43 -66t16 -81v-141v4zM541 915q17 -24 36 -48.5t39 -37.5q17 -11 30.5 -10.5t24 8.5t18.5 20.5t13 24.5q-29 16 -68 28t-93 15z" />
<glyph unicode="&#x1028;" horiz-adv-x="862" d="M811 786v-132.5t1 -104.5q0 -51 1 -92q-59 -75 -95 -125t-61 -82q-26 -32 -56 -35.5t-56 8.5q-12 6 -24 14t-25.5 17.5t-30 21.5t-39.5 27q12 11 23 22q8 10 15.5 23t6.5 27q-2 14 -7 27t-18 18q-9 4 -16.5 2t-14.5 -8t-12.5 -13.5t-11.5 -13.5q-14 -15 -23 -31l-10 -18 l4 188q22 37 46 53.5t61 16.5q21 2 44 -8.5t42.5 -24t32.5 -25t14 -12.5q0 45 0.5 86.5t0.5 75.5t0.5 57t0.5 31q0 27 -11.5 42t-34 22.5t-56 9.5t-76.5 2q-18 0 -35.5 -5t-31 -15t-21.5 -26t-8 -38l2 -1118q0 -42 28.5 -65t65.5 -21q17 2 31 12t24.5 23.5t17.5 28.5t11 28 l2 96l299 -203q0 -47 -32.5 -101t-85.5 -101t-121 -78t-140 -31q-42 0 -78 5.5t-67.5 18t-60.5 33.5t-58 52q-63 60 -88 125t-25 143v1171q0 39 6 74.5t19 68t34 63t52 59.5q29 31 59.5 52t63 34.5t68 19.5t75.5 8q82 2 145 -24.5t121 -83.5q29 -31 50.5 -61.5t35.5 -63 t20.5 -68.5t6.5 -78z" />
<glyph unicode="&#x1029;" horiz-adv-x="1659" d="M1608 -551q0 -103 -42 -155t-122 -52h-1217q-86 0 -131 53t-45 156v2251q0 99 41 154t135 55h1217q80 0 122 -52.5t42 -154.5v-148l-285 -65v61q0 35 -18 56.5t-58 27.5h-841q-78 0 -78 -84v-1951q0 -82 78 -82h841q40 0 58 20t18 62v331h285v-483zM1159 309 q0 -26 21 -45.5t49 -19.5h35q29 0 51 19.5t22 45.5v535q0 31 -22 51t-51 20h-35h-10q8 36 20.5 101t26.5 164q72 -2 133 -28.5t110 -82.5q59 -54 86 -119.5t27 -148.5v-449q0 -78 -27 -146t-84 -124q-51 -53 -118.5 -79t-145.5 -28q-68 -2 -124.5 16.5t-108.5 61.5 q-98 -75 -234 -78h-15t-28 1q-18 0 -39 1q-41 0 -77 16t-63.5 43.5t-43.5 64t-16 77.5v160q11 -9 20 -20t25 -17q40 -26 93.5 -41.5t125.5 -15.5h14q18 0 34.5 6t30 17t21.5 26t8 33v501q0 42 -22 67.5t-60 25.5h-22q-94 0 -153 -17.5t-97 -42.5q-3 -9 -9 -13.5t-9 -10.5 v141q0 43 16 80t43.5 64.5t63.5 43t77 15.5h82q34 1 70.5 -2t72 -13t67 -28t57.5 -45q44 -42 67 -81.5t33 -76.5t11 -70.5t1 -62.5v-492z" />
<glyph unicode="&#x102a;" horiz-adv-x="2954" d="M2331 -551q0 -207 -166 -207h-1209q-89 0 -135.5 53t-46.5 156v2251q0 98 42 153.5t140 55.5h1209q83 0 124.5 -52.5t41.5 -154.5v-148l-281 -65v61q0 72 -80 84h-835q-41 0 -62.5 -21t-21.5 -63v-1951q0 -42 21.5 -62t62.5 -20h835q80 0 80 82v331h281v-483zM1884 309 q0 -26 19.5 -45.5t50.5 -19.5h35q29 0 50 19.5t21 45.5v535q0 31 -21 51t-50 20h-35h-12q9 36 21 101t28 164q69 -2 130 -28.5t113 -82.5q59 -54 86 -119.5t27 -148.5v-449q0 -78 -26.5 -146t-82.5 -124q-108 -104 -268 -107q-66 -2 -123.5 16.5t-109.5 61.5 q-98 -75 -232 -78h-15.5t-28.5 1q-18 0 -40 1q-41 0 -77.5 16t-63.5 43.5t-43 64t-16 77.5v160q11 -9 21.5 -20t21.5 -17q42 -26 96 -41.5t123 -15.5h18q18 0 34.5 6t29 17t20.5 26t8 33v501q0 42 -22 67.5t-60 25.5h-22q-93 0 -151.5 -17.5t-92.5 -42.5q-8 -9 -14.5 -13.5 t-9.5 -10.5v141q0 43 16 80t43 64.5t63.5 43t77.5 15.5h84q34 1 70 -2t71.5 -13t67.5 -28t58 -45q43 -42 66 -81.5t33.5 -76.5t11.5 -70.5t1 -62.5v-492zM649 283q-2 26 -10 45t-27 39q-17 18 -33 12t-29.5 -25.5t-25 -49t-18.5 -58.5q43 2 77 12.5t66 24.5zM438 1180h80 q42 0 79 -15.5t64.5 -43t43.5 -64.5t16 -80v-141q-3 6 -9 11t-10 13q-37 25 -96.5 42.5t-148.5 17.5h-25q-38 0 -61 -25.5t-23 -67.5v-501q0 -16 4.5 -27.5t12.5 -22.5q7 30 21 68t33.5 75.5t43.5 70.5t51 54t56 25.5t59 -14.5q29 -17 47 -40.5t27.5 -52t13 -60t4.5 -64.5 v-160q0 -41 -16 -77.5t-43.5 -64t-64.5 -43.5t-79 -16q-22 -1 -39 -1q-15 -1 -27 -1h-14q-164 3 -268 107q-57 56 -85 124t-28 146v449q0 29 1 62.5t11.5 70.5t33.5 77.5t67 82.5q27 27 59.5 44t67 27t70.5 13t71 2zM2290 1106q39 29 96 51l63 14l64 9q153 0 264 -107.5 t111 -271.5v-449q0 -159 -105.5 -265.5t-269.5 -111.5l-59 291l61 -20q29 0 59 20q17 8 31 66v497q0 93 -94 95q-86 2 -86 -95v-51zM2892 1808l-2 -239q-22 22 -53 46t-61.5 44.5t-55.5 33.5t-35 13h-31q-23 0 -38 -13t-15 -38v-193q0 -23 15 -39t38 -16h31q8 0 20.5 7 t23.5 15q13 10 28 23l-41 -264h-50q-117 -3 -200 84q-42 40 -63 90.5t-21 107.5v166q0 57 22.5 107.5t61.5 88.5t90.5 60t109.5 23q57 2 106.5 -19t92.5 -63z" />
<glyph unicode="&#x102b;" horiz-adv-x="374" d="M-366 1385v164q0 91 29.5 159.5t78 114.5t110.5 69t126 23q62 0 121 -23t104.5 -68.5t73.5 -114t28 -160.5v-1577h-235v1577q0 35 -8.5 60t-22 41.5t-31.5 24t-36 7.5q-19 -1 -37.5 -10t-32.5 -26t-23 -41.5t-9 -55.5v-229z" />
<glyph unicode="&#x102c;" horiz-adv-x="548" d="M-135 1081q56 54 120 76l57 14l70 9q149 0 259.5 -107.5t110.5 -271.5v-449q0 -159 -105.5 -265.5t-264.5 -111.5l-66 291l68 -20q26 0 55 20q16 8 29 66v497q0 93 -95 95q-88 2 -113 -138z" />
<glyph unicode="&#x102d;" d="M-463 1661v-197q0 -21 16.5 -36t40.5 -15h33q20 0 37 15t17 36v197q0 22 -17 34.5t-37 12.5h-33q-24 0 -40.5 -12.5t-16.5 -34.5zM-115 1473q0 -60 -20.5 -111t-58 -88.5t-89.5 -59t-114 -22.5q-54 -3 -105.5 19.5t-91.5 64.5q-42 43 -63 91.5t-21 105.5v165 q0 58 22.5 108.5t61 88t89.5 59.5t108 23q117 3 202 -82q42 -40 61 -90.5t19 -106.5v-165z" />
<glyph unicode="&#x102e;" d="M-115 1475q0 -60 -20.5 -111t-58 -88.5t-89.5 -59t-114 -22.5q-54 -2 -105.5 20t-91.5 64q-84 87 -84 197v165q0 58 22.5 108.5t61 88t89.5 59.5t108 23q117 3 202 -82q42 -40 61 -90t19 -107v-165zM-319 1481q-6 27 -27 40t-44 12t-44 -15t-27 -41v-9q0 -21 15.5 -37 t39.5 -16h33q22 0 38 16t16 37v13zM-461 1587q16 16 34.5 23.5t37.5 7.5q39 0 70 -31v74q0 23 -16 37t-38 14h-33q-24 0 -39.5 -14t-15.5 -37v-74z" />
<glyph unicode="&#x102f;" horiz-adv-x="2" d="M-534 -45h265v-371q0 -81 95 -81h39l-39 -261h-195q-88 0 -126.5 49.5t-38.5 136.5v527z" />
<glyph unicode="&#x1030;" horiz-adv-x="2" d="M-362 -25h225v-319q0 -156 86 -156q-2 -12 -29 -63q-37 -51 -133 -176q-61 0 -105 72.5t-44 144.5v497zM-678 -25h225v-718h-225v718z" />
<glyph unicode="&#x1031;" horiz-adv-x="781" d="M649 283q-2 26 -10 45t-27 39q-17 18 -33 12t-29.5 -25.5t-25 -49t-18.5 -58.5q43 2 77 12.5t66 24.5zM438 1180h80q42 0 79 -15.5t64.5 -43t43.5 -64.5t16 -80v-141q-3 6 -9 11t-10 13q-37 25 -96.5 42.5t-148.5 17.5h-25q-38 0 -61 -25.5t-23 -67.5v-501 q0 -16 4.5 -27.5t12.5 -22.5q7 30 21 68t33.5 75.5t43.5 70.5t51 54t56 25.5t59 -14.5q29 -17 47 -40.5t27.5 -52t13 -60t4.5 -64.5v-160q0 -41 -16 -77.5t-43.5 -64t-64.5 -43.5t-79 -16q-22 -1 -39 -1q-15 -1 -27 -1h-14q-164 3 -268 107q-57 56 -85 124t-28 146v449 q0 29 1 62.5t11.5 70.5t33.5 77.5t67 82.5q27 27 59.5 44t67 27t70.5 13t71 2z" />
<glyph unicode="&#x1032;" horiz-adv-x="2" d="M-692 1683l166 148l471 -508l-168 -152z" />
<glyph unicode="&#x1033;" d="M-463 1661v-197q0 -21 16.5 -36t40.5 -15h33q20 0 37 15t17 36v197q0 22 -17 34.5t-37 12.5h-33q-24 0 -40.5 -12.5t-16.5 -34.5zM-115 1473q0 -60 -20.5 -111t-58 -88.5t-89.5 -59t-114 -22.5q-54 -3 -105.5 19.5t-91.5 64.5q-42 43 -63 91.5t-21 105.5v165 q0 58 22.5 108.5t61 88t89.5 59.5t108 23q117 3 202 -82q42 -40 61 -90.5t19 -106.5v-165zM-328 1540q0 -43 -34 -63l-29 -4q-27 0 -46.5 19t-19.5 48v37q-4 20 13.5 45t52.5 23q29 0 46 -16.5t17 -51.5v-37zM-375 1542v29q-2 20 -16 22q-10 0 -12 -22v-29q0 -12 12 -16 q12 0 16 16z" />
<glyph unicode="&#x1034;" d="M-526 1171l-166 152l469 508l168 -148z" />
<glyph unicode="&#x1035;" d="M-186 1362q0 11 -6.5 22.5t-20.5 22.5q-10 11 -19 7.5t-16.5 -15t-13.5 -29t-10 -35.5q24 3 45 9t41 18zM-352 1907h129q25 0 47.5 -9.5t39 -26.5t26.5 -39.5t10 -49.5v-88q-2 3 -6.5 6.5t-10.5 3.5q-32 39 -147 39h-90q-25 0 -37 -14.5t-12 -38.5v-308q0 -9 2 -15t8 -15 q4 19 18 42t34.5 45.5t45 42.5t49 33t47 16.5t39.5 -7.5q38 -20 49 -55.5t11 -75.5v-97q0 -26 -10 -48.5t-26.5 -39.5t-39 -27t-47.5 -10h-129q-48 0 -88 14.5t-82 49.5t-66 76.5t-24 89.5v272q0 18 5 40.5t15.5 47t27.5 48.5t40 44q42 31 86.5 43.5t85.5 10.5z" />
<glyph unicode="&#x1036;" horiz-adv-x="2" d="M-428 1420v-46q0 -14 12 -24t28 -10q15 1 26.5 10.5t11.5 23.5v46q0 15 -11.5 25.5t-26.5 11.5q-16 0 -28 -11t-12 -26zM-546 1446q0 30 11.5 57t31.5 47t47 31.5t57 11.5h20q30 0 56.5 -11.5t46.5 -31.5t31.5 -47t11.5 -57v-88q0 -30 -11.5 -56.5t-31.5 -46.5 t-46.5 -31.5t-56.5 -11.5h-20q-30 0 -57 11.5t-47 31.5t-31.5 46.5t-11.5 56.5v88zM-428 1420v-46q0 -14 12 -24t28 -10q15 1 26.5 10.5t11.5 23.5v46q0 15 -11.5 25.5t-26.5 11.5q-16 0 -28 -11t-12 -26zM-546 1446q0 30 11.5 57t31.5 47t47 31.5t57 11.5h20 q30 0 56.5 -11.5t46.5 -31.5t31.5 -47t11.5 -57v-88q0 -30 -11.5 -56.5t-31.5 -46.5t-46.5 -31.5t-56.5 -11.5h-20q-30 0 -57 11.5t-47 31.5t-31.5 46.5t-11.5 56.5v88z" />
<glyph unicode="&#x1037;" horiz-adv-x="2" d="M-408 -256v-56q0 -14 12 -24t28 -10q15 1 26.5 10.5t11.5 23.5v56q0 15 -11.5 25.5t-26.5 11.5q-16 0 -28 -11t-12 -26zM-526 -230q0 30 11.5 57t31.5 47t47 31.5t57 11.5h20q30 0 56.5 -11.5t46.5 -31.5t31.5 -47t11.5 -57v-98q0 -30 -11.5 -56.5t-31.5 -46.5 t-46.5 -31.5t-56.5 -11.5h-20q-30 0 -57 11.5t-47 31.5t-31.5 46.5t-11.5 56.5v98zM-408 -256v-56q0 -14 12 -24t28 -10q15 1 26.5 10.5t11.5 23.5v56q0 15 -11.5 25.5t-26.5 11.5q-16 0 -28 -11t-12 -26zM-526 -230q0 30 11.5 57t31.5 47t47 31.5t57 11.5h20 q30 0 56.5 -11.5t46.5 -31.5t31.5 -47t11.5 -57v-98q0 -30 -11.5 -56.5t-31.5 -46.5t-46.5 -31.5t-56.5 -11.5h-20q-30 0 -57 11.5t-47 31.5t-31.5 46.5t-11.5 56.5v98z" />
<glyph unicode="&#x1038;" horiz-adv-x="463" d="M175 246v-86q0 -14 12 -24t28 -10q15 1 26.5 10.5t11.5 23.5v86q0 15 -11.5 25.5t-26.5 11.5q-16 0 -28 -11t-12 -26zM57 272q0 30 11.5 57t31.5 47t47 31.5t57 11.5h20q30 0 56.5 -11.5t46.5 -31.5t31.5 -47t11.5 -57v-128q0 -30 -11.5 -56.5t-31.5 -46.5t-46.5 -31.5 t-56.5 -11.5h-20q-30 0 -57 11.5t-47 31.5t-31.5 46.5t-11.5 56.5v128zM175 246v-86q0 -14 12 -24t28 -10q15 1 26.5 10.5t11.5 23.5v86q0 15 -11.5 25.5t-26.5 11.5q-16 0 -28 -11t-12 -26zM57 272q0 30 11.5 57t31.5 47t47 31.5t57 11.5h20q30 0 56.5 -11.5t46.5 -31.5 t31.5 -47t11.5 -57v-128q0 -30 -11.5 -56.5t-31.5 -46.5t-46.5 -31.5t-56.5 -11.5h-20q-30 0 -57 11.5t-47 31.5t-31.5 46.5t-11.5 56.5v128zM175 744v-86q0 -14 12 -24t28 -10q15 1 26.5 10.5t11.5 23.5v86q0 15 -11.5 25.5t-26.5 11.5q-16 0 -28 -11t-12 -26zM57 770 q0 30 11.5 57t31.5 47t47 31.5t57 11.5h20q30 0 56.5 -11.5t46.5 -31.5t31.5 -47t11.5 -57v-128q0 -30 -11.5 -56.5t-31.5 -46.5t-46.5 -31.5t-56.5 -11.5h-20q-30 0 -57 11.5t-47 31.5t-31.5 46.5t-11.5 56.5v128zM175 744v-86q0 -14 12 -24t28 -10q15 1 26.5 10.5 t11.5 23.5v86q0 15 -11.5 25.5t-26.5 11.5q-16 0 -28 -11t-12 -26zM57 770q0 30 11.5 57t31.5 47t47 31.5t57 11.5h20q30 0 56.5 -11.5t46.5 -31.5t31.5 -47t11.5 -57v-128q0 -30 -11.5 -56.5t-31.5 -46.5t-46.5 -31.5t-56.5 -11.5h-20q-30 0 -57 11.5t-47 31.5t-31.5 46.5 t-11.5 56.5v128z" />
<glyph unicode="&#x1039;" horiz-adv-x="671" d="M676 1096h-86v-1121h-103v1121h-135v-1121h-104v723q-117 9 -180.5 77.5t-63.5 170.5q0 111 69.5 182.5t217.5 71.5h385v-104z" />
<glyph unicode="&#x103a;" d="M-115 1808l-2 -239q-21 22 -51 46t-60 44.5t-54.5 33.5t-34.5 13h-35q-20 0 -35.5 -13t-15.5 -38v-193q0 -23 15.5 -39t35.5 -16h35q7 0 18.5 7t23.5 15q13 10 29 23l-37 -264h-57q-112 -3 -199 84q-42 40 -62 90.5t-20 107.5v166q0 57 22.5 107.5t61 88.5t89.5 60 t108 23q57 2 108 -19t95 -63z" />
<glyph unicode="&#x103b;" horiz-adv-x="378" d="M334 -537q0 -90 -29 -151q-31 -53 -86 -55l-57 14l-539 151v277l47 -12v272h273v-350l112 -37v1614h279v-1723z" />
<glyph unicode="&#x103c;" horiz-adv-x="424" d="M1174 -559q0 -106 -39 -154t-125 -48h-774q-181 0 -181 204v2263q0 97 42 150t139 53h774q164 0 164 -201v-94l-233 -72v42q0 51 -41 51h-516q-52 0 -52 -58v-2006q0 -56 42 -56h466q51 0 57 50v458h277v-582z" />
<glyph unicode="&#x103d;" horiz-adv-x="2" d="M-172 -616q0 -54 -35 -90.5t-94 -36.5h-246q-63 0 -104 34.5t-41 92.5v104l207 412h106l207 -412v-104zM-373 -461l-63 146l-53 -146q0 -31 18 -45q4 -6 35 -14q39 0 57 20z" />
<glyph unicode="&#x103e;" d="M-354 -581q-43 -178 -170 -184q-45 -2 -78 18l-49 29l-57 373l88 -45l18 -11q23 0 43 56l86 308l246 -71z" />
<glyph unicode="&#x103f;" horiz-adv-x="1693" d="M717 309q0 -26 18.5 -45.5t50.5 -19.5h35q14 0 27 5t23.5 14t17 21t6.5 25v537q0 15 -6.5 28t-17 23.5t-23.5 16.5t-27 6h-35q-2 0 -4.5 -2.5t-7.5 -2.5q9 36 20.5 102t28.5 163q72 -2 132.5 -28.5t113.5 -82.5q56 -54 82.5 -119.5t26.5 -148.5v-449v-21t-2 -24 q2 -25 23 -44t50 -19h35q28 0 47 19.5t19 45.5v537q0 29 -19 51.5t-47 22.5h-35q-2 0 -3.5 -2.5t-6.5 -2.5q8 36 19 102t32 163q71 -2 129.5 -28.5t114.5 -82.5q56 -54 82 -119.5t26 -148.5v-449q0 -78 -26 -146t-80 -124q-54 -53 -122.5 -79t-149.5 -28q-66 0 -123 17.5 t-105 60.5q-49 -37 -106.5 -56.5t-128.5 -21.5q-65 0 -122 17.5t-108 60.5q-46 -37 -105.5 -56.5t-127.5 -21.5h-15t-28 1q-18 0 -39 1q-42 0 -79 16t-64.5 43.5t-43.5 64t-16 77.5v160q6 -8 18.5 -19.5t26.5 -17.5q42 -26 96 -41.5t123 -15.5h17q18 0 34.5 6t30 17t21.5 26 t8 33v501q0 42 -23 67.5t-57 25.5h-26q-93 0 -152.5 -17.5t-93.5 -42.5q-18 -14 -23 -24v141q0 43 16 80t43.5 64.5t64.5 43t79 15.5h82q35 1 71.5 -2t71.5 -13t67 -27t58 -44q43 -42 66 -82.5t33 -77.5t11 -70.5t1 -62.5v-492z" />
<glyph unicode="&#x1040;" horiz-adv-x="840" d="M393 -23q-138 4 -237 111q-56 53 -83.5 119.5t-27.5 144.5v449q0 83 27 151t78 117q102 97 243 111v-265q-26 -3 -43.5 -22t-17.5 -47v-537q0 -23 17.5 -41.5t43.5 -21.5v-269zM799 352q0 -78 -27.5 -144.5t-83.5 -119.5q-91 -97 -231 -111v269q23 5 39 23.5t16 39.5v537 q0 28 -16 46t-39 23v265q132 -6 231 -109q56 -56 83.5 -121.5t27.5 -148.5v-449zM393 -23q-138 4 -237 111q-56 53 -83.5 119.5t-27.5 144.5v449q0 83 27 151t78 117q102 97 243 111v-265q-26 -3 -43.5 -22t-17.5 -47v-537q0 -23 17.5 -41.5t43.5 -21.5v-269zM799 352 q0 -78 -27.5 -144.5t-83.5 -119.5q-91 -97 -231 -111v269q23 5 39 23.5t16 39.5v537q0 28 -16 46t-39 23v265q132 -6 231 -109q56 -56 83.5 -121.5t27.5 -148.5v-449z" />
<glyph unicode="&#x1041;" horiz-adv-x="764" d="M334 1184q35 0 72 -4t72.5 -14.5t67.5 -27.5t58 -44q43 -42 66 -82.5t33 -77.5t11 -70.5t1 -62.5v-449q0 -156 -111 -270q-51 -50 -119 -77.5t-151 -27.5q-2 -1 -15 -1h-27q-18 0 -38 1q-42 0 -79 16t-64.5 43.5t-43.5 64t-16 77.5v160q8 -8 19.5 -18t23.5 -19 q42 -26 96 -41.5t125 -15.5h17q18 0 34.5 6t30 17t21.5 26t8 33v501q0 44 -23.5 68.5t-60.5 24.5h-23q-92 0 -151.5 -17.5t-93.5 -42.5q-18 -14 -23 -24v141q0 43 16 81t43.5 66t64.5 44t79 16q20 -2 38 -2q14 -1 27 -0.5t15 2.5z" />
<glyph unicode="&#x1042;" horiz-adv-x="840" d="M799 -557q0 -104 -41 -154t-137 -50h-498l-60 276h379q80 0 80 80v1584h277v-1736z" />
<glyph unicode="&#x1043;" horiz-adv-x="781" d="M350 1169q34 0 70.5 -4.5t71.5 -15t68 -28.5t61 -46q41 -41 63 -79.5t31.5 -74.5t10.5 -68.5t1 -61.5v-453q0 -75 -27 -143t-79 -125q-39 -35 -84 -61t-99 -36l240 -734h-303l-256 788q-28 26 -43 62.5t-15 76.5v162q11 -14 22 -24t23 -19q45 -26 96.5 -42t123.5 -16h22 q17 0 33.5 6.5t29.5 18t21 26t8 29.5v506q0 43 -24.5 64.5t-61.5 21.5h-24q-88 0 -149.5 -13t-96.5 -42q-5 -6 -10 -11.5t-13 -7.5v142q0 40 16.5 77t45 64.5t66 44t79.5 16.5h82z" />
<glyph unicode="&#x1044;" horiz-adv-x="777" d="M446 1169h82q42 0 79 -16.5t64.5 -44t43.5 -64.5t16 -77v-142q-3 2 -8 7.5t-10 11.5q-37 29 -95.5 42t-152.5 13h-23q-37 0 -61.5 -21.5t-24.5 -64.5v-506q0 -15 8 -29.5t21.5 -26t30.5 -18t35 -6.5h18q74 0 125.5 16t93.5 42q13 9 24 19t19 24v-162q0 -40 -12.5 -76.5 t-40.5 -62.5l-258 -787h-301l239 733q-51 10 -97.5 36t-84.5 61q-54 57 -79 125t-25 143v453v61.5t9 68.5t30.5 74.5t64.5 79.5q28 28 61 46t68 28.5t70.5 15t70.5 4.5z" />
<glyph unicode="&#x1045;" horiz-adv-x="840" d="M305 696v-244q0 -98 25 -141q35 2 35 116q-3 97 -60 269zM799 -389q0 -161 -109.5 -266.5t-269.5 -107.5q-150 -2 -264 106l-58 86q-37 55 -51 121l295 199q0 -84 6 -101q2 -39 18.5 -62.5t61.5 -23.5q94 -4 94 86l4 1168q0 88 -88 88q-35 0 -55.5 -20t-30.5 -68v-12 q27 -79 46 -162t24 -174q24 -167 12.5 -227.5t-45 -95.5t-86.5 -37q-123 -4 -199 121q-57 96 -57 209v366q0 160 108.5 265.5t264.5 107.5q158 2 268.5 -105.5t110.5 -267.5v-1193z" />
<glyph unicode="&#x1046;" horiz-adv-x="856" d="M506 1386l-6 97q-3 12 -9.5 27t-17 28.5t-24 22.5t-31.5 10q-37 5 -64.5 -18t-27.5 -66l-4 -1116q0 -47 28 -68.5t68 -19.5q18 1 34 8.5t28 19.5t19 27.5t7 32.5v102q-9 24 -21 61t-24.5 79t-24 85t-21 80t-15 64t-5.5 37q0 28 0.5 52t4.5 46.5t13 45t27 47.5 q37 49 81.5 79.5t107.5 28.5q57 -2 97.5 -24t74.5 -78l20 -295q-7 14 -16 27q-8 11 -17 24t-18 22q-12 12 -22.5 24t-21 20.5t-22 10.5t-24.5 -7q-17 -10 -27.5 -28t0.5 -34q13 -24 29 -61t33 -81.5t32.5 -93t27.5 -95t19 -87.5t7 -70q-1 -41 -7 -77t-19 -68.5t-34 -63 t-51 -61.5q-59 -57 -123.5 -83t-144.5 -24q-78 2 -143.5 26.5t-122.5 86.5q-60 59 -83.5 122.5t-23.5 141.5v1170q0 79 24.5 143t84.5 127q29 29 58 50.5t60.5 35.5t67.5 20.5t78 6.5q73 0 141 -34.5t120.5 -88.5t84 -119t31.5 -126z" />
<glyph unicode="&#x1047;" horiz-adv-x="840" d="M688 -506v-252h-153q-70 0 -126.5 57t-56.5 143v275l166 447v649q0 74 -82 87q-41 -3 -65 -22t-29 -65v-574l-295 79v483q0 164 108.5 269.5t264.5 109.5q155 4 267 -106.5t112 -272.5v-555l-172 -529v-158q0 -31 7 -44t54 -21z" />
<glyph unicode="&#x1048;" horiz-adv-x="840" d="M799 322q0 -115 -62.5 -210.5t-167.5 -138.5l-112 246q67 19 67 90v530q0 84 -92 84q-26 0 -63 -23q-13 -22 -23 -61v-131q38 -57 72 -356q20 -219 -6.5 -271t-48 -74.5t-89.5 -33.5q-102 39 -168 133q-59 113 -59 216v478q0 160 108.5 265.5t264.5 107.5 q158 2 268.5 -105.5t110.5 -267.5v-478zM303 338q0 -109 25 -143q38 -18 30 176q-5 51 -11.5 84t-13.5 55.5t-15 37.5t-15 30v-240z" />
<glyph unicode="&#x1049;" horiz-adv-x="840" d="M801 -444q0 -32 -14.5 -67.5t-40.5 -70.5t-61.5 -67t-78 -56t-89.5 -38.5t-95 -14.5q-42 0 -78 6t-67.5 18.5t-60.5 33.5t-58 51q-60 60 -84.5 125t-24.5 145v1170q0 78 23.5 142t83.5 126q57 60 122.5 84t143.5 26q80 0 144.5 -24.5t123.5 -83.5q30 -32 51 -62t34 -62 t19 -67.5t7 -78.5q0 -29 -7 -65t-19 -75t-27.5 -79t-32.5 -77t-33 -69t-29 -55q-11 -17 -0.5 -34.5t27.5 -31.5q13 -8 24.5 -4.5t22 12t21 20t22.5 21.5q9 9 18 22t17 25q9 14 16 29l-20 -293q-34 -59 -74.5 -81.5t-97.5 -24.5q-63 -2 -107.5 27.5t-81.5 84.5q-18 22 -27 43 t-13 43.5t-4.5 47.5t-0.5 55q0 14 12 55t29.5 91.5t36.5 103t33 88.5v104q0 18 -7 33.5t-19 27.5t-28 19t-34 8q-40 3 -68 -21.5t-28 -66.5l4 -1118q0 -43 27.5 -64.5t64.5 -19.5q18 0 31.5 9t24 22t17 28t9.5 27l6 98z" />
<glyph unicode="&#x104a;" horiz-adv-x="395" d="M47 1000h250v-1025h-250v1025z" />
<glyph unicode="&#x104b;" horiz-adv-x="786" d="M416 1000h250v-1025l-250 -2v1027zM47 1000h250v-1025h-250v1025z" />
<glyph unicode="&#x104c;" horiz-adv-x="770" d="M637 1808l-4 -239q-23 22 -53.5 46t-60 44.5t-54 33.5t-33.5 13h-37q-23 0 -36 -13t-13 -38v-193q0 -23 13 -39t36 -16h37q7 0 19 7t23 15q13 10 28 23l-39 -264h-57q-111 -3 -191 84q-45 40 -66.5 90.5t-21.5 107.5v166q0 57 22.5 107.5t60.5 88.5t89 60t107 23 q61 2 111 -19t95 -63zM176 -469h217v201h-225q-26 0 -43 6t-26.5 15t-13 19.5t-3.5 20.5v182v-2v101q-16 23 -22.5 50.5t-6.5 53.5v160q6 -9 18.5 -20t26.5 -17q42 -26 95 -41.5t124 -15.5h17q18 0 34.5 6t30 17t21.5 26t8 33v501q0 42 -23.5 67.5t-58.5 25.5h-27 q-91 0 -150 -17.5t-93 -42.5l-15 -13.5t-8 -10.5v141q0 43 16 80t43.5 64.5t64.5 43t79 15.5h82q35 1 71.5 -2t71.5 -13t67 -28t58 -45q43 -42 66 -81.5t33 -76.5t11 -70.5t1 -62.5v-449q0 -78 -27.5 -146t-83.5 -124q-49 -53 -118 -79t-150 -28h-19v-43h285q34 0 55 -15.5 t21 -57.5v-371q0 -51 -14 -96t-39.5 -78.5t-60.5 -52.5t-77 -19h-313q-12 0 -28 4t-30.5 12t-25 19t-10.5 25v270q18 -16 46 -28.5t48 -12.5z" />
<glyph unicode="&#x104d;" horiz-adv-x="1167" d="M328 605v-290q0 -71 61 -116q8 0 13.5 17t7 45.5t0 65.5t-7.5 78q-5 31 -17 66t-25 65q-15 35 -32 69zM518 -429l2 1257q0 90 -89 90q-34 0 -62 -28q-8 -9 -14 -24t-11 -38v-166q24 -38 42.5 -76t35.5 -88q12 -36 20 -66.5t12.5 -60.5t5.5 -62t0 -71q-2 -48 -16 -96.5 t-39 -87.5t-59 -63.5t-77 -25.5q-14 0 -35 10.5t-45 29t-47.5 43t-41.5 50.5q-35 54 -46.5 109t-11.5 108v480q0 164 108 269q108 106 266 111q156 3 268 -108q112 -110 112 -272v-1139zM183 -207q40 24 81.5 32.5t81 6.5t75 -12t64.5 -22l14 -164q-17 8 -36 16t-39 12.5 t-40 5t-39 -5.5q-28 -9 -43.5 -30.5t-13.5 -51.5t24 -49t57 -21l497 3v1255q0 37 -4.5 84.5t-23.5 98.5t-56 102t-102 96q-47 6 -92.5 34.5t-80.5 63.5q-85 86 -85 200v209q0 58 22.5 104.5t61 79.5t89 51t107.5 19q57 0 106.5 -18.5t91 -45t73.5 -55.5t54 -50l25 -27 l-2 -234q-14 14 -38.5 36.5t-54 47t-62.5 49.5t-64 45t-58.5 32.5t-45.5 12.5h-37q-21 0 -36.5 -15.5t-15.5 -36.5v-212q0 -22 15.5 -37.5t36.5 -15.5l56 -14q90 -36 158.5 -96t115.5 -138t71 -170.5t24 -194.5l3 -1224q0 -68 -18.5 -124t-51.5 -96.5t-79.5 -62.5 t-102.5 -22l-492 -2q-124 0 -212 101q-46 51 -67 110.5t-20 131.5q2 72 26 121.5t82 86.5z" />
<glyph unicode="&#x104e;" horiz-adv-x="758" d="M427 1176h84q41 0 77.5 -15.5t63.5 -43t43 -64t16 -78.5v-146q-5 8 -10.5 12t-11.5 9q-34 28 -93 45.5t-155 17.5h-20q-38 0 -62 -24.5t-24 -65.5v-501q0 -18 8 -33t21.5 -26t31 -17t35.5 -6h18q136 0 215 55q16 8 27 19l20 20v-160q0 -42 -15.5 -78t-43.5 -65v-793h-238 v733q-155 6 -256 107q-54 54 -81 123t-27 147v449q0 29 1 62.5t11 70t32 76.5t64 81q28 26 60.5 43.5t67 28t70 14.5t71.5 3z" />
<glyph unicode="&#x104f;" horiz-adv-x="1334" d="M1040 -23v766q0 37 -2.5 80t-19.5 82t-55.5 70t-110.5 45q-48 11 -92.5 37.5t-79.5 64.5q-43 44 -63.5 94.5t-20.5 104.5v307q0 58 22 110t60 90t88.5 60.5t107.5 22.5q58 0 108 -22.5t91.5 -54.5t73.5 -66t53 -56l25 -24l-2 -238q-14 15 -38 40t-53.5 53t-62 57 t-63.5 52t-58.5 37.5t-46.5 14.5h-37q-20 0 -35.5 -15.5t-15.5 -39.5v-332q0 -23 15.5 -37t35.5 -14l56 -17q92 -17 162 -62t117 -113.5t71 -157t24 -191.5l2 -748h-256zM662 874q-26 16 -58.5 27t-89.5 14q20 -24 39.5 -48.5t38.5 -37.5q17 -11 30 -10t22 9t13.5 21t4.5 25 zM436 1184q1 -2 9 -2.5t18 0.5q11 0 26 2q39 0 71.5 -11.5t59.5 -34t50.5 -55t46.5 -73.5q54 -12 106 -39.5t93 -72.5t66.5 -110.5t25.5 -154.5v-656h-252v656q0 45 -23.5 65t-58.5 25q-6 -5 -10.5 -7.5t-12.5 -4.5q-39 -18 -78.5 -13.5t-73.5 30.5t-58.5 73t-34.5 114 q-28 -3 -44 -26.5t-16 -61.5v-501q0 -18 8 -33t20.5 -26t29 -17t34.5 -6h19q69 0 123 15.5t96 41.5q11 9 21.5 19t21.5 18v-160q0 -41 -16 -77.5t-43.5 -64t-64.5 -43.5t-79 -16q-21 -1 -39 -1h-27.5t-13.5 1q-83 0 -150 27.5t-118 77.5q-113 113 -113 270v449q0 29 1 62.5 t11.5 70.5t33.5 77.5t67 82.5q27 27 59 44t66.5 27.5t71 14.5t71.5 4z" />
<glyph unicode="&#x1050;" horiz-adv-x="840" d="M799 322q0 -115 -62.5 -210.5t-167.5 -138.5l-118 234q65 14 65 88v504q0 84 -94 86q-29 2 -60 -23q-14 -33 -24 -63v-504q0 -76 65 -88l-129 -234q-102 39 -168 133q-59 113 -59 216v452q0 160 108.5 265.5t264.5 107.5q158 2 268.5 -105.5t110.5 -267.5v-452zM510 518 q0 -53 -47 -76l-31 -4q-33 0 -56.5 23.5t-23.5 56.5v41q0 37 21.5 57.5t58.5 20.5q33 2 55.5 -19.5t22.5 -58.5v-41zM446 520v35q0 12 -14 20q-14 0 -20 -20v-35q0 -18 20 -18q12 0 14 18z" />
<glyph unicode="&#x1051;" horiz-adv-x="840" d="M799 350q0 -157 -110.5 -267t-268.5 -108q-156 2 -264.5 110t-108.5 265v451q0 104 59 215q66 94 168 133l129 -234q-65 -10 -65 -88v-503q10 -31 24 -60q31 -26 60 -24q94 4 94 84v503q0 72 -65 88l118 234q105 -43 167.5 -138.5t62.5 -209.5v-451zM510 565 q0 -37 -22.5 -58.5t-55.5 -19.5q-37 0 -58.5 20.5t-21.5 57.5v41q0 33 23.5 54.5t56.5 21.5l31 -2q47 -23 47 -74v-41zM446 604q-2 17 -14 17q-20 0 -20 -17v-37q6 -20 20 -20q14 8 14 20v37z" />
<glyph unicode="&#x1052;" horiz-adv-x="840" d="M197 51q-34 25 -60 60t-44 70.5t-27 68t-9 53.5v498q0 26 -0.5 51.5t2 51t8.5 51.5t19 53q21 40 53.5 68.5t69 47.5t74.5 30.5t71 16.5l47 -262q-37 -11 -56 -30.5t-19 -53.5v-501q0 -45 22.5 -68t69.5 -18q42 2 65 22t23 64v241q0 11 -2.5 30t-5.5 44q-3 12 -8.5 34.5 t-11.5 49t-12 53.5t-11 49t-8 36t-3 13q-2 9 -1 32.5t4.5 50t8.5 51t11 36.5q16 29 32.5 55t36.5 45.5t44.5 31t56.5 10.5q29 0 58 -18.5t52 -41.5q27 -26 52 -59v-242q-19 26 -32 37.5t-26 11.5q-14 -6 -20.5 -17t-3.5 -23q12 -43 26 -83.5t26.5 -78.5t21 -75.5t8.5 -74.5 v-170q0 -156 -111 -270q-54 -56 -122 -82.5t-146 -24.5q-62 1 -114.5 17t-108.5 59z" />
<glyph unicode="&#x1053;" horiz-adv-x="840" d="M674 68q-35 -29 -65 -45.5t-58.5 -26t-58 -14t-64.5 -7.5q-80 2 -148 26.5t-114 80.5q-56 59 -84.5 125.5t-28.5 144.5v170q0 37 8 74.5t20 75.5t26 78.5t26 83.5q5 12 -3 23t-24 17q-11 0 -23.5 -11.5t-29.5 -37.5v242q25 33 52 59q23 23 52.5 41.5t59.5 18.5 q31 1 56 -10.5t44.5 -31t35 -45.5t28.5 -55q7 -12 13 -36.5t9.5 -51t3.5 -50t-4 -32.5q0 1 -3 -13t-7.5 -36t-10 -49t-11 -53.5t-10 -49t-7.5 -34.5q-6 -50 -6 -74v-241q3 -27 7 -44t12 -26t22 -12.5t37 -3.5q40 3 60 23.5t20 62.5v241q0 11 -2.5 30t-5.5 44 q-3 12 -8.5 34.5t-11.5 49t-12 53.5t-11 49t-8 36t-3 13q-2 9 -1 32.5t4.5 50t8.5 51t11 36.5q16 29 32.5 55t36.5 45.5t44.5 31t56.5 10.5q29 0 58 -18.5t52 -41.5q27 -26 52 -59v-242q-19 26 -32 37.5t-26 11.5q-14 -6 -20.5 -17t-3.5 -23q12 -43 26 -83.5t26.5 -78.5 t21 -75.5t8.5 -74.5v-170q0 -50 -13 -94t-32 -81t-40.5 -64.5t-39.5 -44.5z" />
<glyph unicode="&#x1054;" horiz-adv-x="783" d="M649 877q-32 14 -66 25t-77 13q7 -30 18.5 -59.5t25 -49.5t29.5 -25.5t33 12.5q19 20 27 39t10 45zM438 -23q-35 -1 -71 3t-70.5 14.5t-67 28t-59.5 43.5q-44 41 -67 81t-33.5 77t-11.5 70t-1 60v449q0 83 28 150t85 118q53 56 119 83t149 30q2 0 14 -0.5t27 -1.5 q17 -1 39 -2q42 0 79 -15.5t64.5 -43t43.5 -64.5t16 -80v-154q-1 -34 -4.5 -65.5t-13 -60t-27.5 -53t-47 -42.5q-30 -19 -59 -14t-56 26t-51 54t-43.5 71t-33.5 76.5t-21 69.5q-8 -10 -12.5 -24.5t-4.5 -26.5v-502q0 -40 23 -64t61 -24h25q89 0 148.5 15.5t96.5 41.5 q4 3 10 9t9 14v-146q0 -41 -16 -77.5t-43.5 -64t-64.5 -43.5t-79 -16h-80z" />
<glyph unicode="&#x1055;" horiz-adv-x="888" d="M718 877q-26 14 -62 24.5t-80 13.5q9 -30 20.5 -60t25 -50.5t29.5 -26t34 12.5q17 21 25 40.5t8 45.5zM427 -25q-71 -2 -140.5 18t-126.5 73q-42 41 -64 81t-32 76.5t-11 69t-1 59.5v449q0 167 108 268q54 56 121 82.5t146 28.5h166q42 0 78.5 -15.5t63.5 -43t42.5 -64.5 t15.5 -80v-156q-1 -34 -4 -65.5t-12 -60t-27 -52t-49 -41.5q-31 -19 -66.5 -14t-71.5 26t-70 54t-61.5 71t-46.5 76.5t-26 69.5q-11 -10 -15.5 -24.5t-4.5 -26.5v-502q0 -42 23.5 -65t62.5 -23l120 157l152 -157q23 0 53.5 15.5t65.5 41.5q9 6 18 23v-146q0 -42 -12 -79 t-34.5 -64.5t-55 -43.5t-74.5 -16q-28 13 -54.5 54t-58.5 112q-21 -65 -51 -105.5t-67 -60.5z" />
<glyph unicode="&#x1056;" horiz-adv-x="840" d="M50 303v209h268v-188q0 -45 22 -68t70 -18q44 2 64 22t20 64v241q0 11 -1.5 30t-6.5 44q-3 12 -7.5 34.5t-10 49t-11.5 53.5t-11 49t-8 36t-3 13q-3 9 -2.5 32.5t3.5 50t8.5 51t12.5 36.5q14 29 30 55t36.5 45.5t46 31t57.5 10.5q29 0 57.5 -18.5t51.5 -41.5 q26 -26 51 -59v-242q-14 26 -29 37.5t-24 11.5q-16 -6 -24 -17t-3 -23q12 -43 26 -83.5t26 -78.5t20 -75.5t8 -74.5v-170q0 -155 -110 -270q-110 -110 -265 -107q-63 2 -116 17.5t-107 58.5q-34 25 -60 60t-43.5 70.5t-26.5 68t-9 53.5z" />
<glyph unicode="&#x1057;" horiz-adv-x="1280" d="M49 303v209h268v-188q0 -45 22.5 -68t66.5 -18q45 2 66.5 22t21.5 64h4v188h266v-188q0 -45 22.5 -68t67.5 -18q43 2 66.5 22t23.5 64v241q0 11 -2.5 30t-5.5 44q-4 12 -9.5 34.5t-11 49t-11 53.5t-10 49t-7 36t-2.5 13q-5 9 -4.5 32.5t4 50t8.5 51t10 36.5 q15 29 31.5 55t36.5 45.5t45 31t57 10.5q29 0 57.5 -18.5t51.5 -41.5q27 -26 53 -59v-242q-17 26 -31 37.5t-26 11.5q-11 -6 -20.5 -17t-6.5 -23q13 -43 28 -83.5t27.5 -78.5t20.5 -75.5t8 -74.5v-170q0 -78 -28.5 -145.5t-82.5 -124.5q-114 -110 -266 -107 q-63 2 -115.5 17.5t-105.5 58.5q-51 -42 -105.5 -59t-119.5 -17q-63 1 -116.5 17t-111.5 59q-34 25 -59 60t-42 70.5t-25.5 68t-8.5 53.5z" />
<glyph unicode="&#x1058;" d="M-186 -211q-20 11 -41 15t-45 8q4 -19 10 -37t13.5 -30t16.5 -15t19 8q14 12 20.5 24t6.5 27zM-352 -754q-41 -3 -85.5 8.5t-86.5 45.5q-23 18 -40 41t-27.5 47t-15.5 46.5t-5 39.5v276q0 45 24 87t66 77q42 34 82 47.5t88 13.5h129q25 0 47.5 -9.5t39 -26t26.5 -39.5 t10 -50v-96q0 -19 -2 -38t-8.5 -36t-18.5 -31.5t-31 -25.5q-17 -11 -39.5 -8t-47 15.5t-49 33t-45 43t-34.5 46t-18 42.5q-6 -6 -8 -14t-2 -19v-301q0 -26 12 -40.5t37 -14.5h90q57 0 93.5 9.5t53.5 25.5q6 5 10.5 8t6.5 6v-90q0 -24 -10 -46t-26.5 -38t-39 -25.5 t-47.5 -9.5h-129z" />
<glyph unicode="&#x1059;" d="M-221 -211q-19 11 -40 15t-46 6q4 -18 10.5 -35.5t15 -29.5t17.5 -15t20 8q14 12 17.5 24t5.5 27zM-420 -754q-44 -3 -75.5 11t-69.5 43q-21 18 -36 41t-25 47t-14.5 46.5t-4.5 39.5v276q0 43 21 86t63 78q42 34 82.5 46.5t91.5 14.5h125q28 0 51.5 -9.5t40.5 -26.5 t27 -40t10 -49v-96l-4 -38t-7.5 -36t-16.5 -31.5t-29 -25.5q-20 -11 -44 -8t-49.5 15.5t-50 33t-44.5 43t-34 46t-18 42.5q-6 -6 -8 -14t-2 -19v-301q0 -26 14.5 -40.5t34.5 -14.5l72 102q25 -29 47 -51q18 -19 35 -34.5t22 -14.5q16 2 26 5.5t16.5 8t12.5 9.5t15 10 q3 5 6 8l6 6v-90q0 -24 -1 -46t-10.5 -38t-31.5 -25.5t-64 -9.5q-12 0 -24 8.5t-22 22.5t-18.5 32t-12.5 38q-6 -21 -19 -37.5t-28 -29t-30.5 -21t-25.5 -13.5z" />
<glyph unicode="&#x105a;" horiz-adv-x="748" d="M599 -625v-145h-94q-23 0 -44.5 8t-37.5 23t-25.5 36.5t-9.5 47.5v108l84 170v121q0 23 -13.5 34.5t-44.5 16.5q-9 0 -19 -4t-19 -10q-2 -5 -7 -15.5t-8 -21.5v-109l-188 46v57q0 98 69 158t168 63q50 2 92 -13.5t74 -49.5q35 -35 53.5 -72t18.5 -86v-94l-86 -191v-43 q0 -15 4.5 -23.5t32.5 -11.5zM498 1169q44 0 82 -16.5t65.5 -44.5t43.5 -65t16 -78v-142q-6 3 -11.5 8.5l-10.5 10.5q-37 28 -95 42.5t-153 14.5h-23q-37 0 -60.5 -21.5t-23.5 -64.5v-506q0 -16 8 -30.5t21 -25.5t30.5 -17.5t37.5 -6.5h14q74 0 125.5 16t93.5 42 q13 9 24.5 19t22.5 24v-162q0 -42 -16 -79.5t-43.5 -65.5t-65.5 -44t-82 -16h-82q-78 5 -146.5 31.5t-119.5 77.5q-57 57 -81.5 125t-24.5 143v453v61.5t9 68.5t31 74.5t66 79.5q28 27 60 45t66.5 29t69.5 15.5t70 4.5h82z" />
<glyph unicode="&#x105b;" horiz-adv-x="1181" d="M735 369q-18 28 -61 53l-318 170l76 76q33 37 66 92q14 18 20 65q0 47 -30.5 74t-73.5 27q-95 2 -95 -92v-500q0 -84 95 -84q43 0 73 35l13 49l258 -131q-41 -88 -137 -166q-97 -60 -205 -62q-154 -2 -264.5 109t-110.5 268v449q0 164 107.5 269.5t267.5 109.5 q135 4 260 -115q117 -107 119 -264q0 -78 -80 -152q-27 -26 -86 -61l102 -39zM1139 -537q0 -90 -29 -151q-35 -53 -90 -55l-59 14l-539 151v277l47 -12v272h272v-350l117 -37v1614h281v-1723z" />
<glyph unicode="&#x105c;" horiz-adv-x="840" d="M510 518q0 -53 -47 -76l-31 -4q-33 0 -56.5 23.5t-23.5 56.5v41q0 37 21.5 57.5t58.5 20.5q33 2 55.5 -19.5t22.5 -58.5v-41zM446 520v35q0 12 -14 20q-14 0 -20 -20v-35q0 -18 20 -18q12 0 14 18zM332 844v-537q0 -26 20 -45.5t51 -19.5h37q29 0 50.5 19.5t21.5 45.5 v537q0 31 -21.5 51t-50.5 20h-37q-31 0 -51 -20t-20 -51zM799 352q0 -78 -27.5 -146t-83.5 -124q-51 -53 -120 -79t-150 -28q-75 -2 -141.5 24.5t-120.5 82.5q-111 114 -111 270v449q0 83 27 149.5t78 116.5q111 110 268 113q156 6 270 -111q56 -54 83.5 -119.5t27.5 -148.5 v-449z" />
<glyph unicode="&#x105d;" horiz-adv-x="840" d="M518 438v369q0 48 -16.5 70.5t-55.5 31.5l123 236q50 -20 92 -55t73 -81t48 -100t17 -112v-449q0 -52 -11.5 -98.5t-37.5 -89.5l14 -709q0 -51 -14.5 -95.5t-40.5 -77.5t-61 -52t-77 -19h-297q-11 0 -28 4t-32.5 11.5t-26.5 18t-11 22.5v272q25 -17 51 -31t47 -14h199 v485q-12 -2 -25 -3t-28 -1q-76 -2 -143 24.5t-121 82.5q-56 56 -82.5 124t-26.5 146v449q0 127 56 212t171 136l121 -236q-32 -9 -49.5 -32.5t-17.5 -69.5v-371q3 38 11.5 63.5t16.5 39.5q10 31 26 51t36 26q15 0 30 -16t33 -51l29 -51zM334 307q14 -26 34.5 -41.5 t51.5 -15.5t54 15.5t38 41.5q0 25 -6.5 53t-16.5 56q-15 34 -30.5 52.5t-38.5 18.5q-11 0 -24.5 -18.5t-33.5 -60.5z" />
<glyph unicode="&#x105e;" d="M-441 -337h-168l168 -124v124zM-243 -56l2 -144l74 -2v-135h-74v-330q0 -29 -15.5 -49.5t-39.5 -27.5t-54.5 2t-60.5 39l-295 254q-30 29 -35.5 72t9 82.5t45.5 67.5t73 28h173v144z" />
<glyph unicode="&#x105f;" d="M-332 -68v-369h-1h-179q-41 0 -59 -20t-16.5 -44t21 -44t54.5 -20h134q21 0 35 8t22 18q10 11 15 27l181 -85q-12 -33 -33.5 -61.5t-50 -49.5t-62 -33t-69.5 -12h-208q-100 0 -166 74q-66 71 -68 180q-3 104 68 181q69 73 166 73h15v177h201z" />
<glyph unicode="&#x1060;" d="M-332 -200l-313 -338h374l-25 -215h-512q-23 0 -44 13t-39 33.5t-31 46t-18.5 50.5t-2.5 47.5t17 36.5l436 470z" />
<glyph unicode="&#x1061;" horiz-adv-x="859" d="M864 -494l-184 -251q-154 0 -154 198l2 1376q0 93 -88 93q-36 0 -63 -27q-6 -8 -13 -24.5t-12 -41.5v-163q23 -45 43.5 -90t32.5 -89l33 -108l8 -100l-2 -35q-2 -13 -2 -26t-2 -21v-711q0 -51 -15 -96t-41 -78.5t-61 -52.5t-76 -19h-172q-13 0 -29.5 4t-31.5 12t-25 19 t-10 25v272q22 -17 49 -30t47 -13h76v496l-57 79q-32 56 -49 109t-17 104v482q0 165 107 266q52 56 119.5 83.5t148.5 29.5q77 2 144.5 -25t121.5 -86q57 -54 84 -119.5t27 -148.5v-1114v-70t2 -37q8 -31 21 -49t38 -23zM338 608v-291q0 -62 61 -114q16 0 26.5 27t10.5 73 q0 41 -10 51q0 16 -3.5 28.5t-8.5 25.5z" />
<glyph unicode="&#x1062;" horiz-adv-x="764" d="M56 1183h337q62 0 120.5 -15.5t104.5 -49.5t73.5 -89t27.5 -134v-895h-273v920h-390v263z" />
<glyph unicode="&#x1063;" horiz-adv-x="783" d="M362 1176q36 1 71.5 -3t70 -14.5t66 -28t59.5 -43.5q42 -41 64 -81t32 -76.5t11 -70t1 -62.5v-449q0 -78 -25.5 -147t-82.5 -123q-50 -51 -115.5 -77.5t-140.5 -29.5v-733h-240v793q-26 29 -41.5 65t-15.5 78v160q8 -9 19.5 -20t25.5 -19q79 -55 217 -55h18q18 0 35 6 t30.5 17t21.5 26t8 33v501q0 41 -24 65.5t-62 24.5h-19q-94 0 -154 -17.5t-94 -45.5q-6 -5 -11.5 -9t-10.5 -12v146q0 42 16 78.5t43.5 64t63.5 43t77 15.5h86z" />
<glyph unicode="&#x1064;" horiz-adv-x="1066" d="M580 249h451l-36 -263h-589q-33 0 -62.5 20.5t-47.5 52.5t-22 72.5t14 80.5l200 698h-458l33 261h596q33 0 59.5 -24.5t43 -59.5t21 -74t-5.5 -68z" />
<glyph unicode="&#x1065;" horiz-adv-x="761" d="M334 1184q35 0 72 -4t72.5 -14.5t67.5 -27.5t58 -44q43 -42 66 -82.5t33 -77.5t11 -70.5t1 -62.5v-449q0 -156 -111 -270q-51 -50 -119 -77.5t-151 -27.5q-2 -1 -15 -1h-27q-18 0 -38 1q-42 0 -79 16t-64.5 43.5t-43.5 64t-16 77.5v160q8 -8 19.5 -18t23.5 -19 q42 -26 96 -41.5t125 -15.5h17q18 0 34.5 6t30 17t21.5 26t8 33v501q0 44 -23.5 68.5t-60.5 24.5h-23q-92 0 -151.5 -17.5t-93.5 -42.5q-18 -14 -23 -24v141q0 43 16 81t43.5 66t64.5 44t79 16q20 -2 38 -2q14 -1 27 -0.5t15 2.5z" />
<glyph unicode="&#x1066;" horiz-adv-x="840" d="M567 1145q48 -20 89.5 -55t72 -81t48.5 -100t18 -112v-449q0 -49 -12.5 -93.5t-32.5 -86.5v-678q0 -51 -14 -95.5t-39.5 -77.5t-60 -52t-75.5 -19h-338q-12 0 -28.5 4.5t-31.5 12t-25.5 18.5t-10.5 23v270q22 -14 49 -27.5t47 -13.5h242v442q-11 -2 -24 -3t-25 -1 q-154 -3 -266 107q-109 112 -109 270v449q0 127 57 212t172 136l129 -234q-67 -9 -67 -88v-499q0 -16 6.5 -33t15.5 -39q8 -6 26 -10t38 -4q48 -5 71 18t23 68v499q0 35 -17 55.5t-51 32.5z" />
<glyph unicode="&#x1067;" horiz-adv-x="643" d="M250 434v-150q0 -13 6 -24t16 -19t22.5 -12t25.5 -4q26 2 46 17.5t20 41.5v150q0 26 -19.5 44t-46.5 18q-27 2 -48.5 -17t-21.5 -45zM47 479q0 53 20 99.5t54.5 81t80.5 54.5t99 20h18v454h271v-931q0 -53 -20 -99t-54.5 -80.5t-81 -54.5t-98.5 -20h-35q-53 0 -99 20 t-80.5 54.5t-54.5 80.5t-20 99v222zM250 434v-150q0 -13 6 -24t16 -19t22.5 -12t25.5 -4q26 2 46 17.5t20 41.5v150q0 26 -19.5 44t-46.5 18q-27 2 -48.5 -17t-21.5 -45zM47 479q0 53 20 99.5t54.5 81t80.5 54.5t99 20h18v454h271v-931q0 -53 -20 -99t-54.5 -80.5t-81 -54.5 t-98.5 -20h-35q-53 0 -99 20t-80.5 54.5t-54.5 80.5t-20 99v222z" />
<glyph unicode="&#x1068;" horiz-adv-x="767" d="M54 -15h337q62 0 120.5 15.5t104.5 49.5t73.5 89t27.5 134v895h-273v-920h-390v-263zM539 1499v-78q0 -14 11 -23.5t25 -8.5q14 0 25 9t11 23v78q0 14 -10.5 24t-25.5 10q-14 2 -25 -9t-11 -25zM430 1524q0 28 10.5 52.5t29 43t43 29t52.5 10.5h20q28 0 52.5 -10.5 t42.5 -29t28.5 -43t10.5 -52.5v-119q0 -28 -10.5 -52.5t-28.5 -43t-42.5 -29t-52.5 -10.5h-20q-28 0 -52.5 10.5t-43 29t-29 43t-10.5 52.5v119zM539 1499v-78q0 -14 11 -23.5t25 -8.5q14 0 25 9t11 23v78q0 14 -10.5 24t-25.5 10q-14 2 -25 -9t-11 -25zM430 1524 q0 28 10.5 52.5t29 43t43 29t52.5 10.5h20q28 0 52.5 -10.5t42.5 -29t28.5 -43t10.5 -52.5v-119q0 -28 -10.5 -52.5t-28.5 -43t-42.5 -29t-52.5 -10.5h-20q-28 0 -52.5 10.5t-43 29t-29 43t-10.5 52.5v119z" />
<glyph unicode="&#x1069;" horiz-adv-x="761" d="M89 1010l25 27q21 21 54.5 46t76.5 46.5t94 35.5t108 14q56 -1 106.5 -23t88.5 -60t60 -89t22 -109v-162q0 -114 -83 -200q-41 -42 -89.5 -63.5t-104.5 -19.5q-3 0 -26 4t-49 9q-31 5 -68 13q-22 0 -37 -15.5t-15 -37.5v-193q0 -23 15 -37.5t37 -14.5q66 0 122 20 t103.5 49t88.5 63t79 63l3 -233q-50 -45 -90 -77t-82 -52t-92 -29.5t-120 -9.5q-56 1 -106.5 23t-88.5 60t-60 89t-22 109v162q0 115 84 199q40 42 88.5 64t104.5 20q3 0 21 -2.5t42 -6t49.5 -8t45.5 -7.5q16 5 26.5 19t10.5 32v192q0 23 -15.5 38t-35.5 15 q-55 0 -105.5 -20t-96.5 -49.5t-87.5 -64t-78.5 -63.5z" />
<glyph unicode="&#x106a;" horiz-adv-x="840" d="M799 351q-1 -78 -29.5 -143.5t-81.5 -118.5q-51 -53 -117.5 -79.5t-147.5 -28.5h-31t-64 1q-40 0 -92 1q-41 0 -77.5 15.5t-63.5 42.5t-42.5 63.5t-15.5 77.5v157q16 -19 43 -38q41 -28 93.5 -43.5t121.5 -15.5h125q31 0 52 9.5t33 23t17 27.5t5 23v841h272v-815z" />
<glyph unicode="&#x106b;" d="M799 -7h-272v841q0 9 -5 23t-17 27.5t-33 23t-52 9.5h-125q-69 0 -121.5 -15.5t-93.5 -43.5q-27 -19 -43 -38v157q0 41 15.5 77.5t42.5 63.5t63.5 42.5t77.5 15.5q52 0 92 1q35 0 64 0.5t31 0.5q81 -2 147.5 -28.5t117.5 -79.5q53 -53 81.5 -118.5t29.5 -143.5v-815z" />
<glyph unicode="&#x106c;" horiz-adv-x="840" d="M38 1166h272v-841q0 -9 5 -23t17 -27.5t33 -23t52 -9.5h125q69 0 121.5 15.5t93.5 43.5q27 19 43 38v-157q0 -41 -15.5 -77.5t-42.5 -63.5t-63.5 -42.5t-77.5 -15.5q-52 -1 -92 -1q-17 0 -34 -0.5t-30.5 -0.5h-22h-8.5q-81 2 -147.5 28.5t-117.5 79.5q-53 53 -81.5 118.5 t-29.5 143.5v815z" />
<glyph unicode="&#x106d;" horiz-adv-x="777" d="M669 776q-37 29 -78.5 63.5t-87.5 64t-96.5 49.5t-105.5 20q-20 0 -35.5 -15t-15.5 -38v-192q0 -18 10.5 -32t26.5 -19q19 3 45 7.5t50 8t42 6t21 2.5q56 2 104.5 -20t88.5 -64q84 -84 84 -199v-162q0 -58 -22 -109t-60 -89t-88.5 -60t-106.5 -23q-71 0 -120.5 9.5 t-91.5 29.5t-82 52t-90 77l3 233q37 -29 78.5 -63t89 -63t103.5 -49t122 -20q22 0 37 14.5t15 37.5v193q0 22 -15 37.5t-37 15.5q-38 -8 -69 -13q-26 -5 -48.5 -9t-25.5 -4q-56 -2 -104.5 19.5t-89.5 63.5q-83 86 -83 200v162q0 58 22 109t60 89t88.5 60t106.5 23 q57 0 108 -14t94 -35.5t76.5 -46.5t54.5 -46l25 -27z" />
<glyph unicode="&#x106e;" horiz-adv-x="1635" d="M617 1127q89 62 206 60q33 -3 55.5 -8.5t41 -14t36.5 -21t41 -30.5q50 39 105 57t119 17q80 -2 146 -28.5t119 -79.5q106 -106 106 -263v-443q0 -154 -109 -264q-51 -51 -110.5 -77.5t-127.5 -28.5q-19 97 -31 162.5t-18 99.5q1 0 8 -0.5t15 -0.5q9 -1 20 -1 q29 0 49 20.5t20 49.5v524q0 29 -20 48.5t-49 19.5h-34q-23 0 -41 -13.5t-24 -35.5q2 -14 3 -29t1 -31v-443q0 -154 -110 -264q-51 -51 -110.5 -77.5t-128.5 -28.5l-4 260q29 0 49 20.5t20 49.5v524q0 29 -20 48.5t-49 19.5h15q-10 0 -18.5 -2.5t-16.5 -6.5q13 -46 13 -101 v-443q0 -157 -106 -263q-40 -40 -86 -64.5t-100 -35.5l-46 257q23 6 38 24.5t15 44.5v516q0 30 -20.5 51.5t-49.5 21.5h-29q-29 0 -50.5 -21.5t-21.5 -51.5v-516q0 -29 19.5 -49.5t48.5 -22.5l-47 -258q-112 16 -198 104q-106 109 -106 263v443q0 156 103 261q54 52 120 80 t145 30q113 1 204 -59z" />
<glyph unicode="&#x106f;" horiz-adv-x="1303" d="M651 1110q38 22 61.5 34t45.5 19t47.5 11t68.5 10q155 0 265 -113q55 -51 83.5 -118t28.5 -150v-449q0 -57 -14 -109t-43 -95v-664q0 -51 -14 -95.5t-39.5 -77.5t-61 -52t-78.5 -19h-335q-11 0 -27 4t-31 12t-26 19t-11 25v270q22 -16 48.5 -28.5t46.5 -12.5h243v449 q-8 -2 -15 -2.5t-20 -0.5l-59 304l70 -17q28 0 49 21t31 63v500q0 46 -21.5 67t-71.5 21q-45 0 -68.5 -18t-23.5 -58l4 -555q0 -49 -5 -82.5t-13 -50.5t-23 -44t-43 -52q-51 -54 -119 -75.5t-155 -23.5q-78 -2 -146 21t-124 82q-57 54 -81 125t-24 149v449q0 256 225 348 l130 -231q-33 -5 -46.5 -27t-13.5 -66v-497q0 -16 4 -31t12 -35q11 -11 28.5 -15.5t37.5 -4.5q94 -3 94 86v497q0 38 -16.5 60t-48.5 33l116 231q20 -6 40 -18t38 -23z" />
<glyph unicode="&#x1070;" horiz-adv-x="1303" d="M1192 119v-639q0 -50 -14.5 -94t-40.5 -77t-62 -52t-78 -19h-335q-12 0 -28 4t-30.5 12t-24.5 19t-10 25v272q20 -19 45.5 -33t47.5 -14h241v446h-16q-33 0 -66 4.5t-63 13t-55 21.5t-41 31q-51 -34 -108.5 -51t-117.5 -19q-80 -2 -145 24.5t-121 82.5q-57 56 -85 123.5 t-28 144.5v178q0 31 13 66.5t28 74.5t28 80.5t13 83.5q0 13 -5.5 21t-16.5 20q-14 0 -28.5 -13.5t-31.5 -35.5v244q25 31 52 57q23 21 52.5 39t59.5 19q32 0 57.5 -11t46 -30.5t37 -45.5t31.5 -55q8 -20 13.5 -44t7.5 -45q3 -25 4 -50l-3.5 -16t-9 -41.5t-12 -56.5 t-13 -60.5t-12.5 -53.5t-10 -36q-3 -26 -4.5 -45.5t-1.5 -34.5v-240q0 -45 20.5 -64.5t65.5 -21.5q47 -3 68.5 18.5t21.5 67.5v506q0 64 -71 78l45 270q34 -7 69 -16.5t67 -25.5t60.5 -40t51.5 -59q19 -28 29 -58t14.5 -60t5 -59t0.5 -54v-500q0 -42 20 -67t68 -27 q90 0 90 94v500q0 24 -20 48t-66 40q-17 0 -32.5 -4.5t-35.5 -12.5l64 305q75 0 138.5 -25.5t119.5 -82.5q57 -54 84.5 -122t27.5 -146v-451q0 -127 -65 -225z" />
<glyph unicode="&#x1071;" horiz-adv-x="840" d="M185 1452v-86q0 -14 12 -24t28 -10q15 1 26.5 10.5t11.5 23.5v86q0 15 -11.5 25.5t-26.5 11.5q-16 0 -28 -11t-12 -26zM67 1478q0 30 11.5 57t31.5 47t47 31.5t57 11.5h20q30 0 56.5 -11.5t46.5 -31.5t31.5 -47t11.5 -57v-128q0 -30 -11.5 -56.5t-31.5 -46.5t-46.5 -31.5 t-56.5 -11.5h-20q-30 0 -57 11.5t-47 31.5t-31.5 46.5t-11.5 56.5v128zM185 1452v-86q0 -14 12 -24t28 -10q15 1 26.5 10.5t11.5 23.5v86q0 15 -11.5 25.5t-26.5 11.5q-16 0 -28 -11t-12 -26zM67 1478q0 30 11.5 57t31.5 47t47 31.5t57 11.5h20q30 0 56.5 -11.5t46.5 -31.5 t31.5 -47t11.5 -57v-128q0 -30 -11.5 -56.5t-31.5 -46.5t-46.5 -31.5t-56.5 -11.5h-20q-30 0 -57 11.5t-47 31.5t-31.5 46.5t-11.5 56.5v128zM585 1452v-86q0 -14 12 -24t28 -10q15 1 26.5 10.5t11.5 23.5v86q0 15 -11.5 25.5t-26.5 11.5q-16 0 -28 -11t-12 -26zM467 1478 q0 30 11.5 57t31.5 47t47 31.5t57 11.5h20q30 0 56.5 -11.5t46.5 -31.5t31.5 -47t11.5 -57v-128q0 -30 -11.5 -56.5t-31.5 -46.5t-46.5 -31.5t-56.5 -11.5h-20q-30 0 -57 11.5t-47 31.5t-31.5 46.5t-11.5 56.5v128zM585 1452v-86q0 -14 12 -24t28 -10q15 1 26.5 10.5 t11.5 23.5v86q0 15 -11.5 25.5t-26.5 11.5q-16 0 -28 -11t-12 -26zM467 1478q0 30 11.5 57t31.5 47t47 31.5t57 11.5h20q30 0 56.5 -11.5t46.5 -31.5t31.5 -47t11.5 -57v-128q0 -30 -11.5 -56.5t-31.5 -46.5t-46.5 -31.5t-56.5 -11.5h-20q-30 0 -57 11.5t-47 31.5 t-31.5 46.5t-11.5 56.5v128z" />
<glyph unicode="&#x1072;" d="M-315 1898q33 0 60.5 -10.5t47 -29t30.5 -43t11 -52.5v-118l-22 22q-2 5 -6 8.5t-7 5.5q-18 16 -55.5 23.5t-99.5 7.5h-17q-18 0 -28.5 -10t-10.5 -29v-295q0 -11 14 -21.5t36 -10.5h10q43 0 76.5 9.5t58.5 20.5q15 15 29 21l22 28v-129q0 -27 -11 -50.5t-30.5 -41.5 t-47 -28.5t-60.5 -10.5h-52q-57 2 -105.5 17t-82.5 47q-42 37 -61 78.5t-19 89.5v264q0 8 0.5 18.5t3.5 18.5q0 8 1 21t3 24q7 23 24 45.5t48 50.5q37 34 88.5 46t99.5 9q2 0 10.5 0.5t17.5 1.5z" />
<glyph unicode="&#x1073;" d="M-921 1538l268 175q25 14 49.5 23t50.5 9.5t53.5 -7.5t59.5 -29l270 -171l-87 -138l-292 184l-283 -184z" />
<glyph unicode="&#x1074;" d="M-832 1700l283 -184l292 184l87 -138l-270 -171q-32 -21 -59.5 -29t-53.5 -7.5t-50.5 9.5t-49.5 23l-268 175z" />
<glyph unicode="&#x1075;" horiz-adv-x="840" d="M651 1112q33 -26 58.5 -60.5t43 -69.5t26.5 -67.5t9 -54.5v-504q0 -23 1 -47t-0.5 -49t-7 -51t-19.5 -53q-21 -41 -53 -70t-68.5 -49t-74.5 -32t-72 -19l-48 266q76 20 76 86v502q0 43 -23 67t-71 21q-82 -3 -82 -88v-242q0 -14 1.5 -33.5t4.5 -42.5q2 -12 7 -34 t10.5 -48t11.5 -53t11 -49t8 -35t3 -12q3 -12 2.5 -36.5t-4 -50.5t-9.5 -50.5t-13 -36.5q-14 -30 -29.5 -56t-35 -45.5t-44 -30.5t-55.5 -10q-31 0 -60.5 18t-52.5 40q-27 26 -51 59v246q17 -26 29.5 -36.5t23.5 -10.5q16 5 24 13t3 24q-12 41 -26 81.5t-26 80t-20 77 t-8 72.5v168q0 81 27 147.5t84 120.5q56 57 121 85t143 26q32 -1 60.5 -4.5t55.5 -12t53.5 -22.5t55.5 -35z" />
<glyph unicode="&#x1076;" horiz-adv-x="840" d="M224 274q29 -15 63.5 -25t76.5 -15q-8 30 -19 59t-24.5 49t-28.5 25.5t-32 -11.5q-36 -36 -36 -82zM365 881q-19 -9 -34.5 -17.5t-31.5 -16t-32.5 -13t-36.5 -8.5q-55 -9 -94.5 5t-66 42.5t-41.5 68t-21 83t-3.5 87t9.5 80.5l178 35q-1 -7 -5 -22t-8 -35.5t-6.5 -43.5 t-1 -44.5t8 -40t21.5 -29.5q30 3 56 26t52.5 49.5t55.5 48t65 21.5q34 0 70 -4t70.5 -14.5t66 -28t58.5 -43.5q42 -41 63.5 -79.5t31 -74.5t10.5 -68t1 -59v-443q0 -78 -26 -144.5t-80 -120.5q-103 -101 -265 -106h-13.5t-27.5 1q-18 0 -39 1q-41 0 -77.5 15.5t-63.5 42.5 t-42.5 63.5t-15.5 77.5v157l2 -1q0 32 3.5 63t13 58.5t27 51t46.5 41.5q30 18 59 13t55.5 -25.5t49.5 -52.5t41.5 -69t32 -74.5t19.5 -68.5q19 21 19 48v493q0 42 -23 65.5t-59 23.5q-14 -1 -27 -3q-11 -2 -23.5 -5t-20.5 -7z" />
<glyph unicode="&#x1077;" horiz-adv-x="797" d="M467 275q16 11 25 26.5t9 32.5v146q-34 -84 -34 -205zM628 1102q33 -26 58 -59.5t42.5 -69t26 -68t8.5 -54.5v-496q0 -24 0.5 -48.5t-1.5 -49.5t-8 -50.5t-20 -51.5q-21 -41 -51.5 -69.5t-66 -48.5t-73 -31.5t-70.5 -17.5l-64 264h1q-8 87 -4.5 142t15.5 92t32.5 62.5 t47.5 51.5v233q0 91 -92 87q-84 -3 -84 -87v-238q0 -15 2 -34t6 -44q3 -12 8 -33.5t11 -47t11.5 -52.5t10 -48.5t7.5 -35.5t3 -13q3 -11 2.5 -34t-3.5 -48.5t-8.5 -50t-11.5 -37.5q-14 -29 -30 -54.5t-36 -45t-44.5 -30.5t-56.5 -11q-29 0 -57 17.5t-51 39.5q-26 26 -50 58 v243q31 -48 54 -48q14 8 21.5 16.5t3.5 21.5q-12 42 -26 82t-25.5 79t-19.5 76.5t-8 75.5v166q0 80 27 145t81 121q109 112 260 107q61 -2 114.5 -16.5t107.5 -57.5z" />
<glyph unicode="&#x1078;" horiz-adv-x="1303" d="M772 334q0 -84 94 -82q49 0 68 20q18 31 18 62v502q0 96 -86 92q-94 -2 -94 -92v-502zM868 -25q-163 2 -268 107q-63 65 -82 119q-6 37 -6 139v506q0 90 -92 90q-90 -2 -90 -90v-506q24 -82 86 -82l65 21l-63 -304q-162 5 -266.5 111.5t-104.5 265.5v449 q0 164 111.5 271.5t259.5 107.5q88 -11 131 -23q57 -22 96 -51q103 78 223 74q164 -4 271.5 -109.5t107.5 -269.5v-449q0 -155 -110.5 -267t-268.5 -110z" />
<glyph unicode="&#x1079;" horiz-adv-x="1263" d="M946 837q0 29 -21.5 50.5t-50.5 21.5h-29q-29 0 -50 -21.5t-21 -50.5v-516q0 -29 21 -50.5t50 -21.5h29q29 0 50.5 21.5t21.5 50.5v516zM320 525v-208q0 -29 19.5 -48.5t48.5 -19.5h12q-3 173 -80 276zM490 358v442q0 21 3 41h-2q0 29 -19.5 48.5t-48.5 19.5h-35 q-29 0 -48.5 -19.5t-19.5 -48.5v-255q45 -23 78 -68q14 -19 26.5 -45t21 -59t12 -74t-1.5 -91q-3 -17 -10.5 -48.5t-18 -68.5t-22 -75.5t-21.5 -69.5q-137 6 -238 107q-110 110 -110 264v442q0 157 107 264q102 104 265 107q64 1 120.5 -17.5t105.5 -58.5q50 40 105.5 58.5 t121.5 17.5q79 -2 145 -29.5t120 -79.5q103 -105 103 -262v-442q0 -154 -106 -264q-110 -111 -262 -107q-161 5 -265 107q-106 108 -106 264z" />
<glyph unicode="&#x107a;" horiz-adv-x="1264" d="M502 430v397q0 88 -94 88q-64 0 -86 -88v-491q0 -87 86 -87q33 0 65 21l-65 -285q-156 0 -262 109q-55 55 -81.5 121t-26.5 142v445q0 162 107 266q107 103 263 109q80 3 145 -23t119 -80q30 -30 50.5 -58.5t30.5 -56.5q5 -19 7 -55t2 -90v-499q0 -80 88 -85q92 -1 92 85 v499q0 13 -5.5 27t-17 25.5t-28.5 20t-39 10.5q-9 0 -23.5 -4t-35.5 -11l59 295q75 0 140 -27t120 -80q113 -107 113 -268v-445q0 -158 -105 -264q-102 -105 -268 -108q-29 0 -57.5 3.5t-54.5 12.5v-479l206 1l-34 -282h-201q-47 0 -85.5 16.5t-66 46.5t-42.5 72t-15 94v960 z" />
<glyph unicode="&#x107b;" horiz-adv-x="1267" d="M312 837v-516q0 -29 21.5 -50.5t50.5 -21.5h29q29 0 50 21.5t21 50.5v516q0 29 -21 50.5t-50 21.5h-29q-29 0 -50.5 -21.5t-21.5 -50.5zM938 525q-77 -103 -80 -276h12q29 0 48.5 19.5t19.5 48.5v208zM768 358q0 -156 -106 -264q-104 -102 -265 -107q-152 -4 -262 107 q-106 110 -106 264v442q0 157 103 262q54 52 120 79.5t145 29.5q66 1 121.5 -17.5t105.5 -58.5q49 40 105.5 58.5t120.5 17.5q163 -3 265 -107q107 -107 107 -264v-442q0 -154 -110 -264q-101 -101 -238 -107q-11 31 -22 69.5t-21.5 75.5t-18 68.5t-10.5 48.5q-5 50 -1.5 91 t12 74t21 59t26.5 45q33 45 78 68v255q0 29 -19.5 48.5t-48.5 19.5h-35q-29 0 -48.5 -19.5t-19.5 -48.5h-2q3 -20 3 -41v-442z" />
<glyph unicode="&#x107c;" horiz-adv-x="1103" d="M992 283q-1 45 -38 82q-17 17 -32.5 11.5t-28 -25.5t-23.5 -49t-19 -59q80 9 141 40zM120 283q59 -31 140 -40q-8 30 -19 59t-24 49t-28.5 25.5t-32.5 -11.5q-36 -36 -36 -82zM325 1176q59 1 119.5 -12.5t111.5 -48.5q51 35 111 48.5t118 12.5h80q41 0 77.5 -16t63.5 -43 t42.5 -63.5t15.5 -77.5v-140q-4 6 -9.5 11t-11.5 10q-35 27 -93 42.5t-149 15.5h-22q-34 0 -57 -21t-26 -58v-513q0 -14 5.5 -26t14.5 -22q6 31 19.5 68.5t32 74.5t41.5 69t49 52.5t55 25.5t59 -13q29 -18 47.5 -53.5t28.5 -70.5q11 -41 16 -89v-157q0 -41 -15.5 -77.5 t-42.5 -63.5t-63.5 -42.5t-77.5 -15.5q-21 -1 -39 -1q-15 -1 -27.5 -1h-13.5q-135 5 -229 76q-95 -72 -231 -76h-13.5t-27.5 1q-18 0 -39 1q-41 0 -77.5 15.5t-63.5 42.5t-42.5 63.5t-15.5 77.5v157q5 48 16 89q10 35 28 70.5t48 53.5t59.5 13t55.5 -25.5t49.5 -52.5 t41.5 -69t31 -74.5t20 -68.5q19 21 19 48v513q-3 37 -26 58t-55 21h-23q-91 0 -149.5 -15.5t-93.5 -42.5q-6 -5 -11 -10t-10 -11v140q0 41 15.5 77.5t42.5 63.5t63.5 43t77.5 16h80z" />
<glyph unicode="&#x107d;" horiz-adv-x="1194" d="M1071 283q-1 45 -38 82q-17 17 -31.5 11.5t-27.5 -25.5t-23.5 -49t-19.5 -59q42 5 76.5 15t63.5 25zM864 1176h82q41 0 77.5 -16t63.5 -43t42.5 -63.5t15.5 -77.5v-140q-5 6 -11 11t-11 10q-34 27 -92.5 42.5t-149.5 15.5h-23q-35 0 -59 -23.5t-24 -65.5v-503 q0 -14 5.5 -26t14.5 -22q6 31 19.5 68.5t32 74.5t41.5 69t49.5 52.5t55.5 25.5t59 -13q29 -18 46.5 -41.5t27.5 -51t13 -58.5t4 -63l2 1v-157q0 -41 -15.5 -77.5t-42.5 -63.5t-63.5 -42.5t-77.5 -15.5q-22 -1 -40 -1q-15 -1 -27.5 -1h-14.5q-69 2 -128 22t-107 60 q-2 -2 -4 -3.5t-3 -3.5q-54 -42 -107 -56.5t-114 -16.5q-153 -5 -262 107q-106 109 -106 263v175q0 36 7.5 73.5t19 76t25.5 78t26 80.5q4 13 -4 21.5t-22 16.5q-11 0 -24.5 -11t-27.5 -37v241q24 31 50 57q23 22 50.5 39.5t56.5 18.5q32 0 56.5 -11t44 -30t35.5 -44.5 t30 -54.5q6 -13 11.5 -37t8.5 -49.5t3.5 -48.5t-2.5 -34q0 1 -3 -12.5t-7.5 -35t-10 -48t-11 -52t-10.5 -47t-8 -32.5q-4 -26 -5.5 -44.5t-1.5 -32.5v-246q0 -83 83 -86q92 -5 92 86q-1 7 -1 14.5v14.5v453q0 27 1 59t10.5 68t31.5 74.5t64 79.5q27 26 58.5 43.5t65.5 28 t69.5 14.5t69.5 4z" />
<glyph unicode="&#x107e;" horiz-adv-x="1190" d="M1078 276q-1 46 -38 83q-17 17 -32 11t-27.5 -25.5t-23.5 -49t-19 -58.5q42 4 76.5 14t63.5 25zM872 1179h80q41 0 77.5 -15.5t63.5 -42.5t42.5 -63.5t15.5 -77.5v-140q-5 6 -10 11t-11 10q-35 26 -93 41.5t-149 15.5h-24q-18 0 -35.5 -6t-31.5 -17.5t-22.5 -28 t-8.5 -37.5v-512q0 -14 13.5 -26.5t21.5 -22.5q7 31 20.5 68.5t32 74.5t41.5 69.5t49 53t55 25.5t59 -13t47.5 -41.5t27.5 -51.5t13.5 -59t3.5 -63l1 1v-157q0 -41 -15.5 -77.5t-42.5 -63.5t-63.5 -42.5t-77.5 -15.5q-21 -1 -39 -1h-41q-29 1 -55 4t-50 10v-511 q0 -51 -15 -92.5t-42 -71.5t-65.5 -46t-85.5 -16h-105l-34 280l110 -1v465q-29 -10 -59 -14.5t-64 -5.5q-150 -3 -262 106q-54 57 -80 122t-26 143v165q0 36 8 76.5t19.5 82.5t25.5 85t26 84q4 13 -4 21.5t-21 16.5q-24 0 -54 -49v241q24 31 50 57q23 22 50.5 40t56.5 19 q32 0 57 -11t44.5 -30t35.5 -45t30 -55q6 -13 11.5 -37t9 -49.5t4 -48.5t-2.5 -34q0 1 -3 -12.5t-7.5 -35t-10 -48t-11.5 -52t-11 -47t-8 -32.5q-4 -25 -6 -53.5t-2 -42.5v-236q0 -83 84 -87q91 -3 91 87v29v461q0 27 1 59.5t10.5 68.5t31.5 75t64 80q26 26 57.5 43t66 27.5 t70 14.5t70.5 4z" />
<glyph unicode="&#x107f;" horiz-adv-x="840" d="M45 801q0 76 16 114l45 99q62 92 166 135l84 -92q58 -66 66 -121q18 -74 14 -129l-10 -92l-23 -101l-61 -178v-129q20 -84 84 -84q96 0 96 84v500q0 78 -65 90l112 252q230 -92 230 -348v-449q0 -157 -110.5 -268t-268.5 -109q-164 2 -269.5 112t-105.5 265v449zM356 682 q17 33 19 80l2 90q-2 25 -21 33q-37 -25 -37 -117v-172z" />
<glyph unicode="&#x1080;" horiz-adv-x="1190" d="M118 283q59 -31 140 -40q-8 30 -19 59t-24 49t-28 25.5t-31 -11.5q-37 -37 -38 -82zM323 1176q34 0 70 -4t70.5 -14.5t66 -28t58.5 -43.5q42 -41 63.5 -79.5t31.5 -74.5t11 -68t1 -59q0 -137 -1 -246q0 -47 -0.5 -92t-1 -81t-1 -59.5t-0.5 -26.5q5 -25 24 -41.5t45 -16.5 h34q29 0 48.5 20t19.5 49v534q0 29 -19.5 49.5t-48.5 20.5h-34q-3 0 -5.5 -0.5t-4.5 -0.5q6 33 18 98.5t31 163.5q69 -2 128 -29t110 -78q56 -56 82.5 -121t26.5 -143v-453q0 -78 -26 -144t-80 -119q-53 -53 -119 -79.5t-146 -28.5q-129 -2 -225 74q-92 -69 -227 -74h-13.5 t-27.5 1q-18 0 -39 1q-41 0 -77.5 15.5t-63.5 42.5t-42.5 63.5t-15.5 77.5v157l2 -1q0 32 3.5 63t13 58.5t27.5 51t47 41.5q30 18 59 13t55.5 -25.5t49.5 -52.5t41.5 -69t31.5 -74.5t20 -68.5q18 19 18 48v503q0 42 -23 65.5t-58 23.5h-23q-91 0 -149.5 -15.5t-93.5 -42.5 q-6 -5 -11 -10t-10 -11v140q0 41 15.5 77.5t42.5 63.5t63.5 43t77.5 16h80z" />
<glyph unicode="&#x1081;" horiz-adv-x="840" d="M526 489l2 340q0 93 -88 93q-36 0 -63 -27q-6 -8 -13 -24.5t-12 -41.5v-163q23 -45 43.5 -90t32.5 -89l33 -108l8 -100l-2 -35q-2 -13 -2 -26t-2 -21v-711q0 -51 -15 -96t-41 -78.5t-61 -52.5t-76 -19h-172q-13 0 -29.5 4t-31.5 12t-25 19t-10 25v272q22 -17 49 -30 t47 -13h76v496l-57 79q-32 56 -49 109t-17 104v482q0 165 107 266q52 56 119.5 83.5t148.5 29.5q77 2 144.5 -25t121.5 -86q57 -54 84 -119.5t27 -148.5v-271zM338 608v-291q0 -62 61 -114q16 0 26.5 27t10.5 73q0 41 -10 51q0 16 -3.5 28.5t-8.5 25.5z" />
<glyph unicode="&#x1082;" d="M-137 -674q-44 -42 -95 -63t-108 -19q-57 1 -108 23t-89.5 60t-61 88.5t-22.5 107.5v166q0 57 20 107.5t62 90.5q87 87 199 84h57l37 -264q-16 12 -29 22q-12 8 -23.5 15.5t-18.5 7.5h-35q-20 0 -35.5 -16t-15.5 -39v-193q0 -25 15.5 -38t35.5 -13h35q10 0 34.5 13 t54.5 33.5t60 44.5t51 46l2 -239z" />
<glyph unicode="&#x1083;" horiz-adv-x="683" d="M70 1188h123q61 0 119.5 -15.5t104.5 -49.5t73.5 -89t27.5 -134l1 -1395h130v-263h-76q-62 0 -120 15t-104 49.5t-73.5 89t-27.5 134.5l-2 1395h-176v263z" />
<glyph unicode="&#x1084;" horiz-adv-x="780" d="M428 1184q2 -2 15 -2.5t30 0.5q18 0 43 2q42 0 79 -16t64.5 -44t43.5 -66t16 -81v-141q-3 6 -9.5 11t-11.5 13q-35 25 -94.5 42.5t-148.5 17.5h-33q-35 0 -59.5 -24.5t-24.5 -68.5l151 -254l-151 -247q0 -18 8 -33t21 -26t30 -17t35 -6h23q68 0 123.5 15.5t97.5 41.5 q12 9 23 19t20 18v-160q0 -41 -16 -77.5t-43.5 -64t-64.5 -43.5t-79 -16h-88q-82 0 -149.5 28.5t-116.5 82.5q-57 53 -84 119.5t-27 144.5l180 228l-180 221q0 29 1 62.5t11 70.5t33 77.5t66 82.5q26 27 57.5 44t66 27.5t71 14.5t71.5 4z" />
<glyph unicode="&#x1085;" d="M-655 1751q8 25 26.5 50t50.5 54q42 32 97 44t106 12h60q34 0 63.5 -10t51.5 -28t35 -43.5t13 -55.5v-115l-22 22q-5 2 -7 5.5t-7 5.5q-25 11 -65.5 20.5t-106.5 9.5h-19q-18 0 -30 -9.5t-15 -20.5l109 -154l-109 -149q3 -13 16.5 -20t34.5 -7h13q48 0 87.5 7t65.5 24 q9 3 18 7.5t15 12.5l22 27v-127q0 -30 -13 -55t-34.5 -43.5t-50.5 -28.5t-61 -10h-64q-121 0 -203 65q-43 34 -63.5 76t-20.5 92v6l121 127l-121 123v6v35q0 12 1 24t6 21z" />
<glyph unicode="&#x1086;" d="M-475 1646v-88q0 -15 12 -24.5t29 -9.5q15 1 27 10t12 24v88q0 14 -12 25t-27 12q-17 0 -29 -11.5t-12 -25.5zM-593 1672q0 30 11.5 57.5t31.5 47.5t47 32t57 12h21q30 0 57 -12t47.5 -32t32 -47.5t11.5 -57.5v-129q0 -4 -2 -14.5t-5 -22.5t-6 -22.5t-6 -14.5l-114 -290 l-187 -2l91 231q-40 17 -63.5 53t-23.5 82v129zM-475 1646v-88q0 -15 12 -24.5t29 -9.5q15 1 27 10t12 24v88q0 14 -12 25t-27 12q-17 0 -29 -11.5t-12 -25.5zM-593 1672q0 30 11.5 57.5t31.5 47.5t47 32t57 12h21q30 0 57 -12t47.5 -32t32 -47.5t11.5 -57.5v-129 q0 -4 -2 -14.5t-5 -22.5t-6 -22.5t-6 -14.5l-114 -290l-187 -2l91 231q-40 17 -63.5 53t-23.5 82v129z" />
<glyph unicode="&#x1087;" horiz-adv-x="420" d="M167 241v-88q0 -15 12 -24.5t29 -9.5q15 1 27 10t12 24v88q0 14 -12 25t-27 12q-17 0 -29 -11.5t-12 -25.5zM49 267q0 30 11.5 57.5t31.5 47.5t47 32t57 12h21q30 0 57 -12t47.5 -32t32 -47.5t11.5 -57.5v-129q0 -4 -2 -14.5t-5 -22.5t-6 -22.5t-6 -14.5l-114 -290 l-187 -2l91 231q-40 17 -63.5 53t-23.5 82v129zM167 241v-88q0 -15 12 -24.5t29 -9.5q15 1 27 10t12 24v88q0 14 -12 25t-27 12q-17 0 -29 -11.5t-12 -25.5zM49 267q0 30 11.5 57.5t31.5 47.5t47 32t57 12h21q30 0 57 -12t47.5 -32t32 -47.5t11.5 -57.5v-129q0 -4 -2 -14.5 t-5 -22.5t-6 -22.5t-6 -14.5l-114 -290l-187 -2l91 231q-40 17 -63.5 53t-23.5 82v129z" />
<glyph unicode="&#x1088;" horiz-adv-x="407" d="M167 241v-88q0 -15 12 -24.5t29 -9.5q15 1 27 10t12 24v88q0 14 -12 25t-27 12q-17 0 -29 -11.5t-12 -25.5zM49 267q0 30 11.5 57.5t31.5 47.5t47 32t57 12h21q30 0 57 -12t47.5 -32t32 -47.5t11.5 -57.5v-129q0 -4 -2 -14.5t-5 -22.5t-6 -22.5t-6 -14.5l-114 -290 l-187 -2l91 231q-40 17 -63.5 53t-23.5 82v129zM167 241v-88q0 -15 12 -24.5t29 -9.5q15 1 27 10t12 24v88q0 14 -12 25t-27 12q-17 0 -29 -11.5t-12 -25.5zM49 267q0 30 11.5 57.5t31.5 47.5t47 32t57 12h21q30 0 57 -12t47.5 -32t32 -47.5t11.5 -57.5v-129q0 -4 -2 -14.5 t-5 -22.5t-6 -22.5t-6 -14.5l-114 -290l-187 -2l91 231q-40 17 -63.5 53t-23.5 82v129zM168 902v-86q0 -14 12 -24t28 -10q15 1 26.5 10.5t11.5 23.5v86q0 15 -11.5 25.5t-26.5 11.5q-16 0 -28 -11t-12 -26zM50 928q0 30 11.5 57t31.5 47t47 31.5t57 11.5h20 q30 0 56.5 -11.5t46.5 -31.5t31.5 -47t11.5 -57v-128q0 -30 -11.5 -56.5t-31.5 -46.5t-46.5 -31.5t-56.5 -11.5h-20q-30 0 -57 11.5t-47 31.5t-31.5 46.5t-11.5 56.5v128zM168 902v-86q0 -14 12 -24t28 -10q15 1 26.5 10.5t11.5 23.5v86q0 15 -11.5 25.5t-26.5 11.5 q-16 0 -28 -11t-12 -26zM50 928q0 30 11.5 57t31.5 47t47 31.5t57 11.5h20q30 0 56.5 -11.5t46.5 -31.5t31.5 -47t11.5 -57v-128q0 -30 -11.5 -56.5t-31.5 -46.5t-46.5 -31.5t-56.5 -11.5h-20q-30 0 -57 11.5t-47 31.5t-31.5 46.5t-11.5 56.5v128z" />
<glyph unicode="&#x1089;" horiz-adv-x="414" d="M175 230v-86q0 -14 12 -24t28 -10q15 1 26.5 10.5t11.5 23.5v86q0 15 -11.5 25.5t-26.5 11.5q-16 0 -28 -11t-12 -26zM57 256q0 30 11.5 57t31.5 47t47 31.5t57 11.5h20q30 0 56.5 -11.5t46.5 -31.5t31.5 -47t11.5 -57v-128q0 -30 -11.5 -56.5t-31.5 -46.5t-46.5 -31.5 t-56.5 -11.5h-20q-30 0 -57 11.5t-47 31.5t-31.5 46.5t-11.5 56.5v128zM175 230v-86q0 -14 12 -24t28 -10q15 1 26.5 10.5t11.5 23.5v86q0 15 -11.5 25.5t-26.5 11.5q-16 0 -28 -11t-12 -26zM57 256q0 30 11.5 57t31.5 47t47 31.5t57 11.5h20q30 0 56.5 -11.5t46.5 -31.5 t31.5 -47t11.5 -57v-128q0 -30 -11.5 -56.5t-31.5 -46.5t-46.5 -31.5t-56.5 -11.5h-20q-30 0 -57 11.5t-47 31.5t-31.5 46.5t-11.5 56.5v128z" />
<glyph unicode="&#x108a;" horiz-adv-x="729" d="M169 242v-92q0 -14 13 -25t30 -10q16 0 28.5 10.5t12.5 24.5v92q0 16 -12.5 27t-28.5 11q-17 1 -30 -10.5t-13 -27.5zM45 269q0 33 12 61t33 49t49.5 33t61.5 12h20q32 0 60.5 -12t49.5 -33t33 -49t12 -61v-49l293 132l3 -180l-364 -167q-19 -12 -41 -19t-46 -7h-20 q-33 0 -61.5 12t-49.5 33t-33 49.5t-12 61.5v134zM169 242v-92q0 -14 13 -25t30 -10q16 0 28.5 10.5t12.5 24.5v92q0 16 -12.5 27t-28.5 11q-17 1 -30 -10.5t-13 -27.5zM45 269q0 33 12 61t33 49t49.5 33t61.5 12h20q32 0 60.5 -12t49.5 -33t33 -49t12 -61v-49l293 132 l3 -180l-364 -167q-19 -12 -41 -19t-46 -7h-20q-33 0 -61.5 12t-49.5 33t-33 49.5t-12 61.5v134zM169 906v-92q0 -14 13 -25t30 -10q16 0 28.5 10.5t12.5 24.5v92q0 16 -12.5 27t-28.5 11q-17 1 -30 -10.5t-13 -27.5zM45 933q0 33 12 61t33 49t49.5 33t61.5 12h20 q32 0 60.5 -12t49.5 -33t33 -49t12 -61v-49l293 132l3 -180l-364 -167q-19 -12 -41 -19t-46 -7h-20q-33 0 -61.5 12t-49.5 33t-33 49.5t-12 61.5v134zM169 906v-92q0 -14 13 -25t30 -10q16 0 28.5 10.5t12.5 24.5v92q0 16 -12.5 27t-28.5 11q-17 1 -30 -10.5t-13 -27.5z M45 933q0 33 12 61t33 49t49.5 33t61.5 12h20q32 0 60.5 -12t49.5 -33t33 -49t12 -61v-49l293 132l3 -180l-364 -167q-19 -12 -41 -19t-46 -7h-20q-33 0 -61.5 12t-49.5 33t-33 49.5t-12 61.5v134z" />
<glyph unicode="&#x108b;" horiz-adv-x="445" d="M175 574v-86q0 -14 12 -24t28 -10q15 1 26.5 10.5t11.5 23.5v86q0 15 -11.5 25.5t-26.5 11.5q-16 0 -28 -11t-12 -26zM57 600q0 30 11.5 57t31.5 47t47 31.5t57 11.5h20q30 0 56.5 -11.5t46.5 -31.5t31.5 -47t11.5 -57v-128q0 -30 -11.5 -56.5t-31.5 -46.5t-46.5 -31.5 t-56.5 -11.5h-20q-30 0 -57 11.5t-47 31.5t-31.5 46.5t-11.5 56.5v128zM175 574v-86q0 -14 12 -24t28 -10q15 1 26.5 10.5t11.5 23.5v86q0 15 -11.5 25.5t-26.5 11.5q-16 0 -28 -11t-12 -26zM57 600q0 30 11.5 57t31.5 47t47 31.5t57 11.5h20q30 0 56.5 -11.5t46.5 -31.5 t31.5 -47t11.5 -57v-128q0 -30 -11.5 -56.5t-31.5 -46.5t-46.5 -31.5t-56.5 -11.5h-20q-30 0 -57 11.5t-47 31.5t-31.5 46.5t-11.5 56.5v128z" />
<glyph unicode="&#x108c;" horiz-adv-x="840" d="M185 247v-86q0 -14 12 -24t28 -10q15 1 26.5 10.5t11.5 23.5v86q0 15 -11.5 25.5t-26.5 11.5q-16 0 -28 -11t-12 -26zM67 273q0 30 11.5 57t31.5 47t47 31.5t57 11.5h20q30 0 56.5 -11.5t46.5 -31.5t31.5 -47t11.5 -57v-128q0 -30 -11.5 -56.5t-31.5 -46.5t-46.5 -31.5 t-56.5 -11.5h-20q-30 0 -57 11.5t-47 31.5t-31.5 46.5t-11.5 56.5v128zM185 247v-86q0 -14 12 -24t28 -10q15 1 26.5 10.5t11.5 23.5v86q0 15 -11.5 25.5t-26.5 11.5q-16 0 -28 -11t-12 -26zM67 273q0 30 11.5 57t31.5 47t47 31.5t57 11.5h20q30 0 56.5 -11.5t46.5 -31.5 t31.5 -47t11.5 -57v-128q0 -30 -11.5 -56.5t-31.5 -46.5t-46.5 -31.5t-56.5 -11.5h-20q-30 0 -57 11.5t-47 31.5t-31.5 46.5t-11.5 56.5v128zM585 247v-86q0 -14 12 -24t28 -10q15 1 26.5 10.5t11.5 23.5v86q0 15 -11.5 25.5t-26.5 11.5q-16 0 -28 -11t-12 -26zM467 273 q0 30 11.5 57t31.5 47t47 31.5t57 11.5h20q30 0 56.5 -11.5t46.5 -31.5t31.5 -47t11.5 -57v-128q0 -30 -11.5 -56.5t-31.5 -46.5t-46.5 -31.5t-56.5 -11.5h-20q-30 0 -57 11.5t-47 31.5t-31.5 46.5t-11.5 56.5v128zM585 247v-86q0 -14 12 -24t28 -10q15 1 26.5 10.5 t11.5 23.5v86q0 15 -11.5 25.5t-26.5 11.5q-16 0 -28 -11t-12 -26zM467 273q0 30 11.5 57t31.5 47t47 31.5t57 11.5h20q30 0 56.5 -11.5t46.5 -31.5t31.5 -47t11.5 -57v-128q0 -30 -11.5 -56.5t-31.5 -46.5t-46.5 -31.5t-56.5 -11.5h-20q-30 0 -57 11.5t-47 31.5t-31.5 46.5 t-11.5 56.5v128z" />
<glyph unicode="&#x108d;" d="M-906 -564v264h806v-264h-806v0z" />
<glyph unicode="&#x108e;" horiz-adv-x="840" d="M799 352q0 -155 -112 -267t-267 -110q-156 5 -264.5 112.5t-108.5 264.5v449q0 162 110.5 272.5t262.5 106.5q164 -2 271.5 -108.5t107.5 -270.5v-449zM473 549q-35 -57 -53 -57q-41 0 -62 79l-24 91v-353q0 -88 86 -86q96 4 96 86v373zM510 852q-49 47 -90 47 q-37 -8 -55 -20l-23 -35l27 -94q34 -68 51 -68q37 10 53 61z" />
<glyph unicode="&#x108f;" horiz-adv-x="438" d="M252 241q0 14 -12 25.5t-29 11.5q-15 -1 -27 -12t-12 -25v-88q0 -15 12 -24t27 -10q17 0 29 9.5t12 24.5v88zM370 138q0 -46 -23.5 -82t-63.5 -53l91 -231l-187 2l-114 290q-3 4 -6 14.5t-6 22.5t-5 22.5t-2 14.5v129q0 30 11.5 57.5t32 47.5t47.5 32t57 12h21 q30 0 57 -12t47 -32t31.5 -47.5t11.5 -57.5v-129zM252 241q0 14 -12 25.5t-29 11.5q-15 -1 -27 -12t-12 -25v-88q0 -15 12 -24t27 -10q17 0 29 9.5t12 24.5v88zM370 138q0 -46 -23.5 -82t-63.5 -53l91 -231l-187 2l-114 290q-3 4 -6 14.5t-6 22.5t-5 22.5t-2 14.5v129 q0 30 11.5 57.5t32 47.5t47.5 32t57 12h21q30 0 57 -12t47 -32t31.5 -47.5t11.5 -57.5v-129zM251 902q0 15 -12 26t-28 11q-15 -1 -26.5 -11.5t-11.5 -25.5v-86q0 -14 11.5 -23.5t26.5 -10.5q16 0 28 10t12 24v86zM369 800q0 -30 -11.5 -56.5t-31.5 -46.5t-47 -31.5 t-57 -11.5h-20q-30 0 -56.5 11.5t-46.5 31.5t-31.5 46.5t-11.5 56.5v128q0 30 11.5 57t31.5 47t46.5 31.5t56.5 11.5h20q30 0 57 -11.5t47 -31.5t31.5 -47t11.5 -57v-128zM251 902q0 15 -12 26t-28 11q-15 -1 -26.5 -11.5t-11.5 -25.5v-86q0 -14 11.5 -23.5t26.5 -10.5 q16 0 28 10t12 24v86zM369 800q0 -30 -11.5 -56.5t-31.5 -46.5t-47 -31.5t-57 -11.5h-20q-30 0 -56.5 11.5t-46.5 31.5t-31.5 46.5t-11.5 56.5v128q0 30 11.5 57t31.5 47t46.5 31.5t56.5 11.5h20q30 0 57 -11.5t47 -31.5t31.5 -47t11.5 -57v-128z" />
<glyph unicode="&#x1090;" horiz-adv-x="840" d="M52 1155q0 414 367 414q370 0 370 -414v-727q0 -425 -370 -425q-367 0 -367 425v727zM322 1145v-709q0 -51 6 -83.5t18 -51.5t30.5 -26.5t44.5 -7.5q24 0 42.5 8t31 27.5t18.5 52t6 81.5v709q0 46 -6 77t-18.5 49.5t-31 26t-42.5 7.5q-25 0 -43.5 -7.5t-31 -26 t-18.5 -49.5t-6 -77z" />
<glyph unicode="&#x1091;" horiz-adv-x="649" d="M299 1569q140 9 164 -106v-1163l139 60l2 -266l-220 -93q-131 18 -162 106v1162l-172 -81v270z" />
<glyph unicode="&#x1092;" horiz-adv-x="840" d="M784 1155v-427q0 -34 -13.5 -76t-34.5 -87.5t-44.5 -91.5t-44.5 -88t-34.5 -77.5t-13.5 -59.5v-245h-271v254q0 27 14 67t34.5 87t44.5 98.5t44.5 100.5t34.5 93.5t14 77.5v364q0 46 -6 77t-18.5 49.5t-31 26t-42.5 7.5q-34 0 -62.5 -26t-37.5 -69v-237h-267v596h267v-93 q3 15 12 31.5t22.5 30t30.5 22.5t34 9q369 0 369 -414z" />
<glyph unicode="&#x1093;" horiz-adv-x="1019" d="M622 1568q134 -39 119 -153l-144 -419l58 23q47 17 91.5 4t80 -47t59.5 -82.5t31 -102.5l94 -788l-221 5l-87 799q-45 12 -94 -8.5t-105 -72.5l-249 -723h-255l451 1306l-189 -20l88 254z" />
<glyph unicode="&#x1094;" horiz-adv-x="936" d="M0 3l415 1505q6 17 22 28.5t37.5 17.5t45.5 5.5t45.5 -6.5t36.5 -18t20 -30l216 -1170l67 66l26 -304l-70 -64q-26 -18 -54.5 -26.5t-54 -4t-45 23.5t-26.5 55l-167 996l-293 -1074h-221z" />
<glyph unicode="&#x1095;" horiz-adv-x="949" d="M506 791h-196v-53v-302q0 -51 5.5 -83.5t17.5 -51.5t30.5 -26.5t44.5 -7.5q25 0 43.5 8t30.5 27.5t18 52t6 81.5v355zM40 428v296q0 66 27 125.5t67.5 103.5t87.5 70t88 26l196 2v518h270v-517l148 1v-262h-148v-363q0 -425 -369 -425q-367 0 -367 425z" />
<glyph unicode="&#x1096;" horiz-adv-x="955" d="M506 1111q0 49 -6 81.5t-18 52t-30.5 27.5t-43.5 8q-26 0 -44.5 -7.5t-30.5 -26.5t-17.5 -51.5t-5.5 -83.5v-302v-53h196v355zM40 1119q0 425 367 425q369 0 369 -425v-363h148v-262l-148 1v-517h-270v518l-196 2q-41 0 -88 26t-87.5 70t-67.5 103.5t-27 125.5v296z" />
<glyph unicode="&#x1097;" horiz-adv-x="840" d="M365 238h451l-35 -263h-590q-33 0 -62.5 20.5t-47.5 52.5t-21.5 72.5t13.5 80.5l415 1080h-458l33 260h596q33 0 59.5 -24.5t43 -59.5t21 -74t-5.5 -68z" />
<glyph unicode="&#x1098;" horiz-adv-x="799" d="M499 651q0 12 -4.5 30t-11.5 39t-16.5 44t-18.5 45q-23 51 -51 109q-27 -55 -47 -104q-18 -42 -32.5 -84.5t-14.5 -66.5v-227q0 -51 5.5 -83.5t17.5 -51.5t30.5 -26.5t43.5 -7.5t43.5 8t31 27.5t18.5 52t6 81.5v215zM265 1134l-265 435h261l136 -220l136 220h260 l-265 -435q58 -92 103 -161t76 -123.5t46.5 -99t15.5 -87.5v-235q0 -425 -369 -425q-367 0 -367 425v227h-2l2 1q0 39 16.5 84.5t46.5 103t73 129t96 161.5z" />
<glyph unicode="&#x1099;" horiz-adv-x="796" d="M499 1109q0 49 -6 81.5t-18.5 52t-31 27.5t-43.5 8t-43.5 -7.5t-30.5 -26.5t-17.5 -51.5t-5.5 -83.5v-227q0 -12 4 -29.5t10.5 -37.5t15 -42t17.5 -43q20 -49 47 -103q28 57 51 109q9 22 18.5 44.5t16.5 43.5t11.5 39.5t4.5 30.5v215zM265 411q-53 90 -96 161.5t-73 129 t-46.5 103t-16.5 84.5l-2 1h2v227q0 425 367 425q369 0 369 -425v-235q0 -43 -15.5 -87.5t-46.5 -99t-76 -123.5t-103 -161l265 -435h-260l-136 220l-136 -220h-261z" />
<glyph unicode="&#x109a;" horiz-adv-x="430" d="M160 1542v-86q0 -14 12 -24t28 -10q15 1 26.5 10.5t11.5 23.5v86q0 15 -11.5 25.5t-26.5 11.5q-16 0 -28 -11t-12 -26zM42 1568q0 30 11.5 57t31.5 47t47 31.5t57 11.5h20q30 0 56.5 -11.5t46.5 -31.5t31.5 -47t11.5 -57v-128q0 -30 -11.5 -56.5t-31.5 -46.5t-46.5 -31.5 t-56.5 -11.5h-20q-30 0 -57 11.5t-47 31.5t-31.5 46.5t-11.5 56.5v128zM160 1542v-86q0 -14 12 -24t28 -10q15 1 26.5 10.5t11.5 23.5v86q0 15 -11.5 25.5t-26.5 11.5q-16 0 -28 -11t-12 -26zM42 1568q0 30 11.5 57t31.5 47t47 31.5t57 11.5h20q30 0 56.5 -11.5t46.5 -31.5 t31.5 -47t11.5 -57v-128q0 -30 -11.5 -56.5t-31.5 -46.5t-46.5 -31.5t-56.5 -11.5h-20q-30 0 -57 11.5t-47 31.5t-31.5 46.5t-11.5 56.5v128z" />
<glyph unicode="&#x109b;" horiz-adv-x="438" d="M168 1646v-88q0 -15 12 -24.5t29 -9.5q15 1 27 10t12 24v88q0 14 -12 25t-27 12q-17 0 -29 -11.5t-12 -25.5zM50 1672q0 30 11.5 57.5t31.5 47.5t47 32t57 12h21q30 0 57 -12t47.5 -32t32 -47.5t11.5 -57.5v-129q0 -4 -2 -14.5t-5 -22.5t-6 -22.5t-6 -14.5l-114 -290 l-187 -2l91 231q-40 17 -63.5 53t-23.5 82v129zM168 1646v-88q0 -15 12 -24.5t29 -9.5q15 1 27 10t12 24v88q0 14 -12 25t-27 12q-17 0 -29 -11.5t-12 -25.5zM50 1672q0 30 11.5 57.5t31.5 47.5t47 32t57 12h21q30 0 57 -12t47.5 -32t32 -47.5t11.5 -57.5v-129 q0 -4 -2 -14.5t-5 -22.5t-6 -22.5t-6 -14.5l-114 -290l-187 -2l91 231q-40 17 -63.5 53t-23.5 82v129z" />
<glyph unicode="&#x109c;" horiz-adv-x="754" d="M169 863q0 -16 13 -27.5t30 -10.5q16 0 28.5 11t12.5 27v92q0 14 -12.5 24.5t-28.5 10.5q-17 1 -30 -10t-13 -25v-92zM45 836v134q0 33 12 61.5t33 49.5t49.5 33t61.5 12h20q24 0 46 -7t41 -19l364 -167l-3 -180l-293 132v-49q0 -33 -12 -61t-33 -49t-49.5 -33t-60.5 -12 h-20q-33 0 -61.5 12t-49.5 33t-33 49t-12 61zM169 863q0 -16 13 -27.5t30 -10.5q16 0 28.5 11t12.5 27v92q0 14 -12.5 24.5t-28.5 10.5q-17 1 -30 -10t-13 -25v-92zM45 836v134q0 33 12 61.5t33 49.5t49.5 33t61.5 12h20q24 0 46 -7t41 -19l364 -167l-3 -180l-293 132v-49 q0 -33 -12 -61t-33 -49t-49.5 -33t-60.5 -12h-20q-33 0 -61.5 12t-49.5 33t-33 49t-12 61zM169 199q0 -16 13 -27.5t30 -10.5q16 0 28.5 11t12.5 27v92q0 14 -12.5 24.5t-28.5 10.5q-17 1 -30 -10t-13 -25v-92zM45 306q0 33 12 61.5t33 49.5t49.5 33t61.5 12h20q24 0 46 -7 t41 -19l364 -167l-3 -180l-293 132v-49q0 -33 -12 -61t-33 -49t-49.5 -33t-60.5 -12h-20q-33 0 -61.5 12t-49.5 33t-33 49t-12 61v134zM169 199q0 -16 13 -27.5t30 -10.5q16 0 28.5 11t12.5 27v92q0 14 -12.5 24.5t-28.5 10.5q-17 1 -30 -10t-13 -25v-92zM45 306 q0 33 12 61.5t33 49.5t49.5 33t61.5 12h20q24 0 46 -7t41 -19l364 -167l-3 -180l-293 132v-49q0 -33 -12 -61t-33 -49t-49.5 -33t-60.5 -12h-20q-33 0 -61.5 12t-49.5 33t-33 49t-12 61v134z" />
<glyph unicode="&#x109d;" d="M-959 1744l25 26q21 21 54.5 45.5t76.5 45.5t94.5 35t108.5 14q56 -1 106.5 -23t88.5 -59.5t60 -87t22 -106.5l1 -336q-3 -17 3.5 -30t18.5 -21t28 -12t32 -4l-82 -166q-38 0 -77 4t-71 15.5t-52.5 32t-20.5 53.5l7 486q0 20 -15 35.5t-37 15.5q-54 0 -104.5 -19.5 t-96.5 -48.5t-88 -63t-79 -63z" />
<glyph unicode="&#x109e;" horiz-adv-x="421" d="M-108 1188h123q61 0 119.5 -15.5t104.5 -49.5t73.5 -89t27.5 -134l1 -1395h130v-263h-76q-62 0 -120 15t-104 49.5t-73.5 89t-27.5 134.5l-2 1395h-176v263zM160 1574v-86q0 -14 12 -24t28 -10q15 1 26.5 10.5t11.5 23.5v86q0 15 -11.5 25.5t-26.5 11.5q-16 0 -28 -11 t-12 -26zM42 1600q0 30 11.5 57t31.5 47t47 31.5t57 11.5h20q30 0 56.5 -11.5t46.5 -31.5t31.5 -47t11.5 -57v-128q0 -30 -11.5 -56.5t-31.5 -46.5t-46.5 -31.5t-56.5 -11.5h-20q-30 0 -57 11.5t-47 31.5t-31.5 46.5t-11.5 56.5v128zM160 1574v-86q0 -14 12 -24t28 -10 q15 1 26.5 10.5t11.5 23.5v86q0 15 -11.5 25.5t-26.5 11.5q-16 0 -28 -11t-12 -26zM42 1600q0 30 11.5 57t31.5 47t47 31.5t57 11.5h20q30 0 56.5 -11.5t46.5 -31.5t31.5 -47t11.5 -57v-128q0 -30 -11.5 -56.5t-31.5 -46.5t-46.5 -31.5t-56.5 -11.5h-20q-30 0 -57 11.5 t-47 31.5t-31.5 46.5t-11.5 56.5v128z" />
<glyph unicode="&#x109f;" horiz-adv-x="1143" d="M339 827v-63v-380q0 -17 9.5 -37t20.5 -37q13 -20 30 -39l-134 -294q-33 19 -65 40q-27 18 -55.5 41.5t-45.5 49.5q-35 54 -46.5 108t-11.5 105v473q0 162 106 266q54 54 119.5 80.5t142.5 28.5q153 3 265 -106q110 -108 110 -269v-1293h70v1268q0 37 -5 83.5t-23.5 96.5 t-55 100t-100.5 94q-48 7 -91.5 35t-78.5 64q-43 42 -63.5 91t-20.5 104v206q0 57 22 103t60 78.5t88 50t106 18.5q55 0 104.5 -18t90 -44t72.5 -54.5t53 -49.5l25 -26l-3 -231q-14 14 -38 35.5t-53 46t-61.5 49.5t-63 44.5t-57.5 32t-45 12.5h-35q-22 0 -37.5 -15 t-15.5 -37v-209q0 -21 15.5 -36t37.5 -15l55 -15q88 -36 155.5 -95t113.5 -135.5t69.5 -168t23.5 -191.5l3 -1236q0 -67 -18 -121.5t-50.5 -92.5t-78 -59t-100.5 -21h-112q-36 0 -76.5 23t-75 60.5t-57.5 85t-23 96.5l3 1319q0 89 -88 89q-33 0 -61 -26q-16 -17 -25 -63z " />
<glyph unicode="&#x1700;" />
<glyph unicode="&#x200b;" />
<glyph unicode="&#x200c;" />
<glyph unicode="&#x200d;" />
<glyph unicode="&#x2013;" horiz-adv-x="1024" d="M0 756h1024v-224h-1024v224z" />
<glyph unicode="&#x2014;" horiz-adv-x="2048" d="M0 760h2044h8v-228h-2044h-8v228z" />
<glyph unicode="&#x2018;" horiz-adv-x="567" d="M156 1016v264q0 90 27.5 149.5t65.5 86t80 39t74 18.5v-96q-141 -17 -131 -197h131v-264h-247z" />
<glyph unicode="&#x2019;" horiz-adv-x="567" d="M164 1536h248v-264q0 -260 -248 -289v92q61 12 98 53t35 144h-133v264z" />
<glyph unicode="&#x201a;" horiz-adv-x="455" d="M317 45q0 -71 -8 -123.5t-44 -105t-111 -86.5l-45 69q109 44 110 201h-94v209h192v-164z" />
<glyph unicode="&#x201c;" horiz-adv-x="1024" d="M580 1016v264q0 258 251 289v-92q-61 -4 -100 -51.5t-31 -145.5h131v-264h-251zM180 1016v264q0 256 248 289v-92q-59 -4 -99 -53.5t-32 -143.5h131v-264h-248z" />
<glyph unicode="&#x201d;" horiz-adv-x="1024" d="M600 1536h248v-264q0 -262 -248 -289v92q59 15 96 50.5t31 146.5h-127v264zM197 1536h247v-264q0 -109 -53 -192t-194 -97v92q65 17 98 52.5t33 144.5h-131v264z" />
<glyph unicode="&#x2020;" horiz-adv-x="1024" d="M385 1096v481h262v-481h301v-232h-301v-1183h-262v1183h-309v232h309z" />
<glyph unicode="&#x2022;" horiz-adv-x="680" d="M475 643v-266h-266v266h266z" />
<glyph unicode="&#x2030;" horiz-adv-x="2275" d="M360 1360q-71 0 -95.5 -43t-28.5 -125q6 -92 18 -188.5t119 -96.5q71 2 84.5 52.5t17.5 193.5q0 123 -24.5 163t-90.5 44zM356 1507q197 0 258.5 -93t57.5 -302q-4 -119 -22.5 -189.5t-90.5 -117.5t-219 -45q-186 0 -241.5 96t-55.5 260q0 201 59.5 296t253.5 95z M1188 600q-72 0 -95.5 -41t-27.5 -127q2 -24 2 -67q0 -127 23.5 -172.5t89.5 -49.5q8 4 16 4q78 3 91 48t18 196q0 127 -26 166t-91 43zM1180 748q198 0 260.5 -93.5t58.5 -302.5q-4 -119 -22.5 -191.5t-93 -119.5t-216.5 -45q-184 2 -239.5 98t-59.5 262q0 201 60.5 296.5 t251.5 95.5zM1927 604q-69 2 -94 -41t-29 -127q4 -24 4 -67q0 -125 23.5 -169t89.5 -48q6 4 14 4q43 0 63.5 16t30 46t12.5 72t3 105q0 129 -24.5 167t-92.5 42zM1921 756q199 0 261.5 -94.5t58.5 -305.5q-5 -116 -23 -188t-93 -119t-216 -45q-187 2 -242 96.5t-59 264.5 q0 196 60.5 293.5t252.5 97.5zM1049 1532h151l-696 -1569h-148z" />
<glyph unicode="&#x2039;" horiz-adv-x="567" d="M440 915v-227l-192 -156l192 -172v-231l-319 291v209z" />
<glyph unicode="&#x203a;" horiz-adv-x="567" d="M129 915l324 -286v-213l-324 -287v231l190 164l-190 164v227z" />
<glyph unicode="&#x2044;" horiz-adv-x="342" d="M805 1499l-1102 -1550h-158l1104 1550h156z" />
<glyph unicode="&#x20ac;" horiz-adv-x="1009" d="M1009 1276l-38 -167q-110 91 -250 91q-189 0 -297.5 -109t-130.5 -244h619l-24 -122h-609l-2 -36l2 -83h583l-24 -123h-540q34 -184 149 -270.5t259 -86.5q170 0 265 90v-188q-112 -52 -250 -52q-500 0 -603 507h-140l26 123h95q-2 22 -2 81v38h-119l26 122h106 q47 250 218.5 376.5t396.5 126.5q168 0 284 -74z" />
<glyph unicode="&#x2122;" horiz-adv-x="1759" d="M236 1376h-232v164h633v-164h-238v-667h-163v667zM725 1540h262l168 -491l166 491h266v-831h-164v680l-219 -680h-96l-219 675v-675h-164v831z" />
<glyph unicode="&#x2202;" horiz-adv-x="1012" d="M295 1120h-45q132 303 379 303q152 0 249 -109q117 -131 117 -394q0 -355 -166 -656q-163 -295 -426 -295q-158 0 -248 93q-89 90 -89 243q0 239 165 420.5t385 181.5q223 0 312 -190h4q10 102 10 186q0 173 -91 275t-255 102q-193 0 -301 -160zM911 629 q-83 225 -284 225q-180 0 -295 -204q-99 -176 -99 -386q0 -104 52 -169q54 -68 145 -68q135 0 278.5 160.5t202.5 441.5z" />
<glyph unicode="&#x220f;" horiz-adv-x="1686" d="M1491 -188h-509v43q104 0 144 35q36 33 36 115v1309h-787v-1309q0 -82 37 -115q38 -35 143 -35v-43h-509v43q104 0 144 35q37 33 37 115v1196q0 82 -37 115q-40 35 -144 35v43h1445v-43q-104 0 -144 -35q-36 -33 -36 -115v-1196q0 -82 36 -115q40 -35 144 -35v-43z" />
<glyph unicode="&#x2211;" horiz-adv-x="1460" d="M1423 188q-84 -328 -84 -395h-1304l743 864l-735 883l1221 -2l12 -326h-41q-31 143 -105 194q-64 44 -208 44h-590l610 -737l-649 -756h807q120 0 176 50q48 44 100 181h47z" />
<glyph unicode="&#x221a;" horiz-adv-x="1229" d="M1124 1602l-405 -1641l-402 715l-198 -92l-35 63l301 152l322 -572h4l340 1375h73z" />
<glyph unicode="&#x221e;" horiz-adv-x="1124" d="M1083 526q0 -156 -84 -244q-74 -79 -186 -79q-154 0 -258 221q-91 -180 -250 -180q-115 0 -189.5 80t-74.5 204q0 129 68 207q66 74 170 74q140 0 227 -176q43 116 107.5 165.5t174.5 49.5q130 0 212.5 -91t82.5 -231zM1034 526q0 108 -61.5 182t-151.5 74 q-81 0 -133 -65q-18 -23 -53 -104q-51 -122 -57 -134q57 -111 107 -158q57 -53 132 -53q98 0 157.5 69.5t59.5 188.5zM483 573q-79 170 -207 170q-85 0 -135.5 -60t-50.5 -155q0 -92 51.5 -155.5t120.5 -63.5q135 0 221 264z" />
<glyph unicode="&#x222b;" horiz-adv-x="1036" d="M889 1938q0 -56 -30 -92.5t-79 -36.5q-48 0 -82 31t-34 80q0 17 6 41.5t6 33.5q0 29 -25 29q-43 0 -80 -49q-63 -84 -63 -232q0 -37 82 -628q53 -382 53 -639q0 -529 -59 -766q-29 -119 -106 -191.5t-173 -72.5q-77 0 -126.5 43t-49.5 112q0 54 32 90.5t79 36.5 q46 0 77 -34.5t31 -82.5q0 -17 -5 -38t-5 -29q0 -29 22 -29q57 0 99.5 72t42.5 180q0 101 -84 760q-49 384 -49 729q0 306 31 475q32 177 109 270t196 93q75 0 129.5 -46t54.5 -110z" />
<glyph unicode="&#x2248;" horiz-adv-x="1196" d="M1083 903q-108 -106 -260 -106q-58 0 -220 60q-175 65 -243 65q-127 0 -247 -127v184q105 111 262 111q70 0 260 -69q158 -56 207 -56q133 0 241 127v-189zM1083 459q-108 -107 -260 -107q-58 0 -220 60q-175 65 -243 65q-127 0 -247 -127v185q105 110 262 110 q70 0 260 -68q158 -57 207 -57q133 0 241 127v-188z" />
<glyph unicode="&#x2260;" horiz-adv-x="1196" d="M1083 416h-456l-31 -205h-150l31 205h-364v168h389l43 278h-432v168h456l31 205h150l-31 -205h364v-168h-389l-43 -278h432v-168z" />
<glyph unicode="&#x2264;" horiz-adv-x="1196" d="M1083 340l-970 414v168l970 409v-178l-770 -315l770 -320v-178zM1083 113h-970v168h970v-168z" />
<glyph unicode="&#x2265;" horiz-adv-x="1196" d="M1083 754l-970 -414v178l770 320l-770 315v178l970 -409v-168zM1083 113h-970v168h970v-168z" />
<glyph unicode="&#x25ca;" horiz-adv-x="1229" d="M1055 768l-441 -604l-440 604l440 604zM958 768l-344 471l-344 -471l344 -471z" />
<glyph unicode="&#xa900;" horiz-adv-x="1229" d="M345 -20q-105 0 -176 78q-70 79 -70 216v589q0 267 235 294h548q247 -8 247 -294v-589q0 -109 -37 -175q-38 -67 -91 -94q-53 -25 -101 -25h-555zM858 112q117 0 117 147v612q0 147 -140 147h-465q-130 -3 -130 -171v-575q0 -158 147 -158z" />
<glyph unicode="&#xa901;" horiz-adv-x="1125" d="M489 101l290 -2q105 0 105 89v73q0 9 -37 9q-91 0 -206 -43.5t-152 -125.5zM884 755v148q0 67 -20 99t-90 32h-433q-75 -2 -95 -46t-20 -106v-3h-127v16q0 238 211 263h506q206 -6 206 -263v-254h-681q-115 -2 -115 -169v-231q0 -140 131 -140q23 90 117 156.5t216 102.5 t216 36q116 0 116 -47v-105q0 -97 -34 -157t-81 -83.5t-91 -23.5h-496q-94 0 -157.5 70.5t-63.5 193.5v242q0 245 211 269h574z" />
<glyph unicode="&#xa902;" horiz-adv-x="1239" d="M699 -20h-159l-441 1177h141l379 -1006l363 1006h147z" />
<glyph unicode="&#xa903;" horiz-adv-x="1244" d="M387 716h-288v147q0 267 235 294h548q247 -8 247 -294v-118l-886 -430l-3 -43q0 -92 49 -131q10 23 86 76q88 61 212 109t236 48h306v-100q0 -108 -37.5 -175t-90.5 -93t-101 -26h-555q-105 0 -175.5 78.5t-70.5 215.5v135l876 407v55q0 147 -140 147h-465 q-130 -2 -130 -171v-31h147v-100zM387 114l471 -2q117 0 117 112v38h-140q-88 0 -172 -28t-199 -77q-70 -29 -110 -41q16 -2 33 -2z" />
<glyph unicode="&#xa904;" horiz-adv-x="1234" d="M239 969l189 188h454q247 -8 247 -294v-587q0 -158 -73.5 -226t-155.5 -68h-160v129l118 3q117 0 117 148v609q0 147 -140 147h-359l-237 -238v-148q0 -156 148 -156h95v-136h-137q-106 0 -176 79t-70 215v523h140v-188z" />
<glyph unicode="&#xa905;" horiz-adv-x="1234" d="M523 112v-132h-178q-105 0 -175.5 78.5t-70.5 215.5v589q0 267 235 294h801v-302h-141v164h-624q-130 -3 -130 -171v-576q0 -158 147 -158z" />
<glyph unicode="&#xa906;" horiz-adv-x="1234" d="M975 342v529q0 147 -140 147h-124l-471 -780v-258h-141v1177h141v-630l383 630h259q247 -8 247 -294v-677q-71 -206 -271 -206q-113 0 -180.5 53.5t-69.5 142.5q0 87 45.5 163t150.5 76h36q19 0 42 -5.5t47.5 -22t45.5 -45.5zM928 183q-9 109 -111 109q-85 -8 -85 -103 q0 -86 85 -97q96 0 111 91z" />
<glyph unicode="&#xa907;" horiz-adv-x="1239" d="M541 817v-139h-171q-130 -2 -130 -171v-235q0 -158 147 -158l471 -2q117 0 117 147v417h-140v141h140v209l-140 -106v168l140 98h154v-912q0 -108 -37.5 -175t-90.5 -93t-101 -26h-555q-105 0 -175.5 78.5t-70.5 215.5v249q0 267 235 294h207z" />
<glyph unicode="&#xa908;" horiz-adv-x="1229" d="M1129 409v-135q0 -108 -37.5 -175t-90.5 -93t-101 -26h-555q-105 0 -175.5 78.5t-70.5 215.5v883h141v-885q0 -158 147 -158l471 -2q117 0 117 147v150h154z" />
<glyph unicode="&#xa909;" horiz-adv-x="1244" d="M892 817q235 -27 235 -294v-249q0 -137 -70.5 -215.5t-175.5 -78.5h-555q-48 0 -101 26t-90.5 93t-37.5 175v912h154l140 -98v-168l-140 106v-209h140v-141h-140v-417q0 -147 117 -147l471 2q147 0 147 158v235q0 169 -130 171h-171v139h207z" />
<glyph unicode="&#xa90a;" horiz-adv-x="1353" d="M905 1022l-318 -321v-721h-488v312q0 63 13.5 110t65.5 78l268 267v116q0 86 -16.5 122.5t-77.5 36.5l-35 3q-49 0 -63 -32t-14 -110v-103h-141v201q0 170 147 176h171q82 0 126 -53t44 -144v-73l271 270h148q247 -8 247 -294v-883h-330v132h176v759q0 151 -141 151h-53z M240 286v-174l206 2v444l-165 -166q-41 -48 -41 -106z" />
<glyph unicode="&#xa90b;" horiz-adv-x="1234" d="M975 668v203q0 147 -140 147h-465q-130 -2 -130 -171v-179h735zM975 551h-876v312q0 267 235 294h548q247 -8 247 -294v-589q0 -108 -37.5 -175t-90.5 -93t-101 -26h-555q-105 0 -175.5 78.5t-70.5 215.5v111h403v-105h-262v-8q0 -158 147 -158l471 -2q117 0 117 147v292 z" />
<glyph unicode="&#xa90c;" horiz-adv-x="1244" d="M975 592v279q0 147 -140 147h-41l-415 -429zM240 633l500 524h142q247 -8 247 -294v-883h-347v132h193v345h-735v-345h211v-132h-352v1177h141v-524z" />
<glyph unicode="&#xa90d;" horiz-adv-x="1239" d="M753 468h376v-194q0 -108 -37.5 -175t-90.5 -93t-101 -26h-555q-105 0 -175.5 78.5t-70.5 215.5v589q0 267 235 294h548q247 -8 247 -294v-201h-371v115l217 3v91q0 147 -140 147h-465q-130 -2 -130 -171v-575q0 -158 147 -158l471 -2q117 0 117 147v85h-222v124z" />
<glyph unicode="&#xa90e;" horiz-adv-x="1229" d="M463 581q22 -95 104 -95q85 0 94 95q0 116 -100 116q-43 -2 -70.5 -33.5t-27.5 -82.5zM975 114v757q0 147 -140 147h-465q-130 -2 -130 -171v-34q0 -157 135 -157q33 153 195 153q96 0 150.5 -64t54.5 -169q0 -58 -31.5 -105t-83 -72t-102.5 -25q-57 3 -107 39l-184 -299 h179v-134h-347v118l246 424q-105 0 -175.5 78.5t-70.5 215.5v47q0 267 235 294h548q247 -8 247 -294v-883h-371v134h217z" />
<glyph unicode="&#xa90f;" horiz-adv-x="1324" d="M328 787h-142v77q0 267 236 294h548q248 -8 248 -294v-589q0 -109 -37.5 -176t-90.5 -93t-101 -26h-101v135h59q118 0 118 144v142q0 148 -142 148h-465q-87 -2 -108.5 -31.5t-21.5 -87.5v-450h-229v112h87v342q0 129 58 184t178 69h484q106 0 159 -41v226 q0 149 -142 149h-465q-130 -4 -130 -137v-97z" />
<glyph unicode="&#xa910;" horiz-adv-x="1253" d="M520 -467v-139h-169q-107 0 -179.5 80.5t-72.5 219.5v1462h145v-291q73 144 175.5 214.5t251.5 76.5q185 0 325 -108t156 -373q0 -118 -53.5 -200.5t-134 -138t-149.5 -55.5l295 -145v-156h-669v121h458l-444 201q212 0 332.5 70.5t164 148.5t43.5 152q0 143 -86 244 t-248 101q-78 -5 -141.5 -44.5t-110 -97t-89.5 -133t-76 -137.5v-915q0 -158 150 -158h126z" />
<glyph unicode="&#xa911;" horiz-adv-x="1244" d="M249 -3v-322q0 -60 30 -104t91 -44l474 -3q71 0 101.5 21.5t39.5 73.5q6 21 6 104h-223v120h371v-195q0 -137 -75.5 -198t-178.5 -61h-557q-83 0 -156 70.5t-73 230.5v778h377v-125h-227v-85q0 -56 27.5 -101.5t93.5 -45.5l474 3q151 0 151 138q0 9 -1 19v577 q0 168 -130 170h-471q-86 0 -115 -48t-29 -99v-91l220 -3v-116h-370v202q0 286 247 294h554q239 -27 239 -294v-590q0 -139 -72.5 -217t-181.5 -78h-557q-47 0 -79 19z" />
<glyph unicode="&#xa912;" horiz-adv-x="1234" d="M929 184q-9 108 -112 108q-85 -8 -85 -103q0 -86 85 -97q96 0 112 92zM1135 421q0 -435 -276 -441q-108 0 -178.5 52.5t-72.5 143.5q0 87 45.5 163.5t151.5 76.5q16 0 35.5 -0.5t42 -6t47 -22t46.5 -45.5q0 142 -47.5 213.5t-193.5 87.5q-101 0 -199 -49t-177.5 -142 t-118.5 -214v-258h-141v1177h141l883 -183v-123l-883 162v-485q80 113 206.5 187.5t282.5 74.5q69 0 124 -12q133 -27 203 -122.5t79 -234.5z" />
<glyph unicode="&#xa913;" horiz-adv-x="1234" d="M541 1157v-139h-171q-130 -2 -130 -171v-575q0 -158 147 -158l471 -2q117 0 117 147v1327l-140 -106v168l140 98h154v-1472q0 -108 -37.5 -175t-90.5 -93t-101 -26h-555q-105 0 -175.5 78.5t-70.5 215.5v589q0 267 235 294h207z" />
<glyph unicode="&#xa914;" horiz-adv-x="1229" d="M558 -470v-139h-213q-95 0 -170.5 76.5t-75.5 217.5v742h347v-114h-207v-41q0 -157 148 -157l471 -3q117 0 117 147v115l-393 130l-483 164v195q0 267 235 294h548q247 -8 247 -294v-135h-301v96l147 3v44q0 147 -140 147h-465q-131 -2 -131 -171v-96l401 -136l489 -147 v-194q0 -108 -37.5 -175t-90.5 -93t-101 -26h-555q-70 0 -106 18v-315q0 -153 148 -153h171z" />
<glyph unicode="&#xa915;" horiz-adv-x="1229" d="M240 416l735 364v91q0 147 -140 147h-465q-130 -2 -130 -171v-431zM240 272q0 -157 147 -157l471 -3q117 0 117 147v51h-222v117h376v-153q0 -108 -37.5 -175t-90.5 -93t-101 -26h-555q-105 0 -175.5 78.5t-70.5 215.5v589q0 266 235 294h548q247 -8 247 -294v-147z" />
<glyph unicode="&#xa916;" horiz-adv-x="1315" d="M731 1412h251v77q0 102 -158 102h-432q-72 0 -106.5 -51.5t-34.5 -111.5v-337q26 67 158 67h479q128 -22 181 -82.5t53 -250.5v-722h88v-123h-228v850q0 93 -21.5 138t-107.5 47h-461q-141 -42 -141 -245v-487q0 -101 24 -144q22 -39 81 -39h70v-120h-99 q-109 0 -168.5 65t-59.5 263v1116q0 296 245 311h533q122 -21 183.5 -83.5t61.5 -198.5v-164h-391v123z" />
<glyph unicode="&#xa917;" horiz-adv-x="1239" d="M887 112l-276 280l-271 -278zM782 1157h347v-883q0 -108 -37.5 -175t-90.5 -93t-101 -26h-555q-105 0 -175.5 78.5t-70.5 215.5v883h323v-139h-182v-788l371 351l364 -351v788h-193v139z" />
<glyph unicode="&#xa918;" horiz-adv-x="1234" d="M99 1157h783q247 -8 247 -294v-118l-886 -430l-3 -43q0 -158 147 -158l471 -2q117 0 117 112v38h-140q-88 0 -172 -28t-199 -76.5t-147 -48.5q-29 0 -29 26q0 22 87.5 82.5t211.5 108.5t236 48h306v-100q0 -108 -37.5 -175t-90.5 -93t-101 -26h-555q-105 0 -175.5 78.5 t-70.5 215.5v135l876 407v55q0 147 -140 147h-735z" />
<glyph unicode="&#xa919;" horiz-adv-x="1229" d="M975 342v529q0 147 -140 147h-124l-471 -780v-258h-141v1177h141v-630l383 630h259q247 -8 247 -294v-677q-71 -206 -271 -206q-113 0 -180.5 53.5t-69.5 142.5q0 87 45.5 163t150.5 76h36q19 0 42 -5.5t47.5 -22t45.5 -45.5zM928 183q-9 109 -111 109q-85 -8 -85 -103 q0 -86 85 -97q96 0 111 91z" />
<glyph unicode="&#xa91a;" horiz-adv-x="1234" d="M239 115h243v-135h-383v1177h140v-188l189 188h454q247 -8 247 -294v-1178q0 -159 -73.5 -226.5t-155.5 -67.5h-160v129l118 3q117 0 117 148v1200q0 147 -140 147h-359l-237 -238v-665z" />
<glyph unicode="&#xa91b;" horiz-adv-x="1737" d="M1488 112v759q0 147 -142 147h-247q-148 0 -148 -150q0 -10 1 -21v-575q0 -154 -81.5 -223t-195.5 -69h-330q-95 0 -170.5 76.5t-75.5 217.5v883h393v-139h-252v-746q0 -158 147 -158l253 -2q84 0 128 46t44 116v589q0 142 71.5 216t197.5 78h313q247 -8 247 -294v-883 h-371v132h218z" />
<glyph unicode="&#xa91c;" horiz-adv-x="1585" d="M1488 -316q0 -158 -72.5 -225t-157.5 -67h-888q-106 0 -177 77.5t-71 214.5v167h388v-111h-235v-41q0 -168 136 -168l806 -4q118 0 118 142v312q-37 -15 -77 -15h-294q-105 0 -176 79t-71 215v612q0 147 -142 147h-205q-130 -3 -130 -171v-575q0 -158 147 -158l94 -2 v-132h-136q-105 0 -175.5 79t-70.5 215v589q0 266 235 293h289q247 -8 247 -293v-589q0 -180 135 -180l212 4q118 0 118 147v626q0 147 -142 147h-100v138h148q247 -8 247 -293v-1180z" />
<glyph unicode="&#xa91d;" horiz-adv-x="1239" d="M700 1158h207q239 -26 239 -289v-592q0 -138 -72 -217.5t-179 -79.5h-557q-85 0 -159 69t-74 228v1471h153l144 -86v-152l-144 85v-1333q0 -150 119 -150l477 3q147 0 147 160v581q0 68 -23 116.5t-107 50.5h-171v135z" />
<glyph unicode="&#xa91e;" horiz-adv-x="1229" d="M975 -2q-29 -18 -75 -18h-555q-106 0 -176 78.5t-70 215.5v589q0 267 235 294h548q247 -8 247 -294v-201h-371v115l217 3v91q0 147 -140 147h-465q-131 -2 -131 -171v-575q0 -157 148 -157l471 -3q117 0 117 147v85h-222v124h376v-777q0 -159 -73.5 -229.5t-155.5 -70.5 h-555q-99 0 -172.5 61t-73.5 197v196h364v-121h-217q0 -82 3 -104q9 -52 40 -73t98 -21l471 4q58 0 87.5 39t29.5 108v321z" />
<glyph unicode="&#xa91f;" horiz-adv-x="1229" d="M239 344v-72q0 -157 148 -157l68 -3l520 521v524h154v-1472q0 -159 -73.5 -226.5t-155.5 -67.5h-106v132h64q117 0 117 148v756l-447 -447h-183q-95 0 -170.5 76.5t-75.5 217.5v883h412v-403q-9 -161 -79 -262q-57 -83 -193 -148zM239 492q64 17 100 86t36 176v264h-136 v-526z" />
<glyph unicode="&#xa920;" horiz-adv-x="1229" d="M399 362h-159v-90q0 -158 147 -158l471 -2q117 0 117 147v748l-375 -277l-360 277v-244h-141v394h171l330 -259l341 259h188v-883q0 -108 -37.5 -175t-90.5 -93t-101 -26h-555q-105 0 -175.5 78.5t-70.5 215.5v206h300v-118z" />
<glyph unicode="&#xa921;" horiz-adv-x="1234" d="M975 1449q0 147 -140 147h-465q-130 -3 -130 -136v-61h265v-112h-406v152q0 267 235 294h548q247 -8 247 -294v-1459h-147l-742 968v-845h206v-123h-347v1177h147l729 -945v1237z" />
<glyph unicode="&#xa922;" horiz-adv-x="1229" d="M211 568q-112 4 -112 124v171q0 267 235 294h548q247 -8 247 -294v-201h-342v115l188 3v91q0 147 -140 147h-465q-130 -2 -130 -171v-131q0 -41 33 -65t79 -24h230v-129h-219q-57 0 -93 -41q-31 -35 -31 -62q0 -6 1 -10v-113q0 -158 147 -158l471 -2q117 0 117 147v85 h-193v124h347v-194q0 -108 -37.5 -175t-90.5 -93t-101 -26h-555q-105 0 -175.5 78.5t-70.5 215.5v183q0 96 112 111z" />
<glyph unicode="&#xa923;" horiz-adv-x="1229" d="M975 427l-447 -447h-183q-95 0 -170.5 76.5t-75.5 217.5v883h300v-139h-159v-746q0 -158 147 -158l68 -2l520 521v385h-152v139h306v-883q0 -108 -37.5 -175t-90.5 -93t-101 -26h-106v132h64q117 0 117 147v168z" />
<glyph unicode="&#xa924;" horiz-adv-x="1229" d="M434 798v-118h-335v183q0 267 235 294h548q247 -8 247 -294v-589q0 -108 -37.5 -175t-90.5 -93t-101 -26h-555q-105 0 -175.5 78.5t-70.5 215.5v65l876 495v37q0 147 -140 147h-465q-130 -2 -130 -171v-49h194zM975 686l-735 -418v-38q0 -47 30.5 -81.5t87.5 -34.5 l500 -2q117 0 117 147v427z" />
<glyph unicode="&#xa925;" horiz-adv-x="1229" d="M345 -20q-105 0 -175.5 78.5t-70.5 215.5v589q0 267 235 294h548q247 -8 247 -294v-589q0 -108 -37.5 -175t-90.5 -93t-101 -26h-555zM970 948q-4 45 -37.5 57.5t-97.5 12.5h-465q-118 0 -124 -70q148 -130 383 -144q200 0 341 144zM975 783q-78 -79 -165 -100t-187 -21 q-120 8 -208 29.5t-175 96.5v-516q0 -158 147 -158l471 -2q117 0 117 147v524z" />
<glyph unicode="&#xa926;" d="M-683 1699l39 40h128l46 -45v-128l-40 -40h-134l-39 40v133z" />
<glyph unicode="&#xa927;" d="M-445 1415l190 -133h-172l-518 350h193z" />
<glyph unicode="&#xa928;" d="M-341 1282l-275 273l-271 -273h-163l434 457l437 -457h-162z" />
<glyph unicode="&#xa929;" d="M-1013 1573q0 -157 148 -157l473 -3q119 0 119 148v175h154v-160q0 -162 -70 -231q-65 -65 -148 -65h-569q-107 0 -178 79t-71 217v160h142v-163z" />
<glyph unicode="&#xa92a;" d="M-1013 1575q0 -156 148 -156l473 -4q119 0 119 148v176h154v-161q0 -161 -70 -230q-66 -65 -149 -65h-569q-106 0 -177 79t-71 216v161h142v-164zM-587 1526h-136l-47 47v124l41 42h142l47 -49v-117z" />
<glyph unicode="&#xa92b;" d="M-683 -187l40 41h132l45 -45v-131l-40 -41h-137l-40 41v135z" />
<glyph unicode="&#xa92c;" d="M-788 -20l-116 -40q-36 -36 -47.5 -68.5t-11.5 -96.5v-93q0 -156 146 -156l468 4q118 0 118 140v115h152v-100q0 -159 -73 -226t-156 -67h-550q-105 0 -175 78.5t-70 214.5v134q0 96 52 164t141 87z" />
<glyph unicode="&#xa92d;" d="M-777 -8l-119 -53q-41 -30 -53 -71t-12 -125v-59q0 -157 148 -157l474 3q118 0 118 142v116h155v-101q0 -160 -73.5 -227.5t-158.5 -67.5h-556q-107 0 -178 78.5t-71 216.5v137q0 210 173 254zM-593 -147q51 0 87.5 -28t36.5 -91q-8 -99 -131 -99q-97 10 -106 106 q0 98 113 112z" />
<glyph unicode="&#xa92e;" horiz-adv-x="1733" d="M1638 -2h-201q-114 90 -284 147.5t-288 57.5q-116 -1 -240 -41t-210.5 -90t-86.5 -74h-229q33 91 164 179t291 143t278 55q146 0 320.5 -52t308 -138.5t177.5 -186.5z" />
<glyph unicode="&#xa92f;" horiz-adv-x="365" d="M239 -20h-140v1176l140 -3v-1173z" />
<glyph unicode="&#xaa60;" horiz-adv-x="1303" d="M916 270q13 1 24.5 5t19.5 12q12 12 17.5 23.5t7.5 27.5v175q-36 -48 -53.5 -108t-15.5 -135zM1271 348q0 -156 -107 -265q-108 -108 -270 -112l-49 304h1q-9 82 -2.5 132t25.5 82.5t49 55.5t67 51v244q0 90 -93 90q-88 1 -88 -90v-502q0 -10 -1 -28t-3 -44 q-5 -89 -61 -159q-88 -102 -226 -131l-47 272q60 0 74 84v502q0 87 -96 92q-86 2 -86 -92v-502q0 -80 69 -84l-51 -272q-116 25 -221 131q-84 106 -84 241v449q0 157 110 269q111 112 263 112q126 0 227 -74q71 69 223 74q156 2 269 -117q108 -104 108 -264v-449z" />
<glyph unicode="&#xaa61;" horiz-adv-x="1303" d="M796 843v-520q0 -30 21 -51t51 -21h29q30 0 51 21t21 51v520q0 30 -21 51.5t-51 21.5h-29q-30 0 -51 -21.5t-21 -51.5zM639 1105l9 -6q99 78 233 81q153 4 264 -107q110 -111 110 -267v-446q0 -158 -107 -267q-106 -104 -267 -107q-123 -3 -218 68q-43 -31 -91 -47 t-90 -24l-47 267q75 15 75 82v204.5v138.5v86v46.5v20v6.5q0 91 -93 88q-85 -4 -85 -88v-241q0 -14 2 -33t6 -44q3 -12 8 -34t11 -47.5t12 -52.5t10.5 -49t7.5 -36t3 -13q3 -11 2.5 -34t-4 -49t-9 -50.5t-11.5 -37.5q-15 -30 -31 -56t-36.5 -45.5t-45.5 -30.5t-57 -11 q-29 0 -57.5 18.5t-51.5 40.5q-26 26 -51 58v245q31 -49 54 -49q14 8 22 17t4 22q-12 42 -26 82t-26 79t-20 77t-8 76v167q0 80 27 146t81 123q112 112 267 108q62 -2 116 -17t108 -58z" />
<glyph unicode="&#xaa62;" horiz-adv-x="1303" d="M491 863q17 121 104 208q81 79 191 100l46 -262q-24 -6 -39.5 -25.5t-15.5 -45.5v-529q0 -30 21.5 -51.5t51.5 -21.5h29q31 0 52.5 21.5t21.5 51.5v529q0 29 -20 50t-49 23l47 265q114 -16 203 -105q109 -113 109 -271v-452q0 -161 -106 -269q-55 -53 -122.5 -81.5 t-148.5 -30.5q-156 -3 -268 110q-64 64 -91 142l-91 -178q-33 -33 -72.5 -50t-79.5 -20t-78 6.5t-67.5 30.5t-47.5 52.5t-18 71.5v1044h291v-656z" />
<glyph unicode="&#xaa63;" horiz-adv-x="1680" d="M801 839v-525q0 -31 21 -52t52 -21h29q30 0 51 21t21 52v525q0 30 -21 51t-51 21h-29q-31 0 -52 -21t-21 -51zM470 293q24 14 38.5 31.5t14.5 39.5v175q-53 -104 -53 -246zM644 1104q2 -3 8 -7q101 78 235 81q152 4 266 -108q111 -111 111 -269v-450q0 -160 -108 -268 q-53 -53 -120.5 -80t-148.5 -29q-130 -3 -230 76q-42 -27 -86 -41.5t-84 -21.5l-65 263h1q-8 87 -4.5 142.5t16 93t33 63t47.5 51.5q-1 64 -1 117v44v40v30v15q-6 78 -92 75q-85 -5 -85 -88v-239q0 -14 2 -33t6 -44q3 -12 8 -33.5t11 -47.5t12 -53t10.5 -48.5t7.5 -35.5 t3 -13q3 -11 2.5 -34t-4 -49t-9 -50t-11.5 -37q-14 -29 -30 -55t-36.5 -45.5t-45.5 -30.5t-57 -11q-29 0 -57 18t-51 40q-26 26 -51 58v244q30 -49 54 -49q14 8 21.5 16.5t3.5 22.5q-12 42 -26 82t-25.5 78.5t-19.5 76.5t-8 75v166q0 80 27 145.5t81 122.5q111 112 265 108 q61 -2 115 -17t109 -57z" />
<glyph unicode="&#xaa64;" horiz-adv-x="1303" d="M796 846q1 -8 1.5 -17t0.5 -17v-453q0 -9 -0.5 -17.5t-1.5 -16.5v-1q0 -30 21.5 -51.5t51.5 -21.5h29q30 0 51.5 21.5t21.5 51.5v525q0 30 -21.5 51t-51.5 21h-29q-30 0 -51.5 -21t-21.5 -51v-3zM40 812q0 161 110 271q77 77 190 100l46 -262q-23 -6 -39 -25.5t-16 -45.5 v-529q0 -30 21.5 -51.5t51.5 -21.5h30q30 0 51.5 21.5t21.5 51.5v529q0 29 -20 50t-49 23l47 265q94 -13 170 -76q97 73 227 76q154 4 266 -108q111 -111 111 -269v-450q0 -160 -108 -268q-104 -104 -269 -109q-129 -3 -228 75q-50 -38 -108.5 -58t-125.5 -22 q-155 -3 -268 109q-112 113 -112 271v453z" />
<glyph unicode="&#xaa65;" horiz-adv-x="1303" d="M52 803q0 162 109 271q79 79 191 100l46 -262q-24 -6 -39.5 -25.5t-15.5 -45.5v-529q0 -30 21 -51.5t52 -21.5h29q31 0 52.5 21.5t21.5 51.5v269v99v86.5t0.5 62t0.5 24.5q7 63 31.5 116.5t69.5 100.5q113 113 267 109q164 -3 270 -109q108 -108 108 -269v-450 q0 -159 -111 -270q-105 -103 -243 -109q-19 100 -31 166.5t-18 100.5h9h35q29 0 49.5 20t20.5 49v535q0 29 -20.5 49.5t-49.5 20.5h-35q-24 0 -42 -14t-25 -35q0 -4 0.5 -28t1 -60.5t1 -82.5t0.5 -93q1 -111 1 -249q0 -94 -36 -169v-637l119 1l-37 -300h-112q-50 0 -91 17.5 t-70.5 49.5t-45.5 76.5t-16 99.5v493q-42 -10 -88 -12q-156 -3 -268 110q-112 111 -112 271v452z" />
<glyph unicode="&#xaa66;" horiz-adv-x="1303" d="M526 334v502q0 90 -94 92q-84 4 -84 -92v-502q0 -31 20 -62q17 -20 64 -20q94 -2 94 82zM430 -25q-152 -2 -262.5 110t-110.5 267v449q0 164 108.5 269.5t264.5 109.5q123 4 227 -74q35 29 94 51q45 12 129 23q152 0 264.5 -107.5t112.5 -271.5v-449 q0 -159 -105.5 -265.5t-271.5 -111.5l-59 304l61 -21q66 0 89 82v506q0 88 -93 90q-88 0 -88 -90v-506q0 -102 -10 -139q-14 -54 -80 -119q-106 -105 -270 -107zM420 591v-42q0 -8 6 -12.5t14 -4.5t13.5 4.5t5.5 12.5v42q0 8 -5.5 13t-13.5 6q-8 0 -14 -5.5t-6 -13.5z M362 604q0 30 21.5 51.5t51.5 21.5h10q29 0 50.5 -21.5t21.5 -51.5v-63q0 -30 -21.5 -51.5t-50.5 -21.5h-10q-30 0 -51.5 21.5t-21.5 51.5v63zM420 591v-42q0 -8 6 -12.5t14 -4.5t13.5 4.5t5.5 12.5v42q0 8 -5.5 13t-13.5 6q-8 0 -14 -5.5t-6 -13.5zM362 604q0 30 21.5 51.5 t51.5 21.5h10q29 0 50.5 -21.5t21.5 -51.5v-63q0 -30 -21.5 -51.5t-50.5 -21.5h-10q-30 0 -51.5 21.5t-21.5 51.5v63z" />
<glyph unicode="&#xaa67;" horiz-adv-x="1303" d="M410 591v-42q0 -8 6 -12.5t14 -4.5t13.5 4.5t5.5 12.5v42q0 8 -5.5 13t-13.5 6q-8 0 -14 -5.5t-6 -13.5zM352 604q0 30 21.5 51.5t51.5 21.5h10q29 0 50.5 -21.5t21.5 -51.5v-63q0 -30 -21.5 -51.5t-50.5 -21.5h-10q-30 0 -51.5 21.5t-21.5 51.5v63zM410 591v-42 q0 -8 6 -12.5t14 -4.5t13.5 4.5t5.5 12.5v42q0 8 -5.5 13t-13.5 6q-8 0 -14 -5.5t-6 -13.5zM352 604q0 30 21.5 51.5t51.5 21.5h10q29 0 50.5 -21.5t21.5 -51.5v-63q0 -30 -21.5 -51.5t-50.5 -21.5h-10q-30 0 -51.5 21.5t-21.5 51.5v63zM1247 352q0 -159 -105.5 -267 t-271.5 -110q-135 -2 -221 76q-94 -74 -229 -76q-152 -2 -262.5 110t-110.5 267v449q0 164 108.5 269.5t264.5 109.5q123 4 227 -74q35 29 94 51q45 12 129 23q152 0 264.5 -107.5t112.5 -271.5v-449zM961 334v502q0 90 -91 92q-86 4 -86 -92v-502q0 -25 19 -62 q20 -20 67 -20q91 -2 91 82zM516 334v502q0 90 -94 92q-84 4 -84 -92v-502q0 -31 20 -62q17 -20 64 -20q94 -2 94 82z" />
<glyph unicode="&#xaa68;" horiz-adv-x="1303" d="M339 864v-523q0 -30 21 -51t51 -21h29q30 0 51.5 21t21.5 51v523q0 30 -21.5 51t-51.5 21h-29q-30 0 -51 -21t-21 -51zM973 548q-39 -52 -59.5 -121.5t-21.5 -159.5h11q29 0 49.5 20.5t20.5 49.5v211zM800 379q0 -160 -108 -268q-103 -103 -267 -108q-154 -4 -265 108 q-55 57 -82 122.5t-27 145.5v447q0 161 106 265q54 53 121 81t147 30q131 3 229 -77q99 80 230 77q163 -3 268 -108q108 -108 108 -268v-447q0 -157 -111 -268q-102 -104 -241 -108q-11 31 -22.5 70t-22 76.5t-18.5 69.5t-11 49q-5 51 -1.5 92.5t12.5 75t22 59t27 45.5 q33 45 79 69v259q0 29 -20.5 49t-49.5 20h-35q-29 0 -49 -20t-20 -49h-1q2 -10 2 -20.5v-21.5v-447zM407 595v-42q0 -8 6 -12.5t14 -4.5t13.5 4.5t5.5 12.5v42q0 8 -5.5 13t-13.5 6q-8 0 -14 -5.5t-6 -13.5zM349 608q0 30 21.5 51.5t51.5 21.5h10q29 0 50.5 -21.5 t21.5 -51.5v-63q0 -30 -21.5 -51.5t-50.5 -21.5h-10q-30 0 -51.5 21.5t-21.5 51.5v63zM407 595v-42q0 -8 6 -12.5t14 -4.5t13.5 4.5t5.5 12.5v42q0 8 -5.5 13t-13.5 6q-8 0 -14 -5.5t-6 -13.5zM349 608q0 30 21.5 51.5t51.5 21.5h10q29 0 50.5 -21.5t21.5 -51.5v-63 q0 -30 -21.5 -51.5t-50.5 -21.5h-10q-30 0 -51.5 21.5t-21.5 51.5v63z" />
<glyph unicode="&#xaa69;" horiz-adv-x="1449" d="M349 867v-525q0 -31 21.5 -52t51.5 -21h29q31 0 52 21t21 52v525q0 30 -21 51t-52 21h-29q-30 0 -51.5 -21t-21.5 -51zM814 312q29 -15 64.5 -25t77.5 -14q-9 30 -20 59t-24 49t-28 26t-32 -11q-19 -20 -28 -39.5t-10 -44.5zM813 571q10 8 20 14q31 18 60 13.5t56 -25.5 t50 -54t42 -70.5t32 -75.5t20 -69q20 22 20 49v499q0 42 -23.5 66t-59.5 24h-23q-68 0 -117.5 -8.5t-84.5 -23.5q4 -20 6 -40t2 -41v-258zM1023 1206q35 1 71 -3t70.5 -14.5t66.5 -28t59 -43.5q42 -42 64.5 -81.5t32.5 -75.5t11 -69t1 -61v-447q0 -160 -109 -268 q-103 -103 -267 -108h-42q-18 0 -40 1q-35 0 -67 11.5t-57.5 32t-44 48t-26.5 60.5q-9 -13 -19.5 -25.5t-22.5 -23.5q-104 -104 -268 -109q-154 -4 -267 109q-54 57 -81 122.5t-27 145.5v450q0 160 106 266q54 53 121.5 81t147.5 30q152 4 266 -108q23 -23 42 -50 q7 34 25.5 63t44.5 50t58.5 33t68.5 12h82zM418 595v-42q0 -8 6 -12.5t14 -4.5t13.5 4.5t5.5 12.5v42q0 8 -5.5 13t-13.5 6q-8 0 -14 -5.5t-6 -13.5zM360 608q0 30 21.5 51.5t51.5 21.5h10q29 0 50.5 -21.5t21.5 -51.5v-63q0 -30 -21.5 -51.5t-50.5 -21.5h-10 q-30 0 -51.5 21.5t-21.5 51.5v63zM418 595v-42q0 -8 6 -12.5t14 -4.5t13.5 4.5t5.5 12.5v42q0 8 -5.5 13t-13.5 6q-8 0 -14 -5.5t-6 -13.5zM360 608q0 30 21.5 51.5t51.5 21.5h10q29 0 50.5 -21.5t21.5 -51.5v-63q0 -30 -21.5 -51.5t-50.5 -21.5h-10q-30 0 -51.5 21.5 t-21.5 51.5v63z" />
<glyph unicode="&#xaa6a;" horiz-adv-x="1416" d="M329 867v-525q0 -31 21.5 -52t51.5 -21h29q31 0 52 21t21 52v525q0 30 -21 51t-52 21h-29q-30 0 -51.5 -21t-21.5 -51zM794 312q29 -15 64.5 -25t77.5 -14q-9 30 -20 59t-24 49t-28 26t-32 -11q-19 -20 -28 -39.5t-10 -44.5zM793 571q10 8 20 14q31 18 60 13.5t56 -25.5 t50 -54t42 -70.5t32 -75.5t20 -69q20 22 20 49v499q0 42 -23.5 66t-59.5 24h-23q-68 0 -117.5 -8.5t-84.5 -23.5q4 -20 6 -40t2 -41v-258zM1003 1206q35 1 71 -3t70.5 -14.5t66.5 -28t59 -43.5q42 -42 64.5 -81.5t32.5 -75.5t11 -69t1 -61v-447q0 -160 -109 -268 q-103 -103 -267 -108h-42q-18 0 -40 1q-35 0 -67 11.5t-57.5 32t-44 48t-26.5 60.5q-9 -13 -19.5 -25.5t-22.5 -23.5q-104 -104 -268 -109q-154 -4 -267 109q-54 57 -81 122.5t-27 145.5v450q0 160 106 266q54 53 121.5 81t147.5 30q152 4 266 -108q23 -23 42 -50 q7 34 25.5 63t44.5 50t58.5 33t68.5 12h82z" />
<glyph unicode="&#xaa6b;" horiz-adv-x="875" d="M421 245q2 62 -8.5 113t-33.5 94v-140q0 -23 11.5 -40.5t30.5 -26.5zM379 557q32 -24 57 -47t40 -56.5t19 -84.5t-6 -130l-89 -266q-114 18 -202 106q-110 113 -110 271v452q0 47 9 89q-20 18 -34 40.5t-22 54t-9 75.5t7 106l69 9q-4 -54 2.5 -100.5t22.5 -87.5 q13 23 28 43.5t34 38.5q55 54 122.5 82t148.5 30q154 4 267 -109t113 -271v-452q0 -161 -110 -271q-78 -78 -190 -101l-33 263q7 1 14.5 7.5t13.5 16.5t10 22t4 25v528q0 31 -21.5 52.5t-51.5 21.5h-30q-30 0 -51.5 -21.5t-21.5 -52.5v-283z" />
<glyph unicode="&#xaa6c;" horiz-adv-x="1734" d="M935 808q0 51 -4.5 83.5t-13.5 51t-21.5 25t-28.5 6.5q-15 0 -27.5 -6.5t-21.5 -25t-14 -51t-5 -83.5v-452q0 -160 -112 -271q-111 -113 -268 -110q-80 2 -147.5 30.5t-122.5 81.5q-53 54 -80 121t-27 148v452q0 81 27.5 147.5t81.5 123.5q90 89 203 105l48 -265 q-29 -2 -49 -23t-20 -50v-529q0 -30 21.5 -51.5t51.5 -21.5h29q31 0 52.5 21.5t21.5 51.5v529q0 79 28.5 141.5t77.5 106t113.5 67t136.5 23.5q72 1 137.5 -22t115 -67t79 -107t29.5 -142v-529q0 -30 21 -51.5t52 -21.5h29q31 0 52.5 21.5t21.5 51.5v529q0 29 -20.5 50 t-49.5 23l48 265q115 -17 203 -105q109 -113 109 -271v-452q0 -162 -107 -269q-54 -53 -121.5 -81.5t-148.5 -30.5q-156 -3 -268 110q-112 111 -112 271v452z" />
<glyph unicode="&#xaa6d;" horiz-adv-x="1212" d="M316 991v-95q0 -17 14 -28t31 -10q17 0 29.5 10.5t12.5 27.5v95q0 17 -12.5 28.5t-29.5 12.5q-18 1 -31.5 -11.5t-13.5 -29.5zM694 -356q-1 -83 -31.5 -153t-87.5 -127q-109 -109 -282 -114h-14.5t-26.5 1q-17 0 -38 1q-44 0 -82.5 16.5t-67.5 45.5t-45.5 68t-16.5 83 v168q19 -22 47 -42q37 -25 67.5 -39t58.5 -20t55.5 -6t59.5 3q33 0 54.5 10.5t35 24.5t18.5 29t5 24v1101q-15 -3 -33 -3h-22q-34 0 -63.5 13t-51.5 35t-35 51.5t-13 63.5v142q0 34 13 63.5t35 51.5t51.5 35t63.5 13h22q52 0 93 -28.5t59 -73.5q74 71 164 92l8 10v-8 q44 9 88 8q164 -3 270 -109q109 -108 109 -270v-451q0 -80 -27.5 -146.5t-84.5 -123.5q-104 -104 -243 -108q-18 99 -30.5 165.5t-18.5 101.5q3 -1 9 -1h35q29 0 49.5 20.5t20.5 49.5v536q0 29 -20.5 49t-49.5 20h-35q-29 0 -49.5 -20t-20.5 -49l-2 -1v-1202z" />
<glyph unicode="&#xaa6e;" horiz-adv-x="1303" d="M331 476v-165q0 -25 16 -44t40 -24q3 71 -11.5 128.5t-44.5 104.5zM1256 806v-452q0 -159 -112 -271q-112 -113 -268 -110q-81 2 -148.5 30.5t-122.5 81.5q-106 108 -106 269q0 138 1 249q0 47 0.5 93t0.5 82.5t0.5 60.5t1.5 28q-7 21 -25.5 35t-41.5 14h-36 q-29 0 -49 -20.5t-20 -49.5v-278q35 -26 62.5 -49.5t44.5 -57.5t22 -85.5t-5 -135.5q-9 -43 -19 -89q-8 -39 -18.5 -85.5t-21.5 -90.5q-140 6 -243 109q-112 112 -112 270v450q0 160 109 269q106 106 269 109q155 4 267 -109q46 -47 70.5 -100.5t31.5 -116.5v-24.5t0.5 -62 t0.5 -86.5v-99v-269q0 -30 21.5 -51.5t51.5 -21.5h30q30 0 51.5 21.5t21.5 51.5v529q0 26 -15.5 45.5t-39.5 25.5l46 262q110 -21 191 -100q109 -111 109 -271z" />
<glyph unicode="&#xaa6f;" horiz-adv-x="1303" d="M783 837v-531q0 -31 21.5 -52.5t52.5 -21.5h29q31 0 52.5 21.5t21.5 52.5v531q0 31 -21.5 52.5t-52.5 21.5h-29q-31 0 -52.5 -21.5t-21.5 -52.5zM491 482l-150 202v-710h-290v1044q0 40 18 71.5t47 52.5t67 31t78.5 7t79.5 -20.5t72 -49.5l111 -149q14 30 32.5 56.5 t41.5 50.5q56 54 123.5 82t148.5 30q156 4 269 -109t113 -272v-455q0 -160 -110 -272q-108 -106 -272 -109q-154 -4 -269 109q-55 57 -82.5 124t-27.5 148v138z" />
<glyph unicode="&#xaa70;" horiz-adv-x="1303" d="M339 462v-146q0 -22 11.5 -39.5t29.5 -26.5q6 124 -41 212zM657 1101q100 81 232 78q163 -3 268 -108q109 -109 109 -269v-449q0 -157 -111 -268q-103 -103 -243 -109q-18 100 -30 166t-19 100h9h36q29 0 49.5 20t20.5 49v533q0 29 -20.5 49.5t-49.5 20.5h-36 q-29 0 -49 -20.5t-20 -49.5h-3v-25.5t0.5 -57.5t0.5 -79v-89v-240q0 -160 -108 -268q-39 -39 -84 -69t-100 -41l-35 270q23 6 31 25.5t8 45.5v524q0 30 -21 51.5t-51 21.5h-30q-30 0 -51 -21.5t-21 -51.5v-272q32 -24 56.5 -47t39.5 -56.5t19 -84.5t-6 -130l-88 -270 q-112 16 -201 105q-55 57 -82 122.5t-27 145.5v449q0 160 106 266q55 53 122 81t147 30q132 3 232 -78z" />
<glyph unicode="&#xaa71;" d="M-784 1406q152 107 319.5 105.5t345.5 -101.5l-81 -143q-145 81 -264.5 80t-225.5 -75zM-784 1682q152 107 319.5 106t345.5 -101l-81 -143q-145 81 -264.5 79.5t-225.5 -75.5z" />
<glyph unicode="&#xaa72;" horiz-adv-x="1639" d="M219 154q-4 29 -6.5 58.5t-7.5 58.5q-1 5 -2.5 20t-4.5 34.5t-7.5 40.5t-11 37.5t-15.5 26.5t-21 7q-4 -1 -5 -18.5t0.5 -45t6.5 -60t14.5 -64t24 -57t35.5 -38.5zM1130 316v-3q0 -30 21 -51.5t51 -21.5h30q30 0 51 21.5t21 51.5v525q0 30 -21 51.5t-51 21.5h-30 q-30 0 -51 -21.5t-21 -51.5v-1q0 -8 0.5 -17t0.5 -17v-453q0 -9 -0.5 -17.5t-0.5 -16.5zM665 841v-491q0 -160 -109 -271q-68 -67 -162 -94q22 -46 48 -72l-125 -2q-37 37 -59 86q-45 17 -87 47.5t-74 65.5q-20 22 -36 59.5t-26 82t-12 91t7 86.5t30.5 69t58.5 38 q57 14 90 -3.5t52 -55t28.5 -88.5t17.5 -104q5 -30 10.5 -59.5t7.5 -43.5q18 4 27.5 21t14.5 37.5t6 40.5t1 31v491q0 159 112 270q112 113 268 110q67 -2 125 -22t108 -58q99 78 229 75q81 -2 148.5 -29t119.5 -80q109 -108 109 -269v-449q0 -158 -111 -269 q-112 -112 -266 -108q-66 2 -122.5 21t-105.5 54q-75 -61 -169 -75l-48 265q29 2 49 23t20 50v529q0 30 -21.5 51.5t-51.5 21.5h-29q-31 0 -52 -21.5t-21 -51.5z" />
<glyph unicode="&#xaa73;" horiz-adv-x="1303" d="M786 662v-349q0 -30 21.5 -51.5t51.5 -21.5h30q30 0 51.5 21.5t21.5 51.5v529q0 29 -20 50t-49 23l48 265q113 -16 202 -105q55 -57 82.5 -123.5t27.5 -147.5v-452q0 -81 -27 -148t-80 -121q-55 -53 -122.5 -81.5t-148.5 -30.5q-155 -3 -268 110q-112 112 -112 271v179 l-147 163l3 -720h-290v1044q0 40 18 71.5t47 52.5t67 31t78.5 6.5t80 -20.5t72.5 -49z" />
<glyph unicode="&#xaa74;" horiz-adv-x="1212" d="M527 613v177q0 93 -34 120q-20 -9 -23 -34l3 -93q1 -46 20 -82zM307 -399v-96q0 -16 14 -27t31 -10q17 0 30 10.5t13 26.5v96q0 17 -13 28.5t-30 12.5t-31 -11.5t-14 -29.5zM577 -669q-25 11 -48 23.5t-43 27.5q-22 -26 -54 -41.5t-70 -15.5h-22q-34 0 -63.5 13t-51.5 35 t-35 51.5t-13 63.5v143q0 34 13 63.5t35 51.5t51.5 35t63.5 13h22q9 0 18 -1t18 -3v186q-142 7 -245 112q-111 114 -111 275v460q0 265 235 357l111 -258q-65 -12 -65 -93v-513q0 -86 97 -86q67 0 88 86v133l-65 182l-23 104l-11 94q-1 29 2 62t11 71q10 56 71 124l86 94 q55 -22 93 -54t73 -84q19 -28 32.5 -58t21.5 -59.5t12 -55.5t4 -46v-460q0 -160 -111 -272q-13 -14 -27 -26t-30 -23v-444l160 -60q33 0 53.5 11t32.5 29t17 41t7 47v1095q0 37 -5 84t-23.5 97t-55.5 100.5t-101 94.5q-31 16 -55 27t-44.5 21t-38 21.5t-34.5 29.5 q-84 84 -84 197v207q0 57 22.5 103.5t60.5 79t88.5 50t106.5 18.5q56 0 105 -18t90 -44.5t73 -55t53 -49.5l25 -26l-2 -232q-14 14 -38.5 36t-54 46.5t-61.5 49.5t-63 44.5t-58 32t-45 12.5h-36q-22 0 -37 -15t-15 -37v-210q0 -21 15 -36.5t37 -15.5l56 -15 q88 -36 156 -95.5t114.5 -136t70.5 -168.5t24 -192l2 -1126q-5 -92 -23.5 -165t-52.5 -123.5t-83.5 -77.5t-115.5 -27z" />
<glyph unicode="&#xaa75;" horiz-adv-x="1597" d="M771 -397v-96q0 -16 14 -27t31 -10q17 0 29.5 10.5t12.5 26.5v96q0 17 -12.5 28.5t-29.5 12.5q-18 1 -31.5 -11.5t-13.5 -29.5zM1292 -751l-251 84q-25 11 -48 23.5t-43 27.5q-23 -26 -54.5 -41.5t-69.5 -15.5h-22q-34 0 -64 13t-52 35t-35 51.5t-13 63.5v143 q0 34 13 63.5t35 51.5t52 35t64 13h22q9 0 18 -1t17 -3l2 482q48 16 71.5 39t23.5 46v496q0 98 -90 93q-87 -4 -87 -93v-496q0 -24 0.5 -52.5t-3 -58.5t-13 -61t-28.5 -60q-23 -35 -52 -58t-61.5 -38.5t-67 -24.5t-68.5 -15l-47 265q75 15 75 82v499q0 92 -93 88 q-85 -4 -85 -88v-239q0 -14 2 -33t6 -44l9 -36t12.5 -54t13 -61t12 -56.5t9 -42t3.5 -15.5q-1 -25 -4 -50q-3 -21 -8 -45t-14 -42q-14 -29 -30.5 -55t-37 -45.5t-46 -30.5t-58.5 -10q-29 0 -57 18t-51 40q-26 26 -51 58v244q30 -49 53 -49q14 8 20 16.5t6 22.5 q0 42 -12.5 82.5t-27 79t-27 74.5t-12.5 68v175q0 156 108 267q111 112 265 108q62 -2 117.5 -19.5t105.5 -54.5q16 19 41.5 33t55.5 23t62.5 13.5t64.5 4.5q81 -1 149.5 -29t117.5 -78t76.5 -118.5t27.5 -149.5v-448q0 -161 -111 -268l-8 -8t-9 -8v-475l125 -49 q33 -12 50.5 -9t25 15.5t8 32t-0.5 40.5v1133q0 37 -4.5 84t-23.5 97t-56 100.5t-101 94.5q-30 16 -54.5 27t-44.5 21t-37.5 21.5t-35.5 29.5q-84 84 -84 197v207q0 57 22.5 103.5t60.5 79t88.5 50t106.5 18.5q56 0 105.5 -18t90.5 -44.5t73 -55t53 -49.5l25 -26l-3 -232 q-14 14 -38.5 36t-53.5 46.5t-61.5 49.5t-63.5 44.5t-57.5 32t-44.5 12.5h-37q-22 0 -37 -15t-15 -37v-210q0 -21 15 -36.5t37 -15.5l56 -15q88 -36 156 -95.5t114.5 -136t70.5 -168.5t24 -192l3 -1248q1 -79 -30 -131t-75 -83t-91.5 -44t-79.5 -13z" />
<glyph unicode="&#xaa76;" horiz-adv-x="1392" d="M660 -393v-139q0 -13 7 -22t16 -8q9 0 16 8.5t7 21.5v139q0 14 -6.5 23.5t-16.5 9.5q-9 1 -16 -9t-7 -24zM209 917q-56 -3 -75 -40v292q38 6 73 5q62 -2 117.5 -19.5t106.5 -54.5q16 19 41 33t55 23t63 13.5t65 4.5q81 -1 149 -29t117 -78t76.5 -118.5t27.5 -149.5v-448 q0 -161 -111 -268l-8 -8t-9 -8v-475l125 -49q33 -12 50.5 -9t25 15.5t8 32t-0.5 40.5v1133q0 37 -4.5 84t-23.5 97t-56 100.5t-101 94.5q-30 16 -54 27t-44.5 21t-38 21.5t-34.5 29.5q-85 84 -85 197v207q0 57 22.5 103.5t60.5 79t88.5 50t107.5 18.5q56 0 105 -18t90 -44.5 t73 -55t53 -49.5l25 -26l-3 -232q-14 14 -38.5 36t-53.5 46.5t-61.5 49.5t-63.5 44.5t-57.5 32t-44.5 12.5h-37q-21 0 -36.5 -15t-15.5 -37v-210q0 -21 15.5 -36.5t36.5 -15.5l56 -15q88 -36 156 -95.5t114.5 -136t70.5 -168.5t24 -192l3 -1248q1 -53 -13.5 -93t-38 -70.5 t-53 -51t-60.5 -33t-60 -18t-50 -5.5l-279 98q-7 -13 -26 -21.5t-43.5 -11t-51 3t-49 20t-37 41t-14.5 65.5q0 36 0.5 66t0.5 59.5t0.5 59.5t0.5 65q0 18 9 35.5t20 32t22 23t16 7.5l1 482q48 16 72 39t24 46v496q0 98 -90 93q-88 -4 -88 -93l-3 -1318q0 -51 -15 -90.5 t-40 -70.5t-56.5 -53t-63.5 -37.5t-62.5 -24t-52.5 -12.5q-46 2 -89 13q-37 10 -77 31.5t-68 61.5l1 297q33 -52 66.5 -79.5t59.5 -40.5q31 -15 60 -18q37 8 56 33.5t19 57.5v1232q0 92 -93 88z" />
<glyph unicode="&#xaa77;" horiz-adv-x="1011" d="M676 1801l-3 -230q-21 21 -50.5 44.5t-58.5 43.5t-53 33t-34 13h-36q-21 0 -36 -15t-15 -37v-188q0 -22 15 -37t36 -15h36q6 0 17.5 6.5t22.5 14.5q13 10 28 22l-38 -260h-23q-9 0 -17.5 0.5t-13.5 0.5q-55 -2 -103.5 18t-88.5 62q-83 85 -83 195v160q0 57 22 106.5 t59.5 87t87.5 59t106 22.5q113 4 198 -81zM733 -509l-49 -248h-154q-33 0 -65 15t-57 41t-40.5 62.5t-15.5 78.5v273q37 88 67.5 157.5t52.5 130.5t34 118t12 120v574q0 38 -26.5 62.5t-63.5 24.5q-18 0 -34 -8t-27.5 -20t-18.5 -27.5t-7 -31.5v-267q0 -24 10.5 -56t23 -70 t23 -80t10.5 -86q0 -46 -11 -94.5t-35 -89t-61.5 -66.5t-89.5 -26q-29 0 -57 17.5t-51 39.5q-26 26 -50 58v243q7 -12 16.5 -27t20 -25.5t22 -14.5t22.5 6q13 11 16.5 21.5t0.5 31.5q-5 29 -22 62t-34 61q-21 33 -45 64v290q0 159 105 264q54 51 120.5 80t145.5 29 q93 0 162.5 -36.5t116.5 -92t70.5 -121t23.5 -123.5v-552v-10l109 -420q11 -32 24.5 -35.5t21.5 0.5l66 35l-42 -281l-39 -22q-26 -12 -54.5 -6t-55 24t-46.5 45.5t-28 60.5l-56 216q-29 -71 -50.5 -122.5t-21.5 -69.5v-111q0 -15 5 -28.5t18 -22.5t34.5 -13t53.5 -2z" />
<glyph unicode="&#xaa78;" horiz-adv-x="1978" d="M1142 1036q-85 -102 -188.5 -150.5t-210.5 -46.5t-210 55.5t-187 158.5l93 114q64 -82 143.5 -122.5t161.5 -42t162 36.5t146 117zM172 1182q100 -105 150 -231t48.5 -373.5t-55 -372.5t-157.5 -227l-117 114q81 78 122.5 175t43 314.5t-36 314t-116.5 174.5zM266 58 q73 92 174 149t210.5 73.5t220.5 -7.5t206 -93q9 122 35 366t66.5 367t93 237.5t113 212.5t128.5 172t140 118q25 14 60 27t77 15t87.5 -12t90.5 -55l-23 -163q-80 66 -148 65t-127 -40q-116 -121 -196.5 -273t-134 -312t-82 -436.5t-39.5 -412.5l-147 -100 q-65 83 -153.5 125t-182 43t-183.5 -41t-157 -127z" />
<glyph unicode="&#xaa79;" horiz-adv-x="840" d="M741 -478l-48 -246h-153q-33 0 -65 15t-57 41t-40 61.5t-15 77.5v273q37 87 67 150t52 117t34 105t12 114v579q0 39 -23 60t-66 27q-44 -2 -64.5 -26t-22.5 -61v-274q0 -24 10.5 -56t22.5 -69.5t22.5 -79.5t10.5 -86q0 -46 -11 -94.5t-35 -88.5t-61 -65.5t-88 -25.5 q-29 0 -57 17.5t-51 39.5q-26 25 -50 57v241q7 -12 17 -26.5t20.5 -25t22 -14.5t22.5 6q11 11 15.5 21.5t-0.5 30.5q-5 29 -21.5 62.5t-33.5 61.5q-20 33 -44 64v298q0 156 103 261q54 52 120 80t145 30q88 0 157.5 -32.5t116.5 -85.5t72 -119.5t25 -133.5v-559 q0 -46 -12 -110.5t-34 -138t-54 -150t-71 -146.5v-111q0 -15 5 -28.5t18 -22.5t34 -13t53 -2z" />
<glyph unicode="&#xaa7a;" horiz-adv-x="1694" d="M1263 1761q80 7 80 83v59l252 -63v-149q0 -51 -18 -89.5t-47.5 -63.5t-68 -37.5t-79.5 -12.5h-954q-80 0 -80 -83v-1807q0 -80 80 -80h406q80 0 80 80v592q-31 74 -31 159q0 138 1 249q0 47 0.5 93t0.5 82.5t0.5 60.5t1.5 28q-7 21 -25 35t-42 14h-35q-29 0 -49.5 -20.5 t-20.5 -49.5v-535q0 -29 20.5 -49t49.5 -20h35h9q-6 -34 -18 -100.5t-31 -165.5q-138 4 -243 108q-111 111 -111 270v450q0 161 108 269q108 106 270 109q154 4 267 -109q45 -47 69.5 -100.5t31.5 -116.5v-24.5t0.5 -62t0.5 -86.5v-99q0 -119 1 -269q0 -30 21 -51.5 t52 -21.5h29q31 0 52 21.5t21 51.5v529q0 26 -15.5 45.5t-39.5 25.5l47 262q111 -21 190 -100q109 -109 109 -271v-452q0 -160 -112 -271q-112 -113 -268 -110q-17 1 -32.5 2.5t-31.5 4.5v-529q0 -204 -163 -204h-783q-179 0 -179 206v2107q0 99 42 153t137 54z" />
<glyph unicode="&#xaa7b;" horiz-adv-x="401" d="M242 223q0 14 -12 25.5t-29 11.5q-15 -1 -27 -12t-12 -25v-88q0 -15 12 -24t27 -10q17 0 29 9.5t12 24.5v88zM360 120q0 -46 -23.5 -82t-63.5 -53l91 -231l-187 2l-114 290q-3 4 -6 14.5t-6 22.5t-5 22.5t-2 14.5v129q0 30 11.5 57.5t32 47.5t47.5 32t57 12h21 q30 0 57 -12t47 -32t31.5 -47.5t11.5 -57.5v-129zM242 223q0 14 -12 25.5t-29 11.5q-15 -1 -27 -12t-12 -25v-88q0 -15 12 -24t27 -10q17 0 29 9.5t12 24.5v88zM360 120q0 -46 -23.5 -82t-63.5 -53l91 -231l-187 2l-114 290q-3 4 -6 14.5t-6 22.5t-5 22.5t-2 14.5v129 q0 30 11.5 57.5t32 47.5t47.5 32t57 12h21q30 0 57 -12t47 -32t31.5 -47.5t11.5 -57.5v-129z" />
<glyph unicode="&#xe000;" horiz-adv-x="1155" d="M0 1155h1155v-1155h-1155v1155z" />
<glyph unicode="&#xfb01;" horiz-adv-x="1024" d="M700 1155v141q0 142 70.5 191t191.5 49h117v-215q-47 14 -64 14q-53 0 -53 -39v-141h117v-194h-117v-961h-262v961h-105v194h105zM1222 1155h268v-1155h-268v1155zM1222 1536h268v-240h-268v240z" />
<glyph unicode="&#xfb02;" horiz-adv-x="1024" d="M125 1155v125q0 131 55.5 193.5t210.5 62.5h113v-215q-41 14 -68 14q-45 0 -45 -51v-129h113v-194h-113v-961h-266v961h-105v194h105zM641 1536h266v-1536h-266v1536z" />
<glyph d="M-221 1364q-2 14 -6 25.5t-17 23.5q-11 11 -20.5 8t-18 -15t-14.5 -30t-10 -37q25 3 46 8.5t40 16.5zM-262 1911q28 0 51.5 -10t40.5 -27t27 -39.5t10 -48.5v-88q-8 8 -12 10q-22 20 -59.5 28.5t-94.5 8.5h-37q-20 0 -35.5 -12.5t-15.5 -38.5v-305q0 -10 3.5 -17t8.5 -10 q6 27 24.5 62.5t44.5 64t56.5 42.5t59.5 -1q18 -11 29 -25.5t16 -32t6.5 -36.5t1.5 -39l4 -94q0 -26 -10 -49t-27 -40t-40.5 -26.5t-51.5 -9.5h-68q-52 0 -94 13.5t-82 47.5q-42 35 -64 76t-22 88v278q0 16 5 38.5t15 47t25.5 47.5t36.5 41q21 19 43 30t45.5 17t46.5 7.5 t45 1.5h68z" />
<glyph d="M-686 1364q-20 -11 -40.5 -16.5t-45.5 -8.5q4 19 10 37t14.5 30t17.5 15t19 -8q22 -24 25 -49zM-799 1911q-21 0 -43 -1.5t-44.5 -7.5t-45 -17t-43.5 -30q-21 -18 -36.5 -41t-25.5 -47.5t-15 -47t-5 -38.5v-278q0 -47 22 -88t62 -76q44 -34 84.5 -47.5t89.5 -13.5h74 q26 0 49 9.5t40 26.5t26.5 40t9.5 49l-2 94q0 40 -10 75.5t-47 57.5q-28 15 -57.5 1t-55 -42.5t-45 -64t-27.5 -62.5q-8 5 -8 27v305q0 26 15.5 38.5t35.5 12.5h37q57 0 92.5 -8.5t55.5 -28.5q5 -2 9 -3.5t7 -6.5v88q0 26 -9.5 48.5t-26.5 39.5t-40 27t-49 10h-74zM18 1475 q0 -60 -21.5 -111t-59.5 -88.5t-90.5 -59t-114.5 -22.5q-57 -2 -104.5 20t-90.5 64q-86 86 -86 197v165q0 58 23 108.5t61.5 88t89.5 59.5t107 23q118 3 207 -82q40 -40 59.5 -90t19.5 -107v-165zM-188 1481q-8 27 -29.5 40t-44.5 12t-43 -15t-25 -41v-9q0 -21 15.5 -37 t38.5 -16h32q22 0 39 16t17 37v13zM-330 1587q14 16 33 23.5t35 7.5q23 0 39 -7.5t35 -23.5v74q0 23 -17 37t-39 14h-32q-23 0 -38.5 -14t-15.5 -37v-74z" />
<glyph d="M-221 -297v-268q0 -48 -21 -90.5t-61 -79.5q-38 -32 -89.5 -47t-113.5 -17q-57 -3 -106 13.5t-93 50.5q-42 37 -60.5 79.5t-18.5 90.5v268q0 78 42 134t126 87l69 -215q-14 -5 -19 -16.5t-5 -24.5v-194q0 -43 22 -62t48.5 -17t48.5 22.5t22 56.5v194q0 5 -3.5 11.5 t-8.5 12.5q-5 7 -11 15l60 217q36 -12 67.5 -34t54.5 -51t36.5 -64t13.5 -72zM-436 -457q0 -43 -33 -63l-29 -4q-26 0 -47.5 19.5t-21.5 47.5v35q-2 23 15 47.5t54 22.5q29 0 45.5 -17.5t16.5 -52.5v-35zM-481 -455v31q-4 18 -17 21q-12 0 -16 -21v-31q0 -12 16 -14 q11 0 17 14z" />
<glyph d="M-686 1364q-20 -11 -40.5 -16.5t-45.5 -8.5q4 19 10 37t14.5 30t17.5 15t19 -8q22 -24 25 -49zM-799 1911q-21 0 -43 -1.5t-44.5 -7.5t-45 -17t-43.5 -30q-21 -18 -36.5 -41t-25.5 -47.5t-15 -47t-5 -38.5v-278q0 -47 22 -88t62 -76q44 -34 84.5 -47.5t89.5 -13.5h74 q26 0 49 9.5t40 26.5t26.5 40t9.5 49l-2 94q0 40 -10 75.5t-47 57.5q-28 15 -57.5 1t-55 -42.5t-45 -64t-27.5 -62.5q-8 5 -8 27v305q0 26 15.5 38.5t35.5 12.5h37q57 0 92.5 -8.5t55.5 -28.5q5 -2 9 -3.5t7 -6.5v88q0 26 -9.5 48.5t-26.5 39.5t-40 27t-49 10h-74z M-332 1661v-197q0 -21 16.5 -36t39.5 -15h32q20 0 37 15t17 36v197q0 22 -17 34.5t-37 12.5h-32q-23 0 -39.5 -12.5t-16.5 -34.5zM18 1473q0 -60 -21.5 -111t-59.5 -88.5t-90.5 -59t-114.5 -22.5q-57 -3 -104.5 19.5t-90.5 64.5q-43 43 -64.5 91.5t-21.5 105.5v165 q0 58 23 108.5t61.5 88t89.5 59.5t107 23q118 3 207 -82q40 -40 59.5 -90.5t19.5 -106.5v-165z" />
<glyph d="M-33 1808l-2 -239q-23 22 -54.5 46t-61.5 44.5t-55 33.5t-34 13h-34q-22 0 -37 -13t-15 -38v-193q0 -23 15 -39t37 -16h34q7 0 19 7t23 15q13 10 28 23l-39 -264h-55q-54 -2 -103 19t-90 65q-43 40 -65.5 90.5t-22.5 107.5v166q0 57 23 107.5t61.5 88.5t89.5 60t107 23 q62 2 112 -19t95 -63zM-885 1649q-1 -11 10.5 -20.5t31 -17.5t45 -15.5t53.5 -14.5v-49q-26 -7 -50 -15.5t-43 -18t-31.5 -20t-15.5 -22.5q0 -12 5.5 -23.5t14 -21.5t19 -16t21.5 -6h32q8 0 20.5 3t23.5 7q13 4 28 10l-41 -229h-53q-29 -1 -56 0t-51.5 6.5t-47 17.5 t-42.5 33q-21 21 -36.5 40.5t-25.5 40t-15 42.5t-5 49q1 15 10 36.5t26.5 43.5t42.5 41t57 29q-31 0 -55 10.5t-41 27t-27 36.5t-13 38q0 59 22.5 103.5t60.5 74.5t89 45.5t107 16.5q59 0 108 -21t91 -63l24 -31l-2 -231q-21 20 -50.5 46.5t-59.5 50.5t-54.5 41t-34.5 17 h-32q-11 0 -21.5 -7t-19 -17.5t-14 -23t-5.5 -23.5z" />
<glyph d="M-686 1364q-20 -11 -40.5 -16.5t-45.5 -8.5q4 19 10 37t14.5 30t17.5 15t19 -8q22 -24 25 -49zM-799 1911q-21 0 -43 -1.5t-44.5 -7.5t-45 -17t-43.5 -30q-21 -18 -36.5 -41t-25.5 -47.5t-15 -47t-5 -38.5v-278q0 -47 22 -88t62 -76q44 -34 84.5 -47.5t89.5 -13.5h74 q26 0 49 9.5t40 26.5t26.5 40t9.5 49l-2 94q0 40 -10 75.5t-47 57.5q-28 15 -57.5 1t-55 -42.5t-45 -64t-27.5 -62.5q-8 5 -8 27v305q0 26 15.5 38.5t35.5 12.5h37q57 0 92.5 -8.5t55.5 -28.5q5 -2 9 -3.5t7 -6.5v88q0 26 -9.5 48.5t-26.5 39.5t-40 27t-49 10h-74zM-33 1808 l-2 -239q-23 22 -54.5 46t-61.5 44.5t-55 33.5t-34 13h-34q-22 0 -37 -13t-15 -38v-193q0 -23 15 -39t37 -16h34q7 0 19 7t23 15q13 10 28 23l-39 -264h-55q-54 -2 -103 19t-90 65q-43 40 -65.5 90.5t-22.5 107.5v166q0 57 23 107.5t61.5 88.5t89.5 60t107 23q62 2 112 -19 t95 -63z" />
<glyph d="M-354 -469q20 0 46 12.5t46 28.5v-270q0 -14 -10 -25t-24.5 -19t-30.5 -12t-27 -4h-156v4q-69 7 -111.5 60.5t-42.5 140.5v285h-213q-26 0 -42.5 6t-25.5 15t-12.5 19.5t-3.5 20.5v182q8 -18 29 -30.5t55 -12.5h422q37 0 57.5 -15.5t20.5 -57.5v-328h23z" />
<glyph d="M-547 -467v201h-215q-23 0 -39 6t-26 15t-14.5 19.5t-4.5 20.5v182q14 -15 33.5 -27.5t50.5 -12.5h430q31 0 50.5 -18t19.5 -58v-371q0 -51 -14 -95.5t-39 -77.5t-60.5 -52t-77.5 -19h-292q-12 0 -29.5 4.5t-33.5 12t-27 18.5t-11 23v270q23 -14 51 -27.5t50 -13.5h198z " />
<glyph d="M-375 -430q0 -14 8 -22.5t17 -8.5h14q25 0 25 31v190q0 13 -6 21t-19 8h-14h-1q-1 0 -1 -2q2 12 5.5 37.5t14.5 62.5q23 -2 45.5 -11.5t42.5 -29.5q20 -23 31.5 -45.5t11.5 -50.5v-168q0 -29 -11.5 -55t-31.5 -47q-39 -37 -102 -43q-22 0 -43 8.5t-41 19.5 q-17 -9 -33 -14t-39 -10v-141h187v45h108v-62q0 -18 -7 -34t-19 -28.5t-28 -20t-34 -7.5h-219q-18 0 -35 6.5t-30.5 18t-22 27.5t-8.5 34v197q-6 8 -8.5 20t-2.5 23v57q2 -3 6.5 -5.5t10.5 -8.5q14 -10 35.5 -16.5t46.5 -6.5h8q11 0 22 10.5t11 22.5v182q0 17 -9.5 26 t-23.5 9h-6q-37 0 -59 -7t-37 -20q-5 -5 -5 -6v54q0 34 21 55.5t53 21.5h33q25 0 52 -7t48 -25q15 -17 23 -32t11.5 -28t4 -24.5t0.5 -20.5v-180z" />
<glyph horiz-adv-x="573" d="M442 -469v-289h-166q-41 0 -76 19t-60.5 52.5t-40.5 78.5t-15 96v371q0 42 22 57.5t56 15.5h282v43h-18q-81 2 -149 28t-119 79q-56 56 -82.5 124t-26.5 146v449q0 29 1 62.5t11 70.5t32.5 76.5t64.5 81.5q26 27 58 45t67 28t71.5 13t71.5 2h86q41 0 77.5 -15.5t64 -43 t43.5 -64.5t16 -80v-141q-6 6 -11.5 10.5t-11.5 13.5q-34 25 -93 42.5t-153 17.5h-24q-35 0 -60.5 -25.5t-25.5 -67.5v-501q0 -18 8 -33t21.5 -26t30 -17t34.5 -6h23q71 0 124 15.5t91 41.5q15 6 27 17t20 20v-160q0 -26 -8 -53.5t-23 -50.5v-101v2v-182q0 -10 -3.5 -20.5 t-12.5 -19.5t-25 -15t-41 -6h-227v-201h69zM594 -293q-20 0 -45 -4t-37 -16q-16 -11 -24.5 -21.5t-12 -19.5t-4 -17t-0.5 -14v-107q0 -21 10.5 -37.5t30.5 -33.5q12 -9 34.5 -18t47.5 -9h27q31 0 49 16t18 37v41q-2 -3 -6.5 -5.5t-7.5 -4.5q-24 -14 -72 -14h-4 q-14 0 -22.5 4.5t-8.5 15.5v121q0 8 6.5 16.5t20.5 8.5h6q31 0 49.5 -4.5t30.5 -12.5l6 -3q1 -1 2 -1v33q0 22 -18 35.5t-49 13.5h-27zM688 -696q5 0 13.5 4.5t17.5 7.5v-66q0 -4 -4 -6.5t-9.5 -4t-10.5 -2.5t-7 -1h-51q-25 2 -36 15.5t-11 31.5v72h-76q-15 0 -20 5t-5 11 v39q4 -3 10 -3.5t15 -0.5h143q21 0 21 -22v-80h10z" />
<glyph d="M-307 -625v-145h-96q-22 0 -42.5 8t-36 23t-25 36.5t-9.5 47.5v108l80 170v121q0 23 -14 34.5t-42 16.5q-11 0 -18.5 -4t-15.5 -10q-7 -5 -12.5 -15.5t-8.5 -21.5v-109l-186 46v57q0 98 69 158q63 60 166 63q101 3 170 -63q35 -35 50.5 -72t15.5 -86v-94l-86 -191v-43 q0 -8 0.5 -13.5t4.5 -10t12.5 -7.5t23.5 -4z" />
<glyph horiz-adv-x="426" d="M567 1600h-186q-49 0 -49 -51v-1984q0 -47 82 -47l-62 -276h-116q-181 0 -181 204v2225q0 97 42 150t139 53h280z" />
<glyph horiz-adv-x="395" d="M1606 1618l-285 -92v74q0 31 -41 35h-902q-46 0 -46 -35v-2032q0 -48 36 -48h201l-53 -276h-280q-181 0 -181 204v2258q0 97 42 150t139 53h1204q84 0 125 -49t41 -152v-90z" />
<glyph horiz-adv-x="420" d="M1174 1620l-277 -91v71q0 41 -57 41h-469q-39 0 -39 -41v-2038q0 -44 82 -44l-62 -276h-116q-181 0 -181 204v2266q0 97 42 150t139 53h774q164 0 164 -201v-94z" />
<glyph d="M-307 -635v-145h-96q-22 0 -42.5 9t-36 24.5t-25 37t-9.5 45.5v111l80 168v119q0 44 -56 53q-11 0 -18.5 -3.5t-15.5 -8.5q-7 -10 -12.5 -18.5t-8.5 -22.5v-107l-186 47v58q0 95 69 155q64 61 166 64q100 0 170 -64q35 -32 50.5 -69.5t15.5 -85.5v-101l-86 -184v-41 q0 -9 0.5 -15.5t4.5 -11t12.5 -8t23.5 -6.5z" />
<glyph horiz-adv-x="408" d="M465 -412l-53 -317q-138 0 -244 106q-49 48 -80 116.5t-31 135.5v1839q0 144 104.5 252.5t250.5 110.5l53 -322l-45 7q-78 0 -78 -84v-1772q0 -25 20 -55q17 -17 58 -23z" />
<glyph horiz-adv-x="408" d="M113 -418q41 6 57 23q20 30 20 55v1772q0 84 -77 84l-50 -7l58 322q149 -2 249.5 -110.5t100.5 -252.5v-1839q0 -67 -28.5 -135.5t-77.5 -116.5q-103 -106 -244 -106l-58 317z" />
<glyph horiz-adv-x="98" d="M-408 -107q76 61 174 58q123 -3 202 -81q81 -81 81 -202v-151q0 -118 -83 -202q-78 -78 -182 -81q-14 75 -23 124.5t-14 75.5q2 -1 7 -1h26q22 0 37.5 15.5t15.5 36.5v215q0 22 -15.5 37t-37.5 15h-26q-22 0 -37.5 -15t-15.5 -37l-2 -1q0 -4 0.5 -33t0.5 -62v-87 q0 -120 -81 -202q-58 -58 -142 -75l-35 196q18 5 30 19t12 34v207q0 23 -16 39t-39 16h-22q-23 0 -39 -16t-16 -39v-207q0 -22 15 -37.5t37 -17.5l-36 -197q-83 12 -151 78q-81 85 -81 202v151q0 121 79 200q42 39 92 60t110 23q97 3 175 -58z" />
<glyph d="M-709 -107q76 61 174 58q123 -3 202 -81q81 -81 81 -202v-151q0 -118 -83 -202q-78 -78 -182 -81q-14 75 -23 124.5t-14 75.5q2 -1 7 -1h26q22 0 37.5 15.5t15.5 36.5v215q0 22 -15.5 37t-37.5 15h-26q-22 0 -37.5 -15t-15.5 -37l-2 -1q0 -4 0.5 -33t0.5 -62v-87 q0 -120 -81 -202q-58 -58 -142 -75l-35 196q18 5 30 19t12 34v207q0 23 -16 39t-39 16h-22q-23 0 -39 -16t-16 -39v-207q0 -22 15 -37.5t37 -17.5l-36 -197q-83 12 -151 78q-81 85 -81 202v151q0 121 79 200q42 39 92 60t110 23q97 3 175 -58z" />
<glyph d="M-576 -575q19 -8 39.5 -15t48.5 -12q-5 20 -12 38.5t-15 31t-17 16t-19 -7.5q-13 -12 -19 -24t-6 -27zM-410 -60q45 2 88.5 -8.5t83.5 -45.5q24 -18 40.5 -41t27 -47t15.5 -46.5t5 -39.5v-244q0 -51 -24 -91.5t-66 -72.5q-40 -37 -80 -50.5t-90 -13.5h-127q-27 0 -50 9.5 t-39.5 26.5t-26 39.5t-9.5 49.5v95q0 38 11 74.5t46 58.5q28 17 66 3t74 -43.5t63 -66t33 -65.5q6 5 11 13.5t5 16.5v271q0 29 -15 43.5t-38 14.5h-94q-54 0 -90.5 -10t-54.5 -25q-5 -3 -10 -6.5t-7 -9.5v90q0 25 9.5 47t26 38.5t39.5 26t50 9.5h127z" />
<glyph d="M-151 -561q0 -38 -13.5 -73t-36.5 -63.5t-55 -50.5t-69 -34l-57 215q6 7 10 15q4 6 7 13.5t3 14.5v191q0 35 -22 55.5t-48.5 22.5t-48.5 -16.5t-22 -61.5v-191q0 -31 27 -45l-70 -213q-87 31 -128.5 87t-41.5 134v265q0 52 20 93t60 79q43 35 91 52.5t108 12.5 q63 0 113.5 -15.5t90.5 -49.5q82 -70 82 -172v-265z" />
</font>
</defs>
</svg>
