<?xml version="1.0" standalone="no"?>
<!DOCTYPE svg PUBLIC "-//W3C//DTD SVG 1.1//EN" "http://www.w3.org/Graphics/SVG/1.1/DTD/svg11.dtd" >
<svg xmlns="http://www.w3.org/2000/svg">
<metadata></metadata>
<defs>
<font id="ayar_tawthalinlight" horiz-adv-x="0" >
<font-face units-per-em="2048" ascent="1638" descent="-410" />
<missing-glyph horiz-adv-x="802" />
<glyph unicode="&#x100a;&#x1039;&#x100a;" horiz-adv-x="1730" d="M92 126q89 -66 192 -66q123 0 204 118q71 108 71 236v550q0 60 -46 97t-109 39q-57 3 -82 -1t-65 -33q-76 -44 -117 -144v-317h-48v624h45v-189q24 29 86 68q84 53 215 55q87 3 164 -62.5t77 -152.5v-505q-2 -126 105 -231q58 -55 160 -99q73 -32 126 -32q102 0 204 54 t165 135q107 141 113 343q5 178 -121 309q-173 152 -351 157q-26 0 -86 -7v-441h-45v598h42v-81q18 5 52 13h35q269 0 413 -134q158 -147 158 -406q0 -238 -168 -406q-212 -212 -409 -218q-84 -2 -190 41t-172.5 95.5t-98.5 107.5q-126 -204 -304 -246v-729q0 -44 18.5 -74 t76.5 -30h75q105 0 183.5 98t78.5 232v199h42v-595h-39v105q-52 -79 -197 -79h-434v40h78v746q0 55 -36 84q-11 11 -48 26q-2 0 -13 3v105zM1259 -680h40v-195h-39v34q-29 -22 -82 -22h-289v40h37v184q0 22 -13 32q-2 2 -6.5 4.5t-12.5 5.5q-1 0 -2.5 0.5t-3.5 0.5l-8 3v77 l17 -12q40 -29 84 -29q52 0 87 51q31 47 31 105v258q0 23 -17 37q-21 16 -45 16q-7 0 -12.5 0.5t-10.5 0.5t-8.5 -0.5t-5.5 -0.5q-10 -2 -26 -14q-32 -19 -50 -61v-157h-44v313h42v-75q5 4 11 8t14 9q44 27 106 27h4q42 0 80 -32q39 -34 39 -79v-237q0 -29 12 -53.5 t35 -47.5q24 -25 71 -44q32 -14 55 -14q44 0 91 24q45 23 74 60q48 65 51 155v4q0 77 -54 134q-79 69 -157 70h-12.5t-17.5 -2v-208h-42v301h41v-35l11 3h19q64 0 114.5 -16t85.5 -50q78 -72 78 -197q0 -116 -82 -198q-102 -102 -198 -105h-5q-40 0 -89 20q-45 18 -75 40 t-48 46q-56 -83 -132 -105v-179q0 -18 6.5 -28t27.5 -10h110q45 0 78 42q31 38 34 91z" />
<glyph unicode="&#x1039;&#x100b;" d="M-539 -464v-64q-14 -8 -30.5 -13.5t-33 -9t-31 -5t-24.5 -1.5q-101 2 -180 76q-38 38 -58.5 81t-20.5 94q0 89 65 157q64 67 155 66q67 -2 110 -24v43h18v-234h-18v160q-45 21 -91 21q-38 1 -74.5 -16t-64 -46.5t-44.5 -67t-16 -77.5q0 -26 6.5 -50t18.5 -48 q59 -104 176 -101q87 2 137 59zM-840 -546q1 -15 21 -18h139q29 0 51 -5.5t40 -19.5q37 -30 37 -81v-172q0 -17 6.5 -27t26.5 -10h9q45 0 45 33v87h14v-142h-13v17q-17 -9 -49 -9h-106v14h26v179q0 75 -37 100q-13 8 -34 13t-50 5h-148v70l20 -1z" />
<glyph unicode="&#x1039;&#x100c;" d="M-1376 -882l-9 35q-5 12 -16 21q-19 16 -37 23.5t-32 7.5h-708v-71h-53v581q0 57 12.5 98.5t40.5 68.5h-77v55h552v-58h-188q-57 0 -107 -16.5t-93 -51.5t-65 -73.5t-22 -83.5v-249q0 -46 23.5 -60.5t61.5 -14.5h651l-5 58q5 226 172 401q169 177 389 177q202 0 353 -145 q73 -70 110.5 -153.5t37.5 -182.5v-11q-3 -136 -46 -234h89v-56h-534v56h354q21 50 32 97.5t11 95.5q0 54 -17 106.5t-47 100t-71 88t-90 70t-103 46.5t-110 17h-6q-111 0 -212 -56q-112 -62 -165 -153.5t-53 -215.5v-7q3 -186 127 -295l17 -16h-167z" />
<glyph unicode="&#x100b;&#x1039;&#x100c;" horiz-adv-x="1149" d="M1040 212v-161q-38 -17 -79 -29.5t-79.5 -21.5t-72.5 -13.5t-58 -4.5h-4q-249 3 -445 191q-97 94 -146.5 200t-49.5 231q0 220 161 389q158 163 374 163h8q81 -2 150 -16t125 -42v106h42v-579h-42v394q-58 26 -114 39t-114 13h-15q-61 0 -120 -20t-112 -54.5t-98 -82.5 t-77.5 -103.5t-51 -117t-18.5 -124.5v-8q0 -66 16 -125.5t48 -117.5q71 -128 177 -190t250 -62h7q106 2 190.5 38t147.5 108zM205 -907v493h42v-93q0 -133 80 -233q40 -50 85.5 -75.5t99.5 -25.5h281q28 0 46.5 8t29.5 22t15 33.5t4 42.5v247q0 25 -7.5 46t-18 38 t-23.5 29.5t-23 20.5q-62 44 -206 44h-367v376q32 -36 61.5 -62.5t62.5 -45t73 -28t92 -10.5h28h60.5t57.5 1q31 1 60 2q30 3 72.5 5.5t86 8.5t82 16.5t61.5 30.5v-59q-25 -24 -58.5 -40.5t-72 -27t-81.5 -16t-87 -7.5q-36 0 -74 1q-32 0 -70 0.5t-70 0.5h-48 q-18 0 -31.5 1.5t-27 5.5t-30.5 10.5t-43 15.5v-131h346q138 0 222 -63q32 -24 50.5 -53.5t27.5 -58t11 -53.5t2 -41v-310h80v-39h-643q-147 0 -198 79v-106h-40z" />
<glyph unicode="&#x1039;&#x100d;" d="M-1014 -437q51 -53 139 -55q119 -3 178 94q12 23 18.5 45t6.5 46q1 37 -16 72.5t-45 63t-64.5 43.5t-75.5 15q-46 0 -92 -20v-149h-19v218h19v-40q22 11 50 16t61 6q93 2 157 -61q66 -63 66 -147q0 -91 -80 -163q-80 -69 -182 -71q-10 0 -25 1.5t-31.5 5t-33.5 8.5 t-31 12v60zM-988 -546q1 -15 21 -18h139q29 0 51 -5.5t40 -19.5q37 -30 37 -81v-172q0 -17 6.5 -27t26.5 -10h9q45 0 45 33v87h14v-142h-13v17q-17 -9 -49 -9h-106v14h26v179q0 75 -37 100q-13 8 -34 13t-50 5h-148v70l20 -1z" />
<glyph unicode="&#x100d;&#x1039;&#x100e;" horiz-adv-x="1162" d="M610 -740q0 -23 4 -42t15 -33.5t29 -22.5t47 -8h27q53 0 98.5 25.5t83.5 73.5q39 50 58.5 108t19.5 123v197h43v-591h-39v103q-50 -77 -196 -77h-385v38h78v831q-89 6 -161.5 35.5t-124 80.5t-79.5 122.5t-28 160.5q0 41 -0.5 80.5t-0.5 84v96.5v118q0 10 7 17.5t18 15.5 l1 1q13 8 29 10.5t32 5.5t32 9t29 20q10 12 17 26.5t11 28.5t6 26t2 19q0 16 -1 28.5t-6 21.5q-35 74 -105 71q-73 -2 -105 -62q-29 -64 -29 -101h-34v242h34v-86q71 35 126 34q37 -1 70 -13t58 -33t39 -50t13 -64q0 -17 -2 -39.5t-8 -45.5t-18 -44.5t-33 -37.5 q-17 -11 -34 -17t-31 -11q-2 -50 -3.5 -89.5t-2 -75.5t0 -70.5t2.5 -73.5q0 -35 12 -78.5t37.5 -88.5t65.5 -86.5t97 -70.5v111h1v67l12 -14q53 -59 140 -60q120 -2 178 104q27 46 27 100q1 40 -16.5 79t-46 69t-65 47.5t-75.5 16.5q-23 0 -45.5 -5.5t-45.5 -15.5v-171h-32 v262h32v-40q23 10 51 14.5t60 5.5q99 2 167 -72q37 -38 54 -80.5t17 -90.5q0 -109 -85 -190q-42 -41 -90 -62t-105 -22q-30 0 -64 9v-89q12 -4 14.5 -7t3.5 -5t5.5 -4t20.5 -3q60 -4 111.5 8t94.5 35.5t77.5 57t59.5 74.5q45 79 67.5 166.5t12.5 187.5q-5 48 -12.5 92.5 t-21 86t-35 79.5t-53.5 74q-33 33 -63 53.5t-59.5 33.5t-59.5 22t-62 19l-4 -160h-41v317h41v-67q17 -1 33 -2q14 -1 29 -2.5t26 -4.5q51 -14 81.5 -25t54 -24t46 -31t56.5 -48q46 -44 76 -88.5t48 -93.5t25 -103.5t7 -118.5q0 -60 -10 -122t-29 -120.5t-46 -111t-61 -93.5 q-31 -38 -65 -62t-73 -41t-83.5 -29.5t-96.5 -26.5v-728z" />
<glyph unicode="&#x1009;&#x1039;&#x1005;" horiz-adv-x="1047" d="M32 225q126 -141 336 -144q288 -5 429 249q63 113 63 241q0 129 -68 248t-180.5 188.5t-238.5 69.5q-113 0 -225 -53v-390h-42v574h42v-105q110 55 272 58q220 2 378.5 -163t158.5 -385q0 -244 -194 -427t-440 -189l-76 6v-737q0 -44 18.5 -74t76.5 -30h209 q105 0 183.5 98t78.5 232v199h42v-595h-39v105q-53 -79 -197 -79h-568v40h78v799q0 39 -36 84q-11 13 -29 20l-32 8v152zM788 -395q0 -79 -89.5 -183t-167.5 -104q-44 0 -59 -3q-30 0 -44 4q-47 5 -95 58q-15 16 -42 54q-19 26 -19 130v59q0 131 101 227q69 64 158 81 q42 6 95 9q63 2 112.5 -39t49.5 -101v-192zM394 -587l7 -8q27 -25 36.5 -31.5t39.5 -10.5q35 0 54 3q68 0 126 86q53 78 53 157v188q0 42 -31.5 67.5t-75.5 27.5q-82 4 -137 -29q-30 -16 -59 -50q95 -43 95 -164q0 -62 -29.5 -130.5t-78.5 -105.5zM386 -215l-10 -17 q-26 -43 -26 -145q0 -129 26 -181q67 93 69 204q2 90 -59 139z" />
<glyph unicode="&#x1009;&#x1039;&#x1007;" horiz-adv-x="1057" d="M32 225q126 -141 336 -144q288 -5 429 249q63 113 63 241q0 129 -68 248t-180.5 188.5t-238.5 69.5q-113 0 -225 -53v-390h-42v574h42v-105q110 55 272 58q220 2 378.5 -163t158.5 -385q0 -244 -194 -427t-440 -189l-76 6v-737q0 -44 18.5 -74t76.5 -30h209 q105 0 183.5 98t78.5 261h42v-425h-39v105q-53 -79 -197 -79h-568v40h78v799q0 39 -36 84q-11 13 -29 20l-32 8v152zM778 -259l-368 10q-22 -28 -32.5 -62.5t-10.5 -72.5t15.5 -71.5t45.5 -65.5q13 -13 28 -26.5t32 -25t37 -19.5t43 -11q59 -7 105 17.5t81 63.5l25 -24 q-12 -14 -34 -32t-50 -34t-61.5 -27.5t-68.5 -11.5q-59 -2 -102 13t-86 55q-45 41 -63 86t-19 102q-3 75 43 147q21 33 49 60.5t61.5 47t71.5 30.5t77 11q22 0 40.5 -1.5t32.5 -6.5q45 -11 81 -53l-20 63l25 8l93 -311l-24 -7zM433 -220h273l-12 12q-44 43 -123 43 q-80 0 -138 -55z" />
<glyph unicode="&#x102b;&#x103a;" horiz-adv-x="588" d="M202 1506q3 -20 6 -73v-1299q0 -92 68 -97h68v-37h-356v37h104v1378q0 361 -225 364q-42 0 -103.5 -35.5t-90.5 -71.5q-68 -87 -76 -218q-2 -68 32 -132t123 -106q50 -16 94 -19q29 -2 68 16l19 -34q-55 -31 -150 -34q-136 -3 -220 97q-34 39 -50 126q0 26 -2 47 q0 157 123 301q99 115 233 118q131 3 231 -97q15 -21 27 -31.5t20 -28.5q8 31 18 52q16 50 81 81q40 19 84 21q84 3 155 -44v97h31v-467h-31v247q-32 118 -168 118q-123 0 -128 -165q0 -14 15 -111z" />
<glyph unicode="&#x102d;&#x1036;" d="M-1070 1491q0 52 21 107q23 87 102 165q60 61 173 95q57 18 94 15q68 -2 102 -13q63 -8 134 -71q34 -31 65 -78q19 -26 34 -97q8 -66 11 -113q3 -86 -55 -173q-32 -47 -68 -78q-26 -21 -81 -53q-40 -15 -85.5 -27t-95.5 -20q-134 0 -207 58q-19 13 -53 42q-39 39 -55 78 q-13 19 -28 71q-8 39 -8 92zM-971 1517q-2 -102 97 -199q60 -58 176 -74q18 0 39 -2q79 0 123 29q66 44 95 112q15 37 15 113q0 29 -2 39q-13 79 -53 126q-29 34 -97 89q-70 39 -136 39q-47 0 -68 -5q-97 -13 -152 -123q-34 -68 -37 -144zM-285 1472q0 113 125 184 q55 31 142 34q44 3 83.5 -28.5t39.5 -79.5v-94q0 -65 -65.5 -142.5t-131.5 -77.5h-44q-45 0 -68 16q-45 29 -71 73q-8 11 -9 35.5t-4 27.5q0 37 3 52zM-183 1410q0 -79 47 -103h44q92 0 92 158v91q0 89 -57 97q-48 0 -87 -31q-13 -13 -29 -60q-5 -32 -10 -84v-68z" />
<glyph unicode="&#x1004;&#x103a;&#x1039;&#x102d;" d="M-680 1491q0 52 21 107q23 87 102 165q60 61 173 95q57 18 94 15q68 -2 102 -13q63 -8 134 -71q34 -31 65 -78q19 -26 34 -97q8 -66 11 -113q3 -86 -55 -173q-32 -47 -68 -78q-26 -21 -81 -53q-40 -15 -85.5 -27t-95.5 -20q-134 0 -207 58q-19 13 -53 42q-39 39 -55 78 q-13 19 -28 71q-8 39 -8 92zM-581 1517q-2 -102 97 -199q60 -58 176 -74q18 0 39 -2q79 0 123 29q66 44 95 112q15 37 15 113q0 29 -2 39q-13 79 -53 126q-29 34 -97 89q-70 39 -136 39q-47 0 -68 -5q-97 -13 -152 -123q-34 -68 -37 -144zM-855 1616q-2 0 -4.5 1t-4.5 1h3 q-11 3 -15 3q-40 15 -51 26q-44 44 -44 70q-7 52 28 80q15 16 26 18q7 1 19 1h30h-1q69 -9 75 -56v1v-70h34v185h-34v-26q-15 7 -28 8.5t-32 1.5q-43 -7 -70 -13t-38 -13q-71 -45 -71 -118q0 -35 9 -59q8 -20 20 -37t31 -31q-63 -32 -94 -80v1q-44 -64 -42 -126 q3 -95 58 -147t162 -52q8 0 23.5 1.5t23.5 4.5q37 14 44 18q34 21 83 62l-26 37q-54 -59 -146 -59q-54 10 -93 45q-51 43 -51 90q0 85 35 127q44 56 104 56h-1q17 -2 31.5 -5.5t27.5 -7.5l-1 1q25 -12 41 -32v-121h34v240h-34v-39q-13 5 -28 8t-32 5h-1z" />
<glyph unicode="&#x1004;&#x103a;&#x1039;&#x102e;" horiz-adv-x="95" d="M-523 1360h461l11 23q15 34 15 113q0 29 -2 39q-13 79 -53 126q-29 34 -97 89q-70 39 -136 39q-47 0 -68 -5q-97 -13 -152 -123q-34 -65 -37 -144q0 -37 14.5 -77.5t43.5 -79.5zM-83 1318h-409q24 -26 76.5 -46t89 -24t57.5 -6q84 0 123 29q42 18 63 47zM19 1360h71v-42 h-92q-31 -42 -61 -67t-85 -56l-87 -29q-44 -8 -94 -16q-134 0 -207 58q-19 13 -53 42q-39 39 -55 78q-13 19 -28 71q-8 39 -8 92q0 52 21 107q23 87 102 165q60 61 173 95q57 18 94 15q68 -2 102 -13q63 -8 134 -71q34 -31 65 -78q19 -26 34 -97q8 -63 11 -113 q3 -57 -37 -141zM-856 1616q-2 0 -4.5 1t-4.5 1h3q-11 3 -15 3q-40 15 -51 26q-44 44 -44 70q-7 52 28 80q15 16 26 18q7 1 19 1h30h-1q69 -9 75 -56v1v-70h34v185h-34v-26q-15 7 -28 8.5t-32 1.5q-43 -7 -70 -13t-38 -13q-71 -45 -71 -118q0 -35 9 -59q8 -20 20 -37t31 -31 q-63 -32 -94 -80v1q-44 -64 -42 -126q3 -95 58 -147t162 -52q8 0 23.5 1.5t23.5 4.5q37 14 44 18q34 21 83 62l-26 37q-54 -59 -146 -59q-54 10 -93 45q-51 43 -51 90q0 85 35 127q44 56 104 56h-1q17 -2 31.5 -5.5t27.5 -7.5l-1 1q25 -12 41 -32v-121h34v240h-34v-39 q-13 5 -28 8t-32 5h-1z" />
<glyph unicode="&#x1004;&#x103a;&#x1039;&#x1036;" d="M-390 1472q0 113 125 184q55 31 142 34q44 3 83.5 -28.5t39.5 -79.5v-94q0 -65 -65.5 -142.5t-131.5 -77.5h-44q-45 0 -68 16q-45 29 -71 73q-8 11 -9 35.5t-4 27.5q0 37 3 52zM-288 1410q0 -79 47 -103h44q92 0 92 158v91q0 89 -57 97q-48 0 -87 -31q-13 -13 -29 -60 q-5 -32 -10 -84v-68zM-565 1616q17 -2 32 -5t28 -8v39h34v-240h-34v121q-16 20 -41 32l1 -1q-13 4 -27.5 7.5t-31.5 5.5h1q-60 0 -104 -56q-35 -42 -35 -127q0 -47 51 -90q39 -35 93 -45q92 0 146 59l26 -37q-49 -41 -83 -62q-7 -4 -44 -18q-8 -3 -23.5 -4.5t-23.5 -1.5 q-107 0 -162 52t-58 147q-2 62 42 126v-1q31 48 94 80q-19 14 -31 31t-20 37q-9 24 -9 59q0 73 71 118q11 7 38 13t70 13q19 0 32 -1.5t28 -8.5v26h34v-185h-34v70v-1q-6 47 -75 56h1h-30t-19 -1q-11 -2 -26 -18q-35 -28 -28 -80q0 -26 44 -70q11 -11 51 -26q4 0 15 -3h-3 q2 0 4.5 -1t4.5 -1h1z" />
<glyph unicode="&#x1004;&#x103a;&#x1039;" d="M-505 1616q17 -2 32 -5t28 -8v39h34v-240h-34v121q-16 20 -41 32l1 -1q-13 4 -27.5 7.5t-31.5 5.5h1q-60 0 -104 -56q-35 -42 -35 -127q0 -47 51 -90q39 -35 93 -45q92 0 146 59l26 -37q-49 -41 -83 -62q-7 -4 -44 -18q-8 -3 -23.5 -4.5t-23.5 -1.5q-107 0 -162 52 t-58 147q-2 62 42 126v-1q31 48 94 80q-19 14 -31 31t-20 37q-9 24 -9 59q0 73 71 118q11 7 38 13t70 13q19 0 32 -1.5t28 -8.5v26h34v-185h-34v70v-1q-6 47 -75 56h1h-30t-19 -1q-11 -2 -26 -18q-35 -28 -28 -80q0 -26 44 -70q11 -11 51 -26q4 0 15 -3h-3q2 0 4.5 -1 t4.5 -1h1z" />
<glyph unicode="&#x103e;&#x1030;" d="M-92 -904h-37v50q-47 -24 -144 -24h-79q-65 0 -107 47.5t-42 109.5v725h118v-738q0 -42 26 -72t68 -32h27q47 0 89 26t42 68v251h39v-411zM-710 -878v880l117 2v-882h-117zM-1087 -3h270v-471q0 -181 -79 -307q-94 -146 -264 -149q-32 0 -53 5q-47 0 -70 50q-6 16 -8 31 q0 84 94 74q37 -3 58 -51.5t42 -43.5q107 24 141 129q21 65 21 204v367q0 47 -12 66.5t-54 38.5q-28 5 -86 10v47z" />
<glyph unicode="&#x103b;&#x103e;" horiz-adv-x="305" d="M-330 -259q8 48 23.5 95t52.5 102h-176v39h412v-39h-126q-63 -102 -79 -194q0 5 -5 -113q-3 -79 14 -113t101 -113q100 -91 142 -97q23 0 23 32v1633q0 29 -1 46t-21 45.5t-34 28.5t-22 3v47h183v-1803q0 -139 -97 -142q-110 -5 -298 184q-71 -262 -331 -262q-31 0 -49 5 q-47 0 -71 50q-5 16 -8 31q0 84 94 74q34 -3 58 -50t42 -45q110 21 147 126q26 18 26 157v273z" />
<glyph unicode="&#x103d;&#x103e;" d="M-366 -466v267q0 60 -46 96.5t-109 39.5q-118 5 -194 -39q-41 -24 -73 -60q-16 -19 -54 -76.5t-38 -206.5v-173q27 -129 131 -186q11 -6 50 -11q50 0 76 3q97 0 181 123q76 110 76 223zM-935 -760q-86 -173 -256 -173q-34 0 -50 6q-24 0 -46 27.5t-22 50.5q8 68 84 60 q26 0 57 -63q11 -20 32 -20q149 28 149 238v485q0 34 -16 65q-15 24 -50 34q-23 0 -73 5v42h241v-167q37 42 63 63l79 52q49 26 120 42q53 10 136 13q89 3 160 -55t71 -144v-273q0 -112 -127 -260t-240 -148q-60 0 -81 -3q-45 0 -66 5q-94 13 -165 118z" />
<glyph unicode="&#x100a;&#x1039;&#x1009;" horiz-adv-x="2319" d="M497 172q4 6 8 11.5t8 12.5q57 99 57 210v549q0 60 -46 97q-47 36 -108 39q-11 0 -20.5 0.5t-17.5 0.5q-28 0 -44 -3q-14 -2 -29.5 -10t-35.5 -22q-77 -44 -117 -144v-316h-48v622h45v-188q23 27 86 67q85 53 214 56h4q87 0 160 -63q77 -65 77 -152v-588q0 -112 3 -131 q11 -70 63 -109q65 -50 112 -50h6q120 0 195 113q68 101 68 232v549q0 42 -29 77q-29 36 -70 36q-32 0 -54 -29q-22 -25 -22 -105v-337h-45v622h45v-68h70q86 0 153 -57q70 -58 70 -155v-504q0 -126 107 -231q29 -28 68.5 -52t90.5 -46q75 -32 126 -32q102 0 204 53 q101 53 165 136q107 140 113 341v12q0 172 -121 297q-87 75 -173.5 115t-176.5 42q-14 0 -35.5 -1.5t-51.5 -5.5v-441h-44v597h42v-81q9 3 22 6t30 7h34q270 0 413 -133q157 -147 157 -405q0 -237 -168 -405q-212 -212 -407 -218h-6q-41 0 -87 10t-97 31 q-106 43 -172.5 95.5t-97.5 106.5q-150 -243 -330 -243q-78 0 -109 19q-111 56 -163 172l-23 -27q-14 -17 -26.5 -31.5t-32.5 -31.5q-24 -21 -50.5 -39.5t-52 -32.5t-48.5 -22t-39 -9v-728q0 -23 4 -42t14.5 -32.5t28.5 -21.5t47 -8h1329q103 0 182 99q79 98 79 231v199h42 v-594h-39v104q-51 -78 -197 -78h-1687v39h79v746q0 55 -36 83q-12 10 -48 27h-4.5t-8.5 2v105q46 -34 93 -49.5t98 -15.5q5 0 20 1t21 2q95 17 164 115z" />
<glyph unicode="&#x1009;&#x1039;&#x1006;" horiz-adv-x="1602" d="M102 215q126 -141 336 -144q288 -5 429 249q63 113 63 241q0 129 -68 248t-180.5 188.5t-238.5 69.5q-113 0 -225 -53v-390h-42v574h42v-105q110 55 272 58q220 2 378.5 -163t158.5 -385q0 -244 -194 -427t-440 -189l-76 6v-737q0 -44 18.5 -74t76.5 -30h812 q105 0 183.5 99.5t78.5 230.5v199h42v-595h-40v105q-52 -79 -196 -79h-1171v40h78v799q0 39 -36 84q-11 13 -29 20l-32 8v152zM782 -340q-17 -26 -96 -71l-105 -50q-35 -17 -56.5 -32t-33 -31t-15 -34.5t-3.5 -41.5q0 -69 54 -83l63 -7h5q26 0 55.5 11t64.5 32q67 42 67 79 v228zM848 -240q9 11 18.5 22t21.5 23q50 50 149 81q21 7 39 10.5t32 3.5q3 0 5.5 -0.5t5.5 -0.5q29 -1 51 -3.5t38 -7.5q55 -7 115 -61q28 -26 56 -68q10 -12 16.5 -33t13.5 -52l9 -97q1 -3 1 -7v-7q0 -34 -12.5 -67.5t-35.5 -67.5q-28 -41 -60 -68l-2 -3l-28.5 -19 t-39.5 -24q-34 -14 -74 -24t-82 -17q-58 0 -102.5 12t-76.5 38q-9 5 -19.5 14.5t-26.5 22.5q-8 7 -14 14.5t-12 15.5q-19 -38 -47 -53q-52 -31 -103.5 -46.5t-100.5 -16.5q-6 0 -11.5 -0.5t-11.5 -0.5q-64 0 -107 16q-39 15 -57.5 43t-19.5 72v7q0 62 54 117q48 48 117 72 l118 37q50 16 77.5 36t34.5 41q-2 30 -16 57t-36 46.5t-50 31t-59 11.5q-139 0 -197 -173q-6 -19 -10 -43.5t-6 -57.5h-27v315h27v-106l47 41q68 59 183 61h6q108 0 170 -71q12 -14 22 -31t17 -35zM867 -427q6 -79 84 -154q25 -26 64 -41.5t88 -22.5q9 0 17 -0.5t17 -2.5 q34 0 61 6.5t45 18.5q30 19 50.5 43.5t32.5 54.5q6 15 9.5 40t3.5 57q0 12 -0.5 20.5t-2.5 13.5q-5 35 -16 62t-28 48q-12 15 -33.5 34t-50.5 43q-62 34 -118 34q-21 0 -36 -1.5t-24 -3.5q-83 -9 -132 -107q-14 -27 -21 -55.5t-9 -58.5q0 -7 -0.5 -14t-0.5 -14z" />
<glyph unicode="&#x1009;&#x1039;&#x1008;" horiz-adv-x="1314" d="M102 215q126 -141 336 -144q288 -5 429 249q63 113 63 241q0 129 -68 248t-180.5 188.5t-238.5 69.5q-113 0 -225 -53v-390h-42v574h42v-105q110 55 272 58q220 2 378.5 -163t158.5 -385q0 -244 -194 -427t-440 -189l-76 6v-737q0 -44 18.5 -74t76.5 -30h284 q105 0 204 48q8 -88 -136 -88h-643v40h78v799q0 39 -36 84q-11 13 -29 20l-32 8v152zM898 -395q0 -79 -89.5 -183t-167.5 -104q-44 0 -59 -3q-30 0 -44 4q-47 5 -95 58q-15 16 -42 54q-19 26 -19 130v59q0 131 101 227q69 64 158 81q42 6 95 9q63 2 112.5 -39t49.5 -101 v-192zM504 -587l7 -8q27 -25 36.5 -31.5t39.5 -10.5q35 0 54 3q68 0 126 86q53 78 53 157v188q0 42 -31.5 67.5t-75.5 27.5q-82 4 -137 -29q-30 -16 -59 -50q95 -43 95 -164q0 -62 -29.5 -130.5t-78.5 -105.5zM496 -215l-10 -17q-26 -43 -26 -145q0 -129 26 -181 q67 93 69 204q2 90 -59 139zM913 -590q0 -44 62 -109.5t109 -68.5q36 -3 36 58v1653q0 29 -1 46t-21 45.5t-34 28.5t-22 3v47h183v-1823q0 -139 -97 -142q-84 -2 -169 53q-65 55 -96 99z" />
<glyph unicode="&#x1020;&#x103e;" horiz-adv-x="1126" d="M485 1133q32 11 67 15.5t70 4.5q47 0 92.5 -6.5t83.5 -15.5t66.5 -18.5t42.5 -15.5v104h42v-571h-42v389q-57 25 -112 38.5t-112 13.5h-14q-91 0 -175.5 -43.5t-150 -114.5t-105 -161t-39.5 -184q0 -127 62 -240q139 -247 418 -247h10q67 2 130.5 24t124.5 67 q19 15 37 15q21 -2 31 -16t10 -44v-260h-464q-72 0 -123 -11.5t-82 -33.5q-92 -63 -92 -247v-310q0 -92 58 -92h291q126 0 183 19q122 38 122 153v8q-2 54 -21.5 96t-61.5 71l155 -11q38 -48 38 -166q0 -212 -415 -219h-505v49h55v475q0 130 94 202q85 64 221 64h443v117 q-45 -17 -90 -26t-89 -9h-6q-242 4 -438 189q-192 180 -192 413v11q3 221 159 383q25 27 49.5 47.5t51 37.5t56.5 30.5t66 25.5zM569 -192h224v-160q0 -104 -62 -224q-82 -106 -223 -109q-27 0 -44 4q-39 0 -58 42q-5 13 -7 26q0 69 78 61q31 -2 48.5 -42.5t34.5 -36.5 q89 20 117 107q18 54 18 123v74q0 39 -10 55.5t-45 32.5q-23 4 -71 8v39z" />
<glyph unicode="&#x102d;&#x103e;&#x102f;" d="M-185 -904h-37v50q-47 -24 -144 -24h-306v40h78v838h118v-734q0 -44 18.5 -74t75.5 -30h27q131 0 131 94v251h39v-411zM-945 -3h270v-471q0 -181 -79 -307q-94 -146 -264 -149q-32 0 -53 5q-47 0 -70 50q-6 16 -8 31q0 84 94 74q37 -3 58 -51.5t42 -43.5q107 24 141 129 q21 65 21 204v367q0 47 -12 66.5t-53 38.5q-29 5 -87 10v47zM-770 1491q0 52 21 107q23 87 102 165q60 61 173 95q57 18 94 15q68 -2 102 -13q63 -8 134 -71q34 -31 65 -78q19 -26 34 -97q8 -66 11 -113q3 -86 -55 -173q-32 -47 -68 -78q-26 -21 -81 -53q-40 -15 -85.5 -27 t-95.5 -20q-134 0 -207 58q-19 13 -53 42q-39 39 -55 78q-13 19 -28 71q-8 39 -8 92zM-671 1517q-2 -102 97 -199q60 -58 176 -74q18 0 39 -2q79 0 123 29q66 44 95 112q15 37 15 113q0 29 -2 39q-13 79 -53 126q-29 34 -97 89q-70 39 -136 39q-47 0 -68 -5 q-97 -13 -152 -123q-34 -68 -37 -144z" />
<glyph unicode="&#x1036;&#x103e;&#x102f;" d="M-185 -904h-37v50q-47 -24 -144 -24h-306v40h78v838h118v-734q0 -44 18.5 -74t75.5 -30h27q131 0 131 94v251h39v-411zM-945 -3h270v-471q0 -181 -79 -307q-94 -146 -264 -149q-32 0 -53 5q-47 0 -70 50q-6 16 -8 31q0 84 94 74q37 -3 58 -51.5t42 -43.5q107 24 141 129 q21 65 21 204v367q0 47 -12 66.5t-53 38.5q-29 5 -87 10v47zM-723 1472q0 113 125 184q55 31 142 34q44 3 83.5 -28.5t39.5 -79.5v-94q0 -65 -65.5 -142.5t-131.5 -77.5h-44q-45 0 -68 16q-45 29 -71 73q-8 11 -9 35.5t-4 27.5q0 37 3 52zM-621 1410q0 -79 47 -103h44 q92 0 92 158v91q0 89 -57 97q-48 0 -87 -31q-13 -13 -29 -60q-5 -32 -10 -84v-68z" />
<glyph unicode=" "  horiz-adv-x="802" />
<glyph unicode="&#x09;" horiz-adv-x="802" />
<glyph unicode="&#xa0;" horiz-adv-x="802" />
<glyph unicode="!" horiz-adv-x="560" d="M242 278q-3 267 -38.5 610t-35.5 428q0 175 31 285t79 110t80 -110.5t32 -284.5q0 -82 -36.5 -425.5t-36.5 -612.5h-75zM157 95q0 48 35.5 84t85.5 36t86.5 -36t36.5 -84q0 -50 -37.5 -87t-85.5 -37t-84.5 38t-36.5 86z" />
<glyph unicode="&#x22;" horiz-adv-x="854" d="M663 1106h-40l-83 585q0 2 -1 8q-4 28 -4 42q0 63 29 96.5t81 33.5q51 0 79.5 -33t28.5 -95q0 -18 -1 -29.5t-2 -22.5zM243 1106h-41l-82 585q-2 22 -3.5 33.5t-1.5 18.5q0 62 28.5 95t79.5 33q52 0 81 -33t29 -95q0 -11 -4 -43q-1 -7 -1 -9z" />
<glyph unicode="#" horiz-adv-x="1964" d="M896 1111l-128 -366h370l130 366h-372zM996 1864h170l-215 -603h367l215 603h168l-212 -603h393l-52 -150h-396l-128 -366h425l-55 -147h-423l-212 -601h-171l213 601h-367l-213 -601h-168l213 601h-415l55 147h412l128 366h-445l55 150h445z" />
<glyph unicode="$" horiz-adv-x="1127" d="M532 1559q-99 -9 -157 -63.5t-58 -137.5q0 -65 40 -117t175 -143v461zM623 79q142 12 227.5 96.5t85.5 212.5q0 111 -70 204.5t-243 207.5v-721zM205 828l33 -42q-31 -59 -47 -118.5t-16 -114.5q0 -166 100.5 -297.5t256.5 -168.5v776q-209 138 -279 227.5t-70 202.5 q0 123 100 222.5t249 117.5v90l91 49l2 -136q74 -4 135.5 -18t112.5 -40v165h60v-568h-60v46q0 161 -58.5 237.5t-191.5 92.5v-510q255 -155 356 -282.5t101 -283.5q0 -177 -128.5 -312t-328.5 -163v-113l-91 -50l-1 163q-219 4 -356.5 131.5t-137.5 324.5q0 110 43.5 207 t124.5 165z" />
<glyph unicode="%" horiz-adv-x="1698" d="M1521 298q0 168 -99.5 305t-218.5 137q-82 0 -132.5 -65.5t-50.5 -171.5q0 -169 100 -307t220 -138q85 0 133 64t48 176zM1271 -37q-157 0 -266 124t-109 314q0 189 106 310.5t269 121.5q155 0 264 -123.5t109 -301.5q0 -199 -103.5 -322t-269.5 -123zM1293 1638h120 l-1017 -1714h-121zM671 1073q0 166 -99.5 303t-218.5 137q-80 0 -131.5 -66t-51.5 -173q0 -169 99.5 -306t218.5 -137q84 0 133.5 64.5t49.5 177.5zM430 736q-165 0 -274 123t-109 316q0 188 105 309.5t268 121.5q153 0 264 -124t111 -302q0 -198 -102.5 -321t-262.5 -123z " />
<glyph unicode="&#x26;" horiz-adv-x="1799" d="M475 1271q-42 33 -62 75.5t-20 94.5q0 110 93.5 190t226.5 80q37 0 76.5 -10.5t86.5 -32.5v68h72v-491h-72v155q0 113 -43 175.5t-120 62.5q-67 0 -106 -40t-39 -109q0 -50 27 -93t71 -65l-16 -78q-182 -37 -283.5 -170t-101.5 -333q0 -288 183.5 -489t444.5 -201 q209 0 330.5 143t121.5 387q0 200 -97 330.5t-239 130.5q-137 0 -227 -92t-90 -233q0 -117 60.5 -206.5t133.5 -89.5q37 0 57.5 22.5t24.5 65.5l50 -5q-4 -96 -54 -151t-136 -55q-115 0 -192.5 92.5t-77.5 235.5q0 177 129.5 326.5t385.5 268.5q82 37 219 100 q352 156 352 241q0 9 -6.5 17t-17.5 13l13 69q48 -9 76.5 -45.5t28.5 -88.5q0 -133 -152 -238t-438 -168q169 -52 268.5 -180t99.5 -292q0 -291 -211 -493t-517 -202q-296 0 -496 190.5t-200 472.5q0 189 98.5 355.5t284.5 289.5z" />
<glyph unicode="'" horiz-adv-x="445" d="M243 1106h-41l-84 585q-2 10 -2.5 20.5t-0.5 29.5q0 64 27.5 97t80.5 33q52 0 81 -33t29 -95q0 -11 -4 -43q-1 -7 -1 -9z" />
<glyph unicode="(" horiz-adv-x="791" d="M728 -580q-272 50 -415 342.5t-143 803.5q0 510 143 802.5t415 342.5v-80q-184 -50 -279.5 -319.5t-95.5 -745.5q0 -478 95.5 -747.5t279.5 -316.5v-82z" />
<glyph unicode=")" horiz-adv-x="795" d="M37 1711q273 -50 415.5 -342.5t142.5 -802.5q0 -511 -142.5 -803.5t-415.5 -342.5v82q184 50 279.5 319.5t95.5 744.5t-96 745.5t-279 319.5v80z" />
<glyph unicode="*" horiz-adv-x="1096" d="M595 1268q83 -32 183 -60t218 -52l-126 -213q-97 107 -168 175.5t-127 111.5q13 -86 38.5 -185.5t62.5 -216.5h-248q42 123 66 219.5t36 182.5q-59 -45 -130 -113.5t-167 -173.5l-125 213q147 32 239.5 58t158.5 54q-86 34 -308 93q-58 15 -90 23l125 212 q83 -98 156 -169t141 -119q-13 76 -36.5 170.5t-65.5 232.5h248q-40 -114 -65 -214.5t-36 -188.5q73 60 146.5 132t148.5 156l126 -212q-163 -35 -250 -60.5t-151 -55.5z" />
<glyph unicode="+" horiz-adv-x="2205" d="M1018 1563h151v-705h690v-150h-690v-708h-151v708h-693v150h693v705z" />
<glyph unicode="," horiz-adv-x="564" d="M320 -17q-10 -1 -20.5 -2t-21.5 -1q-51 0 -86 33.5t-35 83.5q0 49 35.5 85t85.5 36q57 0 91 -45.5t34 -122.5q0 -124 -55 -205t-138 -81v68q52 23 78 59t32 92z" />
<glyph unicode="-" horiz-adv-x="742" d="M660 650v-165h-595v165h595z" />
<glyph unicode="." horiz-adv-x="550" d="M157 95q0 48 35.5 84t85.5 36t86.5 -36t36.5 -84q0 -50 -37.5 -87t-85.5 -37t-84.5 38t-36.5 86z" />
<glyph unicode="/" horiz-adv-x="714" d="M718 1711h132l-837 -1954h-121z" />
<glyph unicode="0" horiz-adv-x="1614" d="M946 92q200 0 316.5 141.5t116.5 384.5q0 162 -50 320t-141 286q-108 152 -243.5 233.5t-281.5 81.5q-197 0 -313.5 -141.5t-116.5 -382.5q0 -156 52.5 -318t144.5 -294q104 -148 239 -229.5t277 -81.5zM808 -37q-311 0 -523 245t-212 620q0 369 207.5 605.5t527.5 236.5 q309 0 521 -245.5t212 -619.5q0 -370 -206.5 -606t-526.5 -236z" />
<glyph unicode="1" horiz-adv-x="763" d="M26 0v60h257v1366q-50 -50 -104.5 -91.5t-115.5 -76.5l-37 53q121 79 209.5 169.5t142.5 189.5h99v-1382q0 -154 45.5 -189.5t210.5 -38.5v-60h-707z" />
<glyph unicode="2" horiz-adv-x="959" d="M81 0q338 445 473.5 718t135.5 490q0 158 -71 249.5t-189 91.5q-159 0 -243.5 -126t-84.5 -364q0 -40 1 -61t2 -38h-73v699h73v-248q67 124 172.5 191.5t230.5 67.5q181 0 294 -111t113 -288q0 -169 -137.5 -418.5t-437.5 -622.5h512v350h73v-580h-844z" />
<glyph unicode="3" horiz-adv-x="1071" d="M20 60q52 -28 105 -41.5t113 -13.5q205 0 372.5 187t167.5 416q0 161 -96 264t-247 103q-73 0 -138 -27.5t-132 -84.5l-29 73q74 64 212 107q49 16 68 23q90 37 139.5 104.5t49.5 150.5q0 105 -53.5 167.5t-143.5 62.5q-102 0 -171 -83.5t-69 -214.5v-13h-60v441h57v-192 q60 88 150.5 133.5t204.5 45.5q134 0 217 -79.5t83 -207.5q0 -110 -48.5 -187t-158.5 -141q183 -30 285.5 -144.5t102.5 -287.5q0 -273 -224.5 -481t-535.5 -208q-67 0 -127 13t-119 40z" />
<glyph unicode="4" horiz-adv-x="1110" d="M608 613l5 732l-433 -732h428zM721 1670h84l-22 -39v-1018h328q-58 -77 -138.5 -114.5t-189.5 -37.5v-173q0 -155 40 -191.5t168 -36.5v-60h-571v60h183l2 401h-602v59q38 27 67.5 60t54.5 78z" />
<glyph unicode="5" horiz-adv-x="1050" d="M791 1723h61v-297h-692v-498q108 104 209.5 153t207.5 49q168 0 277 -109.5t109 -278.5q0 -270 -229.5 -501t-555.5 -278v72q248 38 416.5 232.5t168.5 432.5q0 135 -77.5 220.5t-197.5 85.5q-89 0 -183 -53t-205 -167v847h691v90z" />
<glyph unicode="6" horiz-adv-x="1183" d="M888 388q0 203 -101 357t-231 154q-114 0 -184 -90.5t-70 -242.5q0 -206 103 -362.5t238 -156.5q112 0 178.5 91.5t66.5 249.5zM852 1670v-69q-247 -46 -396 -250.5t-154 -505.5q72 74 156.5 111t178.5 37q187 0 316.5 -138.5t129.5 -338.5q0 -237 -144 -395t-357 -158 q-225 0 -363 179t-138 476q0 414 225.5 720t545.5 332z" />
<glyph unicode="7" horiz-adv-x="1089" d="M100 1656h33q22 -12 43.5 -18.5t46.5 -6.5q7 0 23 1t24 1h621q17 0 40 6t48 17h39q-222 -371 -350 -745.5t-128 -619.5q0 -128 57.5 -179.5t207.5 -51.5h26v-60h-516q43 305 163.5 664t312.5 762h-631v-351h-60v581z" />
<glyph unicode="8" horiz-adv-x="1180" d="M773 978q36 38 55 87t19 106q0 147 -117 270.5t-250 123.5q-60 0 -98.5 -39.5t-38.5 -102.5q0 -94 93 -192.5t337 -252.5zM488 902q-105 -34 -164 -130t-59 -234q0 -201 111.5 -335.5t273.5 -134.5q124 0 206 88t82 222q0 139 -105.5 262.5t-344.5 261.5zM425 948 q-132 98 -187 179t-55 176q0 149 125 258t292 109q163 0 282 -114.5t119 -265.5q0 -103 -41.5 -186t-133.5 -163q139 -105 205.5 -215t66.5 -236q0 -214 -160.5 -370.5t-381.5 -156.5q-213 0 -344 131t-131 344q0 171 89.5 304.5t254.5 205.5z" />
<glyph unicode="9" horiz-adv-x="1127" d="M252 1243q0 -205 100.5 -358.5t232.5 -153.5q114 0 183.5 91t69.5 242q0 207 -103 363t-237 156q-111 0 -178.5 -92t-67.5 -248zM288 -37v69q244 41 394.5 246t158.5 508q-72 -73 -157 -111t-181 -38q-189 0 -317 141.5t-128 351.5q0 226 145 382t355 156 q227 0 365 -179.5t138 -476.5q0 -413 -226.5 -719t-546.5 -330z" />
<glyph unicode=":" horiz-adv-x="571" d="M157 795q0 49 36 86t85 37q48 0 85.5 -37t37.5 -86q0 -50 -37.5 -86t-85.5 -36q-49 0 -85 36.5t-36 85.5zM157 95q0 48 35.5 84t85.5 36t86.5 -36t36.5 -84q0 -50 -37.5 -87t-85.5 -37t-84.5 38t-36.5 86z" />
<glyph unicode=";" horiz-adv-x="592" d="M320 -17q-10 -1 -20.5 -2t-21.5 -1q-51 0 -86 33.5t-35 83.5q0 49 35.5 85t85.5 36q57 0 91 -45.5t34 -122.5q0 -124 -55 -205t-138 -81v68q52 23 78 59t32 92zM157 795q0 49 36 86t85 37q50 0 87.5 -37t37.5 -86q0 -50 -37.5 -86t-87.5 -36q-49 0 -85 36.5t-36 85.5z " />
<glyph unicode="&#x3c;" horiz-adv-x="2083" d="M1846 1466v-163l-1280 -522l1280 -519v-165l-1508 619v131z" />
<glyph unicode="=" horiz-adv-x="2139" d="M325 611h1534v-150h-1534v150zM325 1101h1534v-150h-1534v150z" />
<glyph unicode="&#x3e;" horiz-adv-x="2125" d="M338 1466l1508 -619v-131l-1508 -619v165l1280 519l-1280 522v163z" />
<glyph unicode="?" horiz-adv-x="1012" d="M328 95q0 48 35 84t85 36t86.5 -36t36.5 -84q0 -50 -37 -87t-86 -37q-46 0 -83 38t-37 86zM566 1196q7 -25 10.5 -48.5t3.5 -51.5q0 -87 -57 -143.5t-143 -56.5q-116 0 -200.5 112.5t-84.5 267.5q0 183 119.5 309t288.5 126q172 0 293.5 -122.5t121.5 -290.5 q0 -122 -56 -227.5t-246 -287.5q-89 -83 -117.5 -129.5t-28.5 -92.5q0 -37 27.5 -79.5t27.5 -64.5q0 -27 -22.5 -45.5t-57.5 -18.5q-51 0 -86.5 40.5t-35.5 99.5q0 83 143 262q36 45 56 72q104 136 147.5 239.5t43.5 207.5q0 161 -69 261.5t-174 100.5q-106 0 -171.5 -95 t-65.5 -253q0 -141 50.5 -230.5t124.5 -89.5q53 0 80.5 40t27.5 117q0 14 -8 46q-1 5 -2 9z" />
<glyph unicode="@" horiz-adv-x="2580" d="M1523 430q-79 -136 -177.5 -203t-217.5 -67q-160 0 -257.5 118t-97.5 312q0 138 63 276.5t176 247.5q84 82 185 128t198 46q112 0 183.5 -63.5t99.5 -186.5l68 230h183l-218 -780q0 -3 -1 -7q-22 -75 -22 -133q0 -60 33 -95t88 -35q43 0 100.5 22t109.5 62 q156 115 239 295.5t83 403.5q0 179 -64 322.5t-196 259.5q-115 101 -276 157t-342 56q-239 0 -437 -75t-353 -225q-166 -161 -252 -375.5t-86 -472.5q0 -224 73 -390t232 -300q146 -124 334 -187.5t410 -63.5q208 0 406 66.5t378 197.5l39 -47q-190 -140 -401 -212t-438 -72 q-239 0 -437.5 59.5t-350.5 177.5q-193 145 -293.5 351.5t-100.5 458.5q0 261 110 488t320 401q167 140 372 211.5t440 71.5q445 0 709 -239.5t264 -639.5q0 -200 -74 -379.5t-209 -302.5q-73 -66 -158 -102t-172 -36q-124 0 -190.5 67t-74.5 203zM1405 1235 q-69 0 -126.5 -39.5t-117.5 -127.5q-92 -139 -146.5 -300t-54.5 -288q0 -119 52 -188t139 -69q84 0 161 57t148 171q73 120 116.5 259t43.5 253q0 119 -60.5 195.5t-154.5 76.5z" />
<glyph unicode="A" horiz-adv-x="1169" d="M425 1111h178l-87 317zM-102 0v73h137l495 1638h88l450 -1501q20 -70 54 -103.5t86 -33.5h37v-73h-529v73h165l-260 965h-220l-226 -753v-2q-18 -67 -18 -88q0 -59 38 -90.5t110 -31.5h70v-73h-477z" />
<glyph unicode="B" horiz-adv-x="1376" d="M430 95q31 -11 72.5 -16.5t90.5 -5.5q230 0 367.5 144t137.5 383q0 238 -142 380.5t-379 142.5h-147v-1028zM430 1196h202q99 0 161 56t62 148q0 98 -65.5 155.5t-178.5 57.5q-32 -1 -77.5 -7t-103.5 -18v-392zM32 0v73h175v1373q0 93 -26 124t-103 31h-46v75h330 q76 0 179.5 6t131.5 6q169 0 268.5 -76.5t99.5 -203.5q0 -111 -65 -174.5t-198 -85.5q251 -22 397 -164.5t146 -365.5q0 -284 -180.5 -451t-487.5 -167h-621z" />
<glyph unicode="C" horiz-adv-x="1628" d="M1541 268l65 -76q-129 -114 -285 -171.5t-338 -57.5q-395 0 -650 247.5t-255 627.5q0 364 257.5 618.5t629.5 254.5q127 0 251.5 -34.5t251.5 -103.5v168h73v-666h-73v105q0 201 -153 324.5t-397 123.5q-284 0 -452 -182.5t-168 -494.5q0 -177 54 -336t156 -285 q113 -139 248 -208.5t297 -69.5q140 0 259 52.5t229 163.5z" />
<glyph unicode="D" horiz-adv-x="1789" d="M430 118q81 -28 155 -43t143 -15q315 0 520 216.5t205 551.5q0 336 -208 561.5t-517 225.5q-65 0 -139 -15t-159 -46v-1436zM32 0v73h175v1373q0 93 -26 124t-103 31h-46v75h330q81 0 226 6t209 6q390 0 640.5 -233.5t250.5 -594.5q0 -375 -270.5 -624t-684.5 -249 q-55 0 -188 6.5t-210 6.5h-303z" />
<glyph unicode="E" horiz-adv-x="1068" d="M899 1676v110h79v-588h-79v108q0 160 -78.5 227.5t-262.5 67.5h-128v-405h205v230h78v-593h-78v121q0 80 -40.5 124.5t-111.5 44.5h-53v-1050h145q171 0 247.5 73.5t76.5 238.5v118h79v-626h-79v123h-867v73h175v1373q0 93 -26 124t-103 31h-46v75h867z" />
<glyph unicode="F" horiz-adv-x="1085" d="M207 1446q0 93 -26 124t-103 31h-46v75h867v110h79v-588h-79v108q0 160 -78.5 227.5t-262.5 67.5h-128v-405h205v230h78v-593h-78v121q0 80 -40.5 124.5t-111.5 44.5h-53v-895q0 -91 26.5 -123t101.5 -32h79v-73h-605v73h175v1373z" />
<glyph unicode="G" horiz-adv-x="1810" d="M1153 558h656v-73h-171v-157q0 -41 8.5 -69.5t26.5 -51.5q-151 -116 -331.5 -180t-358.5 -64q-395 0 -650 247.5t-255 627.5q0 364 257.5 618.5t629.5 254.5q127 0 251.5 -34.5t251.5 -103.5v168h73v-643h-73v82q0 199 -155 323.5t-395 124.5q-284 0 -452 -181.5 t-168 -495.5q0 -175 54 -334t156 -287q113 -139 247.5 -208.5t292.5 -69.5q116 0 217.5 33.5t155.5 87.5v187q0 70 -32 97.5t-115 27.5h-121v73z" />
<glyph unicode="H" horiz-adv-x="1341" d="M207 73v1373q0 93 -26 124t-103 31h-46v75h573v-75h-175v-405h478v250q0 91 -28 123t-104 32h-45v75h575v-75h-176v-1373q0 -94 25.5 -124.5t100.5 -30.5h50v-73h-575v73h177v1050h-478v-895q0 -91 26.5 -123t101.5 -32h47v-73h-573v73h175z" />
<glyph unicode="I" horiz-adv-x="641" d="M40 0v73h178v1373q0 93 -26.5 124t-101.5 31h-50v75h576v-75h-176v-1373q0 -94 26 -124.5t100 -30.5h50v-73h-576z" />
<glyph unicode="J" horiz-adv-x="1050" d="M844 483q0 -253 -123 -386.5t-356 -133.5q-173 0 -290 93.5t-117 223.5q0 100 64.5 180t182.5 125l25 -47q-46 -49 -68 -103.5t-22 -117.5q0 -121 67 -198t173 -77q127 0 184 84.5t57 279.5v1040q0 91 -27 123t-104 32h-107v75h637v-75h-176v-1118z" />
<glyph unicode="K" horiz-adv-x="1243" d="M32 0v73h175v1373q0 93 -26 124t-103 31h-46v75h573v-75h-175v-660l398 530q19 27 29.5 48t10.5 35q0 23 -20 35t-57 12h-33v75h443v-75h-181l-390 -518l489 -865q43 -75 92.5 -110t112.5 -35h65v-73h-561v73h123l-461 832l-60 -87v-590q0 -91 26.5 -123t101.5 -32h47 v-73h-573z" />
<glyph unicode="L" horiz-adv-x="970" d="M605 1676v-75h-175v-1528h92q173 0 247.5 75t74.5 253v315h79v-839h-79v123h-812v73h175v1373q0 93 -26 124t-103 31h-46v75h573z" />
<glyph unicode="M" horiz-adv-x="1484" d="M207 73v1373q0 93 -26 124t-103 31h-46v75h429l267 -790l297 790h425v-75h-176v-1373q0 -91 26.5 -123t102.5 -32h47v-73h-564v73h175l14 1528l-415 -1113l-382 1113v-1373q0 -91 26 -123t102 -32h50v-73h-424v73h175z" />
<glyph unicode="N" horiz-adv-x="1302" d="M207 73v1373q0 93 -26 124t-103 31h-46v75h285l698 -1259v1029q0 93 -27 124t-102 31h-50v75h425v-75h-176v-1638h-70l-737 1327v-1062q0 -91 26 -123t102 -32h50v-73h-424v73h175z" />
<glyph unicode="O" horiz-adv-x="1978" d="M1056 52q278 0 451.5 179.5t173.5 466.5q0 172 -57 333t-166 295q-122 149 -266 223t-314 74q-258 0 -419 -184.5t-161 -487.5q0 -177 54 -336t156 -285q114 -142 248.5 -210t299.5 -68zM983 -37q-394 0 -649.5 247.5t-255.5 627.5q0 365 259 619t636 254q386 0 653 -255 t267 -618q0 -372 -259 -623.5t-651 -251.5z" />
<glyph unicode="P" horiz-adv-x="1649" d="M430 582q100 -94 211.5 -143t226.5 -49q228 0 366.5 152t138.5 404q0 267 -173 465t-409 198q-100 0 -191.5 -39t-169.5 -115v-873zM32 0v73h175v1373q0 93 -26 124t-103 31h-46v75h398v-108q110 73 219 108t227 35q295 0 501 -201.5t206 -494.5q0 -301 -211.5 -503 t-527.5 -202q-105 0 -207 26t-207 81v-189q0 -91 26.5 -123t101.5 -32h110v-73h-636z" />
<glyph unicode="Q" horiz-adv-x="1957" d="M1411 152q131 86 200.5 226t69.5 320q0 172 -57 333t-166 295q-120 147 -264 220.5t-316 73.5q-258 0 -419 -183.5t-161 -485.5q0 -291 139.5 -523.5t375.5 -332.5v13q0 52 45.5 81t129.5 29q63 0 155.5 -14.5t267.5 -51.5zM1434 70q-96 -53 -207 -80t-244 -27 q-395 0 -650 247.5t-255 627.5q0 365 259 619t636 254q388 0 654 -254.5t266 -618.5q0 -222 -97 -408t-278 -307q567 -163 893 -223t593 -60q95 0 175.5 7t152.5 22l23 -42q-164 -64 -310 -96.5t-271 -32.5q-263 0 -869 215q-301 106 -471 157zM881 76q41 -13 79 -19.5 t81 -6.5q67 0 135.5 13t139.5 39q-69 20 -133 30t-124 10q-63 0 -105.5 -16t-72.5 -50z" />
<glyph unicode="R" horiz-adv-x="1670" d="M430 1455v-965l55 87q137 -91 232 -128t182 -37q206 0 340 146.5t134 379.5q0 273 -172.5 472t-409.5 199q-100 0 -191.5 -39t-169.5 -115zM32 0v73h175v1373q0 93 -26 124t-103 31h-46v75h398v-108q110 73 219 108t227 35q291 0 499 -201t208 -477q0 -297 -183 -488.5 t-485 -209.5l341 -178q70 -37 139 -56.5t131 -19.5q33 0 62 5.5t56 15.5l34 -50q-56 -35 -117.5 -52.5t-132.5 -17.5q-143 0 -337.5 80t-660.5 358v-192q0 -91 26.5 -123t101.5 -32h110v-73h-636z" />
<glyph unicode="S" horiz-adv-x="1355" d="M941 1158v178q0 145 -57 220t-168 75q-93 0 -155.5 -57.5t-62.5 -142.5q0 -79 59.5 -144t246.5 -167q20 -12 59 -32q461 -248 461 -532q0 -267 -187 -430t-497 -163q-262 0 -435 145t-173 359q0 186 118 309t295 123q153 0 259 -81.5t106 -196.5q0 -86 -55 -136t-150 -50 q-29 0 -48 4.5t-35 13.5l3 45q63 2 103 46t40 109q0 77 -60 126t-155 49q-125 0 -209 -92t-84 -233q0 -188 153 -323t368 -135q206 0 341.5 123t135.5 307q0 113 -63 192t-275 198l-69 39q-386 217 -386 444q0 152 105.5 257.5t255.5 105.5q59 0 108.5 -14t106.5 -46v127h74 v-620h-74z" />
<glyph unicode="T" horiz-adv-x="1194" d="M307 0v73h178v1528h-68q-148 0 -218.5 -85t-70.5 -265v-223h-73v763h73v-115h933v115h74v-763h-74v223q0 180 -69.5 265t-218.5 85h-65v-1373q0 -94 25.5 -124.5t99.5 -30.5h115v-73h-641z" />
<glyph unicode="U" horiz-adv-x="1243" d="M207 1446q0 93 -26 124t-103 31h-46v75h573v-75h-175v-1241q0 -131 70 -199.5t203 -68.5q134 0 200.5 80.5t66.5 247.5v1026q0 94 -25.5 124.5t-100.5 30.5h-49v75h424v-75h-176v-1216q0 -203 -107.5 -312.5t-305.5 -109.5q-209 0 -316 114t-107 335v1034z" />
<glyph unicode="V" horiz-adv-x="1334" d="M1306 1676v-75h-158l-493 -1638h-92l-448 1503q-19 69 -54 102t-87 33h-52v75h561v-75h-178l373 -1303l331 1091q7 24 11.5 49t4.5 46q0 57 -37.5 87t-109.5 30h-47v75h475z" />
<glyph unicode="W" horiz-adv-x="1775" d="M632 1466q-20 69 -54.5 102t-87.5 33h-13v75h416v-75h-85l133 -495l95 283q7 25 11 49t4 46q0 47 -27 77.5t-77 39.5l-1 75h385v-75h-151l-202 -610l215 -726l358 1124q9 25 13 49t4 46q0 57 -38 87t-109 30h-30v75h457v-75h-152l-525 -1638h-91l-207 695l-218 -695h-92 l-448 1503q-19 69 -54 102t-87 33h-79v75h517v-75h-116l380 -1336l160 500z" />
<glyph unicode="X" horiz-adv-x="1257" d="M288 338q-26 -50 -38 -88.5t-12 -71.5q0 -49 32 -77t90 -28h65v-73h-509v73h157l452 878l-252 533q-32 66 -72.5 91.5t-105.5 25.5h-63v75h526v-75h-107l197 -411l149 299q8 16 13 34t5 28q0 25 -21 37.5t-61 12.5h-38v75h416v-75h-175l-249 -490l429 -886 q48 -94 92 -123t123 -29h40v-73h-568v73h148l-385 803z" />
<glyph unicode="Y" horiz-adv-x="1134" d="M721 228q0 -91 26 -123t103 -32h83v-73h-637v73h202v771l-356 632q-40 69 -84 97t-110 28h-40v75h555v-75h-138l360 -670l233 512q9 20 13.5 39t4.5 41q0 36 -29 57t-79 21h-42v75h433v-75h-149l-349 -757v-616z" />
<glyph unicode="Z" horiz-adv-x="1057" d="M293 73h325q172 0 247.5 73t75.5 239v231h79v-739h-79v123h-904l644 1601h-149q-183 0 -260 -67t-77 -228v-135h-80v615h80v-110h751z" />
<glyph unicode="[" horiz-adv-x="784" d="M173 1676h553v-75h-369v-2086h369v-73h-553v2234z" />
<glyph unicode="\" horiz-adv-x="886" d="M808 -243l-837 1954h131l823 -1954h-117z" />
<glyph unicode="]" horiz-adv-x="816" d="M593 -558h-553v73h368v2086h-368v75h553v-2234z" />
<glyph unicode="^" horiz-adv-x="2629" d="M1196 1871h227l666 -723h-118l-663 558l-665 -558h-116z" />
<glyph unicode="_" horiz-adv-x="1316" d="M0 -467h1311v-151h-1311v151z" />
<glyph unicode="`" horiz-adv-x="1215" d="M535 1651l248 -393h-52l-278 302q-25 26 -36 45t-11 41q0 28 16.5 48t38.5 20q19 0 35.5 -14t38.5 -49z" />
<glyph unicode="a" horiz-adv-x="991" d="M660 200v325q-66 70 -124.5 102.5t-115.5 32.5q-100 0 -162.5 -69.5t-62.5 -182.5q0 -144 77 -247t186 -103q67 0 120.5 37t81.5 105zM844 212q0 -85 24.5 -121t79.5 -36h40v-55h-328v105q-49 -65 -117 -99.5t-150 -34.5q-150 0 -246.5 99.5t-96.5 254.5q0 156 119 276 t271 120q59 0 114 -17.5t106 -53.5v191q0 107 -50.5 162.5t-146.5 55.5q-115 0 -192.5 -100t-92.5 -272h-47v496h47v-205q73 70 149.5 104t162.5 34q162 0 258 -95.5t96 -260.5v-548z" />
<glyph unicode="b" horiz-adv-x="1383" d="M340 163q79 -54 153.5 -79.5t154.5 -25.5q208 0 344 158t136 405q0 196 -115.5 318t-299.5 122q-115 0 -217.5 -57.5t-155.5 -151.5v-689zM60 0v55h97v1544l-81 -76l-36 40l320 301l36 -40l-56 -52v-786q75 65 167.5 97.5t205.5 32.5q252 0 422.5 -168t170.5 -421 q0 -238 -168.5 -397t-421.5 -159q-100 0 -192.5 32.5t-183.5 98.5v-102h-280z" />
<glyph unicode="c" horiz-adv-x="1075" d="M978 563h-55v380q-67 48 -137 71.5t-143 23.5q-196 0 -316 -114.5t-120 -300.5q0 -215 151 -381t347 -166q91 0 177 33.5t161 100.5l32 -45q-103 -97 -223.5 -145.5t-258.5 -48.5q-232 0 -380 151.5t-148 388.5q0 260 189.5 432.5t473.5 172.5q53 0 102 -8t93 -25v100h55 v-620z" />
<glyph unicode="d" horiz-adv-x="1313" d="M1033 852q-53 94 -154.5 151.5t-218.5 57.5q-184 0 -300.5 -123t-116.5 -317q0 -247 136 -405t344 -158q81 0 157 25.5t153 79.5v689zM1033 1599l-85 -76l-35 40l320 301l35 -40l-55 -52v-1560q0 -85 25 -121t80 -36h43v-55h-328v102q-91 -66 -184.5 -98.5t-193.5 -32.5 q-253 0 -421.5 159t-168.5 397q0 254 171 421.5t424 167.5q120 0 212.5 -32t160.5 -98v613z" />
<glyph unicode="e" horiz-adv-x="1285" d="M1221 338q-100 -181 -245 -274t-326 -93q-261 0 -423 153.5t-162 397.5q0 256 181.5 425t456.5 169q176 0 310 -84t217 -246h-1000q-10 -47 -14 -78.5t-4 -57.5q0 -233 147.5 -401t353.5 -168q145 0 261.5 71.5t196.5 212.5zM252 833h739q-66 98 -163.5 149t-219.5 51 q-124 0 -216 -52t-140 -148z" />
<glyph unicode="f" horiz-adv-x="812" d="M328 212q0 -85 25 -121t80 -36h75v-55h-458v55h97v988h-100v50h100v307q0 199 117 325t289 126q42 0 84.5 -9t90.5 -28v74h55v-430h-55v206q-48 64 -101.5 94t-115.5 30q-92 0 -137.5 -73t-45.5 -219v-403h185v-50h-185v-831z" />
<glyph unicode="g" horiz-adv-x="1022" d="M963 -307q0 193 -161 336.5t-374 143.5q-159 0 -258.5 -89.5t-99.5 -233.5q0 -196 159.5 -343t373.5 -147q164 0 262 91t98 242zM561 527q80 0 127.5 49.5t47.5 133.5q0 136 -79.5 237t-186.5 101q-78 0 -126 -54t-48 -144q0 -126 82.5 -224.5t182.5 -98.5zM385 458 q-102 31 -162 110.5t-60 186.5q0 154 106 257.5t263 103.5q79 0 146.5 -27.5t118.5 -79.5q31 20 47 50t16 71q0 22 -18 82q0 1 -1 4l61 19q14 -33 21.5 -62t7.5 -59q0 -43 -22.5 -87t-63.5 -85q11 -34 17 -68t6 -66q0 -122 -64.5 -208.5t-185.5 -127.5q-28 -10 -84 -24 q-119 -28 -119 -83q0 -53 119 -73q47 -8 74 -14q227 -50 336 -168.5t109 -314.5q0 -234 -156 -391t-389 -157q-237 0 -388.5 139t-151.5 352q0 169 89.5 303t249.5 206q-16 19 -24 37.5t-8 38.5q0 34 25.5 66t84.5 69z" />
<glyph unicode="h" horiz-adv-x="1029" d="M678 836q0 97 -37 147t-109 50q-67 0 -116 -32t-76 -93v-696q0 -85 25 -121t80 -36h40v-55h-425v55h97v1544l-81 -76l-36 40l320 301l36 -40l-56 -52v-757q68 54 133 77.5t140 23.5q120 0 185 -71t65 -207v-626q0 -85 24 -121t81 -36h38v-55h-424v55h96v781z" />
<glyph unicode="i" horiz-adv-x="546" d="M140 1516q0 39 30 69t71 30q42 0 70.5 -29.5t28.5 -69.5q0 -41 -30 -72t-69 -31t-70 31.5t-31 71.5zM340 212q0 -85 25 -121t80 -36h40v-55h-425v55h97v836l-81 -76l-36 37l320 301l36 -39l-56 -53v-849z" />
<glyph unicode="j" horiz-adv-x="462" d="M152 1516q0 39 29.5 69t70.5 30t70 -29.5t29 -69.5q0 -41 -29.5 -72t-69.5 -31t-70 31.5t-30 71.5zM351 -37q0 -261 -116.5 -434.5t-271.5 -173.5q-78 0 -132 41.5t-54 97.5q0 31 22 62.5t38 31.5q17 0 48 -85t107 -85q77 0 126.5 87.5t49.5 229.5q0 5 1 39t1 63v1054 l-80 -76l-40 37l320 301l38 -39l-57 -53v-1098z" />
<glyph unicode="k" horiz-adv-x="1008" d="M330 1761v-1063l305 340h-113v55h380v-55h-107l-360 -340l478 -585q23 -27 58.5 -42.5t76.5 -15.5v-55h-280l-438 580v-368q0 -85 25 -121t80 -36h42v-55h-417v55h97v1544l-81 -76l-36 40l320 301l36 -40z" />
<glyph unicode="l" horiz-adv-x="476" d="M60 0v55h97v1544l-81 -76l-36 40l311 301l39 -40l-57 -52v-1560q0 -85 25 -121t80 -36h42v-55h-420z" />
<glyph unicode="m" horiz-adv-x="1365" d="M340 1001q71 59 130 87t110 28q73 0 121 -30t80 -98q68 64 131 96t121 32q106 0 162 -71t56 -207v-626q0 -85 24 -121t81 -36h39v-55h-399v55h72v803q0 83 -27 122.5t-84 39.5q-43 0 -86 -27t-76 -75v-706q0 -85 24.5 -121t79.5 -36h21v-55h-380v55h73v803 q0 82 -27.5 122t-85.5 40q-42 0 -83.5 -27t-76.5 -75v-706q0 -85 25 -121t80 -36h18v-55h-403v55h97v836l-81 -76l-36 37l320 301l36 -39l-56 -53v-60z" />
<glyph unicode="n" horiz-adv-x="973" d="M340 212q0 -85 25 -121t80 -36h40v-55h-425v55h97v836l-81 -76l-36 37l320 301l36 -39l-56 -53v-96q72 78 138.5 114.5t134.5 36.5q120 0 185 -71.5t65 -206.5v-626q0 -85 24 -121t81 -36h38v-55h-424v55h96v783q0 93 -35.5 137.5t-110.5 44.5q-62 0 -114.5 -47.5 t-77.5 -125.5v-635z" />
<glyph unicode="o" horiz-adv-x="1320" d="M575 1041q-165 0 -262.5 -102t-97.5 -273q0 -238 162.5 -428.5t372.5 -190.5q163 0 259.5 103t96.5 275q0 237 -162.5 426.5t-368.5 189.5zM658 1116q262 0 430 -160t168 -403q0 -256 -166.5 -419t-423.5 -163q-262 0 -431.5 160.5t-169.5 403.5q0 255 168 418t425 163z " />
<glyph unicode="p" horiz-adv-x="1369" d="M340 238q54 -95 155 -153.5t218 -58.5q184 0 299.5 122.5t115.5 318.5q0 242 -136 402.5t-334 160.5q-90 0 -163.5 -23.5t-154.5 -78.5v-690zM60 -668v55h97v1504l-81 -76l-36 37l320 301l36 -39l-56 -53v-75q91 66 183.5 98t192.5 32q252 0 421 -158.5t169 -396.5 q0 -255 -170 -422.5t-423 -167.5q-119 0 -212 33t-161 98v-555q0 -85 26 -122.5t79 -37.5h77v-55h-462z" />
<glyph unicode="q" horiz-adv-x="1404" d="M1033 1093h328v-55h-43q-53 0 -79 -37.5t-26 -122.5v-1331q0 -85 26 -122.5t79 -37.5h43v-55h-328v770q-91 -66 -184.5 -98.5t-193.5 -32.5q-253 0 -421.5 159t-168.5 397q0 254 171 421.5t424 167.5q120 0 212.5 -32t160.5 -98v107zM1033 852q-53 94 -154.5 151.5 t-218.5 57.5q-184 0 -300.5 -123t-116.5 -317q0 -247 136 -405t344 -158q81 0 157 25.5t153 79.5v689z" />
<glyph unicode="r" horiz-adv-x="837" d="M340 978q72 73 131.5 105.5t121.5 32.5q30 0 57.5 -8t54.5 -25v100h53v-467h-53v107q0 88 -49 144t-124 56q-55 0 -103.5 -32t-88.5 -95v-684q0 -85 25 -121t80 -36h40v-55h-425v55h97v836l-81 -76l-36 37l320 301l36 -39l-56 -53v-83z" />
<glyph unicode="s" horiz-adv-x="924" d="M736 1171v-418h-55v83q0 98 -58.5 160.5t-145.5 62.5q-75 0 -125 -42t-50 -104q0 -52 43.5 -91t179.5 -94q251 -105 317 -181t66 -199q0 -157 -132.5 -267t-327.5 -110q-192 0 -313.5 96t-121.5 243q0 102 71.5 172.5t175.5 70.5q80 0 135.5 -44t55.5 -108q0 -53 -35 -93 t-81 -40q-20 0 -35 12t-15 27q0 8 11 38t11 53q0 27 -28 49.5t-64 22.5q-63 0 -101 -40t-38 -105q0 -114 115.5 -202t271.5 -88q141 0 227 69.5t86 180.5q0 81 -50 133.5t-251 139.5q-191 78 -246.5 139.5t-55.5 157.5q0 111 81 186t202 75q55 0 112.5 -17t112.5 -51v123h55 z" />
<glyph unicode="t" horiz-adv-x="784" d="M133 1043h-96l-11 50h107v343l182 177v-520h225v-50h-225v-805q0 -101 43 -153.5t125 -52.5q58 0 105 25.5t78 75.5q6 12 16 33q28 62 60 62q16 0 25 -11t9 -29q0 -65 -97.5 -141t-220.5 -76q-146 0 -235.5 91.5t-89.5 242.5v738z" />
<glyph unicode="u" horiz-adv-x="956" d="M655 878q0 85 -25 122.5t-80 37.5h-65v55h351v-881q0 -85 25 -121t80 -36h42v-55h-328v125q-66 -74 -135 -111t-140 -37q-119 0 -183 71.5t-64 206.5v623q0 85 -25 122.5t-79 37.5h-66v55h352v-841q0 -87 37 -133t106 -46q67 0 119.5 46t77.5 128v631z" />
<glyph unicode="v" horiz-adv-x="917" d="M443 0l-348 905q-26 64 -65.5 95.5t-102.5 37.5v55h424v-55h-123l307 -836l215 721q1 4 4 13q9 29 9 47q0 23 -19.5 39t-45.5 16h-66v55h333v-55h-95l-345 -1038h-82z" />
<glyph unicode="w" horiz-adv-x="1295" d="M818 0l-158 420l-135 -420h-82l-348 905q-26 64 -65.5 95.5t-102.5 37.5v55h341v-55h-50l309 -863l103 313l-155 417q-22 58 -59.5 90.5t-95.5 42.5v55h275v-55l105 -322l63 207q6 18 9.5 32.5t3.5 30.5q0 21 -22 36.5t-54 15.5h-32v55h297v-55h-95l-137 -398l172 -465 l225 743q4 15 6 28.5t2 23.5q0 32 -19 50t-51 18h-48v55h323v-55h-95l-346 -1038h-84z" />
<glyph unicode="x" horiz-adv-x="1008" d="M733 55l-303 445l-205 -300q-11 -17 -17 -35.5t-6 -39.5q0 -33 22 -51.5t61 -18.5h40v-55h-422v55h160l330 485l-273 403q-1 3 -2 5q-60 85 -136 90v55h435v-55h-149l230 -340l134 195q14 21 22.5 42.5t8.5 37.5q0 29 -21.5 47t-59.5 18h-47v55h416v-55h-151l-265 -383 l338 -495q38 -56 71.5 -80.5t70.5 -24.5h53v-55h-486v55h151z" />
<glyph unicode="y" horiz-adv-x="917" d="M841 1038l-306 -838q-163 -451 -332.5 -674.5t-354.5 -233.5l-16 270h60q11 -37 39 -56t72 -19q88 0 186.5 137.5t253.5 488.5l-320 792q-31 77 -67.5 105t-105.5 28h-42v55h485v-55h-136l268 -708l125 360q27 79 43.5 151.5t16.5 104.5q0 50 -22 71t-75 21h-18v55h370 v-55h-124z" />
<glyph unicode="z" horiz-adv-x="1005" d="M13 0l685 1015h-305q-143 0 -194.5 -48t-51.5 -179v-101h-55v496h55v-90h786l-686 -1015h351q162 0 212 50.5t50 199.5v120h53v-563h-53v115h-847z" />
<glyph unicode="{" horiz-adv-x="1327" d="M1083 1940v-65q-182 -2 -248.5 -70.5t-66.5 -268.5v-183q0 -289 -78 -395t-289 -145q211 -40 289 -145.5t78 -394.5v-183q0 -200 66 -267t249 -70v-65h-13q-278 0 -381.5 94t-103.5 349v272q0 202 -75.5 279t-284.5 94v76q211 20 285.5 95.5t74.5 276.5v272 q0 256 103.5 350t381.5 94h13z" />
<glyph unicode="|" horiz-adv-x="1313" d="M575 2003h161v-2621h-161v2621z" />
<glyph unicode="}" horiz-adv-x="1404" d="M228 1940h13q276 0 380.5 -94.5t104.5 -349.5v-272q0 -201 74 -276.5t285 -95.5v-76q-208 -17 -283.5 -94t-75.5 -279v-272q0 -254 -104.5 -348.5t-380.5 -94.5h-13v65q183 3 249 70t66 267v183q0 289 78 394.5t289 145.5q-211 39 -289 145t-78 395v183 q0 200 -66.5 268.5t-248.5 70.5v65z" />
<glyph unicode="~" horiz-adv-x="2163" d="M1958 970v-167q-129 -93 -252.5 -139t-242.5 -46q-55 0 -116 11.5t-128 33.5q-39 13 -112 40q-258 92 -386 92q-107 0 -222.5 -48t-270.5 -157v170q134 94 258.5 140t236.5 46q72 0 149.5 -16t223.5 -67q15 -5 44 -17q210 -75 326 -75q108 0 224.5 46.5t267.5 152.5z" />
<glyph unicode="&#xa1;" horiz-adv-x="561" d="M401 1588q0 -49 -36 -84.5t-87 -35.5t-86 34.5t-35 85.5q0 50 36 86.5t85 36.5q47 0 85 -37.5t38 -85.5zM317 1405q0 -268 36.5 -610.5t36.5 -424.5q0 -175 -32 -287t-80 -112t-79 111t-31 288q0 84 35.5 426t38.5 609h75z" />
<glyph unicode="&#xa2;" horiz-adv-x="1104" d="M996 828h-55v368q-64 44 -134 68t-139 24q-193 0 -303 -107t-110 -295q0 -206 144.5 -367.5t331.5 -161.5q86 0 167 32.5t155 98.5l43 -58q-92 -88 -200.5 -136t-237.5 -58v-259h-60v259q-231 7 -371 156t-140 384q0 219 137.5 378t373.5 214v265h60v-252h34 q81 0 143 -8.5t106 -24.5v98h55v-618z" />
<glyph unicode="&#xa3;" horiz-adv-x="1238" d="M1004 1549v115h60v-623h-60v37q0 243 -92.5 380.5t-251.5 137.5q-142 0 -227 -100t-85 -272q0 -101 37 -296q9 -49 13 -73h312v-60h-293q2 -12 4 -32q12 -97 12 -137q0 -129 -47.5 -242t-152.5 -232q139 53 211 69.5t131 16.5q93 0 239 -51t204 -51q39 0 81.5 13.5 t93.5 42.5l31 -52q-107 -94 -197 -135.5t-180 -41.5q-71 0 -238 48.5t-271 48.5q-69 0 -132 -18.5t-141 -61.5l-47 65q114 93 164.5 199.5t50.5 250.5q0 57 -10.5 126t-34.5 174h-188v60h178q-19 76 -28.5 144.5t-9.5 128.5q0 240 140 390t365 150q100 0 192 -31t167 -88z " />
<glyph unicode="&#xa5;" horiz-adv-x="1171" d="M323 0v73h199v730l-9 20h-421v85h371l-96 162h-275v83h225l-149 281q-37 69 -82 97.5t-112 28.5h-39v73h532v-73h-139l357 -672l233 512q9 21 13.5 39.5t4.5 38.5q0 38 -29 60t-79 22h-42v73h433v-73h-149l-189 -407h247v-83h-287l-73 -162h360v-85h-397l-10 -20v-575 q0 -91 26 -123t103 -32h83v-73h-610z" />
<glyph unicode="&#xa7;" horiz-adv-x="1100" d="M860 1699h71v-365h-71q-8 157 -79 233.5t-206 76.5q-151 0 -245 -72t-94 -183q0 -183 339 -289q48 -17 75 -25q238 -78 326 -165.5t88 -231.5q0 -138 -81 -232.5t-233 -133.5q132 -51 202.5 -145.5t70.5 -221.5q0 -195 -136.5 -319t-346.5 -124q-110 0 -206.5 28 t-186.5 87v-97h-77v425h77v-23q0 -164 101 -259.5t274 -95.5q155 0 257 90.5t102 224.5q0 112 -70 178.5t-259 125.5q-23 7 -66 20q-446 136 -446 407q0 143 87 236t256 129q-158 54 -228.5 134.5t-70.5 205.5q0 178 134 285.5t357 107.5q70 0 143.5 -16.5t141.5 -48.5v53z M687 372q109 0 182.5 70t73.5 169q0 62 -35.5 111.5t-110.5 87.5q-85 44 -191.5 73.5t-172.5 29.5q-118 0 -195.5 -67.5t-77.5 -167.5q0 -69 35 -115.5t117 -82.5q107 -49 213 -78.5t162 -29.5z" />
<glyph unicode="&#xa8;" horiz-adv-x="1305" d="M878 1571q45 0 79 -34t34 -79q0 -49 -32 -81t-81 -32t-81 32t-32 81q0 45 34 79t79 34zM433 1571q44 0 78 -34t34 -79q0 -47 -32.5 -80t-79.5 -33q-49 0 -81 31.5t-32 81.5q0 45 34 79t79 34z" />
<glyph unicode="&#xa9;" horiz-adv-x="2141" d="M1434 1403h44l3 -402h-53q-43 175 -132.5 263.5t-225.5 88.5q-157 0 -237 -121t-80 -356q0 -242 85.5 -365t254.5 -123q110 0 199.5 55t162.5 168l44 -31q-74 -135 -183 -201.5t-255 -66.5q-214 0 -365 157.5t-151 380.5q0 238 148.5 399.5t365.5 161.5q94 0 189 -43.5 t105 -43.5q35 0 54 18.5t27 60.5zM1080 1668q-157 0 -303.5 -62t-256.5 -175q-113 -114 -172.5 -259t-59.5 -304q0 -160 60 -305.5t174 -257.5q113 -114 254.5 -173t301.5 -59q161 0 302.5 59t252.5 173q113 115 173 259.5t60 303.5t-60.5 308t-169.5 258 q-110 111 -256.5 172.5t-299.5 61.5zM1080 1769q176 0 341.5 -68.5t289.5 -192.5q126 -124 195.5 -292.5t69.5 -347.5t-67.5 -343t-197.5 -295q-125 -128 -287.5 -195t-345.5 -67t-344.5 67t-290.5 195t-197 291t-68 347q0 179 68 343.5t194 293.5q126 127 292.5 195.5 t347.5 68.5z" />
<glyph unicode="&#xab;" horiz-adv-x="903" d="M703 128l-302 407l302 408h170l-343 -408l343 -407h-170zM367 128l-302 407l302 408h171l-343 -408l343 -407h-171z" />
<glyph unicode="&#xac;" horiz-adv-x="2091" d="M325 1098h1534v-642h-148v492h-1386v150z" />
<glyph unicode="&#xae;" horiz-adv-x="2090" d="M933 920q21 -1 41.5 -1.5t43.5 -0.5q143 0 221.5 58t78.5 164q0 94 -67.5 151t-182.5 57q-67 0 -101 -24t-34 -68v-336zM600 1398h503q189 0 298 -70t109 -188q0 -97 -89 -158.5t-278 -95.5q119 -37 182 -99.5t91 -170.5q7 -28 14 -81q16 -113 75 -113q41 0 63.5 43.5 t22.5 127.5h55v-16q0 -112 -52 -170.5t-153 -58.5q-59 0 -100.5 22t-61.5 63q-23 51 -27 145t-12 122q-25 87 -90 128.5t-175 41.5h-42v-317q0 -69 34 -96.5t126 -32.5v-52h-493v52q92 4 127.5 31.5t35.5 97.5v660q0 71 -33.5 98t-129.5 32v55zM1080 1668q-156 0 -302 -61.5 t-258 -175.5q-113 -114 -172.5 -259t-59.5 -304q0 -163 59.5 -306t174.5 -257q113 -114 254.5 -173t301.5 -59q161 0 302.5 59t252.5 173q113 115 173 259.5t60 303.5t-60.5 309t-169.5 257q-110 111 -256.5 172.5t-299.5 61.5zM1080 1769q177 0 344 -69t292 -195 q125 -124 192.5 -291.5t67.5 -348.5q0 -175 -71 -342t-201 -298q-127 -126 -287.5 -191.5t-346.5 -65.5q-175 0 -336.5 67t-290.5 195t-197 291t-68 347q0 179 68 343.5t194 293.5q126 127 292.5 195.5t347.5 68.5z" />
<glyph unicode="&#xaf;" horiz-adv-x="1024" d="M1036 1624h-1048v102h1048v-102z" />
<glyph unicode="&#xb0;" horiz-adv-x="857" d="M433 1756q-108 0 -184 -75t-76 -182q0 -108 76 -183.5t184 -75.5q107 0 182 75.5t75 183.5q0 107 -75 182t-182 75zM433 1861q149 0 255.5 -106t106.5 -256q0 -149 -107 -255t-258 -106t-255.5 105t-104.5 256q0 152 106 257t257 105z" />
<glyph unicode="&#xb1;" horiz-adv-x="2158" d="M325 202h1534v-150h-1534v150zM1018 1510h151v-440h690v-150h-690v-440h-151v440h-693v150h693v440z" />
<glyph unicode="&#xb4;" horiz-adv-x="1384" d="M858 1560l-278 -302h-53l249 393q21 35 38 49t36 14q22 0 38.5 -20t16.5 -48q0 -22 -11 -41t-36 -45z" />
<glyph unicode="&#xb5;" horiz-adv-x="1248" d="M210 247q-35 -174 -67 -434q-43 -348 -143 -348q-47 0 -74.5 30t-27.5 83q0 51 82.5 350t134.5 547l140 658h188l-133 -630q-8 -38 -12.5 -74.5t-4.5 -68.5q0 -107 54 -165.5t151 -58.5q125 0 209 87.5t121 256.5l142 653h191l-146 -680q-17 -75 -22 -111.5t-5 -63.5 q0 -62 33.5 -100t84.5 -38q45 0 84 23t66 65t52.5 119.5t49.5 77.5q15 0 24 -13t9 -34q0 -32 -14 -85.5t-37 -106.5q-48 -105 -121 -157t-173 -52q-87 0 -139 65.5t-52 177.5v30q-59 -141 -148.5 -210t-211.5 -69q-123 0 -195 69.5t-90 206.5z" />
<glyph unicode="&#xb6;" horiz-adv-x="1317" d="M1213 1893v-100h-160v-1793h-120v1793h-233v-1793h-123v1001q-221 10 -350.5 131t-129.5 314q0 201 137.5 324t365.5 123h613z" />
<glyph unicode="&#xb7;" horiz-adv-x="569" d="M157 815q0 49 35.5 85t85.5 36t86.5 -36t36.5 -85q0 -50 -37.5 -85t-85.5 -35q-49 0 -85 36t-36 84z" />
<glyph unicode="&#xbb;" horiz-adv-x="987" d="M192 943l301 -405l-301 -410h-172l345 410l-345 405h172zM525 943l303 -405l-303 -410h-168l341 410l-341 405h168z" />
<glyph unicode="&#xbf;" horiz-adv-x="1058" d="M443 488q-7 27 -10 48t-3 41q0 92 54 150.5t137 58.5q121 0 209 -111t88 -258q0 -192 -120 -319t-292 -127t-291.5 122.5t-119.5 291.5q0 124 56 230.5t242 283.5q97 94 123.5 137t26.5 87q0 37 -29 79t-29 64q0 27 23 45t58 18q51 0 86 -40t35 -99q0 -83 -146 -265 q-35 -44 -53 -67q-104 -136 -147 -239t-43 -211q0 -160 68.5 -260.5t173.5 -100.5t171.5 95t66.5 248q0 144 -51 235t-127 91q-52 0 -79.5 -40.5t-27.5 -117.5q0 -9 6 -38q3 -11 4 -17zM681 1588q0 -49 -34.5 -84.5t-85.5 -35.5q-52 0 -86.5 34.5t-34.5 85.5q0 50 36.5 86.5 t84.5 36.5q47 0 83.5 -37.5t36.5 -85.5z" />
<glyph unicode="&#xc0;" horiz-adv-x="1192" d="M425 1111h178l-87 317zM-102 0v73h137l495 1638h88l450 -1501q20 -70 54 -103.5t86 -33.5h37v-73h-529v73h165l-260 965h-220l-226 -753v-2q-18 -67 -18 -88q0 -59 38 -90.5t110 -31.5h70v-73h-477zM475 2116l248 -393h-52l-278 302q-25 26 -36 45t-11 41q0 28 16.5 48 t38.5 20q19 0 35.5 -14t38.5 -49z" />
<glyph unicode="&#xc2;" horiz-adv-x="1196" d="M425 1111h178l-87 317zM-102 0v73h137l495 1638h88l450 -1501q20 -70 54 -103.5t86 -33.5h37v-73h-529v73h165l-260 965h-220l-226 -753v-2q-18 -67 -18 -88q0 -59 38 -90.5t110 -31.5h70v-73h-477zM545 2169h100l228 -446h-50l-228 296l-227 -296h-50z" />
<glyph unicode="&#xc3;" horiz-adv-x="1204" d="M425 1111h178l-87 317zM-102 0v73h137l495 1638h88l450 -1501q20 -70 54 -103.5t86 -33.5h37v-73h-529v73h165l-260 965h-220l-226 -753v-2q-18 -67 -18 -88q0 -59 38 -90.5t110 -31.5h70v-73h-477zM842 2066h44q-19 -115 -64 -174t-114 -59q-17 0 -35.5 4t-42.5 12 l-122 47q-18 8 -34 11.5t-26 3.5q-42 0 -64.5 -23.5t-37.5 -88.5h-41q16 111 61.5 172.5t111.5 61.5q18 0 41 -5t53 -17l117 -43q23 -8 36.5 -11t22.5 -3q38 0 61 27.5t33 84.5z" />
<glyph unicode="&#xc4;" horiz-adv-x="1196" d="M425 1111h178l-87 317zM-102 0v73h137l495 1638h88l450 -1501q20 -70 54 -103.5t86 -33.5h37v-73h-529v73h165l-260 965h-220l-226 -753v-2q-18 -67 -18 -88q0 -59 38 -90.5t110 -31.5h70v-73h-477zM818 2036q45 0 79 -34t34 -79q0 -49 -32 -81t-81 -32t-81 32t-32 81 q0 45 34 79t79 34zM373 2036q44 0 78 -34t34 -79q0 -47 -32.5 -80t-79.5 -33q-49 0 -81 31.5t-32 81.5q0 45 34 79t79 34z" />
<glyph unicode="&#xc5;" horiz-adv-x="1196" d="M580 2291q-81 0 -139 -58t-58 -139q0 -82 57 -139t140 -57q82 0 139 57t57 139q0 81 -58 139t-138 58zM580 2394q123 0 210.5 -88t87.5 -212q0 -123 -87.5 -210.5t-210.5 -87.5q-127 0 -213.5 86.5t-86.5 211.5q0 127 86.5 213.5t213.5 86.5zM425 1111h178l-87 317z M-102 0v73h137l495 1638h88l450 -1501q20 -70 54 -103.5t86 -33.5h37v-73h-529v73h165l-260 965h-220l-226 -753v-2q-18 -67 -18 -88q0 -59 38 -90.5t110 -31.5h70v-73h-477z" />
<glyph unicode="&#xc6;" horiz-adv-x="1564" d="M-97 73l768 1528h-108v75h881v110h79v-588h-79v108q0 161 -77.5 228t-260.5 67h-128v-405h202v230h81v-593h-81v121q0 80 -40 124.5t-112 44.5h-50v-1050h145q170 0 245.5 73t75.5 239v118h79v-626h-79v123h-867v73h178v965h-285l-368 -731q-25 -52 -33.5 -82t-8.5 -62 q0 -40 38.5 -65t101.5 -25h70v-73h-480v73h113zM506 1111h249v490z" />
<glyph unicode="&#xca;" horiz-adv-x="862" d="M899 1676v110h79v-588h-79v108q0 160 -78.5 227.5t-262.5 67.5h-128v-405h205v230h78v-593h-78v121q0 80 -40.5 124.5t-111.5 44.5h-53v-1050h145q171 0 247.5 73.5t76.5 238.5v118h79v-626h-79v123h-867v73h175v1373q0 93 -26 124t-103 31h-46v75h867zM528 2169h100 l228 -446h-50l-228 296l-227 -296h-50z" />
<glyph unicode="&#xcb;" horiz-adv-x="862" d="M899 1676v110h79v-588h-79v108q0 160 -78.5 227.5t-262.5 67.5h-128v-405h205v230h78v-593h-78v121q0 80 -40.5 124.5t-111.5 44.5h-53v-1050h145q171 0 247.5 73.5t76.5 238.5v118h79v-626h-79v123h-867v73h175v1373q0 93 -26 124t-103 31h-46v75h867zM801 2036 q45 0 79 -34t34 -79q0 -49 -32 -81t-81 -32t-81 32t-32 81q0 45 34 79t79 34zM356 2036q44 0 78 -34t34 -79q0 -47 -32.5 -80t-79.5 -33q-49 0 -81 31.5t-32 81.5q0 45 34 79t79 34z" />
<glyph unicode="&#xcd;" horiz-adv-x="512" d="M40 0v73h178v1373q0 93 -26.5 124t-101.5 31h-50v75h576v-75h-176v-1373q0 -94 26 -124.5t100 -30.5h50v-73h-576zM605 2025l-278 -302h-53l249 393q21 35 38 49t36 14q22 0 38.5 -20t16.5 -48q0 -22 -11 -41t-36 -45z" />
<glyph unicode="&#xce;" horiz-adv-x="512" d="M40 0v73h178v1373q0 93 -26.5 124t-101.5 31h-50v75h576v-75h-176v-1373q0 -94 26 -124.5t100 -30.5h50v-73h-576zM352 2169h100l228 -446h-50l-228 296l-227 -296h-50z" />
<glyph unicode="&#xd1;" horiz-adv-x="1010" d="M207 73v1373q0 93 -26 124t-103 31h-46v75h285l698 -1259v1029q0 93 -27 124t-102 31h-50v75h425v-75h-176v-1638h-70l-737 1327v-1062q0 -91 26 -123t102 -32h50v-73h-424v73h175zM899 2066h44q-19 -115 -64 -174t-114 -59q-17 0 -35.5 4t-42.5 12l-122 47 q-18 8 -34 11.5t-26 3.5q-42 0 -64.5 -23.5t-37.5 -88.5h-41q16 111 61.5 172.5t111.5 61.5q18 0 41 -5t53 -17l117 -43q23 -8 36.5 -11t22.5 -3q38 0 61 27.5t33 84.5z" />
<glyph unicode="&#xd2;" horiz-adv-x="1540" d="M1056 52q278 0 451.5 179.5t173.5 466.5q0 172 -57 333t-166 295q-122 149 -266 223t-314 74q-258 0 -419 -184.5t-161 -487.5q0 -177 54 -336t156 -285q114 -142 248.5 -210t299.5 -68zM983 -37q-394 0 -649.5 247.5t-255.5 627.5q0 365 259 619t636 254q386 0 653 -255 t267 -618q0 -372 -259 -623.5t-651 -251.5zM793 2116l248 -393h-52l-278 302q-25 26 -36 45t-11 41q0 28 16.5 48t38.5 20q19 0 35.5 -14t38.5 -49z" />
<glyph unicode="&#xd3;" horiz-adv-x="1540" d="M1056 52q278 0 451.5 179.5t173.5 466.5q0 172 -57 333t-166 295q-122 149 -266 223t-314 74q-258 0 -419 -184.5t-161 -487.5q0 -177 54 -336t156 -285q114 -142 248.5 -210t299.5 -68zM983 -37q-394 0 -649.5 247.5t-255.5 627.5q0 365 259 619t636 254q386 0 653 -255 t267 -618q0 -372 -259 -623.5t-651 -251.5zM1116 2025l-278 -302h-53l249 393q21 35 38 49t36 14q22 0 38.5 -20t16.5 -48q0 -22 -11 -41t-36 -45z" />
<glyph unicode="&#xd4;" horiz-adv-x="1540" d="M1056 52q278 0 451.5 179.5t173.5 466.5q0 172 -57 333t-166 295q-122 149 -266 223t-314 74q-258 0 -419 -184.5t-161 -487.5q0 -177 54 -336t156 -285q114 -142 248.5 -210t299.5 -68zM983 -37q-394 0 -649.5 247.5t-255.5 627.5q0 365 259 619t636 254q386 0 653 -255 t267 -618q0 -372 -259 -623.5t-651 -251.5zM863 2169h100l228 -446h-50l-228 296l-227 -296h-50z" />
<glyph unicode="&#xd5;" horiz-adv-x="1540" d="M1056 52q278 0 451.5 179.5t173.5 466.5q0 172 -57 333t-166 295q-122 149 -266 223t-314 74q-258 0 -419 -184.5t-161 -487.5q0 -177 54 -336t156 -285q114 -142 248.5 -210t299.5 -68zM983 -37q-394 0 -649.5 247.5t-255.5 627.5q0 365 259 619t636 254q386 0 653 -255 t267 -618q0 -372 -259 -623.5t-651 -251.5zM1160 2066h44q-19 -115 -64 -174t-114 -59q-17 0 -35.5 4t-42.5 12l-122 47q-18 8 -34 11.5t-26 3.5q-42 0 -64.5 -23.5t-37.5 -88.5h-41q16 111 61.5 172.5t111.5 61.5q18 0 41 -5t53 -17l117 -43q23 -8 36.5 -11t22.5 -3 q38 0 61 27.5t33 84.5z" />
<glyph unicode="&#xd6;" horiz-adv-x="1540" d="M1056 52q278 0 451.5 179.5t173.5 466.5q0 172 -57 333t-166 295q-122 149 -266 223t-314 74q-258 0 -419 -184.5t-161 -487.5q0 -177 54 -336t156 -285q114 -142 248.5 -210t299.5 -68zM983 -37q-394 0 -649.5 247.5t-255.5 627.5q0 365 259 619t636 254q386 0 653 -255 t267 -618q0 -372 -259 -623.5t-651 -251.5zM1136 2036q45 0 79 -34t34 -79q0 -49 -32 -81t-81 -32t-81 32t-32 81q0 45 34 79t79 34zM691 2036q44 0 78 -34t34 -79q0 -47 -32.5 -80t-79.5 -33q-49 0 -81 31.5t-32 81.5q0 45 34 79t79 34z" />
<glyph unicode="&#xd8;" horiz-adv-x="1965" d="M538 291q102 -118 234 -178.5t287 -60.5q276 0 449 179.5t173 466.5q0 162 -49.5 310t-147.5 285zM108 -165h-126l353 375q-128 130 -192.5 287.5t-64.5 340.5q0 365 258 619t634 254q165 0 313 -49t282 -149l271 288h125l-328 -346q128 -138 194 -294t66 -323 q0 -372 -259 -623.5t-651 -251.5q-168 0 -313.5 47.5t-266.5 139.5zM1426 1366q-114 128 -251.5 192.5t-296.5 64.5q-258 0 -419 -183.5t-161 -488.5q0 -161 45.5 -307t136.5 -282z" />
<glyph unicode="&#xd9;" horiz-adv-x="977" d="M207 1446q0 93 -26 124t-103 31h-46v75h573v-75h-175v-1241q0 -131 70 -199.5t203 -68.5q134 0 200.5 80.5t66.5 247.5v1026q0 94 -25.5 124.5t-100.5 30.5h-49v75h424v-75h-176v-1216q0 -203 -107.5 -312.5t-305.5 -109.5q-209 0 -316 114t-107 335v1034zM549 2116 l248 -393h-52l-278 302q-25 26 -36 45t-11 41q0 28 16.5 48t38.5 20q19 0 35.5 -14t38.5 -49z" />
<glyph unicode="&#xda;" horiz-adv-x="977" d="M207 1446q0 93 -26 124t-103 31h-46v75h573v-75h-175v-1241q0 -131 70 -199.5t203 -68.5q134 0 200.5 80.5t66.5 247.5v1026q0 94 -25.5 124.5t-100.5 30.5h-49v75h424v-75h-176v-1216q0 -203 -107.5 -312.5t-305.5 -109.5q-209 0 -316 114t-107 335v1034zM872 2025 l-278 -302h-53l249 393q21 35 38 49t36 14q22 0 38.5 -20t16.5 -48q0 -22 -11 -41t-36 -45z" />
<glyph unicode="&#xdb;" horiz-adv-x="977" d="M207 1446q0 93 -26 124t-103 31h-46v75h573v-75h-175v-1241q0 -131 70 -199.5t203 -68.5q134 0 200.5 80.5t66.5 247.5v1026q0 94 -25.5 124.5t-100.5 30.5h-49v75h424v-75h-176v-1216q0 -203 -107.5 -312.5t-305.5 -109.5q-209 0 -316 114t-107 335v1034zM619 2169h100 l228 -446h-50l-228 296l-227 -296h-50z" />
<glyph unicode="&#xdc;" horiz-adv-x="977" d="M207 1446q0 93 -26 124t-103 31h-46v75h573v-75h-175v-1241q0 -131 70 -199.5t203 -68.5q134 0 200.5 80.5t66.5 247.5v1026q0 94 -25.5 124.5t-100.5 30.5h-49v75h424v-75h-176v-1216q0 -203 -107.5 -312.5t-305.5 -109.5q-209 0 -316 114t-107 335v1034zM892 2036 q45 0 79 -34t34 -79q0 -49 -32 -81t-81 -32t-81 32t-32 81q0 45 34 79t79 34zM447 2036q44 0 78 -34t34 -79q0 -47 -32.5 -80t-79.5 -33q-49 0 -81 31.5t-32 81.5q0 45 34 79t79 34z" />
<glyph unicode="&#xdf;" horiz-adv-x="1342" d="M328 212q0 -85 25 -121t80 -36h23v-55h-406v55h97v1345q0 205 120.5 328t320.5 123q167 0 263.5 -88.5t96.5 -239.5q0 -51 -12.5 -108t-39.5 -120q-93 -10 -143 -58t-50 -131q0 -59 39.5 -104t177.5 -116q240 -122 307.5 -215.5t67.5 -240.5q0 -196 -133.5 -327.5 t-335.5 -131.5q-174 0 -290 103.5t-116 255.5q0 113 69.5 189t170.5 76q80 0 135 -47.5t55 -114.5q0 -54 -36.5 -97t-80.5 -43q-20 0 -33 11.5t-13 28.5q0 10 10.5 40.5t10.5 51.5q0 35 -27.5 60.5t-64.5 25.5q-60 0 -96.5 -44.5t-36.5 -118.5q0 -125 107.5 -220.5 t250.5 -95.5q150 0 252.5 98.5t102.5 247.5q0 90 -46.5 151.5t-197.5 143.5q-9 5 -24 13q-338 181 -338 375q0 99 55 168.5t155 96.5q8 36 11.5 72t3.5 73q0 170 -60.5 247.5t-193.5 77.5q-123 0 -178 -68.5t-55 -231.5v-1284z" />
<glyph unicode="&#xe0;" horiz-adv-x="764" d="M660 200v325q-66 70 -124.5 102.5t-115.5 32.5q-100 0 -162.5 -69.5t-62.5 -182.5q0 -144 77 -247t186 -103q67 0 120.5 37t81.5 105zM844 212q0 -85 24.5 -121t79.5 -36h40v-55h-328v105q-49 -65 -117 -99.5t-150 -34.5q-150 0 -246.5 99.5t-96.5 254.5q0 156 119 276 t271 120q59 0 114 -17.5t106 -53.5v191q0 107 -50.5 162.5t-146.5 55.5q-115 0 -192.5 -100t-92.5 -272h-47v496h47v-205q73 70 149.5 104t162.5 34q162 0 258 -95.5t96 -260.5v-548zM409 1651l248 -393h-52l-278 302q-25 26 -36 45t-11 41q0 28 16.5 48t38.5 20 q19 0 35.5 -14t38.5 -49z" />
<glyph unicode="&#xe1;" horiz-adv-x="764" d="M660 200v325q-66 70 -124.5 102.5t-115.5 32.5q-100 0 -162.5 -69.5t-62.5 -182.5q0 -144 77 -247t186 -103q67 0 120.5 37t81.5 105zM844 212q0 -85 24.5 -121t79.5 -36h40v-55h-328v105q-49 -65 -117 -99.5t-150 -34.5q-150 0 -246.5 99.5t-96.5 254.5q0 156 119 276 t271 120q59 0 114 -17.5t106 -53.5v191q0 107 -50.5 162.5t-146.5 55.5q-115 0 -192.5 -100t-92.5 -272h-47v496h47v-205q73 70 149.5 104t162.5 34q162 0 258 -95.5t96 -260.5v-548zM732 1560l-278 -302h-53l249 393q21 35 38 49t36 14q22 0 38.5 -20t16.5 -48 q0 -22 -11 -41t-36 -45z" />
<glyph unicode="&#xe2;" horiz-adv-x="764" d="M660 200v325q-66 70 -124.5 102.5t-115.5 32.5q-100 0 -162.5 -69.5t-62.5 -182.5q0 -144 77 -247t186 -103q67 0 120.5 37t81.5 105zM844 212q0 -85 24.5 -121t79.5 -36h40v-55h-328v105q-49 -65 -117 -99.5t-150 -34.5q-150 0 -246.5 99.5t-96.5 254.5q0 156 119 276 t271 120q59 0 114 -17.5t106 -53.5v191q0 107 -50.5 162.5t-146.5 55.5q-115 0 -192.5 -100t-92.5 -272h-47v496h47v-205q73 70 149.5 104t162.5 34q162 0 258 -95.5t96 -260.5v-548zM479 1704h100l228 -446h-50l-228 296l-227 -296h-50z" />
<glyph unicode="&#xe3;" horiz-adv-x="764" d="M660 200v325q-66 70 -124.5 102.5t-115.5 32.5q-100 0 -162.5 -69.5t-62.5 -182.5q0 -144 77 -247t186 -103q67 0 120.5 37t81.5 105zM844 212q0 -85 24.5 -121t79.5 -36h40v-55h-328v105q-49 -65 -117 -99.5t-150 -34.5q-150 0 -246.5 99.5t-96.5 254.5q0 156 119 276 t271 120q59 0 114 -17.5t106 -53.5v191q0 107 -50.5 162.5t-146.5 55.5q-115 0 -192.5 -100t-92.5 -272h-47v496h47v-205q73 70 149.5 104t162.5 34q162 0 258 -95.5t96 -260.5v-548zM776 1601h44q-19 -115 -64 -174t-114 -59q-17 0 -35.5 4t-42.5 12l-122 47 q-18 8 -34 11.5t-26 3.5q-42 0 -64.5 -23.5t-37.5 -88.5h-41q16 111 61.5 172.5t111.5 61.5q18 0 41 -5t53 -17l117 -43q23 -8 36.5 -11t22.5 -3q38 0 61 27.5t33 84.5z" />
<glyph unicode="&#xe4;" horiz-adv-x="764" d="M660 200v325q-66 70 -124.5 102.5t-115.5 32.5q-100 0 -162.5 -69.5t-62.5 -182.5q0 -144 77 -247t186 -103q67 0 120.5 37t81.5 105zM844 212q0 -85 24.5 -121t79.5 -36h40v-55h-328v105q-49 -65 -117 -99.5t-150 -34.5q-150 0 -246.5 99.5t-96.5 254.5q0 156 119 276 t271 120q59 0 114 -17.5t106 -53.5v191q0 107 -50.5 162.5t-146.5 55.5q-115 0 -192.5 -100t-92.5 -272h-47v496h47v-205q73 70 149.5 104t162.5 34q162 0 258 -95.5t96 -260.5v-548zM752 1571q45 0 79 -34t34 -79q0 -49 -32 -81t-81 -32t-81 32t-32 81q0 45 34 79t79 34z M307 1571q44 0 78 -34t34 -79q0 -47 -32.5 -80t-79.5 -33q-49 0 -81 31.5t-32 81.5q0 45 34 79t79 34z" />
<glyph unicode="&#xe5;" horiz-adv-x="764" d="M506 1696q-81 0 -140 -58t-59 -139q0 -82 57.5 -139t141.5 -57q82 0 138 57t56 139t-57 139.5t-137 57.5zM503 1798q124 0 212 -87.5t88 -211.5q0 -123 -88 -210.5t-212 -87.5q-125 0 -211.5 86t-86.5 212q0 127 86.5 213t211.5 86zM660 200v325q-66 70 -124.5 102.5 t-115.5 32.5q-100 0 -162.5 -69.5t-62.5 -182.5q0 -144 77 -247t186 -103q67 0 120.5 37t81.5 105zM844 212q0 -85 24.5 -121t79.5 -36h40v-55h-328v105q-49 -65 -117 -99.5t-150 -34.5q-150 0 -246.5 99.5t-96.5 254.5q0 156 119 276t271 120q59 0 114 -17.5t106 -53.5v191 q0 107 -50.5 162.5t-146.5 55.5q-115 0 -192.5 -100t-92.5 -272h-47v496h47v-205q73 70 149.5 104t162.5 34q162 0 258 -95.5t96 -260.5v-548z" />
<glyph unicode="&#xe6;" horiz-adv-x="1886" d="M771 220q-62 -121 -158 -185t-220 -64q-150 0 -246.5 99.5t-96.5 254.5q0 156 119 276t271 120q59 0 114 -17.5t106 -53.5v191q0 107 -50.5 162.5t-146.5 55.5q-115 0 -192.5 -100t-92.5 -272h-47v496h47v-205q73 70 149.5 104t162.5 34q118 0 209 -58t124 -156 q93 104 219.5 159t273.5 55q175 0 308 -84t217 -246h-991q-9 -37 -13 -71t-4 -65q0 -233 146 -401t350 -168q142 0 257.5 72t199.5 212l47 -27q-101 -181 -245 -274t-325 -93q-161 0 -289.5 65t-202.5 184zM870 833h734q-63 95 -159.5 147.5t-206.5 52.5 q-135 0 -227.5 -50.5t-140.5 -149.5zM660 200v325q-66 70 -124.5 102.5t-115.5 32.5q-100 0 -162.5 -69.5t-62.5 -182.5q0 -144 77 -247t186 -103q67 0 120.5 37t81.5 105z" />
<glyph unicode="&#xe7;" horiz-adv-x="1129" d="M978 563h-55v380q-67 48 -137 71.5t-143 23.5q-196 0 -316 -114.5t-120 -300.5q0 -215 151 -381t347 -166q91 0 177 33.5t161 100.5l32 -45q-103 -97 -223.5 -145.5t-258.5 -48.5q-232 0 -380 151.5t-148 388.5q0 260 189.5 432.5t473.5 172.5q53 0 102 -8t93 -25v100h55 v-620zM548 0h55l1 -155q14 3 29 4t36 1q76 0 123.5 -57t47.5 -150q0 -91 -59 -148.5t-154 -57.5q-57 0 -129.5 21.5t-153.5 64.5l28 84q64 -40 127 -63.5t99 -23.5q66 0 99 32t33 97q0 54 -32 86t-86 32q-14 0 -29.5 -2t-33.5 -6z" />
<glyph unicode="&#xe8;" horiz-adv-x="995" d="M1221 338q-100 -181 -245 -274t-326 -93q-261 0 -423 153.5t-162 397.5q0 256 181.5 425t456.5 169q176 0 310 -84t217 -246h-1000q-10 -47 -14 -78.5t-4 -57.5q0 -233 147.5 -401t353.5 -168q145 0 261.5 71.5t196.5 212.5zM252 833h739q-66 98 -163.5 149t-219.5 51 q-124 0 -216 -52t-140 -148zM541 1651l248 -393h-52l-278 302q-25 26 -36 45t-11 41q0 28 16.5 48t38.5 20q19 0 35.5 -14t38.5 -49z" />
<glyph unicode="&#xe9;" horiz-adv-x="995" d="M1221 338q-100 -181 -245 -274t-326 -93q-261 0 -423 153.5t-162 397.5q0 256 181.5 425t456.5 169q176 0 310 -84t217 -246h-1000q-10 -47 -14 -78.5t-4 -57.5q0 -233 147.5 -401t353.5 -168q145 0 261.5 71.5t196.5 212.5zM252 833h739q-66 98 -163.5 149t-219.5 51 q-124 0 -216 -52t-140 -148zM864 1560l-278 -302h-53l249 393q21 35 38 49t36 14q22 0 38.5 -20t16.5 -48q0 -22 -11 -41t-36 -45z" />
<glyph unicode="&#xea;" horiz-adv-x="995" d="M1221 338q-100 -181 -245 -274t-326 -93q-261 0 -423 153.5t-162 397.5q0 256 181.5 425t456.5 169q176 0 310 -84t217 -246h-1000q-10 -47 -14 -78.5t-4 -57.5q0 -233 147.5 -401t353.5 -168q145 0 261.5 71.5t196.5 212.5zM252 833h739q-66 98 -163.5 149t-219.5 51 q-124 0 -216 -52t-140 -148zM611 1704h100l228 -446h-50l-228 296l-227 -296h-50z" />
<glyph unicode="&#xeb;" horiz-adv-x="995" d="M1221 338q-100 -181 -245 -274t-326 -93q-261 0 -423 153.5t-162 397.5q0 256 181.5 425t456.5 169q176 0 310 -84t217 -246h-1000q-10 -47 -14 -78.5t-4 -57.5q0 -233 147.5 -401t353.5 -168q145 0 261.5 71.5t196.5 212.5zM252 833h739q-66 98 -163.5 149t-219.5 51 q-124 0 -216 -52t-140 -148zM884 1571q45 0 79 -34t34 -79q0 -49 -32 -81t-81 -32t-81 32t-32 81q0 45 34 79t79 34zM439 1571q44 0 78 -34t34 -79q0 -47 -32.5 -80t-79.5 -33q-49 0 -81 31.5t-32 81.5q0 45 34 79t79 34z" />
<glyph unicode="&#xec;" horiz-adv-x="371" d="M340 212q0 -85 25 -121t80 -36h40v-55h-425v55h97v836l-81 -76l-36 37l320 301l36 -39l-56 -53v-849zM212 1651l248 -393h-52l-278 302q-25 26 -36 45t-11 41q0 28 16.5 48t38.5 20q19 0 35.5 -14t38.5 -49z" />
<glyph unicode="&#xed;" horiz-adv-x="371" d="M340 212q0 -85 25 -121t80 -36h40v-55h-425v55h97v836l-81 -76l-36 37l320 301l36 -39l-56 -53v-849zM535 1560l-278 -302h-53l249 393q21 35 38 49t36 14q22 0 38.5 -20t16.5 -48q0 -22 -11 -41t-36 -45z" />
<glyph unicode="&#xee;" horiz-adv-x="371" d="M340 212q0 -85 25 -121t80 -36h40v-55h-425v55h97v836l-81 -76l-36 37l320 301l36 -39l-56 -53v-849zM282 1704h100l228 -446h-50l-228 296l-227 -296h-50z" />
<glyph unicode="&#xef;" horiz-adv-x="371" d="M340 212q0 -85 25 -121t80 -36h40v-55h-425v55h97v836l-81 -76l-36 37l320 301l36 -39l-56 -53v-849zM555 1571q45 0 79 -34t34 -79q0 -49 -32 -81t-81 -32t-81 32t-32 81q0 45 34 79t79 34zM110 1571q44 0 78 -34t34 -79q0 -47 -32.5 -80t-79.5 -33q-49 0 -81 31.5 t-32 81.5q0 45 34 79t79 34z" />
<glyph unicode="&#xf7;" horiz-adv-x="2175" d="M1093 467q60 0 103.5 -43.5t43.5 -103.5t-42.5 -103.5t-104.5 -43.5q-61 0 -104 43t-43 104t43.5 104t103.5 43zM325 858h1534v-150h-1534v150zM1093 1389q62 0 104.5 -43t42.5 -103q0 -62 -42.5 -104.5t-104.5 -42.5q-63 0 -105 42.5t-42 104.5q0 60 43.5 103t103.5 43z " />
<glyph unicode="&#xf9;" horiz-adv-x="778" d="M655 878q0 85 -25 122.5t-80 37.5h-65v55h351v-881q0 -85 25 -121t80 -36h42v-55h-328v125q-66 -74 -135 -111t-140 -37q-119 0 -183 71.5t-64 206.5v623q0 85 -25 122.5t-79 37.5h-66v55h352v-841q0 -87 37 -133t106 -46q67 0 119.5 46t77.5 128v631zM720 1560 l-278 -302h-53l249 393q21 35 38 49t36 14q22 0 38.5 -20t16.5 -48q0 -22 -11 -41t-36 -45z" />
<glyph unicode="&#xfa;" horiz-adv-x="778" d="M655 878q0 85 -25 122.5t-80 37.5h-65v55h351v-881q0 -85 25 -121t80 -36h42v-55h-328v125q-66 -74 -135 -111t-140 -37q-119 0 -183 71.5t-64 206.5v623q0 85 -25 122.5t-79 37.5h-66v55h352v-841q0 -87 37 -133t106 -46q67 0 119.5 46t77.5 128v631zM397 1651l248 -393 h-52l-278 302q-25 26 -36 45t-11 41q0 28 16.5 48t38.5 20q19 0 35.5 -14t38.5 -49z" />
<glyph unicode="&#xfb;" horiz-adv-x="778" d="M655 878q0 85 -25 122.5t-80 37.5h-65v55h351v-881q0 -85 25 -121t80 -36h42v-55h-328v125q-66 -74 -135 -111t-140 -37q-119 0 -183 71.5t-64 206.5v623q0 85 -25 122.5t-79 37.5h-66v55h352v-841q0 -87 37 -133t106 -46q67 0 119.5 46t77.5 128v631zM467 1704h100 l228 -446h-50l-228 296l-227 -296h-50z" />
<glyph unicode="&#xfc;" horiz-adv-x="778" d="M655 878q0 85 -25 122.5t-80 37.5h-65v55h351v-881q0 -85 25 -121t80 -36h42v-55h-328v125q-66 -74 -135 -111t-140 -37q-119 0 -183 71.5t-64 206.5v623q0 85 -25 122.5t-79 37.5h-66v55h352v-841q0 -87 37 -133t106 -46q67 0 119.5 46t77.5 128v631zM740 1571 q45 0 79 -34t34 -79q0 -49 -32 -81t-81 -32t-81 32t-32 81q0 45 34 79t79 34zM295 1571q44 0 78 -34t34 -79q0 -47 -32.5 -80t-79.5 -33q-49 0 -81 31.5t-32 81.5q0 45 34 79t79 34z" />
<glyph unicode="&#xff;" horiz-adv-x="692" d="M841 1038l-306 -838q-163 -451 -332.5 -674.5t-354.5 -233.5l-16 270h60q11 -37 39 -56t72 -19q88 0 186.5 137.5t253.5 488.5l-320 792q-31 77 -67.5 105t-105.5 28h-42v55h485v-55h-136l268 -708l125 360q27 79 43.5 151.5t16.5 104.5q0 50 -22 71t-75 21h-18v55h370 v-55h-124zM715 1571q45 0 79 -34t34 -79q0 -49 -32 -81t-81 -32t-81 32t-32 81q0 45 34 79t79 34zM270 1571q44 0 78 -34t34 -79q0 -47 -32.5 -80t-79.5 -33q-49 0 -81 31.5t-32 81.5q0 45 34 79t79 34z" />
<glyph unicode="&#x131;" horiz-adv-x="371" d="M340 212q0 -85 25 -121t80 -36h40v-55h-425v55h97v836l-81 -76l-36 37l320 301l36 -39l-56 -53v-849z" />
<glyph unicode="&#x152;" horiz-adv-x="1677" d="M1251 241v1198q0 114 -63.5 154t-219.5 40q-290 0 -470.5 -221.5t-180.5 -575.5q0 -348 180.5 -568.5t470.5 -220.5q157 0 220 40.5t63 153.5zM1943 1676v110h78v-588h-78v108q0 161 -78 228t-261 67h-131v-405h205v230h78v-593h-78v121q0 80 -40.5 124.5t-111.5 44.5 h-53v-1050h147q172 0 247.5 73t75.5 239v118h78v-626h-78v123h-483q-110 0 -275.5 -18.5t-221.5 -18.5q-384 0 -634.5 249t-250.5 624q0 367 249.5 621t618.5 254q40 0 212.5 -17.5t309.5 -17.5h475z" />
<glyph unicode="&#x153;" horiz-adv-x="1839" d="M750 50q166 0 261 103.5t95 286.5q0 96 -43 205.5t-117 198.5q-81 98 -175 147.5t-196 49.5q-165 0 -262.5 -102t-97.5 -273q0 -238 162.5 -427t372.5 -189zM1331 833h743q-64 98 -163.5 149t-222.5 51q-124 0 -216 -52t-141 -148zM2301 338q-99 -181 -244.5 -274 t-325.5 -93q-190 0 -327 79t-208 230q-82 -149 -218.5 -229t-311.5 -80q-262 0 -431.5 160.5t-169.5 403.5q0 255 168 418t425 163q193 0 335 -86.5t215 -248.5q72 156 226 245.5t349 89.5q175 0 309.5 -84t216.5 -246h-998q-8 -37 -12 -71t-4 -65q0 -233 146 -401t352 -168 q145 0 261 71.5t198 212.5z" />
<glyph unicode="&#x178;" horiz-adv-x="948" d="M721 228q0 -91 26 -123t103 -32h83v-73h-637v73h202v771l-356 632q-40 69 -84 97t-110 28h-40v75h555v-75h-138l360 -670l233 512q9 20 13.5 39t4.5 41q0 36 -29 57t-79 21h-42v75h433v-75h-149l-349 -757v-616zM844 2036q45 0 79 -34t34 -79q0 -49 -32 -81t-81 -32 t-81 32t-32 81q0 45 34 79t79 34zM399 2036q44 0 78 -34t34 -79q0 -47 -32.5 -80t-79.5 -33q-49 0 -81 31.5t-32 81.5q0 45 34 79t79 34z" />
<glyph unicode="&#x192;" horiz-adv-x="768" d="M1015 1874h60l-66 -430l-61 1q4 46 12 109t8 77q0 69 -29.5 108t-80.5 39q-94 0 -144 -87.5t-74 -304.5l-37 -293h210v-60h-223l-107 -902q-44 -372 -146.5 -540t-281.5 -168q-32 0 -68 8t-89 29l-11 -71h-60l60 431l63 -2q-6 -51 -9.5 -94t-3.5 -84q0 -68 30 -107 t83 -39q96 0 151 126.5t95 449.5l119 963h-205v60h215l42 325q26 201 128.5 312t259.5 111q40 0 76.5 -8t69.5 -22z" />
<glyph unicode="&#x2c6;" horiz-adv-x="1301" d="M605 1704h100l228 -446h-50l-228 296l-227 -296h-50z" />
<glyph unicode="&#x2c7;" horiz-adv-x="1551" d="M131 -463v2311h1310v-2311h-1310zM278 -317h1017v2018h-1017v-2018z" />
<glyph unicode="&#x2d8;" horiz-adv-x="1367" d="M365 1649h47q17 -104 75 -151.5t168 -47.5q113 0 170.5 47.5t70.5 151.5h47q-19 -164 -92.5 -250t-195.5 -86q-121 0 -196 86.5t-94 249.5z" />
<glyph unicode="&#x2d9;" horiz-adv-x="1321" d="M655 1578q49 0 85 -35.5t36 -84.5q0 -51 -34.5 -84.5t-86.5 -33.5q-48 0 -82.5 34t-34.5 84q0 47 35 83.5t82 36.5z" />
<glyph unicode="&#x2da;" horiz-adv-x="1351" d="M655 1728q-80 0 -137 -57t-57 -138t55.5 -137t138.5 -56q84 0 139.5 56t55.5 137t-57 138t-138 57zM655 1833q125 0 212 -87.5t87 -212.5q0 -124 -87 -211t-212 -87t-211.5 86.5t-86.5 211.5q0 126 86.5 213t211.5 87z" />
<glyph unicode="&#x2db;" horiz-adv-x="1285" d="M721 40h47q-99 -92 -145 -178.5t-46 -176.5q0 -68 30 -110t80 -42q32 0 59.5 21t66.5 81l25 -20q-32 -83 -87.5 -130.5t-120.5 -47.5q-71 0 -114.5 53t-43.5 140q0 104 64 210t185 200z" />
<glyph unicode="&#x2dc;" horiz-adv-x="1321" d="M902 1601h44q-19 -115 -64 -174t-114 -59q-17 0 -35.5 4t-42.5 12l-122 47q-18 8 -34 11.5t-26 3.5q-42 0 -64.5 -23.5t-37.5 -88.5h-41q16 111 61.5 172.5t111.5 61.5q18 0 41 -5t53 -17l117 -43q23 -8 36.5 -11t22.5 -3q38 0 61 27.5t33 84.5z" />
<glyph unicode="&#x2dd;" horiz-adv-x="1526" d="M705 1573l-170 -315h-42l118 370q15 49 31 68.5t36 19.5q23 0 39 -17.5t16 -44.5q0 -14 -7 -35.5t-21 -45.5zM960 1573l-195 -315h-44l147 378q15 40 31.5 60t33.5 20q26 0 42 -16.5t16 -43.5q0 -15 -8 -37t-23 -46z" />
<glyph unicode="&#x3c0;" horiz-adv-x="1719" d="M1701 1133l-45 -208h-421q-43 -229 -69 -578q-29 -402 -154 -402q-48 0 -73.5 31.5t-25.5 88.5q0 75 98.5 359.5t149.5 500.5h-480q-42 -226 -68 -573q-32 -407 -157 -407q-48 0 -73.5 32t-25.5 91q0 72 99.5 354.5t151.5 502.5h-170q-174 0 -230.5 -55.5t-92.5 -219.5 h-75q47 265 150 374t305 109h1206z" />
<glyph unicode="&#x1000;" horiz-adv-x="1866" d="M798 695v-550q0 -67 37 -87q7 0 39 -11v-47h-287v47h93v836q0 38 -21.5 81t-57.5 79t-82 60t-95 24q-36 0 -70.5 -8.5t-62.5 -27.5t-45 -48.5t-17 -72.5v-820q0 -48 28.5 -72.5t100.5 -30.5v-47h-340v47h90v767q0 42 4.5 77.5t15.5 67t30 60.5t48 58q30 30 61.5 48t66 28 t72 13t80.5 3q33 0 62.5 -9.5t55.5 -24.5t48.5 -34t40.5 -39q43 -47 76 -106l100 87q74 53 159 87t176 34q141 0 247.5 -37t178.5 -106.5t108.5 -170t36.5 -226.5q0 -50 -13.5 -108.5t-37.5 -116.5t-57 -111t-71 -93q-44 -46 -84.5 -82t-83 -60.5t-90 -37.5t-104.5 -13 q-60 0 -111.5 15t-84.5 30v-118h-42v416h42v-158q10 -19 22.5 -33t32.5 -25.5t50.5 -21t76.5 -18.5q30 -6 58 -6q42 0 79 11.5t71 32.5t66 49.5t64 62.5q34 37 57.5 74t37.5 76t20.5 80.5t6.5 88.5q0 60 -5.5 110t-19.5 94t-38 84t-61 81q-36 40 -73.5 69t-78.5 47.5 t-87 27.5t-99 9q-47 0 -87 -4.5t-76 -16.5t-69 -32.5t-64 -51.5q-62 -62 -93 -131t-31 -149z" />
<glyph unicode="&#x1001;" horiz-adv-x="953" d="M858 798v-811h-113v87q-155 -90 -287 -90q-82 0 -147.5 32t-112 85.5t-71.5 122.5t-25 143q0 79 34.5 149t105.5 130q70 60 149 88t165 28q48 0 94 -11.5t90 -33.5v113q0 58 -17 107.5t-48.5 86t-76 57t-100.5 20.5q-55 0 -105.5 -23.5t-90.5 -71.5t-66 -120t-31 -169 h-40v508h40v-216l66 58q48 42 114.5 64.5t149.5 22.5q76 0 136.5 -26t101.5 -73.5t63 -113t22 -143.5zM740 577q-42 60 -102.5 89.5t-137.5 29.5q-64 0 -118.5 -22.5t-95 -62.5t-63.5 -93.5t-23 -114.5q0 -67 24 -130t66 -112t100 -78.5t126 -29.5q57 0 117.5 27.5 t106.5 75.5v421z" />
<glyph unicode="&#x1002;" horiz-adv-x="913" d="M773 790v-647q0 -65 37 -86q2 0 39 -10v-47h-284v47h91v824q0 94 -96 174q-78 65 -156 68q-42 2 -96 -18q-78 -34 -91 -97q-5 -23 -5 -67v-783q0 -65 62 -91q16 -5 65 -10v-47h-335v47h88v756q0 164 96 273q102 94 276 78q60 0 119 -31q110 -52 162 -179q20 -52 23 -93.5 t5 -60.5z" />
<glyph unicode="&#x1003;" horiz-adv-x="1892" d="M1117 1048v-228h-52v414h52v-116q15 6 39 12.5t54 12t64.5 9.5t70.5 4q95 0 176.5 -31.5t144.5 -89.5q35 -33 60 -74.5t40.5 -89t23 -99t7.5 -103.5q0 -62 -10 -123.5t-32.5 -122t-58.5 -118.5t-88 -112q-49 -50 -106.5 -88t-116 -63t-114 -37.5t-99.5 -12.5 q-181 0 -340 120l-39 40l-42 -61q-99 -99 -256 -99q-71 0 -128 23.5t-97 71.5t-61.5 120t-21.5 169v499q0 9 6.5 17t17.5 16q13 8 33 16t39 14.5t33.5 11t17.5 5.5q37 21 37 51q0 32 -10 55t-25.5 38t-36 22t-41.5 7q-39 -2 -64.5 -21.5t-41.5 -45.5t-22.5 -53.5t-6.5 -43.5 h-23v243h23v-86q68 34 128 34q37 0 70 -12t57.5 -34t38.5 -51.5t14 -63.5q0 -29 -9.5 -48t-26.5 -33t-40 -24.5t-51 -22.5v-456q0 -179 54.5 -264.5t166.5 -85.5q229 0 229 274v656q0 118 -152 118v47h269v-737q0 -135 42 -193q105 -149 345 -149q37 0 85 15t99 47 t99.5 82.5t87.5 121.5q39 72 59.5 142.5t20.5 139.5q0 52 -15 110.5t-43 114.5t-68.5 104t-91.5 79q-44 26 -98.5 36.5t-106.5 10.5q-30 0 -57.5 -2.5t-50 -7t-38.5 -10t-23 -11.5z" />
<glyph unicode="&#x1004;" horiz-adv-x="1075" d="M1109 220q-107 -113 -218 -165q-39 -16 -117 -42q-50 -10 -113 -13q-238 -5 -398 144q-168 157 -171 393q-2 160 92 309q87 139 232 225.5t310 86.5q121 0 231 -47v118h42v-624h-42v367q-110 102 -291 102q-209 0 -341.5 -152t-135.5 -364q-2 -173 144 -320 q126 -125 328 -154q26 0 47 -3q197 0 362 181z" />
<glyph unicode="&#x1005;" horiz-adv-x="1217" d="M1109 613q3 -217 -160 -398q-47 -53 -99.5 -91t-125.5 -72q-37 -18 -79 -31q-62 -21 -178 -21h-364v37h60v883q0 70 -15 81q-16 8 -40 -8l-26 37q55 60 176 97q104 36 199 36q175 3 285 -34q74 -23 179 -110q89 -89 136 -183q50 -102 52 -223zM268 152v-76 q84 -31 184 -34q167 -3 285 71q218 136 257 340q10 63 13 150q3 180 -160 374q-157 150 -403 150q-168 0 -176 -63v-89q131 -16 202 -124q60 -96 63 -235q2 -144 -68 -270q-71 -134 -197 -194zM268 925v-723q168 102 173 374q3 121 -48 226t-125 123z" />
<glyph unicode="&#x1006;" horiz-adv-x="1989" d="M730 587q-84 118 -238 118q-121 0 -208.5 -80t-90.5 -198q-2 -139 88 -249t227 -113q57 0 117.5 28t104.5 75v419zM848 749v-317q32 -107 129 -199q154 -149 366 -152q257 -2 399 249q62 113 62 241q0 129 -68 248t-179.5 188.5t-239.5 69.5q-275 0 -427 -239 q-18 -28 -42 -89zM848 202v-116h-113q-151 -89 -285 -89q-160 0 -255.5 114t-98.5 261q-2 162 139 283q136 113 301 115q103 3 194 -44v112q0 113 -63 190.5t-170 79.5q-194 5 -278 -243q-15 -50 -21 -139h-39v505h39v-214l66 57q94 84 257 87q144 2 241 -97q63 -63 81 -171 q181 265 521 268q220 2 378.5 -163t158.5 -385q0 -241 -195 -427t-439 -189q-243 -2 -419 205z" />
<glyph unicode="&#x1007;" horiz-adv-x="1308" d="M1103 878h-804q-100 -134 -100 -320q0 -175 144 -320q126 -125 328 -154q26 0 47 -3q197 0 362 181l39 -42q-107 -113 -218 -165q-39 -16 -117 -42q-50 -10 -113 -13q-238 -5 -398 144q-168 157 -171 393q-2 160 92 309q87 139 232 225.5t310 86.5q92 0 152 -16 q95 -23 173 -110l-42 131l50 16l197 -652l-50 -16zM354 943h642l-29 29q-102 102 -291 102q-183 0 -322 -131z" />
<glyph unicode="&#x1008;" horiz-adv-x="1468" d="M1109 613q3 -217 -160 -398q-47 -53 -99.5 -91t-125.5 -72q-37 -18 -79 -31q-62 -21 -178 -21h-364v37h60v883q0 70 -15 81q-16 8 -40 -8l-26 37q55 60 176 97q104 36 199 36q175 3 285 -34q74 -23 179 -110q89 -89 136 -183q50 -102 52 -223zM268 152v-76 q84 -31 184 -34q167 -3 285 71q218 136 257 340q10 63 13 150q3 180 -160 374q-157 150 -403 150q-168 0 -176 -63v-89q131 -16 202 -124q60 -96 63 -235q2 -144 -68 -270q-71 -134 -197 -194zM268 925v-723q168 102 173 374q3 121 -48 226t-125 123zM1055 8 q-81 -126 -87 -315q-2 -96 6 -157q0 -44 97 -147.5t144 -106.5q36 -3 36 58v1653q0 29 -1 46t-21 45.5t-34 28.5t-22 3v47h183v-1823q0 -139 -97 -142q-84 -2 -239.5 129t-155.5 209q0 131 -6 173q0 170 87 299h-176v39h412v-39h-126z" />
<glyph unicode="&#x1009;" horiz-adv-x="1087" d="M102 215q126 -141 336 -144q288 -5 429 249q63 113 63 241q0 129 -68 248t-180.5 188.5t-238.5 69.5q-113 0 -225 -53v-390h-42v574h42v-105q110 55 272 58q220 2 378.5 -163t158.5 -385q0 -244 -194 -427t-440 -189l-76 6v-737q0 -44 18.5 -74t76.5 -30h812 q105 0 183.5 99.5t78.5 230.5v199h42v-595h-40v105q-52 -79 -196 -79h-1171v40h78v799q0 39 -36 84q-11 13 -29 20l-32 8v152z" />
<glyph unicode="&#x100a;" horiz-adv-x="1753" d="M92 126q88 -66 192 -66q59 0 109.5 30t87 79.5t57.5 113t21 131.5v550q0 39 -17.5 65.5t-46 42.5t-64.5 22.5t-72 6.5q-26 0 -57 -11.5t-61 -34t-56.5 -56t-44.5 -77.5v-317h-48v624h45v-189q16 19 44.5 40.5t68 40t89 30.5t106.5 12q41 0 83 -17.5t75.5 -47.5t54.5 -69 t21 -81v-505q-2 -48 13.5 -94.5t48 -89t83 -79.5t120.5 -67q75 -32 126 -32q50 0 102.5 14.5t101.5 40t92 60t73 74.5q55 72 84 161.5t29 193.5q0 172 -121 297q-174 153 -351 157q-13 0 -34.5 -1.5t-51.5 -5.5v-441h-45v598h42v-81q9 2 22 5.5t30 7.5h35q141 0 248 -38.5 t178.5 -109t108 -170t36.5 -222.5q0 -238 -168 -406q-107 -107 -211 -162.5t-204 -55.5q-76 0 -149.5 25.5t-135 63t-106.5 80t-64 75.5q-126 -204 -304 -246v-729q0 -22 4 -41t14.5 -33t29 -22t47.5 -8h812q52 0 99.5 27.5t83.5 73.5t57.5 105.5t21.5 123.5v199h42v-595 h-40v105q-52 -79 -196 -79h-1171v40h78v746q0 42 -20 69t-77 44v105z" />
<glyph unicode="&#x100b;" horiz-adv-x="1214" d="M809 -852v33h62v260v6q0 172 -87 232q-31 21 -80 32t-119 11h-353v362q31 -35 59.5 -60.5t60.5 -43t70 -26.5t89 -10h35h56t53 1q28 0 54 1q29 3 58.5 5t57.5 8t53.5 16.5t47.5 29.5l2 40q-60 -24 -108.5 -33t-92.5 -9h-9q-240 3 -428 183q-189 180 -189 415 q0 212 155 375q152 157 359 157h8q79 -2 145 -15.5t120 -40.5v102h41v-558h-41v379q-56 25 -109.5 38t-109.5 13h-15q-88 0 -170.5 -41t-146.5 -108.5t-102.5 -154t-38.5 -177.5v-10q0 -124 61 -234q68 -123 170.5 -182.5t239.5 -59.5h7q102 2 183 36.5t143 103.5v-276 q-25 -23 -57 -39t-69.5 -26t-78.5 -15t-83 -7q-48 0 -93 1q-38 0 -80 0.5t-71 0.5h-9q-17 0 -29.5 1.5t-25.5 5.5t-29.5 9.5t-41.5 14.5v-126h333q132 0 212 -62q92 -70 92 -195v-244q0 -18 3.5 -34t12.5 -27.5t24 -18t39 -6.5h21q108 0 108 78v206h32v-338h-30v41 q-20 -10 -48.5 -15t-69.5 -5h-253z" />
<glyph unicode="&#x100c;" horiz-adv-x="1116" d="M1029 73l-32 -8q-18 -7 -29 -20q-36 -45 -36 -84v-799h78v-40h-568q-144 0 -197 79v-105h-39v595h42v-199q0 -134 78.5 -232t183.5 -98h209q58 0 76.5 30t18.5 74v737l-76 -6q-246 6 -440 189t-194 427q0 220 158.5 385t378.5 163q162 -3 272 -58v105h42v-574h-42v390 q-112 53 -225 53q-126 0 -238.5 -69.5t-180.5 -188.5t-68 -248q0 -128 63 -241q141 -254 429 -249q210 3 336 144v-152z" />
<glyph unicode="&#x100d;" horiz-adv-x="1279" d="M782 -861v33h62l1 406q0 180 -89 242q-31 21 -80.5 32t-120.5 11h-453v255l1 112q123 -139 329 -142q142 -2 247.5 58t174.5 187q63 111 63 236q1 63 -17 125.5t-51 118.5t-78.5 103.5t-99 81.5t-113.5 52.5t-121 15.5q-56 0 -110 -13t-111 -38v-384h-42v564h42v-103 q54 27 121 41t147 16q215 4 370 -160q158 -161 158 -378q0 -121 -48 -225t-143 -195q-191 -183 -433 -186q-41 -1 -85.5 5.5t-98.5 26.5v-128h432q134 0 217 -61q92 -74 92 -198v-391q0 -38 16 -62.5t63 -24.5h22q109 0 109 78v210h32v-342h-30v41q-40 -20 -120 -20h-255z " />
<glyph unicode="&#x100e;" horiz-adv-x="1308" d="M667 1119h5v6q9 1 18 1h18h15q103 0 190.5 -39.5t162.5 -117.5q79 -81 117 -174t38 -201q0 -120 -47 -222.5t-141 -193.5q-47 -45 -94.5 -78.5t-99.5 -56.5t-109.5 -35t-125.5 -14h-19q-84 0 -146 19.5t-105 45.5t-68 52t-34 39q-61 91 -61 255v395q0 10 6.5 17.5 t16.5 14.5l3 1q12 8 31.5 16t38 14t32.5 10t17 5q35 21 35 50q0 33 -7 50q-16 33 -40 51t-56 18h-7q-71 -2 -101 -63q-15 -30 -23 -54t-8 -44h-22v238h22v-84q66 34 120 34h4q36 -1 68 -12.5t56 -32t38.5 -49t14.5 -61.5t-16 -59t-45 -40q-17 -8 -33 -15.5t-30 -12.5v-353 q0 -82 9.5 -136.5t29.5 -92.5q122 -131 322 -134h10q275 0 409 242q30 55 45.5 113t15.5 121q0 61 -17.5 121.5t-49 115.5t-75 102t-94.5 81t-108.5 53.5t-116.5 19.5l-9 -3v-380h-41v559h41v-102z" />
<glyph unicode="&#x100f;" horiz-adv-x="2207" d="M997 996q0 62 -3 70q-8 29 -52 34q-63 0 -116 -86q-26 -45 -49 -118q-6 -21 -7 -63t-4 -52v-501q0 -212 66 -217q89 0 133 113q32 81 32 186v634zM1107 943q194 218 450 218q239 0 399 -147q167 -155 170 -393q3 -163 -89 -305.5t-236 -229t-309 -86.5h-45q-57 0 -81 21 v-92h-42v440h42v-183q19 -37 71 -69.5t115 -32.5q210 -3 346 154q128 150 131 362q0 81 -37 165q-76 170 -262 270q-76 39 -173 42q-136 2 -257.5 -66t-192.5 -183v-419q0 -152 -63 -268q-79 -141 -218 -141q-170 0 -170 362v463q0 126 -89 223q-97 73 -170 73 q-45 0 -101 -26t-88 -89q-5 -24 -5 -68v-789q0 -65 63 -91q16 -6 65 -11v-47h-338v47h89v763q0 165 97 275q113 102 278 89q79 -8 141.5 -50t123.5 -144q57 102 73 120q55 63 147 63q76 0 120.5 -56t44.5 -145v-19z" />
<glyph unicode="&#x1010;" horiz-adv-x="1866" d="M226 715v-432q0 -60 10 -89q16 -45 107 -118q14 -8 37 -11q24 0 34 3q115 0 191 121q66 104 66 225v550q0 60 -46 97t-109 39q-57 3 -82 -1t-64 -33q-66 -39 -116 -139q-28 -78 -28 -212zM781 969q89 87 181 134q146 55 230 55q268 0 412 -131q157 -141 157 -406 q0 -100 -55 -216.5t-131 -194.5q-186 -194 -375 -200q-65 -2 -88.5 4.5t-84.5 32.5v-118h-42v414h42v-157q63 -63 79 -71q37 -26 102 -26q176 0 333 176q123 138 123 348q0 97 -27.5 171.5t-93.5 137.5q-89 87 -178 118q-55 18 -173 34q-157 19 -280 -103t-123 -279v-283 q0 -95 -121 -244q-133 -165 -254 -165q-50 0 -63 -3q-26 0 -39 6q-63 15 -121 78q-10 11 -60 81q-5 16 -21 55q-8 32 -8 50v446q3 120 71 230q105 168 262 207q47 11 115 13q87 3 157.5 -53.5t73.5 -140.5z" />
<glyph unicode="&#x1011;" horiz-adv-x="1854" d="M226 715v-432q0 -60 10 -89q16 -45 107 -118q14 -8 37 -11q24 0 34 3q115 0 191 121q66 104 66 225v550q0 60 -46 97t-109 39q-57 3 -82 -1t-64 -33q-66 -39 -116 -139q-28 -78 -28 -212zM789 464q0 -176 144 -299q99 -86 191 -86q139 0 194 15.5t163 88.5 q178 121 183 430q3 92 -26 169t-95 140q-89 87 -178 118q-55 18 -173 34q-157 19 -280 -103t-123 -279v-228zM715 236q-123 -231 -301 -236q-26 0 -63 -3q-26 0 -39 6q-63 15 -121 78q-10 11 -60 81q-5 16 -21 55q-8 32 -8 50l3 446q0 120 68 230q105 168 262 207 q47 11 115 13q87 3 157.5 -53.5t73.5 -140.5q89 87 181 134q146 55 230 55q268 0 412 -131q157 -141 157 -406q0 -102 -63 -246q-107 -247 -383 -351q-62 -24 -193 -27q-281 -5 -407 239z" />
<glyph unicode="&#x1012;" horiz-adv-x="775" d="M43 74q36 -19 72 -28.5t79 -9.5q140 0 255.5 128.5t115.5 286.5q0 110 -66 181t-171 71q-49 0 -94 -19t-91 -58l-20 50q50 44 146 74q34 11 46 16q62 25 96 71.5t34 103.5q0 72 -36.5 115t-98.5 43q-71 0 -118 -57.5t-47 -147.5v-8h-41v302h39v-131q41 60 103 91t141 31 q92 0 149.5 -54.5t57.5 -142.5q0 -75 -33.5 -128.5t-109.5 -97.5q125 -20 196 -99t71 -197q0 -188 -154.5 -331t-368.5 -143q-46 0 -87.5 9t-81.5 27z" />
<glyph unicode="&#x1013;" horiz-adv-x="1379" d="M359 228h689q131 141 134 343q2 121 -68 246q-144 260 -419 260q-278 0 -428 -239q-65 -104 -68 -241q-2 -207 155 -364zM985 170h-555q134 -86 291 -89q139 -2 236 68zM1124 228h136v-58h-193q-53 -44 -121 -84q-149 -86 -301 -89q-304 -5 -469 281q-71 123 -74 277 q-2 150 95 304q188 299 545 302q220 2 378.5 -163t158.5 -385q0 -186 -92 -304z" />
<glyph unicode="&#x1014;" horiz-adv-x="1098" d="M480 68v362q0 44 -47.5 79.5t-94.5 38.5q-73 2 -124 -47.5t-51 -125.5q-3 -234 317 -307zM613 -3v-746h134v-37h-398v34h131v752q-118 16 -215 73q-160 97 -163 265q-2 120 79 204t202 84q86 0 158 -49.5t72 -131.5v-403q123 0 226 86q78 68 81 215q2 123 -79 186 q-65 53 -233 108q-113 36 -160 63q-94 47 -120 112q-16 42 -16 95q-3 112 94 186q87 65 202 65q97 0 210 -52v112h47v-440h-47q0 338 -220 338q-184 0 -189 -189q-3 -73 81 -120q34 -18 149 -55q184 -58 285 -140.5t103 -236.5q3 -241 -270 -351q-55 -21 -144 -27z" />
<glyph unicode="&#x1015;" horiz-adv-x="885" d="M789 477q0 -157 -60 -286q-14 -29 -61 -94q-91 -100 -256 -100q-163 0 -247 124q-63 94 -63 262v620q0 53 3 69q0 23 -13 31t-63 13v47h191v-746q0 -349 213 -352q123 -2 180.5 70t57.5 206v657q0 118 -152 118v47h270v-686z" />
<glyph unicode="&#x1016;" horiz-adv-x="897" d="M663 236q-330 228 -330 508v199q0 79 64 149.5t143 70.5h249v-686q0 -157 -60 -286q-14 -29 -61 -94q-91 -100 -256 -100q-163 0 -247 124q-63 94 -63 262v670q0 37 -11.5 47.5t-61.5 15.5v47h191v-746q0 -349 213 -352q183 -2 230 171zM556 1113q-50 0 -84 -58.5 t-34 -111.5v-199q0 -322 233 -403v657q0 71 -29 89l-42 21q-2 0 -44 5z" />
<glyph unicode="&#x1017;" horiz-adv-x="889" d="M453 854l150 252q-24 5 -84 10v47h270v-686q0 -157 -60 -286q-14 -29 -61 -94q-91 -100 -256 -100q-163 0 -247 124q-63 94 -63 262v620q0 53 3 69q0 23 -13 31t-63 13v47h139q102 0 191 -102t94 -207zM543 794q-32 -50 -74 -53q-42 0 -65 61q-24 212 -184 291v-676 q0 -349 213 -352q123 -2 180.5 70t57.5 206v657z" />
<glyph unicode="&#x1018;" horiz-adv-x="1697" d="M875 155q24 -29 65.5 -46t86.5 -23q225 0 372 186q63 82 86.5 171t26.5 170q2 92 -26.5 169t-94.5 140q-81 81 -181 118q-86 32 -175 34q-163 3 -271.5 -94t-126.5 -260v-277q0 -212 -144 -343q-110 -100 -231 -100h-52q-16 0 -63 16v68q10 -8 31 -19q11 -2 37 -5 q29 0 44 3q131 0 202 115q58 97 58 236v550q0 60 -46 97t-109 39q-57 3 -82 -1t-65 -33q-76 -44 -117 -144l-3 -317h-45v624h45v-189q24 29 86 68q84 53 215 55q81 3 150.5 -52t88.5 -134q186 178 401 184q264 5 413 -134q158 -147 158 -406q0 -238 -168 -406 q-212 -212 -409 -218q-102 -2 -157 29v-99h-39v416h39v-188z" />
<glyph unicode="&#x1019;" horiz-adv-x="889" d="M433 45q123 0 180.5 71t57.5 205v256q0 61 -46 97.5t-109 39.5q-57 2 -82 -2t-64 -32q-66 -40 -116 -139q-26 -71 -28 -213q-6 -283 207 -283zM671 745v233q0 118 -152 118v47h270v-686q0 -157 -60 -286q-14 -29 -61 -94q-91 -100 -256 -100q-163 0 -247 124 q-63 94 -63 272v610q0 53 3 69q0 23 -13 31t-63 13v47h191v-521q42 52 119.5 100.5t210.5 53.5q58 3 121 -31z" />
<glyph unicode="&#x101a;" horiz-adv-x="1805" d="M1036 1056v-228h-52v414h52v-115q94 36 152 36q121 3 233 -23q87 -21 165 -97q71 -74 102 -163q27 -78 29 -199q3 -89 -40.5 -233t-147.5 -249q-32 -31 -116 -94q-144 -108 -322 -108q-181 0 -340 121l-40 39l-42 -60q-99 -100 -256 -100q-163 0 -247 124q-63 94 -63 262 v670q0 32 -15.5 49t-70.5 17v44h204v-746q0 -349 215 -352q236 -2 236 276v657q0 118 -152 118v47h270v-739q0 -133 42 -193q102 -145 335 -150q94 -2 215 76q94 60 168 191q65 116 73 365q-8 83 -73.5 180t-139 147t-238.5 55q-81 3 -136 -39z" />
<glyph unicode="&#x101b;" horiz-adv-x="1387" d="M330 257h548q47 0 47 -47q0 -116 -144 -186q-52 -24 -136 -27q-304 -5 -469 281q-71 123 -74 277q-2 150 95 304q186 296 545 302q165 2 262 -63q118 -81 170 -152t76 -157q10 -37 24 -150v-1451h227v-40h-455v40h110v1250q0 34 -13 170q-14 128 -29 181q-24 81 -89 154 q-116 129 -330 134q-126 2 -242.5 -63.5t-183.5 -172.5t-70 -244q-2 -196 131 -340zM860 191h-459q142 -110 320 -110q118 0 139 110z" />
<glyph unicode="&#x101c;" horiz-adv-x="1927" d="M765 675v-111q0 -92 39.5 -170.5t108.5 -146.5q143 -140 350 -143h9q237 0 368 235q30 54 45 110t15 119q0 89 -37.5 175t-100 153.5t-143 108.5t-167.5 41h-14q-94 0 -175 -29v-167h-53v394h53v-124q51 17 106 26t115 9h12q214 0 367 -161q81 -85 120 -180t39 -206 q0 -121 -48.5 -228t-147.5 -201q-97 -92 -206 -139t-233 -49h-9q-148 0 -263.5 69t-196.5 211q-35 62 -50.5 132t-18.5 147v259q0 131 -54.5 201.5t-173.5 70.5h-5q-209 -3 -209 -346v-588q0 -49 33 -73.5t94 -26.5l-2 -46h-330v46q12 1 27 2t29 1h31v719q3 165 63 256 q82 123 243 123q162 0 252 -99q23 -32 38 -54.5t21 -36.5q30 -64 44.5 -134.5t14.5 -148.5z" />
<glyph unicode="&#x101d;" horiz-adv-x="1363" d="M178 288q-24 39 -42 74t-29 70.5t-17 74t-6 85.5v8q0 40 4 74t12.5 65.5t22.5 63t34 67.5q80 140 194.5 210t275.5 70h23q64 0 119 -12t104.5 -35.5t96 -59t94.5 -82.5q49 -48 85.5 -94.5t61.5 -97t37.5 -107t12.5 -124.5v-4q0 -61 -9 -112.5t-28 -98t-49.5 -89.5 t-73.5 -86q-42 -42 -84 -71.5t-87.5 -48.5t-96 -29t-110.5 -13q-9 -1 -18 -1h-18q-168 0 -292.5 77t-216.5 226zM181 550q2 -69 18 -128.5t49 -112.5q76 -121 182 -180t246 -59h14q61 0 120 20t111.5 55t97 83.5t77 104.5t50.5 118t18 125q0 66 -15.5 125t-47.5 116 q-140 249 -390 249h-9q-109 -2 -200.5 -39.5t-168.5 -112.5q-75 -75 -113.5 -162.5t-38.5 -190.5v-11z" />
<glyph unicode="&#x101e;" horiz-adv-x="1697" d="M954 1072v-441h-45v598h42v-81q18 5 52 13h35q269 0 413 -134q158 -147 158 -406q0 -238 -168 -406q-212 -212 -409 -218q-84 -2 -190 41t-172.5 95.5t-98.5 107.5q-154 -241 -309 -241h-52q-16 0 -63 16v68q10 -8 31 -19q11 -2 37 -5q29 0 44 3q113 0 192 123 q68 107 68 228v550q0 60 -46 97t-109 39q-57 3 -82 -1t-65 -33q-76 -44 -117 -144v-317h-48v624h45v-189q24 29 86 68q84 53 215 55q87 3 164 -62.5t77 -152.5v-505q-2 -126 105 -231q58 -55 160 -99q73 -32 126 -32q102 0 204 54t165 135q107 141 113 343q5 178 -121 309 q-173 152 -351 157q-26 0 -86 -7z" />
<glyph unicode="&#x101f;" horiz-adv-x="1829" d="M791 938v-461q0 -157 -60 -286q-13 -29 -60 -94q-92 -100 -257 -100q-162 0 -246 124q-63 94 -63 262v620q0 110 -152 113v47h270v-746q0 -349 215 -352q235 -2 235 276v657q0 118 -152 118v47h270v-152q50 45 139 92q147 55 231 55q238 0 398 -144q168 -152 170 -393 q3 -163 -89 -305.5t-236 -229t-309 -86.5q-47 0 -57 5q-24 24 -69 42v-118h-42v440h42v-183q34 -39 76 -76q34 -26 110 -26q210 -3 346 154q129 150 131 362q0 81 -38 167.5t-106 152.5q-128 125 -327 154q-27 0 -48 3q-175 0 -322 -139z" />
<glyph unicode="&#x1020;" horiz-adv-x="1098" d="M485 1133q32 11 67 15.5t70 4.5q47 0 92.5 -6.5t83.5 -15.5t66.5 -18.5t42.5 -15.5v104h42v-571h-42v389q-57 25 -112 38.5t-112 13.5h-14q-91 0 -175.5 -43.5t-150 -114.5t-105 -161t-39.5 -184q0 -127 62 -240q139 -247 418 -247h10q67 2 130.5 24t124.5 67 q19 15 37 15q21 -2 31 -16t10 -44v-260h-464q-72 0 -123 -11.5t-82 -33.5q-92 -63 -92 -247v-310q0 -92 58 -92h291q126 0 183 19q122 38 122 153v8q-2 54 -21.5 96t-61.5 71q-29 22 -56.5 32t-52.5 10q-35 0 -68 -12t-59.5 -33t-42.5 -49t-16 -60l-36 6q2 37 20 72t53 68 q32 31 68 46.5t72 15.5h3q308 -6 308 -273q0 -212 -415 -219h-505v49h55v475q0 130 94 202q85 64 221 64h443v117q-45 -17 -90 -26t-89 -9h-6q-242 4 -438 189q-192 180 -192 413v11q3 221 159 383q25 27 49.5 47.5t51 37.5t56.5 30.5t66 25.5z" />
<glyph unicode="&#x1021;" horiz-adv-x="1677" d="M821 231h526l11 10q128 128 131 359q0 81 -38 167.5t-106 152.5q-129 125 -328 154q-21 0 -42 3q-235 0 -406 -186q-29 -71 -118 -126q126 -29 192 -107q57 -69 60 -184q2 -141 -84 -267q-42 -60 -144 -128q-155 -84 -273 -84q-89 0 -162 29v41q126 -31 157 -31 q170 0 288 134q21 26 55 78q55 110 58 197q3 102 -81 181q-68 65 -170 68q-45 2 -106.5 -20t-111.5 -59l-16 47q37 32 147 81q134 42 176 82q52 47 52 136q0 105 -97 144q-16 5 -58 10q-41 0 -79 -18t-104 -115q-8 -16 -16 -58v-131h-34v419h29v-141q113 97 244 100 q81 2 146 -58q55 -50 63 -115q210 159 435 162q113 3 214 -32.5t184 -111.5q168 -152 171 -393q2 -160 -88 -305.5t-230.5 -228t-289.5 -84.5q-60 0 -136 36.5t-95 88.5q-7 32 15 66t59 37zM1290 178h-451q68 -89 181 -92q152 -2 270 92z" />
<glyph unicode="&#x1022;" horiz-adv-x="1903" d="M1117 121q7 -6 23 -11.5t38.5 -10t50 -7t57.5 -2.5q52 0 106.5 10.5t98.5 36.5q51 31 91.5 79t68.5 104t43 114.5t15 110.5q0 69 -20.5 139.5t-59.5 142.5q-39 71 -87.5 121.5t-99.5 82.5t-99 47t-85 15q-240 0 -345 -149q-42 -58 -42 -193v-737h-269v47q152 0 152 118 v656q0 274 -229 274q-112 0 -166.5 -85.5t-54.5 -264.5v-456q28 -12 51 -22.5t40 -24.5t26.5 -33.5t9.5 -47.5q0 -35 -14 -64t-38.5 -51t-57.5 -34t-70 -12q-60 0 -128 34v-86h-23v243h23q0 -17 6.5 -44t22.5 -53t41.5 -46t64.5 -21q21 0 41.5 7t36 22t25.5 38t10 55 q0 30 -37 51q-3 1 -17.5 5.5t-33.5 11t-39 14.5t-33 16q-11 8 -17.5 16t-6.5 17v499q0 97 21.5 169t61.5 120t97 71.5t128 23.5q157 0 256 -99l42 -61l39 40q159 120 340 120q44 0 99.5 -12.5t114 -37.5t116 -63t106.5 -88q52 -54 88 -112t58.5 -118.5t32.5 -122.5t10 -123 q0 -52 -7.5 -103.5t-23 -99t-40.5 -89t-60 -74.5q-63 -58 -144.5 -89.5t-176.5 -31.5q-36 0 -70.5 4t-64.5 9.5t-54 12t-39 12.5v-116h-52v414h52v-228z" />
<glyph unicode="&#x1023;" horiz-adv-x="1981" d="M882 -474v-126q0 -66 38 -87q2 0 12 -2.5t28 -8.5v-48h-291v48h93v334q0 50 -21.5 92.5t-68.5 77.5q-95 70 -183 70q-48 0 -82.5 -13.5t-56.5 -47t-32.5 -90t-10.5 -143.5v-181q0 -48 29.5 -73t101.5 -31v-48h-344v48h91q0 38 -0.5 70.5t-0.5 61.5q0 100 1.5 156t3.5 84 t4 36t4 13q0 1 0.5 1.5t0.5 1.5q12 40 41 77t71.5 66t96.5 46.5t116 17.5q41 0 82.5 -9.5t82 -31.5t78.5 -58.5t71 -89.5l5 -10q6 -11 11 -18q38 47 88 86.5t106.5 67.5t116.5 43.5t118 15.5q77 0 148 -27t126 -76t89.5 -116t37.5 -146v-9.5v-6.5t-0.5 -7t-0.5 -11 q0 -20 -6.5 -47.5t-19.5 -57t-33 -58.5t-46.5 -52.5t-59.5 -38.5t-73 -16q-47 2 -71.5 6.5t-40.5 12.5q0 -4 -0.5 -7.5t-0.5 -6.5q0 -25 6 -40t18.5 -24t31 -13t42.5 -6h184v-57h-281q-38 4 -43 77v265h43v-29q0 -17 6.5 -38t19.5 -39t31 -30t41 -12h9.5t9.5 2 q37 9 64.5 30.5t45 50t25 61t6.5 62.5q-5 92 -48.5 165t-134.5 119q-50 25 -89.5 33.5t-74.5 8.5q-361 0 -361 -320zM888 680v-556q0 -67 37 -89q2 0 12 -2.5t28 -7.5v-48h-290v48h93v844q0 41 -23.5 85t-62 80t-86 59.5t-95.5 23.5q-38 0 -79 -22q-36 -12 -57.5 -27 t-33.5 -35t-15.5 -45t-3.5 -58v-802q0 -47 28.5 -72t102.5 -31v-48h-344v48h91v775q0 166 98 279q69 80 283 80q53 0 104 -22.5t111 -78.5l72 -114l102 87q17 15 43 30.5t60 36.5q150 56 235 56q141 0 249 -37t180.5 -107.5t110 -172t37.5 -229.5q0 -51 -15 -108t-41 -112.5 t-60 -106.5t-73 -91q-53 -55 -104 -94t-102 -63.5t-102.5 -35.5t-106.5 -11q-23 0 -37 1t-26.5 4.5t-28 10t-39.5 18.5l-10 5v-120h-43v421h43v-160q32 -32 52 -49.5t28 -22.5q19 -13 44 -20t60 -7q49 0 102.5 16.5t105 48.5t97.5 78t81.5 105.5t56 131t20.5 153.5 q0 98 -28 173.5t-95 140.5q-41 39 -73 64t-70 42t-88 27.5t-125 21.5q-11 2 -21 2h-21q-74 0 -140.5 -34.5t-117 -90t-80.5 -125.5t-30 -141z" />
<glyph unicode="&#x1024;" horiz-adv-x="2130" d="M1441 -312v312h39v-605h-39v97q5 86 -101 166t-195 80q-120 0 -203 -81t-85 -202q-3 -134 83.5 -210t220.5 -76h293q113 0 210 137q89 123 89 249v1058q0 97 -27.5 171.5t-93.5 137.5q-89 87 -178 118q-55 18 -173 34q-157 19 -280 -103t-123 -279v-548q0 -65 37 -86 q2 0 39 -11v-47h-286v47h92v831q0 94 -97 175q-79 66 -157 68q-42 3 -87 -21q-89 -31 -102 -94q-5 -24 -5 -68v-789q0 -65 63 -91q16 -6 65 -11v-47h-338v47h89v763q0 165 97 275q94 81 278 78q60 0 121 -31q41 -21 91 -68l71 -113q31 29 100 87q36 26 102 65q146 55 230 55 q414 0 537 -314q42 -108 42 -223v-1072q3 -188 -108.5 -307.5t-297.5 -119.5h-293q-165 0 -283 82q-131 91 -131 251q0 155 128 249q113 84 275 86q134 3 291 -102zM2114 -880h-366v47h152q57 2 57 94v1701q0 144 -63 193q-31 21 -125 66q-289 136 -329.5 207t-40.5 139 q0 136 97 204t239 68h31q121 0 231 -47v87h31v-467h-31v254q-34 50 -102.5 88t-128.5 38q-110 0 -186 -63t-76 -167q0 -50 18 -84q50 -92 268 -205q36 -18 167 -78q102 -63 102 -160v-1866h55v-49z" />
<glyph unicode="&#x1025;" horiz-adv-x="1060" d="M32 225q126 -141 336 -144q288 -5 429 249q63 113 63 241q0 129 -68 248t-180.5 188.5t-238.5 69.5q-113 0 -225 -53v-390h-42v574h42v-105q110 55 272 58q220 2 378.5 -163t158.5 -385q0 -244 -194 -427t-440 -189l-76 6v-737q0 -44 18.5 -74t76.5 -30h209 q105 0 183.5 98t78.5 232v199h42v-595h-39v105q-53 -79 -197 -79h-568v40h78v799q0 39 -36 84q-11 13 -29 20l-32 8v152z" />
<glyph unicode="&#x1026;" horiz-adv-x="1276" d="M799 1360h71v-42h-92q-31 -42 -61 -67t-85 -56l-87 -29q-25 -5 -52 -10q174 -22 305 -158q159 -165 159 -385q0 -244 -194 -427t-440 -189l-76 6v-737q0 -44 18.5 -74t76.5 -30h209q105 0 183.5 98t78.5 232v199h42v-595h-39v105q-53 -79 -197 -79h-568v40h78v799 q0 39 -36 84q-11 13 -29 20l-32 8v152q126 -141 336 -144q288 -5 429 249q63 113 63 241q0 129 -68 248t-180.5 188.5t-238.5 69.5q-113 0 -225 -53v-390h-42v574h42v-105q89 44 211 55q-69 13 -115 50q-19 13 -53 42q-39 39 -55 78q-13 19 -28 71q-8 39 -8 92q0 52 21 107 q23 87 102 165q60 61 173 95q57 18 94 15q68 -2 102 -13q63 -8 134 -71q34 -31 65 -78q19 -26 34 -97q8 -63 11 -113q3 -57 -37 -141zM257 1360h461l11 23q15 34 15 113q0 29 -2 39q-13 79 -53 126q-29 34 -97 89q-70 39 -136 39q-47 0 -68 -5q-97 -13 -152 -123 q-34 -65 -37 -144q0 -37 14.5 -77.5t43.5 -79.5zM697 1318h-409q24 -26 76.5 -46t89 -24t57.5 -6q84 0 123 29q42 18 63 47z" />
<glyph unicode="&#x1027;" horiz-adv-x="1209" d="M996 943l-29 29q-102 102 -291 102q-183 0 -322 -131h642zM370 215h613q57 0 60 -39q0 -16 -1.5 -24t-14.5 -18.5t-42 -31.5q-73 -55 -201 -89q-45 -10 -113 -13q-238 -5 -398 144q-168 157 -171 393q-2 160 92 309q87 139 232 225.5t310 86.5q200 0 325 -126 q55 -55 55 -97q0 -23 -18 -44q-3 -3 -21 -13h-778q-100 -134 -100 -320q0 -92 34 -168q40 -89 110 -152zM970 162h-530q108 -62 231 -78q26 0 47 -3q128 0 252 81z" />
<glyph unicode="&#x1028;" horiz-adv-x="998" d="M669 452q-16 -14 -37.5 -23.5t-45 -12.5t-45.5 2t-38.5 20t-25 40.5t-3.5 65.5q16 26 28 52q11 21 20 43.5t9 36.5v46q0 80 -68 80q-33 0 -66 -37q-14 -17 -24 -34t-16 -36v-139h-27v281h27v-44q32 38 98 41q55 0 101 -31q52 -33 52 -87v-53q0 -17 -10 -40t-21 -44 q-14 -25 -31 -51q6 -26 18 -35t25 -7.5t26.5 10.5t22.5 19q31 32 59.5 67t48.5 74t30 83.5t5 95.5q-5 52 -17.5 89.5t-44.5 78.5q-65 83 -148 83h-168q-188 0 -188 -351v-1231q0 -173 63 -249q78 -94 207 -97q172 -3 272 81q69 58 98.5 140.5t29.5 179.5v47h32v-500h-32v115 q-163 -107 -403 -113q-87 -2 -176 42q-207 102 -207 367v1263q0 143 71 246q79 118 218 118h193q117 0 212 -96q95 -95 98 -213q1 -56 -19 -104.5t-51 -104.5q-17 -29 -33 -51.5t-34 -42t-38.5 -38.5t-46.5 -42z" />
<glyph unicode="&#x1029;" horiz-adv-x="1936" d="M1454 -47h-175v47h505v-47h-147q76 -39 76 -150v-272q0 -68 -43 -149.5t-98 -125.5q-118 -94 -231 -94h-1126q-66 0 -114.5 55t-48.5 123v2324q0 73 -10.5 96.5t-46.5 26.5v47h1226q131 0 194 -89l-95 -84q-23 63 -157 100q-99 26 -194 26h-799v-2377q0 -199 215 -199 h928q152 0 254 163q36 57 36 196v231q0 37 -10.5 60.5t-28.5 46.5q-29 37 -110 45zM1184 1072l-3 -441h-42v598h42v-81q18 5 52 13h35q269 0 413 -134q158 -147 158 -406q0 -238 -168 -406q-212 -212 -409 -218q-84 -2 -190 41t-172.5 95.5t-98.5 107.5q-154 -241 -309 -241 h-52q-16 0 -63 16v68q10 -8 31 -19q11 -2 37 -5q29 0 44 3q113 0 192 123q68 107 68 228v550q0 60 -46 97t-109 39q-57 3 -82 -1t-65 -33q-76 -44 -117 -144l-3 -317h-45v624h45v-189q24 29 86 68q84 53 215 55q87 3 164 -62.5t77 -152.5l-2 -505q0 -126 107 -231 q58 -55 160 -99q73 -32 126 -32q102 0 204 54t165 135q107 141 113 343q5 178 -121 309q-173 152 -351 157q-26 0 -86 -7z" />
<glyph unicode="&#x102a;" horiz-adv-x="5141" d="M2664 -47h-175v47h505v-47h-147q76 -39 76 -150v-272q0 -68 -43 -149.5t-98 -125.5q-118 -94 -231 -94h-1126q-66 0 -114.5 55t-48.5 123v2324q0 73 -10.5 96.5t-46.5 26.5v47h1226q131 0 194 -89l-95 -84q-23 63 -157 100q-99 26 -194 26h-799v-2377q0 -199 215 -199 h928q152 0 254 163q36 57 36 196v231q0 37 -10.5 60.5t-28.5 46.5q-29 37 -110 45zM2394 1072v-441h-45v598h42v-81q18 5 52 13h35q269 0 413 -134q158 -147 158 -406q0 -238 -168 -406q-212 -212 -409 -218q-84 -2 -190 41t-172.5 95.5t-98.5 107.5q-154 -241 -309 -241 h-52q-16 0 -63 16v68q10 -8 31 -19q11 -2 37 -5q29 0 44 3q113 0 192 123q68 107 68 228v550q0 60 -46 97t-109 39q-57 3 -82 -1t-65 -33q-76 -44 -117 -144v-317h-48v624h45v-189q24 29 86 68q84 53 215 55q87 3 164 -62.5t77 -152.5v-505q-2 -126 105 -231q58 -55 160 -99 q73 -32 126 -32q102 0 204 54t165 135q107 141 113 343q5 178 -121 309q-173 152 -351 157q-26 0 -86 -7zM1103 202q-212 -197 -432 -202q-238 -5 -398 144q-168 157 -171 393q-2 160 92 309q87 139 232 225.5t310 86.5q121 0 231 -47v118h42v-624h-42v367 q-110 102 -291 102q-209 0 -341.5 -152t-135.5 -364q-2 -155 123 -296h760q26 0 29 -29q0 -18 -1.5 -22t-6.5 -9zM391 196q115 -94 280 -112q26 0 50 -3q154 0 293 115h-623zM4038 1884v-467h-31v255q-102 94 -220 96q-118 3 -173 -20q-113 -32 -155 -150q-15 -42 -15 -110 q0 -113 112 -236q58 -63 129 -81q23 -5 78 -13v-5q56 -8 111 -28q106 -38 184 -111q168 -155 171 -393q2 -163 -89.5 -305.5t-235.5 -229t-309 -86.5h-45q-57 0 -81 21v-92h-42v440h42v-183q18 -37 70.5 -69.5t115.5 -32.5q210 -3 346 154q128 150 131 362q0 81 -37 165 q-76 170 -262 270q-78 42 -173 42h-31q-194 0 -337 -131t-145 -325l-87 26q45 212 215 361q115 102 251 136q-22 14 -40 32q-126 116 -129 294q-2 97 63 194q50 73 123 118q66 57 244 57q134 -5 220 -42v87h31z" />
<glyph unicode="&#x102b;" horiz-adv-x="389" d="M344 0h-356v37h104v1378q0 361 -220 347q-91 17 -194 -85q-81 -102 -81 -226q0 -73 33 -133t122 -102q50 -16 94 -19q29 -2 68 16l19 -34q-55 -31 -150 -34q-136 -3 -220 97q-29 37 -38 84t-17 94q0 73 36.5 162.5t89.5 136.5q131 112 238 98q213 22 304 -211 q32 -79 32 -173v-1299q0 -92 68 -97h68v-37z" />
<glyph unicode="&#x102c;" horiz-adv-x="1117" d="M1032 621q2 -163 -89.5 -305.5t-235.5 -229t-309 -86.5h-45q-57 0 -81 21v-92h-42v440h42v-183q18 -37 70.5 -69.5t115.5 -32.5q210 -3 346 154q128 150 131 362q0 81 -37 165q-76 170 -262 270q-78 42 -173 42h-31q-194 0 -337 -131t-145 -325l-87 26q45 212 215 361.5 t385 152.5q108 2 214 -36t184 -111q168 -155 171 -393z" />
<glyph unicode="&#x102d;" d="M-770 1491q0 52 21 107q23 87 102 165q60 61 173 95q57 18 94 15q68 -2 102 -13q63 -8 134 -71q34 -31 65 -78q19 -26 34 -97q8 -66 11 -113q3 -86 -55 -173q-32 -47 -68 -78q-26 -21 -81 -53q-40 -15 -85.5 -27t-95.5 -20q-134 0 -207 58q-19 13 -53 42q-39 39 -55 78 q-13 19 -28 71q-8 39 -8 92zM-671 1517q-2 -102 97 -199q60 -58 176 -74q18 0 39 -2q79 0 123 29q66 44 95 112q15 37 15 113q0 29 -2 39q-13 79 -53 126q-29 34 -97 89q-70 39 -136 39q-47 0 -68 -5q-97 -13 -152 -123q-34 -68 -37 -144z" />
<glyph unicode="&#x102e;" d="M-613 1360h461l11 23q15 34 15 113q0 29 -2 39q-13 79 -53 126q-29 34 -97 89q-70 39 -136 39q-47 0 -68 -5q-97 -13 -152 -123q-34 -65 -37 -144q0 -37 14.5 -77.5t43.5 -79.5zM-173 1318h-409q24 -26 76.5 -46t89 -24t57.5 -6q84 0 123 29q42 18 63 47zM-71 1360h71 v-42h-92q-31 -42 -61 -67t-85 -56l-87 -29q-44 -8 -94 -16q-134 0 -207 58q-19 13 -53 42q-39 39 -55 78q-13 19 -28 71q-8 39 -8 92q0 52 21 107q23 87 102 165q60 61 173 95q57 18 94 15q68 -2 102 -13q63 -8 134 -71q34 -31 65 -78q19 -26 34 -97q8 -63 11 -113 q3 -57 -37 -141z" />
<glyph unicode="&#x102f;" d="M-58 -904h-36v50q-47 -24 -144 -24h-307v40h79v746q0 40 -12 57t-30 17h-37v36h197v-752q0 -44 18 -74t76 -30h26q131 0 131 94v251h39v-411z" />
<glyph unicode="&#x1030;" d="M84 -904h-37v50q-47 -24 -144 -24h-79q-65 0 -107 47.5t-42 109.5v739h118v-752q0 -42 26 -72t68 -32h27q47 0 89 26t42 68v251h39v-411zM-534 -878v768q0 44 -6 58q-10 23 -47 26h-52v44h222v-896h-117z" />
<glyph unicode="&#x1031;" horiz-adv-x="1204" d="M1103 202q-212 -197 -432 -202q-238 -5 -398 144q-168 157 -171 393q-2 160 92 309q87 139 232 225.5t310 86.5q121 0 231 -47v118h42v-624h-42v367q-110 102 -291 102q-209 0 -341.5 -152t-135.5 -364q-2 -155 123 -296h760q26 0 29 -29q0 -18 -1.5 -22t-6.5 -9z M391 196q115 -94 280 -112q26 0 50 -3q154 0 293 115h-623z" />
<glyph unicode="&#x1032;" d="M-128 1234l-66 -65l-529 529l65 65z" />
<glyph unicode="&#x1033;" d="M-926 1491q0 52 21 107q23 87 102 165q60 61 173 95q57 18 94 15q68 -2 102 -13q63 -8 134 -71q34 -31 65 -78q19 -26 34 -97q8 -66 11 -113q3 -86 -55 -173q-32 -47 -68 -78q-26 -21 -81 -53q-40 -15 -85.5 -27t-95.5 -20q-134 0 -207 58q-19 13 -53 42q-39 39 -55 78 q-13 19 -28 71q-8 39 -8 92zM-827 1517q-2 -102 97 -199q60 -58 176 -74q18 0 39 -2q79 0 123 29q66 44 95 112q15 37 15 113q0 29 -2 39q-13 79 -53 126q-29 34 -97 89q-70 39 -136 39q-47 0 -68 -5q-97 -13 -152 -123q-34 -68 -37 -144zM-711 1501q0 91 100 147 q44 25 114 28q35 2 66.5 -23t31.5 -64v-75q0 -52 -52.5 -114t-105.5 -62h-35q-36 0 -54 13q-36 23 -57 58q-6 9 -7 28.5t-3 22.5q0 29 2 41zM-629 1452q0 -63 37 -83h35q74 0 74 127v72q0 72 -46 78q-38 0 -69 -25q-10 -10 -23 -48q-4 -25 -8 -67v-54z" />
<glyph unicode="&#x1034;" d="M-328 1763l65 -65l-529 -529l-66 65z" />
<glyph unicode="&#x1035;" d="M-814 1230q-109 99 -112 253q0 53 15.5 102t44.5 97q28 45 66 81.5t83 62.5t95.5 40.5t103.5 14.5q69 0 132 -24v68h38v-413h-38v238q-32 26 -73.5 40.5t-95.5 14.5q-124 0 -205 -90q-77 -90 -80 -220q-3 -87 70 -172h467q16 0 22.5 -8t8.5 -19v-2v-8v-8q-2 -3 -2.5 -4.5 t-2.5 -3.5l-2 -2l-2 -3q-135 -124 -276 -129q-154 -3 -257 94zM-526 1210q19 0 43 6t49 15t48.5 20.5t40.5 23.5l-380 3q15 -10 35.5 -20.5t43 -20t46 -16.5t43.5 -9h15.5t15.5 -2z" />
<glyph unicode="&#x1036;" d="M-582 1472q0 113 125 184q55 31 142 34q44 3 83.5 -28.5t39.5 -79.5v-94q0 -65 -65.5 -142.5t-131.5 -77.5h-44q-45 0 -68 16q-45 29 -71 73q-8 11 -9 35.5t-4 27.5q0 37 3 52zM-480 1410q0 -79 47 -103h44q92 0 92 158v91q0 89 -57 97q-48 0 -87 -31q-13 -13 -29 -60 q-5 -32 -10 -84v-68z" />
<glyph unicode="&#x1037;" d="M-642 -440q0 113 125 184q55 31 142 34q44 3 83.5 -28.5t39.5 -79.5v-94q0 -65 -65.5 -142.5t-131.5 -77.5h-44q-45 0 -68 16q-45 29 -71 73q-8 11 -9 35.5t-4 27.5q0 37 3 52zM-540 -502q0 -79 47 -103h44q92 0 92 158v91q0 89 -57 97q-48 0 -87 -31q-13 -13 -29 -60 q-5 -32 -10 -84v-68z" />
<glyph unicode="&#x1038;" horiz-adv-x="615" d="M95 247q3 42 6.5 52.5t27.5 47.5q18 29 42 52q92 76 207 76q50 0 89 -31.5t39 -80.5v-152q0 -69 -70.5 -150t-136.5 -81h-81q-50 0 -110 92q-16 23 -16 102v37q0 10 3 36zM189 127q0 -45 58 -102q8 -3 52 -6q53 -2 81.5 50t28.5 118v149q0 50 -10.5 73.5t-41.5 28.5 q-63 0 -113 -34q-55 -18 -55 -152v-125zM95 915q3 42 6.5 52.5t27.5 47.5q18 29 42 52q92 76 207 76q50 0 89 -31.5t39 -80.5v-152q0 -68 -70.5 -149.5t-136.5 -81.5h-81q-50 0 -110 92q-16 23 -16 102v37q0 10 3 36zM189 795q0 -45 58 -102q8 -3 52 -6q53 -2 81.5 50.5 t28.5 117.5v149q0 50 -10.5 73.5t-41.5 29.5q-63 0 -113 -34q-55 -19 -55 -152v-126z" />
<glyph unicode="&#x1039;" horiz-adv-x="430" d="M430 1026h-55v-1036h-66v1036h-87v-1036h-65v637q-76 8 -116.5 77.5t-40.5 170.5q0 111 44.5 183.5t139.5 72.5h246v-105z" />
<glyph unicode="&#x103a;" d="M-224 1884v-467h-31v255q-102 94 -220 96q-118 3 -173 -20q-113 -32 -155 -150q-15 -42 -15 -110q0 -113 112 -236q58 -63 129 -81q23 -5 78 -13v-63q-89 0 -139 11q-81 15 -138 70q-126 116 -129 294q-2 97 63 194q50 73 123 118q66 57 244 57q134 -5 220 -42v87h31z " />
<glyph unicode="&#x103b;" horiz-adv-x="202" d="M-201 -42q-81 -126 -87 -315q-2 -96 6 -157q0 -44 97 -147.5t144 -106.5q36 -3 36 58v1653q0 29 -1 46t-21 45.5t-34 28.5t-22 3v47h183v-1823q0 -139 -97 -142q-84 -2 -239.5 129t-155.5 209q0 131 -6 173q0 170 87 299h-176v39h412v-39h-126z" />
<glyph unicode="&#x103c;" horiz-adv-x="411" d="M692 -26h-176v47h506v-47h-147q76 -42 76 -171v-272q0 -68 -43 -149.5t-98 -125.5q-118 -94 -231 -94h-314q-66 0 -114.5 55t-48.5 123v2324q0 73 -10.5 96.5t-46.5 26.5v47h807q36 0 63.5 -10.5t56.5 -41.5v159h47v-568h-47v92q0 209 -112 275q-82 47 -312 47h-328 v-2377q0 -199 215 -199h115q152 0 255 163q36 57 36 196v231q0 73 -34 115q-57 58 -115 58z" />
<glyph unicode="&#x103d;" d="M-1033 -459q0 186 144 323q97 91 222 115q61 10 137 13q89 3 159.5 -55t70.5 -144v-273q0 -112 -127 -260t-240 -148q-60 0 -81 -3q-44 0 -65 5q-66 8 -134 82q-21 23 -60 78q-26 37 -26 184v83zM-923 -453q0 -129 5 -165q13 -90 68 -145q37 -36 51.5 -45.5t55.5 -14.5 q50 0 76 3q97 0 181 123q76 110 76 223v267q0 60 -45.5 96.5t-108.5 39.5q-118 5 -194 -39q-42 -24 -74 -60q-15 -19 -53 -76.5t-38 -206.5z" />
<glyph unicode="&#x103e;" d="M-863 -3h270v-471q0 -181 -79 -307q-94 -146 -264 -149q-32 0 -53 5q-47 0 -70 50q-6 16 -8 31q0 84 94 74q37 -3 58 -51.5t42 -43.5q107 24 141 129q21 65 21 204v367q0 47 -12 66.5t-54 38.5q-28 5 -86 10v47z" />
<glyph unicode="&#x103f;" horiz-adv-x="2324" d="M587 189q-152 -189 -275 -189h-52q-16 0 -63 16v68q10 -8 31 -19q11 -2 37 -5q29 0 44 3q113 0 192 123q68 107 68 228v550q0 60 -46 97t-109 39q-57 3 -82 -1t-65 -33q-76 -44 -117 -144l-3 -317h-45v624h45v-189q24 29 86 68q84 53 215 55q87 3 164 -62.5t77 -152.5 v-589q0 -113 3 -131q10 -71 63 -110q65 -50 112 -50q126 -3 202 113q68 102 68 233v550q0 42 -28.5 77.5t-70.5 35.5q-32 0 -54 -27.5t-22 -106.5v-338h-45v624h45v-68h70q84 0 153.5 -58t69.5 -155v-505q0 -126 108 -231q57 -55 159 -99q74 -32 126 -32q102 0 204.5 54 t165.5 135q107 141 112 343q6 178 -120 309q-173 152 -351 157q-27 0 -87 -7v-441h-44v598h42v-81q18 5 52 13h34q270 0 414 -134q157 -147 157 -406q0 -238 -167 -406q-213 -212 -409 -218q-84 -2 -190 41t-173 95.5t-98 107.5q-150 -244 -330 -244q-79 0 -110 19 q-111 55 -163 173z" />
<glyph unicode="&#x1040;" horiz-adv-x="1401" d="M729 67q83 11 160 57t136 114t94 151.5t35 170.5v8q0 128 -62 240q-131 233 -360 247l-13 80q49 -6 93 -20.5t84.5 -37.5t79.5 -54.5t79 -70.5q49 -48 85.5 -94.5t61 -96.5t37 -106.5t12.5 -124.5v-4q0 -60 -9 -111.5t-28 -97.5t-49 -88.5t-73 -85.5q-42 -42 -83.5 -71.5 t-86.5 -48.5t-95.5 -28.5t-110.5 -12.5q2 19 6 40t7 45zM177 542q2 -69 18 -127.5t49 -111.5q130 -209 358 -234q3 -25 6.5 -45.5t7.5 -39.5q-144 14 -252 89.5t-190 208.5q-24 39 -42 74t-29 70t-17 73.5t-6 84.5v8q0 40 4 73.5t12.5 65t22.5 62.5t34 66q78 137 190.5 205 t269.5 75q-4 -20 -7.5 -43.5t-7.5 -49.5q-154 -27 -269 -142q-75 -74 -113.5 -161.5t-38.5 -189.5v-11z" />
<glyph unicode="&#x1041;" horiz-adv-x="1117" d="M198 1024v-390h-42v574h42v-105q110 55 272 58q220 2 378.5 -163t158.5 -385q0 -241 -195 -425.5t-439 -190.5q-157 -2 -291 89v147q150 -149 336 -152q288 -5 429 249q63 113 63 241q0 129 -68 248t-180.5 188.5t-238.5 69.5q-113 0 -225 -53z" />
<glyph unicode="&#x1042;" horiz-adv-x="931" d="M816 1127h-84v-1515q0 -105 -29 -173q-31 -99 -117.5 -162t-194.5 -66q-115 -2 -206.5 68.5t-94.5 183.5q-3 65 38 134.5t98 101.5l21 -29q-57 -73 -60 -173q-3 -89 56 -160t148 -71q226 0 226 365v1407q0 44 -29 65q-8 8 -89 24h-139v36h456v-36z" />
<glyph unicode="&#x1043;" horiz-adv-x="797" d="M113 126q89 -66 192 -66q133 0 209 116q66 99 66 238v550q0 60 -46 97t-109 39q-57 3 -82 -1t-65 -33q-76 -44 -117 -144v-317h-48v624h45v-189q24 29 86 68q84 53 215 55q87 3 164 -62.5t77 -152.5v-505q0 -81 -42 -176q-31 -71 -57 -105q-53 -68 -89 -94 q-89 -63 -220 -68l293 -760q16 -39 63 -65q18 -8 63 -13h42v-40h-333v40h79l-289 746q0 55 -36 84q-11 11 -48 26q-2 0 -13 3v105z" />
<glyph unicode="&#x1044;" horiz-adv-x="1214" d="M907 58q-42 -19 -121 -45q-50 -10 -115 -13q-238 -5 -398 144q-168 157 -171 393q-2 160 92 309q87 139 232 225.5t310 86.5q121 0 231 -47v118h42v-624h-42v367q-110 102 -291 102q-209 0 -341.5 -152t-135.5 -364q-2 -173 144 -320q126 -125 328 -154q26 0 47 -3 q197 0 362 181l39 -42q-178 -377 -383 -644q-86 -113 -220 -257q-159 -171 -243 -226q-34 -15 -76 -20q-53 0 -79 36q-13 16 -16 47q0 87 82 89q5 0 31 -15.5t42 -15.5q21 0 45 16q188 128 387 416q163 236 218 412z" />
<glyph unicode="&#x1045;" horiz-adv-x="916" d="M223 773v-440q0 -66 63 -92q16 -5 65 -10q47 7 58 99q3 66 3 131q2 97 -58 191.5t-131 120.5zM789 -388q0 -105 -29 -173q-31 -99 -117.5 -162t-194.5 -66q-115 -2 -206.5 68.5t-94.5 183.5q-3 65 38 134.5t98 101.5l21 -29q-58 -73 -60 -173q-3 -89 56 -160t148 -71 q226 0 226 365v1407q0 44 -26.5 66.5t-167.5 22.5q-142 0 -223 -74q-16 -15 -25 -46.5t-9 -68.5v-94q113 -27 199 -144.5t86 -233.5q0 -283 -157 -283h-249v627q0 104 34 180q58 131 179 155q76 16 162 16h396v-34h-84v-1515z" />
<glyph unicode="&#x1046;" horiz-adv-x="1013" d="M713 1045v66h39v-414h-39v204q-42 157 -157 157h-29q-29 0 -50 -23.5t-21 -93.5v-147q0 -147 139 -210q210 -97 241 -128q50 -50 58 -113v-212q0 -131 -205 -131h-482q-105 0 -105 134v1289q0 146 71 251q105 152 312 157q92 3 204 -23q100 -21 199 -89v115h32v-500h-32 v47q0 204 -128 319q-86 79 -272 82q-124 2 -207 -97q-63 -76 -63 -249v-1258q0 -123 89 -123h398q45 0 68 63q3 16 11 65v150q0 36 -19 57q-44 53 -262 184q-160 97 -160 202v151q0 53 -2 69q0 110 173 110h55q55 0 86.5 -14.5t57.5 -46.5z" />
<glyph unicode="&#x1047;" horiz-adv-x="1363" d="M152 778q18 45 42 81q91 139 235 226q124 73 310 76q165 2 262 -63q117 -81 172 -155q76 -102 84 -272v-42q-2 -11 -5 -26q-23 -121 -139 -310q-194 -317 -228 -385q-118 -233 -118 -403q0 -163 97 -281q16 -15 37 -18q31 8 52 8q42 0 63 -37q6 -10 8 -31q0 -50 -52 -66 q-19 -7 -63 -7q-47 0 -97 45.5t-68 92.5q-39 97 -42 247q-3 191 105 442q47 113 199 401q110 210 118 254q0 27 5 82q0 191 -105 304q-123 131 -333 136q-193 2 -351 -142q-36 -34 -76 -97q-112 -183 -112 -537v-29h-40v891h40v-385z" />
<glyph unicode="&#x1048;" horiz-adv-x="916" d="M351 0h-249v810q0 165 97 275q95 81 270 81q68 -3 129 -34q102 -53 162 -181q21 -52 23.5 -94t5.5 -61v-652q0 -65 37 -86q2 0 39 -11v-47h-286v47h92v831q0 94 -97 175q-79 66 -157 68q-42 3 -109 -24.5t-80 -90.5q-5 -24 -5 -68v-94q118 -37 201.5 -147t83.5 -231v-188 q0 -118 -23 -178q-39 -100 -134 -100zM223 773v-624q0 -65 63 -91q18 -8 65 -11q40 -2 55 94q6 35 6 131v189q0 94 -52.5 182t-136.5 130z" />
<glyph unicode="&#x1049;" horiz-adv-x="1013" d="M930 -880h-32v115q-162 -107 -403 -113q-87 -2 -176 42q-207 102 -207 367v1263q0 144 71 246q79 118 218 118h193q118 0 212.5 -95.5t97.5 -213.5q2 -113 -70 -208.5t-182 -132.5q-73 -23 -129.5 -107t-56.5 -163v-68q0 -118 100 -118q49 0 97 55q42 48 60 103v204h39 v-414h-39v65q-50 -57 -144 -60q-81 -2 -150 45q-76 50 -76 128v79q0 99 87 194q78 86 181 120q167 55 173 278q2 86 -62 168.5t-148 82.5h-168q-188 0 -188 -351v-1231q0 -173 63 -249q78 -94 207 -97q172 -3 272 81q68 58 98 140.5t30 179.5v47h32v-500z" />
<glyph unicode="&#x104a;" horiz-adv-x="500" d="M178 47v894l-92 -108l-31 32l278 327l31 -31l-68 -76v-930q0 -95 84 -113l34 5v-47h-354v47h118z" />
<glyph unicode="&#x104b;" horiz-adv-x="894" d="M60 0v47h118v894l-92 -108l-31 32l278 327l31 -31l-68 -76v-930q0 -108 92 -108h123v894l-92 -108l-31 32l277 327l32 -31l-68 -76v-930q0 -108 84 -108h34v-47h-687z" />
<glyph unicode="&#x104c;" horiz-adv-x="1073" d="M341 1155l-27 21q-125 100 -128 294q-3 97 63 194q50 73 123 118q60 42 291 49q86 3 173 -34v87h31v-467h-31v255q-102 94 -220 96q-118 3 -173 -20q-113 -32 -155 -150q-16 -42 -16 -110q0 -113 113 -236q37 -39 89 -68q34 -13 118 -26v-18q123 -34 225 -142 q158 -165 160 -385q3 -241 -193.5 -425.5t-440.5 -190.5q-91 -2 -186 34v-117h446q136 0 222 -63q95 -74 95 -205v-477h55v-49h-509q-416 5 -416 220q0 267 309 272q76 3 145.5 -61.5t71.5 -140.5l-36 -5q0 66 -59 110.5t-127 44.5q-53 0 -110 -42q-82 -60 -84 -168 q-3 -123 123 -162q58 -19 183 -19h294q57 0 57 92v312q0 186 -91 249q-63 44 -207 44h-467v262q0 58 42 61q16 0 37 -16q123 -89 257 -92q288 -2 429 249q63 113 63 241q0 129 -68 248t-180.5 188.5t-238.5 69.5q-113 0 -225 -53v-390h-42v574h42v-105q76 34 173 52z" />
<glyph unicode="&#x104d;" horiz-adv-x="1110" d="M412 272v189q0 94 -52.5 182t-136.5 130v-624q0 -65 63 -91q18 -8 65 -11q40 -2 55 94q6 35 6 131zM789 -734h-118v1612q0 94 -97 175q-79 66 -157 68q-42 3 -87 -21q-89 -31 -102 -94q-5 -24 -5 -68v-94q118 -37 201.5 -147t83.5 -231v-188q0 -118 -23 -178 q-39 -100 -134 -100h-249v810q0 165 97 275q68 78 278 78q60 0 121 -31q41 -21 91 -68l71 -113q21 -52 23.5 -94t5.5 -61v-1530zM540 -878q-417 3 -417 218q0 267 310 272q75 3 144.5 -61.5t72.5 -140.5l-37 -5q0 66 -59 110.5t-127 44.5q-52 0 -110 -42q-81 -60 -84 -168 q-2 -123 124 -162q57 -19 183 -19h293q58 0 58 92v1701q0 131 -26 178t-131 86l-168 66q-113 49 -162 99q-68 68 -71 173q-3 55 26 115q50 110 178 134q68 13 144 13h76q92 0 173 -34v87h32v-467h-32v254q-104 97 -220 97h-73q-50 0 -79 -10q-73 -19 -115 -102 q-8 -24 -13 -79q0 -71 42 -121q26 -31 102 -83q65 -45 155 -84q146 -66 165 -81q99 -69 99 -168v-1866h55v-49z" />
<glyph unicode="&#x104e;" horiz-adv-x="1107" d="M1029 73l-32 -8q-18 -7 -29 -20q-36 -45 -36 -84v-799h78v-40h-377v40q144 0 162.5 30t18.5 74v737l-76 -6q-246 6 -440 189t-194 427q0 220 158.5 385t378.5 163q162 -3 272 -58v105h42v-574h-42v390q-112 53 -225 53q-126 0 -238.5 -69.5t-180.5 -188.5t-68 -248 q0 -128 63 -241q141 -254 429 -249q210 3 336 144v-152z" />
<glyph unicode="&#x104f;" horiz-adv-x="1439" d="M910 152h-477q95 -52 147 -68q37 -8 84 -10q123 -3 246 78zM1141 -10h-66v880l-783 -2q-100 -134 -100 -320q0 -92 34 -168q40 -89 110 -152l27 -23h560q58 0 61 -39q0 -16 -1.5 -24t-12.5 -16q-34 -31 -133 -94q-66 -32 -102 -37q-24 -5 -71 -5q-244 0 -398 144 q-168 157 -171 393q-2 160 92 309q87 139 232 225.5t310 86.5q71 0 170.5 -32.5t154.5 -93.5l21 -23v152l66 2v-1163zM989 933l-29 29q-102 102 -291 102q-183 0 -322 -131h642zM1217 40q57 0 57 91v821q0 131 -26 178t-131 86l-167 66q-113 49 -163 99q-68 68 -71 173 q-2 55 27 115q49 110 178 134q68 13 144 13h76q91 0 173 -34v87h31v-467h-31v254q-105 97 -220 97h-74q-50 0 -78 -10q-74 -19 -116 -102q-7 -24 -13 -79q0 -71 42 -121q26 -31 102 -83q66 -45 155 -84q147 -66 165 -81q100 -69 100 -168v-985h55v-50h-273v50h58z" />
<glyph unicode="&#x1050;" horiz-adv-x="879" d="M773 790v-647q0 -65 37 -86q2 0 39 -10v-47h-284v47h91v824q0 94 -96 174q-78 65 -156 68q-42 2 -96 -18q-78 -34 -91 -97q-5 -23 -5 -67v-783q0 -65 62 -91q16 -5 65 -10v-47h-335v47h88v756q0 164 96 273q102 94 276 78q60 0 119 -31q110 -52 162 -179q20 -52 23 -93.5 t5 -60.5zM272 535q0 97 107 158q47 26 121 29q38 2 71.5 -25t33.5 -68v-80q0 -56 -56 -122t-112 -66h-38q-38 0 -58 13q-38 25 -60 63q-7 9 -8 30t-4 24q0 31 3 44zM359 482q0 -67 40 -88h38q79 0 79 135v78q0 76 -49 83q-41 0 -74 -27q-12 -11 -25 -51q-5 -27 -9 -72v-58z " />
<glyph unicode="&#x1051;" horiz-adv-x="886" d="M789 477q0 -157 -60 -286q-14 -29 -61 -94q-91 -100 -256 -100q-163 0 -247 124q-63 94 -63 262v620q0 53 3 69q0 23 -13 31t-63 13v47h191v-746q0 -349 213 -352q123 -2 180.5 70t57.5 206v657q0 118 -152 118v47h270v-686zM272 535q0 97 107 158q47 26 121 29 q38 2 71.5 -25t33.5 -68v-80q0 -56 -56 -122t-112 -66h-38q-38 0 -58 13q-38 25 -60 63q-7 9 -8 30t-4 24q0 31 3 44zM359 482q0 -67 40 -88h38q79 0 79 135v78q0 76 -49 83q-41 0 -74 -27q-12 -11 -25 -51q-5 -27 -9 -72v-58z" />
<glyph unicode="&#x1052;" horiz-adv-x="1334" d="M661 1221h41v-559h-41v380l-9 3q-59 0 -116.5 -19.5t-108.5 -53.5t-94.5 -81t-75 -102t-49 -115.5t-17.5 -121.5q0 -63 15.5 -121t45.5 -113q134 -242 409 -242h10q200 3 322 134q20 38 29.5 92.5t9.5 136.5v353q-14 5 -30 12.5t-33 15.5q-29 14 -45 40t-16 59t14.5 61.5 t38.5 49t56 32t68 12.5h4q54 0 120 -34v84h22v-238h-22q0 20 -8 44t-23 54q-30 61 -101 63h-7q-32 0 -56 -18t-40 -51q-7 -17 -7 -50q0 -29 35 -50q3 -1 17 -5t32.5 -10t38 -14t31.5 -16l3 -1q10 -7 16.5 -14.5t6.5 -17.5v-395q0 -164 -61 -255q-9 -13 -34 -39t-68 -52 t-105 -45.5t-146 -19.5h-19q-68 2 -125.5 14t-109.5 35t-99.5 56.5t-94.5 78.5q-94 91 -141 193.5t-47 222.5q0 108 38 201t117 174q75 78 162.5 117.5t190.5 39.5h15h18t18 -1v-6h5v102z" />
<glyph unicode="&#x1053;" horiz-adv-x="1092" d="M915 581q0 13 -2 25q-2 11 -4 23t-5 22q-23 67 -76.5 99t-126.5 33q-22 0 -37.5 7.5t-32.5 19.5q-21 15 -33 36.5t-18 44t-7.5 45t-1.5 40.5q0 34 14.5 62t38.5 48.5t56 32t67 12.5h8q27 0 56 -8.5t61 -24.5v84h22v-238h-22q0 34 -31 99q-28 59 -101 62h-5q-66 0 -98 -69 q-5 -9 -6 -22t-1 -28q0 -8 1.5 -20t6 -25.5t11 -27.5t17.5 -25q12 -14 25.5 -21.5t28.5 -11.5t31.5 -7t34.5 -7q37 -9 75 -18.5t70.5 -29.5t57 -57t34.5 -101q2 -8 2 -18v-21h1q-2 -56 -6.5 -111t-17 -108.5t-36.5 -103t-64 -94.5q-45 -49 -89.5 -84.5t-93 -58.5t-104 -34 t-121.5 -11q-93 0 -166.5 27t-124.5 77.5t-78 123.5t-27 165q0 61 -1 120t-1 136v55t1 61q0 10 6.5 17.5t17.5 14.5q13 9 29 12l32 6t31.5 9t27.5 20q10 11 17 25t11.5 27.5t6 25.5t1.5 20q0 15 -1 28t-6 22q-32 69 -98 69h-5q-73 -3 -101 -62q-31 -65 -31 -99h-22v238h22 v-84q32 16 61 24.5t56 8.5h8q35 -1 67 -12.5t56 -32t38.5 -48.5t14.5 -62q0 -18 -1.5 -40.5t-7.5 -45t-18 -44t-33 -36.5q-17 -12 -33.5 -17.5t-30.5 -10.5q-2 -57 -3 -100t-1 -84q0 -29 1 -58t1 -62q0 -30 1.5 -67.5t10 -77t26.5 -77t50 -68t80.5 -50.5t118.5 -24 q7 0 14 -0.5t14 -0.5q54 0 101 8t89.5 26.5t80 48.5t71.5 74q32 41 43 84.5t11.5 89.5t-3.5 93.5t-3 96.5z" />
<glyph unicode="&#x1054;" horiz-adv-x="1178" d="M1103 1022q5 -5 6.5 -9t1.5 -22q-3 -29 -29 -29h-760q-125 -141 -123 -296q3 -212 135.5 -364t341.5 -152q181 0 291 102v367h42v-624h-42v118q-110 -47 -231 -47q-165 0 -310 86.5t-232 225.5q-94 149 -92 309q3 236 171 393q160 149 398 144q220 -5 432 -202z M1014 1028q-139 115 -293 115q-24 -3 -50 -3q-165 -18 -280 -112h623z" />
<glyph unicode="&#x1055;" horiz-adv-x="1302" d="M341 230q25 -29 53 -53.5t59 -42t66.5 -27.5t76.5 -10q5 0 9.5 0.5t9.5 0.5q42 2 81.5 11t72.5 26.5t57.5 44t36.5 63.5q11 -62 31.5 -97.5t46 -53t53 -21.5t53.5 -4q47 7 80.5 32.5t57.5 63.5t41.5 85t31.5 97v-252q-2 -2 -3 -2.5t-3 -2.5q-12 -11 -30.5 -26t-42.5 -29 t-52 -24t-59 -10q-29 0 -61 3.5t-61.5 15t-55.5 34t-43 61.5q-28 -60 -74 -87t-103 -27q-73 0 -134 19t-109 47q-75 45 -129 108t-99 134q-48 75 -70.5 151.5t-22.5 157.5v5q3 239 173 398q158 146 386 146h18q222 -4 438 -205l1 -1q5 -5 6 -9t1 -21q-3 -29 -29 -29h-771 q-125 -143 -125 -297v-4q3 -215 137 -369zM1031 966q-141 117 -297 117q-26 -3 -51 -3q-169 -18 -284 -114h632z" />
<glyph unicode="&#x1056;" horiz-adv-x="1225" d="M947 723q-14 5 -30.5 10.5t-33.5 17.5q-21 15 -33 36.5t-18 44t-7.5 45t-1.5 40.5q0 34 14.5 62t38.5 48.5t56 32t67 12.5h8q27 0 56 -8.5t61 -24.5v84h22v-238h-22q0 34 -31 99q-28 59 -101 62h-5q-66 0 -98 -69q-5 -9 -6 -22t-1 -28q0 -8 1.5 -20t6 -25.5t11 -27.5 t17.5 -25q12 -14 27.5 -20t31.5 -9l32 -6t29 -12q11 -7 17.5 -14.5t6.5 -17.5q1 -32 1 -61v-55q0 -77 -1 -136t-1 -120q0 -92 -42.5 -165t-112 -123.5t-159 -77.5t-182.5 -27q-66 0 -121 13.5t-103 39t-92 63t-89 86.5q-85 94 -124.5 200t-39.5 224l111 4v-40 q1 -49 3.5 -93.5t11 -86.5t26 -82.5t49.5 -81.5q69 -89 149 -133t188 -44q7 0 14 0.5t14 0.5q70 4 126 24t99 50.5t74 68t50.5 77t28.5 77t9 67.5q0 33 1 62t1 58q0 41 -1 84t-3 100z" />
<glyph unicode="&#x1057;" horiz-adv-x="1275" d="M841 18q-10 -2 -18.5 -2h-17.5q-41 0 -75 10t-66 24q-31 14 -55 38t-37 63q-29 -43 -54 -70.5t-50 -43.5q-19 -12 -38 -17t-36 -5q-22 0 -40 7t-31 19q-39 26 -75.5 59.5t-74.5 75.5q-91 101 -133.5 214t-42.5 241l119 4v-43q0 -52 2 -100t11.5 -93t29 -88.5t53.5 -87.5 q13 -16 23 -29.5t27 -27.5q31 -25 64.5 -38.5t65.5 -13.5q48 0 88 35t58 115h72q12 -37 28.5 -62.5t36 -41t41.5 -22t44 -6.5q26 0 51 8t48 19q31 31 54 66.5t37.5 70.5t21.5 68t7 60q0 36 1 66.5t1 62.5q0 45 -1 90.5t-3 107.5q-16 5 -33 10.5t-36 19.5q-23 16 -35.5 38.5 t-19 47t-8 49t-1.5 43.5q0 36 15.5 66t41.5 52t60 34.5t71 13.5h9q29 0 60 -9.5t66 -26.5v91h23v-256h-23q0 38 -34 106q-30 64 -108 67h-5q-72 0 -105 -74q-6 -10 -7 -23.5t-1 -30.5q0 -8 1.5 -21t6 -28t12 -29.5t19.5 -26.5q13 -15 29.5 -21.5t33.5 -9.5l34 -6t31 -13 q26 -16 26 -34q1 -35 1 -65.5v-59.5q0 -41 -0.5 -77t-0.5 -69t-0.5 -64t-0.5 -64q0 -63 -16 -125t-48.5 -112t-81 -84t-112.5 -42z" />
<glyph unicode="&#x1058;" d="M-218 -226v-2q-2 -14 -9.5 -22t-21.5 -8h-528q-81 -95 -80 -196q1 -145 91 -248q92 -103 232 -103q61 0 108.5 17t84.5 49v263h52v-460h-52v77q-36 -14 -73.5 -21t-77.5 -7q-118 0 -223 63q-103 61 -167 162q-68 107 -66 222q3 170 123 284q117 108 288 105 q159 -5 310 -146q6 -5 7.5 -10.5t1.5 -18.5zM-330 -189q-83 58 -172 58q-8 -1 -17 -1.5t-18 -0.5q-92 -10 -162 -56h369z" />
<glyph unicode="&#x1059;" horiz-adv-x="1707" d="M-575 -790q29 2 55.5 8t48.5 17.5t37.5 28.5t22.5 40l23 -1q7 -41 20.5 -64t29 -34t33 -14t34.5 -3q30 5 51.5 21.5t37.5 42t27.5 57.5t22.5 67l22 -3v-182l-4 -4q-8 -8 -21 -18q-15 -12 -32 -23q-18 -11 -40.5 -19.5t-48.5 -8.5q-19 0 -40 2t-41.5 9t-39.5 20.5 t-34 36.5q-22 -36 -54 -52t-71 -16q-53 0 -97.5 13.5t-78.5 34.5q-54 32 -93.5 77.5t-71.5 96.5q-68 110 -67 227q2 173 125 289q60 54 132.5 81t160.5 25q82 -2 160.5 -39t155.5 -109q7 -6 8 -11t1 -19v-2q-1 -14 -9.5 -22.5t-22.5 -8.5h-538q-42 -48 -61.5 -98t-19.5 -101 q2 -147 94 -252q37 -42 80 -67.5t103 -22.5zM-490 -120q-8 -1 -17 -1h-19q-95 -11 -165 -57h375q-42 30 -85.5 44t-88.5 14z" />
<glyph unicode="&#x105a;" horiz-adv-x="1277" d="M803 -783q5 1 10 1.5t10 0.5q30 0 45 -27q6 -9 6 -23q0 -38 -37 -49q-7 -2 -15.5 -3t-16.5 -1q-15 0 -29 7t-26 18q-11 10 -19.5 21t-13.5 24q-3 7 -4 19.5t-1 29.5q0 20 2 44t5.5 48t9.5 47.5t14 41.5q18 45 80 163q22 41 32.5 63.5t12.5 29.5q0 6 0.5 13.5t1.5 18.5 q0 35 -9.5 60.5t-26.5 44.5q-21 23 -50 35.5t-67 12.5q-70 0 -125 -51q-6 -6 -12.5 -14.5t-14.5 -20.5q-41 -65 -41 -203v-35h-44v404h44v-98q33 37 76 64q56 32 136 34q73 0 119 -30q50 -34 75 -67q35 -47 38 -123v-20l-3 -12q-5 -28 -20 -61t-38 -71q-39 -63 -61.5 -101.5 t-29.5 -52.5q-14 -26 -20 -58t-6 -61q0 -21 3 -38t10 -25zM1109 220q-107 -113 -218 -165q-39 -16 -117 -42q-50 -10 -113 -13q-238 -5 -398 144q-168 157 -171 393q-2 160 92 309q87 139 232 225.5t310 86.5q121 0 231 -47v118h42v-624h-42v367q-110 102 -291 102 q-209 0 -341.5 -152t-135.5 -364q-2 -173 144 -320q126 -125 328 -154q26 0 47 -3q197 0 362 181z" />
<glyph unicode="&#x105b;" horiz-adv-x="1769" d="M1103 878h-804q-100 -134 -100 -320q0 -175 144 -320q126 -125 328 -154q26 0 47 -3q197 0 362 181l39 -42q-107 -113 -218 -165q-39 -16 -117 -42q-50 -10 -113 -13q-238 -5 -398 144q-168 157 -171 393q-2 160 92 309q87 139 232 225.5t310 86.5q92 0 152 -16 q95 -23 173 -110l-42 131l50 16l197 -652l-50 -16zM354 943h642l-29 29q-102 102 -291 102q-183 0 -322 -131zM1104 -42q-81 -126 -87 -315q-2 -96 6 -157q0 -44 97 -147.5t144 -106.5q36 -3 36 58v1693q0 29 -1 46t-21 45.5t-34 28.5t-22 3v47h183v-1863q0 -139 -97 -142 q-84 -2 -239.5 129t-155.5 209q0 131 -6 173q0 170 87 299h-176v39h412v-39h-126z" />
<glyph unicode="&#x105c;" horiz-adv-x="1363" d="M178 288q-24 39 -42 74t-29 70.5t-17 74t-6 85.5v8q0 40 4 74t12.5 65.5t22.5 63t34 67.5q80 140 194.5 210t275.5 70h23q64 0 119 -12t104.5 -35.5t96 -59t94.5 -82.5q49 -48 85.5 -94.5t61.5 -97t37.5 -107t12.5 -124.5v-4q0 -61 -9 -112.5t-28 -98t-49.5 -89.5 t-73.5 -86q-42 -42 -84 -71.5t-87.5 -48.5t-96 -29t-110.5 -13q-9 -1 -18 -1h-18q-168 0 -292.5 77t-216.5 226zM181 550q2 -69 18 -128.5t49 -112.5q76 -121 182 -180t246 -59h14q61 0 120 20t111.5 55t97 83.5t77 104.5t50.5 118t18 125q0 66 -15.5 125t-47.5 116 q-140 249 -390 249h-9q-109 -2 -200.5 -39.5t-168.5 -112.5q-75 -75 -113.5 -162.5t-38.5 -190.5v-11zM486 545q0 113 125 184q55 31 142 34q44 3 83.5 -28.5t39.5 -79.5v-94q0 -65 -65.5 -142.5t-131.5 -77.5h-44q-45 0 -68 16q-45 29 -71 73q-8 11 -9 35.5t-4 27.5 q0 37 3 52zM588 483q0 -79 47 -103h44q92 0 92 158v91q0 89 -57 97q-48 0 -87 -31q-13 -13 -29 -60q-5 -32 -10 -84v-68z" />
<glyph unicode="&#x105d;" horiz-adv-x="894" d="M507 -878q-417 3 -417 218q0 267 310 272q75 3 144.5 -61.5t72.5 -140.5l-37 -5q0 66 -59 110.5t-127 44.5q-52 0 -110 -42q-81 -60 -84 -168q-2 -123 124 -162q57 -19 183 -19h113q58 0 58 92v829q-5 -6 -10 -13q-91 -100 -256 -100q-163 0 -247 124q-63 94 -63 272v610 q0 53 3 69q0 23 -13 31t-63 13v47h191v-521q42 52 119.5 100.5t210.5 53.5q58 3 121 -31v233q0 118 -152 118v47h270v-1974h46v-49zM433 45q123 0 180.5 71t57.5 205v256q0 61 -46 97.5t-109 39.5q-57 2 -82 -2t-64 -32q-66 -40 -116 -139q-26 -71 -28 -213 q-6 -283 207 -283z" />
<glyph unicode="&#x105e;" d="M-499 -735l-2 230l-283 -2q110 -220 285 -228zM-501 -249q0 78 -23.5 111.5t-74.5 33.5h-36v51h392v-51h-89v-288h213v-113h-213v-212l75 70l33 -34l-296 -278l-33 36l45 43q-109 3 -244 77q-72 40 -115 86.5t-62 103.5q-3 16 -3 34q0 52 31 108q42 73 110 79h290v143z " />
<glyph unicode="&#x105f;" d="M-616 -390q-23 -5 -45 -11t-44 -15q-79 -31 -125 -83q-46 -54 -46 -110q0 -58 43 -108q94 -110 289 -110h5q125 1 231 68l24 16v-96l-6 -3q-96 -42 -209 -42h-8q-180 3 -323 90q-145 88 -145 204q0 105 118 185q103 70 241 77v277h106v-426h-106v87z" />
<glyph unicode="&#x1060;" d="M-162 -105h-12q-17 0 -52 -4.5t-79 -23.5t-92.5 -56t-90.5 -102l-322 -444q0 -16 -0.5 -28t-0.5 -23q0 -17 3 -28t13 -17t29 -8.5t52 -2.5h210q48 0 93.5 8.5t80 26t55.5 44t21 61.5v42h59v-280h-55v74q-18 -9 -52 -15.5t-92 -11t-143.5 -6.5t-204.5 -2h-401v59h56 l451 647q51 51 107.5 81.5t110.5 47t102.5 22t84.5 5.5q16 0 29 -0.5t22 -1.5q11 -1 18 -2v-62z" />
<glyph unicode="&#x1061;" horiz-adv-x="1440" d="M330 257h548q47 0 47 -47q0 -116 -144 -186q-52 -24 -136 -27q-304 -5 -469 281q-71 123 -74 277q-2 150 95 304q186 296 545 302q165 2 262 -63q118 -81 170 -152t76 -157q10 -37 24 -150v-1451h227v-40h-455v40h110v1250q0 34 -13 170q-14 128 -29 181q-24 81 -89 154 q-116 129 -330 134q-126 2 -242.5 -63.5t-183.5 -172.5t-70 -244q-2 -196 131 -340zM860 191h-459q142 -110 320 -110q118 0 139 110zM497 -3h270v-471q0 -181 -79 -307q-94 -146 -264 -149q-32 0 -53 5q-47 0 -70 50q-6 16 -8 31q0 84 94 74q37 -3 58 -51.5t42 -43.5 q107 24 141 129q21 65 21 204v367q0 47 -12 66.5t-54 38.5q-28 5 -86 10v47z" />
<glyph unicode="&#x1062;" horiz-adv-x="479" d="M418 1135v-33h-63v-1101h-102v1012q0 19 -4 35.5t-13 28.5t-24.5 18.5t-39.5 6.5h-22q-111 0 -111 -80v-213h-33v348h31v-42q20 10 50 15t72 5h259z" />
<glyph unicode="&#x1063;" horiz-adv-x="1044" d="M32 225q126 -141 336 -144q288 -5 429 249q63 113 63 241q0 129 -68 248t-180.5 188.5t-238.5 69.5q-113 0 -225 -53v-390h-42v574h42v-105q110 55 272 58q220 2 378.5 -163t158.5 -385q0 -244 -194 -427t-440 -189l-76 6v-737q0 -44 18.5 -74t76.5 -30h26v-40h-317v40 h78v799q0 39 -36 84q-11 13 -29 20l-32 8v152z" />
<glyph unicode="&#x1064;" horiz-adv-x="1050" d="M467 135q-3 -11 -3 -28t7.5 -32.5t24 -26.5t45.5 -11h111q54 0 100 25.5t87 76.5t60.5 110t19.5 126v203h43v-607h-40v107q-52 -81 -201 -81h-477v40h81l261 1000q0 19 -4 34.5t-13.5 26.5t-25 17.5t-39.5 6.5h-250q-113 0 -113 -82v-217h-34v355h31v-43q40 21 124 21 h530v-34h-65z" />
<glyph unicode="&#x1065;" horiz-adv-x="1096" d="M198 1024v-390h-42v574h42v-105q110 55 272 58q220 2 378.5 -163t158.5 -385q0 -241 -195 -425.5t-439 -190.5q-157 -2 -291 89v147q150 -149 336 -152q288 -5 429 249q63 113 63 241q0 129 -68 248t-180.5 188.5t-238.5 69.5q-113 0 -225 -53z" />
<glyph unicode="&#x1066;" horiz-adv-x="908" d="M789 480q0 -157 -60 -286q-14 -29 -61 -94q-91 -100 -256 -100q-163 0 -247 124q-63 94 -63 262v620q0 53 3 69q0 23 -13 31t-63 13v47h191v-746q0 -349 213 -352q123 -2 180.5 70t57.5 206v657q0 118 -152 118v47h270v-686zM531 0h270v-471q0 -181 -79 -307 q-94 -146 -264 -149q-32 0 -53 5q-47 0 -70 50q-6 16 -8 31q0 84 94 74q37 -3 58 -51.5t42 -43.5q107 24 141 129q21 65 21 204v367q0 47 -12 66.5t-54 38.5q-28 5 -86 10v47z" />
<glyph unicode="&#x1067;" horiz-adv-x="648" d="M213 345q-55 0 -87 -35q-34 -36 -34 -93q0 -74 41 -121q39 -47 100 -47q43 0 86 28v211q-15 25 -43 40q-27 17 -63 17zM284 1149l125 118l21 -21l-23 -22v-1139q0 -26 5.5 -35t13.5 -9h28v-39h-135v20q-51 -30 -108 -30q-87 0 -146 56t-59 139q0 88 59 147q59 58 148 58 q62 0 106 -27v777l-14 -13z" />
<glyph unicode="&#x1068;" horiz-adv-x="922" d="M552 155v990h129v-1103h85v-43h-508q-157 0 -213 85v-113h-43v435l46 -6q0 -71 21 -133.5t64 -116.5t92 -81t107 -27h118q31 0 50.5 8.5t31 23.5t16 36t4.5 45zM446 1457q0 113 125 184q55 31 142 34q44 3 83.5 -28.5t39.5 -79.5v-94q0 -65 -65.5 -142.5t-131.5 -77.5 h-44q-45 0 -68 16q-45 29 -71 73q-8 11 -9 35.5t-4 27.5q0 37 3 52zM548 1395q0 -79 47 -103h44q92 0 92 158v91q0 89 -57 97q-48 0 -87 -31q-13 -13 -29 -60q-5 -32 -10 -84v-68z" />
<glyph unicode="&#x1069;" horiz-adv-x="817" d="M28 247q0 59 0.5 96t6 64.5t18 51.5t35.5 57q25 35 65 66.5t87 60.5t98.5 55.5t98.5 51t86.5 47.5t63.5 46q21 21 32 43.5t11 48.5q0 62 -50 104q-51 42 -126 42q-89 0 -146 -63q-59 -62 -59 -160v-84h-55v420h55v-124q55 34 112.5 51.5t113.5 17.5q121 0 203 -76 q81 -75 81 -187q0 -48 -10.5 -85.5t-44.5 -72.5q-26 -27 -63.5 -48t-82.5 -40.5t-93.5 -40t-96.5 -46.5t-92 -61t-79 -82q-27 -36 -39.5 -79t-11.5 -86.5t16.5 -83t45.5 -66.5q25 -22 56.5 -32t69.5 -10q87 0 145 62q60 65 60 161v83h55v-419h-55v123q-55 -33 -113 -50.5 t-113 -17.5q-121 0 -203 76t-82 186z" />
<glyph unicode="&#x106a;" horiz-adv-x="765" d="M651 330q0 -74 -20.5 -135.5t-59.5 -105.5t-95.5 -69t-128.5 -25h-6q-152 3 -243 82l-62 55v-204h-37v479h37q2 -43 7 -75.5t13 -56.5q76 -231 258 -231h5q51 1 92.5 21.5t71.5 55t46 80.5t16 99v844h106v-814z" />
<glyph unicode="&#x106b;" horiz-adv-x="743" d="M651 812v-814h-106v844q0 53 -16 99t-46 80.5t-71.5 55t-92.5 21.5h-5q-182 0 -258 -231q-8 -24 -13 -56.5t-7 -75.5h-37v479h37v-204l62 55q91 79 243 82h6q72 0 128.5 -25t95.5 -69t59.5 -106t20.5 -135z" />
<glyph unicode="&#x106c;" horiz-adv-x="737" d="M-1 1144h106v-844q0 -53 16 -99t46 -80.5t71.5 -55t92.5 -21.5h5q181 0 258 231q8 24 13 56.5t7 75.5h37v-479h-37v204l-62 -55q-91 -79 -243 -82h-6q-72 0 -128.5 25t-95.5 69t-59.5 105.5t-20.5 135.5v814z" />
<glyph unicode="&#x106d;" horiz-adv-x="817" d="M725 247q0 -110 -82 -186t-203 -76q-55 0 -113 17.5t-113 50.5v-123h-55v419h55v-83q0 -96 60 -161q58 -62 145 -62q38 0 69.5 10t56.5 32q30 27 45.5 66.5t16.5 83t-11.5 86.5t-39.5 79q-35 47 -79 82t-92 61t-96.5 46.5t-93.5 40t-82.5 40.5t-63.5 48 q-34 35 -44.5 72.5t-10.5 85.5q0 112 81 187q82 76 203 76q56 0 113.5 -17.5t112.5 -51.5v124h55v-420h-55v84q0 98 -59 160q-57 63 -146 63q-75 0 -126 -42q-50 -42 -50 -104q0 -26 11 -48.5t32 -43.5q24 -23 63.5 -46t86.5 -47.5t98.5 -51t98.5 -55.5t87 -60.5t65 -66.5 q23 -33 35.5 -57t18 -51.5t6 -64.5t0.5 -96z" />
<glyph unicode="&#x106e;" horiz-adv-x="2204" d="M1049 117q-53 -94 -133 -124l-40 53q63 18 96 105q31 80 31 183v647q0 60 -2 68q-8 29 -51 34q-62 0 -115 -84q-11 -23 -23.5 -51t-23.5 -65q-2 -8 -3 -17.5t-3 -20.5q1 -9 2 -50.5t1.5 -102t0.5 -135.5v-151q0 -77 -0.5 -149t-0.5 -129v-124h-210v46h91v809 q-12 95 -84 173q-96 72 -166 72q-23 0 -47.5 -7t-51.5 -20q-55 -22 -86 -87q-5 -23 -5 -66v-773q0 -64 62 -88q15 -6 63 -12v-46l-333 -1v46l88 1v751q0 82 20 145.5t76 119.5l2 3q29 29 55.5 46.5t55 27t61.5 12.5t75 3q16 0 31.5 -2.5t31.5 -7.5q28 -7 52 -17t47 -26 q16 -11 31 -25t31 -32l4 -4q16 -17 30.5 -34.5t27.5 -40.5q53 96 69 113q54 62 144 62q74 0 117 -55q44 -56 44 -143v-17q189 212 441 212q233 0 390 -143q164 -152 167 -385v-10q0 -155 -87 -290q-89 -138 -232 -223q-70 -42 -145.5 -64t-156.5 -22h-44q-55 0 -79 21v-90 h-42v431h42v-179q10 -18 26.5 -35t42.5 -33q52 -32 113 -32h8q201 0 330 151q63 74 96 162t33 192q0 80 -36 161q-77 169 -257 264q-75 41 -169 42h-11q-125 0 -242 -64q-119 -65 -188 -180v-436q0 -148 -62 -263z" />
<glyph unicode="&#x106f;" horiz-adv-x="1834" d="M1460 117h270v-591q0 -181 -79 -307q-94 -146 -264 -149q-32 0 -53 5q-47 0 -70 50q-6 16 -8 31q0 84 94 74q37 -3 58 -51.5t42 -43.5q107 24 141 129q21 65 21 204v487q0 47 -12 66.5t-54 38.5q-28 5 -86 10v47zM791 938v-461q0 -157 -60 -286q-13 -29 -60 -94 q-92 -100 -257 -100q-162 0 -246 124q-63 94 -63 262v620q0 110 -152 113v47h270v-746q0 -349 215 -352q235 -2 235 276v657q0 118 -152 118v47h270v-152q50 45 139 92q147 55 231 55q238 0 398 -144q168 -152 170 -393q3 -163 -89 -305.5t-236 -229t-309 -86.5q-47 0 -57 5 q-24 24 -69 42v-118h-42v440h42v-183q34 -39 76 -76q34 -26 110 -26q210 -3 346 154q129 150 131 362q0 81 -38 167.5t-106 152.5q-128 125 -327 154q-27 0 -48 3q-175 0 -322 -139z" />
<glyph unicode="&#x1070;" horiz-adv-x="1867" d="M1117 1048v-228h-52v414h52v-116q15 6 39 12.5t54 12t64.5 9.5t70.5 4q95 0 176.5 -31.5t144.5 -89.5q35 -33 60 -74.5t40.5 -89t23 -99t7.5 -103.5q0 -62 -10 -123.5t-32.5 -122t-58.5 -118.5t-88 -112q-49 -50 -106.5 -88t-116 -63t-114 -37.5t-99.5 -12.5 q-181 0 -340 120l-39 40l-42 -61q-99 -99 -256 -99q-71 0 -128 23.5t-97 71.5t-61.5 120t-21.5 169v499q0 9 6.5 17t17.5 16q13 8 33 16t39 14.5t33.5 11t17.5 5.5q37 21 37 51q0 32 -10 55t-25.5 38t-36 22t-41.5 7q-39 -2 -64.5 -21.5t-41.5 -45.5t-22.5 -53.5t-6.5 -43.5 h-23v243h23v-86q68 34 128 34q37 0 70 -12t57.5 -34t38.5 -51.5t14 -63.5q0 -29 -9.5 -48t-26.5 -33t-40 -24.5t-51 -22.5v-456q0 -179 54.5 -264.5t166.5 -85.5q229 0 229 274v656q0 118 -152 118v47h269v-737q0 -135 42 -193q105 -149 345 -149q37 0 85 15t99 47 t99.5 82.5t87.5 121.5q39 72 59.5 142.5t20.5 139.5q0 52 -15 110.5t-43 114.5t-68.5 104t-91.5 79q-44 26 -98.5 36.5t-106.5 10.5q-30 0 -57.5 -2.5t-50 -7t-38.5 -10t-23 -11.5zM1530 117h270v-591q0 -181 -79 -307q-94 -146 -264 -149q-32 0 -53 5q-47 0 -70 50 q-6 16 -8 31q0 84 94 74q37 -3 58 -51.5t42 -43.5q107 24 141 129q21 65 21 204v487q0 47 -12 66.5t-54 38.5q-28 5 -86 10v47z" />
<glyph unicode="&#x1071;" d="M-481 1524q0 113 125 184q55 31 142 34q44 3 83.5 -28.5t39.5 -79.5v-94q0 -65 -65.5 -142.5t-131.5 -77.5h-44q-45 0 -68 16q-45 29 -71 73q-8 11 -9 35.5t-4 27.5q0 37 3 52zM-379 1462q0 -79 47 -103h44q92 0 92 158v91q0 89 -57 97q-48 0 -87 -31q-13 -13 -29 -60 q-5 -32 -10 -84v-68zM-1062 1524q0 113 125 184q55 31 142 34q44 3 83.5 -28.5t39.5 -79.5v-94q0 -65 -65.5 -142.5t-131.5 -77.5h-44q-45 0 -68 16q-45 29 -71 73q-8 11 -9 35.5t-4 27.5q0 37 3 52zM-960 1462q0 -79 47 -103h44q92 0 92 158v91q0 89 -57 97q-48 0 -87 -31 q-13 -13 -29 -60q-5 -32 -10 -84v-68z" />
<glyph unicode="&#x1072;" d="M-365 1804q-35 0 -69 -9.5t-66 -29.5q-65 -40 -105 -109q-39 -69 -39 -143q0 -36 8.5 -71t27.5 -68q83 -146 247 -143q108 3 193 88l21 21v-124l-5 -4q-83 -56 -182 -55q-152 3 -272 117q-121 114 -121 265q0 137 99 239q97 102 236 102q44 -2 81.5 -8t69.5 -20v56h49 v-369h-49v238q-32 14 -62 20.5t-62 6.5z" />
<glyph unicode="&#x1073;" d="M-44 1208q12 -4 24.5 -9t24.5 -5l13 8l17 2l29 -45l-19 -6q-20 -6 -39.5 -13t-39.5 -7t-41.5 7t-43.5 13q-84 24 -183 103q-39 30 -96.5 85t-132.5 133q-76 -78 -133.5 -133t-96.5 -85q-99 -79 -183 -103q-22 -6 -43 -13t-41 -7t-39.5 7t-39.5 13l-20 6l13 45l17 -2 l13 -8q12 0 24 5t25 9q16 5 33.5 16t35.5 26t36 31.5t33 32.5l366 358l365 -358q16 -15 31 -32t30 -31.5t30 -26t31 -16.5z" />
<glyph unicode="&#x1074;" d="M-32 1640q0 -157 -60 -285q-13 -29 -60 -95q-92 -99 -257 -99q-163 0 -246 123q-63 94 -63 262v153q0 52 2 68q0 23 -13 31t-63 13v47h192v-278q0 -349 212 -351q120 -3 183 71q29 31 42 95t13 109v189q0 71 -36 97q-32 16 -116 21v47h270v-218z" />
<glyph unicode="&#x1075;" horiz-adv-x="1315" d="M667 -86h-41v559h41v-380l9 -3q59 0 116.5 19.5t108.5 53.5t94.5 81t75 102t49 115.5t17.5 121.5q0 63 -15.5 121t-45.5 113q-134 242 -409 242h-10q-200 -3 -322 -134q-20 -38 -29.5 -92.5t-9.5 -136.5v-353q14 -5 30 -12.5t33 -15.5q29 -14 45 -40t16 -59t-14.5 -61.5 t-38.5 -49t-56 -32t-68 -12.5h-4q-54 0 -120 34v-84h-22v238h22q0 -20 8 -44t23 -54q30 -61 101 -63h7q32 0 56 18t40 51q7 17 7 50q0 29 -35 50q-3 1 -17 5t-32.5 10t-38 14t-31.5 16l-3 1q-10 7 -16.5 14.5t-6.5 17.5v395q0 164 61 255q9 13 34 39t68 52t105 45.5 t146 19.5h19q68 -2 125.5 -14t109.5 -35t99.5 -56.5t94.5 -78.5q94 -91 141 -193.5t47 -222.5q0 -108 -38 -201t-117 -174q-75 -78 -162.5 -117.5t-190.5 -39.5h-15h-18t-18 1v6h-5v-102z" />
<glyph unicode="&#x1076;" horiz-adv-x="1021" d="M649 1080q-4 0 -16.5 -14t-32 -36t-44.5 -49.5t-53 -53.5t-57.5 -48t-58.5 -34q-38 -16 -73 -16q-33 0 -69 13q-27 9 -48.5 25t-38.5 35.5t-29 39t-18 36.5q-10 26 -10 53q0 24 8 44q20 48 65 65q21 8 39 8q16 0 33 -6q36 -12 48 -46q5 -15 5 -27t-5 -27q-9 -29 -33 -39 q-4 -2 -14 -2t-18 4.5t-12 15.5q-3 7 -3 22q0 7 -0.5 11t-1.5 7q-7 14 -23 14q-3 0 -9 -2q-26 -10 -26 -40q0 -12 6 -27q4 -10 16 -28.5t29 -37t38 -32.5t43 -14q14 0 24 5q32 15 61 39t55.5 51.5t50 55.5t45 51t41 37.5t36.5 14.5h6q76 0 136 -26t101 -72.5t63 -111.5 t22 -143v-807h-113v87q-77 -46 -147.5 -67.5t-138.5 -21.5q-81 0 -144 27.5t-111 84.5t-72 123t-26 139v10q0 155 140 272q68 58 142.5 86.5t157.5 30.5h11q48 0 94 -11.5t89 -33.5v113q0 56 -17.5 101.5t-42 78.5t-52 52t-48.5 21zM809 575q-42 60 -102 89t-137 29 q-60 0 -113.5 -21.5t-94.5 -59t-65.5 -88t-25.5 -109.5v-9q0 -133 88 -239q45 -56 101.5 -84.5t125.5 -28.5q57 0 117.5 27t105.5 75v419z" />
<glyph unicode="&#x1077;" horiz-adv-x="1359" d="M1050 237q57 69 90 152.5t33 171.5q0 65 -15.5 124.5t-46.5 116.5q-139 249 -421 249h-11q-205 -3 -331 -138q-21 -40 -30.5 -95.5t-9.5 -140.5v-363q28 -12 64 -29q30 -14 46.5 -41t16.5 -61q0 -35 -14.5 -64t-39.5 -50t-58 -33t-70 -13h-4q-29 0 -59.5 9t-63.5 26v-86 h-23v245h23q0 -20 8 -45t23 -56q32 -63 104 -65h8q32 0 57 18.5t42 52.5q3 10 5 22.5t2 29.5q0 29 -36 51q-3 1 -17.5 5.5t-34 10.5t-39 14t-32.5 16l-3 2q-10 7 -17 14.5t-7 18.5v406q0 168 63 263q9 13 35 40t70 53.5t108 46.5t150 20h20q70 -2 129.5 -14.5t112.5 -36 t102 -58t98 -80.5q96 -94 144.5 -199.5t48.5 -229.5q0 -111 -39 -206t-120 -179q-154 -162 -364 -162h-15q-3 0 -6 4q-65 8 -117 57t-90 146q-3 5 -4 9t-1 22q2 29 19 29h517zM863 91q66 30 122 80h-408q26 -57 55.5 -87t79.5 -30q8 2 16 2.5t16 0.5q25 5 56 13t63 21z" />
<glyph unicode="&#x1078;" horiz-adv-x="1850" d="M1637 715q0 134 -28 212q-50 100 -116 139q-39 29 -64 33t-82 1q-63 -2 -109 -39t-46 -97v-550q0 -121 66 -225q76 -121 191 -121q10 -3 34 -3q23 3 37 11q91 73 107 118q10 29 10 89v432zM1082 969q3 84 73.5 140.5t157.5 53.5q68 -2 115 -13q157 -39 262 -207 q68 -110 71 -230v-446q0 -18 -8 -50q-16 -39 -21 -55q-50 -70 -60 -81q-58 -63 -121 -78q-13 -6 -39 -6q-13 3 -63 3q-121 0 -254 165q-121 149 -121 244v283q0 157 -123 279t-280 103q-118 -16 -173 -34q-89 -31 -178 -118q-66 -63 -93.5 -137.5t-27.5 -171.5 q0 -210 123 -348q157 -176 333 -176q65 0 102 26q16 8 79 71v157h42v-414h-42v118q-61 -26 -84.5 -32.5t-88.5 -4.5q-189 6 -375 200q-76 78 -131 194.5t-55 216.5q0 265 157 406q144 131 412 131q84 0 230 -55q92 -47 181 -134z" />
<glyph unicode="&#x1079;" horiz-adv-x="1847" d="M1636 715q0 135 -28 212q-49 99 -116 139q-39 29 -64 33q-7 2 -16 2h-21h-21t-24 -1q-62 -1 -109 -39q-46 -37 -46 -97v-550q0 -122 66 -225q76 -121 191 -121q10 -3 34 -3q23 3 37 11q90 73 107 118q10 27 10 89v432zM409 181q118 -92 244 -92q64 0 102 26q16 7 75 66 h-421zM1082 969q3 84 74 140q67 54 148 54h9q34 -1 63 -4.5t52 -8.5q157 -39 262 -207q68 -110 71 -230v-446q0 -16 -8 -50q-17 -40 -21 -55q-50 -71 -60 -81q-59 -63 -121 -78q-14 -6 -39 -6q-14 3 -63 3q-121 0 -254 165q-121 148 -121 244v283q0 157 -123 279 q-108 106 -238 106q-21 0 -42 -3q-60 -8 -102.5 -16.5t-70.5 -18.5q-88 -30 -179 -116q-65 -64 -92.5 -138.5t-27.5 -171.5q0 -210 123 -348q7 -8 14 -15.5t15 -15.5h505q14 -7 28 -17t25.5 -22t19 -25.5t7.5 -27.5q0 -18 -13 -34q-45 -27 -90 -48q-39 -18 -84 -33.5 t-86 -16.5h-15q-59 0 -105.5 13.5t-88 39.5t-81.5 63t-85 84q-38 39 -70.5 87.5t-60.5 106.5q-55 116 -55 217q0 265 157 406q145 131 412 131q86 0 230 -55q93 -47 181 -134z" />
<glyph unicode="&#x107a;" horiz-adv-x="1839" d="M1150 -904h-36v50q-47 -24 -144 -24h-307v40h79v776q0 40 -12 57t-30 17h-37v36h197v-782q0 -44 18 -74t76 -30h26q131 0 131 94v251h39v-411zM765 675v-111q0 -92 39.5 -170.5t108.5 -146.5q143 -140 350 -143h9q237 0 368 235q30 54 45 110t15 119q0 89 -37.5 175 t-100 153.5t-143 108.5t-167.5 41h-14q-94 0 -175 -29v-167h-53v394h53v-124q51 17 106 26t115 9h12q214 0 367 -161q81 -85 120 -180t39 -206q0 -121 -48.5 -228t-147.5 -201q-97 -92 -206 -139t-233 -49h-9q-148 0 -263.5 69t-196.5 211q-35 62 -50.5 132t-18.5 147v259 q0 131 -54.5 201.5t-173.5 70.5h-5q-209 -3 -209 -346v-588q0 -49 33 -73.5t94 -26.5l-2 -46h-330v46q12 1 27 2t29 1h31v719q3 165 63 256q82 123 243 123q162 0 252 -99q23 -32 38 -54.5t21 -36.5q30 -64 44.5 -134.5t14.5 -148.5z" />
<glyph unicode="&#x107b;" horiz-adv-x="1837" d="M227 715v-432q0 -62 10 -89q17 -45 107 -118q14 -8 37 -11q23 0 34 3q115 0 191 121q66 103 66 225v550q0 60 -46 97q-47 38 -109 39q-59 3 -82 -1q-25 -4 -64 -33q-67 -40 -116 -139q-28 -77 -28 -212zM1033 181q58 -59 75 -66q38 -26 102 -26q126 0 244 92h-421z M781 969q88 87 181 134q144 55 230 55q267 0 412 -131q157 -141 157 -406q0 -101 -55 -217q-28 -58 -60.5 -106.5t-70.5 -87.5q-47 -48 -88 -86t-84 -64t-92 -39t-111 -11q-20 0 -42 4.5t-44.5 11.5t-44 16t-40.5 18q-46 21 -89 48q-15 18 -13 37t14 36t30 30.5t36 22.5h505 q8 8 15 15.5t14 15.5q123 138 123 348q0 97 -27.5 171.5t-93.5 137.5q-87 86 -178 118q-54 17 -173 34q-156 19 -280 -103q-123 -122 -123 -279v-283q0 -96 -121 -244q-134 -165 -254 -165q-50 0 -63 -3q-26 0 -39 6q-62 15 -121 78q-11 10 -60 81q-4 15 -21 55q-8 34 -8 50 v446q3 120 71 230q105 168 262 207q23 5 52 8.5t63 4.5q87 3 157 -54q71 -56 74 -140z" />
<glyph unicode="&#x107c;" horiz-adv-x="1747" d="M979 181q116 -95 279 -113q27 0 51 -3q153 0 293 116h-623zM789 600v-109q18 -128 120 -245h761q13 0 21 -7t8 -22q0 -14 -1.5 -19.5t-6.5 -10.5q-213 -198 -433 -202h-14q-228 0 -383 143q-20 20 -37.5 40t-34.5 41q-9 -23 -19.5 -41t-23 -34t-29.5 -30t-39 -29 q-151 -89 -284 -89q-81 0 -144 27.5t-111 84.5q-95 113 -98 261v7q0 157 139 274q68 58 142 86t157 30h11q48 0 93.5 -11.5t88.5 -33.5v112q0 56 -16 104.5t-46 85t-73 58t-97 22.5h-5q-190 0 -272 -243q-7 -26 -12.5 -60t-7.5 -79h-39v504h39v-214l65 58q95 82 255 84h7 q70 0 125.5 -22t96 -61.5t65 -95.5t30.5 -123q87 134 226 216q147 87 311 87q120 0 231 -47v118h42v-625h-42v368q-110 102 -291 102q-208 0 -343 -152q-114 -130 -132 -308zM672 573q-41 59 -101 88.5t-136 29.5q-60 0 -113.5 -21.5t-94 -58.5t-65 -87.5t-25.5 -108.5v-13 q0 -130 86 -236q45 -55 101.5 -83.5t125.5 -28.5q58 0 117.5 27t104.5 75v417z" />
<glyph unicode="&#x107d;" horiz-adv-x="2078" d="M2002 192q-211 -198 -432 -202h-14q-226 0 -382 145q-43 39 -74.5 83t-53.5 93q-11 -23 -27.5 -50t-39.5 -60q-37 -55 -79.5 -93.5t-92.5 -62.5t-108 -35t-124 -11q-93 0 -166 27t-124 77.5t-78 123.5t-27 165q0 30 -0.5 69.5t-1 82t-1 86t-0.5 82.5v55t2 61q0 17 24 32 q13 9 28.5 12t31.5 6t31.5 8.5t27.5 19.5q10 12 17 26t11 27.5t6 25.5t2 20q0 15 -1 28t-6 22q-32 69 -97 69h-6q-72 -3 -101 -62q-15 -33 -23 -57.5t-8 -41.5h-22v238h22v-84q67 32 117 32h8q35 -1 67 -12t56 -31.5t38.5 -48.5t14.5 -62q0 -18 -1.5 -40.5t-7.5 -45.5 t-18 -44t-33 -36q-17 -13 -33.5 -18t-30.5 -10q-3 -57 -3.5 -99.5t-0.5 -84.5q0 -15 0.5 -39.5t1 -51.5t1 -52.5t0.5 -41.5q0 -30 1.5 -67.5t10 -77t26 -77t49.5 -68t80.5 -50.5t118.5 -24q6 0 13.5 -0.5t13.5 -0.5q109 0 189 43.5t149 134.5q36 47 51 87.5t19 83.5 q-5 27 -8 54.5t-3 56.5q0 81 22 157.5t70 151.5q87 140 232 225q144 86 310 86q119 0 231 -46v117h41v-623h-41v366q-109 103 -291 103q-207 0 -342 -152q-132 -150 -135 -364v-4q0 -153 123 -292h759q27 0 30 -29q0 -17 -1.5 -21t-6.5 -9zM1291 186q113 -94 279 -112 q14 0 26.5 -1t24.5 -3q153 0 293 116h-623z" />
<glyph unicode="&#x107e;" horiz-adv-x="2075" d="M2002 192q-211 -198 -432 -202h-14q-226 0 -382 145q-43 39 -74.5 83t-53.5 93q-11 -23 -27.5 -50t-39.5 -60q-37 -55 -79.5 -93.5t-92.5 -62.5t-108 -35t-124 -11q-93 0 -166 27t-124 77.5t-78 123.5t-27 165q0 30 -0.5 69.5t-1 82t-1 86t-0.5 82.5v55t2 61q0 17 24 32 q13 9 28.5 12t31.5 6t31.5 8.5t27.5 19.5q10 12 17 26t11 27.5t6 25.5t2 20q0 15 -1 28t-6 22q-32 69 -97 69h-6q-72 -3 -101 -62q-15 -33 -23 -57.5t-8 -41.5h-22v238h22v-84q67 32 117 32h8q35 -1 67 -12t56 -31.5t38.5 -48.5t14.5 -62q0 -18 -1.5 -40.5t-7.5 -45.5 t-18 -44t-33 -36q-17 -13 -33.5 -18t-30.5 -10q-3 -57 -3.5 -99.5t-0.5 -84.5q0 -15 0.5 -39.5t1 -51.5t1 -52.5t0.5 -41.5q0 -30 1.5 -67.5t10 -77t26 -77t49.5 -68t80.5 -50.5t118.5 -24q6 0 13.5 -0.5t13.5 -0.5q109 0 189 43.5t149 134.5q36 47 51 87.5t19 83.5 q-5 27 -8 54.5t-3 56.5q0 81 22 157.5t70 151.5q87 140 232 225q144 86 310 86q119 0 231 -46v117h41v-623h-41v366q-109 103 -291 103q-207 0 -342 -152q-132 -150 -135 -364v-4q0 -153 123 -292h759q27 0 30 -29q0 -17 -1.5 -21t-6.5 -9zM1291 186q113 -94 279 -112 q14 0 26.5 -1t24.5 -3q153 0 293 116h-623zM1130 -3h270v-471q0 -181 -79 -307q-94 -146 -264 -149q-32 0 -53 5q-47 0 -70 50q-6 16 -8 31q0 84 94 74q37 -3 58 -51.5t42 -43.5q107 24 141 129q21 65 21 204v367q0 47 -12 66.5t-54 38.5q-28 5 -86 10v47z" />
<glyph unicode="&#x107f;" horiz-adv-x="954" d="M232 236q47 -173 230 -171q213 3 213 352v746h191v-47q-50 -5 -61.5 -15.5t-11.5 -47.5v-670q0 -168 -63 -262q-84 -124 -247 -124q-165 0 -256 100q-47 65 -61 94q-60 129 -60 286v686h249q79 0 143 -70.5t64 -149.5v-199q0 -280 -330 -508zM339 1113q-42 -5 -44 -5 l-42 -21q-29 -18 -29 -89v-657q233 81 233 403v199q0 53 -34 111.5t-84 58.5z" />
<glyph unicode="&#x1080;" horiz-adv-x="1953" d="M719 588q-83 117 -235 117q-61 0 -112 -20t-96 -59q-85 -78 -87 -195v-9q0 -135 86 -237q45 -54 100.5 -82.5t123.5 -29.5q57 0 116 27.5t104 73.5v414zM830 891q1 -7 2 -30t1.5 -56.5t0.5 -73.5t0.5 -81.5t0.5 -80v-68.5v-66q32 -107 127 -196q155 -149 363 -150h6 q249 0 387 246q62 110 62 238q0 126 -67 245q-65 116 -177 186q-56 35 -115 52t-122 17h-17v-258h-44v432h44v-94q31 3 63 3h4q216 0 370 -161q157 -163 157 -380q0 -239 -193 -423t-434 -187h-4q-240 0 -410 203q-16 -29 -41 -57.5t-71 -57.5q-150 -88 -281 -88 q-159 0 -253 113q-48 57 -73 121.5t-25 136.5q0 161 139 279q132 113 297 116h6q97 0 186 -45v111q0 110 -63 187q-63 79 -168 80h-7q-185 0 -268 -241q-7 -24 -12.5 -58t-8.5 -79h-38v499h38v-212l66 57q94 83 254 86h4q139 0 235 -96q31 -31 51 -73t28 -96z" />
<glyph unicode="&#x1081;" horiz-adv-x="1344" d="M330 257h358q47 0 47 -47q0 -116 -144 -186q-180 -85 -415 254q-71 123 -74 277q-2 150 95 304q186 296 545 302q165 2 262 -63q118 -81 170 -152t76 -157h-136q-24 81 -89 154q-116 129 -330 134q-126 2 -242.5 -63.5t-183.5 -172.5t-70 -244q-2 -196 131 -340zM670 191 h-269q83 -107 130 -110q118 0 139 110zM249 -3h270v-471q0 -181 -79 -307q-94 -146 -264 -149q-32 0 -53 5q-47 0 -70 50q-6 16 -8 31q0 84 94 74q37 -3 58 -51.5t42 -43.5q107 24 141 129q21 65 21 204v367q0 47 -12 66.5t-54 38.5q-28 5 -86 10v47z" />
<glyph unicode="&#x1082;" horiz-adv-x="168" d="M-365 -717q32 0 62 6.5t62 20.5v238h49v-369h-49v56q-32 -14 -69.5 -21t-81.5 -7q-139 0 -236 102q-99 102 -99 239q0 151 121 265q120 114 272 117l-1 -74h-26h-7q-81 0 -140 -35.5t-100 -107.5q-19 -33 -27.5 -68t-8.5 -71q0 -74 39 -143q40 -69 105 -109 q32 -20 66 -29.5t69 -9.5z" />
<glyph unicode="&#x1083;" horiz-adv-x="802" d="M190 -884v33h63v1834q0 38 -16.5 63.5t-64.5 25.5h-22q-111 0 -111 -80v-213h-33v348h31v-42q20 10 50 15t72 5h259v-33h-63v-1834q0 -38 16.5 -63.5t64.5 -25.5h22q111 0 111 80v213h33v-348h-31v42q-20 -10 -50 -15t-72 -5h-259z" />
<glyph unicode="&#x1084;" horiz-adv-x="799" d="M788 22q-40 -18 -81.5 -27t-87.5 -9q-214 0 -368.5 143t-154.5 331q0 118 71 197t196 99q-76 44 -109.5 97.5t-33.5 128.5q0 88 57.5 142.5t149.5 54.5q79 0 141 -31t103 -91v131h39v-302h-41v8q0 90 -47 147.5t-118 57.5q-62 0 -98.5 -43t-36.5 -115q0 -57 34 -103.5 t96 -71.5q12 -5 46 -16q96 -30 146 -74l-20 -50q-46 39 -91 58t-94 19q-105 0 -171 -71t-66 -181q0 -158 115.5 -286.5t255.5 -128.5q43 0 79 9.5t72 28.5z" />
<glyph unicode="&#x1085;" d="M-318 1157q-24 -10 -48 -15.5t-51 -5.5q-125 0 -215.5 83.5t-90.5 193.5q0 69 41.5 115.5t114.5 57.5q-44 26 -63.5 57.5t-19.5 75.5q0 51 33.5 83t87.5 32q46 0 82 -18.5t60 -53.5v77h23v-177h-24v5q0 53 -27.5 86.5t-68.5 33.5q-37 0 -58 -25t-21 -67q0 -34 19.5 -61 t56.5 -42q7 -3 27 -9q56 -18 85 -43l-12 -30q-27 23 -53 34t-55 11q-61 0 -100 -41.5t-39 -105.5q0 -92 68 -167.5t149 -75.5q26 0 47 6t42 17z" />
<glyph unicode="&#x1086;" d="M-672 1648q33 0 64 17q28 15 43 40v213q-44 27 -86 27q-60 0 -101 -47t-41 -122q0 -57 34 -93q32 -35 87 -35zM-475 1908l-1 -256q0 -69 -12 -129t-44 -105q-60 -92 -143 -92q-41 0 -69 22q-29 20 -29 51q0 16 12 33q11 17 19 17q9 0 26 -45q16 -45 56 -45q42 0 67 47 q13 23 20 53t7 68v20q1 9 1 17v16v47q-42 -26 -107 -26q-89 0 -148 58q-60 58 -60 148q0 83 59 140q61 55 148 55q55 0 108 -30v21h136v-40l-27 -1q-8 0 -13.5 -9t-5.5 -35z" />
<glyph unicode="&#x1087;" horiz-adv-x="599" d="M303 41q33 0 64 17q28 15 43 40v213q-44 27 -86 27q-60 0 -101 -47t-41 -122q0 -57 34 -93q32 -35 87 -35zM500 301l-1 -256q0 -69 -12 -129t-44 -105q-60 -92 -143 -92q-41 0 -69 22q-29 20 -29 51q0 16 12 33q11 17 19 17q9 0 26 -45q16 -45 56 -45q42 0 67 47 q13 23 20 53t7 68v20q1 9 1 17v16v47q-42 -26 -107 -26q-89 0 -148 58q-60 58 -60 148q0 83 59 140q61 55 148 55q55 0 108 -30v21h136v-40l-27 -1q-8 0 -13.5 -9t-5.5 -35z" />
<glyph unicode="&#x1088;" horiz-adv-x="615" d="M303 41q33 0 64 17q28 15 43 40v213q-44 27 -86 27q-60 0 -101 -47t-41 -122q0 -57 34 -93q32 -35 87 -35zM500 301v-256q-1 -69 -13 -129t-43 -106q-62 -91 -144 -91q-41 0 -69 22q-29 20 -29 51q0 16 12 33q11 17 19 17q9 0 26 -45q16 -45 56 -45q42 0 67 47 q13 23 20 53t7 68v20q1 9 1 17v16v47q-42 -26 -107 -26q-89 0 -148 58q-60 58 -60 148q0 83 60 139q59 56 147 56q55 0 108 -30v21h136v-40l-27 -1q-8 0 -13.5 -9t-5.5 -35zM95 915q3 42 6.5 52.5t27.5 47.5q18 29 42 52q92 76 207 76q50 0 89 -31.5t39 -80.5v-152 q0 -68 -70.5 -149.5t-136.5 -81.5h-81q-50 0 -110 92q-16 23 -16 102v37q0 10 3 36zM189 795q0 -45 58 -102q8 -3 52 -6q53 -2 81.5 50.5t28.5 117.5v149q0 50 -10.5 73.5t-41.5 29.5q-63 0 -113 -34q-55 -19 -55 -152v-126z" />
<glyph unicode="&#x1089;" horiz-adv-x="615" d="M111 269q3 42 6.5 52.5t27.5 47.5q18 29 42 52q92 76 207 76q50 0 89 -31.5t39 -80.5v-152q0 -68 -70.5 -149.5t-136.5 -81.5h-81q-50 0 -110 92q-16 23 -16 102v37q0 10 3 36zM205 149q0 -45 58 -102q8 -3 52 -6q53 -2 81.5 50.5t28.5 117.5v149q0 50 -10.5 73.5 t-41.5 29.5q-63 0 -113 -34q-55 -19 -55 -152v-126z" />
<glyph unicode="&#x108a;" horiz-adv-x="882" d="M439 901q0 55 -35 87q-36 34 -93 34q-75 0 -122 -41t-47 -101q0 -43 27 -86h213q25 15 40 43q17 31 17 64zM179 704q-26 0 -35 -5.5t-9 -13.5l-1 -27h-40v136h21q-30 52 -30 108q0 88 56 147q55 60 139 60q89 0 148 -60q58 -59 58 -148q0 -65 -26 -107h47h16t17 1h20 q38 0 68 7t53 20q47 25 47 67q0 39 -45 56q-45 16 -45 26q0 8 17 19q16 12 33 12q31 0 51 -29q22 -28 22 -69q0 -82 -91 -144q-46 -31 -106 -43t-129 -12zM439 237q0 55 -35 87q-36 34 -93 34q-75 0 -122 -41t-47 -101q0 -43 27 -86h213q25 15 40 43q17 31 17 64zM179 40 q-26 0 -35 -5.5t-9 -13.5l-1 -27h-40v136h21q-30 52 -30 108q0 88 56 147q55 60 139 60q89 0 148 -60q58 -59 58 -148q0 -65 -26 -107h47h16t17 1h20q38 0 68 7t53 20q47 25 47 67q0 39 -45 56q-45 16 -45 26q0 8 17 19q16 12 33 12q31 0 51 -29q22 -28 22 -69 q0 -82 -91 -144q-46 -31 -106 -43t-129 -12z" />
<glyph unicode="&#x108b;" horiz-adv-x="615" d="M89 546q3 42 6.5 52.5t27.5 47.5q18 29 42 52q92 76 207 76q50 0 89 -31.5t39 -80.5v-152q0 -68 -70.5 -149.5t-136.5 -81.5h-81q-50 0 -110 92q-16 23 -16 102v37q0 10 3 36zM183 426q0 -45 58 -102q8 -3 52 -6q53 -2 81.5 50.5t28.5 117.5v149q0 50 -10.5 73.5 t-41.5 29.5q-63 0 -113 -34q-55 -19 -55 -152v-126z" />
<glyph unicode="&#x108c;" horiz-adv-x="1191" d="M117 463q3 42 6.5 52.5t27.5 47.5q18 29 42 52q92 76 207 76q50 0 89 -31.5t39 -80.5v-152q0 -68 -70.5 -149.5t-136.5 -81.5h-81q-50 0 -110 92q-16 23 -16 102v37q0 10 3 36zM211 343q0 -45 58 -102q8 -3 52 -6q53 -2 81.5 50.5t28.5 117.5v149q0 50 -10.5 73.5 t-41.5 29.5q-63 0 -113 -34q-55 -19 -55 -152v-126zM690 463q3 42 6.5 52.5t27.5 47.5q18 29 42 52q92 76 207 76q50 0 89 -31.5t39 -80.5v-152q0 -68 -70.5 -149.5t-136.5 -81.5h-81q-50 0 -110 92q-16 23 -16 102v37q0 10 3 36zM784 343q0 -45 58 -102q8 -3 52 -6 q53 -2 81.5 50.5t28.5 117.5v149q0 50 -10.5 73.5t-41.5 29.5q-63 0 -113 -34q-55 -19 -55 -152v-126z" />
<glyph unicode="&#x108d;" d="M-105 -351v-92h-749v93z" />
<glyph unicode="&#x108e;" horiz-adv-x="1362" d="M354 922q-157 -157 -155 -364q3 -137 68 -241q150 -239 428 -239q275 0 419 260q70 125 68 246q-3 202 -134 343h-689zM957 1006q-97 70 -236 68q-157 -3 -291 -89h555zM1187 846q92 -118 92 -304q0 -220 -158.5 -385t-378.5 -163q-357 3 -545 302q-97 154 -95 304 q3 154 74 277q165 286 469 281q152 -3 301 -89q68 -40 121 -84h193v-58h-136z" />
<glyph unicode="&#x108f;" horiz-adv-x="615" d="M89 934q3 42 6.5 52.5t27.5 47.5q18 29 42 52q92 76 207 76q50 0 89 -31.5t39 -80.5v-152q0 -68 -70.5 -149.5t-136.5 -81.5h-81q-50 0 -110 92q-16 23 -16 102v37q0 10 3 36zM183 814q0 -45 58 -102q8 -3 52 -6q53 -2 81.5 50.5t28.5 117.5v149q0 50 -10.5 73.5 t-41.5 29.5q-63 0 -113 -34q-55 -19 -55 -152v-126zM338 41q55 0 87 35q34 36 34 93q0 75 -41 122t-101 47q-43 0 -86 -27v-213q15 -25 43 -40q31 -17 64 -17zM141 301q0 26 -5.5 35t-13.5 9l-27 1v40h136v-21q52 30 108 30q87 0 148 -55q59 -57 59 -140q0 -90 -60 -148 q-59 -58 -148 -58q-65 0 -107 26v-47v-16t1 -17v-20q0 -38 7 -68t20 -53q25 -47 67 -47q39 0 56 45q16 45 26 45q8 0 19 -17q12 -17 12 -33q0 -31 -29 -51q-28 -22 -69 -22q-83 0 -143 92q-32 45 -44 105t-12 129z" />
<glyph unicode="&#x1090;" horiz-adv-x="769" d="M669 289q2 -138 -68.5 -212.5t-204.5 -76.5q-141 -2 -214 73t-76 224v894q3 150 76 224.5t214 72.5q134 -2 204.5 -76.5t68.5 -211.5v-911zM620 312v865q2 113 -41.5 167.5t-134.5 56.5q-90 2 -137.5 -43.5t-49.5 -133.5v-959q2 -89 49.5 -134t137.5 -43q91 2 134.5 56 t41.5 168z" />
<glyph unicode="&#x1091;" horiz-adv-x="659" d="M396 1492v-1240l151 144l30 -35l-347 -339l-35 33l51 47v1240l-129 -120l-32 35l327 315l35 -33z" />
<glyph unicode="&#x1092;" horiz-adv-x="800" d="M683 1212v-329l-59 -98v-3q-15 -24 -39 -68t-51 -98.5t-54.5 -114.5t-49.5 -116t-36 -103.5t-14 -75.5q0 -90 40 -127q40 -36 146 -36h18v-42h-363q14 99 46.5 197t79.5 202.5t108 220t132 249.5l-3 368q0 47 -13.5 88.5t-39 72t-62 48.5t-82.5 19q-81 2 -140 -49 t-94 -157q-3 -11 -6 -42.5t-5.5 -69t-4 -73.5t-2.5 -55h-33v550h33v-181l55 48q79 70 217 73q66 1 117 -20.5t86.5 -61t54 -95t18.5 -121.5z" />
<glyph unicode="&#x1093;" horiz-adv-x="997" d="M424 1532h24q31 -17 63 -17q5 0 16 0.5t17 0.5h200q25 0 62 16h28q-36 -60 -78 -135.5t-85 -157t-83 -163.5t-72 -154q23 5 48 8.5t52 4.5q66 1 117 -21t86.5 -61.5t54 -95t18.5 -121.5v-539l37 36l29 -29l-183 -183l-29 29l51 51l-4 662q0 47 -13.5 88t-39 72t-62 49 t-82.5 19q-57 0 -103 -24q-18 -44 -43 -102.5t-52 -123.5t-53.5 -131.5t-47.5 -126.5t-34 -108t-13 -76q0 -90 40 -127q42 -36 147 -36h18v-42h-363q7 54 29 126t53.5 156.5t71.5 179t84.5 192t91 196t91.5 192t86 178.5t75 156h-207v-92h-43v254z" />
<glyph unicode="&#x1094;" horiz-adv-x="897" d="M384 1537h24q15 -8 30.5 -13t32.5 -5q5 0 16 1t17 1h200q13 0 29 4t33 12h28q-32 -54 -69.5 -120t-75.5 -138l1 -1176q0 -32 13.5 -53.5t54.5 -21.5h19q93 0 93 67v180h28v-294h-26v35q-32 -16 -103 -16h-219v28h53l1 1086q-31 -63 -58.5 -122t-49.5 -112 q-18 -43 -43 -101.5t-52.5 -124.5t-54.5 -133.5t-48 -128.5t-34.5 -110.5t-13.5 -78.5q0 -90 40 -127q43 -35 147 -35h18v-43h-363q10 72 44.5 175.5t84 225t110 254t121.5 261.5t119 247.5t103 213.5h-207v-92h-43v254z" />
<glyph unicode="&#x1095;" horiz-adv-x="1021" d="M199 501q0 -29 0.5 -72t1 -84.5t1 -74t1.5 -40.5q12 -80 61 -129q17 -16 28 -26t18 -14q13 -10 49 -13q22 0 39 0.5t28 1.5q86 0 161 110q67 95 67 198v361q0 53 -40 86q-39 32 -97 35q-53 2 -95 -6.5t-77 -28.5q-38 -21 -65 -53q-7 -9 -18.5 -25.5t-28.5 -42.5 q-34 -50 -34 -183zM799 1500v-28h-53l1 -577h162v87h37v-331l-37 2q0 81 -40 125t-112 44h-10v-833h-87v158q-5 -7 -10.5 -13t-10.5 -13q-113 -131 -213 -131q-26 0 -44 -0.5t-28 -1.5q-41 0 -58 4q-56 6 -119 73q-9 10 -22.5 27t-30.5 42q-23 34 -23 163v198q0 165 128 287 q87 81 197 102q54 9 122 12q60 2 112 -28l-1 529q0 32 -13 53.5t-54 21.5h-19q-94 0 -94 -67v-180h-28v294h26v-36q33 17 103 17h219z" />
<glyph unicode="&#x1096;" horiz-adv-x="1021" d="M199 998q0 -133 34 -183q17 -26 28.5 -42.5t18.5 -25.5q27 -32 65 -53q35 -20 77 -28.5t95 -6.5q58 3 97 35q40 33 40 86v361q0 103 -67 198q-75 110 -161 110q-11 1 -28 1.5t-39 0.5q-36 -3 -49 -13q-7 -4 -18 -14t-28 -26q-49 -49 -61 -129q-1 -8 -1.5 -40.5t-1 -74 t-1 -84.5t-0.5 -72zM580 -1q-70 0 -103 17v-36h-26v294h28v-180q0 -67 94 -67h19q41 0 54 21.5t13 53.5l1 529q-52 -30 -112 -28q-68 3 -122 12q-110 21 -197 102q-128 122 -128 287v198q0 129 23 163q17 25 30.5 42t22.5 27q63 67 119 73q17 4 58 4q10 -1 28 -1.5t44 -0.5 q100 0 213 -131q5 -7 10.5 -13t10.5 -13v158h87v-833h10q72 0 112 44t40 125l37 2v-331h-37v87h-162l-1 -577h53v-28h-219z" />
<glyph unicode="&#x1097;" horiz-adv-x="826" d="M203 39h295q103 0 147 43q45 43 45 142v138h47v-440h-47v73h-640l506 1476h-211q-111 0 -155 -40q-46 -41 -46 -136v-80h-47v366h47v-65h570z" />
<glyph unicode="&#x1098;" horiz-adv-x="973" d="M845 353q0 153 -128 266q-126 114 -296 114q-125 0 -205 -71q-78 -71 -78 -185q0 -156 126 -271q126 -117 296 -117q130 0 207 72q78 73 78 192zM619 802q152 -45 224.5 -135t72.5 -233q0 -186 -124 -310q-123 -124 -307 -124q-189 0 -308 110q-120 111 -120 279 q0 133 71 240q35 51 81.5 90.5t107.5 67.5q-71 27 -119 85q-16 20 -27.5 38.5t-19.5 39.5t-12 47t-4 62v329q0 44 3 58q0 20 -13 26q-15 7 -63 11v40h191v-435q0 -74 13.5 -124t40 -80.5t66.5 -44t93 -14.5q61 -1 106 16t74.5 45t43.5 64t14 74v359q0 100 -152 100v40h270 v-385q0 -57 -9.5 -101.5t-26 -79t-38.5 -60.5t-47 -45q-39 -32 -82 -50z" />
<glyph unicode="&#x1099;" horiz-adv-x="978" d="M845 1168q0 118 -78 192q-77 72 -207 72q-170 0 -296 -117q-126 -116 -126 -271q0 -115 78 -185q80 -71 205 -71q170 0 296 114q128 113 128 266zM619 719q43 -18 82 -50q25 -19 47 -45t38.5 -60.5t26 -79t9.5 -101.5v-385h-270v40q152 0 152 100v359q0 37 -14 73.5 t-43.5 64.5t-74.5 45t-106 16q-53 -1 -93 -14.5t-66.5 -44t-40 -80.5t-13.5 -124v-435h-191v40q48 4 63 11q13 6 13 26q-3 13 -3 58v329q0 36 4 62t12 47t19.5 39.5t27.5 38.5q48 58 119 85q-61 28 -107.5 67.5t-81.5 90.5q-71 107 -71 240q0 168 120 279q119 110 308 110 q184 0 307 -124q124 -124 124 -310q0 -143 -72.5 -233t-224.5 -135z" />
<glyph unicode="&#x109a;" horiz-adv-x="606" d="M89 1549q3 42 6.5 52.5t27.5 47.5q18 29 42 52q92 76 207 76q50 0 89 -31.5t39 -80.5v-152q0 -68 -70.5 -149.5t-136.5 -81.5h-81q-50 0 -110 92q-16 23 -16 102v37q0 10 3 36zM183 1429q0 -45 58 -102q8 -3 52 -6q53 -2 81.5 50.5t28.5 117.5v149q0 50 -10.5 73.5 t-41.5 29.5q-63 0 -113 -34q-55 -19 -55 -152v-126z" />
<glyph unicode="&#x109b;" horiz-adv-x="623" d="M314 1458q33 0 64 17q28 15 43 40v213q-44 27 -86 27q-60 0 -101 -47t-41 -122q0 -57 34 -93q32 -35 87 -35zM510 1462q0 -69 -12 -129t-43 -106q-62 -91 -144 -91q-41 0 -69 22q-29 20 -29 51q0 16 12 33q11 17 19 17q9 0 26 -45q16 -45 56 -45q42 0 67 47q13 23 20 53 t7 68v20q1 9 1 17v16v47q-42 -26 -107 -26q-89 0 -148 58q-60 58 -60 148q0 83 60 139q59 56 147 56q55 0 108 -30v21h136v-40l-27 -1q-8 0 -13.5 -9t-5.5 -35z" />
<glyph unicode="&#x109c;" horiz-adv-x="904" d="M439 202q0 33 -17 64q-15 28 -40 43h-213q-27 -44 -27 -86q0 -60 47 -101t122 -41q57 0 93 34q35 32 35 87zM435 398q69 0 129 -12t106 -43q91 -62 91 -144q0 -41 -22 -69q-20 -29 -51 -29q-17 0 -33 12q-17 11 -17 19q0 9 45 26q45 16 45 56q0 42 -47 67q-23 13 -53 20 t-68 7h-20q-9 1 -17 1h-16h-47q26 -42 26 -107q0 -89 -58 -148q-59 -60 -148 -60q-84 0 -139 60q-56 59 -56 147q0 55 30 108h-21v136h40l1 -27q0 -8 9 -13.5t35 -5.5zM439 866q0 33 -17 64q-15 28 -40 43h-213q-27 -44 -27 -86q0 -60 47 -101t122 -41q57 0 93 34 q35 32 35 87zM435 1062q69 0 129 -12t106 -43q91 -62 91 -144q0 -41 -22 -69q-20 -29 -51 -29q-17 0 -33 12q-17 11 -17 19q0 9 45 26q45 16 45 56q0 42 -47 67q-23 13 -53 20t-68 7h-20q-9 1 -17 1h-16h-47q26 -42 26 -107q0 -89 -58 -148q-59 -60 -148 -60q-84 0 -139 60 q-56 59 -56 147q0 55 30 108h-21v136h40l1 -27q0 -8 9 -13.5t35 -5.5z" />
<glyph unicode="&#x109d;" d="M-166 1461v-306l48 47l37 -37l-236 -236l-38 37l66 66v463q0 61 -18.5 114t-52.5 93t-82 63t-107 24h-7q-103 0 -176.5 -65.5t-118.5 -199.5q-9 -29 -15 -65.5t-8 -86.5h-43v551h43v-234l71 63q103 90 280 93h8q83 0 148 -28.5t109.5 -79.5t68 -121.5t23.5 -154.5z" />
<glyph unicode="&#x109e;" horiz-adv-x="668" d="M89 1549q3 42 6.5 52.5t27.5 47.5q18 29 42 52q92 76 207 76q50 0 89 -31.5t39 -80.5v-152q0 -68 -70.5 -149.5t-136.5 -81.5h-81q-50 0 -110 92q-16 23 -16 102v37q0 10 3 36zM183 1429q0 -45 58 -102q8 -3 52 -6q53 -2 81.5 50.5t28.5 117.5v149q0 50 -10.5 73.5 t-41.5 29.5q-63 0 -113 -34q-55 -19 -55 -152v-126zM190 -884v33h63v1834q0 38 -16.5 63.5t-64.5 25.5h-22q-111 0 -111 -80v-213h-33v348h31v-42q20 10 50 15t72 5h259v-33h-63v-1834q0 -38 16.5 -63.5t64.5 -25.5h22q111 0 111 80v213h33v-348h-31v42q-20 -10 -50 -15 t-72 -5h-259z" />
<glyph unicode="&#x109f;" horiz-adv-x="1162" d="M443 278v191q0 94 -53 183q-55 91 -137 130v-628q0 -67 63 -92q16 -8 65 -11q41 -3 56 95q6 33 6 132zM808 -883q-57 0 -98 5t-68 18t-42 36t-20 60q-8 62 24.5 112t99.5 64v1477q0 96 -98 177q-78 66 -158 69q-21 2 -42.5 -4t-44.5 -18q-89 -31 -104 -95q-2 -12 -3 -29 t-1 -40v-95q119 -38 203 -147q84 -111 84 -233v-190q0 -119 -23 -180q-41 -101 -136 -101h-251v817q0 168 98 278q69 79 281 79q60 0 121 -31q20 -11 43.5 -28.5t48.5 -40.5l72 -114q11 -26 16.5 -50.5t7.5 -45t2.5 -36.5t2.5 -26v-1379q0 -35 -4.5 -50.5t-13.5 -22 t-22.5 -7.5t-31.5 -6q-35 -8 -58.5 -31.5t-24.5 -59.5q0 -24 13 -40.5t34 -26t46.5 -12.5t49.5 0q21 2 42 7.5t37 15.5t26 26t10 39v1715q0 66 -6 111.5t-20 68.5q-27 48 -133 88l-168 66q-113 49 -164 100q-69 68 -71 175q-3 53 26 115q50 110 180 136q33 6 69.5 9.5 t74.5 3.5h77q91 0 175 -35v88h32v-471h-32v255q-103 99 -223 99h-73q-51 0 -79 -11q-38 -9 -66 -34.5t-50 -67.5q-5 -12 -8 -32t-5 -48q0 -74 42 -122q13 -16 38.5 -36.5t63.5 -46.5q66 -46 156 -85q74 -33 115.5 -53.5t51.5 -27.5q101 -72 101 -170v-1882h55v-51z" />
<glyph unicode="&#x1700;" />
<glyph unicode="&#x200b;" />
<glyph unicode="&#x200c;" />
<glyph unicode="&#x200d;" />
<glyph unicode="&#x2013;" horiz-adv-x="1309" d="M0 630h1311v-124h-1311v124z" />
<glyph unicode="&#x2014;" horiz-adv-x="2618" d="M0 630h2621v-124h-2621v124z" />
<glyph unicode="&#x2018;" horiz-adv-x="552" d="M244 1491q11 3 20.5 4t18.5 1q51 0 87 -34.5t36 -82.5t-36.5 -84.5t-86.5 -36.5q-58 0 -90.5 48t-32.5 133q0 112 55.5 192t135.5 80h2v-67q-52 -24 -77.5 -59.5t-31.5 -93.5z" />
<glyph unicode="&#x2019;" horiz-adv-x="611" d="M328 1478q-22 -5 -28.5 -6t-11.5 -1q-51 0 -87 34.5t-36 82.5q0 50 36.5 86.5t86.5 36.5q56 0 90 -47t34 -128q0 -118 -56 -198t-138 -80v66q51 23 77 59.5t33 94.5z" />
<glyph unicode="&#x201a;" horiz-adv-x="598" d="M325 -19q-15 -3 -24.5 -5t-15.5 -2q-51 0 -86.5 35.5t-35.5 85.5q0 48 36.5 84t85.5 36q57 0 90 -47.5t33 -127.5q0 -119 -55.5 -198.5t-137.5 -79.5v65q51 23 77.5 59.5t32.5 94.5z" />
<glyph unicode="&#x201c;" horiz-adv-x="949" d="M595 1492q12 2 22 3t20 1q52 0 86.5 -34t34.5 -83t-36 -85t-85 -36q-58 0 -92 49t-34 132q0 60 21 118t56 97q26 29 55.5 43t61.5 14v-67q-52 -24 -77.5 -59t-32.5 -93zM244 1491q11 3 20.5 4t18.5 1q51 0 87 -34.5t36 -82.5t-36.5 -84.5t-86.5 -36.5q-58 0 -90.5 48 t-32.5 133q0 112 55.5 192t135.5 80h2v-67q-52 -24 -77.5 -59.5t-31.5 -93.5z" />
<glyph unicode="&#x201d;" horiz-adv-x="966" d="M325 1476q-11 -3 -19.5 -4t-20.5 -1q-51 0 -86.5 34.5t-35.5 82.5q0 50 36.5 85.5t85.5 35.5q58 0 90.5 -46t32.5 -127q0 -119 -55.5 -199.5t-137.5 -80.5v68q53 24 78.5 59t31.5 93zM678 1476q-10 -3 -19.5 -4t-21.5 -1q-51 0 -86 34.5t-35 82.5q0 50 35 85.5t86 35.5 q57 0 91.5 -47t34.5 -126q0 -118 -57.5 -199t-139.5 -81v68q54 24 80.5 60t31.5 92z" />
<glyph unicode="&#x2020;" horiz-adv-x="1154" d="M1059 866h-400v-1212h-180v1212h-399v160h399v406h180v-406h400v-160z" />
<glyph unicode="&#x2022;" horiz-adv-x="717" d="M358 971q105 0 179.5 -74.5t74.5 -179.5q0 -104 -74.5 -178t-179.5 -74q-104 0 -179 74t-75 178q0 105 75 179.5t179 74.5z" />
<glyph unicode="&#x2030;" horiz-adv-x="2543" d="M2374 298q0 169 -97.5 305.5t-215.5 136.5q-82 0 -133.5 -65.5t-51.5 -171.5q0 -169 99.5 -307t218.5 -138q84 0 132 64t48 176zM2126 -37q-157 0 -264.5 124t-107.5 314q0 189 105 310.5t267 121.5q154 0 264.5 -123.5t110.5 -301.5q0 -199 -104.5 -322t-270.5 -123z M1521 298q0 168 -99.5 305t-218.5 137q-82 0 -132.5 -65.5t-50.5 -171.5q0 -169 100 -307t220 -138q85 0 133 64t48 176zM1271 -37q-157 0 -266 124t-109 314q0 189 106 310.5t269 121.5q155 0 264 -123.5t109 -301.5q0 -199 -103.5 -322t-269.5 -123zM1293 1638h120 l-1017 -1714h-121zM671 1073q0 166 -99.5 303t-218.5 137q-80 0 -131.5 -66t-51.5 -173q0 -169 99.5 -306t218.5 -137q84 0 133.5 64.5t49.5 177.5zM430 736q-165 0 -274 123t-109 316q0 188 105 309.5t268 121.5q153 0 264 -124t111 -302q0 -198 -102.5 -321t-262.5 -123z " />
<glyph unicode="&#x2039;" horiz-adv-x="560" d="M367 131l-302 407l302 408h171l-343 -408l343 -407h-171z" />
<glyph unicode="&#x203a;" horiz-adv-x="598" d="M192 946l301 -406l-301 -409h-172l345 409l-345 406h172z" />
<glyph unicode="&#x2044;" horiz-adv-x="418" d="M758 1670h115l-1196 -1707h-115z" />
<glyph unicode="&#x20ac;" horiz-adv-x="1139" d="M1108 1409l-41 -184q-122 100 -276 100q-209 0 -328.5 -120t-143.5 -269h682l-26 -135h-672l-2 -39l2 -92h643l-26 -135h-596q38 -203 164.5 -298.5t285.5 -95.5q188 0 293 99v-207q-124 -58 -276 -58q-552 0 -666 560h-154l29 135h104q-2 24 -2 90v41h-131l29 135h117 q52 276 241 415.5t437 139.5q186 0 313 -82z" />
<glyph unicode="&#x2122;" horiz-adv-x="2103" d="M1009 1841h234l180 -512l190 512h223v-32l-39 -3q-28 -2 -43.5 -19.5t-15.5 -48.5v-477q0 -31 15.5 -48t43.5 -20l39 -3v-34h-303v34l40 3q27 3 42.5 20.5t15.5 47.5v505l-228 -613h-19l-223 613v-505q0 -30 16 -47.5t44 -20.5l40 -3v-34h-252v34l43 3q27 3 41.5 20.5 t14.5 47.5v475q0 29 -16 47t-44 21l-39 2v35zM328 1841h563l14 -228h-32q-10 101 -51.5 147t-123.5 46h-27v-545q0 -30 15 -47.5t42 -20.5l40 -3v-34h-317v34l39 3q27 1 42.5 19.5t15.5 48.5v545h-26q-82 0 -124 -46t-52 -147h-34z" />
<glyph unicode="&#x2202;" horiz-adv-x="1196" d="M295 1120h-45q132 303 379 303q152 0 249 -109q117 -131 117 -394q0 -355 -166 -656q-163 -295 -426 -295q-158 0 -248 93q-89 90 -89 243q0 239 165 420.5t385 181.5q223 0 312 -190h4q10 102 10 186q0 173 -91 275t-255 102q-193 0 -301 -160zM911 629 q-83 225 -284 225q-180 0 -295 -204q-99 -176 -99 -386q0 -104 52 -169q54 -68 145 -68q135 0 278.5 160.5t202.5 441.5z" />
<glyph unicode="&#x220f;" horiz-adv-x="2037" d="M73 1885h1893v-89h-238v-2211h238v-88h-710v88h252v2211h-976v-2211h251v-88h-710v88h239v2211h-239v89z" />
<glyph unicode="&#x2211;" horiz-adv-x="1815" d="M15 1885h1453l126 -435h-95l-86 281q-10 34 -41 49.5t-93 15.5h-949l1106 -1088v-48l-1098 -967h1143q77 0 99.5 16.5t37.5 65.5l91 293h95l-173 -571h-1613v36l1227 1072l-1230 1216v64z" />
<glyph unicode="&#x221a;" horiz-adv-x="1710" d="M1416 2108h233v-105h-153l-760 -2055h-68l-413 1143l-153 -55l-29 87l335 117l340 -933z" />
<glyph unicode="&#x221e;" horiz-adv-x="2183" d="M1158 716q66 -122 153 -181.5t199 -59.5q131 0 216 91t85 231q0 139 -78 230.5t-194 91.5q-109 0 -197 -93t-184 -310zM1028 852q-65 122 -152.5 183t-197.5 61q-134 0 -218.5 -91t-84.5 -234q0 -139 78 -229.5t195 -90.5q108 0 194 88t186 313zM1108 632 q-90 -176 -189 -257.5t-221 -81.5q-172 0 -289.5 139.5t-117.5 348.5q0 220 105.5 355t274.5 135q124 0 220 -80.5t184 -259.5q86 176 187 260.5t224 84.5q172 0 289.5 -139t117.5 -349q0 -218 -105 -354t-272 -136q-123 0 -216.5 77t-191.5 257z" />
<glyph unicode="&#x222b;" horiz-adv-x="1036" d="M889 1938q0 -56 -30 -92.5t-79 -36.5q-48 0 -82 31t-34 80q0 17 6 41.5t6 33.5q0 29 -25 29q-43 0 -80 -49q-63 -84 -63 -232q0 -37 82 -628q53 -382 53 -639q0 -529 -59 -766q-29 -119 -106 -191.5t-173 -72.5q-77 0 -126.5 43t-49.5 112q0 54 32 90.5t79 36.5 q46 0 77 -34.5t31 -82.5q0 -17 -5 -38t-5 -29q0 -29 22 -29q57 0 99.5 72t42.5 180q0 101 -84 760q-49 384 -49 729q0 306 31 475q32 177 109 270t196 93q75 0 129.5 -46t54.5 -110z" />
<glyph unicode="&#x2248;" horiz-adv-x="1706" d="M1530 584v-131q-107 -75 -202 -110.5t-187 -35.5q-98 0 -288 69.5t-290 69.5q-82 0 -169.5 -35.5t-215.5 -123.5v131q108 74 203.5 110.5t183.5 36.5q111 0 301.5 -69.5t276.5 -69.5q85 0 173.5 35.5t213.5 122.5zM1530 934v-131q-104 -73 -200 -108.5t-187 -35.5 q-100 0 -290 69t-290 69q-83 0 -171.5 -36t-213.5 -122v131q106 73 202 109t185 36q111 0 300.5 -68.5t277.5 -68.5q87 0 175 35t212 121z" />
<glyph unicode="&#x2260;" horiz-adv-x="2154" d="M1549 1510l112 -89l-250 -320h448v-147h-543l-270 -346h813v-147h-908l-321 -409l-114 90l252 319h-443v147h538l270 346h-808v147h901z" />
<glyph unicode="&#x2264;" horiz-adv-x="2137" d="M335 192h1513v-150h-1513v150zM1848 1526v-160l-1250 -415l1250 -413v-160l-1513 510v130z" />
<glyph unicode="&#x2265;" horiz-adv-x="2170" d="M335 192h1513v-150h-1513v150zM335 1526l1513 -508v-130l-1513 -510v160l1253 413l-1253 415v160z" />
<glyph unicode="&#x25ca;" horiz-adv-x="1012" d="M506 1409l-385 -817l385 -825l385 825zM506 1653l500 -1061l-500 -1069l-500 1069z" />
<glyph unicode="&#xa900;" horiz-adv-x="1229" d="M345 -20q-105 0 -176 78q-70 79 -70 216v589q0 267 235 294h548q247 -8 247 -294v-589q0 -109 -37 -175q-38 -67 -91 -94q-53 -25 -101 -25h-555zM858 112q117 0 117 147v612q0 147 -140 147h-465q-130 -3 -130 -171v-575q0 -158 147 -158z" />
<glyph unicode="&#xa901;" horiz-adv-x="1125" d="M489 101l290 -2q105 0 105 89v73q0 9 -37 9q-91 0 -206 -43.5t-152 -125.5zM884 755v148q0 67 -20 99t-90 32h-433q-75 -2 -95 -46t-20 -106v-3h-127v16q0 238 211 263h506q206 -6 206 -263v-254h-681q-115 -2 -115 -169v-231q0 -140 131 -140q23 90 117 156.5t216 102.5 t216 36q116 0 116 -47v-105q0 -97 -34 -157t-81 -83.5t-91 -23.5h-496q-94 0 -157.5 70.5t-63.5 193.5v242q0 245 211 269h574z" />
<glyph unicode="&#xa902;" horiz-adv-x="1239" d="M699 -20h-159l-441 1177h141l379 -1006l363 1006h147z" />
<glyph unicode="&#xa903;" horiz-adv-x="1244" d="M387 716h-288v147q0 267 235 294h548q247 -8 247 -294v-118l-886 -430l-3 -43q0 -92 49 -131q10 23 86 76q88 61 212 109t236 48h306v-100q0 -108 -37.5 -175t-90.5 -93t-101 -26h-555q-105 0 -175.5 78.5t-70.5 215.5v135l876 407v55q0 147 -140 147h-465 q-130 -2 -130 -171v-31h147v-100zM387 114l471 -2q117 0 117 112v38h-140q-88 0 -172 -28t-199 -77q-70 -29 -110 -41q16 -2 33 -2z" />
<glyph unicode="&#xa904;" horiz-adv-x="1234" d="M239 969l189 188h454q247 -8 247 -294v-587q0 -158 -73.5 -226t-155.5 -68h-160v129l118 3q117 0 117 148v609q0 147 -140 147h-359l-237 -238v-148q0 -156 148 -156h95v-136h-137q-106 0 -176 79t-70 215v523h140v-188z" />
<glyph unicode="&#xa905;" horiz-adv-x="1234" d="M523 112v-132h-178q-105 0 -175.5 78.5t-70.5 215.5v589q0 267 235 294h801v-302h-141v164h-624q-130 -3 -130 -171v-576q0 -158 147 -158z" />
<glyph unicode="&#xa906;" horiz-adv-x="1234" d="M975 342v529q0 147 -140 147h-124l-471 -780v-258h-141v1177h141v-630l383 630h259q247 -8 247 -294v-677q-71 -206 -271 -206q-113 0 -180.5 53.5t-69.5 142.5q0 87 45.5 163t150.5 76h36q19 0 42 -5.5t47.5 -22t45.5 -45.5zM928 183q-9 109 -111 109q-85 -8 -85 -103 q0 -86 85 -97q96 0 111 91z" />
<glyph unicode="&#xa907;" horiz-adv-x="1239" d="M541 817v-139h-171q-130 -2 -130 -171v-235q0 -158 147 -158l471 -2q117 0 117 147v417h-140v141h140v209l-140 -106v168l140 98h154v-912q0 -108 -37.5 -175t-90.5 -93t-101 -26h-555q-105 0 -175.5 78.5t-70.5 215.5v249q0 267 235 294h207z" />
<glyph unicode="&#xa908;" horiz-adv-x="1229" d="M1129 409v-135q0 -108 -37.5 -175t-90.5 -93t-101 -26h-555q-105 0 -175.5 78.5t-70.5 215.5v883h141v-885q0 -158 147 -158l471 -2q117 0 117 147v150h154z" />
<glyph unicode="&#xa909;" horiz-adv-x="1244" d="M892 817q235 -27 235 -294v-249q0 -137 -70.5 -215.5t-175.5 -78.5h-555q-48 0 -101 26t-90.5 93t-37.5 175v912h154l140 -98v-168l-140 106v-209h140v-141h-140v-417q0 -147 117 -147l471 2q147 0 147 158v235q0 169 -130 171h-171v139h207z" />
<glyph unicode="&#xa90a;" horiz-adv-x="1353" d="M905 1022l-318 -321v-721h-488v312q0 63 13.5 110t65.5 78l268 267v116q0 86 -16.5 122.5t-77.5 36.5l-35 3q-49 0 -63 -32t-14 -110v-103h-141v201q0 170 147 176h171q82 0 126 -53t44 -144v-73l271 270h148q247 -8 247 -294v-883h-330v132h176v759q0 151 -141 151h-53z M240 286v-174l206 2v444l-165 -166q-41 -48 -41 -106z" />
<glyph unicode="&#xa90b;" horiz-adv-x="1234" d="M975 668v203q0 147 -140 147h-465q-130 -2 -130 -171v-179h735zM975 551h-876v312q0 267 235 294h548q247 -8 247 -294v-589q0 -108 -37.5 -175t-90.5 -93t-101 -26h-555q-105 0 -175.5 78.5t-70.5 215.5v111h403v-105h-262v-8q0 -158 147 -158l471 -2q117 0 117 147v292 z" />
<glyph unicode="&#xa90c;" horiz-adv-x="1244" d="M975 592v279q0 147 -140 147h-41l-415 -429zM240 633l500 524h142q247 -8 247 -294v-883h-347v132h193v345h-735v-345h211v-132h-352v1177h141v-524z" />
<glyph unicode="&#xa90d;" horiz-adv-x="1239" d="M753 468h376v-194q0 -108 -37.5 -175t-90.5 -93t-101 -26h-555q-105 0 -175.5 78.5t-70.5 215.5v589q0 267 235 294h548q247 -8 247 -294v-201h-371v115l217 3v91q0 147 -140 147h-465q-130 -2 -130 -171v-575q0 -158 147 -158l471 -2q117 0 117 147v85h-222v124z" />
<glyph unicode="&#xa90e;" horiz-adv-x="1229" d="M463 581q22 -95 104 -95q85 0 94 95q0 116 -100 116q-43 -2 -70.5 -33.5t-27.5 -82.5zM975 114v757q0 147 -140 147h-465q-130 -2 -130 -171v-34q0 -157 135 -157q33 153 195 153q96 0 150.5 -64t54.5 -169q0 -58 -31.5 -105t-83 -72t-102.5 -25q-57 3 -107 39l-184 -299 h179v-134h-347v118l246 424q-105 0 -175.5 78.5t-70.5 215.5v47q0 267 235 294h548q247 -8 247 -294v-883h-371v134h217z" />
<glyph unicode="&#xa90f;" horiz-adv-x="1324" d="M328 787h-142v77q0 267 236 294h548q248 -8 248 -294v-589q0 -109 -37.5 -176t-90.5 -93t-101 -26h-101v135h59q118 0 118 144v142q0 148 -142 148h-465q-87 -2 -108.5 -31.5t-21.5 -87.5v-450h-229v112h87v342q0 129 58 184t178 69h484q106 0 159 -41v226 q0 149 -142 149h-465q-130 -4 -130 -137v-97z" />
<glyph unicode="&#xa910;" horiz-adv-x="1253" d="M520 -467v-139h-169q-107 0 -179.5 80.5t-72.5 219.5v1462h145v-291q73 144 175.5 214.5t251.5 76.5q185 0 325 -108t156 -373q0 -118 -53.5 -200.5t-134 -138t-149.5 -55.5l295 -145v-156h-669v121h458l-444 201q212 0 332.5 70.5t164 148.5t43.5 152q0 143 -86 244 t-248 101q-78 -5 -141.5 -44.5t-110 -97t-89.5 -133t-76 -137.5v-915q0 -158 150 -158h126z" />
<glyph unicode="&#xa911;" horiz-adv-x="1244" d="M249 -3v-322q0 -60 30 -104t91 -44l474 -3q71 0 101.5 21.5t39.5 73.5q6 21 6 104h-223v120h371v-195q0 -137 -75.5 -198t-178.5 -61h-557q-83 0 -156 70.5t-73 230.5v778h377v-125h-227v-85q0 -56 27.5 -101.5t93.5 -45.5l474 3q151 0 151 138q0 9 -1 19v577 q0 168 -130 170h-471q-86 0 -115 -48t-29 -99v-91l220 -3v-116h-370v202q0 286 247 294h554q239 -27 239 -294v-590q0 -139 -72.5 -217t-181.5 -78h-557q-47 0 -79 19z" />
<glyph unicode="&#xa912;" horiz-adv-x="1234" d="M929 184q-9 108 -112 108q-85 -8 -85 -103q0 -86 85 -97q96 0 112 92zM1135 421q0 -435 -276 -441q-108 0 -178.5 52.5t-72.5 143.5q0 87 45.5 163.5t151.5 76.5q16 0 35.5 -0.5t42 -6t47 -22t46.5 -45.5q0 142 -47.5 213.5t-193.5 87.5q-101 0 -199 -49t-177.5 -142 t-118.5 -214v-258h-141v1177h141l883 -183v-123l-883 162v-485q80 113 206.5 187.5t282.5 74.5q69 0 124 -12q133 -27 203 -122.5t79 -234.5z" />
<glyph unicode="&#xa913;" horiz-adv-x="1234" d="M541 1157v-139h-171q-130 -2 -130 -171v-575q0 -158 147 -158l471 -2q117 0 117 147v1327l-140 -106v168l140 98h154v-1472q0 -108 -37.5 -175t-90.5 -93t-101 -26h-555q-105 0 -175.5 78.5t-70.5 215.5v589q0 267 235 294h207z" />
<glyph unicode="&#xa914;" horiz-adv-x="1229" d="M558 -470v-139h-213q-95 0 -170.5 76.5t-75.5 217.5v742h347v-114h-207v-41q0 -157 148 -157l471 -3q117 0 117 147v115l-393 130l-483 164v195q0 267 235 294h548q247 -8 247 -294v-135h-301v96l147 3v44q0 147 -140 147h-465q-131 -2 -131 -171v-96l401 -136l489 -147 v-194q0 -108 -37.5 -175t-90.5 -93t-101 -26h-555q-70 0 -106 18v-315q0 -153 148 -153h171z" />
<glyph unicode="&#xa915;" horiz-adv-x="1229" d="M240 416l735 364v91q0 147 -140 147h-465q-130 -2 -130 -171v-431zM240 272q0 -157 147 -157l471 -3q117 0 117 147v51h-222v117h376v-153q0 -108 -37.5 -175t-90.5 -93t-101 -26h-555q-105 0 -175.5 78.5t-70.5 215.5v589q0 266 235 294h548q247 -8 247 -294v-147z" />
<glyph unicode="&#xa916;" horiz-adv-x="1315" d="M731 1412h251v77q0 102 -158 102h-432q-72 0 -106.5 -51.5t-34.5 -111.5v-337q26 67 158 67h479q128 -22 181 -82.5t53 -250.5v-722h88v-123h-228v850q0 93 -21.5 138t-107.5 47h-461q-141 -42 -141 -245v-487q0 -101 24 -144q22 -39 81 -39h70v-120h-99 q-109 0 -168.5 65t-59.5 263v1116q0 296 245 311h533q122 -21 183.5 -83.5t61.5 -198.5v-164h-391v123z" />
<glyph unicode="&#xa917;" horiz-adv-x="1239" d="M887 112l-276 280l-271 -278zM782 1157h347v-883q0 -108 -37.5 -175t-90.5 -93t-101 -26h-555q-105 0 -175.5 78.5t-70.5 215.5v883h323v-139h-182v-788l371 351l364 -351v788h-193v139z" />
<glyph unicode="&#xa918;" horiz-adv-x="1234" d="M99 1157h783q247 -8 247 -294v-118l-886 -430l-3 -43q0 -158 147 -158l471 -2q117 0 117 112v38h-140q-88 0 -172 -28t-199 -76.5t-147 -48.5q-29 0 -29 26q0 22 87.5 82.5t211.5 108.5t236 48h306v-100q0 -108 -37.5 -175t-90.5 -93t-101 -26h-555q-105 0 -175.5 78.5 t-70.5 215.5v135l876 407v55q0 147 -140 147h-735z" />
<glyph unicode="&#xa919;" horiz-adv-x="1229" d="M975 342v529q0 147 -140 147h-124l-471 -780v-258h-141v1177h141v-630l383 630h259q247 -8 247 -294v-677q-71 -206 -271 -206q-113 0 -180.5 53.5t-69.5 142.5q0 87 45.5 163t150.5 76h36q19 0 42 -5.5t47.5 -22t45.5 -45.5zM928 183q-9 109 -111 109q-85 -8 -85 -103 q0 -86 85 -97q96 0 111 91z" />
<glyph unicode="&#xa91a;" horiz-adv-x="1234" d="M239 115h243v-135h-383v1177h140v-188l189 188h454q247 -8 247 -294v-1178q0 -159 -73.5 -226.5t-155.5 -67.5h-160v129l118 3q117 0 117 148v1200q0 147 -140 147h-359l-237 -238v-665z" />
<glyph unicode="&#xa91b;" horiz-adv-x="1737" d="M1488 112v759q0 147 -142 147h-247q-148 0 -148 -150q0 -10 1 -21v-575q0 -154 -81.5 -223t-195.5 -69h-330q-95 0 -170.5 76.5t-75.5 217.5v883h393v-139h-252v-746q0 -158 147 -158l253 -2q84 0 128 46t44 116v589q0 142 71.5 216t197.5 78h313q247 -8 247 -294v-883 h-371v132h218z" />
<glyph unicode="&#xa91c;" horiz-adv-x="1585" d="M1488 -316q0 -158 -72.5 -225t-157.5 -67h-888q-106 0 -177 77.5t-71 214.5v167h388v-111h-235v-41q0 -168 136 -168l806 -4q118 0 118 142v312q-37 -15 -77 -15h-294q-105 0 -176 79t-71 215v612q0 147 -142 147h-205q-130 -3 -130 -171v-575q0 -158 147 -158l94 -2 v-132h-136q-105 0 -175.5 79t-70.5 215v589q0 266 235 293h289q247 -8 247 -293v-589q0 -180 135 -180l212 4q118 0 118 147v626q0 147 -142 147h-100v138h148q247 -8 247 -293v-1180z" />
<glyph unicode="&#xa91d;" horiz-adv-x="1239" d="M700 1158h207q239 -26 239 -289v-592q0 -138 -72 -217.5t-179 -79.5h-557q-85 0 -159 69t-74 228v1471h153l144 -86v-152l-144 85v-1333q0 -150 119 -150l477 3q147 0 147 160v581q0 68 -23 116.5t-107 50.5h-171v135z" />
<glyph unicode="&#xa91e;" horiz-adv-x="1229" d="M975 -2q-29 -18 -75 -18h-555q-106 0 -176 78.5t-70 215.5v589q0 267 235 294h548q247 -8 247 -294v-201h-371v115l217 3v91q0 147 -140 147h-465q-131 -2 -131 -171v-575q0 -157 148 -157l471 -3q117 0 117 147v85h-222v124h376v-777q0 -159 -73.5 -229.5t-155.5 -70.5 h-555q-99 0 -172.5 61t-73.5 197v196h364v-121h-217q0 -82 3 -104q9 -52 40 -73t98 -21l471 4q58 0 87.5 39t29.5 108v321z" />
<glyph unicode="&#xa91f;" horiz-adv-x="1229" d="M239 344v-72q0 -157 148 -157l68 -3l520 521v524h154v-1472q0 -159 -73.5 -226.5t-155.5 -67.5h-106v132h64q117 0 117 148v756l-447 -447h-183q-95 0 -170.5 76.5t-75.5 217.5v883h412v-403q-9 -161 -79 -262q-57 -83 -193 -148zM239 492q64 17 100 86t36 176v264h-136 v-526z" />
<glyph unicode="&#xa920;" horiz-adv-x="1229" d="M399 362h-159v-90q0 -158 147 -158l471 -2q117 0 117 147v748l-375 -277l-360 277v-244h-141v394h171l330 -259l341 259h188v-883q0 -108 -37.5 -175t-90.5 -93t-101 -26h-555q-105 0 -175.5 78.5t-70.5 215.5v206h300v-118z" />
<glyph unicode="&#xa921;" horiz-adv-x="1234" d="M975 1449q0 147 -140 147h-465q-130 -3 -130 -136v-61h265v-112h-406v152q0 267 235 294h548q247 -8 247 -294v-1459h-147l-742 968v-845h206v-123h-347v1177h147l729 -945v1237z" />
<glyph unicode="&#xa922;" horiz-adv-x="1229" d="M211 568q-112 4 -112 124v171q0 267 235 294h548q247 -8 247 -294v-201h-342v115l188 3v91q0 147 -140 147h-465q-130 -2 -130 -171v-131q0 -41 33 -65t79 -24h230v-129h-219q-57 0 -93 -41q-31 -35 -31 -62q0 -6 1 -10v-113q0 -158 147 -158l471 -2q117 0 117 147v85 h-193v124h347v-194q0 -108 -37.5 -175t-90.5 -93t-101 -26h-555q-105 0 -175.5 78.5t-70.5 215.5v183q0 96 112 111z" />
<glyph unicode="&#xa923;" horiz-adv-x="1229" d="M975 427l-447 -447h-183q-95 0 -170.5 76.5t-75.5 217.5v883h300v-139h-159v-746q0 -158 147 -158l68 -2l520 521v385h-152v139h306v-883q0 -108 -37.5 -175t-90.5 -93t-101 -26h-106v132h64q117 0 117 147v168z" />
<glyph unicode="&#xa924;" horiz-adv-x="1229" d="M434 798v-118h-335v183q0 267 235 294h548q247 -8 247 -294v-589q0 -108 -37.5 -175t-90.5 -93t-101 -26h-555q-105 0 -175.5 78.5t-70.5 215.5v65l876 495v37q0 147 -140 147h-465q-130 -2 -130 -171v-49h194zM975 686l-735 -418v-38q0 -47 30.5 -81.5t87.5 -34.5 l500 -2q117 0 117 147v427z" />
<glyph unicode="&#xa925;" horiz-adv-x="1229" d="M345 -20q-105 0 -175.5 78.5t-70.5 215.5v589q0 267 235 294h548q247 -8 247 -294v-589q0 -108 -37.5 -175t-90.5 -93t-101 -26h-555zM970 948q-4 45 -37.5 57.5t-97.5 12.5h-465q-118 0 -124 -70q148 -130 383 -144q200 0 341 144zM975 783q-78 -79 -165 -100t-187 -21 q-120 8 -208 29.5t-175 96.5v-516q0 -158 147 -158l471 -2q117 0 117 147v524z" />
<glyph unicode="&#xa926;" d="M-683 1699l39 40h128l46 -45v-128l-40 -40h-134l-39 40v133z" />
<glyph unicode="&#xa927;" d="M-445 1415l190 -133h-172l-518 350h193z" />
<glyph unicode="&#xa928;" d="M-341 1282l-275 273l-271 -273h-163l434 457l437 -457h-162z" />
<glyph unicode="&#xa929;" d="M-1013 1573q0 -157 148 -157l473 -3q119 0 119 148v175h154v-160q0 -162 -70 -231q-65 -65 -148 -65h-569q-107 0 -178 79t-71 217v160h142v-163z" />
<glyph unicode="&#xa92a;" d="M-1013 1575q0 -156 148 -156l473 -4q119 0 119 148v176h154v-161q0 -161 -70 -230q-66 -65 -149 -65h-569q-106 0 -177 79t-71 216v161h142v-164zM-587 1526h-136l-47 47v124l41 42h142l47 -49v-117z" />
<glyph unicode="&#xa92b;" d="M-683 -187l40 41h132l45 -45v-131l-40 -41h-137l-40 41v135z" />
<glyph unicode="&#xa92c;" d="M-788 -20l-116 -40q-36 -36 -47.5 -68.5t-11.5 -96.5v-93q0 -156 146 -156l468 4q118 0 118 140v115h152v-100q0 -159 -73 -226t-156 -67h-550q-105 0 -175 78.5t-70 214.5v134q0 96 52 164t141 87z" />
<glyph unicode="&#xa92d;" d="M-777 -8l-119 -53q-41 -30 -53 -71t-12 -125v-59q0 -157 148 -157l474 3q118 0 118 142v116h155v-101q0 -160 -73.5 -227.5t-158.5 -67.5h-556q-107 0 -178 78.5t-71 216.5v137q0 210 173 254zM-593 -147q51 0 87.5 -28t36.5 -91q-8 -99 -131 -99q-97 10 -106 106 q0 98 113 112z" />
<glyph unicode="&#xa92e;" horiz-adv-x="1733" d="M1638 -2h-201q-114 90 -284 147.5t-288 57.5q-116 -1 -240 -41t-210.5 -90t-86.5 -74h-229q33 91 164 179t291 143t278 55q146 0 320.5 -52t308 -138.5t177.5 -186.5z" />
<glyph unicode="&#xa92f;" horiz-adv-x="365" d="M239 -20h-140v1176l140 -3v-1173z" />
<glyph unicode="&#xaa60;" horiz-adv-x="1899" d="M1522 181h-451q34 -45 79.5 -68t101.5 -25q151 -2 270 93zM773 689v-545q0 -65 35 -86q7 0 40 -10v-47h-284v47h91v826q0 95 -97 176q-20 16 -37.5 29t-35.5 21t-38 12.5t-45 4.5q-32 0 -62 -6t-55 -19.5t-43.5 -35.5t-27.5 -53q-6 -20 -5.5 -33t0.5 -35v-785 q0 -34 15.5 -56t46.5 -36q8 -2 24 -5t41 -5v-47h-336v47h88v759q0 41 4.5 76t15.5 66.5t30 60.5t48 58q30 30 61 47.5t64.5 27t70.5 13t79 3.5q33 0 62.5 -8.5t55.5 -23.5t48.5 -34t40.5 -39q43 -47 75 -106l100 86q27 25 70.5 48.5t97.5 41t115 27t124 8.5 q123 -3 218.5 -35.5t178.5 -108.5q167 -152 170 -392q1 -161 -87 -306q-45 -72 -102.5 -129t-128.5 -98q-69 -42 -141.5 -62.5t-146.5 -21.5q-58 0 -136 35q-77 38 -96 90q-6 32 16 66q22 33 59 37h525l10 9q128 128 131 359q0 80 -37 166q-19 44 -46 82.5t-61 71.5 q-32 31 -67.5 57t-75.5 46t-85.5 33t-97.5 17q-109 8 -201.5 -20t-154.5 -89q-60 -61 -90.5 -129.5t-30.5 -147.5z" />
<glyph unicode="&#xaa61;" horiz-adv-x="1933" d="M815 620v-79q13 -162 138 -284q70 -69 154 -103t184 -36h10q227 0 354 227q58 104 58 221q0 57 -16.5 114t-45.5 108.5t-69.5 95.5t-88.5 76t-101.5 50.5t-109.5 18.5h-15q-257 0 -391 -218q-54 -85 -61 -191zM694 1054q38 -34 61 -76.5t37 -87.5q185 263 522 267h9 q215 0 371 -162q159 -167 159 -388q0 -121 -48.5 -227.5t-148.5 -200.5q-194 -185 -438 -188h-13q-238 0 -390 182v-170h-291v59h14q72 0 104 26t32 76v377l-1 8v16t1 16v227q0 132 -53.5 194.5t-159.5 62.5h-5q-97 -2 -147.5 -81.5t-50.5 -250.5v-438l57 -26q34 -15 50 -43 t17 -65q0 -38 -15.5 -69t-41.5 -53.5t-60 -35.5t-71 -14h-5q-26 0 -53 7t-55 20v-77h-48v264h48v-13q0 -29 29 -92q26 -53 90 -56q62 0 93 62q2 8 3.5 18.5t1.5 25.5q0 11 -6 21t-23 19q-2 0 -3 1l-45 14q-18 6 -38 14t-34 17q-12 8 -22 19t-10 25v489q0 167 63 263 q43 63 106.5 94.5t146.5 31.5q39 0 73.5 -5.5t66 -17.5t61.5 -31.5t60 -47.5z" />
<glyph unicode="&#xaa62;" horiz-adv-x="1562" d="M433 839q16 23 37 10t41.5 -49t36.5 -89.5t21 -110.5q-3 -92 -1 -168q0 -32 1.5 -64.5t4 -59.5t6.5 -46.5t9 -26.5q100 -143 332 -148q47 -2 99.5 17t112.5 58q48 29 89.5 76.5t76.5 112.5q75 139 79.5 272.5t-79.5 267.5q-15 25 -29 45t-30 37t-34.5 32.5t-43.5 30.5 q-46 28 -104.5 38t-113 8.5t-97 -11t-56.5 -20.5v-225h-52v410h52v-115q23 9 66 19.5t95.5 15.5t109.5 1.5t110 -22.5q26 -10 47.5 -19t40.5 -20t37.5 -24.5t38.5 -32.5q34 -32 58.5 -73t40 -87t23 -96.5t7.5 -101.5q1 -62 -8.5 -124t-31.5 -122.5t-58 -118.5t-88 -112 q-49 -50 -106.5 -87.5t-115.5 -62.5t-113 -37.5t-98 -12.5q-172 0 -325 110q-5 -20 -10.5 -35t-13.5 -23q-44 -56 -119 -56q-26 0 -58 28.5t-64.5 73t-62.5 98t-53 103.5t-36 89.5t-11 55.5v656h-92v46h211q1 -197 1 -356v-134t-0.5 -120t-1 -91t-1.5 -46q0 -4 10 -30.5 t25 -64.5t34 -81t37.5 -79.5t35 -60.5t26.5 -24q45 5 52 33q3 7 3 69v336v123.5v108v77v29.5z" />
<glyph unicode="&#xaa63;" horiz-adv-x="1951" d="M662 390q-26 -23 -42.5 -52t-26.5 -64.5t-13.5 -78.5t-3.5 -95v-37q1 0 1.5 0.5t1.5 0.5q7 1 21 5t27.5 17t24 38t10.5 67v199zM805 624v-79q7 -83 42 -154.5t98 -134.5q141 -138 343 -141h6q233 0 363 231q59 105 59 224q0 58 -17 116t-46.5 110t-71 96.5t-90 77.5 t-103 51.5t-111.5 18.5h-14q-259 0 -396 -221q-28 -44 -42.5 -92t-19.5 -103zM683 1065q38 -35 61 -78.5t37 -88.5q190 268 531 271h8q218 0 376 -164q162 -168 162 -393q0 -246 -200 -434q-197 -188 -445 -192h-8q-245 0 -400 185v-172h-294v60v27q0 20 1 51t4.5 65.5 t10 68.5t17.5 60q22 52 55 91t63 59v334q0 134 -53 197t-160 63h-8q-98 -2 -149 -82.5t-51 -252.5v-445l57 -25q35 -15 51 -43.5t17 -66.5v-5q0 -38 -16 -68.5t-42 -52.5t-61 -34.5t-72 -13.5h-5q-26 0 -53 7t-56 19v-77h-49v268h49v-14q0 -30 29 -94q28 -53 92 -56h5 q58 0 88 62q6 15 6 46q0 10 -6.5 20t-23.5 20h-1q-2 0 -2 1l-11 3l-34 11q-18 6 -38.5 14t-34.5 17q-13 8 -22.5 19t-9.5 26v496q0 171 65 267q87 128 255 128q40 0 75 -5.5t67 -18t62 -32.5t61 -48z" />
<glyph unicode="&#xaa64;" horiz-adv-x="1953" d="M776 884q189 270 530 273q220 4 380 -163q82 -84 121.5 -180.5t39.5 -207.5q0 -121 -49.5 -229.5t-149.5 -202.5q-195 -186 -440 -189q-149 -2 -265.5 64t-200.5 205q-5 -17 -11.5 -33.5t-13.5 -32.5q-7 -15 -22 -38.5t-38 -55.5q-92 -99 -254 -99q-163 0 -244 123 q-62 93 -62 259v614q0 51 3 68q0 24 -14 31q-7 3 -22.5 7t-39.5 6v46h189v-738q0 -345 211 -348q122 -2 179 68.5t57 204.5v650q0 117 -151 117v46h267v-265zM802 588q-2 -98 33 -181t107 -154q71 -70 155.5 -104t184.5 -36q118 -2 209.5 55.5t156.5 173.5q59 104 59 222 q1 59 -16 117t-48 110.5t-73.5 97.5t-93 77t-106.5 49t-113 15q-255 0 -393 -220q-31 -49 -45.5 -104t-16.5 -118z" />
<glyph unicode="&#xaa65;" horiz-adv-x="1916" d="M776 459q0 -155 -58 -280q-7 -14 -22 -36.5t-38 -54.5q-88 -98 -250 -98q-159 0 -241 121q-31 46 -46 110t-17 146v713h-31q-14 0 -28.5 0.5t-26.5 2.5v46h327l2 -45q-60 -3 -93 -27.5t-33 -72.5v-584q0 -341 208 -344h5q118 0 172.5 69.5t54.5 200.5v258q2 77 17 146.5 t50 129.5q81 141 195.5 210t262.5 69h9q244 -5 436 -186q195 -186 195 -426q0 -220 -158 -384q-155 -161 -368 -161h-8q-119 1 -220 36v-124h-53v391h53v-165q39 -15 82 -22t91 -7h14q86 0 166.5 41t142.5 108t99 152t37 174q0 122 -59 227q-131 234 -366 234h-9 q-205 -3 -348 -143q-68 -67 -107 -145t-39 -169v-111zM1066 -904h-36v50q-47 -24 -144 -24h-307v40h79v746q0 40 -12 57t-30 17h-37v36h197v-752q0 -44 18 -74t76 -30h26q131 0 131 94v251h39v-411z" />
<glyph unicode="&#xaa66;" horiz-adv-x="1830" d="M226 700v-432q0 -60 10 -89q16 -45 107 -118q14 -8 37 -11q24 0 34 3q115 0 191 121q66 104 66 225v550q0 60 -46 97t-109 39q-57 3 -82 -1t-64 -33q-66 -39 -116 -139q-28 -78 -28 -212zM781 954q89 87 181 134q146 55 230 55q268 0 412 -131q157 -141 157 -406 q0 -100 -55 -216.5t-131 -194.5q-186 -194 -375 -200q-65 -2 -88.5 4.5t-84.5 32.5v-118h-42v414h42v-157q63 -63 79 -71q37 -26 102 -26q176 0 333 176q123 138 123 348q0 97 -27.5 171.5t-93.5 137.5q-89 87 -178 118q-55 18 -173 34q-157 19 -280 -103t-123 -279v-283 q0 -95 -121 -244q-133 -165 -254 -165q-50 0 -63 -3q-26 0 -39 6q-63 15 -121 78q-10 11 -60 81q-5 16 -21 55q-8 32 -8 50v446q3 120 71 230q105 168 262 207q47 11 115 13q87 3 157.5 -53.5t73.5 -140.5zM297 561q3 32 5.5 40.5t21.5 36.5q14 23 32 41q72 59 161 59 q39 0 69.5 -24.5t30.5 -62.5v-118q0 -53 -55 -116.5t-106 -63.5h-63q-39 0 -86 72q-12 17 -12 79v29q0 7 2 28zM370 467q0 -35 46 -79q6 -2 40 -5q41 -1 63.5 39.5t22.5 91.5v116q0 39 -8.5 57t-32.5 23q-49 0 -88 -26q-43 -15 -43 -119v-98z" />
<glyph unicode="&#xaa67;" horiz-adv-x="1829" d="M226 715v-432q0 -60 10 -89q16 -45 107 -118q14 -8 37 -11q24 0 34 3q115 0 191 121q66 104 66 225v550q0 60 -46 97t-109 39q-57 3 -82 -1t-64 -33q-66 -39 -116 -139q-28 -78 -28 -212zM789 464q0 -176 144 -299q99 -86 191 -86q139 0 194 15.5t163 88.5 q178 121 183 430q3 92 -26 169t-95 140q-89 87 -178 118q-55 18 -173 34q-157 19 -280 -103t-123 -279v-228zM715 236q-123 -231 -301 -236q-26 0 -63 -3q-26 0 -39 6q-63 15 -121 78q-10 11 -60 81q-5 16 -21 55q-8 32 -8 50l3 446q0 120 68 230q105 168 262 207 q47 11 115 13q87 3 157.5 -53.5t73.5 -140.5q89 87 181 134q146 55 230 55q268 0 412 -131q157 -141 157 -406q0 -102 -63 -246q-107 -247 -383 -351q-62 -24 -193 -27q-281 -5 -407 239zM297 561q3 32 5.5 40.5t21.5 36.5q14 23 32 41q72 59 161 59q39 0 69.5 -24.5 t30.5 -62.5v-118q0 -53 -55 -116.5t-106 -63.5h-63q-39 0 -86 72q-12 17 -12 79v29q0 7 2 28zM370 467q0 -35 46 -79q6 -2 40 -5q41 -1 63.5 39.5t22.5 91.5v116q0 39 -8.5 57t-32.5 23q-49 0 -88 -26q-43 -15 -43 -119v-98z" />
<glyph unicode="&#xaa68;" horiz-adv-x="1844" d="M227 715v-432q0 -62 10 -89q17 -45 107 -118q14 -8 37 -11q23 0 34 3q115 0 191 121q66 103 66 225v550q0 60 -46 97q-47 38 -109 39q-59 3 -82 -1q-25 -4 -64 -33q-67 -40 -116 -139q-28 -77 -28 -212zM1033 181q58 -59 75 -66q38 -26 102 -26q126 0 244 92h-421z M781 969q88 87 181 134q144 55 230 55q267 0 412 -131q157 -141 157 -406q0 -101 -55 -217q-28 -58 -60.5 -106.5t-70.5 -87.5q-47 -48 -88 -86t-84 -64t-92 -39t-111 -11q-20 0 -42 4.5t-44.5 11.5t-44 16t-40.5 18q-46 21 -89 48q-15 18 -13 37t14 36t30 30.5t36 22.5h505 q8 8 15 15.5t14 15.5q123 138 123 348q0 97 -27.5 171.5t-93.5 137.5q-87 86 -178 118q-54 17 -173 34q-156 19 -280 -103q-123 -122 -123 -279v-283q0 -96 -121 -244q-134 -165 -254 -165q-50 0 -63 -3q-26 0 -39 6q-62 15 -121 78q-11 10 -60 81q-4 15 -21 55q-8 34 -8 50 v446q3 120 71 230q105 168 262 207q23 5 52 8.5t63 4.5q87 3 157 -54q71 -56 74 -140zM297 561q3 32 5.5 40.5t21.5 36.5q14 23 32 41q72 59 161 59q39 0 69.5 -24.5t30.5 -62.5v-118q0 -53 -55 -116.5t-106 -63.5h-63q-39 0 -86 72q-12 17 -12 79v29q0 7 2 28zM370 467 q0 -35 46 -79q6 -2 40 -5q41 -1 63.5 39.5t22.5 91.5v116q0 39 -8.5 57t-32.5 23q-49 0 -88 -26q-43 -15 -43 -119v-98z" />
<glyph unicode="&#xaa69;" horiz-adv-x="1858" d="M223 713v-439q0 -30 2 -53.5t8 -37.5q16 -43 109 -119q7 -5 16.5 -7t20.5 -4h20.5t14.5 2q58 0 107.5 30t87.5 92q34 55 50 111t16 119v558q0 31 -12.5 56t-34 43t-50 28.5t-60.5 11.5q-13 0 -23.5 0.5t-19.5 0.5q-17 0 -29.5 -1.5t-24.5 -5.5t-24.5 -11t-27.5 -19 q-34 -20 -62.5 -55t-54.5 -85q-29 -82 -29 -215zM1207 68q83 1 125 14q28 8 69.5 30.5t95.5 60.5q91 62 137 169.5t49 265.5v10q0 92 -29 166.5t-93 137.5q-47 45 -91 74.5t-91 45.5q-54 19 -175 34q-23 3 -43 3q-133 0 -242 -109q-124 -124 -124 -282v-7zM795 457 q0 -180 145 -304q101 -86 195 -86h7l-347 518v-128zM720 226q-62 -119 -138.5 -178t-167.5 -61q-14 0 -29.5 -0.5t-33.5 -2.5q-14 0 -24.5 1.5t-15.5 3.5q-32 8 -62.5 28t-60.5 51l-61 83l-21 56q-4 16 -6 28t-2 23v452q4 123 73 233q106 171 264 210q25 6 54.5 8.5 t62.5 4.5h8q43 0 83.5 -15t72 -41.5t50.5 -62t20 -77.5q47 44 92.5 78t91.5 58q74 28 133 41.5t101 13.5q271 0 418 -132q159 -144 159 -412q0 -53 -16 -114.5t-48 -135.5q-107 -249 -388 -356q-32 -13 -81.5 -18.5t-115.5 -7.5h-13q-137 0 -236.5 60t-162.5 181zM297 561 q3 32 5.5 40.5t21.5 36.5q14 23 32 41q72 59 161 59q39 0 69.5 -24.5t30.5 -62.5v-118q0 -53 -55 -116.5t-106 -63.5h-63q-39 0 -86 72q-12 17 -12 79v29q0 7 2 28zM370 467q0 -35 46 -79q6 -2 40 -5q41 -1 63.5 39.5t22.5 91.5v116q0 39 -8.5 57t-32.5 23q-49 0 -88 -26 q-43 -15 -43 -119v-98z" />
<glyph unicode="&#xaa6a;" horiz-adv-x="1860" d="M223 713v-439q0 -30 2 -53.5t8 -37.5q16 -43 109 -119q7 -5 16.5 -7t20.5 -4h20.5t14.5 2q58 0 107.5 30t87.5 92q34 55 50 111t16 119v558q0 31 -12.5 56t-34 43t-50 28.5t-60.5 11.5q-13 0 -23.5 0.5t-19.5 0.5q-17 0 -29.5 -1.5t-24.5 -5.5t-24.5 -11t-27.5 -19 q-34 -20 -62.5 -55t-54.5 -85q-29 -82 -29 -215zM1207 68q83 1 125 14q28 8 69.5 30.5t95.5 60.5q91 62 137 169.5t49 265.5v10q0 92 -29 166.5t-93 137.5q-47 45 -91 74.5t-91 45.5q-54 19 -175 34q-23 3 -43 3q-133 0 -242 -109q-124 -124 -124 -282v-7zM795 457 q0 -180 145 -304q101 -86 195 -86h7l-347 518v-128zM720 226q-62 -119 -138.5 -178t-167.5 -61q-14 0 -29.5 -0.5t-33.5 -2.5q-14 0 -24.5 1.5t-15.5 3.5q-32 8 -62.5 28t-60.5 51l-61 83l-21 56q-4 16 -6 28t-2 23v452q4 123 73 233q106 171 264 210q25 6 54.5 8.5 t62.5 4.5h8q43 0 83.5 -15t72 -41.5t50.5 -62t20 -77.5q47 44 92.5 78t91.5 58q74 28 133 41.5t101 13.5q271 0 418 -132q159 -144 159 -412q0 -53 -16 -114.5t-48 -135.5q-107 -249 -388 -356q-32 -13 -81.5 -18.5t-115.5 -7.5h-13q-137 0 -236.5 60t-162.5 181z" />
<glyph unicode="&#xaa6b;" horiz-adv-x="1149" d="M443 451v-138q0 -46 7.5 -90t21 -78t32.5 -54.5t41 -20.5h40q10 64 6.5 117.5t-21.5 99.5t-49.5 86t-77.5 78zM652 1091q-60 -3 -100 -25t-65 -65t-35.5 -107.5t-10.5 -150.5v-213q39 -27 73 -56q29 -25 59.5 -56.5t48.5 -63.5q12 -23 20 -49.5t12.5 -55.5t6 -58t1.5 -56 q-1 -63 -10 -129h-416v46q12 1 27 2t29 1h31l1 452q-24 7 -53.5 16t-59.5 20t-57.5 25.5t-46.5 31.5q-26 23 -38.5 47.5t-17.5 59.5q-3 23 1.5 45.5t12.5 42.5t19 36.5t21 27.5q33 34 73 37q43 3 74 -25q24 -24 27 -54q4 -31 -16 -54q-17 -17 -42 -20q-12 -2 -23 1t-19 11 t-9.5 19t7.5 20q2 3 6 5.5t9 5.5q9 4 13 8q5 5 4.5 13.5t-7.5 15.5q-11 10 -26 8.5t-32 -18.5q-7 -7 -18 -26.5t-18.5 -43t-7 -46.5t18.5 -37q20 -17 45.5 -29t53 -21.5t55 -16.5t51.5 -14l1 178q0 165 62 259q42 62 103 90.5t141 32.5q40 2 73.5 -3.5t63.5 -17.5 t58.5 -31.5t57.5 -46.5q42 -38 65.5 -85.5t35.5 -97t14.5 -97.5t2.5 -87v-546q0 -67 37 -87q2 0 12 -2t27 -8v-47h-285v47h92v700q0 2 -0.5 29.5t-6 66t-18.5 83t-39 82t-67 61t-102 20.5z" />
<glyph unicode="&#xaa6c;" horiz-adv-x="2193" d="M185 93h1l1 -1zM3 1107v1v-1zM984 383v443q0 51 -8 96.5t-23 84.5q-6 15 -26 10.5t-47.5 -18.5t-58 -32t-55.5 -31q0 -58 0.5 -124t0.5 -132t-0.5 -128t-1 -111.5t-1 -82.5t-1.5 -42q1 -6 -7 -29t-22 -52.5t-33 -61.5t-41 -56q-2 -2 -2.5 -3l-1.5 -3q-25 -26 -49.5 -45.5 t-51 -32.5t-56.5 -20.5t-66 -10.5q-38 -2 -81.5 12t-80 31.5t-60.5 32l-24 14.5l-1 1h-1l2 -1q-57 58 -77.5 122t-20.5 145v748h-86l-1 1h1q-1 2 -1.5 9t-0.5 15v22h332v-47q-24 -2 -39.5 -5t-23.5 -6q-62 -24 -62 -89v-770q0 -11 15.5 -38.5t41.5 -57t60.5 -54t72.5 -29.5 q34 -5 65 7t58 34t49.5 50.5t39 57t26.5 54t12 41.5v806h-91v46h209v-103q32 21 69.5 39t71.5 27.5t60.5 7.5t38.5 -21q16 -28 31 -68.5t27 -84.5t19.5 -89t7.5 -82v-436q69 -113 188 -179q118 -66 252 -64q93 3 169 41q181 97 256 264q36 81 36 161q-3 206 -128 354 q-133 153 -338 150q-59 0 -112 -31q-51 -33 -70 -69v-178h-41v429h41v-90q24 21 79 21h44q161 0 302 -84q142 -86 231 -224q45 -70 67 -144t20 -155q-3 -232 -166 -384q-158 -143 -390 -143q-125 0 -235.5 45t-204.5 149q-20 22 -39 46t-34 46.5t-24.5 42.5t-9.5 35z" />
</font>
</defs>
</svg>
