<?xml version="1.0" standalone="no"?>
<!DOCTYPE svg PUBLIC "-//W3C//DTD SVG 1.1//EN" "http://www.w3.org/Graphics/SVG/1.1/DTD/svg11.dtd" >
<svg xmlns="http://www.w3.org/2000/svg">
<metadata></metadata>
<defs>
<font id="ayar_tanzaungmoneregular" horiz-adv-x="0" >
<font-face units-per-em="2048" ascent="1638" descent="-410" />
<missing-glyph horiz-adv-x="288" />
<glyph unicode="&#x100a;&#x1039;&#x100a;" horiz-adv-x="864" d="M493 280q0 -72 16 -120t31 -71q16 -25 37 -25q12 0 21 12t9 38v953h-27q-8 6 -8 13t8 13h225q9 -8 9 -13q0 -6 -3 -10l-6 -3h-22v-953q-20 -62 -49 -84q-28 -23 -83 -23q-47 0 -79 19q-31 20 -66 73l-37 66q-17 -48 -39 -81q-48 -69 -120 -78v-423q10 2 21 4q9 2 19.5 4 t18.5 5q21 6 37 30t27 61.5t16.5 85.5t5.5 103q0 12 4 18l8 3l8 -3q4 -6 4 -9l-8 -328h-428q-5 0 -9 3q-3 4 -3 11q0 4 3 9q4 3 9 3h62v603q-25 90 -25 221v66q0 16 5 21q3 7 8 7l8 -7q5 -7 5 -21v-56q0 -151 40 -267q20 -58 52 -87q34 -29 69 -29q27 0 44 20q16 20 16 75 v883q0 42 -10 53q-10 13 -34 13q-38 0 -69 -36q-33 -34 -66 -151q-33 -116 -39 -190q-5 -46 -6 -49q-3 -5 -10 -5q-5 0 -9 4q-4 3 -4 11v428l2 10l5 2q7 0 31 -29q11 -14 24.5 -27t28.5 -25q46 81 116 81q82 0 136 -81q80 -119 80 -379v-192q0 -48 -2.5 -90t-7.5 -80z M546 -46q17 17 42 17q15 0 27.5 -7t22.5 -16q10 -10 19 -34.5t10 -57.5v-12.5t-1 -12.5q1 -14 4 -27t8 -25q6 -16 14 -16q4 0 9 8q0 3 1 8.5t1 13.5v165h-10q-4 6 -4 7q0 4 4 8h82q4 -4 4 -8q0 -1 -0.5 -2.5t-0.5 -2.5l-3 -2h-8v-165q0 -16 -5 -29t-13 -20q-9 -14 -29 -14 q-17 0 -30 12q-5 5 -15.5 16.5t-12.5 31.5q-1 2 -1 7q-5 -17 -10 -28t-9 -15q-9 -8 -20 -14.5t-25 -8.5v-168h16q4 0 16.5 0.5t26.5 2t26.5 3.5t15.5 4q6 5 16 15t15 25q4 11 8.5 25t8.5 27t6.5 23.5t2.5 13.5q0 5 2 7l3 2l2 -2q1 -1 1 -3l-2 -152h-253q-1 0 -1.5 0.5 t-1.5 0.5q-1 1 -1 5q0 2 1 2q1 1 3 1h23l-1 195q-18 21 -18 62v14q0 4 1 5t4 1l3 -1q2 -2 2 -5v-12q0 -17 3.5 -28.5t11.5 -24.5q4 -6 8.5 -11t11.5 -9q12 -5 25 -5q11 0 16 4q6 5 5 16v176q0 8 -4 11q-3 3 -12 3q-8 0 -14 -2t-12 -5q-4 -2 -10 -8.5t-12 -15.5t-11 -20 t-6 -21q0 -8 -2 -10q0 -1 -3 -1h-4q-1 1 -1 3v94v3h2q3 0 12 -6q8 -7 20 -11z" />
<glyph unicode="&#x1039;&#x100c;" d="M-572 -226q0 25 2 42t7.5 30.5t14 26t21.5 28.5q36 45 85 61t101 16h3q52 0 96 -22t72 -63q24 -37 34.5 -74.5t10.5 -79.5v-21t-2 -22q-3 -27 -15.5 -57.5t-34.5 -58.5q-31 -40 -76 -40q-33 0 -59 31q-13 15 -19.5 30t-6.5 46q0 32 6.5 57.5t18.5 48.5q9 16 22.5 26 t31.5 10q2 0 3.5 -0.5t3.5 -0.5q16 -2 26 -10.5t17 -19.5t10.5 -19t6.5 -8q2 0 4.5 2t3.5 2q1 3 3 11t2 21q0 20 -8.5 49.5t-36.5 65.5q-17 24 -40.5 37t-55.5 13q-15 -2 -26 -4t-22 -12q-14 -14 -17 -34t-3 -52v-165l-179 -110v119q0 -20 -20.5 -41t-45.5 -38 q-29 -20 -65 -40h-318q-28 6 -49 24q-19 15 -34 44t-15 79v237h-22l-6 3q-3 3 -3 9q0 5 9 13h393q8 -5 8 -13t-8 -12h-12q-51 0 -106 -8.5t-100.5 -27.5t-75 -48t-29.5 -69v-93h463q8 6 15 15q6 8 10.5 19t5.5 26v21z" />
<glyph unicode="&#x100b;&#x1039;&#x100c;" horiz-adv-x="591" d="M365 -417v280q-17 -5 -32.5 -7.5t-28.5 -2.5q-97 0 -152 50q-8 7 -16.5 22t-16 35t-12 42.5t-4.5 45.5q0 12 1 22.5t5 21.5q-64 109 -64 339v191q0 261 91 379q61 81 153 81q80 0 131 -81q36 25 60 52q26 29 35 29l6 -2l2 -10v-428q0 -8 -4 -11q-4 -4 -11 -4q-9 0 -11 5 q-1 2 -2.5 14t-4.5 35q-3 38 -14 85t-30 105q-38 118 -74 152q-37 35 -78 35q-27 0 -39 -13q-11 -13 -11 -53v-883q0 -54 18 -75q18 -20 50 -20q7 0 16 6.5t17 18.5t14 28.5t6 37.5v455l159 -84q0 -112 -9.5 -191.5t-29 -135t-49.5 -91t-71 -59.5q-35 -15 -75 -15 q-99 0 -162 80v-9q0 -19 2.5 -38t7 -35.5t11 -29t13.5 -17.5q53 -38 135 -38q20 0 49 8.5t57.5 20t52.5 24t35 20.5q1 1 6.5 -5t12.5 -14q8 -9 17 -20v-348h44q6 0 9 -4q3 -3 3 -9t-3 -10q-3 -3 -9 -3h-451v307q-6 3 -6 5t2 4l8 3l8 -3q4 -4 4 -18q1 -20 15.5 -65t40.5 -103 q16 -35 45 -55t58 -31q33 -13 70 -18z" />
<glyph unicode="&#x100d;&#x1039;&#x100e;" horiz-adv-x="606" d="M288 542q9 26 20 26q6 0 11.5 -11t10.5 -24q4 -14 11.5 -50.5t7.5 -87.5q0 -62 -7.5 -101.5t-10.5 -49.5q-5 -12 -10 -22t-11 -12v-155q8 8 15 19q34 56 34 148v824h-22l-6 3q-3 4 -3 10q0 7 9 13h225q8 -6 8 -13t-8 -13h-27v-817l-59 -73v-421q0 -43 13 -59 q7 -12 24 -12q33 0 60 39q28 43 36 122q4 12 14 12q6 0 10.5 -4.5t4.5 -15.5v-3q-12 -91 -48 -137q-53 -70 -134 -71q-74 0 -110 42q-48 54 -48 156v205q-19 -13 -39.5 -18t-43.5 -5q-36 0 -62 8.5t-43 25.5q-34 34 -34 95v468q2 23 12.5 58.5t30.5 83.5q10 25 30 63 t39.5 77t34 72.5t14.5 48.5q0 50 -26 81q-25 31 -58 31q-21 0 -37 -10q-15 -8 -26 -30q43 0 66 -25q22 -22 22 -68q0 -40 -20 -61q-21 -22 -50 -22t-53 29q-24 30 -24 77q0 59 38 99q37 41 87 41q68 0 122 -69q9 -12 14.5 -29.5t8.5 -38t4 -42t1 -41.5t-0.5 -36.5 t-0.5 -26.5l-50 -246v-521q0 -17 9 -27q8 -10 18 -10l0.5 3t1 20t1 54.5t0.5 106.5q-3 5 -6 17.5t-5.5 28.5t-4.5 34t-2 36v22q0 5 3 8t6 3q8 0 10 -11v-19q0 -25 2 -42t5 -36q2 -10 5 -24t6 -14q6 0 7 7q3 6 3 24v262q0 13 -2 17q-2 5 -5 5q-7 0 -10 -13q-2 -6 -7.5 -34 t-6.5 -59q0 -8 -0.5 -12t-0.5 -5t-3 -3t-6 -2q-6 0 -6 9v140q0 5 5 5q2 0 3 -1l5 -9q2 -5 4 -9z" />
<glyph unicode="&#x1009;&#x1039;&#x1005;" horiz-adv-x="551" d="M154 1007q51 81 131 81q91 0 153 -81q91 -118 91 -379v-191q0 -261 -83 -367q-63 -80 -162 -80q-41 0 -75 15v-448h-206q-6 0 -9 3q-3 4 -3 10t3 9q3 4 9 4h42v899l164 84v-455q0 -21 5.5 -37.5t14 -28.5t17.5 -18.5t16 -6.5q32 0 50 20q18 21 18 75v883q0 40 -11 53 q-12 13 -39 13q-41 0 -78 -35t-74 -152q-38 -116 -44 -190q-6 -47 -7 -49q-3 -5 -11 -5q-7 0 -11 4t-4 11v428l2 10l6 2q9 0 35 -29q13 -14 28 -27t32 -25zM405 -121q0 5 -1.5 15t-5 19.5t-10.5 17t-18 7.5q-12 0 -18.5 -6.5t-9.5 -15.5t-3.5 -17t-0.5 -11v-82l12 5 q14 6 20 15t6 32v24q0 8 9 8t11 -8v-161q0 -4 -3.5 -6t-7.5 -2q-9 0 -9 8v22q0 23 -5 30t-17 14q-9 4 -16 5v-130q0 -8 1.5 -20.5t5 -24.5t10.5 -21t19 -9q10 0 16.5 7.5t9.5 18t4 21t1 15.5v230zM276 -206l-46 66q11 45 45 75q37 30 95 30q71 0 110 -45q39 -44 39 -116v-80 q0 -94 -49 -137q-35 -29 -96 -29q-35 0 -63 9q-14 6 -27 15.5t-24 23.5q-6 7 -11.5 18t-10 23.5t-8 26t-4.5 25.5v6q0 11 3.5 25.5t10 27.5t16 23t20.5 13z" />
<glyph unicode="&#x1009;&#x1039;&#x1007;" horiz-adv-x="977" d="M154 1007q51 81 131 81q91 0 153 -81q91 -118 91 -379v-191q0 -261 -83 -367q-63 -80 -162 -80q-41 0 -75 15v-448h-206q-6 0 -9 3q-3 4 -3 10t3 9q3 4 9 4h42v899l164 84v-455q0 -21 5.5 -37.5t14 -28.5t17.5 -18.5t16 -6.5q32 0 50 20q18 21 18 75v883q0 40 -11 53 q-12 13 -39 13q-41 0 -78 -35t-74 -152q-38 -116 -44 -190q-6 -47 -7 -49q-3 -5 -11 -5q-7 0 -11 4t-4 11v428l2 10l6 2q9 0 35 -29q13 -14 28 -27t32 -25zM402 -184v75q0 7 -1.5 15.5t-4.5 15.5t-8.5 12t-14.5 5q-11 0 -17.5 -4.5t-9.5 -12t-4 -16t-1 -15.5v-75h61z M440 -389q10 9 16 16.5t11 16t9 19t9 25.5q4 7 12 6t8 -8q-6 -49 -36 -85q-37 -46 -99 -46q-57 0 -97 35q-38 36 -38 153v56q0 90 52 136q37 34 90 34q62 0 96 -43t34 -103l-69 -22q38 0 58 -22q8 -10 16 -22.5t11 -14.5q2 -2 -5 -9.5t-18 -7.5q-30 0 -49 13q-5 3 -13 11.5 t-16 17.5q-10 11 -20 23h-61v-152q0 -33 12 -43q8 -8 28 -8q33 0 59 24z" />
<glyph unicode="&#x102b;&#x103a;" horiz-adv-x="429" d="M28 1446q0 67 -20 90q-19 26 -51 26q-57 0 -106 -63q-67 -85 -67 -204q0 -24 5 -36q3 -5 8 -5q6 0 22 13q28 23 50 23q31 0 59 -37q29 -37 29 -103t-26 -98q-25 -32 -60 -32q-46 0 -77 43q-42 57 -42 171q0 172 71 263q72 90 163 90q96 0 161 -75q4 -4 7 -8t6 -9 q59 77 152 89l25 1h11q48 0 88 -18t72 -50q68 -68 68 -173q0 -73 -25 -104q-24 -30 -61 -30q-34 0 -58 24q-23 24 -23 63t23 63q24 26 51 26q5 0 11.5 -0.5t14.5 -1.5l13 -2q8 0 11 3q3 4 3 14q0 60 -54 110q-52 49 -145 52l-25 -3q-53 -13 -84 -52q-29 -36 -29 -95v-14 t1 -14l3 -21q4 -36 20 -77q13 -35 25.5 -60.5t26 -46t29.5 -36t36 -29.5q9 -3 9 -11q0 -10 -12 -10h-4q-19 11 -40 22q-18 10 -41 23t-46 27v-139t-0.5 -171t-0.5 -187.5v-188.5v-451l24 -1q5 -3 5 -11q0 -7 -10 -14h-237q-10 7 -10 14q0 6 10 12h39z" />
<glyph unicode="&#x102d;&#x1036;" horiz-adv-x="46" d="M-591 1303q0 56 17 98t62 74q29 20 55 24.5t56 4.5h38h16q25 0 45.5 -0.5t39.5 -4.5t36.5 -13t35.5 -25q36 -32 48.5 -68.5t12.5 -85.5q0 -56 -16.5 -98t-61.5 -74q-29 -20 -54 -24.5t-56 -4.5h-39h-30q-15 0 -32.5 1t-36 4.5t-36 11t-32.5 19.5q-39 32 -53 71t-15 90z M-308 1443q0 17 -17 25q-15 7 -38 7q-19 0 -34 -6t-15 -18v-273q0 -26 18 -35q13 -7 38 -7q23 0 35 6q13 6 13 24v277zM-12 1400q40 0 66 -32q27 -30 27 -87q0 -55 -28 -88q-29 -32 -66 -32q-38 0 -63 28q-25 29 -25 85q0 65 26 94q25 32 63 32z" />
<glyph unicode="&#x1004;&#x103a;&#x1039;&#x102d;" horiz-adv-x="83" d="M-422 1293q0 56 17 98t62 74q29 20 55 24.5t56 4.5h38h16q25 0 45.5 -0.5t39.5 -4.5t36.5 -13t35.5 -25q36 -32 48.5 -68.5t12.5 -85.5q0 -56 -16.5 -98t-61.5 -74q-29 -20 -54 -24.5t-56 -4.5h-39h-30q-15 0 -32.5 1t-36 4.5t-36 11t-32.5 19.5q-39 32 -53 71t-15 90z M-139 1433q0 17 -17 25q-15 7 -38 7q-19 0 -34 -6t-15 -18v-273q0 -26 18 -35q13 -7 38 -7q23 0 35 6q13 6 13 24v277zM-549 1309q-55 10 -85 34q-27 24 -27 64q0 45 36 69q37 23 85 23q47 0 80 -21q30 -20 30 -59q0 -25 -15 -36q-16 -11 -37 -11q-23 0 -36 9q-15 9 -15 25 t13 24q13 9 32 9q13 0 25 -4q7 0 7 5q0 3 -3 7.5t-11 9.5q-32 18 -65 18q-15 0 -22 -4q-8 -4 -8 -14v-110q0 -10 13 -16q5 -4 22 -4q14 0 23.5 -6.5t9.5 -13.5q0 -5 -6.5 -9t-23.5 -4q-18 0 -30 -6q-12 -9 -12 -30v-120q0 -11 14 -19q10 -6 30 -6q33 0 61 19q3 2 10.5 9.5 t7.5 12.5q0 2 -4 2q-8 -2 -14.5 -3t-12.5 -1q-24 0 -38 10q-17 11 -17 30t15 29q14 10 35 10q23 0 40 -12q21 -14 21 -45q0 -44 -32 -65q-35 -23 -78 -23q-54 0 -97 29q-43 28 -43 88q0 54 38 81q12 7 33 13.5t51 11.5z" />
<glyph unicode="&#x1004;&#x103a;&#x1039;&#x102e;" horiz-adv-x="54" d="M-549 1309q-55 10 -85 34q-27 24 -27 64q0 45 36 69q37 23 85 23q47 0 80 -21q30 -20 30 -59q0 -25 -15 -36q-16 -11 -37 -11q-23 0 -36 9q-15 9 -15 25t13 24q13 9 32 9q13 0 25 -4q7 0 7 5q0 3 -3 7.5t-11 9.5q-32 18 -65 18q-15 0 -22 -4q-8 -4 -8 -14v-110 q0 -10 13 -16q5 -4 22 -4q14 0 23.5 -6.5t9.5 -13.5q0 -5 -6.5 -9t-23.5 -4q-18 0 -30 -6q-12 -9 -12 -30v-120q0 -11 14 -19q10 -6 30 -6q33 0 61 19q3 2 10.5 9.5t7.5 12.5q0 2 -4 2q-8 -2 -14.5 -3t-12.5 -1q-24 0 -38 10q-17 11 -17 30t15 29q14 10 35 10q23 0 40 -12 q21 -14 21 -45q0 -44 -32 -65q-35 -23 -78 -23q-54 0 -97 29q-43 28 -43 88q0 54 38 81q12 7 33 13.5t51 11.5zM-417 1288q0 56 16.5 98t62.5 74q18 13 35 19t34.5 8t36.5 2h42h51.5t44 -4t39.5 -12.5t38 -26.5q36 -32 48.5 -68.5t12.5 -85.5q0 -56 -16.5 -98t-61.5 -74 q-18 -13 -35 -19t-34.5 -8.5t-37 -2t-42.5 0.5q-56 0 -99 10q-22 5 -41 12.5t-39 24.5q-36 30 -46 66t-9 84zM-239 1231v-76q0 -26 18 -35q16 -7 38 -7q23 0 35 6q13 6 13 25v87h-104zM-135 1425q0 18 -17 26q-18 8 -38 8q-19 0 -34 -6t-15 -19v-177h104v168z" />
<glyph unicode="&#x1004;&#x103a;&#x1039;&#x1036;" horiz-adv-x="2" d="M-369 1309q-55 10 -85 34q-27 24 -27 64q0 45 36 69q37 23 85 23q47 0 80 -21q30 -20 30 -59q0 -25 -15 -36q-16 -11 -37 -11q-23 0 -36 9q-15 9 -15 25t13 24q13 9 32 9q13 0 25 -4q7 0 7 5q0 3 -3 7.5t-11 9.5q-32 18 -65 18q-15 0 -22 -4q-8 -4 -8 -14v-110 q0 -10 13 -16q5 -4 22 -4q14 0 23.5 -6.5t9.5 -13.5q0 -5 -6.5 -9t-23.5 -4q-18 0 -30 -6q-12 -9 -12 -30v-120q0 -11 14 -19q10 -6 30 -6q33 0 61 19q3 2 10.5 9.5t7.5 12.5q0 2 -4 2q-8 -2 -14.5 -3t-12.5 -1q-24 0 -38 10q-17 11 -17 30t15 29q14 10 35 10q23 0 40 -12 q21 -14 21 -45q0 -44 -32 -65q-35 -23 -78 -23q-54 0 -97 29q-43 28 -43 88q0 54 38 81q12 7 33 13.5t51 11.5zM-120 1400q40 0 66 -32q27 -30 27 -87q0 -55 -28 -88q-29 -32 -66 -32q-38 0 -63 28q-25 29 -25 85q0 65 26 94q25 32 63 32z" />
<glyph unicode="&#x1004;&#x103a;&#x1039;" d="M-387 1298q-71 10 -109 34q-35 23 -35 64q0 46 46 70q48 23 110 23q61 0 103 -21q40 -19 40 -60q0 -25 -20 -36t-48 -11q-29 0 -47 9q-19 9 -19 25t17 25q18 9 41 9q17 0 33 -4q9 0 9 5q0 3 -4 7.5t-15 9.5q-39 18 -84 18q-20 0 -28 -4q-10 -4 -10 -14v-111q0 -10 16 -16 q8 -4 29 -4q18 0 30.5 -6.5t12.5 -13.5q0 -5 -9 -9t-30 -4q-25 0 -39 -7q-16 -10 -16 -30v-121q0 -10 19 -19q13 -6 39 -6q42 0 79 19q4 2 13.5 9.5t9.5 12.5q0 3 -6 3q-20 -5 -35 -5q-27 0 -49 11q-21 10 -21 30q0 19 19 29t45 10q31 0 52 -12q27 -14 27 -45q0 -45 -42 -66 q-44 -23 -100 -23q-70 0 -126 29q-55 28 -55 89q0 54 49 81q33 16 108 26z" />
<glyph unicode="&#x103e;&#x1030;" d="M57 -346q29 43 37 122q3 13 14 13q5 0 9.5 -5t4.5 -15v-3q-12 -92 -48 -138q-52 -70 -133 -70q-19 0 -32 2.5t-23 8t-18 13t-17 17.5q-48 55 -48 156v226l158 187v-482q0 -43 12 -59q7 -12 24 -12q34 0 60 39zM-211 -418l20 -2q4 -4 4 -11q0 -5 -8 -13h-199q-8 8 -8 13 t8 13h33v404h150v-404zM-503 -7h129l-21 -232l-134 -188q-19 -14 -43 -21.5t-44 -7.5q-18 0 -36 6q-44 14 -62 53q-11 22 -11 45q0 19 8 41q12 41 40 58q19 11 35 11q8 0 17 -3q22 -8 33 -30q6 -12 6 -27q0 -12 -4 -23q-11 -34 -36 -46q-14 -8 -30 -8q-12 0 -23 4l-14 5v-6 q0 -16 8 -30q11 -15 35 -22q12 -4 26 -4q20 0 36 10q28 16 45 65q6 20 12 49.5t11 62.5q3 21 5 44.5t2.5 47t1 45t0.5 38.5v36h-15q-6 0 -9.5 5t-3.5 10t3 8.5t10 3.5h23z" />
<glyph unicode="&#x103b;&#x103e;" horiz-adv-x="300" d="M56 1050h-67q-4 0 -8 3q-2 6 -2 9q0 7 10 13h302q4 0 8 -4q3 -3 3 -8q0 -6 -3 -10q-5 -3 -8 -3h-55v-1229q0 -120 -72 -193q-18 -18 -35 -32t-36 -23t-41 -13.5t-51 -4.5q-95 0 -157 55l-39 -51q-40 -29 -78 -29q-18 0 -36 6q-43 14 -61 53q-11 24 -11 46q0 10 2 20t5 21 q14 41 41 58q17 10 36 10h8t8 -2q22 -8 33 -30q6 -12 6 -26q0 -6 -1 -12t-3 -13q-12 -33 -36 -46q-14 -8 -30 -8q-5 0 -11 1t-12 3l-14 5v-5q0 -17 8 -30q10 -14 34 -22q17 -5 28 -5q19 0 35 10q29 17 44 65q7 20 12.5 49.5t10.5 63.5q3 20 5 43.5t2.5 47t1 45t0.5 38.5v36 h-14q-6 0 -9.5 5t-3.5 10t3 8.5t10 3.5h142l-8 -231l-95 -122q46 -43 96 -43q44 0 69 31q34 43 34 119v1317z" />
<glyph unicode="&#x103d;&#x103e;" d="M-399 -57q-13 0 -24 -21.5t-18.5 -55t-12 -74t-4.5 -78.5q0 -26 2 -49.5t7 -40.5q5 -19 19 -30t33 -11h4q19 2 34 12t15 28q0 25 -1 58t-3.5 69t-6.5 70.5t-10 61.5t-14.5 44t-19.5 17zM-400 -20q12 0 32 -14t42.5 -38.5t45 -56t41 -66t30 -70t11.5 -66.5 q0 -28 -10.5 -50.5t-34.5 -37.5q-18 -11 -34 -17t-32.5 -8.5t-34 -3t-38.5 -0.5h-11h-5q-14 0 -34 0.5t-41.5 4t-44 10.5t-41.5 21q-11 8 -21 20l-21 -27q-38 -29 -77 -29q-18 0 -36 6q-44 14 -62 53q-11 22 -11 45q0 19 8 41q12 41 40 58q19 11 35 11q8 0 17 -3 q22 -7 33 -29q6 -14 6 -28q0 -12 -4 -23q-11 -34 -36 -46q-14 -8 -30 -8q-5 0 -11 1t-12 3l-14 5v-6q0 -16 8 -30q10 -13 35 -22q12 -4 26 -4q20 0 36 10q14 8 27 24t18 41l6 30q2 31 14.5 65t31.5 67.5t41.5 63.5t44 52.5t39.5 36.5t28 14z" />
<glyph unicode="&#x100a;&#x1039;&#x1009;" horiz-adv-x="1248" d="M475 267q0 -72 16 -124.5t31 -75.5q18 -25 37 -25q12 0 21 12q9 10 9 38v971h-27q-8 6 -8 13t8 13h226q9 -7 9 -13t-4 -10l-5 -3h-23l6 -847q3 -12 6.5 -24t7.5 -23q5 -15 19.5 -40t38 -49t55 -41.5t70.5 -16.5q28 0 44 20q16 22 16 75v883q0 40 -10 53q-5 6 -13 -3.5 t-19 -29.5q-16 -26 -32.5 -59.5t-33.5 -91.5q-33 -115 -39 -191q-4 -44 -6 -49q-3 -5 -10 -5q-5 0 -9 4t-4 11v429l2 10l5 2q7 0 31 -29q11 -14 24.5 -27t28.5 -25q23 41 41.5 66t34.5 25q20 0 34 -5t25 -15t21.5 -25.5t24.5 -35.5q80 -121 80 -379v-192q0 -262 -73 -366 q-56 -80 -144 -80q-47 0 -78 9.5t-52.5 24.5t-36 33.5t-27.5 36.5q-6 9 -12 19t-11 21q-4 -57 -22 -87.5t-32 -40.5q-7 -6 -28.5 -10.5t-48.5 -5.5t-56 4.5t-51 20.5q-20 13 -34.5 35.5t-25.5 45.5q-12 26 -21 55q-8 -24 -17.5 -44t-21.5 -37q-23 -33 -49 -54.5t-62 -23.5 l9 -411h42q6 0 34 0.5t71 1t95.5 2t107.5 3t107.5 3.5t94.5 4.5t69 5t31 5.5q9 7 20.5 16.5t23.5 22.5t23.5 29t19.5 36q12 30 24.5 68t22.5 74t17 64.5t7 38.5q0 14 4 18l8 4l8 -4q3 -3 3 -9l-7 -409h-1093q-5 0 -9 3q-3 4 -3 10t3 9q4 4 9 4h62v525q-9 28 -18 66 q-25 90 -25 221v66q0 14 5 21q3 6 8 6l8 -6q5 -7 5 -21v-56q0 -153 40 -267q20 -58 52 -87q34 -29 69 -29q30 0 44 20q16 20 16 75v883q0 42 -10 53q-10 13 -34 13q-38 0 -69 -36q-33 -34 -66 -151q-33 -116 -39 -190q-4 -45 -6 -50q-3 -5 -10 -5q-3 0 -9 4q-4 4 -4 11v429 l2 10l5 2q8 0 31 -29q11 -14 24.5 -27t28.5 -25q46 81 116 81q82 0 136 -81q80 -119 80 -379v-192q0 -48 -2.5 -90.5t-7.5 -80.5z" />
<glyph unicode="&#x1009;&#x1039;&#x1006;" horiz-adv-x="1029" d="M481 262q0 -36 -8 -68t-18.5 -57.5t-20.5 -43.5t-16 -26q-49 -68 -120 -79v-405h42h44t88.5 0.5t110 1.5t109.5 3t86.5 5t41.5 7q17 13 43 36.5t43 63.5q12 30 20 70t13 78.5t7.5 68.5t2.5 40q0 14 4 18l8 3l8 -3q4 -4 4 -9l-8 -409h-935q-5 0 -9 3q-3 4 -3 10t3 9 q4 4 9 4h62v586q-12 45 -18.5 100t-6.5 121v66q0 13 5 21q3 6 8 6l8 -6q5 -6 5 -21v-56q0 -153 40 -267q20 -58 52 -87t69 -29q30 0 44 20q16 20 16 75v883q0 42 -10 53q-10 13 -34 13q-36 0 -69 -36t-66 -152q-33 -114 -39 -190q-3 -44 -6 -49t-10 -5q-3 0 -9 4q-4 4 -4 11 v429l2 10l5 2q8 0 31 -29q25 -29 53 -52q46 81 116 81q82 0 136 -81q80 -119 80 -380v-191q0 -96 -9 -171zM465 -216v-112q0 -14 12 -18q10 -5 25 -5q9 0 16 1.5t14 3.5q12 6 12 18v112h-79zM613 -68q19 11 37 13.5t39 2.5h29h12q38 0 65.5 -4t53.5 -28q28 -26 37.5 -53 t9.5 -65q0 -42 -12.5 -74.5t-47.5 -56.5q-21 -14 -40.5 -18t-42.5 -4h-30h-23q-20 0 -45.5 3t-46.5 16q-23 -16 -50.5 -18.5t-59.5 -2.5q-80 0 -124 32q-11 8 -19.5 23.5t-14 32.5t-8 34t-2.5 29v9h214v98q0 25 -15 33q-12 6 -38 6q-42 0 -76 -18q-27 -16 -41.5 -31.5 t-16.5 -41.5q-1 -19 -4 -20q-2 -2 -4.5 -2t-5.5 -1q-4 0 -8 2q-4 3 -4 11q0 52 48 87q47 35 127 35q32 0 58 -6t49 -23zM759 -99q0 14 -12 20q-11 5 -29 5q-17 0 -26 -4q-12 -5 -12 -14v-209q0 -18 14 -26q12 -5 29 -5q15 0 27 5q9 4 9 18v210z" />
<glyph unicode="&#x1009;&#x1039;&#x1008;" horiz-adv-x="1045" d="M481 262q0 -36 -8 -68t-18.5 -57.5t-20.5 -43.5t-16 -26q-49 -68 -120 -79v-405h42q11 0 22.5 -0.5t37 2t72 8.5t128.5 20l100 -55l-670 -1q-5 0 -9 3q-3 4 -3 10t3 9q4 4 9 4h62v586q-12 45 -18.5 100t-6.5 121v66q0 13 5 21q3 6 8 6l8 -6q5 -6 5 -21v-56 q0 -153 40 -267q20 -58 52 -87t69 -29q30 0 44 20q16 20 16 75v883q0 42 -10 53q-10 13 -34 13q-36 0 -69 -36t-66 -152q-33 -114 -39 -190q-3 -44 -6 -49t-10 -5q-3 0 -9 4q-4 4 -4 11v429l2 10l5 2q8 0 31 -29q25 -29 53 -52q46 81 116 81q82 0 136 -81q80 -119 80 -380 v-191q0 -96 -9 -171zM553 -96q0 4 -2 13.5t-7 18.5t-14 16t-23 7q-15 0 -23.5 -6t-12.5 -13.5t-4.5 -15.5t-0.5 -11v-74l15 5q18 6 26.5 13.5t8.5 27.5v22q0 4 3.5 6t8.5 2q10 0 12 -8v-143q0 -4 -3.5 -6t-8.5 -2t-8.5 2t-3.5 6v19q0 21 -6.5 26.5t-23.5 12.5q-5 2 -10 3 t-10 1v-116q0 -7 1.5 -18.5t6.5 -22t14.5 -18.5t24.5 -8q13 0 21 7t12.5 16t5.5 18t1 14v206zM386 -170l-60 57q15 44 59 68q48 27 122 27q94 0 144 -40q50 -38 50 -104v-73q0 -85 -64 -122q-47 -27 -124 -27q-46 0 -82 10q-36 9 -66 33q-15 13 -27.5 38t-17.5 45v5 q0 10 5 23t13.5 25.5t20.5 22t27 12.5zM798 1055h-67q-4 0 -7 3q-4 4 -4 9q0 7 11 13h301q5 0 8 -4q4 -3 4 -8q0 -6 -4 -10q-3 -3 -8 -3h-54v-1229q0 -120 -72 -193q-18 -18 -35 -32t-36 -23t-41 -14t-51 -5q-7 0 -14.5 4.5t-15.5 9.5q-9 6 -18 14q15 4 28 8q11 4 22.5 10 t17.5 14q33 41 35 119v1317z" />
<glyph unicode="&#x1020;&#x103e;" horiz-adv-x="577" d="M84 -417v346q0 3 9 8t20 10.5t20.5 9t12.5 3.5q43 -33 125 -33q84 0 135 38q11 8 18 28t7 44q0 15 -3 30q-52 -73 -132 -73q-89 0 -144 80q-73 104 -73 366v191q0 259 80 380q55 81 136 81q71 0 116 -81q15 12 28.5 25t24.5 27q24 29 31 29l5 -2l2 -10v-429q0 -7 -4 -11 t-9 -4q-7 0 -10 5q-2 5 -6 50q-6 74 -39 190t-65 151q-33 36 -70 36q-23 0 -34 -13q-10 -11 -10 -53v-883q0 -55 16 -75t44 -20q35 0 69 29q18 15 34 44l2 3q8 16 16 40q40 114 40 267v56q0 14 5 21l8 6q5 0 8 -6q5 -5 5 -21v-66q0 -173 -43 -274q4 -10 5 -21t1 -23 q0 -23 -4.5 -46t-12 -43t-16 -35t-16.5 -22q-55 -50 -152 -50q-4 0 -7.5 0.5t-6.5 0.5v-301h25q10 0 27 8.5t58 20.5h2q5 0 6.5 -2.5t3.5 -5.5q15 -21 40 -21q16 0 29.5 3.5t27.5 19.5q7 7 6.5 16t-3.5 18t-7 17.5t-4 16.5q1 25 7.5 42.5t15.5 24.5t19.5 3t18.5 -23 q0 -39 -8.5 -70t-27.5 -54q-19 -21 -43 -30.5t-53 -10.5h-6h-336q-18 0 -18 13q0 5 5 9.5t13 4.5h36zM499 -76l-78 -237q-6 -5 -17 -8t-23.5 -5t-24 -3t-17.5 -1q-13 0 -24 4q-28 9 -40 34q-7 16 -7 30q0 11 5 26q4 14 11 23.5t15 14.5q11 7 23 7q7 0 11 -2q15 -4 22 -19 q3 -8 3 -18t-2 -15q-8 -21 -24 -30q-8 -5 -19 -5q-8 0 -15 3l-9 3v-4q0 -11 5 -19q8 -10 23 -15q5 -2 9 -2h8q12 0 23 6q9 5 17.5 15.5t11.5 26.5q2 9 4 35t4.5 55.5t5.5 56.5t8 38z" />
<glyph unicode="&#x102d;&#x103e;&#x102f;" d="M22 -346q29 43 37 122q3 13 14 13q5 0 9.5 -5t4.5 -15v-3q-12 -92 -48 -138q-52 -70 -133 -70q-75 0 -110 41q-48 55 -48 156v169l178 208v-446q0 -43 12 -59q7 -12 24 -12q34 0 60 39zM-435 -7l175 -1l-64 -231l-147 -188q-38 -29 -77 -29q-18 0 -36 6q-44 14 -62 53 q-11 22 -11 45q0 19 8 41q12 41 40 58q19 11 35 11q8 0 17 -3q22 -8 33 -30q6 -12 6 -27q0 -12 -4 -23q-11 -34 -36 -46q-14 -8 -30 -8q-12 0 -23 4l-14 5v-6q0 -16 8 -30q11 -15 35 -22q12 -4 26 -4q20 0 36 10q28 16 45 65q6 20 12 49.5t11 62.5q3 21 5 44.5t2.5 47t1 45 t0.5 38.5v36h-15q-6 0 -9.5 5t-3.5 10t3 8.5t10 3.5h23zM-482 1303q0 56 17 98t62 74q29 20 55 24.5t56 4.5h38h16q25 0 45.5 -0.5t39.5 -4.5t36.5 -13t35.5 -25q36 -32 48.5 -68.5t12.5 -85.5q0 -56 -16.5 -98t-61.5 -74q-29 -20 -54 -24.5t-56 -4.5h-39h-30q-15 0 -32.5 1 t-36 4.5t-36 11t-32.5 19.5q-39 32 -53 71t-15 90zM-199 1443q0 17 -17 25q-15 7 -38 7q-19 0 -34 -6t-15 -18v-273q0 -26 18 -35q13 -7 38 -7q23 0 35 6q13 6 13 24v277z" />
<glyph unicode="&#x1036;&#x103e;&#x102f;" d="M22 -346q29 43 37 122q3 13 14 13q5 0 9.5 -5t4.5 -15v-3q-12 -92 -48 -138q-52 -70 -133 -70q-75 0 -110 41q-48 55 -48 156v169l178 208v-446q0 -43 12 -59q7 -12 24 -12q34 0 60 39zM-435 -7l175 -1l-64 -231l-147 -188q-38 -29 -77 -29q-18 0 -36 6q-44 14 -62 53 q-11 22 -11 45q0 19 8 41q12 41 40 58q19 11 35 11q8 0 17 -3q22 -8 33 -30q6 -12 6 -27q0 -12 -4 -23q-11 -34 -36 -46q-14 -8 -30 -8q-12 0 -23 4l-14 5v-6q0 -16 8 -30q11 -15 35 -22q12 -4 26 -4q20 0 36 10q28 16 45 65q6 20 12 49.5t11 62.5q3 21 5 44.5t2.5 47t1 45 t0.5 38.5v36h-15q-6 0 -9.5 5t-3.5 10t3 8.5t10 3.5h23zM-260 1400q40 0 66 -32q27 -30 27 -87q0 -55 -28 -88q-29 -32 -66 -32q-38 0 -63 28q-25 29 -25 85q0 65 26 94q25 32 63 32z" />
<glyph unicode=" "  horiz-adv-x="288" />
<glyph unicode="&#x09;" horiz-adv-x="288" />
<glyph unicode="&#xa0;" horiz-adv-x="288" />
<glyph unicode="!" horiz-adv-x="319" d="M137 395l-98 892q-8 69 -8 76q0 76 34.5 114.5t85.5 38.5q49 0 83.5 -38.5t34.5 -111.5q0 -22 -7 -79l-99 -892q-1 -8 -6 -13l-7 -4q-5 0 -8 4q-4 5 -5 13zM146 227q39 0 66 -31.5t27 -87.5t-28 -88t-66 -32q-37 0 -62.5 28.5t-25.5 84.5q0 63 26 94.5t63 31.5z" />
<glyph unicode="&#x22;" horiz-adv-x="832" d="M576 932l-54 292l-22 121q-2 25 -2 50q0 63 28 92t74 29q43 0 71.5 -29t28.5 -78q0 -85 -19 -184l-57 -293h-48zM210 932l-55 296q-22 122 -22 166q0 64 26.5 93t71.5 29q44 0 73 -29.5t29 -78.5q0 -39 -26 -181l-54 -295h-43z" />
<glyph unicode="#" horiz-adv-x="1365" d="M88 972h326l86 405h123l-86 -405h420l85 405h123l-85 -405h196v-122h-222l-75 -371h297v-123h-322l-86 -402h-123l86 402h-422l-85 -402h-123l85 402h-198v123h224l77 371h-301v122zM512 850l-78 -371h422l76 371h-420z" />
<glyph unicode="$" horiz-adv-x="618" d="M285 1516h25v-87q104 0 171.5 -68t67.5 -173q0 -73 -24.5 -103.5t-61.5 -30.5q-34 0 -57.5 24.5t-23.5 62.5t23.5 63.5t50.5 25.5q10 0 26 -2l13 -2q8 0 11 3.5t3 13.5q0 61 -53.5 110t-145.5 52v-470q126 -196 159 -256q61 -110 86 -191.5t25 -144.5q0 -140 -81 -240.5 t-189 -112.5v-212h-24v212q-109 0 -178 75.5t-69 200.5q0 86 31 127.5t66 41.5q29 0 51 -27t22 -78q0 -50 -21 -75t-50 -25q-15 0 -57 9q-5 0 -7.5 -3.5t-2.5 -16.5q0 -80 58 -139t157 -63l-1 579q-146 211 -186 311.5t-40 189.5q0 140 75 242q57 76 151 89v88zM285 1402 q-54 -14 -83.5 -52t-29.5 -95q0 -60 25 -125.5t88 -160.5v433zM310 554v-535q69 15 105 60.5t36 122.5q0 63 -24 129.5t-117 222.5z" />
<glyph unicode="%" horiz-adv-x="729" d="M302 1427q31 -92 31 -284q0 -242 -48 -319q-32 -52 -92 -52t-96 54q-50 75 -50 274v158q0 136 52 207q37 51 93 51q54 0 97 -57q47 -30 119 -30q101 0 220 72q25 15 38 15q8 0 12 -3t4 -8t-4 -12l-3 -8l-590 -1496h-55l582 1477q-107 -61 -195 -61q-52 0 -115 22z M156 849q0 -28 9.5 -40t24.5 -12t24.5 12t9.5 40v594q0 27 -12 41q-9 11 -24 11q-14 0 -23 -11.5t-9 -40.5v-594zM389 305v172q0 138 52 210q40 55 92 55q53 0 91 -54q51 -72 51 -225v-218q0 -131 -55 -205q-38 -52 -91 -52q-39 0 -69 26t-46 89q-25 97 -25 202zM496 69 q0 -30 8.5 -41t24.5 -11q14 0 24 12q13 16 13 40v605q0 17 -12 30q-9 10 -24 10q-14 0 -24 -11t-10 -29v-605z" />
<glyph unicode="&#x26;" horiz-adv-x="874" d="M240 843q-31 114 -47 205.5t-16 161.5q0 147 73 240q55 70 131 70q62 0 109 -60q66 -83 66 -203q0 -76 -32 -147t-116 -166l23 -70q98 -309 209 -572q89 188 89 346q0 31 -6 42q-3 6 -8 6l-11 -6q-30 -23 -66 -23q-41 0 -66.5 28.5t-25.5 83.5q0 61 28 93t68 32 q47 0 76 -40q38 -53 38 -177q0 -218 -101 -420l16 -35q38 -79 62 -102t47 -23q19 0 32 18q17 22 17 72q0 13 3 16.5t10 3.5q8 0 11 -4t3 -21q0 -92 -51.5 -149.5t-118.5 -57.5q-40 0 -70 16.5t-87 78.5q-48 -51 -94.5 -73t-105.5 -22q-121 0 -205.5 100t-84.5 294 q0 132 48 242t153 222zM401 975q48 49 70 110t22 182q0 135 -35 187q-26 38 -67 38q-28 0 -46 -23t-18 -84q0 -51 15 -139.5t45 -214.5zM247 812q-36 -30 -54 -69.5t-18 -87.5q0 -100 47 -254q35 -115 87 -223q37 -78 66 -102t57 -24q20 0 36.5 9.5t45.5 41.5 q-74 138 -126 269.5t-117 358.5z" />
<glyph unicode="'" horiz-adv-x="363" d="M158 932l-54 296q-23 123 -23 166q0 64 26 93t71 29t74.5 -29.5t29.5 -77.5q0 -37 -26 -181l-54 -296h-44z" />
<glyph unicode="(" horiz-adv-x="391" d="M214 1364v-1206q0 -82 22 -110t73 -33q11 -1 15 -4.5t4 -9.5q0 -5 -5 -9t-15 -4q-53 0 -102.5 29t-85.5 92q-27 47 -57.5 163t-30.5 300v398q0 299 101 444q72 102 173 102q13 0 18 -3.5t5 -8.5t-4 -8.5t-16 -4.5q-36 -3 -54.5 -16.5t-27.5 -39.5q-13 -40 -13 -71z" />
<glyph unicode=")" horiz-adv-x="393" d="M157 170v1166q0 90 -22.5 120.5t-75.5 35.5q-10 1 -13.5 4t-3.5 8t4.5 8.5t15.5 3.5q47 0 89.5 -20.5t76.5 -65t53 -106.5q33 -100 45.5 -190t12.5 -213v-349q0 -325 -104 -480q-70 -104 -170 -104q-15 0 -21 5q-5 3 -5 8l4 7q5 4 20 5q35 3 53.5 20t29.5 59t11 78z" />
<glyph unicode="*" horiz-adv-x="512" d="M232 1301q1 10 1 15q0 36 -17 93q-12 41 -12 60q0 22 11 34.5t29 12.5q16 0 27.5 -13t11.5 -35q0 -16 -9 -49q-20 -74 -20 -107v-11q42 22 87.5 68.5t72.5 46.5q17 0 28 -11.5t11 -30.5t-13 -31t-63 -22q-67 -13 -111 -39q51 -29 117 -43q46 -10 58 -21.5t12 -28.5 q0 -19 -11 -30t-27 -11q-30 0 -76 47.5t-85 63.5v-17q0 -37 14.5 -82.5t14.5 -68.5t-10 -33.5t-28 -10.5q-20 0 -31 11t-11 33q0 14 7 38q22 76 22 121v9q-39 -14 -86 -64t-73 -50q-16 0 -28.5 12.5t-12.5 29.5t13 29t61 22q66 15 110 44q-44 25 -110 39q-48 10 -60.5 21.5 t-12.5 30.5t11 31t27 12q18 0 32.5 -9t42.5 -41t44.5 -44t41.5 -21z" />
<glyph unicode="+" horiz-adv-x="960" d="M99 802h335v334h92v-334h334v-93h-334v-334h-92v334h-335v93z" />
<glyph unicode="," horiz-adv-x="276" d="M164 -21q-18 -3 -33 -3q-35 0 -61.5 30t-26.5 84q0 60 29 95.5t64 35.5q38 0 68.5 -38t30.5 -106q0 -146 -104 -294q-54 -76 -72 -76l-10 11q0 5 15 25q57 70 77 118.5t23 117.5z" />
<glyph unicode="-" horiz-adv-x="362" d="M55 607h253v-143h-253v143z" />
<glyph unicode="." horiz-adv-x="276" d="M38 104q0 62 26.5 93t65.5 31q37 0 63 -29.5t26 -84.5q0 -60 -28.5 -93t-63.5 -33q-32 0 -60.5 31.5t-28.5 84.5z" />
<glyph unicode="/" horiz-adv-x="456" d="M382 1517h50l-360 -1529h-52z" />
<glyph unicode="0" horiz-adv-x="575" d="M35 480v534q0 285 89 412q63 90 162 90q125 0 190.5 -135t65.5 -377v-524q0 -273 -90 -401q-65 -91 -166 -91q-57 0 -100 29t-75 84q-20 33 -40 107q-36 127 -36 272zM343 1422q0 30 -22 55q-14 17 -39 17q-23 0 -37 -17t-14 -55v-1301q0 -67 15.5 -88t43.5 -21 q26 0 37 17q16 23 16 92v1301z" />
<glyph unicode="1" horiz-adv-x="438" d="M125 28v1311q-65 -40 -88 -40l-6 3q-3 5 -3 12q0 5 17 12q122 52 154 153q5 15 10.5 20t13.5 5h72q7 0 13 -7q9 -13 9 -28v-1441h64q7 0 11.5 -4t4.5 -10t-4 -9q-5 -5 -12 -5h-343l-7 3q-4 4 -4 11q0 6 11 14h87z" />
<glyph unicode="2" horiz-adv-x="575" d="M25 0v46q0 75 16 167q12 68 36.5 118.5t122 182.5t113.5 183q23 68 23 225v429q0 84 -17.5 108.5t-50.5 24.5q-71 0 -131 -78q-84 -110 -84 -264q0 -18 4 -24q2 -4 8 -4q8 0 27 13q34 22 62 22q40 0 71 -38.5t31 -113.5q0 -72 -30.5 -108t-75.5 -36q-50 0 -82 45 q-43 59 -43 191q0 173 70 300t199 127q96 0 168.5 -95.5t72.5 -314.5q0 -176 -39 -273.5t-154.5 -215t-163.5 -179.5t-79 -136q-19 -45 -32 -124h432l13 271q1 6 9 12l7 -3l3 -9l-19 -449h-487z" />
<glyph unicode="3" horiz-adv-x="575" d="M293 814q119 -35 167 -96q77 -99 77 -298q0 -221 -86 -326.5t-195 -105.5q-87 0 -153.5 82.5t-66.5 242.5q0 114 42 170q32 42 80 42q41 0 70 -35.5t29 -106.5q0 -74 -32 -112t-75 -38q-26 0 -55 16q-18 10 -24 10q-6 -5 -6 -11q0 -100 57.5 -167t120.5 -67q39 0 62 23 q28 30 28 66v559q0 76 -23.5 106t-61.5 30q-20 0 -43 -11q-16 -8 -21 -8t-11 2l-57 20l-7 6l7 7l57 29l8 2q9 0 33 -9.5t41 -9.5q30 0 45 17q24 27 24 60v525q0 34 -15 50t-43 16q-70 0 -129.5 -64t-59.5 -149q0 -8 10 -15q5 0 33 14.5t51 14.5q37 0 63.5 -31.5t26.5 -91.5 q0 -59 -29 -91.5t-73 -32.5t-75 39.5t-31 132.5q0 148 63.5 222t158.5 74q99 0 170.5 -86.5t71.5 -253.5q0 -154 -55 -237.5t-169 -124.5z" />
<glyph unicode="4" horiz-adv-x="575" d="M203 0q-7 1 -10 4.5t-3 8.5q0 6 3 9.5t10 3.5h69v397h-224l313 1065q3 9 7 12.5t11 3.5h59q9 0 14 -4.5t5 -11.5v-1042h106q7 0 10.5 -3.5t3.5 -7.5q0 -5 -3 -8q-5 -4 -11 -4h-106v-397h62q6 0 9.5 -3.5t3.5 -9.5t-4 -9.5t-9 -3.5h-316zM272 1080l-187 -634h187v634z" />
<glyph unicode="5" horiz-adv-x="575" d="M87 1504h398v39q8 10 15 10q6 0 13 -10l-12 -201q0 -6 -4 -9t-12 -3h-372l-12 -443q51 103 93.5 138t101.5 35q112 0 176 -124.5t64 -429.5q0 -267 -58 -376q-76 -142 -216 -142q-90 0 -154 77t-64 225q0 103 33 146.5t77 43.5q41 0 73 -39.5t32 -112.5q0 -79 -33.5 -120 t-76.5 -41q-19 0 -40 6l-9 1l-4 -2q-3 -4 -3 -11q0 -55 45.5 -99.5t106.5 -44.5q43 0 65 26q30 36 30 98v768q0 70 -22 100q-16 22 -44 22q-56 0 -106 -68q-72 -101 -81 -295q0 -8 -11 -16q-5 0 -8 4q-4 5 -4 12z" />
<glyph unicode="6" horiz-adv-x="575" d="M240 820q36 51 62.5 67.5t61.5 16.5q78 0 127 -95t49 -250v-167q0 -199 -90 -315q-68 -89 -160 -89q-94 0 -158 92q-90 130 -90 410v529q0 277 90 404q67 94 170 94q77 0 141.5 -76t64.5 -194q0 -81 -31.5 -121t-71.5 -40q-43 0 -74.5 38.5t-31.5 109.5q0 72 29.5 107 t70.5 35q7 0 19 -2q7 -2 12 -2q9 0 12 3t3 9q0 33 -44.5 73.5t-91.5 40.5q-31 0 -50 -20.5t-19 -54.5v-603zM341 781q0 38 -11 54q-9 12 -22 12q-29 0 -48.5 -39t-19.5 -76v-642q0 -38 17 -59q12 -16 33 -16q22 0 36.5 18t14.5 57v691z" />
<glyph unicode="7" horiz-adv-x="575" d="M526 1504v-139q0 -52 -15 -120t-70 -233q-70 -207 -93 -325.5t-23 -242.5q0 -69 4 -144.5t4 -90.5q0 -118 -44 -178q-33 -43 -83 -43q-52 0 -88 44.5t-36 139.5q0 111 34.5 219t159.5 338q107 196 154.5 334.5t61.5 269.5h-433v-230q0 -6 -3 -9.5t-9 -3.5q-5 0 -8.5 3.5 t-3.5 9.5v401h491z" />
<glyph unicode="8" horiz-adv-x="575" d="M217 732l-78 214q-33 95 -45.5 158.5t-12.5 119.5q0 138 66.5 215t155.5 77q85 0 144.5 -70t59.5 -201q0 -76 -26 -154t-105 -214q18 -53 43 -114q77 -188 100 -276.5t23 -166.5q0 -160 -76 -246t-189 -86q-102 0 -167.5 74.5t-65.5 217.5q0 91 35.5 190t137.5 262z M361 905q80 148 80 353q0 133 -37 183t-93 50q-42 0 -68 -28.5t-26 -84.5q0 -135 144 -473zM226 699q-46 -77 -65 -144q-37 -125 -37 -263q0 -155 51 -229q37 -52 90 -52q45 0 75 38t30 124t-30.5 203.5t-113.5 322.5z" />
<glyph unicode="9" horiz-adv-x="575" d="M340 696q-3 -3 -7 -10q-46 -81 -116 -81q-68 0 -116 72q-63 95 -63 343q0 244 66 370t186 126q119 0 183 -133.5t64 -352.5v-534q0 -284 -93 -417q-65 -91 -171 -91q-79 0 -134 65q-72 85 -72 205q0 81 33 123t72 42q42 0 73 -38t31 -110q0 -70 -30.5 -106t-71.5 -36 q-11 0 -25 3q-8 2 -11 2q-4 0 -6 -3q-3 -3 -3 -9q0 -34 43.5 -74t95.5 -40q36 0 54 20.5t18 68.5v595zM340 1428q0 26 -20 50q-12 14 -34 14t-36 -16.5t-14 -47.5v-680q0 -61 8.5 -75t23.5 -14q20 0 39 27q33 46 33 99v643z" />
<glyph unicode=":" horiz-adv-x="276" d="M38 104q0 62 26.5 93t65.5 31q37 0 63 -29.5t26 -84.5q0 -60 -28.5 -93t-63.5 -33q-32 0 -60.5 31.5t-28.5 84.5zM39 949q0 62 26.5 93t65.5 31q37 0 63 -29.5t26 -84.5q0 -60 -28.5 -93t-63.5 -33q-32 0 -60.5 31.5t-28.5 84.5z" />
<glyph unicode=";" horiz-adv-x="276" d="M40 949q0 62 26.5 93t65.5 31q37 0 63 -29.5t26 -84.5q0 -60 -28.5 -93t-63.5 -33q-32 0 -60.5 31.5t-28.5 84.5zM153 -21q-18 -3 -33 -3q-35 0 -61.5 30t-26.5 84q0 60 29 95.5t64 35.5q38 0 68.5 -38t30.5 -106q0 -146 -104 -294q-54 -76 -72 -76l-10 11q0 5 15 25 q57 70 77 118.5t23 117.5z" />
<glyph unicode="&#x3c;" horiz-adv-x="960" d="M100 798l760 320v-100l-637 -261l637 -262v-100l-761 321z" />
<glyph unicode="=" horiz-adv-x="960" d="M99 962h761v-92h-761v92zM99 640h761v-92h-761v92z" />
<glyph unicode="&#x3e;" horiz-adv-x="960" d="M860 715l-761 -320v100l637 262l-637 261v100l761 -321v-82z" />
<glyph unicode="?" horiz-adv-x="532" d="M303 1080v296q0 65 -20 90.5t-51 25.5q-57 0 -106 -63q-67 -86 -67 -204q0 -26 5 -36q3 -5 8 -5q6 0 22 13q27 23 50 23q31 0 59.5 -36.5t28.5 -103.5q0 -66 -25.5 -98t-60.5 -32q-45 0 -77 43q-42 58 -42 171q0 173 71.5 263t162.5 90q96 0 161 -75t65 -228 q0 -104 -20 -170q-14 -46 -44 -90q-21 -31 -120 -146q-138 -160 -138 -283q0 -52 33.5 -88t76.5 -36q45 0 74.5 33t29.5 92q0 49 -29 106q-7 12 -7 17l9 10q12 0 25 -23q27 -45 27 -107q0 -72 -36.5 -112t-91.5 -40t-95.5 44t-40.5 111q0 40 12.5 80.5t62 140t69 173.5 t19.5 154zM230 225q39 0 64.5 -29t25.5 -86q0 -63 -25 -92.5t-64 -29.5t-64.5 30t-25.5 88t26 88.5t63 30.5z" />
<glyph unicode="@" horiz-adv-x="1877" d="M1351 1120l-130 -444q-53 -182 -53 -231q0 -28 19 -48t47 -20q62 0 153.5 66.5t154.5 200t63 280.5q0 154 -71 280.5t-199.5 194.5t-288.5 68q-193 0 -368 -101.5t-279.5 -298.5t-104.5 -415q0 -299 191 -491t486 -192q236 0 424 127t278 351h52q-90 -245 -292.5 -386.5 t-462.5 -141.5q-331 0 -546.5 216t-215.5 549q0 224 107.5 420.5t301.5 304.5t410 108q186 0 331 -73t221 -214t76 -305q0 -170 -76.5 -322.5t-189 -220t-231.5 -67.5q-77 0 -116 36t-39 95q0 29 18 128q-112 -157 -183 -208.5t-138 -51.5q-73 0 -111 60.5t-38 134.5 q0 147 81.5 304t212.5 252q96 70 172 70q49 0 84 -31t47 -97l29 99zM1113 957q0 63 -25.5 94.5t-59.5 31.5q-47 0 -101 -59q-80 -89 -146 -264q-51 -133 -51 -213q0 -47 23.5 -74t50.5 -27q32 0 79.5 33.5t102 111.5t81.5 155q46 127 46 211z" />
<glyph unicode="A" horiz-adv-x="627" d="M263 1483h111l178 -1457h45q11 -7 11 -13t-11 -13h-301q-5 0 -8 3.5t-3 9.5t3 9.5t8 3.5h48l-26 284h-181l-22 -161q-1 -13 -1 -27q0 -44 16.5 -66.5t45.5 -27.5l16 -5q4 -4 4 -10t-3.5 -9.5t-8.5 -3.5h-171q-5 0 -8.5 3.5t-3.5 9.5t3 10l12 4q29 4 45 26q24 35 34 116z M238 1110l-98 -774h175z" />
<glyph unicode="B" horiz-adv-x="666" d="M77 26v1453h-66q-11 7 -11 13q0 5 11 12h295q136 0 222.5 -94t86.5 -264q0 -104 -29.5 -179.5t-91.5 -126.5q-39 -32 -118 -61q82 -30 121 -61q62 -51 94 -123.5t32 -178.5q0 -137 -47 -243q-32 -74 -105 -123.5t-175 -49.5h-285q-11 7 -11 13t11 13h66zM283 1479v-688 h53q36 0 53.5 18t17.5 60v522q0 51 -18 69.5t-70 18.5h-36zM283 765v-739h32q42 0 67 24t25 65v581q0 37 -14.5 53t-45.5 16h-64z" />
<glyph unicode="C" horiz-adv-x="575" d="M536 1515v-593q0 -7 -4 -11.5t-10 -4.5t-10 4q-4 5 -4 12v53q0 126 -29 253q-37 166 -102 236q-25 27 -65 27q-27 0 -43 -21q-21 -26 -21 -80v-1284q0 -48 18.5 -69.5t49.5 -21.5q40 0 82 35.5t64 95.5q46 122 46 273v165q0 10 4 15t10 5q5 0 8 -4q6 -7 6 -16v-165 q0 -233 -86 -350q-61 -84 -154 -84q-69 0 -120 43.5t-83 148.5q-59 197 -59 475v172q0 200 34.5 379.5t112.5 261.5q53 55 120 55q80 0 144 -110l80 105h11z" />
<glyph unicode="D" horiz-adv-x="666" d="M77 27v1452h-63q-7 0 -10.5 3.5t-3.5 9.5q0 5 3.5 8.5t10.5 3.5h259q119 0 194 -54t110 -173q46 -159 46 -339v-371q0 -187 -45 -338q-26 -85 -66 -132.5t-97 -72t-142 -24.5h-259q-7 0 -10.5 3.5t-3.5 9.5q0 7 3.5 10.5t10.5 3.5h63zM284 27h23q61 0 80 21.5t19 110.5 v1209q0 65 -18.5 88t-56.5 23h-47v-1452z" />
<glyph unicode="E" horiz-adv-x="623" d="M84 1479h-64q-10 7 -10 12q0 7 10 13h568v-557q-6 -10 -12 -10t-8.5 3.5t-3.5 28.5q-7 166 -52 309t-87 181q-22 20 -74 20h-62v-704q57 6 93 60q48 73 48 224v78q0 5 3.5 8.5t8.5 3.5t8 -3.5t3 -8.5v-743q0 -5 -3 -8.5t-8 -3.5t-8.5 3.5t-3.5 8.5v72q0 148 -54 235 q-32 50 -67 50q-9 0 -14 -6q-6 -7 -6 -22v-697h32q41 0 81 30.5t75 106t54 164.5q31 144 31 225v66q7 11 13 11t9.5 -3t3.5 -8v-618h-568q-7 0 -11 4t-4 9q0 6 4 9.5t11 3.5h64v1453z" />
<glyph unicode="F" horiz-adv-x="623" d="M90 1479h-62q-11 7 -11 12q0 7 11 13h552v-556q0 -5 -3 -8t-8 -3q-6 0 -9 4t-4 31q-5 124 -42 265.5t-70 192.5q-17 26 -41 37.5t-74 11.5h-34v-704q47 4 80 57q50 81 50 251v55q0 6 3 9t8 3t8 -3.5t3 -8.5v-750q0 -6 -3 -9t-8 -3l-7 3q-4 4 -4 9v89q0 145 -49 221 q-32 49 -81 51v-723h63q5 0 8 -3.5t3 -9.5t-3 -9.5t-8 -3.5h-330q-7 0 -11 4t-4 9q0 6 4 9.5t11 3.5h62v1453z" />
<glyph unicode="G" horiz-adv-x="645" d="M445 1408l66 93q8 12 16 12q3 0 5 -2t2 -7v-597q0 -5 -3.5 -8t-8.5 -3q-7 0 -9 4q-2 3 -6 53q-34 363 -102 476q-39 63 -92 63q-29 0 -49 -26t-20 -93v-1293q0 -32 18 -50.5t45 -18.5q29 0 46 21q23 30 23 81v558h-52q-5 0 -8.5 3.5t-3.5 8.5q0 6 3.5 9.5t8.5 3.5h291 q5 0 8 -3.5t3 -9.5q0 -5 -3 -8.5t-8 -3.5h-45v-671q0 -8 -3 -12q-2 -3 -6 -3t-7.5 3t-7.5 12l-57 141q-58 -99 -95.5 -127.5t-86.5 -28.5q-136 0 -206 153t-70 414v372q0 267 75 431.5t195 164.5q87 0 144 -112z" />
<glyph unicode="H" horiz-adv-x="733" d="M93 26v1453h-66q-11 7 -11 13q0 5 11 12h304q11 -7 11 -12q0 -6 -11 -13h-32v-684h127v684h-42q-11 7 -11 13t11 12h309q11 -7 11 -12q0 -6 -11 -13h-60v-1453h60q5 0 9 -3.5t4 -9.5t-4 -9.5t-9 -3.5h-299q-5 0 -8.5 3.5t-3.5 9.5t3.5 9.5t8.5 3.5h32v745h-127v-745h39 q5 0 8.5 -3.5t3.5 -9.5t-3.5 -9.5t-8.5 -3.5h-311q-11 7 -11 13t11 13h66z" />
<glyph unicode="I" horiz-adv-x="393" d="M80 1479h-60q-5 0 -8 3.5t-3 8.5q0 6 3 9.5t8 3.5h325q5 0 8.5 -3.5t3.5 -8.5q0 -6 -3.5 -9.5t-8.5 -3.5h-60v-1453h60q10 -7 10 -13q0 -7 -10 -13h-333q-11 7 -11 13t11 13h68v1453z" />
<glyph unicode="J" horiz-adv-x="623" d="M311 1479h-66q-5 0 -8 3.5t-3 8.5q0 6 11 13h328q5 0 8.5 -3.5t3.5 -8.5q0 -6 -3.5 -9.5t-8.5 -3.5h-54v-1228q0 -118 -73.5 -192t-189.5 -74q-103 0 -168 67.5t-65 183.5q0 99 34.5 143t79.5 44q37 0 65 -34t28 -98q0 -61 -26.5 -92.5t-62.5 -31.5q-14 0 -33.5 6 t-29.5 6q-7 0 -11 -5q-6 -7 -6 -19q0 -49 48 -95.5t100 -46.5q43 0 68 31q34 43 34 119v1316z" />
<glyph unicode="K" horiz-adv-x="776" d="M94 1478h-60q-6 0 -9.5 3.5t-3.5 9.5t3.5 9.5t9.5 3.5h329q10 -7 10 -13t-10 -13h-63v-729l228 555q21 50 21 91q0 34 -13 54t-37 27l-38 3q-7 4 -7 12q0 6 3.5 9.5t8.5 3.5h246q5 0 8.5 -3.5t3.5 -9.5q0 -8 -6 -11l-48 -5q-35 -11 -60.5 -49t-72.5 -154l-102 -248 l262 -998h45q5 0 8.5 -3.5t3.5 -9.5t-3.5 -9.5t-8.5 -3.5h-318q-9 7 -9 13q0 7 9 13h65l-189 696v-696h63q6 0 9.5 -3.5t3.5 -9.5t-3.5 -9.5t-9.5 -3.5h-329l-4 2q-3 4 -3 11t7 13h60v1452z" />
<glyph unicode="L" horiz-adv-x="623" d="M80 1479h-62q-11 7 -11 12q0 6 11 13h333q5 0 8.5 -3.5t3.5 -8.5q0 -6 -3.5 -9.5t-8.5 -3.5h-66v-1453h42q45 0 79 25.5t66 105.5q47 118 68.5 257.5t22.5 178.5q1 14 4 18l8 3l8 -3q4 -4 4 -9l-8 -602h-561q-5 0 -8.5 3.5t-3.5 9.5t3.5 9.5t8.5 3.5h62v1453z" />
<glyph unicode="M" horiz-adv-x="840" d="M87 1479h-59q-5 0 -8.5 3.5t-3.5 8.5q0 6 3.5 9.5t8.5 3.5h271l96 -917l123 917h272q6 0 10 -3.5t4 -8.5q0 -6 -4 -9.5t-10 -3.5h-65v-1453h65q3 0 4 -2q3 -5 3 -12q0 -6 -2 -9t-5 -3h-329q-4 0 -7.5 3.5t-3.5 9.5t3.5 9.5t7.5 3.5h69v1388l-176 -1379q-4 -27 -7 -31 t-9 -4h-65q-6 0 -9 4t-6 31l-144 1365v-1268q0 -52 10.5 -73t36.5 -30l45 -4q5 -3 5 -12q0 -8 -2.5 -10.5t-12.5 -2.5h-177q-4 0 -6.5 3t-2.5 8t2.5 7.5t17.5 8.5q31 12 42 31q15 26 15 74v1347z" />
<glyph unicode="N" horiz-adv-x="633" d="M503 1382q0 46 -12 66t-37 28l-43 4q-5 2 -5 11q0 8 2.5 11t12.5 3h177q4 0 6.5 -3.5t2.5 -8.5t-2.5 -7.5t-17.5 -8.5q-31 -12 -43 -31.5t-15 -72.5v-1373h-155l-249 1370v-1241q0 -51 11 -71.5t36 -28.5l45 -4q5 -3 5 -12q0 -8 -2.5 -10.5t-12.5 -2.5h-177q-4 0 -6.5 3 t-2.5 8t2.5 7.5t17.5 8.5q31 12 42.5 31t14.5 74v1347h-56q-5 0 -8.5 3.5t-3.5 9.5q0 5 3.5 8.5t8.5 3.5h259l202 -1099v977z" />
<glyph unicode="O" horiz-adv-x="641" d="M598 922v-369q0 -319 -101 -466q-70 -102 -175 -102q-71 0 -131 51t-94 150q-55 159 -55 353v432q0 302 101 448q70 101 173 101q50 0 92 -22.5t75 -66t59.5 -115t37.5 -148.5q18 -131 18 -246zM253 149q0 -78 24 -113q18 -25 44 -25q25 0 44 22.5t19 64.5v1282 q0 54 -25 86q-17 23 -43 23q-23 0 -40 -22q-23 -30 -23 -87v-1231z" />
<glyph unicode="P" horiz-adv-x="666" d="M85 1479h-64q-5 0 -8.5 3.5t-3.5 8.5q0 6 3.5 9.5t8.5 3.5h297q70 0 135 -34q46 -25 86.5 -77.5t60.5 -104.5q27 -71 27 -164v-105q0 -111 -41 -193.5t-110.5 -130t-146.5 -47.5h-36v-622h60q5 0 8.5 -3.5t3.5 -9.5t-3.5 -9.5t-8.5 -3.5h-332q-5 0 -8.5 3.5t-3.5 9.5 t3.5 9.5t8.5 3.5h64v1453zM293 1479v-806h37q38 0 62 24.5t24 68.5v613q0 51 -23 79q-17 21 -49 21h-51z" />
<glyph unicode="Q" horiz-adv-x="641" d="M347 -8q-18 -3 -35 -3q-61 0 -107.5 31.5t-83.5 96.5q-28 48 -57 156t-29 271v432q0 298 101 443q71 101 178 101q111 0 179 -101q98 -145 98 -492v-370q0 -147 -21 -253.5t-58 -178.5q-17 -34 -59 -80q44 -59 81 -159q13 -35 24 -48.5t29 -19.5l11 -5l2 -5q0 -6 -12 -12 q-31 -17 -79 -17q-64 0 -104.5 43.5t-57.5 169.5zM376 118v1282q0 50 -19 75q-15 19 -41 19q-27 0 -43 -22q-22 -30 -22 -90v-1279q38 27 69 27q21 0 48 -9zM251 84q1 -37 18.5 -55t43.5 -18q14 0 34 9q-11 40 -26.5 54t-39.5 14q-12 0 -30 -4z" />
<glyph unicode="R" horiz-adv-x="772" d="M82 1479h-59q-11 6 -11 13q0 6 11 12h315q117 0 203 -99.5t86 -271.5q0 -99 -33 -176t-98 -127q-39 -30 -121 -58q92 -27 128 -52q61 -42 90.5 -101t29.5 -153v-366q0 -25 8 -35t21 -10q20 0 36 25q26 40 33 144q1 18 5.5 24t9.5 6q6 0 10 -7q5 -8 5 -30 q0 -111 -53.5 -171.5t-134.5 -60.5q-72 0 -109 37t-37 105v529q0 68 -34 91q-20 13 -94 13v-734h49q8 0 12.5 -4t4.5 -9t-4.5 -9t-12.5 -4h-315q-6 0 -10 3.5t-4 9.5t4 9.5t10 3.5h59v1453zM289 1479v-692h49q35 0 57 24t22 70v519q0 45 -16 62t-63 17h-49z" />
<glyph unicode="S" horiz-adv-x="598" d="M156 87q-34 -24 -69.5 -59.5t-43.5 -35.5q-3 0 -5 3t-2 13v628q0 4 2.5 6.5t5.5 2.5q5 0 9 -6q7 -9 7 -20v-43q0 -125 39 -285t102 -228q31 -34 72 -34q47 0 82 44.5t35 134.5q0 86 -32 182q-42 128 -186 410q-90 176 -114.5 254.5t-24.5 152.5q0 147 69.5 230t158.5 83 q76 0 137 -81q50 27 97 67q16 14 21 14q2 0 4 -2q2 -4 2 -14v-543q0 -11 -5 -18q-3 -4 -8 -4q-6 0 -9 5t-12 72q-41 311 -109 412q-40 58 -91 58q-38 0 -66 -34t-28 -100q0 -119 136 -391l88 -177q91 -183 121 -290.5t30 -192.5q0 -148 -73 -232t-171 -84q-106 0 -169 102z " />
<glyph unicode="T" horiz-adv-x="705" d="M245 1479h-21q-22 0 -38 -14q-24 -21 -47 -93q-37 -115 -63 -275.5t-26 -203.5v-23q0 -8 -4 -12.5t-9 -4.5q-6 0 -9 4q-5 6 -5 13v634h650v-634q0 -7 -4 -11.5t-10 -4.5q-5 0 -9 4.5t-4 11.5v39q0 57 -28.5 212.5t-65.5 261.5q-24 68 -39.5 82t-29.5 14h-32v-1453h78 q11 -7 11 -13t-11 -13h-371q-5 0 -8 3.5t-3 9.5t3 9.5t8 3.5h87v1453z" />
<glyph unicode="U" horiz-adv-x="678" d="M93 1478h-59q-11 8 -11 13q0 6 11 13h321q5 0 8 -3.5t3 -8.5q0 -7 -3 -10.5t-8 -3.5h-56v-1376q0 -42 23 -65t62 -23q71 0 117.5 56.5t46.5 178.5v1101q0 75 -12.5 95.5t-47.5 28.5q-18 4 -23.5 9.5t-5.5 11.5l2 7l8 2h158q6 0 15 -11q0 -5 -4.5 -9t-15.5 -6 q-20 -3 -31 -23q-19 -32 -19 -105v-1129q0 -116 -59.5 -176t-171.5 -60q-141 0 -204 72q-44 51 -44 192v1229z" />
<glyph unicode="V" horiz-adv-x="584" d="M65 1478h-51q-5 0 -8.5 3.5t-3.5 9.5t3.5 9.5t8.5 3.5h319q5 0 8.5 -3.5t3.5 -9.5t-3 -9.5t-9 -3.5h-61l87 -1107l118 1006q2 14 2 28q0 33 -9 50t-26 21l-32 3q-6 4 -6 12q0 6 11 13h151q5 0 8 -3t3 -8t-2.5 -8t-8.5 -4q-24 -3 -37 -21q-21 -31 -29 -103l-151 -1265 q-9 -78 -13 -85t-15 -7h-96q-8 0 -12 8t-15 115z" />
<glyph unicode="W" horiz-adv-x="989" d="M68 1478h-48q-11 7 -11 13t11 13h310q5 0 8 -3.5t3 -9.5t-3 -9.5t-8 -3.5h-54l94 -1010l96 919l-9 91h-50q-5 0 -8.5 3.5t-3.5 9.5t3.5 9.5t8.5 3.5h314q11 -7 11 -13t-11 -13h-57l95 -1010l98 897q1 15 1 27q0 35 -10 56t-29 28l-30 4q-6 3 -6 11q0 6 11 13h166 q11 -7 11 -13q0 -5 -2.5 -8.5t-8.5 -4.5q-26 -3 -46 -30q-28 -36 -34 -93l-133 -1245q-10 -88 -18 -101q-5 -9 -18 -9h-72q-15 0 -23 12l-12 111l-126 1147l-120 -1160q-10 -95 -14 -100q-6 -10 -25 -10h-72q-12 0 -17 9q-4 6 -13 89z" />
<glyph unicode="X" horiz-adv-x="733" d="M78 1478h-47q-5 0 -8.5 3.5t-3.5 9.5t3.5 9.5t8.5 3.5h335q5 0 8.5 -3.5t3.5 -9.5t-3.5 -9.5t-8.5 -3.5h-80l137 -536l123 396q10 34 10 62q0 35 -11.5 52.5t-36.5 22.5l-46 4q-6 3 -6 12q0 6 11 13h225q11 -7 11 -13q0 -8 -5 -11l-31 -3q-24 -7 -47.5 -33.5t-34.5 -59.5 l-151 -486l222 -872h46q11 -7 11 -13t-3 -9.5t-8 -3.5h-320q-5 0 -8.5 3.5t-3.5 9.5t3.5 9.5t8.5 3.5h69l-152 598l-141 -461q-9 -29 -9 -62q0 -31 19 -49q28 -26 54 -26h26q5 0 8.5 -3.5t3.5 -9.5t-3.5 -9.5t-8.5 -3.5h-236q-11 7 -11 13t2.5 9t8.5 4q83 15 123 146 l151 499z" />
<glyph unicode="Y" horiz-adv-x="657" d="M216 746l-164 732h-40q-5 0 -8 3.5t-3 9.5q0 7 3 10t8 3h325q11 -7 11 -12q0 -7 -11 -14h-80l155 -683l116 532q7 30 7 56q0 38 -12 61.5t-33 31.5l-33 4q-6 3 -6 11q0 7 11 13h162q11 0 15 -2l3 -5q0 -7 -12 -15q-50 -29 -69 -115l-138 -621v-720h79q5 0 8.5 -3.5 t3.5 -9.5t-3.5 -9.5t-8.5 -3.5h-369q-5 0 -8 3.5t-3 9.5t3 9.5t8 3.5h83v720z" />
<glyph unicode="Z" horiz-adv-x="618" d="M59 1504h522l-357 -1478h94q59 0 108.5 57t89.5 225.5t42 278.5l2 12l10 3q6 0 11 -7l-10 -595h-558l359 1479h-82q-47 0 -77 -30q-44 -41 -75.5 -178.5t-53.5 -307.5l-1 -7l-2 -22q-3 -5 -10 -5q-6 0 -12 9v566z" />
<glyph unicode="[" horiz-adv-x="410" d="M61 1504h282q5 0 8 -3t3 -8q0 -6 -3 -9.5t-8 -3.5h-103v-1451h103l6 -3q3 -4 3 -10q0 -9 -9 -16h-282v1504z" />
<glyph unicode="\" horiz-adv-x="456" d="M71 1517l361 -1529h-52l-360 1529h51z" />
<glyph unicode="]" horiz-adv-x="410" d="M149 1480h-108q-6 6 -6 12q0 7 6 12h287v-1504h-287q-5 0 -9 4t-4 10q0 7 4 11t9 4h108v1451z" />
<glyph unicode="^" horiz-adv-x="1190" d="M147 666l411 718h82l404 -718h-159l-295 512l-290 -512h-153z" />
<glyph unicode="_" horiz-adv-x="1024" d="M1042 -442h-1059v84h1059v-84z" />
<glyph unicode="`" horiz-adv-x="682" d="M390 1475l10 -320q1 -9 -3 -14t-10 -5q-13 0 -20 14l-178 325h201z" />
<glyph unicode="a" horiz-adv-x="575" d="M89 967q14 5 27 7.5t24 2.5q40 0 67.5 -29t27.5 -76q0 -48 -28 -77t-75 -29t-74 29.5t-27 87.5q0 86 65 144t185 58q108 0 155.5 -40.5t47.5 -103.5v-864q0 -15 8 -24.5t17 -9.5q25 0 51 53q7 16 14 16l12 -11q0 -35 -45 -74t-108 -39q-54 0 -83.5 25t-44.5 88 q-46 -68 -80.5 -90.5t-81.5 -22.5q-57 0 -87.5 29.5t-30.5 77.5v377q0 61 26.5 90t156.5 72q58 20 97 40v288q0 45 -23.5 70t-61.5 25q-88 0 -131 -90zM305 643q-64 -25 -82.5 -50t-18.5 -80v-423q0 -21 7.5 -31t18.5 -10q16 0 36 34q39 63 39 152v408z" />
<glyph unicode="b" horiz-adv-x="580" d="M63 1479h-38q-4 0 -7 3t-3 9q0 7 3 10t7 3h219v-494q42 75 103 75q37 0 74 -32.5t59 -93.5q46 -130 46 -308v-210q0 -255 -79 -373q-55 -80 -134 -80q-46 0 -78 31.5t-66 149.5q-35 -84 -81 -162q-11 -19 -17 -19q-3 0 -5 3q-3 4 -3 17v1471zM345 984q0 29 -11 42 q-8 11 -24 11q-25 0 -41 -25q-25 -38 -25 -134v-818q0 -14 17 -31q11 -12 30 -12q23 0 36 19q18 27 18 93v855z" />
<glyph unicode="c" horiz-adv-x="512" d="M379 1004q30 24 53 52.5t31 28.5l5 -2l2 -10v-428q0 -7 -4 -11t-9 -4q-7 0 -10 5q-2 4 -6 49q-6 75 -39 190.5t-65.5 151t-69.5 35.5q-24 0 -34 -12.5t-10 -53.5v-882q0 -54 16 -74.5t44 -20.5q36 0 69 29.5t52 86.5q40 116 40 267v56q0 14 5 21l8 6q5 0 8 -6q5 -7 5 -21 v-66q0 -223 -74 -329q-52 -74 -132 -74q-88 0 -144 80q-73 105 -73 366v191q0 260 80 379q55 81 136 81q70 0 116 -81z" />
<glyph unicode="d" horiz-adv-x="580" d="M501 26h43q10 -7 10 -13t-10 -13h-221v80q-19 -46 -46 -69t-62 -23q-80 0 -126 119t-46 375q0 402 70 527q43 76 112 76q27 0 51.5 -16.5t46.5 -49.5v460h-56q-10 6 -10 13q0 6 10 12h234v-1478zM323 907q0 67 -28 107q-19 28 -43 28q-12 0 -21.5 -10.5t-9.5 -27.5v-920 q0 -31 9 -43t21 -12q18 0 36 26q36 49 36 85v767z" />
<glyph unicode="e" horiz-adv-x="532" d="M206 533v-372q0 -87 20 -115q15 -21 49 -21q56 0 100 63q73 106 78 289q1 60 5.5 68t12.5 8q7 0 11 -6q5 -8 5 -38q0 -178 -62.5 -299.5t-168.5 -121.5q-99 0 -164 93.5t-65 405.5v147q0 239 88 363q63 88 152 88q106 0 163.5 -113t57.5 -275v-164h-282zM310 560v426 q0 41 -16 62q-11 15 -33 15t-38.5 -19t-16.5 -58v-426h104z" />
<glyph unicode="f" horiz-adv-x="393" d="M72 1047h-50q-10 6 -10 11q0 7 10 15h50v160q0 145 54.5 214t121.5 69q49 0 87 -40.5t38 -99.5q0 -48 -24 -77t-53 -29t-49.5 22t-20.5 61q0 45 22 68.5t66 24.5q-10 20 -26 30t-37 10q-32 0 -58 -30.5t-26 -81.5q0 -61 40 -158.5t42 -142.5h117q10 -7 10 -12 q0 -7 -10 -14h-117v-1021l119 -2l2 -11q0 -7 -4 -13h-344l-5 3l-3 10q0 7 8 13h50v1021z" />
<glyph unicode="g" horiz-adv-x="618" d="M203 221q-61 57 -89 135q-39 110 -39 285q0 250 80 362q58 82 152 82q60 0 109 -42q23 47 51 70.5t61 23.5q35 0 56.5 -23.5t21.5 -66.5q0 -37 -15 -55.5t-34 -18.5q-21 0 -34 14.5t-13 42.5v11q1 9 1 15q0 17 -5.5 23t-15.5 6q-14 0 -28 -16t-27 -49q95 -121 95 -393 q0 -237 -81 -351q-60 -84 -145 -84q-13 0 -33 1q-12 1 -63 1q-61 0 -86.5 -18t-25.5 -35q0 -16 14 -26q20 -14 63 -14h159q117 0 170.5 -53t53.5 -163q0 -120 -71 -188.5t-198 -68.5q-128 0 -194 53.5t-66 122.5q0 43 21 80.5t62 69.5q-32 21 -48.5 50.5t-16.5 67.5 q0 66 35 101.5t123 47.5zM350 984q0 48 -12.5 64t-35.5 16q-22 0 -36 -17.5t-14 -62.5v-665q0 -59 18 -84q13 -18 35 -18q20 0 32.5 16t12.5 56v695zM130 -61q-27 -26 -40.5 -53t-13.5 -54q0 -52 57 -97.5t163 -45.5q108 0 176 53q51 42 51 98q0 42 -28 62q-38 26 -153 26 h-41q-100 0 -171 11z" />
<glyph unicode="h" horiz-adv-x="604" d="M249 1504v-513q41 55 73 74.5t75 19.5q67 0 95 -35q40 -47 40 -147v-877h36q10 -7 10 -13t-10 -13h-239q-7 6 -7 13t7 13h23v930q0 36 -9 50q-8 10 -22 10q-23 0 -43 -28q-29 -42 -29 -113v-849h27q10 -7 10 -13t-10 -13h-247l-5 3l-3 10q0 7 8 13h45v1453h-45 q-10 6 -10 12q0 7 10 13h220z" />
<glyph unicode="i" horiz-adv-x="328" d="M51 1411q0 43 31 74t73 31q45 0 76 -30.5t31 -74.5t-31 -75t-75 -31q-43 0 -74 31t-31 75zM66 1047h-39q-6 0 -9.5 3.5t-3.5 9.5t3.5 9.5t9.5 3.5h217v-1047h43q6 0 9.5 -3.5t3.5 -10.5q0 -5 -3.5 -8.5t-9.5 -3.5h-260q-10 7 -10 13q0 7 10 13h39v1021z" />
<glyph unicode="j" horiz-adv-x="342" d="M171 1516q44 0 74 -30.5t30 -73.5q0 -44 -31.5 -75.5t-75.5 -31.5t-75 31t-31 75t31 74.5t78 30.5zM85 1046h-52q-8 0 -12 4t-4 10q0 5 4 8q5 5 12 5h231v-1101q0 -184 -67 -277q-47 -67 -118 -67q-53 0 -88 37t-35 95q0 50 24 78.5t55 28.5q28 0 48 -21.5t20 -55.5 q0 -41 -22.5 -64.5t-58.5 -23.5q-7 0 -17 1q6 -25 22.5 -37t45.5 -12q43 0 68.5 29t25.5 88q0 48 -20 107q-29 84 -55 132q-7 12 -7 34v1002z" />
<glyph unicode="k" horiz-adv-x="649" d="M252 1504v-987l198 406q18 37 18 65q0 23 -12 38t-33 19l-38 3q-6 3 -6 11q0 6 3.5 10t9.5 4h222q6 0 9.5 -4t3.5 -10q0 -8 -4 -11l-30 -2q-17 -1 -31 -6q-24 -10 -42 -35q-11 -16 -48 -93l-101 -203l218 -683h34q6 0 10 -3.5t4 -9.5l-3 -9q-5 -4 -11 -4h-262 q-6 0 -9.5 3.5t-3.5 9.5t3.5 9.5t9.5 3.5h49l-158 491v-491h40q11 -7 11 -13t-11 -13h-258q-6 0 -9.5 3.5t-3.5 9.5t4 9.5t9 3.5h37v1453h-37q-5 0 -8.5 3.5t-3.5 8.5q0 6 3.5 9.5t8.5 3.5h218z" />
<glyph unicode="l" horiz-adv-x="350" d="M255 1504v-1478h39q5 0 8.5 -3.5t3.5 -9.5t-3.5 -9.5t-8.5 -3.5h-261q-5 0 -8.5 3.5t-3.5 9.5t3.5 9.5t8.5 3.5h42v1453h-42q-6 0 -10 3.5t-4 8.5q0 6 4 9q4 4 10 4h222z" />
<glyph unicode="m" horiz-adv-x="883" d="M245 26l24 -2q5 -3 5 -11q0 -6 -10 -13h-237q-10 7 -10 13t10 13h39v1021h-39q-10 6 -10 12q0 7 10 14h218v-80q36 54 66 73t79 19q55 0 83.5 -22.5t48.5 -84.5q32 63 62 85t82 22q71 0 104.5 -33.5t33.5 -95.5v-930h33q6 0 10 -3.5t4 -9.5l-3 -9q-5 -4 -11 -4h-232 q-10 7 -10 13t10 13h21v967q0 17 -8.5 27t-18.5 10q-22 0 -43 -33q-34 -53 -34 -148v-823h22l6 -3q3 -4 3 -10t-9 -13h-225q-8 6 -8 13t8 13h27v952q0 27 -9 38.5t-21 11.5q-20 0 -37 -25q-34 -52 -34 -114v-863z" />
<glyph unicode="n" horiz-adv-x="606" d="M71 1047h-43l-6 2q-3 4 -3 11q0 6 9 13h219v-82q35 53 69 73.5t82 20.5q64 0 91 -32q39 -46 39 -132v-895h33q6 0 9.5 -3.5t3.5 -9.5t-3.5 -9.5t-9.5 -3.5h-231q-5 0 -8.5 3.5t-3.5 9.5t3.5 9.5t8.5 3.5h20v936q0 31 -8 41.5t-22 10.5q-26 0 -45 -29q-28 -43 -28 -141 v-818h25q10 -7 10 -13t-10 -13h-244q-10 7 -10 13t10 13h43v1021z" />
<glyph unicode="o" horiz-adv-x="555" d="M47 463v196q0 235 79 345q58 81 148 81q113 0 173.5 -119t60.5 -315v-217q0 -255 -78 -366q-56 -80 -149 -80q-54 0 -98.5 28t-80.5 101t-45.5 194t-9.5 152zM329 956q0 56 -16.5 78.5t-38.5 22.5q-19 0 -34 -18.5t-15 -56.5v-840q0 -79 18 -107q14 -20 38 -20 q23 0 35.5 17.5t12.5 75.5v848z" />
<glyph unicode="p" horiz-adv-x="580" d="M66 1047h-39q-10 6 -10 13q0 6 10 13h205v-83q30 58 52.5 76.5t53.5 18.5q69 0 115 -78q76 -125 76 -447q0 -319 -51 -445.5t-140 -126.5q-28 0 -48.5 14.5t-44.5 54.5v-405h53q8 0 12 -3.5t4 -8.5l-3 -8q-5 -4 -13 -4h-271q-5 0 -8 3.5t-3 8.5q0 6 3 9t8 3h39v1395z M245 187q0 -84 25 -122q17 -25 39 -25q17 0 26 13q13 18 13 65v855q0 39 -11 54t-25 15q-22 0 -40 -27q-27 -39 -27 -117v-711z" />
<glyph unicode="q" horiz-adv-x="592" d="M332 -348v409q-39 -48 -59 -60.5t-45 -12.5q-66 0 -109 71q-67 111 -67 412q0 123 9 269t37 212t72.5 99.5t89.5 33.5q46 0 81.5 -38.5t53.5 -142.5q50 73 85 139q21 42 30 42q5 -5 5 -12v-1421h34q6 0 10 -3.5t4 -8.5l-3 -8q-5 -4 -11 -4h-267q-5 0 -8 3.5t-3 8.5 q0 6 3 9t8 3h50zM231 80q0 -21 11 -34q7 -9 20 -9q29 0 47 38q23 50 23 86v826q0 32 -18 55q-12 15 -32 15t-32 -18q-19 -26 -19 -83v-876z" />
<glyph unicode="r" horiz-adv-x="516" d="M72 1047h-42q-6 0 -9.5 3.5t-3.5 9.5t3.5 9.5t9.5 3.5h218v-132q34 90 63.5 117t62.5 27q45 0 81 -45q46 -58 46 -146q0 -75 -30.5 -113.5t-67.5 -38.5q-30 0 -50 26q-27 35 -27 100q0 64 38 123q19 30 19 41q0 9 -7 15.5t-17 6.5q-19 0 -36 -18q-29 -30 -52 -108.5 t-23 -178.5v-723h51q7 0 11 -4t4 -9l-3 -9q-6 -4 -12 -4h-269q-5 0 -8.5 3.5t-3.5 9.5t3.5 9.5t8.5 3.5h42v1021z" />
<glyph unicode="s" horiz-adv-x="469" d="M125 67q-19 -15 -46 -52q-20 -27 -30 -27q-4 0 -7 3t-3 9v469q0 7 3.5 10.5t8.5 3.5q6 0 9 -4t5 -32q13 -194 66 -324q38 -94 90 -94q26 0 47 25.5t21 73.5q0 55 -23.5 134.5t-99 246t-97 240.5t-21.5 130q0 92 50.5 149t117.5 57q60 0 116 -55q15 10 45 39q17 15 23 15 q4 0 7 -2q3 -4 3 -9v-422q0 -7 -4 -11t-9 -4q-6 0 -9 5t-5 30q-13 185 -56 300q-31 80 -81 80q-28 0 -47 -21t-19 -57q0 -91 119 -329q80 -158 109 -252t29 -166q0 -109 -56 -173.5t-130 -64.5q-38 0 -66.5 17.5t-59.5 61.5z" />
<glyph unicode="t" horiz-adv-x="459" d="M89 1047h-47q-9 0 -14 4t-5 10q0 7 9 15q84 65 122 129.5t67 150.5q21 62 22 86l2 46q3 5 9 5t9.5 -3t3.5 -8v-409h149q8 0 12.5 -4t4.5 -9q0 -6 -4 -9q-5 -4 -13 -4h-149v-931q0 -43 12 -59q8 -12 24 -12q34 0 60 39q39 58 39 178v146q0 14 6 22q4 5 10 5t10 -5 q6 -8 6 -22v-111q0 -169 -53.5 -239t-133.5 -70q-75 0 -110 41q-48 55 -48 156v862z" />
<glyph unicode="u" horiz-adv-x="604" d="M62 1047h-37q-9 6 -9 12q0 7 9 14h216v-1004q0 -12 6 -18t17 -6q22 0 44 32q35 50 35 122v848h-39q-5 0 -7.5 3t-2.5 10q0 6 2.5 9.5t7.5 3.5h219v-1047h34q5 0 8.5 -3.5t3.5 -9.5t-3.5 -9.5t-8.5 -3.5h-214v80q-32 -51 -65.5 -71.5t-79.5 -20.5q-67 0 -101.5 35.5 t-34.5 95.5v928z" />
<glyph unicode="v" horiz-adv-x="522" d="M42 1047h-29q-5 0 -9 3.5t-4 9.5t3 9q5 4 10 4h238q6 0 10 -4t4 -9q0 -6 -3 -9q-5 -4 -11 -4h-35l89 -777l105 668q2 11 2 25q0 61 -52 85q-13 6 -13 15q0 5 3 7q3 3 8 3h132q6 0 9 -2.5t3 -6.5q0 -9 -14 -15q-23 -11 -31 -25q-14 -23 -22 -78l-130 -862q-10 -68 -16 -76 t-26 -8h-79q-12 0 -18 9q-3 5 -12 75z" />
<glyph unicode="w" horiz-adv-x="858" d="M35 1047h-23l-6 3q-3 4 -3 10t9 13h249q9 -7 9 -13t-9 -13h-51l95 -743l89 524l-30 219h-25q-5 0 -7.5 3.5t-2.5 9.5t2.5 9.5t7.5 3.5h253q5 0 8 -3.5t3 -9.5t-3 -9.5t-8 -3.5h-54l98 -732l102 623q5 27 5 47q0 25 -11 38t-44 24q-7 2 -9.5 4.5t-2.5 7.5t12 14h141l5 -3 l2 -11q0 -5 -1 -7t-6 -4q-56 -20 -78 -165l-128 -822q-7 -46 -14 -55q-5 -6 -17 -6h-73q-7 0 -12.5 8t-11.5 50l-92 698l-98 -633q-15 -96 -27 -114q-5 -9 -17 -9h-74q-9 0 -15 9q-3 6 -16 114z" />
<glyph unicode="x" horiz-adv-x="520" d="M61 1047h-43l-5 2q-4 4 -4 10q0 7 9 14h257q5 0 8.5 -4t3.5 -10q0 -7 -6 -11l-42 -1l67 -319l78 260q2 5 2 10q0 19 -11.5 33t-25.5 16q-9 1 -12.5 4t-3.5 8q0 6 4 9q5 5 12 5h124q5 0 8.5 -3.5t3.5 -9.5t-2.5 -9t-9.5 -4q-49 -9 -72 -86l-84 -284l139 -651h29 q6 0 9.5 -3.5t3.5 -9.5t-3.5 -9.5t-9.5 -3.5h-263q-5 0 -8 3.5t-3 9.5t3 9.5t8 3.5h53l-81 377l-88 -303q-3 -9 -3 -16q0 -22 14.5 -39t30.5 -19q8 -1 11 -4t3 -8q0 -6 -4 -9q-5 -5 -11 -5h-129q-10 7 -10 13t2.5 9t7.5 4q22 4 34 19q18 24 41 101l92 306z" />
<glyph unicode="y" horiz-adv-x="520" d="M48 1047h-46q-10 6 -10 13q0 6 10 13h268q5 0 8.5 -4t3.5 -9q0 -6 -3.5 -9.5t-8.5 -3.5h-46l90 -768l86 604q5 33 5 61q0 55 -14.5 76t-42.5 25l-14 4q-3 4 -3 10q0 7 2.5 10.5t7.5 3.5h151q6 0 9.5 -4t3.5 -10q0 -5 -2.5 -8t-10.5 -4q-14 -4 -24 -21q-28 -47 -39 -119 l-149 -1052q-16 -114 -68 -170.5t-106 -56.5q-43 0 -76 37.5t-33 98.5q0 52 25.5 80.5t59.5 28.5q33 0 57.5 -26t24.5 -64q0 -59 -52 -92q-14 -9 -14 -18q0 -6 5.5 -10.5t16.5 -4.5q37 0 72 41q47 56 67 179l21 122h-108z" />
<glyph unicode="z" horiz-adv-x="532" d="M83 1073h416l-296 -1047h68q39 0 78 41q54 57 86.5 173t32.5 151v49q8 11 16 11q7 0 15 -11v-440h-483l297 1047h-42q-33 0 -66.5 -36.5t-64.5 -140.5q-20 -68 -30 -144l-3 -63q-3 -7 -11 -7q-5 0 -9 3.5t-4 10.5v403z" />
<glyph unicode="{" horiz-adv-x="533" d="M529 17v-29q-155 28 -227 88q-118 99 -118 239q0 40 24 140q18 73 18 110q0 55 -45 100.5t-165 69.5v34q118 24 164 69t46 98q0 22 -24 136q-18 88 -18 126q0 75 44.5 146.5t118 112.5t182.5 59v-28q-125 -36 -166.5 -81.5t-41.5 -102.5q0 -44 26 -163q16 -74 16 -107 q0 -53 -32.5 -111t-95.5 -102q-44 -31 -143 -67q88 -33 129 -60q67 -45 104.5 -105.5t37.5 -118.5q0 -47 -27 -165q-15 -67 -15 -95q0 -66 41 -111.5t167 -81.5z" />
<glyph unicode="|" horiz-adv-x="576" d="M240 1504h97v-1703h-97v1703z" />
<glyph unicode="}" horiz-adv-x="533" d="M4 1488v29q156 -29 228 -89q117 -99 117 -238q0 -41 -24 -141q-17 -73 -17 -109q0 -56 44.5 -101t164.5 -70v-33q-118 -24 -164 -69.5t-46 -97.5q0 -23 24 -137q19 -87 19 -126q0 -74 -44.5 -146t-118.5 -113t-183 -59v29q125 36 166.5 81t41.5 102q0 44 -26 163 q-16 74 -16 107q0 53 32.5 111.5t95.5 102.5q45 31 144 67q-89 32 -130 60q-67 45 -104.5 105.5t-37.5 117.5q0 47 27 166q15 66 15 95q0 66 -41 111t-167 82z" />
<glyph unicode="~" horiz-adv-x="960" d="M822 571h36q-2 -101 -54 -157t-127 -56q-36 0 -74.5 11t-187.5 73q-105 43 -150 43q-49 0 -81.5 -29.5t-44.5 -96.5h-37q6 108 55.5 160.5t119.5 52.5t267 -84q105 -46 151 -46q51 0 85.5 33t41.5 96z" />
<glyph unicode="&#xa1;" horiz-adv-x="319" d="M152 1163q40 0 65.5 -29.5t25.5 -88.5q0 -56 -26 -86.5t-63 -30.5q-38 0 -65.5 31.5t-27.5 86.5q0 56 26.5 86.5t64.5 30.5zM52 -29l85 784q1 13 6 19l8 4l8 -4q5 -6 6 -19l88 -784q18 -164 18 -203q0 -63 -33.5 -101.5t-81.5 -38.5q-51 0 -86 38.5t-35 111.5 q0 37 17 193z" />
<glyph unicode="&#xa2;" horiz-adv-x="512" d="M372 1304h23l-29 -291l6 -12l83 84h7v-415q0 -26 -4 -34q-3 -4 -8 -4t-8.5 4.5t-4.5 19.5q-2 68 -22 157t-53 162l-103 -958q69 9 113 70.5t59 205.5l8 178q2 12 10 12q5 0 8 -5q4 -7 4 -32q0 -187 -29 -280t-78 -135q-35 -30 -98 -41l-25 -212h-23l23 212 q-93 20 -137 97q-59 102 -59 384v121q0 284 82 409q55 84 135 84q49 0 92 -42zM341 1013q-40 49 -78 49q-23 0 -37.5 -13.5t-14.5 -35.5v-941q0 -24 24 -45z" />
<glyph unicode="&#xa3;" horiz-adv-x="725" d="M202 780l-8 39q-44 216 -44 339q0 176 77 267t188 91q103 0 169.5 -67t66.5 -172q0 -81 -34.5 -124.5t-74.5 -43.5q-32 0 -53.5 25.5t-21.5 76.5q0 56 24 83.5t59 27.5q19 0 42 -11l18 -6q4 3 4 9q0 76 -53 128.5t-138 52.5q-62 0 -98 -40.5t-36 -125.5q0 -53 10.5 -115 t46 -193.5t61.5 -240.5h198v-55h-198q13 -83 13 -156q0 -135 -56 -337l162 -39q42 -8 60 -8q34 0 55 26q21 25 22 88q0 23 4 29q2 4 8 4q5 0 8 -4q5 -7 5 -17v-63q0 -132 -51.5 -196t-120.5 -64q-40 0 -78 20t-123 98q-75 -118 -172 -118q-47 0 -71.5 21.5t-24.5 54.5 q0 71 89 128q64 40 169 40q-6 64 -15 114l-74 379h-181v55h167zM286 129q-59 41 -101 41q-46 0 -80.5 -31t-34.5 -68q0 -25 18.5 -42t52.5 -17q44 0 82.5 28.5t62.5 88.5z" />
<glyph unicode="&#xa5;" horiz-adv-x="641" d="M210 770h-193v25h188l-153 683h-40q-5 0 -8 3.5t-3 9.5q0 7 3 10t8 3h325q11 -7 11 -12q0 -7 -11 -14h-80l155 -683l116 532q7 30 7 56q0 38 -12 61.5t-33 31.5l-33 4q-6 3 -6 11q0 7 11 13h162q11 0 15 -2l3 -5q0 -7 -12 -15q-50 -29 -69 -115l-128 -572h202v-25h-207 l-5 -24v-348h212v-24h-212v-348h79q5 0 8.5 -3.5t3.5 -9.5t-3.5 -9.5t-8.5 -3.5h-369q-5 0 -8 3.5t-3 9.5t3 9.5t8 3.5h83v348h-199v24h199v348z" />
<glyph unicode="&#xa7;" horiz-adv-x="576" d="M458 487q62 -89 62 -215q0 -132 -69.5 -209.5t-172.5 -77.5q-91 0 -152 65.5t-61 173.5q0 70 30.5 108t68.5 38q34 0 59 -29.5t25 -80.5q0 -65 -28 -104q-19 -26 -44 -26q-12 0 -23 3l-9 2q-9 0 -14 -5q-4 -4 -4 -11q0 -35 41 -69.5t103 -34.5t104 43t42 110 q0 63 -37 131.5t-154 185t-153 184t-36 135.5q0 46 16.5 91t65.5 119q-59 104 -59 209q0 138 68.5 215.5t167.5 77.5q92 0 154 -65t62 -173q0 -73 -33 -116q-25 -31 -65 -31q-35 0 -59 28t-24 82q0 69 27 106q18 26 45 26q11 0 19 -4q5 -2 11 -2q9 0 12 4q5 6 5 16 q0 32 -45 67.5t-114 35.5q-53 0 -91 -40.5t-38 -104.5q0 -67 36.5 -136.5t153 -189t153 -187.5t36.5 -131q0 -86 -82 -214zM134 990q-23 -39 -23 -79q0 -30 17 -58t103 -117l160 -162q27 -30 53 -66q22 47 22 78q0 32 -26 72t-144 157q-77 76 -162 175z" />
<glyph unicode="&#xa8;" horiz-adv-x="682" d="M229 1443q29 0 47 -25q23 -33 23 -113q0 -78 -23 -109q-16 -23 -48 -23t-50 24q-23 32 -23 108q0 78 25 112q18 26 49 26zM441 1443q30 0 47 -24q22 -31 22 -106q0 -84 -23 -118q-18 -25 -49 -25q-29 0 -47 24q-23 34 -23 112q0 77 25 112q18 25 48 25z" />
<glyph unicode="&#xa9;" horiz-adv-x="1217" d="M608 1391q129 0 251.5 -66.5t191.5 -189.5t69 -256q0 -132 -68 -254t-189.5 -189.5t-254.5 -67.5q-132 0 -254 67.5t-189.5 189.5t-67.5 254q0 133 68.5 256t191.5 189.5t251 66.5zM608 1346q-117 0 -229 -60t-175 -172.5t-63 -234.5q0 -193 137 -330t330 -137 q194 0 330.5 137t136.5 330q0 122 -62.5 234.5t-174.5 172.5t-230 60zM875 1193v-204h-34q-16 77 -66 118t-119 41q-80 0 -136 -66t-56 -197q0 -133 53.5 -197t134.5 -64q45 0 88 18.5t77 51.5q15 14 46 61v-77q-95 -99 -240 -99q-152 0 -244.5 86.5t-92.5 210.5 q0 129 97 223.5t234 94.5q67 0 142 -29q32 -13 47 -13q12 0 21 9t13 26q1 3 1 6h34z" />
<glyph unicode="&#xab;" horiz-adv-x="575" d="M271 1111h25l-92 -547l92 -549h-25l-248 549zM509 1111h25l-92 -547l92 -549h-25l-248 549z" />
<glyph unicode="&#xac;" horiz-adv-x="960" d="M99 962h761v-414h-92v322h-669v92z" />
<glyph unicode="&#xae;" horiz-adv-x="1217" d="M608 1391q129 0 251.5 -66.5t191.5 -189.5t69 -256q0 -132 -68 -254t-189.5 -189.5t-254.5 -67.5q-132 0 -254 67.5t-189.5 189.5t-67.5 254q0 133 68.5 256t191.5 189.5t251 66.5zM608 1346q-117 0 -229 -60t-175 -172.5t-63 -234.5q0 -193 137 -330t330 -137 q194 0 330.5 137t136.5 330q0 122 -62.5 234.5t-174.5 172.5t-230 60zM558 859v-168q0 -43 13.5 -58t44.5 -15h33v-24h-339v24h29q31 0 44.5 15t13.5 58v395q0 43 -13.5 58t-44.5 15h-29v25h313q131 0 189.5 -48.5t58.5 -119.5q0 -45 -34.5 -86t-99.5 -58l119 -182 q29 -44 52 -62q12 -9 34 -10v-24h-197l-173 265h-14zM558 1143v-245q88 0 114 25q36 34 36 98q0 61 -31 91.5t-99 30.5h-20z" />
<glyph unicode="&#xaf;" horiz-adv-x="682" d="M3 1328h478v-128h-478v128z" />
<glyph unicode="&#xb0;" horiz-adv-x="811" d="M406 1516q115 0 195.5 -80.5t80.5 -195.5t-81 -196t-195 -81q-115 0 -196 81t-81 196t80.5 195.5t196.5 80.5zM405 1441q-83 0 -141.5 -58.5t-58.5 -141.5q0 -84 58.5 -142.5t141.5 -58.5t142 58.5t59 142.5q0 83 -58.5 141.5t-142.5 58.5z" />
<glyph unicode="&#xb1;" horiz-adv-x="960" d="M99 920h335v334h92v-334h334v-93h-334v-334h-92v334h-335v93zM99 384h761v-92h-761v92z" />
<glyph unicode="&#xb4;" horiz-adv-x="682" d="M279 1472h199l-182 -323q-7 -13 -17 -13l-8 3q-4 6 -4 14z" />
<glyph unicode="&#xb5;" horiz-adv-x="1024" d="M162 1073h140v-755q0 -129 34.5 -176t85.5 -47q100 0 203 134v844h141v-842q0 -85 20 -115q13 -20 37 -20q23 0 38 19q22 28 33 104h36q-12 -130 -56.5 -180.5t-110.5 -50.5q-58 0 -92.5 39t-45.5 151q-81 -111 -141.5 -150.5t-130.5 -39.5q-41 0 -69 18t-59 67 q-2 -39 -2 -57q0 -66 32 -215q9 -40 9 -65q0 -49 -28 -83q-21 -25 -53 -25q-30 0 -48 23q-26 33 -26 84q0 33 25 127q17 64 19 88q9 89 9 207v916z" />
<glyph unicode="&#xb6;" horiz-adv-x="917" d="M798 1449v-1742h-72v1742h-187v-1742h-73v1043q-191 8 -285.5 50t-144.5 131t-50 198q0 110 43 180q58 97 154.5 146t252.5 49h495v-55h-133z" />
<glyph unicode="&#xb7;" horiz-adv-x="276" d="M42 751q0 58 25.5 88t61.5 30q39 0 65.5 -30.5t26.5 -87.5q0 -56 -26 -86.5t-64 -30.5q-39 0 -64 29t-25 88z" />
<glyph unicode="&#xbb;" horiz-adv-x="575" d="M23 1109h23l249 -546l-249 -551h-23l96 551zM262 1109h23l249 -546l-249 -551h-23l96 551z" />
<glyph unicode="&#xbf;" horiz-adv-x="532" d="M280 1157q37 0 64.5 -31.5t27.5 -88.5q0 -56 -26 -85.5t-66 -29.5q-38 0 -63.5 29.5t-25.5 86.5t26 88t63 31zM211 95v-333q0 -58 21 -83t53 -25q55 0 104 63q66 84 66 206q0 25 -5 33q-4 6 -10 6t-20 -13q-26 -23 -49 -23q-31 0 -62.5 39.5t-31.5 102.5q0 61 28.5 95 t64.5 34q43 0 74 -43q43 -59 43 -177q0 -170 -71.5 -259.5t-161.5 -89.5q-99 0 -163 76.5t-64 252.5q0 111 28.5 175.5t138.5 187.5q153 172 153 293q0 61 -32.5 96.5t-82.5 35.5q-41 0 -71 -33.5t-30 -89.5q0 -48 26 -98q12 -22 12 -29l-8 -6q-10 0 -24 23q-29 48 -29 108 q0 69 38 110t91 41q54 0 93.5 -44t39.5 -117q0 -37 -12 -77t-63 -143.5t-67.5 -164.5t-16.5 -130z" />
<glyph unicode="&#xc0;" horiz-adv-x="627" d="M263 1483h111l178 -1457h45q11 -7 11 -13t-11 -13h-301q-5 0 -8 3.5t-3 9.5t3 9.5t8 3.5h48l-26 284h-181l-22 -161q-1 -13 -1 -27q0 -44 16.5 -66.5t45.5 -27.5l16 -5q4 -4 4 -10t-3.5 -9.5t-8.5 -3.5h-171q-5 0 -8.5 3.5t-3.5 9.5t3 10l12 4q29 4 45 26q24 35 34 116z M238 1110l-98 -774h175zM390 1908l10 -320q1 -9 -3 -14t-10 -5q-13 0 -20 14l-178 325h201z" />
<glyph unicode="&#xc2;" horiz-adv-x="627" d="M263 1483h111l178 -1457h45q11 -7 11 -13t-11 -13h-301q-5 0 -8 3.5t-3 9.5t3 9.5t8 3.5h48l-26 284h-181l-22 -161q-1 -13 -1 -27q0 -44 16.5 -66.5t45.5 -27.5l16 -5q4 -4 4 -10t-3.5 -9.5t-8.5 -3.5h-171q-5 0 -8.5 3.5t-3.5 9.5t3 10l12 4q29 4 45 26q24 35 34 116z M238 1110l-98 -774h175zM279 1901h103l107 -337h-136l-74 239l-75 -228q-1 -4 -4 -6t-6 -2q-5 0 -8.5 3t-3.5 7q0 2 1 4z" />
<glyph unicode="&#xc3;" horiz-adv-x="627" d="M263 1483h111l178 -1457h45q11 -7 11 -13t-11 -13h-301q-5 0 -8 3.5t-3 9.5t3 9.5t8 3.5h48l-26 284h-181l-22 -161q-1 -13 -1 -27q0 -44 16.5 -66.5t45.5 -27.5l16 -5q4 -4 4 -10t-3.5 -9.5t-8.5 -3.5h-171q-5 0 -8.5 3.5t-3.5 9.5t3 10l12 4q29 4 45 26q24 35 34 116z M238 1110l-98 -774h175zM441 1736q19 0 33 17.5t19 80.5q2 25 5 29.5t8 4.5t7 -4q5 -9 5 -37q0 -133 -39 -187q-27 -39 -79 -39q-38 0 -61.5 16.5t-49 62.5t-36 55t-26.5 9q-20 0 -31 -14q-15 -20 -21 -77q-3 -31 -6 -36.5t-8 -5.5q-6 0 -9 6q-5 9 -5 36q0 132 40 186 q29 41 83 41q46 0 77 -36q8 -8 45 -70q23 -38 49 -38z" />
<glyph unicode="&#xc4;" horiz-adv-x="627" d="M263 1483h111l178 -1457h45q11 -7 11 -13t-11 -13h-301q-5 0 -8 3.5t-3 9.5t3 9.5t8 3.5h48l-26 284h-181l-22 -161q-1 -13 -1 -27q0 -44 16.5 -66.5t45.5 -27.5l16 -5q4 -4 4 -10t-3.5 -9.5t-8.5 -3.5h-171q-5 0 -8.5 3.5t-3.5 9.5t3 10l12 4q29 4 45 26q24 35 34 116z M238 1110l-98 -774h175zM215 1876q29 0 47 -25q23 -33 23 -113q0 -78 -23 -109q-16 -23 -48 -23t-50 24q-23 32 -23 108q0 78 25 112q18 26 49 26zM427 1876q30 0 47 -24q22 -31 22 -106q0 -84 -23 -118q-18 -25 -49 -25q-29 0 -47 24q-23 34 -23 112q0 77 25 112 q18 25 48 25z" />
<glyph unicode="&#xc5;" horiz-adv-x="627" d="M263 1483h111l178 -1457h45q11 -7 11 -13t-11 -13h-301q-5 0 -8 3.5t-3 9.5t3 9.5t8 3.5h48l-26 284h-181l-22 -161q-1 -13 -1 -27q0 -44 16.5 -66.5t45.5 -27.5l16 -5q4 -4 4 -10t-3.5 -9.5t-8.5 -3.5h-171q-5 0 -8.5 3.5t-3.5 9.5t3 10l12 4q29 4 45 26q24 35 34 116z M238 1110l-98 -774h175zM323 1866q53 0 89.5 -36.5t36.5 -88.5q0 -53 -36.5 -89.5t-88.5 -36.5q-53 0 -89.5 37t-36.5 88q0 52 37 89t88 37zM323 1822q-35 0 -59 -24.5t-24 -58.5q0 -35 24 -59.5t59 -24.5t59 24.5t24 59.5q0 34 -24 58.5t-59 24.5z" />
<glyph unicode="&#xc6;" horiz-adv-x="901" d="M355 1479h-58q-5 0 -8.5 3.5t-3.5 8.5q0 7 3.5 10t8.5 3h562v-571q-5 -6 -10 -6t-11 6v50q0 95 -47 276q-27 100 -50 144t-49.5 60t-47.5 16h-83v-710q38 0 60 18q34 27 57.5 101.5t23.5 170.5v78q0 5 3.5 8.5t8.5 3.5q6 0 9 -3.5t3 -8.5v-754l-2 -4q-4 -2 -10 -2 q-7 0 -12 6v77q0 100 -24.5 172t-60.5 98q-21 15 -56 15v-719h29q55 0 108 55t92 202t45 270l4 62q3 5 9 5l7 -3q4 -4 4 -10v-607h-571q-9 7 -9 13q0 7 9 13h67v281h-191l-32 -140q-6 -25 -6 -52q0 -39 19 -64t33 -25h20q8 -7 8 -14q0 -6 -8 -12h-177l-7 5q0 9 20 20 q49 26 67 119zM164 333h191v1009z" />
<glyph unicode="&#xca;" horiz-adv-x="623" d="M84 1479h-64q-10 7 -10 12q0 7 10 13h568v-557q-6 -10 -12 -10t-8.5 3.5t-3.5 28.5q-7 166 -52 309t-87 181q-22 20 -74 20h-62v-704q57 6 93 60q48 73 48 224v78q0 5 3.5 8.5t8.5 3.5t8 -3.5t3 -8.5v-743q0 -5 -3 -8.5t-8 -3.5t-8.5 3.5t-3.5 8.5v72q0 148 -54 235 q-32 50 -67 50q-9 0 -14 -6q-6 -7 -6 -22v-697h32q41 0 81 30.5t75 106t54 164.5q31 144 31 225v66q7 11 13 11t9.5 -3t3.5 -8v-618h-568q-7 0 -11 4t-4 9q0 6 4 9.5t11 3.5h64v1453zM259 1901h103l107 -337h-136l-74 239l-75 -228q-1 -4 -4 -6t-6 -2q-5 0 -8.5 3t-3.5 7 q0 2 1 4z" />
<glyph unicode="&#xcb;" horiz-adv-x="623" d="M84 1479h-64q-10 7 -10 12q0 7 10 13h568v-557q-6 -10 -12 -10t-8.5 3.5t-3.5 28.5q-7 166 -52 309t-87 181q-22 20 -74 20h-62v-704q57 6 93 60q48 73 48 224v78q0 5 3.5 8.5t8.5 3.5t8 -3.5t3 -8.5v-743q0 -5 -3 -8.5t-8 -3.5t-8.5 3.5t-3.5 8.5v72q0 148 -54 235 q-32 50 -67 50q-9 0 -14 -6q-6 -7 -6 -22v-697h32q41 0 81 30.5t75 106t54 164.5q31 144 31 225v66q7 11 13 11t9.5 -3t3.5 -8v-618h-568q-7 0 -11 4t-4 9q0 6 4 9.5t11 3.5h64v1453zM200 1876q29 0 47 -25q23 -33 23 -113q0 -78 -23 -109q-16 -23 -48 -23t-50 24 q-23 32 -23 108q0 78 25 112q18 26 49 26zM412 1876q30 0 47 -24q22 -31 22 -106q0 -84 -23 -118q-18 -25 -49 -25q-29 0 -47 24q-23 34 -23 112q0 77 25 112q18 25 48 25z" />
<glyph unicode="&#xcd;" horiz-adv-x="393" d="M80 1479h-60q-5 0 -8 3.5t-3 8.5q0 6 3 9.5t8 3.5h325q5 0 8.5 -3.5t3.5 -8.5q0 -6 -3.5 -9.5t-8.5 -3.5h-60v-1453h60q10 -7 10 -13q0 -7 -10 -13h-333q-11 7 -11 13t11 13h68v1453zM115 1905h199l-182 -323q-7 -13 -17 -13l-8 3q-4 6 -4 14z" />
<glyph unicode="&#xce;" horiz-adv-x="393" d="M80 1479h-60q-5 0 -8 3.5t-3 8.5q0 6 3 9.5t8 3.5h325q5 0 8.5 -3.5t3.5 -8.5q0 -6 -3.5 -9.5t-8.5 -3.5h-60v-1453h60q10 -7 10 -13q0 -7 -10 -13h-333q-11 7 -11 13t11 13h68v1453zM124 1901h103l107 -337h-136l-74 239l-75 -228q-1 -4 -4 -6t-6 -2q-5 0 -8.5 3t-3.5 7 q0 2 1 4z" />
<glyph unicode="&#xd1;" horiz-adv-x="633" d="M503 1382q0 46 -12 66t-37 28l-43 4q-5 2 -5 11q0 8 2.5 11t12.5 3h177q4 0 6.5 -3.5t2.5 -8.5t-2.5 -7.5t-17.5 -8.5q-31 -12 -43 -31.5t-15 -72.5v-1373h-155l-249 1370v-1241q0 -51 11 -71.5t36 -28.5l45 -4q5 -3 5 -12q0 -8 -2.5 -10.5t-12.5 -2.5h-177q-4 0 -6.5 3 t-2.5 8t2.5 7.5t17.5 8.5q31 12 42.5 31t14.5 74v1347h-56q-5 0 -8.5 3.5t-3.5 9.5q0 5 3.5 8.5t8.5 3.5h259l202 -1099v977zM422 1736q19 0 33 17.5t19 80.5q2 25 5 29.5t8 4.5t7 -4q5 -9 5 -37q0 -133 -39 -187q-27 -39 -79 -39q-38 0 -61.5 16.5t-49 62.5t-36 55t-26.5 9 q-20 0 -31 -14q-15 -20 -21 -77q-3 -31 -6 -36.5t-8 -5.5q-6 0 -9 6q-5 9 -5 36q0 132 40 186q29 41 83 41q46 0 77 -36q8 -8 45 -70q23 -38 49 -38z" />
<glyph unicode="&#xd2;" horiz-adv-x="641" d="M598 922v-369q0 -319 -101 -466q-70 -102 -175 -102q-71 0 -131 51t-94 150q-55 159 -55 353v432q0 302 101 448q70 101 173 101q50 0 92 -22.5t75 -66t59.5 -115t37.5 -148.5q18 -131 18 -246zM253 149q0 -78 24 -113q18 -25 44 -25q25 0 44 22.5t19 64.5v1282 q0 54 -25 86q-17 23 -43 23q-23 0 -40 -22q-23 -30 -23 -87v-1231zM361 1908l10 -320q1 -9 -3 -14t-10 -5q-13 0 -20 14l-178 325h201z" />
<glyph unicode="&#xd3;" horiz-adv-x="641" d="M598 922v-369q0 -319 -101 -466q-70 -102 -175 -102q-71 0 -131 51t-94 150q-55 159 -55 353v432q0 302 101 448q70 101 173 101q50 0 92 -22.5t75 -66t59.5 -115t37.5 -148.5q18 -131 18 -246zM253 149q0 -78 24 -113q18 -25 44 -25q25 0 44 22.5t19 64.5v1282 q0 54 -25 86q-17 23 -43 23q-23 0 -40 -22q-23 -30 -23 -87v-1231zM260 1905h199l-182 -323q-7 -13 -17 -13l-8 3q-4 6 -4 14z" />
<glyph unicode="&#xd4;" horiz-adv-x="641" d="M598 922v-369q0 -319 -101 -466q-70 -102 -175 -102q-71 0 -131 51t-94 150q-55 159 -55 353v432q0 302 101 448q70 101 173 101q50 0 92 -22.5t75 -66t59.5 -115t37.5 -148.5q18 -131 18 -246zM253 149q0 -78 24 -113q18 -25 44 -25q25 0 44 22.5t19 64.5v1282 q0 54 -25 86q-17 23 -43 23q-23 0 -40 -22q-23 -30 -23 -87v-1231zM259 1901h103l107 -337h-136l-74 239l-75 -228q-1 -4 -4 -6t-6 -2q-5 0 -8.5 3t-3.5 7q0 2 1 4z" />
<glyph unicode="&#xd5;" horiz-adv-x="641" d="M598 922v-369q0 -319 -101 -466q-70 -102 -175 -102q-71 0 -131 51t-94 150q-55 159 -55 353v432q0 302 101 448q70 101 173 101q50 0 92 -22.5t75 -66t59.5 -115t37.5 -148.5q18 -131 18 -246zM253 149q0 -78 24 -113q18 -25 44 -25q25 0 44 22.5t19 64.5v1282 q0 54 -25 86q-17 23 -43 23q-23 0 -40 -22q-23 -30 -23 -87v-1231zM412 1736q19 0 33 17.5t19 80.5q2 25 5 29.5t8 4.5t7 -4q5 -9 5 -37q0 -133 -39 -187q-27 -39 -79 -39q-38 0 -61.5 16.5t-49 62.5t-36 55t-26.5 9q-20 0 -31 -14q-15 -20 -21 -77q-3 -31 -6 -36.5t-8 -5.5 q-6 0 -9 6q-5 9 -5 36q0 132 40 186q29 41 83 41q46 0 77 -36q8 -8 45 -70q23 -38 49 -38z" />
<glyph unicode="&#xd6;" horiz-adv-x="641" d="M598 922v-369q0 -319 -101 -466q-70 -102 -175 -102q-71 0 -131 51t-94 150q-55 159 -55 353v432q0 302 101 448q70 101 173 101q50 0 92 -22.5t75 -66t59.5 -115t37.5 -148.5q18 -131 18 -246zM253 149q0 -78 24 -113q18 -25 44 -25q25 0 44 22.5t19 64.5v1282 q0 54 -25 86q-17 23 -43 23q-23 0 -40 -22q-23 -30 -23 -87v-1231zM200 1876q29 0 47 -25q23 -33 23 -113q0 -78 -23 -109q-16 -23 -48 -23t-50 24q-23 32 -23 108q0 78 25 112q18 26 49 26zM412 1876q30 0 47 -24q22 -31 22 -106q0 -84 -23 -118q-18 -25 -49 -25 q-29 0 -47 24q-23 34 -23 112q0 77 25 112q18 25 48 25z" />
<glyph unicode="&#xd8;" horiz-adv-x="641" d="M530 1349q27 -69 41 -135q9 -40 16 -133q11 -124 11 -159v-369q0 -319 -101 -466q-70 -102 -175 -102q-119 0 -201 145l-50 -147l-25 8l59 173q-63 150 -63 375v432q0 302 101 448q70 101 173 101q62 0 112.5 -35.5t88.5 -107.5l46 135h21zM253 602l131 382v396 q0 54 -25 86q-17 23 -43 23q-23 0 -40 -22q-23 -30 -23 -87v-778zM384 914l-131 -388v-377q0 -78 24 -113q18 -25 44 -25q25 0 44 22.5t19 64.5v816z" />
<glyph unicode="&#xd9;" horiz-adv-x="678" d="M93 1478h-59q-11 8 -11 13q0 6 11 13h321q5 0 8 -3.5t3 -8.5q0 -7 -3 -10.5t-8 -3.5h-56v-1376q0 -42 23 -65t62 -23q71 0 117.5 56.5t46.5 178.5v1101q0 75 -12.5 95.5t-47.5 28.5q-18 4 -23.5 9.5t-5.5 11.5l2 7l8 2h158q6 0 15 -11q0 -5 -4.5 -9t-15.5 -6 q-20 -3 -31 -23q-19 -32 -19 -105v-1129q0 -116 -59.5 -176t-171.5 -60q-141 0 -204 72q-44 51 -44 192v1229zM390 1908l10 -320q1 -9 -3 -14t-10 -5q-13 0 -20 14l-178 325h201z" />
<glyph unicode="&#xda;" horiz-adv-x="678" d="M93 1478h-59q-11 8 -11 13q0 6 11 13h321q5 0 8 -3.5t3 -8.5q0 -7 -3 -10.5t-8 -3.5h-56v-1376q0 -42 23 -65t62 -23q71 0 117.5 56.5t46.5 178.5v1101q0 75 -12.5 95.5t-47.5 28.5q-18 4 -23.5 9.5t-5.5 11.5l2 7l8 2h158q6 0 15 -11q0 -5 -4.5 -9t-15.5 -6 q-20 -3 -31 -23q-19 -32 -19 -105v-1129q0 -116 -59.5 -176t-171.5 -60q-141 0 -204 72q-44 51 -44 192v1229zM309 1905h199l-182 -323q-7 -13 -17 -13l-8 3q-4 6 -4 14z" />
<glyph unicode="&#xdb;" horiz-adv-x="678" d="M93 1478h-59q-11 8 -11 13q0 6 11 13h321q5 0 8 -3.5t3 -8.5q0 -7 -3 -10.5t-8 -3.5h-56v-1376q0 -42 23 -65t62 -23q71 0 117.5 56.5t46.5 178.5v1101q0 75 -12.5 95.5t-47.5 28.5q-18 4 -23.5 9.5t-5.5 11.5l2 7l8 2h158q6 0 15 -11q0 -5 -4.5 -9t-15.5 -6 q-20 -3 -31 -23q-19 -32 -19 -105v-1129q0 -116 -59.5 -176t-171.5 -60q-141 0 -204 72q-44 51 -44 192v1229zM288 1901h103l107 -337h-136l-74 239l-75 -228q-1 -4 -4 -6t-6 -2q-5 0 -8.5 3t-3.5 7q0 2 1 4z" />
<glyph unicode="&#xdc;" horiz-adv-x="678" d="M93 1478h-59q-11 8 -11 13q0 6 11 13h321q5 0 8 -3.5t3 -8.5q0 -7 -3 -10.5t-8 -3.5h-56v-1376q0 -42 23 -65t62 -23q71 0 117.5 56.5t46.5 178.5v1101q0 75 -12.5 95.5t-47.5 28.5q-18 4 -23.5 9.5t-5.5 11.5l2 7l8 2h158q6 0 15 -11q0 -5 -4.5 -9t-15.5 -6 q-20 -3 -31 -23q-19 -32 -19 -105v-1129q0 -116 -59.5 -176t-171.5 -60q-141 0 -204 72q-44 51 -44 192v1229zM229 1876q29 0 47 -25q23 -33 23 -113q0 -78 -23 -109q-16 -23 -48 -23t-50 24q-23 32 -23 108q0 78 25 112q18 26 49 26zM441 1876q30 0 47 -24q22 -31 22 -106 q0 -84 -23 -118q-18 -25 -49 -25q-29 0 -47 24q-23 34 -23 112q0 77 25 112q18 25 48 25z" />
<glyph unicode="&#xdf;" horiz-adv-x="580" d="M81 28v1224q0 126 64.5 195t166.5 69q99 0 161 -65.5t62 -181.5q0 -112 -48.5 -179.5t-164.5 -108.5q118 -33 161 -99q57 -90 57 -289v-213q0 -217 -71 -322q-48 -70 -118 -70q-20 0 -28 6q-6 4 -6 11t3.5 10t12.5 4q13 1 20 8q6 7 6 27v841q0 36 -20.5 55t-60.5 19 q-9 0 -21 -1v-968h-206q-6 0 -9.5 4t-3.5 10t3.5 10t9.5 4h30zM257 991q49 0 72 16q30 22 30 66v341q0 39 -15.5 58t-37.5 19q-20 0 -34.5 -15t-14.5 -36v-449z" />
<glyph unicode="&#xe0;" horiz-adv-x="575" d="M89 967q14 5 27 7.5t24 2.5q40 0 67.5 -29t27.5 -76q0 -48 -28 -77t-75 -29t-74 29.5t-27 87.5q0 86 65 144t185 58q108 0 155.5 -40.5t47.5 -103.5v-864q0 -15 8 -24.5t17 -9.5q25 0 51 53q7 16 14 16l12 -11q0 -35 -45 -74t-108 -39q-54 0 -83.5 25t-44.5 88 q-46 -68 -80.5 -90.5t-81.5 -22.5q-57 0 -87.5 29.5t-30.5 77.5v377q0 61 26.5 90t156.5 72q58 20 97 40v288q0 45 -23.5 70t-61.5 25q-88 0 -131 -90zM305 643q-64 -25 -82.5 -50t-18.5 -80v-423q0 -21 7.5 -31t18.5 -10q16 0 36 34q39 63 39 152v408zM331 1475l10 -320 q1 -9 -3 -14t-10 -5q-13 0 -20 14l-178 325h201z" />
<glyph unicode="&#xe1;" horiz-adv-x="575" d="M89 967q14 5 27 7.5t24 2.5q40 0 67.5 -29t27.5 -76q0 -48 -28 -77t-75 -29t-74 29.5t-27 87.5q0 86 65 144t185 58q108 0 155.5 -40.5t47.5 -103.5v-864q0 -15 8 -24.5t17 -9.5q25 0 51 53q7 16 14 16l12 -11q0 -35 -45 -74t-108 -39q-54 0 -83.5 25t-44.5 88 q-46 -68 -80.5 -90.5t-81.5 -22.5q-57 0 -87.5 29.5t-30.5 77.5v377q0 61 26.5 90t156.5 72q58 20 97 40v288q0 45 -23.5 70t-61.5 25q-88 0 -131 -90zM305 643q-64 -25 -82.5 -50t-18.5 -80v-423q0 -21 7.5 -31t18.5 -10q16 0 36 34q39 63 39 152v408zM220 1472h199 l-182 -323q-7 -13 -17 -13l-8 3q-4 6 -4 14z" />
<glyph unicode="&#xe2;" horiz-adv-x="575" d="M89 967q14 5 27 7.5t24 2.5q40 0 67.5 -29t27.5 -76q0 -48 -28 -77t-75 -29t-74 29.5t-27 87.5q0 86 65 144t185 58q108 0 155.5 -40.5t47.5 -103.5v-864q0 -15 8 -24.5t17 -9.5q25 0 51 53q7 16 14 16l12 -11q0 -35 -45 -74t-108 -39q-54 0 -83.5 25t-44.5 88 q-46 -68 -80.5 -90.5t-81.5 -22.5q-57 0 -87.5 29.5t-30.5 77.5v377q0 61 26.5 90t156.5 72q58 20 97 40v288q0 45 -23.5 70t-61.5 25q-88 0 -131 -90zM305 643q-64 -25 -82.5 -50t-18.5 -80v-423q0 -21 7.5 -31t18.5 -10q16 0 36 34q39 63 39 152v408zM229 1468h103 l107 -337h-136l-74 239l-75 -228q-1 -4 -4 -6t-6 -2q-5 0 -8.5 3t-3.5 7q0 2 1 4z" />
<glyph unicode="&#xe3;" horiz-adv-x="575" d="M89 967q14 5 27 7.5t24 2.5q40 0 67.5 -29t27.5 -76q0 -48 -28 -77t-75 -29t-74 29.5t-27 87.5q0 86 65 144t185 58q108 0 155.5 -40.5t47.5 -103.5v-864q0 -15 8 -24.5t17 -9.5q25 0 51 53q7 16 14 16l12 -11q0 -35 -45 -74t-108 -39q-54 0 -83.5 25t-44.5 88 q-46 -68 -80.5 -90.5t-81.5 -22.5q-57 0 -87.5 29.5t-30.5 77.5v377q0 61 26.5 90t156.5 72q58 20 97 40v288q0 45 -23.5 70t-61.5 25q-88 0 -131 -90zM305 643q-64 -25 -82.5 -50t-18.5 -80v-423q0 -21 7.5 -31t18.5 -10q16 0 36 34q39 63 39 152v408zM382 1303 q19 0 33 17.5t19 80.5q2 25 5 29.5t8 4.5t7 -4q5 -9 5 -37q0 -133 -39 -187q-27 -39 -79 -39q-38 0 -61.5 16.5t-49 62.5t-36 55t-26.5 9q-20 0 -31 -14q-15 -20 -21 -77q-3 -31 -6 -36.5t-8 -5.5q-6 0 -9 6q-5 9 -5 36q0 132 40 186q29 41 83 41q46 0 77 -36q8 -8 45 -70 q23 -38 49 -38z" />
<glyph unicode="&#xe4;" horiz-adv-x="575" d="M89 967q14 5 27 7.5t24 2.5q40 0 67.5 -29t27.5 -76q0 -48 -28 -77t-75 -29t-74 29.5t-27 87.5q0 86 65 144t185 58q108 0 155.5 -40.5t47.5 -103.5v-864q0 -15 8 -24.5t17 -9.5q25 0 51 53q7 16 14 16l12 -11q0 -35 -45 -74t-108 -39q-54 0 -83.5 25t-44.5 88 q-46 -68 -80.5 -90.5t-81.5 -22.5q-57 0 -87.5 29.5t-30.5 77.5v377q0 61 26.5 90t156.5 72q58 20 97 40v288q0 45 -23.5 70t-61.5 25q-88 0 -131 -90zM305 643q-64 -25 -82.5 -50t-18.5 -80v-423q0 -21 7.5 -31t18.5 -10q16 0 36 34q39 63 39 152v408zM170 1443 q29 0 47 -25q23 -33 23 -113q0 -78 -23 -109q-16 -23 -48 -23t-50 24q-23 32 -23 108q0 78 25 112q18 26 49 26zM382 1443q30 0 47 -24q22 -31 22 -106q0 -84 -23 -118q-18 -25 -49 -25q-29 0 -47 24q-23 34 -23 112q0 77 25 112q18 25 48 25z" />
<glyph unicode="&#xe5;" horiz-adv-x="575" d="M89 967q14 5 27 7.5t24 2.5q40 0 67.5 -29t27.5 -76q0 -48 -28 -77t-75 -29t-74 29.5t-27 87.5q0 86 65 144t185 58q108 0 155.5 -40.5t47.5 -103.5v-864q0 -15 8 -24.5t17 -9.5q25 0 51 53q7 16 14 16l12 -11q0 -35 -45 -74t-108 -39q-54 0 -83.5 25t-44.5 88 q-46 -68 -80.5 -90.5t-81.5 -22.5q-57 0 -87.5 29.5t-30.5 77.5v377q0 61 26.5 90t156.5 72q58 20 97 40v288q0 45 -23.5 70t-61.5 25q-88 0 -131 -90zM305 643q-64 -25 -82.5 -50t-18.5 -80v-423q0 -21 7.5 -31t18.5 -10q16 0 36 34q39 63 39 152v408zM273 1433 q53 0 89.5 -36.5t36.5 -88.5q0 -53 -36.5 -89.5t-88.5 -36.5q-53 0 -89.5 37t-36.5 88q0 52 37 89t88 37zM273 1389q-35 0 -59 -24.5t-24 -58.5q0 -35 24 -59.5t59 -24.5t59 24.5t24 59.5q0 34 -24 58.5t-59 24.5z" />
<glyph unicode="&#xe6;" horiz-adv-x="811" d="M445 1045q60 40 103 40q108 0 167.5 -121.5t59.5 -307.5v-123h-281v-417q0 -55 17.5 -75.5t51.5 -20.5q58 0 106 73q75 112 75 322v26q0 7 4 11t11 4t10.5 -4t3.5 -22q0 -137 -34 -248t-95 -162q-38 -32 -98 -32t-110 38.5t-89 136.5q-42 -105 -87 -140t-105 -35 q-59 0 -84 29q-35 40 -35 116v360q0 49 40 80q25 20 171 73q33 12 70 30v303q0 42 -18 61t-53 19q-107 0 -146 -92q23 10 51 10q39 0 65.5 -28t26.5 -76t-29.5 -79t-70.5 -31q-44 0 -73 30.5t-29 84.5q0 91 64 149t192 58q88 0 148 -40zM595 558v430q0 41 -15 59 q-11 15 -33 15q-23 0 -38 -15.5t-15 -41.5v-447h101zM317 643q-62 -16 -82.5 -37t-20.5 -48v-483q0 -12 7 -20q5 -6 15 -6q22 0 51.5 41t29.5 117v436z" />
<glyph unicode="&#xe7;" horiz-adv-x="512" d="M277 -48q56 -8 84 -42t28 -98q0 -83 -38 -127t-92 -44q-24 0 -34 8q-8 5 -8 16q0 6 2.5 9t8.5 3q19 -3 24 -3q28 0 41 18q13 17 13 79q0 118 -12 139q-9 15 -42 18v83h25v-59zM379 1004q30 24 53 52.5t31 28.5l5 -2l2 -10v-428q0 -7 -4 -11t-9 -4q-7 0 -10 5q-2 4 -6 49 q-6 75 -39 190.5t-65.5 151t-69.5 35.5q-24 0 -34 -12.5t-10 -53.5v-882q0 -54 16 -74.5t44 -20.5q36 0 69 29.5t52 86.5q40 116 40 267v56q0 14 5 21l8 6q5 0 8 -6q5 -7 5 -21v-66q0 -223 -74 -329q-52 -74 -132 -74q-88 0 -144 80q-73 105 -73 366v191q0 260 80 379 q55 81 136 81q70 0 116 -81z" />
<glyph unicode="&#xe8;" horiz-adv-x="532" d="M206 533v-372q0 -87 20 -115q15 -21 49 -21q56 0 100 63q73 106 78 289q1 60 5.5 68t12.5 8q7 0 11 -6q5 -8 5 -38q0 -178 -62.5 -299.5t-168.5 -121.5q-99 0 -164 93.5t-65 405.5v147q0 239 88 363q63 88 152 88q106 0 163.5 -113t57.5 -275v-164h-282zM310 560v426 q0 41 -16 62q-11 15 -33 15t-38.5 -19t-16.5 -58v-426h104zM311 1475l10 -320q1 -9 -3 -14t-10 -5q-13 0 -20 14l-178 325h201z" />
<glyph unicode="&#xe9;" horiz-adv-x="532" d="M206 533v-372q0 -87 20 -115q15 -21 49 -21q56 0 100 63q73 106 78 289q1 60 5.5 68t12.5 8q7 0 11 -6q5 -8 5 -38q0 -178 -62.5 -299.5t-168.5 -121.5q-99 0 -164 93.5t-65 405.5v147q0 239 88 363q63 88 152 88q106 0 163.5 -113t57.5 -275v-164h-282zM310 560v426 q0 41 -16 62q-11 15 -33 15t-38.5 -19t-16.5 -58v-426h104zM200 1472h199l-182 -323q-7 -13 -17 -13l-8 3q-4 6 -4 14z" />
<glyph unicode="&#xea;" horiz-adv-x="532" d="M206 533v-372q0 -87 20 -115q15 -21 49 -21q56 0 100 63q73 106 78 289q1 60 5.5 68t12.5 8q7 0 11 -6q5 -8 5 -38q0 -178 -62.5 -299.5t-168.5 -121.5q-99 0 -164 93.5t-65 405.5v147q0 239 88 363q63 88 152 88q106 0 163.5 -113t57.5 -275v-164h-282zM310 560v426 q0 41 -16 62q-11 15 -33 15t-38.5 -19t-16.5 -58v-426h104zM209 1468h103l107 -337h-136l-74 239l-75 -228q-1 -4 -4 -6t-6 -2q-5 0 -8.5 3t-3.5 7q0 2 1 4z" />
<glyph unicode="&#xeb;" horiz-adv-x="532" d="M206 533v-372q0 -87 20 -115q15 -21 49 -21q56 0 100 63q73 106 78 289q1 60 5.5 68t12.5 8q7 0 11 -6q5 -8 5 -38q0 -178 -62.5 -299.5t-168.5 -121.5q-99 0 -164 93.5t-65 405.5v147q0 239 88 363q63 88 152 88q106 0 163.5 -113t57.5 -275v-164h-282zM310 560v426 q0 41 -16 62q-11 15 -33 15t-38.5 -19t-16.5 -58v-426h104zM150 1443q29 0 47 -25q23 -33 23 -113q0 -78 -23 -109q-16 -23 -48 -23t-50 24q-23 32 -23 108q0 78 25 112q18 26 49 26zM362 1443q30 0 47 -24q22 -31 22 -106q0 -84 -23 -118q-18 -25 -49 -25q-29 0 -47 24 q-23 34 -23 112q0 77 25 112q18 25 48 25z" />
<glyph unicode="&#xec;" horiz-adv-x="328" d="M66 1047h-39q-6 0 -9.5 3.5t-3.5 9.5t3.5 9.5t9.5 3.5h217v-1047h43q6 0 9.5 -3.5t3.5 -10.5q0 -5 -3.5 -8.5t-9.5 -3.5h-260q-10 7 -10 13q0 7 10 13h39v1021zM221 1475l10 -320q1 -9 -3 -14t-10 -5q-13 0 -20 14l-178 325h201z" />
<glyph unicode="&#xed;" horiz-adv-x="328" d="M66 1047h-39q-6 0 -9.5 3.5t-3.5 9.5t3.5 9.5t9.5 3.5h217v-1047h43q6 0 9.5 -3.5t3.5 -10.5q0 -5 -3.5 -8.5t-9.5 -3.5h-260q-10 7 -10 13q0 7 10 13h39v1021zM90 1472h199l-182 -323q-7 -13 -17 -13l-8 3q-4 6 -4 14z" />
<glyph unicode="&#xee;" horiz-adv-x="328" d="M66 1047h-39q-6 0 -9.5 3.5t-3.5 9.5t3.5 9.5t9.5 3.5h217v-1047h43q6 0 9.5 -3.5t3.5 -10.5q0 -5 -3.5 -8.5t-9.5 -3.5h-260q-10 7 -10 13q0 7 10 13h39v1021zM99 1468h103l107 -337h-136l-74 239l-75 -228q-1 -4 -4 -6t-6 -2q-5 0 -8.5 3t-3.5 7q0 2 1 4z" />
<glyph unicode="&#xef;" horiz-adv-x="328" d="M66 1047h-39q-6 0 -9.5 3.5t-3.5 9.5t3.5 9.5t9.5 3.5h217v-1047h43q6 0 9.5 -3.5t3.5 -10.5q0 -5 -3.5 -8.5t-9.5 -3.5h-260q-10 7 -10 13q0 7 10 13h39v1021zM40 1443q29 0 47 -25q23 -33 23 -113q0 -78 -23 -109q-16 -23 -48 -23t-50 24q-23 32 -23 108q0 78 25 112 q18 26 49 26zM252 1443q30 0 47 -24q22 -31 22 -106q0 -84 -23 -118q-18 -25 -49 -25q-29 0 -47 24q-23 34 -23 112q0 77 25 112q18 25 48 25z" />
<glyph unicode="&#xf7;" horiz-adv-x="960" d="M539 1077q0 -24 -17.5 -41.5t-41.5 -17.5q-25 0 -42 17.5t-17 41.5q0 25 17 42t42 17q24 0 41.5 -17t17.5 -42zM99 802h761v-93h-761v93zM539 434q0 -25 -17.5 -42t-41.5 -17q-25 0 -42 17t-17 42q0 24 17 41.5t42 17.5q24 0 41.5 -17.5t17.5 -41.5z" />
<glyph unicode="&#xf9;" horiz-adv-x="604" d="M62 1047h-37q-9 6 -9 12q0 7 9 14h216v-1004q0 -12 6 -18t17 -6q22 0 44 32q35 50 35 122v848h-39q-5 0 -7.5 3t-2.5 10q0 6 2.5 9.5t7.5 3.5h219v-1047h34q5 0 8.5 -3.5t3.5 -9.5t-3.5 -9.5t-8.5 -3.5h-214v80q-32 -51 -65.5 -71.5t-79.5 -20.5q-67 0 -101.5 35.5 t-34.5 95.5v928zM351 1475l10 -320q1 -9 -3 -14t-10 -5q-13 0 -20 14l-178 325h201z" />
<glyph unicode="&#xfa;" horiz-adv-x="604" d="M62 1047h-37q-9 6 -9 12q0 7 9 14h216v-1004q0 -12 6 -18t17 -6q22 0 44 32q35 50 35 122v848h-39q-5 0 -7.5 3t-2.5 10q0 6 2.5 9.5t7.5 3.5h219v-1047h34q5 0 8.5 -3.5t3.5 -9.5t-3.5 -9.5t-8.5 -3.5h-214v80q-32 -51 -65.5 -71.5t-79.5 -20.5q-67 0 -101.5 35.5 t-34.5 95.5v928zM240 1472h199l-182 -323q-7 -13 -17 -13l-8 3q-4 6 -4 14z" />
<glyph unicode="&#xfb;" horiz-adv-x="604" d="M62 1047h-37q-9 6 -9 12q0 7 9 14h216v-1004q0 -12 6 -18t17 -6q22 0 44 32q35 50 35 122v848h-39q-5 0 -7.5 3t-2.5 10q0 6 2.5 9.5t7.5 3.5h219v-1047h34q5 0 8.5 -3.5t3.5 -9.5t-3.5 -9.5t-8.5 -3.5h-214v80q-32 -51 -65.5 -71.5t-79.5 -20.5q-67 0 -101.5 35.5 t-34.5 95.5v928zM249 1468h103l107 -337h-136l-74 239l-75 -228q-1 -4 -4 -6t-6 -2q-5 0 -8.5 3t-3.5 7q0 2 1 4z" />
<glyph unicode="&#xfc;" horiz-adv-x="604" d="M62 1047h-37q-9 6 -9 12q0 7 9 14h216v-1004q0 -12 6 -18t17 -6q22 0 44 32q35 50 35 122v848h-39q-5 0 -7.5 3t-2.5 10q0 6 2.5 9.5t7.5 3.5h219v-1047h34q5 0 8.5 -3.5t3.5 -9.5t-3.5 -9.5t-8.5 -3.5h-214v80q-32 -51 -65.5 -71.5t-79.5 -20.5q-67 0 -101.5 35.5 t-34.5 95.5v928zM185 1443q29 0 47 -25q23 -33 23 -113q0 -78 -23 -109q-16 -23 -48 -23t-50 24q-23 32 -23 108q0 78 25 112q18 26 49 26zM397 1443q30 0 47 -24q22 -31 22 -106q0 -84 -23 -118q-18 -25 -49 -25q-29 0 -47 24q-23 34 -23 112q0 77 25 112q18 25 48 25z" />
<glyph unicode="&#xff;" horiz-adv-x="520" d="M48 1047h-46q-10 6 -10 13q0 6 10 13h268q5 0 8.5 -4t3.5 -9q0 -6 -3.5 -9.5t-8.5 -3.5h-46l90 -768l86 604q5 33 5 61q0 55 -14.5 76t-42.5 25l-14 4q-3 4 -3 10q0 7 2.5 10.5t7.5 3.5h151q6 0 9.5 -4t3.5 -10q0 -5 -2.5 -8t-10.5 -4q-14 -4 -24 -21q-28 -47 -39 -119 l-149 -1052q-16 -114 -68 -170.5t-106 -56.5q-43 0 -76 37.5t-33 98.5q0 52 25.5 80.5t59.5 28.5q33 0 57.5 -26t24.5 -64q0 -59 -52 -92q-14 -9 -14 -18q0 -6 5.5 -10.5t16.5 -4.5q37 0 72 41q47 56 67 179l21 122h-108zM160 1443q29 0 47 -25q23 -33 23 -113 q0 -78 -23 -109q-16 -23 -48 -23t-50 24q-23 32 -23 108q0 78 25 112q18 26 49 26zM372 1443q30 0 47 -24q22 -31 22 -106q0 -84 -23 -118q-18 -25 -49 -25q-29 0 -47 24q-23 34 -23 112q0 77 25 112q18 25 48 25z" />
<glyph unicode="&#x131;" horiz-adv-x="328" d="M66 1047h-39q-6 0 -9.5 3.5t-3.5 9.5t3.5 9.5t9.5 3.5h217v-1047h43q6 0 9.5 -3.5t3.5 -10.5q0 -5 -3.5 -8.5t-9.5 -3.5h-260q-10 7 -10 13q0 7 10 13h39v1021z" />
<glyph unicode="&#x152;" horiz-adv-x="918" d="M879 0h-466q-5 0 -15 -1q-55 -6 -78 -6q-51 0 -107 32.5t-94 94.5q-30 47 -59.5 152.5t-29.5 263.5v407q0 312 104 464q72 104 173 104q12 0 54 -5q16 -2 23 -2h495v-561q-6 -8 -11 -8q-7 0 -9.5 4t-2.5 27q0 72 -36.5 246t-87.5 235q-27 32 -68 32h-83v-707q60 7 95 60 q47 71 47 230v78q5 7 11 7t12 -7v-749q0 -6 -3.5 -9.5t-8.5 -3.5t-8 3.5t-3 9.5v61q0 166 -50 243q-34 51 -92 54v-723h47q85 0 142 134q76 178 86 424l3 35q3 5 9 5l7 -3q4 -4 4 -10v-611zM248 93q0 -38 18 -60q14 -16 43 -16q27 0 44 20q23 28 23 67v1288q0 50 -20 75 q-15 19 -42 19q-28 0 -47 -23t-19 -71v-1299z" />
<glyph unicode="&#x153;" horiz-adv-x="811" d="M414 1016q64 69 139 69q104 0 163.5 -117.5t59.5 -317.5v-117h-280v-421q0 -50 17.5 -72t45.5 -22q39 0 78.5 34t62.5 99q43 123 43 241v41q0 14 6 22q4 5 10 5q7 0 11 -6q5 -8 5 -41q0 -185 -61.5 -305t-169.5 -120q-36 0 -63 13t-76 57q-70 -70 -142 -70 q-108 0 -166 122.5t-58 322.5v247q0 217 80 325q59 80 151 80q38 0 70 -14.5t74 -54.5zM319 1004q0 26 -14.5 42t-38.5 16q-21 0 -35 -15t-14 -36v-933q0 -28 16 -48q12 -13 34 -13t37 15t15 37v935zM597 558v424q0 50 -14 67q-9 13 -34 13t-39 -15.5t-14 -47.5v-441h101z " />
<glyph unicode="&#x178;" horiz-adv-x="657" d="M216 746l-164 732h-40q-5 0 -8 3.5t-3 9.5q0 7 3 10t8 3h325q11 -7 11 -12q0 -7 -11 -14h-80l155 -683l116 532q7 30 7 56q0 38 -12 61.5t-33 31.5l-33 4q-6 3 -6 11q0 7 11 13h162q11 0 15 -2l3 -5q0 -7 -12 -15q-50 -29 -69 -115l-138 -621v-720h79q5 0 8.5 -3.5 t3.5 -9.5t-3.5 -9.5t-8.5 -3.5h-369q-5 0 -8 3.5t-3 9.5t3 9.5t8 3.5h83v720zM210 1876q29 0 47 -25q23 -33 23 -113q0 -78 -23 -109q-16 -23 -48 -23t-50 24q-23 32 -23 108q0 78 25 112q18 26 49 26zM422 1876q30 0 47 -24q22 -31 22 -106q0 -84 -23 -118q-18 -25 -49 -25 q-29 0 -47 24q-23 34 -23 112q0 77 25 112q18 25 48 25z" />
<glyph unicode="&#x192;" horiz-adv-x="512" d="M132 1047h-86q-4 0 -6.5 2.5t-2.5 6.5q0 8 3.5 12.5t8.5 4.5h86l17 160q15 145 76.5 214t129.5 69q45 0 78 -35t33 -89t-28.5 -88t-60.5 -34q-27 0 -44.5 19t-17.5 51q0 49 25.5 76.5t72.5 29.5q-17 40 -58 40q-37 0 -67.5 -37t-30.5 -102q0 -51 26.5 -136.5t26.5 -119.5 q0 -7 -1 -18h117q4 0 6.5 -3t2.5 -8q0 -7 -4 -11t-8 -4h-117l-149 -1419h-177z" />
<glyph unicode="&#x2c6;" horiz-adv-x="682" d="M288 1468h103l107 -337h-136l-74 239l-75 -228q-1 -4 -4 -6t-6 -2q-5 0 -8.5 3t-3.5 7q0 2 1 4z" />
<glyph unicode="&#x2c7;" horiz-adv-x="682" d="M401 1230l72 219q2 5 7.5 9.5t9.5 4.5t6 -2t2 -7q0 -2 -1 -5l-96 -318h-100l-110 334h135z" />
<glyph unicode="&#x2d8;" horiz-adv-x="682" d="M328 1302q62 0 100 27t63 92q5 13 8 17l7 2q5 0 9 -5q4 -8 4 -30q0 -112 -55.5 -176t-129.5 -64q-77 0 -132.5 63t-55.5 179q0 22 4 28q3 4 9 4q8 0 14 -15q30 -70 65 -96t90 -26z" />
<glyph unicode="&#x2d9;" horiz-adv-x="682" d="M337 1446q37 0 61 -30.5t24 -103.5q0 -80 -23.5 -111t-59.5 -31t-59 30q-31 39 -31 110q0 73 25 104.5t63 31.5z" />
<glyph unicode="&#x2da;" horiz-adv-x="682" d="M332 1433q53 0 89.5 -36.5t36.5 -88.5q0 -53 -36.5 -89.5t-88.5 -36.5q-53 0 -89.5 37t-36.5 88q0 52 37 89t88 37zM332 1389q-35 0 -59 -24.5t-24 -58.5q0 -35 24 -59.5t59 -24.5t59 24.5t24 59.5q0 34 -24 58.5t-59 24.5z" />
<glyph unicode="&#x2db;" horiz-adv-x="682" d="M222 14h47q-24 -50 -24 -87q0 -76 53 -126.5t143 -50.5q46 0 104 20l19 -29q-88 -46 -123.5 -57t-83.5 -11q-100 0 -153.5 49t-53.5 126q0 87 72 166z" />
<glyph unicode="&#x2dc;" horiz-adv-x="682" d="M441 1303q19 0 33 17.5t19 80.5q2 25 5 29.5t8 4.5t7 -4q5 -9 5 -37q0 -133 -39 -187q-27 -39 -79 -39q-38 0 -61.5 16.5t-49 62.5t-36 55t-26.5 9q-20 0 -31 -14q-15 -20 -21 -77q-3 -31 -6 -36.5t-8 -5.5q-6 0 -9 6q-5 9 -5 36q0 132 40 186q29 41 83 41q46 0 77 -36 q8 -8 45 -70q23 -38 49 -38z" />
<glyph unicode="&#x2dd;" horiz-adv-x="682" d="M764 1491l-221 -281h-148l133 281h236zM426 1491l-221 -281h-148l133 281h236z" />
<glyph unicode="&#x3c0;" horiz-adv-x="1088" d="M1006 916v-146h-232q-17 -104 -28 -241t-11 -219q0 -88 35.5 -129.5t89.5 -41.5q44 0 74 28t36 83h36q-18 -150 -76 -214t-130 -64q-74 0 -124.5 69.5t-50.5 276.5q0 91 11 204q17 183 27 248h-235l-22 -305q-26 -239 -63 -369q-20 -72 -62 -107q-19 -17 -47 -17 q-39 0 -64.5 24.5t-25.5 58.5q0 28 10 52q6 15 55 83q33 45 51 97t33 169q3 21 24 314h-29q-70 0 -114 -28t-94 -113h-36q32 120 81 185t95 83.5t148 18.5h638z" />
<glyph unicode="&#x1000;" horiz-adv-x="883" d="M250 27l24 -2q5 -3 5 -11q0 -7 -10 -13h-237q-10 6 -10 13q0 6 10 13h39v822l179 226v-80q35 53 66 73q32 19 79 19q55 0 84 -23q28 -23 48 -84q33 64 63 85q31 22 82 22q70 0 104 -34t34 -95v-931h33q4 0 10 -4q4 -4 4 -9l-3 -9q-5 -4 -11 -4h-232q-10 6 -10 13 q0 6 10 13h21v968q0 16 -9 27q-10 10 -18 10q-22 0 -44 -33q-34 -56 -34 -148v-824h23l6 -3q3 -5 3 -10q0 -7 -9 -13h-226q-8 6 -8 13t8 13h27v953q0 26 -9 38t-21 12q-18 0 -37 -25q-34 -54 -34 -115v-863z" />
<glyph unicode="&#x1001;" horiz-adv-x="532" d="M313 542v373q0 88 -20 115q-15 21 -49 21q-55 0 -100 -63q-36 -54 -56 -125.5t-22 -163.5q-2 -62 -5 -69q-5 -8 -13 -8q-7 0 -11 7q-5 8 -5 37q0 178 63 301q61 121 168 121q99 0 165 -93q64 -94 64 -407v-147q0 -239 -88 -363q-63 -88 -152 -88q-106 0 -163 113 q-58 112 -58 275v164h282zM209 515v-426q0 -40 16 -62q12 -15 33 -15q23 0 39 19q16 17 16 58v426h-104z" />
<glyph unicode="&#x1002;" horiz-adv-x="599" d="M259 27l24 -2q5 -3 5 -11q0 -7 -10 -13h-237q-10 6 -10 13q0 6 10 13h39v821l179 227v-80q35 53 66 73q32 19 79 19q54 0 83 -23q15 -11 32 -34.5t17 -49.5v-953h22l6 -3q3 -5 3 -10q0 -7 -9 -13h-225q-8 6 -8 13t8 13h27v953q0 26 -9 38t-21 12q-20 0 -37 -25 q-34 -52 -34 -115v-863z" />
<glyph unicode="&#x1003;" horiz-adv-x="878" d="M627 1048l-24 2q-5 3 -5 11q0 6 10 13h237q10 -7 10 -13q0 -7 -10 -13h-39v-823l-179 -226v81q-37 -56 -66 -73q-29 -19 -79 -19q-57 0 -83 23q-29 21 -49 84q-17 -32 -32 -53t-31 -32q-28 -22 -82 -22q-71 0 -104 34q-34 34 -34 95v437q3 47 43 143q10 24 30 62t39.5 77 t34 73t14.5 49q0 50 -26 81t-58 31q-19 0 -37 -10q-15 -10 -26 -30q44 -2 66 -25t22 -68q0 -39 -20 -61q-21 -22 -50 -22t-53 28q-24 30 -24 78q0 58 38 99t87 41q66 0 122 -69q13 -17 19 -47t8 -62.5t1 -61t-1 -43.5l-51 -246v-491q0 -16 9 -27q9 -10 19 -10q22 0 43 33 q34 54 34 148v824h-22l-7 3q-2 4 -2 10q0 7 9 13h225q8 -6 8 -13t-8 -13h-27v-953q0 -28 9 -38q9 -12 21 -12q21 0 37 25q34 50 34 114v864z" />
<glyph unicode="&#x1004;" horiz-adv-x="481" d="M364 1008q15 12 28.5 25t24.5 27q23 29 31 29l5 -2l2 -10v-429q0 -7 -4 -10q-5 -5 -9 -5q-7 0 -10 6q-2 3 -6 49q-6 74 -39 190q-33 117 -66 151q-32 36 -69 36q-25 0 -34 -13q-10 -11 -10 -53v-883q0 -55 16 -75q14 -20 44 -20q35 0 69 29q32 29 52 87t30 125t10 142v56 q0 14 5 21l8 6q5 0 8 -6q5 -7 5 -21v-66q0 -222 -74 -329q-53 -74 -132 -74q-89 0 -144 80q-74 106 -74 366v192q0 259 81 379q54 81 136 81q69 0 116 -81z" />
<glyph unicode="&#x1005;" horiz-adv-x="523" d="M28 466q27 139 81 164l-81 32q0 234 79 345q58 81 149 81q113 0 173 -119q61 -120 61 -315v-217q0 -256 -78 -367q-57 -80 -149 -80q-28 0 -52.5 7t-47.5 21q-44 29 -80 101q-35 72 -46 195q-9 120 -9 152zM311 959q0 56 -17 78q-16 23 -38 23q-19 0 -34 -19 q-15 -18 -15 -56v-323q4 3 10.5 10.5t11.5 17.5q3 7 6 15.5t5 21t3.5 29.5t1.5 43v64q0 11 4.5 17t10 6.5t10 -5.5t5.5 -18v-430q0 -10 -4.5 -15.5t-10.5 -6t-10.5 4.5t-4.5 17v59q-1 36 -4.5 65t-14.5 47q-8 14 -19 18v-478q0 -79 18 -107q14 -20 38 -20q23 0 35 17 q13 19 13 76v849z" />
<glyph unicode="&#x1006;" horiz-adv-x="799" d="M489 702q3 -53 3 -113v-147q0 -40 -3 -76v-221q0 -79 18 -107q15 -20 38 -20t35 17q13 17 13 76v849q0 57 -17 78q-15 23 -38 23q-19 0 -34 -19q-15 -18 -15 -56v-284zM312 724v192q0 88 -20 115q-15 21 -49 21q-55 0 -100 -63q-72 -107 -78 -289q-2 -62 -5 -69 q-5 -8 -13 -8q-7 0 -11 7q-5 8 -5 37q0 178 63 301q61 121 168 121q83 0 141 -64q55 64 135 64q113 0 173 -119q61 -118 61 -315v-218q0 -255 -78 -366q-55 -80 -149 -80q-55 0 -99 28q-26 17 -50 50q-62 -78 -145 -78q-106 0 -163 113q-58 112 -58 275v164h281v120v31t1 30 zM208 516v-426q0 -40 16 -62q12 -15 33 -15q23 0 39 19q16 17 16 58v337q-1 14 -1 23.5v15.5v50h-103z" />
<glyph unicode="&#x1007;" horiz-adv-x="530" d="M379 91q65 94 76 253q3 9 8.5 12.5t11 2.5t9.5 -6t4 -13q-11 -132 -60 -228q-61 -121 -168 -121q-100 0 -164 93q-65 93 -65 406v148q0 239 88 363q63 88 152 88q106 0 163 -113q58 -112 58 -275l-117 -57q66 -3 98 -59q7 -12 14.5 -28t13.5 -30.5t10.5 -25t6.5 -13.5 q10 -12 23 -16l9 -4l1 -3q0 -6 -9 -10q-23 -13 -62 -13q-51 0 -82 34q-8 9 -12.5 29.5t-7 42t-4.5 39.5t-5 21q-13 11 -31 11q-2 0 -6 -1l-8 -2l-10 -2h-104v-450q0 -86 20 -115q15 -21 49 -21q56 0 100 63zM314 641v349q0 42 -16 62q-11 15 -33 15q-23 0 -39 -19t-16 -58 v-349h104z" />
<glyph unicode="&#x1008;" horiz-adv-x="769" d="M545 1074h-67q-5 0 -8 3q-3 4 -3 9t11 13h301q5 0 8 -4q4 -3 4 -8q0 -6 -4 -10q-3 -3 -8 -3h-54v-1229q0 -60 -17.5 -107.5t-55.5 -85.5q-18 -18 -35 -32t-35.5 -23.5t-41 -14t-51.5 -4.5q-101 0 -168 67q-65 70 -65 184q0 100 34 144q36 44 80 44q37 0 65 -34t28 -98 q0 -62 -27 -93q-26 -32 -62 -32q-7 0 -15 2t-19 4q-17 7 -29 7q-7 0 -11 -6q-6 -6 -6 -18q0 -49 48 -97q49 -46 100 -46q43 0 69 31q34 45 34 120v1317zM28 466q27 139 81 164l-81 32q0 234 79 345q58 81 149 81q113 0 173 -119q61 -120 61 -315v-217q0 -256 -78 -367 q-57 -80 -149 -80q-28 0 -52.5 7t-47.5 21q-44 29 -80 101q-35 72 -46 195q-9 120 -9 152zM311 959q0 56 -17 78q-16 23 -38 23q-19 0 -34 -19q-15 -18 -15 -56v-323q4 3 10.5 10.5t11.5 17.5q3 7 6 15.5t5 21t3.5 29.5t1.5 43v64q0 11 4.5 17t10 6.5t10 -5.5t5.5 -18v-430 q0 -10 -4.5 -15.5t-10.5 -6t-10.5 4.5t-4.5 17v59q-1 36 -4.5 65t-14.5 47q-8 14 -19 18v-478q0 -79 18 -107q14 -20 38 -20q23 0 35 17q13 19 13 76v849z" />
<glyph unicode="&#x1009;" horiz-adv-x="526" d="M481 262q0 -36 -8 -68t-18.5 -57.5t-20.5 -43.5t-16 -26q-49 -68 -120 -79v-405h42h28t48 0.5t57 1.5t56 3t45.5 5t25.5 7q17 13 43 36.5t43 63.5q12 30 20 70t13 78.5t7.5 68.5t2.5 40q0 14 4 18l8 3l8 -3q4 -4 4 -9l-8 -409h-715q-5 0 -9 3q-3 4 -3 10t3 9q4 4 9 4h62 v586q-12 45 -18.5 100t-6.5 121v66q0 13 5 21q3 6 8 6l8 -6q5 -6 5 -21v-56q0 -153 40 -267q20 -58 52 -87t69 -29q30 0 44 20q16 20 16 75v883q0 42 -10 53q-10 13 -34 13q-36 0 -69 -36t-66 -152q-33 -114 -39 -190q-3 -44 -6 -49t-10 -5q-3 0 -9 4q-4 4 -4 11v429l2 10 l5 2q8 0 31 -29q25 -29 53 -52q46 81 116 81q82 0 136 -81q80 -119 80 -380v-191q0 -96 -9 -171z" />
<glyph unicode="&#x100a;" horiz-adv-x="823" d="M474 263q-1 -72 15.5 -119.5t30.5 -70.5q18 -25 37 -25q13 0 22 12q4 5 6.5 14.5t2.5 23.5v953h-27q-8 5 -8 13t8 13h225q9 -8 9 -13q0 -6 -3 -10l-6 -3h-22v-953q-21 -63 -49 -84q-27 -23 -83 -23q-50 0 -79 19q-30 17 -67 73l-37 65q-15 -48 -38 -80q-49 -68 -120 -79 v-405h42q7 0 29 1t51 2.5t61.5 4t61 5.5t49 7t26.5 8q17 13 40 30.5t40 57.5q12 30 18 70t9 78.5t3.5 69t0.5 40.5q0 14 4 18l8 3l8 -3q4 -4 4 -9l-8 -409h-715q-5 0 -9 3q-3 4 -3 10t3 9q4 4 9 4h62v586q-12 45 -18.5 100t-6.5 121v66q0 13 5 21q3 6 8 6l8 -6q5 -6 5 -21 v-56q0 -153 40 -267q20 -58 52 -87t69 -29q30 0 44 20q16 20 16 75v883q0 42 -10 53q-10 13 -34 13q-36 0 -69 -36t-66 -152q-33 -114 -39 -190q-3 -44 -6 -49t-10 -5q-3 0 -9 4q-4 4 -4 11v429l2 10l5 2q8 0 31 -29q25 -29 53 -52q46 81 116 81q82 0 136 -81 q80 -119 80 -380v-191q0 -96 -9 -171z" />
<glyph unicode="&#x100b;" horiz-adv-x="517" d="M120 -272q-35 9 -50 39.5t-15 65.5q0 13 1 31t4 36t8 33t14 22l7.5 10t9.5 10.5t9 7.5t5 3q43 -33 125 -33t135 38q7 5 13 17.5t10.5 29t7.5 35.5t3 39q-6 -14 -13 -27t-15 -24q-53 -74 -132 -74q-88 0 -144 80q-74 106 -74 366v192q0 260 80 379q55 81 137 81 q69 0 116 -81q28 23 53 52q23 29 31 29l5 -2l2 -10v-428q0 -8 -4 -11q-4 -4 -9 -4q-8 0 -10 5q-1 3 -6 49q-6 74 -39 190q-33 117 -66 151q-33 36 -69 36q-25 0 -34 -13q-10 -11 -10 -53v-883q0 -55 16 -75q15 -20 44 -20q35 0 69 29q32 29 52 87t30 125t10 142v56 q0 14 5 22l8 5q5 0 8 -5q5 -8 5 -22v-66q0 -142 -30 -236q9 -23 9 -51q0 -23 -4.5 -45.5t-12 -42t-16 -34.5t-16.5 -22q-55 -49 -152 -49q-72 0 -117 19q-8 -3 -10.5 -10t-2.5 -16q0 -13 4 -26.5t9 -19.5q7 -8 15 -11t17 -3q8 0 16 1t16 1q27 0 52 1t48 1q42 0 78 -6t69 -27 q26 -17 38.5 -44t14.5 -62l1 -26v-5q1 -5 1 -14q2 -27 11 -40q9 -12 24 -12q9 0 14 2t9 6t8.5 10.5t10.5 16.5q8 12 10 23t2 25v27v16t1 18q5 14 21 14q8 0 14 -5t6 -16q-3 -23 -4.5 -43t-3.5 -37t-6 -31.5t-13 -26.5q-26 -35 -55 -45.5t-70 -10.5q-34 0 -63 2t-50 15.5 t-33 42t-12 81.5q0 14 -4 25q-19 0 -44.5 1t-50.5 2t-47 2t-35 3z" />
<glyph unicode="&#x100c;" horiz-adv-x="557" d="M406 1007q17 12 32 25t28 27q26 29 35 29l6 -2l2 -10v-428q0 -7 -4 -11t-11 -4q-8 0 -11 5q-1 2 -7 49q-6 74 -44 190q-38 118 -74 151q-36 36 -78 36q-27 0 -39 -13q-11 -13 -11 -53v-883q0 -54 18 -75q18 -20 50 -20q7 0 16 6.5t17 18.5t14 28.5t6 37.5v455l159 -84 l5 -899h42q6 0 9 -4q3 -3 3 -9t-3 -10q-3 -3 -9 -3h-492l-8 409q0 3 4 9l9 3l8 -3q3 -5 3 -18q0 -10 5.5 -39t14 -66.5t19 -77t20.5 -69.5q15 -45 49.5 -69.5t70.5 -36.5q42 -14 91 -16v422q-35 -15 -75 -15q-99 0 -162 80q-83 106 -83 367v191q0 261 91 379q61 81 153 81 q80 0 131 -81z" />
<glyph unicode="&#x100d;" horiz-adv-x="544" d="M402 66q-12 -17 -22.5 -31t-23.5 -23.5t-30.5 -16t-43.5 -8.5q-31 2 -55 4.5t-43 7.5q-15 -3 -22 -8.5t-9 -18.5q-3 -19 10 -33q10 -13 24 -13.5t30 -0.5q31 0 59.5 1.5t54 -0.5t48.5 -9t44 -25q23 -19 33 -43t12 -61q1 -78 0 -123q0 -43 12 -59q7 -12 24 -12q34 0 60 39 q29 43 37 122q2 7 7 10.5t9.5 2t8 -7.5t3.5 -16q-12 -91 -48 -137q-52 -70 -133 -70q-34 0 -63 12t-50 37t-33 63.5t-12 91.5q0 21 -6.5 31.5t-20.5 18.5q-28 2 -54.5 3.5t-40.5 3.5q-17 4 -33.5 23.5t-24.5 32.5q-13 25 -13 58q0 27 11 59t31 50q-23 19 -37 53.5t-25 93.5 q-26 92 -26 221v66q0 14 5 21q3 6 9 6l8 -6q4 -5 4 -21v-56q0 -150 41 -267q18 -58 52 -87q32 -29 69 -29q28 0 44 20q16 22 16 75v883q0 40 -10 53q-11 13 -34 13q-38 0 -69 -36q-17 -18 -33.5 -55.5t-33.5 -95.5q-16 -58 -26 -105.5t-12 -85.5q-5 -45 -7 -49q-2 -5 -9 -5 q-5 0 -9 4q-5 5 -5 11v429l2 10l5 2q8 0 32 -29q23 -29 53 -52q45 81 116 81q80 0 136 -81q80 -121 80 -380q1 -34 2 -67q1 -29 0.5 -62.5t-2.5 -61.5q-4 -54 -9.5 -109t-14 -104t-20.5 -89t-29 -64z" />
<glyph unicode="&#x100e;" horiz-adv-x="583" d="M348 10v85q-32 -64 -62 -85q-29 -22 -82 -22q-71 0 -104 34q-34 33 -34 95v438q1 23 12 58t31 84q10 24 30 62t39.5 77t34 73t14.5 49q0 50 -26 81q-27 31 -58 31q-23 0 -37 -10q-17 -11 -26 -30q44 -2 66 -25q22 -25 22 -68q0 -39 -20 -61q-21 -22 -50 -22q-30 0 -53 29 q-25 28 -25 77q0 58 39 99q38 41 87 41q66 0 122 -69q13 -17 19 -47t8 -62t1 -61t-1 -44l-51 -246v-491q0 -18 9 -27q9 -10 18 -10q22 0 43 33q34 52 34 148v824h-22l-6 3q-3 4 -3 10q0 5 9 13h225q8 -5 8 -13t-8 -13h-27v-817z" />
<glyph unicode="&#x100f;" horiz-adv-x="1262" d="M535 993q0 -4 0.5 -7t0.5 -7q0 -3 -0.5 -11.5t-1.5 -22.5v-808q0 -80 18 -107q13 -20 38 -20q24 0 35 17q13 17 13 76v849q0 55 -17 78t-38 23q-18 0 -34 -19q-13 -16 -14 -41zM960 71q-15 -12 -28.5 -25t-24.5 -27q-24 -29 -31 -29l-5 2l-2 10v429q0 7 4 11t9 4 q7 0 10 -5q2 -5 6 -49q6 -75 39 -191q17 -58 33.5 -91.5t32.5 -59.5q11 -20 19 -30t13 -3q10 11 10 53v883q0 53 -16 75q-16 20 -44 20q-39 0 -70.5 -17.5t-54.5 -41.5t-38 -48.5t-19 -39.5q-3 -8 -6 -16.5t-5 -17.5q25 -93 25 -221v-217q0 -255 -78 -366q-56 -81 -149 -81 q-53 0 -99 29q-44 27 -80 101q-37 74 -46 194q-9 121 -9 152v196q0 26 1 51.5t3 48.5v225q0 27 -9 39q-8 11 -21 11q-21 0 -37 -25q-34 -50 -34 -114v-864l24 -2q5 -3 5 -11q0 -5 -10 -13h-238q-10 8 -10 13q0 6 10 13h40v822l179 226v-80q37 55 66 74q32 19 79 19 q54 0 83 -24q2 -1 4 -2.5t4 -3.5q39 24 88 24q113 0 173 -119q11 -23 22 -50q13 34 32 62q13 18 27.5 36.5t36 33.5t52.5 24.5t78 9.5q89 0 144 -80q73 -104 73 -366v-192q0 -258 -80 -379q-14 -20 -24.5 -35.5t-21.5 -25.5t-25 -15t-34 -5q-16 0 -34.5 25t-41.5 66z" />
<glyph unicode="&#x1010;" horiz-adv-x="1002" d="M324 959q0 55 -17 78t-38 23q-18 0 -34 -19q-15 -18 -15 -56v-841q0 -80 18 -107q13 -20 38 -20q24 0 35 17q13 17 13 76v849zM699 81q-28 -23 -53 -52q-22 -29 -31 -29l-5 2l-2 10v428q0 7 4 11t9 4q7 0 10 -5q3 -3 6 -49q6 -74 39 -190q17 -58 34 -91.5t32 -59.5 q11 -20 19 -30t13 -3q10 11 10 53v883q0 55 -16 75q-15 20 -44 20q-39 0 -70.5 -17.5t-54.5 -41.5t-37.5 -49t-19.5 -39q-34 -99 -39 -225v-33v-217q0 -255 -78 -366q-55 -80 -149 -80q-55 0 -99 28q-43 26 -80 101q-37 74 -46 194q-9 121 -9 152v196q0 236 79 346 q57 81 148 81q113 0 173 -119q32 -64 47 -146q18 101 61 160q13 19 27.5 37.5t36 33.5t52.5 24.5t77 9.5q88 0 144 -80q73 -104 73 -367v-191q0 -262 -80 -379q-14 -20 -24 -35.5t-21 -25.5t-25 -15t-34 -5q-17 0 -35.5 25t-41.5 66z" />
<glyph unicode="&#x1011;" horiz-adv-x="805" d="M492 145q0 -80 18 -107q14 -20 39 -20q24 0 35 17q12 18 12 76v849q0 57 -17 78q-15 23 -37 23q-19 0 -35 -19q-15 -18 -15 -56v-841zM32 662q0 236 79 346q57 81 148 81q85 0 143 -70q56 70 140 70q113 0 173 -119q61 -122 61 -316v-217q0 -255 -78 -366 q-56 -80 -149 -80q-54 0 -100 28q-11 7 -21.5 17t-21.5 23q-54 -68 -140 -68q-55 0 -99 28q-43 26 -80 101q-37 74 -46 194zM314 960q0 55 -17 78t-38 23q-18 0 -34 -19q-15 -18 -15 -56v-841q0 -80 18 -107q13 -20 38 -20q24 0 35 17q13 17 13 76v849z" />
<glyph unicode="&#x1012;" horiz-adv-x="491" d="M251 586q103 -26 143 -69q66 -72 66 -214q0 -160 -73 -236q-75 -75 -168 -75q-75 0 -132 59q-57 60 -57 175q0 81 36 122q28 30 69 30q36 0 60 -26q25 -25 25 -76q0 -53 -27 -81q-29 -27 -65 -27q-22 0 -47 12q-8 3 -13 5t-7 2q-6 -5 -6 -8q0 -71 49 -120q51 -48 104 -48 q34 0 53 16q24 22 24 48v402q0 54 -20 76q-20 21 -53 21q-17 0 -37 -7q-14 -6 -18 -6h-4.5t-4.5 1l-49 15l-6 4l6 5l49 21l7 1q8 0 28 -7q21 -6 35 -6q27 0 39 12q21 19 21 43v378q0 23 -13 36q-14 11 -37 11q-60 0 -112 -46q-50 -46 -50 -107q0 -6 8 -11q7 0 28 10 q25 11 44 11q31 0 54 -23q24 -23 24 -65t-25 -67q-26 -23 -63 -23q-38 0 -64 28q-27 30 -27 96q0 106 54 160q56 53 137 53q85 0 145 -63q62 -61 62 -182q0 -111 -47 -171q-47 -59 -145 -89z" />
<glyph unicode="&#x1013;" horiz-adv-x="538" d="M32 467v196q0 236 79 345q57 81 148 81q113 0 173 -119q61 -118 61 -315v-218q0 -255 -78 -366q-56 -80 -149 -80q-55 0 -99 28q-43 27 -80 101q-37 76 -46 194q-9 121 -9 153zM210 270v-125q0 -79 18 -107q14 -20 38 -20q23 0 35 17q13 17 13 76v159h-104zM314 960 q0 55 -17 78q-16 23 -38 23q-19 0 -34 -19q-15 -18 -15 -56v-675h104v649z" />
<glyph unicode="&#x1014;" horiz-adv-x="547" d="M78 457q0 7 3 10q3 4 9 4t9 -4q2 -2 5 -32q12 -195 66 -324q19 -48 41.5 -70t48.5 -24q30 -3 53.5 4.5t34.5 20.5q21 25 21 74q0 54 -24 134q-12 40 -37 101t-63 145q-37 85 -61.5 144.5t-35.5 96.5q-21 75 -21 131q0 92 51 149t118 57q58 0 116 -55q15 9 45 39 q16 15 23 15q3 0 7 -2q3 -5 3 -9v-423q0 -5 -4 -11q-6 -4 -9 -4q-6 0 -9 5q-4 7 -5 30q-13 184 -56 301q-32 80 -81 80q-29 0 -48 -21q-18 -21 -18 -57q0 -93 119 -330q40 -79 67.5 -141.5t41.5 -110.5q29 -96 29 -166q0 -109 -56 -174q-57 -64 -130 -64q-9 0 -31.5 -2 t-42.5 5v-397l24 -2q5 -3 5 -11q0 -6 -10 -13h-238q-10 7 -10 13q0 5 10 13h40v875z" />
<glyph unicode="&#x1015;" horiz-adv-x="601" d="M315 1050q-5 3 -5 11q0 7 10 13h237q10 -6 10 -13q0 -6 -10 -13h-39v-821l-179 -227v80q-35 -53 -66 -73q-32 -19 -79 -19q-54 0 -83 23q-15 11 -32 34.5t-17 49.5v953h-22l-6 3q-3 4 -3 10q0 7 9 13h225q8 -6 8 -13t-8 -13h-27v-953q0 -26 9 -38t21 -12q20 0 37 25 q34 52 34 115v863z" />
<glyph unicode="&#x1016;" horiz-adv-x="582" d="M359 838v213h-26q-2 -13 -5 -34t-3.5 -44.5t1.5 -47.5t10 -43q6 -14 10.5 -24t12.5 -20zM77 1051h-37q-9 6 -9 12t9 14h217v-1005q0 -11 5 -18q7 -6 17 -6q23 0 45 32q33 48 35 122v518q-17 20 -28.5 51t-21.5 67q-9 32 -10 72t1 75q3 40 9 82l1.5 3l1.5 3q3 4 8 4h219 v-860l-180 -214v80q-33 -51 -66 -72q-33 -20 -79 -20q-68 0 -103 35q-34 37 -34 96v929z" />
<glyph unicode="&#x1017;" horiz-adv-x="577" d="M257 741v-659q0 -11 5 -18q7 -6 17 -6q23 0 45 32q33 48 35 122v586q-22 -60 -29.5 -123t-2.5 -135l-41 -1zM77 1061h-37q-9 6 -9 12t9 14h217v-166l47 -256q-2 50 1.5 100t10.5 95t18 84t25 68v3l180 72v-860l-180 -214v80q-33 -51 -66 -72q-33 -20 -79 -20 q-68 0 -103 35q-34 37 -34 96v929z" />
<glyph unicode="&#x1018;" horiz-adv-x="802" d="M391 70q-24 -35 -52.5 -57t-67.5 -22q-58 0 -93.5 12t-56.5 35.5t-32.5 57t-22.5 76.5q-25 90 -25 221v66q0 16 5 21q3 6 8 6l8 -6q5 -7 5 -21v-56q0 -75 10 -142t30 -125q18 -56 52 -87q34 -29 69 -29q27 0 44 20q16 20 16 75v883q0 42 -10 53q-10 13 -34 13 q-38 0 -69 -36q-33 -34 -66 -151q-33 -116 -39 -190q-5 -46 -6 -49q-3 -6 -10 -6q-6 0 -9 5q-4 3 -4 11v428l1 10l6 2q7 0 31 -29q11 -14 24.5 -27t28.5 -25q45 81 116 81q80 0 136 -81q14 -20 24.5 -44t20.5 -53l37 96q35 53 66 73q29 19 79 19q55 0 84 -23 q7 -6 15.5 -14.5t16 -20t12.5 -24t5 -25.5v-953h22l6 -3q3 -5 3 -10q0 -6 -9 -13h-226q-8 6 -8 13t8 13h27v953q0 29 -9 38q-9 12 -21 12q-19 0 -37 -25q-34 -54 -34 -114v-329v-28.5t-0.5 -42.5t-1 -41t-0.5 -25q-4 -54 -9.5 -109t-14 -104t-20.5 -89t-29 -64z" />
<glyph unicode="&#x1019;" horiz-adv-x="571" d="M256 529v-462q0 -12 6 -18t17 -6q22 0 44 32q35 50 35 122v332h-102zM77 1046h-37q-9 6 -9 12t9 14h216v-517h102v491h-39q-5 0 -8 3q-2 4 -2 10q0 5 2 9q3 4 8 4h219v-860l-180 -214v80q-32 -51 -66 -72q-17 -11 -36.5 -15.5t-42.5 -4.5q-68 0 -102 35t-34 96v929z" />
<glyph unicode="&#x101a;" horiz-adv-x="882" d="M249 184q0 -61 34 -114q18 -25 37 -25q12 0 21 12q9 10 9 38v953h-27q-8 6 -8 13t8 13h226q9 -8 9 -13q0 -7 -3 -10l-6 -3h-23v-824q0 -94 35 -149q21 -32 43 -32q9 0 18 10q9 9 9 27v968h-21q-10 6 -10 13q0 6 10 13h232q3 0 5.5 -1t5.5 -3l3 -9q0 -6 -4 -9 q-4 -4 -10 -4h-33v-931q0 -61 -34 -95q-33 -35 -104 -35q-51 0 -82 23q-16 11 -31 32t-32 53q-20 -63 -48 -84q-29 -24 -84 -24q-47 0 -79 19q-29 19 -66 74v-81l-179 226v823h-39q-10 6 -10 13q0 6 10 13h237q10 -7 10 -13q0 -9 -5 -11l-24 -2v-864z" />
<glyph unicode="&#x101b;" horiz-adv-x="581" d="M350 292v650q0 64 -20 90q-11 13 -22.5 18.5t-28.5 7.5h-6q-24 0 -39.5 -14t-32.5 -34q-24 -28 -38.5 -92t-22.5 -145.5t-11 -170t-3 -164.5q0 -42 0.5 -78t1.5 -62.5t2 -41.5t1 -16q3 -5 8 -5t22 14q28 23 50 23q30 0 59 -38q29 -35 29 -103q0 -66 -26 -98 q-24 -32 -60 -32q-45 0 -77 43q-11 15 -20 29t-17.5 31.5t-15.5 39t-14 50.5q-19 82 -29 168t-10 172q0 69 7 135.5t21 127t35 113.5t50 95q30 45 70.5 61.5t94.5 16.5q52 0 90 -18.5t71 -56.5q65 -76 65 -228v-32.5v-72v-91.5v-91.5t-0.5 -71.5t-0.5 -32v-71.5t-0.5 -109.5 t-1 -133.5t-0.5 -142.5q-1 -166 -1 -362l27 30q11 40 14 62t3 32q0 7 2 9l4 2l4 -2q2 -1 2 -4v-142h-273q-3 0 -5 1q-1 2 -1 6q0 3 1 4q2 2 5 2h32v314q0 75 1 143.5t1.5 123.5t1.5 92.5t1 48.5z" />
<glyph unicode="&#x101c;" horiz-adv-x="892" d="M515 340q0 -23 2 -53t7.5 -62.5t14 -65t22.5 -60.5q5 -10 11.5 -21t15 -19t18 -12t20.5 1q16 7 23 22t7 28v953h-27q-8 8 -8 13q0 7 8 13h226q9 -6 9 -13q0 -6 -3 -9l-6 -4h-22v-866q0 -31 -11.5 -65t-30.5 -62.5t-43 -47.5t-48 -19t-53.5 3t-58.5 19q-27 15 -43 31.5 t-32 42.5v-81l-181 175v755q0 67 -20 90q-10 14 -21.5 15t-28.5 3q-14 1 -38 -9t-41 -30q-18 -22 -31 -66t-21.5 -102t-13 -124.5t-6.5 -133t-2.5 -128t0.5 -109.5t2.5 -77t2.5 -30q3 -5 8 -5q6 0 22 13q28 23 50 23q31 0 59 -37q29 -37 29 -103t-26 -98q-25 -32 -60 -32 q-46 0 -77 43q-21 29 -37 72t-23 95q-14 100 -22.5 211t-4.5 217.5t25.5 201.5t68.5 164q30 44 70 61t94 16q53 0 91 -18.5t70 -56.5q66 -75 66 -228v-42.5t-0.5 -101t-1 -138t-0.5 -152.5z" />
<glyph unicode="&#x101d;" horiz-adv-x="533" d="M32 466v196q0 236 79 346q57 81 148 81q113 0 173 -119q61 -119 61 -316v-217q0 -255 -78 -366q-55 -80 -149 -80q-55 0 -99 28q-43 26 -80 101q-37 74 -46 194q-9 121 -9 152zM314 960q0 55 -17 78t-38 23q-18 0 -34 -19q-15 -18 -15 -56v-841q0 -80 18 -107 q13 -20 38 -20q24 0 35 17q13 17 13 76v849z" />
<glyph unicode="&#x101e;" horiz-adv-x="788" d="M445 277q0 -72 16 -124.5t30 -75.5q18 -25 37 -25q13 0 22 11q9 12 9 39v950h-27q-8 5 -8 13t8 13h225q9 -8 9 -13q0 -6 -3 -10l-6 -3h-22l6 -882q0 -34 -6 -60t-14.5 -44.5t-18 -30.5t-16.5 -17q-7 -6 -28.5 -10.5t-48.5 -5.5t-56.5 4.5t-51.5 20.5q-20 13 -34.5 35 t-25.5 45q-12 26 -21 55q-8 -24 -17.5 -43.5t-20.5 -36.5q-25 -35 -53 -57t-67 -22q-46 0 -79.5 7t-57.5 26.5t-40 55t-28 92.5q-26 92 -26 221v66q0 13 5 21q3 6 8 6l8 -6q5 -6 5 -21v-56q0 -149 40 -267q20 -58 52 -87t69 -29q30 0 44 20q16 20 16 75v883q0 42 -10 53 q-10 13 -34 13q-36 0 -69 -36t-66 -151t-39 -191q-3 -44 -6 -49t-10 -5q-3 0 -9 4q-4 6 -4 11v429l2 10l5 2q8 0 31 -29q25 -29 53 -52q46 81 116 81q81 0 137 -81q80 -121 80 -380v-191q0 -48 -2.5 -90.5t-7.5 -80.5z" />
<glyph unicode="&#x101f;" horiz-adv-x="1029" d="M77 1051h-37q-9 6 -9 12t9 14h217v-1005q0 -11 5 -18q7 -6 17 -6q23 0 45 32q33 48 35 122v849h-39q-5 0 -8 3q-2 2 -2 10q0 7 2 9q3 4 8 4h219v-194q18 63 47 103q13 19 27.5 37.5t36 33.5t52.5 24.5t77 9.5q88 0 145 -80q73 -106 73 -366v-192q0 -260 -80 -379 q-14 -20 -24.5 -35.5t-21.5 -25.5t-25 -15t-34 -5q-17 0 -35 25t-41 66q-16 -12 -29 -25t-25 -27q-23 -29 -31 -29l-5 2l-2 10v428q0 7 4 11q5 5 10 5t10 -6q2 -4 5 -48q6 -77 40 -191q17 -58 33.5 -91.5t32.5 -59.5q10 -20 18 -30t13 -3q10 11 10 53v883q0 55 -16 75 q-15 20 -44 20q-38 0 -69.5 -17.5t-55 -41.5t-38 -49t-19.5 -39q-35 -101 -39 -227v-470l-180 -214v80q-33 -51 -66 -72q-33 -20 -79 -20q-68 0 -103 35q-34 37 -34 96v929z" />
<glyph unicode="&#x1020;" horiz-adv-x="544" d="M84 -417v346q0 3 9 8t20 10.5t20.5 9t12.5 3.5q43 -33 125 -33q84 0 135 38q11 8 18 28t7 44q0 15 -3 30q-52 -73 -132 -73q-89 0 -144 80q-73 104 -73 366v191q0 259 80 380q55 81 136 81q71 0 116 -81q15 12 28.5 25t24.5 27q24 29 31 29l5 -2l2 -10v-429q0 -7 -4 -11 t-9 -4q-7 0 -10 5q-2 5 -6 50q-6 74 -39 190t-65 151q-33 36 -70 36q-23 0 -34 -13q-10 -11 -10 -53v-883q0 -55 16 -75t44 -20q35 0 69 29q18 15 34 44l2 3q8 16 16 40q40 114 40 267v56q0 14 5 21l8 6q5 0 8 -6q5 -5 5 -21v-66q0 -173 -43 -274q4 -10 5 -21t1 -23 q0 -23 -4.5 -46t-12 -43t-16 -35t-16.5 -22q-55 -50 -152 -50q-4 0 -7.5 0.5t-6.5 0.5v-301h25q10 0 27 8.5t58 20.5h2q5 0 6.5 -2.5t3.5 -5.5q15 -21 40 -21q16 0 29.5 3.5t27.5 19.5q14 15 18 30t4 31q0 8 -3 13q-3 3 -7 3q-6 0 -17 -4t-20 -4q-21 0 -37 21q-16 22 -16 61 q0 42 17 65t39 23q13 0 28.5 -7.5t26.5 -21.5q20 -31 20 -95q0 -39 -8.5 -70t-27.5 -54q-19 -21 -43 -30.5t-53 -10.5h-6h-336q-18 0 -18 13q0 5 5 9.5t13 4.5h36z" />
<glyph unicode="&#x1021;" horiz-adv-x="898" d="M241 586q103 -26 143 -69q66 -72 66 -214q0 -160 -73 -236q-75 -75 -168 -75q-75 0 -132 59q-57 60 -57 175q0 81 36 122q28 30 69 30q36 0 60 -26q25 -25 25 -76q0 -53 -27 -81q-29 -27 -65 -27q-20 0 -47 11q-16 8 -20 8q-6 -5 -6 -8q0 -71 49 -120t104 -49q33 0 53 17 q24 21 24 48v402q0 53 -20 76q-20 21 -53 21q-17 0 -37 -7q-14 -6 -18 -6h-4.5t-4.5 1l-49 15l-6 4l6 5l49 21l7 1q8 0 28 -7q21 -6 35 -6q25 0 39 12q21 19 21 43v378q0 23 -13 36q-14 11 -37 11q-60 0 -112 -46q-50 -46 -50 -107q0 -6 8 -11q7 0 28 10q25 11 44 11 q31 0 54 -23q24 -23 24 -66q0 -41 -25 -66q-26 -23 -63 -23q-38 0 -64 28q-27 28 -27 96q0 106 54 160q56 53 137 53q85 0 145 -63q44 -44 57 -115q15 42 37 73q13 19 27.5 37.5t36 33.5t52.5 24.5t77 9.5q88 0 145 -80q73 -106 73 -367v-191q0 -260 -80 -379 q-14 -20 -24.5 -35.5t-21.5 -25.5t-25 -15t-34 -5q-17 0 -35 25t-41 66q-16 -12 -29 -25t-25 -27q-23 -29 -31 -29l-5 2l-2 10v428q0 7 4 11t10 4t10 -5q2 -4 5 -49q4 -38 13.5 -85t26.5 -105t33.5 -91.5t32.5 -59.5q10 -20 18 -30t13 -3q11 13 11 53v883q0 53 -17 75 q-15 20 -44 20q-38 0 -69.5 -17.5t-55 -41.5t-38 -49t-19.5 -39q-15 -44 -24 -93q-6 -93 -47 -146q-45 -58 -145 -89z" />
<glyph unicode="&#x1022;" horiz-adv-x="894" d="M636 891q0 32 -8.5 60t-25.5 54q-18 25 -37 25q-12 0 -22 -12q-9 -11 -9 -38v-953h27q8 -5 8 -13t-8 -13h-225q-9 7 -9 13q0 7 3 10l6 3h22v824q0 96 -34 148q-21 33 -43 33q-9 0 -18 -10q-9 -9 -9 -27v-521l51 -216q0 -15 1 -44t-1 -61t-8 -62t-19 -47q-56 -69 -122 -69 q-49 0 -87 41q-38 39 -38 99q0 48 24 77q23 29 53 29q29 0 50 -22q20 -22 20 -61q0 -43 -22 -68q-22 -23 -66 -25q9 -19 26 -30q14 -10 37 -10q30 0 58 31q26 31 26 81q0 10 -7 29t-17.5 42.5t-24 50t-27 52t-24.5 48.5t-18 39q-10 24 -18 40.5t-13.5 28.5t-8.5 22t-3 21 v468q0 62 34 95q33 34 104 34q53 0 82 -22q30 -21 62 -85q21 63 49 84q27 23 83 23q51 0 79 -19q30 -17 67 -73v80l179 -226v-822h39q10 -8 10 -13t-10 -13h-237q-10 7 -10 13q0 8 5 11l24 2v864z" />
<glyph unicode="&#x1023;" horiz-adv-x="893" d="M260 25l24 -2q5 -3 5 -11q0 -7 -10 -13h-237q-10 6 -10 13q0 6 10 13h39v822l179 226v-80q35 53 66 73q29 19 79 19q55 0 83 -23q30 -24 49 -84q33 63 62 85t82 22q71 0 105 -34t34 -95v-931h32q5 0 11 -4q4 -4 4 -9l-3 -9q-5 -4 -12 -4h-232q-10 7 -10 13q0 5 10 13h21 v968q0 16 -9 27q-7 10 -18 10q-22 0 -43 -33q-34 -56 -34 -148v-824h22l6 -3q3 -5 3 -10q0 -7 -9 -13h-225q-8 6 -8 13t8 13h27v953q0 27 -9 38q-9 12 -21 12q-21 0 -37 -25q-34 -52 -34 -114v-864zM260 -372l24 -2q5 -3 5 -11q0 -6 -10 -13h-237q-10 7 -10 13q0 7 10 13h39 v193l179 142v-80q37 56 66 73q29 19 79 19q57 0 83 -23q30 -22 49 -84q33 63 62 85t82 22q71 0 105 -34t34 -95v-111l-1 -98q0 -43 12 -59q9 -12 24 -12q34 0 61 39q28 43 36 122q2 7 7 10.5t10 2t8.5 -7.5t2.5 -16q-12 -92 -47 -137q-54 -70 -134 -70q-74 0 -110 41 q-48 55 -48 156v113v64q0 16 -9 27q-7 10 -18 10q-22 0 -43 -33q-34 -54 -34 -148v-111h22l6 -3q3 -5 3 -10q0 -6 -9 -13h-225q-8 6 -8 13t8 13h27v240q0 27 -9 38q-9 12 -21 12q-21 0 -37 -25q-34 -52 -34 -114v-151z" />
<glyph unicode="&#x1024;" horiz-adv-x="1157" d="M847 1142l235 -94v-1469h62q5 0 9 -4q3 -3 3 -9q0 -5 -1 -6.5t-3 -3.5q-3 -3 -9 -3h-245v1501l-262 109q-4 20 -6 47.5t-2 47.5q0 140 75 242q29 38 67 60t85 29h36l7 1q46 0 83.5 -18t69.5 -50q68 -68 68 -173q0 -73 -25 -104q-24 -30 -61 -30q-34 0 -58 24 q-23 23 -23 63q0 39 23 63q24 26 51 26q5 0 11.5 -0.5t14.5 -1.5l14 -2q7 0 10 3q3 4 3 14q0 60 -54 110q-53 49 -145 52l-25 -3q-54 -13 -85 -52q-29 -38 -29 -95q0 -59 26 -126q13 -33 33.5 -71.5t46.5 -76.5zM260 24l24 -2q5 -3 5 -11q0 -6 -10 -13h-237q-10 7 -10 13 q0 7 10 13h39v823l179 225v-80q37 56 66 73q29 19 79 19q57 0 83 -23q30 -22 49 -84q17 32 32 53t30 32q29 22 82 22q71 0 105 -34t34 -95v-1401h-529l-10 -1q-48 2 -87 17.5t-71 47.5q-66 69 -66 184q0 98 36 143q35 44 79 44q38 0 65 -34q27 -35 27 -98q0 -62 -27 -93 q-25 -31 -61 -31q-13 0 -34 6q-18 6 -29 6q-5 0 -12 -5q-5 -8 -5 -19q0 -49 47 -96q49 -46 102 -46q6 0 17 2.5t22.5 7t20 10.5t8.5 13l7 7t9 3q34 -10 77 -18t83 -13.5t71 -8.5t40 -3h42v1413q-2 19 -10 27q-7 10 -18 10q-22 0 -43 -33q-34 -54 -34 -148v-824h22l6 -3 q3 -3 3 -10q0 -6 -9 -13h-225q-8 6 -8 13t8 13h27v953q0 27 -9 38q-9 12 -21 12q-21 0 -37 -25q-34 -50 -34 -114v-864z" />
<glyph unicode="&#x1025;" horiz-adv-x="577" d="M154 1007q51 81 131 81q91 0 153 -81q91 -118 91 -379v-191q0 -261 -83 -367q-63 -80 -162 -80q-41 0 -75 15v-422q54 2 102 14q20 5 40.5 13.5t38.5 21t32 29t22 39.5q10 30 16.5 70t10.5 78.5t6 68.5t2 40q0 13 3 18l8 3l9 -3q4 -6 4 -9l-8 -409h-492q-6 0 -9 3 q-3 4 -3 10t3 9q3 4 9 4h42l5 899l159 84v-455q0 -21 5.5 -37.5t14 -28.5t17.5 -18.5t16 -6.5q32 0 50 20q18 21 18 75v883q0 40 -11 53q-12 13 -39 13q-42 0 -78 -36q-36 -33 -74 -151q-38 -116 -44 -190q-6 -47 -7 -49q-3 -5 -11 -5q-7 0 -11 4t-4 11v428l2 10l6 2 q9 0 35 -29q13 -14 28 -27t32 -25z" />
<glyph unicode="&#x1026;" horiz-adv-x="570" d="M154 1007q51 81 131 81q91 0 153 -81q91 -118 91 -379v-191q0 -261 -83 -367q-63 -80 -162 -80q-41 0 -75 15v-422q56 -4 104 6q20 4 41 11t39 18.5t32 27.5t22 39q10 30 16 72.5t9.5 83.5t5 73.5t1.5 42.5q0 13 3 18l8 3l9 -3q4 -6 4 -9l-8 -409h-492q-6 0 -9 3 q-3 4 -3 10t3 9q3 4 9 4h42l5 899l159 84v-455q0 -21 5.5 -37.5t14 -28.5t17.5 -18.5t16 -6.5q32 0 50 20q18 21 18 75v883q0 40 -11 53q-12 13 -39 13q-42 0 -78 -36q-36 -33 -74 -151q-38 -116 -44 -190q-6 -47 -7 -49q-3 -5 -11 -5q-7 0 -11 4t-4 11v428l2 10l6 2 q9 0 35 -29q13 -14 28 -27t32 -25zM51 1288q0 56 16.5 98t62.5 74q18 13 35 19t34.5 8t36.5 2h42h51.5t44 -4t39.5 -12.5t38 -26.5q36 -32 48.5 -68.5t12.5 -85.5q0 -56 -16.5 -98t-61.5 -74q-18 -13 -35 -19t-34.5 -8.5t-37 -2t-42.5 0.5q-56 0 -99 10q-22 5 -41 12.5 t-39 24.5q-36 30 -46 66t-9 84zM229 1231v-76q0 -26 18 -35q16 -7 38 -7q23 0 35 6q13 6 13 25v87h-104zM333 1425q0 18 -17 26q-18 8 -38 8q-19 0 -34 -6t-15 -19v-177h104v168z" />
<glyph unicode="&#x1027;" horiz-adv-x="542" d="M323 650v346q0 39 -16 61q-12 15 -34 15q-23 0 -39 -19q-16 -17 -16 -57v-346h105zM321 435h-106v-346q0 -38 17 -57q16 -19 39 -19q22 0 34 15q16 22 16 61v346zM38 439q-1 15 -1.5 30t-0.5 31v146q0 236 89 360q64 88 154 88q107 0 165 -112q59 -113 59 -274l-180 -85 h-105v-161h104l180 -86q0 -160 -59 -273q-57 -112 -165 -112q-90 0 -153 87q-87 119 -87 340v21z" />
<glyph unicode="&#x1028;" horiz-adv-x="576" d="M489 386q-4 -3 -19.5 -14t-32 -23.5t-30 -23l-13.5 -10.5q-14 -7 -27 -7q-17 0 -25.5 11.5t-8.5 28.5q0 5 2 15q5 28 10.5 59t10 59t7.5 48t3 26q0 5 0.5 9t0.5 8q0 29 -10 51q-12 25 -36 30q-8 2 -11 2q-8 0 -15 -5q-10 -6 -14 -24q3 0 5 -0.5t4 -0.5q20 -5 31 -26 q9 -17 9 -42v-7q-1 -25 -14 -39q-9 -10 -20 -10q-5 0 -8 1q-17 3 -28 28q-10 22 -10 47q0 4 0.5 7t0.5 7q3 43 24 65q16 17 38 17h6.5t6.5 -1q39 -10 61 -65q7 -17 7 -39q0 -36 -10.5 -81.5t-11.5 -91.5q2 -26 14 -26q5 0 11 4.5t12 15.5q0 18 0.5 35.5t0.5 34.5 q0 147 -10 253.5t-22.5 176.5t-24.5 105t-15 38q-7 9 -21.5 19.5t-25.5 10.5q-23 0 -34 -14q-20 -25 -20 -50v-1328q0 -48 18 -69q18 -20 54 -20q53 0 96 40t43 74q0 6 -3 9q-2 3 -6 3q-1 0 -11 -2q-14 -3 -25 -3q-41 0 -71 36q-31 35 -31 106q0 73 31 110q31 38 73 38 q39 0 72 -42t33 -123q0 -121 -72 -205q-54 -65 -134 -65q-107 0 -171 91q-93 133 -93 417v535q0 220 64 352q64 134 183 134q60 0 107.5 -24.5t80.5 -87.5t47.5 -121t16.5 -128v-27q0 -36 -2 -85t-7.5 -95.5t-15.5 -83.5t-25 -48z" />
<glyph unicode="&#x1029;" horiz-adv-x="1222" d="M879 274q-1 -72 15.5 -119.5t30.5 -70.5q18 -25 37 -25q12 0 21 12q9 10 9 38v953h-27q-8 6 -8 13t8 13h226q9 -8 9 -13q0 -6 -3 -10l-6 -3h-22v-953q-21 -62 -49 -84q-29 -23 -84 -23q-50 0 -79 19q-31 20 -66 73l-37 66q-8 -24 -17.5 -44t-21.5 -37q-24 -35 -52 -57 t-67 -22q-59 0 -94 12t-56 35t-33 56.5t-23 77.5q-25 88 -25 221v66q0 14 5 21q3 6 8 6l8 -6q5 -7 5 -21v-56q0 -75 10 -142t30 -125t52 -87q34 -29 69 -29q30 0 44 20q16 20 16 75v883q0 42 -10 53q-9 13 -34 13q-38 0 -69 -36q-33 -34 -66 -151q-33 -116 -39 -190 q-4 -46 -6 -49q-3 -6 -10 -6q-4 0 -9 5q-4 3 -4 10v429l2 10l5 2q8 0 31 -29q11 -14 24.5 -27t28.5 -25q46 81 116 81q82 0 136 -81q80 -119 80 -379v-192q0 -96 -9 -171zM939 -443h-885q-6 0 -9 3q-3 4 -3 10t3 9q4 4 9 4h62v1882h-62q-11 7 -11 12q0 6 11 13h838 q45 0 77 -8t54.5 -20t36 -25.5t19.5 -24.5q30 23 53 52q24 29 31 29l6 -2l2 -10v-327q0 -6 -5 -11q-4 -4 -9 -4q-7 0 -10 5q-2 5 -6 49q0 70 -29.5 129t-79.5 100q-17 13 -32.5 21.5t-31.5 13.5t-35 6.5t-44 1.5h-588v-1882h42q6 0 44 2.5t92.5 6t118.5 8.5t123.5 9.5t107 9 t68.5 7.5q9 2 12.5 -2.5t7.5 -9.5q25 -31 68 -31q54 0 101 46q48 46 48 96q0 11 -6 19q-5 5 -11 5q-11 0 -29 -6q-21 -6 -34 -6q-37 0 -62 31q-27 31 -27 93q0 63 27 98q28 34 66 34q44 0 80 -44q34 -45 34 -143q0 -116 -65 -184q-32 -32 -71.5 -47.5t-87.5 -17.5h-9z" />
<glyph unicode="&#x102a;" horiz-adv-x="2188" d="M1340 269q0 -69 16 -116t30 -69q18 -25 37 -25q12 0 21 12q9 10 9 38v953h-27q-8 6 -8 13t8 13h226q9 -8 9 -13q0 -6 -3 -10l-6 -3h-22v-953q-21 -62 -49 -84q-29 -23 -84 -23q-50 0 -79 19q-31 20 -66 73l-37 66q-8 -24 -17.5 -44t-21.5 -37q-24 -35 -52 -57t-67 -22 q-59 0 -94 12t-56.5 35t-33 56.5t-23.5 77.5q-24 90 -24 221v66q0 14 5 21q3 6 8 6l8 -6q5 -7 5 -21v-56q0 -75 10 -142t30 -125t52 -87q34 -29 69 -29q30 0 44 20q16 20 16 75v883q0 42 -10 53q-9 13 -34 13q-37 0 -70 -36q-32 -35 -65 -151t-39 -190q-4 -46 -6 -49 q-3 -6 -10 -6q-4 0 -9 5q-4 3 -4 10v429l2 10l5 2q8 0 31 -29q11 -14 24.5 -27t28.5 -25q46 81 116 81q82 0 136 -81q80 -119 80 -379v-192q0 -96 -9 -171v-5zM1400 -443h-885q-6 0 -9 3q-3 4 -3 10t3 9q4 4 9 4h62v1882h-62q-11 7 -11 12q0 6 11 13h838q45 0 77 -8 t54.5 -20t36 -25.5t19.5 -24.5q30 23 53 52q24 29 31 29l6 -2l2 -10v-327q0 -6 -5 -11q-4 -4 -9 -4q-7 0 -10 5q-2 5 -6 49q0 70 -29.5 129t-79.5 99q-17 14 -32.5 22.5t-31.5 13.5t-35 6.5t-44 1.5h-588v-1882h42q6 0 44 2.5t92.5 6t118.5 8.5t123.5 9.5t107 9t68.5 7.5h4 q6 0 9 -3t6 -7q0 -7 8.5 -13t20 -10.5t23 -7t17.5 -2.5q54 0 101 46q48 46 48 96q0 11 -6 19q-5 5 -11 5q-11 0 -29 -6q-21 -6 -34 -6q-37 0 -62 31q-27 31 -27 93q0 63 27 98q28 34 66 34q44 0 79 -44t35 -143q0 -116 -65 -184q-32 -32 -71.5 -47.5t-87.5 -17.5h-9z M1887 92q-15 -12 -28.5 -25t-24.5 -27q-22 -29 -31 -29l-5 2l-2 10v428q0 8 4 11q4 4 9 4q7 0 10 -5q2 -2 3 -14t3 -35q6 -74 39 -190q16 -57 32 -89.5t31 -58.5l2 -3q9 -16 16.5 -26t12.5 -10q2 0 4 3q10 11 10 53v883q0 55 -16 75q-17 20 -44 20q-38 0 -69.5 -17.5 t-55 -41.5t-38.5 -48.5t-20 -39.5q-39 -116 -39 -267v-56q0 -14 -5 -21l-8 -6q-5 0 -8 6q-5 5 -5 21v66q0 224 74 329q13 19 27.5 37.5t36 33.5t52.5 24.5t77 9.5q88 0 144 -80q73 -104 73 -367v-191q0 -262 -80 -379l-9 -14q-11 -17 -20.5 -29.5t-20 -21t-23.5 -12.5 t-31 -4q-17 0 -35.5 25t-41.5 66zM219 554v373q0 86 20 115q15 21 49 21q56 0 100 -63q74 -107 78 -290q1 -57 5 -68q6 -8 13 -8t11 6q5 7 5 39q0 177 -63 300q-61 121 -168 121q-100 0 -164 -93q-65 -95 -65 -407v-147q0 -239 88 -363q63 -88 152 -88q106 0 163 113 q58 112 58 275v164h-282zM323 527v-426q0 -42 -16 -62q-11 -15 -33 -15q-23 0 -39 19t-16 58v426h104zM1898 1134l28 -12q9 -5 9 -12q0 -10 -12 -10h-4l-240 83q-4 20 -6 39.5t-2 39.5q0 140 75 242q56 75 152 89l36 1h7q46 0 83.5 -18t69.5 -50q68 -68 68 -173 q0 -73 -25 -104q-24 -30 -61 -30q-34 0 -58 24q-23 23 -23 63q0 39 23 63q24 26 51 26q5 0 11.5 -0.5t14.5 -1.5l13 -2q8 0 11 3q3 4 3 14q0 60 -54 110q-53 49 -145 52l-25 -3q-54 -13 -85 -52q-29 -38 -29 -95q0 -30 6.5 -61.5t18.5 -64.5q13 -33 35 -72.5t54 -87.5z" />
<glyph unicode="&#x102b;" horiz-adv-x="302" d="M72 1445q0 65 -20 90q-19 26 -51 26q-58 0 -106 -63q-67 -85 -67 -204q0 -27 4 -36q5 -5 9 -5q6 0 22 13q28 23 50 23q31 0 59 -37q29 -37 29 -103t-26 -98q-25 -32 -60 -32q-46 0 -77 43q-42 57 -42 171q0 174 71 263q72 90 163 90q96 0 161 -75q32 -38 45.5 -94.5 t13.5 -133.5v-65.5t-0.5 -147.5t-0.5 -202v-228q-1 -272 -1 -613l25 -2q5 -3 5 -11q0 -7 -11 -13h-237q-10 7 -10 13q0 5 10 13h39z" />
<glyph unicode="&#x102c;" horiz-adv-x="523" d="M185 92q-15 -12 -28.5 -25t-24.5 -27q-22 -29 -31 -29l-5 2l-2 10v428q0 8 4 11q4 4 9 4q7 0 10 -5q2 -2 3 -14t3 -35q6 -74 39 -190q17 -58 33.5 -91.5t32.5 -59.5q11 -20 19 -30t13 -3q10 11 10 53v883q0 55 -16 75q-17 20 -44 20q-39 0 -70.5 -17.5t-54.5 -41.5 t-38 -49t-19 -39q-40 -114 -40 -267v-56q0 -14 -5 -21l-8 -6q-5 0 -8 6q-5 5 -5 21v66q0 224 74 329q13 19 27.5 37.5t36 33.5t52.5 24.5t77 9.5q88 0 144 -80q73 -104 73 -367v-191q0 -262 -80 -379q-14 -20 -24.5 -35.5t-21.5 -25.5t-24.5 -15t-33.5 -5q-17 0 -35.5 25 t-41.5 66z" />
<glyph unicode="&#x102d;" d="M-482 1303q0 56 17 98t62 74q29 20 55 24.5t56 4.5h38h16q25 0 45.5 -0.5t39.5 -4.5t36.5 -13t35.5 -25q36 -32 48.5 -68.5t12.5 -85.5q0 -56 -16.5 -98t-61.5 -74q-29 -20 -54 -24.5t-56 -4.5h-39h-30q-15 0 -32.5 1t-36 4.5t-36 11t-32.5 19.5q-39 32 -53 71t-15 90z M-199 1443q0 17 -17 25q-15 7 -38 7q-19 0 -34 -6t-15 -18v-273q0 -26 18 -35q13 -7 38 -7q23 0 35 6q13 6 13 24v277z" />
<glyph unicode="&#x102e;" d="M-527 1288q0 56 16.5 98t62.5 74q18 13 35 19t34.5 8t36.5 2h42h51.5t44 -4t39.5 -12.5t38 -26.5q36 -32 48.5 -68.5t12.5 -85.5q0 -56 -16.5 -98t-61.5 -74q-18 -13 -35 -19t-34.5 -8.5t-37 -2t-42.5 0.5q-56 0 -99 10q-22 5 -41 12.5t-39 24.5q-36 30 -46 66t-9 84z M-349 1231v-76q0 -26 18 -35q16 -7 38 -7q23 0 35 6q13 6 13 25v87h-104zM-245 1425q0 18 -17 26q-18 8 -38 8q-19 0 -34 -6t-15 -19v-177h104v168z" />
<glyph unicode="&#x102f;" d="M-14 -343q29 43 37 122q2 7 7 10.5t9.5 2t8 -7.5t3.5 -16q-12 -91 -48 -137q-52 -70 -133 -70q-76 0 -110 41q-48 54 -48 156v169l178 73v-311q0 -44 12 -59q7 -12 24 -12q34 0 60 39z" />
<glyph unicode="&#x1030;" d="M21 -346q29 43 37 122q5 13 14 13q6 0 10.5 -5t4.5 -16v-3q-12 -91 -48 -137q-54 -70 -134 -70q-75 0 -110 41q-48 54 -48 156v169l178 207v-445q0 -44 12 -59q9 -12 24 -12q34 0 60 39zM-278 -416l24 -2q5 -3 5 -11q0 -7 -10 -13h-237q-10 6 -10 13q0 6 10 13h39v268 l179 139v-407z" />
<glyph unicode="&#x1031;" horiz-adv-x="533" d="M501 554v-164q0 -163 -58 -275q-57 -113 -163 -113q-89 0 -152 88q-88 124 -88 363v147q0 312 65 407q64 93 164 93q107 0 168 -121q63 -123 63 -300q0 -32 -5 -39q-4 -6 -11 -6t-13 8q-4 11 -5 68q-4 183 -78 290q-44 63 -100 63q-34 0 -49 -21q-20 -29 -20 -115v-373 h282zM219 527v-426q0 -39 16 -58t39 -19q22 0 33 15q16 20 16 62v426h-104z" />
<glyph unicode="&#x1032;" d="M-78 1249q-22 -31 -44 -55q-19 -20 -41.5 -37t-41.5 -17h-9.5t-8.5 2q-34 10 -67 36q-8 6 -10.5 7t-8 6.5t-18.5 19t-43 45.5q-84 89 -127 101q-5 2 -10 2h-10q-12 0 -24.5 -2.5t-23.5 -4.5q-12 -3 -23 -6l2 20q20 30 40 55q17 20 37.5 37.5t38.5 17.5h9.5t9.5 -2 q17 -5 28 -7.5t25.5 -12t37 -31t61.5 -64.5q84 -93 127 -105q8 -2 15 -2q13 0 27 3.5t26 8.5q14 5 27 12z" />
<glyph unicode="&#x1033;" d="M-552 1303q0 56 17 98t62 74q29 20 55 24.5t56 4.5h38h16q25 0 45.5 -0.5t39.5 -4.5t36.5 -13t35.5 -25q36 -32 48.5 -68.5t12.5 -85.5q0 -56 -16.5 -98t-61.5 -74q-29 -20 -54 -24.5t-56 -4.5h-39h-30q-15 0 -32.5 1t-36 4.5t-36 11t-32.5 19.5q-39 32 -53 71t-15 90z M-269 1443q0 17 -17 25q-15 7 -38 7q-19 0 -34 -6t-15 -18v-273q0 -26 18 -35q13 -7 38 -7q23 0 35 6q13 6 13 24v277zM-321 1381q17 0 29 -24q13 -22 13 -65q0 -42 -13 -66q-12 -24 -29 -24q-18 0 -28 21q-12 22 -12 64q0 47 12 70q12 24 28 24z" />
<glyph unicode="&#x1034;" d="M-588 1276q17 -9 35 -15q15 -5 31 -8t29 1q43 12 127 105q39 43 61.5 64.5t37 31t25.5 12t28 7.5t40 -11t45 -37q26 -25 52 -57v-23q-17 5 -34 9q-14 3 -29.5 4t-27.5 -2q-43 -12 -127 -101q-30 -32 -43 -45.5t-18.5 -19t-8 -6.5t-10.5 -7q-33 -26 -67 -36 q-19 -5 -43.5 11t-47.5 38q-26 26 -55 59v26z" />
<glyph unicode="&#x1035;" d="M-165 1292v-12q0 -15 -3.5 -37.5t-10.5 -45t-18 -42t-25 -30.5q-56 -43 -163 -43q-45 0 -83 4t-68 29q-38 32 -63 78t-25 88q0 32 4.5 55.5t13.5 41.5t21 33.5t27 30.5q36 35 74.5 46.5t87.5 11.5q105 0 168 -46q62 -47 62 -115q0 -12 -5 -14q-2 -2 -11 -2q-7 0 -13 3 q-4 4 -4 26q-3 35 -22.5 55.5t-55.5 40.5q-44 24 -100 24q-17 0 -29 -1.5t-20 -6.5q-19 -10 -19 -43v-129h280zM-445 1267v-147q0 -16 15 -23q17 -7 39 -7t33 6q16 7 16 24v147h-103z" />
<glyph unicode="&#x1036;" d="M-260 1400q40 0 66 -32q27 -30 27 -87q0 -55 -28 -88q-29 -32 -66 -32q-38 0 -63 28q-25 29 -25 85q0 65 26 94q25 32 63 32z" />
<glyph unicode="&#x1037;" d="M-260 -90q40 0 66 -32q27 -30 27 -87q0 -55 -28 -88q-29 -32 -66 -32q-38 0 -63 28q-25 29 -25 85q0 65 26 94q25 32 63 32z" />
<glyph unicode="&#x1038;" horiz-adv-x="275" d="M224 122q0 -55 -28 -88q-29 -32 -66 -32q-38 0 -63 28t-25 85v106q0 65 26 95q26 32 63 32q39 0 66 -32t27 -87v-107zM131 863q39 0 66 -32t27 -87t-28 -88q-28 -32 -66 -32t-63 28t-25 85q0 64 26 94q26 32 63 32z" />
<glyph unicode="&#x1039;" horiz-adv-x="376" d="M376 1022h-49v-1022h-57v1022h-76v-1022h-59v733q-65 6 -100.5 56t-35.5 123q0 81 39 134t121 53h217v-77z" />
<glyph unicode="&#x103a;" d="M-277 1120l28 -12q11 -5 8 -14.5t-15 -7.5l-240 83q-4 20 -6 39.5t-2 39.5q0 140 75 242q56 75 152 89l25 1q103 0 171 -68t68 -173q0 -73 -25 -104q-24 -30 -61 -30q-34 0 -58 24q-23 23 -23 63q0 39 23 63q24 26 51 26q5 0 11.5 -0.5t14.5 -1.5l13 -2q8 0 11 3 q3 4 3 14q0 60 -54 110q-53 49 -145 52l-25 -3q-54 -13 -85 -52q-29 -38 -29 -95q0 -30 6.5 -61.5t18.5 -64.5q13 -33 35 -72.5t54 -87.5z" />
<glyph unicode="&#x103b;" horiz-adv-x="291" d="M49 1050h-66q-5 0 -8 3q-3 4 -3 9q0 7 11 13h301q5 0 8 -4q4 -3 4 -8q0 -6 -4 -10q-3 -3 -8 -3h-54v-1229q0 -119 -73 -192q-18 -19 -35 -33t-35.5 -23t-41 -13.5t-51.5 -4.5q-104 0 -168 67q-65 68 -65 184q0 100 34 143q35 44 80 44q37 0 65 -34t28 -98q0 -62 -27 -93 q-25 -31 -62 -31q-15 0 -34 6q-20 6 -29 6q-6 0 -11 -5q-6 -8 -6 -19q0 -50 48 -96q47 -46 100 -46q43 0 68 31q34 41 34 119v1317z" />
<glyph unicode="&#x103c;" horiz-adv-x="367" d="M46 -432q0 6 3 9q4 4 9 4h62v1882h-62q-11 7 -11 12q0 6 11 13h510q45 0 77 -8t54.5 -20t36 -25.5t19.5 -24.5q15 12 28.5 25t24.5 27q24 29 31 29l5 -2l2 -10v-327q0 -7 -4 -11t-9 -4q-7 0 -10 5q-2 5 -6 49q0 70 -29.5 129t-80.5 100q-17 13 -32 21.5t-31 13.5t-35 6.5 t-44 1.5h-260v-1882h41q9 0 34 5t57 12t68 14t68 12h4q6 0 9 -3t6 -7q0 -6 6 -11t15 -9t19 -7.5t18 -4.5q15 2 29 3.5t25 3.5q29 12 57 38q23 23 32.5 46t9.5 53q-10 6 -14 7.5t-12 1.5q-18 0 -30 11.5t-19.5 29t-11 39t-4.5 41.5v14q0 22 4.5 45.5t13 42t22 30.5t31.5 12 q14 0 29.5 -11t26.5 -32q14 -27 21 -64.5t7 -72.5q0 -13 -1 -25t-3 -22q-2 -48 -17.5 -84t-32.5 -65q-16 -27 -48.5 -41t-70.5 -20q-11 -3 -22 -5t-22 -2h-56t-91 0.5t-112.5 1t-120.5 1t-115 0.5h-95h-12q-2 6 -2 9zM49 -442q-8 1 -14.5 1h-12.5t-11 -0.5t-9 -0.5h-7 q5 -1 14 -1h44q-2 0 -2 0.5t-1 0.5h-1z" />
<glyph unicode="&#x103d;" d="M-282 -57q-13 0 -23.5 -21.5t-18 -55t-12 -74t-4.5 -78.5q0 -26 2 -49.5t7 -40.5q5 -19 19 -30t33 -11h4q19 2 33.5 12t14.5 28q0 25 -1 58t-3.5 69t-6.5 70.5t-10 61.5t-14.5 44t-19.5 17zM-283 -20q13 0 33 -14t42 -38.5t45 -56t41 -66t29.5 -70t11.5 -66.5 q0 -28 -10.5 -50.5t-34.5 -37.5q-35 -22 -65.5 -25.5t-72.5 -3.5h-11h-5q-14 0 -34 0.5t-41.5 4t-44 10.5t-41.5 21q-22 16 -31.5 37t-9.5 47q0 31 12 65.5t30.5 69t41.5 65.5t45 55t41 38t29 15z" />
<glyph unicode="&#x103e;" d="M-137 -13q8 0 12 -3.5t4 -8.5t-4 -10t-12 -5l-37 -7l-56 -198l-128 -187q-19 -14 -47.5 -22t-48.5 -8q-18 0 -36 6q-44 14 -62 53q-11 22 -11 45q0 19 8 41q12 41 40 58q19 11 35 11q8 0 17 -3q22 -7 33 -29q6 -14 6 -28q0 -12 -4 -23q-11 -34 -36 -46q-14 -8 -30 -8 q-5 0 -11 1t-12 3l-14 5v-6q0 -16 8 -30q11 -15 35 -22q12 -4 26 -4q20 0 36 10q28 16 45 65q6 20 12 49.5t11 63.5q3 20 5 43.5t2.5 47t1 45t0.5 38.5v36z" />
<glyph unicode="&#x103f;" horiz-adv-x="1203" d="M445 264q0 -72 16 -124.5t30 -75.5q18 -25 37 -25q13 0 22 11q9 12 9 39v953h-27q-8 5 -8 13t8 13h225q9 -8 9 -13q0 -6 -3 -10l-6 -3h-22l5 -829q4 -12 7 -24t8 -24q4 -14 19 -39t38 -49t54.5 -41.5t70.5 -16.5q28 0 44 20t16 75v883q0 42 -10 53q-5 6 -13 -3.5 t-19 -29.5q-16 -26 -33 -60t-33 -92q-33 -114 -39 -190q-4 -44 -6 -49q-3 -5 -10 -5q-6 0 -9 4q-4 4 -4 11v429l2 10l5 2q8 0 31 -29q11 -14 24.5 -27t28.5 -26q23 42 41.5 67t34.5 25q21 0 34.5 -5t24.5 -15t21.5 -25.5t24.5 -35.5q80 -121 80 -380v-191q0 -262 -73 -366 q-55 -80 -144 -80q-47 0 -78 9.5t-52.5 24.5t-35.5 33.5t-27 36.5q-7 9 -12.5 18.5t-10.5 20.5q-5 -56 -23 -86.5t-31 -40.5q-7 -6 -28.5 -10.5t-48.5 -5.5t-56.5 4.5t-51.5 20.5q-20 13 -34.5 35t-25.5 45q-12 26 -21 55q-8 -24 -17.5 -43.5t-20.5 -36.5q-25 -35 -53 -57 t-67 -22q-46 0 -79.5 7t-57.5 26.5t-40 55t-28 92.5q-26 92 -26 221v66q0 13 5 21q3 6 8 6l8 -6q5 -6 5 -21v-56q0 -149 40 -267q20 -58 52 -87t69 -29q30 0 44 20q16 20 16 75v883q0 42 -10 53q-10 13 -34 13q-36 0 -69 -36t-66 -151t-39 -191q-3 -44 -6 -49t-10 -5 q-3 0 -9 4q-4 6 -4 11v429l2 10l5 2q8 0 31 -29q25 -29 53 -52q46 81 116 81q81 0 137 -81q80 -121 80 -380v-191q0 -48 -2.5 -90.5t-7.5 -80.5z" />
<glyph unicode="&#x1040;" horiz-adv-x="544" d="M252 1057q-12 -5 -22 -17q-15 -18 -15 -56v-841q0 -79 18 -107q8 -11 19 -16v-30q-42 4 -80 27q-44 29 -80 101q-37 76 -46 194q-9 121 -9 153v196q0 236 79 345q53 75 136 81v-30zM319 958q0 56 -17 78q-9 13 -19 19v32q101 -11 154 -119q61 -118 61 -315v-217 q0 -256 -78 -367q-52 -74 -137 -80v28q15 5 23 16q13 17 13 76v849z" />
<glyph unicode="&#x1041;" horiz-adv-x="505" d="M132 1008q46 81 116 81q82 0 136 -81q81 -120 81 -379v-192q0 -260 -74 -366q-55 -80 -144 -80q-79 0 -132 74q-74 107 -74 329v66q0 14 5 21q3 6 8 6l8 -6q5 -7 5 -21v-56q0 -75 10 -142t30 -125t52 -87q34 -29 69 -29q30 0 44 20q16 20 16 75v883q0 42 -10 53 q-9 13 -34 13q-38 0 -69 -36q-33 -34 -66 -151q-33 -116 -39 -190q-4 -46 -6 -49q-3 -6 -10 -6q-4 0 -9 5q-4 3 -4 10v429l2 10l5 2q8 0 31 -29q11 -14 24.5 -27t28.5 -25z" />
<glyph unicode="&#x1042;" horiz-adv-x="772" d="M742 1088q11 -8 11 -14q0 -5 -11 -11h-62v-1482h62q5 0 9 -4q3 -3 3 -9t-3 -10q-5 -3 -9 -3h-704l-8 409q0 5 4 9l8 4l8 -4q4 -4 4 -18q0 -10 7 -38.5t17 -64.5t22 -74t24 -68q17 -40 43.5 -65t43.5 -39q9 -6 40 -10.5t67.5 -8t69.5 -5t44 -1.5h42v1482h-53q-7 0 -10.5 4 t-3.5 8.5t3.5 8.5t11.5 4h320v0z" />
<glyph unicode="&#x1043;" horiz-adv-x="496" d="M122 1005q46 81 116 81q82 0 136 -81q81 -119 81 -379v-191q0 -261 -74 -367q-28 -42 -69 -62l112 -424h45q5 0 8 -4q4 -3 4 -9t-4 -10q-3 -3 -8 -3h-233l-137 515q-68 107 -68 321v66q0 13 5 21q3 6 8 6l8 -6q5 -6 5 -21v-56q0 -76 10 -142.5t30 -125.5q20 -58 52 -87 q34 -29 69 -29q29 0 44 20q16 20 16 75v883q0 42 -10 53q-9 13 -34 13q-36 0 -69 -36q-33 -35 -66 -151t-39 -190q-2 -23 -3 -35t-3 -14q-3 -5 -10 -5q-5 0 -9 4t-4 11v428l2 10l5 2q9 0 31 -29q24 -29 53 -52z" />
<glyph unicode="&#x1044;" horiz-adv-x="505" d="M370 1005q29 23 53 52q22 29 31 29l5 -2l2 -10v-428q0 -7 -4 -11t-9 -4q-7 0 -10 5q-2 2 -3 14t-3 35q-6 74 -39 190t-66 151q-33 36 -69 36q-25 0 -34 -13q-10 -11 -10 -53v-883q0 -55 16 -75q15 -20 44 -20q35 0 69 29q32 29 52 87q20 59 30 125.5t10 142.5v56 q0 15 5 21l8 6q5 0 8 -6q5 -8 5 -21v-66q0 -214 -68 -321l-137 -515h-233q-5 0 -8 3q-4 4 -4 10t4 9q3 4 8 4h45l112 424q-41 20 -69 62q-74 106 -74 367v191q0 260 81 379q54 81 136 81q69 0 116 -81z" />
<glyph unicode="&#x1045;" horiz-adv-x="576" d="M268 621q-3 21 -7 39q-5 15 -12 28.5t-21 17.5v-336l39 16zM298 334l-89 -40q-68 0 -116 72q-16 24 -27.5 54.5t-19.5 69.5t-12 88t-4 111q0 61 4 99t12.5 65t20.5 49.5t29 54.5q66 126 187 126q119 0 183 -134q32 -67 48 -154.5t16 -197.5v-535q0 -284 -93 -417 q-66 -91 -172 -91q-78 0 -134 65q-72 84 -72 205q0 81 33 123t72 42q43 0 74 -38q30 -38 30 -110q0 -71 -31 -106q-30 -36 -71 -36q-10 0 -25 3q-10 2 -11 2q-3 0 -6 -3t-3 -9q0 -33 43 -74q44 -40 96 -40q36 0 54 20q18 19 18 69v1328q0 27 -20 50q-11 14 -34 14 q-22 0 -36 -17q-14 -16 -14 -47v-246q21 -3 35 -17t23 -33.5t13.5 -41t6.5 -38.5v-285h-8z" />
<glyph unicode="&#x1046;" horiz-adv-x="570" d="M456 514q30 -28 52 -66t22 -97v-7q-1 -35 -5 -66.5t-11.5 -61.5t-19.5 -60t-28 -61q-33 -63 -81 -87.5t-108 -24.5q-119 0 -183 134q-32 67 -48 154.5t-16 197.5v535q0 284 94 417q64 91 170 91q79 0 135 -65q72 -84 72 -205q0 -81 -33 -123t-72 -42q-43 0 -74 38 q-30 37 -30 110q0 70 30 106q31 36 72 36q10 0 25 -3q10 -2 11 -2q3 0 6 3t3 9q0 33 -43 74q-44 40 -96 40q-37 0 -55 -20q-18 -21 -18 -69v-1328q0 -25 20 -50q11 -14 34 -14t37 17q7 8 11.5 19.5t13.5 27.5v507q-16 17 -31.5 35t-27.5 43.5t-19.5 60.5t-7.5 86 q0 100 34 143q35 44 80 44q37 0 65 -34q28 -36 28 -98t-27 -93t-62 -31q-14 0 -35 6q-18 6 -28 6q-8 0 -11 -5q-6 -6 -6 -19q0 -12 16.5 -37.5t40.5 -56t52 -61t52 -53.5z" />
<glyph unicode="&#x1047;" horiz-adv-x="544" d="M427 -396l48 -23q5 -3 5 -11q0 -7 -10 -13l-211 80q0 15 -1 36.5t-2.5 46t-3 51t-3.5 51.5q-4 59 -10 123q24 82 42 162q8 34 15.5 71t13.5 73t10 70.5t4 63.5v555q0 66 -20 90q-10 13 -21.5 18t-26.5 5q-36 0 -64 -34q-19 -24 -35 -66t-28.5 -93t-21.5 -106.5t-15 -105 t-9 -89.5t-3 -59q0 -26 5 -36q2 -5 8 -5t22 13q28 23 50 23q30 0 59 -37t29 -103t-26 -98q-26 -33 -60 -33q-45 0 -77 43q-21 29 -29 68t-17 95q-5 30 -8.5 74.5t-5 96t1 107.5t9.5 108t20.5 98t34.5 77q15 22 32.5 39t39 28.5t49.5 17t65 5.5q53 0 91 -18.5t70 -56.5 q65 -74 65 -228v-295q0 -42 -4.5 -87.5t-11 -91.5t-15.5 -90t-18 -84q-21 -93 -48 -185z" />
<glyph unicode="&#x1048;" horiz-adv-x="544" d="M213 24h26q2 13 5 34t3.5 44.5t-1.5 47t-10 43.5q-6 14 -10.5 24t-12.5 20v-213zM532 24q9 -6 9 -12q0 -7 -9 -14h-217v1005q0 11 -5 18q-8 6 -17 6q-23 0 -45 -32q-33 -48 -35 -122v-518q17 -20 28.5 -51t21.5 -67q8 -32 9.5 -72t-0.5 -75q-3 -41 -9 -82l-1.5 -3 l-1.5 -3q-3 -4 -8 -4h-219v860l180 214v-80q33 51 66 72q33 20 79 20q68 0 103 -35q34 -37 34 -96v-929h37z" />
<glyph unicode="&#x1049;" horiz-adv-x="563" d="M456 555q-24 -23 -52 -53.5t-52 -61t-40.5 -56t-16.5 -37.5q0 -13 6 -19q3 -5 11 -5q10 0 28 6q21 6 35 6q35 0 62 -31q27 -32 27 -93q0 -62 -28 -98q-28 -34 -65 -34q-45 0 -80 44q-34 43 -34 143q0 51 7.5 86t19.5 60.5t27.5 43.5t31.5 35l-12 507q0 33 -13 47 q-14 17 -37 17t-34 -14q-20 -25 -20 -50v-1328q0 -48 18 -69q18 -20 55 -20q52 0 96 40q43 41 43 74q0 6 -3 9t-6 3q-1 0 -11 -2q-15 -3 -25 -3q-41 0 -72 36q-30 36 -30 106q0 72 30 110q31 38 74 38q39 0 72 -42t33 -123q0 -121 -72 -205q-56 -65 -135 -65q-105 0 -171 91 q-93 133 -93 417v535q0 110 16 197.5t48 154.5q64 134 183 134q60 0 108 -24.5t81 -87.5t47.5 -121t16.5 -128q1 -62 -21 -102t-53 -68z" />
<glyph unicode="&#x104a;" horiz-adv-x="417" d="M254 851v-843h-153v843h153z" />
<glyph unicode="&#x104b;" horiz-adv-x="721" d="M256 849v-844h-152v844h152zM556 849v-844h-152v844h152z" />
<glyph unicode="&#x104c;" horiz-adv-x="566" d="M470 -416h36q2 0 9 -2.5t8 -8.5q0 -6 -6 -11t-11 -5h-336h-6q-29 1 -53 11t-42 32q-37 43 -37 122q0 64 20 95q21 29 47 29q18 0 29.5 -7t19 -19t10.5 -27t3 -30v-4q0 -15 -3 -30t-10 -26.5t-18.5 -19t-27.5 -7.5q-11 0 -20 4q-11 4 -18 4q-2 0 -3 -4.5t-1 -8.5 q0 -17 5.5 -31.5t19.5 -30.5t24 -20.5t25 -4.5q13 0 23 2t18 12q2 4 7 9t10 5q18 0 31 -4.5t22.5 -10.5t16 -10.5t11.5 -4.5q4 0 6 2h25v301q-2 0 -5 -0.5t-6 -0.5q-96 0 -152 50q-8 7 -16.5 22t-16 35t-12 42.5t-4.5 45.5q0 11 1 21t4 20q-43 101 -43 274v66q0 15 5 21 q3 6 8 6l8 -6q5 -8 5 -21v-56q0 -152 40 -268q18 -56 52 -87q34 -29 69 -29q27 0 44 20q16 20 16 75v883q0 42 -10 53q-10 13 -34 13q-37 0 -70 -36q-32 -36 -65 -151q-33 -114 -39 -190q-4 -44 -6 -49q-3 -5 -10 -5q-6 0 -9 4q-4 4 -4 11v428l2 10l5 2q8 0 31 -29 q24 -29 53 -52q45 81 116 81q80 0 136 -81q80 -119 80 -379v-191q0 -263 -73 -367q-56 -80 -144 -80q-79 0 -132 74l-3 5q-2 -8 -3 -15t-1 -14q0 -25 9 -45t21 -29q51 -38 135 -38q81 0 126 33l10 -3.5t21 -8.5t20.5 -10.5t9.5 -8.5l-3 -3v-343zM266 1120l28 -12 q11 -5 8 -14.5t-15 -7.5l-240 83q-4 20 -6 39.5t-2 39.5q0 140 75 242q56 75 152 89l25 1q103 0 171 -68t68 -173q0 -73 -25 -104q-24 -30 -61 -30q-34 0 -58 24q-23 23 -23 63q0 39 23 63q24 26 51 26q5 0 11.5 -0.5t14.5 -1.5l13 -2q8 0 11 3q3 4 3 14q0 60 -54 110 q-53 49 -145 52l-25 -3q-54 -13 -85 -52q-29 -38 -29 -95q0 -30 6.5 -61.5t18.5 -64.5q13 -33 35 -72.5t54 -87.5z" />
<glyph unicode="&#x104d;" horiz-adv-x="898" d="M550 1108l260 -169v-1360h62q5 0 9 -4q3 -3 3 -9q0 -5 -1.5 -6.5l-3.5 -3.5q-3 -3 -9 -3h-596h-9q-48 2 -87.5 17.5t-71.5 47.5q-65 68 -65 184q0 99 35 143t79 44q38 0 66 -34q27 -35 27 -98q0 -62 -27 -93q-25 -31 -62 -31q-13 0 -34 6q-18 6 -29 6q-6 0 -11 -5 q-6 -8 -6 -19q0 -50 48 -96q47 -46 101 -46q6 0 17.5 2.5t23 7t20 10.5t8.5 13q3 4 6 7t9 3h4q31 -5 73.5 -12t82 -14t71 -12t40.5 -5h42v1431l-271 169q-4 20 -6 39.5t-2 39.5q0 140 75 242q56 75 152 89l36 1h7q46 0 83.5 -18t69.5 -50q68 -68 68 -173q0 -37 -7 -63 t-18 -41q-24 -30 -61 -30q-34 0 -58 24q-23 23 -23 63q0 39 23 63q24 26 51 26q5 0 11.5 -0.5t14.5 -1.5l13 -2q8 0 11 3q3 4 3 14q0 61 -55 110q-52 49 -144 52l-25 -3q-54 -13 -85 -52q-29 -38 -29 -95q0 -30 6.5 -61.5t18.5 -64.5q6 -17 11 -38.5t12 -45.5t17 -49t26 -49 zM527 -240l39 -2q3 -2 5 -11q0 -6 -10 -13h-252q-10 6 -10 13q0 6 10 13h39q-1 135 -1 247v286v650q0 65 -20 90q-11 14 -22.5 19.5t-28.5 7.5q-27 2 -44 -13t-34 -35q-18 -22 -31 -66t-21 -102t-12 -124.5t-5.5 -133t-1 -128t1.5 -109.5t2.5 -77t2.5 -30q3 -5 8 -5 q6 0 22 13q28 23 50 23q31 0 59 -37q29 -35 29 -103t-26 -98q-23 -32 -60 -32q-46 0 -77 43q-21 29 -44.5 78t-34.5 107q-17 98 -24.5 206t0 211.5t32.5 196.5t72 162q30 44 70.5 61t94.5 16q52 0 90 -18.5t71 -56.5q65 -76 65 -228v-32.5v-72v-91v-91t-0.5 -71.5t-0.5 -32 v-64t-0.5 -88.5t-1 -103t-0.5 -107.5q-1 -125 -1 -268z" />
<glyph unicode="&#x104e;" horiz-adv-x="575" d="M426 1006q17 12 32 25t28 27q26 29 35 29l6 -2l2 -10v-428q0 -7 -4 -11t-11 -4q-8 0 -11 5q-1 2 -7 49q-6 74 -44 190q-37 115 -74 151q-38 36 -78 36q-27 0 -39 -13q-11 -13 -11 -53v-883q0 -54 18 -75q18 -20 50 -20q7 0 16 6.5t17 18.5t14 28.5t6 37.5v455l159 -84 v-899h67q6 0 9 -4q3 -3 3 -9t-3 -10q-3 -3 -9 -3h-226v448q-35 -15 -75 -15q-99 0 -162 80q-83 106 -83 367v191q0 261 91 379q61 81 153 81q80 0 131 -81z" />
<glyph unicode="&#x104f;" horiz-adv-x="1020" d="M319 649v346q0 39 -16 61q-12 15 -34 15q-23 0 -39 -19q-16 -17 -16 -57v-346h105zM317 434h-106v-346q0 -38 17 -57q16 -19 39 -19q22 0 34 15q16 22 16 61v346zM771 16v1027l-272 169q-4 20 -6 40t-2 40q0 140 75 242q29 38 66.5 59.5t85.5 28.5h36l7 1q46 0 83.5 -18 t69.5 -50q68 -68 68 -173q0 -73 -25 -104q-25 -30 -61 -30q-34 0 -58 24q-23 23 -23 64q0 38 23 62q24 26 51 26q5 0 11.5 -0.5t14.5 -0.5l13 -2q7 0 11 2q3 4 3 15q0 60 -54 110q-53 47 -145 52l-25 -4q-54 -13 -85 -52q-29 -38 -29 -95q0 -30 6.5 -61.5t18.5 -64.5 q6 -17 11.5 -38.5t12.5 -45.5t17 -49t26 -49l259 -169v-930h54q6 0 10 -4t4 -9l-3 -9q-5 -4 -11 -4h-238zM717 17q-9 -2 -26.5 -3t-39.5 -1q-19 0 -39.5 0.5t-39 1t-33.5 1t-23 0.5q-10 8 -10 13q0 6 10 13h21v908q0 16 -9 27q-7 10 -18 10q-8 0 -22.5 -17t-26.5 -34 q38 -100 38 -228l-180 -86h-105v-161h104l180 -86q0 -161 -58 -273t-166 -112q-90 0 -153 87q-90 124 -90 361q1 8 1 15v15v31v146q0 236 90 361q63 87 153 87q108 0 165 -112l9 -18q24 41 46 57q29 22 82 22q71 0 105 -34q33 -33 33 -95v-448v-164.5t0.5 -143.5t1 -101.5z " />
<glyph unicode="&#x1050;" horiz-adv-x="600" d="M259 27l24 -2q5 -3 5 -11q0 -7 -10 -13h-237q-10 6 -10 13q0 6 10 13h39v821l179 227v-80q35 53 66 73q32 19 79 19q54 0 83 -23q15 -11 32 -34.5t17 -49.5v-953h22l6 -3q3 -5 3 -10q0 -7 -9 -13h-225q-8 6 -8 13t8 13h27v953q0 26 -9 38t-21 12q-20 0 -37 -25 q-34 -52 -34 -115v-863zM347 430q0 -18 -3.5 -32.5t-8.5 -25.5q-11 -21 -26 -21q-17 0 -27 19q-10 20 -10 55v136q0 40 11 62q10 21 26 21t27 -21q11 -22 11 -57v-136z" />
<glyph unicode="&#x1051;" horiz-adv-x="586" d="M259 185q0 -63 34 -115q17 -25 37 -25q12 0 21 12t9 38v953h-27q-8 6 -8 13t8 13h225q9 -6 9 -13q0 -6 -3 -10l-6 -3h-22v-953q0 -26 -17 -49.5t-32 -34.5q-29 -23 -83 -23q-47 0 -79 19q-31 20 -66 73v-80l-179 227v821h-39q-10 7 -10 13q0 7 10 13h237q10 -6 10 -13 q0 -8 -5 -11l-24 -2v-863zM347 509q0 -35 -11 -57q-11 -21 -27 -21t-26 21q-11 22 -11 62v136q0 35 10 55q10 19 27 19q15 0 26 -21q5 -11 8.5 -25.5t3.5 -32.5v-136z" />
<glyph unicode="&#x1052;" horiz-adv-x="583" d="M231 10l-176 221v817h-27q-8 5 -8 13t8 13h225q9 -8 9 -13q0 -6 -3 -10l-6 -3h-22v-824q0 -96 34 -148q21 -33 43 -33q9 0 18 10q9 9 9 27v491l-51 246q0 15 -1 44t1 61t7.5 62t19.5 47q55 69 122 69q49 0 87 -41q39 -41 39 -99q0 -49 -25 -77q-23 -29 -53 -29 q-29 0 -50 22q-20 22 -20 61q0 43 22 68q22 23 66 25q-9 19 -26 30q-14 10 -37 10q-31 0 -58 -31q-26 -31 -26 -81q0 -15 14.5 -49t34 -73t39.5 -77t30 -62q20 -49 31 -84t12 -58v-438q0 -62 -34 -95q-33 -34 -104 -34q-53 0 -82 22q-30 21 -62 85v-85z" />
<glyph unicode="&#x1053;" horiz-adv-x="612" d="M243 84q0 -28 9 -38q9 -12 21 -12q21 0 37 25q34 52 34 114v858q6 16 16.5 32.5t24 30.5t28 24t29.5 14q13 4 29 4q26 0 52 -15q36 -22 50 -70q5 -22 5 -36q0 -20 -7 -35q-8 -14 -17 -23t-23 -12q-10 -2 -15 -2q-16 0 -29 9q-21 14 -29 41q-3 13 -3 25q0 20 8 33 q13 24 43 33l14 3q-10 19 -26 25q-8 3 -17 3q-12 0 -24 -3q-35 -9 -50 -39q-8 -18 -8 -37t6 -41q3 -10 19 -34.5t35.5 -57t37 -71t24.5 -77.5q1 -7 2 -35.5t1.5 -70t1 -92l1 -101t0.5 -97v-80.5v-64l-179 -226v80q-35 -53 -66 -73q-29 -19 -79 -19q-55 0 -83 23 q-29 22 -49 84v490q0 23 11 58t31 84q10 24 30 62t39.5 77t34 73t14.5 49q0 50 -26 81q-25 31 -58 31q-21 0 -37 -10q-15 -10 -26 -30q43 0 66 -25q22 -22 22 -68q0 -38 -20 -61q-21 -22 -50 -22t-53 29q-24 28 -24 77q0 59 38 99q38 41 87 41q66 0 122 -69 q9 -12 14.5 -29.5t8.5 -38t4 -42t1 -41.5t-0.5 -36.5t-0.5 -26.5l-51 -249z" />
<glyph unicode="&#x1054;" horiz-adv-x="544" d="M221 163q0 -88 20 -115q15 -21 49 -21q55 0 100 63q36 54 56 125.5t22 163.5q2 62 5 69q5 8 13 8q7 0 11 -7q5 -8 5 -37q0 -178 -63 -301q-61 -121 -168 -121q-99 0 -165 93q-64 94 -64 407v147q0 239 88 363q63 88 152 88q106 0 163 -113q58 -112 58 -275v-164h-282 v-373zM325 989q0 40 -16 62q-12 15 -33 15q-23 0 -39 -19q-16 -17 -16 -58v-426h104v426z" />
<glyph unicode="&#x1055;" horiz-adv-x="634" d="M219 537v-373q0 -22 2 -34t5 -19.5t7.5 -12.5t9.5 -12q4 -5 23.5 13t42.5 42q26 28 59 66q23 -27 45 -51q19 -20 39 -39t34 -27q28 20 43 51t22 69t8.5 81.5t3.5 89.5q0 58 5 68q5 8 13 8q6 0 11 -6q5 -10 5 -38q0 -30 0.5 -68.5t-0.5 -79.5t-6 -82t-16.5 -76t-30.5 -61 t-49 -36q-11 -4 -22.5 -0.5t-22.5 11t-21 19t-19 23.5q-21 29 -40 68q-21 -39 -40 -70q-17 -26 -34 -48t-27 -22q-98 0 -164 93q-65 95 -65 407v147q0 239 88 363q63 88 152 88q107 0 164 -113q58 -114 58 -275v-164h-283zM323 564v426q0 42 -16 62q-11 15 -33 15 q-21 0 -39 -19q-16 -19 -16 -58v-426h104z" />
<glyph unicode="&#x1056;" horiz-adv-x="603" d="M76 221v238h-27q-8 6 -8 13t8 13h225q9 -6 9 -13q0 -6 -3 -10l-6 -3h-22v-245q0 -94 34 -148q21 -33 43 -33q11 0 18 10q9 9 9 27v521l-50 246q0 15 -1 44t1 61t7.5 62t19.5 47q55 69 122 69q49 0 87 -41q38 -40 38 -99q0 -49 -24 -77q-24 -29 -53 -29t-50 22 q-20 23 -20 61q0 46 22 68q23 25 66 25q-11 20 -26 30q-16 10 -37 10q-33 0 -58 -31q-26 -31 -26 -81q0 -15 14.5 -49t34 -73t39.5 -77t30 -62q20 -49 30.5 -84t12.5 -58v-468q0 -61 -34 -95t-104 -34q-52 0 -83 22q-29 22 -62 85v-85z" />
<glyph unicode="&#x1057;" horiz-adv-x="692" d="M66 174v291h-27q-8 6 -8 13t8 13h225q9 -6 9 -13q0 -6 -3 -10l-6 -3h-22v-276q0 -16 6 -11t15.5 20t21 36.5t22.5 39.5t20.5 27t15.5 0q5 -8 19 -31t28.5 -46.5t26 -40.5t11.5 -13v427l-50 246q0 15 -1 44t1 61t7.5 62t19.5 47q54 69 122 69q49 0 87 -41q38 -40 38 -99 q0 -49 -24 -77q-24 -29 -53 -29t-50 22q-20 21 -20 61q0 46 22 68q23 25 66 25q-11 20 -26 30q-16 10 -37 10q-33 0 -58 -31q-26 -31 -26 -81q0 -15 14.5 -49t34 -73t39.5 -77t30 -62q20 -49 30.5 -84t12.5 -58v-468q0 -61 -34 -95t-105 -34q-8 0 -19.5 12t-24.5 30.5 t-26 40.5t-24.5 42t-20.5 34.5t-14 18.5t-12.5 -6t-16.5 -26t-18.5 -35t-19 -33t-17.5 -19.5t-13 4.5v-63z" />
<glyph unicode="&#x1058;" d="M-445 -230v-129q0 -33 19 -43q8 -5 20 -6.5t29 -1.5q56 0 100 24q36 20 55.5 40.5t22.5 55.5q0 22 4 26q6 3 13 3q9 0 11 -2q5 -3 5 -14q0 -68 -62 -115q-63 -46 -168 -46q-49 0 -87.5 11.5t-74.5 46.5q-15 15 -27 30.5t-21 33.5t-13.5 41.5t-4.5 55.5q0 42 25 88t63 78 q30 25 68 29t83 4q107 0 163 -43q14 -11 25 -31t18 -42.5t10.5 -44.5t3.5 -37v-12h-280zM-342 -205v147q0 17 -16 24q-11 6 -33 6t-39 -7q-15 -8 -15 -23v-147h103z" />
<glyph unicode="&#x1059;" d="M-459 -212v148q0 16 -16 24q-11 6 -33 6q-21 0 -39 -8q-16 -6 -16 -22v-148h104zM-563 -236v-96q0 -17 10.5 -33.5t21.5 -22.5q9 1 20 5.5t21.5 11t19.5 14t15 13.5q18 -15 35 -26q14 -10 28 -18t22 -8q21 11 36 38t17 62q1 22 5 26q6 3 13 3q5 0 11 -2q5 -3 5 -15 q0 -17 -9 -44t-23 -53t-30.5 -44.5t-31.5 -18.5q-11 0 -24 10.5t-25 24.5q-14 16 -28 36q-16 -20 -32 -36q-14 -14 -29.5 -24.5t-26.5 -10.5q-8 0 -24.5 4t-36 11.5t-39 18.5t-33.5 24q-18 18 -31 33t-20.5 33t-11 40.5t-3.5 54.5q0 42 21.5 87t65.5 79q37 28 71 36t80 8 q50 0 88.5 -9.5t74.5 -44.5q17 -17 28.5 -37.5t18 -41.5t9 -41t2.5 -36v-11h-281z" />
<glyph unicode="&#x105a;" horiz-adv-x="493" d="M314 -448l23 -7q2 -2 2 -3q0 -2 -5 -4l-98 23q-1 9 -2 23t-3 28q-2 16 -4 33q10 24 19 47q8 20 14 41.5t6 38.5v161q0 16 -13.5 22.5t-20.5 6.5q-21 -1 -28.5 -9.5t-12.5 -15.5q-8 -11 -14.5 -29.5t-12 -38.5t-8.5 -37.5t-3 -26.5q0 -6 2 -10q2 -2 4 -2t4 1l6 3 q11 7 23 7q14 0 28 -11q13 -10 13 -30q0 -19 -12 -28t-28 -9q-21 0 -36 12q-10 8 -13 19.5t-8 27.5q-3 11 -5 26.5t-2 34.5q0 28 6.5 56.5t24.5 45.5q14 13 33 19.5t54 6.5q24 0 41.5 -5.5t33.5 -16.5q30 -23 30 -66v-86q0 -25 -7.5 -52t-15.5 -50q-10 -27 -22 -53z M364 1008q15 12 28.5 25t24.5 27q23 29 31 29l5 -2l2 -10v-429q0 -7 -4 -10q-5 -5 -9 -5q-7 0 -10 6q-2 3 -6 49q-6 74 -39 190q-33 117 -66 151q-32 36 -69 36q-25 0 -34 -13q-10 -11 -10 -53v-883q0 -55 16 -75q14 -20 44 -20q35 0 69 29q32 29 52 87t30 125t10 142v56 q0 14 5 21l8 6q5 0 8 -6q5 -7 5 -21v-66q0 -222 -74 -329q-53 -74 -132 -74q-89 0 -144 80q-74 106 -74 366v192q0 259 81 379q54 81 136 81q69 0 116 -81z" />
<glyph unicode="&#x105b;" horiz-adv-x="813" d="M379 91q65 94 76 253q6 15 18 15q6 0 10.5 -4.5t4.5 -12.5q-10 -134 -60 -230q-61 -121 -168 -121q-100 0 -164 93q-65 93 -65 406v148q0 239 88 363q63 88 152 88q106 0 163 -113q58 -112 58 -275l-117 -57q66 -3 98 -59q7 -12 14.5 -28t13.5 -30.5t10.5 -25t6.5 -13.5 q10 -12 23 -16l9 -4l1 -3q0 -6 -9 -10q-23 -13 -62 -13q-51 0 -82 34q-8 9 -12.5 29.5t-7 42t-4.5 39.5t-5 21q-13 11 -31 11q-2 0 -6 -1l-8 -2l-10 -2h-104v-450q0 -86 20 -115q15 -21 49 -21q56 0 100 63zM314 641v349q0 42 -16 62q-11 15 -33 15q-23 0 -39 -19t-16 -58 v-349h104zM574 1050h-66q-5 0 -8 3q-3 4 -3 9q0 7 11 13h301q5 0 8 -4q4 -3 4 -8q0 -6 -4 -10q-3 -3 -8 -3h-54v-1229q0 -119 -73 -192q-18 -19 -35 -33t-35.5 -23t-41 -13.5t-51.5 -4.5q-104 0 -168 67q-65 68 -65 184q0 100 34 143q35 44 80 44q37 0 65 -34t28 -98 q0 -62 -27 -93q-25 -31 -62 -31q-15 0 -34 6q-20 6 -29 6q-6 0 -11 -5q-6 -8 -6 -19q0 -50 48 -96q47 -46 100 -46q43 0 68 31q34 41 34 119v1317z" />
<glyph unicode="&#x105c;" horiz-adv-x="544" d="M42 466v196q0 236 79 346q57 81 148 81q113 0 173 -119q61 -119 61 -316v-217q0 -255 -78 -366q-55 -80 -149 -80q-55 0 -99 28q-43 26 -80 101q-37 74 -46 194q-9 121 -9 152zM324 960q0 55 -17 78t-38 23q-18 0 -34 -19q-15 -18 -15 -56v-841q0 -80 18 -107 q13 -20 38 -20q24 0 35 17q13 17 13 76v849zM309 430q0 -18 -3.5 -32.5t-8.5 -25.5q-11 -21 -26 -21q-17 0 -27 19q-10 20 -10 55v136q0 40 11 62q10 21 26 21t27 -21q11 -22 11 -57v-136z" />
<glyph unicode="&#x105d;" horiz-adv-x="580" d="M257 533v-462q0 -11 5 -18q7 -6 17 -6q22 0 45 32q34 50 35 123v331h-102zM77 1050h-37q-9 6 -9 12q0 8 9 14h217v-516h102v490h-39q-5 0 -8 3q-2 2 -2 10q0 7 2 9q3 4 8 4h219v-1078q-7 -110 -57 -232l-148 -188q-56 -42 -113 -23q-42 13 -62 53q-18 39 -3 86 q14 42 40 58q27 17 52 8q22 -7 33 -29q11 -25 2 -51q-11 -34 -36 -46q-25 -14 -53 -4l-6 2t-8 3q-2 -21 9 -36q10 -14 34 -22q34 -11 63 6q27 16 44 65q6 20 12 49.5t11 62.5q2 17 3.5 35.5t3.5 37.5l-1 -1v250q-33 -51 -66 -72q-35 -20 -79 -20q-66 0 -103 35 q-34 37 -34 96v929z" />
<glyph unicode="&#x105e;" d="M-500 -336v115h-102zM-569 -7h317q4 0 9 -3q3 -5 3 -10q0 -6 -3 -9q-3 -4 -9 -4h-62v-139h147q17 0 25 -6.5t8 -14t-8.5 -14t-24.5 -6.5h-147v-215q-2 -8 -6 -11q-4 -5 -14 -5h-144q-7 0 -11 4l-8.5 9.5t-22 24.5t-30 34t-34.5 39q-41 47 -93 105l31 56h146v139h-69 q-7 0 -10 4q-3 3 -3 9q0 4 3 9q2 2 10 4z" />
<glyph unicode="&#x105f;" d="M-414 -250v-119q0 -32 20 -44q23 -13 51 -13q14 0 41 6t55 16.5t50 26t27 35.5q0 14 -5 18q-2 2 -8 2t-22 -6q-25 -11 -50 -11q-31 0 -59 18q-29 18 -29 50q0 33 26 48q25 16 60 16q45 0 77 -21q42 -29 42 -84q0 -42 -17.5 -64t-53.5 -44q-70 -44 -163 -44q-97 0 -161 36 q-65 38 -65 112q0 51 20 83q13 22 44 45q5 4 16.5 10.5t28.5 17.5v122h-22l-6 3q-3 4 -3 10q0 5 9 13h225q8 -5 8 -13t-8 -13h-27v-122l-10 -1q-7 -2 -18 -5t-22 -7.5t-20.5 -11t-13.5 -13.5q-5 -9 -8 -14.5t-5 -10.5t-3 -11t-1 -16z" />
<glyph unicode="&#x1060;" d="M-564 -443q-36 13 -60 36.5t-24 53.5q0 31 29 63l255 191q18 13 18 25q0 9 -12 15q-11 5 -33 7l-38 2q-7 1 -11.5 6t-4.5 10t5.5 9.5t17.5 4.5h263q12 0 17 -5t5 -11q0 -5 -3.5 -9.5t-8.5 -4.5h-4q-3 0 -9.5 -0.5t-17.5 -0.5q-18 0 -31 -3q-12 -2 -22.5 -5t-19.5 -8 q-6 -3 -26.5 -18t-38.5 -30l-211 -159h427l-112 -169h-350z" />
<glyph unicode="&#x1061;" horiz-adv-x="703" d="M427 305v650q0 67 -20 90q-10 14 -22 19t-29 7h-8q-23 0 -38.5 -14t-31.5 -33t-27.5 -54.5t-20 -82.5t-13.5 -102t-8.5 -112.5t-4.5 -114.5t-1 -107q0 -42 0.5 -78t1.5 -62t2 -41t1 -16q3 -5 8 -5q7 0 23 13q28 23 50 23q31 0 59 -37q29 -37 29 -103t-26 -98 q-25 -32 -60 -32q-46 0 -77 43q-11 14 -20.5 28.5t-17.5 31.5t-15.5 38.5t-14.5 50.5q-19 82 -28.5 168.5t-9.5 171.5q0 69 6.5 135.5t20.5 127t35.5 114t50.5 95.5q29 43 68.5 60t90.5 17h5q53 0 91 -18.5t70 -56.5q65 -74 65 -228v-390v-72.5t-0.5 -112t-1 -136.5 t-0.5 -146q-1 -171 -1 -371q18 1 34 8q14 6 27.5 19t21.5 36q5 15 10.5 35.5t10 40t7 34.5t2.5 20q2 8 3 9l4 2l4 -2q2 -2 2 -4v-212h-343q-3 0 -5 2t-2 5q0 2 2 4q1 3 5 3h32v283q1 75 2 151.5t1.5 141t0.5 109v55.5zM233 7h180l-69 -232l-147 -188q-38 -29 -78 -29 q-18 0 -36 6q-43 14 -61 53q-11 22 -11 46q0 10 2 19.5t5 20.5q14 41 41 58q16 11 36 11h8t8 -2q22 -8 33 -30q6 -14 6 -28q0 -12 -4 -23q-12 -33 -36 -46q-14 -8 -30 -8q-6 0 -12 1t-12 3l-13 5v-5q0 -17 8 -31q9 -12 34 -22q7 -2 14 -3t13 -1q20 0 36 10q29 17 44 65 q7 20 12.5 49.5t10.5 63.5q3 20 5 43.5t2.5 47t1 45t0.5 38.5v36h-14q-6 0 -9.5 5t-3.5 10t3 8.5t10 3.5h23z" />
<glyph unicode="&#x1062;" horiz-adv-x="500" d="M434 20h49q8 -4 8 -9q0 -6 -8 -10h-264q-4 0 -7 3q-3 1 -3 6t3 8q4 2 7 2h52v1048h-33q-35 0 -63 -20q-26 -20 -52 -84q-38 -95 -54 -204q-18 -111 -18 -142q-2 -11 -3 -14l-7 -3l-6 3q-3 3 -3 7l6 477h445q3 0 7 -2q2 -4 2 -8q0 -5 -2 -7q-3 -3 -7 -3h-49v-1048z" />
<glyph unicode="&#x1063;" horiz-adv-x="588" d="M170 1007q51 81 131 81q91 0 153 -81q91 -118 91 -379v-191q0 -261 -83 -367q-63 -80 -162 -80q-41 0 -75 15v-448h-206q-6 0 -9 3q-3 4 -3 10t3 9q3 4 9 4h42l5 899l159 84v-455q0 -21 5.5 -37.5t14 -28.5t17.5 -18.5t16 -6.5q32 0 50 20q18 21 18 75v883q0 40 -11 53 q-12 13 -39 13q-42 0 -78 -36q-36 -33 -74 -151q-38 -116 -44 -190q-6 -47 -7 -49q-3 -5 -11 -5q-7 0 -11 4t-4 11v428l2 10l6 2q9 0 35 -29q13 -14 28 -27t32 -25z" />
<glyph unicode="&#x1064;" horiz-adv-x="544" d="M100 1087h427l-304 -1072h70q39 0 80 42q56 58 88 177q34 117 34 155v50q9 12 17 12q6 0 15 -12v-451h-497l306 1072h-43q-35 0 -69 -37q-35 -38 -66 -144q-11 -35 -18.5 -71.5t-12.5 -75.5l-3 -65q-4 -7 -12 -7q-5 0 -9 3q-3 4 -3 12v412z" />
<glyph unicode="&#x1065;" horiz-adv-x="505" d="M132 1008q46 81 116 81q82 0 136 -81q81 -120 81 -379v-192q0 -260 -74 -366q-55 -80 -144 -80q-79 0 -132 74q-74 107 -74 329v66q0 14 5 21q3 6 8 6l8 -6q5 -7 5 -21v-56q0 -75 10 -142t30 -125t52 -87q34 -29 69 -29q30 0 44 20q16 20 16 75v883q0 42 -10 53 q-9 13 -34 13q-38 0 -69 -36q-33 -34 -66 -151q-33 -116 -39 -190q-4 -46 -6 -49q-3 -6 -10 -6q-4 0 -9 5q-4 3 -4 10v429l2 10l5 2q8 0 31 -29q11 -14 24.5 -27t28.5 -25z" />
<glyph unicode="&#x1066;" horiz-adv-x="572" d="M332 1057l-24 2q-5 2 -5 11q0 7 10 13h237q10 -6 10 -13q0 -6 -10 -13h-39v-821q-3 -84 -9 -167q-3 -35 -7 -73.5t-9 -77.5t-12 -76t-15 -69q-9 -34 -32.5 -67.5t-49.5 -60.5q-30 -32 -65 -60q-38 -29 -77 -29q-18 0 -36 6q-44 14 -62 53q-10 20 -10 45q0 21 7 41 q12 41 40 58q19 11 35 11q8 0 17 -3q22 -7 34 -29q5 -15 5 -27q0 -13 -4 -24q-11 -34 -36 -46q-14 -8 -30 -8q-12 0 -23 4l-14 5v-5q0 -18 9 -31q12 -15 34 -22q12 -4 26 -4q20 0 36 10q28 15 45 65q6 20 12 49.5t11 62.5q3 21 5 44.5t2.5 47t1 45t0.5 38.5v36l-8 111 q-35 -53 -66 -73q-32 -19 -79 -19q-55 0 -84 23q-7 6 -15.5 14.5t-16 20t-12.5 24t-5 25.5v953h-22l-6 3q-3 4 -3 10q0 7 9 13h226q8 -6 8 -13t-8 -13h-27v-953q0 -26 9 -38t21 -12q18 0 37 25q34 54 34 114v864z" />
<glyph unicode="&#x1067;" horiz-adv-x="595" d="M492 40h43q10 -8 10 -13t-10 -13h-222v80q-18 -45 -46 -69q-28 -23 -62 -23q-40 0 -69 25t-59 78q-15 27 -24.5 53t-14 53t-5.5 56t0 63t3.5 61.5t9 53t18 51.5t29.5 57q22 36 54.5 55.5t67.5 19.5q28 0 52 -17q26 -18 46 -49v502h-55q-11 6 -11 13q0 6 11 12h234v-1049z M313 450q0 67 -28 107q-18 28 -43 28q-11 0 -22 -11q-9 -9 -9 -27v-449q0 -31 9 -43t21 -12q18 0 36 26q36 48 36 85v296z" />
<glyph unicode="&#x1068;" horiz-adv-x="617" d="M330 1063h-66q-5 0 -8 3q-3 4 -3 9t11 13h301q5 0 8 -4q4 -3 4 -8q0 -6 -4 -10q-3 -3 -8 -3h-54v-796q0 -118 -73 -192q-18 -18 -35 -32t-35.5 -23.5t-41 -14t-51.5 -4.5q-104 0 -168 67q-65 68 -65 184q0 100 34 143q34 45 80 45q36 0 65 -34q28 -34 28 -99 q0 -60 -27 -93q-26 -31 -62 -31q-13 0 -34 6q-20 6 -29 6q-7 0 -11 -5q-6 -6 -6 -19q0 -50 48 -96q47 -46 100 -46q44 0 68 31q34 43 34 119v884zM417 1422q40 0 67 -32t27 -87t-28 -88q-29 -32 -67 -32q-36 0 -63 28q-25 30 -25 85q0 62 26 94q27 32 63 32z" />
<glyph unicode="&#x1069;" horiz-adv-x="481" d="M353 70q-32 -44 -59 -62q-31 -17 -67 -17q-74 0 -131 64q-56 65 -56 174q0 70 29 166q30 96 109 253q120 237 120 329q0 35 -19 57q-20 21 -47 21q-50 0 -82 -80q-21 -58 -35 -132.5t-20 -167.5q-3 -26 -6 -30q-3 -6 -9 -6q-4 0 -9 5q-4 4 -4 11v422q0 2 1 4.5t2 4.5 q4 2 8 2q5 0 22 -15q16 -14 27 -24t19 -15q55 55 116 55q67 0 118 -57q50 -58 50 -149q0 -57 -21 -130q-23 -75 -97 -242q-38 -83 -63 -144.5t-37 -101.5q-23 -81 -23 -134q0 -50 21 -74q21 -25 47 -25q51 0 90 94q52 130 66 324q1 28 5 32q3 4 9 4q5 0 9 -4q3 -3 3 -10 v-469q0 -6 -3 -9t-7 -3q-11 0 -30 27q-14 19 -25.5 31.5t-20.5 20.5z" />
<glyph unicode="&#x106a;" horiz-adv-x="631" d="M330 1063h-66q-5 0 -8 3q-3 4 -3 9t11 13h301q5 0 8 -4q4 -3 4 -8q0 -6 -4 -10q-3 -3 -8 -3h-54v-796q0 -118 -73 -192q-18 -18 -35 -32t-35.5 -23.5t-41 -14t-51.5 -4.5q-104 0 -168 67q-65 68 -65 184q0 100 34 143q34 45 80 45q36 0 65 -34q28 -34 28 -99 q0 -60 -27 -93q-26 -31 -62 -31q-13 0 -34 6q-20 6 -29 6q-7 0 -11 -5q-6 -6 -6 -19q0 -50 48 -96q47 -46 100 -46q44 0 68 31q34 43 34 119v884z" />
<glyph unicode="&#x106b;" horiz-adv-x="617" d="M330 910q0 76 -34 119q-24 31 -68 31q-53 0 -100 -46q-48 -47 -48 -96q0 -13 6 -19q4 -5 11 -5q9 0 29 6q21 6 34 6q36 0 62 -31q27 -33 27 -93q0 -65 -28 -99q-29 -34 -65 -34q-46 0 -80 45q-34 43 -34 143q0 116 65 184q64 67 168 67q29 0 51.5 -4.5t41 -14t35.5 -23.5 t35 -32q73 -74 73 -192v-796h54q5 0 8 -3q4 -4 4 -10q0 -5 -4 -8q-3 -4 -8 -4h-301q-11 8 -11 13q0 4 3 9q3 3 8 3h66v884z" />
<glyph unicode="&#x106c;" horiz-adv-x="631" d="M289 179q0 -76 34 -119q24 -31 68 -31q53 0 100 46q48 46 48 96q0 13 -6 19q-4 5 -11 5q-10 0 -29 -6q-21 -6 -34 -6q-36 0 -62 31q-27 33 -27 93q0 65 28 99q29 34 65 34q45 0 80 -45q34 -43 34 -143q0 -116 -65 -184q-64 -67 -168 -67q-29 0 -51.5 4.5t-41 14 t-35.5 23.5t-35 32q-73 74 -73 192v796h-54q-5 0 -8 3q-4 4 -4 10q0 5 4 8q3 4 8 4h301q11 -8 11 -13t-3 -9q-3 -3 -8 -3h-66v-884z" />
<glyph unicode="&#x106d;" horiz-adv-x="441" d="M126 70q-9 -8 -20.5 -20.5t-25.5 -31.5q-20 -27 -30 -27q-4 0 -7 3t-3 9v469q0 7 3 10q4 4 9 4q6 0 9 -4t5 -32q13 -194 66 -324q39 -94 90 -94q26 0 47 25q21 24 21 74q0 53 -23 134q-12 40 -37 101.5t-63 144.5q-74 167 -97 242q-21 73 -21 130q0 91 50 149 q51 57 118 57q61 0 116 -55q8 5 19 15t27 24q16 15 22 15q4 0 8 -2q1 -2 2 -4.5t1 -4.5v-422q0 -7 -4 -11q-5 -5 -9 -5q-6 0 -9 6q-3 4 -6 30q-6 93 -20 167.5t-35 132.5q-32 80 -82 80q-28 0 -47 -21q-19 -22 -19 -57q0 -92 120 -329q79 -157 109 -253q29 -96 29 -166 q0 -109 -56 -174q-57 -64 -131 -64q-36 0 -67 17q-27 18 -59 62z" />
<glyph unicode="&#x106e;" horiz-adv-x="1268" d="M638 953q0 57 -17 78q-15 23 -38 23q-19 0 -34 -19q-13 -16 -14 -44q1 -4 1 -7.5v-6.5v-12v-839h22l6 -3q3 -5 3 -10q0 -6 -9 -13l-226 -102q-7 6 -7 13t7 13l28 18v935v2q0 25 -9 36q-9 12 -21 12q-21 0 -37 -25q-34 -52 -34 -114v-864l24 -2q5 -3 5 -11q0 -7 -10 -13 h-237q-10 6 -10 13q0 6 10 13h39v821l179 227v-80q35 53 66 73q29 19 79 19q54 0 83 -23q2 -1 5 -4q40 25 91 25q112 0 174 -119q5 -12 10.5 -24t10.5 -26q14 36 33 62q13 18 27.5 36.5t36 33.5t52.5 25t77 10q88 0 144 -81q73 -104 73 -366v-191q0 -261 -80 -380 q-14 -20 -24 -35.5t-21 -25.5t-25 -15t-34 -5q-17 0 -35.5 25.5t-41.5 66.5q-15 -12 -28 -25t-25 -27q-23 -30 -31 -30l-5 3l-2 10v428q0 7 4 11t9 4q7 0 10 -5q2 -5 6 -49q6 -76 39 -190q8 -29 16.5 -51.5t17 -40.5t16.5 -32.5t16 -27.5q11 -19 19 -29t13 -4q10 11 10 53 v883q0 55 -16 75t-44 20q-39 1 -70.5 -16.5t-54.5 -41.5t-38 -49t-19 -39q-7 -19 -11 -34q26 -96 26 -222v-217q0 -256 -79 -366q-56 -80 -149 -80h-1v27h1q24 0 35 17q13 17 13 76v849z" />
<glyph unicode="&#x106f;" horiz-adv-x="1035" d="M77 1047h-37q-9 6 -9 12t9 14h217v-1005q0 -11 5 -18q7 -6 17 -6q23 0 45 32q33 48 35 122v849h-39q-5 0 -8 3q-2 2 -2 10q0 7 2 9q4 4 8 4h219v-194q18 63 47 103q13 19 27.5 37.5t36 33.5t52.5 24.5t77 9.5q88 0 144 -80q74 -106 74 -367v-191q0 -260 -80 -379l-4 -6 l-4 -6q-12 -17 -21.5 -30t-20 -21.5t-23.5 -13t-32 -4.5q-17 0 -35 25t-41 66q-16 -12 -29 -25t-25 -27q-23 -29 -31 -29l-5 2l-2 10v428q0 7 4 11t10 4t10 -5q2 -4 5 -49q6 -77 40 -190q17 -58 33.5 -91.5t32.5 -59.5q8 -16 15 -26t12 -10q2 0 4 3q10 11 10 53v883 q0 55 -16 75q-15 20 -44 20q-31 -1 -59.5 -13.5t-52.5 -33t-42 -46.5t-28 -54q-34 -100 -39 -227v-471l-180 -213v80q-17 -26 -33 -44t-33 -28q-35 -21 -79 -21q-66 0 -103 35q-34 39 -34 97v929zM744 -8h180l-69 -232l-148 -188q-38 -29 -77 -29q-18 0 -36 6q-42 13 -62 53 q-10 20 -10 45q0 21 7 41q14 42 40 58q19 11 35 11q9 0 17 -3q23 -7 34 -29q5 -10 5 -26q0 -13 -4 -25q-11 -34 -35 -46q-14 -8 -31 -8q-12 0 -23 4l-13 5v-6q0 -19 8 -30q12 -15 34 -22q12 -4 26 -4q20 0 37 10q29 17 44 65q7 20 12.5 49.5t10.5 62.5q3 21 5 44.5t2.5 47 t1 45t0.5 38.5v36h-14q-6 0 -10 5t-4 10t3.5 8.5t10.5 3.5h23z" />
<glyph unicode="&#x1070;" horiz-adv-x="891" d="M637 1051l-24 2q-5 2 -5 11q0 6 10 13h237q10 -7 10 -13q0 -7 -10 -13h-39v-1056l-39 -232l-148 -188q-56 -42 -113 -23q-42 13 -62 53q-18 39 -3 86q14 42 40 58q27 17 52 8q22 -7 34 -29q10 -23 1 -51q-11 -34 -35 -46q-26 -14 -54 -4l-6 2t-7 3q-3 -20 8 -36 q12 -15 34 -22q34 -11 63 6t44 65q6 17 12 47v391q-37 -56 -66 -73q-31 -20 -79 -20q-55 0 -83 23q-30 22 -49 85q-17 -32 -32 -53t-31 -32q-31 -23 -82 -23q-70 0 -104 34q-17 17 -25.5 40.5t-8.5 55.5v467q3 47 43 143q10 24 30 62t39.5 77t34 73t14.5 49q0 50 -26 81 t-58 31q-20 0 -37 -10q-15 -10 -26 -30q44 -2 66 -25t22 -68q0 -39 -20 -62q-22 -22 -50 -22q-29 0 -53 30q-24 28 -24 77q0 58 38 99t87 41q66 0 122 -69q13 -17 19 -47.5t8 -62.5t1 -61t-1 -44l-51 -246v-520q0 -18 9 -27q9 -10 19 -10q20 0 43 33q34 54 34 148v824h-23 l-6 3q-3 3 -3 10q0 5 9 13h226q8 -6 8 -13t-8 -13h-27v-953q0 -27 9 -39q8 -11 21 -11q21 0 37 25q34 50 34 114v864z" />
<glyph unicode="&#x1071;" horiz-adv-x="608" d="M144 1400q40 0 66 -32q27 -30 27 -87q0 -55 -28 -88q-29 -32 -66 -32q-38 0 -63 28q-25 29 -25 85q0 65 26 94q25 32 63 32zM466 1400q40 0 66 -32q27 -30 27 -87q0 -55 -28 -88q-29 -32 -66 -32q-38 0 -63 28q-25 29 -25 85q0 65 26 94q25 32 63 32z" />
<glyph unicode="&#x1072;" d="M-207 1477q28 9 53 20t31 11l6 -1l2 -4v-163q0 -2 -4 -4q-3 -1 -10 -1t-10 1q-2 2 -5 19q-5 18 -18 36.5t-29 34t-32 26t-27 13.5q-33 14 -69 14q-25 0 -34 -6q-10 -4 -10 -20v-305q0 -22 16 -29q14 -7 44 -7q18 0 35 2.5t34 8.5q34 11 52 33q20 22 30 42t10 49v22 q0 5 6 8l7 2q4 0 8 -2q6 -3 6 -8v-26q0 -85 -75 -125q-52 -28 -132 -28q-45 0 -80.5 12.5t-64.5 28.5q-10 5 -23 19.5t-24.5 37t-19 52.5t-6.5 66q0 30 8 56t20 47t26 35.5t26 22.5q28 16 61.5 28.5t75.5 12.5q70 0 116 -31z" />
<glyph unicode="&#x1073;" d="M-679 1116l293 350h59l288 -350h-176l-148 160l-136 -160h-180v0z" />
<glyph unicode="&#x1074;" d="M-499 1466l136 -160l148 160h176l-288 -350h-59l-293 350h180z" />
<glyph unicode="&#x1075;" horiz-adv-x="1029" d="M348 1064l176 -221v-817h27q8 -5 8 -13t-8 -13h-225q-9 7 -9 13q0 5 3 10l6 3h22v824q0 96 -34 148q-21 33 -43 33q-9 0 -18 -10q-9 -9 -9 -27v-491l51 -246q0 -15 1 -44t-1 -61t-8 -62t-19 -47q-56 -69 -122 -69q-49 0 -87 41q-39 40 -39 99q0 49 25 77q23 29 53 29 q29 0 50 -22q20 -22 20 -61q0 -43 -22 -68q-22 -23 -66 -25q9 -19 26 -30q14 -10 37 -10q31 0 58 31q26 31 26 81q0 10 -7 29t-17.5 42.5t-24 50t-27 52t-24.5 48.5t-18 39q-20 49 -31 84t-12 58v438q0 62 34 95q33 34 104 34q53 0 82 -22q30 -21 62 -85v85z" />
<glyph unicode="&#x1076;" horiz-adv-x="610" d="M286 516v-427q0 -42 16 -62q10 -15 33 -15t39 19t16 58v427h-104zM251 1000q-8 -11 -15 -26.5t-14 -32t-13 -32t-12 -27.5q-2 -5 -8 -11t-14 -11t-16.5 -8.5t-15.5 -3.5q-20 1 -36 9t-28 18.5t-20 22.5t-12 21q-8 14 -12.5 38.5t-2.5 45.5q5 39 21 55q17 15 35 14 q21 -2 33 -18q11 -17 8 -44l-1 -11q-2 -10 -3 -14q0 -5 -2.5 -21.5t-2 -35.5t5 -33.5t18.5 -14.5q8 0 15.5 5.5t12.5 25.5q7 16 11 27.5t7 21t6.5 18.5t9.5 21q13 24 25.5 40.5t28 27.5t34.5 16t46 5q99 0 164 -93t65 -406v-147q0 -240 -88 -364q-63 -88 -152 -88 q-106 0 -163 113q-58 113 -58 276v164h282v372q0 86 -20 115q-15 21 -49 21q-14 0 -22.5 -2t-15.5 -7.5t-14 -15.5t-18 -26z" />
<glyph unicode="&#x1077;" horiz-adv-x="574" d="M343 143q1 -42 5.5 -64.5t9.5 -33.5q6 -13 13 -15l-7 269q-10 -41 -14.5 -61.5t-6 -34t-1 -25.5t0.5 -35zM254 977l1 -503l38 -243q0 -15 0.5 -44.5t-2 -62.5t-9 -63.5t-19.5 -47.5q-27 -35 -49.5 -53t-56.5 -18q-49 0 -87 41t-38 99q0 48 24 77q23 29 53 29q29 0 50 -22 q20 -22 20 -61q0 -45 -22 -68t-66 -25q11 -20 26 -30q16 -10 37 -10q32 0 58 31t26 81q0 10 -7 29t-17.5 42.5t-24 50t-27 52t-24.5 48.5t-18 39q-40 96 -43 142l1 490q20 63 49 84q26 23 83 23q50 0 79 -19q29 -17 66 -73v80l179 -226v-822h39q10 -7 10 -13t-10 -13h-237 q-4 3 -8 7l-1.5 3t-0.5 3v1q-9 28 -11.5 67.5t0.5 85t13 95t27 97.5v531q0 62 -34 114q-16 25 -37 25q-12 0 -21 -12q-9 -11 -9 -38z" />
<glyph unicode="&#x1078;" horiz-adv-x="1009" d="M678 959v-849q0 -59 13 -76q11 -17 35 -17q25 0 38 20q18 27 18 107v841q0 38 -15 56q-16 19 -34 19q-21 0 -38 -23t-17 -78zM303 81q-23 -41 -41.5 -66t-35.5 -25q-19 0 -32 4.5t-23.5 13.5t-20 22t-21.5 31q-2 2 -3.5 4.5t-3.5 5.5q-80 117 -80 379v191q0 263 73 367 q56 80 144 80q46 0 77 -9.5t52.5 -24.5t36 -33.5t27.5 -37.5q43 -59 61 -160q15 82 47 146q60 119 173 119q91 0 148 -81q79 -110 79 -346v-196q0 -31 -9 -152q-9 -120 -46 -194q-37 -75 -80 -101q-44 -28 -99 -28q-94 0 -149 80q-78 111 -78 366v217v33q0 63 -11 119 t-28 106q-5 14 -19.5 39t-37.5 49t-54.5 41.5t-69.5 17.5q-30 0 -45 -20q-16 -20 -16 -75v-883q0 -42 10 -53q1 -3 4 -3q5 0 12.5 10t15.5 26q1 2 2 3.5t2 3.5q14 25 30 57.5t32 86.5q33 116 39 190q3 46 6 49q2 5 10 5q5 0 9 -4t4 -11v-428l-2 -10l-5 -2q-9 0 -31 29 q-25 29 -53 52z" />
<glyph unicode="&#x1079;" horiz-adv-x="985" d="M668 106q0 -59 13 -76q12 -17 35 -17q24 0 38 20q18 28 18 107v841q0 38 -15 56q-15 19 -34 19q-22 0 -38 -23q-17 -22 -17 -78v-849zM208 188q0 -20 11 -35.5t31 -17.5q16 -2 26.5 9.5t18 32t12 47t9.5 56.5q3 22 -7 48.5t-27.5 55.5t-37.5 60t-36 61v-317zM284 6 q-17 8 -30 23t-24 32q-12 18 -22 41v-121l-174 92l-2 565q0 262 73 366q55 80 144 80q46 0 77 -9.5t52.5 -24.5t36 -33.5t27.5 -36.5q43 -61 61 -161q15 83 47 146q59 119 173 119q91 0 148 -81q79 -109 79 -345v-196q0 -32 -9 -153q-9 -118 -46 -194q-37 -74 -80 -101 q-47 -28 -99 -28q-93 0 -149 80q-78 111 -78 367v217v32q-4 125 -39 226q-5 14 -19.5 39t-38 49t-54.5 41.5t-70 16.5q-30 0 -44 -20q-16 -20 -16 -75v-389q159 -122 176 -310q-3 -83 -14 -144q-5 -26 -12 -49.5t-17.5 -40t-24.5 -23t-32 2.5z" />
<glyph unicode="&#x107a;" horiz-adv-x="906" d="M525 336q0 -23 2 -53t7.5 -62.5t14 -65t22.5 -60.5q9 -17 22 -35t31 -18q8 0 12 2q16 6 23 21t7 29v953h-27q-8 6 -8 13t8 13h226q9 -8 9 -13q0 -6 -3 -10l-6 -3h-22v-867q0 -31 -11.5 -65t-30.5 -62.5t-43 -47t-48 -18.5t-53.5 2.5t-58.5 18.5q-27 15 -43 31.5t-32 43.5 v-400q-2 -7 -1.5 -21t3.5 -26.5t9 -20.5t17 -3q34 0 60 39q29 43 37 122q4 13 14 13q6 0 10.5 -6t4.5 -17q-12 -90 -49 -138q-52 -70 -133 -70q-75 0 -110 41q-24 28 -33 66.5t-9 89.5v1180q-2 66 -21 90q-10 13 -21.5 14.5t-28.5 3.5q-17 0 -39.5 -10t-39.5 -30 q-16 -18 -27.5 -53t-19.5 -81t-13.5 -100.5t-8.5 -111.5t-4.5 -113.5t-1.5 -106.5q0 -43 1 -80t2 -64t2 -43t1 -17q3 -5 8 -5t22 14q28 23 50 23q30 0 59 -38q29 -37 29 -103q0 -64 -26 -98q-26 -32 -60 -32q-45 0 -77 43q-21 29 -37 72.5t-23 94.5q-11 86 -19.5 179.5 t-8.5 187.5q0 62 4.5 122t16 114.5t29.5 103t45 87.5q30 45 70 61.5t94 16.5q53 0 91 -18.5t70 -56.5q66 -75 66 -228v-42.5t-0.5 -101t-1 -138t-0.5 -152.5z" />
<glyph unicode="&#x107b;" horiz-adv-x="990" d="M314 955q0 56 -17 78q-16 23 -38 23q-19 0 -34 -19q-15 -18 -15 -56v-841q0 -79 18 -107q14 -20 38 -20q23 0 35 17q13 17 13 76v849zM774 505q-16 -30 -36 -61t-37.5 -60t-27.5 -55.5t-7 -48.5q4 -30 9 -56.5t12.5 -47t18 -32t26.5 -9.5q20 2 31 17.5t11 35.5v317z M698 6q-18 -9 -32 -2.5t-24.5 23t-17.5 40t-12 49.5q-11 61 -14 144q17 188 176 310v389q0 55 -16 75q-14 20 -44 20q-39 1 -70.5 -16.5t-54.5 -41.5t-37.5 -49t-19.5 -39q-35 -101 -39 -226v-32v-217q0 -256 -78 -367q-56 -80 -149 -80q-52 0 -99 28q-43 27 -80 101 q-37 76 -46 194q-9 121 -9 153v196q0 236 79 345q57 81 148 81q113 0 173 -119q32 -63 47 -146q18 100 61 161q13 18 27.5 36.5t36 33.5t52.5 24.5t77 9.5q89 0 144 -80q73 -104 73 -366l-2 -565l-174 -92v121q-10 -23 -22 -41q-11 -17 -24.5 -32t-29.5 -23z" />
<glyph unicode="&#x107c;" horiz-adv-x="827" d="M218 515v-427q0 -42 16 -62q10 -15 33 -15q22 0 39 19q16 19 16 58v427h-104zM506 542h282v-164q0 -163 -58 -276q-57 -113 -163 -113q-88 0 -152 88l-1 2l-1 -2q-64 -88 -152 -88q-106 0 -163 113q-58 113 -58 276v164h282v372q0 89 -20 115q-15 22 -49 22 q-56 0 -100 -64q-73 -105 -78 -289q-2 -62 -5 -68q-5 -8 -13 -8q-7 0 -11 6q-5 8 -5 38q0 178 63 300q62 122 168 122q83 0 142 -66q58 66 142 66q106 0 168 -122q63 -122 63 -300q0 -32 -5 -38t-11 -6q-8 0 -13 8q-3 6 -5 68q-5 184 -78 289q-44 64 -100 64q-34 0 -49 -22 q-20 -28 -20 -115v-372zM610 515h-104v-427q0 -39 16 -58q17 -19 39 -19t33 15q16 20 16 62v427z" />
<glyph unicode="&#x107d;" horiz-adv-x="851" d="M539 554h282v-164q0 -163 -58 -276q-57 -113 -163 -113q-88 0 -152 88q-5 6 -8.5 12.5t-8.5 13.5l-72 -92q-1 11 -1 25v61q-31 -64 -62 -86t-82 -22q-70 0 -104 34t-34 95v468q2 23 12.5 58.5t30.5 83.5q10 25 30 63t39.5 77t34 72.5t14.5 48.5q0 51 -26 82 q-26 30 -58 30q-23 0 -37 -10q-17 -9 -26 -29q44 -2 66 -25q22 -25 22 -69q0 -38 -20 -61q-22 -22 -50 -22q-29 0 -53 29q-24 30 -24 78q0 60 38 98q37 42 87 42q65 0 122 -69q13 -17 19 -47.5t8 -62.5t1 -61t-1 -44l-51 -246v-521q0 -17 9 -27q10 -10 18 -10q21 0 44 33 q33 54 33 149v823h-22l-6 4q-3 3 -3 9q0 7 9 13h186q16 6 32.5 9.5t34.5 3.5q106 0 168 -122q63 -122 63 -300q0 -30 -5 -38q-5 -6 -11 -6q-8 0 -13 8q-3 6 -5 68q-5 184 -78 289q-44 64 -100 64q-34 0 -49 -22q-20 -26 -20 -115v-372zM643 527h-104v-427q0 -39 16 -58 q17 -19 39 -19t33 15q16 20 16 62v427z" />
<glyph unicode="&#x107e;" horiz-adv-x="857" d="M539 554h282v-164q0 -163 -58 -276q-57 -113 -163 -113q-88 0 -152 88q-5 6 -8.5 12.5t-8.5 13.5l-72 -92q-1 11 -1 25v61q-31 -64 -62 -86t-82 -22q-70 0 -104 34t-34 95v468q2 23 12.5 58.5t30.5 83.5q10 25 30 63t39.5 77t34 72.5t14.5 48.5q0 51 -26 82 q-26 30 -58 30q-23 0 -37 -10q-17 -9 -26 -29q44 -2 66 -25q22 -25 22 -69q0 -38 -20 -61q-22 -22 -50 -22q-29 0 -53 29q-24 30 -24 78q0 60 38 98q37 42 87 42q65 0 122 -69q13 -17 19 -47.5t8 -62.5t1 -61t-1 -44l-51 -246v-521q0 -17 9 -27q10 -10 18 -10q21 0 44 33 q33 54 33 149v823h-22l-6 4q-3 3 -3 9q0 7 9 13h186q16 6 32.5 9.5t34.5 3.5q106 0 168 -122q63 -122 63 -300q0 -30 -5 -38q-5 -6 -11 -6q-8 0 -13 8q-3 6 -5 68q-5 184 -78 289q-44 64 -100 64q-34 0 -49 -22q-20 -26 -20 -115v-372zM643 527h-104v-427q0 -39 16 -58 q17 -19 39 -19t33 15q16 20 16 62v427zM559 -13h204q8 0 12 -3.5t4 -8.5t-4 -10t-12 -5h-34l-59 -205l-147 -188q-38 -29 -77 -29q-18 0 -36 6q-44 14 -62 53q-11 22 -11 45q0 19 8 41q12 41 40 58q19 11 35 11q8 0 17 -3q22 -7 33 -29q6 -14 6 -28q0 -12 -4 -23 q-11 -34 -36 -46q-14 -8 -30 -8q-5 0 -11 1t-12 3l-14 5v-6q0 -16 8 -30q11 -15 35 -22q12 -4 26 -4q20 0 36 10q28 16 45 65q6 20 12 49.5t11 63.5q3 20 5 43.5t2.5 47t1 45t0.5 38.5v36h-15q-6 0 -9.5 5t-3.5 10t3 8.5t10 3.5h23z" />
<glyph unicode="&#x107f;" horiz-adv-x="560" d="M211 838q8 10 12.5 20t10.5 24q8 19 10 43t1.5 47.5t-3.5 44.5t-5 34h-26v-213zM493 1051v-929q0 -59 -34 -96q-35 -35 -103 -35q-46 0 -79 20q-33 21 -66 72v-80l-180 214v860h219q5 0 8 -4l1.5 -3l1.5 -3q6 -42 9 -82q2 -35 0.5 -75t-9.5 -72q-10 -36 -21.5 -67 t-28.5 -51v-518q2 -74 35 -122q22 -32 45 -32q9 0 17 6q5 7 5 18v1005h217q9 -8 9 -14t-9 -12h-37z" />
<glyph unicode="&#x1080;" horiz-adv-x="824" d="M323 554v372q0 87 -20 115q-15 22 -49 22q-56 0 -100 -64q-73 -105 -78 -289q-1 -59 -5 -68q-6 -8 -13 -8q-8 0 -11 6q-6 7 -6 38q0 177 64 300q62 122 168 122q97 0 164 -94q65 -94 65 -406v-147q0 -153 -36 -258q0 -47 10.5 -74t25.5 -40.5t31.5 -17.5t30.5 -5 q12 0 21 12t9 39v952h-27q-8 8 -8 13q0 7 8 13h225q9 -6 9 -13q0 -6 -3 -9l-6 -4h-22v-952q-19 -63 -49 -85q-28 -23 -83 -23q-64 0 -111.5 18t-74.5 72q-5 9 -7.5 19.5t-4.5 21.5q-6 -11 -12.5 -21.5t-13.5 -21.5q-64 -88 -152 -88q-106 0 -163 113q-58 113 -58 276v164 h282zM219 527v-427q0 -42 16 -62q10 -15 33 -15q20 0 39 19q16 19 16 58v427h-104z" />
<glyph unicode="&#x1081;" horiz-adv-x="1026" d="M427 955q0 67 -20 90q-10 14 -22 19t-29 7h-8q-23 0 -38.5 -14t-31.5 -33t-27.5 -54.5t-20 -82.5t-13.5 -102t-8.5 -112.5t-4.5 -114.5t-1 -107q0 -42 0.5 -78t1.5 -62t2 -41t1 -16q3 -5 8 -5q7 0 23 13q28 23 50 23q31 0 59 -37q29 -37 29 -103t-26 -98q-25 -32 -60 -32 q-46 0 -77 43q-11 14 -20.5 28.5t-17.5 31.5t-15.5 38.5t-14.5 50.5q-19 82 -28.5 168.5t-9.5 171.5q0 69 6.5 135.5t20.5 127t35.5 114t50.5 95.5q29 43 68.5 60t90.5 17h5q53 0 91 -18.5t70 -56.5q65 -74 65 -228v-278l-184 -105v545zM233 7h180l-69 -232l-147 -188 q-38 -29 -78 -29q-18 0 -36 6q-43 14 -61 53q-11 22 -11 46q0 10 2 19.5t5 20.5q14 41 41 58q16 11 36 11h8t8 -2q22 -8 33 -30q6 -14 6 -28q0 -12 -4 -23q-12 -33 -36 -46q-14 -8 -30 -8q-6 0 -12 1t-12 3l-13 5v-5q0 -17 8 -31q9 -12 34 -22q7 -2 14 -3t13 -1q20 0 36 10 q29 17 44 65q7 20 12.5 49.5t10.5 63.5q3 20 5 43.5t2.5 47t1 45t0.5 38.5v36h-14q-6 0 -9.5 5t-3.5 10t3 8.5t10 3.5h23z" />
<glyph unicode="&#x1082;" d="M-207 -410q-46 -31 -116 -31q-42 0 -75.5 12.5t-61.5 28.5q-12 7 -26 22t-26 36t-20 47t-8 56q-1 36 6.5 66t19 52.5t24.5 37t23 19.5q29 16 64.5 28.5t80.5 12.5q20 0 32 -0.5t20.5 -1t16 -2.5t17.5 -5l2 -24q-17 6 -34 8.5t-35 2.5q-30 0 -44 -7q-16 -7 -16 -29v-305 q0 -16 10 -20q9 -6 34 -6q36 0 69 14q11 3 27 13.5t32 26t29 34t18 36.5q3 17 5 19q3 1 10 1t10 -1q4 -2 4 -4v-163l-2 -4l-6 -1q-6 0 -31 11t-53 20z" />
<glyph unicode="&#x1083;" horiz-adv-x="697" d="M429 777l2 -886q0 -98 23 -178q22 -79 52 -110q16 -18 36 -18q10 1 17 8q7 4 7 14q0 13 -19 41q-38 61 -38 124q0 64 27 100q21 26 50 26q37 0 67 -38q31 -38 31 -114q0 -89 -46 -147q-36 -45 -81 -45q-33 0 -63 27q-28 26 -63 118v-133l-176 281l-2 913q0 99 -23 179 q-25 80 -52 109q-18 18 -36 18q-11 0 -18 -7t-7 -15q0 -9 19 -41q39 -60 39 -123q0 -66 -27 -100q-20 -26 -51 -26q-38 0 -67 38q-31 40 -31 114q0 86 46 146q36 45 81 45q33 0 63 -27q29 -26 64 -117v132z" />
<glyph unicode="&#x1084;" horiz-adv-x="490" d="M239 586q-98 30 -145 89q-47 60 -47 171q0 121 62 182q60 63 145 63q81 0 137 -53q54 -54 54 -160q0 -66 -27 -96q-26 -28 -64 -28q-37 0 -63 23q-25 25 -25 67t24 65q23 23 54 23q19 0 44 -11q21 -10 28 -10q8 5 8 11q0 61 -50 107q-52 46 -112 46q-23 0 -37 -11 q-13 -13 -13 -36v-378q0 -24 21 -43q12 -12 39 -12q14 0 35 6q20 7 28 7l7 -1l49 -21l6 -5l-6 -4l-49 -15q-2 -1 -4.5 -1h-4.5q-5 0 -18 6q-20 7 -37 7q-34 0 -53 -21q-20 -22 -20 -76v-402q0 -26 24 -48q19 -16 53 -16q53 0 104 48q49 49 49 120q0 3 -6 8q-3 0 -20 -7 q-26 -12 -47 -12q-37 0 -65 27q-27 28 -27 81q0 51 25 76q24 26 60 26q40 0 69 -30q36 -41 36 -122q0 -115 -57 -175q-57 -59 -132 -59q-93 0 -168 75q-73 76 -73 236q0 142 66 214q40 43 143 69z" />
<glyph unicode="&#x1085;" d="M-387 1329q-72 10 -109 35q-35 23 -35 66q0 47 46 71t110 24q61 0 103 -21q40 -21 40 -62q0 -26 -20 -37t-48 -11q-29 0 -47 9q-19 9 -19 26q0 16 17 25q18 9 41 9q17 0 33 -4h2q7 0 7 5q0 10 -19 18q-39 18 -84 18q-20 0 -28 -4q-10 -4 -10 -14v-114q0 -10 16 -16 q7 -5 29 -5q18 0 30.5 -6.5t12.5 -13.5q0 -5 -9 -9t-30 -4q-26 0 -39 -8q-16 -10 -16 -30v-125q0 -10 19 -19q13 -6 39 -6q42 0 79 19q4 2 13.5 10t9.5 13q0 3 -6 3q-20 -5 -35 -5q-27 0 -49 11q-21 10 -21 31q0 19 19 30q19 10 45 10q31 0 52 -12q27 -15 27 -47 q0 -46 -42 -68q-44 -23 -100 -23q-70 0 -126 29q-55 30 -55 92q0 56 49 83q31 16 108 27z" />
<glyph unicode="&#x1086;" d="M-319 1402v-126q0 -12 6 -20.5t14 -8.5h1q9 0 15 8.5t6 20.5v126q0 12 -6 20.5t-15 8.5h-1q-8 0 -14 -8.5t-6 -20.5zM-408 1368q0 22 8.5 41.5t23 34t34 23t42.5 8.5h4q22 0 41.5 -8.5t34 -23t23 -34t8.5 -41.5v-58q0 -35 -18 -60l-109 -155h-43l50 108q-21 2 -39 11 t-31.5 23.5t-21 33t-7.5 39.5v58zM-319 1402v-126q0 -12 6 -20.5t14 -8.5h1q9 0 15 8.5t6 20.5v126q0 12 -6 20.5t-15 8.5h-1q-8 0 -14 -8.5t-6 -20.5zM-408 1368q0 22 8.5 41.5t23 34t34 23t42.5 8.5h4q22 0 41.5 -8.5t34 -23t23 -34t8.5 -41.5v-58q0 -35 -18 -60 l-109 -155h-43l50 108q-21 2 -39 11t-31.5 23.5t-21 33t-7.5 39.5v58z" />
<glyph unicode="&#x1087;" horiz-adv-x="299" d="M127 199v-126q0 -12 6 -20.5t14 -8.5h1q9 0 15 8.5t6 20.5v126q0 12 -6 20.5t-15 8.5h-1q-8 0 -14 -8.5t-6 -20.5zM38 165q0 22 8.5 41.5t23 34t34 23t42.5 8.5h4q22 0 41.5 -8.5t34 -23t23 -34t8.5 -41.5v-58q0 -35 -18 -60l-109 -155h-43l50 108q-21 2 -39 11 t-31.5 23.5t-21 33t-7.5 39.5v58zM127 199v-126q0 -12 6 -20.5t14 -8.5h1q9 0 15 8.5t6 20.5v126q0 12 -6 20.5t-15 8.5h-1q-8 0 -14 -8.5t-6 -20.5zM38 165q0 22 8.5 41.5t23 34t34 23t42.5 8.5h4q22 0 41.5 -8.5t34 -23t23 -34t8.5 -41.5v-58q0 -35 -18 -60l-109 -155h-43 l50 108q-21 2 -39 11t-31.5 23.5t-21 33t-7.5 39.5v58z" />
<glyph unicode="&#x1088;" horiz-adv-x="574" d="M127 199v-126q0 -12 6 -20.5t14 -8.5h1q9 0 15 8.5t6 20.5v126q0 12 -6 20.5t-15 8.5h-1q-8 0 -14 -8.5t-6 -20.5zM38 165q0 22 8.5 41.5t23 34t34 23t42.5 8.5h4q22 0 41.5 -8.5t34 -23t23 -34t8.5 -41.5v-58q0 -35 -18 -60l-109 -155h-43l50 108q-21 2 -39 11 t-31.5 23.5t-21 33t-7.5 39.5v58zM127 199v-126q0 -12 6 -20.5t14 -8.5h1q9 0 15 8.5t6 20.5v126q0 12 -6 20.5t-15 8.5h-1q-8 0 -14 -8.5t-6 -20.5zM38 165q0 22 8.5 41.5t23 34t34 23t42.5 8.5h4q22 0 41.5 -8.5t34 -23t23 -34t8.5 -41.5v-58q0 -35 -18 -60l-109 -155h-43 l50 108q-21 2 -39 11t-31.5 23.5t-21 33t-7.5 39.5v58zM131 752v-140q0 -11 6.5 -18t15.5 -7h1q9 0 15.5 7t6.5 18v140q0 11 -6.5 18t-15.5 7h-1q-9 0 -15.5 -7t-6.5 -18zM40 722q0 19 9 36.5t24 30t35.5 20t43.5 7.5h4q23 0 43 -7.5t35 -20t24 -30t9 -36.5v-80 q0 -19 -9 -36t-24 -29.5t-35 -20t-43 -7.5h-4q-23 0 -43.5 7.5t-35.5 20t-24 29.5t-9 36v80zM131 752v-140q0 -11 6.5 -18t15.5 -7h1q9 0 15.5 7t6.5 18v140q0 11 -6.5 18t-15.5 7h-1q-9 0 -15.5 -7t-6.5 -18zM40 722q0 19 9 36.5t24 30t35.5 20t43.5 7.5h4q23 0 43 -7.5 t35 -20t24 -30t9 -36.5v-80q0 -19 -9 -36t-24 -29.5t-35 -20t-43 -7.5h-4q-23 0 -43.5 7.5t-35.5 20t-24 29.5t-9 36v80z" />
<glyph unicode="&#x1089;" horiz-adv-x="313" d="M131 210v-140q0 -11 6.5 -18t15.5 -7h1q9 0 15.5 7t6.5 18v140q0 11 -6.5 18t-15.5 7h-1q-9 0 -15.5 -7t-6.5 -18zM40 180q0 19 9 36.5t24 30t35.5 20t43.5 7.5h4q23 0 43 -7.5t35 -20t24 -30t9 -36.5v-80q0 -19 -9 -36t-24 -29.5t-35 -20t-43 -7.5h-4q-23 0 -43.5 7.5 t-35.5 20t-24 29.5t-9 36v80zM131 210v-140q0 -11 6.5 -18t15.5 -7h1q9 0 15.5 7t6.5 18v140q0 11 -6.5 18t-15.5 7h-1q-9 0 -15.5 -7t-6.5 -18zM40 180q0 19 9 36.5t24 30t35.5 20t43.5 7.5h4q23 0 43 -7.5t35 -20t24 -30t9 -36.5v-80q0 -19 -9 -36t-24 -29.5t-35 -20 t-43 -7.5h-4q-23 0 -43.5 7.5t-35.5 20t-24 29.5t-9 36v80z" />
<glyph unicode="&#x108a;" horiz-adv-x="437" d="M122 206v-129q0 -13 6.5 -21.5t15.5 -8.5h1q8 0 14.5 8.5t6.5 21.5v129q0 12 -6.5 20.5t-14.5 8.5h-1q-9 0 -15.5 -8.5t-6.5 -20.5zM256 145l148 49l1 -85l-195 -87q-28 -20 -64 -20h-4q-23 0 -43 8.5t-35 23.5t-23.5 35t-8.5 43v58q0 23 8.5 43t23.5 35t35 23.5t43 8.5 h4q23 0 43 -8.5t35 -23.5t23.5 -35t8.5 -43v-25zM122 206v-129q0 -13 6.5 -21.5t15.5 -8.5h1q8 0 14.5 8.5t6.5 21.5v129q0 12 -6.5 20.5t-14.5 8.5h-1q-9 0 -15.5 -8.5t-6.5 -20.5zM256 145l148 49l1 -85l-195 -87q-28 -20 -64 -20h-4q-23 0 -43 8.5t-35 23.5t-23.5 35 t-8.5 43v58q0 23 8.5 43t23.5 35t35 23.5t43 8.5h4q23 0 43 -8.5t35 -23.5t23.5 -35t8.5 -43v-25zM122 745v-129q0 -13 6.5 -21.5t15.5 -8.5h1q8 0 14.5 8.5t6.5 21.5v129q0 12 -6.5 20.5t-14.5 8.5h-1q-9 0 -15.5 -8.5t-6.5 -20.5zM256 684l148 49l1 -85l-195 -87 q-28 -20 -64 -20h-4q-23 0 -43 8.5t-35 23.5t-23.5 35t-8.5 43v58q0 23 8.5 43t23.5 35t35 23.5t43 8.5h4q23 0 43 -8.5t35 -23.5t23.5 -35t8.5 -43v-25zM122 745v-129q0 -13 6.5 -21.5t15.5 -8.5h1q8 0 14.5 8.5t6.5 21.5v129q0 12 -6.5 20.5t-14.5 8.5h-1q-9 0 -15.5 -8.5 t-6.5 -20.5zM256 684l148 49l1 -85l-195 -87q-28 -20 -64 -20h-4q-23 0 -43 8.5t-35 23.5t-23.5 35t-8.5 43v58q0 23 8.5 43t23.5 35t35 23.5t43 8.5h4q23 0 43 -8.5t35 -23.5t23.5 -35t8.5 -43v-25z" />
<glyph unicode="&#x108b;" horiz-adv-x="306" d="M131 605v-140q0 -11 6.5 -18t15.5 -7h1q9 0 15.5 7t6.5 18v140q0 11 -6.5 18t-15.5 7h-1q-9 0 -15.5 -7t-6.5 -18zM40 575q0 19 9 36.5t24 30t35.5 20t43.5 7.5h4q23 0 43 -7.5t35 -20t24 -30t9 -36.5v-80q0 -19 -9 -36t-24 -29.5t-35 -20t-43 -7.5h-4q-23 0 -43.5 7.5 t-35.5 20t-24 29.5t-9 36v80zM131 605v-140q0 -11 6.5 -18t15.5 -7h1q9 0 15.5 7t6.5 18v140q0 11 -6.5 18t-15.5 7h-1q-9 0 -15.5 -7t-6.5 -18zM40 575q0 19 9 36.5t24 30t35.5 20t43.5 7.5h4q23 0 43 -7.5t35 -20t24 -30t9 -36.5v-80q0 -19 -9 -36t-24 -29.5t-35 -20 t-43 -7.5h-4q-23 0 -43.5 7.5t-35.5 20t-24 29.5t-9 36v80z" />
<glyph unicode="&#x108c;" horiz-adv-x="595" d="M131 605v-140q0 -11 6.5 -18t15.5 -7h1q9 0 15.5 7t6.5 18v140q0 11 -6.5 18t-15.5 7h-1q-9 0 -15.5 -7t-6.5 -18zM40 575q0 19 9 36.5t24 30t35.5 20t43.5 7.5h4q23 0 43 -7.5t35 -20t24 -30t9 -36.5v-80q0 -19 -9 -36t-24 -29.5t-35 -20t-43 -7.5h-4q-23 0 -43.5 7.5 t-35.5 20t-24 29.5t-9 36v80zM131 605v-140q0 -11 6.5 -18t15.5 -7h1q9 0 15.5 7t6.5 18v140q0 11 -6.5 18t-15.5 7h-1q-9 0 -15.5 -7t-6.5 -18zM40 575q0 19 9 36.5t24 30t35.5 20t43.5 7.5h4q23 0 43 -7.5t35 -20t24 -30t9 -36.5v-80q0 -19 -9 -36t-24 -29.5t-35 -20 t-43 -7.5h-4q-23 0 -43.5 7.5t-35.5 20t-24 29.5t-9 36v80zM425 605v-140q0 -11 6.5 -18t15.5 -7h1q9 0 15.5 7t6.5 18v140q0 11 -6.5 18t-15.5 7h-1q-9 0 -15.5 -7t-6.5 -18zM334 575q0 19 9 36.5t24 30t35.5 20t43.5 7.5h4q23 0 43 -7.5t35 -20t24 -30t9 -36.5v-80 q0 -19 -9 -36t-24 -29.5t-35 -20t-43 -7.5h-4q-23 0 -43.5 7.5t-35.5 20t-24 29.5t-9 36v80zM425 605v-140q0 -11 6.5 -18t15.5 -7h1q9 0 15.5 7t6.5 18v140q0 11 -6.5 18t-15.5 7h-1q-9 0 -15.5 -7t-6.5 -18zM334 575q0 19 9 36.5t24 30t35.5 20t43.5 7.5h4q23 0 43 -7.5 t35 -20t24 -30t9 -36.5v-80q0 -19 -9 -36t-24 -29.5t-35 -20t-43 -7.5h-4q-23 0 -43.5 7.5t-35.5 20t-24 29.5t-9 36v80z" />
<glyph unicode="&#x108d;" d="M-126 -179q-15 -38 -32 -70q-14 -27 -33.5 -50.5t-40.5 -27.5q-25 -5 -48 -5q-21 0 -42 3q-12 2 -15 2t-11.5 1.5t-30 7t-69.5 18.5q-54 15 -94.5 22t-67.5 7h-14.5t-11.5 -2q-14 -3 -32 -11t-33 -16q-18 -10 -36 -22l-7 33q11 37 24 67q11 26 27.5 48t36.5 26q18 4 30 7 t28 3q20 0 56 -7.5t108 -28.5q109 -33 165 -33q8 0 14.5 0.5t11.5 1.5q14 3 33.5 13.5t36.5 21.5q20 13 42 30z" />
<glyph unicode="&#x108e;" horiz-adv-x="544" d="M32 613q0 31 9 153q9 118 46 194q37 74 80 101q44 28 99 28q93 0 149 -80q78 -111 78 -366v-218q0 -197 -61 -315q-60 -119 -173 -119q-91 0 -148 81q-79 109 -79 345v196zM210 810h104v159q0 59 -13 76q-12 17 -35 17q-24 0 -38 -20q-18 -29 -18 -107v-125zM314 120v649 h-104v-675q0 -38 15 -56q15 -19 34 -19q22 0 38 23q17 23 17 78z" />
<glyph unicode="&#x108f;" horiz-adv-x="303" d="M178 199q0 12 -6 20.5t-14 8.5h-1q-9 0 -15 -8.5t-6 -20.5v-126q0 -12 6 -20.5t15 -8.5h1q8 0 14 8.5t6 20.5v126zM267 107q0 -21 -7.5 -39.5t-21 -33t-31.5 -23.5t-39 -11l50 -108h-43l-109 155q-18 25 -18 60v58q0 22 8.5 41.5t23 34t34 23t41.5 8.5h4q22 0 42 -8.5 t34.5 -23t23 -34t8.5 -41.5v-58zM178 199q0 12 -6 20.5t-14 8.5h-1q-9 0 -15 -8.5t-6 -20.5v-126q0 -12 6 -20.5t15 -8.5h1q8 0 14 8.5t6 20.5v126zM267 107q0 -21 -7.5 -39.5t-21 -33t-31.5 -23.5t-39 -11l50 -108h-43l-109 155q-18 25 -18 60v58q0 22 8.5 41.5t23 34 t34 23t41.5 8.5h4q22 0 42 -8.5t34.5 -23t23 -34t8.5 -41.5v-58zM174 752q0 11 -6.5 18t-15.5 7h-1q-9 0 -15.5 -7t-6.5 -18v-140q0 -11 6.5 -18t15.5 -7h1q9 0 15.5 7t6.5 18v140zM265 722v-80q0 -19 -9 -36t-24 -29.5t-35.5 -20t-43.5 -7.5h-4q-23 0 -43 7.5t-35 20 t-24 29.5t-9 36v80q0 19 9 36.5t24 30t35 20t43 7.5h4q23 0 43.5 -7.5t35.5 -20t24 -30t9 -36.5zM174 752q0 11 -6.5 18t-15.5 7h-1q-9 0 -15.5 -7t-6.5 -18v-140q0 -11 6.5 -18t15.5 -7h1q9 0 15.5 7t6.5 18v140zM265 722v-80q0 -19 -9 -36t-24 -29.5t-35.5 -20t-43.5 -7.5 h-4q-23 0 -43 7.5t-35 20t-24 29.5t-9 36v80q0 19 9 36.5t24 30t35 20t43 7.5h4q23 0 43.5 -7.5t35.5 -20t24 -30t9 -36.5z" />
<glyph unicode="&#x1090;" horiz-adv-x="533" d="M30 741v197q0 236 79 345q58 81 148 81q112 0 174 -119q61 -120 61 -315v-400q0 -64 -5 -131.5t-14.5 -128.5t-24.5 -110.5t-34 -77.5q-56 -80 -150 -80q-55 0 -99 28q-44 27 -80 101q-35 71 -46 194q-2 20 -3 57.5t-2 82t-2 91.5t-1 86.5t-0.5 66.5t-0.5 32zM312 1235 q0 57 -17 78q-15 23 -38 23q-19 0 -34 -19q-15 -18 -15 -56v-1105q0 -80 18 -107q14 -20 38 -20t35 17q13 17 13 76v1113z" />
<glyph unicode="&#x1091;" horiz-adv-x="444" d="M364 1057l-150 -728q-20 -100 -17 -173q3 -77 21 -106q10 -18 26 -18q9 0 15 7q7 6 9 14q2 10 -7 40q-19 58 -7 120q14 65 43 97q21 26 46 26q29 0 48 -37q17 -38 2 -111q-18 -88 -67 -142q-38 -44 -76 -44q-26 0 -46 26q-19 26 -28 114l-27 -128l-88 273l155 754 q20 100 17 173q-3 78 -21 106q-11 18 -26 18q-8 0 -15 -7q-8 -6 -9 -15q-2 -12 7 -39q19 -58 7 -120q-14 -64 -43 -98q-22 -25 -46 -25q-30 0 -47 37q-18 37 -3 111q19 88 68 142q37 44 75 44q27 0 47 -26q17 -26 28 -114l26 128z" />
<glyph unicode="&#x1092;" horiz-adv-x="502" d="M79 1255q60 87 384 78v-122q0 -47 -13 -105q-2 -10 -12.5 -45.5t-25.5 -84t-32 -104.5t-32 -107.5t-26.5 -92t-14.5 -57.5q-20 -106 -20 -213q0 -61 3 -127q2 -33 3 -52.5t1 -26.5q0 -104 -39 -156q-29 -38 -73 -38q-46 0 -77 39q-32 40 -32 122q0 98 30 193 q31 94 141 297q15 28 32.5 70.5t34.5 90.5t33 98t28.5 95t21 80.5t10.5 54.5q-71 14 -124 20t-92.5 4t-66.5 -13.5t-45 -31.5l-23 -140q0 -3 -2 -9q-4 -2 -8 -2t-8 2q-3 4 -3 9v352h24z" />
<glyph unicode="&#x1093;" horiz-adv-x="738" d="M385 785q99 41 325 35v-122q0 -44 -14 -106q-2 -10 -9 -33.5t-16.5 -54.5t-20.5 -66.5t-21 -68.5t-18 -62t-11 -46q-14 -51 -15.5 -93t0 -75t1.5 -56t-10 -36q-12 -16 -29 -18.5t-33.5 7t-29 31.5t-14 56t10.5 80t45 104q24 43 45 101t37.5 116t27.5 108.5t14 79.5 q-116 22 -186.5 23t-110.5 -21l-52 -191l-1 -9q0 -6 -3 -9q-1 -1 -2 -1l-119 -436h62q4 0 8 -4q2 -5 0 -9q-2 -5 -3.5 -6.5l-3.5 -3.5q-3 -3 -10 -3l-216 1l362 1316h-108q-8 0 -11.5 5t-3.5 10.5t3.5 10.5t11.5 5h117h154h53q7 0 11 -5t4 -10.5t-4 -10.5t-11 -5h-61z" />
<glyph unicode="&#x1094;" horiz-adv-x="775" d="M548 -1l-162 261l5 722l-245 -957h64q10 0 15 -4t5 -9t-5 -9t-15 -4h-21h-126h-41q-11 0 -16 4t-5 9t5 9t16 4h49l385 1301q2 5 3.5 7.5t3.5 4.5q4 4 11 4h59q9 0 14 -5q5 -4 5 -11l-5 -1080q3 -61 17 -116q20 -78 43 -106q13 -18 30 -18q9 0 13 7q6 6 6 14q0 11 -15 40 q-32 59 -32 120q0 63 23 97q15 26 41 26q29 0 55 -37q25 -38 25 -111q0 -88 -38 -142q-28 -44 -66 -44q-28 0 -52 26q-24 25 -51 111z" />
<glyph unicode="&#x1095;" horiz-adv-x="683" d="M494 26h39q10 -6 10 -13q0 -6 -10 -13h-205v83q-30 -58 -52 -76q-23 -19 -54 -19q-70 0 -115 78q-77 127 -77 448q0 320 52 446q51 126 140 126q27 0 49 -14q21 -16 44 -55v291h-53q-9 0 -12 3q-4 3 -4 9l3 8q6 4 13 4h271q4 0 8 -4q3 -3 3 -8q0 -6 -3 -9t-8 -3h-39v-482 q5 -9 8.5 -16.5t8.5 -12.5q15 -18 30 -18q7 0 14 7q6 6 6 15q0 11 -16 40q-31 56 -31 119q0 64 22 98q17 25 41 25q31 0 55 -37q26 -38 26 -111q0 -84 -38 -142q-30 -44 -67 -44q-27 0 -51 26q-2 2 -4 4.5t-4 5.5v-759zM315 887q0 83 -25 122q-18 25 -39 25q-17 0 -26 -13 q-13 -17 -13 -65v-856q0 -40 11 -54q10 -15 25 -15q22 0 40 27q27 39 27 117v712z" />
<glyph unicode="&#x1096;" horiz-adv-x="698" d="M312 25v296q-20 -25 -34.5 -40t-24.5 -22q-20 -12 -45 -12q-67 0 -109 71q-67 112 -67 413q0 123 9 269q9 147 37 212q27 65 72 100q46 34 90 34t81 -40q36 -38 54 -142q25 37 46.5 71.5t38.5 68.5q21 42 30 42q5 -7 5 -13v-713q6 8 8 11q26 26 52 26q38 0 67 -44 q38 -56 38 -142q0 -71 -26 -111q-25 -37 -55 -37q-24 0 -41 26q-22 32 -22 97q0 62 31 120q16 30 16 40q0 8 -6 14q-6 7 -14 7q-15 0 -30 -18q-5 -5 -9 -13t-9 -17v-554h34q5 0 10 -3q4 -4 4 -10l-3 -7q-4 -4 -11 -4h-267q-5 0 -8 4q-3 3 -3 7q0 7 3 10t8 3h50zM211 340 q0 -21 11 -35q6 -9 20 -9q29 0 47 38q23 52 23 86v827q0 32 -18 56q-11 14 -32 14t-32 -18q-19 -25 -19 -83v-876z" />
<glyph unicode="&#x1097;" horiz-adv-x="527" d="M67 1340h417l-297 -1314h68q39 0 78 41q54 57 87 173q33 117 33 151v50q7 9 16 11q6 0 15 -11v-441h-484l298 1314h-43q-33 0 -67 -37q-32 -35 -64 -140q-20 -68 -30 -144l-3 -63q-3 -7 -11 -7q-5 0 -9 3q-4 6 -4 11v403z" />
<glyph unicode="&#x1098;" horiz-adv-x="751" d="M285 634q-9 -12 -22.5 -35t-28.5 -53t-29.5 -64t-26.5 -67t-19.5 -62.5t-7.5 -50.5q0 -144 59 -210q42 -49 102 -49q51 0 86 35q35 37 35 115t-35 186q-9 27 -19 52.5t-23 55t-30 65t-41 82.5zM722 1372q9 0 13.5 -5t4.5 -11t-4.5 -10.5t-13.5 -4.5h-56q34 -60 34 -146 q-17 -53 -43.5 -103.5t-59.5 -97.5t-71 -90t-77 -82q5 -13 9.5 -22.5t9 -18.5l9.5 -19l12 -24q44 -90 72.5 -155.5t41.5 -107.5q14 -42 20 -81.5t6 -76.5q0 -152 -87 -233q-86 -82 -216 -82q-118 0 -192 70q-75 72 -75 207q0 85 41 181q40 93 158 248l-90 204 q-20 45 -32.5 82.5t-19.5 66.5q-8 31 -11 59.5t-3 55.5q0 100 44 165h-98q-9 0 -13.5 4.5t-4.5 10.5t4.5 11t13.5 5h262q9 0 13.5 -5t4.5 -11t-4.5 -10.5t-13.5 -4.5h-44q-5 -9 -6.5 -20.5t-1.5 -24.5q0 -123 164 -423q23 33 51 69t53 75.5t41.5 82t16.5 88.5q0 119 -42 164 q-4 5 -12 11l-12 9h204z" />
<glyph unicode="&#x1099;" horiz-adv-x="712" d="M455 740q13 18 36 60t44.5 92t37.5 99t16 81q0 144 -59 210q-42 49 -102 49q-51 0 -86 -35q-35 -37 -35 -115t35 -186q9 -27 19 -52.5t23 -55t30 -65t41 -82.5zM18 2q-9 0 -13.5 5t-4.5 11t4.5 10.5t13.5 4.5h56q-34 60 -34 146q17 53 43.5 103.5t59.5 97.5t71 90t77 82 q-5 13 -9.5 22l-9 18t-9.5 19.5t-12 24.5q-44 90 -72.5 155.5t-41.5 107.5q-14 42 -20 81.5t-6 76.5q0 152 87 233q86 82 216 82q118 0 192 -70q75 -72 75 -207q0 -85 -41 -181q-40 -93 -158 -248l90 -204q20 -45 32.5 -82.5t19.5 -66.5q8 -31 11 -59.5t3 -55.5 q0 -100 -44 -165h98q9 0 13.5 -4.5t4.5 -10.5t-4.5 -11t-13.5 -5h-262q-9 0 -13.5 5t-4.5 11t4.5 10.5t13.5 4.5h44q5 9 6.5 20.5t1.5 24.5q0 123 -164 423q-23 -33 -51 -69t-53 -75.5t-41.5 -82t-16.5 -88.5q0 -119 42 -164q4 -5 12 -11l12 -9h-204z" />
<glyph unicode="&#x109a;" horiz-adv-x="301" d="M131 1010v-140q0 -11 6.5 -18t15.5 -7h1q9 0 15.5 7t6.5 18v140q0 11 -6.5 18t-15.5 7h-1q-9 0 -15.5 -7t-6.5 -18zM40 980q0 19 9 36.5t24 30t35.5 20t43.5 7.5h4q23 0 43 -7.5t35 -20t24 -30t9 -36.5v-80q0 -19 -9 -36t-24 -29.5t-35 -20t-43 -7.5h-4q-23 0 -43.5 7.5 t-35.5 20t-24 29.5t-9 36v80zM131 1010v-140q0 -11 6.5 -18t15.5 -7h1q9 0 15.5 7t6.5 18v140q0 11 -6.5 18t-15.5 7h-1q-9 0 -15.5 -7t-6.5 -18zM40 980q0 19 9 36.5t24 30t35.5 20t43.5 7.5h4q23 0 43 -7.5t35 -20t24 -30t9 -36.5v-80q0 -19 -9 -36t-24 -29.5t-35 -20 t-43 -7.5h-4q-23 0 -43.5 7.5t-35.5 20t-24 29.5t-9 36v80z" />
<glyph unicode="&#x109b;" horiz-adv-x="300" d="M130 1402v-126q0 -12 6 -20.5t14 -8.5h1q9 0 15 8.5t6 20.5v126q0 12 -6 20.5t-15 8.5h-1q-8 0 -14 -8.5t-6 -20.5zM41 1368q0 22 8.5 41.5t23 34t34 23t42.5 8.5h4q22 0 41.5 -8.5t34 -23t23 -34t8.5 -41.5v-58q0 -35 -18 -60l-109 -155h-43l50 108q-21 2 -39 11 t-31.5 23.5t-21 33t-7.5 39.5v58zM130 1402v-126q0 -12 6 -20.5t14 -8.5h1q9 0 15 8.5t6 20.5v126q0 12 -6 20.5t-15 8.5h-1q-8 0 -14 -8.5t-6 -20.5zM41 1368q0 22 8.5 41.5t23 34t34 23t42.5 8.5h4q22 0 41.5 -8.5t34 -23t23 -34t8.5 -41.5v-58q0 -35 -18 -60l-109 -155 h-43l50 108q-21 2 -39 11t-31.5 23.5t-21 33t-7.5 39.5v58z" />
<glyph unicode="&#x109c;" horiz-adv-x="449" d="M122 615q0 -12 6.5 -20.5t15.5 -8.5h1q8 0 14.5 8.5t6.5 20.5v129q0 13 -6.5 21.5t-14.5 8.5h-1q-9 0 -15.5 -8.5t-6.5 -21.5v-129zM256 676v-25q0 -23 -8.5 -43t-23.5 -35t-35 -23.5t-43 -8.5h-4q-23 0 -43 8.5t-35 23.5t-23.5 35t-8.5 43v58q0 23 8.5 43t23.5 35 t35 23.5t43 8.5h4q36 0 64 -20l195 -87l-1 -85zM122 615q0 -12 6.5 -20.5t15.5 -8.5h1q8 0 14.5 8.5t6.5 20.5v129q0 13 -6.5 21.5t-14.5 8.5h-1q-9 0 -15.5 -8.5t-6.5 -21.5v-129zM256 676v-25q0 -23 -8.5 -43t-23.5 -35t-35 -23.5t-43 -8.5h-4q-23 0 -43 8.5t-35 23.5 t-23.5 35t-8.5 43v58q0 23 8.5 43t23.5 35t35 23.5t43 8.5h4q36 0 64 -20l195 -87l-1 -85zM122 76q0 -12 6.5 -20.5t15.5 -8.5h1q8 0 14.5 8.5t6.5 20.5v129q0 13 -6.5 21.5t-14.5 8.5h-1q-9 0 -15.5 -8.5t-6.5 -21.5v-129zM256 112q0 -23 -8.5 -43t-23.5 -35t-35 -23.5 t-43 -8.5h-4q-23 0 -43 8.5t-35 23.5t-23.5 35t-8.5 43v58q0 23 8.5 43t23.5 35t35 23.5t43 8.5h4q36 0 64 -20l195 -87l-1 -85l-148 49v-25zM122 76q0 -12 6.5 -20.5t15.5 -8.5h1q8 0 14.5 8.5t6.5 20.5v129q0 13 -6.5 21.5t-14.5 8.5h-1q-9 0 -15.5 -8.5t-6.5 -21.5v-129z M256 112q0 -23 -8.5 -43t-23.5 -35t-35 -23.5t-43 -8.5h-4q-23 0 -43 8.5t-35 23.5t-23.5 35t-8.5 43v58q0 23 8.5 43t23.5 35t35 23.5t43 8.5h4q36 0 64 -20l195 -87l-1 -85l-148 49v-25z" />
<glyph unicode="&#x109d;" d="M-646 1489q0 69 -30 96.5t-66.5 23t-64 -32t-23.5 -69.5l-140 56q11 61 50 103.5t90.5 64t110 20t107 -30.5t79.5 -85.5t31 -145.5v-183v-67.5t1 -60t1 -44.5v-20q0 -6 22 -25l-120 -83q-19 15 -32 35t-16 44v404z" />
<glyph unicode="&#x109e;" horiz-adv-x="747" d="M461 777l2 -886q0 -98 23 -178q22 -79 52 -110q16 -18 36 -18q10 1 17 8q7 4 7 14q0 13 -19 41q-38 61 -38 124q0 64 27 100q21 26 50 26q37 0 67 -38q31 -38 31 -114q0 -89 -46 -147q-36 -45 -81 -45q-33 0 -63 27q-28 26 -63 118v-133l-176 281l-2 913q0 99 -23 179 q-25 80 -52 109q-18 18 -36 18q-11 0 -18 -7t-7 -15q0 -9 19 -41q39 -60 39 -123q0 -66 -27 -100q-20 -26 -51 -26q-38 0 -67 38q-31 40 -31 114q0 86 46 146q36 45 81 45q33 0 63 -27q29 -26 64 -117v132zM293 1400q40 0 66 -32q27 -30 27 -87q0 -55 -28 -88 q-29 -32 -66 -32q-38 0 -63 28q-25 29 -25 85q0 65 26 94q25 32 63 32z" />
<glyph unicode="&#x109f;" horiz-adv-x="897" d="M550 1108l260 -169v-1359h62q5 0 9 -4q3 -3 3 -9q0 -5 -1.5 -6.5l-3.5 -3.5q-3 -3 -9 -3q-161 -5 -287 -7q-54 -1 -105 -1t-91.5 0.5t-65 2.5t-24.5 6q2 2 10 13t17 23l24 32v56.5v85.5v103t-0.5 111t-0.5 109v95.5v72v38.5v650q0 64 -20 90q-11 13 -22.5 18.5t-28.5 7.5 q-27 2 -44 -12.5t-34 -35.5q-18 -22 -31 -62t-21 -91.5t-12 -110t-5.5 -116.5t-1 -111.5t1.5 -95t2.5 -66.5t2.5 -26q2 -5 8 -5t22 13q26 21 50 23q30 0 59 -37q29 -36 29 -104q0 -66 -26 -98q-24 -32 -60 -32q-45 0 -77 43q-21 29 -45 78t-34 108q-17 98 -24.5 192t0 180.5 t32.5 165.5t72 147q30 45 70.5 61.5t94.5 16.5q52 0 90 -18.5t71 -56.5q65 -76 65 -228v-32.5v-72v-91.5v-91.5t-0.5 -71.5t-0.5 -32v-87.5t-0.5 -137.5t-0.5 -163.5t-0.5 -166.5t-1 -146t-0.5 -101q20 -4 35 -6.5t21 -2.5h42v1431l-271 169q-4 20 -6 39.5t-2 39.5 q0 140 75 242q56 75 152 89l36 1h7q46 0 83.5 -18t69.5 -50q68 -68 68 -173q0 -37 -7 -63t-18 -41q-24 -30 -61 -30q-34 0 -58 24q-23 23 -23 63q0 39 23 63q24 26 51 26q5 0 11.5 -0.5t14.5 -1.5l13 -2q8 0 11 3q3 4 3 14q0 61 -55 110q-52 49 -144 52l-25 -3 q-54 -13 -85 -52q-29 -38 -29 -95q0 -30 6.5 -61.5t18.5 -64.5q6 -17 11 -38.5t12 -45.5t17 -49.5t26 -49.5z" />
<glyph unicode="&#x1700;" />
<glyph unicode="&#x200b;" />
<glyph unicode="&#x200c;" />
<glyph unicode="&#x200d;" />
<glyph unicode="&#x2013;" horiz-adv-x="1024" d="M-12 544h1048v-61h-1048v61z" />
<glyph unicode="&#x2014;" horiz-adv-x="2048" d="M-12 549h2072v-60h-2072v60z" />
<glyph unicode="&#x2018;" horiz-adv-x="276" d="M105 1254q0 -11 2 -15l4 -3l8 2q10 3 18 3q41 0 66 -28.5t25 -85.5q0 -61 -27.5 -93t-66.5 -32q-38 0 -68 36t-30 101q0 90 42.5 189.5t103.5 164.5q23 23 29 23q9 -6 9 -11q0 -8 -8 -19q-57 -73 -82 -129.5t-25 -102.5z" />
<glyph unicode="&#x2019;" horiz-adv-x="276" d="M154 1276q-24 -3 -30 -3q-38 0 -64.5 30t-26.5 83q0 60 29 95t64 35q38 0 68.5 -37.5t30.5 -105.5q0 -145 -104 -292q-53 -76 -72 -76q-10 6 -10 11q0 6 28 40q46 55 65 105.5t22 114.5z" />
<glyph unicode="&#x201a;" horiz-adv-x="276" d="M163 -21q-18 -4 -29 -4q-39 0 -65.5 30t-26.5 85q0 62 29 96.5t66 34.5q36 0 66 -38.5t30 -112.5q0 -128 -96 -270q-63 -93 -81 -93q-5 0 -12 9q0 5 8 14q52 57 88 133q22 46 23 116z" />
<glyph unicode="&#x201c;" horiz-adv-x="512" d="M103 1254q0 -11 2 -15l4 -3l8 2q10 3 18 3q41 0 66 -28.5t25 -85.5q0 -61 -27.5 -93t-66.5 -32q-38 0 -68 36t-30 101q0 90 42.5 189.5t103.5 164.5q23 23 29 23q9 -6 9 -11q0 -8 -8 -19q-57 -73 -82 -129.5t-25 -102.5zM339 1254q0 -11 2 -15l4 -3l8 2q10 3 18 3 q41 0 66 -28.5t25 -85.5q0 -61 -27.5 -93t-66.5 -32q-38 0 -68 36t-30 101q0 90 42.5 189.5t103.5 164.5q23 23 29 23q9 -6 9 -11q0 -8 -8 -19q-57 -73 -82 -129.5t-25 -102.5z" />
<glyph unicode="&#x201d;" horiz-adv-x="512" d="M156 1276q-24 -3 -30 -3q-38 0 -64.5 30t-26.5 83q0 60 29 95t64 35q38 0 68.5 -37.5t30.5 -105.5q0 -145 -104 -292q-53 -76 -72 -76q-10 6 -10 11q0 6 28 40q46 55 65 105.5t22 114.5zM389 1276q-24 -3 -30 -3q-38 0 -64.5 30t-26.5 83q0 60 29 95t64 35 q38 0 68.5 -37.5t30.5 -105.5q0 -145 -104 -292q-53 -76 -72 -76q-10 6 -10 11q0 6 28 40q46 55 65 105.5t22 114.5z" />
<glyph unicode="&#x2020;" horiz-adv-x="597" d="M208 830q34 65 53 132.5t19 130.5q0 6 -1 17q-47 0 -119 -41q-36 -20 -56 -20q-30 0 -50.5 21.5t-20.5 59.5t20 60t49 22q26 0 70 -26q65 -39 108 -39v11q0 31 -8 67q-3 17 -27 83q-36 100 -36 129q0 36 23 57.5t68 21.5q41 0 64 -22.5t23 -61.5q0 -36 -34.5 -127 t-34.5 -157q24 0 46 7q15 5 61 31t67 26q30 0 51 -22t21 -61q0 -36 -20.5 -58.5t-45.5 -22.5q-19 0 -57 21q-76 42 -113 42h-10v-22q0 -109 68 -260q-10 -44 -32 -193t-26 -219q-9 -132 -9 -228v-204h-39l-1 205q-1 275 -71 640z" />
<glyph unicode="&#x2022;" horiz-adv-x="717" d="M363 928q104 0 177 -73.5t73 -176.5q0 -105 -73 -178.5t-176 -73.5q-105 0 -178.5 73.5t-73.5 177.5q0 103 73.5 177t177.5 74z" />
<glyph unicode="&#x2030;" horiz-adv-x="1067" d="M302 1427q31 -92 31 -284q0 -242 -48 -319q-32 -52 -92 -52t-96 54q-50 75 -50 274v158q0 136 52 207q37 51 93 51q54 0 97 -57q47 -30 119 -30q101 0 220 72q25 15 38 15q8 0 12 -3t4 -8t-4 -12l-3 -8l-590 -1496h-55l582 1477q-107 -61 -195 -61q-52 0 -115 22z M156 849q0 -28 9.5 -40t24.5 -12t24.5 12t9.5 40v594q0 27 -12 41q-9 11 -24 11q-14 0 -23 -11.5t-9 -40.5v-594zM389 305v172q0 138 52 210q40 55 92 55q53 0 91 -54q51 -72 51 -225v-218q0 -131 -55 -205q-38 -52 -91 -52q-39 0 -69 26t-46 89q-25 97 -25 202zM496 69 q0 -30 8.5 -41t24.5 -11q14 0 24 12q13 16 13 40v605q0 17 -12 30q-9 10 -24 10q-14 0 -24 -11t-10 -29v-605zM750 305v172q0 138 52 210q40 55 92 55q53 0 91 -54q51 -72 51 -225v-218q0 -131 -55 -205q-37 -52 -91 -52q-39 0 -69 26t-46 89q-25 97 -25 202zM857 69 q0 -30 8.5 -41t24.5 -11q14 0 24 12q13 16 13 40v605q0 17 -12 30q-9 10 -24 10q-14 0 -24 -11t-10 -29v-605z" />
<glyph unicode="&#x2039;" horiz-adv-x="342" d="M273 1111h25l-92 -547l92 -549h-25l-248 549z" />
<glyph unicode="&#x203a;" horiz-adv-x="342" d="M28 1109h23l249 -546l-249 -551h-23l96 551z" />
<glyph unicode="&#x2044;" horiz-adv-x="220" d="M265 1516h55l-586 -1528h-55z" />
<glyph unicode="&#x20ac;" horiz-adv-x="575" d="M285 821v-114h147v-54h-147v-526q0 -49 22 -80t53 -31q73 0 112.5 105.5t39.5 294.5v65q0 21 16 21q15 0 15 -21v-59q0 -217 -42 -327.5t-147 -110.5q-154 0 -207.5 204.5t-56.5 464.5h-72v54h72v114h-72v53h74q22 644 266 644q43 0 63.5 -18.5t47.5 -65.5l51 82h10v-512 q0 -15 -14 -15q-12 0 -12 12l-2 56q-4 145 -40.5 289.5t-94.5 144.5q-34 0 -58 -35.5t-24 -87.5v-494h147v-53h-147z" />
<glyph unicode="&#x2122;" horiz-adv-x="1920" d="M745 1354v-201h-39q-11 81 -46.5 115.5t-97.5 34.5h-55v-558q0 -53 16 -71t51 -18h36v-30h-393v30h37q36 0 51.5 18t15.5 71v558h-64q-52 0 -81 -27q-46 -42 -55 -123h-40v201h664zM1316 878l210 476h293v-30h-27q-35 0 -50.5 -18t-15.5 -72v-489q0 -53 15.5 -71 t50.5 -18h27v-30h-379v30h35q35 0 50.5 18t15.5 71v506l-276 -625h-29l-274 620v-483q0 -59 12 -77q21 -30 65 -30h22v-30h-248v30q50 0 71.5 22t21.5 85v471q0 54 -15.5 72t-49.5 18h-28v30h293z" />
<glyph unicode="&#x2202;" horiz-adv-x="1003" d="M925 717q12 113 12 186q0 180 -94.5 278.5t-251.5 98.5q-106 0 -176 -40t-125 -119h-46q77 158 166 229.5t215 71.5q90 0 175.5 -49t138 -158t52.5 -295q0 -355 -154 -636q-173 -315 -438 -315q-156 0 -247.5 90t-91.5 245q0 117 46.5 229.5t117.5 190.5t158 124 q113 60 230 60q82 0 148.5 -31.5t109.5 -76.5q27 -28 55 -83zM908 628q-39 111 -116.5 168t-170.5 57q-90 0 -177 -62t-151 -217.5t-64 -310.5q0 -114 55 -175.5t140 -61.5q123 0 251 130q163 166 233 472z" />
<glyph unicode="&#x220f;" horiz-adv-x="1686" d="M1240 1412h-795v-1591q0 -83 37 -119t125 -36h36v-38h-597v38h35q88 0 125.5 35.5t37.5 119.5v1477q0 83 -37 119t-126 36h-35v37h1594v-37h-35q-88 0 -125 -36t-37 -119v-1477q0 -83 37 -119t125 -36h35v-38h-597v38h35q88 0 125 35.5t37 119.5v1591z" />
<glyph unicode="&#x2211;" horiz-adv-x="777" d="M726 348q-42 -289 -42 -349h-649l370 762l-366 779l608 -2l5 -287h-19q-16 126 -53 171q-31 39 -103 39h-294l304 -650l-324 -667h402q60 0 87 44q25 39 50 160h24z" />
<glyph unicode="&#x221a;" horiz-adv-x="1131" d="M1077 1674h62l-324 -1752l-508 1033l-192 -91l-28 52l301 151l417 -835z" />
<glyph unicode="&#x221e;" horiz-adv-x="1024" d="M458 846q47 109 104 151.5t155 42.5q112 0 190 -81t78 -211q0 -128 -76 -210.5t-168 -82.5q-62 0 -120 43q-44 33 -116 157q-45 -87 -98 -125t-129 -38q-100 0 -170 72t-70 186q0 115 64.5 186t150.5 71q64 0 109.5 -34t95.5 -127zM526 705q50 -105 100 -145t117 -40 q86 0 144 62t58 166q0 103 -61 170.5t-136 67.5q-49 0 -85.5 -25t-65.5 -79q-14 -27 -71 -177zM438 792q-34 77 -78.5 114t-108.5 37q-74 0 -124 -52.5t-50 -139.5q0 -93 49 -149t112 -56q66 0 117 60q33 38 83 186z" />
<glyph unicode="&#x222b;" horiz-adv-x="555" d="M197 717l20 432q11 148 51 244q26 61 73 92t91 31q50 0 87.5 -33.5t37.5 -73.5q0 -47 -26.5 -75.5t-65.5 -28.5q-35 0 -76 36q-23 20 -40 20t-28.5 -14t-11.5 -49q0 -46 25 -314l18 -206q3 -53 3 -136q0 -72 -14 -501q-5 -158 -24 -263.5t-50.5 -155.5t-69 -72t-82.5 -22 q-52 0 -85 34t-33 87q0 45 25.5 72t64.5 27q40 0 69 -32t49 -32q17 0 28 14t11 47q0 42 -9 120q-17 140 -26 333q-12 251 -12 419z" />
<glyph unicode="&#x2248;" horiz-adv-x="960" d="M822 1037h36q-2 -101 -54 -157t-127 -56q-35 0 -75 11.5t-187 72.5q-105 44 -151 44q-48 0 -80.5 -30t-44.5 -97h-37q6 108 55.5 160.5t119.5 52.5t267 -84q104 -45 152 -45q50 0 84.5 33t41.5 95zM822 688h36q-2 -101 -54 -157.5t-126 -56.5q-36 0 -76.5 12t-186.5 73 q-105 43 -150 43q-48 0 -81 -29.5t-45 -96.5h-37q6 108 55.5 160.5t119.5 52.5t267 -85q105 -45 151 -45q51 0 85.5 33t41.5 96z" />
<glyph unicode="&#x2260;" horiz-adv-x="960" d="M100 968h421l146 371h77l-142 -371h258v-92h-295l-92 -236h387v-92h-422l-147 -369h-79l146 369h-258v92h294l92 236h-386v92z" />
<glyph unicode="&#x2264;" horiz-adv-x="960" d="M100 942l760 319v-99l-637 -262l637 -262v-99l-761 320zM99 384h761v-92h-761v92z" />
<glyph unicode="&#x2265;" horiz-adv-x="960" d="M860 942v-83l-761 -320v99l637 262l-637 262v99zM860 384v-92h-761v92h761z" />
<glyph unicode="&#x25ca;" horiz-adv-x="1012" d="M503 1509l446 -765l-446 -787l-443 787zM503 1244l-291 -500l291 -522l292 522z" />
<glyph unicode="&#xa900;" horiz-adv-x="1229" d="M345 -20q-105 0 -176 78q-70 79 -70 216v589q0 267 235 294h548q247 -8 247 -294v-589q0 -109 -37 -175q-38 -67 -91 -94q-53 -25 -101 -25h-555zM858 112q117 0 117 147v612q0 147 -140 147h-465q-130 -3 -130 -171v-575q0 -158 147 -158z" />
<glyph unicode="&#xa901;" horiz-adv-x="1125" d="M489 101l290 -2q105 0 105 89v73q0 9 -37 9q-91 0 -206 -43.5t-152 -125.5zM884 755v148q0 67 -20 99t-90 32h-433q-75 -2 -95 -46t-20 -106v-3h-127v16q0 238 211 263h506q206 -6 206 -263v-254h-681q-115 -2 -115 -169v-231q0 -140 131 -140q23 90 117 156.5t216 102.5 t216 36q116 0 116 -47v-105q0 -97 -34 -157t-81 -83.5t-91 -23.5h-496q-94 0 -157.5 70.5t-63.5 193.5v242q0 245 211 269h574z" />
<glyph unicode="&#xa902;" horiz-adv-x="1239" d="M699 -20h-159l-441 1177h141l379 -1006l363 1006h147z" />
<glyph unicode="&#xa903;" horiz-adv-x="1244" d="M387 716h-288v147q0 267 235 294h548q247 -8 247 -294v-118l-886 -430l-3 -43q0 -92 49 -131q10 23 86 76q88 61 212 109t236 48h306v-100q0 -108 -37.5 -175t-90.5 -93t-101 -26h-555q-105 0 -175.5 78.5t-70.5 215.5v135l876 407v55q0 147 -140 147h-465 q-130 -2 -130 -171v-31h147v-100zM387 114l471 -2q117 0 117 112v38h-140q-88 0 -172 -28t-199 -77q-70 -29 -110 -41q16 -2 33 -2z" />
<glyph unicode="&#xa904;" horiz-adv-x="1234" d="M239 969l189 188h454q247 -8 247 -294v-587q0 -158 -73.5 -226t-155.5 -68h-160v129l118 3q117 0 117 148v609q0 147 -140 147h-359l-237 -238v-148q0 -156 148 -156h95v-136h-137q-106 0 -176 79t-70 215v523h140v-188z" />
<glyph unicode="&#xa905;" horiz-adv-x="1234" d="M523 112v-132h-178q-105 0 -175.5 78.5t-70.5 215.5v589q0 267 235 294h801v-302h-141v164h-624q-130 -3 -130 -171v-576q0 -158 147 -158z" />
<glyph unicode="&#xa906;" horiz-adv-x="1234" d="M975 342v529q0 147 -140 147h-124l-471 -780v-258h-141v1177h141v-630l383 630h259q247 -8 247 -294v-677q-71 -206 -271 -206q-113 0 -180.5 53.5t-69.5 142.5q0 87 45.5 163t150.5 76h36q19 0 42 -5.5t47.5 -22t45.5 -45.5zM928 183q-9 109 -111 109q-85 -8 -85 -103 q0 -86 85 -97q96 0 111 91z" />
<glyph unicode="&#xa907;" horiz-adv-x="1239" d="M541 817v-139h-171q-130 -2 -130 -171v-235q0 -158 147 -158l471 -2q117 0 117 147v417h-140v141h140v209l-140 -106v168l140 98h154v-912q0 -108 -37.5 -175t-90.5 -93t-101 -26h-555q-105 0 -175.5 78.5t-70.5 215.5v249q0 267 235 294h207z" />
<glyph unicode="&#xa908;" horiz-adv-x="1229" d="M1129 409v-135q0 -108 -37.5 -175t-90.5 -93t-101 -26h-555q-105 0 -175.5 78.5t-70.5 215.5v883h141v-885q0 -158 147 -158l471 -2q117 0 117 147v150h154z" />
<glyph unicode="&#xa909;" horiz-adv-x="1244" d="M892 817q235 -27 235 -294v-249q0 -137 -70.5 -215.5t-175.5 -78.5h-555q-48 0 -101 26t-90.5 93t-37.5 175v912h154l140 -98v-168l-140 106v-209h140v-141h-140v-417q0 -147 117 -147l471 2q147 0 147 158v235q0 169 -130 171h-171v139h207z" />
<glyph unicode="&#xa90a;" horiz-adv-x="1353" d="M905 1022l-318 -321v-721h-488v312q0 63 13.5 110t65.5 78l268 267v116q0 86 -16.5 122.5t-77.5 36.5l-35 3q-49 0 -63 -32t-14 -110v-103h-141v201q0 170 147 176h171q82 0 126 -53t44 -144v-73l271 270h148q247 -8 247 -294v-883h-330v132h176v759q0 151 -141 151h-53z M240 286v-174l206 2v444l-165 -166q-41 -48 -41 -106z" />
<glyph unicode="&#xa90b;" horiz-adv-x="1234" d="M975 668v203q0 147 -140 147h-465q-130 -2 -130 -171v-179h735zM975 551h-876v312q0 267 235 294h548q247 -8 247 -294v-589q0 -108 -37.5 -175t-90.5 -93t-101 -26h-555q-105 0 -175.5 78.5t-70.5 215.5v111h403v-105h-262v-8q0 -158 147 -158l471 -2q117 0 117 147v292 z" />
<glyph unicode="&#xa90c;" horiz-adv-x="1244" d="M975 592v279q0 147 -140 147h-41l-415 -429zM240 633l500 524h142q247 -8 247 -294v-883h-347v132h193v345h-735v-345h211v-132h-352v1177h141v-524z" />
<glyph unicode="&#xa90d;" horiz-adv-x="1239" d="M753 468h376v-194q0 -108 -37.5 -175t-90.5 -93t-101 -26h-555q-105 0 -175.5 78.5t-70.5 215.5v589q0 267 235 294h548q247 -8 247 -294v-201h-371v115l217 3v91q0 147 -140 147h-465q-130 -2 -130 -171v-575q0 -158 147 -158l471 -2q117 0 117 147v85h-222v124z" />
</font>
</defs>
</svg>
