<?xml version="1.0" standalone="no"?>
<!DOCTYPE svg PUBLIC "-//W3C//DTD SVG 1.1//EN" "http://www.w3.org/Graphics/SVG/1.1/DTD/svg11.dtd" >
<svg>
<metadata>
Created by FontForge 20090914 at Sun Jul 24 19:34:10 2011
 By www-data
Copyright (c) 2009 by Ayar Unicode Group. All rights reserved.
</metadata>
<defs>
<font id="Ayar" horiz-adv-x="0" >
  <font-face 
    font-family="Ayar"
    font-weight="400"
    font-stretch="normal"
    units-per-em="2048"
    panose-1="2 11 6 4 3 5 4 4 2 4"
    ascent="1638"
    descent="-410"
    x-height="1061"
    cap-height="1466"
    bbox="-2221 -1048.13 5041 2094"
    underline-thickness="130"
    underline-position="-885"
    unicode-range="U+0020-U+FB02"
  />
<missing-glyph horiz-adv-x="594" 
 />
    <glyph glyph-name="mon_01" unicode="&#x100a;&#x1039;&#x100a;" horiz-adv-x="2203" 
d="M874 -701l0.00292969 140.998c-6 6 -11.833 12.167 -17.5 18.5s-11.167 13.166 -16.5 20.499c-13.333 18 -17.333 35.333 -12 52s15.166 29.667 29.499 39s30.833 13.333 49.5 12s34.667 -11 48 -29c17.333 -24 40.166 -43 68.499 -57s59.5 -21 93.5 -21
c26.667 0 51.667 4.5 75 13.5s43.833 21.5 61.5 37.5s31.667 34.833 42 56.5s16.166 44.834 17.499 69.501v10c-0.666992 24.667 -6.33398 47.834 -17.001 69.501s-24.667 40.667 -42 57s-37.833 29.166 -61.5 38.499s-48.834 14 -75.501 14
c-33.333 0 -64 -6.83301 -92 -20.5s-50.667 -32.167 -68 -55.5c-14 -18 -30.333 -27.5 -49 -28.5s-35 3.33301 -49 13s-23.5 23 -28.5 40s-0.5 34.167 13.5 51.5c30 40 68.833 72 116.5 96s99.834 36 156.501 36c46.667 0 90.334 -8.33301 131.001 -25
s76.167 -39.167 106.5 -67.5s54.333 -61.666 72 -99.999s26.5 -79.166 26.5 -122.499v-6c0.666992 -24.667 6.33398 -47.834 17.001 -69.501s24.834 -40.5 42.501 -56.5s38.167 -28.5 61.5 -37.5s48.333 -13.5 75 -13.5s52 4.66699 76 14s44.833 22.333 62.5 39
s31.667 36.167 42 58.5s15.5 46.166 15.5 71.499s-5.16699 49.166 -15.5 71.499s-24.333 41.666 -42 57.999s-38.5 29.333 -62.5 39s-49.333 14.5 -76 14.5c-23.333 0 -41 6.83301 -53 20.5s-18 28.834 -18 45.501s6 31.834 18 45.501s29.667 20.5 53 20.5
c46.667 0 90.334 -8.33301 131.001 -25s76.334 -39.167 107.001 -67.5s54.834 -61.666 72.501 -99.999s26.5 -79.166 26.5 -122.499c0 -44 -8.83301 -85 -26.5 -123s-41.834 -71.333 -72.501 -100s-66.334 -51.167 -107.001 -67.5s-84.334 -24.5 -131.001 -24.5
c-54 0 -104 11 -150 33s-84.333 52 -115 90c-32 -38 -70.833 -68 -116.5 -90s-95.834 -33 -150.501 -33c-33.333 0 -66.666 4.66699 -99.999 14v-58c0 -20 7.5 -37.167 22.5 -51.5s33.5 -21.5 55.5 -21.5h664c21.333 0 39.5 7.16699 54.5 21.5s22.5 31.5 22.5 51.5
c0 14 7.5 24.667 22.5 32s31.5 11 49.5 11s34.5 -3.66699 49.5 -11s22.5 -18 22.5 -32c0 -28.667 -5.83301 -55.5 -17.5 -80.5s-27.5 -46.833 -47.5 -65.5s-43.333 -33.334 -70 -44.001s-55.334 -16 -86.001 -16h-664c-30.667 0 -59.334 5.33301 -86.001 16
s-50 25.334 -70 44.001s-35.833 40.5 -47.5 65.5s-17.5 51.833 -17.5 80.5zM116.003 211.998c-12.667 16 -19.6631 32.502 -20.9961 49.502s1.16699 32.5 7.5 46.5s15.833 26 28.5 36s26.5 16.667 41.5 20s30.5 2.5 46.5 -2.5s30.667 -15.5 44 -31.5
c36 -45.333 80.167 -81.166 132.5 -107.499s109.5 -39.5 171.5 -39.5c54 0 104.667 10.167 152 30.5s88.666 48.166 123.999 83.499s63.166 76.666 83.499 123.999s30.5 98 30.5 152s-10.167 104.667 -30.5 152s-48.166 88.833 -83.499 124.5s-76.666 63.667 -123.999 84
s-98 30.5 -152 30.5c-63.333 0 -122 -14 -176 -42s-98.667 -65.667 -134 -113c-12.667 -16.667 -26.834 -27.667 -42.501 -33s-31.167 -6.5 -46.5 -3.5s-29.5 9.33301 -42.5 19s-22.833 21.5 -29.5 35.5s-9.5 29.167 -8.5 45.5s7.83301 32.833 20.5 49.5
c26 34.667 55.833 66 89.5 94s70 52 109 72s80.5 35.333 124.5 46s89.333 16 136 16c80 0 155 -15.167 225 -45.5s131.333 -71.5 184 -123.5s94.167 -113 124.5 -183s45.5 -145 45.5 -225v-12c1.33301 -52.667 12.5 -102 33.5 -148s49 -86 84 -120
s75.833 -60.833 122.5 -80.5s96.667 -29.5 150 -29.5c54 0 104.667 10.167 152 30.5s88.666 48.166 123.999 83.499s63.166 76.666 83.499 123.999s30.5 98 30.5 152s-10.167 104.667 -30.5 152s-48.166 88.833 -83.499 124.5s-76.666 63.667 -123.999 84
s-98 30.5 -152 30.5c-32.667 0 -59 4.66699 -79 14s-34.667 20.833 -44 34.5s-13.333 28.5 -12 44.5s7.33301 30.833 18 44.5s25.834 25.167 45.501 34.5s43.5 14 71.5 14c53.333 0 104.5 -6.83301 153.5 -20.5s94.833 -33 137.5 -58s81.667 -55.167 117 -90.5
s65.5 -74.333 90.5 -117s44.333 -88.5 58 -137.5s20.5 -100.167 20.5 -153.5c0 -80 -15.167 -155 -45.5 -225s-71.5 -131.167 -123.5 -183.5s-113 -93.666 -183 -123.999s-145 -45.5 -225 -45.5c-50.667 0 -99.5 6.16699 -146.5 18.5s-91.333 30 -133 53
s-79.834 50.667 -114.501 83s-65 68.166 -91 107.499c-26 -39.333 -56.167 -75.166 -90.5 -107.499s-72.333 -60 -114 -83s-86 -40.667 -133 -53s-95.833 -18.5 -146.5 -18.5c-46 0 -90.167 5 -132.5 15s-82.5 24.333 -120.5 43v-674c0 -28 9.66699 -51.667 29 -71
s43 -29 71 -29h184c17.333 0 32.666 -4.66699 45.999 -14s23.666 -20.833 30.999 -34.5s11.5 -28.667 12.5 -45s-1.33301 -31.333 -7 -45s-15.334 -25.167 -29.001 -34.5s-31.5 -14 -53.5 -14h-184c-40 0 -77.333 7.5 -112 22.5s-65 35.5 -91 61.5s-46.5 56.5 -61.5 91.5
s-22.5 72.167 -22.5 111.5v821c-5.33301 5.33301 -9 9.33301 -11 12z" />
    <glyph glyph-name="uni100C_1_lig" unicode="&#x1039;&#x100c;" 
d="M-563 -872c-16.667 -12 -33.1768 -18.3311 -49.5098 -18.998s-31.333 2.66602 -45 9.99902s-25.167 17.333 -34.5 30s-15.166 26.667 -17.499 42s-0.666016 30.666 5.00098 45.999s16.834 29 33.501 41c32.667 23.333 58.667 53.166 78 89.499s29 76.166 29 119.499
c0 35.333 -6.66699 68.666 -20 99.999s-31.666 58.666 -54.999 81.999s-50.666 41.666 -81.999 54.999s-65 20 -101 20c-35.333 0 -68.666 -6.66699 -99.999 -20s-58.666 -31.666 -81.999 -54.999s-41.666 -50.666 -54.999 -81.999s-20 -64.666 -20 -99.999
c0 -43.333 9.66699 -83.166 29 -119.499s45.333 -66.166 78 -89.499c16.667 -12 27.834 -25.667 33.501 -41s7.33398 -30.666 5.00098 -45.999s-8.16602 -29.333 -17.499 -42s-20.833 -22.667 -34.5 -30s-28.667 -10.666 -45 -9.99902s-32.833 7 -49.5 19l-8 6
c-2.66699 2 -5.33398 4.33301 -8.00098 7h-874c-36 -1.33301 -69.333 3.83398 -100 15.501s-57.167 28.5 -79.5 50.5s-39.833 48.5 -52.5 79.5s-19 65.5 -19 103.5v305c0 28 5.16699 56.667 15.5 86s25.833 55.666 46.5 78.999s46.334 42.166 77.001 56.499
s66 20.166 106 17.499c20 -1.33301 36.667 -6.83301 50 -16.5s23 -21.5 29 -35.5s8.5 -29 7.5 -45s-5.33301 -30.667 -13 -44s-18.5 -24.166 -32.5 -32.499s-31.333 -11.833 -52 -10.5c-13.333 1.33301 -25 -2.83398 -35 -12.501s-15 -23.834 -15 -42.501v-305
c0 -24.667 5.83301 -42 17.5 -52s27.167 -14.333 46.5 -13h740c-20 50 -30 104 -30 162c0 60.667 11.5 117.834 34.5 171.501s54.5 100.5 94.5 140.5s86.667 71.667 140 95s110.666 35 171.999 35s118.833 -11.667 172.5 -35s100.5 -55 140.5 -95s71.667 -86.833 95 -140.5
s35 -110.834 35 -171.501c0 -37.333 -4.33301 -73.166 -13 -107.499s-21 -66.833 -37 -97.5s-35.333 -59 -58 -85s-48 -49 -76 -69z" />
    <glyph glyph-name="uni100C_2_lig" unicode="&#x100b;&#x1039;&#x100c;" horiz-adv-x="1268" 
d="M1138 931c13.333 -16.667 20.6709 -33.1689 22.0039 -49.502s-1.16699 -31.666 -7.5 -45.999s-15.833 -26.5 -28.5 -36.5s-26.667 -16.667 -42 -20s-31 -2.5 -47 2.5s-30.667 15.833 -44 32.5c-36 45.333 -80.5 81.166 -133.5 107.499s-110.833 39.5 -173.5 39.5
c-54 0 -105 -10.333 -153 -31s-89.667 -48.667 -125 -84s-63.333 -77 -84 -125s-31 -99 -31 -153s10.333 -105 31 -153s48.667 -89.667 84 -125s77 -63.333 125 -84s99 -31 153 -31c64.667 0 124 14 178 42s99 65.667 135 113c12.667 16.667 27 27.834 43 33.501
s31.667 7.16699 47 4.5s29.333 -9 42 -19s22.5 -22 29.5 -36s10 -29.333 9 -46s-7.83301 -33.334 -20.5 -50.001c-26.667 -35.333 -56.834 -67.166 -90.501 -95.499s-70.334 -52.5 -110.001 -72.5s-81.5 -35.333 -125.5 -46s-89.667 -16 -137 -16
c-80 0 -155.333 15.167 -226 45.5s-132.334 71.833 -185.001 124.5s-94.167 114.334 -124.5 185.001s-45.5 146 -45.5 226c0 53.333 6.83301 104.833 20.5 154.5s33.167 96 58.5 139s55.666 82.333 90.999 118s74.5 66 117.5 91s89.333 44.5 139 58.5s101.167 21 154.5 21
c46 0 90.5 -5.16699 133.5 -15.5s83.833 -25 122.5 -44s74.667 -42 108 -69s63.333 -57.167 90 -90.5zM309.005 -29.002c24.667 -16 51.165 -29.4971 79.498 -40.4971s57.5 -19.833 87.5 -26.5s60.167 -11.667 90.5 -15s59.833 -5 88.5 -5c58 0 115 6.16699 171 18.5
s109 34.5 159 66.5c20.667 13.333 40.5 18.833 59.5 16.5s35.5 -9.16602 49.5 -20.499s24.333 -26 31 -44s8 -36 4 -54v-489c0 -40 -7.5 -77.5 -22.5 -112.5s-35.667 -65.667 -62 -92s-57 -47 -92 -62s-72.5 -22.5 -112.5 -22.5h-452c-40 0 -77.5 7.66699 -112.5 23
s-65.5 36 -91.5 62s-46.5 56.5 -61.5 91.5s-22.5 72.5 -22.5 112.5s8.33301 77.833 25 113.5s39.167 66.167 67.5 91.5s61.333 44.166 99 56.499s77.5 15.5 119.5 9.5c32 -4 60.333 -10.833 85 -20.5s47.834 -21.334 69.501 -35.001s42.667 -29 63 -46l65.5 -55.5
c16 -13.333 26.5 -27.833 31.5 -43.5s5.66699 -30.834 2 -45.501s-10.5 -27.834 -20.5 -39.501s-22.167 -20.167 -36.5 -25.5s-29.666 -6.66602 -45.999 -3.99902s-32.5 10.667 -48.5 24l-29 25.5l-31.5 27.5c-11 9.33301 -22.833 18.166 -35.5 26.499s-27 15.833 -43 22.5
c-14 6 -29.5 9.83301 -46.5 11.5s-33 -0.166016 -48 -5.49902s-27.667 -15 -38 -29s-16.166 -33.667 -17.499 -59c0 -14 2.66699 -27.167 8 -39.5s12.5 -23 21.5 -32s19.667 -16.167 32 -21.5s25.5 -8 39.5 -8h452c14 0 27.167 2.66699 39.5 8s23 12.5 32 21.5
s16.167 19.667 21.5 32s8 25.5 8 39.5v362c-47.333 -16 -95.5 -27.5 -144.5 -34.5s-98.5 -10.167 -148.5 -9.5c-36.667 0.666992 -74.334 3.16699 -113.001 7.5s-77 11.166 -115 20.499s-75.167 21.333 -111.5 36s-70.5 32.334 -102.5 53.001
c-17.333 11.333 -29.333 24.666 -36 39.999s-9.16699 30.833 -7.5 46.5s7 30.167 16 43.5s20.167 24 33.5 32s28.5 12.167 45.5 12.5s34.167 -5.16699 51.5 -16.5z" />
    <glyph glyph-name="uni100E_100D_lig" unicode="&#x100d;&#x1039;&#x100e;" horiz-adv-x="1369" 
d="M838 -5l-0.000976562 -624.997c0 -14 2.66699 -27.167 8 -39.5s12.5 -23 21.5 -32s19.667 -16.167 32 -21.5s25.5 -8 39.5 -8h83c20.667 0 38.167 -4.66699 52.5 -14s24.833 -21 31.5 -35s10.167 -29 10.5 -45s-3.16699 -31 -10.5 -45s-17.833 -25.667 -31.5 -35
s-31.167 -14 -52.5 -14h-83c-40 0 -77.5 7.5 -112.5 22.5s-65.667 35.667 -92 62s-47 57 -62 92s-22.5 72.5 -22.5 112.5v606c-75.333 4.66699 -145.666 22.667 -210.999 54s-122.333 72.5 -171 123.5s-87.334 109.833 -116.001 176.5s-44 137.667 -46 213
c-0.666992 3.33301 -1 6.83301 -1 10.5v10.5c0 42 6 77 18 105c6 16 13 29 21 39c12.667 16.667 27.5 31.167 44.5 43.5s35.5 23.166 55.5 32.499s41.167 18.166 63.5 26.499s44.5 17.5 66.5 27.5c12 5.33301 22 12.5 30 21.5s12 21.167 12 36.5
c0 2.66699 -0.833008 8 -2.5 16s-5 16.333 -10 25s-12 16.834 -21 24.501s-20.833 12.667 -35.5 15s-32.667 1.16602 -54 -3.50098s-46.333 -14.667 -75 -30c-18.667 -10 -35.5 -14.333 -50.5 -13s-27.667 6.5 -38 15.5s-18.166 20.5 -23.499 34.5s-7 28.5 -5 43.5
s8 29.5 18 43.5s24.333 25.667 43 35c52 24.667 104.333 38.5 157 41.5s100 -4.33301 142 -22s76.333 -45.334 103 -83.001s40 -85.167 40 -142.5c0 -48 -8 -86.5 -24 -115.5s-36.667 -52.667 -62 -71s-53.833 -33.833 -85.5 -46.5s-63.5 -26.334 -95.5 -41.001
c-12.667 -6 -22.667 -11.833 -30 -17.5s-11.666 -15.167 -12.999 -28.5v-20c0 -39.333 5.5 -76.833 16.5 -112.5s26.333 -68.834 46 -99.501s43.167 -58.167 70.5 -82.5s57.666 -44.5 90.999 -60.5v76c-3.33301 2.66699 -6.33301 5.33398 -9 8.00098
s-5.66699 5.33398 -9 8.00098c-11.333 11.333 -18.333 23.333 -21 36s-2.16699 24.5 1.5 35.5s10 21 19 30s19 15.333 30 19s22.833 4.33398 35.5 2.00098s24.667 -9.16602 36 -20.499c19.333 -19.333 42.666 -29 69.999 -29c13.333 0 26 2.66699 38 8s22.5 12.5 31.5 21.5
s16.167 19.5 21.5 31.5s8 24.667 8 38c0 14 -2.66699 27 -8 39s-12.5 22.5 -21.5 31.5s-19.5 16.167 -31.5 21.5s-24.667 8 -38 8c-27.333 0 -50.666 -9.66699 -69.999 -29c-17.333 -16.667 -35.5 -24 -54.5 -22s-34.667 9.33301 -47 22s-19.666 28.5 -21.999 47.5
s5.16699 36.833 22.5 53.5c22 22 47.5 39.333 76.5 52s60.5 19 94.5 19c33.333 0 64.666 -6.33301 93.999 -19s55 -30 77 -52s39.333 -47.833 52 -77.5s19 -61.167 19 -94.5s-6.33301 -64.666 -19 -93.999s-30 -55 -52 -77s-47.667 -39.333 -77 -52s-60.666 -19 -93.999 -19
h-16v-59c5.33301 0 10.666 -0.166992 15.999 -0.5s10.666 -0.5 15.999 -0.5c54 0 105 10.333 153 31s89.667 48.667 125 84s63.333 77 84 125s31 99 31 153c0 98.667 -18.333 181.667 -55 249s-85.667 121 -147 161c-18 11.333 -30.333 24.666 -37 39.999
s-9.16699 30.833 -7.5 46.5s7 30.167 16 43.5s20.167 24 33.5 32s28.5 12.167 45.5 12.5s34.167 -5.16699 51.5 -16.5c44.667 -28.667 84.834 -62.167 120.501 -100.5s66 -81.333 91 -129s44.167 -99.834 57.5 -156.501s20 -117.334 20 -182.001
c0 -67.333 -10.833 -131.333 -32.5 -192s-51.667 -115.5 -90 -164.5s-83.833 -91.167 -136.5 -126.5s-110 -61.333 -172 -78z" />
    <glyph glyph-name="uni1025_1005_lig" unicode="&#x1009;&#x1039;&#x1005;" horiz-adv-x="1276" 
d="M325 43l0.00195312 -664.998c0 -14 2.66699 -27.167 8 -39.5s12.5 -23 21.5 -32s19.667 -16.167 32 -21.5s25.5 -8 39.5 -8h461c14 0 27 2.66699 39 8s22.5 12.5 31.5 21.5s16.167 19.667 21.5 32s8 25.5 8 39.5v124c0 20.667 4.66699 38 14 52s21 24.5 35 31.5
s29.167 10.667 45.5 11s31.5 -3.16699 45.5 -10.5s25.667 -18 35 -32s14 -31.333 14 -52v-124c0 -40 -7.66699 -77.5 -23 -112.5s-36 -65.667 -62 -92s-56.5 -47 -91.5 -62s-72.5 -22.5 -112.5 -22.5h-461c-40 0 -77.5 7.5 -112.5 22.5s-65.667 35.667 -92 62s-47 57 -62 92
s-22.5 72.5 -22.5 112.5v814l-8 10.5l-8 10.5c-12.667 16.667 -19.5 33.334 -20.5 50.001s2 32 9 46s16.833 26 29.5 36s26.667 16.333 42 19s31 1.16699 47 -4.5s30.333 -16.834 43 -33.501c36 -47.333 81 -85 135 -113s113.333 -42 178 -42c54 0 105 10.333 153 31
s89.667 48.667 125 84s63.333 77 84 125s31 99 31 153s-10.333 105 -31 153s-48.667 89.667 -84 125s-77 63.333 -125 84s-99 31 -153 31c-62.667 0 -120.5 -13.167 -173.5 -39.5s-97.5 -62.166 -133.5 -107.499c-13.333 -16.667 -28 -27.5 -44 -32.5
s-31.667 -5.83301 -47 -2.5s-29.333 10 -42 20s-22.167 22.167 -28.5 36.5s-8.83301 29.666 -7.5 45.999s8.66602 32.833 21.999 49.5c26.667 33.333 56.667 63.5 90 90.5s69.333 50 108 69s79.5 33.667 122.5 44s87.5 15.5 133.5 15.5c53.333 0 104.833 -7 154.5 -21
s96 -33.5 139 -58.5s82.167 -55.333 117.5 -91s65.666 -75 90.999 -118s44.833 -89.333 58.5 -139s20.5 -101.167 20.5 -154.5c0 -80 -15.167 -155.333 -45.5 -226s-71.833 -132.334 -124.5 -185.001s-114.334 -94.167 -185.001 -124.5s-146 -45.5 -226 -45.5
c-46.667 0 -91.667 5.16699 -135 15.5s-84.666 25.166 -123.999 44.499zM533.002 -239.998c-15.333 -16.667 -27.5 -35.667 -36.5 -57s-13.5 -44.333 -13.5 -69c0 -24 4.5 -46.667 13.5 -68s21.167 -40.333 36.5 -57c26 12.667 45.5 30.5 58.5 53.5s19.5 47 19.5 72
s-6.5 49 -19.5 72s-32.5 40.833 -58.5 53.5zM668.002 -180.998c-9.33301 0 -18.167 -0.668945 -26.5 -2.00195s-16.5 -3 -24.5 -5c28 -22.667 48.833 -49.667 62.5 -81s20.5 -63.5 20.5 -96.5s-6.83301 -65.167 -20.5 -96.5s-34.167 -58.333 -61.5 -81
c8 -2 16 -3.66699 24 -5s16.667 -2 26 -2c25.333 0 49.166 4.83301 71.499 14.5s41.833 22.834 58.5 39.501s29.834 36.167 39.501 58.5s14.5 46.166 14.5 71.499s-4.83301 49.333 -14.5 72s-22.834 42.334 -39.501 59.001s-36.167 29.834 -58.5 39.501
s-46.166 14.5 -71.499 14.5zM668.001 -44c44.667 0 86.5 -8.5 125.5 -25.5s73 -40 102 -69s52 -63 69 -102s25.5 -80.833 25.5 -125.5c0 -44 -8.5 -85.5 -25.5 -124.5s-40 -73 -69 -102s-63 -52 -102 -69s-80.833 -25.5 -125.5 -25.5s-86.5 8.5 -125.5 25.5s-73 40 -102 69
s-52 63 -69 102s-25.5 80.5 -25.5 124.5c0 44.667 8.5 86.5 25.5 125.5s40 73 69 102s63 52 102 69s80.833 25.5 125.5 25.5z" />
    <glyph glyph-name="uni1025_1007_lig" unicode="&#x1009;&#x1039;&#x1007;" horiz-adv-x="1276" 
d="M671 -169c4 -17.333 11.668 -32.334 23.001 -45.001s24.666 -22.5 39.999 -29.5s31.5 -10.333 48.5 -10s32.833 5.5 47.5 15.5c-20 24 -44 41.833 -72 53.5s-57 16.834 -87 15.501zM952.001 -230.001c-14.667 -31.333 -32.8369 -55.9971 -54.5039 -73.9971
s-45.167 -30 -70.5 -36s-51 -6.83301 -77 -2.5s-50.333 13 -73 26s-42.5 29.833 -59.5 50.5s-28.833 44 -35.5 70c-3.33301 -2.66699 -6.66602 -5 -9.99902 -7s-6.66602 -4.33301 -9.99902 -7c-21.333 -16.667 -38 -36.167 -50 -58.5s-19.5 -45.833 -22.5 -70.5
s-1.33301 -49.334 5 -74.001s17.833 -47.334 34.5 -68.001c16.667 -21.333 36.167 -38 58.5 -50s45.833 -19.5 70.5 -22.5s49.334 -1.33301 74.001 5s47.667 17.5 69 33.5c18 14 36 19 54 15s32.167 -12.833 42.5 -26.5s15.5 -29.834 15.5 -48.501s-9 -35 -27 -49
c-36 -28 -75.333 -47.5 -118 -58.5s-85 -14 -127 -9s-82.333 18.167 -121 39.5s-72 50 -100 86s-47.667 75.167 -59 117.5s-14.333 84.5 -9 126.5s18.5 82.333 39.5 121s49.5 72 85.5 100c32.667 25.333 68 43.833 106 55.5s76.333 16.5 115 14.5s76.167 -10.5 112.5 -25.5
s69.166 -36.5 98.499 -64.5c22 7.33301 44 9.5 66 6.5s42.167 -10 60.5 -21s33.833 -25.833 46.5 -44.5s20.667 -40 24 -64c1.33301 -12 2 -23.333 2 -34s-0.333008 -19.667 -1 -27c-1.33301 -15.333 -7 -26.5 -17 -33.5s-20.667 -10.167 -32 -9.5
s-21.666 5.16699 -30.999 13.5s-13.333 20.166 -12 35.499c0.666992 10.667 0.666992 23.167 0 37.5s-5 25.833 -13 34.5c-12.667 14 -27 21 -43 21c-0.666992 -4 -1.66699 -8.16699 -3 -12.5s-2.66602 -8.16602 -3.99902 -11.499zM325.998 43.002l0.00292969 -664.998
c0 -14 2.66699 -27.167 8 -39.5s12.5 -23 21.5 -32s19.5 -16.167 31.5 -21.5s25 -8 39 -8h461c14 0 27.167 2.66699 39.5 8s23 12.5 32 21.5s16.167 19.667 21.5 32s8 25.5 8 39.5v124c0 20.667 4.66699 38 14 52s21 24.5 35 31.5s29 10.667 45 11s31 -3.16699 45 -10.5
s25.667 -18 35 -32s14 -31.333 14 -52v-124c0 -40 -7.5 -77.5 -22.5 -112.5s-35.667 -65.667 -62 -92s-57 -47 -92 -62s-72.5 -22.5 -112.5 -22.5h-461c-40 0 -77.5 7.5 -112.5 22.5s-65.5 35.667 -91.5 62s-46.667 57 -62 92s-23 72.5 -23 112.5l1 814
c-3.33301 3.33301 -6.33301 6.83301 -9 10.5l-8 10.5c-12.667 16.667 -19.5 33.334 -20.5 50.001s2 32 9 46s16.833 26 29.5 36s26.667 16.333 42 19s31 1.16699 47 -4.5s30.333 -16.834 43 -33.501c36 -47.333 81 -85 135 -113s113.333 -42 178 -42c54 0 105 10.333 153 31
s89.667 48.667 125 84s63.333 77 84 125s31 99 31 153s-10.333 105 -31 153s-48.667 89.667 -84 125s-77 63.333 -125 84s-99 31 -153 31c-62.667 0 -120.5 -13.167 -173.5 -39.5s-97.5 -62.166 -133.5 -107.499c-13.333 -16.667 -28 -27.5 -44 -32.5
s-31.667 -5.83301 -47 -2.5s-29.333 10 -42 20s-22.167 22.167 -28.5 36.5s-8.83301 29.666 -7.5 45.999s8.66602 32.833 21.999 49.5c26.667 33.333 56.667 63.5 90 90.5s69.333 50 108 69s79.5 33.667 122.5 44s87.5 15.5 133.5 15.5c53.333 0 104.833 -7 154.5 -21
s96 -33.5 139 -58.5s82.167 -55.333 117.5 -91s65.666 -75 90.999 -118s44.833 -89.333 58.5 -139s20.5 -101.167 20.5 -154.5c0 -80 -15.167 -155.333 -45.5 -226s-71.833 -132.334 -124.5 -185.001s-114.334 -94.167 -185.001 -124.5s-146 -45.5 -226 -45.5
c-46.667 0 -91.5 5.16699 -134.5 15.5s-84.167 25.166 -123.5 44.499z" />
    <glyph glyph-name="uni102B_103A_lig" unicode="&#x102b;&#x103a;" horiz-adv-x="658" 
d="M-568 1423c-16 44.667 -24.0039 91.665 -24.0039 140.998c0 60.667 11.5 117.667 34.5 171s54.5 100 94.5 140s86.667 71.5 140 94.5s110.333 34.5 171 34.5c70.667 0 136 -15 196 -45s110 -71 150 -123c34 42.667 75 78.167 123 106.5s101.333 46.833 160 55.5
c54.667 7.33301 107.5 5 158.5 -7s98 -31.667 141 -59s80.333 -61.666 112 -102.999s55.167 -87.333 70.5 -138c6 -20 6.66699 -38 2 -54s-12.667 -29.333 -24 -40s-24.833 -18.5 -40.5 -23.5s-31.167 -6.16699 -46.5 -3.5s-29.5 9.33398 -42.5 20.001s-22.5 26 -28.5 46
c-9.33301 29.333 -23 55.833 -41 79.5s-39.167 43.334 -63.5 59.001s-51.166 26.834 -80.499 33.501s-59.333 7.66699 -90 3c-29.333 -4 -56.666 -12.667 -81.999 -26s-47.5 -30 -66.5 -50s-34.333 -42.833 -46 -68.5s-18.834 -52.834 -21.501 -81.501v-5v-1545
c0 -20.667 -4.66699 -38 -14 -52s-21 -24.5 -35 -31.5s-29 -10.5 -45 -10.5s-31 3.5 -45 10.5s-25.667 17.5 -35 31.5s-14 31.333 -14 52c-0.666992 286 -1 542 -1 768v191v181v160v129v87.5v34.5c-2.66699 32 -11 62 -25 90s-32.333 52.333 -55 73s-48.667 37 -78 49
s-60.333 18 -93 18c-34.667 0 -67.167 -6.66699 -97.5 -20s-56.833 -31.333 -79.5 -54s-40.667 -49.334 -54 -80.001s-20 -63.334 -20 -98.001c0 -14 1.16699 -27.667 3.5 -41s5.5 -26.333 9.5 -39c6.66699 -20 7.83398 -38 3.50098 -54s-12 -29.667 -23 -41
s-24.167 -19.666 -39.5 -24.999s-30.666 -6.83301 -45.999 -4.5s-29.666 8.5 -42.999 18.5s-23.333 25 -30 45z" />
    <glyph glyph-name="uni102D_1036_lig" unicode="&#x102d;&#x1036;" 
d="M-1025 1585c0 -34 6.66699 -65.833 20 -95.5s31.5 -55.5 54.5 -77.5s49.833 -39.5 80.5 -52.5s63.334 -19.5 98.001 -19.5s67.334 6.5 98.001 19.5s57.5 30.5 80.5 52.5s41.167 47.833 54.5 77.5s20 61.5 20 95.5s-6.66699 65.833 -20 95.5s-31.5 55.667 -54.5 78
s-49.833 39.833 -80.5 52.5s-63.334 19 -98.001 19s-67.334 -6.33301 -98.001 -19s-57.5 -30.167 -80.5 -52.5s-41.167 -48.333 -54.5 -78s-20 -61.5 -20 -95.5zM-1213 1585c0 59.333 11.5 115 34.5 167s54.5 97.333 94.5 136s86.667 69.167 140 91.5
s110.666 33.5 171.999 33.5c60.667 0 117.834 -11.167 171.501 -33.5s100.5 -52.833 140.5 -91.5s71.5 -84 94.5 -136s34.5 -107.667 34.5 -167s-11.5 -115 -34.5 -167s-54.5 -97.333 -94.5 -136s-86.833 -69.167 -140.5 -91.5s-110.834 -33.5 -171.501 -33.5
c-61.333 0 -118.666 11.167 -171.999 33.5s-100 52.833 -140 91.5s-71.5 84 -94.5 136s-34.5 107.667 -34.5 167zM-72 1728c28.667 0 55.5 -5.33301 80.5 -16s46.833 -25.167 65.5 -43.5s33.5 -39.666 44.5 -63.999s16.5 -50.166 16.5 -77.499c0 -28 -5.5 -54.333 -16.5 -79
s-25.833 -46 -44.5 -64s-40.5 -32.333 -65.5 -43s-51.833 -16 -80.5 -16s-55.667 5.33301 -81 16s-47.333 25 -66 43s-33.5 39.333 -44.5 64s-16.5 51 -16.5 79c0 27.333 5.5 53.166 16.5 77.499s25.833 45.666 44.5 63.999s40.667 32.833 66 43.5s52.333 16 81 16z
M-72 1569c-12 0 -22.333 -4.16699 -31 -12.5s-13 -18.166 -13 -29.499s4.33301 -21.333 13 -30s19 -13 31 -13s22.167 4.33301 30.5 13s12.5 18.667 12.5 30s-4.16699 21.166 -12.5 29.499s-18.5 12.5 -30.5 12.5z" />
    <glyph glyph-name="uni103A_102D_lig" unicode="&#x1004;&#x103a;&#x1039;&#x102d;" 
d="M-559 1575c0 -33.333 6.66699 -64.5 20 -93.5s31.5 -54.333 54.5 -76s49.833 -38.834 80.5 -51.501s63.334 -19 98.001 -19s67.334 6.33301 98.001 19s57.5 29.834 80.5 51.501s41.167 47 54.5 76s20 60.167 20 93.5s-6.66699 64.666 -20 93.999s-31.5 54.833 -54.5 76.5
s-49.833 38.834 -80.5 51.501s-63.334 19 -98.001 19s-67.334 -6.33301 -98.001 -19s-57.5 -29.834 -80.5 -51.501s-41.167 -47.167 -54.5 -76.5s-20 -60.666 -20 -93.999zM-747 1575c0 58 11.5 112.5 34.5 163.5s54.5 95.333 94.5 133s86.667 67.5 140 89.5
s110.666 33 171.999 33c60.667 0 117.834 -11 171.501 -33s100.5 -51.833 140.5 -89.5s71.5 -82 94.5 -133s34.5 -105.5 34.5 -163.5s-11.5 -112.5 -34.5 -163.5s-54.5 -95.333 -94.5 -133s-86.833 -67.5 -140.5 -89.5s-110.834 -33 -171.501 -33
c-61.333 0 -118.666 11 -171.999 33s-100 51.833 -140 89.5s-71.5 82 -94.5 133s-34.5 105.5 -34.5 163.5zM-1057 1496c-29.333 -2 -53.8311 -5.16504 -73.498 -9.49805s-35.5 -10.166 -47.5 -17.499s-20.667 -15.833 -26 -25.5s-8 -20.5 -8 -32.5
c0 -12.667 2.83301 -24.334 8.5 -35.001s15.334 -19.834 29.001 -27.501s31.667 -13.667 54 -18s50.5 -6.5 84.5 -6.5c30 0 57 3.83301 81 11.5s44 17.167 60 28.5c14 10 28 15 42 15s26.667 -3.5 38 -10.5s20.666 -16.5 27.999 -28.5s11.833 -24.833 13.5 -38.5
s-0.166016 -27.334 -5.49902 -41.001s-15.333 -25.5 -30 -35.5c-30.667 -22 -65.667 -38.667 -105 -50s-80 -17 -122 -17c-36.667 0 -74.667 5.16699 -114 15.5s-75.166 26 -107.499 47s-59 47.333 -80 79s-31.5 68.834 -31.5 111.501c0 35.333 7.33301 66.833 22 94.5
s34.667 51.834 60 72.501c-25.333 21.333 -45.333 45.833 -60 73.5s-22 59.167 -22 94.5c0 42.667 10.5 79.834 31.5 111.501s47.667 58 80 79s68.166 36.667 107.499 47s77.333 15.5 114 15.5c42.667 0 83.5 -5.66699 122.5 -17s73.833 -28 104.5 -50
c14.667 -10 24.667 -21.833 30 -35.5s7.16602 -27.334 5.49902 -41.001s-6.16699 -26.5 -13.5 -38.5s-16.666 -21.5 -27.999 -28.5s-23.833 -10.5 -37.5 -10.5s-27.834 5 -42.501 15c-16 11.333 -36 20.833 -60 28.5s-51 11.5 -81 11.5c-34 0 -62.167 -2.5 -84.5 -7.5
s-40.333 -11.667 -54 -20s-23.334 -17.666 -29.001 -27.999s-8.5 -20.833 -8.5 -31.5c0 -15.333 2.66699 -28 8 -38s14 -18.167 26 -24.5s27.833 -11.166 47.5 -14.499s44.167 -6 73.5 -8c3.33301 0.666992 6.66602 1 9.99902 1h11c42.667 0 83.5 -5.66699 122.5 -17
s73.833 -27.666 104.5 -48.999c14.667 -10.667 24.667 -22.834 30 -36.501s7.16602 -27.334 5.49902 -41.001s-6.16699 -26.334 -13.5 -38.001s-16.666 -21 -27.999 -28s-23.833 -10.333 -37.5 -10s-27.834 5.5 -42.501 15.5c-15.333 9.33301 -33.833 17.666 -55.5 24.999
s-46.167 11.666 -73.5 12.999c-2 -0.666992 -7.16699 -1 -15.5 -1s-14.166 0.333008 -17.499 1z" />
    <glyph glyph-name="uni103A_102E_lig" unicode="&#x1004;&#x103a;&#x1039;&#x102e;" 
d="M-1060 1507c-29.333 -2 -53.8311 -5.32617 -73.498 -9.99316s-35.5 -10.667 -47.5 -18s-20.667 -16 -26 -26s-8 -21 -8 -33c0 -12.667 2.83301 -24.334 8.5 -35.001s15.334 -20 29.001 -28s31.667 -14.167 54 -18.5s50.5 -6.5 84.5 -6.5c30 0 57 3.83301 81 11.5
s44 17.167 60 28.5c14 10.667 28 16 42 16s26.667 -3.66699 38 -11s20.666 -17.166 27.999 -29.499s11.833 -25.5 13.5 -39.5s-0.166016 -27.833 -5.49902 -41.5s-15.333 -25.834 -30 -36.501c-30.667 -22 -65.667 -38.833 -105 -50.5s-80 -17.5 -122 -17.5
c-36.667 0 -74.667 5.33301 -114 16s-75.166 26.667 -107.499 48s-59 48.166 -80 80.499s-31.5 70.166 -31.5 113.499c0 36 7.33301 68.167 22 96.5s34.667 53.166 60 74.499c-25.333 21.333 -45.333 46.333 -60 75s-22 61 -22 97c0 43.333 10.5 81.166 31.5 113.499
s47.667 59.166 80 80.499s68.166 37.333 107.499 48s77.333 16 114 16c42.667 0 83.5 -6 122.5 -18s73.833 -28.667 104.5 -50c14.667 -10.667 24.667 -22.834 30 -36.501s7.16602 -27.5 5.49902 -41.5s-6.16699 -27.167 -13.5 -39.5s-16.666 -22.166 -27.999 -29.499
s-23.833 -11 -37.5 -11s-27.834 5.33301 -42.501 16c-16 11.333 -36 20.833 -60 28.5s-51 11.5 -81 11.5c-34 0 -62.167 -2.5 -84.5 -7.5s-40.333 -11.667 -54 -20s-23.334 -17.833 -29.001 -28.5s-8.5 -21.334 -8.5 -32.001c0 -15.333 2.66699 -28.166 8 -38.499
s14 -18.833 26 -25.5s27.833 -11.667 47.5 -15s44.167 -6 73.5 -8c3.33301 0.666992 6.66602 1 9.99902 1h11c42.667 0 83.5 -5.83301 122.5 -17.5s73.833 -28.5 104.5 -50.5c22 -16 33.833 -35.167 35.5 -57.5s-2.83301 -42.333 -13.5 -60s-25.834 -30 -45.501 -37
s-40.5 -2.5 -62.5 13.5c-15.333 10 -33.833 18.667 -55.5 26s-46.167 11.666 -73.5 12.999c-2 -0.666992 -7.16699 -1 -15.5 -1s-14.166 0.333008 -17.499 1zM-475.998 1405.01c22.667 -20.667 48.499 -36.667 77.499 -48s60.167 -17 93.5 -17c34 0 65.5 5.66699 94.5 17
s54.833 27.333 77.5 48c-17.333 34.667 -41.666 60.667 -72.999 78s-64.166 26 -98.499 26s-67.333 -8.66699 -99 -26s-55.834 -43.333 -72.501 -78zM-557.999 1585.01c0 -11.333 0.832031 -22.668 2.49902 -34.001s4.16699 -22.666 7.5 -33.999
c30.667 36.667 67.5 64.334 110.5 83.001s87.333 28 133 28s89.834 -9.16699 132.501 -27.5s79.334 -45.833 110.001 -82.5c3.33301 10.667 5.83301 21.667 7.5 33s2.5 22.666 2.5 33.999c0 34 -6.66699 65.833 -20 95.5s-31.333 55.5 -54 77.5s-49.5 39.5 -80.5 52.5
s-63.833 19.5 -98.5 19.5c-35.333 0 -68.333 -6.5 -99 -19.5s-57.334 -30.5 -80.001 -52.5s-40.667 -47.833 -54 -77.5s-20 -61.5 -20 -95.5zM-746 1585c0 58.667 11.5 114 34.5 166s54.5 97.5 94.5 136.5s86.667 69.667 140 92s110.666 33.5 171.999 33.5
c60.667 0 117.834 -11.167 171.501 -33.5s100.5 -53 140.5 -92s71.5 -84.5 94.5 -136.5s34.5 -107.333 34.5 -166c0 -59.333 -11.5 -115 -34.5 -167s-54.5 -97.5 -94.5 -136.5s-86.833 -69.667 -140.5 -92s-110.834 -33.5 -171.501 -33.5
c-61.333 0 -118.666 11.167 -171.999 33.5s-100 53 -140 92s-71.5 84.5 -94.5 136.5s-34.5 107.667 -34.5 167z" />
    <glyph glyph-name="uni103A_1036_lig" unicode="&#x1004;&#x103a;&#x1039;&#x1036;" 
d="M-755 1501c-29.333 -2 -53.8311 -5.32617 -73.498 -9.99316s-35.5 -10.667 -47.5 -18s-20.667 -16 -26 -26s-8 -21 -8 -33c0 -12.667 2.83301 -24.334 8.5 -35.001s15.334 -20 29.001 -28s31.667 -14.167 54 -18.5s50.5 -6.5 84.5 -6.5c30 0 57 3.83301 81 11.5
s44 17.167 60 28.5c14 10.667 28 16 42 16s26.667 -3.66699 38 -11s20.666 -17.166 27.999 -29.499s11.833 -25.5 13.5 -39.5s-0.166016 -27.833 -5.49902 -41.5s-15.333 -25.834 -30 -36.501c-30.667 -21.333 -65.667 -38 -105 -50s-80 -18 -122 -18
c-36.667 0 -74.667 5.33301 -114 16s-75.166 26.667 -107.499 48s-59 48.166 -80 80.499s-31.5 70.166 -31.5 113.499c0 36 7.33301 68.167 22 96.5s34.667 53.166 60 74.499c-25.333 21.333 -45.333 46.333 -60 75s-22 61 -22 97c0 43.333 10.5 81.166 31.5 113.499
s47.667 59.166 80 80.499s68.166 37.333 107.499 48s77.333 16 114 16c42.667 0 83.5 -6 122.5 -18s73.833 -28.667 104.5 -50c14.667 -10.667 24.667 -22.834 30 -36.501s7.16602 -27.5 5.49902 -41.5s-6.16699 -27.167 -13.5 -39.5s-16.666 -22.166 -27.999 -29.499
s-23.833 -11 -37.5 -11s-27.834 5.33301 -42.501 16c-16 11.333 -36 20.833 -60 28.5s-51 11.5 -81 11.5c-34 0 -62.167 -2.5 -84.5 -7.5s-40.333 -11.667 -54 -20s-23.334 -17.833 -29.001 -28.5s-8.5 -21.334 -8.5 -32.001c0 -15.333 2.66699 -28.166 8 -38.499
s14 -18.833 26 -25.5s27.833 -11.667 47.5 -15s44.167 -6 73.5 -8c3.33301 0.666992 6.66602 1 9.99902 1h11c42.667 0 83.5 -5.83301 122.5 -17.5s73.833 -28.5 104.5 -50.5c22 -16 33.833 -35.167 35.5 -57.5s-2.83301 -42.333 -13.5 -60s-25.834 -30 -45.501 -37
s-40.5 -2.5 -62.5 13.5c-15.333 10 -33.833 18.667 -55.5 26s-46.167 11.666 -73.5 12.999c-2 -0.666992 -7.16699 -1 -15.5 -1s-14.166 0.333008 -17.499 1zM-199.998 1702.01c28.667 0 55.5 -5.33301 80.5 -16s46.833 -25 65.5 -43s33.5 -39.167 44.5 -63.5
s16.5 -50.166 16.5 -77.499c0 -28 -5.5 -54.333 -16.5 -79s-25.833 -46 -44.5 -64s-40.5 -32.333 -65.5 -43s-51.833 -16 -80.5 -16s-55.667 5.33301 -81 16s-47.333 25 -66 43s-33.5 39.333 -44.5 64s-16.5 51 -16.5 79c0 27.333 5.5 53.166 16.5 77.499
s25.833 45.5 44.5 63.5s40.667 32.333 66 43s52.333 16 81 16zM-199.998 1543.01c-12 0 -22.333 -4 -31 -12s-13 -17.667 -13 -29c0 -12 4.33301 -22.167 13 -30.5s19 -12.5 31 -12.5s22.167 4.16699 30.5 12.5s12.5 18.5 12.5 30.5c0 11.333 -4.16699 21 -12.5 29
s-18.5 12 -30.5 12z" />
    <glyph glyph-name="uni103A_lig" unicode="&#x1004;&#x103a;&#x1039;" 
d="M-630 1503c-32.667 -2 -59.999 -5.33008 -81.999 -9.99707s-39.667 -10.834 -53 -18.501s-22.833 -16.5 -28.5 -26.5s-8.5 -21 -8.5 -33c0 -12.667 3.16699 -24.334 9.5 -35.001s17 -20 32 -28s35 -14.167 60 -18.5s56.167 -6.5 93.5 -6.5
c33.333 0 63.5 3.83301 90.5 11.5s49.167 17.167 66.5 28.5c16 10.667 31.667 16 47 16s29.166 -3.66699 41.499 -11s22.666 -17.166 30.999 -29.499s13.333 -25.5 15 -39.5s-0.5 -28 -6.5 -42s-17 -26.333 -33 -37c-34 -21.333 -72.667 -38 -116 -50
s-88.666 -18 -135.999 -18c-40.667 0 -82.834 5.33301 -126.501 16s-83.5 26.667 -119.5 48s-65.5 48.333 -88.5 81s-34.5 70.667 -34.5 114c0 36.667 8.16699 69.167 24.5 97.5s38.5 53.166 66.5 74.499c-28 21.333 -50.167 46.333 -66.5 75s-24.5 61.334 -24.5 98.001
c0 43.333 11.5 81.166 34.5 113.499s52.5 59.333 88.5 81s75.833 37.834 119.5 48.501s85.834 16 126.501 16c48 0 93.5 -6 136.5 -18s81.5 -28.667 115.5 -50c16 -10.667 27.167 -23 33.5 -37s8.66602 -28 6.99902 -42s-6.66699 -27.167 -15 -39.5
s-18.666 -22.166 -30.999 -29.499s-26.333 -11 -42 -11s-31.5 5.33301 -47.5 16c-17.333 11.333 -39.5 20.833 -66.5 28.5s-57.167 11.5 -90.5 11.5c-37.333 0 -68.5 -2.5 -93.5 -7.5s-45 -11.667 -60 -20s-25.667 -17.833 -32 -28.5s-9.5 -21.334 -9.5 -32.001
c0 -15.333 2.83301 -28.333 8.5 -39s15.167 -19.334 28.5 -26.001s31 -11.667 53 -15s49.333 -6 82 -8c4 0.666992 7.83301 1 11.5 1h11.5c48 0 93.5 -5.83301 136.5 -17.5s81.5 -28.5 115.5 -50.5c16 -10.667 27.167 -23 33.5 -37s8.66602 -28 6.99902 -42
s-6.66699 -27.167 -15 -39.5s-18.666 -22 -30.999 -29s-26.333 -10.5 -42 -10.5s-31.5 5.33301 -47.5 16c-16.667 10.667 -37.167 19.667 -61.5 27s-51.5 11.666 -81.5 12.999c-2.66699 -0.666992 -8.5 -1 -17.5 -1s-15.5 0.333008 -19.5 1z" />
    <glyph glyph-name="uni103E_1030_lig" unicode="&#x103e;&#x1030;" 
d="M-868 -148v-476c0 -40 -7.5 -77.5 -22.5 -112.5s-35.667 -65.5 -62 -91.5s-57 -46.667 -92 -62s-72.5 -23 -112.5 -23h-44c-21.333 0 -39 4.66699 -53 14s-24.5 21 -31.5 35s-10.5 29.167 -10.5 45.5s3.5 31.5 10.5 45.5s17.5 25.667 31.5 35s31.667 14 53 14h44
c14 0 27.167 2.66699 39.5 8s23 12.5 32 21.5s16.167 19.5 21.5 31.5s8 25 8 39v476c0 20.667 4.66699 38 14 52s21 24.667 35 32s29 10.833 45 10.5s31 -3.83301 45 -10.5s25.667 -17.167 35 -31.5s14 -31.833 14 -52.5zM-448 -147v-472c0 -40 7.5 -77.5 22.5 -112.5
s35.667 -65.667 62 -92s57 -47 92 -62s72.5 -22.5 112.5 -22.5h44c20.667 0 38 4.66699 52 14s24.667 21 32 35s10.833 29 10.5 45s-3.83301 31 -10.5 45s-17.167 25.667 -31.5 35s-31.833 14 -52.5 14h-44c-14 0 -27.167 2.66699 -39.5 8s-23 12.5 -32 21.5
s-16.167 19.667 -21.5 32s-8 25.5 -8 39.5v472c0 20.667 -4.66699 38 -14 52s-21 24.5 -35 31.5s-29 10.5 -45 10.5s-31 -3.5 -45 -10.5s-25.667 -17.5 -35 -31.5s-14 -31.333 -14 -52zM-565 -147v-674c0 -20.667 -4.66699 -38 -14 -52s-21 -24.5 -35 -31.5
s-29.167 -10.5 -45.5 -10.5s-31.5 3.5 -45.5 10.5s-25.667 17.5 -35 31.5s-14 31.333 -14 52v674c0 20.667 4.66699 38 14 52s21 24.5 35 31.5s29.167 10.5 45.5 10.5s31.5 -3.5 45.5 -10.5s25.667 -17.5 35 -31.5s14 -31.333 14 -52z" />
    <glyph glyph-name="uni103E_103B_lig" unicode="&#x103b;&#x103e;" horiz-adv-x="305" 
d="M-350 -760c-24 -46 -58.501 -83.002 -103.501 -111.002s-95.5 -42 -151.5 -42h-104c-21.333 0 -39 4.66699 -53 14s-24.5 21 -31.5 35s-10.5 29 -10.5 45s3.5 31 10.5 45s17.5 25.667 31.5 35s31.667 14 53 14h104c14 0 27 2.66699 39 8s22.5 12.5 31.5 21.5
s16.167 19.667 21.5 32s8 25.5 8 39.5v539c0 20.667 4.66699 38 14 52s21 24.667 35 32s29 10.833 45 10.5s31 -3.83301 45 -10.5s25.667 -17.167 35 -31.5s14 -31.833 14 -52.5v-487l333 -124v1746c0 20.667 4.66699 38.167 14 52.5s21 24.833 35 31.5s29.167 10 45.5 10
s31.5 -3.5 45.5 -10.5s25.667 -17.5 35 -31.5s14 -31.333 14 -52v-1843c-1.33301 -19.333 -7.66602 -37.666 -18.999 -54.999s-25.5 -31.5 -42.5 -42.5s-36 -18.167 -57 -21.5s-41.833 -0.666016 -62.5 8.00098z" />
    <glyph glyph-name="uni103E_103D_lig" unicode="&#x103d;&#x103e;" 
d="M-656 -258l-277 -404c-0.666992 -3.33301 0 -8.66602 2 -15.999s5.33301 -14.666 10 -21.999s11 -13.833 19 -19.5s18 -8.5 30 -8.5h431c12 0 22 2.83301 30 8.5s14.333 12.167 19 19.5s8 14.666 10 21.999s2.66699 12.666 2 15.999zM-1030 -851
c-25.333 -20 -53.502 -35.8359 -84.502 -47.5029s-63.833 -17.5 -98.5 -17.5h-105c-20.667 0 -38 4.66699 -52 14s-24.5 21 -31.5 35s-10.5 29 -10.5 45s3.5 31 10.5 45s17.5 25.667 31.5 35s31.333 14 52 14h105c24.667 0 46.167 7.83301 64.5 23.5
s29.833 35.167 34.5 58.5v8c0 2.66699 0.333008 5.33398 1 8.00098v3h1c2.66699 20.667 9.33398 40.334 20.001 59.001l305 444c16.667 24.667 36.334 43.334 59.001 56.001s46.167 19.167 70.5 19.5s48 -5.83398 71 -18.501s43.167 -31.667 60.5 -57l305 -444
c18 -33.333 25.5 -70.166 22.5 -110.499s-14.833 -77.833 -35.5 -112.5s-48.667 -63.667 -84 -87s-76.333 -35 -123 -35h-431c-32 0 -61.167 5.66699 -87.5 17s-49.833 26.333 -70.5 45z" />
    <glyph glyph-name="mon_03" unicode="&#x100a;&#x1039;&#x1009;" horiz-adv-x="3275" 
d="M2142 556c0 -1.33301 0.666992 -3.99902 2 -7.99902c11.333 -56 31.166 -107.333 59.5 -154c28.333 -46.667 62.333 -86.834 102 -120.501s84 -59.667 133 -78s100.167 -27.5 153.5 -27.5c54 0 105 10.333 153 31s89.667 48.667 125 84s63.333 77 84 125s31 99 31 153
s-10.333 105 -31 153s-48.667 89.667 -84 125s-77 63.333 -125 84s-99 31 -153 31c-32.667 0 -59.167 4.66699 -79.5 14s-35.166 21 -44.5 35c-9.33301 14 -13.5 29 -12.5 45s7 31 18 45s26.5 25.667 46.5 35s44 14 72 14c80 0 155.333 -15.167 226 -45.5
s132.334 -71.833 185 -124.5c52.667 -52.667 94.167 -114.334 124.5 -185.001s45.5 -146 45.5 -226c0 -53.333 -6.83301 -104.833 -20.5 -154.5s-33.167 -96 -58.5 -139s-55.666 -82.333 -91 -118c-35.333 -35.667 -74.5 -66 -117.5 -91s-89.333 -44.5 -139 -58.5
s-101.167 -21 -154.5 -21c-55.333 0 -108.833 5.83301 -160.5 17.5s-100.334 29.167 -146 52.5c-45.667 23.333 -87.834 52.5 -126.501 87.5s-72.667 75.833 -102 122.5c-25.333 -42 -55.666 -80.167 -90.999 -114.5s-74.166 -63.666 -116.499 -87.999
s-87.833 -43.166 -136.5 -56.499s-99.334 -20 -152.001 -20c-51.333 0 -100.666 6.16699 -147.999 18.5s-91.833 30 -133.5 53s-79.834 50.667 -114.501 83s-65 68.5 -91 108.5c-26 -40 -56.5 -76.167 -91.5 -108.5s-73.333 -60 -115 -83s-86.167 -40.667 -133.5 -53
s-96.333 -18.5 -147 -18.5c-46 0 -90.5 5 -133.5 15s-83.833 24.667 -122.5 44v-679c0 -14 2.66699 -27.167 8 -39.5s12.5 -23 21.5 -32s19.667 -16.167 32 -21.5s25.5 -8 39.5 -8h2427c14 0 27 2.66699 39 8s22.5 12.5 31.5 21.5s16.167 19.667 21.5 32s8 25.5 8 39.5v124
c0 20.667 4.66699 38 14 52s21 24.667 35 32s29.167 10.833 45.5 10.5s31.5 -3.83301 45.5 -10.5s25.667 -17.167 35 -31.5s14 -31.833 14 -52.5v-124c0 -40 -7.66699 -77.5 -23 -112.5s-36 -65.667 -62 -92s-56.5 -47 -91.5 -62s-72.5 -22.5 -112.5 -22.5h-2427
c-40 0 -77.5 7.5 -112.5 22.5s-65.667 35.667 -92 62s-47 57 -62 92s-22.5 72.5 -22.5 112.5v825c-4 3.33301 -7.33301 7.66602 -10 12.999c-13.333 16 -20.666 32.5 -21.999 49.5s1.16699 32.5 7.5 46.5s15.833 26.167 28.5 36.5s26.667 17 42 20s31 2 47 -3
s30.667 -15.833 44 -32.5c36 -45.333 80.5 -81.166 133.5 -107.499s110.833 -39.5 173.5 -39.5c54 0 104.833 10.333 152.5 31s89.167 48.667 124.5 84s63.333 77 84 125s31 99 31 153s-10.333 105 -31 153s-48.667 89.667 -84 125s-76.833 63.333 -124.5 84
s-98.5 31 -152.5 31c-64.667 0 -124.167 -14 -178.5 -42s-99.5 -65.667 -135.5 -113c-12.667 -16.667 -26.834 -27.834 -42.501 -33.501s-31.167 -7.16699 -46.5 -4.5s-29.5 9 -42.5 19s-22.833 22 -29.5 36s-9.5 29.333 -8.5 46s7.83301 33.334 20.5 50.001
c26 34.667 56 66.167 90 94.5s70.667 52.5 110 72.5s81.166 35.5 125.499 46.5s90.166 16.5 137.499 16.5c80 0 155.333 -15.167 226 -45.5s132.334 -71.833 185.001 -124.5s94.167 -114.334 124.5 -185.001s45.5 -146 45.5 -226v-13
c1.33301 -52.667 12.666 -102.167 33.999 -148.5s49.666 -86.666 84.999 -120.999s76.5 -61.333 123.5 -81s97.167 -29.5 150.5 -29.5c54 0 104.833 10.333 152.5 31s89.334 48.667 125.001 84s63.667 77 84 125s30.5 99 30.5 153s-10.167 105 -30.5 153
s-48.333 89.667 -84 125s-77.334 63.333 -125.001 84s-98.5 31 -152.5 31c-32.667 0 -59.167 4.66699 -79.5 14s-35.166 21 -44.499 35s-13.5 29 -12.5 45s7 31 18 45s26.5 25.667 46.5 35s44 14 72 14c80 0 155.333 -15.167 226 -45.5s132.334 -71.833 185.001 -124.5
s94.167 -114.334 124.501 -185.001c30.333 -70.667 45.5 -146 45.5 -226v-5z" />
    <glyph glyph-name="uni1009_1006_lig" unicode="&#x1009;&#x1039;&#x1006;" horiz-adv-x="1751" 
d="M534 -479c16.667 -19.333 36.8369 -34.5 60.5039 -45.5s49.167 -16.5 76.5 -16.5c15.333 0 30.333 2 45 6c-8.66699 16 -19.834 29.667 -33.501 41s-28.834 19.666 -45.501 24.999s-33.834 7.33301 -51.501 6s-34.834 -6.66602 -51.501 -15.999zM980.003 -362
c0 -24.667 4.66699 -47.667 14 -69s21.833 -40 37.5 -56s34.167 -28.667 55.5 -38s44.333 -14 69 -14c24 0 46.833 4.66699 68.5 14s40.334 22 56.001 38s28.167 34.667 37.5 56s14 44.333 14 69c0 24 -4.66699 46.833 -14 68.5s-21.833 40.334 -37.5 56.001
s-34.334 28.167 -56.001 37.5s-44.5 14 -68.5 14c-24.667 0 -47.667 -4.66699 -69 -14s-39.833 -21.833 -55.5 -37.5s-28.167 -34.334 -37.5 -56.001s-14 -44.5 -14 -68.5zM850.003 -346c-2.66699 22.667 -9 43.998 -19 63.998s-23 37.5 -39 52.5s-34.5 26.667 -55.5 35
s-42.833 12.5 -65.5 12.5c-30.667 0 -58.667 -6.66699 -84 -20s-46 -31.666 -62 -54.999c-8 -11.333 -17.333 -19 -28 -23s-21.334 -5.16699 -32.001 -3.5s-20.5 5.83398 -29.5 12.501s-16 14.5 -21 23.5s-7.33301 19.333 -7 31s4.83301 23.167 13.5 34.5
c14 19.333 30 36.833 48 52.5s37.667 29.167 59 40.5s44 20 68 26s49 9 75 9c24.667 0 48.5 -2.83301 71.5 -8.5s44.833 -13.667 65.5 -24s40 -22.833 58 -37.5s34 -31 48 -49c28 36 63 64.667 105 86s87.667 32 137 32c42 0 81.667 -8 119 -24s70 -38 98 -66
s50 -60.667 66 -98s24 -77 24 -119c0 -42.667 -8 -82.667 -24 -120s-38 -69.833 -66 -97.5s-60.667 -49.5 -98 -65.5s-77 -24 -119 -24c-24.667 0 -48.667 2.66699 -72 8s-45.333 13.333 -66 24s-39.834 23.167 -57.501 37.5s-33.167 30.833 -46.5 49.5
c-28.667 -36.667 -64 -65.667 -106 -87s-87.667 -32 -137 -32c-26 0 -51 3 -75 9s-46.667 14.5 -68 25.5s-41 24.333 -59 40s-34 33.5 -48 53.5c-11.333 15.333 -15.666 30.5 -12.999 45.5s9.33398 27.5 20.001 37.5c16.667 21.333 35.834 38.333 57.501 51
s44.167 21.167 67.5 25.5s46.666 5.16602 69.999 2.49902s45.5 -9 66.5 -19s40.333 -23 58 -39s32.167 -35 43.5 -57c16 14.667 29.167 31.834 39.5 51.501s16.833 41.167 19.5 64.5v32zM317.003 51.998l0.000976562 -673.999c0 -14 2.66699 -27.167 8 -39.5
s12.5 -23 21.5 -32s19.667 -16.167 32 -21.5s25.5 -8 39.5 -8h980c14 0 27.167 2.66699 39.5 8s23 12.5 32 21.5s16.167 19.667 21.5 32s8 25.5 8 39.5v125c0 20.667 4.66699 38 14 52s21 24.5 35 31.5s29 10.5 45 10.5s31 -3.5 45 -10.5s25.667 -17.5 35 -31.5
s14 -31.333 14 -52v-125c0 -40 -7.5 -77.5 -22.5 -112.5s-35.667 -65.667 -62 -92s-57 -47 -92 -62s-72.5 -22.5 -112.5 -22.5h-980c-40 0 -77.5 7.5 -112.5 22.5s-65.667 35.667 -92 62s-47 57 -62 92s-22.5 72.5 -22.5 112.5v829
c-1.33301 2 -2.66602 3.83301 -3.99902 5.5s-2.66602 3.16699 -3.99902 4.5c-12.667 16.667 -19.5 33.334 -20.5 50.001s2 32 9 46s16.833 26 29.5 36s26.667 16.333 42 19s31 1.16699 47 -4.5s30.333 -16.834 43 -33.501c36 -47.333 81 -85 135 -113s113.333 -42 178 -42
c54 0 105 10.333 153 31s89.667 48.667 125 84s63.333 77 84 125s31 99 31 153s-10.333 105 -31 153s-48.667 89.667 -84 125s-77 63.333 -125 84s-99 31 -153 31c-62.667 0 -120.5 -13.167 -173.5 -39.5s-97.5 -62.166 -133.5 -107.499
c-13.333 -16.667 -28 -27.5 -44 -32.5s-31.667 -5.83301 -47 -2.5s-29.333 10 -42 20s-22.167 22.167 -28.5 36.5s-8.83301 29.666 -7.5 45.999s8.66602 32.833 21.999 49.5c26.667 33.333 56.667 63.5 90 90.5s69.333 50 108 69s79.5 33.667 122.5 44s87.5 15.5 133.5 15.5
c53.333 0 104.833 -7 154.5 -21s96 -33.5 139 -58.5s82.167 -55.333 117.5 -91s65.666 -75 90.999 -118s44.833 -89.333 58.5 -139s20.5 -101.167 20.5 -154.5c0 -80 -15.167 -155.333 -45.5 -226s-71.833 -132.334 -124.5 -185.001s-114.334 -94.167 -185.001 -124.5
s-146 -45.5 -226 -45.5c-48 0 -94.5 5.66699 -139.5 17s-87.5 27.333 -127.5 48z" />
    <glyph glyph-name="uni1009_1008" unicode="&#x1009;&#x1039;&#x1008;" horiz-adv-x="1817" 
d="M317 52l0.000976562 -673.999c0 -14 2.66699 -27.167 8 -39.5s12.5 -23 21.5 -32s19.667 -16.167 32 -21.5s25.5 -8 39.5 -8v-188c-40 0 -77.5 7.5 -112.5 22.5s-65.667 35.667 -92 62s-47 57 -62 92s-22.5 72.5 -22.5 112.5v829
c-1.33301 2 -2.66602 3.83301 -3.99902 5.5s-2.66602 3.16699 -3.99902 4.5c-12.667 16.667 -19.5 33.334 -20.5 50.001s2 32 9 46s16.833 26 29.5 36s26.667 16.333 42 19s31 1.16699 47 -4.5s30.333 -16.834 43 -33.501c36 -47.333 81 -85 135 -113s113.333 -42 178 -42
c54 0 105 10.333 153 31s89.667 48.667 125 84s63.333 77 84 125s31 99 31 153s-10.333 105 -31 153s-48.667 89.667 -84 125s-77 63.333 -125 84s-99 31 -153 31c-62.667 0 -120.5 -13.167 -173.5 -39.5s-97.5 -62.166 -133.5 -107.499
c-13.333 -16.667 -28 -27.5 -44 -32.5s-31.667 -5.83301 -47 -2.5s-29.333 10 -42 20s-22.167 22.167 -28.5 36.5s-8.83301 29.666 -7.5 45.999s8.66602 32.833 21.999 49.5c26.667 33.333 56.667 63.5 90 90.5s69.333 50 108 69s79.5 33.667 122.5 44s87.5 15.5 133.5 15.5
c53.333 0 104.833 -7 154.5 -21s96 -33.5 139 -58.5s82.167 -55.333 117.5 -91s65.666 -75 90.999 -118s44.833 -89.333 58.5 -139s20.5 -101.167 20.5 -154.5c0 -80 -15.167 -155.333 -45.5 -226s-71.833 -132.334 -124.5 -185.001s-114.334 -94.167 -185.001 -124.5
s-146 -45.5 -226 -45.5c-48 0 -94.5 5.66699 -139.5 17s-87.5 27.333 -127.5 48zM668.001 -327.999c-20.667 -22.667 -37 -48.667 -49 -78s-18 -60.666 -18 -93.999s6 -64.666 18 -93.999s28.667 -55.333 50 -78c36 17.333 62.833 41.666 80.5 72.999s26.5 64.333 26.5 99
s-9 67.667 -27 99s-45 55.666 -81 72.999zM854.001 -246.999c-12 0 -23.667 -0.833008 -35 -2.5s-22.666 -4.16699 -33.999 -7.5c38 -30.667 66.5 -67.334 85.5 -110.001s28.5 -86.834 28.5 -132.501s-9.5 -90 -28.5 -133s-47.5 -79.833 -85.5 -110.5
c11.333 -3.33301 22.666 -5.83301 33.999 -7.5s23 -2.5 35 -2.5c34.667 0 67.334 6.66699 98.001 20s57.5 31.5 80.5 54.5s41.167 49.833 54.5 80.5s20 63.334 20 98.001s-6.66699 67.334 -20 98.001s-31.5 57.5 -54.5 80.5s-49.833 41.167 -80.5 54.5
s-63.334 20 -98.001 20zM854.001 -58.999c60.667 0 117.834 -11.5 171.501 -34.5s100.5 -54.5 140.5 -94.5s71.5 -86.833 94.5 -140.5s34.5 -110.834 34.5 -171.501c0 -61.333 -11.5 -118.666 -34.5 -171.999s-54.5 -100 -94.5 -140s-86.833 -71.5 -140.5 -94.5
s-110.834 -34.5 -171.501 -34.5c-61.333 0 -118.666 11.5 -171.999 34.5s-100 54.5 -140 94.5s-71.5 86.667 -94.5 140s-34.5 110.666 -34.5 171.999c0 60.667 11.5 117.834 34.5 171.501s54.5 100.5 94.5 140.5s86.667 71.5 140 94.5s110.666 34.5 171.999 34.5z
M1339 -822.999c-20.667 9.33301 -35.833 20.998 -45.5 34.998s-15 28.667 -16 44s1.5 30.5 7.5 45.5s14.833 27.5 26.5 37.5s25.167 17 40.5 21s31.333 3 48 -3l128 -53v1718c0 20.667 4.66699 38.167 14 52.5s21 24.833 35 31.5s29 10 45 10s31 -3.5 45 -10.5
s25.667 -17.5 35 -31.5s14 -31.333 14 -52v-1815c-1.33301 -19.333 -7.66602 -37.666 -18.999 -54.999s-25.5 -31.5 -42.5 -42.5s-35.833 -18.167 -56.5 -21.5s-41.334 -0.666016 -62.001 8.00098z" />
    <glyph glyph-name="uni1020_103E" unicode="&#x1020;&#x103e;" horiz-adv-x="1265" 
d="M1123 -105c0 -8.66699 -1.68262 -16.9961 -5.01562 -24.9961s-7.16602 -15.333 -11.499 -22s-9.16602 -12.5 -14.499 -17.5s-10 -8.5 -14 -10.5c-32.667 -21.333 -68.167 -39.333 -106.5 -54s-77.666 -26.834 -117.999 -36.501s-80.833 -16.667 -121.5 -21
s-79.667 -6.83301 -117 -7.5c-50 -0.666992 -99.833 2.5 -149.5 9.5s-98.5 18.833 -146.5 35.5v-370c0 -14 2.66699 -27.333 8 -40s12.666 -23.5 21.999 -32.5s20.166 -16.167 32.499 -21.5s25.5 -8 39.5 -8h459c14 0 27.167 2.66699 39.5 8s23 12.5 32 21.5
s16.333 19.833 22 32.5s8.5 26 8.5 40c-1.33301 26 -5.66602 45.667 -12.999 59s-16.333 22.666 -27 27.999s-22 7.83301 -34 7.5s-23.333 -1.5 -34 -3.5c-11.333 -2 -22.666 0.833008 -33.999 8.5s-21.166 17.834 -29.499 30.501s-14.666 26.667 -18.999 42
s-5.33301 30 -3 44s8.83301 26.5 19.5 37.5s26.667 17.833 48 20.5c42.667 6 83.167 2.66699 121.5 -10s71.833 -31.667 100.5 -57s51.334 -56 68.001 -92s25 -74.333 25 -115c0 -40 -7.66699 -77.833 -23 -113.5s-36.166 -66.834 -62.499 -93.501
s-57.166 -47.667 -92.499 -63s-73 -23 -113 -23h-459c-40 0 -77.833 7.66699 -113.5 23s-66.667 36.166 -93 62.499s-47.166 57.333 -62.499 93s-23 73.834 -23 114.501v499c-4 18 -2.66699 36 4 54s17.167 32.833 31.5 44.5s31.166 18.667 50.499 21
s39.333 -3.16699 60 -16.5c50.667 -32 104.334 -54.333 161.001 -67s114.334 -19 173.001 -19c24.667 0 50.834 1.16699 78.501 3.5s55.5 6 83.5 11s55.833 11.667 83.5 20s53.5 18.166 77.5 29.499v71c-75.333 -34.667 -155.666 -52 -240.999 -52
c-81.333 0 -157.666 15.5 -228.999 46.5s-133.666 73.167 -186.999 126.5s-95.333 115.666 -126 186.999s-46 147.666 -46 228.999s15.333 157.666 46 228.999s72.667 133.666 126 186.999s115.666 95.5 186.999 126.5s147.666 46.5 228.999 46.5
c46.667 0 91.834 -5.16699 135.501 -15.5s85.167 -25.166 124.5 -44.499s75.833 -42.666 109.5 -69.999s63.834 -58 90.501 -92c13.333 -16.667 20.833 -33.334 22.5 -50.001s-0.833008 -32.167 -7.5 -46.5s-16.5 -26.666 -29.5 -36.999s-27.167 -17.166 -42.5 -20.499
s-31.166 -2.33301 -47.499 3s-31.166 16.333 -44.499 33c-36 46 -81 82.333 -135 109s-112.667 40 -176 40c-54.667 0 -106.167 -10.5 -154.5 -31.5s-90.5 -49.5 -126.5 -85.5s-64.5 -78.167 -85.5 -126.5s-31.5 -99.833 -31.5 -154.5
c0 -55.333 10.5 -107.166 31.5 -155.499s49.5 -90.5 85.5 -126.5s78.167 -64.333 126.5 -85s99.833 -31 154.5 -31c65.333 0 125.5 14 180.5 42s100.5 66 136.5 114c12.667 17.333 27 28.833 43 34.5s31.833 7.16699 47.5 4.5s30.167 -9 43.5 -19s23.5 -22 30.5 -36
s10 -29.5 9 -46.5s-7.83301 -33.833 -20.5 -50.5l-19.5 -24.5c-6.33301 -7.66699 -13.166 -15.167 -20.499 -22.5c0 -0.666992 0.166992 -7.66699 0.5 -21s0.666016 -29.833 0.999023 -49.5s0.5 -40.834 0.5 -63.501v-63.5v-49v-20.5zM741.984 -352.996l0.00195312 -128.998
c0 -24 -4.5 -46.5 -13.5 -67.5s-21.167 -39.167 -36.5 -54.5s-33.333 -27.333 -54 -36s-42.667 -13 -66 -13h-62c-12 0 -22.167 2.83301 -30.5 8.5s-14.666 12.5 -18.999 20.5s-6.5 16.667 -6.5 26s2.16699 18.166 6.5 26.499s10.666 15.333 18.999 21s18.5 8.5 30.5 8.5h62
c8 0 15.667 1.5 23 4.5s13.5 7.16699 18.5 12.5s9.16699 11.666 12.5 18.999s5 15.333 5 24v129c0 12.667 2.66699 23 8 31s12.166 14 20.499 18s17.333 6 27 6s18.667 -2 27 -6s15.166 -10 20.499 -18s8 -18.333 8 -31z" />
    <glyph glyph-name="uni_lig_1" unicode="&#x102d;&#x103e;&#x102f;" 
d="M-757 -148v-476c0 -40 -7.66699 -77.5 -23 -112.5s-36 -65.667 -62 -92s-56.5 -47 -91.5 -62s-72.5 -22.5 -112.5 -22.5h-105c-20.667 0 -38 4.66699 -52 14s-24.5 21 -31.5 35s-10.5 29 -10.5 45s3.5 31 10.5 45s17.5 25.667 31.5 35s31.333 14 52 14h105
c14 0 27 2.66699 39 8s22.5 12.5 31.5 21.5s16.167 19.667 21.5 32s8 25.5 8 39.5v476c0 20.667 4.66699 38 14 52s21 24.667 35 32s29.167 10.833 45.5 10.5s31.5 -3.83301 45.5 -10.5s25.667 -17.167 35 -31.5s14 -31.833 14 -52.5zM-572 -145
c0 20.667 4.66699 38.167 14 52.5s21 24.833 35 31.5s29.167 10.167 45.5 10.5s31.5 -3.16699 45.5 -10.5s25.667 -18 35 -32s14 -31.333 14 -52v-475c0 -14 2.66699 -27 8 -39s12.5 -22.5 21.5 -31.5s19.667 -16.167 32 -21.5s25.5 -8 39.5 -8h104
c20.667 0 38 -4.66699 52 -14s24.5 -21 31.5 -35s10.5 -29.167 10.5 -45.5s-3.5 -31.5 -10.5 -45.5s-17.5 -25.667 -31.5 -35s-31.333 -14 -52 -14h-104c-40 0 -77.667 7.66699 -113 23s-66 36 -92 62s-46.667 56.5 -62 91.5s-23 72.5 -23 112.5v475zM-893 1587
c0 -34 6.66699 -66 20 -96s31.5 -56.167 54.5 -78.5s49.833 -40 80.5 -53s63.334 -19.5 98.001 -19.5s67.334 6.5 98.001 19.5s57.5 30.667 80.5 53s41.167 48.5 54.5 78.5s20 62 20 96s-6.66699 66 -20 96s-31.5 56.167 -54.5 78.5s-49.833 40 -80.5 53
s-63.334 19.5 -98.001 19.5s-67.334 -6.5 -98.001 -19.5s-57.5 -30.667 -80.5 -53s-41.167 -48.5 -54.5 -78.5s-20 -62 -20 -96zM-1081 1587c0 59.333 11.5 115.166 34.5 167.499s54.5 98 94.5 137s86.667 69.833 140 92.5s110.666 34 171.999 34
c60.667 0 117.834 -11.333 171.501 -34s100.5 -53.5 140.5 -92.5s71.5 -84.667 94.5 -137s34.5 -108.166 34.5 -167.499s-11.5 -115.166 -34.5 -167.499s-54.5 -98 -94.5 -137s-86.833 -69.833 -140.5 -92.5s-110.834 -34 -171.501 -34
c-61.333 0 -118.666 11.333 -171.999 34s-100 53.5 -140 92.5s-71.5 84.667 -94.5 137s-34.5 108.166 -34.5 167.499z" />
    <glyph glyph-name="uni_lig_2" unicode="&#x1036;&#x103e;&#x102f;" 
d="M-757 -148v-476c0 -40 -7.66699 -77.5 -23 -112.5s-36 -65.667 -62 -92s-56.5 -47 -91.5 -62s-72.5 -22.5 -112.5 -22.5h-105c-20.667 0 -38 4.66699 -52 14s-24.5 21 -31.5 35s-10.5 29 -10.5 45s3.5 31 10.5 45s17.5 25.667 31.5 35s31.333 14 52 14h105
c14 0 27 2.66699 39 8s22.5 12.5 31.5 21.5s16.167 19.667 21.5 32s8 25.5 8 39.5v476c0 20.667 4.66699 38 14 52s21 24.667 35 32s29.167 10.833 45.5 10.5s31.5 -3.83301 45.5 -10.5s25.667 -17.167 35 -31.5s14 -31.833 14 -52.5zM-572 -145
c0 20.667 4.66699 38.167 14 52.5s21 24.833 35 31.5s29.167 10.167 45.5 10.5s31.5 -3.16699 45.5 -10.5s25.667 -18 35 -32s14 -31.333 14 -52v-475c0 -14 2.66699 -27 8 -39s12.5 -22.5 21.5 -31.5s19.667 -16.167 32 -21.5s25.5 -8 39.5 -8h104
c20.667 0 38 -4.66699 52 -14s24.5 -21 31.5 -35s10.5 -29.167 10.5 -45.5s-3.5 -31.5 -10.5 -45.5s-17.5 -25.667 -31.5 -35s-31.333 -14 -52 -14h-104c-40 0 -77.667 7.66699 -113 23s-66 36 -92 62s-46.667 56.5 -62 91.5s-23 72.5 -23 112.5v475zM-656 1677
c28.667 0 55.5 -5.5 80.5 -16.5s46.833 -25.833 65.5 -44.5s33.5 -40.5 44.5 -65.5s16.5 -51.833 16.5 -80.5s-5.5 -55.667 -16.5 -81s-25.833 -47.333 -44.5 -66s-40.5 -33.5 -65.5 -44.5s-51.833 -16.5 -80.5 -16.5s-55.667 5.5 -81 16.5s-47.333 25.833 -66 44.5
s-33.5 40.667 -44.5 66s-16.5 52.333 -16.5 81s5.5 55.5 16.5 80.5s25.833 46.833 44.5 65.5s40.667 33.5 66 44.5s52.333 16.5 81 16.5zM-656 1513c-12 0 -22.333 -4.16699 -31 -12.5s-13 -18.5 -13 -30.5s4.33301 -22.333 13 -31s19 -13 31 -13s22.167 4.33301 30.5 13
s12.5 19 12.5 31s-4.16699 22.167 -12.5 30.5s-18.5 12.5 -30.5 12.5z" />
    <glyph glyph-name=".notdef" horiz-adv-x="594" 
 />
    <glyph glyph-name="space" unicode=" " horiz-adv-x="601" 
 />
    <glyph glyph-name="exclam" unicode="!" horiz-adv-x="569" 
d="M397 1141l-51 -776h-117l-55 776v325h223v-325zM387 0h-205v205h205v-205z" />
    <glyph glyph-name="quotedbl" unicode="&#x22;" horiz-adv-x="727" 
d="M641 1227l-45 -281h-111l-49 281v239h205v-239zM289 1227l-45 -281h-111l-49 281v239h205v-239z" />
    <glyph glyph-name="numbersign" unicode="#" horiz-adv-x="1139" 
d="M1116 401h-309l-86 -426h-152l88 426h-315l-86 -426h-152l89 426h-170v148h198l76 364h-274v148h303l88 430h149l-86 -430h314l88 430h149l-86 -430h174v-148h-205l-73 -364h278v-148zM762 913h-316l-73 -364h313z" />
    <glyph glyph-name="dollar" unicode="$" horiz-adv-x="1139" 
d="M621 844c1.33301 -0.666992 6.33008 -1.99902 14.9971 -3.99902c136.667 -26.667 239.334 -75.334 308.001 -146.001s103 -163.334 103 -278.001c0 -117.333 -37.667 -219 -113 -305s-179.666 -132.667 -312.999 -140v-182h-107v180
c-136 15.333 -240.333 59.5 -313 132.5s-113.667 175.167 -123 306.5l180 32c14 -98.667 42.333 -174.667 85 -228s99.667 -83.666 171 -90.999v573c-135.333 29.333 -236.666 78.333 -303.999 147s-101 157 -101 265c0 107.333 33.333 199.5 100 276.5
s168.334 121.5 305.001 133.5v86h107v-86c113.333 -11.333 202.666 -47.333 267.999 -108s106.333 -145.667 123 -255l-187 -27c-10.667 68 -33 121.833 -67 161.5s-79.667 65.167 -137 76.5v-520zM513.997 866.001l0.000976562 500.002
c-72.667 -12.667 -128.334 -41.834 -167.001 -87.501s-58 -98.5 -58 -158.5c0 -68.667 20 -122.834 60 -162.501s95 -70.167 165 -91.5zM620.998 121.003c70 10.667 127.667 41.167 173 91.5s68 113.833 68 190.5c0 67.333 -17.167 121.5 -51.5 162.5
s-97.5 75.833 -189.5 104.5v-549z" />
    <glyph glyph-name="percent" unicode="%" horiz-adv-x="1821" 
d="M1384 1491l-796 -1542h-150l801 1542h145zM457 1489c91.333 0 167 -33.002 227 -99.002s90 -162.667 90 -290c0 -125.333 -30.667 -221.166 -92 -287.499s-135.666 -99.5 -222.999 -99.5c-90.667 0 -164.834 33.333 -222.501 100s-86.5 166.334 -86.5 299.001
c0 108.667 27 198.667 81 270s129.333 107 226 107zM461 837.998c104.667 0 157 90 157 270c0 172 -52.333 258 -157 258c-104 0 -156 -90.667 -156 -272c0 -170.667 52 -256 156 -256zM1360 720.998c92 0 167.834 -33.001 227.501 -99.001s89.5 -162.667 89.5 -290
c0 -93.333 -16.333 -169 -49 -227s-73 -99.167 -121 -123.5s-96.333 -36.5 -145 -36.5c-90.667 0 -164.834 33.333 -222.501 100s-86.5 166.334 -86.5 299.001c0 108.667 27 198.667 81 270s129.333 107 226 107zM1364 69.9971c105.333 0 158 90 158 270
c0 172 -52.667 258 -158 258c-104 0 -156 -90.667 -156 -272c0 -170.667 52 -256 156 -256z" />
    <glyph glyph-name="ampersand" unicode="&#x26;" horiz-adv-x="1366" 
d="M1319 109l-121 -143.998c-64 42 -139 111 -225 207c-116 -131.333 -256 -197 -420 -197c-139.333 0 -251.666 43.667 -336.999 131s-128 186.333 -128 297c0 90 29 171.667 87 245s145 138 261 194c-54 62 -94.833 118 -122.5 168s-41.5 101 -41.5 153
c0 89.333 35 166.333 105 231s156.667 97 260 97c98 0 179.167 -30.5 243.5 -91.5s96.5 -134.833 96.5 -221.5c0 -70.667 -23.167 -135.834 -69.5 -195.501s-115.5 -113.5 -207.5 -161.5l265 -336c26 54.667 49 123 69 205l187 -39
c-32.667 -128.667 -76.334 -234.334 -131.001 -317.001c72.667 -92.667 149 -167.667 229 -225zM608 936.002c72 40.667 120.833 79.001 146.5 115.001s38.5 77 38.5 123c0 50.667 -16.5 91.5 -49.5 122.5s-71.833 46.5 -116.5 46.5c-45.333 0 -85 -15 -119 -45
s-51 -68.667 -51 -116c0 -16.667 4.33301 -37.834 13 -63.501s54.667 -86.5 138 -182.5zM860 315.003l-330 410.001c-82.667 -49.333 -144.5 -99.833 -185.5 -151.5s-61.5 -104.167 -61.5 -157.5c0 -65.333 24.833 -128.5 74.5 -189.5s115.5 -91.5 197.5 -91.5
c54 0 109.333 16.667 166 50s103 76.666 139 129.999z" />
    <glyph glyph-name="quotesingle" unicode="'" horiz-adv-x="391" 
d="M141 946l-49 281v239h205v-239l-45 -281h-111z" />
    <glyph glyph-name="parenleft" unicode="(" horiz-adv-x="682" 
d="M608 -430l-129 0.00195312c-110.667 141.333 -197.667 295.666 -261 462.999s-95 333 -95 497c0 186 33.667 358.667 101 518s152.333 307 255 443h129c-118.667 -194.667 -198.167 -365.334 -238.5 -512.001s-60.5 -295.667 -60.5 -447c0 -322 99.667 -642.667 299 -962
z" />
    <glyph glyph-name="parenright" unicode=")" horiz-adv-x="682" 
d="M203 1491c110.667 -141.333 197.667 -295.667 261 -463s95 -333.333 95 -498c0 -185.333 -33.667 -357.666 -101 -516.999s-152.333 -307 -255 -443h-129c118.667 194.667 198.167 365.167 238.5 511.5s60.5 295.166 60.5 446.499c0 322.667 -99.667 643.667 -299 963
h129z" />
    <glyph glyph-name="asterisk" unicode="*" horiz-adv-x="811" 
d="M736 1196c-79.333 -24.667 -162.665 -42.9961 -249.998 -54.9961c31.333 -28 89.333 -91 174 -189l-121 -86c-39.333 52.667 -85 124.334 -137 215.001c-48.667 -92.667 -92.334 -164.334 -131.001 -215.001l-117 86c98 117.333 153.333 180.333 166 189
c-96.667 19.333 -178.334 37.666 -245.001 54.999l47 143c121.333 -44.667 198.333 -77.334 231 -98.001c-13.333 115.333 -20 198.666 -20 249.999h143c0 -61.333 -6 -136.333 -18 -225c-3.33301 -4.66699 -5 -12.334 -5 -23.001c63.333 31.333 142 63.333 236 96z" />
    <glyph glyph-name="plus" unicode="+" horiz-adv-x="1196" 
d="M1083 639h-401v-401h-168v401h-401v168h401v401h168v-401h401v-168z" />
    <glyph glyph-name="comma" unicode="," horiz-adv-x="569" 
d="M389 0c0 -84.667 -16.1689 -149.332 -48.502 -193.999s-72.166 -76.334 -119.499 -95.001l-49 76c74.667 32 112.334 103 113.001 213h-101v205h205v-205z" />
    <glyph glyph-name="hyphen" unicode="-" horiz-adv-x="682" 
d="M616 440h-550v181h550v-181z" />
    <glyph glyph-name="period" unicode="." horiz-adv-x="569" 
d="M387 0h-205v205h205v-205z" />
    <glyph glyph-name="slash" unicode="/" horiz-adv-x="737" 
d="M649 1466l-424 -1515h-145l424 1515h145z" />
    <glyph glyph-name="zero" unicode="0" horiz-adv-x="1139" 
d="M569 1473c318.667 0 478.001 -250.001 478.001 -750.001c0 -252.667 -41.167 -440.5 -123.5 -563.5s-200.5 -184.5 -354.5 -184.5c-318 0 -477 249.333 -477 748c0 252.667 41.167 440.834 123.5 564.501s200.166 185.5 353.499 185.5zM569.001 122.999
c96.667 0 169.669 46.832 219.002 140.499s74 246.834 74 459.501c0 148 -10.833 264.5 -32.5 349.5s-54.334 148.333 -98.001 190s-98.5 62.5 -164.5 62.5c-96.667 0 -169.334 -47.667 -218.001 -143s-73 -248.333 -73 -459c0 -146 11 -261.667 33 -347
s54.667 -148.833 98 -190.5s97.333 -62.5 162 -62.5z" />
    <glyph glyph-name="one" unicode="1" horiz-adv-x="1139" 
d="M768 0l-179.999 -0.000976562v1147c-90 -85.333 -210.333 -157.666 -361 -216.999v174c207.333 99.333 348.666 222.333 423.999 369h117v-1473z" />
    <glyph glyph-name="two" unicode="2" horiz-adv-x="1139" 
d="M1034 0h-970.997c0 82.667 28.833 166.334 86.5 251.001s165.5 190.667 323.5 318c96.667 77.333 183 158.5 259 243.5s114 170.5 114 256.5c0 74 -26.167 135.167 -78.5 183.5s-118.5 72.5 -198.5 72.5c-80.667 0 -148.334 -24.833 -203.001 -74.5
s-82.334 -123.834 -83.001 -222.501l-185 21c11.333 137.333 60.166 242.333 146.499 315s195.833 109 328.5 109c144 0 256.167 -39.833 336.5 -119.5s120.5 -175.834 120.5 -288.501c0 -94 -33.833 -189.167 -101.5 -285.5s-202.5 -225.166 -404.5 -386.499
c-106 -84.667 -176.333 -157.667 -211 -219h721v-174z" />
    <glyph glyph-name="three" unicode="3" horiz-adv-x="1139" 
d="M776 793c90.667 -17.333 159.165 -61.165 205.498 -131.498s69.5 -146.833 69.5 -229.5c0 -133.333 -48.5 -242.833 -145.5 -328.5s-213.167 -128.5 -348.5 -128.5c-129.333 0 -236 37.667 -320 113s-133 175 -147 299l180 25c18 -96.667 50.833 -169 98.5 -217
s110.5 -72 188.5 -72c84 0 155.167 29.5 213.5 88.5s87.5 131.167 87.5 216.5c0 82 -26.5 150 -79.5 204s-122.167 81 -207.5 81c-34.667 0 -77 -6.33301 -127 -19l21 158c48 0 86 2.33301 114 7s59.333 16 94 34s63.334 43.833 86.001 77.5s34 75.5 34 125.5
c0 72.667 -24.167 129 -72.5 169s-104.166 60 -167.499 60c-72.667 0 -131.834 -23 -177.501 -69s-74.5 -111.667 -86.5 -197l-180 33c23.333 127.333 74.833 222.666 154.5 285.999s174.834 95 285.501 95c122 0 223.833 -36.833 305.5 -110.5
s122.5 -163.834 122.5 -270.501c0 -136.667 -67 -235 -201 -295v-4z" />
    <glyph glyph-name="four" unicode="4" horiz-adv-x="1139" 
d="M1044 350h-198v-350h-180v350h-635v166l667 950h148v-950h198v-166zM666 516v662h-4l-455 -662h459z" />
    <glyph glyph-name="five" unicode="5" horiz-adv-x="1139" 
d="M324 881c89.333 61.333 181.999 92.001 277.999 92.001c122 0 228.333 -43.167 319 -129.5s136 -201.5 136 -345.5c0 -145.333 -46 -268.833 -138 -370.5s-212.667 -152.5 -362 -152.5c-122 0 -227.667 34.5 -317 103.5s-140.666 171.167 -153.999 306.5l188 14
c15.333 -92.667 48 -161.834 98 -207.501s111.667 -68.5 185 -68.5c91.333 0 165.333 34.5 222 103.5s85 153.833 85 254.5c0 102.667 -29 183.667 -87 243s-132.667 89 -224 89c-115.333 0 -204 -47 -266 -141l-170 20l143 754h727v-174h-584z" />
    <glyph glyph-name="six" unicode="6" horiz-adv-x="1139" 
d="M268 756c82.667 129.333 200.335 194 353.002 194c120 0 222 -44.333 306 -133s126 -202 126 -340c0 -139.333 -41.833 -257.833 -125.5 -355.5s-194.834 -146.5 -333.501 -146.5c-140.667 0 -260.5 52 -359.5 156s-148.5 289 -148.5 555
c0 261.333 44.833 457.833 134.5 589.5s219.5 197.5 389.5 197.5c110 0 203 -30.667 279 -92s122.333 -152.333 139 -273l-180 -16c-32.667 155.333 -115.334 233 -248.001 233c-92 0 -171 -45.667 -237 -137s-99 -235.333 -99 -432h4zM590.001 123
c82.667 0 149.667 33.3311 201 99.998s77 147.334 77 242.001s-25.667 173 -77 235s-120.333 93 -207 93c-79.333 0 -147.666 -29.167 -204.999 -87.5s-86 -135.166 -86 -230.499c0 -97.333 28.167 -180.333 84.5 -249s127.166 -103 212.499 -103z" />
    <glyph glyph-name="seven" unicode="7" horiz-adv-x="1139" 
d="M1047 1307c-144 -158 -268.668 -353.332 -374.001 -585.999s-167.333 -473 -186 -721h-184c4.66699 199.333 53.834 418.166 147.501 656.499s215.167 443.5 364.5 615.5h-717v174h949v-139z" />
    <glyph glyph-name="eight" unicode="8" horiz-adv-x="1139" 
d="M776 793c183.333 -58.667 275.004 -183.667 275.004 -375c0 -126 -45 -231.333 -135 -316s-205.667 -127 -347 -127c-142.667 0 -258.834 42.667 -348.501 128s-134.5 192.333 -134.5 321c0 92.667 25.167 173.667 75.5 243s118.166 111.333 203.499 126v4
c-146.667 45.333 -220 144.333 -220 297c0 108 38.667 198.167 116 270.5s178.666 108.5 303.999 108.5c127.333 0 230.166 -37.333 308.499 -112s117.5 -165 117.5 -271c0 -144 -71.667 -241.667 -215 -293v-4zM569.004 864c67.333 0 123.833 21.501 169.5 64.501
s68.5 96.833 68.5 161.5c0 66 -23.167 121.667 -69.5 167s-103.166 68 -170.499 68c-68.667 0 -125.334 -22.333 -170.001 -67s-67 -97.334 -67 -158.001c0 -72.667 23 -130.167 69 -172.5s102.667 -63.5 170 -63.5zM569.004 123.001c84.667 0 155.333 27.333 212 82
s85 125.667 85 213s-29.167 159 -87.5 215s-129.5 84 -213.5 84c-87.333 0 -158.333 -28.833 -213 -86.5s-82 -127.167 -82 -208.5c0 -84.667 28.167 -155.667 84.5 -213s127.833 -86 214.5 -86z" />
    <glyph glyph-name="nine" unicode="9" horiz-adv-x="1139" 
d="M868 690c-35.333 -57.333 -83.833 -103.666 -145.5 -138.999s-128.5 -53 -200.5 -53c-120.667 0 -223.167 44.167 -307.5 132.5s-126.5 203.833 -126.5 346.5c0 145.333 43 264.333 129 357s196.667 139 332 139c136 0 253.667 -53 353 -159s149 -289.333 149 -550
c0 -264.667 -45.333 -462.334 -136 -593.001s-220.334 -196 -389.001 -196c-110 0 -202 30.167 -276 90.5s-119 151.833 -135 274.5l172 14c27.333 -154 108.333 -231 243 -231c110.667 0 195.334 50.5 254.001 151.5s88 239.5 88 415.5h-4zM565 655
c88 0 157.832 31.168 209.499 93.501s77.5 141.166 77.5 236.499c0 96.667 -26.5 177.5 -79.5 242.5s-120.833 97.5 -203.5 97.5c-83.333 0 -153.666 -34.5 -210.999 -103.5s-86 -152.5 -86 -250.5c0 -92.667 28.167 -168.5 84.5 -227.5s125.833 -88.5 208.5 -88.5z" />
    <glyph glyph-name="colon" unicode=":" horiz-adv-x="569" 
d="M389 856h-205v205h205v-205zM389 0h-205v205h205v-205z" />
    <glyph glyph-name="semicolon" unicode=";" horiz-adv-x="569" 
d="M389 856h-205v205h205v-205zM389 0c0 -84.667 -16.1689 -149.332 -48.502 -193.999s-72.166 -76.334 -119.499 -95.001l-49 76c74.667 32 112.334 103 113.001 213h-101v205h205v-205z" />
    <glyph glyph-name="less" unicode="&#x3c;" horiz-adv-x="1196" 
d="M1083 227l-970 414v168l970 410v-179l-770 -315l770 -319v-179z" />
    <glyph glyph-name="equal" unicode="=" horiz-adv-x="1196" 
d="M1083 862h-970v168h970v-168zM1083 416h-970v168h970v-168z" />
    <glyph glyph-name="greater" unicode="&#x3e;" horiz-adv-x="1196" 
d="M1083 637l-970 -410v179l770 315l-770 319v179l970 -414v-168z" />
    <glyph glyph-name="question" unicode="?" horiz-adv-x="1139" 
d="M94 1067c15.333 135.333 65 239.834 149 313.501s192.667 110.5 326 110.5c137.333 0 250.166 -37.833 338.499 -113.5s132.5 -170.834 132.5 -285.501c0 -57.333 -12.833 -113 -38.5 -167s-86.5 -123.333 -182.5 -208c-73.333 -65.333 -119.5 -116.833 -138.5 -154.5
s-29.5 -105.167 -31.5 -202.5h-172c0 77.333 2.83301 133.833 8.5 169.5s17.334 70.5 35.001 104.5s40.667 66 69 96s68.166 67.333 119.499 112c65.333 58 106.166 103.5 122.499 136.5s24.5 66.5 24.5 100.5c0 70 -27.667 131.5 -83 184.5s-122.666 79.5 -201.999 79.5
c-161.333 0 -258.666 -98.667 -291.999 -296zM670 0.000976562h-205v205h205v-205z" />
    <glyph glyph-name="at" unicode="@" horiz-adv-x="2079" 
d="M2009 18c-72 -135.333 -184.666 -243.828 -337.999 -325.495s-335 -122.5 -545 -122.5c-322.667 0 -571.834 81.833 -747.501 245.5s-263.5 381.5 -263.5 653.5c0 172.667 39 340.5 117 503.5s191.333 290.5 340 382.5s326 138 532 138
c259.333 0 466.833 -76.333 622.5 -229s233.5 -336.334 233.5 -551.001c0 -188.667 -63.167 -355.334 -189.5 -500.001s-263.833 -217 -412.5 -217c-123.333 0 -187.666 56 -192.999 168c-96.667 -110.667 -199 -166 -307 -166c-102 0 -187.833 43.333 -257.5 130
s-104.5 192.667 -104.5 318c0 156.667 52.833 302 158.5 436s225.5 201 359.5 201c126.667 0 227.667 -61.333 303 -184l35 156h178c-98 -460.667 -151.5 -708.834 -160.5 -744.501s-13.5 -62.834 -13.5 -81.501c0 -21.333 7.5 -37.833 22.5 -49.5s30.5 -17.5 46.5 -17.5
c42 0 95.667 25.667 161 77s119.333 119.333 162 204s64 176 64 274c0 184.667 -68.833 336 -206.5 454s-307.5 177 -509.5 177c-244.667 0 -444.834 -83.333 -600.501 -250s-233.5 -371 -233.5 -613c0 -248.667 77.833 -438.834 233.5 -570.501
s365.167 -197.5 628.5 -197.5c160.667 0 301.5 26.667 422.5 80s215.167 127 282.5 221h180zM895.001 145.005c90 0 173.332 51 249.999 153s115 219 115 351c0 91.333 -22.333 162 -67 212s-99.667 75 -165 75c-99.333 0 -182.166 -55.5 -248.499 -166.5
s-99.5 -222.833 -99.5 -335.5c0 -88.667 21.333 -159 64 -211s93 -78 151 -78z" />
    <glyph glyph-name="A" unicode="A" horiz-adv-x="1366" 
d="M1368 0h-219l-172 446h-612l-162 -446h-205l563 1466h209zM918 600c-120 317.333 -187.667 497.5 -203 540.5s-32.333 100.5 -51 172.5h-5c-18.667 -98.667 -43.667 -190 -75 -274l-164 -439h498z" />
    <glyph glyph-name="B" unicode="B" horiz-adv-x="1366" 
d="M985 780c92 -28 160.833 -73.501 206.5 -136.501s68.5 -135.5 68.5 -217.5s-20.667 -157.333 -62 -226s-100 -119.167 -176 -151.5s-179 -48.5 -309 -48.5h-561v1466h550c178 0 303.5 -38.667 376.5 -116s109.5 -163.333 109.5 -258c0 -64 -16.833 -123.167 -50.5 -177.5
s-84.5 -99.166 -152.5 -134.499zM346 851.999l318.002 0.000976562c65.333 0 120.166 3.66699 164.499 11s83.5 26.666 117.5 57.999s51 80 51 146c0 69.333 -17.167 120.5 -51.5 153.5s-75.333 53.167 -123 60.5s-108.834 11 -183.501 11h-293v-440zM346.002 174h364.999
c130.667 0 221.334 22.333 272.001 67s76 106.334 76 185.001c0 79.333 -27 141.166 -81 185.499s-151.333 66.5 -292 66.5h-340v-504z" />
    <glyph glyph-name="C" unicode="C" horiz-adv-x="1479" 
d="M1399 465c-42.667 -164.667 -117.169 -287.499 -223.502 -368.499s-233.833 -121.5 -382.5 -121.5c-240 0 -414.833 75.167 -524.5 225.5s-164.5 331.166 -164.5 542.499c0 234 64.5 417.167 193.5 549.5s294.833 198.5 497.5 198.5c142.667 0 264.667 -36.333 366 -109
s172.333 -179 213 -319l-190 -45c-32 102 -80.667 178.667 -146 230s-147 77 -245 77c-160 0 -281.333 -52.5 -364 -157.5s-124 -245.833 -124 -422.5c0 -204 43.5 -355.667 130.5 -455s200.5 -149 340.5 -149c114.667 0 207.834 31 279.501 93s121.834 155.333 150.501 280
z" />
    <glyph glyph-name="D" unicode="D" horiz-adv-x="1479" 
d="M164 1466h506.001c88.667 0 165 -4.5 229 -13.5s125.167 -31 183.5 -66s109.333 -83.167 153 -144.5s78 -131.833 103 -211.5s37.5 -176.167 37.5 -289.5c0 -216 -51.333 -393.5 -154 -532.5s-279.334 -208.5 -530.001 -208.5h-528v1466zM358.001 174l314 0.000976562
c64 0 121.167 4 171.5 12s101.333 29.667 153 65s94.5 93.333 128.5 174s51 187.334 51 320.001c0 73.333 -6.5 141.833 -19.5 205.5s-37 121.667 -72 174s-75.167 90.666 -120.5 114.999s-89.5 39.166 -132.5 44.499s-98.167 8 -165.5 8h-308v-1118z" />
    <glyph glyph-name="E" unicode="E" horiz-adv-x="1366" 
d="M1257 0h-1095v1466h1061v-174h-867v-448h811v-174h-811v-496h901v-174z" />
    <glyph glyph-name="F" unicode="F" horiz-adv-x="1251" 
d="M1153 1292h-795v-454h689v-174h-689v-664h-194v1466h989v-174z" />
    <glyph glyph-name="G" unicode="G" horiz-adv-x="1593" 
d="M1462 205c-184.667 -153.333 -386.671 -230.001 -606.004 -230.001c-224.667 0 -405.834 68.5 -543.501 205.5s-206.5 319.167 -206.5 546.5c0 138.667 28.167 267.834 84.5 387.501s139.333 212.334 249 278.001s243.834 98.5 402.501 98.5
c164.667 0 296.834 -36.167 396.501 -108.5s166.834 -180.833 201.501 -325.5l-174 -49c-27.333 105.333 -76.333 184.5 -147 237.5s-163 79.5 -277 79.5c-176.667 0 -310 -54 -400 -162s-135 -249.333 -135 -424c0 -130.667 21.833 -239.334 65.5 -326.001
s108.334 -152.167 194.001 -196.5s178.834 -66.5 279.501 -66.5c153.333 0 296 50.333 428 151v272h-432v175h620v-543z" />
    <glyph glyph-name="H" unicode="H" horiz-adv-x="1479" 
d="M1315 0h-195v690h-762v-690h-194v1466h194v-602h762v602h195v-1466z" />
    <glyph glyph-name="I" unicode="I" horiz-adv-x="569" 
d="M383 0h-195v1466h195v-1466z" />
    <glyph glyph-name="J" unicode="J" horiz-adv-x="1024" 
d="M860 469c0 -179.333 -36.168 -306.5 -108.501 -381.5s-173.166 -112.5 -302.499 -112.5c-131.333 0 -229.833 36.833 -295.5 110.5s-98.5 184.5 -98.5 332.5l174 24c1.33301 -97.333 20.333 -170.333 57 -219s91 -73 163 -73c66 0 115 15.667 147 47
s51.667 67.5 59 108.5s11 92.167 11 153.5v1007h194v-997z" />
    <glyph glyph-name="K" unicode="K" horiz-adv-x="1366" 
d="M1362 0h-256l-520 741l-242 -233v-508h-194v1466h194v-727l729 727h262l-614 -594z" />
    <glyph glyph-name="L" unicode="L" horiz-adv-x="1139" 
d="M1071 0h-917v1466h194v-1292h723v-174z" />
    <glyph glyph-name="M" unicode="M" horiz-adv-x="1706" 
d="M1550 0l-184 -0.000976562v1227h-4l-422 -1227h-174l-420 1247h-6v-1247h-184v1466h290l347 -1038c38.667 -115.333 61 -187.666 67 -216.999h4l78 235l350 1020h258v-1466z" />
    <glyph glyph-name="N" unicode="N" horiz-adv-x="1479" 
d="M1315 0h-199l-766 1151h-4v-1151h-184v1466h198l766 -1151h4v1151h185v-1466z" />
    <glyph glyph-name="O" unicode="O" horiz-adv-x="1593" 
d="M799 1491c205.333 0 373.333 -69.668 504 -209.001s196 -323 196 -551c0 -227.333 -65.667 -410.166 -197 -548.499s-299 -207.5 -503 -207.5c-211.333 0 -381.333 71.667 -510 215s-193 318.333 -193 525c0 240.667 65.167 430.167 195.5 568.5s299.5 207.5 507.5 207.5
zM797 140.999c148.667 0 269.168 51.999 361.501 155.999s138.833 248.667 139.5 434c0 190.667 -47.167 337.334 -141.5 440.001s-212.833 154 -355.5 154c-146.667 0 -267.334 -50.333 -362.001 -151s-142 -255 -142 -463c0 -170 46.333 -307.5 139 -412.5
s213 -157.5 361 -157.5z" />
    <glyph glyph-name="P" unicode="P" horiz-adv-x="1366" 
d="M158 1466l553 -0.000976562c87.333 0 162.5 -4.33301 225.5 -13s121.5 -31.167 175.5 -67.5s94.833 -85.666 122.5 -147.999s41.5 -127.5 41.5 -195.5c0 -135.333 -43.5 -243.833 -130.5 -325.5s-226.5 -122.5 -418.5 -122.5h-375v-594h-194v1466zM352 767.999h377
c230.667 0 346 89.333 346 268c0 58.667 -15 110.5 -45 155.5s-66.833 73 -110.5 84s-108.5 16.5 -194.5 16.5h-373v-524z" />
    <glyph glyph-name="Q" unicode="Q" horiz-adv-x="1593" 
d="M1526 20l-58.001 -135.001c-113.333 43.333 -217.666 103.666 -312.999 180.999c-110.667 -60.667 -230.667 -91 -360 -91c-204.667 0 -372.334 70.833 -503.001 212.5s-196 323.5 -196 545.5c0 220 63.333 401.333 190 544s297.667 214 513 214
c204.667 0 372.5 -69.667 503.5 -209s196.5 -321.666 196.5 -546.999c0 -241.333 -73.667 -433.666 -221 -576.999c82.667 -59.333 165.334 -105.333 248.001 -138zM1126 263.999c114.667 106 172 262.333 172 469c0 184.667 -46.167 329.5 -138.5 434.5
s-212.5 157.5 -360.5 157.5s-268.667 -50.333 -362 -151s-140 -247.667 -140 -441c0 -189.333 46.667 -335.333 140 -438s214 -154 362 -154c72.667 0 138 13 196 39c-64.667 41.333 -128.667 69.333 -192 84l47 142c119.333 -34 211.333 -81.333 276 -142z" />
    <glyph glyph-name="R" unicode="R" horiz-adv-x="1479" 
d="M1456 0l-243.999 -0.00390625l-272 425c-35.333 52.667 -72.5 97.834 -111.5 135.501s-75.667 61.5 -110 71.5s-79.833 15 -136.5 15h-224v-647h-194v1466h649c88.667 0 163 -5.66699 223 -17s112.667 -35.166 158 -71.499s80.166 -82.166 104.499 -137.499
s36.5 -113.666 36.5 -174.999c0 -110.667 -35 -199.667 -105 -267s-172 -110 -306 -128v-4c98 -43.333 190 -132.333 276 -267zM358.001 820.996l416 0.000976562c84 0 150.5 7.16699 199.5 21.5s88.167 42.166 117.5 83.499s44 87.666 44 138.999
c0 66.667 -24.333 123.334 -73 170.001s-129 70 -241 70h-463v-484z" />
    <glyph glyph-name="S" unicode="S" horiz-adv-x="1366" 
d="M1028 1036c-8 93.333 -41.6689 163.496 -101.002 210.496s-144.333 70.5 -255 70.5c-100 0 -181.333 -18.667 -244 -56s-94 -91.666 -94 -162.999c0 -63.333 24.167 -110.5 72.5 -141.5s140.833 -61.833 277.5 -92.5c121.333 -26.667 220.333 -54 297 -82
s142.334 -71.5 197.001 -130.5s82 -138.167 82 -237.5c0 -126 -50.167 -230.667 -150.5 -314s-231.166 -125 -392.499 -125c-206 0 -360.167 46 -462.5 138s-156.5 211.333 -162.5 358l184 16c8.66699 -117.333 54 -202.833 136 -256.5s181 -80.5 297 -80.5
c108.667 0 196.5 22.333 263.5 67s100.5 105.334 100.5 182.001c0 80 -35 138.333 -105 175s-187.5 72.834 -352.5 108.501s-283.833 85.834 -356.5 150.501s-109 148.667 -109 252c0 117.333 46 214.333 138 291s217.333 115 376 115c162.667 0 293.5 -38.167 392.5 -114.5
s151.5 -184.833 157.5 -325.5z" />
    <glyph glyph-name="T" unicode="T" horiz-adv-x="1251" 
d="M1206 1292h-485v-1292h-195v1292h-481v174h1161v-174z" />
    <glyph glyph-name="U" unicode="U" horiz-adv-x="1479" 
d="M1315 618c0 -75.333 -4.16699 -145.001 -12.5 -209.001s-30.333 -129.833 -66 -197.5s-93.667 -124 -174 -169s-187.5 -67.5 -321.5 -67.5c-130.667 0 -236 20 -316 60s-138.667 91.667 -176 155s-61.166 129.333 -71.499 198s-15.5 145.334 -15.5 230.001v848h194v-845
c0 -88 6.33301 -163.833 19 -227.5s46 -120.167 100 -169.5s137.333 -74 250 -74c114 0 199.667 19.667 257 59s94.666 91.833 111.999 157.5s26 150.5 26 254.5v845h195v-848z" />
    <glyph glyph-name="V" unicode="V" horiz-adv-x="1366" 
d="M1352 1466l-574 -1466h-198l-568 1466h209l381 -1065c28.667 -68 54 -147.667 76 -239h4c20 78 45.333 157.667 76 239l397 1065h197z" />
    <glyph glyph-name="W" unicode="W" horiz-adv-x="1933" 
d="M1911 1466l-403.999 -1466h-186l-320 1155c-16.667 59.333 -27.334 104.333 -32.001 135h-4l-41 -174l-312 -1116h-196l-391 1466h198l226 -962c30 -126 49 -218.667 57 -278c1.33301 -12 2 -19 2 -21h4c26.667 126.667 47.667 217.334 63 272.001l279 989h236l208 -741
c52 -184 89.667 -357.333 113 -520h4c14 79.333 37.333 185.666 70 318.999l231 942h195z" />
    <glyph glyph-name="X" unicode="X" horiz-adv-x="1366" 
d="M1354 0l-240 -0.000976562l-294 416c-72 102 -117.333 170.333 -136 205h-4c0 -12 -145.333 -219 -436 -621h-234l568 764l-502 702h231l309 -438c33.333 -47.333 58 -87 74 -119c26 44.667 163.333 230.334 412 557.001h211l-514 -690z" />
    <glyph glyph-name="Y" unicode="Y" horiz-adv-x="1366" 
d="M1354 1466l-584.001 -845v-621h-195v621l-565 845h236l322 -493c32.667 -50 71.334 -115.667 116.001 -197c28 54.667 176 284.667 444 690h226z" />
    <glyph glyph-name="Z" unicode="Z" horiz-adv-x="1251" 
d="M1196 0l-1159 -0.000976562v182l751 936c0 2 17.667 23.833 53 65.5s68.333 77.834 99 108.501h-819v174h1050v-174l-823 -1013l-88 -105h936v-174z" />
    <glyph glyph-name="bracketleft" unicode="[" horiz-adv-x="569" 
d="M537 -408h-398v1874h398v-149h-218v-1575h218v-150z" />
    <glyph glyph-name="backslash" unicode="\" horiz-adv-x="569" 
d="M569 -49h-145l-424 1515h145z" />
    <glyph glyph-name="bracketright" unicode="]" horiz-adv-x="569" 
d="M430 -408h-397v150h217v1575h-217v149h397v-1874z" />
    <glyph glyph-name="asciicircum" unicode="^" horiz-adv-x="961" 
d="M907 666h-182l-246 598l-241 -598h-185l355 800h145z" />
    <glyph glyph-name="underscore" unicode="_" horiz-adv-x="1024" 
d="M1036 -256h-1048v102h1048v-102z" />
    <glyph glyph-name="grave" unicode="`" horiz-adv-x="682" 
d="M455 1210h-148l-221 281h236z" />
    <glyph glyph-name="a" unicode="a" horiz-adv-x="1139" 
d="M1057 0l-189.004 -0.00195312c-17.333 33.333 -29.666 77 -36.999 131c-120.667 -104 -251 -156 -391 -156c-112 0 -200.333 28 -265 84s-97 130 -97 222c0 88 31.167 160.5 93.5 217.5s170.5 94.833 324.5 113.5l168 25c62.667 10 114.334 22.333 155.001 37
c0 54 -1.66699 92.167 -5 114.5s-13.166 45.5 -29.499 69.5s-42.5 43.333 -78.5 58s-84.333 22 -145 22c-77.333 0 -138.5 -14.333 -183.5 -43s-75.833 -82 -92.5 -160l-176 23c19.333 108.667 69 190.334 149 245.001s190 82 330 82c127.333 0 220.833 -18.833 280.5 -56.5
s96.334 -83.167 110.001 -136.5s20.5 -122 20.5 -206v-242c0 -147.333 2.83301 -246.166 8.5 -296.499s22.167 -99.5 49.5 -147.5zM818.996 466.998l-0.00195312 65c-94 -31.333 -209 -56.166 -345 -74.499s-204 -75.833 -204 -172.5c0 -48.667 18.333 -88.834 55 -120.501
s89.334 -47.5 158.001 -47.5c88.667 0 166.834 26.5 234.501 79.5s101.5 143.167 101.5 270.5z" />
    <glyph glyph-name="b" unicode="b" horiz-adv-x="1139" 
d="M322 942c66.667 95.333 162.001 143 286.001 143c136.667 0 246 -49.667 328 -149s123 -229 123 -389c0 -184.667 -45.833 -326.167 -137.5 -424.5s-198.834 -147.5 -321.501 -147.5c-124.667 0 -221.667 52.667 -291 158h-4v-133h-168v1466h180v-524h5zM586.001 123
c83.333 0 152.167 35.834 206.5 107.501s81.5 172.167 81.5 301.5c0 124.667 -25 223.5 -75 296.5s-119 109.5 -207 109.5c-86.667 0 -156.5 -37.667 -209.5 -113s-79.5 -170.666 -79.5 -285.999c0 -112.667 11 -192.834 33 -240.501s55.167 -88.834 99.5 -123.501
s94.5 -52 150.5 -52z" />
    <glyph glyph-name="c" unicode="c" horiz-adv-x="1024" 
d="M1006 367c-23.333 -135.333 -76.666 -234.5 -159.999 -297.5s-177.666 -94.5 -282.999 -94.5c-154 0 -273 50.5 -357 151.5s-126 234.833 -126 401.5c0 138 24.167 248.5 72.5 331.5s108.833 141.333 181.5 175s149 50.5 229 50.5c109.333 0 202.833 -28.333 280.5 -85
s125.5 -140 143.5 -250l-174 -27c-18 71.333 -47.167 125 -87.5 161s-91.833 54 -154.5 54c-100.667 0 -177 -35.667 -229 -107s-78 -171 -78 -299c0 -130.667 25.5 -231.5 76.5 -302.5s124.5 -106.5 220.5 -106.5c77.333 0 138.166 22.167 182.499 66.5
s72.166 110.833 83.499 199.5z" />
    <glyph glyph-name="d" unicode="d" horiz-adv-x="1139" 
d="M995 0l-167.999 0.000976562v135h-4c-64.667 -106.667 -162.334 -160 -293.001 -160c-130 0 -238.5 51.5 -325.5 154.5s-130.5 236.5 -130.5 400.5c0 171.333 41 306.666 123 405.999s190.333 149 325 149c126.667 0 223 -48.333 289 -145h4v526h180v-1466z
M549.001 123.001c78.667 0 145.333 32.333 200 97s82 162.667 82 294c0 129.333 -25 232.333 -75 309s-121.667 115 -215 115s-163.833 -37.5 -211.5 -112.5s-71.5 -173.5 -71.5 -295.5c0 -88 12.833 -162.5 38.5 -223.5s61.5 -106.833 107.5 -137.5s94.333 -46 145 -46z
" />
    <glyph glyph-name="e" unicode="e" horiz-adv-x="1139" 
d="M1059 485l-795.002 0.00195312c7.33301 -117.333 40.833 -207 100.5 -269s134.167 -93 223.5 -93c68.667 0 126.334 18.167 173.001 54.5s82.334 91.166 107.001 164.499l185 -23c-30 -110.667 -85 -195.667 -165 -255s-180 -89 -300 -89
c-159.333 0 -283.833 48.833 -373.5 146.5s-134.5 231.167 -134.5 400.5c0 167.333 43.5 303 130.5 407s209.5 156 367.5 156c77.333 0 151.833 -17 223.5 -51s132.5 -91.833 182.5 -173.5s75 -206.834 75 -375.501zM873.998 633.002
c-7.33301 108 -40.8301 185.833 -100.497 233.5s-124.834 71.5 -195.501 71.5c-84.667 0 -154.334 -28.333 -209.001 -85s-86.334 -130 -95.001 -220h600z" />
    <glyph glyph-name="f" unicode="f" horiz-adv-x="569" 
d="M637 1473l-27 -157.999c-36 6.66699 -71.333 10 -106 10c-43.333 0 -78.833 -9.16699 -106.5 -27.5s-41.5 -63.833 -41.5 -136.5v-100h205v-139h-205v-922h-180v922h-160v139h160v115c0 53.333 5 101.666 15 144.999s36.5 82.5 79.5 117.5s109.167 52.5 198.5 52.5
c53.333 0 109.333 -6 168 -18z" />
    <glyph glyph-name="g" unicode="g" horiz-adv-x="1139" 
d="M1006 143c0 -150.667 -14.998 -263.167 -44.998 -337.5s-83.333 -132.166 -160 -173.499s-168.334 -62 -275.001 -62c-120 0 -220 26.667 -300 80s-120 140.666 -120 261.999l175 -27c6.66699 -56 30.167 -98 70.5 -126s97.833 -42 172.5 -42
c93.333 0 161.666 19 204.999 57s69.833 84.333 79.5 139s14.5 130 14.5 226c-78 -92.667 -176.333 -139 -295 -139c-138 0 -248.833 51 -332.5 153s-125.5 230.667 -125.5 386c0 156 40.667 286 122 390s194 156 338 156c125.333 0 227.333 -50.333 306 -151h4v127h166
v-918zM545.002 147c76.667 0 144.668 30.498 204.001 91.498s89 163.167 89 306.5c0 126.667 -28.333 223.834 -85 291.501s-126.667 101.5 -210 101.5c-85.333 0 -154.833 -34.667 -208.5 -104s-80.5 -164.333 -80.5 -285c0 -139.333 28.167 -241.166 84.5 -305.499
s125.166 -96.5 206.499 -96.5z" />
    <glyph glyph-name="h" unicode="h" horiz-adv-x="1139" 
d="M1004 0h-181.001v670c0 86.667 -18.667 151.667 -56 195s-93 65 -167 65c-73.333 0 -138.833 -25.5 -196.5 -76.5s-86.5 -142.167 -86.5 -273.5v-580h-180v1466h180v-526c85.333 96.667 192 145 320 145c68.667 0 134.334 -14 197.001 -42s106.667 -71 132 -129
s38 -138.667 38 -242v-672z" />
    <glyph glyph-name="i" unicode="i" horiz-adv-x="455" 
d="M317 0h-180v1061h180v-1061zM317 1262h-180v204h180v-204z" />
    <glyph glyph-name="j" unicode="j" horiz-adv-x="455" 
d="M317 -57c0 -70 -4.66699 -130.168 -14 -180.501s-33.5 -94.666 -72.5 -132.999s-99.5 -57.5 -181.5 -57.5c-47.333 0 -94.333 6 -141 18l35 152c33.333 -9.33301 61.333 -14 84 -14c38.667 0 66.667 13 84 39s26 86 26 180v1114h180v-1118zM317 1262h-180v204h180v-204z
" />
    <glyph glyph-name="k" unicode="k" horiz-adv-x="1024" 
d="M1016 0h-221l-353 543l-127 -121v-422h-180v1466h180v-835l426 430h234l-406 -393z" />
    <glyph glyph-name="l" unicode="l" horiz-adv-x="455" 
d="M317 0h-180v1466h180v-1466z" />
    <glyph glyph-name="m" unicode="m" horiz-adv-x="1706" 
d="M1575 0h-179.999v670c0 49.333 -3.33301 91.5 -10 126.5s-23.834 66 -51.501 93s-70.834 40.5 -129.501 40.5c-70.667 0 -131.667 -24.667 -183 -74s-77 -129.333 -77 -240v-616h-180v690c0 92 -16.167 155 -48.5 189s-78.166 51 -137.499 51
c-77.333 0 -140.833 -26.667 -190.5 -80s-74.5 -153 -74.5 -299v-551h-180v1061h162v-148h4c72 114.667 177.667 172 317 172c78 0 142.167 -15.5 192.5 -46.5s86.833 -77.5 109.5 -139.5c78.667 124 187.667 186 327 186c110 0 192.5 -29.667 247.5 -89
s82.5 -148.333 82.5 -267v-729z" />
    <glyph glyph-name="n" unicode="n" horiz-adv-x="1139" 
d="M1004 0l-181 -0.00195312v645c0 108.667 -19.5 183.334 -58.5 224.001s-93.167 61 -162.5 61c-53.333 0 -103.833 -13 -151.5 -39s-81.5 -62.667 -101.5 -110s-30 -114.333 -30 -201v-580h-180v1061h162v-150h4c38 58 84.833 101.5 140.5 130.5s120.167 43.5 193.5 43.5
c56 0 111.333 -10 166 -30s97.5 -50 128.5 -90s50.5 -82.667 58.5 -128s12 -106.666 12 -183.999v-653z" />
    <glyph glyph-name="o" unicode="o" horiz-adv-x="1139" 
d="M569 1085c143.333 0 262.167 -46.6689 356.5 -140.002s141.5 -226 141.5 -398c0 -208.667 -51 -356.167 -153 -442.5s-217 -129.5 -345 -129.5c-134 0 -250.333 44.333 -349 133s-148 229.334 -148 422.001c0 186.667 47.667 325.834 143 417.501
s213.333 137.5 354 137.5zM569.001 122.998c102.667 0 180.667 37.999 234 113.999s80 176 80 300c0 132.667 -30.167 232.667 -90.5 300s-134.833 101 -223.5 101c-91.333 0 -166.333 -34.167 -225 -102.5s-88 -170.166 -88 -305.499
c0 -134.667 29.833 -236.167 89.5 -304.5s134.167 -102.5 223.5 -102.5z" />
    <glyph glyph-name="p" unicode="p" horiz-adv-x="1139" 
d="M307 924c67.333 107.333 168.333 161.001 303 161.001c139.333 0 249.333 -50.5 330 -151.5s121 -232.5 121 -394.5c0 -172.667 -44.667 -309.834 -134 -411.501s-199 -152.5 -329 -152.5c-114 0 -205.333 45.333 -274 136h-5v-519h-180v1469h164v-137h4zM586 123.001
c84 0 153.499 34.833 208.499 104.5s82.5 173.5 82.5 311.5c0 130 -26.5 230 -79.5 300s-120.833 105 -203.5 105c-85.333 0 -155.5 -39 -210.5 -117s-82.5 -179 -82.5 -303c0 -131.333 26.333 -231 79 -299s121.334 -102 206.001 -102z" />
    <glyph glyph-name="q" unicode="q" horiz-adv-x="1139" 
d="M999 -408l-180.002 -0.000976562v519h-4c-69.333 -90.667 -160.666 -136 -273.999 -136c-130.667 0 -240.5 50.833 -329.5 152.5s-133.5 238.834 -133.5 411.501c0 162 40.333 293.5 121 394.5s190.334 151.5 329.001 151.5c134.667 0 235.667 -53.667 303 -161h5v137
h163v-1469zM552.998 122.999c84.667 0 153.333 34 206 102s79 167.667 79 299c0 124 -27.333 225 -82 303s-125 117 -211 117c-82.667 0 -150.5 -35 -203.5 -105s-79.5 -170 -79.5 -300c0 -91.333 12.333 -168 37 -230s59.667 -108.5 105 -139.5s95 -46.5 149 -46.5z" />
    <glyph glyph-name="r" unicode="r" horiz-adv-x="682" 
d="M709 1028l-61.999 -166c-44.667 26 -88.334 39 -131.001 39c-67.333 0 -118.333 -30.167 -153 -90.5s-52 -144.833 -52 -253.5v-557h-180v1061h164v-160h4c57.333 122.667 132.333 184 225 184c61.333 0 123 -19 185 -57z" />
    <glyph glyph-name="s" unicode="s" horiz-adv-x="1024" 
d="M729 764c-8 58 -31.5 101.503 -70.5 130.503s-93.167 43.5 -162.5 43.5c-68.667 0 -124.167 -11.667 -166.5 -35s-63.5 -57.333 -63.5 -102c0 -42 16.833 -72 50.5 -90s100.167 -40 199.5 -66c112 -28.667 195.833 -54 251.5 -76s99 -52.833 130 -92.5
s46.5 -94.834 46.5 -165.501c0 -94.667 -38.667 -174.334 -116 -239.001s-180.666 -97 -309.999 -97c-134.667 0 -239.834 28.5 -315.501 85.5s-122.167 142.5 -139.5 256.5l179 27c9.33301 -74 36.833 -129.333 82.5 -166s109.5 -55 191.5 -55c78.667 0 139 16.5 181 49.5
s63 73.167 63 120.5c0 32 -9.66699 57.667 -29 77s-43.5 33.833 -72.5 43.5s-94.167 26.834 -195.5 51.501c-150.667 36 -250.167 79.667 -298.5 131s-72.5 112.666 -72.5 183.999c0 88.667 35.333 161.667 106 219s165.667 86 285 86
c126.667 0 225.167 -24.833 295.5 -74.5s112.5 -123.834 126.5 -222.501z" />
    <glyph glyph-name="t" unicode="t" horiz-adv-x="569" 
d="M551 2c-53.333 -10.667 -98.333 -16.002 -135 -16.002c-78.667 0 -136 13.833 -172 41.5s-58 62.834 -66 105.501s-12 102 -12 178v611h-131v139h131v264l180 109v-373h180v-139h-180v-621c0 -53.333 5.5 -91.166 16.5 -113.499s38.833 -33.5 83.5 -33.5
c26 0 52.667 2.66699 80 8z" />
    <glyph glyph-name="u" unicode="u" horiz-adv-x="1139" 
d="M997 0l-161 0.000976562v156h-5c-81.333 -120.667 -192.333 -181 -333 -181c-74 0 -142.5 17.167 -205.5 51.5s-105 81.666 -126 141.999s-31.5 138.5 -31.5 234.5v658h180v-588c0 -94 4.5 -161.333 13.5 -202s32.5 -74.167 70.5 -100.5s83.333 -39.5 136 -39.5
c68 0 132 23.5 192 70.5s90 144.5 90 292.5v567h180v-1061z" />
    <glyph glyph-name="v" unicode="v" horiz-adv-x="1024" 
d="M999 1061l-401 -1061h-168l-403 1061h190l219 -614c41.333 -116 66 -194.667 74 -236h4c10.667 42.667 29 100 55 172l246 678h184z" />
    <glyph glyph-name="w" unicode="w" horiz-adv-x="1479" 
d="M1468 1061l-333 -1061h-187l-168 637c-0.666992 0 -7.66699 28.667 -21 86s-20 88.666 -20 93.999h-4l-211 -817h-188l-326 1061h187l231 -840l36 143l189 697h185l143 -556c40 -153.333 62 -240.333 66 -261h4l241 817h176z" />
    <glyph glyph-name="x" unicode="x" horiz-adv-x="1024" 
d="M1010 0l-221.999 -0.000976562l-276 420l-279 -420h-219l389 553l-358 508h223c145.333 -219.333 224.666 -341.666 237.999 -366.999l260 367h215l-367 -498z" />
    <glyph glyph-name="y" unicode="y" horiz-adv-x="1024" 
d="M1008 1061l-406 -1079c-0.666992 -1.33301 -1.33398 -3.66602 -2.00098 -6.99902c-38.667 -120 -83.834 -217.5 -135.501 -292.5s-125.167 -112.5 -220.5 -112.5c-32 0 -71 6.66699 -117 20l-18 170c34.667 -10.667 68.667 -16 102 -16
c66.667 0 112.834 18.333 138.501 55s54.5 103 86.5 199l-403 1063h194l250 -695c14.667 -42.667 30.334 -97.667 47.001 -165h4c16.667 77.333 38 151 64 221l233 639h183z" />
    <glyph glyph-name="z" unicode="z" horiz-adv-x="1024" 
d="M981 0h-940.002v145l676 775c-79.333 -4.66699 -147 -7 -203 -7h-434v148h868v-117l-575 -672c-11.333 -14 -40.666 -46.667 -87.999 -98c-11.333 -10.667 -19 -19.667 -23 -27c68.667 6 144.334 9 227.001 9h492v-156z" />
    <glyph glyph-name="braceleft" unicode="{" horiz-adv-x="684" 
d="M635 -430l-54.998 -0.00878906c-54.667 0 -101.834 4.83301 -141.501 14.5s-74.5 33.834 -104.5 72.501s-48.833 84.667 -56.5 138s-12.167 142 -13.5 266c0 86.667 -3.5 155.334 -10.5 206.001s-25.5 93.334 -55.5 128.001s-77 52.667 -141 54v163
c64 1.33301 111 19.166 141 53.499s48.5 76.833 55.5 127.5s10.5 119.334 10.5 206.001c1.33301 123.333 5.66602 211.5 12.999 264.5s25.833 99.167 55.5 138.5s64.5 64 104.5 74s87.667 15 143 15h55v-156h-31c-68.667 0 -114.5 -12.5 -137.5 -37.5
s-34.5 -81.5 -34.5 -169.5c0 -146 -3.16699 -251.667 -9.5 -317s-24 -120.166 -53 -164.499s-77.833 -83.166 -146.5 -116.499c68 -27.333 119.833 -71.666 155.5 -132.999s53.5 -167.666 53.5 -318.999c0 -139.333 3 -224.666 9 -255.999s17.5 -55.166 34.5 -71.499
s59.833 -24.5 128.5 -24.5h31v-156z" />
    <glyph glyph-name="bar" unicode="|" horiz-adv-x="532" 
d="M344 -408h-156v1874h156v-1874z" />
    <glyph glyph-name="braceright" unicode="}" horiz-adv-x="684" 
d="M627 449c-64 -1.33301 -110.832 -19.165 -140.499 -53.498s-48 -76.333 -55 -126s-10.833 -119.167 -11.5 -208.5c-1.33301 -122.667 -5.66602 -210.5 -12.999 -263.5s-25.833 -99.167 -55.5 -138.5s-64.5 -64 -104.5 -74s-87.667 -15 -143 -15h-55v156h31
c68.667 0 114.5 12.5 137.5 37.5s34.5 81.167 34.5 168.5c0 146.667 3.16699 252.667 9.5 318s24 120.166 53 164.499s77.833 82.833 146.5 115.5c-68 28 -119.833 72.667 -155.5 134s-53.5 167.666 -53.5 318.999c0 139.333 -3 224.5 -9 255.5s-17.5 54.833 -34.5 71.5
s-59.833 25 -128.5 25h-31v156h55c55.333 0 103.166 -5.16699 143.499 -15.5s75.666 -35.666 105.999 -75.999s49 -86.5 56 -138.5s10.5 -139.333 10.5 -262c0 -86 3.5 -154.333 10.5 -205s25.5 -93.334 55.5 -128.001s77 -52.667 141 -54v-163z" />
    <glyph glyph-name="asciitilde" unicode="~" horiz-adv-x="1196" 
d="M1110 674c-79.333 -76.667 -171.331 -115 -275.998 -115c-70 0 -151.333 20.667 -244 62c-96 47.333 -176.667 71 -242 71c-84.667 0 -171.334 -45 -260.001 -135v205c70.667 80.667 163 121 277 121c71.333 0 162.666 -23.333 273.999 -70
c87.333 -43.333 158.333 -65 213 -65c86 0 172 45.667 258 137v-211z" />
    <glyph glyph-name="nonbreakingspace" unicode="&#xa0;" horiz-adv-x="569" 
 />
    <glyph glyph-name="exclamdown" unicode="&#xa1;" horiz-adv-x="682" 
d="M226 -82l51 776h117l55 -776v-325h-223v325zM236 1059h205v-205h-205v205z" />
    <glyph glyph-name="cent" unicode="&#xa2;" horiz-adv-x="1139" 
d="M1038 369c-24 -132.667 -78.5029 -231.834 -163.503 -297.501s-179.833 -98.5 -284.5 -98.5c-34.667 0 -69 4.33301 -103 13l-116 -396l-113 33l115 397c-83.333 40.667 -147.5 104.834 -192.5 192.501s-67.5 191.5 -67.5 311.5c0 188 45.667 328.833 137 422.5
s202 140.5 332 140.5c24 0 57.333 -2.66699 100 -8l115 387l108 -32l-110 -387c123.333 -54.667 198.333 -153.667 225 -297l-176 -27c-13.333 72.667 -44.666 129.334 -93.999 170.001l-224 -766c22.667 -5.33301 43.334 -8 62.001 -8c67.333 0 126.333 23.167 177 69.5
s82.334 113.166 95.001 200.499zM642.997 940c-134 11.333 -229.667 -32.667 -287 -132c-39.333 -68.667 -59 -159.667 -59 -273c0 -180 41 -299.667 123 -359z" />
    <glyph glyph-name="sterling" unicode="&#xa3;" horiz-adv-x="1139" 
d="M1087 37c-97.333 -41.333 -178.336 -62.001 -243.003 -62.001c-46.667 0 -93 7 -139 21c-110.667 33.333 -179.834 53.333 -207.501 60s-59.167 10 -94.5 10c-103.333 0 -204.333 -31.667 -303 -95l-69 174c152.667 88.667 229 219.334 229 392.001
c0 42 -5.33301 83.667 -16 125h-195v147h154c-34 114.667 -51 202.667 -51 264c0 128.667 43.5 230.5 130.5 305.5s194.833 112.5 323.5 112.5c109.333 0 205.333 -30.833 288 -92.5s134.334 -157.167 155.001 -286.5l-181 -27c-10 82 -39.833 145.5 -89.5 190.5
s-108.5 67.5 -176.5 67.5c-75.333 0 -137.166 -24.5 -185.499 -73.5s-72.5 -106.167 -72.5 -171.5c0 -76 19 -172.333 57 -289h314v-147h-283c14 -30 21 -59.667 21 -89c0 -128.667 -60.333 -254.667 -181 -378l4 -5c40.667 15.333 87.334 23 140.001 23
c56.667 0 119.334 -8.33301 188.001 -25c102.667 -27.333 180 -41 232 -41c50.667 0 114.667 18.667 192 56z" />
    <glyph glyph-name="yen" unicode="&#xa5;" horiz-adv-x="1139" 
d="M1137 1466l-381 -669.001h317v-140h-411v-180h411v-139h-411v-338h-181v338h-415v139h415v180h-415v140h319l-383 669h201l299 -534c27.333 -48 49 -93 65 -135c12 28.667 46.333 95.334 103 200.001l254 469h213z" />
    <glyph glyph-name="section" unicode="&#xa7;" horiz-adv-x="1139" 
d="M778 1124c-10.667 72.667 -33.998 127.334 -69.998 164.001s-84.333 55 -145 55c-58.667 0 -107.5 -16 -146.5 -48s-58.5 -69 -58.5 -111c0 -40 19.667 -80.167 59 -120.5s133.666 -105.5 282.999 -195.5c85.333 -50.667 151 -93.167 197 -127.5
s83.167 -73.833 111.5 -118.5s42.5 -97 42.5 -157c0 -134.667 -76.667 -230.334 -230 -287.001c106.667 -82.667 160 -176 160 -280c0 -94 -36.667 -172.167 -110 -234.5s-169 -93.5 -287 -93.5c-122 0 -221.333 30.5 -298 91.5s-123 150.5 -139 268.5l181 25
c14 -78 42.333 -136.5 85 -175.5s99.667 -58.5 171 -58.5c68.667 0 122 17.833 160 53.5s57 76.167 57 121.5c0 28.667 -8 55 -24 79s-56.333 59.5 -121 106.5s-141.334 97.5 -230.001 151.5c-144.667 88 -237.5 162.5 -278.5 223.5s-61.5 123.167 -61.5 186.5
s19.5 121 58.5 173s94.5 89.333 166.5 112c-88.667 76 -133 158.667 -133 248c0 82 33 155 99 219s156 96 270 96c118 0 213.667 -28.5 287 -85.5s117 -143.833 131 -260.5zM731.002 244c98.667 49.333 148.002 111.333 148.002 186c0 48.667 -22.833 94.667 -68.5 138
s-115.167 93.666 -208.5 150.999c-98.667 62 -166.334 108.333 -203.001 139c-100.667 -53.333 -151 -118 -151 -194c0 -50 19.833 -94.667 59.5 -134s104.5 -85.666 194.5 -138.999c97.333 -57.333 173.666 -106.333 228.999 -147z" />
    <glyph glyph-name="dieresis" unicode="&#xa8;" horiz-adv-x="682" 
d="M618 1251h-184v205h184v-205zM248 1251h-185v205h185v-205z" />
    <glyph glyph-name="copyright" unicode="&#xa9;" horiz-adv-x="1509" 
d="M756 1491c206 0 382.999 -73.833 530.999 -221.5s222 -325.167 222 -532.5s-73.667 -385 -221 -533s-324.666 -222 -531.999 -222c-208 0 -386 73.833 -534 221.5s-222 325.5 -222 533.5c0 207.333 74 384.833 222 532.5s326 221.5 534 221.5zM753.999 106
c172.667 0 320.832 61.833 444.499 185.5s185.5 272.167 185.5 445.5s-61.667 321.5 -185 444.5s-271.666 184.5 -444.999 184.5s-321.5 -61.5 -444.5 -184.5s-184.5 -271.167 -184.5 -444.5s61.5 -321.833 184.5 -445.5s271.167 -185.5 444.5 -185.5zM1120 578
c-21.333 -88 -65.3281 -155.833 -131.995 -203.5s-143.334 -71.5 -230.001 -71.5c-119.333 0 -215.5 39 -288.5 117s-109.5 183 -109.5 315c0 130.667 36.167 234 108.5 310s170.833 114 295.5 114c84 0 156.167 -20 216.5 -60s102.166 -98.333 125.499 -175l-119 -29
c-40.667 102.667 -116.334 154 -227.001 154c-83.333 0 -147.833 -29.833 -193.5 -89.5s-68.5 -135.834 -68.5 -228.501c0 -101.333 23.667 -178.166 71 -230.499s107.666 -78.5 180.999 -78.5c54.667 0 105.167 15.5 151.5 46.5s78.166 79.5 95.499 145.5z" />
    <glyph glyph-name="guillemotleft" unicode="&#xab;" horiz-adv-x="1139" 
d="M997 72h-147l-318 456l318 457h147l-260 -457zM606 72h-147l-318 456l318 457h147l-260 -457z" />
    <glyph glyph-name="logicalnot" unicode="&#xac;" horiz-adv-x="1196" 
d="M1083 416h-170v446h-800v168h970v-614z" />
    <glyph glyph-name="registered" unicode="&#xae;" horiz-adv-x="1509" 
d="M756 1491c206 0 382.999 -73.833 530.999 -221.5s222 -325.167 222 -532.5s-73.667 -385 -221 -533s-324.666 -222 -531.999 -222c-208 0 -386 73.833 -534 221.5s-222 325.5 -222 533.5c0 207.333 74 384.833 222 532.5s326 221.5 534 221.5zM753.999 106
c172.667 0 320.832 61.833 444.499 185.5s185.5 272.167 185.5 445.5s-61.667 321.5 -185 444.5s-271.666 184.5 -444.999 184.5s-321.5 -61.5 -444.5 -184.5s-184.5 -271.167 -184.5 -444.5s61.5 -321.833 184.5 -445.5s271.167 -185.5 444.5 -185.5zM1106 319
l-160 -0.000976562c-100.667 183.333 -166.5 286.666 -197.5 309.999s-69.5 35 -115.5 35h-78v-345h-131v811h281c84 0 148.667 -6 194 -18s82 -37.5 110 -76.5s42 -80.5 42 -124.5c0 -55.333 -20 -105.666 -60 -150.999s-97.333 -70.666 -172 -75.999v-4
c48.667 -11.333 111.667 -79 189 -203zM554.997 775.999l160 -0.000976562c73.333 0 124.333 10.833 153 32.5s43 51.834 43 90.501c0 38 -13.833 67.667 -41.5 89s-82.5 32 -164.5 32h-150v-244z" />
    <glyph glyph-name="macron" unicode="&#xaf;" horiz-adv-x="1024" 
d="M1036 1624h-1048v102h1048v-102z" />
    <glyph glyph-name="degree" unicode="&#xb0;" horiz-adv-x="819" 
d="M410 1485c76 0 140.999 -27.167 194.999 -81.5s81 -119.5 81 -195.5c0 -76.667 -27.167 -142.167 -81.5 -196.5s-119.166 -81.5 -194.499 -81.5c-76 0 -141.167 27.167 -195.5 81.5s-81.5 119.833 -81.5 196.5s27 142 81 196s119.333 81 196 81zM409.999 1038
c46 0 85.5 16.667 118.5 50s49.5 73.333 49.5 120s-16.5 86.334 -49.5 119.001s-72.5 49 -118.5 49c-46.667 0 -86.334 -16.333 -119.001 -49s-49 -72.334 -49 -119.001s16.333 -86.667 49 -120s72.334 -50 119.001 -50z" />
    <glyph glyph-name="plusminus" unicode="&#xb1;" horiz-adv-x="1196" 
d="M1083 682h-401v-401h-168v401h-401v168h401v401h168v-401h401v-168zM1083 0h-970v168h970v-168z" />
    <glyph glyph-name="acute" unicode="&#xb4;" horiz-adv-x="682" 
d="M596 1491l-221 -281h-148l133 281h236z" />
    <glyph glyph-name="mu" unicode="&#xb5;" horiz-adv-x="1139" 
d="M999 0l-159 0.00292969v125h-4c-56 -100 -143.667 -150 -263 -150c-108 0 -191 43.667 -249 131h-5v-514h-182v1469h180v-449c0 -126 5.16699 -216.833 15.5 -272.5s36.333 -103.334 78 -143.001s93.167 -59.5 154.5 -59.5c27.333 0 56.166 5.16699 86.499 15.5
s59.333 28.666 87 54.999s46.834 56 57.501 89s17.167 71.167 19.5 114.5s3.5 109.666 3.5 198.999v451h180v-1061z" />
    <glyph glyph-name="paragraph" unicode="&#xb6;" horiz-adv-x="1100" 
d="M1104 1292l-143 -0.000976562v-1700h-168v1700h-224v-1700h-168v1045c-129.333 8.66699 -228.833 50.834 -298.5 126.501s-104.5 169.167 -104.5 280.5c0 122 38.167 222.833 114.5 302.5s195.833 119.5 358.5 119.5h633v-174z" />
    <glyph glyph-name="periodcentered" unicode="&#xb7;" horiz-adv-x="569" 
d="M387 618h-205v205h205v-205z" />
    <glyph glyph-name="guillemotright" unicode="&#xbb;" horiz-adv-x="1139" 
d="M997 528l-317 -456h-148l261 456l-261 457h148zM606 528l-317 -456h-148l260 456l-260 457h148z" />
    <glyph glyph-name="questiondown" unicode="&#xbf;" horiz-adv-x="1251" 
d="M1099 -5c-15.333 -135.333 -65 -239.834 -149 -313.501s-192.667 -110.5 -326 -110.5c-137.333 0 -250.166 37.833 -338.499 113.5s-132.5 170.834 -132.5 285.501c0 57.333 12.833 113 38.5 167s86.5 123.333 182.5 208c73.333 65.333 119.5 116.833 138.5 154.5
s29.5 105.167 31.5 202.5h172c0 -77.333 -2.83301 -133.833 -8.5 -169.5s-17.334 -70.5 -35.001 -104.5s-40.667 -66 -69 -96s-68.166 -67.333 -119.499 -112c-65.333 -58 -106.166 -103.5 -122.499 -136.5s-24.5 -66.5 -24.5 -100.5c0 -70 27.667 -131.5 83 -184.5
s122.666 -79.5 201.999 -79.5c161.333 0 258.666 98.667 291.999 296zM523 1062h205v-205h-205v205z" />
    <glyph glyph-name="Agrave" unicode="&#xc0;" horiz-adv-x="1366" 
d="M1368 0h-219l-172 446h-612l-162 -446h-205l563 1466h209zM918 600c-120 317.333 -187.667 497.5 -203 540.5s-32.333 100.5 -51 172.5h-5c-18.667 -98.667 -43.667 -190 -75 -274l-164 -439h498zM799 1562h-148l-221 281h236z" />
    <glyph glyph-name="Acircumflex" unicode="&#xc2;" horiz-adv-x="1366" 
d="M1368 0h-219l-172 446h-612l-162 -446h-205l563 1466h209zM918 600c-120 317.333 -187.667 497.5 -203 540.5s-32.333 100.5 -51 172.5h-5c-18.667 -98.667 -43.667 -190 -75 -274l-164 -439h498zM1001 1562h-204l-109 170l-115 -170h-204l217 281h190z" />
    <glyph glyph-name="Atilde" unicode="&#xc3;" horiz-adv-x="1366" 
d="M1368 0h-219l-172 446h-612l-162 -446h-205l563 1466h209zM918 600c-120 317.333 -187.667 497.5 -203 540.5s-32.333 100.5 -51 172.5h-5c-18.667 -98.667 -43.667 -190 -75 -274l-164 -439h498zM1016 1814c0 -74.667 -19.1641 -131.167 -57.4971 -169.5
s-84.833 -57.5 -139.5 -57.5c-30.667 0 -56.334 3.5 -77.001 10.5s-45.334 19.833 -74.001 38.5c-47.333 30 -85 45 -113 45c-55.333 0 -84 -31.333 -86 -94h-123c0 74 20 130.333 60 169s87.667 58 143 58c43.333 0 90.166 -15.667 140.499 -47s91.5 -47 123.5 -47
c46 0 72.667 31.333 80 94h123z" />
    <glyph glyph-name="Adieresis" unicode="&#xc4;" horiz-adv-x="1366" 
d="M1368 0h-219l-172 446h-612l-162 -446h-205l563 1466h209zM918 600c-120 317.333 -187.667 497.5 -203 540.5s-32.333 100.5 -51 172.5h-5c-18.667 -98.667 -43.667 -190 -75 -274l-164 -439h498zM958 1599h-184v205h184v-205zM588 1599h-185v205h185v-205z" />
    <glyph glyph-name="Aring" unicode="&#xc5;" horiz-adv-x="1366" 
d="M1368 0h-219l-172 446h-612l-162 -446h-205l563 1466h209zM918 600c-120 317.333 -187.667 497.5 -203 540.5s-32.333 100.5 -51 172.5h-5c-18.667 -98.667 -43.667 -190 -75 -274l-164 -439h498zM682 1884c50 0 92.5 -17.5 127.5 -52.5s52.5 -77.5 52.5 -127.5
s-17.5 -92.5 -52.5 -127.5s-77.5 -52.5 -127.5 -52.5s-92.5 17.5 -127.5 52.5s-52.5 77.5 -52.5 127.5s17.5 92.5 52.5 127.5s77.5 52.5 127.5 52.5zM682 1597c29.333 0 54.5 10.5 75.5 31.5s31.5 46.167 31.5 75.5s-10.333 54.5 -31 75.5s-46 31.5 -76 31.5
c-29.333 0 -54.5 -10.5 -75.5 -31.5s-31.5 -46.167 -31.5 -75.5s10.5 -54.5 31.5 -75.5s46.167 -31.5 75.5 -31.5z" />
    <glyph glyph-name="AE" unicode="&#xc6;" horiz-adv-x="2048" 
d="M1935 0h-958v424h-565l-201 -424h-211l707 1466h1202v-174h-738v-450h687v-172h-687v-498h764v-172zM977 596v696h-146l-337 -696h483z" />
    <glyph glyph-name="Ecircumflex" unicode="&#xca;" horiz-adv-x="1366" 
d="M1257 0h-1095v1466h1061v-174h-867v-448h811v-174h-811v-496h901v-174zM1017 1562h-204l-109 170l-115 -170h-204l217 281h190z" />
    <glyph glyph-name="Edieresis" unicode="&#xcb;" horiz-adv-x="1366" 
d="M1257 0h-1095v1466h1061v-174h-867v-448h811v-174h-811v-496h901v-174zM982 1599h-184v205h184v-205zM612 1599h-185v205h185v-205z" />
    <glyph glyph-name="Iacute" unicode="&#xcd;" horiz-adv-x="569" 
d="M383 0h-195v1466h195v-1466zM553 1843l-221 -281h-148l133 281h236z" />
    <glyph glyph-name="Icircumflex" unicode="&#xce;" horiz-adv-x="569" 
d="M383 0h-195v1466h195v-1466zM614 1562h-204l-109 170l-115 -170h-204l217 281h190z" />
    <glyph glyph-name="Ntilde" unicode="&#xd1;" horiz-adv-x="1479" 
d="M1315 0h-199l-766 1151h-4v-1151h-184v1466h198l766 -1151h4v1151h185v-1466zM1096 1810c0 -74.667 -19.1641 -131.167 -57.4971 -169.5s-84.833 -57.5 -139.5 -57.5c-30.667 0 -56.334 3.5 -77.001 10.5s-45.334 19.833 -74.001 38.5c-47.333 30 -85 45 -113 45
c-55.333 0 -84 -31.333 -86 -94h-123c0 74 20 130.333 60 169s87.667 58 143 58c43.333 0 90.166 -15.667 140.499 -47s91.5 -47 123.5 -47c46 0 72.667 31.333 80 94h123z" />
    <glyph glyph-name="Ograve" unicode="&#xd2;" horiz-adv-x="1593" 
d="M799 1491c205.333 0 373.333 -69.668 504 -209.001s196 -323 196 -551c0 -227.333 -65.667 -410.166 -197 -548.499s-299 -207.5 -503 -207.5c-211.333 0 -381.333 71.667 -510 215s-193 318.333 -193 525c0 240.667 65.167 430.167 195.5 568.5s299.5 207.5 507.5 207.5
zM797 140.999c148.667 0 269.168 51.999 361.501 155.999s138.833 248.667 139.5 434c0 190.667 -47.167 337.334 -141.5 440.001s-212.833 154 -355.5 154c-146.667 0 -267.334 -50.333 -362.001 -151s-142 -255 -142 -463c0 -170 46.333 -307.5 139 -412.5
s213 -157.5 361 -157.5zM931.001 1562h-148l-221 281h236z" />
    <glyph glyph-name="Oacute" unicode="&#xd3;" horiz-adv-x="1593" 
d="M799 1491c205.333 0 373.333 -69.668 504 -209.001s196 -323 196 -551c0 -227.333 -65.667 -410.166 -197 -548.499s-299 -207.5 -503 -207.5c-211.333 0 -381.333 71.667 -510 215s-193 318.333 -193 525c0 240.667 65.167 430.167 195.5 568.5s299.5 207.5 507.5 207.5
zM797 140.999c148.667 0 269.168 51.999 361.501 155.999s138.833 248.667 139.5 434c0 190.667 -47.167 337.334 -141.5 440.001s-212.833 154 -355.5 154c-146.667 0 -267.334 -50.333 -362.001 -151s-142 -255 -142 -463c0 -170 46.333 -307.5 139 -412.5
s213 -157.5 361 -157.5zM1052 1843l-221 -281h-148l133 281h236z" />
    <glyph glyph-name="Ocircumflex" unicode="&#xd4;" horiz-adv-x="1593" 
d="M799 1491c205.333 0 373.333 -69.668 504 -209.001s196 -323 196 -551c0 -227.333 -65.667 -410.166 -197 -548.499s-299 -207.5 -503 -207.5c-211.333 0 -381.333 71.667 -510 215s-193 318.333 -193 525c0 240.667 65.167 430.167 195.5 568.5s299.5 207.5 507.5 207.5
zM797 140.999c148.667 0 269.168 51.999 361.501 155.999s138.833 248.667 139.5 434c0 190.667 -47.167 337.334 -141.5 440.001s-212.833 154 -355.5 154c-146.667 0 -267.334 -50.333 -362.001 -151s-142 -255 -142 -463c0 -170 46.333 -307.5 139 -412.5
s213 -157.5 361 -157.5zM1113 1562h-204l-109 170l-115 -170h-204l217 281h190z" />
    <glyph glyph-name="Otilde" unicode="&#xd5;" horiz-adv-x="1593" 
d="M799 1491c205.333 0 373.333 -69.668 504 -209.001s196 -323 196 -551c0 -227.333 -65.667 -410.166 -197 -548.499s-299 -207.5 -503 -207.5c-211.333 0 -381.333 71.667 -510 215s-193 318.333 -193 525c0 240.667 65.167 430.167 195.5 568.5s299.5 207.5 507.5 207.5
zM797 140.999c148.667 0 269.168 51.999 361.501 155.999s138.833 248.667 139.5 434c0 190.667 -47.167 337.334 -141.5 440.001s-212.833 154 -355.5 154c-146.667 0 -267.334 -50.333 -362.001 -151s-142 -255 -142 -463c0 -170 46.333 -307.5 139 -412.5
s213 -157.5 361 -157.5zM1132 1810c0 -74.667 -19.1641 -131.167 -57.4971 -169.5s-84.833 -57.5 -139.5 -57.5c-30.667 0 -56.334 3.5 -77.001 10.5s-45.334 19.833 -74.001 38.5c-47.333 30 -85 45 -113 45c-55.333 0 -84 -31.333 -86 -94h-123c0 74 20 130.333 60 169
s87.667 58 143 58c43.333 0 90.166 -15.667 140.499 -47s91.5 -47 123.5 -47c46 0 72.667 31.333 80 94h123z" />
    <glyph glyph-name="Odieresis" unicode="&#xd6;" horiz-adv-x="1593" 
d="M799 1491c205.333 0 373.333 -69.668 504 -209.001s196 -323 196 -551c0 -227.333 -65.667 -410.166 -197 -548.499s-299 -207.5 -503 -207.5c-211.333 0 -381.333 71.667 -510 215s-193 318.333 -193 525c0 240.667 65.167 430.167 195.5 568.5s299.5 207.5 507.5 207.5
zM797 140.999c148.667 0 269.168 51.999 361.501 155.999s138.833 248.667 139.5 434c0 190.667 -47.167 337.334 -141.5 440.001s-212.833 154 -355.5 154c-146.667 0 -267.334 -50.333 -362.001 -151s-142 -255 -142 -463c0 -170 46.333 -307.5 139 -412.5
s213 -157.5 361 -157.5zM1074 1599h-184v205h184v-205zM704.001 1599h-185v205h185v-205z" />
    <glyph glyph-name="Oslash" unicode="&#xd8;" horiz-adv-x="1593" 
d="M1520 1436l-177 -197c60 -84.667 101 -166.5 123 -245.5s33 -165.833 33 -260.5c0 -229.333 -66.167 -413 -198.5 -551s-298.166 -207 -497.499 -207c-172 0 -322.333 51.333 -451 154l-168 -188l-100 84l176 196c-66.667 99.333 -110.667 186.5 -132 261.5
s-32 157.167 -32 246.5c0 228 64.667 412 194 552s299.666 210 510.999 210c170.667 0 320.667 -53.333 450 -160l168 189zM1130 1198c-61.333 51.333 -116.332 85.333 -164.999 102s-103.334 25 -164.001 25c-148 0 -269 -50.5 -363 -151.5s-141 -247.833 -141 -440.5
c0 -141.333 30 -265 90 -371zM471.001 262c93.333 -80.667 202 -120.999 326 -120.999c150 0 271 52.667 363 158s138 248 138 428c0 139.333 -28 261.666 -84 366.999z" />
    <glyph glyph-name="Ugrave" unicode="&#xd9;" horiz-adv-x="1479" 
d="M1315 618c0 -75.333 -4.16699 -145.001 -12.5 -209.001s-30.333 -129.833 -66 -197.5s-93.667 -124 -174 -169s-187.5 -67.5 -321.5 -67.5c-130.667 0 -236 20 -316 60s-138.667 91.667 -176 155s-61.166 129.333 -71.499 198s-15.5 145.334 -15.5 230.001v848h194v-845
c0 -88 6.33301 -163.833 19 -227.5s46 -120.167 100 -169.5s137.333 -74 250 -74c114 0 199.667 19.667 257 59s94.666 91.833 111.999 157.5s26 150.5 26 254.5v845h195v-848zM855 1562h-148l-221 281h236z" />
    <glyph glyph-name="Uacute" unicode="&#xda;" horiz-adv-x="1479" 
d="M1315 618c0 -75.333 -4.16699 -145.001 -12.5 -209.001s-30.333 -129.833 -66 -197.5s-93.667 -124 -174 -169s-187.5 -67.5 -321.5 -67.5c-130.667 0 -236 20 -316 60s-138.667 91.667 -176 155s-61.166 129.333 -71.499 198s-15.5 145.334 -15.5 230.001v848h194v-845
c0 -88 6.33301 -163.833 19 -227.5s46 -120.167 100 -169.5s137.333 -74 250 -74c114 0 199.667 19.667 257 59s94.666 91.833 111.999 157.5s26 150.5 26 254.5v845h195v-848zM996 1843l-221 -281h-148l133 281h236z" />
    <glyph glyph-name="Ucircumflex" unicode="&#xdb;" horiz-adv-x="1479" 
d="M1315 618c0 -75.333 -4.16699 -145.001 -12.5 -209.001s-30.333 -129.833 -66 -197.5s-93.667 -124 -174 -169s-187.5 -67.5 -321.5 -67.5c-130.667 0 -236 20 -316 60s-138.667 91.667 -176 155s-61.166 129.333 -71.499 198s-15.5 145.334 -15.5 230.001v848h194v-845
c0 -88 6.33301 -163.833 19 -227.5s46 -120.167 100 -169.5s137.333 -74 250 -74c114 0 199.667 19.667 257 59s94.666 91.833 111.999 157.5s26 150.5 26 254.5v845h195v-848zM1057 1562h-204l-109 170l-115 -170h-204l217 281h190z" />
    <glyph glyph-name="Udieresis" unicode="&#xdc;" horiz-adv-x="1479" 
d="M1315 618c0 -75.333 -4.16699 -145.001 -12.5 -209.001s-30.333 -129.833 -66 -197.5s-93.667 -124 -174 -169s-187.5 -67.5 -321.5 -67.5c-130.667 0 -236 20 -316 60s-138.667 91.667 -176 155s-61.166 129.333 -71.499 198s-15.5 145.334 -15.5 230.001v848h194v-845
c0 -88 6.33301 -163.833 19 -227.5s46 -120.167 100 -169.5s137.333 -74 250 -74c114 0 199.667 19.667 257 59s94.666 91.833 111.999 157.5s26 150.5 26 254.5v845h195v-848zM1018 1599h-184v205h184v-205zM648 1599h-185v205h185v-205z" />
    <glyph glyph-name="germandbls" unicode="&#xdf;" horiz-adv-x="1251" 
d="M147 0l0.000976562 999.002c0 118 14.667 211.667 44 281s79.666 121.833 150.999 157.5s148.333 53.5 231 53.5c111.333 0 201 -28 269 -84s102 -123.667 102 -203c0 -65.333 -17.667 -129.333 -53 -192c-10 -14.667 -28.833 -47.5 -56.5 -98.5
s-41.5 -89.833 -41.5 -116.5c0 -30.667 11.167 -56.834 33.5 -78.501s71.833 -57.834 148.5 -108.501c84 -55.333 139.5 -105.333 166.5 -150s40.5 -94.334 40.5 -149.001c0 -92 -34.5 -171 -103.5 -237s-156.167 -99 -261.5 -99c-162.667 0 -284 80 -364 240l155 74
c59.333 -110.667 127.666 -166 204.999 -166c50 0 93.167 17.333 129.5 52s54.5 75.334 54.5 122.001c0 37.333 -8.83301 67 -26.5 89s-51.167 50 -100.5 84c-98.667 67.333 -167 123 -205 167s-57 87.667 -57 131c0 30.667 5.5 59.5 16.5 86.5s30.167 65.167 57.5 114.5
c40.667 72 65.5 121.333 74.5 148s13.5 49.667 13.5 69c0 44.667 -19.167 82 -57.5 112s-86.166 45 -143.499 45c-76 0 -135.167 -24.5 -177.5 -73.5s-63.5 -141.833 -63.5 -278.5v-991h-181z" />
    <glyph glyph-name="agrave" unicode="&#xe0;" horiz-adv-x="1139" 
d="M1057 0l-189.004 -0.00195312c-17.333 33.333 -29.666 77 -36.999 131c-120.667 -104 -251 -156 -391 -156c-112 0 -200.333 28 -265 84s-97 130 -97 222c0 88 31.167 160.5 93.5 217.5s170.5 94.833 324.5 113.5l168 25c62.667 10 114.334 22.333 155.001 37
c0 54 -1.66699 92.167 -5 114.5s-13.166 45.5 -29.499 69.5s-42.5 43.333 -78.5 58s-84.333 22 -145 22c-77.333 0 -138.5 -14.333 -183.5 -43s-75.833 -82 -92.5 -160l-176 23c19.333 108.667 69 190.334 149 245.001s190 82 330 82c127.333 0 220.833 -18.833 280.5 -56.5
s96.334 -83.167 110.001 -136.5s20.5 -122 20.5 -206v-242c0 -147.333 2.83301 -246.166 8.5 -296.499s22.167 -99.5 49.5 -147.5zM818.996 466.998l-0.00195312 65c-94 -31.333 -209 -56.166 -345 -74.499s-204 -75.833 -204 -172.5c0 -48.667 18.333 -88.834 55 -120.501
s89.334 -47.5 158.001 -47.5c88.667 0 166.834 26.5 234.501 79.5s101.5 143.167 101.5 270.5zM682.994 1210h-148l-221 281h236z" />
    <glyph glyph-name="aacute" unicode="&#xe1;" horiz-adv-x="1139" 
d="M1057 0l-189.004 -0.00195312c-17.333 33.333 -29.666 77 -36.999 131c-120.667 -104 -251 -156 -391 -156c-112 0 -200.333 28 -265 84s-97 130 -97 222c0 88 31.167 160.5 93.5 217.5s170.5 94.833 324.5 113.5l168 25c62.667 10 114.334 22.333 155.001 37
c0 54 -1.66699 92.167 -5 114.5s-13.166 45.5 -29.499 69.5s-42.5 43.333 -78.5 58s-84.333 22 -145 22c-77.333 0 -138.5 -14.333 -183.5 -43s-75.833 -82 -92.5 -160l-176 23c19.333 108.667 69 190.334 149 245.001s190 82 330 82c127.333 0 220.833 -18.833 280.5 -56.5
s96.334 -83.167 110.001 -136.5s20.5 -122 20.5 -206v-242c0 -147.333 2.83301 -246.166 8.5 -296.499s22.167 -99.5 49.5 -147.5zM818.996 466.998l-0.00195312 65c-94 -31.333 -209 -56.166 -345 -74.499s-204 -75.833 -204 -172.5c0 -48.667 18.333 -88.834 55 -120.501
s89.334 -47.5 158.001 -47.5c88.667 0 166.834 26.5 234.501 79.5s101.5 143.167 101.5 270.5zM827.994 1491l-221 -281h-148l133 281h236z" />
    <glyph glyph-name="acircumflex" unicode="&#xe2;" horiz-adv-x="1139" 
d="M1057 0l-189.004 -0.00195312c-17.333 33.333 -29.666 77 -36.999 131c-120.667 -104 -251 -156 -391 -156c-112 0 -200.333 28 -265 84s-97 130 -97 222c0 88 31.167 160.5 93.5 217.5s170.5 94.833 324.5 113.5l168 25c62.667 10 114.334 22.333 155.001 37
c0 54 -1.66699 92.167 -5 114.5s-13.166 45.5 -29.499 69.5s-42.5 43.333 -78.5 58s-84.333 22 -145 22c-77.333 0 -138.5 -14.333 -183.5 -43s-75.833 -82 -92.5 -160l-176 23c19.333 108.667 69 190.334 149 245.001s190 82 330 82c127.333 0 220.833 -18.833 280.5 -56.5
s96.334 -83.167 110.001 -136.5s20.5 -122 20.5 -206v-242c0 -147.333 2.83301 -246.166 8.5 -296.499s22.167 -99.5 49.5 -147.5zM818.996 466.998l-0.00195312 65c-94 -31.333 -209 -56.166 -345 -74.499s-204 -75.833 -204 -172.5c0 -48.667 18.333 -88.834 55 -120.501
s89.334 -47.5 158.001 -47.5c88.667 0 166.834 26.5 234.501 79.5s101.5 143.167 101.5 270.5zM884.994 1210h-204l-109 170l-115 -170h-204l217 281h190z" />
    <glyph glyph-name="atilde" unicode="&#xe3;" horiz-adv-x="1139" 
d="M1057 0l-189.004 -0.00195312c-17.333 33.333 -29.666 77 -36.999 131c-120.667 -104 -251 -156 -391 -156c-112 0 -200.333 28 -265 84s-97 130 -97 222c0 88 31.167 160.5 93.5 217.5s170.5 94.833 324.5 113.5l168 25c62.667 10 114.334 22.333 155.001 37
c0 54 -1.66699 92.167 -5 114.5s-13.166 45.5 -29.499 69.5s-42.5 43.333 -78.5 58s-84.333 22 -145 22c-77.333 0 -138.5 -14.333 -183.5 -43s-75.833 -82 -92.5 -160l-176 23c19.333 108.667 69 190.334 149 245.001s190 82 330 82c127.333 0 220.833 -18.833 280.5 -56.5
s96.334 -83.167 110.001 -136.5s20.5 -122 20.5 -206v-242c0 -147.333 2.83301 -246.166 8.5 -296.499s22.167 -99.5 49.5 -147.5zM818.996 466.998l-0.00195312 65c-94 -31.333 -209 -56.166 -345 -74.499s-204 -75.833 -204 -172.5c0 -48.667 18.333 -88.834 55 -120.501
s89.334 -47.5 158.001 -47.5c88.667 0 166.834 26.5 234.501 79.5s101.5 143.167 101.5 270.5zM903.994 1466c0 -74.667 -19.1641 -131.167 -57.4971 -169.5s-84.833 -57.5 -139.5 -57.5c-30.667 0 -56.334 3.5 -77.001 10.5s-45.334 19.833 -74.001 38.5
c-47.333 30 -85 45 -113 45c-55.333 0 -84 -31.333 -86 -94h-123c0 74 20 130.333 60 169s87.667 58 143 58c43.333 0 90.166 -15.667 140.499 -47s91.5 -47 123.5 -47c46 0 72.667 31.333 80 94h123z" />
    <glyph glyph-name="adieresis" unicode="&#xe4;" horiz-adv-x="1139" 
d="M1057 0l-189.004 -0.00195312c-17.333 33.333 -29.666 77 -36.999 131c-120.667 -104 -251 -156 -391 -156c-112 0 -200.333 28 -265 84s-97 130 -97 222c0 88 31.167 160.5 93.5 217.5s170.5 94.833 324.5 113.5l168 25c62.667 10 114.334 22.333 155.001 37
c0 54 -1.66699 92.167 -5 114.5s-13.166 45.5 -29.499 69.5s-42.5 43.333 -78.5 58s-84.333 22 -145 22c-77.333 0 -138.5 -14.333 -183.5 -43s-75.833 -82 -92.5 -160l-176 23c19.333 108.667 69 190.334 149 245.001s190 82 330 82c127.333 0 220.833 -18.833 280.5 -56.5
s96.334 -83.167 110.001 -136.5s20.5 -122 20.5 -206v-242c0 -147.333 2.83301 -246.166 8.5 -296.499s22.167 -99.5 49.5 -147.5zM818.996 466.998l-0.00195312 65c-94 -31.333 -209 -56.166 -345 -74.499s-204 -75.833 -204 -172.5c0 -48.667 18.333 -88.834 55 -120.501
s89.334 -47.5 158.001 -47.5c88.667 0 166.834 26.5 234.501 79.5s101.5 143.167 101.5 270.5zM845.994 1251h-184v205h184v-205zM475.994 1251h-185v205h185v-205z" />
    <glyph glyph-name="aring" unicode="&#xe5;" horiz-adv-x="1139" 
d="M1057 0l-189.004 -0.00195312c-17.333 33.333 -29.666 77 -36.999 131c-120.667 -104 -251 -156 -391 -156c-112 0 -200.333 28 -265 84s-97 130 -97 222c0 88 31.167 160.5 93.5 217.5s170.5 94.833 324.5 113.5l168 25c62.667 10 114.334 22.333 155.001 37
c0 54 -1.66699 92.167 -5 114.5s-13.166 45.5 -29.499 69.5s-42.5 43.333 -78.5 58s-84.333 22 -145 22c-77.333 0 -138.5 -14.333 -183.5 -43s-75.833 -82 -92.5 -160l-176 23c19.333 108.667 69 190.334 149 245.001s190 82 330 82c127.333 0 220.833 -18.833 280.5 -56.5
s96.334 -83.167 110.001 -136.5s20.5 -122 20.5 -206v-242c0 -147.333 2.83301 -246.166 8.5 -296.499s22.167 -99.5 49.5 -147.5zM818.996 466.998l-0.00195312 65c-94 -31.333 -209 -56.166 -345 -74.499s-204 -75.833 -204 -172.5c0 -48.667 18.333 -88.834 55 -120.501
s89.334 -47.5 158.001 -47.5c88.667 0 166.834 26.5 234.501 79.5s101.5 143.167 101.5 270.5zM569.994 1540c50 0 92.5 -17.5 127.5 -52.5s52.5 -77.5 52.5 -127.5s-17.5 -92.5 -52.5 -127.5s-77.5 -52.5 -127.5 -52.5s-92.5 17.5 -127.5 52.5s-52.5 77.5 -52.5 127.5
s17.5 92.5 52.5 127.5s77.5 52.5 127.5 52.5zM569.994 1253c29.333 0 54.5 10.5 75.5 31.5s31.5 46.167 31.5 75.5s-10.333 54.5 -31 75.5s-46 31.5 -76 31.5c-29.333 0 -54.5 -10.5 -75.5 -31.5s-31.5 -46.167 -31.5 -75.5s10.5 -54.5 31.5 -75.5s46.167 -31.5 75.5 -31.5z
" />
    <glyph glyph-name="ae" unicode="&#xe6;" horiz-adv-x="1821" 
d="M1739 485h-765.998c1.33301 -84 10 -148.167 26 -192.5s50 -83.333 102 -117s110.333 -50.5 175 -50.5c71.333 0 129.833 18.667 175.5 56s78.5 93.666 98.5 168.999l187 -24c-35.333 -117.333 -91.833 -205.166 -169.5 -263.499s-176.834 -87.5 -297.501 -87.5
c-81.333 0 -155 16.5 -221 49.5s-124.333 82.833 -175 149.5c-65.333 -66.667 -134.666 -116.5 -207.999 -149.5s-150.666 -49.5 -231.999 -49.5c-120.667 0 -211.5 31 -272.5 93s-91.5 133 -91.5 213c0 28 5.83301 60.333 17.5 97s36.167 74 73.5 112
s84.666 65.667 141.999 83s136.666 33.333 237.999 48c114.667 15.333 198 31.666 250 48.999c0 64.667 -1.66699 108.167 -5 130.5s-12.666 44.833 -27.999 67.5s-39.166 40 -71.499 52s-74.833 18 -127.5 18c-82.667 0 -146.834 -14 -192.501 -42
s-75.834 -82.333 -90.501 -163l-176 21c22.667 110 72.334 192.667 149.001 248s180.667 83 312 83c96.667 0 175.667 -12 237 -36s104.666 -59.667 129.999 -107c86 95.333 200 143 342 143c85.333 0 159.166 -16.667 221.499 -50s112.5 -79.166 150.5 -137.499
s63.667 -118.833 77 -181.5s20 -139.667 20 -231zM1556 633c-9.33301 101.333 -38 177.5 -86 228.5s-115.333 76.5 -202 76.5c-86 0 -154.833 -27.167 -206.5 -81.5s-81.167 -128.833 -88.5 -223.5h583zM795.002 532c-76 -30 -184.003 -53.999 -324.003 -71.999
c-70 -8.66699 -122.333 -27.5 -157 -56.5s-52 -67.833 -52 -116.5c0 -46.667 17.333 -86.334 52 -119.001s86.334 -49 155.001 -49c54.667 0 106.334 10.667 155.001 32s86.334 50 113.001 86s43 72.833 49 110.5s9 99.167 9 184.5z" />
    <glyph glyph-name="ccedilla" unicode="&#xe7;" horiz-adv-x="1024" 
d="M571 -213c0 44 -48.998 65.998 -146.998 65.998l33 131c-120 22.667 -212.833 81.5 -278.5 176.5s-98.5 214.833 -98.5 359.5c0 188 44.5 329.167 133.5 423.5s206.167 141.5 351.5 141.5c103.333 0 194.333 -26.5 273 -79.5s129 -138.167 151 -255.5l-176 -29
c-16.667 72 -45.334 126.167 -86.001 162.5s-93.334 54.5 -158.001 54.5c-100 0 -175.833 -36 -227.5 -108s-77.5 -172 -77.5 -300c0 -130.667 25.5 -231.167 76.5 -301.5s124.5 -105.5 220.5 -105.5c75.333 0 135.333 22 180 66s74 110 88 198l177 -22
c-20.667 -120 -66 -212.5 -136 -277.5s-164.667 -102.5 -284 -112.5l-13 -49c56.667 -5.33301 98.167 -22.166 124.5 -50.499s39.5 -61.166 39.5 -98.499c0 -58.667 -26 -103 -78 -133s-123 -45 -213 -45c-29.333 0 -64 2.66699 -104 8l4 119c32 -6 61.333 -9 88 -9
c91.333 0 137 23.333 137 70z" />
    <glyph glyph-name="egrave" unicode="&#xe8;" horiz-adv-x="1139" 
d="M1059 485l-795.002 0.00195312c7.33301 -117.333 40.833 -207 100.5 -269s134.167 -93 223.5 -93c68.667 0 126.334 18.167 173.001 54.5s82.334 91.166 107.001 164.499l185 -23c-30 -110.667 -85 -195.667 -165 -255s-180 -89 -300 -89
c-159.333 0 -283.833 48.833 -373.5 146.5s-134.5 231.167 -134.5 400.5c0 167.333 43.5 303 130.5 407s209.5 156 367.5 156c77.333 0 151.833 -17 223.5 -51s132.5 -91.833 182.5 -173.5s75 -206.834 75 -375.501zM873.998 633.002
c-7.33301 108 -40.8301 185.833 -100.497 233.5s-124.834 71.5 -195.501 71.5c-84.667 0 -154.334 -28.333 -209.001 -85s-86.334 -130 -95.001 -220h600zM683.001 1210h-148l-221 281h236z" />
    <glyph glyph-name="eacute" unicode="&#xe9;" horiz-adv-x="1139" 
d="M1059 485l-795.002 0.00195312c7.33301 -117.333 40.833 -207 100.5 -269s134.167 -93 223.5 -93c68.667 0 126.334 18.167 173.001 54.5s82.334 91.166 107.001 164.499l185 -23c-30 -110.667 -85 -195.667 -165 -255s-180 -89 -300 -89
c-159.333 0 -283.833 48.833 -373.5 146.5s-134.5 231.167 -134.5 400.5c0 167.333 43.5 303 130.5 407s209.5 156 367.5 156c77.333 0 151.833 -17 223.5 -51s132.5 -91.833 182.5 -173.5s75 -206.834 75 -375.501zM873.998 633.002
c-7.33301 108 -40.8301 185.833 -100.497 233.5s-124.834 71.5 -195.501 71.5c-84.667 0 -154.334 -28.333 -209.001 -85s-86.334 -130 -95.001 -220h600zM828.001 1491l-221 -281h-148l133 281h236z" />
    <glyph glyph-name="ecircumflex" unicode="&#xea;" horiz-adv-x="1139" 
d="M1059 485l-795.002 0.00195312c7.33301 -117.333 40.833 -207 100.5 -269s134.167 -93 223.5 -93c68.667 0 126.334 18.167 173.001 54.5s82.334 91.166 107.001 164.499l185 -23c-30 -110.667 -85 -195.667 -165 -255s-180 -89 -300 -89
c-159.333 0 -283.833 48.833 -373.5 146.5s-134.5 231.167 -134.5 400.5c0 167.333 43.5 303 130.5 407s209.5 156 367.5 156c77.333 0 151.833 -17 223.5 -51s132.5 -91.833 182.5 -173.5s75 -206.834 75 -375.501zM873.998 633.002
c-7.33301 108 -40.8301 185.833 -100.497 233.5s-124.834 71.5 -195.501 71.5c-84.667 0 -154.334 -28.333 -209.001 -85s-86.334 -130 -95.001 -220h600zM889.001 1210h-204l-109 170l-115 -170h-204l217 281h190z" />
    <glyph glyph-name="edieresis" unicode="&#xeb;" horiz-adv-x="1139" 
d="M1059 485l-795.002 0.00195312c7.33301 -117.333 40.833 -207 100.5 -269s134.167 -93 223.5 -93c68.667 0 126.334 18.167 173.001 54.5s82.334 91.166 107.001 164.499l185 -23c-30 -110.667 -85 -195.667 -165 -255s-180 -89 -300 -89
c-159.333 0 -283.833 48.833 -373.5 146.5s-134.5 231.167 -134.5 400.5c0 167.333 43.5 303 130.5 407s209.5 156 367.5 156c77.333 0 151.833 -17 223.5 -51s132.5 -91.833 182.5 -173.5s75 -206.834 75 -375.501zM873.998 633.002
c-7.33301 108 -40.8301 185.833 -100.497 233.5s-124.834 71.5 -195.501 71.5c-84.667 0 -154.334 -28.333 -209.001 -85s-86.334 -130 -95.001 -220h600zM850.001 1251h-184v205h184v-205zM480.001 1251h-185v205h185v-205z" />
    <glyph glyph-name="igrave" unicode="&#xec;" horiz-adv-x="569" 
d="M374 0h-180v1061h180v-1061zM408 1210h-148l-221 281h236z" />
    <glyph glyph-name="iacute" unicode="&#xed;" horiz-adv-x="569" 
d="M374 0h-180v1061h180v-1061zM553 1491l-221 -281h-148l133 281h236z" />
    <glyph glyph-name="icircumflex" unicode="&#xee;" horiz-adv-x="569" 
d="M374 0h-180v1061h180v-1061zM614 1210h-204l-109 170l-115 -170h-204l217 281h190z" />
    <glyph glyph-name="idieresis" unicode="&#xef;" horiz-adv-x="569" 
d="M374 0h-180v1061h180v-1061zM579 1251h-184v205h184v-205zM209 1251h-185v205h185v-205z" />
    <glyph glyph-name="divide" unicode="&#xf7;" horiz-adv-x="1196" 
d="M700 942h-204v205h204v-205zM1083 639h-970v168h970v-168zM700 299h-204v205h204v-205z" />
    <glyph glyph-name="ugrave" unicode="&#xf9;" horiz-adv-x="1139" 
d="M997 0l-161 0.000976562v156h-5c-81.333 -120.667 -192.333 -181 -333 -181c-74 0 -142.5 17.167 -205.5 51.5s-105 81.666 -126 141.999s-31.5 138.5 -31.5 234.5v658h180v-588c0 -94 4.5 -161.333 13.5 -202s32.5 -74.167 70.5 -100.5s83.333 -39.5 136 -39.5
c68 0 132 23.5 192 70.5s90 144.5 90 292.5v567h180v-1061zM683 1210h-148l-221 281h236z" />
    <glyph glyph-name="uacute" unicode="&#xfa;" horiz-adv-x="1139" 
d="M997 0l-161 0.000976562v156h-5c-81.333 -120.667 -192.333 -181 -333 -181c-74 0 -142.5 17.167 -205.5 51.5s-105 81.666 -126 141.999s-31.5 138.5 -31.5 234.5v658h180v-588c0 -94 4.5 -161.333 13.5 -202s32.5 -74.167 70.5 -100.5s83.333 -39.5 136 -39.5
c68 0 132 23.5 192 70.5s90 144.5 90 292.5v567h180v-1061zM828 1491l-221 -281h-148l133 281h236z" />
    <glyph glyph-name="ucircumflex" unicode="&#xfb;" horiz-adv-x="1139" 
d="M997 0l-161 0.000976562v156h-5c-81.333 -120.667 -192.333 -181 -333 -181c-74 0 -142.5 17.167 -205.5 51.5s-105 81.666 -126 141.999s-31.5 138.5 -31.5 234.5v658h180v-588c0 -94 4.5 -161.333 13.5 -202s32.5 -74.167 70.5 -100.5s83.333 -39.5 136 -39.5
c68 0 132 23.5 192 70.5s90 144.5 90 292.5v567h180v-1061zM889 1210h-204l-109 170l-115 -170h-204l217 281h190z" />
    <glyph glyph-name="udieresis" unicode="&#xfc;" horiz-adv-x="1139" 
d="M997 0l-161 0.000976562v156h-5c-81.333 -120.667 -192.333 -181 -333 -181c-74 0 -142.5 17.167 -205.5 51.5s-105 81.666 -126 141.999s-31.5 138.5 -31.5 234.5v658h180v-588c0 -94 4.5 -161.333 13.5 -202s32.5 -74.167 70.5 -100.5s83.333 -39.5 136 -39.5
c68 0 132 23.5 192 70.5s90 144.5 90 292.5v567h180v-1061zM846 1251h-184v205h184v-205zM476 1251h-185v205h185v-205z" />
    <glyph glyph-name="ydieresis" unicode="&#xff;" horiz-adv-x="1024" 
d="M1008 1061l-406 -1079c-0.666992 -1.33301 -1.33398 -3.66602 -2.00098 -6.99902c-38.667 -120 -83.834 -217.5 -135.501 -292.5s-125.167 -112.5 -220.5 -112.5c-32 0 -71 6.66699 -117 20l-18 170c34.667 -10.667 68.667 -16 102 -16
c66.667 0 112.834 18.333 138.501 55s54.5 103 86.5 199l-403 1063h194l250 -695c14.667 -42.667 30.334 -97.667 47.001 -165h4c16.667 77.333 38 151 64 221l233 639h183zM790 1251h-184v205h184v-205zM420 1251h-185v205h185v-205z" />
    <glyph glyph-name="dotlessi" unicode="&#x131;" horiz-adv-x="569" 
d="M374 0h-180v1061h180v-1061z" />
    <glyph glyph-name="OE" unicode="&#x152;" horiz-adv-x="2048" 
d="M1982 0l-860.001 0.000976562v211h-4c-88 -157.333 -220.333 -236 -397 -236c-191.333 0 -337.833 70 -439.5 210s-152.5 323.333 -152.5 550c0 233.333 51.167 417.666 153.5 552.999s248.5 203 438.5 203c178.667 0 310.334 -74.333 395.001 -223h4v198h832v-174h-649
v-446h598v-174h-598v-498h679v-174zM718.999 131.001c108 0 200.167 47.5 276.5 142.5s114.5 252.167 114.5 471.5c0 193.333 -36.167 340 -108.5 440s-166.5 150 -282.5 150c-108 0 -199.833 -48 -275.5 -144s-113.5 -252.667 -113.5 -470c0 -188 35.5 -333.333 106.5 -436
s165.167 -154 282.5 -154z" />
    <glyph glyph-name="oe" unicode="&#x153;" horiz-adv-x="1933" 
d="M1851 483l-782.001 -0.000976562c2 -109.333 32.333 -196.333 91 -261s133.334 -97 224.001 -97c139.333 0 231 73.667 275 221l180 -27c-30.667 -114.667 -85.5 -200.667 -164.5 -258s-176.5 -86 -292.5 -86c-182 0 -318.333 67 -409 201
c-102.667 -134 -234.334 -201 -395.001 -201c-150 0 -270.833 48 -362.5 144s-137.5 229 -137.5 399c0 180.667 44.833 320.334 134.5 419.001s212.167 148 367.5 148c88.667 0 167.334 -18 236.001 -54s121 -85.333 157 -148c94.667 134.667 224.334 202 389.001 202
c137.333 0 253.166 -46.833 347.499 -140.5s141.5 -247.5 141.5 -461.5zM1663 630.999c-10 105.333 -41.6689 182.833 -95.002 232.5s-118 74.5 -194 74.5c-77.333 0 -144.166 -26 -200.499 -78s-89.166 -128.333 -98.499 -229h588zM572.997 124.999
c90 0 164.833 36.333 224.5 109s89.5 173 89.5 301c0 129.333 -30 228.833 -90 298.5s-134.667 104.5 -224 104.5c-94.667 0 -170.167 -37.833 -226.5 -113.5s-84.5 -173.167 -84.5 -292.5c0 -136 29.333 -237.833 88 -305.5s133 -101.5 223 -101.5z" />
    <glyph glyph-name="Ydieresis" unicode="&#x178;" horiz-adv-x="1366" 
d="M962 1595h-184v205h184v-205zM592 1595h-185v205h185v-205zM1354 1466l-584.001 -845v-621h-195v621l-565 845h236l322 -493c32.667 -50 71.334 -115.667 116.001 -197c28 54.667 176 284.667 444 690h226z" />
    <glyph glyph-name="florin" unicode="&#x192;" horiz-adv-x="569" 
d="M637 1473l-27 -157.999c-36 6.66699 -71.333 10 -106 10c-43.333 0 -78.833 -9.16699 -106.5 -27.5s-41.5 -63.833 -41.5 -136.5v-100h205v-139h-205v-934c0 -68.667 -5.5 -124 -16.5 -166s-34.5 -75.333 -70.5 -100s-90.333 -37 -163 -37
c-36.667 0 -81.667 5.33301 -135 16l25 160c27.333 -5.33301 54 -8 80 -8c42 0 69.167 9 81.5 27s18.5 50.333 18.5 97v945h-160v139h160v115c0 53.333 5 101.666 15 144.999s36.5 82.5 79.5 117.5s109.167 52.5 198.5 52.5c53.333 0 109.333 -6 168 -18z" />
    <glyph glyph-name="circumflex" unicode="&#x2c6;" horiz-adv-x="682" 
d="M657 1210h-204l-109 170l-115 -170h-204l217 281h190z" />
    <glyph glyph-name="caron" unicode="&#x2c7;" horiz-adv-x="2048" 
d="M256 0v1536h1536v-1536h-1536zM384 128h1280v1280h-1280v-1280z" />
    <glyph glyph-name="breve" unicode="&#x2d8;" horiz-adv-x="682" 
d="M637 1479c-3.33301 -74 -32.002 -135.833 -86.002 -185.5s-124.333 -74.5 -211 -74.5c-86 0 -155.833 24.833 -209.5 74.5s-82.167 111.5 -85.5 185.5h123c8.66699 -45.333 27.334 -79.333 56.001 -102s67.334 -34 116.001 -34s87.5 11.333 116.5 34
s48.167 56.667 57.5 102h123z" />
    <glyph glyph-name="dotaccent" unicode="&#x2d9;" horiz-adv-x="682" 
d="M432 1251h-184v205h184v-205z" />
    <glyph glyph-name="ring" unicode="&#x2da;" horiz-adv-x="682" 
d="M342 1540c50 0 92.5 -17.5 127.5 -52.5s52.5 -77.5 52.5 -127.5s-17.5 -92.5 -52.5 -127.5s-77.5 -52.5 -127.5 -52.5s-92.5 17.5 -127.5 52.5s-52.5 77.5 -52.5 127.5s17.5 92.5 52.5 127.5s77.5 52.5 127.5 52.5zM342 1253c29.333 0 54.5 10.5 75.5 31.5
s31.5 46.167 31.5 75.5s-10.333 54.5 -31 75.5s-46 31.5 -76 31.5c-29.333 0 -54.5 -10.5 -75.5 -31.5s-31.5 -46.167 -31.5 -75.5s10.5 -54.5 31.5 -75.5s46.167 -31.5 75.5 -31.5z" />
    <glyph glyph-name="ogonek" unicode="&#x2db;" horiz-adv-x="682" 
d="M621 -365c-80 -40.667 -153.333 -61.001 -220 -61.001c-64 0 -116.5 20 -157.5 60s-61.5 93.667 -61.5 161c0 56.667 13.667 133.334 41 230.001h125c-26 -60.667 -39 -116 -39 -166c0 -44 13.5 -80.333 40.5 -109s61.5 -43 103.5 -43c51.333 0 107.333 15.667 168 47
v-119z" />
    <glyph glyph-name="tilde" unicode="&#x2dc;" horiz-adv-x="682" 
d="M676 1466c0 -74.667 -19.1641 -131.167 -57.4971 -169.5s-84.833 -57.5 -139.5 -57.5c-30.667 0 -56.334 3.5 -77.001 10.5s-45.334 19.833 -74.001 38.5c-47.333 30 -85 45 -113 45c-55.333 0 -84 -31.333 -86 -94h-123c0 74 20 130.333 60 169s87.667 58 143 58
c43.333 0 90.166 -15.667 140.499 -47s91.5 -47 123.5 -47c46 0 72.667 31.333 80 94h123z" />
    <glyph glyph-name="hungarumlaut" unicode="&#x2dd;" horiz-adv-x="682" 
d="M764 1491l-221 -281h-148l133 281h236zM426 1491l-221 -281h-148l133 281h236z" />
    <glyph glyph-name="pi" unicode="&#x3c0;" horiz-adv-x="1389" 
d="M1356 913h-261v-913h-181v913h-440v-913h-180v913h-261v148h1323v-148z" />
    <glyph glyph-name="uni1000" unicode="&#x1000;" horiz-adv-x="2338" 
d="M1169 885c26 40 56.5068 76.1699 91.5068 108.503s73.333 60.166 115 83.499s86.167 41.333 133.5 54s96.666 19 147.999 19c53.333 0 104.833 -7 154.5 -21s96 -33.5 139 -58.5s82.167 -55.333 117.5 -91s65.666 -75 90.999 -118s44.833 -89.333 58.5 -139
s20.5 -101.167 20.5 -154.5c0 -80 -15.167 -155.333 -45.5 -226s-71.833 -132.334 -124.5 -185.001s-114.334 -94.167 -185.001 -124.5s-146 -45.5 -226 -45.5c-28 0 -51.833 4.66699 -71.5 14s-35 21 -46 35s-17.167 29 -18.5 45s2.66699 31 12 45s24.166 25.667 44.499 35
s46.833 14 79.5 14c54 0 105 10.333 153 31s89.667 48.667 125 84s63.333 77 84 125s31 99 31 153s-10.333 105 -31 153s-48.667 89.667 -84 125s-77 63.333 -125 84s-99 31 -153 31c-53.333 0 -103.5 -9.83301 -150.5 -29.5s-88.167 -46.667 -123.5 -81
s-63.5 -74.666 -84.5 -120.999s-32.5 -95.833 -34.5 -148.5c0 -3.33301 -0.166992 -6.16602 -0.5 -8.49902s-0.5 -4.83301 -0.5 -7.5c0 -64.667 -6.83301 -124.5 -20.5 -179.5s-33 -105.5 -58 -151.5s-55.333 -87.5 -91 -124.5s-75.5 -69.833 -119.5 -98.5
c-18 -11.333 -35.333 -17 -52 -17s-31.667 4 -45 12s-24.5 18.833 -33.5 32.5s-14.333 28.334 -16 44.001s1 31.167 8 46.5s19.167 28.666 36.5 39.999c30.667 20 58.5 42.833 83.5 68.5s46.167 54.834 63.5 87.501s30.833 69 40.5 109s14.5 84.667 14.5 134
c0 54 -10.333 105 -31 153s-48.667 89.667 -84 125s-77 63.333 -125 84s-99 31 -153 31s-105 -10.333 -153 -31s-89.667 -48.667 -125 -84s-63.333 -77 -84 -125s-31 -99 -31 -153c0 -51.333 5.16699 -97.833 15.5 -139.5s24.5 -79 42.5 -112s39.167 -61.667 63.5 -86
s50.833 -44.5 79.5 -60.5c18 -10.667 31 -23.334 39 -38.001s11.5 -29.834 10.5 -45.501s-5.33301 -30.667 -13 -45s-18 -25.833 -31 -34.5s-28 -13.667 -45 -15s-34.5 3 -52.5 13c-45.333 26 -86.333 57.667 -123 95s-67.834 79.666 -93.501 126.999
s-45.5 99.666 -59.5 156.999s-21 118.666 -21 183.999c0 53.333 6.83301 104.833 20.5 154.5s33.167 96 58.5 139s55.666 82.333 90.999 118s74.5 66 117.5 91s89.333 44.5 139 58.5s101.167 21 154.5 21c51.333 0 100.666 -6.33301 147.999 -19s91.833 -30.667 133.5 -54
s80 -51.166 115 -83.499s65.5 -68.5 91.5 -108.5z" />
    <glyph glyph-name="uni1001" unicode="&#x1001;" horiz-adv-x="1305" 
d="M710 185c-9.33301 46 -28.833 86.168 -58.5 120.501s-64.667 60.166 -105 77.499s-83.333 25 -129 23s-89.167 -15.667 -130.5 -41c17.333 -28 37.833 -53.667 61.5 -77s50 -43.333 79 -60s60 -29.5 93 -38.5s67.167 -13.5 102.5 -13.5c30 0 59 3 87 9zM111 320.001
c-6.66699 13.333 -10.1709 26.002 -10.5039 38.002s1.33398 23.333 5.00098 34s9.33398 20.167 17.001 28.5s16.167 15.166 25.5 20.499c41.333 38.667 85.5 67.667 132.5 87s94.333 30 142 32s94.167 -3.83301 139.5 -17.5s87.166 -34.167 125.499 -61.5
s71.833 -60.5 100.5 -99.5s50 -82.833 64 -131.5c50 36 89.833 81.5 119.5 136.5s44.5 115.833 44.5 182.5c0 54 -10.333 105 -31 153s-48.667 89.667 -84 125s-77 63.333 -125 84s-99 31 -153 31c-33.333 0 -66.5 -3.83301 -99.5 -11.5s-64.667 -18.834 -95 -33.501
s-58.333 -32.167 -84 -52.5s-47.5 -42.833 -65.5 -67.5c-12 -17.333 -25.833 -29 -41.5 -35s-31.167 -7.83301 -46.5 -5.5s-29.666 8.33301 -42.999 18s-23.666 21.334 -30.999 35.001s-10.833 28.834 -10.5 45.501s6.5 33.667 18.5 51
c26.667 36.667 58.334 70.167 95.001 100.5s76.834 56 120.501 77s89.5 37.333 137.5 49s96.333 17.5 145 17.5c53.333 0 104.833 -6.83301 154.5 -20.5s96 -33.167 139 -58.5s82.333 -55.666 118 -90.999s66 -74.5 91 -117.5s44.5 -89.333 58.5 -139s21 -101.167 21 -154.5
c0 -80 -15.333 -155.333 -46 -226s-72.334 -132.334 -125.001 -185.001s-114.334 -94.334 -185.001 -125.001s-146 -46 -226 -46c-58 0 -113 8.16699 -165 24.5s-99.833 39.166 -143.5 68.499s-82.667 64.333 -117 105s-63.166 85.667 -86.499 135z" />
    <glyph glyph-name="uni1002" unicode="&#x1002;" horiz-adv-x="1363" 
d="M397 6c-45.333 25.333 -86.332 56.665 -122.999 93.998s-67.834 79.666 -93.501 126.999s-45.5 99.666 -59.5 156.999s-21 119 -21 185c0 80 15.167 155.333 45.5 226s71.833 132.334 124.5 185.001s114.334 94.167 185.001 124.5s146 45.5 226 45.5
c53.333 0 104.833 -6.83301 154.5 -20.5s96 -33.167 139 -58.5s82.333 -55.666 118 -90.999s66 -74.5 91 -117.5s44.5 -89.333 58.5 -139s21 -101.167 21 -154.5c0 -65.333 -6.66699 -125.666 -20 -180.999s-32.5 -106.166 -57.5 -152.499s-55.333 -88.166 -91 -125.499
s-75.834 -70.333 -120.501 -99c-18 -11.333 -35.333 -16.833 -52 -16.5s-31.667 4.5 -45 12.5s-24.5 18.667 -33.5 32s-14.333 27.833 -16 43.5s1 31.167 8 46.5s19.167 28.666 36.5 39.999c30.667 20 58.5 42.833 83.5 68.5s46.167 54.834 63.5 87.501
s30.833 69.167 40.5 109.5s14.5 85.166 14.5 134.499c0 54 -10.333 105 -31 153s-48.667 89.667 -84 125s-77 63.333 -125 84s-99 31 -153 31s-105 -10.333 -153 -31s-89.667 -48.667 -125 -84s-63.333 -77 -84 -125s-31 -99 -31 -153
c0 -51.333 5.16699 -97.833 15.5 -139.5s24.5 -79 42.5 -112s39.167 -61.833 63.5 -86.5s50.833 -45 79.5 -61c18 -10 31 -22.5 39 -37.5s11.5 -30.333 10.5 -46s-5.33301 -30.5 -13 -44.5s-18 -25.5 -31 -34.5s-28 -14 -45 -15s-34.5 3.5 -52.5 13.5z" />
    <glyph glyph-name="uni1003" unicode="&#x1003;" horiz-adv-x="2343" 
d="M1174 252c-26 -40 -56.4961 -76.167 -91.4961 -108.5s-73.333 -60.166 -115 -83.499s-86.334 -41.333 -134.001 -54s-96.834 -19 -147.501 -19c-80 0 -155 15 -225 45s-131.333 71 -184 123s-94.334 113 -125.001 183s-46.334 145 -47.001 225v2v2v2v13
c2 44.667 11 80.5 27 107.5s36.5 49.333 61.5 67s53.167 32.5 84.5 44.5s63.333 25 96 39c12 5.33301 22 12.333 30 21s12 20.667 12 36c0 3.33301 -0.833008 8.83301 -2.5 16.5s-5 16 -10 25s-12 17.167 -21 24.5s-20.833 12.166 -35.5 14.499
s-32.667 1.16602 -54 -3.50098s-46.333 -14.667 -75 -30c-18.667 -10 -35.5 -14.167 -50.5 -12.5s-27.667 6.83398 -38 15.501s-18.166 20 -23.499 34s-7 28.667 -5 44s8 30 18 44s24.333 25.333 43 34c52 24.667 104.333 38.667 157 42s100 -3.83398 142 -21.501
s76.333 -45.5 103 -83.5s40 -85.667 40 -143c0 -47.333 -8 -85.5 -24 -114.5s-36.667 -52.833 -62 -71.5s-53.833 -34.334 -85.5 -47.001s-63.5 -26.334 -95.5 -41.001c-14 -6.66699 -24.833 -13.5 -32.5 -20.5s-11.5 -19.167 -11.5 -36.5c0 -54 10.5 -104.667 31.5 -152
s49.167 -88.666 84.5 -123.999s76.833 -63.166 124.5 -83.499s98.5 -30.5 152.5 -30.5s105 10.333 153 31s89.667 48.667 125 84s63.333 77 84 125s31 99 31 153c0 48.667 -4.83301 93.167 -14.5 133.5s-23.167 76.833 -40.5 109.5s-38.666 61.834 -63.999 87.501
s-53.333 48.5 -84 68.5c-17.333 11.333 -29.333 24.666 -36 39.999s-9.16699 30.833 -7.5 46.5s7 30.334 16 44.001s20.167 24.5 33.5 32.5s28.333 12 45 12s34 -5.66699 52 -17c44 -28.667 83.833 -61.5 119.5 -98.5s66 -78.5 91 -124.5s44.167 -96.5 57.5 -151.5
s20 -114.833 20 -179.5c0.666992 -2.66699 1.16699 -5.16699 1.5 -7.5s0.5 -5.16602 0.5 -8.49902c1.33301 -52.667 12.666 -102.167 33.999 -148.5s49.666 -86.666 84.999 -120.999s76.5 -61.333 123.5 -81s97.167 -29.5 150.5 -29.5c54 0 105 10.333 153 31
s89.667 48.667 125 84s63.333 77 84 125s31 99 31 153s-10.333 105 -31 153s-48.667 89.667 -84 125s-77 63.333 -125 84s-99 31 -153 31c-32.667 0 -59.167 4.66699 -79.5 14s-35.166 21 -44.499 35s-13.333 29 -12 45s7.5 31 18.5 45s26.333 25.667 46 35s43.5 14 71.5 14
c80 0 155.333 -15.167 226 -45.5s132.334 -71.833 185.001 -124.5s94.167 -114.334 124.5 -185.001s45.5 -146 45.5 -226c0 -53.333 -6.83301 -104.833 -20.5 -154.5s-33.167 -96 -58.5 -139s-55.666 -82.333 -91 -118c-35.333 -35.667 -74.5 -66 -117.5 -91
s-89.333 -44.5 -139 -58.5s-101.167 -21 -154.5 -21c-51.333 0 -100.833 6.33301 -148.5 19s-92.334 30.667 -134.001 54s-79.834 51.166 -114.501 83.499s-65 68.5 -91 108.5z" />
    <glyph glyph-name="uni1004" unicode="&#x1004;" horiz-adv-x="1265" 
d="M1135 931c13.333 -16.667 20.6709 -33.1689 22.0039 -49.502s-1.16699 -31.666 -7.5 -45.999s-15.833 -26.5 -28.5 -36.5s-26.667 -16.667 -42 -20s-31 -2.5 -47 2.5s-30.667 15.833 -44 32.5c-36 45.333 -80.5 81.166 -133.5 107.499s-110.833 39.5 -173.5 39.5
c-54 0 -105 -10.333 -153 -31s-89.667 -48.667 -125 -84s-63.333 -77 -84 -125s-31 -99 -31 -153s10.333 -105 31 -153s48.667 -89.667 84 -125s77 -63.333 125 -84s99 -31 153 -31c64.667 0 124 14 178 42s99 65.667 135 113c12.667 16.667 27 27.834 43 33.501
s31.667 7.16699 47 4.5s29.333 -9 42 -19s22.5 -22 29.5 -36s10 -29.333 9 -46s-7.83301 -33.334 -20.5 -50.001c-26.667 -35.333 -56.834 -67.166 -90.501 -95.499s-70.334 -52.5 -110.001 -72.5s-81.5 -35.333 -125.5 -46s-89.667 -16 -137 -16
c-80 0 -155.333 15.167 -226 45.5s-132.334 71.833 -185.001 124.5s-94.167 114.334 -124.5 185.001s-45.5 146 -45.5 226c0 53.333 6.83301 104.833 20.5 154.5s33.167 96 58.5 139s55.666 82.333 90.999 118s74.5 66 117.5 91s89.333 44.5 139 58.5s101.167 21 154.5 21
c46 0 90.5 -5.16699 133.5 -15.5s83.833 -25 122.5 -44s74.667 -42 108 -69s63.333 -57.167 90 -90.5z" />
    <glyph glyph-name="uni1005" unicode="&#x1005;" horiz-adv-x="1362" 
d="M681 1151c80 0 155.329 -15.167 225.996 -45.5s132.334 -71.833 185.001 -124.5s94.167 -114.334 124.5 -185.001s45.5 -146 45.5 -226c0 -53.333 -6.83301 -104.833 -20.5 -154.5s-33.167 -96 -58.5 -139s-55.666 -82.333 -90.999 -118s-74.5 -66 -117.5 -91
s-89.333 -44.5 -139 -58.5s-101.167 -21 -154.5 -21s-104.833 7 -154.5 21s-96 33.5 -139 58.5s-82.167 55.333 -117.5 91s-65.666 75 -90.999 118s-44.833 89.333 -58.5 139s-20.5 101.167 -20.5 154.5c0 80 15.167 155.333 45.5 226s71.833 132.334 124.5 185.001
s114.334 94.167 185.001 124.5s146 45.5 226 45.5zM380.996 823c-29.333 -34 -52.1689 -72.667 -68.502 -116s-24.5 -89 -24.5 -137c0 -48.667 8.16699 -94.5 24.5 -137.5s38.833 -81.833 67.5 -116.5c36 17.333 65.833 39.833 89.5 67.5s41.334 57.667 53.001 90
s17.334 65.833 17.001 100.5s-6.5 67.834 -18.5 99.501s-29.667 60.667 -53 87s-52.333 47.166 -87 62.499zM680.993 963c-30.667 0 -60.1699 -3.33203 -88.5029 -9.99902s-55.166 -16 -80.499 -28c39.333 -27.333 72.333 -59.833 99 -97.5s46.834 -78 60.501 -121
s20.667 -87.5 21 -133.5s-6.16699 -90.667 -19.5 -134s-33.5 -84.333 -60.5 -123s-60.833 -72.334 -101.5 -101.001c25.333 -12 52.333 -21.333 81 -28s58.334 -10 89.001 -10c54 0 105 10.333 153 31s89.667 48.667 125 84s63.333 77 84 125s31 99 31 153
s-10.333 105 -31 153s-48.667 89.667 -84 125s-77 63.333 -125 84s-99 31 -153 31z" />
    <glyph glyph-name="uni1006" unicode="&#x1006;" horiz-adv-x="2272" 
d="M703 186c-6 30.667 -16.835 58.832 -32.502 84.499s-34.5 48 -56.5 67s-46.667 34.333 -74 46s-55.666 19 -84.999 22s-58.833 1.33301 -88.5 -5s-58.167 -17.833 -85.5 -34.5c34.667 -57.333 81.334 -103.166 140.001 -137.499s124 -51.5 196 -51.5c30 0 58.667 3 86 9z
M1591 1151c80 0 155.332 -15.165 225.999 -45.498s132.334 -71.833 185.001 -124.5s94.167 -114.334 124.5 -185.001s45.5 -146 45.5 -226c0 -53.333 -6.83301 -104.833 -20.5 -154.5s-33.167 -96 -58.5 -139s-55.666 -82.333 -90.999 -118s-74.5 -66 -117.5 -91
s-89.333 -44.5 -139 -58.5s-101.167 -21 -154.5 -21c-51.333 0 -100.666 6.33301 -147.999 19s-91.666 30.5 -132.999 53.5s-79.5 50.667 -114.5 83s-65.5 68.5 -91.5 108.5c-26 -40 -56.5 -76.167 -91.5 -108.5s-73.167 -60 -114.5 -83s-85.833 -40.833 -133.5 -53.5
s-96.834 -19 -147.501 -19c-58 0 -112.5 8.16699 -163.5 24.5s-98 39.166 -141 68.499s-81.5 64.333 -115.5 105s-62.667 85.667 -86 135c-12.667 26.667 -14.334 50.667 -5.00098 72s23.666 37.666 42.999 48.999c41.333 38.667 85.333 67.667 132 87s93.5 30 140.5 32
s93 -4 138 -18s86.333 -34.5 124 -61.5s70.667 -60.167 99 -99.5s49.5 -83.333 63.5 -132c48 34.667 86.5 78.334 115.5 131.001s45.167 110.334 48.5 173.001c-1.33301 10.667 -1.33301 21.334 0 32.001c-2 52 -13.667 101 -35 147s-49.666 86 -84.999 120
s-76.5 60.833 -123.5 80.5s-96.833 29.5 -149.5 29.5c-33.333 0 -66.333 -3.83301 -99 -11.5s-64 -18.834 -94 -33.501s-57.5 -32.167 -82.5 -52.5s-46.5 -43.166 -64.5 -68.499c-12 -17.333 -25.833 -28.833 -41.5 -34.5s-31.334 -7.33398 -47.001 -5.00098
s-30.167 8.16602 -43.5 17.499s-23.666 21 -30.999 35s-10.666 29.333 -9.99902 46s7 33.667 19 51c26.667 36.667 58.167 70 94.5 100s76 55.667 119 77s88.167 37.833 135.5 49.5s95.666 17.5 144.999 17.5c50.667 0 99.834 -6.33301 147.501 -19
s92.167 -30.5 133.5 -53.5s79.5 -50.667 114.5 -83s65.5 -68.166 91.5 -107.499c26 39.333 56.5 75.166 91.5 107.499s73.167 60 114.5 83s85.666 40.833 132.999 53.5s96.666 19 147.999 19zM1591 963c-53.333 0 -103.333 -9.83203 -150 -29.499s-87.667 -46.5 -123 -80.5
s-63.666 -74 -84.999 -120s-33 -95 -35 -147v-32c2 -52.667 13.667 -101.834 35 -147.501s49.666 -85.5 84.999 -119.5s76.333 -60.833 123 -80.5s96.667 -29.5 150 -29.5c54 0 105 10.333 153 31s89.667 48.667 125 84s63.333 77 84 125s31 99 31 153s-10.333 105 -31 153
s-48.667 89.667 -84 125s-77 63.333 -125 84s-99 31 -153 31z" />
    <glyph glyph-name="uni1007" unicode="&#x1007;" horiz-adv-x="1563" 
d="M1034 743c-16 31.333 -35.6689 60.165 -59.002 86.498s-49.666 49.166 -78.999 68.499s-61.166 34.5 -95.499 45.5s-70.166 17.167 -107.499 18.5c-9.33301 -24 -13.833 -49.333 -13.5 -76s5 -52.167 14 -76.5s21.833 -46.666 38.5 -66.999s37 -36.166 61 -47.499
c20.667 -10 42.167 -16.167 64.5 -18.5s44.166 -1.33301 65.499 3s41.5 11.833 60.5 22.5s35.833 24.334 50.5 41.001zM1141 213.999c-26.667 -34.667 -56.835 -65.833 -90.502 -93.5s-70 -51.334 -109 -71.001s-80.5 -34.834 -124.5 -45.501s-89.333 -16 -136 -16
c-80 0 -155.333 15.167 -226 45.5s-132.334 71.833 -185.001 124.5s-94.167 114.334 -124.5 185.001s-45.5 146 -45.5 226s15.167 155.333 45.5 226s71.833 132.334 124.5 185.001s114.334 94.167 185.001 124.5s146 45.5 226 45.5c76.667 0 148.667 -13.667 216 -41
s127 -65 179 -113c6.66699 8 15 14.667 25 20c17.333 8.66699 38.5 14 63.5 16s50.833 0.166992 77.5 -5.5s53.167 -15.167 79.5 -28.5s50 -31 71 -53s38 -48.167 51 -78.5s19.5 -65.166 19.5 -104.499v-85c0 -26 -8 -45.333 -24 -58s-33.667 -19 -53 -19
s-37 6.33301 -53 19s-24 32 -24 58v85c0 25.333 -5.33301 45.833 -16 61.5s-23 27.667 -37 36s-27.667 13.333 -41 15s-23 1.16699 -29 -1.5c-1.33301 -0.666992 -2.5 -1.16699 -3.5 -1.5s-2.16699 -0.833008 -3.5 -1.5l15.5 -28l14.5 -28
c7.33301 -16.667 10.5 -32.334 9.5 -47.001s-4.83301 -28 -11.5 -40c-21.333 -44.667 -50 -82.667 -86 -114s-75.667 -54.833 -119 -70.5s-88.833 -22.5 -136.5 -20.5s-93.834 13.667 -138.501 35c-35.333 16.667 -66.5 38.667 -93.5 66s-49 57.5 -66 90.5
s-29 68.167 -36 105.5s-8.16699 74.666 -3.5 111.999c-35.333 -15.333 -67.666 -35 -96.999 -59s-54.666 -51.667 -75.999 -83s-37.833 -65.666 -49.5 -102.999s-17.5 -76.333 -17.5 -117c0 -54 10.333 -105 31 -153s48.667 -89.667 84 -125s77 -63.333 125 -84
s99 -31 153 -31c64 0 122.833 13.833 176.5 41.5s98.5 64.834 134.5 111.501c12.667 16.667 27 27.667 43 33s31.667 6.5 47 3.5s29.5 -9.5 42.5 -19.5s22.833 -22 29.5 -36s9.33398 -29.333 8.00098 -46s-8.33301 -33.334 -21 -50.001z" />
    <glyph glyph-name="uni1008" unicode="&#x1008;" horiz-adv-x="1723" 
d="M681 1150c80.667 0 156.334 -15.167 227.001 -45.5s132.334 -71.833 185.001 -124.5s94.167 -114.334 124.5 -185.001s45.5 -146 45.5 -226c0 -80.667 -15.167 -156.334 -45.5 -227.001s-71.833 -132.334 -124.5 -185.001s-114.334 -94.167 -185.001 -124.5
s-146.334 -45.5 -227.001 -45.5c-80 0 -155.333 15.167 -226 45.5s-132.334 71.833 -185.001 124.5s-94.167 114.334 -124.5 185.001s-45.5 146.334 -45.5 227.001c0 80 15.167 155.333 45.5 226s71.833 132.334 124.5 185.001s114.334 94.167 185.001 124.5
s146 45.5 226 45.5zM381 822c-29.333 -34 -51.999 -72.667 -67.999 -116s-24 -89 -24 -137c0 -48.667 8 -94.5 24 -137.5s38.667 -81.833 68 -116.5c36 17.333 65.833 39.833 89.5 67.5s41.167 57.667 52.5 90s17 65.833 17 100.5s-6 67.834 -18 99.501
s-29.833 60.667 -53.5 87s-52.834 47.166 -87.501 62.499zM681.001 962c-30 0 -59.1689 -3.33203 -87.502 -9.99902s-55.166 -16 -80.499 -28c39.333 -27.333 72.333 -59.833 99 -97.5s46.834 -78 60.501 -121s20.667 -87.5 21 -133.5s-6.16699 -90.667 -19.5 -134
s-33.5 -84.333 -60.5 -123s-61.167 -72.334 -102.5 -101.001c26 -12 53.333 -21.333 82 -28s58 -10 88 -10c54.667 0 105.834 10.333 153.501 31s89.167 48.667 124.5 84s63.333 77 84 125s31 99 31 153s-10.333 105 -31 153s-48.667 89.667 -84 125
s-76.833 63.333 -124.5 84s-98.834 31 -153.501 31zM1434 -690.999l-0.000976562 1747c0 20.667 4.66699 38 14 52s21 24.5 35 31.5s29.167 10.5 45.5 10.5s31.5 -3.5 45.5 -10.5s25.667 -17.5 35 -31.5s14 -31.333 14 -52v-1843
c-1.33301 -19.333 -7.66602 -37.666 -18.999 -54.999s-25.5 -31.666 -42.5 -42.999s-36 -18.666 -57 -21.999s-41.833 -0.333008 -62.5 9l-446 171c-9.33301 3.33301 -19 8.83301 -29 16.5s-19 17 -27 28s-14.5 23.167 -19.5 36.5s-7.5 27.333 -7.5 42v534
c0 20.667 4.66699 38 14 52s21 24.667 35 32s29 10.833 45 10.5s31 -3.83301 45 -10.5s25.667 -17.167 35 -31.5s14 -31.833 14 -52.5v-497z" />
    <glyph glyph-name="uni1009" unicode="&#x1009;" horiz-adv-x="1267" 
d="M317 52l0.000976562 -673.999c0 -14 2.66699 -27.167 8 -39.5s12.5 -23 21.5 -32s19.667 -16.167 32 -21.5s25.5 -8 39.5 -8h1423c14 0 27.167 2.66699 39.5 8s23 12.5 32 21.5s16.167 19.667 21.5 32s8 25.5 8 39.5v125c0 20.667 4.66699 38 14 52s21 24.5 35 31.5
s29 10.5 45 10.5s31 -3.5 45 -10.5s25.667 -17.5 35 -31.5s14 -31.333 14 -52v-125c0 -40 -7.5 -77.5 -22.5 -112.5s-35.667 -65.667 -62 -92s-57 -47 -92 -62s-72.5 -22.5 -112.5 -22.5h-1423c-40 0 -77.5 7.5 -112.5 22.5s-65.667 35.667 -92 62s-47 57 -62 92
s-22.5 72.5 -22.5 112.5v829c-1.33301 2 -2.66602 3.83301 -3.99902 5.5s-2.66602 3.16699 -3.99902 4.5c-12.667 16.667 -19.5 33.334 -20.5 50.001s2 32 9 46s16.833 26 29.5 36s26.667 16.333 42 19s31 1.16699 47 -4.5s30.333 -16.834 43 -33.501
c36 -47.333 81 -85 135 -113s113.333 -42 178 -42c54 0 105 10.333 153 31s89.667 48.667 125 84s63.333 77 84 125s31 99 31 153s-10.333 105 -31 153s-48.667 89.667 -84 125s-77 63.333 -125 84s-99 31 -153 31c-62.667 0 -120.5 -13.167 -173.5 -39.5
s-97.5 -62.166 -133.5 -107.499c-13.333 -16.667 -28 -27.5 -44 -32.5s-31.667 -5.83301 -47 -2.5s-29.333 10 -42 20s-22.167 22.167 -28.5 36.5s-8.83301 29.666 -7.5 45.999s8.66602 32.833 21.999 49.5c26.667 33.333 56.667 63.5 90 90.5s69.333 50 108 69
s79.5 33.667 122.5 44s87.5 15.5 133.5 15.5c53.333 0 104.833 -7 154.5 -21s96 -33.5 139 -58.5s82.167 -55.333 117.5 -91s65.666 -75 90.999 -118s44.833 -89.333 58.5 -139s20.5 -101.167 20.5 -154.5c0 -80 -15.167 -155.333 -45.5 -226
s-71.833 -132.334 -124.5 -185.001s-114.334 -94.167 -185.001 -124.5s-146 -45.5 -226 -45.5c-48 0 -94.5 5.66699 -139.5 17s-87.5 27.333 -127.5 48z" />
    <glyph glyph-name="uni100A" unicode="&#x100a;" horiz-adv-x="2242" 
d="M130 205c-13.333 16 -20.668 32.499 -22.001 49.499s1.16699 32.5 7.5 46.5s15.833 26.167 28.5 36.5s26.667 17.166 42 20.499s31 2.33301 47 -3s30.667 -16 44 -32c36 -45.333 80.5 -81.333 133.5 -108s110.833 -40 173.5 -40c54 0 105 10.333 153 31
s89.667 48.667 125 84s63.333 77 84 125s31 99 31 153s-10.333 105 -31 153s-48.667 89.667 -84 125s-77 63.333 -125 84s-99 31 -153 31c-64.667 0 -124 -14 -178 -42s-99 -65.667 -135 -113c-12.667 -16.667 -27 -27.667 -43 -33s-31.667 -6.66602 -47 -3.99902
s-29.333 9 -42 19s-22.5 22 -29.5 36s-10 29.333 -9 46s7.83301 33.334 20.5 50.001c26.667 34.667 56.834 66.167 90.501 94.5s70.334 52.5 110.001 72.5s81.5 35.5 125.5 46.5s89.667 16.5 137 16.5c53.333 0 104.833 -7 154.5 -21s96 -33.5 139 -58.5
s82.167 -55.333 117.5 -91s65.666 -75 90.999 -118s44.833 -89.333 58.5 -139s20.5 -101.167 20.5 -154.5v-12c2 -52.667 13.5 -102.167 34.5 -148.5s49.167 -86.666 84.5 -120.999s76.5 -61.5 123.5 -81.5s97.167 -30 150.5 -30c54 0 105 10.333 153 31
s89.667 48.667 125 84s63.333 77 84 125s31 99 31 153s-10.333 105 -31 153s-48.667 89.667 -84 125s-77 63.333 -125 84s-99 31 -153 31c-32.667 0 -59.167 4.66699 -79.5 14s-35.166 21 -44.499 35s-13.333 29.167 -12 45.5s7.5 31.5 18.5 45.5s26.333 25.667 46 35
s43.5 14 71.5 14c53.333 0 104.833 -7 154.5 -21s96 -33.5 139 -58.5s82.167 -55.333 117.5 -91s65.666 -75 90.999 -118s44.833 -89.333 58.5 -139s20.5 -101.167 20.5 -154.5c0 -80 -15.167 -155.333 -45.5 -226s-71.833 -132.334 -124.5 -185.001
s-114.334 -94.167 -185.001 -124.5s-146 -45.5 -226 -45.5c-51.333 0 -100.666 6.33301 -147.999 19s-91.666 30.5 -132.999 53.5s-79.5 50.667 -114.5 83s-65.5 68.5 -91.5 108.5c-26 -40 -56.5 -76.167 -91.5 -108.5s-73.167 -60 -114.5 -83s-85.833 -40.833 -133.5 -53.5
s-96.834 -19 -147.501 -19c-46 0 -90.333 5 -133 15s-83.667 24.667 -123 44v-670c0 -14 2.66699 -27.167 8 -39.5s12.5 -23 21.5 -32s19.667 -16.167 32 -21.5s25.5 -8 39.5 -8h1424c14 0 27 2.66699 39 8s22.5 12.5 31.5 21.5s16.167 19.667 21.5 32s8 25.5 8 39.5v125
c0 20.667 4.66699 38 14 52s21 24.5 35 31.5s29.167 10.5 45.5 10.5s31.5 -3.5 45.5 -10.5s25.667 -17.5 35 -31.5s14 -31.333 14 -52v-125c0 -40 -7.66699 -77.5 -23 -112.5s-36 -65.667 -62 -92s-56.5 -47 -91.5 -62s-72.5 -22.5 -112.5 -22.5h-1424
c-40 0 -77.5 7.5 -112.5 22.5s-65.667 35.667 -92 62s-47 57 -62 92s-22.5 72.5 -22.5 112.5v817c-1.33301 2 -3 4 -5 6s-3.66699 4 -5 6z" />
    <glyph glyph-name="uni100B" unicode="&#x100b;" horiz-adv-x="1384" 
d="M1131 200c-0.666992 -52 -0.998047 -98.6611 -0.998047 -139.994c0 -18 -0.166992 -35.5 -0.5 -52.5s-0.5 -32.333 -0.5 -46s-0.166992 -24.834 -0.5 -33.501s-0.5 -13.334 -0.5 -14.001c-2 -12 -6.5 -23.5 -13.5 -34.5s-17.167 -20.833 -30.5 -29.5
c-66.667 -43.333 -137.167 -73.666 -211.5 -90.999s-149.833 -25.666 -226.5 -24.999c-24 0.666992 -50.167 2 -78.5 4s-57 5 -86 9s-57.5 9 -85.5 15s-54.333 13 -79 21v-109c22.667 -10.667 47.667 -19.667 75 -27s55.5 -13.333 84.5 -18s57.5 -8 85.5 -10
s53.667 -3.33301 77 -4c28.667 -0.666992 60.5 2 95.5 8s68.833 13.667 101.5 23s62.667 19.333 90 30s48 20.334 62 29.001c21.333 8.66699 42.333 9.33398 63 2.00098c18 -5.33301 33.5 -15.5 46.5 -30.5s19.5 -35.167 19.5 -60.5v-290
c0 -10.667 1.66699 -17.834 5 -21.501s10.666 -5.5 21.999 -5.5h45c20.667 0 38 -4.66699 52 -14s24.667 -21 32 -35s10.833 -29 10.5 -45s-3.83301 -31 -10.5 -45s-17.167 -25.667 -31.5 -35s-31.833 -14 -52.5 -14h-45c-27.333 0 -53.833 4.5 -79.5 13.5
s-48.5 22.5 -68.5 40.5s-36.167 40.333 -48.5 67s-18.5 58 -18.5 94v141c-48 -16.667 -96.667 -28 -146 -34s-100 -8.33301 -152 -7c-35.333 1.33301 -73.166 4.16602 -113.499 8.49902s-80.833 11 -121.5 20s-80 20.333 -118 34s-72.333 30.5 -103 50.5
c-14.667 9.33301 -25.5 20.166 -32.5 32.499s-10.833 25.166 -11.5 38.499c0 0.666992 -0.166992 9.16699 -0.5 25.5s-0.5 36.333 -0.5 60v77v77c0 23.667 0.166992 43.667 0.5 60s0.5 25.166 0.5 26.499c1.33301 16 6.33301 31 15 45s19.667 25 33 33
s28.5 12.167 45.5 12.5s34.5 -5.5 52.5 -17.5c24.667 -16 52.834 -29.333 84.501 -40s64.334 -19.5 98.001 -26.5s67.167 -12 100.5 -15s64 -4.5 92 -4.5c50 -0.666992 99.5 3.66602 148.5 12.999s96.167 25.666 141.5 48.999v64c-39.333 -20 -80.833 -35.333 -124.5 -46
s-89.167 -16 -136.5 -16c-80 0 -155.333 15.167 -226 45.5s-132.167 71.833 -184.5 124.5s-93.833 114.334 -124.5 185.001s-46 146 -46 226c0 53.333 7 104.833 21 154.5s33.5 96 58.5 139s55.333 82.333 91 118s75 66 118 91s89.167 44.5 138.5 58.5
s100.666 21 153.999 21c92.667 0 178.167 -19.833 256.5 -59.5s144.5 -92.834 198.5 -159.501c13.333 -16.667 20.666 -33.167 21.999 -49.5s-1.16699 -31.666 -7.5 -45.999s-15.833 -26.5 -28.5 -36.5s-26.834 -16.667 -42.501 -20s-31.5 -2.5 -47.5 2.5
s-30.667 15.833 -44 32.5c-36 45.333 -80.5 81.166 -133.5 107.499s-110.833 39.5 -173.5 39.5c-54 0 -105 -10.333 -153 -31s-89.667 -48.667 -125 -84s-63.333 -77 -84 -125s-31 -99 -31 -153s10.333 -105 31 -153s48.667 -89.667 84 -125s77 -63.333 125 -84
s99 -31 153 -31c64.667 0 124.167 14 178.5 42s99.166 65.667 134.499 113c12.667 16.667 27 27.834 43 33.501s31.667 7.16699 47 4.5s29.5 -9 42.5 -19s23 -22 30 -36s10 -29.333 9 -46s-7.83301 -33.334 -20.5 -50.001l-7.5 -9
c-2.33301 -2.66699 -4.5 -5.33398 -6.5 -8.00098z" />
    <glyph glyph-name="uni100C" unicode="&#x100c;" horiz-adv-x="1266" 
d="M1136 932c13.333 -16.667 20.665 -33.167 21.998 -49.5s-1.16699 -31.666 -7.5 -45.999s-15.833 -26.5 -28.5 -36.5s-26.667 -16.667 -42 -20s-31 -2.5 -47 2.5s-30.667 15.833 -44 32.5c-36 45.333 -80.5 81.166 -133.5 107.499s-110.833 39.5 -173.5 39.5
c-54 0 -105 -10.333 -153 -31s-89.667 -48.667 -125 -84s-63.333 -77 -84 -125s-31 -99 -31 -153s10.333 -105 31 -153s48.667 -89.667 84 -125s77 -63.333 125 -84s99 -31 153 -31c64.667 0 124 14 178 42s99 65.667 135 113c12.667 16.667 27 27.834 43 33.501
s31.667 7.16699 47 4.5s29.333 -9 42 -19s22.5 -22 29.5 -36s10 -29.333 9 -46s-7.83301 -33.334 -20.5 -50.001c-2.66699 -3.33301 -5.16699 -6.66602 -7.5 -9.99902s-5.16602 -6.66602 -8.49902 -9.99902l1 -820c0 -40 -7.66699 -77.5 -23 -112.5s-36 -65.667 -62 -92
s-56.5 -47 -91.5 -62s-72.5 -22.5 -112.5 -22.5h-453c-40 0 -77.5 7.66699 -112.5 23s-65.5 36 -91.5 62s-46.5 56.5 -61.5 91.5s-22.5 72.5 -22.5 112.5s8.33301 77.833 25 113.5s39.167 66.167 67.5 91.5s61.333 44.166 99 56.499s77.5 15.5 119.5 9.5
c32 -4 60.333 -10.833 85 -20.5s48 -21.334 70 -35.001s43.167 -29 63.5 -46l65.5 -55.5c16 -13.333 26.333 -27.833 31 -43.5s5.16699 -30.834 1.5 -45.501s-10.5 -27.834 -20.5 -39.501s-22.167 -20.167 -36.5 -25.5s-29.666 -6.66602 -45.999 -3.99902
s-32.5 10.667 -48.5 24l-28.5 25.5l-31 27.5c-11 9.33301 -22.833 18.166 -35.5 26.499s-27 15.833 -43 22.5c-14 6 -29.667 9.83301 -47 11.5s-33.5 -0.166016 -48.5 -5.49902s-27.667 -15 -38 -29s-16.166 -33.667 -17.499 -59c0 -14 2.66699 -27.167 8 -39.5
s12.5 -23 21.5 -32s19.667 -16.167 32 -21.5s25.5 -8 39.5 -8h453c14 0 27 2.66699 39 8s22.5 12.5 31.5 21.5s16.167 19.667 21.5 32s8 25.5 8 39.5v671c-39.333 -19.333 -80.666 -34.333 -123.999 -45s-88.333 -16 -135 -16c-80 0 -155.333 15.167 -226 45.5
s-132.334 71.833 -185.001 124.5s-94.167 114.334 -124.5 185.001s-45.5 146 -45.5 226c0 53.333 6.83301 104.833 20.5 154.5s33.167 96 58.5 139s55.666 82.333 90.999 118s74.5 66 117.5 91s89.333 44.5 139 58.5s101.167 21 154.5 21c46 0 90.5 -5.16699 133.5 -15.5
s83.833 -25 122.5 -44s74.667 -42 108 -69s63.333 -57.167 90 -90.5z" />
    <glyph glyph-name="uni100D" unicode="&#x100d;" horiz-adv-x="1382" 
d="M311 -50c42 -21.333 84.999 -36.165 128.999 -44.498s89.667 -13.166 137 -14.499c58.667 -1.33301 114.334 3 167.001 13s104.334 30.667 155.001 62c6 5.33301 13.167 9.5 21.5 12.5s16.833 5.16699 25.5 6.5s16.834 1.83301 24.501 1.5s13.834 -1.5 18.501 -3.5
c18 -5.33301 33.5 -15.333 46.5 -30s19.5 -34.667 19.5 -60v-589c0 -11.333 1.66699 -18.666 5 -21.999s10.666 -5 21.999 -5h105c20.667 0 38.167 -4.66699 52.5 -14s24.833 -21 31.5 -35s10.167 -29 10.5 -45s-3.16699 -31 -10.5 -45s-17.833 -25.667 -31.5 -35
s-31.167 -14 -52.5 -14h-105c-27.333 0 -53.833 4.5 -79.5 13.5s-48.5 22.5 -68.5 40.5s-36.167 40.333 -48.5 67s-18.5 58 -18.5 94v439c-48 -16.667 -96.667 -27.834 -146 -33.501s-100 -7.83398 -152 -6.50098c-71.333 2 -140.333 11 -207 27
s-131.334 44.333 -194.001 85c-13.333 9.33301 -24.166 21.333 -32.499 36s-12.5 30.667 -12.5 48v309c-13.333 21.333 -20.666 41.5 -21.999 60.5s1.16699 35.833 7.5 50.5s15.666 26.667 27.999 36s26 15 41 17s30.333 -0.333008 46 -7s29.834 -18.334 42.501 -35.001
c36 -47.333 81 -85 135 -113s113.333 -42 178 -42c54 0 105 10.333 153 31s89.667 48.667 125 84s63.333 77 84 125s31 99 31 153s-10.333 105 -31 153s-48.667 89.667 -84 125s-77 63.333 -125 84s-99 31 -153 31c-62.667 0 -120.5 -13.167 -173.5 -39.5
s-97.5 -62.166 -133.5 -107.499c-13.333 -16.667 -28 -27.5 -44 -32.5s-31.667 -5.83301 -47 -2.5s-29.333 10 -42 20s-22.167 22.167 -28.5 36.5s-8.83301 29.666 -7.5 45.999s8.66602 32.833 21.999 49.5c26.667 33.333 56.667 63.5 90 90.5s69.333 50 108 69
s79.5 33.667 122.5 44s87.5 15.5 133.5 15.5c53.333 0 104.833 -7 154.5 -21s96 -33.5 139 -58.5s82.167 -55.333 117.5 -91s65.666 -75 90.999 -118s44.833 -89.333 58.5 -139s20.5 -101.167 20.5 -154.5c0 -80 -15.167 -155.333 -45.5 -226
s-71.833 -132.334 -124.5 -185.001s-114.334 -94.167 -185.001 -124.5s-146 -45.5 -226 -45.5c-48.667 0 -95.5 5.66699 -140.5 17s-87.5 27.333 -127.5 48v-102z" />
    <glyph glyph-name="uni100E" unicode="&#x100e;" horiz-adv-x="1369" 
d="M295 568c0 -54 10.3271 -104.99 30.9941 -152.99s48.667 -89.667 84 -125s77 -63.333 125 -84s99 -31 153 -31s104.833 10.333 152.5 31s89.334 48.667 125.001 84s63.834 77 84.501 125s31 99 31 153c0 98.667 -18.333 181.667 -55 249s-86 121 -148 161
c-17.333 11.333 -29.333 24.666 -36 39.999s-9.16699 30.833 -7.5 46.5s6.83398 30.167 15.501 43.5s19.834 24 33.501 32s28.834 12.167 45.501 12.5s33.667 -5.16699 51 -16.5c44.667 -28.667 84.834 -62.167 120.501 -100.5s66 -81.333 91 -129
s44.167 -99.834 57.5 -156.501s20 -117.334 20 -182.001c0 -80 -15.167 -155.333 -45.5 -226s-71.833 -132.334 -124.5 -185.001s-114.334 -94.167 -185.001 -124.5s-146 -45.5 -226 -45.5c-79.333 0 -153.833 14.833 -223.5 44.5s-130.834 70.167 -183.501 121.5
s-94.5 111.5 -125.5 180.5s-47.167 142.833 -48.5 221.5c-0.666992 3.33301 -1.16699 6.66602 -1.5 9.99902s-0.5 7 -0.5 11c0 42 6 77 18 105c6 16.667 13.333 29.667 22 39c12.667 16.667 27.5 31.167 44.5 43.5s35.5 23.166 55.5 32.499s41 18.166 63 26.499
s44 17.5 66 27.5c12 5.33301 22 10.666 30 15.999s12 15.666 12 30.999c0 3.33301 -0.833008 8.83301 -2.5 16.5s-5 16 -10 25s-12 17.167 -21 24.5s-20.833 12.166 -35.5 14.499s-32.5 1.16602 -53.5 -3.50098s-45.833 -14.667 -74.5 -30
c-18.667 -10 -35.667 -14.167 -51 -12.5s-28.166 6.83398 -38.499 15.501s-18 20 -23 34s-6.66699 28.667 -5 44s7.33398 30 17.001 44s24.167 25.333 43.5 34c52 24.667 104.333 38.667 157 42s100.167 -3.83398 142.5 -21.501s76.833 -45.5 103.5 -83.5
s40 -85.667 40 -143c0 -47.333 -8 -85 -24 -113s-36.833 -50.667 -62.5 -68s-54.334 -31.666 -86.001 -42.999s-63.5 -24.333 -95.5 -39c-12.667 -6 -22.667 -12 -30 -18s-11.666 -15.667 -12.999 -29c0 -3.33301 0.166992 -6.5 0.5 -9.5s0.5 -6.16699 0.5 -9.5z" />
    <glyph glyph-name="uni100F" unicode="&#x100f;" horiz-adv-x="2645" 
d="M1197 329c-5.33301 -16.667 -9.66699 -37.001 -13 -61.001c-0.666992 -4 2 -11.333 8 -22s14.833 -21.5 26.5 -32.5s26.167 -20.667 43.5 -29s37 -12.166 59 -11.499c22 0 41.333 4.16699 58 12.5s30.667 17.833 42 28.5s19.833 21.167 25.5 31.5
s8.16699 17.833 7.5 22.5c-3.33301 28.667 -8.5 54.167 -15.5 76.5s-14.333 43.5 -22 63.5s-14.667 39.833 -21 59.5s-10.833 41 -13.5 64s-2.5 48.833 0.5 77.5s10.5 62 22.5 100c6.66699 22 13 48 19 78s7.66699 58.667 5 86s-12 50.5 -28 69.5s-42.333 28.5 -79 28.5
c-26.667 0 -47.834 -4.33301 -63.501 -13s-27.667 -20.167 -36 -34.5s-13.333 -30.666 -15 -48.999s-1.5 -37.166 0.5 -56.499s5.33301 -38.5 10 -57.5s9.33398 -36.5 14.001 -52.5c12 -41.333 19 -77.333 21 -108s0.833008 -59.834 -3.5 -87.501
s-11.333 -55.834 -21 -84.501s-20.167 -61.667 -31.5 -99zM1964 961.999c-40.667 0 -79.499 -5.83301 -116.499 -17.5s-71.167 -27.834 -102.5 -48.501s-59.166 -45.667 -83.499 -75s-43.833 -61.333 -58.5 -96c-5.33301 -25.333 -11.333 -49 -18 -71
c-11.333 -36.667 -15.5 -69.667 -12.5 -99s8.83301 -57.666 17.5 -84.999s18.334 -55.333 29.001 -84s18 -60.334 22 -95.001c5.33301 -44 -1.16699 -84.667 -19.5 -122s-43.5 -69.666 -75.5 -96.999s-67.833 -48.666 -107.5 -63.999s-77.834 -23.333 -114.501 -24
c-56.667 -0.666992 -107.5 10.166 -152.5 32.499s-81.5 52.166 -109.5 89.499s-46.5 80.166 -55.5 128.499s-5.83301 97.833 9.5 148.5c8 26.667 16 50.334 24 71.001s14.333 41 19 61s6.66699 40.833 6 62.5s-5.33398 47.5 -14.001 77.5
c-9.33301 30.667 -16.333 62.667 -21 96c-16.667 31.333 -37 60 -61 86s-51 48.167 -81 66.5s-62.5 32.666 -97.5 42.999s-71.5 15.5 -109.5 15.5c-54 0 -105 -10.333 -153 -31s-89.667 -48.667 -125 -84s-63.333 -76.833 -84 -124.5s-31 -98.5 -31 -152.5
c0 -54.667 10.333 -105.834 31 -153.501s48.667 -89.334 84 -125.001s77 -63.667 125 -84s99 -30.5 153 -30.5c32.667 0 59.167 -4.66699 79.5 -14s35.166 -21 44.499 -35s13.5 -29.167 12.5 -45.5s-7 -31.5 -18 -45.5s-26.5 -25.667 -46.5 -35s-44 -14 -72 -14
c-80 0 -155.333 15.167 -226 45.5s-132.334 71.833 -185.001 124.5s-94.167 114.334 -124.5 185.001s-45.5 146.334 -45.5 227.001c0 80 15.167 155.333 45.5 226s71.833 132.167 124.5 184.5s114.334 93.833 185.001 124.5s146 46 226 46c72 0 139.833 -12.167 203.5 -36.5
s120.834 -57.833 171.501 -100.5c20.667 42.667 52.334 77.5 95.001 104.5s99.667 40.5 171 40.5c35.333 0 66.833 -3.66699 94.5 -11s52.167 -17.666 73.5 -30.999s39.666 -29.166 54.999 -47.499s28 -38.5 38 -60.5c51.333 44 109.333 78.667 174 104s133.667 38 207 38
c80 0 155.333 -15.333 226 -46s132.334 -72.167 185 -124.5c52.667 -52.333 94.167 -113.833 124.5 -184.5s45.5 -146 45.5 -226c0 -80.667 -15.167 -156.334 -45.5 -227.001s-71.833 -132.334 -124.5 -185.001s-114.334 -94.167 -185 -124.5
c-70.667 -30.333 -146 -45.5 -226 -45.5c-28 0 -51.833 4.66699 -71.5 14s-35 21 -46 35s-17.167 29.167 -18.5 45.5s2.66699 31.5 12 45.5s24.166 25.667 44.499 35s46.833 14 79.5 14c54 0 105 10.167 153 30.5s89.667 48.333 125 84s63.333 77.334 84 125.001
s31 98.834 31 153.501c0 54 -10.333 104.833 -31 152.5s-48.667 89.167 -84 124.5s-77 63.333 -125 84s-99 31 -153 31z" />
    <glyph glyph-name="uni1010" unicode="&#x1010;" horiz-adv-x="2335" 
d="M681 963c-54 0 -105 -10.333 -153 -31s-89.667 -48.667 -125 -84s-63.333 -77 -84 -125s-31 -99 -31 -153s10.333 -105 31 -153s48.667 -89.667 84 -125s77 -63.333 125 -84s99 -31 153 -31s105 10.333 153 31s89.667 48.667 125 84s63.333 77 84 125s31 99 31 153
s-10.333 105 -31 153s-48.667 89.667 -84 125s-77 63.333 -125 84s-99 31 -153 31zM1167 889c26 39.333 56.5049 75.168 91.5049 107.501s73.167 60 114.5 83s85.666 40.667 132.999 53s96.666 18.5 147.999 18.5c80 0 155.333 -15.167 226 -45.5
s132.334 -71.833 185.001 -124.5s94.167 -114.334 124.5 -185.001s45.5 -146 45.5 -226s-15.167 -155.333 -45.5 -226s-71.833 -132.334 -124.5 -185.001s-114.334 -94.167 -185.001 -124.5s-146 -45.5 -226 -45.5c-28 0 -51.833 4.66699 -71.5 14s-35 21 -46 35
s-17.167 29 -18.5 45s2.66699 31 12 45s24.166 25.667 44.499 35s46.833 14 79.5 14c54 0 105 10.333 153 31s89.667 48.667 125 84s63.333 77 84 125s31 99 31 153s-10.333 105 -31 153s-48.667 89.667 -84 125s-77 63.333 -125 84s-99 31 -153 31
c-52 0 -101 -9.5 -147 -28.5s-86.5 -45 -121.5 -78s-63.5 -71.833 -85.5 -116.5s-34.667 -92.334 -38 -143.001v-27c0 -80 -15.167 -155.333 -45.5 -226s-71.833 -132.334 -124.5 -185.001s-114.334 -94.167 -185.001 -124.5s-146 -45.5 -226 -45.5
s-155.333 15.167 -226 45.5s-132.334 71.833 -185.001 124.5s-94.167 114.334 -124.5 185.001s-45.5 146 -45.5 226s15.167 155.333 45.5 226s71.833 132.334 124.5 185.001s114.334 94.167 185.001 124.5s146 45.5 226 45.5c50.667 0 99.667 -6.16699 147 -18.5
s91.666 -30 132.999 -53s79.5 -50.667 114.5 -83s65.5 -68.166 91.5 -107.499z" />
    <glyph glyph-name="uni1011" unicode="&#x1011;" horiz-adv-x="2335" 
d="M1073 540v59.998c-4 50.667 -16.833 98.167 -38.5 142.5s-50 82.833 -85 115.5s-75.5 58.334 -121.5 77.001s-95 28 -147 28c-54 0 -104.833 -10.333 -152.5 -31s-89.167 -48.667 -124.5 -84s-63.333 -77 -84 -125s-31 -99 -31 -153s10.333 -105 31 -153
s48.667 -89.667 84 -125s76.833 -63.333 124.5 -84s98.5 -31 152.5 -31c52 0 101 9.33301 147 28s86.5 44.334 121.5 77.001s63.333 71.167 85 115.5s34.5 91.833 38.5 142.5zM1654 1151c80 0 155.333 -15.167 226 -45.5s132.334 -71.833 185.001 -124.5
s94.167 -114.334 124.5 -185.001s45.5 -146 45.5 -226s-15.167 -155.333 -45.5 -226s-71.833 -132.334 -124.5 -185.001s-114.334 -94.167 -185.001 -124.5s-146 -45.5 -226 -45.5c-50.667 0 -99.667 6.16699 -147 18.5s-91.666 30 -132.999 53s-79.5 50.667 -114.5 83
s-65.5 68.166 -91.5 107.499c-26 -39.333 -56.5 -75.166 -91.5 -107.499s-73.167 -60 -114.5 -83s-85.833 -40.667 -133.5 -53s-96.834 -18.5 -147.501 -18.5c-80 0 -155.333 15.167 -226 45.5s-132.167 71.833 -184.5 124.5s-93.833 114.334 -124.5 185.001
s-46 146 -46 226s15.333 155.333 46 226s72.167 132.334 124.5 185.001s113.833 94.167 184.5 124.5s146 45.5 226 45.5c50.667 0 99.834 -6.16699 147.501 -18.5s92.167 -30 133.5 -53s79.5 -50.667 114.5 -83s65.5 -68.166 91.5 -107.499
c26 39.333 56.5 75.166 91.5 107.499s73.167 60 114.5 83s85.666 40.667 132.999 53s96.333 18.5 147 18.5zM1654 962.998c-52 0 -100.833 -9.33105 -146.5 -27.998s-86.167 -44.334 -121.5 -77.001s-63.833 -71.167 -85.5 -115.5s-34.5 -91.833 -38.5 -142.5
c0.666992 -20 0.666992 -40 0 -60c4 -50.667 16.833 -98.167 38.5 -142.5s50.167 -82.833 85.5 -115.5s75.833 -58.334 121.5 -77.001s94.5 -28 146.5 -28c54 0 105 10.333 153 31s89.667 48.667 125 84s63.333 77 84 125s31 99 31 153s-10.333 105 -31 153
s-48.667 89.667 -84 125s-77 63.333 -125 84s-99 31 -153 31z" />
    <glyph glyph-name="uni1012" unicode="&#x1012;" horiz-adv-x="1292" 
d="M1080 565c35.333 -26.667 62.8379 -59.8369 82.5049 -99.5039s29.5 -87.167 29.5 -142.5c0 -47.333 -8.5 -88.666 -25.5 -123.999s-39.833 -65.666 -68.5 -90.999s-61.834 -46 -99.501 -62s-76.667 -28.833 -117 -38.5s-80.833 -16.334 -121.5 -20.001
s-78.667 -5.5 -114 -5.5c-55.333 0 -112.333 4.33301 -171 13s-113.334 23.834 -164.001 45.501s-94.334 50.5 -131.001 86.5s-61 81.333 -73 136c-4.66699 20.667 -3.83398 38.834 2.49902 54.501s15.5 28.334 27.5 38.001s26 16.167 42 19.5s31.5 3.16602 46.5 -0.500977
s28.5 -11.334 40.5 -23.001s20.333 -27.834 25 -48.501c3.33301 -15.333 12.666 -30.666 27.999 -45.999s37.333 -29.333 66 -42s64.5 -23 107.5 -31s94.167 -12 153.5 -12c14 0 32.5 0.5 55.5 1.5s47.833 3.16699 74.5 6.5s53.5 8.33301 80.5 15s51.5 15.667 73.5 27
s39.833 25.166 53.5 41.499s20.5 36.166 20.5 59.499c0 18.667 -3.5 36.834 -10.5 54.501s-20.833 33.5 -41.5 47.5s-49.834 25.167 -87.501 33.5s-87.167 12.5 -148.5 12.5c-22 0 -40.167 4.66699 -54.5 14s-25.166 21 -32.499 35s-11 29.167 -11 45.5
s3.66699 31.5 11 45.5s18.166 25.667 32.499 35s32.5 14 54.5 14c61.333 0 110.833 4.33301 148.5 13s66.834 20 87.501 34s34.5 29.833 41.5 47.5s10.5 35.834 10.5 54.501c0 23.333 -6.83301 43.166 -20.5 59.499s-31.5 30.166 -53.5 41.499s-46.5 20.333 -73.5 27
s-53.833 11.834 -80.5 15.501s-51.5 6 -74.5 7s-41.5 1.5 -55.5 1.5c-13.333 0 -31.333 -0.666992 -54 -2s-47.334 -3.83301 -74.001 -7.5s-53.5 -9 -80.5 -16s-51.5 -16.167 -73.5 -27.5s-40 -25 -54 -41s-21 -35.333 -21 -58c0 -21.333 4.83301 -39.666 14.5 -54.999
s25.834 -29.333 48.501 -42c18 -10.667 30.833 -23.5 38.5 -38.5s11.167 -30.333 10.5 -46s-5 -30.667 -13 -45s-18.333 -26 -31 -35s-27.5 -14 -44.5 -15s-34.5 3.5 -52.5 13.5c-47.333 26 -85.833 61 -115.5 105s-44.5 96.667 -44.5 158c0 46 8.66699 86.5 26 121.5
s40.5 65.167 69.5 90.5s62.333 46.333 100 63s76.667 29.834 117 39.501s80.666 16.5 120.999 20.5s77.833 6 112.5 6c35.333 0 73.333 -1.83301 114 -5.5s81.167 -10.334 121.5 -20.001s79.333 -22.5 117 -38.5s70.834 -36.667 99.501 -62s51.5 -55.666 68.5 -90.999
s25.5 -76.666 25.5 -123.999c0 -55.333 -9.83301 -103 -29.5 -143s-47.167 -73.667 -82.5 -101z" />
    <glyph glyph-name="uni1013" unicode="&#x1013;" horiz-adv-x="1362" 
d="M100 569c0 80 15.1631 155.333 45.4961 226s71.833 132.334 124.5 185.001s114.334 94.167 185.001 124.5s146 45.5 226 45.5s155.333 -15.167 226 -45.5s132.334 -71.833 185.001 -124.5s94.167 -114.334 124.5 -185.001s45.5 -146 45.5 -226
c0 -53.333 -6.83301 -104.833 -20.5 -154.5s-33.167 -96 -58.5 -139s-55.666 -82.333 -90.999 -118s-74.5 -66 -117.5 -91s-89.333 -44.5 -139 -58.5s-101.167 -21 -154.5 -21s-104.833 7 -154.5 21s-96 33.5 -139 58.5s-82.167 55.333 -117.5 91s-65.666 75 -90.999 118
s-44.833 89.333 -58.5 139s-20.5 101.167 -20.5 154.5zM426.996 268c34.667 -28.667 73.499 -51.166 116.499 -67.499s88.833 -24.5 137.5 -24.5s94.5 8 137.5 24s81.5 38.667 115.5 68c-17.333 36 -39.666 65.833 -66.999 89.5s-57.166 41.167 -89.499 52.5
s-65.833 17 -100.5 17s-67.834 -6 -99.501 -18s-60.667 -29.833 -87 -53.5s-47.5 -52.834 -63.5 -87.501zM287.995 569.001c0 -30.667 3.33105 -60.1699 9.99805 -88.5029s16 -55.166 28 -80.499c27.333 39.333 59.833 72.333 97.5 99s78 46.834 121 60.501
s87.333 20.667 133 21s90.167 -6.16699 133.5 -19.5s84.333 -33.5 123 -60.5s72.334 -61.167 101.001 -102.5c12.667 26 22.334 53.333 29.001 82s10 58.334 10 89.001c0 54 -10.333 105 -31 153s-48.667 89.667 -84 125s-77 63.333 -125 84s-99 31 -153 31
s-105 -10.333 -153 -31s-89.667 -48.667 -125 -84s-63.333 -77 -84 -125s-31 -99 -31 -153z" />
    <glyph glyph-name="uni1014" unicode="&#x1014;" horiz-adv-x="1377" 
d="M633 174c-11.333 51.333 -31.667 97.832 -61 139.499s-71 75.5 -125 101.5c-36.667 17.333 -68.167 24.5 -94.5 21.5s-45.333 -12.167 -57 -27.5s-15 -35 -10 -59s20.5 -47.833 46.5 -71.5s63.5 -45.167 112.5 -64.5s111.833 -32.666 188.5 -39.999zM944.999 921.999
c-4 4 -11.1631 7.83105 -21.4961 11.498s-22.666 6.83398 -36.999 9.50098s-29.5 5 -45.5 7s-31.333 3.66699 -46 5s-28 2.33301 -40 3s-21 1 -27 1c-12 0 -30.167 -0.166992 -54.5 -0.5s-48.833 -2.66602 -73.5 -6.99902s-45.834 -11.666 -63.501 -21.999
s-25.834 -25.833 -24.501 -46.5c0.666992 -10 9 -20.667 25 -32s37.333 -23 64 -35s57.167 -24.5 91.5 -37.5l108 -40l114 -41.5c38.333 -14 74.5 -28.333 108.5 -43s64.667 -29.667 92 -45s48.666 -30.666 63.999 -45.999c39.333 -39.333 66.333 -79.333 81 -120
s19.167 -80.5 13.5 -119.5s-20.5 -76.333 -44.5 -112s-55.333 -68 -94 -97s-83.667 -54 -135 -75s-106.666 -36.5 -165.999 -46.5v-3v-808c0 -20.667 -4.66699 -38 -14 -52s-21 -24.5 -35 -31.5s-29.167 -10.5 -45.5 -10.5s-31.5 3.5 -45.5 10.5s-25.667 17.5 -35 31.5
s-14 31.333 -14 52v800c-55.333 3.33301 -111.5 11.666 -168.5 24.999s-114.5 33 -172.5 59c-46.667 20.667 -85 46.834 -115 78.501s-52.333 65.5 -67 101.5s-22 73 -22 111s6.33301 73.667 19 107s31.167 63.166 55.5 89.499s54 46 89 59s74.667 18 119 15
s92.833 -17.167 145.5 -42.5c36.667 -17.333 71.167 -38.5 103.5 -63.5s61.333 -54.333 87 -88s47.5 -71.5 65.5 -113.5s31.333 -89 40 -141c30.667 5.33301 59.5 12.333 86.5 21s51.5 19.667 73.5 33c38 22.667 64.167 45.834 78.5 69.501s19.166 46.167 14.499 67.5
s-17.334 41 -38.001 59s-46.334 33 -77.001 45c-24.667 10 -53.667 20.167 -87 30.5l-106 34c-37.333 12.333 -75.333 26 -114 41s-75.834 31.5 -111.501 49.5s-68.5 38.167 -98.5 60.5s-55 47.166 -75 74.499s-33.5 57.5 -40.5 90.5s-5.5 69.167 4.5 108.5
c9.33301 37.333 28.166 68 56.499 92s61.333 42.833 99 56.5s77.5 23.167 119.5 28.5s81.667 8 119 8c26.667 0 57 -1.33301 91 -4s67.667 -7.66699 101 -15s64.833 -17.666 94.5 -30.999s53.834 -31 72.501 -53c14 -16 22 -32.333 24 -49s0 -32.167 -6 -46.5
s-15.167 -26.833 -27.5 -37.5s-26 -17.834 -41 -21.501s-30.667 -3.33398 -47 0.999023s-31.166 14.5 -44.499 30.5z" />
    <glyph glyph-name="uni1015" unicode="&#x1015;" horiz-adv-x="1363" 
d="M339 1087c18 10 35.499 14.4961 52.499 13.4961s32 -6 45 -15s23.333 -20.5 31 -34.5s12 -28.833 13 -44.5s-2.33301 -31 -10 -46s-20.834 -27.5 -39.501 -37.5c-18 -14.667 -35.5 -31.667 -52.5 -51s-32.167 -42.666 -45.5 -69.999s-24.166 -59.833 -32.499 -97.5
s-12.5 -81.834 -12.5 -132.501c0 -54 10.333 -105 31 -153s48.667 -89.667 84 -125s77 -63.333 125 -84s99 -31 153 -31s105 10.333 153 31s89.667 48.667 125 84s63.333 77 84 125s31 99 31 153c1.33301 31.333 0.333008 63.333 -3 96s-10.166 64.5 -20.499 95.5
s-25.166 60.167 -44.499 87.5s-44.333 51 -75 71c-18 11.333 -30.333 24.666 -37 39.999s-9.16699 30.833 -7.5 46.5s7 30.167 16 43.5s20.167 24 33.5 32s28.5 12.167 45.5 12.5s34.167 -5.16699 51.5 -16.5c32.667 -23.333 63 -50.666 91 -81.999
s52.333 -67.833 73 -109.5s36.834 -88.667 48.501 -141s17.5 -110.833 17.5 -175.5c0 -53.333 -7 -104.833 -21 -154.5s-33.5 -96 -58.5 -139s-55.333 -82.167 -91 -117.5s-75 -65.666 -118 -90.999s-89.333 -44.833 -139 -58.5s-101.167 -20.5 -154.5 -20.5
c-80 0 -155.333 15.167 -226 45.5s-132.334 71.833 -185.001 124.5s-94.167 114.334 -124.5 185.001s-45.5 146 -45.5 226c0 66 5.83301 126 17.5 180s28 102.333 49 145s46.167 79.834 75.5 111.501s61.666 57.834 96.999 78.501z" />
    <glyph glyph-name="uni1016" unicode="&#x1016;" horiz-adv-x="1363" 
d="M1039 406c-46.667 14 -88.9971 35.5029 -126.997 64.5029s-70.167 62.667 -96.5 101s-46.5 80.333 -60.5 126s-20.333 92 -19 139s10.666 93.833 27.999 140.5s44 90.667 80 132c6.66699 10 14.667 18.5 24 25.5s19.666 12 30.999 15s23.333 3.66699 36 2
s25.667 -6.83398 39 -15.501c44.667 -28.667 84.834 -62.167 120.501 -100.5s66 -81.333 91 -129s44.167 -99.834 57.5 -156.501s20 -117.334 20 -182.001c0 -53.333 -7 -104.833 -21 -154.5s-33.5 -96 -58.5 -139s-55.333 -82.167 -91 -117.5s-75 -65.666 -118 -90.999
s-89.333 -44.833 -139 -58.5s-101.167 -20.5 -154.5 -20.5c-80 0 -155.333 15.167 -226 45.5s-132.334 71.833 -185.001 124.5s-94.167 114.334 -124.5 185.001s-45.5 146 -45.5 226c0 66 7 128 21 186s33.833 111.333 59.5 160s56.834 92 93.501 130s77.667 69.667 123 95
c18 10 35.5 14.5 52.5 13.5s32 -6 45 -15s23.333 -20.5 31 -34.5s12 -28.833 13 -44.5s-2.33301 -31 -10 -46s-20.834 -27.5 -39.501 -37.5c-28.667 -16 -55.167 -36.667 -79.5 -62s-45.5 -55 -63.5 -89s-32.167 -72.5 -42.5 -115.5s-15.5 -89.833 -15.5 -140.5
c0 -54 10.333 -105 31 -153s48.667 -89.667 84 -125s77 -63.333 125 -84s99 -31 153 -31c40 0 78.167 5.66699 114.5 17s70 27.166 101 47.499s58.667 44.666 83 72.999s44.166 59.5 59.499 93.5zM917.003 944.003c-18 -37.333 -27 -76 -27 -116
s7.16699 -77.833 21.5 -113.5s35.5 -67.5 63.5 -95.5s61 -48.667 99 -62v11c0 86 -14 160 -42 222s-66.333 113.333 -115 154z" />
    <glyph glyph-name="uni1017" unicode="&#x1017;" horiz-adv-x="1363" 
d="M404 901c-35.333 -38 -63.5029 -85.168 -84.5029 -141.501s-31.5 -122.166 -31.5 -197.499c0 -54 10.333 -105 31 -153s48.667 -89.667 84 -125s77 -63.333 125 -84s99 -31 153 -31s105 10.333 153 31s89.667 48.667 125 84s63.333 77 84 125s31 99 31 153
c0 69.333 -9.16699 130.666 -27.5 183.999s-44.166 100 -77.499 140c-14 -24.667 -31.167 -47.167 -51.5 -67.5s-42.666 -37.666 -66.999 -51.999s-50.666 -25.333 -78.999 -33s-57.833 -11.167 -88.5 -10.5s-60.167 5.5 -88.5 14.5s-54.5 21.333 -78.5 37
s-45.5 34.167 -64.5 55.5s-34.833 45 -47.5 71zM396.997 1133c22.667 12.667 44.165 16.6631 64.498 11.9961s37 -14.167 50 -28.5s21.5 -31.666 25.5 -51.999s1 -39.5 -9 -57.5c4.66699 -27.333 15 -50.333 31 -69s34.667 -32.834 56 -42.501s44 -15 68 -16
s47.167 2.5 69.5 10.5s42.166 20.333 59.499 37s30 37.667 38 63c-17.333 18.667 -25.166 39.334 -23.499 62.001s9.33398 42.334 23.001 59.001s31.667 27.834 54 33.501s45.833 0.833984 70.5 -14.499c44.667 -28.667 84.834 -62.167 120.501 -100.5s66 -81.333 91 -129
s44.167 -99.834 57.5 -156.501s20 -117.334 20 -182.001c0 -53.333 -7 -104.833 -21 -154.5s-33.5 -96 -58.5 -139s-55.333 -82.167 -91 -117.5s-75 -65.666 -118 -90.999s-89.333 -44.833 -139 -58.5s-101.167 -20.5 -154.5 -20.5c-80 0 -155.333 15.167 -226 45.5
s-132.334 71.833 -185.001 124.5s-94.167 114.334 -124.5 185.001s-45.5 146 -45.5 226c0 66 7 128 21 186s33.833 111.333 59.5 160s56.834 92 93.501 130s77.667 69.667 123 95z" />
    <glyph glyph-name="uni1018" unicode="&#x1018;" horiz-adv-x="2239" 
d="M130 931c26.667 33.333 56.6748 63.5 90.0078 90.5s69.333 50 108 69s79.5 33.667 122.5 44s87.5 15.5 133.5 15.5c50.667 0 99.834 -6.33301 147.501 -19s92.167 -30.5 133.5 -53.5s79.5 -50.667 114.5 -83s65.5 -68.5 91.5 -108.5c26 40 56.5 76.167 91.5 108.5
s73.167 60 114.5 83s85.666 40.833 132.999 53.5s96.666 19 147.999 19c53.333 0 104.833 -7 154.5 -21s96 -33.5 139 -58.5s82.167 -55.333 117.5 -91s65.666 -75 90.999 -118s44.833 -89.333 58.5 -139s20.5 -101.167 20.5 -154.5c0 -80 -15.167 -155.333 -45.5 -226
s-71.833 -132.334 -124.5 -185.001s-114.334 -94.167 -185.001 -124.5s-146 -45.5 -226 -45.5c-28 0 -51.833 4.66699 -71.5 14s-35 21 -46 35s-17.167 29 -18.5 45s2.66699 31 12 45s24.166 25.667 44.499 35s46.833 14 79.5 14c54 0 105 10.333 153 31
s89.667 48.667 125 84s63.333 77 84 125s31 99 31 153s-10.333 105 -31 153s-48.667 89.667 -84 125s-77 63.333 -125 84s-99 31 -153 31c-53.333 0 -103.5 -9.83301 -150.5 -29.5s-88.167 -46.667 -123.5 -81s-63.5 -74.666 -84.5 -120.999s-32.5 -95.833 -34.5 -148.5v-13
c0 -80 -15.167 -155.333 -45.5 -226s-71.833 -132.334 -124.5 -185.001s-114.334 -94.167 -185.001 -124.5s-146 -45.5 -226 -45.5c-47.333 0 -93 5.33301 -137 16s-85.833 26 -125.5 46s-76.334 44.167 -110.001 72.5s-63.834 60.166 -90.501 95.499
c-12.667 16.667 -19.5 33.334 -20.5 50.001s2 32 9 46s16.833 26 29.5 36s26.667 16.333 42 19s31 1.33398 47 -3.99902s30.333 -16.333 43 -33c36 -48 81 -86 135 -114s113.333 -42 178 -42c54 0 105 10.333 153 31s89.667 48.667 125 84s63.333 77 84 125s31 99 31 153
s-10.333 105 -31 153s-48.667 89.667 -84 125s-77 63.333 -125 84s-99 31 -153 31c-62.667 0 -120.5 -13.167 -173.5 -39.5s-97.5 -62.166 -133.5 -107.499c-13.333 -16.667 -28 -27.5 -44 -32.5s-31.667 -5.83301 -47 -2.5s-29.333 10 -42 20s-22.167 22.167 -28.5 36.5
s-8.83301 29.666 -7.5 45.999s8.66602 32.833 21.999 49.5z" />
    <glyph glyph-name="uni1019" unicode="&#x1019;" horiz-adv-x="1363" 
d="M330 394c26.667 39.333 58.668 72.502 96.001 99.502s77.333 47.5 120 61.5s86.667 21.333 132 22s89.666 -5.16602 132.999 -17.499s84.333 -31.666 123 -57.999s72.667 -59.5 102 -99.5c12 25.333 21.333 52.166 28 80.499s10 57.5 10 87.5
c0 49.333 -4.5 93.5 -13.5 132.5s-21.5 73.5 -37.5 103.5s-34.833 55.833 -56.5 77.5s-45.167 40.167 -70.5 55.5c-18 11.333 -30.333 24.666 -37 39.999s-9.16699 30.833 -7.5 46.5s7 30.167 16 43.5s20.167 24 33.5 32s28.333 12.167 45 12.5s34 -5.16699 52 -16.5
c36.667 -20 71.167 -46.5 103.5 -79.5s60.5 -71.833 84.5 -116.5s42.833 -94.834 56.5 -150.501s20.5 -115.834 20.5 -180.501c0 -53.333 -7 -104.833 -21 -154.5s-33.5 -96 -58.5 -139s-55.333 -82.167 -91 -117.5s-75 -65.666 -118 -90.999s-89.333 -44.833 -139 -58.5
s-101.167 -20.5 -154.5 -20.5c-80 0 -155.333 15.167 -226 45.5s-132.334 71.833 -185.001 124.5s-94.167 114.334 -124.5 185.001s-45.5 146 -45.5 226c0 66 7.83301 127.833 23.5 185.5s36.334 109.5 62.001 155.5s54.834 85.333 87.501 118s66 57 100 73
c18 10 35.5 14.5 52.5 13.5s32 -6 45 -15s23.333 -20.5 31 -34.5s12 -28.833 13 -44.5s-2.5 -31 -10.5 -46s-21 -27.5 -39 -37.5c-16.667 -16 -34.834 -35 -54.501 -57s-38.167 -47.833 -55.5 -77.5s-32.166 -63.834 -44.499 -102.501s-19.833 -82.334 -22.5 -131.001
c0 -32 3.66699 -62.667 11 -92s17.666 -57.333 30.999 -84zM936.001 271.002c-18 34.667 -40.667 63.499 -68 86.499s-57 40 -89 51s-65.167 16.167 -99.5 15.5s-67.166 -7.16699 -98.499 -19.5s-60 -30.166 -86 -53.499s-46.667 -52 -62 -86c34 -28 72 -49.667 114 -65
s86.667 -23 134 -23c49.333 0 95.666 8.16699 138.999 24.5s82 39.5 116 69.5z" />
    <glyph glyph-name="uni101A" unicode="&#x101a;" horiz-adv-x="2338" 
d="M1169 252c-26 -40 -56.5039 -76.168 -91.5039 -108.501s-73.333 -60.166 -115 -83.499s-86.167 -41.333 -133.5 -54s-96.666 -19 -147.999 -19c-53.333 0 -104.833 7 -154.5 21s-96 33.5 -139 58.5s-82.167 55.333 -117.5 91s-65.666 75 -90.999 118
s-44.833 89.333 -58.5 139s-20.5 101.167 -20.5 154.5c0 130.667 22.333 240.334 67 329.001s112.667 158.667 204 210c18 10 35.5 14.333 52.5 13s32 -6.33301 45 -15s23.333 -20.167 31 -34.5s12 -29.333 13 -45s-2.5 -31 -10.5 -46s-21 -27.5 -39 -37.5
c-28.667 -16 -53.834 -35 -75.501 -57s-39.834 -48 -54.501 -78s-25.834 -64.667 -33.501 -104s-11.5 -84.333 -11.5 -135c0 -54 10.333 -105 31 -153s48.667 -89.667 84 -125s77 -63.333 125 -84s99 -31 153 -31s105 10.333 153 31s89.667 48.667 125 84s63.333 77 84 125
s31 99 31 153c0 48.667 -3.5 91.667 -10.5 129s-17.667 70.666 -32 99.999s-32.666 55.333 -54.999 78s-48.833 44 -79.5 64c-18 11.333 -30.333 24.666 -37 39.999s-9.16699 30.833 -7.5 46.5s7 30.334 16 44.001s20.167 24.5 33.5 32.5s28.333 12 45 12
s34 -5.66699 52 -17c44 -28.667 82.5 -60 115.5 -94s60.5 -72.333 82.5 -115s38.5 -90 49.5 -142s16.5 -110.333 16.5 -175c0 -2.66699 0.166992 -5.16699 0.5 -7.5s0.5 -5.16602 0.5 -8.49902c2 -52.667 13.5 -102.167 34.5 -148.5s49.167 -86.666 84.5 -120.999
s76.5 -61.333 123.5 -81s97.167 -29.5 150.5 -29.5c54 0 105 10.333 153 31s89.667 48.667 125 84s63.333 77 84 125s31 99 31 153s-10.333 105 -31 153s-48.667 89.667 -84 125s-77 63.333 -125 84s-99 31 -153 31c-32.667 0 -59.167 4.66699 -79.5 14
s-35.166 21 -44.499 35s-13.333 29 -12 45s7.5 31 18.5 45s26.333 25.667 46 35s43.5 14 71.5 14c80 0 155.333 -15.167 226 -45.5s132.334 -71.833 185.001 -124.5s94.167 -114.334 124.5 -185.001s45.5 -146 45.5 -226c0 -53.333 -6.83301 -104.833 -20.5 -154.5
s-33.167 -96 -58.5 -139s-55.666 -82.333 -90.999 -118s-74.5 -66 -117.5 -91s-89.333 -44.5 -139 -58.5s-101.167 -21 -154.5 -21c-51.333 0 -100.666 6.33301 -147.999 19s-91.833 30.667 -133.5 54s-80 51.166 -115 83.499s-65.5 68.5 -91.5 108.5z" />
    <glyph glyph-name="uni101B" unicode="&#x101b;" horiz-adv-x="1440" 
d="M356 349c30.667 -46 69.667 -83.832 117 -113.499s99.333 -48.167 156 -55.5c-4 31.333 -14.5 59.833 -31.5 85.5s-38.167 46.5 -63.5 62.5s-53.333 26.167 -84 30.5s-62 1.16602 -94 -9.50098zM681 -11.999c-80 0 -155.332 15.166 -225.999 45.499
s-132.334 71.833 -185.001 124.5s-94.167 114.334 -124.5 185.001s-45.5 146 -45.5 226s15.167 155.333 45.5 226s71.833 132.334 124.5 185.001s114.334 94.167 185.001 124.5s146 45.5 226 45.5c80.667 0 156.334 -15.167 227.001 -45.5s132.334 -71.833 185.001 -124.5
s94.167 -114.334 124.5 -185.001s45.5 -146 45.5 -226v-1252c0 -13.333 3.33301 -23.166 10 -29.499s13.667 -9.5 21 -9.5h51c20.667 0 38.167 -4.66699 52.5 -14s24.833 -21 31.5 -35s10.167 -29.167 10.5 -45.5s-3.16699 -31.5 -10.5 -45.5s-18 -25.667 -32 -35
s-31.333 -14 -52 -14h-51c-40.667 0 -75 8 -103 24s-50.667 35.667 -68 59s-29.833 48.166 -37.5 74.499s-11.5 49.833 -11.5 70.5v1252c0 54 -10.333 105 -31 153s-48.667 89.667 -84 125s-76.833 63.333 -124.5 84s-98.834 31 -153.501 31
c-54 0 -104.833 -10.333 -152.5 -31s-89.334 -48.667 -125.001 -84s-63.834 -77 -84.501 -125s-31 -99 -31 -153c0 -13.333 0.666992 -26.5 2 -39.5s3.33301 -26.167 6 -39.5c43.333 16.667 86.833 24.667 130.5 24s85 -8.5 124 -23.5s74.5 -36.167 106.5 -63.5
s58.5 -59 79.5 -95s35.333 -75.833 43 -119.5s6.16699 -89.167 -4.5 -136.5c-1.33301 -22.667 -9.83301 -43 -25.5 -61s-38.5 -27 -68.5 -27z" />
    <glyph glyph-name="uni101C" unicode="&#x101c;" horiz-adv-x="2336" 
d="M1262 588l-0.00488281 -9.99902v-21c2 -53.333 13.5 -103 34.5 -149s49.167 -86.167 84.5 -120.5s76.5 -61.333 123.5 -81s97.167 -29.5 150.5 -29.5c54 0 105 10.333 153 31s89.667 48.667 125 84s63.333 77 84 125s31 99 31 153s-10.333 105 -31 153
s-48.667 89.667 -84 125s-77 63.333 -125 84s-99 31 -153 31c-23.333 0 -43.666 2.5 -60.999 7.5s-31.5 11.5 -42.5 19.5s-19.167 17.333 -24.5 28s-8 21.667 -8 33c0 12 3 24 9 36s14.833 22.833 26.5 32.5s25.834 17.334 42.501 23.001s36 8.5 58 8.5
c80 0 155.333 -15.167 226 -45.5s132.334 -71.833 185.001 -124.5s94.167 -114.334 124.5 -185.001s45.5 -146 45.5 -226c0 -53.333 -6.83301 -104.833 -20.5 -154.5s-33.167 -96 -58.5 -139s-55.666 -82.333 -90.999 -118s-74.5 -66 -117.5 -91s-89.333 -44.5 -139 -58.5
s-101.167 -21 -154.5 -21c-79.333 0 -154.166 15 -224.499 45s-132 70.833 -185 122.5s-95 112.334 -126 182.001s-46.5 144.167 -46.5 223.5c0 4 0.166992 8.16699 0.5 12.5s0.5 7.16602 0.5 8.49902c-2 52.667 -13.5 102.167 -34.5 148.5s-49.167 86.666 -84.5 120.999
s-76.5 61.5 -123.5 81.5s-97.167 30 -150.5 30c-54 0 -105 -10.333 -153 -31s-89.667 -48.667 -125 -84s-63.333 -77 -84 -125s-31 -99 -31 -153s10.333 -105 31 -153s48.667 -89.667 84 -125s77 -63.333 125 -84s99 -31 153 -31c23.333 0 43.5 -2.5 60.5 -7.5
s31.167 -11.667 42.5 -20s19.666 -17.833 24.999 -28.5s8 -21.667 8 -33c0 -12 -3 -24 -9 -36s-14.833 -22.833 -26.5 -32.5s-25.834 -17.334 -42.501 -23.001s-36 -8.5 -58 -8.5c-53.333 0 -104.833 7 -154.5 21s-96 33.5 -139 58.5s-82.167 55.333 -117.5 91
s-65.666 75 -90.999 118s-44.833 89.333 -58.5 139s-20.5 101.167 -20.5 154.5c0 80 15.167 155.333 45.5 226s71.833 132.334 124.5 185.001s114.334 94.167 185.001 124.5s146 45.5 226 45.5c78.667 0 152.834 -14.667 222.501 -44s130.667 -69.5 183 -120.5
s94.166 -110.667 125.499 -179s48 -141.5 50 -219.5z" />
    <glyph glyph-name="uni101D" unicode="&#x101d;" horiz-adv-x="1363" 
d="M682 1150c80 0 155.333 -15.1631 226 -45.4961s132.334 -71.833 185.001 -124.5s94.167 -114.334 124.5 -185.001s45.5 -146 45.5 -226s-15.167 -155.333 -45.5 -226s-71.833 -132.334 -124.5 -185.001s-114.334 -94.167 -185.001 -124.5s-146 -45.5 -226 -45.5
c-53.333 0 -104.833 6.83301 -154.5 20.5s-96 33.167 -139 58.5s-82.333 55.666 -118 90.999s-66 74.5 -91 117.5s-44.5 89.333 -58.5 139s-21 101.167 -21 154.5s7 104.833 21 154.5s33.5 96 58.5 139s55.333 82.167 91 117.5s75 65.666 118 90.999s89.333 44.833 139 58.5
s101.167 20.5 154.5 20.5zM682 962.004c-54 0 -105 -10.333 -153 -31s-89.667 -48.667 -125 -84s-63.333 -77 -84 -125s-31 -99 -31 -153s10.333 -105 31 -153s48.667 -89.667 84 -125s77 -63.333 125 -84s99 -31 153 -31s105 10.333 153 31s89.667 48.667 125 84
s63.333 77 84 125s31 99 31 153s-10.333 105 -31 153s-48.667 89.667 -84 125s-77 63.333 -125 84s-99 31 -153 31z" />
    <glyph glyph-name="uni101E" unicode="&#x101e;" horiz-adv-x="2239" 
d="M130 206c-13.333 16 -20.6748 32.498 -22.0078 49.498s1.16699 32.5 7.5 46.5s15.833 26 28.5 36s26.667 16.667 42 20s31 2.5 47 -2.5s30.667 -15.833 44 -32.5c36 -45.333 80.5 -81.166 133.5 -107.499s110.833 -39.5 173.5 -39.5c54 0 105 10.333 153 31
s89.667 48.667 125 84s63.333 77 84 125s31 99 31 153s-10.333 105 -31 153s-48.667 89.667 -84 125s-77 63.333 -125 84s-99 31 -153 31c-64.667 0 -124 -14 -178 -42s-99 -66 -135 -114c-12.667 -16.667 -27 -27.667 -43 -33s-31.667 -6.66602 -47 -3.99902
s-29.333 9 -42 19s-22.5 22 -29.5 36s-10 29.333 -9 46s7.83301 33.334 20.5 50.001c26.667 34.667 56.834 66.167 90.501 94.5s70.334 52.5 110.001 72.5s81.5 35.5 125.5 46.5s89.667 16.5 137 16.5c80 0 155.333 -15.167 226 -45.5s132.334 -71.833 185.001 -124.5
s94.167 -114.334 124.5 -185.001s45.5 -146 45.5 -226v-13c2 -52.667 13.5 -102.167 34.5 -148.5s49.167 -86.666 84.5 -120.999s76.5 -61.333 123.5 -81s97.167 -29.5 150.5 -29.5c54 0 105 10.333 153 31s89.667 48.667 125 84s63.333 77 84 125s31 99 31 153
s-10.333 105 -31 153s-48.667 89.667 -84 125s-77 63.333 -125 84s-99 31 -153 31c-32.667 0 -59.167 4.66699 -79.5 14s-35.166 21 -44.499 35s-13.333 29 -12 45s7.5 31 18.5 45s26.333 25.667 46 35s43.5 14 71.5 14c80 0 155.333 -15.167 226 -45.5
s132.334 -71.833 185.001 -124.5s94.167 -114.334 124.501 -185.001c30.333 -70.667 45.5 -146 45.5 -226c0 -53.333 -6.83301 -104.833 -20.5 -154.5s-33.167 -96 -58.5 -139s-55.666 -82.333 -90.999 -118s-74.5 -66 -117.5 -91s-89.333 -44.5 -139 -58.5
s-101.167 -21 -154.5 -21c-51.333 0 -100.666 6.33301 -147.999 19s-91.666 30.5 -132.999 53.5s-79.5 50.667 -114.5 83s-65.5 68.5 -91.5 108.5c-26 -40 -56.5 -76.167 -91.5 -108.5s-73.167 -60 -114.5 -83s-85.833 -40.833 -133.5 -53.5s-96.834 -19 -147.501 -19
c-46 0 -90.5 5.16699 -133.5 15.5s-83.833 25 -122.5 44s-74.667 42 -108 69s-63.333 57.167 -90 90.5z" />
    <glyph glyph-name="uni101F" unicode="&#x101f;" horiz-adv-x="2337" 
d="M1074 587l-0.00292969 2.00098c-0.666992 52.667 -7.33398 99.667 -20.001 141s-28.167 76.666 -46.5 105.999s-37.666 53.166 -57.999 71.499s-38.833 31.5 -55.5 39.5c-18 11.333 -30.333 24.833 -37 40.5s-9.16699 31.167 -7.5 46.5s7 29.833 16 43.5
s20.167 24.5 33.5 32.5s28.333 12.167 45 12.5s34 -5.16699 52 -16.5l56 -40.5c18 -13 35 -26.667 51 -41s31.167 -30.166 45.5 -47.499s27.833 -37.666 40.5 -60.999c26.667 36 57 68.333 91 97s70.833 53.334 110.5 74.001s81.667 36.5 126 47.5s90.5 16.5 138.5 16.5
c80 0 155.333 -15.333 226 -46s132.334 -72.334 185.001 -125.001s94.334 -114.334 125 -185.001c30.667 -70.667 46 -146 46 -226c0 -53.333 -7 -104.833 -21 -154.5s-33.5 -96 -58.5 -139s-55.333 -82.167 -91 -117.5s-75 -65.666 -118 -90.999
s-89.333 -44.833 -139 -58.5s-101.167 -20.5 -154.5 -20.5c-28 0 -51.833 4.66699 -71.5 14s-35 21 -46 35s-17.167 29 -18.5 45s2.66699 31 12 45s24.166 25.667 44.499 35s46.833 14 79.5 14c54 0 105 10.333 153 31s89.667 48.667 125 84s63.333 77 84 125s31 99 31 153
s-10.333 105 -31 153s-48.667 89.667 -84 125s-77 63.333 -125 84s-99 31 -153 31c-52.667 0 -102.334 -9.83301 -149.001 -29.5s-87.667 -46.5 -123 -80.5s-63.666 -73.833 -84.999 -119.5s-33 -94.5 -35 -146.5v-10c0 -53.333 -6.83301 -104.833 -20.5 -154.5
s-33.167 -96 -58.5 -139s-55.666 -82.333 -90.999 -118s-74.666 -66 -117.999 -91s-89.833 -44.5 -139.5 -58.5s-101.167 -21 -154.5 -21s-104.833 7 -154.5 21s-96 33.5 -139 58.5s-82.167 55.333 -117.5 91s-65.666 75 -90.999 118s-44.833 89.333 -58.5 139
s-20.5 101.167 -20.5 154.5c0 65.333 6.66699 124.5 20 177.5s31.666 100.833 54.999 143.5s50.666 80.5 81.999 113.5s65 62.5 101 88.5c18 10 35.333 14.333 52 13s31.5 -6.33301 44.5 -15s23.5 -20.167 31.5 -34.5s12.333 -29.333 13 -45s-2.83301 -31 -10.5 -46
s-20.5 -27.5 -38.5 -37.5c-21.333 -16 -41.666 -34.167 -60.999 -54.5s-36.5 -44.5 -51.5 -72.5s-27 -60.833 -36 -98.5s-13.5 -81.834 -13.5 -132.501c0 -54 10.333 -105 31 -153s48.667 -89.667 84 -125s77 -63.333 125 -84s99 -31 153 -31
c54.667 0 105.834 10.333 153.501 31s89.167 48.667 124.5 84s63.333 77 84 125s31 99 31 153v1v10z" />
    <glyph glyph-name="uni1020" unicode="&#x1020;" horiz-adv-x="1265" 
d="M1107 -113c0 -8 -1.66699 -16.0039 -5 -24.0039s-7.16602 -15.333 -11.499 -22s-9.16602 -12.5 -14.499 -17.5s-10 -8.5 -14 -10.5c-32 -20.667 -66.833 -38.334 -104.5 -53.001s-76.334 -26.667 -116.001 -36s-79.667 -16.166 -120 -20.499
s-78.833 -6.83301 -115.5 -7.5c-50 -0.666992 -99.333 2.5 -148 9.5s-96.667 18.5 -144 34.5v-362c0 -14 2.66699 -27.167 8 -39.5s12.5 -23 21.5 -32s19.5 -16.167 31.5 -21.5s25 -8 39 -8h453c14 0 27.167 2.66699 39.5 8s23 12.5 32 21.5s16.167 19.667 21.5 32
s8 25.5 8 39.5c-1.33301 25.333 -7.33301 45 -18 59s-23.5 23.667 -38.5 29s-31 7.16602 -48 5.49902s-32.5 -5.5 -46.5 -11.5c-16 -6.66699 -30.333 -14.167 -43 -22.5s-24.5 -17.166 -35.5 -26.499l-31 -27.5l-28.5 -25.5c-16 -14 -32.333 -22.167 -49 -24.5
s-32 -0.833008 -46 4.5s-26.167 13.833 -36.5 25.5s-17.166 24.834 -20.499 39.501s-2.66602 29.834 2.00098 45.501s15 30.167 31 43.5l65 55.5c20.667 17 42 32.333 64 46s45.333 25.334 70 35.001s53 16.5 85 20.5c42 6 81.833 2.83301 119.5 -9.5
s70.667 -31.166 99 -56.499s50.833 -55.833 67.5 -91.5s25 -73.5 25 -113.5s-7.5 -77.5 -22.5 -112.5s-35.5 -65.5 -61.5 -91.5s-56.5 -46.667 -91.5 -62s-72.5 -23 -112.5 -23h-453c-40 0 -77.5 7.5 -112.5 22.5s-65.5 35.667 -91.5 62s-46.667 57 -62 92
s-23 72.5 -23 112.5v489c-4 18 -2.66699 36 4 54s17 32.667 31 44s30.667 18.166 50 20.499s39.333 -3.16699 60 -16.5c50 -32 103 -54.167 159 -66.5s113 -18.5 171 -18.5c24.667 0 50.667 1.16699 78 3.5s54.833 6 82.5 11s54.834 11.5 81.501 19.5s52 18 76 30v89
c-36 -16 -73.833 -28.333 -113.5 -37s-80.834 -13 -123.501 -13c-80 0 -155.333 15.167 -226 45.5s-132.334 71.833 -185.001 124.5s-94.167 114.334 -124.5 185.001s-45.5 146 -45.5 226c0 53.333 6.83301 104.833 20.5 154.5s33.167 96 58.5 139s55.666 82.333 90.999 118
s74.5 66 117.5 91s89.333 44.5 139 58.5s101.167 21 154.5 21c46 0 90.5 -5.16699 133.5 -15.5s83.833 -25 122.5 -44s74.667 -42 108 -69s63.333 -57.167 90 -90.5c13.333 -16.667 20.666 -33.167 21.999 -49.5s-1.16699 -31.666 -7.5 -45.999s-15.833 -26.5 -28.5 -36.5
s-26.667 -16.667 -42 -20s-31 -2.5 -47 2.5s-30.667 15.833 -44 32.5c-36 45.333 -80.5 81.166 -133.5 107.499s-110.833 39.5 -173.5 39.5c-54 0 -105 -10.333 -153 -31s-89.667 -48.667 -125 -84s-63.333 -77 -84 -125s-31 -99 -31 -153s10.333 -105 31 -153
s48.667 -89.667 84 -125s77 -63.333 125 -84s99 -31 153 -31c64.667 0 124 14 178 42s99 65.667 135 113c12.667 16.667 27 27.834 43 33.501s31.667 7.16699 47 4.5s29.333 -9 42 -19s22.5 -22 29.5 -36s10 -29.333 9 -46s-7.83301 -33.334 -20.5 -50.001
c-6 -8 -12.167 -15.667 -18.5 -23l-19.5 -22v-23v-52.5c0 -21 0.166992 -43.667 0.5 -68s0.5 -46.833 0.5 -67.5v-52v-22z" />
    <glyph glyph-name="uni1021" unicode="&#x1021;" horiz-adv-x="2229" 
d="M1537 176l10.001 0.000976562c50 0 97.167 8.66699 141.5 26s83.833 41.666 118.5 72.999c-25.333 18 -52 27.833 -80 29.5s-54.667 -2.83301 -80 -13.5s-47.833 -26 -67.5 -46s-33.834 -43 -42.501 -69zM1080 563.001c35.333 -26.667 62.8369 -59.8359 82.5039 -99.5029
s29.5 -87.5 29.5 -143.5c0 -47.333 -8.5 -88.5 -25.5 -123.5s-39.833 -65.167 -68.5 -90.5s-61.834 -46.166 -99.501 -62.499s-76.667 -29.166 -117 -38.499s-80.833 -15.833 -121.5 -19.5s-78.667 -5.5 -114 -5.5c-55.333 0 -112.333 4.33301 -171 13
s-113.334 23.667 -164.001 45s-94.334 50 -131.001 86s-61 81.333 -73 136c-4.66699 20.667 -3.83398 38.834 2.49902 54.501s15.5 28.5 27.5 38.5s26 16.667 42 20s31.5 3.16602 46.5 -0.500977s28.5 -11.334 40.5 -23.001s20.333 -27.834 25 -48.501
c3.33301 -15.333 12.666 -30.666 27.999 -45.999s37.333 -29.5 66 -42.5s64.5 -23.5 107.5 -31.5s94.167 -12 153.5 -12c14 0 32.5 0.5 55.5 1.5s47.833 3.16699 74.5 6.5s53.5 8.33301 80.5 15s51.5 15.667 73.5 27s39.833 25.166 53.5 41.499s20.5 36.166 20.5 59.499
c0 18.667 -3.5 36.834 -10.5 54.501s-20.833 33.5 -41.5 47.5s-49.834 25.167 -87.501 33.5s-87.167 12.5 -148.5 12.5c-22 0 -40.167 4.66699 -54.5 14s-25.166 21 -32.499 35s-11 29.333 -11 46s3.66699 32 11 46s18.166 25.667 32.499 35s32.5 14 54.5 14
c61.333 0 110.833 4.16699 148.5 12.5s66.834 19.5 87.501 33.5s34.5 30 41.5 48s10.5 36.333 10.5 55c0 23.333 -6.83301 43.166 -20.5 59.499s-31.5 30.166 -53.5 41.499s-46.5 20.333 -73.5 27s-53.833 11.667 -80.5 15s-51.5 5.5 -74.5 6.5s-41.5 1.5 -55.5 1.5
c-13.333 0 -31.333 -0.666992 -54 -2s-47.334 -3.83301 -74.001 -7.5s-53.5 -9 -80.5 -16s-51.5 -16 -73.5 -27s-40 -24.667 -54 -41s-21 -35.5 -21 -57.5c0 -21.333 4.83301 -39.666 14.5 -54.999s25.834 -29.666 48.501 -42.999c18 -10 30.833 -22.5 38.5 -37.5
s11.167 -30.333 10.5 -46s-5 -30.667 -13 -45s-18.333 -26 -31 -35s-27.5 -14.167 -44.5 -15.5s-34.5 3.33398 -52.5 14.001c-47.333 26 -85.833 60.833 -115.5 104.5s-44.5 96.5 -44.5 158.5c0 46 8.66699 86.5 26 121.5s40.5 65.167 69.5 90.5s62.333 46.333 100 63
s76.667 29.834 117 39.501s80.666 16.5 120.999 20.5s77.833 6 112.5 6c40 0 83 -2.33301 129 -7s91.5 -13.334 136.5 -26.001s87.167 -29.834 126.5 -51.501s72 -49.5 98 -83.5c53.333 53.333 115 95 185 125s145.333 45 226 45c53.333 0 104.833 -6.83301 154.5 -20.5
s96 -33.167 139 -58.5s82.333 -55.666 118 -90.999s66 -74.5 91 -117.5s44.5 -89.333 58.5 -139s21 -101.167 21 -154.5s-7 -104.833 -21 -154.5s-33.5 -96 -58.5 -139s-55.333 -82.167 -91 -117.5s-75 -65.666 -118 -90.999s-89.333 -44.833 -139 -58.5
s-101.167 -20.5 -154.5 -20.5c-37.333 0 -66.666 5.83301 -87.999 17.5s-36.333 32.167 -45 61.5c-8 26.667 -11.167 53.5 -9.5 80.5s7 52.833 16 77.5s21.5 48 37.5 70s34.333 41.667 55 59c26.667 22.667 56 40 88 52s64.5 18.5 97.5 19.5s65.5 -3.33301 97.5 -13
s61.667 -24.5 89 -44.5c17.333 30 30.833 61.833 40.5 95.5s14.5 68.834 14.5 105.501c0 54 -10.333 105 -31 153s-48.667 89.667 -84 125s-77 63.333 -125 84s-99 31 -153 31c-42.667 0 -83.334 -6.33301 -122.001 -19s-74 -30.5 -106 -53.5s-60 -50.333 -84 -82
s-43 -66.5 -57 -104.5c-9.33301 -29.333 -22.166 -55.5 -38.499 -78.5s-36.166 -43.5 -59.499 -61.5z" />
    <glyph glyph-name="uni1022" unicode="&#x1022;" horiz-adv-x="2343" 
d="M1174 885c26 40 56.3291 76.167 90.9961 108.5s72.834 60.166 114.501 83.499s86.334 41.333 134.001 54s97.167 19 148.5 19c53.333 0 104.833 -7 154.5 -21s96 -33.5 139 -58.5s82.167 -55.333 117.5 -91s65.666 -75 91 -118c25.333 -43 44.833 -89.333 58.5 -139
s20.5 -101.167 20.5 -154.5c0 -80 -15.167 -155.333 -45.5 -226s-71.833 -132.334 -124.5 -185.001s-114.334 -94.167 -185.001 -124.5s-146 -45.5 -226 -45.5c-28 0 -51.833 4.66699 -71.5 14s-35 21 -46 35s-17.167 29 -18.5 45s2.66699 31 12 45s24.166 25.667 44.499 35
s46.833 14 79.5 14c54 0 105 10.333 153 31s89.667 48.667 125 84s63.333 77 84 125s31 99 31 153s-10.333 105 -31 153s-48.667 89.667 -84 125s-77 63.333 -125 84s-99 31 -153 31c-53.333 0 -103.5 -9.83301 -150.5 -29.5s-88.167 -46.667 -123.5 -81
s-63.666 -74.666 -84.999 -120.999s-32.666 -95.833 -33.999 -148.5c0 -3.33301 -0.166992 -6.16602 -0.5 -8.49902s-0.833008 -4.83301 -1.5 -7.5c0 -64.667 -6.66699 -124.5 -20 -179.5s-32.5 -105.5 -57.5 -151.5s-55.333 -87.5 -91 -124.5s-75.5 -69.833 -119.5 -98.5
c-18 -11.333 -35.333 -17 -52 -17s-31.667 4 -45 12s-24.5 18.833 -33.5 32.5s-14.333 28.334 -16 44.001s0.833008 31.167 7.5 46.5s18.667 28.666 36 39.999c30.667 20 58.667 42.833 84 68.5s46.666 54.834 63.999 87.501s30.833 69.167 40.5 109.5
s14.5 84.833 14.5 133.5c0 54 -10.333 105 -31 153s-48.667 89.667 -84 125s-77 63.333 -125 84s-99 31 -153 31s-104.833 -10.167 -152.5 -30.5s-89.167 -48.166 -124.5 -83.499s-63.5 -76.666 -84.5 -123.999s-31.5 -98 -31.5 -152c0 -17.333 3.83301 -29.5 11.5 -36.5
s18.5 -13.833 32.5 -20.5c32 -14.667 63.833 -28.334 95.5 -41.001s60.167 -28.334 85.5 -47.001s46 -42.5 62 -71.5s24 -67.167 24 -114.5c0 -57.333 -13.333 -105 -40 -143s-61 -65.833 -103 -83.5s-89.333 -24.834 -142 -21.501s-105 17.333 -157 42
c-18.667 8.66699 -33 20 -43 34s-16 28.667 -18 44s-0.333008 30 5 44s13.166 25.333 23.499 34s23 13.834 38 15.501s31.833 -2.5 50.5 -12.5c28.667 -15.333 53.667 -25.333 75 -30s39.333 -5.83398 54 -3.50098s26.5 7.16602 35.5 14.499s16 15.5 21 24.5
s8.33301 17.333 10 25s2.5 13.167 2.5 16.5c0 15.333 -4 27.333 -12 36s-18 15.667 -30 21c-32.667 14 -64.667 27 -96 39s-59.5 26.833 -84.5 44.5s-45.5 40 -61.5 67s-25 62.833 -27 107.5v13v2v2v2c0.666992 80 16.334 155 47.001 225s72.334 131 125.001 183
s114 93 184 123s145 45 225 45c50.667 0 99.834 -6.33301 147.501 -19s92.334 -30.667 134.001 -54s80 -51.166 115 -83.499s65.5 -68.5 91.5 -108.5z" />
    <glyph glyph-name="uni1023" unicode="&#x1023;" horiz-adv-x="2338" 
d="M1168 -207c39.333 49.333 89.3252 89.333 149.992 120s127.334 46 200.001 46c60.667 0 117.834 -11.667 171.501 -35s100.5 -55 140.5 -95s71.667 -86.833 95 -140.5s35 -110.834 35 -171.501v-168c0 -4 0.166992 -10.167 0.5 -18.5s1.5 -16.666 3.5 -24.999
s5.16699 -15.833 9.5 -22.5s10.5 -10 18.5 -10h88c20.667 0 37.834 -4.5 51.5 -13.5c13.667 -9 23.834 -20.333 30.5 -34c6.66699 -13.667 10 -28.5 10 -44.5s-3.33301 -30.833 -10 -44.5s-16.834 -25 -30.5 -34c-13.667 -9 -30.834 -13.5 -51.5 -13.5h-88
c-36.667 0 -68.5 7.33301 -95.5 22s-49.5 34.167 -67.5 58.5s-31.333 52 -40 83s-13 62.833 -13 95.5v169c0 36 -6.83301 69.667 -20.5 101s-32.167 58.666 -55.5 81.999s-50.666 41.666 -81.999 54.999s-64.666 20 -99.999 20c-34.667 0 -67.5 -6.66699 -98.5 -20
s-58.5 -32.5 -82.5 -57.5s-43.667 -55.333 -59 -91s-25 -75.834 -29 -120.501c-13.333 -26 -29.833 -44 -49.5 -54s-38.667 -12.833 -57 -8.5s-34.166 15.333 -47.499 33s-20 41.167 -20 70.5c0 34.667 -6.66699 67.167 -20 97.5s-31.5 56.666 -54.5 78.999
s-50 39.833 -81 52.5s-64.5 19 -100.5 19c-35.333 0 -68.666 -6.66699 -99.999 -20s-58.666 -31.666 -81.999 -54.999s-41.666 -50.666 -54.999 -81.999s-20 -65 -20 -101c0 -31.333 5.16699 -60.833 15.5 -88.5s24.5 -52.5 42.5 -74.5
c13.333 -16 20.833 -32.167 22.5 -48.5s-0.666016 -31.5 -6.99902 -45.5s-15.666 -26 -27.999 -36s-25.833 -16.667 -40.5 -20s-30 -2.83301 -46 1.5s-30.333 14.5 -43 30.5c-32 38.667 -56.667 81.834 -74 129.501s-26 98.167 -26 151.5
c0 60.667 11.5 117.834 34.5 171.501s54.5 100.5 94.5 140.5s86.667 71.667 140 95s110.666 35 171.999 35c71.333 0 137.166 -14.833 197.499 -44.5s110.833 -70.167 151.5 -121.5zM1168.99 885c26 40 56.5068 76.1699 91.5068 108.503s73.333 60.166 115 83.499
s86.167 41.333 133.5 54s96.666 19 147.999 19c53.333 0 104.833 -7 154.5 -21s96 -33.5 139 -58.5s82.167 -55.333 117.5 -91s65.666 -75 90.999 -118s44.833 -89.333 58.5 -139s20.5 -101.167 20.5 -154.5c0 -80 -15.167 -155.333 -45.5 -226
s-71.833 -132.334 -124.5 -185.001s-114.334 -94.167 -185.001 -124.5s-146 -45.5 -226 -45.5c-28 0 -51.833 4.66699 -71.5 14s-35 21 -46 35s-17.167 29 -18.5 45s2.66699 31 12 45s24.166 25.667 44.499 35s46.833 14 79.5 14c54 0 105 10.333 153 31
s89.667 48.667 125 84s63.333 77 84 125s31 99 31 153s-10.333 105 -31 153s-48.667 89.667 -84 125s-77 63.333 -125 84s-99 31 -153 31c-53.333 0 -103.5 -9.83301 -150.5 -29.5s-88.167 -46.667 -123.5 -81s-63.5 -74.666 -84.5 -120.999s-32.5 -95.833 -34.5 -148.5
c0 -3.33301 -0.166992 -6.16602 -0.5 -8.49902s-0.5 -4.83301 -0.5 -7.5c0 -64.667 -6.83301 -124.5 -20.5 -179.5s-33 -105.5 -58 -151.5s-55.333 -87.5 -91 -124.5s-75.5 -69.833 -119.5 -98.5c-18 -11.333 -35.333 -17 -52 -17s-31.667 4 -45 12s-24.5 18.833 -33.5 32.5
s-14.333 28.334 -16 44.001s1 31.167 8 46.5s19.167 28.666 36.5 39.999c30.667 20 58.5 42.833 83.5 68.5s46.167 54.834 63.5 87.501s30.833 69 40.5 109s14.5 84.667 14.5 134c0 54 -10.333 105 -31 153s-48.667 89.667 -84 125s-77 63.333 -125 84s-99 31 -153 31
s-105 -10.333 -153 -31s-89.667 -48.667 -125 -84s-63.333 -77 -84 -125s-31 -99 -31 -153c0 -51.333 5.16699 -97.833 15.5 -139.5s24.5 -79 42.5 -112s39.167 -61.667 63.5 -86s50.833 -44.5 79.5 -60.5c18 -10.667 31 -23.334 39 -38.001s11.5 -29.834 10.5 -45.501
s-5.33301 -30.667 -13 -45s-18 -25.833 -31 -34.5s-28 -13.667 -45 -15s-34.5 3 -52.5 13c-45.333 26 -86.333 57.667 -123 95s-67.834 79.666 -93.501 126.999s-45.5 99.666 -59.5 156.999s-21 118.666 -21 183.999c0 53.333 6.83301 104.833 20.5 154.5
s33.167 96 58.5 139s55.666 82.333 90.999 118s74.5 66 117.5 91s89.333 44.5 139 58.5s101.167 21 154.5 21c51.333 0 100.666 -6.33301 147.999 -19s91.833 -30.667 133.5 -54s80 -51.166 115 -83.499s65.5 -68.5 91.5 -108.5z" />
    <glyph glyph-name="uni1024" unicode="&#x1024;" horiz-adv-x="2646" 
d="M1871 1557c3.33301 -22 8.33496 -43.0078 15.002 -63.0078s15.834 -38.5 27.501 -55.5s26.167 -32 43.5 -45s38.666 -23.833 63.999 -32.5c73.333 -24.667 140.5 -59 201.5 -103s113.333 -93.667 157 -149s77.667 -114.666 102 -177.999s36.5 -126.666 36.5 -189.999
v-1561c0 -21.333 -4.66699 -39 -14 -53s-21 -24.5 -35 -31.5s-29 -10.333 -45 -10s-31 3.83301 -45 10.5s-25.667 17 -35 31s-14 31.667 -14 53v1561c0 53.333 -9 103 -27 149s-42.5 87.333 -73.5 124s-67.333 68.5 -109 95.5s-85.834 48.167 -132.501 63.5
c-87.333 28.667 -156.666 73.334 -207.999 134.001s-83 135 -95 223c-8.66699 60 -5.33398 118.167 9.99902 174.5s40 107 74 152s75.833 82.667 125.5 113s104.5 49.5 164.5 57.5c54.667 8 107.5 6 158.5 -6s98 -31.833 141 -59.5s80.333 -62 112 -103
s55.167 -86.833 70.5 -137.5c6 -20 6.66699 -38 2 -54s-12.667 -29.333 -24 -40s-24.833 -18.5 -40.5 -23.5s-31.167 -6.16699 -46.5 -3.5s-29.5 9.33398 -42.5 20.001s-22.5 26 -28.5 46c-9.33301 28.667 -23 54.834 -41 78.501s-39.333 43.334 -64 59.001
s-51.5 26.834 -80.5 33.501s-58.833 8 -89.5 4c-34.667 -5.33301 -66.167 -16.666 -94.5 -33.999s-52.333 -38.833 -72 -64.5s-33.834 -54.5 -42.501 -86.5s-10.667 -65 -6 -99zM2244 -496.008c0 -32.667 -4.8252 -65.5 -14.4922 -98.5s-23.334 -64.833 -41 -95.5
c-17.667 -30.667 -39 -59.5 -64 -86.5s-53 -50.333 -84 -70s-64.333 -35.334 -100 -47.001s-72.834 -17.5 -111.501 -17.5h-1454c-40 -0.666992 -75.667 6 -107 20s-58 33.167 -80 57.5s-39.5 52.666 -52.5 84.999s-21.167 66.333 -24.5 102s-2 72 4 109
s16.833 72.333 32.5 106s36.167 64.5 61.5 92.5s55.666 51 90.999 69c38.667 22.667 84 41.334 136 56.001s109.167 23 171.5 25s129.166 -2.83301 200.499 -14.5s145.666 -32.167 222.999 -61.5c38 -14.667 71.667 -29.167 101 -43.5s57.166 -30.166 83.499 -47.499
s52.5 -37 78.5 -59s55 -48 87 -78c15.333 -14.667 24.833 -30 28.5 -46s3.16699 -31.5 -1.5 -46.5s-12.5 -28.5 -23.5 -40.5s-23.833 -20.667 -38.5 -26s-30.334 -6.5 -47.001 -3.5s-32.667 11.5 -48 25.5c-42 40 -87 76.333 -135 109s-98 60.334 -150 83.001
c-43.333 18.667 -87.666 33.5 -132.999 44.5s-91.166 17 -137.499 18s-93 -3.66699 -140 -14s-93.833 -26.833 -140.5 -49.5c-26.667 -13.333 -47 -29.5 -61 -48.5s-23.667 -39 -29 -60s-7 -42 -5 -63s6 -39.833 12 -56.5s13 -30.167 21 -40.5s15.333 -15.5 22 -15.5h1454
c30 0 58.5 7.16699 85.5 21.5s51 32.5 72 54.5s37.667 46.333 50 73s18.5 52.667 18.5 78c-0.666992 195.333 -1 370 -1 524v539c0 54 -10.5 105 -31.5 153s-49.5 89.667 -85.5 125s-78.167 63.333 -126.5 84s-99.5 31 -153.5 31c-53.333 0 -103.5 -9.83301 -150.5 -29.5
s-88.167 -46.667 -123.5 -81s-63.5 -74.666 -84.5 -120.999s-32.5 -95.833 -34.5 -148.5c0 -3.33301 -0.166992 -6.16602 -0.5 -8.49902s-0.5 -4.83301 -0.5 -7.5c0 -64.667 -6.83301 -124.5 -20.5 -179.5s-33 -105.5 -58 -151.5s-55.333 -87.5 -91 -124.5
s-75.5 -69.833 -119.5 -98.5c-18 -11.333 -35.333 -17 -52 -17s-31.667 4 -45 12s-24.5 18.833 -33.5 32.5s-14.333 28.334 -16 44.001s1 31.167 8 46.5s19.167 28.666 36.5 39.999c30.667 20 58.5 42.833 83.5 68.5s46.167 54.834 63.5 87.501s30.833 69 40.5 109
s14.5 84.667 14.5 134c0 54 -10.333 105 -31 153s-48.667 89.667 -84 125s-77 63.333 -125 84s-99 31 -153 31s-105 -10.333 -153 -31s-89.667 -48.667 -125 -84s-63.333 -77 -84 -125s-31 -99 -31 -153c0 -51.333 5.16699 -97.833 15.5 -139.5s24.5 -79 42.5 -112
s39.167 -61.667 63.5 -86s50.833 -44.5 79.5 -60.5c18 -10.667 31 -23.334 39 -38.001s11.5 -29.834 10.5 -45.501s-5.33301 -30.667 -13 -45s-18 -25.833 -31 -34.5s-28 -13.667 -45 -15s-34.5 3 -52.5 13c-45.333 26 -86.333 57.667 -123 95
s-67.834 79.666 -93.501 126.999s-45.5 99.666 -59.5 156.999s-21 118.666 -21 183.999c0 53.333 6.83301 104.833 20.5 154.5s33.167 96 58.5 139s55.666 82.333 90.999 118s74.5 66 117.5 91s89.333 44.5 139 58.5s101.167 21 154.5 21
c51.333 0 100.666 -6.33301 147.999 -19s91.833 -30.667 133.5 -54s80 -51.166 115 -83.499s65.5 -68.5 91.5 -108.5c26 40 56.5 76.167 91.5 108.5s73.333 60.166 115 83.499s86.167 41.333 133.5 54s96.666 19 147.999 19c76.667 0 149.167 -13.833 217.5 -41.5
s128.833 -65.667 181.5 -114s95.5 -105.166 128.5 -170.499s52.5 -135.333 58.5 -210z" />
    </font>
</defs>
</svg>
