<?xml version="1.0" standalone="no"?>
<!DOCTYPE svg PUBLIC "-//W3C//DTD SVG 1.1//EN" "http://www.w3.org/Graphics/SVG/1.1/DTD/svg11.dtd" >
<svg xmlns="http://www.w3.org/2000/svg">
<metadata></metadata>
<defs>
<font id="ayarregular" horiz-adv-x="0" >
<font-face units-per-em="2048" ascent="1638" descent="-410" />
<missing-glyph horiz-adv-x="601" />
<glyph unicode="&#x100a;&#x1039;&#x100a;" horiz-adv-x="2203" d="M874 -701v141q-9 9 -17.5 18.5t-16.5 20.5q-20 27 -12 52t29.5 39t49.5 12t48 -29q26 -36 68.5 -57t93.5 -21q40 0 75 13.5t61.5 37.5t42 56.5t17.5 69.5v10q-1 37 -17 69.5t-42 57t-61.5 38.5t-75.5 14q-50 0 -92 -20.5t-68 -55.5q-21 -27 -49 -28.5t-49 13t-28.5 40 t13.5 51.5q45 60 116.5 96t156.5 36q70 0 131 -25t106.5 -67.5t72 -100t26.5 -122.5v-6q1 -37 17 -69.5t42.5 -56.5t61.5 -37.5t75 -13.5t76 14t62.5 39t42 58.5t15.5 71.5t-15.5 71.5t-42 58t-62.5 39t-76 14.5q-35 0 -53 20.5t-18 45.5t18 45.5t53 20.5q70 0 131 -25 t107 -67.5t72.5 -100t26.5 -122.5q0 -66 -26.5 -123t-72.5 -100t-107 -67.5t-131 -24.5q-81 0 -150 33t-115 90q-48 -57 -116.5 -90t-150.5 -33q-50 0 -100 14v-58q0 -30 22.5 -51.5t55.5 -21.5h664q32 0 54.5 21.5t22.5 51.5q0 21 22.5 32t49.5 11t49.5 -11t22.5 -32 q0 -43 -17.5 -80.5t-47.5 -65.5t-70 -44t-86 -16h-664q-46 0 -86 16t-70 44t-47.5 65.5t-17.5 80.5zM116 212q-19 24 -21 49.5t7.5 46.5t28.5 36t41.5 20t46.5 -2.5t44 -31.5q54 -68 132.5 -107.5t171.5 -39.5q81 0 152 30.5t124 83.5t83.5 124t30.5 152t-30.5 152 t-83.5 124.5t-124 84t-152 30.5q-95 0 -176 -42t-134 -113q-19 -25 -42.5 -33t-46.5 -3.5t-42.5 19t-29.5 35.5t-8.5 45.5t20.5 49.5q39 52 89.5 94t109 72t124.5 46t136 16q120 0 225 -45.5t184 -123.5t124.5 -183t45.5 -225v-12q2 -79 33.5 -148t84 -120t122.5 -80.5 t150 -29.5q81 0 152 30.5t124 83.5t83.5 124t30.5 152t-30.5 152t-83.5 124.5t-124 84t-152 30.5q-49 0 -79 14t-44 34.5t-12 44.5t18 44.5t45.5 34.5t71.5 14q80 0 153.5 -20.5t137.5 -58t117 -90.5t90.5 -117t58 -137.5t20.5 -153.5q0 -120 -45.5 -225t-123.5 -183.5 t-183 -124t-225 -45.5q-76 0 -146.5 18.5t-133 53t-114.5 83t-91 107.5q-39 -59 -90.5 -107.5t-114 -83t-133 -53t-146.5 -18.5q-69 0 -132.5 15t-120.5 43v-674q0 -42 29 -71t71 -29h184q26 0 46 -14t31 -34.5t12.5 -45t-7 -45t-29 -34.5t-53.5 -14h-184q-60 0 -112 22.5 t-91 61.5t-61.5 91.5t-22.5 111.5v821q-8 8 -11 12z" />
<glyph unicode="&#x100a;&#x1039;&#x1009;" horiz-adv-x="3275" d="M2142 556q0 -2 2 -8q17 -84 59.5 -154t102 -120.5t133 -78t153.5 -27.5q81 0 153 31t125 84t84 125t31 153t-31 153t-84 125t-125 84t-153 31q-49 0 -79.5 14t-44.5 35t-12.5 45t18 45t46.5 35t72 14q120 0 226 -45.5t185 -124.5t124.5 -185t45.5 -226 q0 -80 -20.5 -154.5t-58.5 -139t-91 -118t-117.5 -91t-139 -58.5t-154.5 -21q-83 0 -160.5 17.5t-146 52.5t-126.5 87.5t-102 122.5q-38 -63 -91 -114.5t-116.5 -88t-136.5 -56.5t-152 -20q-77 0 -148 18.5t-133.5 53t-114.5 83t-91 108.5q-39 -60 -91.5 -108.5t-115 -83 t-133.5 -53t-147 -18.5q-69 0 -133.5 15t-122.5 44v-679q0 -21 8 -39.5t21.5 -32t32 -21.5t39.5 -8h2427q21 0 39 8t31.5 21.5t21.5 32t8 39.5v124q0 31 14 52t35 32t45.5 10.5t45.5 -10.5t35 -31.5t14 -52.5v-124q0 -60 -23 -112.5t-62 -92t-91.5 -62t-112.5 -22.5h-2427 q-60 0 -112.5 22.5t-92 62t-62 92t-22.5 112.5v825q-6 5 -10 13q-20 24 -22 49.5t7.5 46.5t28.5 36.5t42 20t47 -3t44 -32.5q54 -68 133.5 -107.5t173.5 -39.5q81 0 152.5 31t124.5 84t84 125t31 153t-31 153t-84 125t-124.5 84t-152.5 31q-97 0 -178.5 -42t-135.5 -113 q-19 -25 -42.5 -33.5t-46.5 -4.5t-42.5 19t-29.5 36t-8.5 46t20.5 50q39 52 90 94.5t110 72.5t125.5 46.5t137.5 16.5q120 0 226 -45.5t185 -124.5t124.5 -185t45.5 -226v-13q2 -79 34 -148.5t85 -121t123.5 -81t150.5 -29.5q81 0 152.5 31t125 84t84 125t30.5 153 t-30.5 153t-84 125t-125 84t-152.5 31q-49 0 -79.5 14t-44.5 35t-12.5 45t18 45t46.5 35t72 14q120 0 226 -45.5t185 -124.5t124.5 -185t45.5 -226v-5z" />
<glyph unicode="&#x1009;&#x1039;&#x1006;" horiz-adv-x="1751" d="M534 -479q25 -29 60.5 -45.5t76.5 -16.5q23 0 45 6q-13 24 -33.5 41t-45.5 25t-51.5 6t-51.5 -16zM980 -362q0 -37 14 -69t37.5 -56t55.5 -38t69 -14q36 0 68.5 14t56 38t37.5 56t14 69q0 36 -14 68.5t-37.5 56t-56 37.5t-68.5 14q-37 0 -69 -14t-55.5 -37.5t-37.5 -56 t-14 -68.5zM850 -346q-4 34 -19 64t-39 52.5t-55.5 35t-65.5 12.5q-46 0 -84 -20t-62 -55q-12 -17 -28 -23t-32 -3.5t-29.5 12.5t-21 23.5t-7 31t13.5 34.5q21 29 48 52.5t59 40.5t68 26t75 9q37 0 71.5 -8.5t65.5 -24t58 -37.5t48 -49q42 54 105 86t137 32q63 0 119 -24 t98 -66t66 -98t24 -119q0 -64 -24 -120t-66 -97.5t-98 -65.5t-119 -24q-37 0 -72 8t-66 24t-57.5 37.5t-46.5 49.5q-43 -55 -106 -87t-137 -32q-39 0 -75 9t-68 25.5t-59 40t-48 53.5q-17 23 -13 45.5t20 37.5q25 32 57.5 51t67.5 25.5t70 2.5t66.5 -19t58 -39t43.5 -57 q24 22 39.5 51.5t19.5 64.5v32zM317 52v-674q0 -21 8 -39.5t21.5 -32t32 -21.5t39.5 -8h980q21 0 39.5 8t32 21.5t21.5 32t8 39.5v125q0 31 14 52t35 31.5t45 10.5t45 -10.5t35 -31.5t14 -52v-125q0 -60 -22.5 -112.5t-62 -92t-92 -62t-112.5 -22.5h-980q-60 0 -112.5 22.5 t-92 62t-62 92t-22.5 112.5v829q-2 3 -4 5.5t-4 4.5q-19 25 -20.5 50t9 46t29.5 36t42 19t47 -4.5t43 -33.5q54 -71 135 -113t178 -42q81 0 153 31t125 84t84 125t31 153t-31 153t-84 125t-125 84t-153 31q-94 0 -173.5 -39.5t-133.5 -107.5q-20 -25 -44 -32.5t-47 -2.5 t-42 20t-28.5 36.5t-7.5 46t22 49.5q40 50 90 90.5t108 69t122.5 44t133.5 15.5q80 0 154.5 -21t139 -58.5t117.5 -91t91 -118t58.5 -139t20.5 -154.5q0 -120 -45.5 -226t-124.5 -185t-185 -124.5t-226 -45.5q-72 0 -139.5 17t-127.5 48z" />
<glyph unicode="&#x1009;&#x1039;&#x1008;" horiz-adv-x="1817" d="M317 52v-674q0 -21 8 -39.5t21.5 -32t32 -21.5t39.5 -8v-188q-60 0 -112.5 22.5t-92 62t-62 92t-22.5 112.5v829q-2 3 -4 5.5t-4 4.5q-19 25 -20.5 50t9 46t29.5 36t42 19t47 -4.5t43 -33.5q54 -71 135 -113t178 -42q81 0 153 31t125 84t84 125t31 153t-31 153t-84 125 t-125 84t-153 31q-94 0 -173.5 -39.5t-133.5 -107.5q-20 -25 -44 -32.5t-47 -2.5t-42 20t-28.5 36.5t-7.5 46t22 49.5q40 50 90 90.5t108 69t122.5 44t133.5 15.5q80 0 154.5 -21t139 -58.5t117.5 -91t91 -118t58.5 -139t20.5 -154.5q0 -120 -45.5 -226t-124.5 -185 t-185 -124.5t-226 -45.5q-72 0 -139.5 17t-127.5 48zM668 -328q-31 -34 -49 -78t-18 -94t18 -94t50 -78q54 26 80.5 73t26.5 99t-27 99t-81 73zM854 -247q-18 0 -35 -2.5t-34 -7.5q57 -46 85.5 -110t28.5 -132.5t-28.5 -133t-85.5 -110.5q17 -5 34 -7.5t35 -2.5q52 0 98 20 t80.5 54.5t54.5 80.5t20 98t-20 98t-54.5 80.5t-80.5 54.5t-98 20zM854 -59q91 0 171.5 -34.5t140.5 -94.5t94.5 -140.5t34.5 -171.5q0 -92 -34.5 -172t-94.5 -140t-140.5 -94.5t-171.5 -34.5q-92 0 -172 34.5t-140 94.5t-94.5 140t-34.5 172q0 91 34.5 171.5t94.5 140.5 t140 94.5t172 34.5zM1339 -823q-31 14 -45.5 35t-16 44t7.5 45.5t26.5 37.5t40.5 21t48 -3l128 -53v1718q0 31 14 52.5t35 31.5t45 10t45 -10.5t35 -31.5t14 -52v-1815q-2 -29 -19 -55t-42.5 -42.5t-56.5 -21.5t-62 8z" />
<glyph unicode="&#x1039;&#x100c;" d="M-563 -872q-25 -18 -49.5 -19t-45 10t-34.5 30t-17.5 42t5 46t33.5 41q49 35 78 89.5t29 119.5q0 53 -20 100t-55 82t-82 55t-101 20q-53 0 -100 -20t-82 -55t-55 -82t-20 -100q0 -65 29 -119.5t78 -89.5q25 -18 33.5 -41t5 -46t-17.5 -42t-34.5 -30t-45 -10t-49.5 19 l-8 6t-8 7h-874q-54 -2 -100 15.5t-79.5 50.5t-52.5 79.5t-19 103.5v305q0 42 15.5 86t46.5 79t77 56.5t106 17.5q30 -2 50 -16.5t29 -35.5t7.5 -45t-13 -44t-32.5 -32.5t-52 -10.5q-20 2 -35 -12.5t-15 -42.5v-305q0 -37 17.5 -52t46.5 -13h740q-30 75 -30 162 q0 91 34.5 171.5t94.5 140.5t140 95t172 35t172.5 -35t140.5 -95t95 -140.5t35 -171.5q0 -56 -13 -107.5t-37 -97.5t-58 -85t-76 -69z" />
<glyph unicode="&#x100b;&#x1039;&#x100c;" horiz-adv-x="1345" d="M2565 931q20 -25 22 -49.5t-7.5 -46t-28.5 -36.5t-42 -20t-47 2.5t-44 32.5q-54 68 -133.5 107.5t-173.5 39.5q-81 0 -153 -31t-125 -84t-84 -125t-31 -153t31 -153t84 -125t125 -84t153 -31q97 0 178 42t135 113q19 25 43 33.5t47 4.5t42 -19t29.5 -36t9 -46t-20.5 -50 q-40 -53 -90.5 -95.5t-110 -72.5t-125.5 -46t-137 -16q-120 0 -226 45.5t-185 124.5t-124.5 185t-45.5 226q0 80 20.5 154.5t58.5 139t91 118t117.5 91t139 58.5t154.5 21q69 0 133.5 -15.5t122.5 -44t108 -69t90 -90.5zM1736 -29q37 -24 79.5 -40.5t87.5 -26.5t90.5 -15 t88.5 -5q87 0 171 18.5t159 66.5q31 20 59.5 16.5t49.5 -20.5t31 -44t4 -54v-489q0 -60 -22.5 -112.5t-62 -92t-92 -62t-112.5 -22.5h-452q-60 0 -112.5 23t-91.5 62t-61.5 91.5t-22.5 112.5t25 113.5t67.5 91.5t99 56.5t119.5 9.5q48 -6 85 -20.5t69.5 -35t63 -46 t65.5 -55.5q24 -20 31.5 -43.5t2 -45.5t-20.5 -39.5t-36.5 -25.5t-46 -4t-48.5 24q-14 12 -29 25.5t-31.5 27.5t-35.5 26.5t-43 22.5q-21 9 -46.5 11.5t-48 -5.5t-38 -29t-17.5 -59q0 -21 8 -39.5t21.5 -32t32 -21.5t39.5 -8h452q21 0 39.5 8t32 21.5t21.5 32t8 39.5v362 q-71 -24 -144.5 -34.5t-148.5 -9.5q-55 1 -113 7.5t-115 20.5t-111.5 36t-102.5 53q-26 17 -36 40t-7.5 46.5t16 43.5t33.5 32t45.5 12.5t51.5 -16.5z" />
<glyph unicode="&#x100d;&#x1039;&#x100e;" horiz-adv-x="1369" d="M838 -5v-625q0 -21 8 -39.5t21.5 -32t32 -21.5t39.5 -8h83q31 0 52.5 -14t31.5 -35t10.5 -45t-10.5 -45t-31.5 -35t-52.5 -14h-83q-60 0 -112.5 22.5t-92 62t-62 92t-22.5 112.5v606q-113 7 -211 54t-171 123.5t-116 176.5t-46 213q-1 5 -1 10.5v10.5q0 63 18 105 q9 24 21 39q19 25 44.5 43.5t55.5 32.5t63.5 26.5t66.5 27.5q18 8 30 21.5t12 36.5q0 4 -2.5 16t-10 25t-21 24.5t-35.5 15t-54 -3.5t-75 -30q-28 -15 -50.5 -13t-38 15.5t-23.5 34.5t-5 43.5t18 43.5t43 35q78 37 157 41.5t142 -22t103 -83t40 -142.5q0 -72 -24 -115.5 t-62 -71t-85.5 -46.5t-95.5 -41q-19 -9 -30 -17.5t-13 -28.5v-20q0 -59 16.5 -112.5t46 -99.5t70.5 -82.5t91 -60.5v76q-5 4 -9 8t-9 8q-17 17 -21 36t1.5 35.5t19 30t30 19t35.5 2t36 -20.5q29 -29 70 -29q20 0 38 8t31.5 21.5t21.5 31.5t8 38q0 21 -8 39t-21.5 31.5 t-31.5 21.5t-38 8q-41 0 -70 -29q-26 -25 -54.5 -22t-47 22t-22 47.5t22.5 53.5q33 33 76.5 52t94.5 19q50 0 94 -19t77 -52t52 -77.5t19 -94.5t-19 -94t-52 -77t-77 -52t-94 -19h-16v-59q8 0 16 -0.5t16 -0.5q81 0 153 31t125 84t84 125t31 153q0 148 -55 249t-147 161 q-27 17 -37 40t-7.5 46.5t16 43.5t33.5 32t45.5 12.5t51.5 -16.5q67 -43 120.5 -100.5t91 -129t57.5 -156.5t20 -182q0 -101 -32.5 -192t-90 -164.5t-136.5 -126.5t-172 -78z" />
<glyph unicode="&#x1020;&#x103e;" horiz-adv-x="1265" d="M1123 -105q0 -13 -5 -25t-11.5 -22t-14.5 -17.5t-14 -10.5q-49 -32 -106.5 -54t-118 -36.5t-121.5 -21t-117 -7.5q-75 -1 -149.5 9.5t-146.5 35.5v-370q0 -21 8 -40t22 -32.5t32.5 -21.5t39.5 -8h459q21 0 39.5 8t32 21.5t22 32.5t8.5 40q-2 39 -13 59t-27 28t-34 7.5 t-34 -3.5q-17 -3 -34 8.5t-29.5 30.5t-19 42t-3 44t19.5 37.5t48 20.5q64 9 121.5 -10t100.5 -57t68 -92t25 -115q0 -60 -23 -113.5t-62.5 -93.5t-92.5 -63t-113 -23h-459q-60 0 -113.5 23t-93 62.5t-62.5 93t-23 114.5v499q-6 27 4 54t31.5 44.5t50.5 21t60 -16.5 q76 -48 161 -67t173 -19q37 0 78.5 3.5t83.5 11t83.5 20t77.5 29.5v71q-113 -52 -241 -52q-122 0 -229 46.5t-187 126.5t-126 187t-46 229t46 229t126 187t187 126.5t229 46.5q70 0 135.5 -15.5t124.5 -44.5t109.5 -70t90.5 -92q20 -25 22.5 -50t-7.5 -46.5t-29.5 -37 t-42.5 -20.5t-47.5 3t-44.5 33q-54 69 -135 109t-176 40q-82 0 -154.5 -31.5t-126.5 -85.5t-85.5 -126.5t-31.5 -154.5q0 -83 31.5 -155.5t85.5 -126.5t126.5 -85t154.5 -31q98 0 180.5 42t136.5 114q19 26 43 34.5t47.5 4.5t43.5 -19t30.5 -36t9 -46.5t-20.5 -50.5 q-10 -13 -19.5 -24.5t-20.5 -22.5q0 -1 0.5 -21t1 -49.5t0.5 -63.5v-63.5v-49v-20.5zM742 -353v-129q0 -36 -13.5 -67.5t-36.5 -54.5t-54 -36t-66 -13h-62q-18 0 -30.5 8.5t-19 20.5t-6.5 26t6.5 26.5t19 21t30.5 8.5h62q12 0 23 4.5t18.5 12.5t12.5 19t5 24v129q0 19 8 31 t20.5 18t27 6t27 -6t20.5 -18t8 -31z" />
<glyph unicode="&#x1009;&#x1039;&#x1005;" horiz-adv-x="1276" d="M325 43v-665q0 -21 8 -39.5t21.5 -32t32 -21.5t39.5 -8h461q21 0 39 8t31.5 21.5t21.5 32t8 39.5v124q0 31 14 52t35 31.5t45.5 11t45.5 -10.5t35 -32t14 -52v-124q0 -60 -23 -112.5t-62 -92t-91.5 -62t-112.5 -22.5h-461q-60 0 -112.5 22.5t-92 62t-62 92t-22.5 112.5 v814q-4 5 -8 10.5t-8 10.5q-19 25 -20.5 50t9 46t29.5 36t42 19t47 -4.5t43 -33.5q54 -71 135 -113t178 -42q81 0 153 31t125 84t84 125t31 153t-31 153t-84 125t-125 84t-153 31q-94 0 -173.5 -39.5t-133.5 -107.5q-20 -25 -44 -32.5t-47 -2.5t-42 20t-28.5 36.5t-7.5 46 t22 49.5q40 50 90 90.5t108 69t122.5 44t133.5 15.5q80 0 154.5 -21t139 -58.5t117.5 -91t91 -118t58.5 -139t20.5 -154.5q0 -120 -45.5 -226t-124.5 -185t-185 -124.5t-226 -45.5q-70 0 -135 15.5t-124 44.5zM533 -240q-23 -25 -36.5 -57t-13.5 -69q0 -36 13.5 -68 t36.5 -57q39 19 58.5 53.5t19.5 72t-19.5 72t-58.5 53.5zM668 -181q-14 0 -26.5 -2t-24.5 -5q42 -34 62.5 -81t20.5 -96.5t-20.5 -96.5t-61.5 -81q12 -3 24 -5t26 -2q38 0 71.5 14.5t58.5 39.5t39.5 58.5t14.5 71.5t-14.5 72t-39.5 59t-58.5 39.5t-71.5 14.5zM668 -44 q67 0 125.5 -25.5t102 -69t69 -102t25.5 -125.5q0 -66 -25.5 -124.5t-69 -102t-102 -69t-125.5 -25.5t-125.5 25.5t-102 69t-69 102t-25.5 124.5q0 67 25.5 125.5t69 102t102 69t125.5 25.5z" />
<glyph unicode="&#x1009;&#x1039;&#x1007;" horiz-adv-x="1276" d="M671 -169q6 -26 23 -45t40 -29.5t48.5 -10t47.5 15.5q-30 36 -72 53.5t-87 15.5zM952 -230q-22 -47 -54.5 -74t-70.5 -36t-77 -2.5t-73 26t-59.5 50.5t-35.5 70q-5 -4 -10 -7t-10 -7q-32 -25 -50 -58.5t-22.5 -70.5t5 -74t34.5 -68q25 -32 58.5 -50t70.5 -22.5t74 5 t69 33.5q27 21 54 15t42.5 -26.5t15.5 -48.5t-27 -49q-54 -42 -118 -58.5t-127 -9t-121 39.5t-100 86t-59 117.5t-9 126.5t39.5 121t85.5 100q49 38 106 55.5t115 14.5t112.5 -25.5t98.5 -64.5q33 11 66 6.5t60.5 -21t46.5 -44.5t24 -64q2 -18 2 -34t-1 -27 q-2 -23 -17 -33.5t-32 -9.5t-31 13.5t-12 35.5q1 16 0 37.5t-13 34.5q-19 21 -43 21q-1 -6 -3 -12.5t-4 -11.5zM326 43v-665q0 -21 8 -39.5t21.5 -32t31.5 -21.5t39 -8h461q21 0 39.5 8t32 21.5t21.5 32t8 39.5v124q0 31 14 52t35 31.5t45 11t45 -10.5t35 -32t14 -52v-124 q0 -60 -22.5 -112.5t-62 -92t-92 -62t-112.5 -22.5h-461q-60 0 -112.5 22.5t-91.5 62t-62 92t-23 112.5l1 814q-5 5 -9 10.5t-8 10.5q-19 25 -20.5 50t9 46t29.5 36t42 19t47 -4.5t43 -33.5q54 -71 135 -113t178 -42q81 0 153 31t125 84t84 125t31 153t-31 153t-84 125 t-125 84t-153 31q-94 0 -173.5 -39.5t-133.5 -107.5q-20 -25 -44 -32.5t-47 -2.5t-42 20t-28.5 36.5t-7.5 46t22 49.5q40 50 90 90.5t108 69t122.5 44t133.5 15.5q80 0 154.5 -21t139 -58.5t117.5 -91t91 -118t58.5 -139t20.5 -154.5q0 -120 -45.5 -226t-124.5 -185 t-185 -124.5t-226 -45.5q-70 0 -134.5 15.5t-123.5 44.5z" />
<glyph unicode="&#x102b;&#x103a;" horiz-adv-x="658" d="M-568 1423q-24 67 -24 141q0 91 34.5 171t94.5 140t140 94.5t171 34.5q106 0 196 -45t150 -123q51 64 123 106.5t160 55.5q82 11 158.5 -7t141 -59t112 -103t70.5 -138q9 -30 2 -54t-24 -40t-40.5 -23.5t-46.5 -3.5t-42.5 20t-28.5 46q-14 44 -41 79.5t-63.5 59 t-80.5 33.5t-90 3q-44 -6 -82 -26t-66.5 -50t-46 -68.5t-21.5 -81.5v-5v-1545q0 -31 -14 -52t-35 -31.5t-45 -10.5t-45 10.5t-35 31.5t-14 52q-1 429 -1 768v191v181v160v129v87.5v34.5q-4 48 -25 90t-55 73t-78 49t-93 18q-52 0 -97.5 -20t-79.5 -54t-54 -80t-20 -98 q0 -21 3.5 -41t9.5 -39q10 -30 3.5 -54t-23 -41t-39.5 -25t-46 -4.5t-43 18.5t-30 45z" />
<glyph unicode="&#x102f;&#x103e;" d="M-757 -148v-476q0 -60 -23 -112.5t-62 -92t-91.5 -62t-112.5 -22.5h-105q-31 0 -52 14t-31.5 35t-10.5 45t10.5 45t31.5 35t52 14h105q21 0 39 8t31.5 21.5t21.5 32t8 39.5v476q0 31 14 52t35 32t45.5 10.5t45.5 -10.5t35 -31.5t14 -52.5zM-572 -145q0 31 14 52.5 t35 31.5t45.5 10.5t45.5 -10.5t35 -32t14 -52v-475q0 -21 8 -39t21.5 -31.5t32 -21.5t39.5 -8h104q31 0 52 -14t31.5 -35t10.5 -45.5t-10.5 -45.5t-31.5 -35t-52 -14h-104q-60 0 -113 23t-92 62t-62 91.5t-23 112.5v475z" />
<glyph unicode="&#x1030;&#x103e;" d="M-868 -148v-476q0 -60 -22.5 -112.5t-62 -91.5t-92 -62t-112.5 -23h-44q-32 0 -53 14t-31.5 35t-10.5 45.5t10.5 45.5t31.5 35t53 14h44q21 0 39.5 8t32 21.5t21.5 31.5t8 39v476q0 31 14 52t35 32t45 10.5t45 -10.5t35 -31.5t14 -52.5zM-448 -147v-472 q0 -60 22.5 -112.5t62 -92t92 -62t112.5 -22.5h44q31 0 52 14t32 35t10.5 45t-10.5 45t-31.5 35t-52.5 14h-44q-21 0 -39.5 8t-32 21.5t-21.5 32t-8 39.5v472q0 31 -14 52t-35 31.5t-45 10.5t-45 -10.5t-35 -31.5t-14 -52zM-565 -147v-674q0 -31 -14 -52t-35 -31.5 t-45.5 -10.5t-45.5 10.5t-35 31.5t-14 52v674q0 31 14 52t35 31.5t45.5 10.5t45.5 -10.5t35 -31.5t14 -52z" />
<glyph unicode="&#x103b;&#x103e;" horiz-adv-x="305" d="M-350 -760q-36 -69 -103.5 -111t-151.5 -42h-104q-32 0 -53 14t-31.5 35t-10.5 45t10.5 45t31.5 35t53 14h104q21 0 39 8t31.5 21.5t21.5 32t8 39.5v539q0 31 14 52t35 32t45 10.5t45 -10.5t35 -31.5t14 -52.5v-487l333 -124v1746q0 31 14 52.5t35 31.5t45.5 10 t45.5 -10.5t35 -31.5t14 -52v-1843q-2 -29 -19 -55t-42.5 -42.5t-57 -21.5t-62.5 8z" />
<glyph unicode="&#x103d;&#x103e;" d="M-656 -258l-277 -404q-1 -5 2 -16t10 -22t19 -19.5t30 -8.5h431q18 0 30 8.5t19 19.5t10 22t2 16zM-1030 -851q-38 -30 -84.5 -47.5t-98.5 -17.5h-105q-31 0 -52 14t-31.5 35t-10.5 45t10.5 45t31.5 35t52 14h105q37 0 64.5 23.5t34.5 58.5v8t1 8v3h1q4 31 20 59l305 444 q25 37 59 56t70.5 19.5t71 -18.5t60.5 -57l305 -444q27 -50 22.5 -110.5t-35.5 -112.5t-84 -87t-123 -35h-431q-48 0 -87.5 17t-70.5 45z" />
<glyph unicode="&#x102d;&#x102f;&#x103e;" d="M-757 -148v-476q0 -60 -23 -112.5t-62 -92t-91.5 -62t-112.5 -22.5h-105q-31 0 -52 14t-31.5 35t-10.5 45t10.5 45t31.5 35t52 14h105q21 0 39 8t31.5 21.5t21.5 32t8 39.5v476q0 31 14 52t35 32t45.5 10.5t45.5 -10.5t35 -31.5t14 -52.5zM-572 -145q0 31 14 52.5 t35 31.5t45.5 10.5t45.5 -10.5t35 -32t14 -52v-475q0 -21 8 -39t21.5 -31.5t32 -21.5t39.5 -8h104q31 0 52 -14t31.5 -35t10.5 -45.5t-10.5 -45.5t-31.5 -35t-52 -14h-104q-60 0 -113 23t-92 62t-62 91.5t-23 112.5v475zM-893 1587q0 -51 20 -96t54.5 -78.5t80.5 -53 t98 -19.5t98 19.5t80.5 53t54.5 78.5t20 96t-20 96t-54.5 78.5t-80.5 53t-98 19.5t-98 -19.5t-80.5 -53t-54.5 -78.5t-20 -96zM-1081 1587q0 89 34.5 167.5t94.5 137t140 92.5t172 34q91 0 171.5 -34t140.5 -92.5t94.5 -137t34.5 -167.5t-34.5 -167.5t-94.5 -137 t-140.5 -92.5t-171.5 -34q-92 0 -172 34t-140 92.5t-94.5 137t-34.5 167.5z" />
<glyph unicode="&#x102f;&#x1036;&#x103e;" d="M-757 -148v-476q0 -60 -23 -112.5t-62 -92t-91.5 -62t-112.5 -22.5h-105q-31 0 -52 14t-31.5 35t-10.5 45t10.5 45t31.5 35t52 14h105q21 0 39 8t31.5 21.5t21.5 32t8 39.5v476q0 31 14 52t35 32t45.5 10.5t45.5 -10.5t35 -31.5t14 -52.5zM-572 -145q0 31 14 52.5 t35 31.5t45.5 10.5t45.5 -10.5t35 -32t14 -52v-475q0 -21 8 -39t21.5 -31.5t32 -21.5t39.5 -8h104q31 0 52 -14t31.5 -35t10.5 -45.5t-10.5 -45.5t-31.5 -35t-52 -14h-104q-60 0 -113 23t-92 62t-62 91.5t-23 112.5v475zM-656 1677q43 0 80.5 -16.5t65.5 -44.5t44.5 -65.5 t16.5 -80.5t-16.5 -81t-44.5 -66t-65.5 -44.5t-80.5 -16.5t-81 16.5t-66 44.5t-44.5 66t-16.5 81t16.5 80.5t44.5 65.5t66 44.5t81 16.5zM-656 1513q-18 0 -31 -12.5t-13 -30.5t13 -31t31 -13t30.5 13t12.5 31t-12.5 30.5t-30.5 12.5z" />
<glyph unicode="&#x102d;&#x102f;&#x1037;&#x103e;" d="M-757 -148v-476q0 -60 -23 -112.5t-62 -92t-91.5 -62t-112.5 -22.5h-105q-31 0 -52 14t-31.5 35t-10.5 45t10.5 45t31.5 35t52 14h105q21 0 39 8t31.5 21.5t21.5 32t8 39.5v476q0 31 14 52t35 32t45.5 10.5t45.5 -10.5t35 -31.5t14 -52.5zM-572 -145q0 31 14 52.5 t35 31.5t45.5 10.5t45.5 -10.5t35 -32t14 -52v-475q0 -21 8 -39t21.5 -31.5t32 -21.5t39.5 -8h104q31 0 52 -14t31.5 -35t10.5 -45.5t-10.5 -45.5t-31.5 -35t-52 -14h-104q-60 0 -113 23t-92 62t-62 91.5t-23 112.5v475zM-893 1587q0 -51 20 -96t54.5 -78.5t80.5 -53 t98 -19.5t98 19.5t80.5 53t54.5 78.5t20 96t-20 96t-54.5 78.5t-80.5 53t-98 19.5t-98 -19.5t-80.5 -53t-54.5 -78.5t-20 -96zM-1081 1587q0 89 34.5 167.5t94.5 137t140 92.5t172 34q91 0 171.5 -34t140.5 -92.5t94.5 -137t34.5 -167.5t-34.5 -167.5t-94.5 -137 t-140.5 -92.5t-171.5 -34q-92 0 -172 34t-140 92.5t-94.5 137t-34.5 167.5zM-18 -233q43 0 80.5 -16.5t65.5 -44.5t44.5 -65.5t16.5 -80.5t-16.5 -81t-44.5 -66t-65.5 -44.5t-80.5 -16.5t-81 16.5t-66 44.5t-44.5 66t-16.5 81t16.5 80.5t44.5 65.5t66 44.5t81 16.5z M-18 -397q-18 0 -31 -12.5t-13 -30.5t13 -31t31 -13t30.5 13t12.5 31t-12.5 30.5t-30.5 12.5z" />
<glyph unicode="&#x102f;&#x1036;&#x1037;&#x103e;" d="M-757 -148v-476q0 -60 -23 -112.5t-62 -92t-91.5 -62t-112.5 -22.5h-105q-31 0 -52 14t-31.5 35t-10.5 45t10.5 45t31.5 35t52 14h105q21 0 39 8t31.5 21.5t21.5 32t8 39.5v476q0 31 14 52t35 32t45.5 10.5t45.5 -10.5t35 -31.5t14 -52.5zM-572 -145q0 31 14 52.5 t35 31.5t45.5 10.5t45.5 -10.5t35 -32t14 -52v-475q0 -21 8 -39t21.5 -31.5t32 -21.5t39.5 -8h104q31 0 52 -14t31.5 -35t10.5 -45.5t-10.5 -45.5t-31.5 -35t-52 -14h-104q-60 0 -113 23t-92 62t-62 91.5t-23 112.5v475zM-656 1677q43 0 80.5 -16.5t65.5 -44.5t44.5 -65.5 t16.5 -80.5t-16.5 -81t-44.5 -66t-65.5 -44.5t-80.5 -16.5t-81 16.5t-66 44.5t-44.5 66t-16.5 81t16.5 80.5t44.5 65.5t66 44.5t81 16.5zM-656 1513q-18 0 -31 -12.5t-13 -30.5t13 -31t31 -13t30.5 13t12.5 31t-12.5 30.5t-30.5 12.5zM-18 -233q43 0 80.5 -16.5t65.5 -44.5 t44.5 -65.5t16.5 -80.5t-16.5 -81t-44.5 -66t-65.5 -44.5t-80.5 -16.5t-81 16.5t-66 44.5t-44.5 66t-16.5 81t16.5 80.5t44.5 65.5t66 44.5t81 16.5zM-18 -397q-18 0 -31 -12.5t-13 -30.5t13 -31t31 -13t30.5 13t12.5 31t-12.5 30.5t-30.5 12.5z" />
<glyph unicode=" "  horiz-adv-x="601" />
<glyph unicode="&#x09;" horiz-adv-x="601" />
<glyph unicode="&#xa0;" horiz-adv-x="601" />
<glyph unicode="!" horiz-adv-x="569" d="M397 1141l-51 -776h-117l-55 776v325h223v-325zM387 0h-205v205h205v-205z" />
<glyph unicode="&#x22;" horiz-adv-x="727" d="M641 1227l-45 -281h-111l-49 281v239h205v-239zM289 1227l-45 -281h-111l-49 281v239h205v-239z" />
<glyph unicode="#" horiz-adv-x="1139" d="M1116 401h-309l-86 -426h-152l88 426h-315l-86 -426h-152l89 426h-170v148h198l76 364h-274v148h303l88 430h149l-86 -430h314l88 430h149l-86 -430h174v-148h-205l-73 -364h278v-148zM762 913h-316l-73 -364h313z" />
<glyph unicode="$" horiz-adv-x="1139" d="M621 844q2 -1 15 -4q205 -40 308 -146t103 -278q0 -176 -113 -305t-313 -140v-182h-107v180q-204 23 -313 132.5t-123 306.5l180 32q21 -148 85 -228t171 -91v573q-203 44 -304 147t-101 265q0 161 100 276.5t305 133.5v86h107v-86q170 -17 268 -108t123 -255l-187 -27 q-16 102 -67 161.5t-137 76.5v-520zM514 866v500q-109 -19 -167 -87.5t-58 -158.5q0 -103 60 -162.5t165 -91.5zM621 121q105 16 173 91.5t68 190.5q0 101 -51.5 162.5t-189.5 104.5v-549z" />
<glyph unicode="%" horiz-adv-x="1821" d="M1384 1491l-796 -1542h-150l801 1542h145zM457 1489q137 0 227 -99t90 -290q0 -188 -92 -287.5t-223 -99.5q-136 0 -222.5 100t-86.5 299q0 163 81 270t226 107zM461 838q157 0 157 270q0 258 -157 258q-156 0 -156 -272q0 -256 156 -256zM1360 721q138 0 227.5 -99 t89.5 -290q0 -140 -49 -227t-121 -123.5t-145 -36.5q-136 0 -222.5 100t-86.5 299q0 163 81 270t226 107zM1364 70q158 0 158 270q0 258 -158 258q-156 0 -156 -272q0 -256 156 -256z" />
<glyph unicode="&#x26;" horiz-adv-x="1366" d="M1319 109l-121 -144q-96 63 -225 207q-174 -197 -420 -197q-209 0 -337 131t-128 297q0 135 87 245t261 194q-81 93 -122.5 168t-41.5 153q0 134 105 231t260 97q147 0 243.5 -91.5t96.5 -221.5q0 -106 -69.5 -195.5t-207.5 -161.5l265 -336q39 82 69 205l187 -39 q-49 -193 -131 -317q109 -139 229 -225zM608 936q108 61 146.5 115t38.5 123q0 76 -49.5 122.5t-116.5 46.5q-68 0 -119 -45t-51 -116q0 -25 13 -63.5t138 -182.5zM860 315l-330 410q-124 -74 -185.5 -151.5t-61.5 -157.5q0 -98 74.5 -189.5t197.5 -91.5q81 0 166 50 t139 130z" />
<glyph unicode="'" horiz-adv-x="391" d="M141 946l-49 281v239h205v-239l-45 -281h-111z" />
<glyph unicode="(" horiz-adv-x="682" d="M608 -430h-129q-166 212 -261 463t-95 497q0 279 101 518t255 443h129q-178 -292 -238.5 -512t-60.5 -447q0 -483 299 -962z" />
<glyph unicode=")" horiz-adv-x="682" d="M203 1491q166 -212 261 -463t95 -498q0 -278 -101 -517t-255 -443h-129q178 292 238.5 511.5t60.5 446.5q0 484 -299 963h129z" />
<glyph unicode="*" horiz-adv-x="811" d="M736 1196q-119 -37 -250 -55q47 -42 174 -189l-121 -86q-59 79 -137 215q-73 -139 -131 -215l-117 86q147 176 166 189q-145 29 -245 55l47 143q182 -67 231 -98q-20 173 -20 250h143q0 -92 -18 -225q-5 -7 -5 -23q95 47 236 96z" />
<glyph unicode="+" horiz-adv-x="1196" d="M1083 639h-401v-401h-168v401h-401v168h401v401h168v-401h401v-168z" />
<glyph unicode="," horiz-adv-x="569" d="M389 0q0 -127 -48.5 -194t-119.5 -95l-49 76q112 48 113 213h-101v205h205v-205z" />
<glyph unicode="-" horiz-adv-x="682" d="M616 440h-550v181h550v-181z" />
<glyph unicode="." horiz-adv-x="569" d="M387 0h-205v205h205v-205z" />
<glyph unicode="/" horiz-adv-x="737" d="M649 1466l-424 -1515h-145l424 1515h145z" />
<glyph unicode="0" horiz-adv-x="1139" d="M569 1473q478 0 478 -750q0 -379 -123.5 -563.5t-354.5 -184.5q-477 0 -477 748q0 379 123.5 564.5t353.5 185.5zM569 123q145 0 219 140.5t74 459.5q0 222 -32.5 349.5t-98 190t-164.5 62.5q-145 0 -218 -143t-73 -459q0 -219 33 -347t98 -190.5t162 -62.5z" />
<glyph unicode="1" horiz-adv-x="1139" d="M768 0h-180v1147q-135 -128 -361 -217v174q311 149 424 369h117v-1473z" />
<glyph unicode="2" horiz-adv-x="1139" d="M1034 0h-971q0 124 86.5 251t323.5 318q145 116 259 243.5t114 256.5q0 111 -78.5 183.5t-198.5 72.5q-121 0 -203 -74.5t-83 -222.5l-185 21q17 206 146.5 315t328.5 109q216 0 336.5 -119.5t120.5 -288.5q0 -141 -101.5 -285.5t-404.5 -386.5q-159 -127 -211 -219h721 v-174z" />
<glyph unicode="3" horiz-adv-x="1139" d="M776 793q136 -26 205.5 -131.5t69.5 -229.5q0 -200 -145.5 -328.5t-348.5 -128.5q-194 0 -320 113t-147 299l180 25q27 -145 98.5 -217t188.5 -72q126 0 213.5 88.5t87.5 216.5q0 123 -79.5 204t-207.5 81q-52 0 -127 -19l21 158q72 0 114 7t94 34t86 77.5t34 125.5 q0 109 -72.5 169t-167.5 60q-109 0 -177.5 -69t-86.5 -197l-180 33q35 191 154.5 286t285.5 95q183 0 305.5 -110.5t122.5 -270.5q0 -205 -201 -295v-4z" />
<glyph unicode="4" horiz-adv-x="1139" d="M1044 350h-198v-350h-180v350h-635v166l667 950h148v-950h198v-166zM666 516v662h-4l-455 -662h459z" />
<glyph unicode="5" horiz-adv-x="1139" d="M324 881q134 92 278 92q183 0 319 -129.5t136 -345.5q0 -218 -138 -370.5t-362 -152.5q-183 0 -317 103.5t-154 306.5l188 14q23 -139 98 -207.5t185 -68.5q137 0 222 103.5t85 254.5q0 154 -87 243t-224 89q-173 0 -266 -141l-170 20l143 754h727v-174h-584z" />
<glyph unicode="6" horiz-adv-x="1139" d="M268 756q124 194 353 194q180 0 306 -133t126 -340q0 -209 -125.5 -355.5t-333.5 -146.5q-211 0 -359.5 156t-148.5 555q0 392 134.5 589.5t389.5 197.5q165 0 279 -92t139 -273l-180 -16q-49 233 -248 233q-138 0 -237 -137t-99 -432h4zM590 123q124 0 201 100t77 242 t-77 235t-207 93q-119 0 -205 -87.5t-86 -230.5q0 -146 84.5 -249t212.5 -103z" />
<glyph unicode="7" horiz-adv-x="1139" d="M1047 1307q-216 -237 -374 -586t-186 -721h-184q7 299 147.5 656.5t364.5 615.5h-717v174h949v-139z" />
<glyph unicode="8" horiz-adv-x="1139" d="M776 793q275 -88 275 -375q0 -189 -135 -316t-347 -127q-214 0 -348.5 128t-134.5 321q0 139 75.5 243t203.5 126v4q-220 68 -220 297q0 162 116 270.5t304 108.5q191 0 308.5 -112t117.5 -271q0 -216 -215 -293v-4zM569 864q101 0 169.5 64.5t68.5 161.5q0 99 -69.5 167 t-170.5 68q-103 0 -170 -67t-67 -158q0 -109 69 -172.5t170 -63.5zM569 123q127 0 212 82t85 213t-87.5 215t-213.5 84q-131 0 -213 -86.5t-82 -208.5q0 -127 84.5 -213t214.5 -86z" />
<glyph unicode="9" horiz-adv-x="1139" d="M868 690q-53 -86 -145.5 -139t-200.5 -53q-181 0 -307.5 132.5t-126.5 346.5q0 218 129 357t332 139q204 0 353 -159t149 -550q0 -397 -136 -593t-389 -196q-165 0 -276 90.5t-135 274.5l172 14q41 -231 243 -231q166 0 254 151.5t88 415.5h-4zM565 655q132 0 209.5 93.5 t77.5 236.5q0 145 -79.5 242.5t-203.5 97.5q-125 0 -211 -103.5t-86 -250.5q0 -139 84.5 -227.5t208.5 -88.5z" />
<glyph unicode=":" horiz-adv-x="569" d="M389 856h-205v205h205v-205zM389 0h-205v205h205v-205z" />
<glyph unicode=";" horiz-adv-x="569" d="M389 856h-205v205h205v-205zM389 0q0 -127 -48.5 -194t-119.5 -95l-49 76q112 48 113 213h-101v205h205v-205z" />
<glyph unicode="&#x3c;" horiz-adv-x="1196" d="M1083 227l-970 414v168l970 410v-179l-770 -315l770 -319v-179z" />
<glyph unicode="=" horiz-adv-x="1196" d="M1083 862h-970v168h970v-168zM1083 416h-970v168h970v-168z" />
<glyph unicode="&#x3e;" horiz-adv-x="1196" d="M1083 637l-970 -410v179l770 315l-770 319v179l970 -414v-168z" />
<glyph unicode="?" horiz-adv-x="1139" d="M94 1067q23 203 149 313.5t326 110.5q206 0 338.5 -113.5t132.5 -285.5q0 -86 -38.5 -167t-182.5 -208q-110 -98 -138.5 -154.5t-31.5 -202.5h-172q0 116 8.5 169.5t35 104.5t69 96t119.5 112q98 87 122.5 136.5t24.5 100.5q0 105 -83 184.5t-202 79.5q-242 0 -292 -296z M670 0h-205v205h205v-205z" />
<glyph unicode="@" horiz-adv-x="2079" d="M2009 18q-108 -203 -338 -325.5t-545 -122.5q-484 0 -747.5 245.5t-263.5 653.5q0 259 117 503.5t340 382.5t532 138q389 0 622.5 -229t233.5 -551q0 -283 -189.5 -500t-412.5 -217q-185 0 -193 168q-145 -166 -307 -166q-153 0 -257.5 130t-104.5 318q0 235 158.5 436 t359.5 201q190 0 303 -184l35 156h178q-147 -691 -160.5 -744.5t-13.5 -81.5q0 -32 22.5 -49.5t46.5 -17.5q63 0 161 77t162 204t64 274q0 277 -206.5 454t-509.5 177q-367 0 -600.5 -250t-233.5 -613q0 -373 233.5 -570.5t628.5 -197.5q241 0 422.5 80t282.5 221h180z M895 145q135 0 250 153t115 351q0 137 -67 212t-165 75q-149 0 -248.5 -166.5t-99.5 -335.5q0 -133 64 -211t151 -78z" />
<glyph unicode="A" horiz-adv-x="1366" d="M1368 0h-219l-172 446h-612l-162 -446h-205l563 1466h209zM918 600q-180 476 -203 540.5t-51 172.5h-5q-28 -148 -75 -274l-164 -439h498z" />
<glyph unicode="B" horiz-adv-x="1366" d="M985 780q138 -42 206.5 -136.5t68.5 -217.5t-62 -226t-176 -151.5t-309 -48.5h-561v1466h550q267 0 376.5 -116t109.5 -258q0 -96 -50.5 -177.5t-152.5 -134.5zM346 852h318q98 0 164.5 11t117.5 58t51 146q0 104 -51.5 153.5t-123 60.5t-183.5 11h-293v-440zM346 174 h365q196 0 272 67t76 185q0 119 -81 185.5t-292 66.5h-340v-504z" />
<glyph unicode="C" horiz-adv-x="1479" d="M1399 465q-64 -247 -223.5 -368.5t-382.5 -121.5q-360 0 -524.5 225.5t-164.5 542.5q0 351 193.5 549.5t497.5 198.5q214 0 366 -109t213 -319l-190 -45q-48 153 -146 230t-245 77q-240 0 -364 -157.5t-124 -422.5q0 -306 130.5 -455t340.5 -149q172 0 279.5 93 t150.5 280z" />
<glyph unicode="D" horiz-adv-x="1479" d="M164 1466h506q133 0 229 -13.5t183.5 -66t153 -144.5t103 -211.5t37.5 -289.5q0 -324 -154 -532.5t-530 -208.5h-528v1466zM358 174h314q96 0 171.5 12t153 65t128.5 174t51 320q0 110 -19.5 205.5t-72 174t-120.5 115t-132.5 44.5t-165.5 8h-308v-1118z" />
<glyph unicode="E" horiz-adv-x="1366" d="M1257 0h-1095v1466h1061v-174h-867v-448h811v-174h-811v-496h901v-174z" />
<glyph unicode="F" horiz-adv-x="1251" d="M1153 1292h-795v-454h689v-174h-689v-664h-194v1466h989v-174z" />
<glyph unicode="G" horiz-adv-x="1593" d="M1462 205q-277 -230 -606 -230q-337 0 -543.5 205.5t-206.5 546.5q0 208 84.5 387.5t249 278t402.5 98.5q247 0 396.5 -108.5t201.5 -325.5l-174 -49q-41 158 -147 237.5t-277 79.5q-265 0 -400 -162t-135 -424q0 -196 65.5 -326t194 -196.5t279.5 -66.5q230 0 428 151 v272h-432v175h620v-543z" />
<glyph unicode="H" horiz-adv-x="1479" d="M1315 0h-195v690h-762v-690h-194v1466h194v-602h762v602h195v-1466z" />
<glyph unicode="I" horiz-adv-x="569" d="M383 0h-195v1466h195v-1466z" />
<glyph unicode="J" horiz-adv-x="1024" d="M860 469q0 -269 -108.5 -381.5t-302.5 -112.5q-197 0 -295.5 110.5t-98.5 332.5l174 24q2 -146 57 -219t163 -73q99 0 147 47t59 108.5t11 153.5v1007h194v-997z" />
<glyph unicode="K" horiz-adv-x="1366" d="M1362 0h-256l-520 741l-242 -233v-508h-194v1466h194v-727l729 727h262l-614 -594z" />
<glyph unicode="L" horiz-adv-x="1139" d="M1071 0h-917v1466h194v-1292h723v-174z" />
<glyph unicode="M" horiz-adv-x="1706" d="M1550 0h-184v1227h-4l-422 -1227h-174l-420 1247h-6v-1247h-184v1466h290l347 -1038q58 -173 67 -217h4q27 85 78 235l350 1020h258v-1466z" />
<glyph unicode="N" horiz-adv-x="1479" d="M1315 0h-199l-766 1151h-4v-1151h-184v1466h198l766 -1151h4v1151h185v-1466z" />
<glyph unicode="O" horiz-adv-x="1593" d="M799 1491q308 0 504 -209t196 -551q0 -341 -197 -548.5t-503 -207.5q-317 0 -510 215t-193 525q0 361 195.5 568.5t507.5 207.5zM797 141q223 0 361.5 156t139.5 434q0 286 -141.5 440t-355.5 154q-220 0 -362 -151t-142 -463q0 -255 139 -412.5t361 -157.5z" />
<glyph unicode="P" horiz-adv-x="1366" d="M158 1466h553q131 0 225.5 -13t175.5 -67.5t122.5 -148t41.5 -195.5q0 -203 -130.5 -325.5t-418.5 -122.5h-375v-594h-194v1466zM352 768h377q346 0 346 268q0 88 -45 155.5t-110.5 84t-194.5 16.5h-373v-524z" />
<glyph unicode="Q" horiz-adv-x="1593" d="M1526 20l-58 -135q-170 65 -313 181q-166 -91 -360 -91q-307 0 -503 212.5t-196 545.5q0 330 190 544t513 214q307 0 503.5 -209t196.5 -547q0 -362 -221 -577q124 -89 248 -138zM1126 264q172 159 172 469q0 277 -138.5 434.5t-360.5 157.5t-362 -151t-140 -441 q0 -284 140 -438t362 -154q109 0 196 39q-97 62 -192 84l47 142q179 -51 276 -142z" />
<glyph unicode="R" horiz-adv-x="1479" d="M1456 0h-244q-219 346 -272 425t-111.5 135.5t-110 71.5t-136.5 15h-224v-647h-194v1466h649q133 0 223 -17t158 -71.5t104.5 -137.5t36.5 -175q0 -166 -105 -267t-306 -128v-4q147 -65 276 -267zM358 821h416q126 0 199.5 21.5t117.5 83.5t44 139q0 100 -73 170t-241 70 h-463v-484z" />
<glyph unicode="S" horiz-adv-x="1366" d="M1028 1036q-12 140 -101 210.5t-255 70.5q-150 0 -244 -56t-94 -163q0 -95 72.5 -141.5t277.5 -92.5q182 -40 297 -82t197 -130.5t82 -237.5q0 -189 -150.5 -314t-392.5 -125q-309 0 -462.5 138t-162.5 358l184 16q13 -176 136 -256.5t297 -80.5q163 0 263.5 67 t100.5 182q0 120 -105 175t-352.5 108.5t-356.5 150.5t-109 252q0 176 138 291t376 115q244 0 392.5 -114.5t157.5 -325.5z" />
<glyph unicode="T" horiz-adv-x="1251" d="M1206 1292h-485v-1292h-195v1292h-481v174h1161v-174z" />
<glyph unicode="U" horiz-adv-x="1479" d="M1315 618q0 -113 -12.5 -209t-66 -197.5t-174 -169t-321.5 -67.5q-196 0 -316 60t-176 155t-71.5 198t-15.5 230v848h194v-845q0 -132 19 -227.5t100 -169.5t250 -74q171 0 257 59t112 157.5t26 254.5v845h195v-848z" />
<glyph unicode="V" horiz-adv-x="1366" d="M1352 1466l-574 -1466h-198l-568 1466h209l381 -1065q43 -102 76 -239h4q30 117 76 239l397 1065h197z" />
<glyph unicode="W" horiz-adv-x="1933" d="M1911 1466l-404 -1466h-186l-320 1155q-25 89 -32 135h-4l-41 -174l-312 -1116h-196l-391 1466h198l226 -962q45 -189 57 -278q2 -18 2 -21h4q40 190 63 272l279 989h236l208 -741q78 -276 113 -520h4q21 119 70 319l231 942h195z" />
<glyph unicode="X" horiz-adv-x="1366" d="M1354 0h-240l-294 416q-108 153 -136 205h-4q0 -18 -436 -621h-234l568 764l-502 702h231l309 -438q50 -71 74 -119q39 67 412 557h211l-514 -690z" />
<glyph unicode="Y" horiz-adv-x="1366" d="M1354 1466l-584 -845v-621h-195v621l-565 845h236l322 -493q49 -75 116 -197q42 82 444 690h226z" />
<glyph unicode="Z" horiz-adv-x="1251" d="M1196 0h-1159v182l751 936q0 3 53 65.5t99 108.5h-819v174h1050v-174l-823 -1013l-88 -105h936v-174z" />
<glyph unicode="[" horiz-adv-x="569" d="M537 -408h-398v1874h398v-149h-218v-1575h218v-150z" />
<glyph unicode="\" horiz-adv-x="569" d="M569 -49h-145l-424 1515h145z" />
<glyph unicode="]" horiz-adv-x="569" d="M430 -408h-397v150h217v1575h-217v149h397v-1874z" />
<glyph unicode="^" horiz-adv-x="961" d="M907 666h-182l-246 598l-241 -598h-185l355 800h145z" />
<glyph unicode="_" horiz-adv-x="1024" d="M1036 -256h-1048v102h1048v-102z" />
<glyph unicode="`" horiz-adv-x="682" d="M455 1210h-148l-221 281h236z" />
<glyph unicode="a" horiz-adv-x="1139" d="M1057 0h-189q-26 50 -37 131q-181 -156 -391 -156q-168 0 -265 84t-97 222q0 132 93.5 217.5t324.5 113.5l168 25q94 15 155 37q0 81 -5 114.5t-29.5 69.5t-78.5 58t-145 22q-116 0 -183.5 -43t-92.5 -160l-176 23q29 163 149 245t330 82q191 0 280.5 -56.5t110 -136.5 t20.5 -206v-242q0 -221 8.5 -296.5t49.5 -147.5zM819 467v65q-141 -47 -345 -74.5t-204 -172.5q0 -73 55 -120.5t158 -47.5q133 0 234.5 79.5t101.5 270.5z" />
<glyph unicode="b" horiz-adv-x="1139" d="M322 942q100 143 286 143q205 0 328 -149t123 -389q0 -277 -137.5 -424.5t-321.5 -147.5q-187 0 -291 158h-4v-133h-168v1466h180v-524h5zM586 123q125 0 206.5 107.5t81.5 301.5q0 187 -75 296.5t-207 109.5q-130 0 -209.5 -113t-79.5 -286q0 -169 33 -240.5 t99.5 -123.5t150.5 -52z" />
<glyph unicode="c" horiz-adv-x="1024" d="M1006 367q-35 -203 -160 -297.5t-283 -94.5q-231 0 -357 151.5t-126 401.5q0 207 72.5 331.5t181.5 175t229 50.5q164 0 280.5 -85t143.5 -250l-174 -27q-27 107 -87.5 161t-154.5 54q-151 0 -229 -107t-78 -299q0 -196 76.5 -302.5t220.5 -106.5q116 0 182.5 66.5 t83.5 199.5z" />
<glyph unicode="d" horiz-adv-x="1139" d="M995 0h-168v135h-4q-97 -160 -293 -160q-195 0 -325.5 154.5t-130.5 400.5q0 257 123 406t325 149q190 0 289 -145h4v526h180v-1466zM549 123q118 0 200 97t82 294q0 194 -75 309t-215 115t-211.5 -112.5t-71.5 -295.5q0 -132 38.5 -223.5t107.5 -137.5t145 -46z" />
<glyph unicode="e" horiz-adv-x="1139" d="M1059 485h-795q11 -176 100.5 -269t223.5 -93q103 0 173 54.5t107 164.5l185 -23q-45 -166 -165 -255t-300 -89q-239 0 -373.5 146.5t-134.5 400.5q0 251 130.5 407t367.5 156q116 0 223.5 -51t182.5 -173.5t75 -375.5zM874 633q-11 162 -100.5 233.5t-195.5 71.5 q-127 0 -209 -85t-95 -220h600z" />
<glyph unicode="f" horiz-adv-x="569" d="M637 1473l-27 -158q-54 10 -106 10q-65 0 -106.5 -27.5t-41.5 -136.5v-100h205v-139h-205v-922h-180v922h-160v139h160v115q0 80 15 145t79.5 117.5t198.5 52.5q80 0 168 -18z" />
<glyph unicode="g" horiz-adv-x="1139" d="M1006 143q0 -226 -45 -337.5t-160 -173.5t-275 -62q-180 0 -300 80t-120 262l175 -27q10 -84 70.5 -126t172.5 -42q140 0 205 57t79.5 139t14.5 226q-117 -139 -295 -139q-207 0 -332.5 153t-125.5 386q0 234 122 390t338 156q188 0 306 -151h4v127h166v-918zM545 147 q115 0 204 91.5t89 306.5q0 190 -85 291.5t-210 101.5q-128 0 -208.5 -104t-80.5 -285q0 -209 84.5 -305.5t206.5 -96.5z" />
<glyph unicode="h" horiz-adv-x="1139" d="M1004 0h-181v670q0 130 -56 195t-167 65q-110 0 -196.5 -76.5t-86.5 -273.5v-580h-180v1466h180v-526q128 145 320 145q103 0 197 -42t132 -129t38 -242v-672z" />
<glyph unicode="i" horiz-adv-x="455" d="M317 0h-180v1061h180v-1061zM317 1262h-180v204h180v-204z" />
<glyph unicode="j" horiz-adv-x="455" d="M317 -57q0 -105 -14 -180.5t-72.5 -133t-181.5 -57.5q-71 0 -141 18l35 152q50 -14 84 -14q58 0 84 39t26 180v1114h180v-1118zM317 1262h-180v204h180v-204z" />
<glyph unicode="k" horiz-adv-x="1024" d="M1016 0h-221l-353 543l-127 -121v-422h-180v1466h180v-835l426 430h234l-406 -393z" />
<glyph unicode="l" horiz-adv-x="455" d="M317 0h-180v1466h180v-1466z" />
<glyph unicode="m" horiz-adv-x="1706" d="M1575 0h-180v670q0 74 -10 126.5t-51.5 93t-129.5 40.5q-106 0 -183 -74t-77 -240v-616h-180v690q0 138 -48.5 189t-137.5 51q-116 0 -190.5 -80t-74.5 -299v-551h-180v1061h162v-148h4q108 172 317 172q117 0 192.5 -46.5t109.5 -139.5q118 186 327 186q165 0 247.5 -89 t82.5 -267v-729z" />
<glyph unicode="n" horiz-adv-x="1139" d="M1004 0h-181v645q0 163 -58.5 224t-162.5 61q-80 0 -151.5 -39t-101.5 -110t-30 -201v-580h-180v1061h162v-150h4q57 87 140.5 130.5t193.5 43.5q84 0 166 -30t128.5 -90t58.5 -128t12 -184v-653z" />
<glyph unicode="o" horiz-adv-x="1139" d="M569 1085q215 0 356.5 -140t141.5 -398q0 -313 -153 -442.5t-345 -129.5q-201 0 -349 133t-148 422q0 280 143 417.5t354 137.5zM569 123q154 0 234 114t80 300q0 199 -90.5 300t-223.5 101q-137 0 -225 -102.5t-88 -305.5q0 -202 89.5 -304.5t223.5 -102.5z" />
<glyph unicode="p" horiz-adv-x="1139" d="M307 924q101 161 303 161q209 0 330 -151.5t121 -394.5q0 -259 -134 -411.5t-329 -152.5q-171 0 -274 136h-5v-519h-180v1469h164v-137h4zM586 123q126 0 208.5 104.5t82.5 311.5q0 195 -79.5 300t-203.5 105q-128 0 -210.5 -117t-82.5 -303q0 -197 79 -299t206 -102z " />
<glyph unicode="q" horiz-adv-x="1139" d="M999 -408h-180v519h-4q-104 -136 -274 -136q-196 0 -329.5 152.5t-133.5 411.5q0 243 121 394.5t329 151.5q202 0 303 -161h5v137h163v-1469zM553 123q127 0 206 102t79 299q0 186 -82 303t-211 117q-124 0 -203.5 -105t-79.5 -300q0 -137 37 -230t105 -139.5t149 -46.5z " />
<glyph unicode="r" horiz-adv-x="682" d="M709 1028l-62 -166q-67 39 -131 39q-101 0 -153 -90.5t-52 -253.5v-557h-180v1061h164v-160h4q86 184 225 184q92 0 185 -57z" />
<glyph unicode="s" horiz-adv-x="1024" d="M729 764q-12 87 -70.5 130.5t-162.5 43.5q-103 0 -166.5 -35t-63.5 -102q0 -63 50.5 -90t199.5 -66q168 -43 251.5 -76t130 -92.5t46.5 -165.5q0 -142 -116 -239t-310 -97q-202 0 -315.5 85.5t-139.5 256.5l179 27q14 -111 82.5 -166t191.5 -55q118 0 181 49.5t63 120.5 q0 48 -29 77t-72.5 43.5t-195.5 51.5q-226 54 -298.5 131t-72.5 184q0 133 106 219t285 86q190 0 295.5 -74.5t126.5 -222.5z" />
<glyph unicode="t" horiz-adv-x="569" d="M551 2q-80 -16 -135 -16q-118 0 -172 41.5t-66 105.5t-12 178v611h-131v139h131v264l180 109v-373h180v-139h-180v-621q0 -80 16.5 -113.5t83.5 -33.5q39 0 80 8z" />
<glyph unicode="u" horiz-adv-x="1139" d="M997 0h-161v156h-5q-122 -181 -333 -181q-111 0 -205.5 51.5t-126 142t-31.5 234.5v658h180v-588q0 -141 13.5 -202t70.5 -100.5t136 -39.5q102 0 192 70.5t90 292.5v567h180v-1061z" />
<glyph unicode="v" horiz-adv-x="1024" d="M999 1061l-401 -1061h-168l-403 1061h190l219 -614q62 -174 74 -236h4q16 64 55 172l246 678h184z" />
<glyph unicode="w" horiz-adv-x="1479" d="M1468 1061l-333 -1061h-187l-168 637q-1 0 -21 86t-20 94h-4l-211 -817h-188l-326 1061h187l231 -840l36 143l189 697h185l143 -556q60 -230 66 -261h4l241 817h176z" />
<glyph unicode="x" horiz-adv-x="1024" d="M1010 0h-222l-276 420l-279 -420h-219l389 553l-358 508h223q218 -329 238 -367l260 367h215l-367 -498z" />
<glyph unicode="y" horiz-adv-x="1024" d="M1008 1061l-406 -1079q-1 -2 -2 -7q-58 -180 -135.5 -292.5t-220.5 -112.5q-48 0 -117 20l-18 170q52 -16 102 -16q100 0 138.5 55t86.5 199l-403 1063h194l250 -695q22 -64 47 -165h4q25 116 64 221l233 639h183z" />
<glyph unicode="z" horiz-adv-x="1024" d="M981 0h-940v145l676 775q-119 -7 -203 -7h-434v148h868v-117l-575 -672q-17 -21 -88 -98q-17 -16 -23 -27q103 9 227 9h492v-156z" />
<glyph unicode="{" horiz-adv-x="684" d="M635 -430h-55q-82 0 -141.5 14.5t-104.5 72.5t-56.5 138t-13.5 266q0 130 -10.5 206t-55.5 128t-141 54v163q96 2 141 53.5t55.5 127.5t10.5 206q2 185 13 264.5t55.5 138.5t104.5 74t143 15h55v-156h-31q-103 0 -137.5 -37.5t-34.5 -169.5q0 -219 -9.5 -317t-53 -164.5 t-146.5 -116.5q102 -41 155.5 -133t53.5 -319q0 -209 9 -256t34.5 -71.5t128.5 -24.5h31v-156z" />
<glyph unicode="|" horiz-adv-x="532" d="M344 -408h-156v1874h156v-1874z" />
<glyph unicode="}" horiz-adv-x="684" d="M627 449q-96 -2 -140.5 -53.5t-55 -126t-11.5 -208.5q-2 -184 -13 -263.5t-55.5 -138.5t-104.5 -74t-143 -15h-55v156h31q103 0 137.5 37.5t34.5 168.5q0 220 9.5 318t53 164.5t146.5 115.5q-102 42 -155.5 134t-53.5 319q0 209 -9 255.5t-34.5 71.5t-128.5 25h-31v156 h55q83 0 143.5 -15.5t106 -76t56 -138.5t10.5 -262q0 -129 10.5 -205t55.5 -128t141 -54v-163z" />
<glyph unicode="~" horiz-adv-x="1196" d="M1110 674q-119 -115 -276 -115q-105 0 -244 62q-144 71 -242 71q-127 0 -260 -135v205q106 121 277 121q107 0 274 -70q131 -65 213 -65q129 0 258 137v-211z" />
<glyph unicode="&#xa1;" horiz-adv-x="682" d="M226 -82l51 776h117l55 -776v-325h-223v325zM236 1059h205v-205h-205v205z" />
<glyph unicode="&#xa2;" horiz-adv-x="1139" d="M1038 369q-36 -199 -163.5 -297.5t-284.5 -98.5q-52 0 -103 13l-116 -396l-113 33l115 397q-125 61 -192.5 192.5t-67.5 311.5q0 282 137 422.5t332 140.5q36 0 100 -8l115 387l108 -32l-110 -387q185 -82 225 -297l-176 -27q-20 109 -94 170l-224 -766q34 -8 62 -8 q101 0 177 69.5t95 200.5zM643 940q-201 17 -287 -132q-59 -103 -59 -273q0 -270 123 -359z" />
<glyph unicode="&#xa3;" horiz-adv-x="1139" d="M1087 37q-146 -62 -243 -62q-70 0 -139 21q-166 50 -207.5 60t-94.5 10q-155 0 -303 -95l-69 174q229 133 229 392q0 63 -16 125h-195v147h154q-51 172 -51 264q0 193 130.5 305.5t323.5 112.5q164 0 288 -92.5t155 -286.5l-181 -27q-15 123 -89.5 190.5t-176.5 67.5 q-113 0 -185.5 -73.5t-72.5 -171.5q0 -114 57 -289h314v-147h-283q21 -45 21 -89q0 -193 -181 -378l4 -5q61 23 140 23q85 0 188 -25q154 -41 232 -41q76 0 192 56z" />
<glyph unicode="&#xa5;" horiz-adv-x="1139" d="M1137 1466l-381 -669h317v-140h-411v-180h411v-139h-411v-338h-181v338h-415v139h415v180h-415v140h319l-383 669h201l299 -534q41 -72 65 -135q18 43 103 200l254 469h213z" />
<glyph unicode="&#xa7;" horiz-adv-x="1139" d="M778 1124q-16 109 -70 164t-145 55q-88 0 -146.5 -48t-58.5 -111q0 -60 59 -120.5t283 -195.5q128 -76 197 -127.5t111.5 -118.5t42.5 -157q0 -202 -230 -287q160 -124 160 -280q0 -141 -110 -234.5t-287 -93.5q-183 0 -298 91.5t-139 268.5l181 25q21 -117 85 -175.5 t171 -58.5q103 0 160 53.5t57 121.5q0 43 -24 79t-121 106.5t-230 151.5q-217 132 -278.5 223.5t-61.5 186.5t58.5 173t166.5 112q-133 114 -133 248q0 123 99 219t270 96q177 0 287 -85.5t131 -260.5zM731 244q148 74 148 186q0 73 -68.5 138t-208.5 151q-148 93 -203 139 q-151 -80 -151 -194q0 -75 59.5 -134t194.5 -139q146 -86 229 -147z" />
<glyph unicode="&#xa8;" horiz-adv-x="682" d="M618 1251h-184v205h184v-205zM248 1251h-185v205h185v-205z" />
<glyph unicode="&#xa9;" horiz-adv-x="1509" d="M756 1491q309 0 531 -221.5t222 -532.5t-221 -533t-532 -222q-312 0 -534 221.5t-222 533.5q0 311 222 532.5t534 221.5zM754 106q259 0 444.5 185.5t185.5 445.5t-185 444.5t-445 184.5t-444.5 -184.5t-184.5 -444.5t184.5 -445.5t444.5 -185.5zM1120 578 q-32 -132 -132 -203.5t-230 -71.5q-179 0 -288.5 117t-109.5 315q0 196 108.5 310t295.5 114q126 0 216.5 -60t125.5 -175l-119 -29q-61 154 -227 154q-125 0 -193.5 -89.5t-68.5 -228.5q0 -152 71 -230.5t181 -78.5q82 0 151.5 46.5t95.5 145.5z" />
<glyph unicode="&#xab;" horiz-adv-x="1139" d="M997 72h-147l-318 456l318 457h147l-260 -457zM606 72h-147l-318 456l318 457h147l-260 -457z" />
<glyph unicode="&#xac;" horiz-adv-x="1196" d="M1083 416h-170v446h-800v168h970v-614z" />
<glyph unicode="&#xae;" horiz-adv-x="1509" d="M756 1491q309 0 531 -221.5t222 -532.5t-221 -533t-532 -222q-312 0 -534 221.5t-222 533.5q0 311 222 532.5t534 221.5zM754 106q259 0 444.5 185.5t185.5 445.5t-185 444.5t-445 184.5t-444.5 -184.5t-184.5 -444.5t184.5 -445.5t444.5 -185.5zM1106 319h-160 q-151 275 -197.5 310t-115.5 35h-78v-345h-131v811h281q126 0 194 -18t110 -76.5t42 -124.5q0 -83 -60 -151t-172 -76v-4q73 -17 189 -203zM555 776h160q110 0 153 32.5t43 90.5q0 57 -41.5 89t-164.5 32h-150v-244z" />
<glyph unicode="&#xaf;" horiz-adv-x="1024" d="M1036 1624h-1048v102h1048v-102z" />
<glyph unicode="&#xb0;" horiz-adv-x="819" d="M410 1485q114 0 195 -81.5t81 -195.5q0 -115 -81.5 -196.5t-194.5 -81.5q-114 0 -195.5 81.5t-81.5 196.5t81 196t196 81zM410 1038q69 0 118.5 50t49.5 120t-49.5 119t-118.5 49q-70 0 -119 -49t-49 -119t49 -120t119 -50z" />
<glyph unicode="&#xb1;" horiz-adv-x="1196" d="M1083 682h-401v-401h-168v401h-401v168h401v401h168v-401h401v-168zM1083 0h-970v168h970v-168z" />
<glyph unicode="&#xb4;" horiz-adv-x="682" d="M596 1491l-221 -281h-148l133 281h236z" />
<glyph unicode="&#xb5;" horiz-adv-x="1139" d="M999 0h-159v125h-4q-84 -150 -263 -150q-162 0 -249 131h-5v-514h-182v1469h180v-449q0 -189 15.5 -272.5t78 -143t154.5 -59.5q41 0 86.5 15.5t87 55t57.5 89t19.5 114.5t3.5 199v451h180v-1061z" />
<glyph unicode="&#xb6;" horiz-adv-x="1100" d="M1104 1292h-143v-1700h-168v1700h-224v-1700h-168v1045q-194 13 -298.5 126.5t-104.5 280.5q0 183 114.5 302.5t358.5 119.5h633v-174z" />
<glyph unicode="&#xb7;" horiz-adv-x="569" d="M387 618h-205v205h205v-205z" />
<glyph unicode="&#xbb;" horiz-adv-x="1139" d="M997 528l-317 -456h-148l261 456l-261 457h148zM606 528l-317 -456h-148l260 456l-260 457h148z" />
<glyph unicode="&#xbf;" horiz-adv-x="1251" d="M1099 -5q-23 -203 -149 -313.5t-326 -110.5q-206 0 -338.5 113.5t-132.5 285.5q0 86 38.5 167t182.5 208q110 98 138.5 154.5t31.5 202.5h172q0 -116 -8.5 -169.5t-35 -104.5t-69 -96t-119.5 -112q-98 -87 -122.5 -136.5t-24.5 -100.5q0 -105 83 -184.5t202 -79.5 q242 0 292 296zM523 1062h205v-205h-205v205z" />
<glyph unicode="&#xc0;" horiz-adv-x="1366" d="M1368 0h-219l-172 446h-612l-162 -446h-205l563 1466h209zM918 600q-180 476 -203 540.5t-51 172.5h-5q-28 -148 -75 -274l-164 -439h498zM799 1562h-148l-221 281h236z" />
<glyph unicode="&#xc2;" horiz-adv-x="1366" d="M1368 0h-219l-172 446h-612l-162 -446h-205l563 1466h209zM918 600q-180 476 -203 540.5t-51 172.5h-5q-28 -148 -75 -274l-164 -439h498zM1001 1562h-204l-109 170l-115 -170h-204l217 281h190z" />
<glyph unicode="&#xc3;" horiz-adv-x="1366" d="M1368 0h-219l-172 446h-612l-162 -446h-205l563 1466h209zM918 600q-180 476 -203 540.5t-51 172.5h-5q-28 -148 -75 -274l-164 -439h498zM1016 1814q0 -112 -57.5 -169.5t-139.5 -57.5q-46 0 -77 10.5t-74 38.5q-71 45 -113 45q-83 0 -86 -94h-123q0 111 60 169t143 58 q65 0 140.5 -47t123.5 -47q69 0 80 94h123z" />
<glyph unicode="&#xc4;" horiz-adv-x="1366" d="M1368 0h-219l-172 446h-612l-162 -446h-205l563 1466h209zM918 600q-180 476 -203 540.5t-51 172.5h-5q-28 -148 -75 -274l-164 -439h498zM958 1599h-184v205h184v-205zM588 1599h-185v205h185v-205z" />
<glyph unicode="&#xc5;" horiz-adv-x="1366" d="M1368 0h-219l-172 446h-612l-162 -446h-205l563 1466h209zM918 600q-180 476 -203 540.5t-51 172.5h-5q-28 -148 -75 -274l-164 -439h498zM682 1884q75 0 127.5 -52.5t52.5 -127.5t-52.5 -127.5t-127.5 -52.5t-127.5 52.5t-52.5 127.5t52.5 127.5t127.5 52.5zM682 1597 q44 0 75.5 31.5t31.5 75.5t-31 75.5t-76 31.5q-44 0 -75.5 -31.5t-31.5 -75.5t31.5 -75.5t75.5 -31.5z" />
<glyph unicode="&#xc6;" horiz-adv-x="2048" d="M1935 0h-958v424h-565l-201 -424h-211l707 1466h1202v-174h-738v-450h687v-172h-687v-498h764v-172zM977 596v696h-146l-337 -696h483z" />
<glyph unicode="&#xca;" horiz-adv-x="1366" d="M1257 0h-1095v1466h1061v-174h-867v-448h811v-174h-811v-496h901v-174zM1017 1562h-204l-109 170l-115 -170h-204l217 281h190z" />
<glyph unicode="&#xcb;" horiz-adv-x="1366" d="M1257 0h-1095v1466h1061v-174h-867v-448h811v-174h-811v-496h901v-174zM982 1599h-184v205h184v-205zM612 1599h-185v205h185v-205z" />
<glyph unicode="&#xcd;" horiz-adv-x="569" d="M383 0h-195v1466h195v-1466zM554 1843l-221 -281h-148l133 281h236z" />
<glyph unicode="&#xce;" horiz-adv-x="569" d="M383 0h-195v1466h195v-1466zM615 1562h-204l-109 170l-115 -170h-204l217 281h190z" />
<glyph unicode="&#xd1;" horiz-adv-x="1479" d="M1315 0h-199l-766 1151h-4v-1151h-184v1466h198l766 -1151h4v1151h185v-1466zM1096 1810q0 -112 -57.5 -169.5t-139.5 -57.5q-46 0 -77 10.5t-74 38.5q-71 45 -113 45q-83 0 -86 -94h-123q0 111 60 169t143 58q65 0 140.5 -47t123.5 -47q69 0 80 94h123z" />
<glyph unicode="&#xd2;" horiz-adv-x="1593" d="M799 1491q308 0 504 -209t196 -551q0 -341 -197 -548.5t-503 -207.5q-317 0 -510 215t-193 525q0 361 195.5 568.5t507.5 207.5zM797 141q223 0 361.5 156t139.5 434q0 286 -141.5 440t-355.5 154q-220 0 -362 -151t-142 -463q0 -255 139 -412.5t361 -157.5zM931 1562 h-148l-221 281h236z" />
<glyph unicode="&#xd3;" horiz-adv-x="1593" d="M799 1491q308 0 504 -209t196 -551q0 -341 -197 -548.5t-503 -207.5q-317 0 -510 215t-193 525q0 361 195.5 568.5t507.5 207.5zM797 141q223 0 361.5 156t139.5 434q0 286 -141.5 440t-355.5 154q-220 0 -362 -151t-142 -463q0 -255 139 -412.5t361 -157.5zM1052 1843 l-221 -281h-148l133 281h236z" />
<glyph unicode="&#xd4;" horiz-adv-x="1593" d="M799 1491q308 0 504 -209t196 -551q0 -341 -197 -548.5t-503 -207.5q-317 0 -510 215t-193 525q0 361 195.5 568.5t507.5 207.5zM797 141q223 0 361.5 156t139.5 434q0 286 -141.5 440t-355.5 154q-220 0 -362 -151t-142 -463q0 -255 139 -412.5t361 -157.5zM1113 1562 h-204l-109 170l-115 -170h-204l217 281h190z" />
<glyph unicode="&#xd5;" horiz-adv-x="1593" d="M799 1491q308 0 504 -209t196 -551q0 -341 -197 -548.5t-503 -207.5q-317 0 -510 215t-193 525q0 361 195.5 568.5t507.5 207.5zM797 141q223 0 361.5 156t139.5 434q0 286 -141.5 440t-355.5 154q-220 0 -362 -151t-142 -463q0 -255 139 -412.5t361 -157.5zM1132 1810 q0 -112 -57.5 -169.5t-139.5 -57.5q-46 0 -77 10.5t-74 38.5q-71 45 -113 45q-83 0 -86 -94h-123q0 111 60 169t143 58q65 0 140.5 -47t123.5 -47q69 0 80 94h123z" />
<glyph unicode="&#xd6;" horiz-adv-x="1593" d="M799 1491q308 0 504 -209t196 -551q0 -341 -197 -548.5t-503 -207.5q-317 0 -510 215t-193 525q0 361 195.5 568.5t507.5 207.5zM797 141q223 0 361.5 156t139.5 434q0 286 -141.5 440t-355.5 154q-220 0 -362 -151t-142 -463q0 -255 139 -412.5t361 -157.5zM1074 1599 h-184v205h184v-205zM704 1599h-185v205h185v-205z" />
<glyph unicode="&#xd8;" horiz-adv-x="1593" d="M1520 1436l-177 -197q90 -127 123 -245.5t33 -260.5q0 -344 -198.5 -551t-497.5 -207q-258 0 -451 154l-168 -188l-100 84l176 196q-100 149 -132 261.5t-32 246.5q0 342 194 552t511 210q256 0 450 -160l168 189zM1130 1198q-92 77 -165 102t-164 25q-222 0 -363 -151.5 t-141 -440.5q0 -212 90 -371zM471 262q140 -121 326 -121q225 0 363 158t138 428q0 209 -84 367z" />
<glyph unicode="&#xd9;" horiz-adv-x="1479" d="M1315 618q0 -113 -12.5 -209t-66 -197.5t-174 -169t-321.5 -67.5q-196 0 -316 60t-176 155t-71.5 198t-15.5 230v848h194v-845q0 -132 19 -227.5t100 -169.5t250 -74q171 0 257 59t112 157.5t26 254.5v845h195v-848zM855 1562h-148l-221 281h236z" />
<glyph unicode="&#xda;" horiz-adv-x="1479" d="M1315 618q0 -113 -12.5 -209t-66 -197.5t-174 -169t-321.5 -67.5q-196 0 -316 60t-176 155t-71.5 198t-15.5 230v848h194v-845q0 -132 19 -227.5t100 -169.5t250 -74q171 0 257 59t112 157.5t26 254.5v845h195v-848zM996 1843l-221 -281h-148l133 281h236z" />
<glyph unicode="&#xdb;" horiz-adv-x="1479" d="M1315 618q0 -113 -12.5 -209t-66 -197.5t-174 -169t-321.5 -67.5q-196 0 -316 60t-176 155t-71.5 198t-15.5 230v848h194v-845q0 -132 19 -227.5t100 -169.5t250 -74q171 0 257 59t112 157.5t26 254.5v845h195v-848zM1057 1562h-204l-109 170l-115 -170h-204l217 281h190 z" />
<glyph unicode="&#xdc;" horiz-adv-x="1479" d="M1315 618q0 -113 -12.5 -209t-66 -197.5t-174 -169t-321.5 -67.5q-196 0 -316 60t-176 155t-71.5 198t-15.5 230v848h194v-845q0 -132 19 -227.5t100 -169.5t250 -74q171 0 257 59t112 157.5t26 254.5v845h195v-848zM1018 1599h-184v205h184v-205zM648 1599h-185v205h185 v-205z" />
<glyph unicode="&#xdf;" horiz-adv-x="1251" d="M147 0v999q0 177 44 281t151 157.5t231 53.5q167 0 269 -84t102 -203q0 -98 -53 -192q-15 -22 -56.5 -98.5t-41.5 -116.5q0 -46 33.5 -78.5t148.5 -108.5q126 -83 166.5 -150t40.5 -149q0 -138 -103.5 -237t-261.5 -99q-244 0 -364 240l155 74q89 -166 205 -166 q75 0 129.5 52t54.5 122q0 56 -26.5 89t-100.5 84q-148 101 -205 167t-57 131q0 46 16.5 86.5t57.5 114.5q61 108 74.5 148t13.5 69q0 67 -57.5 112t-143.5 45q-114 0 -177.5 -73.5t-63.5 -278.5v-991h-181z" />
<glyph unicode="&#xe0;" horiz-adv-x="1139" d="M1057 0h-189q-26 50 -37 131q-181 -156 -391 -156q-168 0 -265 84t-97 222q0 132 93.5 217.5t324.5 113.5l168 25q94 15 155 37q0 81 -5 114.5t-29.5 69.5t-78.5 58t-145 22q-116 0 -183.5 -43t-92.5 -160l-176 23q29 163 149 245t330 82q191 0 280.5 -56.5t110 -136.5 t20.5 -206v-242q0 -221 8.5 -296.5t49.5 -147.5zM819 467v65q-141 -47 -345 -74.5t-204 -172.5q0 -73 55 -120.5t158 -47.5q133 0 234.5 79.5t101.5 270.5zM683 1210h-148l-221 281h236z" />
<glyph unicode="&#xe1;" horiz-adv-x="1139" d="M1057 0h-189q-26 50 -37 131q-181 -156 -391 -156q-168 0 -265 84t-97 222q0 132 93.5 217.5t324.5 113.5l168 25q94 15 155 37q0 81 -5 114.5t-29.5 69.5t-78.5 58t-145 22q-116 0 -183.5 -43t-92.5 -160l-176 23q29 163 149 245t330 82q191 0 280.5 -56.5t110 -136.5 t20.5 -206v-242q0 -221 8.5 -296.5t49.5 -147.5zM819 467v65q-141 -47 -345 -74.5t-204 -172.5q0 -73 55 -120.5t158 -47.5q133 0 234.5 79.5t101.5 270.5zM828 1491l-221 -281h-148l133 281h236z" />
<glyph unicode="&#xe2;" horiz-adv-x="1139" d="M1057 0h-189q-26 50 -37 131q-181 -156 -391 -156q-168 0 -265 84t-97 222q0 132 93.5 217.5t324.5 113.5l168 25q94 15 155 37q0 81 -5 114.5t-29.5 69.5t-78.5 58t-145 22q-116 0 -183.5 -43t-92.5 -160l-176 23q29 163 149 245t330 82q191 0 280.5 -56.5t110 -136.5 t20.5 -206v-242q0 -221 8.5 -296.5t49.5 -147.5zM819 467v65q-141 -47 -345 -74.5t-204 -172.5q0 -73 55 -120.5t158 -47.5q133 0 234.5 79.5t101.5 270.5zM885 1210h-204l-109 170l-115 -170h-204l217 281h190z" />
<glyph unicode="&#xe3;" horiz-adv-x="1139" d="M1057 0h-189q-26 50 -37 131q-181 -156 -391 -156q-168 0 -265 84t-97 222q0 132 93.5 217.5t324.5 113.5l168 25q94 15 155 37q0 81 -5 114.5t-29.5 69.5t-78.5 58t-145 22q-116 0 -183.5 -43t-92.5 -160l-176 23q29 163 149 245t330 82q191 0 280.5 -56.5t110 -136.5 t20.5 -206v-242q0 -221 8.5 -296.5t49.5 -147.5zM819 467v65q-141 -47 -345 -74.5t-204 -172.5q0 -73 55 -120.5t158 -47.5q133 0 234.5 79.5t101.5 270.5zM904 1466q0 -112 -57.5 -169.5t-139.5 -57.5q-46 0 -77 10.5t-74 38.5q-71 45 -113 45q-83 0 -86 -94h-123 q0 111 60 169t143 58q65 0 140.5 -47t123.5 -47q69 0 80 94h123z" />
<glyph unicode="&#xe4;" horiz-adv-x="1139" d="M1057 0h-189q-26 50 -37 131q-181 -156 -391 -156q-168 0 -265 84t-97 222q0 132 93.5 217.5t324.5 113.5l168 25q94 15 155 37q0 81 -5 114.5t-29.5 69.5t-78.5 58t-145 22q-116 0 -183.5 -43t-92.5 -160l-176 23q29 163 149 245t330 82q191 0 280.5 -56.5t110 -136.5 t20.5 -206v-242q0 -221 8.5 -296.5t49.5 -147.5zM819 467v65q-141 -47 -345 -74.5t-204 -172.5q0 -73 55 -120.5t158 -47.5q133 0 234.5 79.5t101.5 270.5zM846 1251h-184v205h184v-205zM476 1251h-185v205h185v-205z" />
<glyph unicode="&#xe5;" horiz-adv-x="1139" d="M1057 0h-189q-26 50 -37 131q-181 -156 -391 -156q-168 0 -265 84t-97 222q0 132 93.5 217.5t324.5 113.5l168 25q94 15 155 37q0 81 -5 114.5t-29.5 69.5t-78.5 58t-145 22q-116 0 -183.5 -43t-92.5 -160l-176 23q29 163 149 245t330 82q191 0 280.5 -56.5t110 -136.5 t20.5 -206v-242q0 -221 8.5 -296.5t49.5 -147.5zM819 467v65q-141 -47 -345 -74.5t-204 -172.5q0 -73 55 -120.5t158 -47.5q133 0 234.5 79.5t101.5 270.5zM570 1540q75 0 127.5 -52.5t52.5 -127.5t-52.5 -127.5t-127.5 -52.5t-127.5 52.5t-52.5 127.5t52.5 127.5 t127.5 52.5zM570 1253q44 0 75.5 31.5t31.5 75.5t-31 75.5t-76 31.5q-44 0 -75.5 -31.5t-31.5 -75.5t31.5 -75.5t75.5 -31.5z" />
<glyph unicode="&#xe6;" horiz-adv-x="1821" d="M1739 485h-766q2 -126 26 -192.5t102 -117t175 -50.5q107 0 175.5 56t98.5 169l187 -24q-53 -176 -169.5 -263.5t-297.5 -87.5q-122 0 -221 49.5t-175 149.5q-98 -100 -208 -149.5t-232 -49.5q-181 0 -272.5 93t-91.5 213q0 42 17.5 97t73.5 112t142 83t238 48 q172 23 250 49q0 97 -5 130.5t-28 67.5t-71.5 52t-127.5 18q-124 0 -192.5 -42t-90.5 -163l-176 21q34 165 149 248t312 83q145 0 237 -36t130 -107q129 143 342 143q128 0 221.5 -50t150.5 -137.5t77 -181.5t20 -231zM1556 633q-14 152 -86 228.5t-202 76.5 q-129 0 -206.5 -81.5t-88.5 -223.5h583zM795 532q-114 -45 -324 -72q-105 -13 -157 -56.5t-52 -116.5q0 -70 52 -119t155 -49q82 0 155 32t113 86t49 110.5t9 184.5z" />
<glyph unicode="&#xe7;" horiz-adv-x="1024" d="M571 -213q0 66 -147 66l33 131q-180 34 -278.5 176.5t-98.5 359.5q0 282 133.5 423.5t351.5 141.5q155 0 273 -79.5t151 -255.5l-176 -29q-25 108 -86 162.5t-158 54.5q-150 0 -227.5 -108t-77.5 -300q0 -196 76.5 -301.5t220.5 -105.5q113 0 180 66t88 198l177 -22 q-31 -180 -136 -277.5t-284 -112.5l-13 -49q85 -8 124.5 -50.5t39.5 -98.5q0 -88 -78 -133t-213 -45q-44 0 -104 8l4 119q48 -9 88 -9q137 0 137 70z" />
<glyph unicode="&#xe8;" horiz-adv-x="1139" d="M1059 485h-795q11 -176 100.5 -269t223.5 -93q103 0 173 54.5t107 164.5l185 -23q-45 -166 -165 -255t-300 -89q-239 0 -373.5 146.5t-134.5 400.5q0 251 130.5 407t367.5 156q116 0 223.5 -51t182.5 -173.5t75 -375.5zM874 633q-11 162 -100.5 233.5t-195.5 71.5 q-127 0 -209 -85t-95 -220h600zM683 1210h-148l-221 281h236z" />
<glyph unicode="&#xe9;" horiz-adv-x="1139" d="M1059 485h-795q11 -176 100.5 -269t223.5 -93q103 0 173 54.5t107 164.5l185 -23q-45 -166 -165 -255t-300 -89q-239 0 -373.5 146.5t-134.5 400.5q0 251 130.5 407t367.5 156q116 0 223.5 -51t182.5 -173.5t75 -375.5zM874 633q-11 162 -100.5 233.5t-195.5 71.5 q-127 0 -209 -85t-95 -220h600zM828 1491l-221 -281h-148l133 281h236z" />
<glyph unicode="&#xea;" horiz-adv-x="1139" d="M1059 485h-795q11 -176 100.5 -269t223.5 -93q103 0 173 54.5t107 164.5l185 -23q-45 -166 -165 -255t-300 -89q-239 0 -373.5 146.5t-134.5 400.5q0 251 130.5 407t367.5 156q116 0 223.5 -51t182.5 -173.5t75 -375.5zM874 633q-11 162 -100.5 233.5t-195.5 71.5 q-127 0 -209 -85t-95 -220h600zM889 1210h-204l-109 170l-115 -170h-204l217 281h190z" />
<glyph unicode="&#xeb;" horiz-adv-x="1139" d="M1059 485h-795q11 -176 100.5 -269t223.5 -93q103 0 173 54.5t107 164.5l185 -23q-45 -166 -165 -255t-300 -89q-239 0 -373.5 146.5t-134.5 400.5q0 251 130.5 407t367.5 156q116 0 223.5 -51t182.5 -173.5t75 -375.5zM874 633q-11 162 -100.5 233.5t-195.5 71.5 q-127 0 -209 -85t-95 -220h600zM850 1251h-184v205h184v-205zM480 1251h-185v205h185v-205z" />
<glyph unicode="&#xec;" horiz-adv-x="569" d="M374 0h-180v1061h180v-1061zM409 1210h-148l-221 281h236z" />
<glyph unicode="&#xed;" horiz-adv-x="569" d="M374 0h-180v1061h180v-1061zM554 1491l-221 -281h-148l133 281h236z" />
<glyph unicode="&#xee;" horiz-adv-x="569" d="M374 0h-180v1061h180v-1061zM615 1210h-204l-109 170l-115 -170h-204l217 281h190z" />
<glyph unicode="&#xef;" horiz-adv-x="569" d="M374 0h-180v1061h180v-1061zM580 1251h-184v205h184v-205zM210 1251h-185v205h185v-205z" />
<glyph unicode="&#xf7;" horiz-adv-x="1196" d="M700 942h-204v205h204v-205zM1083 639h-970v168h970v-168zM700 299h-204v205h204v-205z" />
<glyph unicode="&#xf9;" horiz-adv-x="1139" d="M997 0h-161v156h-5q-122 -181 -333 -181q-111 0 -205.5 51.5t-126 142t-31.5 234.5v658h180v-588q0 -141 13.5 -202t70.5 -100.5t136 -39.5q102 0 192 70.5t90 292.5v567h180v-1061zM683 1210h-148l-221 281h236z" />
<glyph unicode="&#xfa;" horiz-adv-x="1139" d="M997 0h-161v156h-5q-122 -181 -333 -181q-111 0 -205.5 51.5t-126 142t-31.5 234.5v658h180v-588q0 -141 13.5 -202t70.5 -100.5t136 -39.5q102 0 192 70.5t90 292.5v567h180v-1061zM828 1491l-221 -281h-148l133 281h236z" />
<glyph unicode="&#xfb;" horiz-adv-x="1139" d="M997 0h-161v156h-5q-122 -181 -333 -181q-111 0 -205.5 51.5t-126 142t-31.5 234.5v658h180v-588q0 -141 13.5 -202t70.5 -100.5t136 -39.5q102 0 192 70.5t90 292.5v567h180v-1061zM889 1210h-204l-109 170l-115 -170h-204l217 281h190z" />
<glyph unicode="&#xfc;" horiz-adv-x="1139" d="M997 0h-161v156h-5q-122 -181 -333 -181q-111 0 -205.5 51.5t-126 142t-31.5 234.5v658h180v-588q0 -141 13.5 -202t70.5 -100.5t136 -39.5q102 0 192 70.5t90 292.5v567h180v-1061zM846 1251h-184v205h184v-205zM476 1251h-185v205h185v-205z" />
<glyph unicode="&#xff;" horiz-adv-x="1024" d="M1008 1061l-406 -1079q-1 -2 -2 -7q-58 -180 -135.5 -292.5t-220.5 -112.5q-48 0 -117 20l-18 170q52 -16 102 -16q100 0 138.5 55t86.5 199l-403 1063h194l250 -695q22 -64 47 -165h4q25 116 64 221l233 639h183zM790 1251h-184v205h184v-205zM420 1251h-185v205h185 v-205z" />
<glyph unicode="&#x131;" horiz-adv-x="569" d="M374 0h-180v1061h180v-1061z" />
<glyph unicode="&#x152;" horiz-adv-x="2048" d="M1982 0h-860v211h-4q-132 -236 -397 -236q-287 0 -439.5 210t-152.5 550q0 350 153.5 553t438.5 203q268 0 395 -223h4v198h832v-174h-649v-446h598v-174h-598v-498h679v-174zM719 131q162 0 276.5 142.5t114.5 471.5q0 290 -108.5 440t-282.5 150q-162 0 -275.5 -144 t-113.5 -470q0 -282 106.5 -436t282.5 -154z" />
<glyph unicode="&#x153;" horiz-adv-x="1933" d="M1851 483h-782q3 -164 91 -261t224 -97q209 0 275 221l180 -27q-46 -172 -164.5 -258t-292.5 -86q-273 0 -409 201q-154 -201 -395 -201q-225 0 -362.5 144t-137.5 399q0 271 134.5 419t367.5 148q133 0 236 -54t157 -148q142 202 389 202q206 0 347.5 -140.5 t141.5 -461.5zM1663 631q-15 158 -95 232.5t-194 74.5q-116 0 -200.5 -78t-98.5 -229h588zM573 125q135 0 224.5 109t89.5 301q0 194 -90 298.5t-224 104.5q-142 0 -226.5 -113.5t-84.5 -292.5q0 -204 88 -305.5t223 -101.5z" />
<glyph unicode="&#x178;" horiz-adv-x="1366" d="M962 1595h-184v205h184v-205zM592 1595h-185v205h185v-205zM1354 1466l-584 -845v-621h-195v621l-565 845h236l322 -493q49 -75 116 -197q42 82 444 690h226z" />
<glyph unicode="&#x192;" horiz-adv-x="569" d="M637 1473l-27 -158q-54 10 -106 10q-65 0 -106.5 -27.5t-41.5 -136.5v-100h205v-139h-205v-934q0 -103 -16.5 -166t-70.5 -100t-163 -37q-55 0 -135 16l25 160q41 -8 80 -8q63 0 81.5 27t18.5 97v945h-160v139h160v115q0 80 15 145t79.5 117.5t198.5 52.5q80 0 168 -18z " />
<glyph unicode="&#x2c6;" horiz-adv-x="682" d="M657 1210h-204l-109 170l-115 -170h-204l217 281h190z" />
<glyph unicode="&#x2c7;" horiz-adv-x="2048" d="M256 0v1536h1536v-1536h-1536zM384 128h1280v1280h-1280v-1280z" />
<glyph unicode="&#x2d8;" horiz-adv-x="682" d="M637 1479q-5 -111 -86 -185.5t-211 -74.5q-129 0 -209.5 74.5t-85.5 185.5h123q13 -68 56 -102t116 -34t116.5 34t57.5 102h123z" />
<glyph unicode="&#x2d9;" horiz-adv-x="682" d="M432 1251h-184v205h184v-205z" />
<glyph unicode="&#x2da;" horiz-adv-x="682" d="M342 1540q75 0 127.5 -52.5t52.5 -127.5t-52.5 -127.5t-127.5 -52.5t-127.5 52.5t-52.5 127.5t52.5 127.5t127.5 52.5zM342 1253q44 0 75.5 31.5t31.5 75.5t-31 75.5t-76 31.5q-44 0 -75.5 -31.5t-31.5 -75.5t31.5 -75.5t75.5 -31.5z" />
<glyph unicode="&#x2db;" horiz-adv-x="682" d="M621 -365q-120 -61 -220 -61q-96 0 -157.5 60t-61.5 161q0 85 41 230h125q-39 -91 -39 -166q0 -66 40.5 -109t103.5 -43q77 0 168 47v-119z" />
<glyph unicode="&#x2dc;" horiz-adv-x="682" d="M676 1466q0 -112 -57.5 -169.5t-139.5 -57.5q-46 0 -77 10.5t-74 38.5q-71 45 -113 45q-83 0 -86 -94h-123q0 111 60 169t143 58q65 0 140.5 -47t123.5 -47q69 0 80 94h123z" />
<glyph unicode="&#x2dd;" horiz-adv-x="682" d="M764 1491l-221 -281h-148l133 281h236zM426 1491l-221 -281h-148l133 281h236z" />
<glyph unicode="&#x3c0;" horiz-adv-x="1389" d="M1356 913h-261v-913h-181v913h-440v-913h-180v913h-261v148h1323v-148z" />
<glyph unicode="&#x1000;" horiz-adv-x="2336" d="M1169 885q39 60 91.5 108.5t115 83.5t133.5 54t148 19q80 0 154.5 -21t139 -58.5t117.5 -91t91 -118t58.5 -139t20.5 -154.5q0 -120 -45.5 -226t-124.5 -185t-185 -124.5t-226 -45.5q-42 0 -71.5 14t-46 35t-18.5 45t12 45t44.5 35t79.5 14q81 0 153 31t125 84t84 125 t31 153t-31 153t-84 125t-125 84t-153 31q-80 0 -150.5 -29.5t-123.5 -81t-84.5 -121t-34.5 -148.5q0 -5 -0.5 -8.5t-0.5 -7.5q0 -97 -20.5 -179.5t-58 -151.5t-91 -124.5t-119.5 -98.5q-27 -17 -52 -17t-45 12t-33.5 32.5t-16 44t8 46.5t36.5 40q46 30 83.5 68.5t63.5 87.5 t40.5 109t14.5 134q0 81 -31 153t-84 125t-125 84t-153 31t-153 -31t-125 -84t-84 -125t-31 -153q0 -77 15.5 -139.5t42.5 -112t63.5 -86t79.5 -60.5q27 -16 39 -38t10.5 -45.5t-13 -45t-31 -34.5t-45 -15t-52.5 13q-68 39 -123 95t-93.5 127t-59.5 157t-21 184 q0 80 20.5 154.5t58.5 139t91 118t117.5 91t139 58.5t154.5 21q77 0 148 -19t133.5 -54t115 -83.5t91.5 -108.5z" />
<glyph unicode="&#x1001;" horiz-adv-x="1303" d="M710 185q-14 69 -58.5 120.5t-105 77.5t-129 23t-130.5 -41q26 -42 61.5 -77t79 -60t93 -38.5t102.5 -13.5q45 0 87 9zM111 320q-10 20 -10.5 38t5 34t17 28.5t25.5 20.5q62 58 132.5 87t142 32t139.5 -17.5t125.5 -61.5t100.5 -99.5t64 -131.5q75 54 119.5 136.5 t44.5 182.5q0 81 -31 153t-84 125t-125 84t-153 31q-50 0 -99.5 -11.5t-95 -33.5t-84 -52.5t-65.5 -67.5q-18 -26 -41.5 -35t-46.5 -5.5t-43 18t-31 35t-10.5 45.5t18.5 51q40 55 95 100.5t120.5 77t137.5 49t145 17.5q80 0 154.5 -20.5t139 -58.5t118 -91t91 -117.5 t58.5 -139t21 -154.5q0 -120 -46 -226t-125 -185t-185 -125t-226 -46q-87 0 -165 24.5t-143.5 68.5t-117 105t-86.5 135z" />
<glyph unicode="&#x1002;" horiz-adv-x="1359" d="M398 6q-68 38 -123 94t-93.5 127t-59.5 157t-21 185q0 120 45.5 226t124.5 185t185 124.5t226 45.5q80 0 154.5 -20.5t139 -58.5t118 -91t91 -117.5t58.5 -139t21 -154.5q0 -98 -20 -181t-57.5 -152.5t-91 -125.5t-120.5 -99q-27 -17 -52 -16.5t-45 12.5t-33.5 32 t-16 43.5t8 46.5t36.5 40q46 30 83.5 68.5t63.5 87.5t40.5 109.5t14.5 134.5q0 81 -31 153t-84 125t-125 84t-153 31t-153 -31t-125 -84t-84 -125t-31 -153q0 -77 15.5 -139.5t42.5 -112t63.5 -86.5t79.5 -61q27 -15 39 -37.5t10.5 -46t-13 -44.5t-31 -34.5t-45 -15 t-52.5 13.5z" />
<glyph unicode="&#x1003;" horiz-adv-x="2338" d="M1171 252q-39 -60 -91.5 -108.5t-115 -83.5t-134 -54t-147.5 -19q-120 0 -225 45t-184 123t-125 183t-47 225v2v2v2v13q3 67 27 107.5t61.5 67t84.5 44.5t96 39q18 8 30 21t12 36q0 5 -2.5 16.5t-10 25t-21 24.5t-35.5 14.5t-54 -3.5t-75 -30q-28 -15 -50.5 -12.5 t-38 15.5t-23.5 34t-5 44t18 44t43 34q78 37 157 42t142 -21.5t103 -83.5t40 -143q0 -71 -24 -114.5t-62 -71.5t-85.5 -47t-95.5 -41q-21 -10 -32.5 -20.5t-11.5 -36.5q0 -81 31.5 -152t84.5 -124t124.5 -83.5t152.5 -30.5t153 31t125 84t84 125t31 153q0 73 -14.5 133.5 t-40.5 109.5t-64 87.5t-84 68.5q-26 17 -36 40t-7.5 46.5t16 44t33.5 32.5t45 12t52 -17q66 -43 119.5 -98.5t91 -124.5t57.5 -151.5t20 -179.5q1 -4 1.5 -7.5t0.5 -8.5q2 -79 34 -148.5t85 -121t123.5 -81t150.5 -29.5q81 0 153 31t125 84t84 125t31 153t-31 153t-84 125 t-125 84t-153 31q-49 0 -79.5 14t-44.5 35t-12 45t18.5 45t46 35t71.5 14q120 0 226 -45.5t185 -124.5t124.5 -185t45.5 -226q0 -80 -20.5 -154.5t-58.5 -139t-91 -118t-117.5 -91t-139 -58.5t-154.5 -21q-77 0 -148.5 19t-134 54t-114.5 83.5t-91 108.5z" />
<glyph unicode="&#x1004;" horiz-adv-x="1259" d="M1136 931q20 -25 22 -49.5t-7.5 -46t-28.5 -36.5t-42 -20t-47 2.5t-44 32.5q-54 68 -133.5 107.5t-173.5 39.5q-81 0 -153 -31t-125 -84t-84 -125t-31 -153t31 -153t84 -125t125 -84t153 -31q97 0 178 42t135 113q19 25 43 33.5t47 4.5t42 -19t29.5 -36t9 -46t-20.5 -50 q-40 -53 -90.5 -95.5t-110 -72.5t-125.5 -46t-137 -16q-120 0 -226 45.5t-185 124.5t-124.5 185t-45.5 226q0 80 20.5 154.5t58.5 139t91 118t117.5 91t139 58.5t154.5 21q69 0 133.5 -15.5t122.5 -44t108 -69t90 -90.5z" />
<glyph unicode="&#x1005;" horiz-adv-x="1359" d="M682 1151q120 0 226 -45.5t185 -124.5t124.5 -185t45.5 -226q0 -80 -20.5 -154.5t-58.5 -139t-91 -118t-117.5 -91t-139 -58.5t-154.5 -21t-154.5 21t-139 58.5t-117.5 91t-91 118t-58.5 139t-20.5 154.5q0 120 45.5 226t124.5 185t185 124.5t226 45.5zM382 823 q-44 -51 -68.5 -116t-24.5 -137q0 -73 24.5 -137.5t67.5 -116.5q54 26 89.5 67.5t53 90t17 100.5t-18.5 99.5t-53 87t-87 62.5zM682 963q-46 0 -88.5 -10t-80.5 -28q59 -41 99 -97.5t60.5 -121t21 -133.5t-19.5 -134t-60.5 -123t-101.5 -101q38 -18 81 -28t89 -10 q81 0 153 31t125 84t84 125t31 153t-31 153t-84 125t-125 84t-153 31z" />
<glyph unicode="&#x1006;" horiz-adv-x="2269" d="M703 186q-9 46 -32.5 84.5t-56.5 67t-74 46t-85 22t-88.5 -5t-85.5 -34.5q52 -86 140 -137.5t196 -51.5q45 0 86 9zM1591 1151q120 0 226 -45.5t185 -124.5t124.5 -185t45.5 -226q0 -80 -20.5 -154.5t-58.5 -139t-91 -118t-117.5 -91t-139 -58.5t-154.5 -21 q-77 0 -148 19t-133 53.5t-114.5 83t-91.5 108.5q-39 -60 -91.5 -108.5t-114.5 -83t-133.5 -53.5t-147.5 -19q-87 0 -163.5 24.5t-141 68.5t-115.5 105t-86 135q-19 40 -5 72t43 49q62 58 132 87t140.5 32t138 -18t124 -61.5t99 -99.5t63.5 -132q72 52 115.5 131t48.5 173 q-2 16 0 32q-3 78 -35 147t-85 120t-123.5 80.5t-149.5 29.5q-50 0 -99 -11.5t-94 -33.5t-82.5 -52.5t-64.5 -68.5q-18 -26 -41.5 -34.5t-47 -5t-43.5 17.5t-31 35t-10 46t19 51q40 55 94.5 100t119 77t135.5 49.5t145 17.5q76 0 147.5 -19t133.5 -53.5t114.5 -83 t91.5 -107.5q39 59 91.5 107.5t114.5 83t133 53.5t148 19zM1591 963q-80 0 -150 -29.5t-123 -80.5t-85 -120t-35 -147v-32q3 -79 35 -147.5t85 -119.5t123 -80.5t150 -29.5q81 0 153 31t125 84t84 125t31 153t-31 153t-84 125t-125 84t-153 31z" />
<glyph unicode="&#x1007;" horiz-adv-x="1563" d="M1035 743q-24 47 -59 86.5t-79 68.5t-95.5 45.5t-107.5 18.5q-14 -36 -13.5 -76t14 -76.5t38.5 -67t61 -47.5q31 -15 64.5 -18.5t65.5 3t60.5 22.5t50.5 41zM1142 214q-40 -52 -90.5 -93.5t-109 -71t-124.5 -45.5t-136 -16q-120 0 -226 45.5t-185 124.5t-124.5 185 t-45.5 226t45.5 226t124.5 185t185 124.5t226 45.5q115 0 216 -41t179 -113q10 12 25 20q26 13 63.5 16t77.5 -5.5t79.5 -28.5t71 -53t51 -78.5t19.5 -104.5v-85q0 -39 -24 -58t-53 -19t-53 19t-24 58v85q0 38 -16 61.5t-37 36t-41 15t-29 -1.5q-2 -1 -3.5 -1.5t-3.5 -1.5 q8 -14 15.5 -28t14.5 -28q11 -25 9.5 -47t-11.5 -40q-32 -67 -86 -114t-119 -70.5t-136.5 -20.5t-138.5 35q-53 25 -93.5 66t-66 90.5t-36 105.5t-3.5 112q-53 -23 -97 -59t-76 -83t-49.5 -103t-17.5 -117q0 -81 31 -153t84 -125t125 -84t153 -31q96 0 176.5 41.5 t134.5 111.5q19 25 43 33t47 3.5t42.5 -19.5t29.5 -36t8 -46t-21 -50z" />
<glyph unicode="&#x1008;" horiz-adv-x="1723" d="M682 1150q121 0 227 -45.5t185 -124.5t124.5 -185t45.5 -226q0 -121 -45.5 -227t-124.5 -185t-185 -124.5t-227 -45.5q-120 0 -226 45.5t-185 124.5t-124.5 185t-45.5 227q0 120 45.5 226t124.5 185t185 124.5t226 45.5zM382 822q-44 -51 -68 -116t-24 -137 q0 -73 24 -137.5t68 -116.5q54 26 89.5 67.5t52.5 90t17 100.5t-18 99.5t-53.5 87t-87.5 62.5zM682 962q-45 0 -87.5 -10t-80.5 -28q59 -41 99 -97.5t60.5 -121t21 -133.5t-19.5 -134t-60.5 -123t-102.5 -101q39 -18 82 -28t88 -10q82 0 153.5 31t124.5 84t84 125t31 153 t-31 153t-84 125t-124.5 84t-153.5 31zM1435 -691v1747q0 31 14 52t35 31.5t45.5 10.5t45.5 -10.5t35 -31.5t14 -52v-1843q-2 -29 -19 -55t-42.5 -43t-57 -22t-62.5 9l-446 171q-14 5 -29 16.5t-27 28t-19.5 36.5t-7.5 42v534q0 31 14 52t35 32t45 10.5t45 -10.5t35 -31.5 t14 -52.5v-497z" />
<glyph unicode="&#x1009;" horiz-adv-x="1267" d="M318 52v-674q0 -21 8 -39.5t21.5 -32t32 -21.5t39.5 -8h1423q21 0 39.5 8t32 21.5t21.5 32t8 39.5v125q0 31 14 52t35 31.5t45 10.5t45 -10.5t35 -31.5t14 -52v-125q0 -60 -22.5 -112.5t-62 -92t-92 -62t-112.5 -22.5h-1423q-60 0 -112.5 22.5t-92 62t-62 92t-22.5 112.5 v829q-2 3 -4 5.5t-4 4.5q-19 25 -20.5 50t9 46t29.5 36t42 19t47 -4.5t43 -33.5q54 -71 135 -113t178 -42q81 0 153 31t125 84t84 125t31 153t-31 153t-84 125t-125 84t-153 31q-94 0 -173.5 -39.5t-133.5 -107.5q-20 -25 -44 -32.5t-47 -2.5t-42 20t-28.5 36.5t-7.5 46 t22 49.5q40 50 90 90.5t108 69t122.5 44t133.5 15.5q80 0 154.5 -21t139 -58.5t117.5 -91t91 -118t58.5 -139t20.5 -154.5q0 -120 -45.5 -226t-124.5 -185t-185 -124.5t-226 -45.5q-72 0 -139.5 17t-127.5 48z" />
<glyph unicode="&#x100a;" horiz-adv-x="2242" d="M130 205q-20 24 -22 49.5t7.5 46.5t28.5 36.5t42 20.5t47 -3t44 -32q54 -68 133.5 -108t173.5 -40q81 0 153 31t125 84t84 125t31 153t-31 153t-84 125t-125 84t-153 31q-97 0 -178 -42t-135 -113q-19 -25 -43 -33t-47 -4t-42 19t-29.5 36t-9 46t20.5 50q40 52 90.5 94.5 t110 72.5t125.5 46.5t137 16.5q80 0 154.5 -21t139 -58.5t117.5 -91t91 -118t58.5 -139t20.5 -154.5v-12q3 -79 34.5 -148.5t84.5 -121t123.5 -81.5t150.5 -30q81 0 153 31t125 84t84 125t31 153t-31 153t-84 125t-125 84t-153 31q-49 0 -79.5 14t-44.5 35t-12 45.5 t18.5 45.5t46 35t71.5 14q80 0 154.5 -21t139 -58.5t117.5 -91t91 -118t58.5 -139t20.5 -154.5q0 -120 -45.5 -226t-124.5 -185t-185 -124.5t-226 -45.5q-77 0 -148 19t-133 53.5t-114.5 83t-91.5 108.5q-39 -60 -91.5 -108.5t-114.5 -83t-133.5 -53.5t-147.5 -19 q-69 0 -133 15t-123 44v-670q0 -21 8 -39.5t21.5 -32t32 -21.5t39.5 -8h1424q21 0 39 8t31.5 21.5t21.5 32t8 39.5v125q0 31 14 52t35 31.5t45.5 10.5t45.5 -10.5t35 -31.5t14 -52v-125q0 -60 -23 -112.5t-62 -92t-91.5 -62t-112.5 -22.5h-1424q-60 0 -112.5 22.5t-92 62 t-62 92t-22.5 112.5v817q-2 3 -5 6t-5 6z" />
<glyph unicode="&#x100b;" horiz-adv-x="1384" d="M1131 200q-1 -78 -1 -140q0 -27 -0.5 -52.5t-0.5 -46t-0.5 -33.5t-0.5 -14q-3 -18 -13.5 -34.5t-30.5 -29.5q-100 -65 -211.5 -91t-226.5 -25q-36 1 -78.5 4t-86 9t-85.5 15t-79 21v-109q34 -16 75 -27t84.5 -18t85.5 -10t77 -4q43 -1 95.5 8t101.5 23t90 30t62 29 q32 13 63 2q27 -8 46.5 -30.5t19.5 -60.5v-290q0 -16 5 -21.5t22 -5.5h45q31 0 52 -14t32 -35t10.5 -45t-10.5 -45t-31.5 -35t-52.5 -14h-45q-41 0 -79.5 13.5t-68.5 40.5t-48.5 67t-18.5 94v141q-72 -25 -146 -34t-152 -7q-53 2 -113.5 8.5t-121.5 20t-118 34t-103 50.5 q-22 14 -32.5 32.5t-11.5 38.5q0 1 -0.5 25.5t-0.5 60v77v77t0.5 60t0.5 26.5q2 24 15 45t33 33t45.5 12.5t52.5 -17.5q37 -24 84.5 -40t98 -26.5t100.5 -15t92 -4.5q75 -1 148.5 13t141.5 49v64q-59 -30 -124.5 -46t-136.5 -16q-120 0 -226 45.5t-184.5 124.5t-124.5 185 t-46 226q0 80 21 154.5t58.5 139t91 118t118 91t138.5 58.5t154 21q139 0 256.5 -59.5t198.5 -159.5q20 -25 22 -49.5t-7.5 -46t-28.5 -36.5t-42.5 -20t-47.5 2.5t-44 32.5q-54 68 -133.5 107.5t-173.5 39.5q-81 0 -153 -31t-125 -84t-84 -125t-31 -153t31 -153t84 -125 t125 -84t153 -31q97 0 178.5 42t134.5 113q19 25 43 33.5t47 4.5t42.5 -19t30 -36t9 -46t-20.5 -50q-4 -5 -7.5 -9t-6.5 -8z" />
<glyph unicode="&#x100c;" horiz-adv-x="1266" d="M1136 932q20 -25 22 -49.5t-7.5 -46t-28.5 -36.5t-42 -20t-47 2.5t-44 32.5q-54 68 -133.5 107.5t-173.5 39.5q-81 0 -153 -31t-125 -84t-84 -125t-31 -153t31 -153t84 -125t125 -84t153 -31q97 0 178 42t135 113q19 25 43 33.5t47 4.5t42 -19t29.5 -36t9 -46t-20.5 -50 q-4 -5 -7.5 -10t-8.5 -10l1 -820q0 -60 -23 -112.5t-62 -92t-91.5 -62t-112.5 -22.5h-453q-60 0 -112.5 23t-91.5 62t-61.5 91.5t-22.5 112.5t25 113.5t67.5 91.5t99 56.5t119.5 9.5q48 -6 85 -20.5t70 -35t63.5 -46t65.5 -55.5q24 -20 31 -43.5t1.5 -45.5t-20.5 -39.5 t-36.5 -25.5t-46 -4t-48.5 24q-14 12 -28.5 25.5t-31 27.5t-35.5 26.5t-43 22.5q-21 9 -47 11.5t-48.5 -5.5t-38 -29t-17.5 -59q0 -21 8 -39.5t21.5 -32t32 -21.5t39.5 -8h453q21 0 39 8t31.5 21.5t21.5 32t8 39.5v671q-59 -29 -124 -45t-135 -16q-120 0 -226 45.5 t-185 124.5t-124.5 185t-45.5 226q0 80 20.5 154.5t58.5 139t91 118t117.5 91t139 58.5t154.5 21q69 0 133.5 -15.5t122.5 -44t108 -69t90 -90.5z" />
<glyph unicode="&#x100d;" horiz-adv-x="1382" d="M311 -50q63 -32 129 -44.5t137 -14.5q88 -2 167 13t155 62q9 8 21.5 12.5t25.5 6.5t24.5 1.5t18.5 -3.5q27 -8 46.5 -30t19.5 -60v-589q0 -17 5 -22t22 -5h105q31 0 52.5 -14t31.5 -35t10.5 -45t-10.5 -45t-31.5 -35t-52.5 -14h-105q-41 0 -79.5 13.5t-68.5 40.5 t-48.5 67t-18.5 94v439q-72 -25 -146 -33.5t-152 -6.5q-107 3 -207 27t-194 85q-20 14 -32.5 36t-12.5 48v309q-20 32 -22 60.5t7.5 50.5t28 36t41 17t46 -7t42.5 -35q54 -71 135 -113t178 -42q81 0 153 31t125 84t84 125t31 153t-31 153t-84 125t-125 84t-153 31 q-94 0 -173.5 -39.5t-133.5 -107.5q-20 -25 -44 -32.5t-47 -2.5t-42 20t-28.5 36.5t-7.5 46t22 49.5q40 50 90 90.5t108 69t122.5 44t133.5 15.5q80 0 154.5 -21t139 -58.5t117.5 -91t91 -118t58.5 -139t20.5 -154.5q0 -120 -45.5 -226t-124.5 -185t-185 -124.5t-226 -45.5 q-73 0 -140.5 17t-127.5 48v-102z" />
<glyph unicode="&#x100e;" horiz-adv-x="1369" d="M295 568q0 -81 31 -153t84 -125t125 -84t153 -31t152.5 31t125 84t84.5 125t31 153q0 148 -55 249t-148 161q-26 17 -36 40t-7.5 46.5t15.5 43.5t33.5 32t45.5 12.5t51 -16.5q67 -43 120.5 -100.5t91 -129t57.5 -156.5t20 -182q0 -120 -45.5 -226t-124.5 -185 t-185 -124.5t-226 -45.5q-119 0 -223.5 44.5t-183.5 121.5t-125.5 180.5t-48.5 221.5q-1 5 -1.5 10t-0.5 11q0 63 18 105q9 25 22 39q19 25 44.5 43.5t55.5 32.5t63 26.5t66 27.5q18 8 30 16t12 31q0 5 -2.5 16.5t-10 25t-21 24.5t-35.5 14.5t-53.5 -3.5t-74.5 -30 q-28 -15 -51 -12.5t-38.5 15.5t-23 34t-5 44t17 44t43.5 34q78 37 157 42t142.5 -21.5t103.5 -83.5t40 -143q0 -71 -24 -113t-62.5 -68t-86 -43t-95.5 -39q-19 -9 -30 -18t-13 -29q0 -5 0.5 -9.5t0.5 -9.5z" />
<glyph unicode="&#x100f;" horiz-adv-x="2645" d="M1198 329q-8 -25 -13 -61q-1 -6 8 -22t26.5 -32.5t43.5 -29t59 -11.5q33 0 58 12.5t42 28.5t25.5 31.5t7.5 22.5q-5 43 -15.5 76.5t-22 63.5t-21 59.5t-13.5 64t0.5 77.5t22.5 100q10 33 19 78t5 86t-28 69.5t-79 28.5q-40 0 -63.5 -13t-36 -34.5t-15 -49t0.5 -56.5 t10 -57.5t14 -52.5q18 -62 21 -108t-3.5 -87.5t-21 -84.5t-31.5 -99zM1965 962q-61 0 -116.5 -17.5t-102.5 -48.5t-83.5 -75t-58.5 -96q-8 -38 -18 -71q-17 -55 -12.5 -99t17.5 -85t29 -84t22 -95q8 -66 -19.5 -122t-75.5 -97t-107.5 -64t-114.5 -24q-85 -1 -152.5 32.5 t-109.5 89.5t-55.5 128.5t9.5 148.5q12 40 24 71t19 61t6 62.5t-14 77.5q-14 46 -21 96q-25 47 -61 86t-81 66.5t-97.5 43t-109.5 15.5q-81 0 -153 -31t-125 -84t-84 -124.5t-31 -152.5q0 -82 31 -153.5t84 -125t125 -84t153 -30.5q49 0 79.5 -14t44.5 -35t12.5 -45.5 t-18 -45.5t-46.5 -35t-72 -14q-120 0 -226 45.5t-185 124.5t-124.5 185t-45.5 227q0 120 45.5 226t124.5 184.5t185 124.5t226 46q108 0 203.5 -36.5t171.5 -100.5q31 64 95 104.5t171 40.5q53 0 94.5 -11t73.5 -31t55 -47.5t38 -60.5q77 66 174 104t207 38q120 0 226 -46 t185 -124.5t124.5 -184.5t45.5 -226q0 -121 -45.5 -227t-124.5 -185t-185 -124.5t-226 -45.5q-42 0 -71.5 14t-46 35t-18.5 45.5t12 45.5t44.5 35t79.5 14q81 0 153 30.5t125 84t84 125t31 153.5q0 81 -31 152.5t-84 124.5t-125 84t-153 31z" />
<glyph unicode="&#x1010;" horiz-adv-x="2335" d="M682 963q-81 0 -153 -31t-125 -84t-84 -125t-31 -153t31 -153t84 -125t125 -84t153 -31t153 31t125 84t84 125t31 153t-31 153t-84 125t-125 84t-153 31zM1168 889q39 59 91.5 107.5t114.5 83t133 53t148 18.5q120 0 226 -45.5t185 -124.5t124.5 -185t45.5 -226 t-45.5 -226t-124.5 -185t-185 -124.5t-226 -45.5q-42 0 -71.5 14t-46 35t-18.5 45t12 45t44.5 35t79.5 14q81 0 153 31t125 84t84 125t31 153t-31 153t-84 125t-125 84t-153 31q-78 0 -147 -28.5t-121.5 -78t-85.5 -116.5t-38 -143v-27q0 -120 -45.5 -226t-124.5 -185 t-185 -124.5t-226 -45.5t-226 45.5t-185 124.5t-124.5 185t-45.5 226t45.5 226t124.5 185t185 124.5t226 45.5q76 0 147 -18.5t133 -53t114.5 -83t91.5 -107.5z" />
<glyph unicode="&#x1011;" horiz-adv-x="2335" d="M1074 540v60q-6 76 -38.5 142.5t-85 115.5t-121.5 77t-147 28q-81 0 -152.5 -31t-124.5 -84t-84 -125t-31 -153t31 -153t84 -125t124.5 -84t152.5 -31q78 0 147 28t121.5 77t85 115.5t38.5 142.5zM1655 1151q120 0 226 -45.5t185 -124.5t124.5 -185t45.5 -226t-45.5 -226 t-124.5 -185t-185 -124.5t-226 -45.5q-76 0 -147 18.5t-133 53t-114.5 83t-91.5 107.5q-39 -59 -91.5 -107.5t-114.5 -83t-133.5 -53t-147.5 -18.5q-120 0 -226 45.5t-184.5 124.5t-124.5 185t-46 226t46 226t124.5 185t184.5 124.5t226 45.5q76 0 147.5 -18.5t133.5 -53 t114.5 -83t91.5 -107.5q39 59 91.5 107.5t114.5 83t133 53t147 18.5zM1655 963q-78 0 -146.5 -28t-121.5 -77t-85.5 -115.5t-38.5 -142.5q1 -30 0 -60q6 -76 38.5 -142.5t85.5 -115.5t121.5 -77t146.5 -28q81 0 153 31t125 84t84 125t31 153t-31 153t-84 125t-125 84 t-153 31z" />
<glyph unicode="&#x1012;" horiz-adv-x="1292" d="M1081 565q53 -40 82.5 -99.5t29.5 -142.5q0 -71 -25.5 -124t-68.5 -91t-99.5 -62t-117 -38.5t-121.5 -20t-114 -5.5q-83 0 -171 13t-164 45.5t-131 86.5t-73 136q-7 31 2.5 54.5t27.5 38t42 19.5t46.5 -0.5t40.5 -23t25 -48.5q5 -23 28 -46t66 -42t107.5 -31t153.5 -12 q21 0 55.5 1.5t74.5 6.5t80.5 15t73.5 27t53.5 41.5t20.5 59.5q0 28 -10.5 54.5t-41.5 47.5t-87.5 33.5t-148.5 12.5q-33 0 -54.5 14t-32.5 35t-11 45.5t11 45.5t32.5 35t54.5 14q92 0 148.5 13t87.5 34t41.5 47.5t10.5 54.5q0 35 -20.5 59.5t-53.5 41.5t-73.5 27 t-80.5 15.5t-74.5 7t-55.5 1.5q-20 0 -54 -2t-74 -7.5t-80.5 -16t-73.5 -27.5t-54 -41t-21 -58q0 -32 14.5 -55t48.5 -42q27 -16 38.5 -38.5t10.5 -46t-13 -45t-31 -35t-44.5 -15t-52.5 13.5q-71 39 -115.5 105t-44.5 158q0 69 26 121.5t69.5 90.5t100 63t117 39.5t121 20.5 t112.5 6q53 0 114 -5.5t121.5 -20t117 -38.5t99.5 -62t68.5 -91t25.5 -124q0 -83 -29.5 -143t-82.5 -101z" />
<glyph unicode="&#x1013;" horiz-adv-x="1362" d="M101 569q0 120 45.5 226t124.5 185t185 124.5t226 45.5t226 -45.5t185 -124.5t124.5 -185t45.5 -226q0 -80 -20.5 -154.5t-58.5 -139t-91 -118t-117.5 -91t-139 -58.5t-154.5 -21t-154.5 21t-139 58.5t-117.5 91t-91 118t-58.5 139t-20.5 154.5zM428 268 q52 -43 116.5 -67.5t137.5 -24.5t137.5 24t115.5 68q-26 54 -67 89.5t-89.5 52.5t-100.5 17t-99.5 -18t-87 -53.5t-63.5 -87.5zM289 569q0 -46 10 -88.5t28 -80.5q41 59 97.5 99t121 60.5t133 21t133.5 -19.5t123 -60.5t101 -102.5q19 39 29 82t10 89q0 81 -31 153t-84 125 t-125 84t-153 31t-153 -31t-125 -84t-84 -125t-31 -153z" />
<glyph unicode="&#x1014;" horiz-adv-x="1377" d="M634 174q-17 77 -61 139.5t-125 101.5q-55 26 -94.5 21.5t-57 -27.5t-10 -59t46.5 -71.5t112.5 -64.5t188.5 -40zM946 922q-6 6 -21.5 11.5t-37 9.5t-45.5 7t-46 5t-40 3t-27 1q-18 0 -54.5 -0.5t-73.5 -7t-63.5 -22t-24.5 -46.5q1 -15 25 -32t64 -35t91.5 -37.5t108 -40 t114 -41.5t108.5 -43t92 -45t64 -46q59 -59 81 -120t13.5 -119.5t-44.5 -112t-94 -97t-135 -75t-166 -46.5v-3v-808q0 -31 -14 -52t-35 -31.5t-45.5 -10.5t-45.5 10.5t-35 31.5t-14 52v800q-83 5 -168.5 25t-172.5 59q-70 31 -115 78.5t-67 101.5t-22 111t19 107t55.5 89.5 t89 59t119 15t145.5 -42.5q55 -26 103.5 -63.5t87 -88t65.5 -113.5t40 -141q46 8 86.5 21t73.5 33q57 34 78.5 69.5t14.5 67.5t-38 59t-77 45q-37 15 -87 30.5t-106 34t-114 41t-111.5 49.5t-98.5 60.5t-75 74.5t-40.5 90.5t4.5 108.5q14 56 56.5 92t99 56.5t119.5 28.5 t119 8q40 0 91 -4t101 -15t94.5 -31t72.5 -53q21 -24 24 -49t-6 -46.5t-27.5 -37.5t-41 -21.5t-47 1t-44.5 30.5z" />
<glyph unicode="&#x1015;" horiz-adv-x="1363" d="M340 1087q27 15 52.5 13.5t45 -15t31 -34.5t13 -44.5t-10 -46t-39.5 -37.5q-27 -22 -52.5 -51t-45.5 -70t-32.5 -97.5t-12.5 -132.5q0 -81 31 -153t84 -125t125 -84t153 -31t153 31t125 84t84 125t31 153q2 47 -3 96t-20.5 95.5t-44.5 87.5t-75 71q-27 17 -37 40 t-7.5 46.5t16 43.5t33.5 32t45.5 12.5t51.5 -16.5q49 -35 91 -82t73 -109.5t48.5 -141t17.5 -175.5q0 -80 -21 -154.5t-58.5 -139t-91 -117.5t-118 -91t-139 -58.5t-154.5 -20.5q-120 0 -226 45.5t-185 124.5t-124.5 185t-45.5 226q0 99 17.5 180t49 145t75.5 111.5t97 78.5 z" />
<glyph unicode="&#x1016;" horiz-adv-x="1363" d="M1039 406q-70 21 -127 64.5t-96.5 101t-60.5 126t-19 139t28 140.5t80 132q10 15 24 25.5t31 15t36 2t39 -15.5q67 -43 120.5 -100.5t91 -129t57.5 -156.5t20 -182q0 -80 -21 -154.5t-58.5 -139t-91 -117.5t-118 -91t-139 -58.5t-154.5 -20.5q-120 0 -226 45.5 t-185 124.5t-124.5 185t-45.5 226q0 99 21 186t59.5 160t93.5 130t123 95q27 15 52.5 13.5t45 -15t31 -34.5t13 -44.5t-10 -46t-39.5 -37.5q-43 -24 -79.5 -62t-63.5 -89t-42.5 -115.5t-15.5 -140.5q0 -81 31 -153t84 -125t125 -84t153 -31q60 0 114.5 17t101 47.5t83 73 t59.5 93.5zM917 944q-27 -56 -27 -116t21.5 -113.5t63.5 -95.5t99 -62v11q0 129 -42 222t-115 154z" />
<glyph unicode="&#x1017;" horiz-adv-x="1363" d="M405 901q-53 -57 -84.5 -141.5t-31.5 -197.5q0 -81 31 -153t84 -125t125 -84t153 -31t153 31t125 84t84 125t31 153q0 104 -27.5 184t-77.5 140q-21 -37 -51.5 -67.5t-67 -52t-79 -33t-88.5 -10.5t-88.5 14.5t-78.5 37t-64.5 55.5t-47.5 71zM398 1133q34 19 64.5 12 t50 -28.5t25.5 -52t-9 -57.5q7 -41 31 -69t56 -42.5t68 -16t69.5 10.5t59.5 37t38 63q-26 28 -23.5 62t23 59t54 33.5t70.5 -14.5q67 -43 120.5 -100.5t91 -129t57.5 -156.5t20 -182q0 -80 -21 -154.5t-58.5 -139t-91 -117.5t-118 -91t-139 -58.5t-154.5 -20.5 q-120 0 -226 45.5t-185 124.5t-124.5 185t-45.5 226q0 99 21 186t59.5 160t93.5 130t123 95z" />
<glyph unicode="&#x1018;" horiz-adv-x="2239" d="M130 931q40 50 90 90.5t108 69t122.5 44t133.5 15.5q76 0 147.5 -19t133.5 -53.5t114.5 -83t91.5 -108.5q39 60 91.5 108.5t114.5 83t133 53.5t148 19q80 0 154.5 -21t139 -58.5t117.5 -91t91 -118t58.5 -139t20.5 -154.5q0 -120 -45.5 -226t-124.5 -185t-185 -124.5 t-226 -45.5q-42 0 -71.5 14t-46 35t-18.5 45t12 45t44.5 35t79.5 14q81 0 153 31t125 84t84 125t31 153t-31 153t-84 125t-125 84t-153 31q-80 0 -150.5 -29.5t-123.5 -81t-84.5 -121t-34.5 -148.5v-13q0 -120 -45.5 -226t-124.5 -185t-185 -124.5t-226 -45.5q-71 0 -137 16 t-125.5 46t-110 72.5t-90.5 95.5q-19 25 -20.5 50t9 46t29.5 36t42 19t47 -4t43 -33q54 -72 135 -114t178 -42q81 0 153 31t125 84t84 125t31 153t-31 153t-84 125t-125 84t-153 31q-94 0 -173.5 -39.5t-133.5 -107.5q-20 -25 -44 -32.5t-47 -2.5t-42 20t-28.5 36.5t-7.5 46 t22 49.5z" />
<glyph unicode="&#x1019;" horiz-adv-x="1363" d="M330 394q40 59 96 99.5t120 61.5t132 22t133 -17.5t123 -58t102 -99.5q18 38 28 80.5t10 87.5q0 74 -13.5 132.5t-37.5 103.5t-56.5 77.5t-70.5 55.5q-27 17 -37 40t-7.5 46.5t16 43.5t33.5 32t45 12.5t52 -16.5q55 -30 103.5 -79.5t84.5 -116.5t56.5 -150.5t20.5 -180.5 q0 -80 -21 -154.5t-58.5 -139t-91 -117.5t-118 -91t-139 -58.5t-154.5 -20.5q-120 0 -226 45.5t-185 124.5t-124.5 185t-45.5 226q0 99 23.5 185.5t62 155.5t87.5 118t100 73q27 15 52.5 13.5t45 -15t31 -34.5t13 -44.5t-10.5 -46t-39 -37.5q-25 -24 -54.5 -57t-55.5 -77.5 t-44.5 -102.5t-22.5 -131q0 -48 11 -92t31 -84zM936 271q-27 52 -68 86.5t-89 51t-99.5 15.5t-98.5 -19.5t-86 -53.5t-62 -86q51 -42 114 -65t134 -23q74 0 139 24.5t116 69.5z" />
<glyph unicode="&#x101a;" horiz-adv-x="2338" d="M1169 252q-39 -60 -91.5 -108.5t-115 -83.5t-133.5 -54t-148 -19q-80 0 -154.5 21t-139 58.5t-117.5 91t-91 118t-58.5 139t-20.5 154.5q0 196 67 329t204 210q27 15 52.5 13t45 -15t31 -34.5t13 -45t-10.5 -46t-39 -37.5q-43 -24 -75.5 -57t-54.5 -78t-33.5 -104 t-11.5 -135q0 -81 31 -153t84 -125t125 -84t153 -31t153 31t125 84t84 125t31 153q0 73 -10.5 129t-32 100t-55 78t-79.5 64q-27 17 -37 40t-7.5 46.5t16 44t33.5 32.5t45 12t52 -17q66 -43 115.5 -94t82.5 -115t49.5 -142t16.5 -175q0 -4 0.5 -7.5t0.5 -8.5 q3 -79 34.5 -148.5t84.5 -121t123.5 -81t150.5 -29.5q81 0 153 31t125 84t84 125t31 153t-31 153t-84 125t-125 84t-153 31q-49 0 -79.5 14t-44.5 35t-12 45t18.5 45t46 35t71.5 14q120 0 226 -45.5t185 -124.5t124.5 -185t45.5 -226q0 -80 -20.5 -154.5t-58.5 -139 t-91 -118t-117.5 -91t-139 -58.5t-154.5 -21q-77 0 -148 19t-133.5 54t-115 83.5t-91.5 108.5z" />
<glyph unicode="&#x101b;" horiz-adv-x="1440" d="M356 349q46 -69 117 -113.5t156 -55.5q-6 47 -31.5 85.5t-63.5 62.5t-84 30.5t-94 -9.5zM681 -12q-120 0 -226 45.5t-185 124.5t-124.5 185t-45.5 226t45.5 226t124.5 185t185 124.5t226 45.5q121 0 227 -45.5t185 -124.5t124.5 -185t45.5 -226v-1252q0 -20 10 -29.5 t21 -9.5h51q31 0 52.5 -14t31.5 -35t10.5 -45.5t-10.5 -45.5t-32 -35t-52 -14h-51q-61 0 -103 24t-68 59t-37.5 74.5t-11.5 70.5v1252q0 81 -31 153t-84 125t-124.5 84t-153.5 31q-81 0 -152.5 -31t-125 -84t-84.5 -125t-31 -153q0 -20 2 -39.5t6 -39.5q65 25 130.5 24 t124 -23.5t106.5 -63.5t79.5 -95t43 -119.5t-4.5 -136.5q-2 -34 -25.5 -61t-68.5 -27z" />
<glyph unicode="&#x101c;" horiz-adv-x="2336" d="M1262 588v-10v-21q3 -80 34.5 -149t84.5 -120.5t123.5 -81t150.5 -29.5q81 0 153 31t125 84t84 125t31 153t-31 153t-84 125t-125 84t-153 31q-35 0 -61 7.5t-42.5 19.5t-24.5 28t-8 33q0 18 9 36t26.5 32.5t42.5 23t58 8.5q120 0 226 -45.5t185 -124.5t124.5 -185 t45.5 -226q0 -80 -20.5 -154.5t-58.5 -139t-91 -118t-117.5 -91t-139 -58.5t-154.5 -21q-119 0 -224.5 45t-185 122.5t-126 182t-46.5 223.5q0 6 0.5 12.5t0.5 8.5q-3 79 -34.5 148.5t-84.5 121t-123.5 81.5t-150.5 30q-81 0 -153 -31t-125 -84t-84 -125t-31 -153t31 -153 t84 -125t125 -84t153 -31q35 0 60.5 -7.5t42.5 -20t25 -28.5t8 -33q0 -18 -9 -36t-26.5 -32.5t-42.5 -23t-58 -8.5q-80 0 -154.5 21t-139 58.5t-117.5 91t-91 118t-58.5 139t-20.5 154.5q0 120 45.5 226t124.5 185t185 124.5t226 45.5q118 0 222.5 -44t183 -120.5 t125.5 -179t50 -219.5z" />
<glyph unicode="&#x101d;" horiz-adv-x="1363" d="M682 1150q120 0 226 -45.5t185 -124.5t124.5 -185t45.5 -226t-45.5 -226t-124.5 -185t-185 -124.5t-226 -45.5q-80 0 -154.5 20.5t-139 58.5t-118 91t-91 117.5t-58.5 139t-21 154.5t21 154.5t58.5 139t91 117.5t118 91t139 58.5t154.5 20.5zM682 962q-81 0 -153 -31 t-125 -84t-84 -125t-31 -153t31 -153t84 -125t125 -84t153 -31t153 31t125 84t84 125t31 153t-31 153t-84 125t-125 84t-153 31z" />
<glyph unicode="&#x101e;" horiz-adv-x="2239" d="M130 206q-20 24 -22 49.5t7.5 46.5t28.5 36t42 20t47 -2.5t44 -32.5q54 -68 133.5 -107.5t173.5 -39.5q81 0 153 31t125 84t84 125t31 153t-31 153t-84 125t-125 84t-153 31q-97 0 -178 -42t-135 -114q-19 -25 -43 -33t-47 -4t-42 19t-29.5 36t-9 46t20.5 50 q40 52 90.5 94.5t110 72.5t125.5 46.5t137 16.5q120 0 226 -45.5t185 -124.5t124.5 -185t45.5 -226v-13q3 -79 34.5 -148.5t84.5 -121t123.5 -81t150.5 -29.5q81 0 153 31t125 84t84 125t31 153t-31 153t-84 125t-125 84t-153 31q-49 0 -79.5 14t-44.5 35t-12 45t18.5 45 t46 35t71.5 14q120 0 226 -45.5t185 -124.5t124.5 -185t45.5 -226q0 -80 -20.5 -154.5t-58.5 -139t-91 -118t-117.5 -91t-139 -58.5t-154.5 -21q-77 0 -148 19t-133 53.5t-114.5 83t-91.5 108.5q-39 -60 -91.5 -108.5t-114.5 -83t-133.5 -53.5t-147.5 -19q-69 0 -133.5 15.5 t-122.5 44t-108 69t-90 90.5z" />
<glyph unicode="&#x101f;" horiz-adv-x="2337" d="M1074 587v2q-1 79 -20 141t-46.5 106t-58 71.5t-55.5 39.5q-27 17 -37 40.5t-7.5 46.5t16 43.5t33.5 32.5t45 12.5t52 -16.5q29 -21 56 -40.5t51 -41t45.5 -47.5t40.5 -61q40 54 91 97t110.5 74t126 47.5t138.5 16.5q120 0 226 -46t185 -125t125 -185t46 -226 q0 -80 -21 -154.5t-58.5 -139t-91 -117.5t-118 -91t-139 -58.5t-154.5 -20.5q-42 0 -71.5 14t-46 35t-18.5 45t12 45t44.5 35t79.5 14q81 0 153 31t125 84t84 125t31 153t-31 153t-84 125t-125 84t-153 31q-79 0 -149 -29.5t-123 -80.5t-85 -119.5t-35 -146.5v-10 q0 -80 -20.5 -154.5t-58.5 -139t-91 -118t-118 -91t-139.5 -58.5t-154.5 -21t-154.5 21t-139 58.5t-117.5 91t-91 118t-58.5 139t-20.5 154.5q0 98 20 177.5t55 143.5t82 113.5t101 88.5q27 15 52 13t44.5 -15t31.5 -34.5t13 -45t-10.5 -46t-38.5 -37.5q-32 -24 -61 -54.5 t-51.5 -72.5t-36 -98.5t-13.5 -132.5q0 -81 31 -153t84 -125t125 -84t153 -31q82 0 153.5 31t124.5 84t84 125t31 153v1v10z" />
<glyph unicode="&#x1020;" horiz-adv-x="1265" d="M1107 -113q0 -12 -5 -24t-11.5 -22t-14.5 -17.5t-14 -10.5q-48 -31 -104.5 -53t-116 -36t-120 -20.5t-115.5 -7.5q-75 -1 -148 9.5t-144 34.5v-362q0 -21 8 -39.5t21.5 -32t31.5 -21.5t39 -8h453q21 0 39.5 8t32 21.5t21.5 32t8 39.5q-2 38 -18 59t-38.5 29t-48 5.5 t-46.5 -11.5q-24 -10 -43 -22.5t-35.5 -26.5t-31 -27.5t-28.5 -25.5q-24 -21 -49 -24.5t-46 4.5t-36.5 25.5t-20.5 39.5t2 45.5t31 43.5q34 30 65 55.5t64 46t70 35t85 20.5q63 9 119.5 -9.5t99 -56.5t67.5 -91.5t25 -113.5t-22.5 -112.5t-61.5 -91.5t-91.5 -62t-112.5 -23 h-453q-60 0 -112.5 22.5t-91.5 62t-62 92t-23 112.5v489q-6 27 4 54t31 44t50 20.5t60 -16.5q75 -48 159 -66.5t171 -18.5q37 0 78 3.5t82.5 11t81.5 19.5t76 30v89q-54 -24 -113.5 -37t-123.5 -13q-120 0 -226 45.5t-185 124.5t-124.5 185t-45.5 226q0 80 20.5 154.5 t58.5 139t91 118t117.5 91t139 58.5t154.5 21q69 0 133.5 -15.5t122.5 -44t108 -69t90 -90.5q20 -25 22 -49.5t-7.5 -46t-28.5 -36.5t-42 -20t-47 2.5t-44 32.5q-54 68 -133.5 107.5t-173.5 39.5q-81 0 -153 -31t-125 -84t-84 -125t-31 -153t31 -153t84 -125t125 -84 t153 -31q97 0 178 42t135 113q19 25 43 33.5t47 4.5t42 -19t29.5 -36t9 -46t-20.5 -50q-9 -12 -18.5 -23t-19.5 -22v-23v-52.5t0.5 -68t0.5 -67.5v-52v-22z" />
<glyph unicode="&#x1021;" horiz-adv-x="2229" d="M1537 176h10q75 0 141.5 26t118.5 73q-38 27 -80 29.5t-80 -13.5t-67.5 -46t-42.5 -69zM1080 563q53 -40 82.5 -99.5t29.5 -143.5q0 -71 -25.5 -123.5t-68.5 -90.5t-99.5 -62.5t-117 -38.5t-121.5 -19.5t-114 -5.5q-83 0 -171 13t-164 45t-131 86t-73 136q-7 31 2.5 54.5 t27.5 38.5t42 20t46.5 -0.5t40.5 -23t25 -48.5q5 -23 28 -46t66 -42.5t107.5 -31.5t153.5 -12q21 0 55.5 1.5t74.5 6.5t80.5 15t73.5 27t53.5 41.5t20.5 59.5q0 28 -10.5 54.5t-41.5 47.5t-87.5 33.5t-148.5 12.5q-33 0 -54.5 14t-32.5 35t-11 46t11 46t32.5 35t54.5 14 q92 0 148.5 12.5t87.5 33.5t41.5 48t10.5 55q0 35 -20.5 59.5t-53.5 41.5t-73.5 27t-80.5 15t-74.5 6.5t-55.5 1.5q-20 0 -54 -2t-74 -7.5t-80.5 -16t-73.5 -27t-54 -41t-21 -57.5q0 -32 14.5 -55t48.5 -43q27 -15 38.5 -37.5t10.5 -46t-13 -45t-31 -35t-44.5 -15.5 t-52.5 14q-71 39 -115.5 104.5t-44.5 158.5q0 69 26 121.5t69.5 90.5t100 63t117 39.5t121 20.5t112.5 6q60 0 129 -7t136.5 -26t126.5 -51.5t98 -83.5q80 80 185 125t226 45q80 0 154.5 -20.5t139 -58.5t118 -91t91 -117.5t58.5 -139t21 -154.5t-21 -154.5t-58.5 -139 t-91 -117.5t-118 -91t-139 -58.5t-154.5 -20.5q-56 0 -88 17.5t-45 61.5q-12 40 -9.5 80.5t16 77.5t37.5 70t55 59q40 34 88 52t97.5 19.5t97.5 -13t89 -44.5q26 45 40.5 95.5t14.5 105.5q0 81 -31 153t-84 125t-125 84t-153 31q-64 0 -122 -19t-106 -53.5t-84 -82 t-57 -104.5q-14 -44 -38.5 -78.5t-59.5 -61.5z" />
<glyph unicode="&#x1022;" horiz-adv-x="2343" d="M1174 885q39 60 91 108.5t114.5 83.5t134 54t148.5 19q80 0 154.5 -21t139 -58.5t117.5 -91t91 -118t58.5 -139t20.5 -154.5q0 -120 -45.5 -226t-124.5 -185t-185 -124.5t-226 -45.5q-42 0 -71.5 14t-46 35t-18.5 45t12 45t44.5 35t79.5 14q81 0 153 31t125 84t84 125 t31 153t-31 153t-84 125t-125 84t-153 31q-80 0 -150.5 -29.5t-123.5 -81t-85 -121t-34 -148.5q0 -5 -0.5 -8.5t-1.5 -7.5q0 -97 -20 -179.5t-57.5 -151.5t-91 -124.5t-119.5 -98.5q-27 -17 -52 -17t-45 12t-33.5 32.5t-16 44t7.5 46.5t36 40q46 30 84 68.5t64 87.5 t40.5 109.5t14.5 133.5q0 81 -31 153t-84 125t-125 84t-153 31t-152.5 -30.5t-124.5 -83.5t-84.5 -124t-31.5 -152q0 -26 11.5 -36.5t32.5 -20.5q48 -22 95.5 -41t85.5 -47t62 -71.5t24 -114.5q0 -86 -40 -143t-103 -83.5t-142 -21.5t-157 42q-28 13 -43 34t-18 44t5 44 t23.5 34t38 15.5t50.5 -12.5q43 -23 75 -30t54 -3.5t35.5 14.5t21 24.5t10 25t2.5 16.5q0 23 -12 36t-30 21q-49 21 -96 39t-84.5 44.5t-61.5 67t-27 107.5v13v2v2v2q1 120 47 225t125 183t184 123t225 45q76 0 147.5 -19t134 -54t115 -83.5t91.5 -108.5z" />
<glyph unicode="&#x1023;" horiz-adv-x="2338" d="M1168 -207q59 74 150 120t200 46q91 0 171.5 -35t140.5 -95t95 -140.5t35 -171.5v-168q0 -6 0.5 -18.5t3.5 -25t9.5 -22.5t18.5 -10h88q31 0 51.5 -13.5t30.5 -34t10 -44.5t-10 -44.5t-30.5 -34t-51.5 -13.5h-88q-55 0 -95.5 22t-67.5 58.5t-40 83t-13 95.5v169 q0 54 -20.5 101t-55.5 82t-82 55t-100 20q-52 0 -98.5 -20t-82.5 -57.5t-59 -91t-29 -120.5q-20 -39 -49.5 -54t-57 -8.5t-47.5 33t-20 70.5q0 52 -20 97.5t-54.5 79t-81 52.5t-100.5 19q-53 0 -100 -20t-82 -55t-55 -82t-20 -101q0 -47 15.5 -88.5t42.5 -74.5 q20 -24 22.5 -48.5t-7 -45.5t-28 -36t-40.5 -20t-46 1.5t-43 30.5q-48 58 -74 129.5t-26 151.5q0 91 34.5 171.5t94.5 140.5t140 95t172 35q107 0 197.5 -44.5t151.5 -121.5zM1169 885q39 60 91.5 108.5t115 83.5t133.5 54t148 19q80 0 154.5 -21t139 -58.5t117.5 -91 t91 -118t58.5 -139t20.5 -154.5q0 -120 -45.5 -226t-124.5 -185t-185 -124.5t-226 -45.5q-42 0 -71.5 14t-46 35t-18.5 45t12 45t44.5 35t79.5 14q81 0 153 31t125 84t84 125t31 153t-31 153t-84 125t-125 84t-153 31q-80 0 -150.5 -29.5t-123.5 -81t-84.5 -121 t-34.5 -148.5q0 -5 -0.5 -8.5t-0.5 -7.5q0 -97 -20.5 -179.5t-58 -151.5t-91 -124.5t-119.5 -98.5q-27 -17 -52 -17t-45 12t-33.5 32.5t-16 44t8 46.5t36.5 40q46 30 83.5 68.5t63.5 87.5t40.5 109t14.5 134q0 81 -31 153t-84 125t-125 84t-153 31t-153 -31t-125 -84 t-84 -125t-31 -153q0 -77 15.5 -139.5t42.5 -112t63.5 -86t79.5 -60.5q27 -16 39 -38t10.5 -45.5t-13 -45t-31 -34.5t-45 -15t-52.5 13q-68 39 -123 95t-93.5 127t-59.5 157t-21 184q0 80 20.5 154.5t58.5 139t91 118t117.5 91t139 58.5t154.5 21q77 0 148 -19t133.5 -54 t115 -83.5t91.5 -108.5z" />
<glyph unicode="&#x1024;" horiz-adv-x="2646" d="M1871 1557q5 -33 15 -63t27.5 -55.5t43.5 -45t64 -32.5q110 -37 201.5 -103t157 -149t102 -178t36.5 -190v-1561q0 -32 -14 -53t-35 -31.5t-45 -10t-45 10.5t-35 31t-14 53v1561q0 80 -27 149t-73.5 124t-109 95.5t-132.5 63.5q-131 43 -208 134t-95 223q-13 90 10 174.5 t74 152t125.5 113t164.5 57.5q82 12 158.5 -6t141 -59.5t112 -103t70.5 -137.5q9 -30 2 -54t-24 -40t-40.5 -23.5t-46.5 -3.5t-42.5 20t-28.5 46q-14 43 -41 78.5t-64 59t-80.5 33.5t-89.5 4q-52 -8 -94.5 -34t-72 -64.5t-42.5 -86.5t-6 -99zM2244 -496q0 -49 -14.5 -98.5 t-41 -95.5t-64 -86.5t-84 -70t-100 -47t-111.5 -17.5h-1454q-60 -1 -107 20t-80 57.5t-52.5 85t-24.5 102t4 109t32.5 106t61.5 92.5t91 69q58 34 136 56t171.5 25t200.5 -14.5t223 -61.5q57 -22 101 -43.5t83.5 -47.5t78.5 -59t87 -78q23 -22 28.5 -46t-1.5 -46.5 t-23.5 -40.5t-38.5 -26t-47 -3.5t-48 25.5q-63 60 -135 109t-150 83q-65 28 -133 44.5t-137.5 18t-140 -14t-140.5 -49.5q-40 -20 -61 -48.5t-29 -60t-5 -63t12 -56.5t21 -40.5t22 -15.5h1454q45 0 85.5 21.5t72 54.5t50 73t18.5 78q-1 293 -1 524v539q0 81 -31.5 153 t-85.5 125t-126.5 84t-153.5 31q-80 0 -150.5 -29.5t-123.5 -81t-84.5 -121t-34.5 -148.5q0 -5 -0.5 -8.5t-0.5 -7.5q0 -97 -20.5 -179.5t-58 -151.5t-91 -124.5t-119.5 -98.5q-27 -17 -52 -17t-45 12t-33.5 32.5t-16 44t8 46.5t36.5 40q46 30 83.5 68.5t63.5 87.5t40.5 109 t14.5 134q0 81 -31 153t-84 125t-125 84t-153 31t-153 -31t-125 -84t-84 -125t-31 -153q0 -77 15.5 -139.5t42.5 -112t63.5 -86t79.5 -60.5q27 -16 39 -38t10.5 -45.5t-13 -45t-31 -34.5t-45 -15t-52.5 13q-68 39 -123 95t-93.5 127t-59.5 157t-21 184q0 80 20.5 154.5 t58.5 139t91 118t117.5 91t139 58.5t154.5 21q77 0 148 -19t133.5 -54t115 -83.5t91.5 -108.5q39 60 91.5 108.5t115 83.5t133.5 54t148 19q115 0 217.5 -41.5t181.5 -114t128.5 -170.5t58.5 -210z" />
<glyph unicode="&#x1025;" horiz-adv-x="1276" d="M325 45v-667q0 -21 8 -39.5t21.5 -32t32 -21.5t39.5 -8h461q21 0 39 8t31.5 21.5t21.5 32t8 39.5v124q0 31 14 52t35 31.5t45.5 11t45.5 -10.5t35 -32t14 -52v-124q0 -60 -23 -112.5t-62 -92t-91.5 -62t-112.5 -22.5h-461q-60 0 -112.5 22.5t-92 62t-62 92t-22.5 112.5 v817l-8 10l-8 10q-19 25 -20.5 50t9 46t29.5 36t42 19t47 -4.5t43 -33.5q54 -71 135 -113t178 -42q81 0 153 31t125 84t84 125t31 153t-31 153t-84 125t-125 84t-153 31q-94 0 -173.5 -39.5t-133.5 -107.5q-20 -25 -44 -32.5t-47 -2.5t-42 20t-28.5 36.5t-7.5 46t22 49.5 q40 50 90 90.5t108 69t122.5 44t133.5 15.5q80 0 154.5 -21t139 -58.5t117.5 -91t91 -118t58.5 -139t20.5 -154.5q0 -120 -45.5 -226t-124.5 -185t-185 -124.5t-226 -45.5q-70 0 -135 15.5t-124 44.5z" />
<glyph unicode="&#x1026;" horiz-adv-x="1276" d="M325 47v-669q0 -21 8 -39.5t21.5 -32t32 -21.5t39.5 -8h461q21 0 39 8t31.5 21.5t21.5 32t8 39.5v124q0 31 14 52t35 31.5t45.5 11t45.5 -10.5t35 -32t14 -52v-124q0 -60 -23 -112.5t-62 -92t-91.5 -62t-112.5 -22.5h-461q-60 0 -112.5 22.5t-92 62t-62 92t-22.5 112.5 v819l-8 10l-8 10q-19 25 -20.5 50t9 46t29.5 36t42 19t47 -4.5t43 -33.5q54 -71 135 -113t178 -42q81 0 153 31t125 84t84 125t31 153t-31 153t-84 125t-125 84t-153 31q-94 0 -173.5 -39.5t-133.5 -107.5q-20 -25 -44 -32.5t-47 -2.5t-42 20t-28.5 36.5t-7.5 46t22 49.5 q40 50 90 90.5t108 69t122.5 44t133.5 15.5q80 0 154.5 -21t139 -58.5t117.5 -91t91 -118t58.5 -139t20.5 -154.5q0 -120 -45.5 -226t-124.5 -185t-185 -124.5t-226 -45.5q-70 0 -135 15.5t-124 44.5zM470 1412q34 -32 78 -50t94 -18t94 18t78 50q-26 54 -73 80.5t-99 26.5 t-99 -26.5t-73 -80.5zM389 1597q0 -18 2.5 -35t7.5 -34q46 57 110 85.5t132.5 28.5t133 -28.5t110.5 -85.5q5 17 7.5 34t2.5 35q0 52 -20 98t-54.5 80.5t-80.5 54.5t-98 20q-53 0 -99 -20t-80 -54.5t-54 -80.5t-20 -98zM201 1597q0 91 34.5 171.5t94.5 140.5t140 94.5 t172 34.5q91 0 171.5 -34.5t140.5 -94.5t94.5 -140.5t34.5 -171.5q0 -92 -34.5 -172t-94.5 -140t-140.5 -94.5t-171.5 -34.5q-92 0 -172 34.5t-140 94.5t-94.5 140t-34.5 172z" />
<glyph unicode="&#x1027;" horiz-adv-x="1298" d="M671 174q29 -2 59 3q94 11 169.5 62t120.5 127q-34 24 -73.5 31.5t-79 1t-75.5 -26t-63.5 -49t-43.5 -67.5t-14 -82zM678 960q4 -38 21 -71t43 -59t59 -43t68.5 -24t71.5 -2.5t68 23.5q-27 41 -63 73.5t-79 55.5t-90.5 35t-98.5 12zM1167 762q-46 -61 -107 -91 t-126 -33.5t-129 16.5t-116.5 60t-88 97.5t-44.5 127.5q-65 -22 -117.5 -64t-88 -97.5t-51.5 -122t-7 -136.5q7 -57 29 -107.5t55.5 -92t77 -73t94.5 -49.5q3 76 38.5 139t90.5 106t123 64.5t136.5 16t132 -41t108.5 -106.5q17 -20 20 -47.5t-15 -57.5q-33 -56 -78 -103.5 t-100 -84t-118 -60t-133 -32.5q-120 -15 -230.5 17.5t-198.5 101t-146 168t-73 219.5t17.5 230.5t101.5 198.5t168.5 146t218.5 73q87 10 170 -4.5t156 -50.5t134 -90.5t105 -124.5q20 -32 15 -62t-24 -50z" />
<glyph unicode="&#x1028;" horiz-adv-x="1335" d="M673 -722q76 0 143 27t119 74.5t85 111t40 137.5q8 19 26 29t39.5 11.5t43.5 -5t39.5 -19.5t26.5 -32t5 -42q-17 -102 -68 -189.5t-126 -152t-170.5 -101t-202.5 -36.5q-119 0 -224 45.5t-183 123.5t-123.5 183t-45.5 224v893q0 119 45.5 224t123.5 183t183 123.5 t224 45.5q117 0 220.5 -44t181.5 -120t124.5 -178t49.5 -219v-10.5v-22.5v-22v-10q-7 -77 -33.5 -150.5t-76 -135t-122.5 -107t-173 -65.5q-39 -8 -77.5 -1t-71 25.5t-57 47t-34.5 62.5t-3 72.5t37 77.5q9 11 26 28t36 37.5t34.5 43t21.5 45.5q4 16 -2 32t-19.5 29 t-32.5 20.5t-41 6.5q-20 -2 -34.5 -12.5t-22.5 -27t-10 -37t3 -41.5q6 -31 -2.5 -52.5t-26 -34t-40.5 -15t-45 5.5t-39.5 26.5t-24.5 49.5q-5 21 -4 52.5t9 65.5t24.5 69t43.5 63.5t64.5 48t88.5 24.5q64 6 113.5 -11t84.5 -49t55 -75.5t24.5 -90.5t-7.5 -94t-40 -86 q-11 -15 -25.5 -28.5t-28.5 -25t-25.5 -21.5t-17.5 -20q-4 -6 -2.5 -15.5t7.5 -18t17 -12.5t26 1q49 16 91.5 42t74 60.5t50 77.5t20.5 93v70q0 81 -30.5 151.5t-83.5 123.5t-123.5 83.5t-151.5 30.5t-151.5 -30.5t-123.5 -83.5t-83.5 -123.5t-30.5 -151.5v-893 q0 -81 30.5 -151.5t83.5 -123.5t123.5 -83.5t151.5 -30.5z" />
<glyph unicode="&#x1029;" horiz-adv-x="2663" d="M2557 38v-660q0 -60 -23 -112.5t-62 -91.5t-91.5 -62t-112.5 -23h-1878q-60 0 -113 23t-92 62t-62 91.5t-23 112.5v2370q0 60 23 112.5t62 92t92 62t113 22.5h1878q60 0 112.5 -22.5t91.5 -62t62 -92t23 -112.5v-136q0 -31 -14 -52t-35 -31.5t-45.5 -10.5t-45.5 10.5 t-35 31.5t-14 52v136q0 21 -8 39.5t-21.5 32t-31.5 21.5t-39 8h-1878q-21 0 -39.5 -8t-32 -21.5t-21.5 -32t-8 -39.5v-2370q0 -21 8 -39t21.5 -31.5t32 -21.5t39.5 -8h1878q42 0 71 29t29 71v660q0 31 14 52.5t35 32t45.5 10t45.5 -10.5t35 -31.5t14 -52.5zM540 206 q-20 24 -22 49.5t7.5 46.5t28.5 36t42 20t47 -2.5t44 -32.5q54 -68 133.5 -107.5t173.5 -39.5q81 0 153 31t125 84t84 125t31 153t-31 153t-84 125t-125 84t-153 31q-97 0 -178 -42t-135 -114q-19 -25 -43 -33t-47 -4t-42 19t-29.5 36t-9 46t20.5 50q40 52 90.5 94.5 t110 72.5t125.5 46.5t137 16.5q120 0 226 -45.5t185 -124.5t124.5 -185t45.5 -226v-13q3 -79 34.5 -148.5t84.5 -121t123.5 -81t150.5 -29.5q81 0 153 31t125 84t84 125t31 153t-31 153t-84 125t-125 84t-153 31q-49 0 -79.5 14t-44.5 35t-12 45t18.5 45t46 35t71.5 14 q120 0 226 -45.5t185 -124.5t124.5 -185t45.5 -226q0 -80 -20.5 -154.5t-58.5 -139t-91 -118t-117.5 -91t-139 -58.5t-154.5 -21q-77 0 -148 19t-133 53.5t-114.5 83t-91.5 108.5q-39 -60 -91.5 -108.5t-114.5 -83t-133.5 -53.5t-147.5 -19q-69 0 -133.5 15.5t-122.5 44 t-108 69t-90 90.5z" />
<glyph unicode="&#x102a;" horiz-adv-x="5141" d="M3824 588q22 140 79.5 245.5t142 176t190.5 106t224 35.5q120 0 226 -45.5t185 -124.5t124.5 -185t45.5 -226q0 -80 -20.5 -154.5t-58.5 -139t-91 -118t-117.5 -91t-139 -58.5t-154.5 -21q-42 0 -71.5 14t-46 35t-18.5 45.5t12 45.5t44.5 35t79.5 14q81 0 153 31t125 84 t84 125t31 153t-31 153t-84 125t-125 84t-153 31q-80 0 -153.5 -28t-133 -78t-102 -120.5t-59.5 -154.5q-6 -31 -24 -51t-40.5 -29.5t-46.5 -9t-43 11.5t-29 32t-5 52zM3800 39v-661q0 -60 -23 -112.5t-62 -91.5t-91.5 -62t-112.5 -23h-1878q-60 0 -112.5 23t-92 62 t-62 91.5t-22.5 112.5v2371q0 60 22.5 112.5t62 92t92 62t112.5 22.5h1878q60 0 112.5 -22.5t91.5 -62t62 -92t23 -112.5v-136q0 -31 -14 -52t-35 -31.5t-45.5 -10.5t-45.5 10.5t-35 31.5t-14 52v136q0 21 -8 39.5t-21.5 32t-31.5 21.5t-39 8h-1878q-21 0 -39.5 -8 t-32 -21.5t-21.5 -32t-8 -39.5v-2371q0 -21 8 -39t21.5 -31.5t32 -21.5t39.5 -8h1878q42 0 71 29t29 71v661q0 31 14 52.5t35 31.5t45.5 10t45.5 -10t35 -31.5t14 -52.5zM4508 1165q-90 -13 -174 10t-151.5 74t-113 126t-58.5 165q-12 90 11 174t74 151.5t125.5 113 t164.5 58.5q81 11 158 -7t141 -59t111.5 -103t71.5 -138q9 -30 2 -54t-24 -40t-40.5 -23.5t-46.5 -3.5t-42.5 20t-28.5 46q-14 43 -41 78.5t-64 59t-81 33.5t-90 4q-52 -7 -94.5 -33t-71.5 -64.5t-42 -87t-6 -99.5q7 -52 33 -94.5t64.5 -71.5t86.5 -42.5t100 -5.5 q31 4 54 -7t36 -30t16.5 -43.5t-4 -46.5t-26.5 -39t-50 -21zM595 186q42 -9 87 -9q53 0 102.5 13.5t93 38t79 59.5t61.5 78q-62 38 -130.5 41t-129 -23t-105 -77.5t-58.5 -120.5zM1207 321q-35 -74 -88.5 -135t-121.5 -105t-148 -68.5t-167 -24.5q-120 0 -226 46t-185 125 t-125 185t-46 226q0 80 21 154.5t58.5 139t91 117.5t118 91t139 58.5t154.5 20.5q73 0 141.5 -17.5t129 -49.5t112 -77t91.5 -100q18 -26 18.5 -51t-10.5 -46t-31 -35t-43 -17.5t-46.5 5.5t-41.5 34q-54 76 -137 121t-183 45q-81 0 -153 -31t-125 -84t-84 -125t-31 -153 q0 -100 44.5 -183t119.5 -137q21 73 65 132t103 99.5t129 61.5t142.5 18t144 -31.5t133.5 -87.5q14 -8 25.5 -20.5t17 -28.5t5 -34t-10.5 -38zM1775 206q-20 24 -22 49.5t7.5 46.5t28.5 36t42 20t47 -2.5t44 -32.5q54 -68 133.5 -107.5t173.5 -39.5q81 0 153 31t125 84 t84 125t31 153t-31 153t-84 125t-125 84t-153 31q-97 0 -178 -42t-135 -114q-19 -25 -43 -33t-47 -4t-42 19t-29.5 36t-9 46t20.5 50q40 52 90.5 94.5t110 72.5t125.5 46.5t137 16.5q120 0 226 -45.5t185 -124.5t124.5 -185t45.5 -226v-13q3 -79 34.5 -148.5t84.5 -121 t123.5 -81t150.5 -29.5q81 0 153 31t125 84t84 125t31 153t-31 153t-84 125t-125 84t-153 31q-49 0 -79.5 14t-44.5 35t-12 45t18.5 45t46 35t71.5 14q120 0 226 -45.5t185 -124.5t124.5 -185t45.5 -226q0 -80 -20.5 -154.5t-58.5 -139t-91 -118t-117.5 -91t-139 -58.5 t-154.5 -21q-77 0 -148 19t-133 53.5t-114.5 83t-91.5 108.5q-39 -60 -91.5 -108.5t-114.5 -83t-133.5 -53.5t-147.5 -19q-69 0 -133.5 15.5t-122.5 44t-108 69t-90 90.5z" />
<glyph unicode="&#x102b;" horiz-adv-x="389" d="M-568 1422q-23 69 -23 141q0 91 34.5 171t94.5 140t140 94.5t171 34.5q80 0 151.5 -26.5t128.5 -74t96.5 -112t54.5 -139.5q2 -5 3.5 -17t3.5 -24q1 -15 2 -31v-1505q0 -31 -14 -52t-35 -31.5t-45.5 -10.5t-45.5 10.5t-35 31.5t-14 52v1501q-2 50 -22.5 94t-54.5 76.5 t-78.5 51t-95.5 18.5q-52 0 -98 -20t-80 -54t-54 -80t-20 -98q0 -41 14 -80q10 -30 3.5 -54t-23 -41t-40 -25t-46.5 -4.5t-43 18.5t-30 45z" />
<glyph unicode="&#x102c;" horiz-adv-x="1201" d="M-40 823q42 82 101.5 144t132 103t156 62t173.5 21q80 0 154.5 -20.5t139 -58.5t118 -91t91 -118t58.5 -139t21 -155q0 -80 -21 -154.5t-58.5 -139t-91 -117.5t-118 -91t-139 -58.5t-154.5 -20.5q-42 0 -71.5 14t-46 35t-18.5 45t12 45t44.5 35t79.5 14q81 0 153 31 t125 84t84 125t31 153q0 82 -31 153.5t-84 124.5t-125 84t-153 31q-80 0 -153.5 -27.5t-133 -78t-86.5 -81.5t-60 -120q-27 -18 -56.5 -20.5t-54 10.5t-39 41t-11.5 70z" />
<glyph unicode="&#x102d;" d="M-893 1587q0 -51 20 -96t54.5 -78.5t80.5 -53t98 -19.5t98 19.5t80.5 53t54.5 78.5t20 96t-20 96t-54.5 78.5t-80.5 53t-98 19.5t-98 -19.5t-80.5 -53t-54.5 -78.5t-20 -96zM-1081 1587q0 89 34.5 167.5t94.5 137t140 92.5t172 34q91 0 171.5 -34t140.5 -92.5t94.5 -137 t34.5 -167.5t-34.5 -167.5t-94.5 -137t-140.5 -92.5t-171.5 -34q-92 0 -172 34t-140 92.5t-94.5 137t-34.5 167.5z" />
<glyph unicode="&#x102e;" d="M-807 1405q34 -31 77.5 -48.5t92.5 -17.5q50 0 93.5 17.5t77.5 48.5q-17 35 -44 58.5t-59.5 35t-67 11.5t-67 -11.5t-59.5 -35t-44 -58.5zM-887 1585q0 -34 9 -67q45 55 109 83t132 28t132 -28t110 -83q9 33 9 67q0 51 -20 96t-54 78.5t-79.5 53t-97.5 19.5t-97.5 -19.5 t-79.5 -53t-53.5 -78.5t-19.5 -96zM-1074 1585q0 89 34 167.5t93.5 137t139 92t170.5 33.5t171 -33.5t139 -92t93.5 -137t34.5 -167.5t-34.5 -167t-93.5 -136.5t-139 -92t-171 -33.5t-170.5 33.5t-139 92t-93.5 136.5t-34 167z" />
<glyph unicode="&#x102f;" d="M-764 -147q0 31 14 52t35 31.5t45 10.5t45 -10.5t35 -31.5t14 -52v-477q0 -21 8 -39.5t21.5 -32t32 -21.5t39.5 -8h95q31 0 52 -14t31.5 -35t10.5 -45t-10.5 -45t-31.5 -35t-52 -14h-95q-60 0 -112.5 22.5t-92 62t-62 92t-22.5 112.5v477z" />
<glyph unicode="&#x1030;" d="M-568 -147q0 31 14 52t35 31.5t45.5 10.5t45.5 -10.5t35 -31.5t14 -52v-477q0 -21 8 -39t21.5 -31.5t32 -21.5t39.5 -8h104q31 0 52 -14t31.5 -35t10.5 -45.5t-10.5 -45.5t-31.5 -35t-52 -14h-104q-60 0 -113 23t-92 62t-62 91.5t-23 112.5v477zM-710 -150v-669 q0 -31 -14 -52t-35 -31.5t-45.5 -10.5t-45.5 10.5t-35 31.5t-14 52v669q0 31 14 52t35 31.5t45.5 10.5t45.5 -10.5t35 -31.5t14 -52z" />
<glyph unicode="&#x1031;" horiz-adv-x="1269" d="M616 179q40 -7 87 -4q53 3 97 18.5t79.5 42.5t64.5 63.5t52 80.5q-64 35 -127.5 34t-116 -29.5t-89.5 -82t-47 -123.5zM1167 342q-31 -76 -73.5 -139.5t-98 -110t-125.5 -74.5t-157 -32q-80 -4 -155.5 12.5t-142 51t-122.5 84.5t-97 112.5t-66 136t-29 153.5t12.5 155 t51 141.5t84.5 122.5t112.5 97t136 66t153.5 29q73 4 138 -3.5t124.5 -28.5t113.5 -57t105 -90q19 -25 21 -50t-7.5 -46t-29 -36.5t-42 -20t-46.5 3t-44 32.5q-45 38 -83 61t-74.5 34.5t-76.5 14t-89 -0.5q-81 -5 -151 -39.5t-120.5 -90.5t-77.5 -129.5t-23 -154.5 q3 -50 20 -96.5t43.5 -88t61 -75.5t72.5 -59q8 60 40.5 115t81.5 97t111 68.5t130 30.5t138 -18.5t135 -77.5q15 -16 25 -26.5t15.5 -20t6.5 -22t-2 -31.5z" />
<glyph unicode="&#x1032;" d="M-928 1661l680 -271q29 -12 43 -33t16 -44t-7.5 -45.5t-27.5 -37.5t-42.5 -20t-53.5 7l-680 271q-29 12 -43 33t-15.5 44t8 45.5t27 37.5t42 20t53.5 -7z" />
<glyph unicode="&#x1033;" d="M-643 1630q-18 0 -30 -12.5t-12 -29.5q0 -19 12 -31t30 -12t30.5 12t12.5 31q0 17 -12.5 29.5t-30.5 12.5zM-643 1727q29 0 54.5 -11t44.5 -29.5t30 -44t11 -54.5t-11 -55t-30 -45t-44.5 -30t-54.5 -11t-54.5 11t-44.5 30t-30 45t-11 55t11 54.5t30 44t44.5 29.5t54.5 11 zM-1075 1588q0 89 34 168t92.5 137.5t137 92.5t168.5 34t168.5 -34t137.5 -92.5t93 -137.5t34 -168q0 -90 -34 -169t-93 -137.5t-137.5 -92.5t-168.5 -34t-168.5 34t-137 92.5t-92.5 137.5t-34 169zM-890 1588q0 -52 19.5 -97t53 -78.5t78.5 -53t96 -19.5t96.5 19.5t79 53 t53 78.5t19.5 97q0 51 -19.5 96t-53 78.5t-79 53t-96.5 19.5t-96 -19.5t-78.5 -53t-53 -78.5t-19.5 -96z" />
<glyph unicode="&#x1034;" d="M-319 1661q29 12 53.5 7t42 -20t27 -37.5t8 -45.5t-15.5 -44t-43 -33l-680 -271q-29 -12 -53.5 -7t-42.5 20t-27.5 37.5t-7.5 45.5t16 44t43 33z" />
<glyph unicode="&#x1035;" d="M-402 1425q-35 19 -73.5 22t-74 -8t-65.5 -35.5t-48 -59.5q34 -8 65 -8q59 0 109.5 23.5t86.5 65.5zM-279 1853q18 -25 19 -49.5t-10 -45t-30 -34.5t-42 -17.5t-46 5t-41 33.5q-35 49 -89.5 78t-119.5 29q-53 0 -100 -20t-82 -55t-55.5 -82t-20.5 -101q0 -57 23 -106 t62 -84q24 47 62 81.5t83.5 56t96 28t100.5 -3.5t96.5 -37t83.5 -73q23 -22 28.5 -54t-18.5 -66q-30 -42 -69 -76t-85 -58t-97.5 -37t-107.5 -13q-61 0 -117.5 16t-105.5 44.5t-89.5 69t-69 89.5t-44.5 105.5t-16 117.5q0 92 35 172.5t95 140.5t140.5 94.5t171.5 34.5 q112 0 205.5 -49.5t153.5 -133.5z" />
<glyph unicode="&#x1036;" d="M-656 1677q43 0 80.5 -16.5t65.5 -44.5t44.5 -65.5t16.5 -80.5t-16.5 -81t-44.5 -66t-65.5 -44.5t-80.5 -16.5t-81 16.5t-66 44.5t-44.5 66t-16.5 81t16.5 80.5t44.5 65.5t66 44.5t81 16.5zM-656 1513q-18 0 -31 -12.5t-13 -30.5t13 -31t31 -13t30.5 13t12.5 31 t-12.5 30.5t-30.5 12.5z" />
<glyph unicode="&#x1037;" d="M-667 -237q43 0 80.5 -16.5t65.5 -44.5t44.5 -65.5t16.5 -80.5t-16.5 -81t-44.5 -66t-65.5 -44.5t-80.5 -16.5t-81 16.5t-66 44.5t-44.5 66t-16.5 81t16.5 80.5t44.5 65.5t66 44.5t81 16.5zM-667 -401q-18 0 -31 -12.5t-13 -30.5t13 -31t31 -13t30.5 13t12.5 31 t-12.5 30.5t-30.5 12.5z" />
<glyph unicode="&#x1038;" horiz-adv-x="615" d="M308 411q43 0 80.5 -16.5t65.5 -44.5t44.5 -65.5t16.5 -80.5t-16.5 -81t-44.5 -66t-65.5 -44.5t-80.5 -16.5t-81 16.5t-66 44.5t-44.5 66t-16.5 81t16.5 80.5t44.5 65.5t66 44.5t81 16.5zM308 247q-18 0 -31 -12.5t-13 -30.5t13 -31t31 -13t30.5 13t12.5 31t-12.5 30.5 t-30.5 12.5zM308 1079q43 0 80.5 -16.5t65.5 -44.5t44.5 -65.5t16.5 -80.5t-16.5 -81t-44.5 -66t-65.5 -44.5t-80.5 -16.5t-81 16.5t-66 44.5t-44.5 66t-16.5 81t16.5 80.5t44.5 65.5t66 44.5t81 16.5zM308 915q-18 0 -31 -12.5t-13 -30.5t13 -31t31 -13t30.5 13t12.5 31 t-12.5 30.5t-30.5 12.5z" />
<glyph unicode="&#x1039;" horiz-adv-x="626" d="M626 952h-81v-962h-95v962h-127v-962h-95v592q-110 7 -169 71.5t-59 158.5q0 103 65 170.5t202 67.5h359v-98z" />
<glyph unicode="&#x103a;" d="M-561 1155q-90 -12 -174 10t-151 71.5t-112 121.5t-58 160t10 169.5t73.5 147t124.5 110t164 56.5q81 11 157.5 -6t140.5 -57t111.5 -100t70.5 -134q9 -29 2 -52.5t-24 -39.5t-40 -23t-46 -3.5t-42.5 19t-28.5 44.5q-14 43 -41 77.5t-63.5 57.5t-80 32.5t-89.5 3.5 q-51 -7 -93.5 -32.5t-72 -63t-42.5 -84.5t-6 -97t33 -91t64.5 -69.5t86.5 -41t100 -5.5q31 4 53.5 -6.5t35.5 -29t16.5 -42t-4 -45t-26 -38t-49.5 -20.5z" />
<glyph unicode="&#x103b;" horiz-adv-x="305" d="M16 -721v1746q0 31 14 52.5t35 31.5t45.5 10t45.5 -10.5t35 -31.5t14 -52l-1 -1843q-2 -29 -18.5 -55t-42 -42.5t-57 -21.5t-62.5 8l-446 172q-14 5 -29 16.5t-27 28t-19.5 36.5t-7.5 42v488q0 31 14 52t35 31.5t45 10.5t45 -10.5t35 -31.5t14 -52v-451z" />
<glyph unicode="&#x103c;" horiz-adv-x="411" d="M1553 7v-631q0 -60 -23 -112.5t-62 -92t-91.5 -62t-112.5 -22.5h-875q-60 0 -112.5 22.5t-92 62t-62 92t-22.5 112.5v2372q0 60 22.5 112.5t62 91.5t92 62t112.5 23h875q60 0 112.5 -23t91.5 -62t62 -91.5t23 -112.5v-136q0 -32 -14 -52.5t-35 -31.5t-45.5 -11t-45.5 11 t-35 31.5t-14 52.5v136q0 42 -29 71t-71 29h-875q-21 0 -39 -8t-32 -21.5t-22 -31.5t-8 -39v-2372q0 -21 8 -39.5t22 -32t32 -21.5t39 -8h875q21 0 39 8t31.5 21.5t21.5 32t8 39.5v631q0 31 14 52t35 31.5t45.5 10.5t45.5 -10.5t35 -31.5t14 -52z" />
<glyph unicode="&#x103d;" d="M-1102 -568l305 445q25 37 59 56t70.5 19t71 -18.5t60.5 -56.5l305 -445q18 -34 22 -72.5t-5.5 -76.5t-30 -73.5t-51 -63t-70 -43.5t-85.5 -16h-431q-70 0 -123 35t-84 87t-35.5 112.5t22.5 110.5zM-666 -257l-277 -405q-1 -5 2 -16t10 -22t19 -19.5t30 -8.5h431 q18 0 30 8.5t19 19.5t10 22t2 16z" />
<glyph unicode="&#x103e;" d="M-572 -624q0 -60 -23 -112.5t-62 -91.5t-92 -62t-113 -23h-104q-31 0 -52 14t-31.5 35t-10.5 45.5t10.5 45.5t31.5 35t52 14h104q21 0 39.5 8t32 21.5t21.5 31.5t8 39v476q0 31 14 52.5t35 31.5t45.5 10.5t45.5 -10.5t35 -32t14 -52v-476z" />
<glyph unicode="&#x103f;" horiz-adv-x="3213" d="M130 205q-20 24 -22 49.5t7.5 46.5t28.5 36.5t42 20.5t47 -3t44 -32q54 -68 133.5 -108t173.5 -40q81 0 153 31t125 84t84 125t31 153t-31 153t-84 125t-125 84t-153 31q-97 0 -178 -42t-135 -113q-19 -25 -43 -33t-47 -4t-42 19t-29.5 36t-9 46t20.5 50q40 52 90.5 94.5 t110 72.5t125.5 46.5t137 16.5q80 0 154.5 -21t139 -58.5t117.5 -91t91 -118t58.5 -139t20.5 -154.5v-12q3 -79 34.5 -148.5t84.5 -121t123.5 -81.5t150.5 -30q81 0 153 31t125 84t84 125t31 153t-31 153t-84 125t-125 84t-153 31q-49 0 -79.5 14t-44.5 35t-12 45.5 t18.5 45.5t46 35t71.5 14q80 0 154.5 -21t139 -58.5t117.5 -91t91 -118t58.5 -139t20.5 -154.5v-13q3 -79 34.5 -148.5t84.5 -121t123.5 -81t150.5 -29.5q81 0 153 31t125 84t84 125t31 153t-31 153t-84 125t-125 84t-153 31q-49 0 -79.5 14t-44.5 35t-12 45.5t18.5 45.5 t46 35t71.5 14q80 0 154.5 -21t139 -58.5t117.5 -91t91 -118t58.5 -139t20.5 -154.5q0 -120 -45.5 -226t-124.5 -185t-185 -124.5t-226 -45.5q-77 0 -148 19t-133 53.5t-114.5 83t-91.5 108.5q-39 -60 -91.5 -108.5t-114.5 -83t-133.5 -53.5t-147.5 -19q-77 0 -148 19 t-133 53.5t-114.5 83t-91.5 108.5q-39 -60 -91.5 -108.5t-114.5 -83t-133.5 -53.5t-147.5 -19q-69 0 -133.5 15.5t-122.5 44t-108 68.5t-90 90z" />
<glyph unicode="&#x1040;" horiz-adv-x="1363" d="M524 4q-96 23 -174 76t-133.5 127t-86 166.5t-30.5 195.5t30.5 195.5t86.5 167t134.5 127t174.5 75.5q31 7 54.5 -1.5t38.5 -26.5t21 -41.5t0.5 -46.5t-23 -41.5t-47.5 -25.5q-65 -15 -117 -51t-88.5 -86t-56 -113t-19.5 -132t19.5 -131.5t55.5 -113t87.5 -86 t116.5 -51.5q30 -8 47.5 -26.5t22.5 -41t-0.5 -46.5t-20.5 -41.5t-39 -26t-54 -1.5zM849 1132q94 -24 170.5 -77t130.5 -127t83.5 -165.5t29.5 -193.5q0 -103 -30.5 -195.5t-86 -166.5t-133 -127t-172.5 -76q-31 -8 -54.5 1t-39 26.5t-21 41.5t-0.5 46.5t22 41.5t48 26 q64 16 115.5 51.5t88 86t56 113t19.5 131.5t-18.5 130.5t-53.5 112t-85.5 86t-114.5 51.5q-31 8 -47.5 26.5t-21.5 41.5t0.5 46.5t21 41.5t39 26.5t54.5 0.5z" />
<glyph unicode="&#x1041;" horiz-adv-x="1265" d="M130 932q40 50 90 90t108 68.5t122.5 44t133.5 15.5q120 0 226 -45.5t185 -124.5t124.5 -185t45.5 -226q0 -80 -20.5 -154.5t-58.5 -139t-91 -118t-117.5 -91t-139 -58.5t-154.5 -21q-71 0 -137 16.5t-125.5 46.5t-110 72.5t-90.5 94.5q-19 25 -20.5 50t9 46t29.5 36 t42 19t47 -4t43 -33q54 -72 135 -113.5t178 -41.5q81 0 153 31t125 84t84 125t31 153t-31 153t-84 125t-125 84t-153 31q-94 0 -173.5 -40t-133.5 -108q-20 -25 -44 -32.5t-47 -2.5t-42 20.5t-28.5 36.5t-7.5 46.5t22 49.5z" />
<glyph unicode="&#x1042;" horiz-adv-x="1372" d="M1246 1051q-1 -312 -1 -581v-775q0 -120 -45.5 -226t-124.5 -185t-185 -124.5t-226 -45.5q-116 0 -218 42t-180 115.5t-126 172t-56 212.5q-2 31 10.5 53t33 33.5t44.5 13.5t45.5 -7t37 -29.5t17.5 -51.5q5 -77 38 -143.5t85.5 -116t121.5 -78t147 -28.5q81 0 153 31 t125 84t84 125t31 153v776q0 270 1 581q0 31 14 52t35 31.5t45 10.5t45 -10.5t35 -32t14 -52.5z" />
<glyph unicode="&#x1043;" horiz-adv-x="1265" d="M530 -11l549 -726q19 -25 20.5 -50t-9 -46t-30 -36t-42.5 -19t-46.5 4.5t-42.5 33.5q-148 195 -260.5 344t-196.5 260t-142 187.5t-96.5 127t-60 79t-32.5 43t-14.5 19t-5.5 7.5q-19 25 -20.5 50t9 46t29.5 36t42 19t47 -4.5t43 -33.5q54 -71 135 -113t178 -42 q81 0 153 31t125 84t84 125t31 153t-31 153t-84 125t-125 84t-153 31q-94 0 -173.5 -39.5t-133.5 -107.5q-20 -25 -44 -32.5t-47 -2.5t-42 20t-28.5 36.5t-7.5 46t22 49.5q40 50 90 90.5t108 69t122.5 44t133.5 15.5q80 0 154.5 -21t139 -58.5t117.5 -91t91 -118t58.5 -139 t20.5 -154.5q0 -120 -45.5 -226t-124.5 -185t-185 -124.5t-226 -45.5q-14 0 -27 0.5t-27 1.5z" />
<glyph unicode="&#x1044;" horiz-adv-x="1265" d="M735 -11q-14 -1 -27 -1.5t-27 -0.5q-120 0 -226 45.5t-185 124.5t-124.5 185t-45.5 226q0 80 20.5 154.5t58.5 139t91 118t117.5 91t139 58.5t154.5 21q69 0 133.5 -15.5t122.5 -44t108 -69t90 -90.5q20 -25 22 -49.5t-7.5 -46t-28.5 -36.5t-42 -20t-47 2.5t-44 32.5 q-54 68 -133.5 107.5t-173.5 39.5q-81 0 -153 -31t-125 -84t-84 -125t-31 -153t31 -153t84 -125t125 -84t153 -31q97 0 178 42t135 113q19 25 43 33.5t47 4.5t42 -19t29.5 -36t9 -46t-20.5 -50q-2 -3 -5.5 -7.5t-14.5 -19t-32.5 -43t-60 -79t-96.5 -127t-142 -187.5 t-196.5 -260t-260.5 -344q-19 -25 -42.5 -33.5t-46.5 -4.5t-42.5 19t-30 36t-9 46t20.5 50z" />
<glyph unicode="&#x1045;" horiz-adv-x="1363" d="M305 456q13 -33 42.5 -54t67.5 -21q24 0 45.5 9.5t37.5 25.5t25.5 37.5t9.5 45.5t-9.5 45.5t-25.5 37.5t-37.5 25.5t-45.5 9.5q-25 0 -46.5 -9.5t-37.5 -25.5t-25 -37.5t-9 -45.5q0 -2 1 -9t7 -34zM110 461q-5 26 -7.5 53t-2.5 55q0 80 21 154.5t58.5 139t91 117.5 t118 91t139 58.5t154.5 20.5q120 0 226 -45.5t185 -124.5t124.5 -185t45.5 -226v-897q0 -120 -45.5 -226t-124.5 -185t-185 -124.5t-226 -45.5q-115 0 -216.5 41.5t-179.5 114t-126.5 170.5t-57.5 211q-2 31 10.5 53t32.5 34t44.5 14t46 -7t37 -29t17.5 -51 q6 -76 38.5 -142.5t85.5 -115.5t121.5 -77t146.5 -28q81 0 153 31t125 84t84 125t31 153v897q0 81 -31 153t-84 125t-125 84t-153 31q-98 0 -180.5 -43.5t-136.5 -117.5q12 2 24.5 3t25.5 1q63 0 119 -24t97.5 -65.5t65.5 -97.5t24 -119t-24 -119t-65.5 -98t-97.5 -66 t-119 -24q-59 0 -111.5 21t-93 57t-67 85t-33.5 106z" />
<glyph unicode="&#x1046;" horiz-adv-x="1363" d="M789 935q-35 0 -60 -25t-25 -60t25 -60t60 -25t60 25t25 60t-25 60t-60 25zM1256 475q-14 -104 -65 -193.5t-128 -155t-175 -102.5t-206 -37q-80 0 -154.5 20.5t-139 58.5t-118 91t-91 117.5t-58.5 139t-21 154.5v896q0 80 21 154.5t58.5 139.5t91 118t118 91t139 58.5 t154.5 20.5q115 0 216.5 -41.5t179.5 -114.5t126.5 -171t57.5 -210q2 -32 -10.5 -54t-32.5 -34t-44.5 -13.5t-46 7.5t-37 28.5t-17.5 51.5q-6 76 -38.5 142t-85.5 115t-121.5 77t-146.5 28q-81 0 -153 -31t-125 -84t-84 -124.5t-31 -153.5v-896q0 -81 31 -153t84 -125 t125 -84t153 -31q68 0 129.5 22t111 60.5t85.5 91.5t53 116q-9 9 -42 22.5t-78 29t-95.5 32t-93.5 30.5q-30 10 -51.5 17t-39 16t-33 20.5t-33.5 30.5q-41 43 -58 87.5t-17 99.5t21 104t57.5 86t85.5 58t105 21t105 -21t86 -58t58 -86t21 -104q0 -43 -13.5 -88t-57.5 -93 q18 -5 52 -19l68 -28q40 -17 84 -36q4 -2 16 -7t24 -17t20 -33t4 -54z" />
<glyph unicode="&#x1047;" horiz-adv-x="1363" d="M167 298q-32 61 -49.5 129t-17.5 142q0 80 21 154.5t58.5 139t91 117.5t118 91t139 58.5t154.5 20.5q120 0 226 -45.5t185 -124.5t124.5 -185t45.5 -226q0 -81 -21 -172.5t-55 -188.5t-76.5 -196.5t-85 -196.5t-80.5 -189t-64 -173q-14 -44 -9.5 -75.5t18.5 -51.5 t33.5 -30t36.5 -10q21 0 39.5 8t32.5 22t22 32.5t8 39.5q0 31 13.5 52.5t34.5 32t45.5 10.5t45.5 -10.5t35 -31t14 -52.5q0 -60 -22.5 -113.5t-62 -93t-93 -62t-113.5 -22.5q-84 0 -143.5 35.5t-92 95t-36.5 138.5t24 167q27 86 64.5 174t78 175.5t80.5 175t71.5 173.5 t50.5 170.5t19 166.5q0 81 -31 152.5t-84.5 125t-125 84t-152.5 30.5t-153 -30.5t-125 -84t-84 -125t-31 -152.5q0 -51 11.5 -96.5t33.5 -86.5q14 -28 11.5 -53t-16 -44t-35 -30.5t-45 -12t-45.5 11.5t-37 40z" />
<glyph unicode="&#x1048;" horiz-adv-x="1363" d="M324 731q70 -22 127 -65t96.5 -100.5t60.5 -126t19 -139t-28 -141t-80 -131.5q-10 -15 -24 -25.5t-31 -15t-36 -2t-39 15.5q-67 43 -120.5 100.5t-91 129t-57.5 156t-20 182.5q0 80 21 154.5t58.5 139t91 117.5t118 91t139 58.5t154.5 20.5q120 0 226 -45.5t185 -124.5 t124.5 -185t45.5 -226q0 -99 -21 -186t-59.5 -160t-93.5 -130t-123 -95q-28 -16 -53 -14t-44.5 15.5t-31 34.5t-13 44.5t10.5 46t39 37.5q43 24 79.5 62t63.5 89t42.5 115t15.5 141q0 81 -31 153t-84 125t-125 84t-153 31q-60 0 -114.5 -17t-101 -47.5t-83 -73t-59.5 -93.5z M446 193q27 56 27 116t-21.5 113.5t-63.5 95.5t-99 62v-11q0 -129 42 -222t115 -154z" />
<glyph unicode="&#x1049;" horiz-adv-x="1363" d="M1256 662q4 -33 -4 -57t-20 -40t-24 -24.5t-16 -10.5q-44 -14 -84 -26q-34 -11 -68 -21.5t-52 -15.5q44 -48 57.5 -93t13.5 -88q0 -56 -21 -104.5t-58 -85.5t-86 -58t-105 -21t-105 21t-85.5 58t-57.5 85.5t-21 104.5q0 55 17 99.5t58 87.5q18 19 33.5 30.5t33 20.5 t39 16t51.5 17q43 14 93.5 30.5t95.5 32.5t78 29.5t42 22.5q-17 63 -53 116t-85.5 91.5t-111 60.5t-129.5 22q-81 0 -153 -31t-125 -84t-84 -125t-31 -153v-885q0 -82 31 -153.5t84 -125t125 -84t153 -30.5q78 0 146.5 28t121.5 77t85.5 115t38.5 142q2 31 17.5 51t37 29 t46 7.5t44.5 -13.5t32.5 -34.5t10.5 -53.5q-9 -113 -57.5 -210.5t-126.5 -170.5t-179.5 -114.5t-216.5 -41.5q-80 0 -154.5 20.5t-139 58.5t-118 91t-91 118t-58.5 139t-21 155v885q0 80 21 154.5t58.5 139t91 117.5t118 91t139 58.5t154.5 20.5q108 0 206 -37t175 -102.5 t128 -155t65 -193.5zM789 201q35 0 60 25t25 60t-25 60t-60 25t-60 -25t-25 -60t25 -60t60 -25z" />
<glyph unicode="&#x104a;" horiz-adv-x="389" d="M289 1043v-1000q0 -31 -14 -52t-35 -31.5t-45.5 -10.5t-45.5 10.5t-35 31.5t-14 52v1000q0 31 14 52t35 31.5t45.5 10.5t45.5 -10.5t35 -31.5t14 -52z" />
<glyph unicode="&#x104b;" horiz-adv-x="768" d="M668 1033v-1000q0 -31 -14 -52t-35 -31.5t-45.5 -10.5t-45.5 10.5t-35 31.5t-14 52v1000q0 31 14 52t35 31.5t45.5 10.5t45.5 -10.5t35 -31.5t14 -52zM289 1033v-1000q0 -31 -14 -52t-35 -31.5t-45.5 -10.5t-45.5 10.5t-35 31.5t-14 52v1000q0 31 14 52t35 31.5 t45.5 10.5t45.5 -10.5t35 -31.5t14 -52z" />
<glyph unicode="&#x104c;" horiz-adv-x="1265" d="M158 -114v22v52t0.5 67.5t0.5 68v53v22.5q-10 11 -19.5 22t-18.5 23q-19 25 -20.5 50t9 46t29.5 36t42 19t47 -4.5t43 -33.5q54 -71 135 -113t178 -42q81 0 153 31t125 84t84 125t31 153t-31 153t-84 125t-125 84t-153 31q-94 0 -173.5 -39.5t-133.5 -107.5 q-20 -25 -44 -32.5t-47 -2.5t-42 20t-28.5 36t-7.5 46.5t22 49.5q40 50 90 90.5t108 69t122.5 44t133.5 15.5q80 0 154.5 -21t139 -58.5t117.5 -91t91 -118t58.5 -139t20.5 -154.5q0 -120 -45.5 -226t-124.5 -185t-185 -124.5t-226 -45.5q-64 0 -123.5 13t-113.5 37v-89 q36 -18 76 -30t81.5 -19.5t82.5 -11t78 -3.5q87 0 171 18.5t159 66.5q31 20 60 16.5t50 -20.5t31 -44t4 -54v-488q0 -60 -23 -112.5t-62 -92t-91.5 -62t-112.5 -22.5h-453q-60 0 -112.5 23t-91.5 62t-61.5 91.5t-22.5 112.5t25 113.5t67.5 91.5t99 56.5t119.5 9.5 q48 -6 85 -20.5t70 -35t63.5 -46t65.5 -55.5q24 -20 31 -43.5t2 -45.5t-20.5 -39.5t-36.5 -25.5t-46 -4t-49 24q-14 12 -28.5 25.5t-31 27.5t-35.5 26.5t-43 22.5q-21 9 -46.5 11.5t-48 -5.5t-38.5 -29t-18 -59q0 -21 8 -39.5t21.5 -32t32 -21.5t39.5 -8h453q21 0 39 8 t31.5 21.5t21.5 32t8 39.5v361q-71 -24 -144 -34.5t-148 -9.5q-55 1 -115.5 7.5t-120 20.5t-116 36t-104.5 53q-6 3 -14 10.5t-14.5 17.5t-11.5 22t-5 24zM708 1167q-90 -13 -174.5 10t-152 74t-112.5 125.5t-58 164.5t10 174.5t74 152t125.5 112.5t164.5 58q82 12 158.5 -6 t141 -59.5t112 -103t70.5 -137.5q9 -30 2 -54t-24 -40.5t-40.5 -23.5t-46.5 -3.5t-42.5 19.5t-28.5 46q-14 44 -41 79.5t-64 59t-80.5 33.5t-89.5 4q-52 -8 -94.5 -34t-72 -64.5t-42.5 -86.5t-6 -100q7 -51 33.5 -93.5t65 -72t86.5 -42.5t100 -6q31 4 53.5 -6.5t36 -30 t16.5 -43.5t-4.5 -46t-26 -39t-49.5 -21z" />
<glyph unicode="&#x104d;" horiz-adv-x="1686" d="M911 1549q5 -33 15 -63t27.5 -55.5t43.5 -45t64 -32.5q110 -37 201.5 -108.5t157 -161.5t102 -191t36.5 -195l1 -1321q0 -60 -22.5 -112.5t-62 -92t-92 -62t-112.5 -22.5h-882q-60 0 -112.5 23t-91.5 62t-61.5 91.5t-22.5 112.5q0 89 41 152.5t106 102t146 52.5t161 5 q79 -9 133 -30t94.5 -48.5t72 -59t66.5 -60.5q24 -20 31 -43.5t2 -45.5t-20.5 -39.5t-36.5 -25.5t-46 -4.5t-49 23.5q-14 12 -36.5 31t-51.5 39.5t-62.5 40t-69.5 32.5q-48 17 -100 17t-95 -16t-71 -47t-28 -76q0 -21 8 -39.5t21.5 -32t32 -21.5t39.5 -8h882q21 0 39.5 8 t32 21.5t21.5 32t8 39.5l-1 1321q0 79 -27 153.5t-73.5 137t-109 108.5t-132.5 69q-131 43 -208 134.5t-95 222.5q-13 90 10 174.5t74 152t125.5 113t164.5 57.5q82 12 158.5 -6t141 -59.5t112 -103t70.5 -137.5q9 -30 2 -54t-24 -40t-40.5 -23.5t-46.5 -3.5t-42.5 20 t-28.5 46q-14 43 -41 78.5t-63.5 59t-80.5 33.5t-91 4q-51 -7 -93.5 -33t-72 -64.5t-42.5 -87t-6 -99.5zM355 299q46 -69 116.5 -114t155.5 -56q-6 47 -31 86t-63 63t-84 30.5t-94 -9.5zM681 -63q-120 0 -226 45.5t-185 124.5t-124.5 185t-45.5 226t45.5 226t124.5 185 t185 124.5t226 45.5t226 -45.5t185 -124.5t124.5 -185t45.5 -226v-1010q0 -31 -14 -52t-35 -31.5t-45 -10.5t-45 10.5t-35 31.5t-14 52v1010q0 81 -31 153t-84 125t-125 84t-153 31t-153 -31t-125 -84t-84 -125t-31 -153q0 -37 8 -77q65 24 129.5 23t122 -23t105.5 -62 t79.5 -93.5t44 -118t-1.5 -134.5q1 -18 -4.5 -35.5t-17.5 -31t-30 -21.5t-42 -8z" />
<glyph unicode="&#x104e;" horiz-adv-x="1264" d="M1115 171v-992q0 -32 -14 -53t-35 -31.5t-45.5 -10t-45.5 10.5t-35 31.5t-14 52.5v852q-56 -26 -117.5 -40t-127.5 -14q-120 0 -226 45.5t-185 124.5t-124.5 185t-45.5 226q0 80 20.5 154.5t58.5 139t91 118t117.5 91t139 58.5t154.5 21q69 0 133.5 -15.5t122.5 -44 t108 -69t90 -90.5q20 -25 22 -49.5t-7.5 -46t-28.5 -36.5t-42 -20t-47 3t-44 32q-54 68 -133.5 107.5t-173.5 39.5q-81 0 -153 -31t-125 -84t-84 -125t-31 -153t31 -153t84 -125t125 -84t153 -31q97 0 178 42t135 113q19 25 43 33.5t47 4.5t42 -19t29.5 -36t9 -46t-20.5 -50 q-8 -9 -14.5 -18t-14.5 -18z" />
<glyph unicode="&#x104f;" horiz-adv-x="1843" d="M1167 735q-46 -59 -106.5 -88t-125 -32.5t-129 17t-117 60t-88.5 96t-45 125.5q-65 -22 -117.5 -64t-88 -97.5t-51.5 -122t-7 -137.5q7 -57 31 -108.5t60 -94.5t82 -76t96 -51q1 70 34.5 129.5t87.5 102.5t121 65.5t135.5 20t131 -34t106.5 -96.5l1 -1q16 -20 19 -47.5 t-14 -56.5q-33 -56 -78.5 -103.5t-100 -84t-118 -60.5t-133.5 -33q-80 -10 -156 1.5t-144.5 41.5t-127.5 76.5t-104.5 106t-75.5 130.5t-40 151q-10 79 1.5 155.5t41.5 145t76.5 127.5t106 104.5t130.5 75t151 39.5q112 14 215.5 -13.5t188.5 -87.5q6 2 8 2q99 25 176.5 8 t130.5 -66.5t79 -127t23 -173.5v-621q0 -31 -13.5 -51.5t-34.5 -30.5t-44.5 -10t-44.5 10t-34.5 30.5t-13.5 51.5v621q0 30 -1 59.5t-7 54t-20 43t-41 26.5q17 -31 12 -59t-24 -48zM678 933q6 -57 40.5 -102t83 -70.5t104 -28t104.5 25.5q-27 40 -63.5 73t-79 56t-90.5 35 t-99 11zM671 148q14 -1 29 -0.5t30 2.5q95 12 170 63t120 126q-29 20 -65.5 25.5t-74.5 -2t-74.5 -26.5t-65.5 -47t-48 -64t-21 -77zM1068 1531q5 -33 15 -63t27 -55t43 -44.5t64 -32.5q114 -33 206.5 -92t157 -135.5t99.5 -166.5t35 -185v-716q0 -31 -14 -52t-35 -31.5 t-45.5 -10.5t-45.5 10.5t-35 31.5t-14 52v716q0 79 -27 141.5t-73.5 110.5t-108.5 82t-132 57q-131 43 -208 134t-96 223q-12 90 11 174.5t74 152t125.5 112.5t164.5 58q81 12 158 -6t141 -59.5t111.5 -103t71.5 -137.5q9 -30 2 -54t-24 -40.5t-40.5 -23.5t-46.5 -3.5 t-42.5 19.5t-28.5 46q-14 44 -41 79.5t-64 59t-81 33.5t-90 3q-51 -7 -93.5 -33t-72 -64.5t-42.5 -86.5t-6 -100z" />
<glyph unicode="&#x1050;" horiz-adv-x="1355" d="M963 -9q-27 -15 -52 -13t-44.5 15t-31.5 34.5t-13 44.5t10.5 45.5t39.5 37.5q42 24 78.5 62t63 89t42 114.5t15.5 139.5q0 81 -30.5 152.5t-84 125t-125 84t-152.5 30.5t-152 -30.5t-124.5 -84t-84 -125t-30.5 -152.5q0 -147 54.5 -248t146.5 -160q26 -17 36.5 -40t8 -46 t-16 -43.5t-33.5 -32.5t-45.5 -12t-51.5 17q-66 43 -119.5 100t-91 128.5t-57.5 155.5t-20 181q0 120 45.5 226t124.5 185t184.5 124.5t225.5 45.5t226 -45.5t184.5 -124.5t124 -185t45.5 -226q0 -98 -20.5 -185t-59 -159.5t-93.5 -129.5t-123 -95zM684 800q49 0 91.5 -18.5 t74.5 -50.5t50.5 -75t18.5 -92q0 -48 -18.5 -91t-50.5 -75t-74.5 -50.5t-91.5 -18.5t-92 18.5t-75 50.5t-50.5 75t-18.5 91q0 49 18.5 92t50.5 75t75 50.5t92 18.5zM684 688q-26 0 -48.5 -10t-39 -26.5t-26.5 -39.5t-10 -48t10 -47.5t26.5 -39t39 -26.5t48.5 -10 q25 0 47.5 10t39 26.5t26.5 39t10 47.5t-10 48t-26.5 39.5t-39 26.5t-47.5 10z" />
<glyph unicode="&#x1051;" horiz-adv-x="1358" d="M963 1076q68 -38 123 -95t93.5 -129.5t59 -159.5t20.5 -185q0 -120 -45.5 -226t-124 -185t-184.5 -124.5t-226 -45.5t-225.5 45.5t-184.5 124.5t-124.5 185t-45.5 226q0 97 20 181t57.5 155.5t91 128.5t119.5 100q26 17 51.5 17t45.5 -12t33.5 -32.5t16 -43.5t-8 -46 t-36.5 -40q-92 -59 -146.5 -160t-54.5 -248q0 -81 30.5 -152.5t84 -125t124.5 -84t152 -30.5t152.5 30.5t125 84t84 125t30.5 152.5q0 76 -15.5 139.5t-42 114.5t-63 89t-78.5 62q-28 15 -39.5 37.5t-10.5 45.5t13 44.5t31.5 34.5t44.5 15t52 -13zM684 800q49 0 91.5 -18.5 t74.5 -50.5t50.5 -75t18.5 -92q0 -48 -18.5 -91t-50.5 -75t-74.5 -50.5t-91.5 -18.5t-92 18.5t-75 50.5t-50.5 75t-18.5 91q0 49 18.5 92t50.5 75t75 50.5t92 18.5zM684 688q-26 0 -48.5 -10t-39 -26.5t-26.5 -39.5t-10 -48t10 -47.5t26.5 -39t39 -26.5t48.5 -10 q25 0 47.5 10t39 26.5t26.5 39t10 47.5t-10 48t-26.5 39.5t-39 26.5t-47.5 10z" />
<glyph unicode="&#x1052;" horiz-adv-x="1370" d="M1073 568q0 5 0.5 9.5t0.5 9.5q-2 20 -13 29t-30 18q-48 22 -95.5 39t-86 43t-62.5 68t-24 113q0 86 40 143t103.5 83.5t142.5 21.5t157 -42q29 -13 43.5 -34t17 -44t-5 -44t-23 -34t-38.5 -15.5t-51 12.5q-43 23 -74.5 30t-53.5 3.5t-35.5 -14.5t-21 -24.5t-10 -25 t-2.5 -16.5q0 -23 12 -31t30 -16q33 -15 66 -27.5t63 -26.5t55.5 -32.5t44.5 -43.5q13 -14 22 -39q18 -42 18 -105q0 -6 -0.5 -11t-1.5 -10q-2 -118 -48.5 -221.5t-125.5 -180.5t-183.5 -121.5t-223.5 -44.5q-120 0 -226 45.5t-185 124.5t-124.5 185t-45.5 226q0 97 20 182 t57.5 156.5t91 129t120.5 100.5q26 17 51 16.5t45.5 -12.5t33.5 -32t15.5 -43.5t-7.5 -46.5t-36 -40q-93 -60 -148 -161t-55 -249q0 -81 31 -153t84.5 -125t125 -84t152.5 -31t153 31t125 84t84 125t31 153z" />
<glyph unicode="&#x1053;" horiz-adv-x="1381" d="M275 565q0 -82 31 -154t84.5 -125.5t125 -84.5t153.5 -31t153.5 31t125 84.5t84.5 125.5t31 154q1 29 -11.5 43t-31.5 23q-48 22 -95.5 41t-86 47t-62.5 71.5t-24 114.5q0 87 37.5 142.5t97 81.5t133 22.5t144.5 -36.5q28 -14 43 -35t17.5 -44t-5 -44t-23 -34 t-38.5 -15.5t-51 12.5q-57 24 -90.5 22t-50 -15.5t-21 -31.5t-4.5 -25q0 -22 12 -35.5t30 -21.5q34 -15 67 -27.5t63 -27t56 -32.5t45 -44q14 -17 22 -39t12 -44t5 -41t1 -28q0 -121 -46 -227t-125.5 -185.5t-186 -125.5t-227.5 -46q-80 0 -153.5 20.5t-137.5 57.5 t-117.5 89t-91.5 115.5t-59.5 136.5t-23.5 152q0 13 1.5 34.5t5.5 45t11.5 46t19.5 39.5q19 26 44.5 44t56 32.5t63.5 27t67 27.5q18 8 29.5 21.5t11.5 35.5q0 7 -2.5 24.5t-17.5 30.5t-47 15.5t-92 -20.5q-28 -15 -51 -12.5t-38.5 15.5t-23 34t-5 44t17.5 44t43 35 q79 37 151.5 36.5t129 -30.5t90.5 -86t35 -130q0 -71 -24 -114.5t-62.5 -71.5t-86.5 -47t-95 -41q-20 -9 -31.5 -28.5t-11.5 -37.5z" />
<glyph unicode="&#x1054;" horiz-adv-x="1305" d="M595 952q14 -69 58.5 -120.5t105 -77.5t129 -23t130.5 41q-26 42 -61.5 77t-79 60t-93 38.5t-102.5 13.5q-45 0 -87 -9zM1194 817q10 -20 10.5 -38t-5 -34t-17 -28.5t-25.5 -20.5q-62 -58 -132.5 -87t-142 -32t-139.5 17.5t-125.5 61.5t-100.5 99.5t-64 131.5 q-75 -54 -119.5 -136.5t-44.5 -182.5q0 -81 31 -153t84 -125t125 -84t153 -31q50 0 99.5 11.5t95 33.5t84 52.5t65.5 67.5q18 26 41.5 35t46.5 5.5t43 -18t31 -35t10.5 -45.5t-18.5 -51q-40 -55 -95 -100.5t-120.5 -77t-137.5 -49t-145 -17.5q-80 0 -154.5 20.5t-139 58.5 t-118 91t-91 117.5t-58.5 139t-21 154.5q0 120 46 226t125 185t185 125t226 46q87 0 165 -24.5t143.5 -68.5t117 -105t86.5 -135z" />
<glyph unicode="&#x1055;" horiz-adv-x="1309" d="M590 956q14 -69 58.5 -119.5t104.5 -76.5t128 -23.5t130 40.5q-26 42 -61.5 77t-78.5 60t-92.5 38.5t-102.5 13.5q-23 0 -44 -2.5t-42 -7.5zM1197 823q9 -20 10 -38t-5 -34t-17 -28.5t-25 -20.5q-62 -58 -132.5 -86.5t-143 -31.5t-141.5 17.5t-127.5 61t-102.5 99 t-64 130.5q-75 -53 -119 -135.5t-44 -181.5q-1 -13 -1 -24v-30q-3 -106 8.5 -173t32.5 -105t50 -52t62 -14q28 0 51 3.5t42 11t36 20t34 30.5q32 34 73.5 32t70.5 -38q14 -18 25 -29t26.5 -18t38.5 -9.5t60 -2.5q24 0 47 7.5t40.5 27t28 54.5t10.5 90q0 31 14 52.5t35 31.5 t45.5 10t45.5 -10.5t35 -31.5t14 -52q0 -79 -20 -146t-60 -116.5t-98.5 -77.5t-136.5 -28q-33 0 -61.5 2t-55.5 9t-54 19t-56 33q-51 -35 -107.5 -49t-122.5 -14q-70 0 -122.5 20.5t-90.5 57t-63.5 87t-40 110t-20 126.5t-3.5 137v7.5t0.5 16.5t0.5 16.5v8.5q0 120 45.5 225 t123.5 183.5t183 124t225 45.5q86 0 165.5 -24t147 -67.5t120.5 -104.5t88 -134z" />
<glyph unicode="&#x1056;" horiz-adv-x="1250" d="M181 571q0 -81 30.5 -152t83.5 -124.5t124 -84t152 -30.5t152 30.5t124 84t83.5 124.5t31.5 152q0 29 -12 42.5t-31 22.5q-32 15 -64 27.5t-61.5 27t-55 32.5t-44.5 43.5t-30 60t-11 81.5q0 57 18 101.5t50 75.5t74.5 48.5t91.5 21t101.5 -7t104.5 -34.5q28 -13 42.5 -34 t17.5 -43.5t-4.5 -43.5t-23.5 -34t-38.5 -15.5t-49.5 12.5q-43 23 -74.5 30t-53.5 3.5t-35.5 -14.5t-21 -24.5t-10 -25t-2.5 -16.5q0 -22 12 -35.5t30 -21.5q33 -15 66 -27t62.5 -26.5t55 -32.5t44.5 -43q14 -17 22 -39t12 -43.5t5 -40.5t1 -28q0 -120 -45.5 -225 t-124 -183.5t-184 -124t-225.5 -45.5q-118 0 -222 44.5t-182 121t-124.5 179.5t-48.5 220q-1 31 12 51.5t34 31t45.5 11.5t45.5 -8t35.5 -27.5t14.5 -45.5z" />
<glyph unicode="&#x1057;" horiz-adv-x="1201" d="M912 557q0 29 -12 43t-32 23q-48 22 -95.5 41t-86 47t-62.5 71.5t-24 114.5q0 86 40 143t103.5 83.5t143 22t157.5 -41.5q28 -14 42.5 -35t17.5 -44t-4.5 -44t-23.5 -34t-38.5 -15.5t-50.5 12.5q-44 24 -75.5 31t-53.5 3.5t-35.5 -15t-21 -24.5t-10 -25t-2.5 -17 q0 -23 12 -36t30 -21q34 -15 67 -27.5t63 -27t55.5 -32.5t44.5 -44q14 -17 21 -34t10.5 -35.5t4.5 -39t4 -43.5q1 -7 1 -14t1 -14q0 -8 1 -16q9 -105 -5 -201t-55 -169.5t-111.5 -117t-174.5 -43.5q-66 0 -123 14t-108 49q-30 -21 -57 -33t-54.5 -19t-56 -9t-61.5 -2 q-78 0 -137.5 28.5t-99.5 78t-60.5 117.5t-20.5 147q0 32 14 53.5t35.5 32t46 10.5t46 -10.5t35.5 -32t14 -53.5q0 -56 10.5 -91t28 -55t40.5 -27.5t48 -7.5q37 0 60 3t38.5 9.5t27 18.5t25.5 30q29 36 71 37.5t74 -32.5q17 -19 34 -31.5t36.5 -20t42 -11t51.5 -3.5 q31 0 61.5 11.5t53.5 44.5t35 91.5t8 152.5q0 5 -0.5 18.5t-1.5 28.5q-1 18 -2 38z" />
<glyph unicode="&#x1058;" d="M-402 -329q-36 42 -86.5 65.5t-109.5 23.5q-31 0 -65 -8q18 -35 48 -59.5t65.5 -35.5t74 -8t73.5 22zM-239 -756q-60 -84 -153.5 -133.5t-205.5 -49.5q-91 0 -171.5 34.5t-140.5 94.5t-95 140.5t-35 172.5q0 61 16 117.5t44.5 105.5t69 89.5t89.5 69t105.5 44.5t117.5 16 q56 0 107.5 -13t97.5 -37t85 -58t69 -76q24 -34 18.5 -66t-28.5 -54q-37 -46 -83.5 -73t-96.5 -37t-100.5 -3.5t-96 28t-83.5 56t-62 81.5q-39 -35 -62 -84t-23 -106q0 -54 20.5 -101t55.5 -82t82 -55t100 -20q65 0 119.5 29t89.5 78q18 25 41 33.5t46 5t42 -17.5t30 -34.5 t10 -45t-19 -49.5z" />
<glyph unicode="&#x1059;" horiz-adv-x="1707" d="M-300 -316q-35 42 -84.5 64.5t-108.5 22.5q-28 0 -63 -8q18 -35 47 -58.5t64 -34.5t72.5 -8t72.5 22zM-672 -740q26 0 51 17.5t40 58.5q15 39 41.5 56t53 13.5t47.5 -27.5t24 -66q3 -27 21.5 -39.5t40.5 -12t39.5 13t17.5 35.5q0 28 12.5 47t32 28.5t41.5 10t41.5 -9.5 t32 -28.5t12.5 -47.5q0 -51 -19 -91.5t-50.5 -68.5t-72 -44t-83 -17t-84.5 13t-76 45q-32 -27 -67 -42.5t-83 -15.5q-67 0 -113 19t-76 51.5t-46.5 76t-24 91t-8.5 97.5t-1 96q0 5 0.5 9t1.5 9q3 87 38.5 162.5t94 132t136 89t164.5 32.5q110 0 202 -48.5t151 -132.5 q23 -34 18 -65t-28 -52q-54 -68 -127.5 -94.5t-147.5 -17.5t-138 51t-100 112q-38 -35 -64 -85t-33 -118q-3 -29 -3 -71t8.5 -80t28 -65t54.5 -27z" />
<glyph unicode="&#x105a;" horiz-adv-x="1277" d="M824 -681q-3 -13 0.5 -23.5t10 -18.5t14.5 -13t13 -6q22 -6 35.5 -23.5t17 -39.5t-3 -45t-25 -39.5t-49.5 -22.5t-75 6q-27 8 -51.5 29t-40 52t-20 70.5t8.5 85.5q13 48 34.5 96.5t42 93.5t35 84t14.5 68q-1 40 -20.5 67.5t-49 41t-63.5 13.5t-62.5 -14.5t-48 -44 t-19.5 -74.5q0 -29 -12.5 -48t-31.5 -28t-41.5 -9.5t-41.5 9t-31.5 28.5t-12.5 48q0 75 26 131.5t68.5 94t97 56.5t111 19.5t111 -18t97 -54.5t68.5 -90.5t26 -127.5q0 -44 -13 -82t-32.5 -78t-42.5 -86.5t-44 -107.5zM1135 933q20 -25 22.5 -50t-7.5 -46t-29 -36t-42 -20 t-47 2.5t-43 32.5q-55 68 -134.5 107.5t-172.5 39.5q-81 0 -153 -31t-125.5 -84t-84.5 -125t-31 -153t31 -153t84.5 -125t125.5 -84t153 -31q96 0 177.5 42t135.5 113q19 25 43 33.5t46.5 4.5t42 -19t30 -36t8.5 -46t-21 -50q-39 -53 -90 -95.5t-110 -72.5t-125.5 -46 t-136.5 -16q-121 0 -227 45.5t-185 124t-124.5 184.5t-45.5 227q0 80 20.5 154.5t58.5 139t91 118t118 91t139 58.5t155 21q69 0 133.5 -15.5t122 -44t107.5 -69t90 -90.5z" />
<glyph unicode="&#x105b;" horiz-adv-x="1769" d="M1484 -691v1747q0 31 14 52t35 31.5t45.5 10.5t45.5 -10.5t35 -31.5t14 -52v-1843q-2 -29 -19 -55t-42.5 -43t-57 -22t-62.5 9l-446 171q-14 5 -29 16.5t-27 28t-19.5 36.5t-7.5 42v534q0 31 14 52t35 32t45 10.5t45 -10.5t35 -31.5t14 -52.5v-497zM1034 743 q-24 47 -59 86.5t-79 68.5t-95.5 45.5t-107.5 18.5q-14 -36 -13.5 -76t14 -76.5t38.5 -67t61 -47.5q31 -15 64.5 -18.5t65.5 3t60.5 22.5t50.5 41zM1141 214q-40 -52 -90.5 -93.5t-109 -71t-124.5 -45.5t-136 -16q-120 0 -226 45.5t-185 124.5t-124.5 185t-45.5 226 t45.5 226t124.5 185t185 124.5t226 45.5q115 0 216 -41t179 -113q10 12 25 20q26 13 63.5 16t77.5 -5.5t79.5 -28.5t71 -53t51 -78.5t19.5 -104.5v-85q0 -39 -24 -58t-53 -19t-53 19t-24 58v85q0 38 -16 61.5t-37 36t-41 15t-29 -1.5q-2 -1 -3.5 -1.5t-3.5 -1.5 q8 -14 15.5 -28t14.5 -28q11 -25 9.5 -47t-11.5 -40q-32 -67 -86 -114t-119 -70.5t-136.5 -20.5t-138.5 35q-53 25 -93.5 66t-66 90.5t-36 105.5t-3.5 112q-53 -23 -97 -59t-76 -83t-49.5 -103t-17.5 -117q0 -81 31 -153t84 -125t125 -84t153 -31q96 0 176.5 41.5 t134.5 111.5q19 25 43 33t47 3.5t42.5 -19.5t29.5 -36t8 -46t-21 -50z" />
<glyph unicode="&#x105c;" horiz-adv-x="1363" d="M682 1150q80 0 154.5 -20.5t139 -58.5t118 -91t91 -118t58.5 -139.5t21 -154.5q0 -81 -21 -155t-58.5 -139t-91 -118t-118 -90.5t-139 -58.5t-154.5 -21q-121 0 -227 45.5t-185 124.5t-124.5 185t-45.5 227t45.5 227t124.5 185t185 124.5t227 45.5zM682 962 q-81 0 -153 -31t-125.5 -84.5t-84.5 -125.5t-31 -153t31 -153t84.5 -125t125.5 -84t153 -31t153 31t125 84t84 125t31 153t-31 153t-84 125.5t-125 84.5t-153 31zM684 800q49 0 91.5 -18.5t74.5 -50.5t50.5 -75t18.5 -92q0 -48 -18.5 -91t-50.5 -75t-74.5 -50.5t-91.5 -18.5 t-92 18.5t-75 50.5t-50.5 75t-18.5 91q0 49 18.5 92t50.5 75t75 50.5t92 18.5zM684 688q-26 0 -48.5 -10t-39 -26.5t-26.5 -39.5t-10 -48t10 -47.5t26.5 -39t39 -26.5t48.5 -10q25 0 47.5 10t39 26.5t26.5 39t10 47.5t-10 48t-26.5 39.5t-39 26.5t-47.5 10z" />
<glyph unicode="&#x105d;" horiz-adv-x="1384" d="M1091 149v-693q0 -102 -40.5 -175t-106.5 -118.5t-149 -64.5t-167.5 -14t-163 33.5t-135.5 78t-83.5 120t-8.5 159.5q14 66 47.5 114.5t79.5 80t101 46.5t110.5 13.5t108 -18.5t94.5 -49q26 -20 34.5 -44t4 -48t-20 -44t-37 -30.5t-47.5 -9t-51 21.5q-32 24 -69.5 28.5 t-72 -6.5t-60 -35.5t-32.5 -58.5q-7 -35 9 -64t48 -50t74.5 -33t88.5 -14t91 7.5t80 31.5t57 57t22 85v572q-50 -19 -103 -29t-110 -10q-122 0 -230 46.5t-188 126.5t-126.5 188t-46.5 230q0 100 21 189t60 163.5t95 132t126 96.5q28 16 53.5 14t45.5 -15t32 -34.5t13 -45.5 t-10.5 -46.5t-39.5 -38.5q-44 -25 -81.5 -64t-65 -91t-43 -117t-15.5 -143q0 -96 43 -179q41 60 98 101.5t122 62.5t134.5 22.5t135.5 -18t125 -59.5t104 -101q18 39 28 82t10 89q0 151 -56 253.5t-150 164.5q-27 17 -37.5 40.5t-7.5 47t16 44.5t34 33t46.5 12.5t52.5 -16.5 q68 -44 122.5 -103t92.5 -131.5t58.5 -159t20.5 -185.5q0 -128 -49.5 -238t-135.5 -191v-2zM944 277q-27 53 -69 87.5t-91 51.5t-101 16t-100 -19.5t-87.5 -54.5t-63.5 -88q51 -42 115.5 -66t136.5 -24q75 0 141 26t119 71z" />
<glyph unicode="&#x105e;" d="M-520 -525h-222q-22 0 -33.5 -8.5t-0.5 -34.5q13 -21 39.5 -49.5t57 -56t61.5 -49.5t54 -31q6 -2 13.5 -2.5t14.5 3t11.5 11.5t4.5 22v195zM-341 -134v-212h163q30 0 49.5 -13.5t29.5 -33t10 -43t-10 -43t-29.5 -33t-49.5 -13.5h-163v-223q0 -35 -15 -66.5t-39 -55.5 t-55 -38.5t-62 -14.5q-53 0 -108.5 22t-108 57t-98.5 80t-80.5 91t-54.5 89t-20 74q1 22 16.5 50.5t40.5 54t57 42.5t66 17h282v212q0 30 13.5 49.5t33 29.5t43 10t43 -10t33 -29.5t13.5 -49.5z" />
<glyph unicode="&#x105f;" d="M-152 -614q0 -61 -19.5 -106.5t-52 -78.5t-76 -54.5t-91.5 -34.5t-98 -18t-95 -5t-94.5 5t-97.5 17.5t-91.5 34t-76 54.5t-52 79t-19.5 107q0 72 30 124t79 86.5t110 54t124 26.5v183q0 30 13 49.5t33 29.5t42.5 10t42.5 -10t33 -29.5t13 -49.5v-266q0 -18 -7 -34.5 t-19.5 -28.5t-28.5 -19.5t-34 -7.5q-72 0 -120.5 -11.5t-78.5 -28.5t-42.5 -38t-12.5 -40q0 -24 12 -45.5t41 -38t78 -26t123 -9.5t123 10t78 26.5t41 38t12 44.5q0 29 13 49t33 30t43 9.5t43 -10t33 -29.5t13 -49z" />
<glyph unicode="&#x1060;" d="M-224 -204l-558 -520h498q31 0 51.5 -14t31 -35t10.5 -45t-10.5 -45t-31 -35t-51.5 -14h-732q-40 0 -66 15t-35.5 38.5t-1.5 52t37 55.5l727 683q23 22 47.5 26t46.5 -3.5t39 -25.5t24 -40.5t2 -47t-28 -45.5z" />
<glyph unicode="&#x1061;" horiz-adv-x="1440" d="M777 -624q0 -60 -23 -112.5t-62 -91.5t-92 -62t-113 -23h-104q-31 0 -52 14t-31.5 35t-10.5 45.5t10.5 45.5t31.5 35t52 14h104q21 0 39.5 8t32 21.5t21.5 31.5t8 39v619q-69 11 -133 38q-106 46 -185 125t-124.5 185t-45.5 226t45.5 226t124.5 185t185 124.5t226 45.5 q121 0 227 -45.5t185 -124.5t124.5 -185t45.5 -226v-1252q0 -20 10 -29.5t21 -9.5h51q31 0 52.5 -14t31.5 -35t10.5 -45.5t-10.5 -45.5t-32 -35t-52 -14h-51q-61 0 -103 24t-68 59t-37.5 74.5t-11.5 70.5v1252q0 81 -31 153t-84 125t-124.5 84t-153.5 31q-81 0 -152.5 -31 t-125 -84t-84.5 -125t-31 -153q0 -20 2 -39.5t6 -39.5q65 25 130.5 24t124 -23.5t106.5 -63.5t79.5 -95t43 -119.5t-4.5 -136.5v-3q2 -11 2 -23v-674zM356 349q46 -69 117 -113.5t156 -55.5q-6 47 -31.5 85.5t-63.5 62.5t-84 30.5t-94 -9.5z" />
<glyph unicode="&#x1062;" horiz-adv-x="616" d="M324 883q0 21 -1 36t-8.5 24.5t-23.5 14.5t-46 5h-147q-31 0 -52 14t-31.5 34.5t-10.5 45t10.5 45t31.5 34.5t52 14h147q76 0 127 -14.5t82 -46.5t44.5 -83t13.5 -123v-804q0 -30 -14 -50.5t-35 -30.5t-45 -10t-45 10t-35 30.5t-14 50.5v804z" />
<glyph unicode="&#x1063;" horiz-adv-x="1216" d="M91 171q-8 9 -14.5 18t-14.5 18q-19 25 -20.5 50t9 46t29.5 36t42 19t47 -4.5t43 -33.5q54 -71 135 -113t178 -42q81 0 153 31t125 84t84 125t31 153t-31 153t-84 125t-125 84t-153 31q-94 0 -173.5 -39.5t-133.5 -107.5q-20 -24 -44 -32t-47 -3t-42 20t-28.5 36.5 t-7.5 46t22 49.5q40 50 90 90.5t108 69t122.5 44t133.5 15.5q80 0 154.5 -21t139 -58.5t117.5 -91t91 -118t58.5 -139t20.5 -154.5q0 -120 -45.5 -226t-124.5 -185t-185 -124.5t-226 -45.5q-66 0 -127.5 14t-117.5 40v-852q0 -31 -14 -52.5t-35 -31.5t-45.5 -10.5t-45.5 10 t-35 31.5t-14 53v992z" />
<glyph unicode="&#x1064;" horiz-adv-x="1070" d="M100 1151h255h94t82.5 -0.5t59 -0.5h23.5q19 -3 36 -12t28.5 -23.5t16.5 -34.5t0 -44l-184 -860h375q32 0 53 -14t31.5 -35.5t10.5 -46t-10.5 -46t-31.5 -35.5t-53 -14q-142 1 -253 1h-93.5h-81t-57.5 0.5t-23 0.5q-18 3 -34.5 12t-27.5 24t-16 34.5t0 43.5l184 860h-384 q-32 0 -53 14t-31.5 35t-10.5 46t10.5 46t31.5 35t53 14z" />
<glyph unicode="&#x1065;" horiz-adv-x="1265" d="M130 932q40 50 90 90t108 68.5t122.5 44t133.5 15.5q120 0 226 -45.5t185 -124.5t124.5 -185t45.5 -226q0 -80 -20.5 -154.5t-58.5 -139t-91 -118t-117.5 -91t-139 -58.5t-154.5 -21q-71 0 -137 16.5t-125.5 46.5t-110 72.5t-90.5 94.5q-19 25 -20.5 50t9 46t29.5 36 t42 19t47 -4t43 -33q54 -72 135 -113.5t178 -41.5q81 0 153 31t125 84t84 125t31 153t-31 153t-84 125t-125 84t-153 31q-94 0 -173.5 -40t-133.5 -108q-20 -25 -44 -32.5t-47 -2.5t-42 20.5t-28.5 36.5t-7.5 46.5t22 49.5z" />
<glyph unicode="&#x1066;" horiz-adv-x="1363" d="M1200 -624q0 -60 -23 -112.5t-62 -91.5t-92 -62t-113 -23h-304q-31 0 -52 14t-31.5 35t-10.5 45.5t10.5 45.5t31.5 35t52 14h304q21 0 39.5 8t32 21.5t21.5 31.5t8 39v717q-18 -12 -37 -23q-64 -38 -138.5 -58.5t-154.5 -20.5q-120 0 -226 45.5t-185 124.5t-124.5 185 t-45.5 226q0 99 17.5 180t49 145t75.5 111.5t97 78.5q27 15 52.5 13.5t45 -15t31 -34.5t13 -44.5t-10 -46t-39.5 -37.5q-27 -22 -52.5 -51t-45.5 -70t-32.5 -97.5t-12.5 -132.5q0 -81 31 -153t84 -125t125 -84t153 -31t153 31t125 84t84 125t31 153q2 47 -3 96t-20.5 95.5 t-44.5 87.5t-75 71q-27 17 -37 40t-7.5 46.5t16 43.5t33.5 32t45.5 12.5t51.5 -16.5q49 -35 91 -82t73 -109.5t48.5 -141t17.5 -175.5q0 -80 -21 -155q-16 -57 -42 -109v-932z" />
<glyph unicode="&#x1067;" horiz-adv-x="648" d="M273 335q-32 0 -54 -22t-22 -53t22 -53.5t54 -22.5q31 0 53 22.5t22 53.5t-22 53t-53 22zM547 1057v-778q0 -45 -14 -89q-12 -43 -36.5 -79.5t-58.5 -63.5t-76.5 -42t-88.5 -15h-7h-7q-54 3 -100.5 25t-81 58.5t-54.5 84.5t-20 102q0 56 21 105t57.5 85.5t86 57.5 t105.5 21q44 0 86 -14v542q0 31 14 51.5t35 31t45 10.5t45 -10.5t35 -31t14 -51.5z" />
<glyph unicode="&#x1068;" horiz-adv-x="922" d="M571 255q0 -21 -1 -35.5t-8.5 -24.5t-23.5 -14.5t-46 -4.5h-392q-31 0 -52 -14t-31.5 -35t-10.5 -45t10.5 -45t31.5 -35t52 -14h392q76 0 127 14.5t82 46.5t44.5 83t13.5 123v804q0 30 -14 50.5t-35 30.5t-45 10t-45 -10t-35 -30.5t-14 -50.5v-804zM657 1677 q43 0 80.5 -16.5t65.5 -44.5t44.5 -65.5t16.5 -80.5t-16.5 -81t-44.5 -66t-65.5 -44.5t-80.5 -16.5t-81 16.5t-66 44.5t-44.5 66t-16.5 81t16.5 80.5t44.5 65.5t66 44.5t81 16.5zM657 1513q-18 0 -31 -12.5t-13 -30.5t13 -31t31 -13t30.5 13t12.5 31t-12.5 30.5t-30.5 12.5z " />
<glyph unicode="&#x1069;" horiz-adv-x="817" d="M98 1061q54 47 120 68.5t132 20.5q63 0 128 -21.5t118 -65t86.5 -108t33.5 -151.5q0 -63 -22.5 -110t-60 -82t-85 -60.5t-97 -46t-96.5 -38.5t-84.5 -37.5t-60 -43.5t-22.5 -56q0 -36 12.5 -64.5t33.5 -48.5t48 -30.5t55 -10.5q16 0 45 3.5t59.5 9t57.5 11t39 9.5 q30 10 55 3.5t42 -23t25 -39.5t4.5 -46.5t-19 -43.5t-45.5 -30q-22 -7 -58 -14.5t-74 -13.5t-73.5 -10t-57.5 -4q-64 0 -125 24t-109 68.5t-77 107.5t-29 142q0 64 22.5 111.5t60 83t84.5 61.5t96.5 46.5t97 38t85 37t60 42.5t22.5 54q0 37 -14 66t-38 49.5t-55.5 31.5 t-67.5 11q-37 0 -69.5 -11.5t-56.5 -31.5q-24 -21 -49.5 -24t-47.5 6t-38 27.5t-22 41t0.5 46.5t30.5 45z" />
<glyph unicode="&#x106a;" horiz-adv-x="765" d="M437 1052q0 32 14.5 54t36.5 32.5t47 10.5t47 -10.5t36.5 -32.5t14.5 -54l-1 -803q-8 -66 -39.5 -114.5t-76.5 -81t-98 -48.5t-104 -16q-50 0 -101 15.5t-95 46.5t-75.5 76.5t-42.5 106.5q-6 32 5 55.5t30.5 38t44.5 19t48 -2.5t41 -25.5t24 -50.5q3 -20 15.5 -35.5 t30 -26.5t36.5 -16.5t36 -6.5q18 0 38.5 4.5t39 15t32 27t16.5 38.5v784z" />
<glyph unicode="&#x106b;" horiz-adv-x="765" d="M437 86v784q-3 22 -16.5 38t-32 26.5t-39 15.5t-38.5 5q-17 -1 -36 -6.5t-36.5 -16.5t-30 -26.5t-15.5 -35.5q-6 -32 -24 -50.5t-41 -25.5t-48 -2.5t-44.5 19t-30.5 38t-5 55.5q11 61 42.5 106.5t75.5 76.5t95 46.5t101 15.5q51 0 104 -16t98 -48.5t76.5 -81t39.5 -114.5 l1 -803q0 -33 -14.5 -54.5t-36.5 -32.5t-47 -10.5t-47 11t-36.5 32.5t-14.5 54z" />
<glyph unicode="&#x106c;" horiz-adv-x="765" d="M199 268q3 -22 16.5 -38.5t32 -27t39 -15t38.5 -4.5q17 1 36 6.5t36.5 16.5t30 26.5t15.5 35.5q6 32 24 50.5t41 25.5t48 2.5t44.5 -19t30 -38t5.5 -55.5q-11 -61 -42.5 -106.5t-75.5 -76.5t-95 -46.5t-101 -15.5q-51 0 -104 16t-98 48.5t-76.5 81t-39.5 114.5l-1 803 q0 32 14.5 54t36.5 32.5t47 10.5t47 -10.5t36.5 -32.5t14.5 -54v-784z" />
<glyph unicode="&#x106d;" horiz-adv-x="817" d="M619 1061q24 -21 30.5 -45t0.5 -46.5t-22 -41t-38 -27.5t-47.5 -6t-49.5 24q-24 20 -56.5 31.5t-69.5 11.5q-36 0 -67.5 -11t-55.5 -31.5t-38 -49.5t-14 -66q0 -31 22.5 -54t60 -42.5t84.5 -37t96.5 -38t97 -46.5t85 -61.5t60 -83t22.5 -111.5q0 -79 -29 -142t-77 -107.5 t-109 -68.5t-125 -24q-22 0 -51 4t-59.5 10t-59.5 13.5t-51 14.5q-30 10 -45.5 30t-19 43.5t4.5 46.5t25 39.5t42 23t55 -3.5q12 -4 32.5 -9.5t43 -11t44.5 -9t39 -3.5q28 0 55 10.5t48 30.5t33.5 48.5t12.5 64.5q0 32 -22.5 56t-60 43.5t-85 37.5t-97 38.5t-96.5 46 t-84.5 60.5t-60 82t-22.5 110q0 87 33.5 151.5t86.5 108t118 65t128 21.5q66 1 132 -20.5t120 -68.5z" />
<glyph unicode="&#x106e;" horiz-adv-x="2558" d="M1265 1146q44 0 81.5 -12.5t69 -35t57 -53.5t46.5 -68q74 64 168 100.5t200 36.5q117 0 220 -44.5t179.5 -121t121 -179.5t44.5 -220t-44.5 -220t-121 -179.5t-179.5 -121t-220 -44.5q-29 0 -49 13.5t-30 34t-11 44t9 44t30 34t51 13.5q79 0 148.5 30t121.5 82t82 121.5 t30 148.5t-30 148.5t-82 121.5t-121.5 82t-148.5 30q-91 0 -168 -39t-130 -105l-2 -2q11 -54 16.5 -106.5t5.5 -102.5q0 -100 -10 -178t-31.5 -143.5t-56.5 -123.5t-85 -117q-20 -24 -43.5 -30t-45.5 0.5t-39.5 23.5t-26 39t-5 47t24.5 48q69 76 103.5 184t34.5 245 q0 25 -4 62.5t-11.5 79t-19 83t-26.5 75.5t-34 56.5t-42 26.5q-24 4 -49.5 1.5t-46.5 -12.5t-36 -26t-19 -39v-1q28 -44 46.5 -84t28.5 -81.5t13.5 -86t2.5 -97.5q-5 -174 -78 -307t-204 -217q-26 -17 -50 -16.5t-43.5 12t-32.5 31.5t-15.5 42.5t7 44.5t35.5 39 q45 29 81.5 64.5t62 80.5t39.5 101.5t14 127.5q0 79 -30 155t-82 135t-121.5 95.5t-148.5 36.5t-148.5 -36.5t-121.5 -95.5t-82 -135t-30 -155q0 -74 15 -132.5t41 -103.5t61.5 -78t77.5 -57q27 -15 38 -37t10 -44.5t-12.5 -43t-30 -33.5t-43 -15t-51.5 13q-66 37 -119.5 89 t-91 118.5t-58 147.5t-20.5 176q0 78 20 153t57 142.5t88.5 124.5t114.5 98.5t135 64.5t150 23q196 0 337 -108q42 65 110.5 91t151.5 26z" />
<glyph unicode="&#x106f;" horiz-adv-x="2337" d="M2204 -624q0 -60 -23 -112.5t-62 -91.5t-92 -62t-113 -23h-320q-31 0 -52 14t-31.5 35t-10.5 45.5t10.5 45.5t31.5 35t52 14h320q21 0 39.5 8t32 21.5t21.5 31.5t8 39v736q-32 -25 -67 -45q-64 -38 -138.5 -58.5t-154.5 -20.5q-42 0 -71.5 14t-46 35t-18.5 45t12 45 t44.5 35t79.5 14q81 0 153 31t125 84t84 125t31 153t-31 153t-84 125t-125 84t-153 31q-79 0 -149 -29.5t-123 -80.5t-85 -119.5t-35 -146.5v-10q0 -80 -20.5 -154.5t-58.5 -139t-91 -118t-118 -91t-139.5 -58.5t-154.5 -21t-154.5 21t-139 58.5t-117.5 91t-91 118 t-58.5 139t-20.5 154.5q0 98 20 177.5t55 143.5t82 113.5t101 88.5q27 15 52 13t44.5 -15t31.5 -34.5t13 -45t-10.5 -46t-38.5 -37.5q-32 -24 -61 -54.5t-51.5 -72.5t-36 -98.5t-13.5 -132.5q0 -81 31 -153t84 -125t125 -84t153 -31q82 0 153.5 31t124.5 84t84 125t31 153 v13q-1 79 -20 141t-46.5 106t-58 71.5t-55.5 39.5q-27 17 -37 40.5t-7.5 46.5t16 43.5t33.5 32.5t45 12.5t52 -16.5q29 -21 56 -40.5t51 -41t45.5 -47.5t40.5 -61q40 54 91 97t110.5 74t126 47.5t138.5 16.5q120 0 226 -46t185 -125t125 -185t46 -226q0 -80 -21 -155 l-12 -38v-1000z" />
<glyph unicode="&#x1070;" horiz-adv-x="2343" d="M2198 -624q0 -60 -23 -112.5t-62 -91.5t-92 -62t-113 -23h-310q-31 0 -52 14t-31.5 35t-10.5 45.5t10.5 45.5t31.5 35t52 14h310q21 0 39.5 8t32 21.5t21.5 31.5t8 39v725q-26 -19 -54 -35q-64 -37 -138.5 -58t-154.5 -21q-77 0 -148.5 19t-134 54t-114.5 83.5t-91 108.5 q-39 -60 -91.5 -108.5t-115 -83.5t-134 -54t-147.5 -19q-120 0 -225 45t-184 123t-125 183t-47 225v19q3 67 27 107.5t61.5 67t84.5 44.5t96 39q18 8 30 21t12 36q0 5 -2.5 16.5t-10 25t-21 24.5t-35.5 14.5t-54 -3.5t-75 -30q-28 -15 -50.5 -12.5t-38 15.5t-23.5 34t-5 44 t18 44t43 34q78 37 157 42t142 -21.5t103 -83.5t40 -143q0 -71 -24 -114.5t-62 -71.5t-85.5 -47t-95.5 -41q-21 -10 -32.5 -20.5t-11.5 -36.5q0 -81 31.5 -152t84.5 -124t124.5 -83.5t152.5 -30.5t153 31t125 84t84 125t31 153q0 73 -14.5 133.5t-40.5 109.5t-64 87.5 t-84 68.5q-26 17 -36 40t-7.5 46.5t16 44t33.5 32.5t45 12t52 -17q66 -43 119.5 -98.5t91 -124.5t57.5 -151.5t20 -179.5q1 -4 1.5 -7.5t0.5 -8.5q2 -79 34 -148.5t85 -121t123.5 -81t150.5 -29.5q81 0 153 31t125 84t84 125t31 153t-31 153t-84 125t-125 84t-153 31 q-49 0 -79.5 14t-44.5 35t-12 45t18.5 45t46 35t71.5 14q120 0 226 -45.5t185 -124.5t124.5 -185t45.5 -226q0 -80 -21 -155q-10 -36 -24 -71v-967z" />
<glyph unicode="&#x1071;" d="M-507 1525q0 43 16.5 80.5t44.5 65.5t65.5 44.5t80.5 16.5t81 -16.5t66 -44.5t44.5 -65.5t16.5 -80.5t-16.5 -81t-44.5 -66t-66 -44.5t-81 -16.5t-80.5 16.5t-65.5 44.5t-44.5 66t-16.5 81zM-343 1525q0 -18 12.5 -31t30.5 -13t31 13t13 31t-13 30.5t-31 12.5 t-30.5 -12.5t-12.5 -30.5zM-1085 1525q0 43 16.5 80.5t44.5 65.5t65.5 44.5t80.5 16.5t81 -16.5t66 -44.5t44.5 -65.5t16.5 -80.5t-16.5 -81t-44.5 -66t-66 -44.5t-81 -16.5t-80.5 16.5t-65.5 44.5t-44.5 66t-16.5 81zM-921 1525q0 -18 12.5 -31t30.5 -13t31 13t13 31 t-13 30.5t-31 12.5t-30.5 -12.5t-12.5 -30.5z" />
<glyph unicode="&#x1072;" d="M-288 1831q17 -24 17.5 -48t-10 -43.5t-29.5 -32.5t-41 -16t-44 5.5t-39 32.5q-34 50 -88 79t-117 29q-51 0 -95.5 -19t-78.5 -51.5t-54 -76.5t-22 -94v-15q1 -50 21 -94.5t54 -77.5t79 -52.5t96 -19.5q63 0 115.5 28.5t86.5 76.5q17 24 39.5 32.5t44.5 4.5t40.5 -17.5 t29 -33t10 -43.5t-18.5 -48q-59 -81 -149 -129.5t-198 -48.5q-89 0 -167 33.5t-136 92t-91.5 136.5t-33.5 167v8q0 46 8.5 83.5t21.5 68t28.5 55.5t30.5 46q59 76 147 121t192 45q54 0 105 -13t96 -37t83 -58t67 -76z" />
<glyph unicode="&#x1073;" d="M-165 1127l-369 300l-328 -296q-23 -21 -47.5 -24.5t-46 5t-37.5 26t-22 40t0 46t29 44.5q120 109 200 185t132 121q37 31 65.5 47t55 17t54.5 -13t65 -42q58 -44 145 -121t222 -191q23 -20 30.5 -43.5t2.5 -46t-20 -41t-36 -28t-46 -7t-49 21.5z" />
<glyph unicode="&#x1074;" d="M-165 1746q24 19 49 21.5t46 -7t36 -28t20 -41t-2.5 -46t-30.5 -43.5q-135 -114 -222 -191t-145 -121q-37 -28 -65 -42t-54.5 -13t-55 17t-65.5 47q-52 45 -132 121t-200 185q-23 21 -29 44.5t0 46t22 40t37.5 26t46 5t47.5 -24.5l328 -296z" />
<glyph unicode="&#x1075;" horiz-adv-x="1369" d="M295 572q0 -5 -0.5 -9.5t-0.5 -9.5q2 -20 13 -29t30 -18q48 -22 95.5 -39t86 -43t62.5 -68t24 -113q0 -86 -40 -143t-103.5 -83.5t-142.5 -21.5t-157 42q-29 13 -43.5 34t-17 44t5 44t23 34t38.5 15.5t51 -12.5q43 -23 74.5 -30t53.5 -3.5t35.5 14.5t21 24.5t10 25 t2.5 16.5q0 23 -12 31t-30 16q-33 15 -66 27.5t-63 26.5t-55.5 32.5t-44.5 43.5q-13 14 -22 39q-18 42 -18 105q0 6 0.5 11t1.5 10q2 118 48.5 221.5t125.5 180.5t183.5 121.5t223.5 44.5q120 0 226 -45.5t185 -124.5t124.5 -185t45.5 -226q0 -97 -20 -182t-57.5 -156.5 t-91 -129t-120.5 -100.5q-26 -17 -51 -16.5t-45.5 12.5t-33.5 32t-15.5 43.5t7.5 46.5t36 40q93 60 148 161t55 249q0 81 -31 153t-84.5 125t-125 84t-152.5 31t-153 -31t-125 -84t-84 -125t-31 -153z" />
<glyph unicode="&#x1076;" horiz-adv-x="1345" d="M721 187q-9 46 -32.5 84.5t-56.5 67t-74 46t-85 22t-89 -5t-86 -34.5q26 -42 61.5 -77t79 -60t93 -38.5t103.5 -13.5q45 0 86 9zM109 322q-10 20 -10.5 38t5 34t17 28.5t25.5 21.5q62 58 134 87t144.5 31.5t142.5 -18t129 -61.5t103 -99.5t65 -131.5q75 54 119.5 136.5 t44.5 182.5q0 78 -28.5 147t-77.5 122t-116 85.5t-143 38.5q-20 -3 -28.5 -14t-17.5 -30q-14 -32 -26 -64.5t-26 -62.5t-32 -56t-43 -46t-59.5 -31.5t-82.5 -12.5q-58 -1 -102.5 16.5t-76.5 49t-50 74t-22.5 91.5t4.5 102.5t33 105.5q13 29 34 44t43.5 18t43.5 -4 t34.5 -22.5t16.5 -38t-12 -50.5q-23 -44 -29.5 -76t-2 -53.5t16 -35t24.5 -21t25 -9.5t17 -2q23 0 35.5 12.5t20.5 30.5q14 34 25.5 68.5t25 67t30.5 60t42 47.5q8 6 16 11.5t20 10.5q12 6 31 8t37.5 2t32 -1l13.5 -1q114 -8 213 -56t172.5 -126t115.5 -180.5t42 -218.5 q0 -120 -46 -226t-125 -185t-185 -125t-226 -46q-87 0 -167 24.5t-148 68.5t-122 105t-89 135z" />
<glyph unicode="&#x1077;" horiz-adv-x="1361" d="M839 43q-42 63 -60 130.5t-16 134t23.5 128.5t59.5 113.5t90.5 90t117.5 56.5q-19 58 -55 107t-84.5 84.5t-107.5 55.5t-124 20q-81 0 -152 -30.5t-124.5 -84t-84 -124.5t-30.5 -152v-9.5t-1 -9.5q2 -20 13 -29t30 -17q48 -22 95.5 -41t85.5 -46.5t62 -71t24 -114.5 q0 -86 -40 -142.5t-103 -83t-141.5 -21.5t-156.5 41q-28 13 -42.5 34.5t-17.5 44t4.5 43.5t23 34.5t38.5 15.5t50 -13q43 -24 74.5 -30.5t53.5 -3t35.5 14.5t21 24.5t10 25t2.5 16.5q0 23 -12 36t-30 21q-33 15 -66 27t-63 26.5t-55.5 32.5t-44.5 44q-12 13 -21 38 q-18 42 -18 105v10.5t1 10.5q2 78 23.5 150.5t59.5 135t91 114t116.5 88.5t136.5 57t152 20q120 0 225.5 -45.5t184.5 -123.5t124.5 -183.5t45.5 -225.5q0 -97 -20 -181.5t-57.5 -155.5t-91 -128.5t-119.5 -100.5q-21 -14 -42 -16t-39 4t-32 19t-23 30zM1074 540 q-47 -18 -81.5 -53.5t-54 -80.5t-22.5 -96.5t13 -102.5q63 57 101.5 139t43.5 194z" />
<glyph unicode="&#x1078;" horiz-adv-x="2335" d="M1654 963q-81 0 -153 -31t-125 -84t-84 -125t-31 -153t31 -153t84 -125t125 -84t153 -31t153 31t125 84t84 125t31 153t-31 153t-84 125t-125 84t-153 31zM1168 889q39 59 91.5 107.5t114.5 83t133 53t147 18.5q120 0 226 -45.5t185 -124.5t124.5 -185t45.5 -226 t-45.5 -226t-124.5 -185t-185 -124.5t-226 -45.5t-226 45.5t-185 124.5t-124.5 185t-45.5 226v27q-5 76 -38 143t-85.5 116.5t-121.5 78t-147 28.5q-81 0 -153 -31t-125 -84t-84 -125t-31 -153t31 -153t84 -125t125 -84t153 -31q49 0 79.5 -14t44.5 -35t12 -45t-18.5 -45 t-46 -35t-71.5 -14q-120 0 -226 45.5t-185 124.5t-124.5 185t-45.5 226t45.5 226t124.5 185t185 124.5t226 45.5q77 0 148 -18.5t133 -53t114.5 -83t91.5 -107.5z" />
<glyph unicode="&#x1079;" horiz-adv-x="2340" d="M681 177q5 49 -7.5 94.5t-38 83.5t-62.5 66.5t-80.5 44t-92 16t-97.5 -17.5q6 -24 16 -47q31 -72 84 -125t125 -84t153 -31zM1654 963q-81 0 -153 -31t-125 -84t-84 -125t-31 -153t31 -153t84 -125t125 -84t153 -31t153 31t125 84t84 125t31 153t-31 153t-84 125t-125 84 t-153 31zM1168 889q39 59 91.5 107.5t114.5 83t133 53t147 18.5q120 0 226 -45.5t185 -124.5t124.5 -185t45.5 -226t-45.5 -226t-124.5 -185t-185 -124.5t-226 -45.5t-226 45.5t-185 124.5t-124.5 185t-45.5 226v27q-5 76 -38 143t-85.5 116.5t-121.5 78t-147 28.5 q-81 0 -153 -31t-125 -84t-84 -125q-21 -49 -27 -101q79 21 155.5 11.5t143.5 -43t119.5 -87t84.5 -120.5t39.5 -144.5t-17.5 -158.5q-3 -22 -18 -42q-17 -21 -46.5 -35t-71.5 -14q-120 0 -226 45.5t-185 124.5t-124.5 185t-45.5 226t45.5 226t124.5 185t185 124.5t226 45.5 q77 0 148 -18.5t133 -53t114.5 -83t91.5 -107.5z" />
<glyph unicode="&#x107a;" horiz-adv-x="2336" d="M1262 588v-31q3 -80 34.5 -149t84.5 -120.5t123.5 -81t150.5 -29.5q81 0 153 31t125 84t84 125t31 153t-31 153t-84 125t-125 84t-153 31q-35 0 -61 7.5t-42.5 19.5t-24.5 28t-8 33q0 18 9 36t26.5 32.5t42.5 23t58 8.5q120 0 226 -45.5t185 -124.5t124.5 -185t45.5 -226 q0 -80 -20.5 -154.5t-58.5 -139t-91 -118t-117.5 -91t-139 -58.5t-154.5 -21q-119 0 -225 45q-94 40 -167 105v-762q0 -21 8 -39.5t21.5 -32t32 -21.5t39.5 -8h205q31 0 52 -14t31.5 -35t10.5 -45t-10.5 -45t-31.5 -35t-52 -14h-205q-60 0 -112.5 22.5t-92 62t-62 92 t-22.5 112.5v1137q-2 24 -2 48q0 6 -1 21q-1 79 -32.5 148.5t-84.5 121t-123.5 81.5t-150.5 30q-81 0 -153 -31t-125 -84t-84 -125t-31 -153t31 -153t84 -125t125 -84t153 -31q35 0 60.5 -7.5t42.5 -20t25 -28.5t8 -33q0 -18 -9 -36t-26.5 -32.5t-42.5 -23t-58 -8.5 q-80 0 -154.5 21t-139 58.5t-117.5 91t-91 118t-58.5 139t-20.5 154.5q0 120 45.5 226t124.5 185t185 124.5t226 45.5q118 0 222.5 -44t183 -120.5t125.5 -179t50 -219.5z" />
<glyph unicode="&#x107b;" horiz-adv-x="2340" d="M1167 889q39 59 91.5 107.5t114.5 83t133 53t148 18.5q120 0 226 -45.5t185 -124.5t124.5 -185t45.5 -226t-45.5 -226t-124.5 -185t-185 -124.5t-226 -45.5q-42 0 -71.5 14t-46.5 35q-15 20 -18 42q-25 81 -17.5 158.5t39.5 144.5t84.5 120.5t119.5 87t143.5 43 t155.5 -11.5q-6 52 -27 101q-31 72 -84 125t-125 84t-153 31q-78 0 -147 -28.5t-121.5 -78t-85.5 -116.5t-38 -143v-27q0 -120 -45.5 -226t-124.5 -185t-185 -124.5t-226 -45.5t-226 45.5t-185 124.5t-124.5 185t-45.5 226t45.5 226t124.5 185t185 124.5t226 45.5 q76 0 147 -18.5t133 -53t114.5 -83t91.5 -107.5zM681 963q-81 0 -153 -31t-125 -84t-84 -125t-31 -153t31 -153t84 -125t125 -84t153 -31t153 31t125 84t84 125t31 153t-31 153t-84 125t-125 84t-153 31zM1654 177q81 0 153 31t125 84t84 125q10 23 16 47q-49 18 -97.5 17.5 t-92 -16t-80.5 -44t-62.5 -66.5t-38 -83.5t-7.5 -94.5z" />
<glyph unicode="&#x107c;" horiz-adv-x="2239" d="M1228 497q10 -54 35 -102.5t61.5 -88t84 -69t103.5 -44.5q69 -19 135 -13t126 32q-32 58 -82 112t-118.5 94.5t-155 62.5t-189.5 16zM1025 496q-104 8 -191.5 -13t-157 -61t-121 -94t-83.5 -112q61 -29 130 -35.5t139 12.5q56 15 103.5 44t84 69t61 88.5t35.5 101.5z M273 112q0 2 0.5 4.5t0.5 4.5q-3 9 2.5 30.5t15 46.5t21 49t21.5 36q41 76 106.5 146t153 122t195.5 79.5t236 19.5l-6 24q-21 79 -69.5 140t-113.5 98.5t-142.5 49t-155.5 -9.5q-91 -24 -157.5 -83t-101.5 -139q-13 -29 -34 -42.5t-44.5 -14.5t-46 8.5t-37 27.5t-19 42.5 t8.5 53.5q25 58 63 110.5t86.5 95t107 74t125.5 49.5q93 25 185.5 19t176.5 -39t155 -90.5t121 -134.5q50 77 120.5 134.5t154.5 90.5t176.5 39t186.5 -19q66 -18 124.5 -49.5t107.5 -74t86.5 -95t63.5 -110.5q13 -29 8.5 -53.5t-19.5 -42.5t-37.5 -27.5t-46 -8.5 t-44.5 14.5t-34 42.5q-35 80 -101 139t-157 83q-79 21 -156 9.5t-142.5 -49t-114 -98.5t-69.5 -140q-2 -6 -2.5 -12t-2.5 -11q125 7 231.5 -21.5t192.5 -80.5t150.5 -121.5t105.5 -144.5q12 -18 24.5 -42t22 -48t14.5 -45.5t1 -34.5v-1l-3 -1q-52 -40 -111.5 -67.5t-124 -41 t-132.5 -11.5t-136 20q-109 29 -194.5 93t-142.5 152q-57 -88 -142.5 -152t-194.5 -93q-68 -18 -135 -19.5t-131 11.5t-123.5 40t-111.5 66z" />
<glyph unicode="&#x107d;" horiz-adv-x="2231" d="M1519 185q42 -9 86 -9q53 0 102.5 13.5t92.5 38t78.5 59.5t61.5 77q-62 38 -130 41t-128 -23t-104.5 -77t-58.5 -120zM2129 319q-35 -73 -88.5 -134t-121.5 -104.5t-147.5 -68t-166.5 -24.5q-70 0 -136 16t-124.5 46t-109 72t-90.5 94q-40 -52 -90.5 -94t-109 -72 t-124.5 -46t-136 -16q-120 0 -225.5 45.5t-184.5 124t-124.5 184t-45.5 225.5q0 9 1 28t5 40.5t12 43.5t22 39q19 25 44.5 43.5t55 32.5t62.5 26.5t66 27.5q18 8 30 21t12 36q0 4 -2.5 16t-10 25t-21 24.5t-35.5 15t-53.5 -3t-74.5 -30.5q-27 -15 -49.5 -13t-38.5 15.5 t-23.5 34.5t-4.5 43.5t17.5 43.5t42.5 34q78 37 156.5 41.5t142 -21.5t103 -82.5t39.5 -142.5q0 -71 -24 -114.5t-62 -71t-85.5 -46.5t-94.5 -41q-20 -9 -32 -22.5t-12 -42.5q1 -81 32 -152.5t84 -124.5t124 -84t152 -31q61 0 117 18t102.5 50t83 76.5t58.5 97.5 q-20 74 -20 150q0 120 45.5 225.5t124.5 184t184 124t225 45.5q73 0 141 -17.5t128.5 -49t112 -76.5t90.5 -100q18 -26 19 -51t-10 -45.5t-31 -34.5t-43 -17.5t-46.5 5t-41.5 34.5q-54 75 -136.5 119.5t-182.5 44.5q-81 0 -152 -30.5t-124.5 -84t-84 -124.5t-30.5 -152 q0 -99 44.5 -181.5t118.5 -136.5q21 72 64.5 131t102.5 99.5t128.5 61t142 18t144 -31.5t133.5 -87q14 -8 25 -20.5t17 -28.5t5 -34t-10 -38z" />
<glyph unicode="&#x107e;" horiz-adv-x="2075" d="M2129 319q-35 -73 -88.5 -134t-121.5 -104.5t-147.5 -68t-166.5 -24.5q-77 0 -146 18l-115 -686q-9 -74 -33.5 -121t-62.5 -73t-88.5 -35.5t-111.5 -9.5h-111q-32 0 -53.5 14t-32 35.5t-10.5 46.5t10.5 46.5t32 35.5t53.5 14h111q21 0 39.5 1.5t33.5 10.5t26.5 29.5 t19.5 59.5l115 712q-39 27 -73.5 59.5t-63.5 70.5q-40 -52 -90.5 -94t-109 -72t-124.5 -46t-136 -16q-120 0 -225.5 45.5t-184.5 124t-124.5 184t-45.5 225.5q0 9 1 28t5 40.5t12 43.5t22 39q19 25 44.5 43.5t55 32.5t62.5 26.5t66 27.5q18 8 30 21t12 36q0 4 -2.5 16 t-10 25t-21 24.5t-35.5 15t-53.5 -3t-74.5 -30.5q-27 -15 -49.5 -13t-38.5 15.5t-23.5 34.5t-4.5 43.5t17.5 43.5t42.5 34q78 37 156.5 41.5t142 -21.5t103 -82.5t39.5 -142.5q0 -71 -24 -114.5t-62 -71t-85.5 -46.5t-94.5 -41q-20 -9 -32 -22.5t-12 -42.5q1 -81 32 -152.5 t84 -124.5t124 -84t152 -31q61 0 117 18t102.5 50t83 76.5t58.5 97.5q-20 74 -20 150q0 120 45.5 225.5t124.5 184t184 124t225 45.5q73 0 141 -17.5t128.5 -49t112 -76.5t90.5 -100q18 -26 19 -51t-10 -45.5t-31 -34.5t-43 -17.5t-46.5 5t-41.5 34.5q-54 75 -136.5 119.5 t-182.5 44.5q-81 0 -152 -30.5t-124.5 -84t-84 -124.5t-30.5 -152q0 -99 44.5 -181.5t118.5 -136.5q21 72 64.5 131t102.5 99.5t128.5 61t142 18t144 -31.5t133.5 -87q14 -8 25 -20.5t17 -28.5t5 -34t-10 -38zM1519 185q42 -9 86 -9q53 0 102.5 13.5t92.5 38t78.5 59.5 t61.5 77q-62 38 -130 41t-128 -23t-104.5 -77t-58.5 -120z" />
<glyph unicode="&#x107f;" horiz-adv-x="1363" d="M446 944q-73 -61 -115 -154t-42 -222v-11q57 20 99 62t63.5 95.5t21.5 113.5t-27 116zM324 406q23 -51 59.5 -93.5t83 -73t101 -47.5t114.5 -17q81 0 153 31t125 84t84 125t31 153q0 76 -15.5 140.5t-42.5 115.5t-63.5 89t-79.5 62q-28 15 -39.5 37.5t-10 46t13 44.5 t31 34.5t45 15t52.5 -13.5q68 -38 123 -95t93.5 -130t59.5 -160t21 -186q0 -120 -45.5 -226t-124.5 -185t-185 -124.5t-226 -45.5q-80 0 -154.5 20.5t-139 58.5t-118 91t-91 117.5t-58.5 139t-21 154.5q0 97 20 182t57.5 156.5t91 129t120.5 100.5q20 13 39 15.5t36 -2 t31 -15t24 -25.5q54 -62 80 -132t28 -140.5t-19 -139t-60.5 -126t-96.5 -101t-127 -64.5z" />
<glyph unicode="&#x1080;" horiz-adv-x="2242" d="M870 299q-64 77 -143.5 110.5t-159.5 30t-154 -40t-127 -97.5q54 -60 130 -95.5t164 -35.5q86 0 161 34t129 94zM124 930q40 50 90 90.5t108.5 69t123.5 44t134 15.5q80 0 154.5 -21t139.5 -59t118 -91t91 -118t59 -139.5t21 -154.5v-13q3 -79 34.5 -148.5t85 -121 t124 -81.5t150.5 -30q82 0 153.5 31t125 84.5t84.5 125.5t31 153q0 82 -31 153.5t-84.5 125t-125 84.5t-153.5 31q-49 0 -79.5 14t-44.5 35t-12 45.5t18.5 45.5t46 35t71.5 14q121 0 227 -46t185 -125t125 -185t46 -227t-46 -227t-125 -185t-185 -125t-227 -46 q-77 0 -148 19t-134 54t-115.5 83.5t-91.5 108.5q-39 -60 -91.5 -109t-115 -83.5t-134 -53.5t-147.5 -19q-71 0 -138 16t-126 46t-110 72.5t-91 95.5q-23 29 -21.5 58.5t18.5 52.5q41 76 103 131t136 89t155.5 45.5t161.5 0t154 -47t133 -95.5q9 28 14 57.5t5 60.5 q0 82 -31 154t-84.5 125.5t-125.5 84.5t-153 31q-94 0 -174 -40t-134 -108q-20 -25 -44 -32.5t-47.5 -2.5t-42.5 20t-28.5 36.5t-7.5 46.5t22 50z" />
<glyph unicode="&#x1081;" horiz-adv-x="1363" d="M1248 564q-16 -95 -103 -84t-87 84q0 82 -31 154t-84.5 125.5t-125.5 84.5t-154 31q-60 0 -115.5 -17t-102 -47.5t-83 -73.5t-59.5 -94q64 -20 117 -58t92 -88t63 -110t30.5 -124t-6.5 -129.5t-48 -125.5l-127 -761q-9 -74 -33.5 -120.5t-62 -72.5t-88 -35.5t-110.5 -9.5 h-23q-32 0 -52.5 14t-31.5 35t-10.5 45.5t10.5 45.5t31.5 35t52.5 14h23q21 0 39 1.5t33 11t26 30.5t19 59l101 622q-127 88 -198.5 228.5t-71.5 329.5q0 121 46 227.5t125.5 185.5t186 125t227.5 46t227.5 -46t186 -125t125.5 -185.5t46 -227.5zM428 192q25 56 24.5 115.5 t-23 112t-64 94t-97.5 61.5v-11q0 -128 40.5 -220t111.5 -155q6 2 8 3z" />
<glyph unicode="&#x1082;" d="M-660 -96q30 0 59 -4t57 -12q33 -17 42 -47.5t-0.5 -59t-35 -47t-61.5 -12.5q-28 7 -61 7q-50 0 -94 -18.5t-77 -51t-53 -75.5t-22 -92v-15q1 -49 21 -92.5t53 -76t77.5 -51.5t94.5 -19q62 0 114 27.5t85 75.5q17 23 39 31.5t43.5 5t40 -17t28.5 -32.5t9.5 -42.5 t-17.5 -47.5q-58 -81 -147 -128t-195 -47q-87 0 -164 33t-134 90.5t-90 134t-33 163.5v8q0 45 8.5 82t21 67t28 54.5t30.5 45.5q57 75 143.5 119t189.5 44z" />
<glyph unicode="&#x1083;" horiz-adv-x="421" d="M98 820q0 21 -8 40t-22 32.5t-32.5 21.5t-39.5 8h-86q-32 0 -53 14t-31.5 35t-10.5 46t10.5 46t31.5 35t53 14h86q61 0 114 -23t93 -62.5t63 -93t23 -113.5v-1487q0 -21 8 -39.5t22 -32t32 -21.5t39 -8h85q32 0 53 -14t31.5 -35.5t10.5 -46t-10.5 -46t-31.5 -35.5 t-53 -14h-85q-61 0 -114 23t-92.5 62.5t-62.5 93t-23 113.5v1487z" />
<glyph unicode="&#x1084;" horiz-adv-x="1293" d="M214 566q-53 41 -83 100.5t-30 143.5q0 71 25.5 123.5t68.5 90.5t99 62.5t116.5 38.5t121.5 19.5t114 5.5q52 0 114.5 -6t125 -21t120.5 -39.5t101 -62.5t66.5 -90t17.5 -121q-3 -29 -18 -46.5t-36.5 -25t-45.5 -5.5t-44 11.5t-32.5 26.5t-11.5 39q2 33 -18.5 57 t-53.5 41t-74 27.5t-81.5 16t-75 7.5t-54.5 2q-21 0 -55.5 -1.5t-74 -6.5t-80 -15t-73 -27t-53 -41.5t-20.5 -59.5q0 -28 10 -55t41 -48t87.5 -33.5t148.5 -12.5q32 0 54 -14t32.5 -35t10.5 -45.5t-10.5 -45.5t-32.5 -35t-54 -14q-92 0 -148.5 -12.5t-87 -33.5t-41 -47.5 t-10.5 -54.5q0 -35 20.5 -59.5t53 -41.5t73 -27t80 -15t74 -6.5t55.5 -1.5q88 0 152.5 12t108 31t66.5 42.5t28 45.5q6 31 24 48.5t41 23t46.5 0.5t42 -19.5t27.5 -38t3 -54.5q-12 -54 -41 -96t-70.5 -73t-93 -52.5t-107 -34.5t-114 -18.5t-113.5 -5.5q-53 0 -114 5.5 t-121.5 19.5t-116.5 38.5t-99 62.5t-68.5 90.5t-25.5 123.5q0 84 30 143t83 99z" />
<glyph unicode="&#x1085;" d="M-919 1919q31 34 75 57t93.5 36.5t100.5 19t96 5.5q42 0 89.5 -5t94 -17t89.5 -32t75.5 -50t52 -70.5t19.5 -94.5q0 -25 -14 -43t-34.5 -28t-44.5 -12t-44.5 6t-34 27t-12.5 50q0 19 -14 33t-36.5 24t-50 16t-54 9.5t-48.5 4.5t-33 1q-12 0 -33.5 -1t-48 -4t-54 -8.5 t-49.5 -15.5t-36.5 -24.5t-14.5 -34.5q0 -14 4.5 -29.5t23 -28t55.5 -21t103 -8.5q32 0 53.5 -13.5t32 -33.5t10.5 -43.5t-10.5 -43.5t-32 -33.5t-53.5 -13.5q-65 0 -102.5 -8.5t-56 -21t-23 -28t-4.5 -28.5q0 -20 14.5 -34.5t36.5 -24.5t49.5 -15.5t54 -8.5t48.5 -4t33 -1 q64 0 108 8.5t71.5 20.5t40.5 25.5t15 23.5q6 29 24 46t40 22.5t45.5 0.5t41 -18.5t27 -36t2.5 -51.5q-10 -44 -33 -78t-56 -58.5t-73 -41t-83 -26.5t-86.5 -14t-83.5 -4q-43 0 -90.5 4.5t-94.5 16.5t-89.5 31.5t-75 49.5t-51.5 71t-19 96q0 58 18.5 101.5t51.5 75.5 q-30 28 -49 67q-2 3 -7.5 30t-5.5 65.5t9.5 83t37.5 82.5z" />
<glyph unicode="&#x1086;" d="M-661 1818q43 0 81.5 -16.5t66.5 -44.5t44.5 -66t16.5 -81q0 -62 -33 -112l-149 -308q-14 -29 -34 -42.5t-40.5 -15t-39.5 8.5t-30.5 27.5t-13 42t12.5 53.5l68 143q-34 9 -63 28t-50 45.5t-33 59.5t-12 70q0 43 16.5 81t44.5 66t66 44.5t81 16.5zM-661 1653 q-17 0 -30 -12.5t-13 -30.5q0 -19 13 -31.5t30 -12.5q24 0 37 19l5 12q2 4 2 13q0 18 -12.5 30.5t-31.5 12.5z" />
<glyph unicode="&#x1087;" horiz-adv-x="599" d="M301 401q43 0 81.5 -16.5t66.5 -44.5t44.5 -66t16.5 -81q0 -62 -33 -112l-149 -308q-14 -29 -34 -42.5t-40.5 -15t-39.5 8.5t-30.5 27.5t-13 42t12.5 53.5l68 143q-34 9 -63 28t-50 45.5t-33 59.5t-12 70q0 43 16.5 81t44.5 66t66 44.5t81 16.5zM301 236q-17 0 -30 -12.5 t-13 -30.5q0 -19 13 -31.5t30 -12.5q24 0 37 19l5 12q2 4 2 13q0 18 -12.5 30.5t-31.5 12.5z" />
<glyph unicode="&#x1088;" horiz-adv-x="615" d="M308 1079q43 0 80.5 -16.5t65.5 -44.5t44.5 -65.5t16.5 -80.5t-16.5 -81t-44.5 -66t-65.5 -44.5t-80.5 -16.5t-81 16.5t-66 44.5t-44.5 66t-16.5 81t16.5 80.5t44.5 65.5t66 44.5t81 16.5zM308 915q-18 0 -31 -12.5t-13 -30.5t13 -31t31 -13t30.5 13t12.5 31t-12.5 30.5 t-30.5 12.5zM301 401q43 0 81.5 -16.5t66.5 -44.5t44.5 -66t16.5 -81q0 -62 -33 -112l-149 -308q-14 -29 -34 -42.5t-40.5 -15t-39.5 8.5t-30.5 27.5t-13 42t12.5 53.5l68 143q-34 9 -63 28t-50 45.5t-33 59.5t-12 70q0 43 16.5 81t44.5 66t66 44.5t81 16.5zM301 236 q-17 0 -30 -12.5t-13 -30.5q0 -19 13 -31.5t30 -12.5q24 0 37 19l5 12q2 4 2 13q0 18 -12.5 30.5t-31.5 12.5z" />
<glyph unicode="&#x1089;" horiz-adv-x="615" d="M308 411q43 0 80.5 -16.5t65.5 -44.5t44.5 -65.5t16.5 -80.5t-16.5 -81t-44.5 -66t-65.5 -44.5t-80.5 -16.5t-81 16.5t-66 44.5t-44.5 66t-16.5 81t16.5 80.5t44.5 65.5t66 44.5t81 16.5zM308 247q-18 0 -31 -12.5t-13 -30.5t13 -31t31 -13t30.5 13t12.5 31t-12.5 30.5 t-30.5 12.5z" />
<glyph unicode="&#x108a;" horiz-adv-x="615" d="M97 208q0 43 16.5 81t44.5 66t66 44.5t81 16.5q37 0 70 -12t59.5 -33t45.5 -50t28 -63l143 68q28 14 53 12.5t42.5 -13t27.5 -30.5t8.5 -39.5t-15 -40.5t-42.5 -34l-308 -149q-50 -33 -112 -33q-43 0 -81 16.5t-66 44.5t-44.5 66t-16.5 82zM262 208q0 -19 12.5 -31.5 t30.5 -12.5q9 0 13 2l12 5q19 13 19 37q0 17 -12.5 30t-31.5 13q-18 0 -30.5 -13t-12.5 -30zM97 868q0 43 16.5 81t44.5 66t66 44.5t81 16.5q37 0 70 -12t59.5 -33t45.5 -50t28 -63l143 68q28 14 53 12.5t42.5 -13t27.5 -30.5t8.5 -39.5t-15 -40.5t-42.5 -34l-308 -149 q-50 -33 -112 -33q-43 0 -81 16.5t-66 44.5t-44.5 66t-16.5 82zM262 868q0 -19 12.5 -31.5t30.5 -12.5q9 0 13 2l12 5q19 13 19 37q0 17 -12.5 30t-31.5 13q-18 0 -30.5 -13t-12.5 -30z" />
<glyph unicode="&#x108b;" horiz-adv-x="615" d="M308 749q43 0 80.5 -16.5t65.5 -44.5t44.5 -65.5t16.5 -80.5t-16.5 -81t-44.5 -66t-65.5 -44.5t-80.5 -16.5t-81 16.5t-66 44.5t-44.5 66t-16.5 81t16.5 80.5t44.5 65.5t66 44.5t81 16.5zM308 585q-18 0 -31 -12.5t-13 -30.5t13 -31t31 -13t30.5 13t12.5 31t-12.5 30.5 t-30.5 12.5z" />
<glyph unicode="&#x108c;" horiz-adv-x="1191" d="M681 224q0 43 16.5 80.5t44.5 65.5t65.5 44.5t80.5 16.5t81 -16.5t66 -44.5t44.5 -65.5t16.5 -80.5t-16.5 -81t-44.5 -66t-66 -44.5t-81 -16.5t-80.5 16.5t-65.5 44.5t-44.5 66t-16.5 81zM845 224q0 -18 12.5 -31t30.5 -13t31 13t13 31t-13 30.5t-31 12.5t-30.5 -12.5 t-12.5 -30.5zM103 224q0 43 16.5 80.5t44.5 65.5t65.5 44.5t80.5 16.5t81 -16.5t66 -44.5t44.5 -65.5t16.5 -80.5t-16.5 -81t-44.5 -66t-66 -44.5t-81 -16.5t-80.5 16.5t-65.5 44.5t-44.5 66t-16.5 81zM267 224q0 -18 12.5 -31t30.5 -13t31 13t13 31t-13 30.5t-31 12.5 t-30.5 -12.5t-12.5 -30.5z" />
<glyph unicode="&#x108d;" d="M-706 -358h569q31 0 52 -14t31.5 -35t10.5 -45.5t-10.5 -45.5t-31.5 -35t-52 -14h-569q-31 0 -52 14t-31.5 35t-10.5 45.5t10.5 45.5t31.5 35t52 14z" />
<glyph unicode="&#x108e;" horiz-adv-x="1362" d="M288 568q0 -81 31 -153t84 -125t125 -84t153 -31t153 31t125 84t84 125t31 153q0 46 -10 89t-29 82q-43 -62 -101 -102.5t-123 -60.5t-133.5 -19.5t-133 21t-121 60.5t-97.5 99q-18 -38 -28 -80.5t-10 -88.5zM427 869q24 -52 63.5 -87.5t87 -53.5t99.5 -18t100.5 17 t89.5 52.5t67 89.5q-51 44 -115.5 68t-137.5 24t-137.5 -24.5t-116.5 -67.5zM100 568q0 80 20.5 154.5t58.5 139t91 118t117.5 91t139 58.5t154.5 21t154.5 -21t139 -58.5t117.5 -91t91 -118t58.5 -139t20.5 -154.5q0 -120 -45.5 -226t-124.5 -185t-185 -124.5t-226 -45.5 t-226 45.5t-185 124.5t-124.5 185t-45.5 226z" />
<glyph unicode="&#x108f;" horiz-adv-x="615" d="M307 236q-19 0 -31.5 -12.5t-12.5 -30.5q0 -9 2 -13l5 -12q13 -19 37 -19q17 0 30 12.5t13 31.5q0 18 -13 30.5t-30 12.5zM307 401q43 0 81 -16.5t66 -44.5t44.5 -66t16.5 -81q0 -37 -12 -70t-33 -59.5t-50 -45.5t-63 -28l68 -143q14 -29 12.5 -53.5t-13 -42t-30.5 -27.5 t-39.5 -8.5t-40.5 15t-34 42.5l-149 308q-33 50 -33 112q0 43 16.5 81t44.5 66t66 44.5t82 16.5zM300 915q-18 0 -30.5 -12.5t-12.5 -30.5t12.5 -31t30.5 -13t31 13t13 31t-13 30.5t-31 12.5zM300 1079q43 0 81 -16.5t66 -44.5t44.5 -65.5t16.5 -80.5t-16.5 -81t-44.5 -66 t-66 -44.5t-81 -16.5t-80.5 16.5t-65.5 44.5t-44.5 66t-16.5 81t16.5 80.5t44.5 65.5t65.5 44.5t80.5 16.5z" />
<glyph unicode="&#x1090;" horiz-adv-x="1171" d="M589 1537q101 0 189.5 -38.5t154.5 -104.5t104.5 -154.5t38.5 -189.5v-561q0 -101 -38.5 -189.5t-104.5 -154.5t-154.5 -104.5t-189.5 -38.5q-67 0 -129.5 17.5t-116.5 49t-98.5 76t-76.5 98.5t-49.5 116.5t-17.5 129.5v561q0 67 17.5 129.5t49.5 116.5t76.5 98.5 t98.5 76t116.5 49t129.5 17.5zM589 1349q-62 0 -116.5 -23.5t-95 -64t-64 -95t-23.5 -116.5v-561q0 -62 23.5 -116.5t64 -95t95 -64t116.5 -23.5t116.5 23.5t95 64t64 95t23.5 116.5v561q0 62 -23.5 116.5t-64 95t-95 64t-116.5 23.5z" />
<glyph unicode="&#x1091;" horiz-adv-x="886" d="M337 1274l-108 -51q-28 -15 -53.5 -12t-44.5 17t-30 36t-11 46t12.5 46t40.5 36l227 113q23 12 51 9t52 -18t39.5 -41t15.5 -61l-9 -1158l132 71q28 14 53.5 11.5t44.5 -16.5t30 -36.5t11.5 -46t-12 -46t-41.5 -36.5l-238 -125q-22 -11 -51 -11t-55 12t-44.5 35.5 t-20.5 59.5v25v65t0.5 97t1 120.5t1 136t1.5 143.5q2 255 5 579z" />
<glyph unicode="&#x1092;" horiz-adv-x="1177" d="M101 1051v372q0 31 14 52t35 31.5t45.5 10.5t45.5 -10.5t35 -31.5t14 -52v-10q62 48 137.5 75t160.5 27q101 0 190 -38.5t155 -104.5t104.5 -155t38.5 -190q0 -80 -25 -149t-65.5 -129t-92.5 -112t-106 -98t-106 -87t-92.5 -78t-65.5 -71.5t-25 -68.5v-139q0 -31 -14 -52 t-35 -31.5t-45 -10.5t-45 10.5t-35 31.5t-14 52v139q0 50 25 97t65.5 93t92 91t106 91t106 94.5t92 100t65.5 108t25 118.5t-23.5 116.5t-64 95t-95 64t-116.5 23.5q-60 0 -112.5 -21.5t-92.5 -59.5t-65 -89t-28 -110v-41q0 -32 -14 -52.5t-35 -31.5t-45.5 -10.5t-45.5 10.5 t-35 31.5t-14 52.5v46z" />
<glyph unicode="&#x1093;" horiz-adv-x="1221" d="M541 1249q-28 -12 -52.5 -8t-42.5 18.5t-28 36.5t-9.5 45.5t13.5 45t41 34.5l213 101q36 18 66.5 15.5t49 -20t23 -48t-10.5 -67.5l-160 -403q43 8 84 3.5t76 -27t62.5 -66t44.5 -113.5l178 -680q7 -31 -2.5 -54.5t-27.5 -38t-42 -19.5t-46.5 0.5t-40.5 23t-25 48.5 l-176 676q-8 29 -30.5 37t-51.5 3q-23 -8 -50 -19.5t-52 -22.5l-271 -684q-12 -29 -32.5 -43.5t-44 -16.5t-46.5 7t-38.5 26.5t-21 42t6.5 53.5z" />
<glyph unicode="&#x1094;" horiz-adv-x="1405" d="M96 125l480 1337q13 42 39.5 62.5t55 19t53 -24.5t33.5 -66l277 -1131l119 174q18 26 41.5 35t46.5 6t43.5 -17t31.5 -34.5t11 -45.5t-18 -51q-17 -24 -44.5 -64.5t-60 -87.5t-66.5 -95.5t-63 -88.5q-29 -32 -56.5 -43t-51.5 -6.5t-42 22.5t-28 44l-248 1095l-373 -1098 q-10 -30 -29.5 -45.5t-42.5 -19t-46.5 4t-40 24t-24 40.5t2.5 54z" />
<glyph unicode="&#x1095;" horiz-adv-x="1329" d="M890 786q-44 0 -87 0.5t-83 1t-73.5 0.5h-57.5q-62 0 -116.5 -23.5t-95 -64t-64 -95t-23.5 -116.5t23.5 -116.5t64 -95t95 -64t116.5 -23.5t116.5 23.5t95 64t64 95t23.5 116.5zM1083 1445l-3 -473q23 0 45 -0.5t45 -0.5q31 -1 52 -15t31 -35t10 -45.5t-11 -45t-32 -34.5 t-52 -13h-25h-28t-36 1l-2 -295q0 -101 -38.5 -189.5t-105 -154.5t-155 -104.5t-189.5 -38.5t-189.5 38.5t-154.5 104.5t-104.5 154.5t-38.5 189.5t38.5 189.5t104.5 154.5t154.5 104.5t189.5 38.5h151.5t150.5 -2l4 472q0 31 14 52t35 31t45.5 10t45.5 -10.5t34.5 -31.5 t13.5 -52z" />
<glyph unicode="&#x1096;" horiz-adv-x="1335" d="M888 1052q0 62 -23.5 116.5t-64 95t-95 64t-116.5 23.5t-116.5 -23.5t-95 -64t-64 -95t-23.5 -116.5t23.5 -116.5t64 -95t95 -64t116.5 -23.5h57.5t73.5 0.5t83 1t87 1.5zM1083 96q0 -31 -13.5 -52t-34.5 -31.5t-45.5 -10.5t-45.5 10t-35 31t-14 52l-4 472 q-75 -1 -150.5 -1.5t-151.5 -0.5q-101 0 -189.5 38.5t-154.5 104.5t-104.5 154.5t-38.5 189.5q0 67 17.5 129.5t49 116.5t76 98.5t98.5 76.5t116.5 49.5t129.5 17.5q101 0 189.5 -38.5t155 -104.5t105 -154.5t38.5 -189.5l2 -295h64q14 0 25 1q31 0 52 -13.5t32 -34.5 t11 -45.5t-10 -45.5t-31 -35t-52 -14q-23 -1 -45 -1t-45 -1z" />
<glyph unicode="&#x1097;" horiz-adv-x="1051" d="M187 1511h688q33 0 56 -11.5t34.5 -31t9.5 -45t-18 -53.5l-612 -1180h525q31 0 52 -14t31.5 -35t10.5 -45t-10.5 -45t-31.5 -35t-52 -14h-688q-33 0 -56 11.5t-34.5 30.5t-10 44.5t18.5 54.5l612 1179h-525q-31 0 -52 14t-31.5 35t-10.5 45.5t10.5 45.5t31.5 35t52 14z " />
<glyph unicode="&#x1098;" horiz-adv-x="1165" d="M584 911q-59 -64 -112 -127t-93.5 -118.5t-64.5 -101.5t-24 -76q0 -62 23.5 -116.5t64 -95t95 -64t116.5 -23.5t116.5 23.5t95 64t64 95t23.5 116.5q0 26 -24.5 70.5t-66.5 100.5t-97 120.5t-116 131.5zM272 1502q47 -34 102 -80q47 -39 107.5 -94.5t126.5 -126.5 q92 94 171.5 171t129.5 126q22 22 46.5 27t47 -2.5t39.5 -24.5t24.5 -39t2.5 -47t-27 -47q-44 -41 -95 -89q-44 -42 -100 -96.5t-118 -117.5q32 -38 70.5 -85t77 -98.5t75 -105t64 -104.5t44.5 -97.5t17 -83.5q0 -101 -38.5 -189.5t-104.5 -154.5t-155 -104.5t-190 -38.5 t-189.5 38.5t-154.5 104.5t-104.5 154.5t-38.5 189.5q0 49 29.5 113.5t78.5 137t113.5 150.5t135.5 155q-55 58 -107 110.5t-95 96t-74.5 74.5t-44.5 45q-22 22 -26.5 46.5t3 47t24.5 39.5t39.5 24t47 2t46.5 -27z" />
<glyph unicode="&#x1099;" horiz-adv-x="1171" d="M585 622q59 64 112 126.5t93.5 118t64 101.5t23.5 76q0 62 -23.5 116.5t-64 95t-95 64t-116.5 23.5t-116.5 -23.5t-95 -64t-64 -95t-23.5 -116.5q0 -26 25 -70.5t67 -100.5t97 -120.5t116 -130.5zM897 31q-47 34 -102 80q-47 39 -107.5 94t-126.5 127 q-92 -94 -171.5 -171t-129.5 -127q-22 -22 -46.5 -27t-47 2.5t-39.5 25t-24.5 39.5t-2.5 47t27 47q44 40 95 88q44 42 99.5 96.5t118.5 117.5q-33 38 -71 85t-77 98.5t-75 105t-64 104.5t-44.5 97.5t-16.5 83.5q0 101 38.5 189.5t104.5 154.5t154.5 104.5t189.5 38.5 t190 -38.5t155 -104.5t104.5 -154.5t38.5 -189.5q0 -49 -29.5 -113t-78.5 -136.5t-114 -150.5t-135 -155q55 -58 107 -111t95 -96l74 -74l45 -45q22 -23 26.5 -47.5t-3 -46.5t-25 -39.5t-39.5 -24.5t-46.5 -1.5t-46.5 27.5z" />
<glyph unicode="&#x109a;" horiz-adv-x="606" d="M304 1677q43 0 80.5 -16.5t65.5 -44.5t44.5 -65.5t16.5 -80.5t-16.5 -81t-44.5 -66t-65.5 -44.5t-80.5 -16.5t-81 16.5t-66 44.5t-44.5 66t-16.5 81t16.5 80.5t44.5 65.5t66 44.5t81 16.5zM304 1513q-18 0 -31 -12.5t-13 -30.5t13 -31t31 -13t30.5 13t12.5 31t-12.5 30.5 t-30.5 12.5z" />
<glyph unicode="&#x109b;" horiz-adv-x="623" d="M295 1818q43 0 81.5 -16.5t66.5 -44.5t44.5 -66t16.5 -81q0 -62 -33 -112l-149 -308q-14 -29 -34 -42.5t-40.5 -15t-39.5 8.5t-30.5 27.5t-13 42t12.5 53.5l68 143q-34 9 -63 28t-50 45.5t-33 59.5t-12 70q0 43 16.5 81t44.5 66t66 44.5t81 16.5zM295 1653 q-17 0 -30 -12.5t-13 -30.5q0 -19 13 -31.5t30 -12.5q24 0 37 19l5 12q2 4 2 13q0 18 -12.5 30.5t-31.5 12.5z" />
<glyph unicode="&#x109c;" horiz-adv-x="904" d="M97 860q0 43 16.5 81.5t44.5 66.5t66 44.5t81 16.5q62 0 112 -33l308 -149q29 -14 42.5 -34t15 -40.5t-8.5 -39.5t-27.5 -30.5t-42.5 -13t-53 12.5l-143 68q-9 -34 -28 -63t-45.5 -50t-59.5 -33t-70 -12q-43 0 -81 16.5t-66 44.5t-44.5 66t-16.5 81zM262 860 q0 -17 12.5 -30t30.5 -13q19 0 31.5 13t12.5 30q0 24 -19 37l-12 5q-4 2 -13 2q-18 0 -30.5 -12.5t-12.5 -31.5zM97 200q0 43 16.5 81.5t44.5 66.5t66 44.5t81 16.5q62 0 112 -33l308 -149q29 -14 42.5 -34t15 -40.5t-8.5 -39.5t-27.5 -30.5t-42.5 -13t-53 12.5l-143 68 q-9 -34 -28 -63t-45.5 -50t-59.5 -33t-70 -12q-43 0 -81 16.5t-66 44.5t-44.5 66t-16.5 81zM262 200q0 -17 12.5 -30t30.5 -13q19 0 31.5 13t12.5 30q0 24 -19 37l-12 5q-4 2 -13 2q-18 0 -30.5 -12.5t-12.5 -31.5z" />
<glyph unicode="&#x109d;" d="M-156 1122q25 -1 44 -13t30.5 -31t14 -41.5t-4 -43t-24 -37t-45.5 -22.5q-27 -6 -62.5 -14t-67.5 -5t-54 22.5t-22 68.5v556q0 76 -24.5 130.5t-65 89.5t-91 51t-103 13.5t-101.5 -22.5t-85.5 -57t-55.5 -90.5t-12 -122.5q3 -32 -8.5 -54.5t-31.5 -35.5t-44 -15.5 t-46.5 5.5t-38.5 27.5t-20 51.5q-7 65 4.5 127.5t38.5 118.5t68 103t92 82t111 55.5t126 22.5q102 4 189 -34.5t151.5 -105t101 -155.5t36.5 -185v-440z" />
<glyph unicode="&#x109e;" horiz-adv-x="421" d="M98 820q0 21 -8 40t-22 32.5t-32.5 21.5t-39.5 8h-86q-32 0 -53 14t-31.5 35t-10.5 46t10.5 46t31.5 35t53 14h86q61 0 114 -23t93 -62.5t63 -93t23 -113.5v-1487q0 -21 8 -39.5t22 -32t32 -21.5t39 -8h85q32 0 53 -14t31.5 -35.5t10.5 -46t-10.5 -46t-31.5 -35.5 t-53 -14h-85q-61 0 -114 23t-92.5 62.5t-62.5 93t-23 113.5v1487zM128 1677q43 0 80.5 -16.5t65.5 -44.5t44.5 -65.5t16.5 -80.5t-16.5 -81t-44.5 -66t-65.5 -44.5t-80.5 -16.5t-81 16.5t-66 44.5t-44.5 66t-16.5 81t16.5 80.5t44.5 65.5t66 44.5t81 16.5zM128 1513 q-18 0 -31 -12.5t-13 -30.5t13 -31t31 -13t30.5 13t12.5 31t-12.5 30.5t-30.5 12.5z" />
<glyph unicode="&#x109f;" horiz-adv-x="1736" d="M957 1567q5 -34 15 -64t27.5 -55.5t44 -45t64.5 -31.5q110 -37 201.5 -103.5t157 -150t102 -178.5t36.5 -190q1 -378 2 -675q0 -127 0.5 -248.5t1 -217.5t1 -155t0.5 -61q0 -83 -20 -141t-57.5 -95t-90 -53.5t-118.5 -16.5q-118 0 -183 77t-65 222v591v146.5v138.5 t0.5 122.5t0.5 98v65.5v24q0 81 -31 153t-84.5 125.5t-125.5 84.5t-153 31q-82 0 -153.5 -31t-125 -84.5t-84.5 -125.5t-31 -153q0 -149 55 -250t147 -161q27 -17 37 -40t7.5 -46.5t-15.5 -44t-33 -32.5t-45.5 -12.5t-52.5 16.5q-67 43 -120.5 101t-91 130t-57.5 156.5 t-20 182.5q0 80 21 154.5t59 139.5t91 118t118 91t139.5 59t154.5 21q121 0 227 -46t185 -125t125 -185t46 -227v-2v-25v-66t0.5 -99t0.5 -123v-139.5v-147.5q0 -262 1 -595q0 -54 18.5 -77t53.5 -23t54 21.5t24 75.5l-1 1378q0 80 -27 149t-73.5 124.5t-109 96t-132.5 63.5 q-132 43 -208.5 134.5t-95.5 223.5q-13 90 10 174.5t74 152t126 113.5t165 59q82 11 158.5 -7t141 -59.5t112 -103.5t71.5 -138q9 -30 2 -54.5t-24 -40.5t-40.5 -23.5t-47 -3.5t-43 20t-28.5 46q-14 44 -41 79.5t-63.5 59t-80.5 33.5t-91 4q-52 -7 -94.5 -33t-72 -64.5 t-42.5 -86.5t-6 -100z" />
<glyph unicode="&#x1700;" />
<glyph unicode="&#x200b;" />
<glyph unicode="&#x200c;" />
<glyph unicode="&#x200d;" />
<glyph unicode="&#x2013;" horiz-adv-x="1024" d="M1036 457h-1048v147h1048v-147z" />
<glyph unicode="&#x2014;" horiz-adv-x="2048" d="M2060 457h-2072v147h2072v-147z" />
<glyph unicode="&#x2018;" horiz-adv-x="455" d="M340 1421q-109 -44 -111 -200h95v-209h-193v164q0 71 8.5 123.5t44 105t111.5 86.5z" />
<glyph unicode="&#x2019;" horiz-adv-x="455" d="M324 1303q0 -72 -8.5 -124.5t-44.5 -105t-111 -86.5l-45 70q109 44 110 200h-94v209h193v-163z" />
<glyph unicode="&#x201a;" horiz-adv-x="455" d="M317 45q0 -71 -8 -123.5t-44 -105t-111 -86.5l-45 69q109 44 110 201h-94v209h192v-164z" />
<glyph unicode="&#x201c;" horiz-adv-x="682" d="M608 1421q-109 -44 -110 -200h94v-209h-193v164q0 71 8.5 123.5t44.5 105t111 86.5zM297 1421q-109 -44 -111 -200h95v-209h-193v164q0 71 8.5 123.5t44 105t111.5 86.5z" />
<glyph unicode="&#x201d;" horiz-adv-x="682" d="M594 1303q0 -72 -8.5 -124.5t-44 -105t-111.5 -86.5l-45 70q109 44 111 200h-95v209h193v-163zM283 1303q0 -72 -8.5 -124.5t-44.5 -105t-111 -86.5l-45 70q109 44 110 200h-94v209h193v-163z" />
<glyph unicode="&#x2020;" horiz-adv-x="1139" d="M1059 866h-400v-1212h-180v1212h-399v160h399v406h180v-406h400v-160z" />
<glyph unicode="&#x2022;" horiz-adv-x="717" d="M358 971q105 0 179.5 -74.5t74.5 -179.5q0 -104 -74.5 -178t-179.5 -74q-104 0 -179 74t-75 178q0 105 75 179.5t179 74.5z" />
<glyph unicode="&#x2030;" horiz-adv-x="2048" d="M1053 1491l-598 -1542h-133l600 1542h131zM322 1479q141 0 214.5 -99t73.5 -278q0 -198 -71.5 -296.5t-214.5 -98.5q-139 0 -213 99.5t-74 291.5q0 181 72.5 281t212.5 100zM328 834q135 0 135 260q0 262 -139 262q-67 0 -103.5 -58.5t-36.5 -205.5q0 -258 144 -258z M1722 717q142 0 215.5 -99t73.5 -278q0 -198 -72 -296.5t-215 -98.5q-138 0 -212 99.5t-74 291.5q0 181 72 281t212 100zM1729 70q135 0 135 260q0 262 -140 262q-66 0 -102.5 -58.5t-36.5 -205.5q0 -258 144 -258zM1049 717q141 0 214.5 -99t73.5 -278q0 -198 -71.5 -296.5 t-214.5 -98.5q-139 0 -213 99.5t-74 291.5q0 181 72.5 281t212.5 100zM1055 70q135 0 135 260q0 262 -139 262q-67 0 -103.5 -58.5t-36.5 -205.5q0 -258 144 -258z" />
<glyph unicode="&#x2039;" horiz-adv-x="682" d="M555 72h-147l-318 456l318 457h147l-260 -457z" />
<glyph unicode="&#x203a;" horiz-adv-x="682" d="M592 528l-318 -456h-147l260 456l-260 457h147z" />
<glyph unicode="&#x2044;" horiz-adv-x="342" d="M805 1499l-1102 -1550h-158l1104 1550h156z" />
<glyph unicode="&#x20ac;" horiz-adv-x="1139" d="M1108 1409l-41 -184q-122 100 -276 100q-209 0 -328.5 -120t-143.5 -269h682l-26 -135h-672l-2 -39l2 -92h643l-26 -135h-596q38 -203 164.5 -298.5t285.5 -95.5q188 0 293 99v-207q-124 -58 -276 -58q-552 0 -666 560h-154l29 135h104q-2 24 -2 90v41h-131l29 135h117 q52 276 241 415.5t437 139.5q186 0 313 -82z" />
<glyph unicode="&#x2122;" horiz-adv-x="2048" d="M1763 651h-125v684h-4l-204 -684h-123l-215 695h-5v-695h-124v815h200l203 -651h4l197 651h196v-815zM870 1346h-266v-695h-135v695h-264v120h665v-120z" />
<glyph unicode="&#x2202;" horiz-adv-x="1012" d="M295 1120h-45q132 303 379 303q152 0 249 -109q117 -131 117 -394q0 -355 -166 -656q-163 -295 -426 -295q-158 0 -248 93q-89 90 -89 243q0 239 165 420.5t385 181.5q223 0 312 -190h4q10 102 10 186q0 173 -91 275t-255 102q-193 0 -301 -160zM911 629 q-83 225 -284 225q-180 0 -295 -204q-99 -176 -99 -386q0 -104 52 -169q54 -68 145 -68q135 0 278.5 160.5t202.5 441.5z" />
<glyph unicode="&#x220f;" horiz-adv-x="1686" d="M1645 -207h-562v47q115 0 159 39q40 36 40 127v1444h-868v-1444q0 -91 40 -127q43 -39 158 -39v-47h-561v47q115 0 159 39q40 36 40 127v1319q0 91 -40 127q-44 39 -159 39v47h1594v-47q-115 0 -159 -39q-40 -36 -40 -127v-1319q0 -91 40 -127q44 -39 159 -39v-47z" />
<glyph unicode="&#x2211;" horiz-adv-x="1460" d="M1423 188q-84 -328 -84 -395h-1304l743 864l-735 883l1221 -2l12 -326h-41q-31 143 -105 194q-64 44 -208 44h-590l610 -737l-649 -756h807q120 0 176 50q48 44 100 181h47z" />
<glyph unicode="&#x221a;" horiz-adv-x="1229" d="M1124 1602l-405 -1641l-402 715l-198 -92l-35 63l301 152l322 -572h4l340 1375h73z" />
<glyph unicode="&#x221e;" horiz-adv-x="1124" d="M1083 526q0 -156 -84 -244q-74 -79 -186 -79q-154 0 -258 221q-91 -180 -250 -180q-115 0 -189.5 80t-74.5 204q0 129 68 207q66 74 170 74q140 0 227 -176q43 116 107.5 165.5t174.5 49.5q130 0 212.5 -91t82.5 -231zM1034 526q0 108 -61.5 182t-151.5 74 q-81 0 -133 -65q-18 -23 -53 -104q-51 -122 -57 -134q57 -111 107 -158q57 -53 132 -53q98 0 157.5 69.5t59.5 188.5zM483 573q-79 170 -207 170q-85 0 -135.5 -60t-50.5 -155q0 -92 51.5 -155.5t120.5 -63.5q135 0 221 264z" />
<glyph unicode="&#x222b;" horiz-adv-x="1036" d="M889 1938q0 -56 -30 -92.5t-79 -36.5q-48 0 -82 31t-34 80q0 17 6 41.5t6 33.5q0 29 -25 29q-43 0 -80 -49q-63 -84 -63 -232q0 -37 82 -628q53 -382 53 -639q0 -529 -59 -766q-29 -119 -106 -191.5t-173 -72.5q-77 0 -126.5 43t-49.5 112q0 54 32 90.5t79 36.5 q46 0 77 -34.5t31 -82.5q0 -17 -5 -38t-5 -29q0 -29 22 -29q57 0 99.5 72t42.5 180q0 101 -84 760q-49 384 -49 729q0 306 31 475q32 177 109 270t196 93q75 0 129.5 -46t54.5 -110z" />
<glyph unicode="&#x2248;" horiz-adv-x="1196" d="M1083 903q-108 -106 -260 -106q-58 0 -220 60q-175 65 -243 65q-127 0 -247 -127v184q105 111 262 111q70 0 260 -69q158 -56 207 -56q133 0 241 127v-189zM1083 459q-108 -107 -260 -107q-58 0 -220 60q-175 65 -243 65q-127 0 -247 -127v185q105 110 262 110 q70 0 260 -68q158 -57 207 -57q133 0 241 127v-188z" />
<glyph unicode="&#x2260;" horiz-adv-x="1196" d="M1083 416h-456l-31 -205h-150l31 205h-364v168h389l43 278h-432v168h456l31 205h150l-31 -205h364v-168h-389l-43 -278h432v-168z" />
<glyph unicode="&#x2264;" horiz-adv-x="1196" d="M1083 340l-970 414v168l970 409v-178l-770 -315l770 -320v-178zM1083 113h-970v168h970v-168z" />
<glyph unicode="&#x2265;" horiz-adv-x="1196" d="M1083 754l-970 -414v178l770 320l-770 315v178l970 -409v-168zM1083 113h-970v168h970v-168z" />
<glyph unicode="&#x25ca;" horiz-adv-x="1229" d="M1055 768l-441 -604l-440 604l440 604zM958 768l-344 471l-344 -471l344 -471z" />
<glyph unicode="&#xa900;" horiz-adv-x="1229" d="M345 -20q-105 0 -176 78q-70 79 -70 216v589q0 267 235 294h548q247 -8 247 -294v-589q0 -109 -37 -175q-38 -67 -91 -94q-53 -25 -101 -25h-555zM858 112q117 0 117 147v612q0 147 -140 147h-465q-130 -3 -130 -171v-575q0 -158 147 -158z" />
<glyph unicode="&#xa901;" horiz-adv-x="1125" d="M489 101l290 -2q105 0 105 89v73q0 9 -37 9q-91 0 -206 -43.5t-152 -125.5zM884 755v148q0 67 -20 99t-90 32h-433q-75 -2 -95 -46t-20 -106v-3h-127v16q0 238 211 263h506q206 -6 206 -263v-254h-681q-115 -2 -115 -169v-231q0 -140 131 -140q23 90 117 156.5t216 102.5 t216 36q116 0 116 -47v-105q0 -97 -34 -157t-81 -83.5t-91 -23.5h-496q-94 0 -157.5 70.5t-63.5 193.5v242q0 245 211 269h574z" />
<glyph unicode="&#xa902;" horiz-adv-x="1239" d="M699 -20h-159l-441 1177h141l379 -1006l363 1006h147z" />
<glyph unicode="&#xa903;" horiz-adv-x="1244" d="M387 716h-288v147q0 267 235 294h548q247 -8 247 -294v-118l-886 -430l-3 -43q0 -92 49 -131q10 23 86 76q88 61 212 109t236 48h306v-100q0 -108 -37.5 -175t-90.5 -93t-101 -26h-555q-105 0 -175.5 78.5t-70.5 215.5v135l876 407v55q0 147 -140 147h-465 q-130 -2 -130 -171v-31h147v-100zM387 114l471 -2q117 0 117 112v38h-140q-88 0 -172 -28t-199 -77q-70 -29 -110 -41q16 -2 33 -2z" />
<glyph unicode="&#xa904;" horiz-adv-x="1234" d="M239 969l189 188h454q247 -8 247 -294v-587q0 -158 -73.5 -226t-155.5 -68h-160v129l118 3q117 0 117 148v609q0 147 -140 147h-359l-237 -238v-148q0 -156 148 -156h95v-136h-137q-106 0 -176 79t-70 215v523h140v-188z" />
<glyph unicode="&#xa905;" horiz-adv-x="1234" d="M523 112v-132h-178q-105 0 -175.5 78.5t-70.5 215.5v589q0 267 235 294h801v-302h-141v164h-624q-130 -3 -130 -171v-576q0 -158 147 -158z" />
<glyph unicode="&#xa906;" horiz-adv-x="1234" d="M975 342v529q0 147 -140 147h-124l-471 -780v-258h-141v1177h141v-630l383 630h259q247 -8 247 -294v-677q-71 -206 -271 -206q-113 0 -180.5 53.5t-69.5 142.5q0 87 45.5 163t150.5 76h36q19 0 42 -5.5t47.5 -22t45.5 -45.5zM928 183q-9 109 -111 109q-85 -8 -85 -103 q0 -86 85 -97q96 0 111 91z" />
<glyph unicode="&#xa907;" horiz-adv-x="1239" d="M541 817v-139h-171q-130 -2 -130 -171v-235q0 -158 147 -158l471 -2q117 0 117 147v417h-140v141h140v209l-140 -106v168l140 98h154v-912q0 -108 -37.5 -175t-90.5 -93t-101 -26h-555q-105 0 -175.5 78.5t-70.5 215.5v249q0 267 235 294h207z" />
<glyph unicode="&#xa908;" horiz-adv-x="1229" d="M1129 409v-135q0 -108 -37.5 -175t-90.5 -93t-101 -26h-555q-105 0 -175.5 78.5t-70.5 215.5v883h141v-885q0 -158 147 -158l471 -2q117 0 117 147v150h154z" />
<glyph unicode="&#xa909;" horiz-adv-x="1244" d="M892 817q235 -27 235 -294v-249q0 -137 -70.5 -215.5t-175.5 -78.5h-555q-48 0 -101 26t-90.5 93t-37.5 175v912h154l140 -98v-168l-140 106v-209h140v-141h-140v-417q0 -147 117 -147l471 2q147 0 147 158v235q0 169 -130 171h-171v139h207z" />
<glyph unicode="&#xa90a;" horiz-adv-x="1353" d="M905 1022l-318 -321v-721h-488v312q0 63 13.5 110t65.5 78l268 267v116q0 86 -16.5 122.5t-77.5 36.5l-35 3q-49 0 -63 -32t-14 -110v-103h-141v201q0 170 147 176h171q82 0 126 -53t44 -144v-73l271 270h148q247 -8 247 -294v-883h-330v132h176v759q0 151 -141 151h-53z M240 286v-174l206 2v444l-165 -166q-41 -48 -41 -106z" />
<glyph unicode="&#xa90b;" horiz-adv-x="1234" d="M975 668v203q0 147 -140 147h-465q-130 -2 -130 -171v-179h735zM975 551h-876v312q0 267 235 294h548q247 -8 247 -294v-589q0 -108 -37.5 -175t-90.5 -93t-101 -26h-555q-105 0 -175.5 78.5t-70.5 215.5v111h403v-105h-262v-8q0 -158 147 -158l471 -2q117 0 117 147v292 z" />
<glyph unicode="&#xa90c;" horiz-adv-x="1244" d="M975 592v279q0 147 -140 147h-41l-415 -429zM240 633l500 524h142q247 -8 247 -294v-883h-347v132h193v345h-735v-345h211v-132h-352v1177h141v-524z" />
<glyph unicode="&#xa90d;" horiz-adv-x="1239" d="M753 468h376v-194q0 -108 -37.5 -175t-90.5 -93t-101 -26h-555q-105 0 -175.5 78.5t-70.5 215.5v589q0 267 235 294h548q247 -8 247 -294v-201h-371v115l217 3v91q0 147 -140 147h-465q-130 -2 -130 -171v-575q0 -158 147 -158l471 -2q117 0 117 147v85h-222v124z" />
<glyph unicode="&#xa90e;" horiz-adv-x="1229" d="M463 581q22 -95 104 -95q85 0 94 95q0 116 -100 116q-43 -2 -70.5 -33.5t-27.5 -82.5zM975 114v757q0 147 -140 147h-465q-130 -2 -130 -171v-34q0 -157 135 -157q33 153 195 153q96 0 150.5 -64t54.5 -169q0 -58 -31.5 -105t-83 -72t-102.5 -25q-57 3 -107 39l-184 -299 h179v-134h-347v118l246 424q-105 0 -175.5 78.5t-70.5 215.5v47q0 267 235 294h548q247 -8 247 -294v-883h-371v134h217z" />
<glyph unicode="&#xa90f;" horiz-adv-x="1324" d="M328 787h-142v77q0 267 236 294h548q248 -8 248 -294v-589q0 -109 -37.5 -176t-90.5 -93t-101 -26h-101v135h59q118 0 118 144v142q0 148 -142 148h-465q-87 -2 -108.5 -31.5t-21.5 -87.5v-450h-229v112h87v342q0 129 58 184t178 69h484q106 0 159 -41v226 q0 149 -142 149h-465q-130 -4 -130 -137v-97z" />
<glyph unicode="&#xa910;" horiz-adv-x="1253" d="M520 -467v-139h-169q-107 0 -179.5 80.5t-72.5 219.5v1462h145v-291q73 144 175.5 214.5t251.5 76.5q185 0 325 -108t156 -373q0 -118 -53.5 -200.5t-134 -138t-149.5 -55.5l295 -145v-156h-669v121h458l-444 201q212 0 332.5 70.5t164 148.5t43.5 152q0 143 -86 244 t-248 101q-78 -5 -141.5 -44.5t-110 -97t-89.5 -133t-76 -137.5v-915q0 -158 150 -158h126z" />
<glyph unicode="&#xa911;" horiz-adv-x="1244" d="M249 -3v-322q0 -60 30 -104t91 -44l474 -3q71 0 101.5 21.5t39.5 73.5q6 21 6 104h-223v120h371v-195q0 -137 -75.5 -198t-178.5 -61h-557q-83 0 -156 70.5t-73 230.5v778h377v-125h-227v-85q0 -56 27.5 -101.5t93.5 -45.5l474 3q151 0 151 138q0 9 -1 19v577 q0 168 -130 170h-471q-86 0 -115 -48t-29 -99v-91l220 -3v-116h-370v202q0 286 247 294h554q239 -27 239 -294v-590q0 -139 -72.5 -217t-181.5 -78h-557q-47 0 -79 19z" />
<glyph unicode="&#xa912;" horiz-adv-x="1234" d="M929 184q-9 108 -112 108q-85 -8 -85 -103q0 -86 85 -97q96 0 112 92zM1135 421q0 -435 -276 -441q-108 0 -178.5 52.5t-72.5 143.5q0 87 45.5 163.5t151.5 76.5q16 0 35.5 -0.5t42 -6t47 -22t46.5 -45.5q0 142 -47.5 213.5t-193.5 87.5q-101 0 -199 -49t-177.5 -142 t-118.5 -214v-258h-141v1177h141l883 -183v-123l-883 162v-485q80 113 206.5 187.5t282.5 74.5q69 0 124 -12q133 -27 203 -122.5t79 -234.5z" />
<glyph unicode="&#xa913;" horiz-adv-x="1234" d="M541 1157v-139h-171q-130 -2 -130 -171v-575q0 -158 147 -158l471 -2q117 0 117 147v1327l-140 -106v168l140 98h154v-1472q0 -108 -37.5 -175t-90.5 -93t-101 -26h-555q-105 0 -175.5 78.5t-70.5 215.5v589q0 267 235 294h207z" />
<glyph unicode="&#xa914;" horiz-adv-x="1229" d="M558 -470v-139h-213q-95 0 -170.5 76.5t-75.5 217.5v742h347v-114h-207v-41q0 -157 148 -157l471 -3q117 0 117 147v115l-393 130l-483 164v195q0 267 235 294h548q247 -8 247 -294v-135h-301v96l147 3v44q0 147 -140 147h-465q-131 -2 -131 -171v-96l401 -136l489 -147 v-194q0 -108 -37.5 -175t-90.5 -93t-101 -26h-555q-70 0 -106 18v-315q0 -153 148 -153h171z" />
<glyph unicode="&#xa915;" horiz-adv-x="1229" d="M240 416l735 364v91q0 147 -140 147h-465q-130 -2 -130 -171v-431zM240 272q0 -157 147 -157l471 -3q117 0 117 147v51h-222v117h376v-153q0 -108 -37.5 -175t-90.5 -93t-101 -26h-555q-105 0 -175.5 78.5t-70.5 215.5v589q0 266 235 294h548q247 -8 247 -294v-147z" />
<glyph unicode="&#xa916;" horiz-adv-x="1315" d="M731 1412h251v77q0 102 -158 102h-432q-72 0 -106.5 -51.5t-34.5 -111.5v-337q26 67 158 67h479q128 -22 181 -82.5t53 -250.5v-722h88v-123h-228v850q0 93 -21.5 138t-107.5 47h-461q-141 -42 -141 -245v-487q0 -101 24 -144q22 -39 81 -39h70v-120h-99 q-109 0 -168.5 65t-59.5 263v1116q0 296 245 311h533q122 -21 183.5 -83.5t61.5 -198.5v-164h-391v123z" />
<glyph unicode="&#xa917;" horiz-adv-x="1239" d="M887 112l-276 280l-271 -278zM782 1157h347v-883q0 -108 -37.5 -175t-90.5 -93t-101 -26h-555q-105 0 -175.5 78.5t-70.5 215.5v883h323v-139h-182v-788l371 351l364 -351v788h-193v139z" />
<glyph unicode="&#xa918;" horiz-adv-x="1234" d="M99 1157h783q247 -8 247 -294v-118l-886 -430l-3 -43q0 -158 147 -158l471 -2q117 0 117 112v38h-140q-88 0 -172 -28t-199 -76.5t-147 -48.5q-29 0 -29 26q0 22 87.5 82.5t211.5 108.5t236 48h306v-100q0 -108 -37.5 -175t-90.5 -93t-101 -26h-555q-105 0 -175.5 78.5 t-70.5 215.5v135l876 407v55q0 147 -140 147h-735z" />
<glyph unicode="&#xa919;" horiz-adv-x="1229" d="M975 342v529q0 147 -140 147h-124l-471 -780v-258h-141v1177h141v-630l383 630h259q247 -8 247 -294v-677q-71 -206 -271 -206q-113 0 -180.5 53.5t-69.5 142.5q0 87 45.5 163t150.5 76h36q19 0 42 -5.5t47.5 -22t45.5 -45.5zM928 183q-9 109 -111 109q-85 -8 -85 -103 q0 -86 85 -97q96 0 111 91z" />
<glyph unicode="&#xa91a;" horiz-adv-x="1234" d="M239 115h243v-135h-383v1177h140v-188l189 188h454q247 -8 247 -294v-1178q0 -159 -73.5 -226.5t-155.5 -67.5h-160v129l118 3q117 0 117 148v1200q0 147 -140 147h-359l-237 -238v-665z" />
<glyph unicode="&#xa91b;" horiz-adv-x="1737" d="M1488 112v759q0 147 -142 147h-247q-148 0 -148 -150q0 -10 1 -21v-575q0 -154 -81.5 -223t-195.5 -69h-330q-95 0 -170.5 76.5t-75.5 217.5v883h393v-139h-252v-746q0 -158 147 -158l253 -2q84 0 128 46t44 116v589q0 142 71.5 216t197.5 78h313q247 -8 247 -294v-883 h-371v132h218z" />
<glyph unicode="&#xa91c;" horiz-adv-x="1585" d="M1488 -316q0 -158 -72.5 -225t-157.5 -67h-888q-106 0 -177 77.5t-71 214.5v167h388v-111h-235v-41q0 -168 136 -168l806 -4q118 0 118 142v312q-37 -15 -77 -15h-294q-105 0 -176 79t-71 215v612q0 147 -142 147h-205q-130 -3 -130 -171v-575q0 -158 147 -158l94 -2 v-132h-136q-105 0 -175.5 79t-70.5 215v589q0 266 235 293h289q247 -8 247 -293v-589q0 -180 135 -180l212 4q118 0 118 147v626q0 147 -142 147h-100v138h148q247 -8 247 -293v-1180z" />
<glyph unicode="&#xa91d;" horiz-adv-x="1239" d="M700 1158h207q239 -26 239 -289v-592q0 -138 -72 -217.5t-179 -79.5h-557q-85 0 -159 69t-74 228v1471h153l144 -86v-152l-144 85v-1333q0 -150 119 -150l477 3q147 0 147 160v581q0 68 -23 116.5t-107 50.5h-171v135z" />
<glyph unicode="&#xa91e;" horiz-adv-x="1229" d="M975 -2q-29 -18 -75 -18h-555q-106 0 -176 78.5t-70 215.5v589q0 267 235 294h548q247 -8 247 -294v-201h-371v115l217 3v91q0 147 -140 147h-465q-131 -2 -131 -171v-575q0 -157 148 -157l471 -3q117 0 117 147v85h-222v124h376v-777q0 -159 -73.5 -229.5t-155.5 -70.5 h-555q-99 0 -172.5 61t-73.5 197v196h364v-121h-217q0 -82 3 -104q9 -52 40 -73t98 -21l471 4q58 0 87.5 39t29.5 108v321z" />
<glyph unicode="&#xa91f;" horiz-adv-x="1229" d="M239 344v-72q0 -157 148 -157l68 -3l520 521v524h154v-1472q0 -159 -73.5 -226.5t-155.5 -67.5h-106v132h64q117 0 117 148v756l-447 -447h-183q-95 0 -170.5 76.5t-75.5 217.5v883h412v-403q-9 -161 -79 -262q-57 -83 -193 -148zM239 492q64 17 100 86t36 176v264h-136 v-526z" />
<glyph unicode="&#xa920;" horiz-adv-x="1229" d="M399 362h-159v-90q0 -158 147 -158l471 -2q117 0 117 147v748l-375 -277l-360 277v-244h-141v394h171l330 -259l341 259h188v-883q0 -108 -37.5 -175t-90.5 -93t-101 -26h-555q-105 0 -175.5 78.5t-70.5 215.5v206h300v-118z" />
<glyph unicode="&#xa921;" horiz-adv-x="1234" d="M975 1449q0 147 -140 147h-465q-130 -3 -130 -136v-61h265v-112h-406v152q0 267 235 294h548q247 -8 247 -294v-1459h-147l-742 968v-845h206v-123h-347v1177h147l729 -945v1237z" />
<glyph unicode="&#xa922;" horiz-adv-x="1229" d="M211 568q-112 4 -112 124v171q0 267 235 294h548q247 -8 247 -294v-201h-342v115l188 3v91q0 147 -140 147h-465q-130 -2 -130 -171v-131q0 -41 33 -65t79 -24h230v-129h-219q-57 0 -93 -41q-31 -35 -31 -62q0 -6 1 -10v-113q0 -158 147 -158l471 -2q117 0 117 147v85 h-193v124h347v-194q0 -108 -37.5 -175t-90.5 -93t-101 -26h-555q-105 0 -175.5 78.5t-70.5 215.5v183q0 96 112 111z" />
<glyph unicode="&#xa923;" horiz-adv-x="1229" d="M975 427l-447 -447h-183q-95 0 -170.5 76.5t-75.5 217.5v883h300v-139h-159v-746q0 -158 147 -158l68 -2l520 521v385h-152v139h306v-883q0 -108 -37.5 -175t-90.5 -93t-101 -26h-106v132h64q117 0 117 147v168z" />
<glyph unicode="&#xa924;" horiz-adv-x="1229" d="M434 798v-118h-335v183q0 267 235 294h548q247 -8 247 -294v-589q0 -108 -37.5 -175t-90.5 -93t-101 -26h-555q-105 0 -175.5 78.5t-70.5 215.5v65l876 495v37q0 147 -140 147h-465q-130 -2 -130 -171v-49h194zM975 686l-735 -418v-38q0 -47 30.5 -81.5t87.5 -34.5 l500 -2q117 0 117 147v427z" />
<glyph unicode="&#xa925;" horiz-adv-x="1229" d="M345 -20q-105 0 -175.5 78.5t-70.5 215.5v589q0 267 235 294h548q247 -8 247 -294v-589q0 -108 -37.5 -175t-90.5 -93t-101 -26h-555zM970 948q-4 45 -37.5 57.5t-97.5 12.5h-465q-118 0 -124 -70q148 -130 383 -144q200 0 341 144zM975 783q-78 -79 -165 -100t-187 -21 q-120 8 -208 29.5t-175 96.5v-516q0 -158 147 -158l471 -2q117 0 117 147v524z" />
<glyph unicode="&#xa926;" d="M-683 1699l39 40h128l46 -45v-128l-40 -40h-134l-39 40v133z" />
<glyph unicode="&#xa927;" d="M-445 1415l190 -133h-172l-518 350h193z" />
<glyph unicode="&#xa928;" d="M-341 1282l-275 273l-271 -273h-163l434 457l437 -457h-162z" />
<glyph unicode="&#xa929;" d="M-1013 1573q0 -157 148 -157l473 -3q119 0 119 148v175h154v-160q0 -162 -70 -231q-65 -65 -148 -65h-569q-107 0 -178 79t-71 217v160h142v-163z" />
<glyph unicode="&#xa92a;" d="M-1013 1575q0 -156 148 -156l473 -4q119 0 119 148v176h154v-161q0 -161 -70 -230q-66 -65 -149 -65h-569q-106 0 -177 79t-71 216v161h142v-164zM-587 1526h-136l-47 47v124l41 42h142l47 -49v-117z" />
<glyph unicode="&#xa92b;" d="M-683 -187l40 41h132l45 -45v-131l-40 -41h-137l-40 41v135z" />
<glyph unicode="&#xa92c;" d="M-788 -20l-116 -40q-36 -36 -47.5 -68.5t-11.5 -96.5v-93q0 -156 146 -156l468 4q118 0 118 140v115h152v-100q0 -159 -73 -226t-156 -67h-550q-105 0 -175 78.5t-70 214.5v134q0 96 52 164t141 87z" />
<glyph unicode="&#xa92d;" d="M-777 -8l-119 -53q-41 -30 -53 -71t-12 -125v-59q0 -157 148 -157l474 3q118 0 118 142v116h155v-101q0 -160 -73.5 -227.5t-158.5 -67.5h-556q-107 0 -178 78.5t-71 216.5v137q0 210 173 254zM-593 -147q51 0 87.5 -28t36.5 -91q-8 -99 -131 -99q-97 10 -106 106 q0 98 113 112z" />
<glyph unicode="&#xa92e;" horiz-adv-x="1733" d="M1638 -2h-201q-114 90 -284 147.5t-288 57.5q-116 -1 -240 -41t-210.5 -90t-86.5 -74h-229q33 91 164 179t291 143t278 55q146 0 320.5 -52t308 -138.5t177.5 -186.5z" />
<glyph unicode="&#xa92f;" horiz-adv-x="365" d="M239 -20h-140v1176l140 -3v-1173z" />
<glyph unicode="&#xaa60;" horiz-adv-x="2314" d="M1512 58q-28 82 -22.5 161.5t36.5 148.5t84.5 124t120.5 89.5t145 44t159 -11.5q-9 73 -43 136.5t-86.5 110t-119.5 73.5t-143 27q-80 0 -150.5 -30t-124 -81.5t-85.5 -121t-35 -148.5v-16q-1 -194 -78.5 -332.5t-210.5 -223.5q-27 -17 -52.5 -17t-45.5 12t-33.5 32.5 t-16 44t7.5 46.5t37 40q46 30 84 69t64 88t40.5 109.5t14.5 134.5q0 81 -31 153t-84.5 125.5t-125.5 84.5t-153 31q-82 0 -154 -31t-125.5 -84.5t-84.5 -125.5t-31 -153q0 -77 15.5 -140t42.5 -112.5t64 -86.5t80 -61q27 -16 39 -38t10.5 -45.5t-13 -45t-31 -34.5t-45 -15 t-52.5 13q-69 39 -124 95t-93.5 127.5t-59.5 157.5t-21 185q0 80 21 154.5t58.5 139.5t91 118t118 91t139 59t155.5 21q77 0 148.5 -19t134 -54t115 -84t91.5 -109q39 60 91.5 109t115.5 84t134 54t148 19q121 0 227 -46t185 -125t125 -185t46 -227t-46 -227t-125 -185 t-185 -125t-227 -46q-54 0 -87 22t-44 52zM2022 457q-49 18 -97 17t-91.5 -16t-80 -43.5t-62.5 -66t-38.5 -82.5t-8.5 -93q67 0 128 21.5t110.5 59t85.5 89.5t54 114z" />
<glyph unicode="&#xaa61;" horiz-adv-x="2328" d="M1650 -6q-73 0 -141 17.5t-128.5 49t-112 76.5t-90.5 100q-37 -69 -89 -125t-118 -98q-27 -17 -52 -16.5t-45 12.5t-33 32t-15.5 43.5t7.5 46.5t36 40q88 56 142 150t59 229v23v27q-4 78 -36 145.5t-84.5 118t-122 79.5t-148.5 29q-81 0 -152.5 -31t-125 -84t-84 -124.5 t-30.5 -152.5v-10t-1 -10q2 -20 13 -28.5t30 -17.5q48 -22 95.5 -40.5t85.5 -46.5t62 -71.5t24 -114.5q0 -86 -40 -142.5t-103 -83t-141.5 -21.5t-156.5 42q-29 13 -43.5 34t-17.5 43.5t5 43.5t23.5 34.5t38.5 15.5t50 -13q43 -24 74.5 -30.5t53.5 -3t35.5 14.5t21 24.5 t10 25t2.5 16.5q0 23 -12 36.5t-30 21.5q-33 15 -66 27t-63 26.5t-55.5 32t-44.5 43.5q-12 15 -21 39q-18 42 -18 105v10.5t1 10.5q3 118 49.5 221t125 180t182.5 121.5t223 44.5q76 0 147.5 -19t134 -54t114.5 -84t91 -109q39 58 91.5 106t114.5 82t132 52.5t146 18.5 q120 0 225.5 -45.5t184.5 -124t124.5 -184.5t45.5 -226t-45.5 -225.5t-124.5 -184.5t-184.5 -124.5t-225.5 -45.5zM1650 182q81 0 152.5 31t124.5 84t84 124.5t31 152.5t-31 152.5t-84 125t-124.5 84t-152.5 30.5q-77 0 -146 -28t-121.5 -77t-85 -114.5t-38.5 -141.5v-24 v-35q5 -76 38 -142.5t85.5 -115.5t121 -77.5t146.5 -28.5z" />
<glyph unicode="&#xaa62;" horiz-adv-x="1659" d="M438 768q14 27 36 39.5t45 12.5t44.5 -10.5t36 -29t18 -43t-8.5 -51.5q-5 -27 -7.5 -55.5t-2.5 -59.5q0 -81 30.5 -152t84 -124.5t124.5 -84t152 -30.5t152.5 30.5t124.5 84t84 124.5t31 152q0 147 -55 248t-147 160q-26 17 -36 40t-7.5 46.5t15.5 43.5t33.5 32 t45.5 12.5t51 -16.5q66 -43 119.5 -100.5t91 -128.5t57.5 -155.5t20 -181.5q0 -120 -45.5 -225.5t-124.5 -183.5t-184.5 -123.5t-225.5 -45.5q-90 0 -172 26t-151 72.5t-123 111t-87 142.5q-38 -72 -80 -145t-86 -140q-8 -35 -35.5 -52.5t-58.5 -16.5t-58 19.5t-33 55.5 q-2 8 -3.5 17.5t0.5 18.5l-4 949q-1 31 12.5 52.5t34.5 32.5t45.5 11.5t46 -9.5t36 -31t15.5 -52l-3 -633q55 106 93.5 196.5t58.5 149.5z" />
<glyph unicode="&#xaa63;" horiz-adv-x="2353" d="M1658 962q-77 0 -145 -27.5t-120.5 -76t-85.5 -114t-39 -140.5q1 -8 1 -16.5v-16.5v-18t-1 -17q7 -75 40 -140t85.5 -113t120 -75.5t144.5 -27.5q81 0 152 30.5t124.5 84t84 124.5t30.5 152t-30.5 152t-84 124.5t-124.5 84t-152 30.5zM852 33q-50 59 -73 126.5t-24 136 t20 134t60 121.5t94 99t124 65q-21 54 -57.5 99.5t-84 78.5t-104 51.5t-118.5 18.5q-81 0 -152 -31t-124.5 -84t-84 -124.5t-30.5 -152.5v-9.5t-1 -9.5q2 -20 13 -29t30 -17q48 -22 95.5 -41t85.5 -46.5t62 -71t24 -114.5q0 -86 -40 -142.5t-103 -82.5t-141.5 -21.5 t-156.5 41.5q-28 13 -42.5 34t-17.5 43.5t4.5 43.5t23 34.5t38.5 15.5t50 -13q43 -23 74.5 -30t53.5 -3.5t35.5 15t21 24.5t10 24.5t2.5 16.5q0 23 -12 36.5t-30 21.5q-33 14 -66 26.5t-63 26.5t-55.5 32t-43.5 44q-13 14 -22 39q-8 21 -13 47t-5 58q0 5 0.5 10t1.5 10 q1 78 23 150.5t59.5 135.5t90.5 114.5t116.5 88.5t136.5 57t152 20q76 0 146.5 -18.5t133 -53t114.5 -82.5t91 -107q39 59 90.5 107t114 82.5t133 53t146.5 18.5q120 0 225.5 -45.5t184 -124t124 -184t45.5 -225.5t-45.5 -225.5t-124 -184t-184 -124t-225.5 -45.5 q-72 0 -139.5 17t-127.5 48t-111 75.5t-90 98.5q-38 -70 -90.5 -126.5t-118.5 -98.5q-20 -13 -38.5 -15.5t-35.5 2t-31 15t-24 25.5zM1079 561q-52 -22 -90 -62t-58.5 -89.5t-22 -104t19.5 -106.5q66 57 106.5 140.5t45.5 198.5q-1 6 -1 11.5v11.5z" />
</font>
</defs>
</svg>
