<?xml version="1.0" standalone="no"?>
<!DOCTYPE svg PUBLIC "-//W3C//DTD SVG 1.1//EN" "http://www.w3.org/Graphics/SVG/1.1/DTD/svg11.dtd" >
<svg xmlns="http://www.w3.org/2000/svg">
<metadata></metadata>
<defs>
<font id="ayar_nayonregular" horiz-adv-x="0" >
<font-face units-per-em="2048" ascent="1536" descent="-512" />
<missing-glyph horiz-adv-x="686" />
<glyph unicode="&#x100a;&#x1039;&#x100a;" horiz-adv-x="1993" d="M164 969q2 8 17.5 29.5t47 48t80.5 56.5t117 52q113 21 228.5 30t224 7t206 -15.5t172.5 -37.5q19 -9 37.5 -38.5t28.5 -66.5t12 -74.5t-10 -64.5q-29 -49 -122 -154.5t-255 -253.5q68 -55 141.5 -100t148.5 -80t144.5 -57.5t129 -32.5t104.5 -8t67 20q37 37 54.5 96.5 t15.5 135.5t-21.5 165t-54.5 187t-83 201.5t-107 208.5q-2 14 17.5 21t52 7t73.5 -7t81 -18.5t73 -27.5t51 -37q66 -143 97.5 -251.5t40.5 -195.5t-1 -162t-28 -149q-15 -26 -42.5 -64t-65.5 -78t-83 -81t-92 -75.5t-95 -59.5t-93 -33q-56 -10 -137 7.5t-178 56.5t-203.5 95 t-211.5 126q-53 -41 -99 -75t-96 -64.5t-106.5 -64.5t-128.5 -79l-22 -524l94 -14q-41 -29 -89 -52.5t-100.5 -43t-103.5 -32t-96 -18.5q-35 4 -37 39t10 96l39 510q-20 13 -38.5 26t-30 29.5t-13.5 33t8 32.5q277 176 496 329t372.5 272.5t238.5 200.5t92 112 q-41 10 -99.5 15t-120 4t-123 -9t-108.5 -27l6 -65q-26 -29 -72.5 -57.5t-99.5 -49t-110.5 -32t-106.5 -5.5q-35 19 -61.5 44.5t-44 53t-25.5 51t-4 36.5zM995 -100q0 4 8.5 11t24.5 18.5t41 21.5t59 20q56 9 114 13t112.5 3t102.5 -6.5t87 -15.5q10 -4 19.5 -15t13.5 -24.5 t5 -29t-3 -25.5q-14 -18 -61.5 -59t-128.5 -99q51 -32 108 -55t110.5 -36t93.5 -16t56 7q29 22 34 62t-9.5 91.5t-46 111t-76.5 120.5q-2 8 20.5 10t52 -2t59.5 -12t44 -21q33 -55 48 -97t19.5 -75.5t-1 -62.5t-13.5 -57q-10 -15 -35.5 -39.5t-59.5 -47t-70.5 -42 t-69.5 -23.5q-27 -4 -68 3t-89 22.5t-102.5 37t-107.5 48.5q-26 -17 -50 -30t-48.5 -25.5t-52 -26t-64.5 -29.5l-8 -141l45 -6q-18 -11 -43 -20t-51.5 -16.5t-51 -12.5t-47.5 -7q-18 2 -19 15.5t5 37.5l19 136q-23 10 -36.5 22t-2.5 25q139 67 248.5 126.5t187.5 105.5 t120 77t44 43q-21 4 -49.5 6t-59.5 2t-61.5 -4t-55.5 -10l5 -25q-15 -12 -37.5 -22.5t-49 -18.5t-55 -12t-53.5 -2q-18 6 -31.5 16.5t-23 20.5t-13.5 20.5t-2 14.5z" />
<glyph unicode="&#x1039;&#x100c;" d="M-797 -719q-18 -6 -40.5 -14t-41 -15.5t-30 -9.5t-4.5 4q69 62 113 113t62.5 98t14.5 91t-31 92q-30 49 -78.5 84.5t-121 57t-170 32t-226.5 8.5q-12 -15 -19 -41.5t-11 -57t-4 -62.5t4 -58.5t13 -43t21 -18.5q11 2 20 7.5t17.5 8.5t15.5 4t17 -5q19 -13 24 -29t0 -34.5 t-21.5 -39t-41.5 -43.5q-35 -24 -79 -33.5t-83 -9.5q-45 -2 -92 6q-59 2 -126.5 1t-134 -3t-127 -2t-105.5 2q-121 4 -196 36t-108.5 80t-30.5 107.5t40 116.5q24 39 57 80t65.5 77t60.5 61.5t44 33.5q49 27 90 44.5t70 10.5q18 -6 36.5 -17t33 -27.5t22.5 -37t2 -42.5 q-4 -11 -16.5 -26t-31 -31.5t-42 -34t-46 -33t-44 -26.5t-35.5 -19l-49 -7q69 41 96 79t27 69t-16.5 49t-34.5 18q-25 -20 -50.5 -46.5t-48 -55.5t-39 -56.5t-22.5 -47.5q-2 -13 1 -31.5t13 -41t28.5 -46t49.5 -43t74 -31.5t102 -16q25 -2 65 -1t85 3t89 3t79 -1 q0 35 6 69.5t18 69.5t27.5 69.5t31.5 65.5q5 6 26.5 19.5t54 30t71.5 35t78 31.5t72.5 21.5t54.5 6.5q153 2 266 5t192.5 -7.5t131 -41t82.5 -90.5q18 -38 13 -86.5t-26.5 -99.5t-54.5 -103.5t-68.5 -98.5t-70.5 -81.5t-60 -54.5z" />
<glyph unicode="&#x100b;&#x1039;&#x100c;" horiz-adv-x="1231" d="M1356 1139q10 -13 23.5 -27t22.5 -26.5t11 -20.5t-8 -8q-105 18 -195 17t-175 -21.5t-167 -60.5t-168 -103q-96 -72 -166.5 -147.5t-119.5 -162.5t-78 -188.5t-39 -222.5q27 2 75 15.5t104 35t114.5 48t106.5 51t80 47t34 36.5q-2 9 -8 14t-10.5 9t-3 12t13.5 23 q22 26 52 44.5t63.5 28t69.5 11.5t73 -4q41 -13 67.5 -34.5t43 -44t20.5 -40t2 -19.5q-49 -53 -113.5 -99t-139.5 -88t-157 -77t-161.5 -62.5t-154.5 -48t-136 -32.5q-13 -2 -43.5 2t-67.5 14t-76 23.5t-70.5 32t-49 39t-11.5 40.5q9 144 40.5 264.5t90 225t143.5 194 t201 168.5q70 50 153 81.5t168 49t168 23.5t155.5 6t130 -5t92.5 -13zM-141 -553q12 23 34.5 49.5t52 53t67.5 49t81 36.5q31 11 75 7t87 -15.5t80 -26t55 -26.5l2 -45q-45 22 -91 26.5t-88 -4t-80 -24.5t-65.5 -35.5t-44 -39t-18.5 -30.5q37 -6 84 -8t97.5 -1t98.5 7.5 t87 18.5q20 8 56 26.5t78 46t86 65.5t83 82t67.5 97.5t40.5 110.5q-94 -17 -190 -28t-190.5 -12t-182.5 13.5t-164 48.5q-18 7 -17 16t12 18t30.5 18.5t37 13.5t32 3t14.5 -9q82 -15 167 -12.5t170 16.5t168 38.5t163 53.5q43 16 68.5 26.5t42 17.5t27.5 11t25 11 q35 10 49.5 -4.5t15.5 -45t-7 -76.5t-17 -98q-14 -77 -48 -147t-84 -129.5t-112.5 -107.5t-130 -83.5t-138 -59.5t-140.5 -32q-70 -10 -142.5 -11t-133 1t-104.5 9t-58 16q-23 12 -41.5 23t-31.5 24.5t-18.5 28t3.5 28.5z" />
<glyph unicode="&#x100d;&#x1039;&#x100e;" horiz-adv-x="1583" d="M608 629q0 4 7.5 13t20.5 21.5t34.5 24.5t54.5 23q49 10 100.5 14t99.5 3t91 -6t76 -17q8 -5 16 -18t13 -29.5t6 -33t-5 -28.5q-6 -10 -27.5 -39t-55 -65.5t-77.5 -78.5t-96 -81q-28 -19 -49.5 -33t-42 -28.5t-45 -29t-55.5 -32.5v-25q155 41 279 139.5t210 256.5 q25 45 38 96t20.5 103t10.5 102.5t4 92.5t2 72.5t7 45.5q6 16 26.5 33.5t49.5 36t60.5 33.5t63.5 26.5t57.5 14.5t39.5 -3q-22 -291 -89 -499t-177 -349q-55 -74 -119.5 -128t-136.5 -95q2 -2 2 -4t2 -4l-55 -713l92 -25q-45 -24 -99.5 -42.5t-109.5 -31t-108.5 -18.5 t-96.5 -8q-20 4 -28.5 15.5t-8.5 28.5t6.5 42t16.5 57l125 594q-64 -16 -126.5 -29.5t-129.5 -23.5q-33 -6 -84 -7t-110.5 3t-120 12t-107.5 22.5t-73.5 34t-18.5 44.5q26 75 53 141.5t53.5 127t55 118t63.5 116.5q23 47 70 92.5t104 84t116.5 73.5t109 62.5t80 48 t30.5 35.5l-328 -7l56 -55q8 -20 -34 -49t-138 -63q-19 8 -39.5 16t-38 21.5t-30.5 28.5t-15 34l170 252q96 35 218 45t275 -4q25 0 38 -33t17.5 -80t0 -96t-12.5 -82q-45 -27 -91 -62.5t-90 -80.5t-85 -96.5t-74 -106.5l-225 -408q61 -12 120.5 -14t117.5 0l6 22 q-21 11 -33 25t0 29q121 78 218 145.5t164.5 120.5t104.5 89t41 48q-18 6 -43.5 8t-53.5 2t-54.5 -4t-46.5 -12l2 -29q-13 -14 -33.5 -25.5t-44 -21.5t-49 -14t-45.5 -2q-17 6 -28 17.5t-19.5 23.5t-11.5 22.5t-1 16.5z" />
<glyph unicode="&#x1009;&#x1039;&#x1005;" horiz-adv-x="1276" d="M186 961q0 8 16.5 30.5t49.5 49t82 56t117 52.5q114 20 232 29.5t228.5 7.5t208 -15.5t174.5 -37.5q19 -9 37.5 -38.5t28.5 -67.5t12 -77t-10 -65q-8 -17 -23.5 -42.5t-42 -62.5t-68.5 -86t-103.5 -110.5t-147.5 -136t-203 -166.5q-53 -43 -101 -77t-98.5 -64.5 t-107.5 -65.5t-129 -80l-23 -531l95 -14q-41 -31 -90.5 -54.5t-101.5 -42t-104.5 -30.5t-97.5 -20q-18 2 -27 12t-11.5 27.5t2 42t10.5 55.5l39 514q-23 12 -41.5 27.5t-28.5 31t-12 32.5t8 34q281 178 503 332.5t376.5 275.5t239.5 203t93 112q-43 13 -101 18t-120.5 4 t-124 -10t-110.5 -28l6 -65q-27 -29 -73 -57.5t-100.5 -50t-111.5 -33t-108 -5.5q-35 19 -63 45.5t-45 53t-25.5 51t-4.5 37.5zM887 -242q-41 -12 -67.5 -22t-41.5 -17l41 -12q12 2 27.5 8t28 13.5t17.5 14.5t-5 15zM723 -221q35 18 88 26.5t111 -2.5q26 -6 56 -16t50 -33 q-22 -39 -67.5 -63.5t-110.5 -36.5q-16 -4 -40 -1t-44.5 8t-35.5 10t-17 5q-31 -12 -59.5 -30.5t-44 -41t-13.5 -49t29 -55.5q96 0 182 27t156.5 71t122 100t75.5 116q-4 14 -26.5 27.5t-57.5 26.5t-78 24.5t-84 16.5t-76.5 5t-58.5 -8l-31.5 -22.5t-32 -25t-23.5 -21.5 t-7 -17q2 -10 11.5 -18.5t25.5 -22.5zM668 -57q37 14 68.5 24t63 17.5t63.5 10.5t71 5q49 0 98 -6t93 -17.5t80 -25.5t61 -29q6 -6 18 -23.5t23.5 -39t17.5 -42t0 -28.5q-27 -59 -74 -116.5t-119.5 -104.5t-175 -83t-239.5 -52q-60 -8 -109 2t-86 27.5t-62.5 39t-37.5 35.5 q2 47 21.5 83t46 60.5t56 42t52.5 29.5q-20 12 -39.5 31.5t-26.5 32.5q-6 10 5.5 27.5t31 36t46 35.5t53.5 28z" />
<glyph unicode="&#x1009;&#x1039;&#x1007;" horiz-adv-x="1276" d="M186 961q0 8 16.5 30.5t49.5 49t82 56t117 52.5q114 20 232 29.5t228.5 7.5t208 -15.5t174.5 -37.5q19 -9 37.5 -38.5t28.5 -67.5t12 -77t-10 -65q-8 -17 -23.5 -42.5t-42 -62.5t-68.5 -86t-103.5 -110.5t-147.5 -136t-203 -166.5q-53 -43 -101 -77t-98.5 -64.5 t-107.5 -65.5t-129 -80l-23 -531l95 -14q-41 -31 -90.5 -54.5t-101.5 -42t-104.5 -30.5t-97.5 -20q-18 2 -27 12t-11.5 27.5t2 42t10.5 55.5l39 514q-23 12 -41.5 27.5t-28.5 31t-12 32.5t8 34q281 178 503 332.5t376.5 275.5t239.5 203t93 112q-43 13 -101 18t-120.5 4 t-124 -10t-110.5 -28l6 -65q-27 -29 -73 -57.5t-100.5 -50t-111.5 -33t-108 -5.5q-35 19 -63 45.5t-45 53t-25.5 51t-4.5 37.5zM1042 31q-41 -2 -72.5 -12.5t-58 -26t-55.5 -35.5t-63 -45q-54 -37 -98 -85t-73.5 -97t-42 -93.5t0.5 -72.5q16 2 46.5 6t68.5 10t77 13.5 t70.5 14.5t53.5 15t22 15q-3 4 -8 6t-8 5t-4 6t5 11q12 15 32.5 22t46.5 10t53.5 3t49.5 -2q27 -4 41.5 -12.5t20.5 -17.5t7 -15t1 -8q-25 -27 -62.5 -49.5t-84.5 -40t-99.5 -30.5t-103.5 -22.5t-99.5 -14.5t-87.5 -9q-8 0 -26.5 2t-43 5t-50 9t-47 14.5t-33.5 16.5t-12 20 q-23 27 -25 60t10 70.5t40 77.5t62.5 79t75.5 75t84 64q66 45 135.5 69t129.5 36q67 10 133 12q34 -2 75 -10t79 -21.5t71 -29t51 -29.5q6 -10 0 -31.5t-16.5 -44t-20.5 -41t-10 -20.5q23 -17 52.5 -40.5t49.5 -39.5q7 -8 -6.5 -14.5t-32 -10.5t-38 -4t-25.5 4 q-12 13 -25.5 24t-27.5 23q-15 -12 -31 -22t-32.5 -19.5t-31 -16.5t-24.5 -11q-33 2 -71 15t-76.5 33.5t-71.5 46.5t-53 54q2 15 16 30t37.5 27.5t58.5 18.5t78 2q49 -6 84 -17.5t49 -15.5q10 15 17 47q-29 17 -62 30t-72 24zM1133 -143q-46 22 -72.5 29.5t-50.5 9.5 q8 -13 21 -25t26.5 -22.5t25 -17.5t17.5 -9q6 0 15 9t18 26z" />
<glyph unicode="&#x102b;&#x103a;" horiz-adv-x="692" d="M487 1374q13 -20 13 -45.5t-9.5 -49.5t-24.5 -44.5t-36 -32.5q-8 -125 -16 -252t-16.5 -245.5t-13.5 -225t-10 -190.5t-7 -142.5t-2 -78.5q4 -13 -10.5 -31.5t-39 -36.5t-54.5 -36.5t-57.5 -30t-48 -14.5t-26.5 7q-6 11 -5 70t5 153.5t12.5 214t17.5 254t18 273.5 t18.5 271t16.5 249t10 204t2 138t-9 53q-72 -73 -117 -141t-74.5 -136.5t-49 -142t-42.5 -157.5l-55 78q14 75 40 157t66 170t97 184.5t137 198.5q14 21 40 30t54.5 9t57 -8t52 -22.5t38 -32t16.5 -35.5l-6 -115q63 43 121.5 74t99.5 35q148 16 291 15t279.5 -15.5 t261.5 -42t233.5 -61t200.5 -72.5t160 -78l10 -51q-60 30 -141.5 58t-177 50.5t-198 38.5t-204.5 27.5t-199.5 15.5t-180.5 1t-148.5 -13t-102.5 -29q-35 -18 -71.5 -53t-72.5 -77t-69 -87t-61 -82l-58 -113z" />
<glyph unicode="&#x102d;&#x1036;" d="M-625 1282q-10 4 -13 10t-4 10.5t0 8.5t1 6q76 43 138.5 93t113.5 100.5t91 97.5t71 82q-76 18 -164 32.5t-178 18.5t-178.5 -2t-163 -25.5t-134 -54.5t-90.5 -86q2 -35 26 -66.5t62.5 -60.5t89 -53.5t105.5 -46t113.5 -38t113.5 -26.5zM-195 1823q54 -47 80.5 -99.5 t12.5 -105.5q-27 -74 -126.5 -166t-269.5 -205h64l-74 -51q-45 -2 -105.5 0t-129 10t-142 22.5t-140.5 37t-124 54.5t-94 75q-14 14 -25.5 41.5t-20.5 56.5t-14.5 53.5t-5.5 32.5q13 53 41.5 95t67.5 77t85 59.5t92 43t91 28.5t82 16q39 7 94.5 7t115.5 -3.5t123.5 -11.5 t122 -17t111 -22.5t88.5 -27.5zM186 1499l74 74l43 -135zM-197 1421q-16 -104 154 -110l70 47q47 -27 101 -44.5t101 -26.5t84 -10t52 5l135 158q-13 43 -64 109.5t-143 156.5l-129 45q-35 -16 -76 -54t-85 -85t-93 -97.5t-107 -93.5z" />
<glyph unicode="&#x1004;&#x103a;&#x1039;&#x102d;" d="M-924 1710l-28 -24q16 -13 34.5 -19t35 -9t30.5 -4t23 -3q10 4 23 11t27.5 16.5t27 19.5t18.5 18q8 21 -3.5 40.5t-34 35.5t-50 29.5t-47.5 21.5q-25 10 -54.5 14.5t-62.5 4.5t-64.5 -5.5t-56.5 -13.5q-18 -6 -35.5 -17t-35 -25.5t-33 -29t-25.5 -24.5q-4 -35 4 -65.5 t22.5 -55t30 -43t27.5 -29.5q-35 -4 -75 -10t-76.5 -14t-65.5 -17.5t-39 -15.5l-88 -98q-14 -29 0 -59.5t41 -57.5t59.5 -46t55.5 -26q82 -20 153.5 -23t137 6t126 28.5t121.5 46.5l13 49q-68 -12 -134.5 -16.5t-127 -1t-108.5 13.5t-80 28.5t-44 42t2 54.5q143 45 330 -35 q12 6 27.5 15t27.5 19.5t15 21.5t-11 20q-22 10 -48 31.5t-51.5 48t-45 57.5t-30.5 59.5t-9 51t22 36.5q19 -6 37.5 -13t35.5 -14t31.5 -14.5t24.5 -11.5zM-88 1282q-10 4 -14 10t-4 10.5t1 8.5t1 6q75 43 137.5 93t114 100.5t91.5 97.5t70 82q-76 18 -164 32.5t-178 18.5 t-178 -2t-163 -25.5t-133 -54.5t-91 -86q2 -35 25.5 -66.5t62.5 -60.5t89 -53.5t106.5 -46t114 -38t112.5 -26.5zM342 1823q53 -47 80 -99.5t12 -105.5q-55 -148 -395 -371h63l-73 -51q-43 -2 -104.5 0t-130 10t-142.5 22.5t-140.5 37t-124 54.5t-94.5 75q-14 14 -25 41.5 t-20.5 56.5t-14.5 53.5t-5 32.5q12 53 41 95t67.5 77t85 59.5t93.5 43t91 28.5t81 16q41 7 94 7t114.5 -3.5t125 -11.5t123 -17t110.5 -22.5t88 -27.5z" />
<glyph unicode="&#x1004;&#x103a;&#x1039;&#x102e;" d="M-938 1710l-29 -24q17 -13 35.5 -19t34.5 -9t29.5 -4t23.5 -3q8 4 22.5 11t29 16.5t26.5 19.5t18 18q9 21 -2.5 40.5t-34 35.5t-49 29.5t-49.5 21.5q-24 10 -55 14.5t-62.5 4.5t-63.5 -5.5t-56 -13.5q-19 -6 -36.5 -17t-34.5 -25.5t-32.5 -29t-25.5 -24.5q-4 -35 4 -65.5 t22.5 -55t29.5 -43t28 -29.5q-35 -4 -75 -10t-77 -14t-65.5 -17.5t-38.5 -15.5l-88 -98q-15 -29 -0.5 -59.5t41 -57.5t59.5 -46t55 -26q82 -20 154 -23t137.5 6t125.5 28.5t122 46.5l12 49q-67 -12 -135 -16.5t-126 -1t-107.5 13.5t-81 28.5t-44 42t2.5 54.5q143 45 329 -35 q13 6 28 15t27.5 19.5t15.5 21.5t-11 20q-23 10 -48.5 31.5t-50 48t-45 57.5t-32 59.5t-9 51t22.5 36.5q18 -6 36.5 -13t36 -14t33 -14.5t23.5 -11.5zM-422 1333q35 -10 72 -21.5t77 -14.5t79.5 2.5t80.5 23.5q27 12 46.5 27.5t37 33t32.5 37t34 39.5q-47 -4 -86 -6t-73 -3 t-66.5 -1t-69.5 -2q-16 2 -34.5 -5t-36 -18.5t-33 -25t-27.5 -25.5q-2 -2 1 -4t7 -3t7 -1t3 -2q-6 -4 -14 -10t-16 -11q-11 -6 -21 -10zM-629 1548q17 -26 46.5 -46.5t68.5 -47.5q25 23 44 37t44 25.5t55.5 16.5t75.5 11q41 0 80 -3t80 -7t91 -10t118 -13q26 39 43.5 77 t28 72t10.5 60.5t-9 42.5q-71 19 -150 24t-157 -1t-151.5 -25.5t-136 -50.5t-109.5 -72t-72 -90zM223 1843q56 -43 86.5 -88t22.5 -96q-8 -27 -24.5 -57.5t-33.5 -59.5q-20 -31 -43 -63q29 -2 54 -6q20 -5 36.5 -7t12.5 -4q-8 -12 -19.5 -17t-33.5 -13q-5 -2 -19 -3.5 t-30.5 -2.5t-30 -1h-13.5q-36 -36 -61 -65t-48.5 -51.5t-50 -43t-65.5 -38.5q-55 -29 -117.5 -41t-122 -13.5t-109.5 7t-83 20.5q-4 0 -16.5 18.5t-26.5 39t-26.5 39t-14.5 20.5q-18 6 -40.5 13t-45.5 16.5t-42 19.5t-32 23q-4 4 -14 23.5t-22.5 42t-20.5 44t-10 29.5 q6 49 28.5 90t55 72.5t73.5 56.5t83 43t83 30.5t74 20.5q37 10 85 16.5t104.5 9.5t115 4t113.5 -2t104 -10.5t84 -15.5z" />
<glyph unicode="&#x1004;&#x103a;&#x1039;&#x1036;" d="M-569 1710q-9 4 -24 11.5t-32.5 14.5t-36 14t-36.5 13q-21 -14 -23 -36.5t9.5 -51t32 -59.5t45 -57.5t50 -48t47.5 -31.5q15 -9 12 -20t-15.5 -21.5t-28 -19.5t-27.5 -15q-184 80 -330 35q-14 -31 -1.5 -54.5t43 -42t79.5 -28.5t108.5 -13.5t127 1t135.5 16.5l-12 -49 q-62 -27 -122.5 -46.5t-126 -28.5t-137 -6t-153.5 23q-23 7 -55.5 26t-59 46t-41 57.5t-0.5 59.5l88 98q11 6 39.5 15.5t65.5 17.5t77 14t74 10q-12 11 -27.5 29.5t-29.5 43t-22.5 55t-4.5 65.5q11 10 26 24.5t31.5 29t35 25.5t36.5 17q25 8 56.5 13.5t64.5 5.5t62.5 -4.5 t54.5 -14.5q20 -8 48 -21.5t50.5 -29.5t33.5 -35.5t3 -40.5q-6 -8 -18.5 -18t-26.5 -19.5t-28.5 -16.5t-22.5 -11q-8 2 -22.5 3t-32 4t-35 9t-33.5 19zM37 1477l-43 135l-74 -74zM-463 1460q57 43 107.5 93.5t94.5 97.5t84 85t75 54l129 -45q92 -90 143 -156.5t63 -109.5 l-135 -158q-14 -6 -51 -5t-84 10t-101.5 26.5t-101.5 44.5l-69 -47q-168 6 -154 110z" />
<glyph unicode="&#x1004;&#x103a;&#x1039;" d="M-166 1710q-8 4 -22.5 11.5t-32 14.5t-36.5 14t-38 13q-18 -14 -20 -36.5t8 -51t30.5 -59.5t45 -57.5t51 -48t49.5 -31.5q14 -9 11 -20t-15 -21.5t-27.5 -19.5t-27.5 -15q-187 80 -330 35q-15 -31 -3.5 -54.5t43 -42t81 -28.5t109 -13.5t127 1t134.5 16.5l-14 -49 q-59 -27 -119.5 -46.5t-126 -28.5t-137.5 -6t-154 23q-22 7 -55 26t-60.5 46t-41 57.5t1.5 59.5l88 98q10 6 38.5 15.5t64.5 17.5t77 14t76 10q-12 11 -28.5 29.5t-30 43t-21.5 55t-4 65.5q10 10 25.5 24.5t32 29t34.5 25.5t37 17q24 8 56 13.5t63.5 5.5t62.5 -4.5t55 -14.5 q21 -8 48.5 -21.5t49 -29.5t34 -35.5t4.5 -40.5q-7 -8 -19 -18t-26.5 -19.5t-28.5 -16.5t-23 -11q-10 2 -24.5 3t-30.5 4t-33.5 9t-34.5 19z" />
<glyph unicode="&#x103e;&#x1030;" d="M-414 -33q13 21 29 45.5t36.5 48t43 44t43 31.5t39 12.5t30.5 -13.5l-51 -659l88 -15q-75 -57 -149 -100t-160 -57q-16 2 -25.5 11t-11.5 26.5t1 41t7 54.5zM-1063 -88q12 14 37 36.5t55.5 46t61 42t54.5 24t37 -8t7 -52.5q-12 -92 -40 -192.5t-66.5 -192.5t-90 -166 t-112.5 -111q-37 -22 -87 -38.5t-108.5 -27.5t-119 -17.5t-118 -5.5t-105.5 9.5t-79 24.5q-16 8 -29.5 24.5t-17.5 31t2 20.5t27 -4q16 -6 54 -13.5t87 -10.5t105.5 -3t109.5 6.5t99.5 20.5t74.5 37q23 16 41.5 51t33.5 80t28.5 97t25 104.5t20.5 100.5t13 87zM-754 -106 q17 30 48.5 68t66.5 67.5t67.5 42t51.5 -10.5l-51 -659q-7 -35 -28.5 -62.5t-52 -50t-70.5 -38t-83 -21.5q-16 2 -25.5 11t-11.5 26.5t1 41t7 54.5z" />
<glyph unicode="&#x103b;&#x103e;" horiz-adv-x="408" d="M-500 -123q13 14 40.5 37t61 46.5t70.5 41.5t66 23.5t45 -8t10 -52.5q-10 -74 -34.5 -150.5t-59.5 -149.5t-79 -137.5t-91 -113.5q29 -4 55.5 -4t53 3t55 9.5t63.5 16.5q33 10 77 47t86 94.5t79 133t57 167.5q13 62 27 150t28.5 191.5t28 219t23.5 233.5t17 233.5 t7 217.5q21 17 46.5 36.5t55 37t58.5 31.5t52.5 20t40 1t20.5 -23q0 -213 -14.5 -408.5t-34 -364.5t-42 -310.5t-40.5 -243.5q-21 -121 -70 -222.5t-122 -176t-165 -122t-200 -59.5q-74 -8 -131.5 -10t-99.5 1t-69.5 8t-45.5 11q-37 -20 -91.5 -36.5t-116 -26.5t-126 -15.5 t-124 -4.5t-108.5 9.5t-80 24.5q-18 8 -31.5 24.5t-17.5 31t2 20.5t27 -4q16 -6 55 -13.5t88 -10.5t104.5 -3t109 6.5t100.5 20.5t75 37q43 57 79 122.5t61.5 130t43 125t25.5 107.5z" />
<glyph unicode="&#x103d;&#x103e;" d="M-713 49q36 7 54 11.5t27 7.5t14 4t16 2l53 6h8q31 0 74.5 -16.5t89 -41t89 -53t75.5 -53.5q7 -6 19 -22t24 -36.5t21.5 -41.5t11.5 -37v-6q0 -15 -6 -21q-24 -48 -67 -101t-98.5 -105.5t-121.5 -101.5t-135 -88.5t-139 -66t-134 -34.5q-8 0 -16.5 -1.5t-17.5 -1.5 q-14 0 -28.5 1.5t-25.5 3.5q-19 3 -44 11.5t-53.5 21t-58.5 28t-59 33.5l-61 -72q-35 -22 -88 -38.5t-115.5 -29t-129.5 -17.5t-127 -4t-111.5 9t-81.5 25q-19 8 -32.5 24.5t-17.5 29.5t2.5 20.5t24.5 -3.5q18 -8 56 -14t87 -9t105.5 -3t110 6t99.5 20.5t77 36.5 q26 23 49 56q14 24 28 53l-22 27q0 5 -1 9t-3 9v8q0 33 20.5 74t55.5 85t80.5 89.5t95 88t99.5 81t94.5 67.5t79.5 47.5t54 22.5zM-838 -612q78 0 153.5 35.5t141 92.5t117 127.5t80.5 141.5q-3 16 -16 32t-32.5 31.5t-43.5 30t-48 27.5q-57 30 -128 59q-28 -15 -72 -47 t-94 -75t-102 -93t-96 -100t-76 -96t-42 -82v-2q0 -9 21.5 -23t57.5 -27t82.5 -22.5t96.5 -9.5z" />
<glyph unicode="&#x100a;&#x1039;&#x1009;" horiz-adv-x="2769" d="M172 950q2 8 18.5 29.5t47 49.5t80 55.5t114.5 50.5q115 18 229.5 27t222 8t204 -14t169.5 -38q21 -8 38.5 -36.5t27.5 -65.5t11 -76t-11 -63q-27 -50 -118 -155.5t-253 -248.5q68 -53 141.5 -98t146.5 -80t142.5 -58.5t128 -33.5t102.5 -7t66 21q58 55 68 158.5 t-18.5 235.5t-91 285t-148.5 308q-4 15 15.5 22t52 7t72.5 -7t79 -18.5t71.5 -28t51.5 -36.5q63 -142 96 -249.5t42 -194.5t-1 -160.5t-31 -147.5q-2 0 -2 -4q86 -45 167 -79t150.5 -53t123 -21.5t82.5 18.5q36 35 49.5 96.5t6.5 139t-31.5 170t-62.5 187.5t-87 190 t-105 179q-2 13 19.5 18t57.5 4t81 -7t87 -17.5t76 -24.5t52 -30q61 -117 103 -227.5t63.5 -207.5t22.5 -182t-19 -149q-14 -24 -42 -59t-64.5 -75t-82 -81t-92.5 -75.5t-95 -60.5t-91 -36q-45 -10 -98.5 1t-115.5 39t-137 69t-165 90q-37 -35 -77 -67t-81 -59.5t-82 -46 t-78 -26.5q-55 -10 -136 6.5t-176 54t-200.5 94t-207.5 126.5q-54 -41 -101 -74t-96 -63.5t-104.5 -63.5t-124.5 -76l-25 -522l92 -14q-39 -29 -87 -52.5t-99 -42t-102.5 -32t-94.5 -19.5q-18 2 -27.5 12.5t-11.5 28t1 41t10 53.5l36 502q-20 12 -37.5 27.5t-27.5 31t-12 32 t10 30.5q272 174 489 326.5t368.5 271.5t235.5 199t93 110q-43 10 -99.5 16.5t-118 5.5t-122 -10.5t-109.5 -25.5l4 -66q-24 -28 -69.5 -57t-98.5 -49.5t-109.5 -30.5t-105.5 -6q-35 18 -61.5 44t-44 52.5t-24.5 50t-5 35.5z" />
<glyph unicode="&#x1009;&#x1039;&#x1006;" horiz-adv-x="1666" d="M186 961q0 8 16.5 30.5t49.5 49t82 56t117 52.5q114 20 232 29.5t228.5 7.5t208 -15.5t174.5 -37.5q19 -9 37.5 -38.5t28.5 -67.5t12 -77t-10 -65q-8 -17 -23.5 -42.5t-42 -62.5t-68.5 -86t-103.5 -110.5t-147.5 -136t-203 -166.5q-53 -43 -101 -77t-98.5 -64.5 t-107.5 -65.5t-129 -80l-23 -531l95 -14q-41 -31 -90.5 -54.5t-101.5 -42t-104.5 -30.5t-97.5 -20q-18 2 -27 12t-11.5 27.5t2 42t10.5 55.5l39 514q-23 12 -41.5 27.5t-28.5 31t-12 32.5t8 34q281 178 503 332.5t376.5 275.5t239.5 203t93 112q-43 13 -101 18t-120.5 4 t-124 -10t-110.5 -28l6 -65q-27 -29 -73 -57.5t-100.5 -50t-111.5 -33t-108 -5.5q-35 19 -63 45.5t-45 53t-25.5 51t-4.5 37.5zM900 -276q-40 -2 -68 -4.5t-51.5 -6t-46 -8t-51.5 -11.5q-26 -9 -50 -20.5t-39 -23.5t-18.5 -22.5t7.5 -16.5q35 11 71 19t74.5 20t80.5 29.5 t91 44.5zM1138 -232q-1 -4 -4.5 -9t-5.5 -10q9 -18 28 -35t43 -29.5t51.5 -18.5t46.5 -4q51 39 89 75t65 69.5t44.5 67t30.5 65.5q-46 -6 -98 -19.5t-104 -36.5t-100.5 -52.5t-85.5 -62.5zM694 -63q0 -15 7 -37.5t18 -42.5q3 -17 -38.5 -14t-136.5 37l-25 74q23 13 47 25 t45 22q74 -2 143 -4.5t129 -9t111 -18.5t94 -32q15 -6 22.5 -20.5t10.5 -24.5q53 30 112 52.5t116.5 36t111.5 18.5t97 0q16 -8 32 -18t30 -21.5t25 -23.5t15 -24q-7 -43 -34 -92t-69 -94.5t-96 -83.5t-113 -61q-49 -5 -100 0t-98 15t-86.5 27t-64.5 36 q-54 -25 -114.5 -50.5t-120 -47.5t-115 -38.5t-98.5 -26.5q-14 -5 -31.5 -1.5t-37 12.5t-38 21.5t-32.5 26t-24 25.5t-10 19q2 31 31 58t77.5 48.5t110 38.5t128 26t133.5 10t124 -5q7 2 13.5 10.5t13 18.5t10 20.5t0.5 17.5q-32 16 -68 33t-76 30t-85.5 21.5t-95.5 10.5z " />
<glyph unicode="&#x1009;&#x1039;&#x1008;" horiz-adv-x="1806" d="M186 961q0 8 16.5 30.5t49.5 49t82 56t117 52.5q114 20 232 29.5t228.5 7.5t208 -15.5t174.5 -37.5q19 -9 37.5 -38.5t28.5 -67.5t12 -77t-10 -65q-8 -17 -23.5 -42.5t-42 -62.5t-68.5 -86t-103.5 -110.5t-147.5 -136t-203 -166.5q-53 -43 -101 -77t-98.5 -64.5 t-107.5 -65.5t-129 -80l-23 -531l95 -14q-41 -31 -90.5 -54.5t-101.5 -42t-104.5 -30.5t-97.5 -20q-18 2 -27 12t-11.5 27.5t2 42t10.5 55.5l39 514q-23 12 -41.5 27.5t-28.5 31t-12 32.5t8 34q281 178 503 332.5t376.5 275.5t239.5 203t93 112q-43 13 -101 18t-120.5 4 t-124 -10t-110.5 -28l6 -65q-27 -29 -73 -57.5t-100.5 -50t-111.5 -33t-108 -5.5q-35 19 -63 45.5t-45 53t-25.5 51t-4.5 37.5zM887 -242q-41 -12 -67.5 -22t-41.5 -17l41 -12q12 2 27.5 8t28 13.5t17.5 14.5t-5 15zM723 -221q35 18 88 26.5t111 -2.5q26 -6 56 -16t50 -33 q-22 -39 -67.5 -63.5t-110.5 -36.5q-16 -4 -40 -1t-44.5 8t-35.5 10t-17 5q-31 -12 -59.5 -30.5t-44 -41t-13.5 -49t29 -55.5q96 0 182 27t156.5 71t122 100t75.5 116q-4 14 -26.5 27.5t-57.5 26.5t-78 24.5t-84 16.5t-76.5 5t-58.5 -8l-31.5 -22.5t-32 -25t-23.5 -21.5 t-7 -17q2 -10 11.5 -18.5t25.5 -22.5zM668 -57q37 14 68.5 24t63 17.5t63.5 10.5t71 5q49 0 98 -6t93 -17.5t80 -25.5t61 -29q6 -6 18 -23.5t23.5 -39t17.5 -42t0 -28.5q-27 -59 -74 -116.5t-119.5 -104.5t-175 -83t-239.5 -52q-60 -8 -109 2t-86 27.5t-62.5 39t-37.5 35.5 q2 47 21.5 83t46 60.5t56 42t52.5 29.5q-20 12 -39.5 31.5t-26.5 32.5q-6 10 5.5 27.5t31 36t46 35.5t53.5 28zM1545 1116q22 20 51.5 44t59.5 45t58 35.5t48 14.5q12 0 21 -6.5t12 -21.5q0 -234 -6.5 -423.5t-19 -346.5t-30 -286t-39.5 -241q-16 -80 -52 -152.5 t-87.5 -135.5t-114 -115.5t-131 -93.5t-140 -69t-140.5 -42q-5 -2 -8.5 -2h-8.5q-24 0 -35.5 14t-11.5 37q0 18 8 40t24.5 43t41 39t57.5 30q30 -19 60 -19q41 0 84 30t81.5 81.5t71 120t52.5 145.5q17 66 30.5 152t24 185.5t18 209.5t12 225.5t7 232.5t2.5 230z" />
<glyph unicode="&#x1020;&#x103e;" horiz-adv-x="1265" d="M274 -86q82 -4 160 12.5t145.5 46t122 67.5t89.5 75q6 20 8 43.5t-4 46.5q-74 -39 -153 -72t-155.5 -58.5t-148.5 -44t-131 -30.5q-12 -2 -43 2t-70 14.5t-80 24.5t-73.5 32.5t-51 40t-12.5 44.5q8 149 41 276t93.5 235.5t150.5 203t211 176.5q73 51 159 83.5t175.5 51 t175.5 26t160.5 7.5t135 -6.5t95.5 -14.5q10 -12 23.5 -27.5t23.5 -29t14 -21.5t-8 -8q-110 18 -205.5 17t-182.5 -21.5t-172 -63.5t-175 -108q-100 -74 -174 -153t-125 -170t-80 -196.5t-41 -232.5q29 0 79 15.5t108.5 37t119 49t110.5 54.5t83 50.5t37 35.5q-2 8 -9.5 13 t-11.5 11.5t-3 13.5t13 23q25 27 55.5 46.5t65.5 29.5t74 12t76 -4q41 -14 62.5 -37.5t29.5 -48t7 -43t-3 -22.5q-2 -19 -14.5 -39.5t-38.5 -40.5q8 -66 9 -112t-8 -81.5t-29.5 -66.5t-57.5 -62q-62 -45 -138.5 -78.5t-169 -56t-194.5 -35t-213 -16.5l-31 -385l-1 -10 t1 -24.5t9.5 -28t21.5 -17.5q43 -6 85 -4t75 14q22 7 60 19t83 30.5t91 44t82 61.5t58.5 82t18.5 107q0 2 -19.5 -6t-50 -23.5t67.5 142.5q80 2 141 -2q27 -2 52.5 -6t44 -12.5t28.5 -18.5t8 -26q-12 -82 -47 -145.5t-84 -113t-110.5 -84t-130 -59t-140 -40t-143.5 -25.5 q-35 -5 -79 -7t-89 -2h-88t-78 1t-57.5 2t-24.5 1q-43 5 -77.5 25.5t-49.5 54.5q-4 4 -6 13.5t-2 17.5q0 10 2 19q0 2 4 20t12.5 48t17.5 68t19 77l54 210q8 33 29.5 56.5t50 38t60.5 20.5t60.5 6t48 -4t23.5 -12v-35q2 -4 10 -5t19.5 -1t20.5 1t13 1zM514 -205 q8 10 27 24.5t43.5 29t49.5 27t43.5 16t27.5 -4.5t2 -34q-12 -43 -23.5 -75t-22.5 -55t-22 -41t-25.5 -32t-32.5 -27t-41 -27q-30 -19 -64 -24.5t-69 -2t-70 15.5t-67 28q-12 7 -20 17t-11 18.5t0.5 13t17.5 -1.5q18 -6 42.5 -15t52 -13t53.5 0t47 22q16 12 26 21.5t16 24 t10.5 36.5t9.5 59z" />
<glyph unicode="&#x102d;&#x103e;&#x102f;" d="M-537 -33q11 21 33.5 45.5t51 48t60.5 44t61.5 31.5t53 12.5t35.5 -13.5l-51 -659l88 -15q-39 -28 -88 -53.5t-100 -46t-102.5 -35t-92.5 -22.5q-18 2 -27.5 11t-11.5 26.5t1 41t10 54.5zM-942 -88q12 14 40 36.5t61.5 46t70.5 42t65.5 24t45 -8t10.5 -52.5 q-15 -92 -41.5 -192.5t-65.5 -192.5t-90 -166t-112 -111q-35 -22 -89.5 -38.5t-117 -27.5t-129 -17.5t-127 -5.5t-111.5 9.5t-82 24.5q-18 8 -31.5 24.5t-17.5 31t2 20.5t27 -4q16 -6 55 -13.5t87 -10.5t104.5 -3t109.5 6.5t99 20.5t77 37q21 16 39.5 51t33.5 80t28.5 97 t24.5 104.5t19.5 100.5t14.5 87zM-233 1264q-13 6 -19 12t-7 10t1 8t2 6q100 50 183 105t154 109.5t277 222.5q-153 16 -267 24t-242 9.5t-245.5 -7t-217 -28t-208 -58.5t-153.5 -96q4 -37 118 -102.5t179.5 -93t140 -50t152.5 -40t152 -31.5zM350 1911q35 -29 62.5 -59.5 t44 -61.5t21.5 -62.5t-3 -64.5q-74 -174 -532 -442h86l-99 -60q-59 -2 -142 0t-175 12.5t-190.5 27t-188.5 44t-167 64.5t-126 88q-18 18 -34.5 52t-29 67.5t-19.5 63.5t-7 40q16 61 55 112.5t92.5 91.5t115 70.5t124 51t122.5 34t108 19.5q55 6 127.5 7t153.5 -2t167 -12.5 t166 -21.5t149.5 -27.5t118.5 -31.5z" />
<glyph unicode="&#x1036;&#x103e;&#x102f;" d="M-537 -33q11 21 33.5 45.5t51 48t60.5 44t61.5 31.5t53 12.5t35.5 -13.5l-51 -659l88 -15q-39 -28 -88 -53.5t-100 -46t-102.5 -35t-92.5 -22.5q-18 2 -27.5 11t-11.5 26.5t1 41t10 54.5zM-942 -88q12 14 40 36.5t61.5 46t70.5 42t65.5 24t45 -8t10.5 -52.5 q-15 -92 -41.5 -192.5t-65.5 -192.5t-90 -166t-112 -111q-35 -22 -89.5 -38.5t-117 -27.5t-129 -17.5t-127 -5.5t-111.5 9.5t-82 24.5q-18 8 -31.5 24.5t-17.5 31t2 20.5t27 -4q16 -6 55 -13.5t87 -10.5t104.5 -3t109.5 6.5t99 20.5t77 37q21 16 39.5 51t33.5 80t28.5 97 t24.5 104.5t19.5 100.5t14.5 87zM-213 1479l-43 135l-74 -74zM-713 1462q58 43 108 93.5t94 97.5t84 85t75 54l129 -45q92 -90 144 -156.5t63 -109.5l-136 -158q-14 -6 -50 -5t-84 10t-101 26.5t-102 44.5l-68 -47q-170 6 -156 110z" />
<glyph unicode=" "  horiz-adv-x="686" />
<glyph unicode="&#x09;" horiz-adv-x="686" />
<glyph unicode="&#xa0;" horiz-adv-x="686" />
<glyph unicode="!" horiz-adv-x="762" d="M614 1702q19 31 32 47t25.5 20.5t24 0t25.5 -6.5q67 -20 98 -37.5t34 -31t-9.5 -21.5t-32.5 -12q-63 -109 -126.5 -251t-122 -292.5t-109 -297t-82.5 -265.5q-6 -23 -7.5 -50.5t9.5 -45.5q12 -23 -11.5 -28t-70.5 30q-39 28 -52.5 48.5t1.5 74.5q26 118 62 242t75 243 t78 225.5t71.5 191.5t55 140t32.5 76zM248 -33q-6 -10 -19.5 -12t-25.5 2q-45 20 -65.5 37.5t-27 38t-4 41t8.5 41.5q6 28 9 56t11 45t20.5 24.5t32.5 -0.5q84 -35 101.5 -51.5t3.5 -47.5q-14 -32 -23.5 -67t-21.5 -107z" />
<glyph unicode="&#x22;" horiz-adv-x="1040" d="M291 1251q39 127 59.5 232.5t30.5 204.5q4 41 7 62.5t20 25.5q14 6 32.5 -19.5t59.5 -79.5q28 -35 28 -71q4 -45 -10 -112t-53 -177q-37 -109 -59.5 -157t-51.5 -32q-28 21 -49.5 48.5t-28.5 50.5q0 26 15 24zM598 1253q43 125 62.5 231.5t27.5 205.5q6 41 9 62.5 t20 25.5q12 6 31.5 -19.5t62.5 -79.5q23 -28 25 -71q6 -45 -9.5 -111.5t-54.5 -177.5q-39 -107 -61.5 -156t-46.5 -33q-31 19 -52.5 47.5t-25.5 53.5q-6 22 12 22z" />
<glyph unicode="#" horiz-adv-x="1802" d="M518 1217q-55 -3 -86 -7t-47 -9t-26.5 -13t-20.5 -19q-21 -20 -39 -20q-16 0 -16 16q4 15 20 44.5t25 76.5q14 37 29.5 50.5t58.5 13.5h19t24 -2q45 -9 116.5 -13t157.5 -6l51 158q9 16 18 49t17 68.5t13.5 73.5t5.5 71q0 53 -19 70q-18 16 -18 28q0 23 43 29l123 22 q24 0 40.5 -10t16.5 -43q0 -20 -6 -49l-152 -467h170t170 2l60 180q8 21 16 53.5t18.5 70.5t15.5 76t5 71q0 47 -16 63q-25 19 -25 33q0 16 43 23l123 24q22 0 39.5 -11t17.5 -42q0 -23 -8 -47l-156 -492q37 2 68 2t59 4q64 2 97.5 6.5t55 11.5t32 17t22.5 27q27 24 41 24 q15 0 15 -20v-2q-5 -12 -16 -38t-19 -73q-6 -35 -26.5 -52t-102.5 -23q-45 -3 -114 -4t-153 -5l-153 -487q45 0 87 2t77 4q61 2 98 7t56.5 12.5t29.5 16.5t20 25q21 23 41 23q11 0 11 -12v-6q0 -13 -9.5 -39.5t-21.5 -71.5q-4 -37 -24.5 -54.5t-100.5 -23.5q-51 -6 -131 -6 h-176l-74 -242q-4 -14 -11 -47t-15.5 -71.5t-14.5 -81.5t-6 -76q0 -47 14 -64q15 -14 15 -26q0 -33 -74 -33h-21l-69 8q-21 0 -39.5 12.5t-18.5 42.5q0 25 11 54l168 524h-171h-165l-80 -256q-2 -16 -11.5 -51t-18.5 -79t-16 -88t-7 -79q0 -43 14 -55q16 -17 16 -29 q0 -31 -73 -31h-19l-67 9q-23 0 -41.5 11t-18.5 46q0 22 10 51l179 551q-37 4 -71 4t-62 2q-56 -2 -88.5 -6t-49 -9t-28 -13.5t-25.5 -20.5q-18 -18 -37 -18q-14 0 -14 18q4 12 20.5 44t24.5 77q12 33 29.5 48t58.5 15q10 0 22.5 -1t24.5 -5q39 -4 99.5 -8t136.5 -6l155 493 q-53 0 -96 1t-80 4zM825 1208l-153 -491q82 0 167 1t171 1l155 489h-340z" />
<glyph unicode="$" horiz-adv-x="1124" d="M365 -8q-23 -78 -23 -121q-8 -53 -8 -74.5t8 -38.5q4 -14 -6 -29.5t-41 5.5q-51 43 -64.5 83t7.5 93q6 29 16 57.5t18 55.5q-69 30 -127.5 65t-93.5 68q-33 24 -43 48.5t-8 47t14.5 48.5t28.5 56q14 35 26.5 43.5t21.5 2t15.5 -21.5t8.5 -26q12 -43 72.5 -86t138.5 -78 q94 304 204 625q-65 123 -115 239.5t-50 221.5q0 100 54 173t165 150q20 15 38.5 15t27.5 -8.5t8 -22.5t-17 -31q-18 -16 -36.5 -37.5t-34 -48t-23.5 -61.5t-6 -80q2 -68 22.5 -137.5t48.5 -138.5q54 145 108 287.5t116 277.5q-13 -6 -25 -10.5t-27 -8.5q-53 -18 -68.5 8.5 t36.5 55.5q51 27 133 55q24 60 51 115t55 108q15 33 34 47.5t35.5 17.5t33 -1t28.5 -6q29 -6 31 -24.5t-23 -33.5q-12 -4 -18 -9t-14 -16t-18.5 -25.5t-22.5 -41.5q-10 -18 -19.5 -39.5t-23.5 -42.5q8 2 18 9q27 6 43.5 8t29.5 -5.5t25.5 -23.5t32.5 -43q41 -14 65.5 -25.5 t38 -26t12.5 -36t-11 -57.5q-25 -72 -64 -155t-69 -134q-35 -55 -70 -55t-113 55q-32 18 -22 37.5t39 29.5q16 7 34.5 37.5t36 73.5t28.5 86t11 70q0 39 -20.5 50t-97.5 -7q-68 -156 -145 -340.5t-148 -374.5q41 -76 80.5 -146.5t72.5 -134t54.5 -120t21.5 -103.5 q0 -74 -23.5 -131t-60.5 -101t-75 -75t-70 -51q-19 -29 -54.5 -65t-115.5 -36q-33 0 -68 5.5t-65 13.5zM408 160q45 -13 87 -23t74 -10q56 0 87.5 26.5t47 62.5t16.5 71t1 55q-4 80 -42 172t-93 195q-54 -154 -101 -294.5t-77 -254.5z" />
<glyph unicode="%" horiz-adv-x="1380" d="M463 1079q-82 8 -145.5 54.5t-63.5 126.5q0 36 14.5 105t42 142.5t66.5 140t82 101.5q26 25 47.5 31t39 1t39 -21.5t52.5 -43.5q39 19 65.5 33t48 16t41 -12t46.5 -49q22 -31 32.5 -55.5t13.5 -50t-3.5 -56.5t-20.5 -69q-29 -95 -74 -189t-110 -158q-35 -30 -85 -42.5 t-79 -12.5q-27 0 -35 4q-8 2 -14 4zM602 1655l-38.5 -10.5t-22.5 6.5q-29 -33 -49.5 -77t-38 -90t-29.5 -87t-16 -68q-23 -106 0.5 -157.5t68.5 -51.5q51 0 97.5 49.5t82 122t59 155.5t36.5 150q8 54 5 73.5t-40 15.5q-25 -9 -49 -15q-21 -4 -39.5 -8t-26.5 -8zM889 -23 q-82 5 -145.5 53t-63.5 126q0 39 14.5 106.5t42 141t66.5 140t82 103.5q24 21 45.5 29t41 2t40 -21.5t51.5 -44.5q39 19 65.5 32t48 16.5t41 -12t48.5 -50.5q20 -29 31.5 -54.5t13.5 -50t-5.5 -55t-19.5 -69.5q-29 -93 -73 -191t-111 -160q-37 -34 -86 -41.5t-76 -9.5 q-31 0 -39 2zM1028 551q-22 -8 -38.5 -13.5t-22.5 9.5q-27 -35 -48.5 -79t-39 -91t-29.5 -88t-16 -68q-23 -104 -0.5 -156.5t67.5 -52.5q51 0 98.5 50.5t83 123t59 155.5t34.5 153q8 53 6 71.5t-39 12.5q-25 -7 -47 -11q-25 -6 -42.5 -9t-25.5 -7zM453 328 q-15 -19 -45.5 -69t-63.5 -109.5t-54.5 -113.5t-10.5 -79q16 -39 1.5 -55.5t-42.5 4.5l-80 55q-25 19 -34 52.5t32 92.5l940 1334q14 24 43.5 72.5t56.5 100.5t41 101t2 72q-14 39 0 54t43 -3l82 -53q27 -17 36 -46.5t-26 -90.5z" />
<glyph unicode="&#x26;" horiz-adv-x="1749" d="M807 811q-193 -143 -308.5 -247.5t-179 -182.5t-86 -132t-30.5 -97q-4 -29 7 -45.5t30.5 -21.5t43 -5t42.5 2q32 6 84.5 23.5t114 42t126 59.5t121.5 76q16 10 21.5 22t9.5 24.5t12 24t27 23.5q14 6 34.5 18.5t38 14.5t30.5 -8.5t16 -47.5q2 -37 1 -59.5t-6.5 -36.5 t-16.5 -24.5t-32 -20.5q-12 -8 -50 -30.5t-92 -50.5t-117.5 -59.5t-128 -57t-123 -43t-101.5 -17.5q-55 0 -91 32.5t-57 69.5q-61 47 -90.5 84t-29.5 80q0 47 36.5 108.5t98 128t139.5 137.5t158 136.5t156.5 120.5t136.5 98q-70 180 -94.5 308t-24.5 190q0 31 38 43t87 15 t98 -1t74 -6q43 -6 50 -18.5t5 -24.5q92 -6 155.5 -20.5t90.5 -26.5q20 -14 29.5 -27.5t11.5 -35t-2 -55.5t-10 -91q-7 -57 -104 -132t-228 -171q14 -37 32.5 -76t32.5 -76q82 -6 183.5 -5t194.5 9.5t165 19.5t98 24q56 30 61 40.5t7 26.5q2 8 11 14.5t21.5 8.5t21.5 -6.5 t9 -26.5q0 -23 -4 -56.5t-13 -70.5t-24.5 -68.5t-33.5 -44.5q-17 -12 -71 -14t-138 0t-188.5 0t-223.5 -10q74 -150 151.5 -290t151.5 -251t136.5 -177.5t105.5 -66.5q63 0 107 32t65 46q10 8 24.5 8t24.5 -6t11 -19.5t-13 -33.5q-14 -23 -50 -59.5t-77 -73.5t-83 -64.5 t-69 -27.5q-36 0 -84.5 45t-103.5 119.5t-115.5 174t-120 206t-114.5 215t-101 204.5q-79 -6 -93.5 12.5t48.5 88.5q-20 43 -35.5 77.5t-27.5 65.5zM874 1030q56 39 105 80t85 74t57.5 58.5t23.5 35.5q4 18 -29 41.5t-78 44t-91 33t-62 12.5q-60 0 -78.5 -28.5t-9.5 -90.5 q4 -45 25.5 -111.5t51.5 -148.5z" />
<glyph unicode="'" horiz-adv-x="770" d="M291 1276q39 125 59.5 230.5t30.5 205.5q4 39 7 59.5t20 24.5q14 6 32.5 -19.5t59.5 -76.5q28 -33 28 -74q4 -45 -10 -111.5t-53 -175.5q-37 -108 -60.5 -155t-50.5 -33q-32 14 -51.5 44t-26.5 54q0 27 15 27z" />
<glyph unicode="(" horiz-adv-x="1290" d="M993 1888q56 0 128.5 -29.5t164.5 -99.5q23 -16 25 -30.5t-6.5 -23.5t-23.5 -13t-32 4q-100 51 -166 51q-47 0 -107.5 -70.5t-122.5 -190.5t-124.5 -276.5t-118 -332t-100.5 -353.5t-68 -342q-10 -76 -9 -125t23.5 -83.5t66.5 -60.5t118 -56q14 -9 23.5 -23t9.5 -29.5 t-9.5 -24.5t-31.5 -3q-105 22 -179.5 47.5t-118.5 63.5t-60.5 94.5t-6.5 138.5q17 137 59 322.5t100 381t128 387t145.5 342t151.5 242.5t141 92z" />
<glyph unicode=")" horiz-adv-x="1206" d="M221 -231q-74 2 -147.5 41.5t-134.5 85.5q-17 14 -18 27.5t8.5 22.5t24.5 11t34 -2q102 -43 168 -43q43 0 97 63.5t113.5 172t122 258t116.5 322.5t100.5 363.5t74.5 383.5q11 77 2.5 130.5t-35 89.5t-70.5 62.5t-102 50.5q-20 9 -27 23t-4 27.5t13 21.5t33 2 q112 -27 188 -55.5t119 -66.5t56.5 -91t0.5 -131q-10 -80 -32.5 -199.5t-56.5 -259t-79 -291t-95 -299t-106.5 -277.5t-116.5 -229.5t-122.5 -156.5t-124.5 -57z" />
<glyph unicode="*" horiz-adv-x="1085" d="M578 1450q-19 -29 -36.5 -54.5t-37.5 -62.5q-19 -28 -32 -30.5t-46 22.5q-27 18 -31 33.5t17 42.5q26 33 46.5 56.5t45.5 49.5q-39 4 -67.5 13.5t-71.5 17.5q-31 8 -37 21.5t8 52.5q10 30 22.5 39.5t42.5 -2.5q37 -19 67 -30t62 -28q-6 37 -6 68t-6 74q-2 34 9.5 43.5 t50.5 9.5q34 0 46.5 -9.5t8.5 -43.5q-2 -43 -3 -74t-7 -64q32 13 62 24t69 30q30 12 41.5 6t23.5 -43q12 -35 6 -50.5t-41 -23.5q-39 -8 -68.5 -16.5t-62.5 -14.5q23 -26 42.5 -49.5t45.5 -56.5q23 -27 20 -40t-34 -36q-29 -20 -44 -20t-34 28q-20 37 -37.5 62.5t-33.5 54.5 z" />
<glyph unicode="+" horiz-adv-x="1161" d="M657 561v-471h-133v471h-383v133h383v469h133v-469h383v-133h-383z" />
<glyph unicode="," horiz-adv-x="596" d="M115 -205q14 -8 -2 -28q-17 -21 -48.5 -34.5t-64.5 -6.5q-27 6 -18.5 56t38.5 163q31 112 57.5 176.5t55.5 101.5q25 33 57 43q64 21 92.5 32t34.5 1q9 -14 0.5 -32.5t-26.5 -55.5q-49 -88 -92 -188.5t-84 -227.5z" />
<glyph unicode="-" horiz-adv-x="967" d="M672 512q67 0 84.5 15.5t31.5 43.5q9 23 24 18t13 -28q-2 -12 -5 -37.5t-9 -70.5q-4 -37 -8 -54.5t-45 -17.5q-49 0 -111.5 6t-131.5 17.5t-133.5 24.5t-117.5 26q-35 8 -55.5 9t-31.5 -2t-18 -13.5t-16 -22.5q-10 -18 -24.5 -10t-9.5 28q4 17 9 40.5t15 66.5 q8 39 13.5 52t48.5 1q133 -41 246.5 -66.5t230.5 -25.5z" />
<glyph unicode="." horiz-adv-x="512" d="M-8 12q39 84 55 127t27 86q6 23 11 36t17.5 17.5t35 0t65.5 -20.5q45 -16 31.5 -62t-52.5 -133q-20 -47 -34.5 -68.5t-34 -25.5t-46 0t-67.5 11q-12 2 -19.5 15t11.5 17z" />
<glyph unicode="/" horiz-adv-x="819" d="M381 328q-12 -19 -43 -69t-60.5 -109.5t-49 -113.5t-13.5 -79q16 -39 -13.5 -64.5t-80.5 13.5l-76 55q-22 19 -31.5 52.5t31.5 92.5l891 1334q14 24 41 69t51.5 96.5t36.5 97.5t2 71q-14 36 3 55.5t44 7.5l131 -53q25 -17 34 -46.5t-22 -90.5z" />
<glyph unicode="0" horiz-adv-x="1178" d="M238 53q-52 33 -87.5 58.5t-56 65.5t-22.5 102.5t14 171.5q12 104 54 226t98.5 236.5t119 207.5t111.5 141q35 34 63.5 44.5t56 1t61.5 -27.5t81 -41q57 4 119.5 15.5t116 5t89.5 -36t36 -109.5q0 -192 -40 -399t-107.5 -377t-160 -279.5t-198.5 -109.5q-70 0 -153 16.5 t-148 44.5q-21 10 -31 19.5t-14 13.5q-7 8 -2 10zM922 1020q0 63 -18.5 96t-51.5 43t-76 7t-90 -11q-22 8 -33.5 11t-24 -3t-30.5 -23.5t-55 -49.5q-64 -62 -119 -160.5t-96 -212t-64.5 -233t-23.5 -218.5q0 -67 53 -125.5t123 -83.5q57 -18 116.5 -4.5t126.5 90.5 q56 60 104 160t83 222t55.5 249t20.5 246z" />
<glyph unicode="1" horiz-adv-x="868" d="M307 -20q-47 18 -75.5 30.5t-43 36t-12.5 59t14 105.5q15 68 38.5 160t52 188t63.5 190.5t72 165.5q-101 -112 -183.5 -202t-119.5 -119q-19 -16 -39.5 -15t-31.5 12t-11 28.5t20 35.5q70 56 137.5 131.5t125 153.5t102.5 147.5t69 116.5q21 33 30 40t40 -7 q31 61 74 68.5t135 -56.5q35 -22 22.5 -45.5t-65.5 -29.5q-57 -76 -113.5 -188t-102.5 -247t-83 -282.5t-51 -294.5q-2 -35 -4 -53.5t1 -30.5t7 -19.5t10 -19.5q8 -16 8 -31.5t-7 -28t-25.5 -15.5t-53.5 16z" />
<glyph unicode="2" horiz-adv-x="1153" d="M221 881q-33 49 -38 86t40 69q84 62 171 112t167 86t149.5 56.5t116.5 20.5q35 -2 54.5 -23.5t50.5 -73.5q31 9 58.5 17t47 2t30.5 -39t11 -117v-96t-15 -90t-52 -103.5t-113 -130.5q-76 -82 -203 -201.5t-305 -265.5q72 -4 161 -19t178 -38.5t171 -47.5t137 -46 q41 -19 58.5 -42.5t20.5 -50t-3 -53t-12 -51.5q-4 -20 -14.5 -25t-24.5 -7q-23 0 -29 10t-14 22q-6 8 -6 15.5t-6.5 14.5t-22.5 15.5t-47 18.5q-70 22 -158 44.5t-185 38t-198.5 23.5t-197.5 0q-31 -30 -41.5 -42.5t-32.5 -32.5q-21 -23 -36 -19t-44 10q-27 11 -41 20 t-12 50q6 45 11 85t17 75q13 30 29.5 44.5t46 18.5t73.5 -1t105 -9q177 139 295.5 265t212.5 243q49 57 73 104t33 84t10 67t1 56q0 25 -2 46.5t-16.5 33.5t-44 16t-82.5 0q-39 -6 -88.5 -24.5t-98.5 -42t-94 -52t-78 -55.5q-24 -20 -34.5 -37.5t-11.5 -33t3 -35t10 -39.5 q9 -45 -15.5 -41t-47.5 25q-12 12 -25.5 27.5t-25.5 27.5q-15 16 -27 35z" />
<glyph unicode="3" horiz-adv-x="995" d="M213 874q-18 25 -37.5 50.5t-27 52.5t3 53.5t51.5 56.5q82 62 180 114t203 85q55 14 83.5 14t45 -12t30 -34.5t27.5 -49.5q39 -24 68.5 -58t42 -70t2 -77t-59.5 -79q-49 -43 -104 -85t-110.5 -81t-111 -73t-98.5 -60q138 -15 267 -56t219 -102q28 -21 41.5 -37 t14.5 -32.5t-7 -36t-21 -42.5q37 -63 29 -139t-63 -131q-84 -92 -202 -189.5t-243 -176t-245.5 -130t-217.5 -51.5q-47 0 -88 18.5t-73.5 45t-62.5 58.5t-56 61q-19 20 -20 35.5t7.5 25.5t26 12t33.5 -10q43 -27 76.5 -44t78 -21.5t105.5 9t158 52.5q96 37 192 91t181 115.5 t154 126t106 128.5q51 75 33.5 123.5t-56.5 74.5q-27 17 -60.5 34.5t-78.5 30.5t-107.5 19t-142.5 2q-25 -4 -50.5 -10t-45 -8t-35 4t-17.5 27q-8 45 -9 80.5t-1 62.5q0 18 15.5 32.5t50.5 35.5q78 36 143.5 69t119.5 68t99 78t82 98q37 49 25.5 77.5t-48 36t-95 -7 t-115.5 -45.5q-119 -63 -169 -112t-57 -78q-6 -31 -26.5 -36t-32.5 17z" />
<glyph unicode="4" horiz-adv-x="1161" d="M20 233q97 86 189 189q76 84 163 197.5t148 250.5q-26 50 -42.5 73.5t-31.5 43.5q-12 25 3.5 38t46.5 7q12 -2 24 12.5t27 32.5q47 74 90 138.5t63 107.5q15 27 34.5 33t41 0t41 -18.5t35.5 -18.5q29 -14 29 -36.5t-19 -68.5q-51 -127 -136 -271t-179 -275t-183.5 -241 t-150.5 -171q-23 -25 29 -31q141 -16 261 -21t238 7q23 82 50.5 170t56.5 170t54.5 152.5t45.5 115.5q19 43 36 61.5t34.5 23.5t34 4t34.5 -1q41 0 40 -11t-25 -36q-27 -26 -57.5 -96t-60.5 -161t-57.5 -191.5t-45.5 -188.5q47 0 89 10.5t58 45.5q4 14 7 21t22 7 q14 0 23.5 -6t14.5 -21.5t9 -43t14 -70.5q8 -41 4 -67.5t-75 -37.5q-37 -6 -72 -10t-66 -4q-30 -2 -63 0q-21 -100 -34 -197.5t-19 -158.5q-2 -25 -1 -35t4 -15.5t7 -8.5t8 -11q14 -14 -3 -38.5t-48 -10.5q-35 12 -69 25.5t-50 31.5q-16 17 -20.5 34.5t2 58t25 115.5 t50.5 208q-73 -2 -156 -2h-165t-153.5 1t-119.5 7q-14 -35 -24 -42t-57 1q-15 2 -25 7.5t-17.5 19.5t-11.5 40.5t-4 72.5q-4 28 5.5 45.5t21.5 25.5q10 10 28 12z" />
<glyph unicode="5" horiz-adv-x="1178" d="M1036 487q-49 -145 -133 -290.5t-185.5 -275.5t-212 -241.5t-210.5 -194.5t-184 -130t-131 -53q-54 -4 -97 34q-98 86 -135 144q-20 33 0.5 55.5t48.5 3.5q35 -20 69 -33.5t68 -13.5q43 0 118 41t169 113.5t194.5 172t189.5 212t160 236.5t105 245q17 66 7.5 105.5 t-38 58t-69.5 20.5t-84 -10q-63 -18 -112.5 -37.5t-94.5 -45t-91 -58.5t-105 -74q-9 -6 -17 -21.5t-18 -28.5t-23.5 -19.5t-29.5 18.5q-29 33 -55.5 84t-41.5 86q-12 26 -11 42.5t22 53.5q26 53 52.5 120.5t51.5 131t42 119t21 86.5q0 8 -9 26.5t-19 41t-17.5 47t-1.5 42.5 q13 41 46.5 44.5t93.5 -9.5q135 -18 281.5 -36.5t303.5 -18.5q21 39 34 54.5t34 15.5q27 -2 37 -6.5t16 -32.5q12 -60 14.5 -107t2.5 -74q0 -24 -18.5 -42.5t-72.5 -8.5q-368 82 -542 82q-27 0 -38 -6t-20 -25q-28 -67 -55 -133.5t-49.5 -128t-40.5 -114t-27 -86.5 q-6 -15 6.5 -13t38.5 17q152 86 259.5 130t175 54t109.5 -15.5t63 -82.5q59 -27 98 -49.5t56.5 -50t17.5 -67.5t-17 -104z" />
<glyph unicode="6" horiz-adv-x="1192" d="M379 -10q-57 6 -110.5 18t-94.5 37t-67.5 61.5t-26.5 88.5q0 221 44 434t115.5 403.5t159.5 348t177.5 274.5t169 181.5t133.5 66.5q53 4 109 -27t124 -84q29 -18 19.5 -38.5t-31.5 -14.5q-45 10 -85 6t-91 -16q-35 -9 -98.5 -70.5t-138.5 -162.5t-151.5 -237.5 t-139 -297t-102.5 -342t-40 -367.5q0 -51 6 -84t19.5 -53.5t34 -31.5t44.5 -20q54 -12 110 6.5t110 55.5q51 41 113.5 125t119.5 187.5t100 212t62 192.5q10 57 2 84.5t-27.5 35t-49.5 -1t-62 -18.5q-29 -6 -69 -24.5t-83 -38t-84 -40t-72 -38.5q-16 -10 -32.5 -6t-25.5 14 t-8 25.5t17 27.5q64 51 147 101.5t177 91.5q49 16 83 19t57.5 -7t42 -29.5t34.5 -42.5q45 -16 72.5 -28.5t42 -29.5t12.5 -54t-17 -107q-18 -96 -63 -204.5t-105.5 -210t-127 -187.5t-127.5 -139q-58 -51 -116.5 -64.5t-105.5 -9.5q-57 6 -106 29z" />
<glyph unicode="7" horiz-adv-x="1214" d="M147 942q23 107 43.5 170.5t40.5 120.5q11 27 26 45t38.5 26.5t60.5 7.5t99 -12q143 -20 272 -37.5t264 -29.5q21 55 33 72.5t55 17.5q47 0 60.5 -18.5t21.5 -96.5q2 -39 -4 -62.5t-18.5 -36.5t-27.5 -23.5t-36 -22.5q-12 -8 -52 -70.5t-96.5 -161t-126 -224.5t-139 -261 t-140 -272t-129 -261t-103.5 -224.5t-64 -157.5q-20 -72 -38.5 -113t-16.5 -82q4 -43 -7 -53t-46 18q-35 29 -62.5 70t-46.5 74q-10 14 -17 31.5t-5 37t13 50t40 75.5q51 99 87 164.5t75 133t90 152.5t133 223t208 347t310 516q-49 12 -109.5 17.5t-122 9.5t-122 4 t-111.5 -4q-53 -2 -94 -20.5t-70.5 -45t-50 -56.5t-31.5 -50q-10 -25 -27.5 -35t-31.5 -10t-22.5 14t-2.5 43z" />
<glyph unicode="8" horiz-adv-x="1417" d="M215 82q-55 41 -104.5 74.5t-78 72.5t-28.5 90.5t41 122.5q45 78 130 162t177 161t172 137.5t117 98.5q-78 54 -130 136t-52 180q2 149 101 291.5t255 263.5q66 51 122 44t142 -91q31 -31 13.5 -45.5t-43.5 -7.5q-56 10 -109 -11.5t-102.5 -63.5t-90 -100.5t-71.5 -118 t-48.5 -114.5t-17.5 -96q0 -37 11.5 -64.5t29 -50.5t37 -40t33.5 -38q78 68 162 146.5t153.5 158.5t115.5 154t52 123q4 59 -12 83.5t-47 49.5q-15 12 -16 29.5t10.5 29t28 13.5t38.5 -13q47 -32 95.5 -73t75 -88.5t18 -102.5t-65.5 -125q-61 -67 -136 -133.5t-149.5 -126 t-136 -112t-92.5 -87.5q39 -34 77 -61t73.5 -55.5t72.5 -60t76 -79.5q84 -92 53.5 -230t-176.5 -273q-168 -154 -325.5 -217.5t-300.5 -63.5q-35 0 -60.5 19.5t-46.5 39.5q-25 27 -43 62zM231 356q-20 -30 -28 -69t7 -76t62 -60.5t138 -23.5q90 0 198.5 53t200.5 132 t153.5 172.5t61.5 172.5q0 50 -77 119.5t-214 145.5q-84 -70 -172 -158q-74 -76 -162 -177.5t-168 -230.5z" />
<glyph unicode="9" horiz-adv-x="1223" d="M1182 958q-29 -182 -94.5 -378.5t-150.5 -388t-184.5 -365.5t-199.5 -307t-194.5 -213t-168.5 -86q-67 -4 -133.5 33.5t-134.5 91.5q-26 22 -17 48.5t56 16.5q35 -4 82 -12t100 12q74 31 161 115t176 204.5t173 270.5t154 309.5t119 320.5t67 306q11 88 -15 150.5t-74 88 t-110.5 15.5t-119.5 -62q-62 -51 -133.5 -129.5t-137 -176t-113.5 -207t-61 -222.5q-8 -63 33 -90t139 16q107 46 173.5 89t140.5 92q43 30 63.5 9.5t-20.5 -65.5q-191 -204 -295 -270q-68 -41 -124 -29.5t-144 78.5q-17 10 -47.5 13.5t-58.5 20.5t-41 58t5 136 q21 104 78 220.5t130 227.5t150.5 201t143.5 137q47 33 79 48t59.5 17.5t57 -6t66.5 -22.5q8 12 40 13t110 -27q82 -35 130 -63t70.5 -61.5t24.5 -75.5t-10 -102z" />
<glyph unicode=":" horiz-adv-x="588" d="M170 547q39 82 54.5 126t29.5 87q4 20 9 33.5t17.5 17.5t35 0t65.5 -20q45 -17 31.5 -63t-50.5 -130q-20 -49 -36.5 -70.5t-37 -25.5t-46 0t-64.5 10q-12 0 -19 14.5t11 20.5zM-4 12q35 84 51 127t27 86q6 23 11 36t17.5 17.5t35 0t65.5 -20.5q45 -16 31.5 -62 t-52.5 -133q-20 -47 -34.5 -68.5t-34 -25.5t-46 0t-67.5 11q-12 2 -19.5 15t15.5 17z" />
<glyph unicode=";" horiz-adv-x="557" d="M115 -205q14 -8 -2 -28q-17 -21 -48.5 -34.5t-64.5 -6.5q-27 6 -18.5 56t38.5 163q31 112 57.5 176.5t55.5 101.5q25 33 57 43q64 21 92.5 32t34.5 1q9 -14 0.5 -32.5t-26.5 -55.5q-49 -88 -92 -188.5t-84 -227.5zM170 547q39 82 54.5 126t29.5 87q4 20 9 33.5t17.5 17.5 t35 0t65.5 -20q45 -17 31.5 -63t-50.5 -130q-20 -49 -36.5 -70.5t-37 -25.5t-46 0t-64.5 10q-12 0 -19 14.5t11 20.5z" />
<glyph unicode="&#x3c;" horiz-adv-x="1147" d="M115 569v117l899 494v-152l-740 -399l740 -404v-151z" />
<glyph unicode="=" horiz-adv-x="1169" d="M141 801v135h899v-135h-899zM141 322v133h899v-133h-899z" />
<glyph unicode="&#x3e;" horiz-adv-x="1178" d="M141 74v151l738 400l-738 403v152l899 -496v-117z" />
<glyph unicode="?" horiz-adv-x="1237" d="M279 1130q-31 41 -52.5 69t-29 52.5t3 47t39.5 53.5q118 121 262.5 232.5t308.5 170.5q57 21 95 22t66.5 -12.5t51.5 -39t47 -60.5q31 -6 64.5 -16.5t61.5 -26.5t46.5 -37.5t18.5 -46.5q0 -70 -58.5 -182.5t-146.5 -241.5t-190.5 -256t-190.5 -217q31 6 67.5 19.5 t67.5 23.5q12 4 25.5 -3t18.5 -19.5t-2 -26.5t-30 -23q-24 -8 -64 -24.5t-83 -36t-84 -42t-64 -46.5q-51 -43 -77.5 -12.5t-55.5 108.5q-10 31 13.5 50.5t60.5 47.5q90 74 191.5 184.5t189.5 229.5t147.5 233.5t67.5 194.5q4 43 -12.5 74t-45 43t-67.5 12t-72 -14 q-131 -53 -261 -149.5t-230 -213.5q-21 -20 -20 -41.5t6.5 -41t7.5 -37t-13 -25.5q-20 -16 -41.5 -5t-37.5 29zM293 51q35 31 60.5 53.5t46 42t36 36t27.5 32.5q14 18 24.5 29.5t25.5 10.5t40 -16.5t70 -48.5q49 -34 16 -73t-102 -101q-41 -36 -68 -48.5t-51.5 -9.5 t-53 20.5t-73.5 37.5q-17 4 -20 21.5t22 13.5z" />
<glyph unicode="@" horiz-adv-x="2134" d="M1384 477q-18 0 -42.5 10.5t-41.5 20.5q-20 12 -29 33.5t-9 42.5v8q14 76 32.5 160t38.5 161q-51 -69 -107.5 -135.5t-111.5 -123t-98 -99.5t-68 -57q-18 -13 -39.5 -21t-38.5 -8q-18 0 -40.5 6t-36.5 19l-9 4q-59 34 -59 112v13q12 71 52 166.5t95.5 191.5t123 187.5 t134.5 156.5q54 49 101 49q39 -4 66.5 -24.5t76.5 -67.5q12 -8 12 -22q0 -27 -34 -27q-11 0 -27 4q-14 6 -27 6q-28 0 -63 -18q-39 -31 -97.5 -98.5t-111.5 -152.5t-99 -179.5t-61 -182.5q0 -18 21 -18q14 0 35.5 10t31.5 21q58 55 123.5 127.5t127 150.5t110.5 148.5 t69 119.5q7 9 9 22t8 21l8 26t10 28q19 51 45 51q23 0 42.5 -13.5t43.5 -29.5q15 -14 23 -25.5t8 -25.5q0 -13 -8 -37q-43 -119 -78 -230.5t-55 -212.5q-4 -16 -15.5 -69t-15.5 -107h27q106 2 204.5 46t174 126t120.5 199t45 266q0 146 -55 246t-143 159.5t-195.5 85 t-212.5 25.5q-225 0 -409.5 -100t-315.5 -264t-200.5 -376t-69.5 -435q0 -238 164 -355.5t469 -117.5q102 0 197.5 15t175 39t143 52.5t110.5 50.5l39 -81q-53 -33 -125.5 -65t-159.5 -58.5t-184.5 -44t-197.5 -17.5q-158 0 -303.5 27.5t-257 95.5t-179 176.5t-67.5 272.5v4 q0 256 91 490.5t252 412.5t372.5 284.5t451.5 106.5q121 0 253 -24.5t242.5 -92t182.5 -191.5t72 -323q0 -127 -46 -252t-136.5 -227t-218.5 -171t-289 -77h-46z" />
<glyph unicode="A" horiz-adv-x="1501" d="M1618 1778q53 20 68.5 -0.5t-21.5 -73.5q-23 -31 -42 -91.5t-39.5 -143.5t-37 -182t-35.5 -204q-12 -100 -24 -200.5t-20.5 -190.5t-11.5 -169t-3 -134q4 -113 17.5 -166t33 -70.5t43 -11.5t43.5 15q39 14 50.5 -4.5t-15.5 -42.5q-12 -11 -36.5 -28.5t-52.5 -33.5 t-57.5 -35.5t-52.5 -29.5q-47 -25 -80.5 -12.5t-56.5 100.5q-14 67 -18 196t8 344q-70 -6 -158 -12t-171 -13t-153.5 -15.5t-107.5 -10.5q-31 -41 -66.5 -83t-69.5 -85t-65.5 -81t-54.5 -66l38 8t38.5 -4t37 -37t34.5 -86q10 -35 8 -52.5t-10.5 -22.5t-23.5 -2t-36 7 q-37 11 -116.5 -8.5t-215.5 -105.5q-20 -13 -31.5 -22t-19.5 -12t-17 1t-28 18q-37 27 -54.5 49.5t-31.5 51.5q-8 26 0 40.5t47 38.5q39 27 100.5 75t122 101.5t110.5 102.5t71 76q-9 80 -11 128t27 75q23 20 68 28t127 15q63 75 138 176.5t145.5 207t133 205t101.5 177.5 q-84 -46 -228.5 -89t-363.5 -118q-94 -35 -122 -93.5t-15 -142.5q8 -45 -19.5 -46t-40.5 20q-45 94 -61.5 137t-22.5 73q-2 9 -7 22t-5 28.5t5 35t24 39.5q28 31 99 63t214 50q61 8 140 25.5t158 41t147.5 46t117.5 43.5q13 14 20 20t10 12.5t6 13.5t9 23q8 29 36 23t79 -62 q14 -20 17 -35.5t-4 -32t-17 -32.5t-21 -35q-43 -73 -112.5 -184t-145 -225.5t-150.5 -219t-128 -165.5q49 0 121.5 1t146.5 4t135.5 5t81.5 6q8 74 20.5 162t28 178t30.5 177t28.5 156.5t22.5 117t12 57.5q10 84 68 133t120 72z" />
<glyph unicode="B" horiz-adv-x="1591" d="M223 55q33 88 54.5 163t21.5 144v49.5t10 24.5t36 16.5t75 24.5q26 10 32.5 -1t10.5 -30q65 129 121.5 276.5t102.5 288t79 256t45 183.5q-63 -25 -132 -62.5t-135.5 -78.5t-119.5 -85t-86 -83q-39 -49 -34 -97.5t22 -107.5q8 -31 2 -44t-17.5 -13t-24 9t-22.5 21 q-76 88 -103.5 143.5t-27.5 88.5t16.5 50t28.5 34q43 53 123 114.5t174 121t193.5 110.5t183.5 80q4 43 9 65.5t-1 42.5q-6 19 10.5 34t44.5 -15q60 -58 52 -82q143 43 236 61.5t155 18.5q86 -4 124 -46t74 -112q39 4 67 -18.5t24 -86.5q-13 -182 -78.5 -320t-159.5 -232 q-51 -54 -127 -88.5t-121 -38.5q56 -35 119 -80t120.5 -91.5t105.5 -90.5t75 -78q27 -39 38 -71t8 -69t-25.5 -83t-69.5 -103q53 -94 -105 -150q-102 -34 -285.5 -47.5t-457.5 2.5q-78 7 -111.5 19t-40.5 47q-4 35 0.5 61.5t22.5 77.5q6 25 18.5 34t30 9t39 -5t49.5 -7 q27 -6 37 -22.5t22.5 -35t36 -36t74.5 -21.5q53 -6 125 -6t148.5 8t146.5 22.5t123 39.5q53 22 67.5 59t4 75t-35 74.5t-48.5 65.5q-25 27 -90.5 78t-139 106.5t-144.5 99.5t-112 56q-45 0 -80.5 9.5t-44.5 25.5q-6 8 -6 13t10.5 17.5t34 32t72.5 58.5q22 16 45 18t44.5 -6 t41.5 -23.5t43 -23.5q84 4 139.5 46t102.5 93q24 33 56 90.5t59.5 126t47 136t19.5 128.5q0 48 -16.5 70.5t-39 30.5t-47 5t-47.5 -3q-20 -2 -68 -10.5t-104.5 -21.5t-112 -30.5t-93.5 -33.5q-62 -220 -138.5 -449t-151.5 -428t-134.5 -340t-85.5 -180q-19 -29 -30 -45.5 t-26.5 -25.5t-42 -17t-75.5 -17q-37 -8 -52.5 -5t-3.5 42z" />
<glyph unicode="C" horiz-adv-x="1268" d="M133 328q0 168 45 341t119 333.5t166 303t184 249t177 169t149 68.5q51 4 103 -38t122 -97q6 45 32.5 50t108.5 -56q19 -17 31 -28t14 -26.5t-2 -38t-12 -59.5q-12 -49 -29.5 -106.5t-38 -111.5t-40 -100t-35.5 -73q-29 -49 -50.5 -60.5t-58.5 1.5q-86 26 -96 59t25 41 q45 65 84.5 180t50.5 232q-72 63 -135 63q-72 0 -154 -65.5t-165 -173t-161 -246t-136 -283.5t-93 -284.5t-31 -249.5q2 -78 22.5 -119t51.5 -66q47 -41 101.5 -44t109.5 16q63 18 139 60t148.5 92t141.5 106.5t120 109.5q14 19 22 30t10.5 21.5t2.5 18.5t4 20q2 27 22.5 29 t30.5 -25q29 -75 39 -119t0 -77t-44 -61.5t-93 -73.5q-58 -41 -121.5 -83t-127 -77t-121.5 -61.5t-106 -36.5q-118 -33 -180.5 -7.5t-93.5 64.5q-6 2 -46 17.5t-87 48t-83 88t-36 135.5z" />
<glyph unicode="D" horiz-adv-x="1720" d="M416 -31q-62 31 -89.5 57.5t-27.5 82.5q0 59 11.5 136t23.5 126t34.5 36.5t82.5 -59.5q22 84 56 188.5t68.5 212t69.5 213t63.5 191.5t48 147.5t27.5 77.5q-51 -30 -109.5 -70t-117.5 -86t-115.5 -95.5t-103.5 -98.5q-29 -33 -34 -66.5t3 -69.5t21.5 -64.5t27.5 -47.5 q13 -20 6.5 -31.5t-17.5 -14.5t-26.5 1t-23.5 13q-62 71 -103.5 126.5t-54 102.5t9 95t91.5 110q49 49 123.5 104t159.5 113.5t176 116t177 106.5q31 74 50.5 112t39 45t43 -10.5t62.5 -56.5q80 35 128 58.5t88 30.5t82 -8t112 -60q14 16 79.5 -14.5t157.5 -114.5 q60 -54 73 -101t5 -108q-20 -160 -72.5 -327t-122 -324.5t-151.5 -297t-161 -245t-151.5 -169t-123.5 -63.5q-76 0 -171.5 47t-195.5 113q-20 14 -20 29.5t11 28t29.5 15.5t34.5 -7q33 -23 92.5 -42.5t122.5 -25.5q58 -2 127.5 62.5t143.5 170t146.5 243.5t133 287.5 t103.5 297t55 270.5q2 41 -9 69.5t-31.5 50t-45.5 36t-45 24.5q-35 17 -57 11q-160 -23 -274.5 -71t-211.5 -112q-55 -135 -120.5 -314t-127 -373.5t-112.5 -389t-84 -362.5q-10 -54 -36 -63t-54 5z" />
<glyph unicode="E" horiz-adv-x="1569" d="M203 8q-17 72 -25 115t13.5 65.5t83 31.5t186.5 13q26 52 57 115.5t58.5 131t53 132t42.5 119.5q-23 62 -45.5 105t-14.5 71q4 23 37 39.5t105 32.5q16 59 36.5 140t42 164t41 156.5t27.5 123.5q-90 16 -184 28.5t-211 -4.5q-113 -16 -135.5 -112.5t20.5 -268.5 q4 -22 -1 -35.5t-15 -14.5t-21.5 6t-17.5 26q-43 141 -53.5 251.5t24.5 217.5q15 47 48.5 76.5t104 39t187.5 -3t297 -47.5q23 17 46.5 31t41 17.5t24.5 -12t-9 -56.5q55 -16 123.5 -31.5t138 -32t136 -32t116.5 -25.5q34 -8 55.5 4t38.5 41q12 23 34.5 23t30.5 -43 q9 -50 10 -74.5t-6.5 -38.5t-21.5 -25.5t-37 -29.5q-37 -29 -57.5 -25t-57.5 14q-166 41 -290.5 66t-258.5 45q-18 -78 -38.5 -158t-38 -151.5t-31.5 -131t-23 -100.5q84 9 142.5 13t111 8t105.5 5t133 5q41 0 63.5 -13.5t32.5 -35t13.5 -46t9.5 -40.5q8 -39 -14.5 -53.5 t-88.5 -28.5q-61 -10 -84.5 -10t-40.5 26q-14 27 -24 31t-45 4q-15 0 -54.5 2t-89 2t-105.5 -3t-104 -11q-34 -111 -58.5 -188.5t-45.5 -135.5q-25 -67 -43 -111t-38.5 -75t-47.5 -53.5t-61 -48.5q86 2 192.5 0t215 -10.5t212 -16.5t186.5 -14q27 -4 37.5 7t12.5 29.5t6 33 t20 14.5q17 2 27 -1t18 -28q17 -53 23 -87t12 -63q8 -30 -22.5 -53.5t-57.5 -46.5q-26 -22 -44.5 -18t-76.5 18q-180 49 -401 67.5t-528 -1.5q-33 -29 -61.5 -51.5t-49 -36t-35 -8t-20.5 33.5z" />
<glyph unicode="F" horiz-adv-x="1636" d="M948 700q-20 -53 -43.5 -133t-45 -169t-41 -180t-36.5 -163q-10 -43 -17 -65.5t-25.5 -28.5t-49.5 0t-84 27q-35 12 -40 34.5t3 77.5q9 60 23 129.5t29 112.5q8 35 34.5 41t71.5 -2q6 14 16.5 43t20.5 58.5t19.5 61t15.5 54.5q-23 55 -42.5 92t-11.5 68q7 18 36.5 35.5 t92.5 31.5q80 277 135.5 444t77.5 234q-94 -8 -199.5 -23.5t-203.5 -39t-177 -53t-116 -62.5q-37 -35 -55.5 -66.5t-18.5 -70.5t19.5 -95.5t64.5 -138.5q23 -41 -3.5 -58t-55.5 19q-55 80 -87 135.5t-48.5 96.5t-21.5 78t-7 86q-6 47 18.5 85t63.5 66.5t86 49t90 32.5 q96 27 195.5 48.5t196 38t182.5 27.5t151 15q15 31 25 53.5t25.5 29.5t41 -7t72.5 -55q61 0 117.5 10t93.5 16q35 4 43 17.5t20.5 29t39 27.5t96.5 14q37 2 55 -10t27.5 -33.5t14.5 -49t13 -56.5q6 -31 -3 -46.5t-30.5 -23.5t-50 -10t-53.5 -6q-22 -2 -94 -10.5t-152 -17.5 t-152.5 -16t-95.5 -9q-20 -45 -42.5 -103.5t-49 -139.5t-58.5 -186.5t-71 -240.5q76 6 136.5 11t115.5 7t114.5 5.5t131.5 3.5q43 0 66.5 -13.5t35 -35t13.5 -44t6 -43.5q6 -34 -14.5 -50.5t-86.5 -26.5q-63 -15 -86.5 -15t-38.5 27q-12 26 -23 30.5t-44 4.5h-59.5h-94 t-112 -2t-105.5 -9z" />
<glyph unicode="G" horiz-adv-x="1516" d="M133 461q8 149 65.5 305t143.5 302t192.5 275.5t212 226.5t198.5 155.5t157 60.5q55 6 102 -25.5t101 -70.5q4 26 9 43.5t16 23.5t36 -1t70 -27q10 -7 16 -11t10 -17t3 -42t-7 -78q-10 -68 -29.5 -145.5t-46.5 -147.5q-16 -37 -49 -38t-102 16q-49 10 -48 37.5t40 19.5 q22 61 38.5 122.5t20.5 141.5q4 29 -14.5 42t-49 13t-70.5 -13t-79 -32q-121 -65 -248 -190t-233.5 -274.5t-183 -312.5t-97.5 -308q-12 -70 -5 -118t23.5 -79.5t37 -49t40.5 -32.5q43 -28 105.5 -15t140.5 54q76 39 160 100.5t165 133.5t153.5 145.5t125.5 136.5 q-141 -12 -221 -18t-121 -1t-58 27.5t-34 71.5q-8 29 -5 40.5t16.5 8t35 -11.5t43.5 -16q21 -8 80.5 -8t130 4t134 8t85.5 8q13 27 28 38t41 11t64.5 -13t100.5 -40q43 -18 39 -50t-51 -36q-25 -8 -43.5 -4t-36 -11.5t-36 -55.5t-36.5 -130q-18 -86 -46 -189.5t-58.5 -215 t-68.5 -227t-81 -226.5q-29 -71 -67.5 -96t-88 -14.5t-112 46.5t-135.5 83q-21 12 -23 23t5 20.5t23.5 13.5t33.5 -4q20 -6 44.5 -15.5t49 -6.5t53.5 21.5t57 61.5q35 54 75 143t77 194.5t71.5 216t61.5 206.5q-41 -47 -104.5 -111.5t-142.5 -134t-166 -133t-175 -106.5 q-106 -54 -201.5 -59t-160.5 69q-43 29 -80 55.5t-63.5 59t-42 74.5t-11.5 102z" />
<glyph unicode="H" horiz-adv-x="1864" d="M1120 1751q21 -12 23 -41t-11.5 -80t-43 -132t-74.5 -202q-35 -96 -87.5 -220t-115.5 -279q84 -9 180 -13t190.5 -6t181.5 1t157 9q14 50 41.5 145t66.5 207.5t85 231.5t97.5 216.5t103.5 160.5t103 70q49 2 108.5 -25t102.5 -51q37 -27 30 -44.5t-50 -17.5 q-31 0 -65 2.5t-81 -41.5q-34 -34 -89.5 -129.5t-122 -260.5t-139.5 -407.5t-146 -570.5q34 62 49.5 90.5t40.5 63.5q12 23 28.5 34t26.5 10t12 -15.5t-10 -46.5q-12 -31 -32.5 -78t-42 -99.5t-37 -102.5t-21.5 -89q-6 -41 -14.5 -60.5t-23.5 -20.5t-45 14.5t-77 41.5 q-26 17 -25 93.5t16 178t36.5 206t40.5 174.5q-84 6 -185.5 9t-201 1t-191.5 -7t-151 -16q-31 -71 -74 -172.5t-89 -202t-88 -182.5t-65 -116q-18 -33 -47.5 -43.5t-52.5 -1.5q-43 16 -72.5 26t-43 23.5t-12.5 35t17 58.5q25 49 46.5 87t31.5 66q6 31 4 56.5t-2 40.5 q0 8 3 17t8.5 16.5t15.5 6.5t24 -16q46 -45 58 -62.5t6 -35.5q18 20 40.5 61t44 85t39 83t21.5 56q-30 65 -56 121.5t-3 95.5q12 22 53 35.5t121 9.5q31 67 74 178t86 227.5t77.5 222t49.5 160.5q-15 -18 -72 -39.5t-136 -49t-163 -58.5t-149 -62q-54 -26 -85.5 -49.5 t-44 -53.5t-9.5 -66.5t20 -84.5q8 -36 -19.5 -42.5t-42.5 22.5q-14 22 -31.5 61t-31.5 81t-24.5 83t-6.5 70q0 22 12.5 42.5t44 41t87 39t141.5 37.5q129 26 218 43.5t151.5 36t104.5 42t69 66.5q12 16 18 28.5t17.5 13.5t30 -8t48.5 -34z" />
<glyph unicode="I" horiz-adv-x="1085" d="M684 1731q35 12 81 5t112 -30q20 27 80.5 -3t144.5 -81q20 -16 31.5 -50t14.5 -75t0 -85t-7 -81q-13 -98 -45.5 -239.5t-82.5 -296t-112.5 -307t-134.5 -273.5t-148.5 -198.5t-156.5 -77.5q-72 0 -152 38.5t-162 100.5q-14 10 -16 24.5t7 27.5t22.5 19.5t34.5 -2.5 q38 -22 89.5 -40.5t100.5 -18.5q61 -2 127 66.5t131.5 183.5t123.5 264.5t105.5 306t75 311t33.5 279.5q2 47 -14.5 73.5t-42 40t-56 14.5t-61.5 -3q-45 -6 -105.5 -48t-123 -112.5t-116.5 -167t-85 -206.5q-12 -43 -6 -73t19 -52.5t33.5 -41t37.5 -34.5q16 -15 13 -27 t-13 -18t-24.5 -6t-26.5 6q-76 45 -123 81t-66.5 79t-11.5 97t45 134q33 82 86 161t112.5 147.5t122 116.5t109.5 71z" />
<glyph unicode="J" horiz-adv-x="1116" d="M1169 1270q-16 -113 -55 -273.5t-95 -336t-125 -350.5t-147.5 -313t-163.5 -223t-171 -83q-74 0 -153 47t-155 121q-14 12 -15 27.5t4 28.5t18.5 18.5t31.5 -5.5q39 -24 95.5 -51t107.5 -29q57 -6 129 73t142.5 209t139 302t124 354.5t90.5 363.5t47 333q4 94 -45 118.5 t-139 20.5q-46 -4 -108 -42t-125.5 -107.5t-121 -164t-94.5 -206.5q-12 -39 -8 -70t17.5 -55.5t31.5 -43t35 -34.5q16 -14 13 -26.5t-13 -17.5t-24.5 -5t-26.5 4q-74 47 -121 87t-63.5 82t-6.5 95t47 133t95.5 158t119 142.5t123 112.5t111.5 67q33 12 78 2.5t112 -31.5 q23 22 82.5 -6.5t140.5 -87.5q46 -31 51 -128.5t-10 -209.5z" />
<glyph unicode="K" horiz-adv-x="1810" d="M420 152q53 198 123.5 405t140.5 391q43 109 80 205t67.5 170t50 123t27.5 67q-43 -10 -111.5 -28.5t-143 -47t-147.5 -63.5t-128 -78q-29 -20 -41 -36.5t-15.5 -39t4 -60.5t19.5 -103q8 -35 -21.5 -40t-48.5 23q-16 27 -27 50.5t-22.5 47t-19.5 49t-21 58.5 q-49 139 142 213q51 23 126.5 48.5t153.5 52t147.5 47t110.5 34.5q39 15 62.5 23t40 17.5t29 21.5t24.5 29q22 26 41.5 35.5t62.5 -23.5q29 -21 36 -35t-19 -61q-84 -148 -165 -327t-151 -366q-73 -194 -125.5 -369t-78.5 -290q-17 -66 -25 -109t-14 -71.5t-7.5 -49 t1.5 -38.5q14 -37 6 -54q-6 -14 -30 -13t-81 48q-22 19 -37.5 31t-24 25.5t-6 33t14.5 54.5zM825 768q-2 35 0 60.5t18.5 43t46.5 30.5t83 26q18 4 27.5 2t21.5 -21q78 60 171 147t176 174t146.5 160.5t83.5 112.5q-86 51 -82.5 78t48.5 37q49 37 85 74t70 73q31 37 78 44.5 t111 -60.5q33 -29 24.5 -52.5t-53.5 -78.5q-74 -92 -188.5 -214t-232.5 -236.5t-217 -206t-144 -119.5q43 -51 103.5 -143.5t132 -194t151.5 -195.5t162 -147q67 -45 113 -39t95 45q27 18 44.5 1t-5.5 -52q-10 -17 -32.5 -41.5t-47 -51t-49 -49t-41.5 -36.5q-28 -27 -59 -28 t-76 36q-108 88 -194 194.5t-163 213t-147.5 202.5t-142.5 160q-63 -29 -87 -14.5t-30 65.5z" />
<glyph unicode="L" horiz-adv-x="1366" d="M39 -80q-29 78 -39 127t41 78q29 16 87 26.5t155 16.5q118 418 238 722t227.5 502.5t201.5 299t158 106.5q35 8 85 -15.5t130 -60.5q55 2 85 1t44 -14t17.5 -41t3.5 -77t-7.5 -109.5t-18.5 -122t-27.5 -118.5t-33.5 -100q-10 -33 -20 -48.5t-25.5 -19.5t-37 0t-52.5 6 q-16 4 -30.5 10.5t-23.5 14.5t-8 19.5t23 25.5q11 20 28 72.5t32.5 116t26 131t6.5 122.5q-5 25 -16 44.5t-32.5 26.5t-51 2t-64.5 -34q-82 -59 -159 -165.5t-157 -270.5t-167 -390t-185 -528q-12 -34 -26.5 -53.5t-30.5 -34.5q-21 -14 -37 -20q158 0 349.5 -9t377.5 -32 q31 -2 47 -1t25.5 8t15.5 21.5t18 39.5q19 36 34.5 33t29.5 -27q29 -60 42 -95.5t13 -60.5t-13 -43t-38 -37q-20 -20 -34.5 -32.5t-30 -16.5t-35 0t-54.5 12q-34 11 -115 28t-197 32.5t-259 22.5t-297 -7q-37 -2 -53.5 -4t-24.5 -7t-10 -16.5t-12 -27.5q-31 -47 -69 -55.5 t-50 26.5z" />
<glyph unicode="M" horiz-adv-x="2415" d="M436 94q58 49 107 83t92 63q61 102 119.5 212.5t108.5 221t92 215t73 194.5q-92 207 -197.5 321t-195.5 167q-43 26 -80 22t-68.5 -26.5t-64.5 -58t-68 -74.5q-32 -39 -63 -34t-10 50q24 49 62 110.5t81 115t94 88t98 32.5q37 0 85.5 -22.5t109.5 -74.5t134 -143.5 t165 -230.5q29 70 51.5 154t22.5 151q0 72 18.5 73t91.5 -56q21 -19 21 -70q-2 -41 -16.5 -92t-33 -105.5t-38 -105.5t-33.5 -92q113 -215 198 -414t148 -397q162 262 358.5 567t466.5 623q25 53 39.5 81.5t25.5 47t21.5 34t26.5 41.5q39 62 102.5 39.5t182.5 -118.5 q18 -15 5 -33.5t-56 -10.5q-23 5 -39.5 5t-34 -11.5t-38 -37t-42.5 -72.5q-68 -129 -122 -281.5t-95 -313.5t-69.5 -323t-45.5 -305q25 45 46.5 83t33.5 67q23 36 48.5 24t2.5 -65q-10 -27 -25.5 -70t-31.5 -95t-27.5 -106.5t-17.5 -99.5q-8 -61 -47 -72.5t-142 66.5 q-18 16 -31.5 27.5t-17.5 23.5t-4 29.5t6 46.5q15 80 34.5 186.5t42 221t47 229t47 212t42 168t33.5 97.5q-70 -82 -157 -207t-178 -268.5t-180 -295t-161 -288.5q19 -57 24 -92t-3 -59.5t-27.5 -46t-52.5 -52.5q-27 -22 -42 -33.5t-26.5 -4t-27 31t-39.5 70.5 q-17 24 -24 43.5t-4 35t12.5 33t25.5 45.5q-35 127 -86 258.5t-100 241.5q-56 129 -117 254q-90 -227 -160 -379.5t-125 -263.5q51 -57 71.5 -91t21.5 -52.5t-17.5 -25.5t-46.5 -9q-62 -8 -117 -37t-113 -104q-8 -43 -48 -41t-128 79q-26 23 -28 38.5t24 37.5z" />
<glyph unicode="N" horiz-adv-x="1847" d="M256 -23q-61 23 -97 48.5t-34 56.5q0 35 46 79t159 111q41 74 88 175.5t94 214t91 226t80 210t60.5 166t30.5 98.5q-45 74 -98 125t-86 74q-19 8 -36 14t-42 4t-57.5 -18.5t-77.5 -51.5q-27 -16 -44.5 -17t-27.5 8t-8 27.5t29 41.5q110 104 175.5 162.5t123.5 52.5 q47 -6 95 -51t114 -138q26 66 16 105q-8 20 10.5 26.5t77.5 -40.5q23 -19 26 -46.5t-5.5 -58.5t-19.5 -61.5t-19 -55.5q92 -131 186 -286.5t177 -304t144.5 -278.5t90.5 -210q12 76 31.5 172t42 197.5t46 203t45 184.5t36 141t20.5 79q-33 20 -50.5 33.5t-31.5 29.5 q-23 23 -23 43.5t43 14.5q23 0 54.5 26.5t64.5 64.5t60.5 75t44.5 55q16 18 30.5 32.5t31.5 16.5t43 -13.5t60 -53.5q25 -29 18 -59t-30 -62q-26 -43 -68 -84t-75 -78q-29 -84 -64 -189.5t-67.5 -220t-63 -231.5t-53.5 -226.5t-39 -203.5t-16 -164q10 -31 16 -52.5t2 -45 t-25.5 -46t-66.5 -55.5q-25 -14 -40 -11t-28.5 14.5t-20.5 23.5t-11 14q-15 8 -12 39t12 74q-66 168 -152 349t-170 339t-154.5 275.5t-101.5 152.5q-20 -68 -52 -157t-68 -184t-71.5 -188.5t-68.5 -171t-54.5 -134t-29.5 -74.5q12 4 27.5 -8.5t30 -33t28.5 -46t25 -43.5 q10 -27 4 -35t-23.5 -11t-37 -2t-36.5 1q-30 0 -72 -17.5t-65 -38.5q-10 -10 -17 -36.5t-20.5 -51t-37 -37t-62.5 5.5z" />
<glyph unicode="O" horiz-adv-x="1403" d="M1100 1655q88 94 174 157q49 33 109.5 28t115.5 -75q66 -6 104.5 -15t56 -36.5t15.5 -81t-10 -145.5q-10 -86 -44 -231.5t-91 -313.5t-134 -339t-176.5 -312t-216 -232.5t-249.5 -97.5q-29 0 -64 2t-63.5 9.5t-48 15.5t-15.5 20q-90 23 -165.5 48.5t-129 70.5t-82 114.5 t-24.5 180.5q6 139 37.5 280.5t80 274.5t107.5 252t119.5 216t115 166.5t95.5 108.5q67 62 121 62q32 0 58 -8.5t55.5 -24.5t65.5 -39.5t83 -54.5zM1044 1599q-49 39 -96 50.5t-82 -19.5q-39 -24 -93 -90.5t-114.5 -163t-120 -213t-106.5 -241.5t-72.5 -255t-21.5 -251 q4 -70 15.5 -117t35 -83t57 -61.5t82.5 -48.5q78 -40 156 -32q90 12 183.5 84.5t178 189.5t160.5 268.5t136.5 316.5t99.5 335t49 327q4 84 -34 96.5t-136 -57.5q-98 -69 -206.5 -158.5t-246.5 -222.5q-45 -39 -68.5 -26.5t11.5 65.5q66 101 119 171.5t114 135.5z" />
<glyph unicode="P" horiz-adv-x="1358" d="M356 121q72 166 143.5 349t133 359.5t113 339t81.5 287.5q-39 -18 -95 -44t-116.5 -58.5t-116 -73.5t-95 -86t-57 -96t0.5 -105q6 -14 7 -22t2 -12.5t4.5 -10.5t11.5 -20q16 -35 -5.5 -55.5t-50.5 14.5q-26 35 -60 89t-62 116q-58 106 79 229q29 29 96.5 74t151.5 93 t177.5 93t177.5 76q12 47 14 62.5t2 39.5q0 17 3 34t18.5 18t44 -18t81.5 -77q62 19 139.5 40.5t151.5 21.5q64 -2 118 -34t87 -118q51 -31 83 -59.5t45 -60t10 -72.5t-17 -103q-17 -71 -66 -167.5t-111.5 -190.5t-130 -174t-116.5 -117q-53 -37 -97 -47t-85 -2t-81 25.5 t-83 33.5q-37 17 -29 36.5t70 19.5q59 0 99 10t81 39q47 37 110.5 104.5t125 155.5t108.5 193.5t61 215.5q7 37 -1.5 62.5t-20.5 42.5q-16 16 -36.5 22t-41 9.5t-36 0t-21.5 -3.5q-119 -4 -213 -28.5t-176 -59.5q-93 -340 -192 -655t-208 -598q45 21 76 45.5t59 18.5 q25 -5 40.5 -20t33.5 -54q66 -123 -14 -115q-17 2 -45.5 -8t-64.5 -28.5t-70.5 -44t-69.5 -56.5q-39 -41 -79 -27.5t-85 54.5q-22 22 -29.5 36.5t-3.5 28.5q2 12 23 25q10 4 18 8z" />
<glyph unicode="Q" horiz-adv-x="1501" d="M991 51q-51 -39 -111.5 -62.5t-125.5 -27.5q-29 0 -64 2t-63.5 9.5t-48 15.5t-15.5 20q-90 23 -165.5 48.5t-129 70.5t-82 114.5t-24.5 180.5q6 139 37.5 280.5t80 274.5t107.5 252t119.5 216t115 166.5t95.5 108.5q67 62 121 62q32 0 58 -8.5t55.5 -24.5t65.5 -39.5 t83 -54.5q88 94 174 157q49 33 109.5 28t115.5 -75q66 -6 104.5 -15t56 -36.5t15.5 -81t-10 -145.5q-8 -62 -28.5 -157t-52.5 -209.5t-76 -238.5t-100 -249t-123.5 -239.5t-143.5 -205.5q24 -6 71.5 -12t102.5 -2t115.5 26.5t115.5 75.5q25 23 42.5 7.5t2.5 -41.5 q-20 -54 -42.5 -89.5t-55.5 -80.5q-25 -31 -42 -51.5t-42 -28.5t-56.5 -6t-78.5 6q-8 0 -19.5 2t-39 6t-82 17.5t-142.5 33.5zM801 113q-43 14 -97.5 37.5t-89.5 39.5q-20 11 -27 37.5t-8 58t3 61.5t10 44q6 29 23.5 31t29.5 -10q35 -31 80 -60.5t88 -53.5t83 -40t56 -25 q103 109 194 267.5t163.5 343t121 379t60.5 372.5q4 84 -34 96.5t-136 -57.5q-98 -69 -206.5 -158.5t-246.5 -222.5q-45 -39 -68.5 -26.5t11.5 65.5q66 101 119 171.5t114 135.5q-49 39 -96 50.5t-82 -19.5q-39 -24 -93 -90.5t-114.5 -163t-120 -213t-106.5 -241.5 t-72.5 -255t-21.5 -251q4 -70 15.5 -117t35 -83t57 -61.5t82.5 -48.5q78 -40 156 -32q53 4 117 39z" />
<glyph unicode="R" horiz-adv-x="1729" d="M459 -33q-31 23 -50.5 38t-28.5 32.5t-6 40t15 57.5q19 51 32 82t21.5 50.5t12.5 34.5t6 36q2 43 2 64.5t22 25.5q19 6 32 -15.5t42 -66.5q62 127 118 275.5t103 275.5q-39 57 -56 90t-12 50.5t33.5 22.5t88.5 9q12 39 28.5 91t31.5 106.5t30.5 109t27.5 99.5 q-170 -66 -317.5 -139.5t-251.5 -205.5q-29 -34 -35 -73t-2 -79t19.5 -81t27.5 -80q10 -35 -17.5 -41t-47.5 25q-35 53 -66 110.5t-53 118.5q-10 29 -22.5 55.5t-10.5 56t21.5 63.5t70.5 81q156 141 349.5 233.5t365.5 145.5q8 12 11 39t7.5 52.5t11.5 44t19 16.5 q15 -5 33 -28.5t47 -80.5q137 33 225 53.5t150 14.5q67 -4 105 -42t75 -122q68 -51 103.5 -94t35.5 -134q0 -67 -51 -169.5t-126 -194.5t-160 -157.5t-150 -65.5q-43 0 -75 9t-57.5 23.5t-49 31t-45.5 32.5q-17 8 -19 21.5t7.5 23.5t23.5 13t26 -1q27 -10 64 -16t82 6 t103.5 58t131.5 143q160 207 145.5 332.5t-206.5 125.5q-92 0 -194.5 -23.5t-188.5 -57.5q-12 -58 -32.5 -129.5t-41 -145.5t-41 -138.5t-30.5 -98.5q79 -119 176.5 -248t200 -254t205 -238.5t194.5 -199.5t164.5 -138.5t117.5 -54.5q58 -6 75.5 10.5t35.5 28.5 q33 29 57.5 15.5t-2.5 -60.5q-51 -84 -100 -143.5t-109 -65.5q-59 -4 -135 66q-147 126 -296.5 285t-277.5 310.5t-225.5 278.5t-146.5 193q-22 -84 -63 -199t-87.5 -229.5t-87 -212t-63.5 -142.5q-25 -47 -46.5 -55t-49.5 14z" />
<glyph unicode="S" horiz-adv-x="1380" d="M877 -90q-107 0 -220.5 50t-212 121t-174 148.5t-108.5 132.5q-29 50 -48.5 84.5t-23.5 62.5t9.5 51.5t47.5 51.5q68 62 97.5 45.5t11.5 -77.5q35 -95 115 -188t178 -163.5t204.5 -113.5t196.5 -43q99 0 129.5 61.5t30.5 157.5q0 92 -58.5 217t-128 259t-128 268 t-58.5 245t57.5 182.5t168.5 155.5q22 16 40.5 18t29.5 -9t9 -28.5t-22 -35.5q-29 -29 -64.5 -79t-35.5 -153q0 -71 27.5 -153t68.5 -170t90 -178.5t90 -170t68.5 -148.5t27.5 -118q0 -74 -24.5 -134t-60.5 -107.5t-78 -82t-74 -53.5q-19 -34 -58 -72t-120 -34zM1145 1679 q90 45 154.5 71t134.5 52q32 10 52.5 14.5t34 -3t24.5 -27t32 -51.5q39 -13 64.5 -21t39 -22.5t13.5 -39t-13 -65.5q-22 -86 -61 -170t-76 -139q-22 -29 -37.5 -44t-36 -15t-48 13t-70.5 44q-33 20 -25 41.5t43 32.5q21 6 40.5 40.5t36.5 77.5t29.5 89.5t12.5 70.5 q0 39 -14.5 53.5t-77.5 4.5q-45 -9 -92.5 -24t-124.5 -46q-29 -10 -48.5 -6t-24.5 16t3 26.5t35 26.5z" />
<glyph unicode="T" horiz-adv-x="1456" d="M379 915q-57 80 -89 135.5t-48.5 96.5t-21.5 78t-7 86q-4 47 19.5 85t63.5 66.5t86 49t91 32.5q96 27 195.5 48.5t194.5 38t180 27.5t155 15q16 31 25.5 53.5t26 29.5t42 -7t70.5 -55q59 0 115.5 10t93.5 16q35 4 43 17.5t20.5 29t39 27.5t98.5 14q34 2 51.5 -10 t28 -33.5t15.5 -49t13 -56.5q8 -31 -2 -46.5t-31.5 -23.5t-48 -10t-51.5 -6q-25 -2 -93.5 -10.5t-144 -17.5t-144.5 -16t-91 -9q-39 -76 -81 -191t-86 -247t-86 -274t-82 -279.5t-71.5 -259.5t-50.5 -214q-6 -43 -16 -65.5t-26.5 -28.5t-48.5 0t-85 27q-35 12 -32 34.5 t3 77.5q0 33 5.5 79t14.5 96.5t18 97.5t24 78q12 34 24.5 45.5t25.5 11.5t29.5 -5t39.5 -7q14 55 40.5 140t58.5 182t66.5 199.5t66.5 197t57.5 169t37.5 119.5q-90 -8 -196.5 -23.5t-203.5 -39t-176 -53t-116 -62.5q-37 -35 -57.5 -66.5t-20.5 -70.5t20.5 -95.5 t65.5 -138.5q10 -18 8 -35.5t-12 -23.5t-25.5 -2t-27.5 22z" />
<glyph unicode="U" horiz-adv-x="1939" d="M1661 854q-64 -115 -136.5 -232.5t-142 -224t-135 -195.5t-117.5 -147q-83 -96 -166 -85.5t-133 77.5q-61 49 -103 82t-66.5 73t-35 98t-3.5 155q6 96 34.5 229t75.5 278.5t105.5 293t122.5 274.5q-54 -19 -122.5 -45.5t-141 -55t-137 -62.5t-107.5 -62 q-43 -29 -57.5 -54.5t-13.5 -53.5t13.5 -59.5t24.5 -74.5q4 -23 -4 -31t-22.5 -6t-31 14.5t-28.5 30.5q-39 66 -72 128.5t-39 118.5t25 101t123 74q71 20 161.5 46t180.5 50.5t169 48t128 41.5q26 43 51.5 69t56.5 28t70 -21.5t98 -81.5q33 -31 0 -46t-106 -32 q-84 -143 -155 -315t-120 -345t-77.5 -326.5t-30.5 -250.5q-4 -90 24.5 -146t72.5 -81t94 -14.5t89 57.5q129 152 236.5 309.5t206 327.5t190.5 349t188 372q27 53 41.5 81.5t26.5 46t22.5 32t26.5 41.5q43 61 105.5 35.5t177.5 -126.5q18 -14 4 -32.5t-53 -10.5 q-23 7 -42.5 8t-36 -9.5t-38 -35t-43.5 -71.5q-74 -139 -134.5 -291.5t-106.5 -309.5t-79.5 -311.5t-52.5 -299.5q13 36 23 55.5t21.5 34t20.5 28l21 31.5q10 18 23.5 24.5t24 -1t11.5 -23.5t-12 -43q-12 -27 -27.5 -70t-32.5 -95t-32.5 -105.5t-23.5 -98.5 q-4 -32 -16.5 -50.5t-34 -19.5t-54.5 15t-82 55q-33 27 -43 38.5t-11 21.5t4 21.5t11 39.5q6 66 21.5 147t36 176t45 194.5t51.5 199.5z" />
<glyph unicode="V" horiz-adv-x="1757" d="M952 141q-4 236 -35.5 456t-80 408.5t-102.5 331t-105 213.5q-37 54 -88.5 56t-98.5 -17.5t-80.5 -48.5t-39.5 -31q-13 -10 -30.5 -10t-28.5 6t-11 21.5t20 36.5q62 61 138.5 115.5t138.5 88.5q57 35 105 32t108 -85q76 -110 136 -273t105.5 -351.5t77 -386t49.5 -381.5 q35 69 91.5 174.5t122 222.5t132 234.5t124 217t95.5 166t46 76.5q-12 -4 -25.5 11.5t-26 39t-20.5 51t-8 54.5q0 26 5 32.5t14.5 6.5t25.5 -2t41 2q20 6 45 23.5t46.5 37t40.5 37.5t32 27q14 10 29.5 20t36 7t48 -25.5t66.5 -75.5q33 -47 4 -71.5t-100 -74.5 q-49 -57 -119 -155t-149.5 -222t-163.5 -263.5t-162 -276.5t-141.5 -265t-104.5 -231q14 -47 2 -71.5t-78 -51.5q-30 -18 -51.5 -18t-37 9t-28 22.5t-24.5 29.5q-23 25 -23 46.5t9 37.5q12 19 28 37z" />
<glyph unicode="W" horiz-adv-x="2558" d="M1266 1479q-6 -54 -32 -163.5t-58.5 -236.5t-68.5 -248.5t-60 -199.5q40 57 99.5 140t128 174t138.5 182.5t130.5 167t101.5 128t55 66.5q16 65 29.5 116.5t33 84t45 45t64.5 -1.5q43 -13 75.5 -25t51 -27.5t15.5 -37t-29 -54.5q-31 -33 -47.5 -51t-28.5 -29l-17 -16 q-55 -180 -92 -333.5t-57.5 -286t-25.5 -245t-1 -212.5q8 -140 65.5 -226t135.5 -84q37 0 83 27t83 78q55 80 125.5 210t138.5 284.5t124 319.5t81 314q-55 62 -62.5 168.5t41.5 288.5q45 168 174 12q31 -36 41.5 -78t3 -97.5t-27 -131.5t-47.5 -188q22 -23 31.5 -31 t14.5 -15t11 -15.5t25 -24.5q16 -15 16 -31t-8 -28.5t-21.5 -14.5t-21.5 4q-15 12 -25 19.5t-22 17.5q-11 6 -23 14q-53 -194 -116.5 -372.5t-134 -333t-146.5 -278.5t-146 -206q-30 -28 -65 -33t-66 -1q-36 8 -75 26q-76 23 -139.5 47.5t-111.5 63.5t-78 97t-36 153 q-4 90 0 196.5t17.5 218t35 224t47.5 217.5q-61 -64 -145 -170.5t-171 -228t-165 -245.5t-119 -227q-43 -100 -69.5 -156.5t-47 -85t-40 -41t-47.5 -28.5q-125 -61 -155 -51t1 76q47 100 97 238t98.5 292t89.5 310.5t69.5 293.5t42 243.5t0.5 160.5q-67 -17 -153 -47.5 t-171 -71.5t-165 -83t-137 -83q-35 -23 -50.5 -50.5t-17.5 -58t5 -61.5t22 -57q16 -39 -7.5 -44t-54.5 25q-74 94 -116 151.5t-37 102.5q6 37 42.5 72t120.5 80q80 43 167 74.5t171 60.5t160 52.5t131 51.5q8 9 11 30.5t20.5 32.5t55.5 1t116 -70q35 -26 52.5 -51 t24.5 -52.5t4 -61t-5 -72.5z" />
<glyph unicode="X" horiz-adv-x="1569" d="M969 825q-181 -143 -345.5 -286.5t-267.5 -272.5q-96 -125 -121.5 -194.5t-25.5 -98.5q0 -28 11 -50.5t1 -31.5q-12 -8 -23.5 -6t-31.5 29q-29 33 -54.5 61.5t-40 65.5t-6 79t55.5 101q65 82 158.5 173t204 184.5t229 185.5t235.5 180q-28 162 -49.5 310.5t-36.5 275.5 q-39 -27 -100.5 -56.5t-126 -67.5t-120.5 -79t-89 -82q-25 -31 -29 -63.5t1 -65.5t17.5 -58.5t20.5 -39.5q10 -31 -11.5 -47.5t-43.5 16.5q-125 164 -140.5 256t93.5 170q57 43 119.5 70.5t127 53.5t130 51.5t133.5 66.5q6 33 37.5 75t91.5 76q57 33 75.5 16.5t38.5 -57.5 q15 -45 -3.5 -68.5t-47.5 -41.5q-12 -86 5.5 -249t54.5 -349q139 108 251.5 200.5t184.5 167.5q-21 5 -43.5 16t-38.5 25.5t-26.5 27.5t-2.5 24q9 14 14 15t11 0t14 -1t27 10q14 10 38.5 33.5t51.5 52.5t49.5 56.5t34.5 48.5q10 18 19.5 31.5t21.5 13.5t30.5 -15.5 t51.5 -54.5q53 -59 33.5 -117.5t-103.5 -152.5q-88 -99 -251 -227t-345 -271q23 -106 47.5 -207.5t52 -190.5t55 -161t58.5 -115q39 -63 71 -91t58.5 -33t54 10.5t66.5 33.5q41 19 62.5 -0.5t-15.5 -48.5q-78 -67 -165 -124.5t-158 -57.5q-45 0 -89.5 72.5t-88.5 193.5 t-83.5 278.5t-74.5 325.5z" />
<glyph unicode="Y" horiz-adv-x="1802" d="M317 1044q-41 62 -76.5 124.5t-44 116.5t21.5 101.5t120 73.5q72 27 163 54.5t179 55t166 54.5t127 47q24 45 49 73t54.5 30t70.5 -20.5t98 -76.5q35 -28 6.5 -46.5t-102.5 -39.5q-86 -116 -152.5 -266.5t-112.5 -299t-69.5 -281t-23.5 -214.5q0 -75 18 -118t47 -58.5 t62.5 -5.5t68.5 45q258 260 450.5 552t354.5 628q27 100 64.5 128t113.5 -59q15 -16 19 -36.5t-11.5 -57.5t-50.5 -94t-98 -145q-23 -60 -55.5 -160t-69.5 -225t-80 -265.5t-87 -277.5t-86 -263t-83 -222q-47 -113 -85 -177.5t-92 -74t-138 35t-222 142.5q-24 14 -28 31.5 t5 25.5t27.5 11.5t41.5 -5.5q53 -20 94 -36.5t76.5 -16.5t66.5 21.5t62 76.5q51 97 108 221.5t112.5 267t107.5 297t95 306.5q-63 -113 -134.5 -220.5t-143.5 -202.5t-139.5 -176t-118.5 -132q-41 -43 -71.5 -61.5t-57.5 -18.5t-49.5 15.5t-48.5 41.5q-66 41 -109 65.5 t-66.5 57.5t-31.5 77t-6 126q2 80 26.5 190.5t61.5 234.5t84 250t92 238q-51 -18 -113.5 -44.5t-125 -56.5t-121 -62.5t-99.5 -65.5q-43 -33 -56.5 -58.5t-11.5 -52t15.5 -59.5t25.5 -76q11 -37 -24 -34t-60 46z" />
<glyph unicode="Z" horiz-adv-x="1397" d="M729 625q-80 -119 -151.5 -234t-124.5 -217q63 0 163.5 -8t202 -22.5t186.5 -27t117 -18.5q35 -4 54.5 -4t28.5 5t11.5 11.5t8.5 14.5q12 35 19 42t32 7q14 0 23.5 -2t15.5 -16.5t13 -46t24 -91.5q10 -30 4 -51.5t-21.5 -38t-36 -31t-38.5 -30.5q-21 -17 -40.5 -10.5 t-48.5 18.5q-65 25 -150 49.5t-188.5 48t-221 37t-249.5 13.5q-20 -23 -32.5 -36.5t-27.5 -20.5t-34.5 -8t-52.5 -1q-37 0 -51 5t-41 42q-14 19 -24.5 31t-13.5 23.5t3 24.5t21 34q16 20 29.5 32.5t32.5 18.5t50 6h78q35 59 78 127t88 137q0 66 -6 115t-13.5 82t-7.5 56.5 t17 35.5q22 21 90.5 28t146.5 13q72 100 146.5 198.5t147.5 185.5t141.5 159.5t129.5 124.5q-61 14 -131.5 40.5t-145.5 51t-146.5 43t-133.5 18.5q-69 0 -116 -31.5t-78 -78.5q-37 -70 -80 -171.5t-84 -230.5q-6 -22 -24.5 -34.5t-34 -11.5t-23.5 16.5t-2 48.5 q33 137 79 295.5t116 294.5q28 57 88.5 84.5t117.5 27.5q68 0 165.5 -31.5t201.5 -70.5t205.5 -77t177.5 -46q47 35 88 51t115 -6q35 -10 50 -21.5t17 -23.5t0 -24.5t-2 -26.5q0 -23 -21.5 -55.5t-68.5 -71.5q-45 -37 -79.5 -33t-106.5 20q-49 -24 -112.5 -83.5 t-137.5 -140.5t-155 -180t-160 -206q49 0 107 -2t114.5 -5t111 -5t88.5 -6q19 -2 35.5 -13.5t18.5 -25t-11.5 -24.5t-54.5 -15q-61 -4 -134 -11.5t-143.5 -13.5t-133 -13t-105.5 -13z" />
<glyph unicode="[" horiz-adv-x="913" d="M268 -215q-57 -23 -79.5 10t-8.5 80q6 19 34 107t71 220t96 293.5t109.5 330.5t109.5 331t93 289t69 210t31 93q8 23 20 54.5t30.5 58t42 41t56.5 0.5q43 -19 119 -15t147 4q17 0 24 -11t6 -25.5t-10 -25.5t-28 -11q-65 -2 -108 -12.5t-71 -33t-48.5 -57.5t-36.5 -86 q-8 -18 -33.5 -92t-62.5 -181.5t-80 -238.5t-87 -265t-87 -264t-78 -235.5t-57.5 -176.5t-26.5 -89q-35 -115 -10.5 -170t153.5 -55q19 0 28 -13.5t10 -25.5t-7 -24.5t-27 -12.5q-34 0 -76 1t-83 1t-79 -1t-65 -3z" />
<glyph unicode="\" horiz-adv-x="819" d="M612 326q0 -23 -1 -75t1 -111.5t13.5 -109.5t31.5 -69q17 -8 22 -24.5t-1 -29.5t-26.5 -22.5t-53.5 -7.5l-98 8q-29 0 -54.5 22.5t-21.5 88.5l117 1438q2 24 2 72t-3 98.5t-15.5 90.5t-35.5 54q-34 23 -29 45.5t40 26.5l145 24q29 0 51.5 -18.5t28.5 -83.5z" />
<glyph unicode="]" horiz-adv-x="987" d="M975 1909q55 20 77.5 -10.5t10.5 -77.5q-6 -19 -34 -107t-72 -219t-97 -295t-107.5 -333t-107.5 -329.5t-96 -288.5t-70.5 -211t-32.5 -93q-8 -23 -19 -54.5t-29.5 -58.5t-41 -41t-57.5 -2q-41 21 -117 15.5t-147 -5.5q-17 0 -26 12.5t-8 25.5t10 26.5t30 13.5 q65 0 107 11.5t71 32t48.5 55t41.5 87.5q10 27 50 146t94.5 282.5t116 350t114.5 348.5t90 278.5t45 139.5q33 112 8.5 168.5t-153.5 56.5q-19 0 -28 11t-9 25.5t8 26t23 11.5q34 0 77 -2t86 -2t80 2t64 4z" />
<glyph unicode="^" horiz-adv-x="1192" d="M969 922l-324 686l-326 -686h-151l424 868h106l422 -868h-151z" />
<glyph unicode="_" horiz-adv-x="1343" d="M1331 -354v-125h-1331v125h1331z" />
<glyph unicode="`" horiz-adv-x="430" d="M86 1606q27 12 53.5 10t63.5 -43q18 -21 44.5 -52.5t54.5 -67.5t52.5 -74t38.5 -68q15 -31 -8 -45.5t-49 20.5q-45 55 -93 104.5t-93 84.5q-35 28 -56.5 37.5t-40.5 9.5q-10 0 -23.5 6t-21.5 14t-9 15.5t11 13.5z" />
<glyph unicode="a" horiz-adv-x="958" d="M479 1028q60 55 111 55q39 -4 79 -36.5t99 -85.5q20 -21 6 -36.5t-43 -2.5q-39 18 -77 19t-70 -21q-52 -39 -126.5 -124t-146 -192.5t-129 -229.5t-76.5 -239q-6 -35 7.5 -44t35 -2t47 23.5t42.5 34.5q71 68 152 162t157 193.5t135 188.5t86 147q8 28 21.5 61t21.5 55 q16 60 39 60q12 0 33.5 -14.5t56.5 -38.5q29 -23 32 -41.5t-11 -53.5q-56 -155 -97 -289.5t-67 -267.5q26 27 51.5 56.5t38.5 44.5q22 28 48 21t1 -46q-76 -111 -109.5 -190.5t-54.5 -174.5q-12 -53 -33.5 -53t-83.5 43q-39 29 -42 42.5t1 53.5q11 64 27 138.5t33.5 149.5 t37 142.5t40.5 118.5q-64 -100 -146 -206.5t-161.5 -198.5t-147.5 -159.5t-98 -88.5q-56 -37 -84 -37q-21 0 -37.5 12.5t-34.5 24.5q-39 21 -57.5 52.5t-8.5 95.5q11 94 56 210.5t112.5 236.5t152.5 231.5t181 199.5z" />
<glyph unicode="b" horiz-adv-x="1004" d="M86 152q84 469 187.5 819t202.5 592.5t184 382t139 186.5q35 33 64.5 36t60 -16.5t72.5 -54.5t100 -80q24 -20 7.5 -40.5t-48.5 -4.5q-31 17 -56.5 27t-58.5 2t-69.5 -43t-86.5 -113q-82 -137 -157.5 -304t-140 -358.5t-118 -402.5t-92.5 -426q43 74 94.5 157t110 167 t127 167t152.5 159q43 40 76.5 52.5t59.5 10.5t44 -14.5t35 -22.5q16 -8 36.5 -18.5t37 -29.5t25.5 -47t5 -69q-10 -129 -42.5 -255t-82 -240.5t-112 -211t-127.5 -161.5q-39 -37 -76 -39t-76 21.5t-80 68.5t-84 103q-18 20 -18 35.5t9 20.5t25.5 1t30.5 -19 q66 -55 122.5 -64t113.5 62q39 52 82 132.5t79 177t60.5 200t24.5 197.5q0 47 -29 63.5t-76 -22.5q-78 -68 -161.5 -170t-161.5 -224t-146.5 -257t-109.5 -267q-13 -45 -28 -48t-36 12q-28 18 -51 33.5t-35 30.5t-14 41t6 65z" />
<glyph unicode="c" horiz-adv-x="686" d="M498 -8q-25 -27 -53.5 -30t-43.5 -3q-39 0 -65 8q-17 2 -37 10q-117 7 -191.5 76.5t-68.5 194.5q2 61 26.5 164.5t66.5 215t96.5 217t109.5 169.5q24 26 43.5 40.5t41 13.5t52.5 -15.5t80 -40.5q25 10 61.5 15t68.5 1t54.5 -19.5t22.5 -50.5q0 -106 -17.5 -190 t-37.5 -135q-19 -35 -35.5 -35t-38.5 12q-62 35 -70 54.5t15 35.5q14 39 28.5 95.5t9.5 99.5q-4 57 -57 57q-12 0 -25.5 4.5t-30 0t-39 -20.5t-56.5 -62q-39 -55 -76 -124.5t-64.5 -143.5t-46 -139.5t-26.5 -104.5q-29 -167 4.5 -248t107.5 -79q35 0 80 30.5t89 73.5t86 90 t69 82q24 31 43.5 24t5.5 -44q-12 -25 -33.5 -67t-48.5 -84t-53.5 -83t-46.5 -65z" />
<glyph unicode="d" horiz-adv-x="1034" d="M-16 150q14 94 60 210.5t113.5 236.5t152.5 231.5t184 199.5q57 55 108 55q39 -4 81 -36.5t99 -85.5q21 -21 6.5 -36.5t-40.5 -2.5q-39 18 -77 19t-73 -21q-49 -39 -124 -124t-145.5 -192.5t-126 -229.5t-73.5 -239q-4 -35 9.5 -44t35 -2t46 23.5t40.5 34.5 q74 68 155 162t156.5 193.5t136 188.5t83.5 147q10 28 23 61t20 59q73 267 152 469.5t149.5 348t129 232.5t99.5 124q31 33 59.5 36t62.5 -16.5t76 -54.5t97 -80q27 -20 9.5 -40.5t-50.5 -4.5q-29 17 -56.5 27t-60.5 2t-68.5 -43t-82.5 -113q-82 -137 -160 -309 t-144.5 -372.5t-122 -422t-96.5 -450.5q66 59 93.5 100t48.5 41q14 0 16 -11t-10 -30q-78 -108 -113 -191t-51 -182q-14 -45 -31.5 -48t-38.5 12q-26 18 -47.5 33.5t-34 30.5t-15.5 41t5 65q23 120 45.5 232t46.5 214q-61 -92 -139 -187.5t-149.5 -178t-134 -144 t-97.5 -86.5q-53 -37 -84 -37q-20 0 -35.5 12.5t-35.5 24.5q-35 21 -62 52.5t-20 95.5z" />
<glyph unicode="e" horiz-adv-x="762" d="M39 203q12 82 33.5 178t60.5 217q-35 14 -44 30.5t-2 23.5t24.5 7t44.5 -10q43 92 93 193.5t113 177.5q31 39 56.5 55.5t50.5 16.5t51.5 -11.5t59.5 -25.5q-5 35 6.5 40t77.5 5q30 0 42.5 -4t12.5 -12.5t-4 -22.5t-4 -37q0 -94 3 -162.5t-2 -119t-24.5 -85t-62.5 -65.5 q-47 -37 -97.5 -49.5t-97.5 -9t-89 12.5t-75 15q-8 -12 -22.5 -55t-27.5 -101.5t-24.5 -127t-9.5 -136.5q0 -45 17.5 -61.5t66.5 2.5q45 16 89 40.5t93.5 62.5t106.5 93.5t131 129.5q31 28 52.5 10.5t-7.5 -47.5q-139 -183 -229 -273t-153.5 -117.5t-112 -4t-103.5 74.5 q-16 6 -35.5 16.5t-35 26t-22.5 42t-1 67.5zM383 606q37 -2 75 1t83 48q20 25 29.5 57.5t11.5 71.5t0 80t-2 80q0 31 -10.5 48.5t-53.5 -17.5q-57 -45 -113.5 -131t-109.5 -230q14 -2 29 -4q14 -4 30.5 -4h30.5z" />
<glyph unicode="f" horiz-adv-x="610" d="M293 928q-49 -4 -78 -5t-44 0t-24.5 7t-13.5 18q-10 21 -15 38.5t42 31.5q65 18 117.5 27.5t64.5 41.5q113 322 191.5 520.5t137 305t103.5 144.5t86 38q53 0 121 -38t164 -105q35 -27 15.5 -48.5t-54.5 -2.5q-51 28 -106.5 38.5t-102.5 -18.5q-70 -45 -173 -266 t-239 -602q66 -13 141.5 -23t125.5 -10q32 0 30 -23.5t-30 -29.5q-58 -15 -147 -23t-163 -14q-106 -318 -179 -581t-115 -461.5t-56 -324.5t-6 -167q8 -60 -4 -69t-98 44q-31 19 -48.5 36.5t-23.5 31.5t-6 28.5t4 24.5q29 154 69.5 330t92 361.5t106.5 373.5t115 371z" />
<glyph unicode="g" horiz-adv-x="913" d="M23 217q4 90 39.5 201.5t92 223.5t122 210t131.5 160q55 51 97 64.5t80 -2t75.5 -49.5t80.5 -75q33 -28 14.5 -48.5t-69.5 3.5q-45 27 -91 21t-83 -39q-43 -37 -96.5 -108.5t-102.5 -161t-88 -186.5t-53 -189q-12 -90 -2 -127t32.5 -44.5t48 5t42.5 24.5 q80 72 159.5 174.5t147.5 213t120 221t81 200.5q16 52 19 82.5t3 48.5q0 56 25.5 53t93.5 -57q31 -22 32 -57t-5 -59q-29 -148 -74 -359t-107.5 -440.5t-147.5 -456.5t-191.5 -409.5t-234.5 -294t-284 -111.5q-106 0 -231 60.5t-266 193.5q-23 18 -25 37.5t7.5 33t26.5 14.5 t38 -13q96 -84 181 -132.5t198 -48.5q110 0 209.5 64.5t183.5 178.5t156.5 267.5t135 326.5t114 361.5t94.5 374.5q-72 -125 -131.5 -214t-104.5 -152.5t-81 -103.5t-62 -64q-56 -56 -104 -66t-128 51q-63 33 -93 76t-25 123z" />
<glyph unicode="h" horiz-adv-x="1004" d="M82 152q86 469 190.5 819t203.5 592.5t184 382t139 186.5q32 33 61 36t61.5 -16.5t73.5 -54.5t97 -80q28 -20 11.5 -40.5t-50.5 -4.5q-31 17 -57.5 27t-58.5 2t-67.5 -43t-85.5 -113q-82 -137 -157.5 -304t-140 -356.5t-118 -392t-92.5 -411.5q66 127 137.5 232.5 t136 188.5t120 139t92.5 89q35 33 54.5 45t34.5 8t28.5 -14t33.5 -22q25 -11 47.5 -19t38 -25.5t22.5 -50t1 -92.5q-8 -86 -21.5 -158.5t-31 -139t-37 -130t-43.5 -133.5q41 55 66.5 90t62.5 72q35 37 44 17.5t-13 -56.5q-9 -12 -33.5 -49t-55 -85t-61.5 -99.5t-49 -88.5 q-23 -39 -28 -52t-8 -17t-3 -8.5t-12 -30.5q-11 -27 -25 -35t-30.5 -5t-36 12t-39.5 24q-37 20 -34 33.5t11 31.5q39 103 79 211.5t75 218t56.5 213t25.5 197.5q4 43 -3.5 59.5t-19.5 16.5t-29.5 -12.5t-40.5 -28.5q-34 -31 -100.5 -103.5t-145.5 -183.5t-159 -252 t-139 -301q-13 -37 -23 -57.5t-25.5 -23.5t-37 11.5t-54.5 42.5q-24 21 -24 46.5t2 44.5z" />
<glyph unicode="i" horiz-adv-x="498" d="M16 61q35 64 77 176.5t79 236.5t61.5 237.5t30.5 181.5q4 57 -10 57t-43 -28l-82 -76q-23 -21 -37 -14.5t6 36.5q37 52 70 89.5t61 72.5q25 27 45.5 23t55.5 -29q20 -4 40.5 -9t36 -17.5t18.5 -39t-3 -73.5q-10 -54 -31.5 -141t-48.5 -175t-50.5 -161.5t-33.5 -108.5 q35 31 59.5 62.5t44.5 62.5q15 18 26 11t-3 -36q-12 -28 -47 -80.5t-62 -97.5q-12 -20 -31.5 -53t-34.5 -65.5t-28.5 -62.5t-19.5 -40q-6 -23 -35 -31t-92 31q-31 16 -34 24.5t15 36.5zM303 1325q66 57 97.5 88t60.5 62q12 16 20 25t22.5 9t37 -13t63.5 -44q43 -31 5 -70 t-97 -82q-47 -30 -73.5 -36.5t-67.5 2.5q-29 4 -41.5 10t-26.5 16q-12 13 -16 26t16 7z" />
<glyph unicode="j" horiz-adv-x="483" d="M346 1325q70 39 98.5 79t55.5 71q12 16 21 25t23.5 9t37 -13t63.5 -44q23 -14 23 -31.5t-15.5 -37t-42 -40t-55.5 -43.5q-47 -30 -74.5 -38.5t-70.5 4.5q-27 4 -40.5 10t-27.5 16q-12 13 -14 26t18 7zM438 899q-30 -145 -76.5 -355t-113 -438.5t-149.5 -452.5 t-188.5 -403.5t-234.5 -290t-282 -110.5q-109 0 -232 60.5t-268 193.5q-20 18 -22 37.5t7 33t26.5 14.5t33.5 -13q100 -84 185 -132.5t196 -48.5q113 0 211 64.5t183 178.5t158 267.5t135.5 326.5t113.5 362.5t94 375.5q18 86 34.5 164t29.5 164q-56 -55 -97 -103.5 t-73 -82.5q-31 -29 -49.5 -6.5t3.5 53.5q52 65 94 111t97 118q10 14 15 18.5t5 16.5q0 104 142 -4q28 -23 28 -56.5t-6 -62.5z" />
<glyph unicode="k" horiz-adv-x="801" d="M94 152q84 469 187.5 819t204 592.5t186.5 382t135 186.5q35 33 63.5 36t62.5 -16.5t74 -54.5t95 -80q28 -20 12 -40.5t-51 -4.5q-31 17 -56.5 27t-58.5 2t-69.5 -43t-85.5 -113q-82 -137 -157 -304t-139.5 -358.5t-117.5 -401.5t-88 -425q16 37 39 78q18 35 44.5 78 t57.5 86q-8 25 -12 40t1 26.5t23.5 19.5t61.5 16q35 52 72.5 103t76.5 98t76 85t66 61q49 43 73.5 29.5t69.5 -62.5q64 -27 82 -51.5t6 -88.5q-14 -55 -30.5 -104t-39.5 -86q-20 -37 -38.5 -42t-67.5 13q-72 27 -74 48.5t23 29.5q14 12 25.5 36t19.5 52.5t14 54t8 44.5 q2 30 -12 30t-37 -12q-37 -31 -74.5 -71t-70.5 -84t-58.5 -84t-40.5 -62q37 -119 86.5 -236.5t107.5 -222t121.5 -184.5t133.5 -121q41 -25 80 -17.5t57 27.5q33 35 52.5 24t-1.5 -44q-18 -31 -39.5 -62.5t-46 -59.5t-51 -47.5t-57.5 -19.5q-45 0 -114.5 68t-146.5 178.5 t-155 252.5t-137 292q-33 -41 -66.5 -97.5t-62.5 -118t-52.5 -120.5t-31.5 -111q-14 -53 -25.5 -57t-40.5 8q-51 23 -74.5 40.5t-28.5 35.5t0 43t11 64z" />
<glyph unicode="l" horiz-adv-x="489" d="M266 291q62 59 89.5 100t47.5 41q17 0 19 -11t-12 -30q-76 -108 -111 -191t-55 -182q-13 -45 -28 -48t-36 12q-28 18 -51 33.5t-35 30.5t-14 41t6 65q84 469 187.5 819t202.5 592.5t184 382t137 186.5q41 35 77 35q41 -2 90.5 -45t127.5 -105q28 -20 11.5 -40.5 t-50.5 -4.5q-31 17 -57.5 27t-58.5 2t-69 -43t-86 -113q-82 -137 -157.5 -304t-140 -358.5t-117 -401.5t-88.5 -425q-5 -18 -6 -32.5t-7 -32.5z" />
<glyph unicode="m" horiz-adv-x="1616" d="M205 35q-15 -33 -24 -50.5t-31 -7.5q-23 7 -47.5 23t-47.5 33q-22 12 -19 26.5t27 40.5q15 29 36.5 90.5t42 137t42 163t38 171t24.5 159.5t6 129q-31 -28 -66.5 -63t-70.5 -70q-17 -16 -29 -16t-17.5 9t-2 24.5t13.5 27.5t27.5 31.5t38 44.5t42 52.5t35.5 49.5 q17 25 30 32t25.5 3t22.5 -15t25 -24q20 -8 38.5 -13t31 -13.5t18.5 -22.5t2 -45q-6 -29 -14.5 -84t-20.5 -119.5t-29.5 -133t-36.5 -132.5q33 64 81 142.5t105.5 159.5t119 158t120.5 130q33 29 61.5 22.5t76.5 -32.5q61 -29 75.5 -49.5t14.5 -65.5v-69t-5.5 -106.5 t-18.5 -138t-38 -159.5q107 168 216.5 319.5t244.5 278.5q37 35 74 24.5t80 -51.5q14 -4 31.5 -8t31.5 -17.5t25.5 -36t7.5 -61.5q-2 -39 -10.5 -106.5t-23.5 -149.5t-40.5 -173t-60.5 -177q28 35 53 65.5t49 65.5q10 21 23.5 26t23.5 1t12.5 -17.5t-14.5 -31.5 q-18 -31 -48 -81t-64.5 -109.5t-71.5 -126t-68 -130.5q-12 -22 -19 -30.5t-54 8.5q-66 18 -82.5 31.5t4.5 62.5q49 111 93 236.5t75.5 246.5t48 224.5t16.5 173.5q0 36 -23.5 43.5t-60.5 -23.5q-43 -35 -121.5 -128t-164.5 -221t-167 -279.5t-130 -303.5q-13 -37 -22 -37 t-32 9q-22 8 -39.5 15t-44.5 30q-26 18 -20 34.5t20 44.5q86 224 128 424.5t42 401.5q0 47 -22.5 44t-42.5 -26q-74 -61 -155 -167.5t-156.5 -233.5t-140 -263t-103.5 -251z" />
<glyph unicode="n" horiz-adv-x="1020" d="M641 63q41 84 81 197t71.5 231.5t49 227t11.5 182.5q-4 66 -27.5 58.5t-50.5 -31.5q-143 -140 -286.5 -344.5t-278.5 -511.5q-12 -29 -26.5 -45.5t-33 -20.5t-44 4t-62.5 29q-29 12 -28 21.5t16 35.5q33 76 73.5 187.5t74.5 230.5t59.5 233.5t31.5 194.5q4 51 -2 47 t-37 -35q-16 -14 -33.5 -30.5t-29.5 -28.5q-14 -16 -35 -33q-20 -16 -38.5 -8t7.5 35q13 12 33.5 36.5t41 51.5t40 52.5t33.5 37.5q51 53 94 -23q39 -14 72 -30.5t26 -65.5q-2 -26 -17 -86.5t-35.5 -136.5t-46.5 -153.5t-46 -139.5q43 80 110.5 181.5t140.5 192.5 t141.5 158.5t107.5 88.5q45 18 61.5 16t48.5 -29q41 -12 76 -34.5t33 -90.5q0 -49 -13.5 -128.5t-32 -161.5t-35.5 -154t-30 -106q29 28 54.5 66t42.5 58q18 23 33.5 9.5t2.5 -35.5q-4 -10 -30.5 -50t-58 -92.5t-64.5 -106.5t-49 -93q-23 -55 -34 -89t-23.5 -53.5t-36 -19.5 t-68.5 23q-51 20 -51 36.5t16 44.5z" />
<glyph unicode="o" horiz-adv-x="776" d="M311 -23q-57 3 -108 22t-90 54t-59.5 84t-18.5 111q4 61 29.5 165.5t66.5 218t94.5 218t110.5 170.5q22 27 42.5 42t44 12t56.5 -23.5t82 -65.5q23 8 36 13.5t22.5 10.5t21.5 10t33 13q28 12 49.5 16.5t41 -4t40 -30t47.5 -62.5q41 -63 37 -129q0 -20 -11.5 -106 t-44 -202t-91 -242t-148.5 -226q-51 -51 -86 -69.5t-96 -18.5q-17 0 -35.5 1t-30.5 7q-18 2 -35 10zM479 862q-28 -12 -37.5 -14t-21.5 26q-43 -55 -78 -124.5t-61.5 -141t-46 -139.5t-25.5 -107q-31 -167 4 -248t104 -79q45 4 107 39q55 41 108.5 119.5t96.5 178t71.5 207 t38.5 205.5q6 54 9.5 88.5t-2 53t-20.5 22.5t-44 -4q-45 -16 -84 -35q-37 -12 -70.5 -26.5t-48.5 -20.5z" />
<glyph unicode="p" horiz-adv-x="973" d="M487 113q60 -25 118.5 2.5t105.5 105.5q22 39 56 114t63.5 166t48 189t14.5 187q-4 43 -18.5 59t-37 15t-48 -16t-50.5 -40q-63 -61 -142 -148.5t-160 -206t-157.5 -271t-132.5 -339.5q-57 -184 -86.5 -326.5t-44 -261t-20.5 -228t-14 -224.5q-2 -31 -8.5 -46 t-19.5 -18.5t-36.5 11t-64.5 53.5q-21 18 -28 36.5t-11 37.5q-2 18 0 41q20 247 70 500t111.5 490.5t132.5 449.5t132.5 379t112.5 278.5t73 148.5q35 54 63 80.5t62 26.5q35 -2 83 -24.5t126 -73.5q31 -21 17.5 -36.5t-39.5 -9.5q-72 17 -116 -17t-95 -118 q-29 -39 -62.5 -111.5t-69.5 -155.5t-67 -166t-49 -140q113 180 234.5 317.5t211.5 216.5q29 25 49.5 31t36 1t29.5 -16.5t27 -19.5q98 -35 134 -89t32 -146q-9 -117 -40.5 -240t-75.5 -233.5t-94 -195.5t-91 -124q-37 -35 -72 -44t-72 2t-75.5 34t-86.5 55q-20 17 -23 30 t4 22.5t22.5 11.5t37.5 -6z" />
<glyph unicode="q" horiz-adv-x="860" d="M8 178q4 101 39 215.5t85 224t112.5 202.5t124.5 153q57 57 104 71.5t90 0t84 -50.5t90 -79q33 -28 13.5 -40.5t-52.5 2.5q-39 16 -69.5 24t-60 6t-62.5 -24.5t-72 -71.5q-41 -47 -90 -124t-90 -168t-69.5 -185t-28.5 -182q0 -70 41 -88.5t102 40.5q80 74 149.5 171.5 t127 192.5t99.5 174t56 120q37 76 51.5 123t20.5 76q8 22 8 52.5t23 33.5q12 0 37.5 -13.5t66.5 -50.5q37 -35 15.5 -87t-56.5 -128q-31 -76 -65.5 -177.5t-67.5 -209t-61.5 -218t-53 -207.5t-41 -172t-24.5 -112q37 72 67.5 121t50.5 80q13 14 26 18.5t26.5 -1t16.5 -19.5 t-7 -35q-35 -57 -75 -136t-79 -188.5t-68.5 -253t-37.5 -327.5q-4 -53 -7 -84t-18.5 -36t-45.5 17.5t-79 75.5q-20 21 -28.5 43.5t-7.5 51t9.5 70.5t14.5 100q27 163 65.5 351.5t81.5 359.5t78 300t49 170q-26 -51 -68 -105.5t-84 -104.5t-82 -91t-73 -65q-22 -17 -43.5 -20 t-41 5t-35 17.5t-21.5 15.5q-78 29 -121 62.5t-39 113.5z" />
<glyph unicode="r" horiz-adv-x="821" d="M121 752q51 67 93 119.5t77 113.5q31 62 60.5 58.5t99.5 -37.5q22 -13 26 -23t-14 -33q-17 -20 -45.5 -95t-62 -170t-62.5 -192.5t-41 -156.5q78 176 183.5 359.5t217.5 334.5q35 47 57.5 56.5t73.5 -29.5q47 -4 70 -15.5t23 -62.5q0 -29 -3.5 -69t-8.5 -84t-14 -89 t-20 -84q-8 -32 -21 -41.5t-29.5 -4.5t-34 19.5t-35.5 30.5q-23 17 -25 29t8 45q17 49 27 98.5t10 92.5q0 61 -59 -23q-56 -68 -111 -156t-110.5 -189t-103.5 -215t-81 -230q-22 -66 -33.5 -97.5t-28 -39t-42 6t-72.5 37.5q-29 17 -33 33.5t4 50.5q39 176 91.5 365.5 t130.5 394.5q-50 -49 -80.5 -84t-42.5 -55q-8 -10 -20.5 -12t-21.5 2t-10.5 13t13.5 28z" />
<glyph unicode="s" horiz-adv-x="573" d="M295 190q31 58 10.5 140t-55.5 173t-67.5 176t-26.5 146q2 60 37.5 101t84 66.5t97.5 38.5t80 22q18 4 28.5 -14.5t-20.5 -32.5q-47 -21 -78 -41.5t-47 -45t-16 -60.5t14 -91q14 -66 35.5 -129.5t42 -123.5t35 -116.5t14.5 -103.5q2 -70 -35 -125t-137 -88 q-19 -43 -42.5 -74t-88.5 -39q-37 -4 -80 4q-62 9 -93.5 13t-49 8t-25.5 5t-21 3q-14 2 -24 13.5t-14 25.5q4 12 18 24.5t55 16.5q76 8 142.5 16t113.5 15q33 4 54.5 16t35.5 27q13 14 23 34zM496 823q16 70 22 100.5t0 77.5q-6 27 -3 40.5t34 23.5q2 2 22.5 13.5t43 16.5 t40 -5.5t17.5 -49.5q0 -16 -4 -43.5t-9.5 -55.5t-11.5 -51.5t-6 -35.5q-16 -51 -29.5 -58.5t-42.5 -19.5q-41 -14 -65.5 -15t-7.5 62z" />
<glyph unicode="t" horiz-adv-x="664" d="M330 1079q78 238 134 377t85 182q18 29 35.5 47.5t44 23.5t64.5 -7t98 -43q16 -8 25 -21.5t9 -22.5t-9 -14.5t-34 -1.5q-55 13 -133 -106q-26 -41 -71.5 -148.5t-100.5 -269.5q-6 -18 -9 -28.5t36 -16.5q45 -2 107.5 -1t97.5 7q18 0 30.5 -9t13.5 -21.5t-7.5 -25.5 t-26.5 -17q-21 -2 -58.5 -6.5t-79.5 -6.5t-82 -5t-67 -5q-61 -182 -114.5 -376.5t-75.5 -395.5q-11 -102 42.5 -68.5t188.5 164.5q35 31 56.5 16.5t-5.5 -47.5q-39 -53 -68.5 -88.5t-53 -62.5t-44 -45.5t-41.5 -38.5q-45 -43 -73.5 -42t-85.5 46q-11 2 -26 8t-26.5 15.5 t-18.5 28t-1 46.5q37 254 86 449.5t102 378.5q-43 4 -65.5 8t-58.5 8q-27 6 -26 34t28 36q26 8 43.5 11t52.5 15q16 7 30.5 15t28.5 12q12 8 23 12z" />
<glyph unicode="u" horiz-adv-x="1034" d="M88 125q8 78 21.5 165t32 170t40 155.5t41.5 125.5q-28 -20 -39.5 -33.5t-25.5 -25.5q-17 -14 -27 -7t4 27q25 37 39 58.5t22.5 36t12.5 21.5t8 20q25 61 46.5 98t39.5 59q12 11 22.5 20t27 9t42 -9t60.5 -32q30 -20 15 -36.5t-26 -31.5q-28 -45 -65 -139t-71 -208.5 t-58.5 -232.5t-24.5 -208q0 -107 92 -6q37 39 86.5 104.5t100.5 141t102 156.5t93 149.5t72 120t40 69.5q23 58 50.5 103t43.5 55q27 18 50.5 15t72.5 -34q27 -16 34 -24t5 -12t-8 -8.5t-12 -14.5q-89 -162 -155.5 -361.5t-103.5 -392.5q23 45 48.5 91.5t40.5 70.5 q10 29 30.5 17.5t5.5 -39.5q-32 -72 -64 -152t-46 -141q-15 -62 -38.5 -65t-105.5 50q-28 23 -31 42.5t5 60.5q12 51 25.5 113.5t31 129t34.5 130t40 118.5q-53 -86 -103.5 -164.5t-99.5 -152.5t-103.5 -144.5t-115.5 -140.5q-39 -45 -80 -44t-88 32q-53 10 -72.5 33.5 t-13.5 91.5z" />
<glyph unicode="v" horiz-adv-x="891" d="M944 940q-16 -55 -40.5 -105.5t-33.5 -70.5q15 -33 30 -51.5t30 -36.5q8 -10 1 -20.5t-22.5 -14.5t-36 0t-36.5 25q-39 -95 -91.5 -198t-102.5 -198.5t-94 -165t-71 -96.5q-53 -53 -94 -42t-64 32q-55 -25 -86.5 -19.5t-54.5 76.5q-20 72 -28.5 179.5t-4 217t16.5 209 t33 154.5q-39 -39 -64 -66.5t-45 -48.5q-12 -12 -25.5 -14t-21.5 2t-10 16.5t12 28.5q53 70 111.5 149t91.5 132q39 51 74.5 47t113.5 -64q29 -22 14.5 -44.5t-45.5 -32.5q-45 -95 -71.5 -206.5t-36.5 -221t-2 -211t35 -175.5q12 -36 34.5 -40.5t61.5 43.5q51 73 103.5 163 t93 178.5t71.5 165t43 123.5q-16 31 -15 102.5t56 213.5q17 37 34 50t37.5 10t41 -15.5t43.5 -24.5q33 -20 33 -47t-19 -88z" />
<glyph unicode="w" horiz-adv-x="1094" d="M53 791q21 28 54.5 73t60.5 94q27 52 61.5 62t98.5 24q51 13 59 -6.5t8 -101.5q0 -74 -6 -169t-18.5 -194.5t-28.5 -190.5t-35 -159q47 49 96.5 105.5t93.5 117t78.5 120t55.5 114.5q10 92 22.5 175t53.5 155q34 59 69 54t94 -44q37 -27 36 -44.5t-19 -70.5 q-21 -53 -48.5 -106.5t-47.5 -81.5q-15 -92 -15 -177t8.5 -159t21.5 -136.5t25 -103.5q13 -55 35.5 -57t61.5 68q24 57 60 127.5t72 147.5t63.5 152.5t41.5 137.5q-8 14 -21.5 29.5t-22.5 31t-10 40t15 61.5q9 22 14 48.5t10 54.5t12 47.5t22 33.5q20 12 52 8t89 -35 q37 -22 39 -59t-10.5 -80t-33 -85t-30.5 -73q21 -14 28 -22t11 -13.5t9 -11.5t24 -20q14 -17 15 -33t-6 -28.5t-21.5 -14.5t-28.5 8q-33 25 -47 33l-17 8q-32 -90 -72 -183t-79 -178t-74 -153t-53 -98q-47 -66 -85 -65t-97 24q-29 8 -47.5 14t-28.5 17.5t-15.5 29 t-13.5 45.5q-8 35 -18 84t-19.5 102.5t-15.5 105.5t-6 91q-43 -61 -99.5 -131.5t-112.5 -136.5t-102.5 -122t-70.5 -93q-17 -25 -38.5 -27t-42 8.5t-42 24.5t-37.5 29q-31 20 -15.5 40.5t50.5 47.5q27 80 51.5 192.5t37.5 226t16 212t-7 147.5q-26 -25 -59 -68t-56 -71 q-10 -19 -25 -21t-24.5 5.5t-11.5 18.5t8 28z" />
<glyph unicode="x" horiz-adv-x="815" d="M-252 -293q0 55 51 144.5t132 195t186.5 219t218.5 215.5q-17 60 -35 123.5t-37.5 119.5t-36 97t-26.5 58q-23 28 -41.5 31t-61.5 -25q-28 -23 -43.5 -5.5t19.5 44.5q47 30 93 63t85 51q27 17 54.5 22t41.5 -46q17 -51 35 -110.5t34.5 -117t29 -105.5t18.5 -71 q76 76 143.5 148.5t120.5 136t85 119t36 104.5q0 17 1 25t0 14t-4 14.5t-9 22.5q-11 20 2.5 29.5t27.5 -9.5q29 -34 52.5 -68t35 -70t2 -72.5t-44.5 -79.5q-36 -43 -100.5 -104.5t-130.5 -124t-121 -115t-74 -76.5q29 -113 51.5 -202t51.5 -146q14 -33 28.5 -45.5t31 -11.5 t32.5 12.5t33 23.5q26 23 43.5 5.5t-0.5 -42.5q-39 -41 -86 -87t-94 -52q-29 -4 -59 14.5t-50 71.5q-53 135 -75.5 226t-31.5 122q-75 -78 -161 -178t-161 -205.5t-126 -205t-55 -177.5q-6 -71 20 -112q23 -31 7.5 -44.5t-42.5 15.5q-22 29 -40.5 52.5t-31 47t-18.5 52 t-6 69.5z" />
<glyph unicode="y" horiz-adv-x="1049" d="M1010 899q-31 -145 -78 -355t-112.5 -438.5t-149.5 -452.5t-188.5 -403.5t-232.5 -290t-284 -110.5q-108 0 -232 60.5t-270 193.5q-18 18 -20 37.5t6 33t25.5 14.5t38.5 -13q96 -84 183 -132.5t195 -48.5q111 0 210.5 64.5t185.5 178.5t158.5 267.5t136 328.5t115 363.5 t91.5 378.5q9 37 16 73t13 73q-69 -115 -148 -227.5t-156 -210t-145.5 -173t-111.5 -112.5q-41 -33 -64.5 -39t-43 2t-37 32.5t-45.5 57.5q-23 27 -9 43q9 6 21 10q35 48 63.5 149t51 217t37 230.5t22.5 188.5q2 33 -4 42t-16.5 4t-23.5 -19.5t-30 -26.5 q-28 -23 -46.5 -40.5t-33.5 -29.5q-18 -12 -31.5 -2t3.5 33q20 29 43.5 59.5t54.5 75.5q22 33 37.5 55.5t29 32.5t29 8t45.5 -14q33 4 57.5 8t39 -3t18.5 -28.5t2 -68.5q-4 -74 -24.5 -196t-47 -250t-53.5 -237.5t-45 -150.5q43 33 99.5 97.5t119 142.5t121.5 164t110.5 167 t88 153.5t51.5 119.5q0 45 10 65.5t26.5 20.5t42 -13.5t60.5 -39.5q29 -23 29 -56.5t-4 -62.5z" />
<glyph unicode="z" horiz-adv-x="821" d="M63 188q52 56 95 109t71 98q-8 56 -19 92.5t1 59.5q12 20 55 29.5t111 9.5q24 35 58 75.5t65.5 80.5t60.5 72t43 54q-53 13 -116.5 21t-118.5 8q-82 0 -130.5 -30.5t-91.5 -118.5q-22 -37 -41.5 -32t-7.5 48q23 63 43.5 117.5t48.5 105.5q13 19 20 34t22.5 24.5t39 14.5 t64.5 5q53 0 148.5 -16.5t254.5 -53.5q37 29 54.5 41.5t50.5 -0.5q26 -16 26 -41q0 -14 -7 -42.5t-27 -73.5q-17 -41 -41.5 -43t-85.5 14q-23 -23 -50.5 -52.5t-58.5 -66.5t-59.5 -73.5t-53.5 -67.5q54 0 107 4t86 4q31 0 33 -17.5t-29 -25.5q-35 -6 -79 -16.5t-86 -22.5 t-80 -24.5t-56 -22.5q-25 -33 -56.5 -77t-60 -86t-50 -76.5t-30.5 -51.5q37 0 92.5 -6t114 -13t114.5 -14.5t99 -7.5q60 0 82.5 20.5t42.5 53.5q21 29 36 17.5t3 -40.5q-16 -41 -35.5 -77.5t-42.5 -71.5q-26 -51 -53 -66.5t-80 -15.5q-47 0 -99 13.5t-108.5 30.5t-114 30.5 t-110.5 13.5h-29t-26 -2q-15 -27 -37.5 -54.5t-42.5 -29.5q-10 0 -23.5 7t-27.5 34q-19 31 -27 65.5t27 69.5q18 23 39.5 33t39.5 14q23 6 43 6z" />
<glyph unicode="{" horiz-adv-x="936" d="M1012 1890q75 -2 148 -47t132 -88q21 -16 21 -31q0 -12 -13.5 -21t-31.5 -9q-15 0 -23 2q-51 20 -92 35.5t-76 15.5q-45 0 -85 -46t-87 -124q-55 -94 -98 -216t-90 -255q-10 -29 -31.5 -62.5t-52.5 -64.5t-72 -54.5t-82 -27.5q45 -37 62.5 -96.5t17.5 -116.5 q0 -39 -5 -74t-11 -59q-11 -47 -24 -89t-26.5 -84t-26.5 -89t-22 -107q-6 -20 -6 -39.5v-42.5q0 -53 15.5 -92t41 -66.5t64.5 -48t90 -43.5q19 -8 26 -19t7 -26q0 -14 -8 -22t-25 -8q-8 0 -12 2q-105 22 -175.5 46.5t-114.5 56.5t-63.5 75t-19.5 100q0 15 1 30t3 36 q15 94 52.5 231t82.5 307q13 35 13 70q0 53 -30 87t-87 71q-31 22 -31 49q0 16 25 25q26 12 47.5 16t42.5 14q43 21 73.5 39.5t53 45t41 63.5t41.5 98q41 119 75.5 222.5t84.5 189.5q63 110 120.5 175.5t133.5 65.5h6z" />
<glyph unicode="|" horiz-adv-x="469" d="M190 -575v2422h136v-2422h-136z" />
<glyph unicode="}" horiz-adv-x="1065" d="M209 -233q-76 2 -148.5 47t-134.5 90q-20 16 -20 30q0 13 14 22t33 9q12 0 20 -4q54 -20 93.5 -35.5t74.5 -15.5q45 0 85 46t89 124q56 92 98 214t93 257q10 27 31.5 61.5t52.5 65.5t69.5 53.5t81.5 28.5q-43 37 -59 95t-16 118q0 39 4 74.5t10 58.5q8 47 23.5 88 t28.5 84t26.5 89t21.5 106q8 40 8 81q0 107 -56 158t-157 94q-32 15 -32 43q0 15 8 24t24 9q9 0 15 -2q102 -25 173 -49.5t115 -57t63.5 -74.5t19.5 -102q0 -12 -1.5 -28.5t-5.5 -34.5q-12 -96 -52 -233.5t-85 -307.5q-6 -20 -8 -36.5t-2 -32.5q0 -54 29.5 -87.5t85.5 -68.5 q30 -27 30 -47q0 -19 -22 -29q-29 -10 -49.5 -14t-42.5 -14q-45 -23 -75 -40.5t-52.5 -43t-42 -63.5t-39.5 -97q-43 -121 -78 -223.5t-82 -188.5q-61 -112 -119.5 -176.5t-136.5 -64.5h-4z" />
<glyph unicode="~" horiz-adv-x="995" d="M1038 803q-20 -123 -82.5 -209t-181.5 -86q-65 0 -122.5 29.5t-119.5 74.5q-38 29 -81 50.5t-78 21.5q-74 0 -111 -47t-63 -139l-93 41q9 41 25 93t47 96t78 73.5t121 29.5q65 0 121.5 -28.5t103.5 -65.5q57 -43 100 -61.5t82 -18.5q62 0 99 47.5t65 133.5z" />
<glyph unicode="&#xa1;" horiz-adv-x="838" d="M231 41q-18 -33 -31.5 -47t-25.5 -19.5t-22.5 -1.5t-26.5 9q-70 18 -98.5 34.5t-32.5 30.5t10 22.5t35 10.5q61 108 125.5 250.5t123 293t107.5 298t82 268.5q4 22 7 49t-11 47q-12 23 11.5 28t70.5 -34q43 -29 54.5 -47.5t-3.5 -75.5q-39 -176 -97 -364.5t-115.5 -345 t-103.5 -269t-59 -137.5zM602 1776q2 8 16.5 11t28.5 -3q41 -19 62.5 -37t28.5 -37.5t4 -39t-9 -42.5q-6 -29 -10 -55.5t-10 -45t-18.5 -26.5t-37.5 2q-86 33 -101 49.5t-1 51.5q12 26 21.5 64t25.5 108z" />
<glyph unicode="&#xa2;" horiz-adv-x="754" d="M274 125q-79 31 -126.5 94.5t-41.5 157.5q3 59 28.5 163.5t67.5 217t95 216t111 169.5q24 26 43.5 40.5t40 14.5t53.5 -14.5t80 -42.5q6 2 28 8l31 88q4 16 4 44t-20 40q-11 4 -5.5 19.5t19.5 9.5q12 -7 31.5 -13t34.5 -14q16 -10 10 -35.5t-19 -54.5l-24 -76 q39 6 77.5 -8t38.5 -62q0 -104 -17 -190t-40 -133q-14 -37 -31.5 -37t-40.5 10q-61 35 -69 54.5t14 39.5q21 37 33 89.5t14 93.5q6 49 -10 63l-338 -909q2 0 12.5 -3t18.5 -3q39 4 87 35.5t93 74.5t84 89.5t59 76.5q21 39 42.5 30t5.5 -48q-11 -27 -32.5 -65t-48 -82 t-52 -85t-48.5 -67q-20 -27 -53 -31t-45 -2q-41 0 -68 8q-16 2 -30 8q-15 0 -28 1t-15 8l-19 -56q-6 -14 -8 -40.5t14 -39.5q11 -8 5.5 -22t-21.5 -8q-12 6 -26.5 13t-30.5 17q-17 7 -9.5 32.5t19.5 53.5zM633 1098q-35 2 -72 -14.5t-84 -77.5q-41 -54 -74.5 -124.5 t-62.5 -143t-47.5 -137t-26.5 -105.5q-22 -113 -10 -188t43 -109z" />
<glyph unicode="&#xa3;" horiz-adv-x="1260" d="M465 602q-29 -78 -60.5 -165t-62.5 -179q-12 -35 -22.5 -53.5t-20.5 -26.5q-8 -10 -16 -10q159 0 349.5 -9t379.5 -32q32 -2 47.5 -1t26 8t15.5 21.5t13 39.5q21 36 38 33t30 -27q30 -60 42.5 -95.5t11.5 -60.5t-14.5 -43t-33.5 -37q-25 -20 -39 -32.5t-28.5 -16.5t-35 0 t-55.5 12q-33 11 -113.5 28t-196.5 32.5t-259.5 22.5t-298.5 -7q-35 -2 -50.5 -4t-23.5 -7t-11 -16.5t-14 -27.5q-28 -47 -68 -55.5t-54 26.5q-23 78 -35 127t39 78q28 16 86.5 26.5t156.5 16.5q23 76 44.5 149.5t41.5 147.5q-32 90 -48.5 135t-10.5 65.5t39 28.5t104 23 q160 510 310.5 784.5t292.5 280.5q36 2 85.5 -18.5t129.5 -57.5q57 2 86.5 1t45 -14.5t18.5 -41t-1 -74.5q-4 -84 -12 -165t-37 -175q-10 -31 -27.5 -44t-38 -16t-39 1t-34.5 6q-31 6 -42.5 14t13.5 51q12 21 23.5 61t17.5 88t7 96t-3 85q-2 25 -14.5 44t-34 28.5t-51 3.5 t-66.5 -33q-63 -49 -123.5 -139t-118 -208t-111.5 -253t-110 -281q82 7 142.5 12t112.5 8t107.5 5t131.5 4q41 0 64.5 -14.5t33.5 -35t12 -43t9 -40.5q8 -39 -11.5 -48t-58.5 -26q-12 -4 -47 -10t-53 16q-23 29 -56.5 32t-68.5 3q-17 0 -59 1t-96 3t-112.5 0t-109.5 -6z" />
<glyph unicode="&#xa5;" horiz-adv-x="1442" d="M1182 793q57 6 80.5 12t46.5 29q20 22 39.5 12t-0.5 -55q-19 -39 -29 -64t-27.5 -38t-52.5 -17t-102 0q-45 2 -89 3t-90 5q-20 -39 -42.5 -82t-41.5 -80h125.5t114.5 6q60 4 86.5 10.5t48.5 28.5q21 27 40.5 15.5t-3.5 -58.5q-18 -39 -27.5 -62.5t-28 -36.5t-52 -17.5 t-101.5 -2.5q-65 2 -131.5 4.5t-134.5 4.5q-90 -185 -136 -313t-46 -197q0 -72 9 -112t26 -64q18 -39 -6.5 -59.5t-55.5 13.5q-24 27 -65 80.5t-72 112.5q-27 43 -18.5 84t22.5 68q35 77 88 176.5t117 210.5q-94 0 -183.5 3t-156.5 -5q-55 -7 -75.5 -11t-43.5 -32 q-6 -11 -16.5 -17t-15.5 -3t-7 17.5t10 40.5q29 82 48.5 110t68.5 24q90 -13 189.5 -15t205.5 -2q-12 43 -17 82t-15 80q-80 -2 -154 -1t-129 -7q-41 -6 -65.5 -7t-43.5 -34q-6 -10 -13 -15.5t-14 -1t-8 17.5t9 42q28 82 47.5 108.5t69.5 18.5q122 -10 268 -15 q-41 144 -89 260.5t-95.5 208t-88.5 155t-69 99.5q-39 52 -78 59t-73 -10.5t-65.5 -49l-58.5 -58.5q-18 -14 -34.5 -16t-26.5 6t-9 26.5t19 38.5q88 107 151.5 174.5t113 98t85 23.5t66.5 -48q45 -67 94 -159.5t95 -196t89 -210t79 -201.5t61.5 -173t38.5 -121 q18 31 61 99.5t98.5 156.5t113.5 185.5t108.5 181.5t85 146.5t43.5 82.5q-31 -12 -67 -49t-46 -51q-16 -25 -34.5 -16.5t-55.5 92.5q-15 32 -1.5 58t46.5 54q63 62 201 158q28 20 55 19t47 -14t39.5 -33.5t36.5 -34.5q20 -23 23 -42.5t-27 -64.5q-58 -88 -126.5 -189.5 t-140 -210t-140 -218t-134.5 -213.5q41 2 81 1t77 1z" />
<glyph unicode="&#xa7;" horiz-adv-x="1065" d="M1141 1767q8 5 16 9q37 14 51 14q23 0 38.5 -16.5t35.5 -49.5l10 -10q6 -2 7 -2t10 -4q53 -20 76.5 -34.5t23.5 -49.5q0 -12 -3 -25.5t-9 -35.5q-23 -72 -62 -155t-69 -134q-39 -55 -76 -55q-21 0 -48.5 13t-64.5 38q-24 18 -24 41q0 24 43 39q14 6 33.5 37.5t35 72.5 t25.5 84t10 68q0 22 -8 33.5t-35 11.5q-29 0 -67 -10q-23 -7 -50.5 -15t-48.5 -14h2l-41 -14q-2 0 -5 -2.5t-5 -2.5q-10 -4 -19.5 -4h-17.5q-45 0 -45 29q0 25 41 47q27 15 61.5 29t73.5 29zM1038 434q-2 -115 -62.5 -199.5t-158.5 -156.5q-16 -8 -29 -8q-36 0 -36 24 q0 12 16 27q2 2 12 6q35 31 64.5 72t29.5 135v8q-6 84 -40.5 177t-88.5 192q-12 20 -28.5 53t-24.5 53q-28 60 -58 119t-54.5 118.5t-38 115t-13.5 104.5q0 92 59.5 169t151.5 148q19 8 33 8q35 0 35 -22q0 -14 -14 -25q-33 -34 -67 -82.5t-34 -130.5v-16q2 -72 20.5 -140.5 t49.5 -135.5l55 -115q21 -37 41.5 -76t40.5 -76q59 -100 99 -188t40 -158zM242 -342q45 -14 87 -24.5t79 -10.5q55 0 88.5 27.5t52 66.5t24 77t5.5 63v10q-7 82 -44.5 175t-91.5 191q-10 23 -28.5 54.5t-28.5 54.5q-29 57 -57.5 116.5t-51 121t-38 115t-15.5 102.5 q0 92 59.5 169.5t153.5 147.5q17 8 33 8q35 0 35 -22q0 -13 -15 -25q-34 -35 -69 -83t-35 -130v-16q4 -72 23.5 -138.5t50.5 -138.5l53 -114q25 -35 44 -74t42 -78q57 -100 99 -188t42 -158t-25.5 -129t-62.5 -108.5t-78 -84t-73 -55.5q-19 -26 -53.5 -62t-110.5 -36 q-33 0 -68 5t-63 11h4q-19 6 -35 13.5t-33 11.5q-69 31 -128.5 64.5t-92.5 64.5q-47 45 -47 84q0 16 7 35.5t22 46.5q0 2 4 12t8 14q20 41 35 41q12 0 18 -14t10 -29q13 -45 74.5 -86t136.5 -75z" />
<glyph unicode="&#xa8;" horiz-adv-x="498" d="M8 1298q31 76 42 138.5t16 119.5q6 25 7 37.5t13 18.5q8 2 19.5 -14.5t41.5 -45.5q13 -18 19 -43q2 -26 -7 -66t-36 -108q-25 -59 -39 -88.5t-33 -19.5q-47 24 -51 59q0 14 8 12zM285 1300q30 76 41.5 138.5t19.5 122.5q2 20 3 32.5t13 18.5q9 2 20 -12.5t42 -47.5 q12 -16 18 -43q2 -26 -7 -66t-36 -104q-22 -63 -37.5 -91.5t-33.5 -20.5q-45 26 -52 59q0 14 9 14z" />
<glyph unicode="&#xa9;" horiz-adv-x="2302" d="M1243 1448q70 0 136.5 -14.5t103.5 -28.5q4 4 6 9t4 7q14 29 47 29t39 -29q0 -8 1 -16t1 -14v-17v-117v-47.5t4 -40.5q2 -14 3 -28.5t-1 -28.5t-14 -23.5t-26.5 -9.5t-26 10.5t-11.5 24.5q-6 105 -75.5 177.5t-190.5 72.5q-94 0 -148.5 -53.5t-82 -128t-33.5 -156.5 t-6 -133q0 -47 9 -116.5t37 -137.5t82 -117t148 -49q119 0 185.5 70.5t97.5 165.5l82 -23q-15 -45 -42.5 -99.5t-73.5 -98.5t-109.5 -71.5t-145.5 -27.5q-141 0 -231 50t-145.5 126t-76 163t-20.5 159q0 82 20.5 180t76 183t145.5 141.5t231 56.5zM2032 897 q0 170 -64.5 320.5t-176.5 262t-262.5 176t-320.5 64.5q-168 0 -315.5 -64.5t-258 -176t-175 -262t-64.5 -320.5q0 -168 64.5 -315.5t175 -258t258 -174t315.5 -63.5q170 0 320.5 63.5t262.5 174t176.5 258t64.5 315.5zM2150 901q0 -192 -72.5 -364t-200.5 -300t-300 -202 t-365 -74q-194 0 -366 74t-299 202t-201 299t-74 363q0 197 74 368t201 299t297 201.5t364 73.5q195 0 367 -73.5t300 -201.5t201.5 -298t73.5 -367z" />
<glyph unicode="&#xab;" horiz-adv-x="1251" d="M649 1075q10 -18 18.5 -34.5t6.5 -32t-19.5 -37t-56.5 -47.5q-51 -39 -116.5 -83t-127.5 -108q-35 -35 -52 -54.5t-9 -33.5q10 -24 33.5 -78.5t49 -115t50.5 -118t35 -89.5q28 -84 18 -117t-55 -61q-88 -54 -106.5 -44.5t1.5 72.5q15 43 -2.5 111.5t-48 144.5t-73.5 152 t-86 139q-13 18 19 51t120 92q18 15 49 37.5t59.5 47t55 48t43.5 37.5q-2 27 -2 41.5t8 25.5t29.5 26.5t58.5 39.5q41 25 56.5 28t43.5 -40zM1102 1069q10 -16 18 -31.5t5 -33t-19 -39t-53 -45.5q-56 -41 -120.5 -84t-125.5 -107q-35 -35 -52.5 -54.5t-9.5 -33.5 q13 -27 35.5 -80t48 -114.5t49 -118t35.5 -88.5q29 -84 19 -117t-55 -60q-89 -53 -106 -44.5t1 69.5q12 45 -3 112.5t-48 144.5t-75 151.5t-85 136.5q-12 22 19.5 54t119.5 93q19 13 49.5 35.5t59.5 47t56.5 49t41.5 38.5q-2 25 -2 39.5t8.5 27.5t29 27.5t58.5 38.5 q39 25 54.5 27t46.5 -41z" />
<glyph unicode="&#xac;" horiz-adv-x="1206" d="M899 326v475h-756v135h889v-610h-133z" />
<glyph unicode="&#xae;" horiz-adv-x="2279" d="M1090 561q2 -29 13 -45t29.5 -23.5t37 -10.5t30.5 -3q33 -2 35 -29.5t-31 -33.5q-20 -4 -36.5 0t-30.5 4q-15 0 -42.5 2t-47.5 2h-78h-24.5t-55.5 -4q-21 -4 -36 -6t-34 2q-35 6 -33 31.5t31 31.5q6 0 10 1t9 1q30 6 50.5 18.5t26.5 78.5v673q0 37 -8 57.5t-19.5 31 t-30.5 11.5t-38 5q-33 6 -35 33.5t33 31.5h28.5t37.5 -2q12 0 33.5 -3t39.5 -3q33 0 75 2t83 3t68.5 2l27.5 1q62 0 128.5 -9t120.5 -36.5t91 -80t37 -138.5q0 -67 -33.5 -118.5t-80 -84t-99.5 -50t-94 -19.5q39 -17 63.5 -32t44 -34.5t37 -46.5t41.5 -65q58 -95 100 -153 t85 -58q8 0 18 6t21 10q24 18 38.5 17t19.5 -12t1 -24.5t-14 -23.5q-60 -68 -144 -68q-59 0 -100 20.5t-69.5 53.5t-54.5 78t-54 96q-6 10 -21.5 40t-21.5 38q-45 84 -72 117t-70 33h-36v-316zM1090 952q10 0 28.5 -1t38.5 -1q41 0 83 8.5t77 31t56.5 61.5t21.5 102 q0 59 -16.5 94t-47.5 55.5t-68.5 28.5t-80.5 8q-13 0 -29 -2t-31 -2q-14 -2 -32 -2v-381zM2032 897q0 170 -64.5 320.5t-176.5 262t-262.5 176t-320.5 64.5q-168 0 -315.5 -64.5t-258 -176t-175 -262t-64.5 -320.5q0 -168 64.5 -315.5t175 -258t258 -174t315.5 -63.5 q170 0 320.5 63.5t262.5 174t176.5 258t64.5 315.5zM2150 901q0 -192 -72.5 -364t-200.5 -300t-300 -202t-365 -74q-194 0 -366 74t-299 202t-201 299t-74 363q0 197 74 368t201 299t297 201.5t364 73.5q195 0 367 -73.5t300 -201.5t201.5 -298t73.5 -367z" />
<glyph unicode="&#xaf;" horiz-adv-x="641" d="M477 1430q74 0 91.5 13t29.5 36q8 12 23 12q20 0 20 -18v-5q-4 -12 -7 -35.5t-9 -58.5q-4 -31 -8.5 -44t-49.5 -13q-96 0 -195.5 11t-211.5 34q-39 6 -64 6q-26 0 -37.5 -9t-19.5 -24q-8 -6 -21 -6q-20 0 -20 14q0 5 1 6t1 3q2 14 9 37.5t18 58.5q6 25 10 35t24 10 q17 0 29 -2q139 -33 232.5 -47t154.5 -14z" />
<glyph unicode="&#xb0;" horiz-adv-x="981" d="M907 1747q60 -43 60 -92q0 -60 -93 -146q-57 -53 -121.5 -98t-131.5 -63q-11 -5 -29 -5q-31 0 -59.5 11.5t-59.5 29.5q-8 7 -11 10l-9 9l-9 6q-102 86 -102 156q0 30 16 65q19 27 53.5 64t82 74.5t97.5 66.5t93 43q27 4 33 4q31 0 45 -27.5t41 -89.5q4 -2 4 -6 q0 -10 -19 -10q-14 0 -18 6q-8 12 -31 12q-6 0 -24 -4q-33 -12 -66 -33.5t-61.5 -45t-52 -48t-35.5 -41.5q-49 -61 -49 -102q0 -35 30 -53q19 -10 47 -10q33 0 76 19t85 52t80 70t67 71q30 37 30 62q0 18 -12 31q-10 22 -10 30q0 13 10 13q14 0 53 -31z" />
<glyph unicode="&#xb1;" horiz-adv-x="1139" d="M657 727v-444h-137v444h-379v133h379v438h137v-438h383v-133h-383zM141 0v133h899v-133h-899z" />
<glyph unicode="&#xb4;" horiz-adv-x="399" d="M385 1571q10 -6 10 -13.5t-7 -15.5t-20.5 -14t-25.5 -6q-16 0 -37.5 -9.5t-56.5 -37.5q-45 -35 -93.5 -84.5t-93.5 -104.5q-26 -35 -48.5 -20.5t-10.5 45.5q16 30 40 68t52.5 74t54 67.5t46.5 52.5q36 41 63 43t53 -10z" />
<glyph unicode="&#xb5;" horiz-adv-x="1110" d="M117 -541v1684h190v-733q0 -140 51.5 -192t143.5 -52q121 0 183.5 81t88.5 206v690h193v-1114h-193v143q-53 -106 -122.5 -144t-149.5 -38q-49 0 -106.5 19.5t-88.5 86.5v-637h-190z" />
<glyph unicode="&#xb6;" horiz-adv-x="1645" d="M657 1626q91 86 165.5 118t140.5 34q106 0 211.5 -14.5t193.5 -36t154.5 -42t101.5 -30.5q23 -8 27 -19.5t-2 -40.5l-15 -96q-6 -39 -14 -43t-31 4q-53 19 -151 47q-80 -166 -187.5 -473t-201.5 -760h18q10 21 19.5 36.5t15.5 27.5q16 31 28.5 48t24.5 42q14 23 41 16.5 t12 -34.5q-4 -15 -11 -28t-15 -34q-29 -72 -55.5 -162t-34.5 -145q-5 -41 -15 -63.5t-47 -8.5q-18 11 -25.5 13t-13.5 6t-14 9t-33 19q-14 7 -14 99q0 123 33.5 301t90 374.5t128 392t149.5 353.5q-35 8 -69.5 16.5t-71.5 12.5q-80 -148 -200 -470.5t-222 -820.5 q-10 -53 -20 -102q-9 -39 -14 -78t-7 -53q-6 -41 -11 -45t-22 2q-12 4 -13 5t-15 9q-19 11 -19 94q0 84 17.5 199t46 245t68.5 267t87 273.5t99.5 263.5t103.5 231q-59 4 -121.5 9t-128.5 5q-39 0 -87 -5t-68 -23q-23 -19 -47.5 -43.5t-47.5 -61.5q-61 -110 -87.5 -200 t-31 -158t11 -118t36.5 -89q20 -27 54 -37t95 -10q62 0 56.5 -19.5t-54.5 -35.5q-55 -17 -105 -35.5t-97.5 -25.5t-86 3.5t-65.5 46.5q-27 37 -34 100.5t-1 138.5t26.5 154t51.5 150q27 62 52.5 103t60 72.5t84 60t122.5 59.5z" />
<glyph unicode="&#xb7;" horiz-adv-x="344" d="M162 770q39 82 55 126t27 87q8 21 12 34t16.5 17t35 0t65.5 -20q47 -17 32.5 -63t-51.5 -132q-20 -47 -35.5 -68.5t-35 -25.5t-46 0t-67.5 8q-12 4 -19.5 17.5t11.5 19.5z" />
<glyph unicode="&#xbb;" horiz-adv-x="1071" d="M512 53q-14 19 -22.5 33t-5.5 31.5t19.5 37t55.5 50.5q53 39 117.5 82t126.5 104q39 37 56.5 55.5t8.5 34.5q-14 25 -37.5 78t-48 115.5t-49 120t-35.5 90.5q-30 82 -20 114.5t55 59.5q90 53 106.5 46t-1.5 -73q-13 -45 2.5 -112.5t49.5 -143.5t77 -151.5t86 -137.5 q12 -18 -22 -52t-122 -93q-16 -14 -45.5 -35.5t-60.5 -47.5t-57.5 -49.5t-38.5 -39.5q2 -23 2 -36t-10.5 -26.5t-30 -29t-56.5 -37.5q-43 -25 -58 -29t-42 41zM57 55q-12 19 -19 34t-5 31.5t19.5 37t53.5 51.5q54 39 119.5 82t124.5 104q39 39 56.5 57.5t9.5 34.5 q-15 25 -38.5 77t-49 113.5t-49 119t-35.5 90.5q-29 86 -17.5 118.5t56.5 59.5q88 49 104 43t-2 -70q-12 -45 3 -113.5t49 -143t76 -150.5t85 -137q14 -23 -18.5 -54.5t-120.5 -93.5q-21 -12 -49.5 -35.5t-59.5 -47t-57.5 -48.5t-38.5 -41q2 -22 2 -36.5t-9 -27t-28.5 -26.5 t-58.5 -39q-43 -27 -58.5 -31t-44.5 41z" />
<glyph unicode="&#xbf;" horiz-adv-x="1139" d="M1022 598q33 -39 54.5 -66.5t28.5 -52t-1 -47t-41 -53.5q-119 -119 -262.5 -229.5t-304.5 -172.5q-60 -22 -99 -23t-66.5 12.5t-50 40t-49.5 59.5q-28 6 -62 17t-62.5 26.5t-47 37t-18.5 43.5q0 68 58.5 183.5t146.5 243.5t191.5 254t191.5 221q-31 -9 -70 -21t-63 -22 q-15 -5 -28 1.5t-18.5 17.5t2 26.5t29.5 23.5q25 8 64 25.5t83 37t85 42t63 45.5q51 45 77 13t54 -110q8 -28 -12.5 -46.5t-58.5 -49.5q-91 -74 -192 -184.5t-188 -229t-149.5 -232.5t-68.5 -196q-7 -45 10.5 -74.5t47.5 -44t66.5 -14.5t73.5 17q131 55 261 150t233 212 q18 21 16 42.5t-6 42t-7 36.5t9 29q21 12 44.5 2t35.5 -33zM1012 1679q-70 -61 -106 -94t-64 -67q-17 -19 -26 -29t-24.5 -9t-40 15t-69.5 47q-49 35 -16.5 74t104.5 100q41 35 66.5 47.5t49 10.5t53.5 -18.5t75 -39.5q16 -8 17 -25.5t-19 -11.5z" />
<glyph unicode="&#xc0;" horiz-adv-x="1636" d="M1618 1778q53 20 68.5 -0.5t-21.5 -73.5q-23 -31 -42 -91.5t-39.5 -143.5t-37 -182t-35.5 -204q-12 -100 -24 -200.5t-20.5 -190.5t-11.5 -169t-3 -134q4 -113 17.5 -166t33 -70.5t43 -11.5t43.5 15q39 14 50.5 -4.5t-15.5 -42.5q-12 -11 -36.5 -28.5t-52.5 -33.5 t-57.5 -35.5t-52.5 -29.5q-47 -25 -80.5 -12.5t-56.5 100.5q-14 67 -18 196t8 344q-70 -6 -158 -12t-171 -13t-153.5 -15.5t-107.5 -10.5q-31 -41 -66.5 -83t-69.5 -85t-65.5 -81t-54.5 -66l38 8t38.5 -4t37 -37t34.5 -86q10 -35 8 -52.5t-10.5 -22.5t-23.5 -2t-36 7 q-37 11 -116.5 -8.5t-215.5 -105.5q-20 -13 -31.5 -22t-19.5 -12t-17 1t-28 18q-37 27 -54.5 49.5t-31.5 51.5q-8 26 0 40.5t47 38.5q39 27 100.5 75t122 101.5t110.5 102.5t71 76q-9 80 -11 128t27 75q23 20 68 28t127 15q63 75 138 176.5t145.5 207t133 205t101.5 177.5 q-84 -46 -228.5 -89t-363.5 -118q-94 -35 -122 -93.5t-15 -142.5q8 -45 -19.5 -46t-40.5 20q-45 94 -61.5 137t-22.5 73q-2 9 -7 22t-5 28.5t5 35t24 39.5q28 31 99 63t214 50q61 8 140 25.5t158 41t147.5 46t117.5 43.5q13 14 20 20t10 12.5t6 13.5t9 23q8 29 36 23t79 -62 q14 -20 17 -35.5t-4 -32t-17 -32.5t-21 -35q-43 -73 -112.5 -184t-145 -225.5t-150.5 -219t-128 -165.5q49 0 121.5 1t146.5 4t135.5 5t81.5 6q8 74 20.5 162t28 178t30.5 177t28.5 156.5t22.5 117t12 57.5q10 84 68 133t120 72zM1180 2245q26 14 53 11t63 -42 q21 -23 46.5 -54.5t54 -68.5t52.5 -74t40 -67q12 -29 -10.5 -44.5t-48.5 19.5q-46 55 -94 104.5t-93 84.5q-35 30 -56.5 39.5t-37.5 9.5q-12 0 -25.5 5t-20.5 12t-9 16.5t12 13.5z" />
<glyph unicode="&#xc2;" horiz-adv-x="1810" d="M1618 1778q53 20 68.5 -0.5t-21.5 -73.5q-23 -31 -42 -91.5t-39.5 -143.5t-37 -182t-35.5 -204q-12 -100 -24 -200.5t-20.5 -190.5t-11.5 -169t-3 -134q4 -113 17.5 -166t33 -70.5t43 -11.5t43.5 15q39 14 50.5 -4.5t-15.5 -42.5q-12 -11 -36.5 -28.5t-52.5 -33.5 t-57.5 -35.5t-52.5 -29.5q-47 -25 -80.5 -12.5t-56.5 100.5q-14 67 -18 196t8 344q-70 -6 -158 -12t-171 -13t-153.5 -15.5t-107.5 -10.5q-31 -41 -66.5 -83t-69.5 -85t-65.5 -81t-54.5 -66l38 8t38.5 -4t37 -37t34.5 -86q10 -35 8 -52.5t-10.5 -22.5t-23.5 -2t-36 7 q-37 11 -116.5 -8.5t-215.5 -105.5q-20 -13 -31.5 -22t-19.5 -12t-17 1t-28 18q-37 27 -54.5 49.5t-31.5 51.5q-8 26 0 40.5t47 38.5q39 27 100.5 75t122 101.5t110.5 102.5t71 76q-9 80 -11 128t27 75q23 20 68 28t127 15q63 75 138 176.5t145.5 207t133 205t101.5 177.5 q-84 -46 -228.5 -89t-363.5 -118q-94 -35 -122 -93.5t-15 -142.5q8 -45 -19.5 -46t-40.5 20q-45 94 -61.5 137t-22.5 73q-2 9 -7 22t-5 28.5t5 35t24 39.5q28 31 99 63t214 50q61 8 140 25.5t158 41t147.5 46t117.5 43.5q13 14 20 20t10 12.5t6 13.5t9 23q8 29 36 23t79 -62 q14 -20 17 -35.5t-4 -32t-17 -32.5t-21 -35q-43 -73 -112.5 -184t-145 -225.5t-150.5 -219t-128 -165.5q49 0 121.5 1t146.5 4t135.5 5t81.5 6q8 74 20.5 162t28 178t30.5 177t28.5 156.5t22.5 117t12 57.5q10 84 68 133t120 72zM1239 1923q-8 37 1 43t34 12q12 0 50 22.5 t79 50.5t80 57.5t55 41.5q16 15 23.5 25t11.5 18.5t9 16.5t24 12q22 8 31.5 9t13.5 -13q8 -35 23.5 -75t35 -76.5t38.5 -65.5t36 -39q26 -8 30.5 -18.5t-40.5 -28.5q-45 -21 -64.5 -22t-40.5 36q-8 15 -21.5 40.5t-26.5 52t-24.5 50t-17.5 33.5q-2 11 -41 -12 q-16 -14 -49 -37.5t-69 -50.5t-67.5 -51.5t-43.5 -30.5q-39 -22 -49.5 -23.5t-20.5 23.5z" />
<glyph unicode="&#xc3;" horiz-adv-x="1827" d="M1618 1778q53 20 68.5 -0.5t-21.5 -73.5q-23 -31 -42 -91.5t-39.5 -143.5t-37 -182t-35.5 -204q-12 -100 -24 -200.5t-20.5 -190.5t-11.5 -169t-3 -134q4 -113 17.5 -166t33 -70.5t43 -11.5t43.5 15q39 14 50.5 -4.5t-15.5 -42.5q-12 -11 -36.5 -28.5t-52.5 -33.5 t-57.5 -35.5t-52.5 -29.5q-47 -25 -80.5 -12.5t-56.5 100.5q-14 67 -18 196t8 344q-70 -6 -158 -12t-171 -13t-153.5 -15.5t-107.5 -10.5q-31 -41 -66.5 -83t-69.5 -85t-65.5 -81t-54.5 -66l38 8t38.5 -4t37 -37t34.5 -86q10 -35 8 -52.5t-10.5 -22.5t-23.5 -2t-36 7 q-37 11 -116.5 -8.5t-215.5 -105.5q-20 -13 -31.5 -22t-19.5 -12t-17 1t-28 18q-37 27 -54.5 49.5t-31.5 51.5q-8 26 0 40.5t47 38.5q39 27 100.5 75t122 101.5t110.5 102.5t71 76q-9 80 -11 128t27 75q23 20 68 28t127 15q63 75 138 176.5t145.5 207t133 205t101.5 177.5 q-84 -46 -228.5 -89t-363.5 -118q-94 -35 -122 -93.5t-15 -142.5q8 -45 -19.5 -46t-40.5 20q-45 94 -61.5 137t-22.5 73q-2 9 -7 22t-5 28.5t5 35t24 39.5q28 31 99 63t214 50q61 8 140 25.5t158 41t147.5 46t117.5 43.5q13 14 20 20t10 12.5t6 13.5t9 23q8 29 36 23t79 -62 q14 -20 17 -35.5t-4 -32t-17 -32.5t-21 -35q-43 -73 -112.5 -184t-145 -225.5t-150.5 -219t-128 -165.5q49 0 121.5 1t146.5 4t135.5 5t81.5 6q8 74 20.5 162t28 178t30.5 177t28.5 156.5t22.5 117t12 57.5q10 84 68 133t120 72zM1554 2105q54 -51 75.5 -57t41.5 -10 q17 -4 37.5 8t42 31.5t39.5 41t31 35.5q4 29 22.5 29t34.5 -20q14 -23 23.5 -33t-7.5 -33q-16 -24 -46.5 -56t-63.5 -61.5t-58.5 -50t-35.5 -18.5q-39 10 -79 46t-89 89q-54 49 -75.5 56t-43.5 12q-12 2 -33.5 -9.5t-43 -31t-41 -41t-32.5 -33.5q0 -29 -18 -29t-35 23 q-16 16 -25.5 28.5t5.5 30.5q18 25 49 58.5t62.5 62.5t58 50.5t36.5 17.5q41 -9 79 -43.5t89 -92.5z" />
<glyph unicode="&#xc4;" horiz-adv-x="1774" d="M1618 1778q53 20 68.5 -0.5t-21.5 -73.5q-23 -31 -42 -91.5t-39.5 -143.5t-37 -182t-35.5 -204q-12 -100 -24 -200.5t-20.5 -190.5t-11.5 -169t-3 -134q4 -113 17.5 -166t33 -70.5t43 -11.5t43.5 15q39 14 50.5 -4.5t-15.5 -42.5q-12 -11 -36.5 -28.5t-52.5 -33.5 t-57.5 -35.5t-52.5 -29.5q-47 -25 -80.5 -12.5t-56.5 100.5q-14 67 -18 196t8 344q-70 -6 -158 -12t-171 -13t-153.5 -15.5t-107.5 -10.5q-31 -41 -66.5 -83t-69.5 -85t-65.5 -81t-54.5 -66l38 8t38.5 -4t37 -37t34.5 -86q10 -35 8 -52.5t-10.5 -22.5t-23.5 -2t-36 7 q-37 11 -116.5 -8.5t-215.5 -105.5q-20 -13 -31.5 -22t-19.5 -12t-17 1t-28 18q-37 27 -54.5 49.5t-31.5 51.5q-8 26 0 40.5t47 38.5q39 27 100.5 75t122 101.5t110.5 102.5t71 76q-9 80 -11 128t27 75q23 20 68 28t127 15q63 75 138 176.5t145.5 207t133 205t101.5 177.5 q-84 -46 -228.5 -89t-363.5 -118q-94 -35 -122 -93.5t-15 -142.5q8 -45 -19.5 -46t-40.5 20q-45 94 -61.5 137t-22.5 73q-2 9 -7 22t-5 28.5t5 35t24 39.5q28 31 99 63t214 50q61 8 140 25.5t158 41t147.5 46t117.5 43.5q13 14 20 20t10 12.5t6 13.5t9 23q8 29 36 23t79 -62 q14 -20 17 -35.5t-4 -32t-17 -32.5t-21 -35q-43 -73 -112.5 -184t-145 -225.5t-150.5 -219t-128 -165.5q49 0 121.5 1t146.5 4t135.5 5t81.5 6q8 74 20.5 162t28 178t30.5 177t28.5 156.5t22.5 117t12 57.5q10 84 68 133t120 72zM1305 1937q28 74 40.5 137.5t18.5 123.5 q4 22 5 34.5t13 18.5q9 2 20 -14.5t42 -45.5q12 -18 16 -43q4 -26 -5 -66t-36 -106q-24 -61 -38.5 -91t-32.5 -17q-48 22 -52 57q0 17 9 12zM1581 1942q31 73 42 135.5t19 122.5q5 20 6 32.5t11 18.5q8 2 19.5 -13.5t41.5 -46.5q13 -16 19 -43q2 -26 -7.5 -66t-35.5 -104 q-25 -63 -39.5 -90.5t-32.5 -19.5q-45 24 -51 57q0 17 8 17z" />
<glyph unicode="&#xc5;" horiz-adv-x="1757" d="M1618 1778q53 20 68.5 -0.5t-21.5 -73.5q-23 -31 -42 -91.5t-39.5 -143.5t-37 -182t-35.5 -204q-12 -100 -24 -200.5t-20.5 -190.5t-11.5 -169t-3 -134q4 -113 17.5 -166t33 -70.5t43 -11.5t43.5 15q39 14 50.5 -4.5t-15.5 -42.5q-12 -11 -36.5 -28.5t-52.5 -33.5 t-57.5 -35.5t-52.5 -29.5q-47 -25 -80.5 -12.5t-56.5 100.5q-14 67 -18 196t8 344q-70 -6 -158 -12t-171 -13t-153.5 -15.5t-107.5 -10.5q-31 -41 -66.5 -83t-69.5 -85t-65.5 -81t-54.5 -66l38 8t38.5 -4t37 -37t34.5 -86q10 -35 8 -52.5t-10.5 -22.5t-23.5 -2t-36 7 q-37 11 -116.5 -8.5t-215.5 -105.5q-20 -13 -31.5 -22t-19.5 -12t-17 1t-28 18q-37 27 -54.5 49.5t-31.5 51.5q-8 26 0 40.5t47 38.5q39 27 100.5 75t122 101.5t110.5 102.5t71 76q-9 80 -11 128t27 75q23 20 68 28t127 15q63 75 138 176.5t145.5 207t133 205t101.5 177.5 q-84 -46 -228.5 -89t-363.5 -118q-94 -35 -122 -93.5t-15 -142.5q8 -45 -19.5 -46t-40.5 20q-45 94 -61.5 137t-22.5 73q-2 9 -7 22t-5 28.5t5 35t24 39.5q28 31 99 63t214 50q61 8 140 25.5t158 41t147.5 46t117.5 43.5q13 14 20 20t10 12.5t6 13.5t9 23q8 29 36 23t79 -62 q14 -20 17 -35.5t-4 -32t-17 -32.5t-21 -35q-43 -73 -112.5 -184t-145 -225.5t-150.5 -219t-128 -165.5q49 0 121.5 1t146.5 4t135.5 5t81.5 6q8 74 20.5 162t28 178t30.5 177t28.5 156.5t22.5 117t12 57.5q10 84 68 133t120 72zM1704 2150q47 -36 41 -76t-66 -94 q-39 -36 -86 -68t-94 -44q-31 -6 -54.5 2t-49.5 22q-4 2 -8.5 6.5l-8.5 8.5l-4 4q-57 45 -70.5 83t9.5 74q10 21 36.5 46.5t60.5 51t68.5 48t65.5 31.5q37 10 50.5 -8.5t33.5 -71.5q6 -11 -5 -13t-17 5q-9 14 -41 6q-45 -15 -88 -56t-64 -65q-37 -45 -36 -70.5t24 -38.5 q24 -12 58 -4t69 33t67.5 55.5t59.5 59.5q16 24 17 38.5t-5 28.5q-12 19 -6 27t43 -21z" />
<glyph unicode="&#xc6;" horiz-adv-x="2324" d="M1448 1526q-12 4 -25.5 5t-29.5 3q-7 -4 -9 -14.5t-8 -18.5q-43 -74 -107.5 -181.5t-137 -221t-144.5 -218t-125 -169.5q47 0 116 2t136.5 3t122.5 3t80 6q8 92 26.5 210t38 230.5t38 207.5t28.5 153zM330 285q43 34 75.5 76t67.5 83q-8 80 -6 136.5t31 83.5 q20 20 75.5 28t137.5 10q61 74 140 184.5t157.5 230.5t147.5 234.5t114 194.5q-121 15 -269.5 33t-298.5 2q-73 -8 -113 -34.5t-56.5 -73t-9.5 -115t26 -154.5q2 -24 -5 -36.5t-21.5 -14.5t-29 4t-20.5 25q-92 284 -49 483q12 57 100 79.5t231.5 21.5t335 -23.5t416.5 -56.5 q29 30 65 54.5t75 37.5q53 20 67.5 -0.5t-24.5 -73.5q-4 -10 -11.5 -21.5t-11.5 -23.5q125 -21 263 -47.5t323 -65.5q45 -8 75.5 4.5t51.5 40.5q18 23 48 23t40 -43q14 -49 20 -76t2 -41t-20 -24.5t-47 -28.5q-45 -27 -88 -23t-97 15q-71 12 -155 28.5t-169 31.5t-163 28.5 t-133 21.5q-19 -76 -34 -154.5t-26.5 -149.5t-18.5 -125t-9 -81q78 8 148.5 13.5t138 9.5t134 6t142.5 6q41 0 63.5 -13.5t34 -35t14.5 -46t9 -40.5q6 -39 -16.5 -53.5t-83.5 -28.5q-64 -10 -87.5 -10t-37.5 26q-17 27 -27 31t-45 4q-16 0 -61.5 2t-103.5 3t-123.5 1 t-117.5 -6q-8 -71 -16 -155t-15 -169t-10.5 -164t3.5 -136q73 -5 154 -9t162 -10t153.5 -11t134.5 -9q26 -4 36.5 7t13.5 29.5t7 33t20 14.5q13 2 25 -1t19 -28q16 -53 22 -87t12 -63q6 -30 -23.5 -53.5t-54.5 -46.5q-14 -12 -24 -16t-22.5 -2t-30 7t-43.5 11 q-92 27 -196.5 51.5t-233.5 18.5q-35 -2 -53.5 -3t-31 -10.5t-26.5 -27t-43 -51.5q-33 -43 -80 -17.5t-59 109.5q-62 -2 -119 -6.5t-86 -10.5q-16 -30 -41 -26t-37 41q-14 37 -18 65.5t19.5 48t84 31.5t182.5 16q-4 70 -4 153t6 204q-67 -6 -151 -9t-163 -6.5t-145.5 -5.5 t-99.5 -6q-184 -221 -290.5 -347t-166 -188.5t-88 -76.5t-61.5 -10q-24 6 -50 38.5t-42 59.5q-57 27 -54 56.5t70 99.5q80 79 100.5 117t20.5 65q0 22 22.5 28.5t32.5 -4.5q43 -45 68 -69.5t29 -46.5z" />
<glyph unicode="&#xca;" horiz-adv-x="1591" d="M203 8q-17 72 -25 115t13.5 65.5t83 31.5t186.5 13q26 52 57 115.5t58.5 131t53 132t42.5 119.5q-23 62 -45.5 105t-14.5 71q4 23 37 39.5t105 32.5q16 59 36.5 140t42 164t41 156.5t27.5 123.5q-90 16 -184 28.5t-211 -4.5q-113 -16 -135.5 -112.5t20.5 -268.5 q4 -22 -1 -35.5t-15 -14.5t-21.5 6t-17.5 26q-43 141 -53.5 251.5t24.5 217.5q15 47 48.5 76.5t104 39t187.5 -3t297 -47.5q23 17 46.5 31t41 17.5t24.5 -12t-9 -56.5q55 -16 123.5 -31.5t138 -32t136 -32t116.5 -25.5q34 -8 55.5 4t38.5 41q12 23 34.5 23t30.5 -43 q9 -50 10 -74.5t-6.5 -38.5t-21.5 -25.5t-37 -29.5q-37 -29 -57.5 -25t-57.5 14q-166 41 -290.5 66t-258.5 45q-18 -78 -38.5 -158t-38 -151.5t-31.5 -131t-23 -100.5q84 9 142.5 13t111 8t105.5 5t133 5q41 0 63.5 -13.5t32.5 -35t13.5 -46t9.5 -40.5q8 -39 -14.5 -53.5 t-88.5 -28.5q-61 -10 -84.5 -10t-40.5 26q-14 27 -24 31t-45 4q-15 0 -54.5 2t-89 2t-105.5 -3t-104 -11q-34 -111 -58.5 -188.5t-45.5 -135.5q-25 -67 -43 -111t-38.5 -75t-47.5 -53.5t-61 -48.5q86 2 192.5 0t215 -10.5t212 -16.5t186.5 -14q27 -4 37.5 7t12.5 29.5t6 33 t20 14.5q17 2 27 -1t18 -28q17 -53 23 -87t12 -63q8 -30 -22.5 -53.5t-57.5 -46.5q-26 -22 -44.5 -18t-76.5 18q-180 49 -401 67.5t-528 -1.5q-33 -29 -61.5 -51.5t-49 -36t-35 -8t-20.5 33.5zM758 1923q-13 37 -3.5 43t33.5 12q13 0 51 22.5t78.5 50.5t80.5 57.5t57 41.5 q14 15 21 25t11.5 18.5t9.5 16.5t23 12q25 8 33 9t12 -13q9 -35 25 -75t34.5 -76.5t38 -65.5t35.5 -39q27 -8 31 -18.5t-41 -28.5q-45 -21 -63.5 -22t-40.5 36q-8 15 -20.5 40.5t-27 52t-25.5 50t-15 33.5q-4 11 -41 -12q-17 -14 -49.5 -37.5t-69.5 -50.5t-68.5 -51.5 t-44.5 -30.5q-39 -22 -49 -23.5t-16 23.5z" />
<glyph unicode="&#xcb;" horiz-adv-x="1616" d="M203 8q-17 72 -25 115t13.5 65.5t83 31.5t186.5 13q26 52 57 115.5t58.5 131t53 132t42.5 119.5q-23 62 -45.5 105t-14.5 71q4 23 37 39.5t105 32.5q16 59 36.5 140t42 164t41 156.5t27.5 123.5q-90 16 -184 28.5t-211 -4.5q-113 -16 -135.5 -112.5t20.5 -268.5 q4 -22 -1 -35.5t-15 -14.5t-21.5 6t-17.5 26q-43 141 -53.5 251.5t24.5 217.5q15 47 48.5 76.5t104 39t187.5 -3t297 -47.5q23 17 46.5 31t41 17.5t24.5 -12t-9 -56.5q55 -16 123.5 -31.5t138 -32t136 -32t116.5 -25.5q34 -8 55.5 4t38.5 41q12 23 34.5 23t30.5 -43 q9 -50 10 -74.5t-6.5 -38.5t-21.5 -25.5t-37 -29.5q-37 -29 -57.5 -25t-57.5 14q-166 41 -290.5 66t-258.5 45q-18 -78 -38.5 -158t-38 -151.5t-31.5 -131t-23 -100.5q84 9 142.5 13t111 8t105.5 5t133 5q41 0 63.5 -13.5t32.5 -35t13.5 -46t9.5 -40.5q8 -39 -14.5 -53.5 t-88.5 -28.5q-61 -10 -84.5 -10t-40.5 26q-14 27 -24 31t-45 4q-15 0 -54.5 2t-89 2t-105.5 -3t-104 -11q-34 -111 -58.5 -188.5t-45.5 -135.5q-25 -67 -43 -111t-38.5 -75t-47.5 -53.5t-61 -48.5q86 2 192.5 0t215 -10.5t212 -16.5t186.5 -14q27 -4 37.5 7t12.5 29.5t6 33 t20 14.5q17 2 27 -1t18 -28q17 -53 23 -87t12 -63q8 -30 -22.5 -53.5t-57.5 -46.5q-26 -22 -44.5 -18t-76.5 18q-180 49 -401 67.5t-528 -1.5q-33 -29 -61.5 -51.5t-49 -36t-35 -8t-20.5 33.5zM866 1937q29 74 41.5 137.5t16.5 123.5q6 22 7 34.5t11 18.5q8 2 20.5 -14.5 t41.5 -45.5q14 -18 18 -43q2 -26 -7 -66t-34 -106q-27 -61 -40 -91t-34 -17q-45 22 -51 57q0 17 10 12zM1143 1942q28 73 40.5 135.5t20.5 122.5q2 20 3 32.5t12 18.5q8 2 20 -13.5t41 -46.5q12 -16 18 -43q2 -26 -7 -66t-34 -104q-24 -63 -38.5 -90.5t-34.5 -19.5 q-43 24 -49 57q0 17 8 17z" />
<glyph unicode="&#xcd;" horiz-adv-x="1206" d="M684 1731q35 12 81 5t112 -30q20 27 80.5 -3t144.5 -81q20 -16 31.5 -50t14.5 -75t0 -85t-7 -81q-13 -98 -45.5 -239.5t-82.5 -296t-112.5 -307t-134.5 -273.5t-148.5 -198.5t-156.5 -77.5q-72 0 -152 38.5t-162 100.5q-14 10 -16 24.5t7 27.5t22.5 19.5t34.5 -2.5 q38 -22 89.5 -40.5t100.5 -18.5q61 -2 127 66.5t131.5 183.5t123.5 264.5t105.5 306t75 311t33.5 279.5q2 47 -14.5 73.5t-42 40t-56 14.5t-61.5 -3q-45 -6 -105.5 -48t-123 -112.5t-116.5 -167t-85 -206.5q-12 -43 -6 -73t19 -52.5t33.5 -41t37.5 -34.5q16 -15 13 -27 t-13 -18t-24.5 -6t-26.5 6q-76 45 -123 81t-66.5 79t-11.5 97t45 134q33 82 86 161t112.5 147.5t122 116.5t109.5 71zM1292 2210q13 -4 13 -13.5t-8.5 -16.5t-21.5 -12t-24 -5q-18 0 -39.5 -9.5t-56.5 -39.5q-45 -35 -93 -84.5t-93 -104.5q-27 -35 -49.5 -19.5t-10.5 44.5 q19 30 42.5 67t51 74t54 68.5t45.5 54.5q39 39 65.5 42t51.5 -11z" />
<glyph unicode="&#xce;" horiz-adv-x="1116" d="M684 1731q35 12 81 5t112 -30q20 27 80.5 -3t144.5 -81q20 -16 31.5 -50t14.5 -75t0 -85t-7 -81q-13 -98 -45.5 -239.5t-82.5 -296t-112.5 -307t-134.5 -273.5t-148.5 -198.5t-156.5 -77.5q-72 0 -152 38.5t-162 100.5q-14 10 -16 24.5t7 27.5t22.5 19.5t34.5 -2.5 q38 -22 89.5 -40.5t100.5 -18.5q61 -2 127 66.5t131.5 183.5t123.5 264.5t105.5 306t75 311t33.5 279.5q2 47 -14.5 73.5t-42 40t-56 14.5t-61.5 -3q-45 -6 -105.5 -48t-123 -112.5t-116.5 -167t-85 -206.5q-12 -43 -6 -73t19 -52.5t33.5 -41t37.5 -34.5q16 -15 13 -27 t-13 -18t-24.5 -6t-26.5 6q-76 45 -123 81t-66.5 79t-11.5 97t45 134q33 82 86 161t112.5 147.5t122 116.5t109.5 71zM674 1923q-10 37 -1 43t34 12q12 0 49 22.5t79 50.5t80.5 57.5t57.5 41.5q14 15 21 25t11.5 18.5t9.5 16.5t23 12q25 8 32 9t13 -13q9 -35 24 -75 t34.5 -76.5t39 -65.5t36.5 -39q26 -8 30 -18.5t-41 -28.5q-45 -21 -64.5 -22t-39.5 36q-6 15 -20.5 40.5t-28 52t-24.5 50t-17 33.5q-2 11 -39 -12q-19 -14 -51.5 -37.5t-68.5 -50.5t-67.5 -51.5t-46.5 -30.5q-37 -22 -47 -23.5t-18 23.5z" />
<glyph unicode="&#xd1;" horiz-adv-x="1827" d="M256 -23q-61 23 -97 48.5t-34 56.5q0 35 46 79t159 111q41 74 88 175.5t94 214t91 226t80 210t60.5 166t30.5 98.5q-45 74 -98 125t-86 74q-19 8 -36 14t-42 4t-57.5 -18.5t-77.5 -51.5q-27 -16 -44.5 -17t-27.5 8t-8 27.5t29 41.5q110 104 175.5 162.5t123.5 52.5 q47 -6 95 -51t114 -138q26 66 16 105q-8 20 10.5 26.5t77.5 -40.5q23 -19 26 -46.5t-5.5 -58.5t-19.5 -61.5t-19 -55.5q92 -131 186 -286.5t177 -304t144.5 -278.5t90.5 -210q12 76 31.5 172t42 197.5t46 203t45 184.5t36 141t20.5 79q-33 20 -50.5 33.5t-31.5 29.5 q-23 23 -23 43.5t43 14.5q23 0 54.5 26.5t64.5 64.5t60.5 75t44.5 55q16 18 30.5 32.5t31.5 16.5t43 -13.5t60 -53.5q25 -29 18 -59t-30 -62q-26 -43 -68 -84t-75 -78q-29 -84 -64 -189.5t-67.5 -220t-63 -231.5t-53.5 -226.5t-39 -203.5t-16 -164q10 -31 16 -52.5t2 -45 t-25.5 -46t-66.5 -55.5q-25 -14 -40 -11t-28.5 14.5t-20.5 23.5t-11 14q-15 8 -12 39t12 74q-66 168 -152 349t-170 339t-154.5 275.5t-101.5 152.5q-20 -68 -52 -157t-68 -184t-71.5 -188.5t-68.5 -171t-54.5 -134t-29.5 -74.5q12 4 27.5 -8.5t30 -33t28.5 -46t25 -43.5 q10 -27 4 -35t-23.5 -11t-37 -2t-36.5 1q-30 0 -72 -17.5t-65 -38.5q-10 -10 -17 -36.5t-20.5 -51t-37 -37t-62.5 5.5zM1489 2105q53 -51 74.5 -57t42.5 -10q16 -4 35.5 8t41 31.5t40 41t32.5 35.5q2 29 20.5 29t34.5 -20q17 -23 26 -33t-7 -33q-19 -24 -49.5 -56t-62 -61.5 t-59.5 -50t-34 -18.5q-39 10 -80 46t-88 89q-53 49 -75.5 56t-45.5 12q-12 2 -33.5 -9.5t-43 -31t-41 -41t-29.5 -33.5q0 -29 -18.5 -29t-34.5 23q-17 16 -26 28.5t3 30.5q18 25 50 58.5t63.5 62.5t58.5 50.5t37 17.5q41 -9 79 -43.5t89 -92.5z" />
<glyph unicode="&#xd2;" horiz-adv-x="1538" d="M1100 1655q88 94 174 157q49 33 109.5 28t115.5 -75q66 -6 104.5 -15t56 -36.5t15.5 -81t-10 -145.5q-10 -86 -44 -231.5t-91 -313.5t-134 -339t-176.5 -312t-216 -232.5t-249.5 -97.5q-29 0 -64 2t-63.5 9.5t-48 15.5t-15.5 20q-90 23 -165.5 48.5t-129 70.5t-82 114.5 t-24.5 180.5q6 139 37.5 280.5t80 274.5t107.5 252t119.5 216t115 166.5t95.5 108.5q67 62 121 62q32 0 58 -8.5t55.5 -24.5t65.5 -39.5t83 -54.5zM1044 1599q-49 39 -96 50.5t-82 -19.5q-39 -24 -93 -90.5t-114.5 -163t-120 -213t-106.5 -241.5t-72.5 -255t-21.5 -251 q4 -70 15.5 -117t35 -83t57 -61.5t82.5 -48.5q78 -40 156 -32q90 12 183.5 84.5t178 189.5t160.5 268.5t136.5 316.5t99.5 335t49 327q4 84 -34 96.5t-136 -57.5q-98 -69 -206.5 -158.5t-246.5 -222.5q-45 -39 -68.5 -26.5t11.5 65.5q66 101 119 171.5t114 135.5zM1065 2245 q27 14 53.5 11t63.5 -42q18 -23 44.5 -54.5t55.5 -68.5t52.5 -74t39.5 -67q12 -29 -10.5 -44.5t-46.5 19.5q-47 55 -95 104.5t-94 84.5q-32 30 -53.5 39.5t-42.5 9.5q-10 0 -23.5 5t-20.5 12t-8 16.5t11 13.5z" />
<glyph unicode="&#xd3;" horiz-adv-x="1554" d="M1100 1655q88 94 174 157q49 33 109.5 28t115.5 -75q66 -6 104.5 -15t56 -36.5t15.5 -81t-10 -145.5q-10 -86 -44 -231.5t-91 -313.5t-134 -339t-176.5 -312t-216 -232.5t-249.5 -97.5q-29 0 -64 2t-63.5 9.5t-48 15.5t-15.5 20q-90 23 -165.5 48.5t-129 70.5t-82 114.5 t-24.5 180.5q6 139 37.5 280.5t80 274.5t107.5 252t119.5 216t115 166.5t95.5 108.5q67 62 121 62q32 0 58 -8.5t55.5 -24.5t65.5 -39.5t83 -54.5zM1044 1599q-49 39 -96 50.5t-82 -19.5q-39 -24 -93 -90.5t-114.5 -163t-120 -213t-106.5 -241.5t-72.5 -255t-21.5 -251 q4 -70 15.5 -117t35 -83t57 -61.5t82.5 -48.5q78 -40 156 -32q90 12 183.5 84.5t178 189.5t160.5 268.5t136.5 316.5t99.5 335t49 327q4 84 -34 96.5t-136 -57.5q-98 -69 -206.5 -158.5t-246.5 -222.5q-45 -39 -68.5 -26.5t11.5 65.5q66 101 119 171.5t114 135.5zM1585 2210 q10 -4 10 -13.5t-8 -16.5t-21.5 -12t-23.5 -5q-20 0 -40.5 -9.5t-55.5 -39.5q-45 -35 -93 -84.5t-93 -104.5q-27 -35 -49.5 -19.5t-10.5 44.5q17 30 41.5 67t52 74t54 68.5t45.5 54.5q37 39 63.5 42t52.5 -11z" />
<glyph unicode="&#xd4;" horiz-adv-x="1591" d="M1100 1655q88 94 174 157q49 33 109.5 28t115.5 -75q66 -6 104.5 -15t56 -36.5t15.5 -81t-10 -145.5q-10 -86 -44 -231.5t-91 -313.5t-134 -339t-176.5 -312t-216 -232.5t-249.5 -97.5q-29 0 -64 2t-63.5 9.5t-48 15.5t-15.5 20q-90 23 -165.5 48.5t-129 70.5t-82 114.5 t-24.5 180.5q6 139 37.5 280.5t80 274.5t107.5 252t119.5 216t115 166.5t95.5 108.5q67 62 121 62q32 0 58 -8.5t55.5 -24.5t65.5 -39.5t83 -54.5zM1044 1599q-49 39 -96 50.5t-82 -19.5q-39 -24 -93 -90.5t-114.5 -163t-120 -213t-106.5 -241.5t-72.5 -255t-21.5 -251 q4 -70 15.5 -117t35 -83t57 -61.5t82.5 -48.5q78 -40 156 -32q90 12 183.5 84.5t178 189.5t160.5 268.5t136.5 316.5t99.5 335t49 327q4 84 -34 96.5t-136 -57.5q-98 -69 -206.5 -158.5t-246.5 -222.5q-45 -39 -68.5 -26.5t11.5 65.5q66 101 119 171.5t114 135.5zM1024 1923 q-10 37 -1 43t34 12q12 0 50 22.5t79 50.5t82 57.5t55 41.5q16 15 22.5 25t11.5 18.5t9 16.5t25 12q22 8 30.5 9t14.5 -13q8 -35 23.5 -75t33.5 -76.5t38.5 -65.5t37.5 -39q26 -8 30.5 -18.5t-43.5 -28.5q-45 -21 -63 -22t-41 36q-6 15 -19.5 40.5t-26.5 52t-25.5 50 t-16.5 33.5q-2 11 -41 -12q-14 -14 -49 -37.5t-70 -50.5t-66.5 -51.5t-45.5 -30.5q-37 -22 -48.5 -23.5t-19.5 23.5z" />
<glyph unicode="&#xd5;" horiz-adv-x="1569" d="M1100 1655q88 94 174 157q49 33 109.5 28t115.5 -75q66 -6 104.5 -15t56 -36.5t15.5 -81t-10 -145.5q-10 -86 -44 -231.5t-91 -313.5t-134 -339t-176.5 -312t-216 -232.5t-249.5 -97.5q-29 0 -64 2t-63.5 9.5t-48 15.5t-15.5 20q-90 23 -165.5 48.5t-129 70.5t-82 114.5 t-24.5 180.5q6 139 37.5 280.5t80 274.5t107.5 252t119.5 216t115 166.5t95.5 108.5q67 62 121 62q32 0 58 -8.5t55.5 -24.5t65.5 -39.5t83 -54.5zM1044 1599q-49 39 -96 50.5t-82 -19.5q-39 -24 -93 -90.5t-114.5 -163t-120 -213t-106.5 -241.5t-72.5 -255t-21.5 -251 q4 -70 15.5 -117t35 -83t57 -61.5t82.5 -48.5q78 -40 156 -32q90 12 183.5 84.5t178 189.5t160.5 268.5t136.5 316.5t99.5 335t49 327q4 84 -34 96.5t-136 -57.5q-98 -69 -206.5 -158.5t-246.5 -222.5q-45 -39 -68.5 -26.5t11.5 65.5q66 101 119 171.5t114 135.5zM1352 2105 q53 -51 74.5 -57t41.5 -10q19 -4 38.5 8t41 31.5t40 41t30.5 35.5q4 29 22.5 29t32.5 -20q17 -23 26 -33t-5 -33q-21 -24 -50.5 -56t-61.5 -61.5t-59.5 -50t-33.5 -18.5q-41 10 -81 46t-87 89q-53 49 -75.5 56t-45.5 12q-12 2 -33.5 -9.5t-43 -31t-41 -41t-29.5 -33.5 q0 -29 -19.5 -29t-36.5 23q-14 16 -24 28.5t6 30.5q16 25 47 58.5t62.5 62.5t58.5 50.5t37 17.5q41 -9 78.5 -43.5t89.5 -92.5z" />
<glyph unicode="&#xd6;" horiz-adv-x="1577" d="M1100 1655q88 94 174 157q49 33 109.5 28t115.5 -75q66 -6 104.5 -15t56 -36.5t15.5 -81t-10 -145.5q-10 -86 -44 -231.5t-91 -313.5t-134 -339t-176.5 -312t-216 -232.5t-249.5 -97.5q-29 0 -64 2t-63.5 9.5t-48 15.5t-15.5 20q-90 23 -165.5 48.5t-129 70.5t-82 114.5 t-24.5 180.5q6 139 37.5 280.5t80 274.5t107.5 252t119.5 216t115 166.5t95.5 108.5q67 62 121 62q32 0 58 -8.5t55.5 -24.5t65.5 -39.5t83 -54.5zM1044 1599q-49 39 -96 50.5t-82 -19.5q-39 -24 -93 -90.5t-114.5 -163t-120 -213t-106.5 -241.5t-72.5 -255t-21.5 -251 q4 -70 15.5 -117t35 -83t57 -61.5t82.5 -48.5q78 -40 156 -32q90 12 183.5 84.5t178 189.5t160.5 268.5t136.5 316.5t99.5 335t49 327q4 84 -34 96.5t-136 -57.5q-98 -69 -206.5 -158.5t-246.5 -222.5q-45 -39 -68.5 -26.5t11.5 65.5q66 101 119 171.5t114 135.5zM1036 1989 q29 73 41.5 135.5t18.5 124.5q4 22 5 33.5t11 17.5q8 4 20.5 -12.5t41.5 -46.5q14 -19 20 -41q2 -27 -8 -67t-35 -105q-25 -64 -39 -92.5t-35 -18.5q-45 25 -49 59q0 17 8 13zM1313 1993q28 73 40.5 135.5t20.5 122.5q2 20 3 31.5t14 17.5q6 4 18 -11.5t41 -47.5 q14 -15 18 -41q5 -27 -5.5 -67t-35.5 -103q-24 -66 -38.5 -93.5t-32.5 -19.5q-45 27 -51 59q0 17 8 17z" />
<glyph unicode="&#xd8;" horiz-adv-x="1583" d="M1323 1837q43 12 88 -3t88 -69q66 -6 104.5 -15t56 -36.5t15.5 -81t-10 -145.5q-10 -86 -44 -231.5t-91 -313.5t-134 -339t-176.5 -312t-216 -232.5t-249.5 -97.5q-29 0 -64 2t-65.5 8t-50 13.5t-13.5 17.5q-29 -57 -62.5 -118.5t-62.5 -114.5q-16 -33 -35.5 -44.5 t-36 -14.5t-32 2t-25.5 12q-28 4 -28 25.5t24 33.5q16 6 23.5 9t21.5 23.5t41 69.5t80 148q-74 20 -130 48t-96 73t-61.5 109.5t-19.5 158.5q6 139 37.5 280.5t80 274.5t107.5 252t119.5 216t115 166.5t95.5 108.5q67 62 121 62q32 0 58 -8.5t55.5 -24.5t65.5 -39.5 t83 -54.5q43 47 88 86q24 76 40.5 145.5t4.5 106.5q-6 14 6 30.5t37 -14.5q43 -45 53 -85t-6 -87zM1245 1612q-47 -125 -112.5 -298t-148.5 -374t-180 -421t-206 -439q47 -8 86 -6q90 12 183.5 84.5t178 189.5t160.5 268.5t136.5 316.5t99.5 335t49 327q4 84 -42 105.5 t-144 -45.5q-17 -13 -31 -23t-29 -20zM1108 1501q-53 -49 -111.5 -108.5t-128.5 -139.5q-16 -16 -30.5 -18t-25.5 4t-12 21.5t11 31.5q66 101 119 171.5t114 135.5q-49 39 -96 50.5t-82 -19.5q-39 -24 -93 -90.5t-114.5 -163t-120 -213t-106.5 -241.5t-72.5 -255t-21.5 -251 q4 -66 15.5 -112t30.5 -81t52 -60.5t76 -47.5q86 164 168 343t158.5 358t145.5 353t124 332z" />
<glyph unicode="&#xd9;" horiz-adv-x="2046" d="M1661 854q-64 -115 -136.5 -232.5t-142 -224t-135 -195.5t-117.5 -147q-83 -96 -166 -85.5t-133 77.5q-61 49 -103 82t-66.5 73t-35 98t-3.5 155q6 96 34.5 229t75.5 278.5t105.5 293t122.5 274.5q-54 -19 -122.5 -45.5t-141 -55t-137 -62.5t-107.5 -62 q-43 -29 -57.5 -54.5t-13.5 -53.5t13.5 -59.5t24.5 -74.5q4 -23 -4 -31t-22.5 -6t-31 14.5t-28.5 30.5q-39 66 -72 128.5t-39 118.5t25 101t123 74q71 20 161.5 46t180.5 50.5t169 48t128 41.5q26 43 51.5 69t56.5 28t70 -21.5t98 -81.5q33 -31 0 -46t-106 -32 q-84 -143 -155 -315t-120 -345t-77.5 -326.5t-30.5 -250.5q-4 -90 24.5 -146t72.5 -81t94 -14.5t89 57.5q129 152 236.5 309.5t206 327.5t190.5 349t188 372q27 53 41.5 81.5t26.5 46t22.5 32t26.5 41.5q43 61 105.5 35.5t177.5 -126.5q18 -14 4 -32.5t-53 -10.5 q-23 7 -42.5 8t-36 -9.5t-38 -35t-43.5 -71.5q-74 -139 -134.5 -291.5t-106.5 -309.5t-79.5 -311.5t-52.5 -299.5q13 36 23 55.5t21.5 34t20.5 28l21 31.5q10 18 23.5 24.5t24 -1t11.5 -23.5t-12 -43q-12 -27 -27.5 -70t-32.5 -95t-32.5 -105.5t-23.5 -98.5 q-4 -32 -16.5 -50.5t-34 -19.5t-54.5 15t-82 55q-33 27 -43 38.5t-11 21.5t4 21.5t11 39.5q6 66 21.5 147t36 176t45 194.5t51.5 199.5zM1374 2245q27 14 52.5 11t64.5 -42q18 -23 45 -54.5t54.5 -68.5t52 -74t38.5 -67q15 -29 -7.5 -44.5t-49.5 19.5q-45 55 -93 104.5 t-93 84.5q-35 30 -55.5 39.5t-41.5 9.5q-10 0 -23 5t-21.5 12t-9.5 16.5t11 13.5z" />
<glyph unicode="&#xda;" horiz-adv-x="2075" d="M1661 854q-64 -115 -136.5 -232.5t-142 -224t-135 -195.5t-117.5 -147q-83 -96 -166 -85.5t-133 77.5q-61 49 -103 82t-66.5 73t-35 98t-3.5 155q6 96 34.5 229t75.5 278.5t105.5 293t122.5 274.5q-54 -19 -122.5 -45.5t-141 -55t-137 -62.5t-107.5 -62 q-43 -29 -57.5 -54.5t-13.5 -53.5t13.5 -59.5t24.5 -74.5q4 -23 -4 -31t-22.5 -6t-31 14.5t-28.5 30.5q-39 66 -72 128.5t-39 118.5t25 101t123 74q71 20 161.5 46t180.5 50.5t169 48t128 41.5q26 43 51.5 69t56.5 28t70 -21.5t98 -81.5q33 -31 0 -46t-106 -32 q-84 -143 -155 -315t-120 -345t-77.5 -326.5t-30.5 -250.5q-4 -90 24.5 -146t72.5 -81t94 -14.5t89 57.5q129 152 236.5 309.5t206 327.5t190.5 349t188 372q27 53 41.5 81.5t26.5 46t22.5 32t26.5 41.5q43 61 105.5 35.5t177.5 -126.5q18 -14 4 -32.5t-53 -10.5 q-23 7 -42.5 8t-36 -9.5t-38 -35t-43.5 -71.5q-74 -139 -134.5 -291.5t-106.5 -309.5t-79.5 -311.5t-52.5 -299.5q13 36 23 55.5t21.5 34t20.5 28l21 31.5q10 18 23.5 24.5t24 -1t11.5 -23.5t-12 -43q-12 -27 -27.5 -70t-32.5 -95t-32.5 -105.5t-23.5 -98.5 q-4 -32 -16.5 -50.5t-34 -19.5t-54.5 15t-82 55q-33 27 -43 38.5t-11 21.5t4 21.5t11 39.5q6 66 21.5 147t36 176t45 194.5t51.5 199.5zM1978 2210q11 -4 11 -13.5t-8.5 -16.5t-21.5 -12t-24 -5q-18 0 -38.5 -9.5t-57.5 -39.5q-45 -35 -92 -84.5t-92 -104.5 q-29 -35 -51.5 -19.5t-8.5 44.5q17 30 40.5 67t51 74t54 68.5t45.5 54.5q39 39 65.5 42t51.5 -11z" />
<glyph unicode="&#xdb;" horiz-adv-x="2052" d="M1661 854q-64 -115 -136.5 -232.5t-142 -224t-135 -195.5t-117.5 -147q-83 -96 -166 -85.5t-133 77.5q-61 49 -103 82t-66.5 73t-35 98t-3.5 155q6 96 34.5 229t75.5 278.5t105.5 293t122.5 274.5q-54 -19 -122.5 -45.5t-141 -55t-137 -62.5t-107.5 -62 q-43 -29 -57.5 -54.5t-13.5 -53.5t13.5 -59.5t24.5 -74.5q4 -23 -4 -31t-22.5 -6t-31 14.5t-28.5 30.5q-39 66 -72 128.5t-39 118.5t25 101t123 74q71 20 161.5 46t180.5 50.5t169 48t128 41.5q26 43 51.5 69t56.5 28t70 -21.5t98 -81.5q33 -31 0 -46t-106 -32 q-84 -143 -155 -315t-120 -345t-77.5 -326.5t-30.5 -250.5q-4 -90 24.5 -146t72.5 -81t94 -14.5t89 57.5q129 152 236.5 309.5t206 327.5t190.5 349t188 372q27 53 41.5 81.5t26.5 46t22.5 32t26.5 41.5q43 61 105.5 35.5t177.5 -126.5q18 -14 4 -32.5t-53 -10.5 q-23 7 -42.5 8t-36 -9.5t-38 -35t-43.5 -71.5q-74 -139 -134.5 -291.5t-106.5 -309.5t-79.5 -311.5t-52.5 -299.5q13 36 23 55.5t21.5 34t20.5 28l21 31.5q10 18 23.5 24.5t24 -1t11.5 -23.5t-12 -43q-12 -27 -27.5 -70t-32.5 -95t-32.5 -105.5t-23.5 -98.5 q-4 -32 -16.5 -50.5t-34 -19.5t-54.5 15t-82 55q-33 27 -43 38.5t-11 21.5t4 21.5t11 39.5q6 66 21.5 147t36 176t45 194.5t51.5 199.5zM1382 1923q-12 37 -1.5 43t32.5 12q14 0 51 22.5t79 50.5t82 57.5t54 41.5q17 15 23 25t10 18.5t10.5 16.5t24.5 12q25 8 32 9t13 -13 q6 -35 23.5 -75t36 -76.5t38 -65.5t35.5 -39q27 -8 31 -18.5t-41 -28.5q-45 -21 -63.5 -22t-41.5 36q-8 15 -21 40.5t-26.5 52t-26 50t-16.5 33.5q-4 11 -41 -12q-14 -14 -48 -37.5t-69.5 -50.5t-68.5 -51.5t-45 -30.5q-39 -22 -48 -23.5t-18 23.5z" />
<glyph unicode="&#xdc;" horiz-adv-x="2097" d="M1661 854q-64 -115 -136.5 -232.5t-142 -224t-135 -195.5t-117.5 -147q-83 -96 -166 -85.5t-133 77.5q-61 49 -103 82t-66.5 73t-35 98t-3.5 155q6 96 34.5 229t75.5 278.5t105.5 293t122.5 274.5q-54 -19 -122.5 -45.5t-141 -55t-137 -62.5t-107.5 -62 q-43 -29 -57.5 -54.5t-13.5 -53.5t13.5 -59.5t24.5 -74.5q4 -23 -4 -31t-22.5 -6t-31 14.5t-28.5 30.5q-39 66 -72 128.5t-39 118.5t25 101t123 74q71 20 161.5 46t180.5 50.5t169 48t128 41.5q26 43 51.5 69t56.5 28t70 -21.5t98 -81.5q33 -31 0 -46t-106 -32 q-84 -143 -155 -315t-120 -345t-77.5 -326.5t-30.5 -250.5q-4 -90 24.5 -146t72.5 -81t94 -14.5t89 57.5q129 152 236.5 309.5t206 327.5t190.5 349t188 372q27 53 41.5 81.5t26.5 46t22.5 32t26.5 41.5q43 61 105.5 35.5t177.5 -126.5q18 -14 4 -32.5t-53 -10.5 q-23 7 -42.5 8t-36 -9.5t-38 -35t-43.5 -71.5q-74 -139 -134.5 -291.5t-106.5 -309.5t-79.5 -311.5t-52.5 -299.5q13 36 23 55.5t21.5 34t20.5 28l21 31.5q10 18 23.5 24.5t24 -1t11.5 -23.5t-12 -43q-12 -27 -27.5 -70t-32.5 -95t-32.5 -105.5t-23.5 -98.5 q-4 -32 -16.5 -50.5t-34 -19.5t-54.5 15t-82 55q-33 27 -43 38.5t-11 21.5t4 21.5t11 39.5q6 66 21.5 147t36 176t45 194.5t51.5 199.5zM1448 1937q31 74 42 137.5t17 123.5q4 22 5 34.5t14 18.5q8 2 19 -14.5t42 -45.5q12 -18 19 -43q2 -26 -7.5 -66t-35.5 -106 q-25 -61 -39.5 -91t-32.5 -17q-45 22 -51 57q0 17 8 12zM1724 1942q31 73 42.5 135.5t19.5 122.5q4 20 5 32.5t11 18.5q8 2 20.5 -13.5t41.5 -46.5q14 -16 18 -43q2 -26 -6 -66t-37 -104q-22 -63 -37.5 -90.5t-34.5 -19.5q-45 24 -51 57q0 17 8 17z" />
<glyph unicode="&#xdf;" horiz-adv-x="1147" d="M-137 -547q4 51 7 110.5t0 114t-14.5 95.5t-33.5 55q-33 16 -32 36.5t21.5 35t52.5 24.5t64 13q54 4 64 -16.5t18 -49.5q21 106 55.5 238.5t73.5 261.5t77 242.5t60 183.5q-94 55 -118.5 93t-4 66.5t83 55t144.5 57.5q47 125 95 241.5t96.5 218t98.5 183.5t103 135 q33 31 59.5 49.5t65.5 16.5t93.5 -23.5t142.5 -77.5q49 -6 83.5 -13t54 -19.5t28 -34t-0.5 -57.5q-2 -27 -11 -59t-26.5 -79t-48 -109.5t-73.5 -150.5q-19 -28 -38.5 -41.5t-36.5 -9.5t-26.5 23.5t0.5 54.5q47 151 60.5 237t19.5 140q2 37 -11 57.5t-42 25.5t-64.5 -4.5 t-72.5 -33.5q-64 -39 -131.5 -132.5t-125 -204t-105.5 -224t-74 -197.5q122 29 235 61.5t232 32.5q59 0 81.5 -22.5t67.5 -73.5q31 -39 4 -84t-79 -88t-113.5 -78t-102.5 -47q43 -49 93.5 -109.5t93.5 -124t71.5 -122t28.5 -101.5q-4 -45 -45 -90t-94 -65q-23 -47 -85.5 -79 t-119.5 -30q-94 0 -198.5 47t-186.5 133q-27 27 -35 47.5t-7 40t8 42t22 51.5q14 32 29.5 41.5t29.5 7.5t29.5 -15.5t27.5 -19.5q27 -19 23 -36t2 -46q2 -21 2 -29v-12t5 -8t24 -15q14 -8 41.5 -25.5t65.5 -36.5t84 -32.5t97 -13.5q103 0 114 48t-24 142 q-36 101 -98.5 178.5t-167.5 163.5h-45.5t-27 7.5t-13.5 22.5t-8 48q-4 37 9.5 53.5t49.5 34.5q39 21 67 4.5t52 -30.5q74 43 118 71.5t65.5 51t24.5 42t-5 42.5q-6 12 -57.5 7t-125 -20.5t-159.5 -41t-158 -52.5q-51 -135 -105.5 -313.5t-102.5 -358.5t-83.5 -338.5 t-48.5 -251.5q-8 -63 -17 -96t-24.5 -46t-43 -21.5t-70.5 -26.5q-47 -20 -65.5 -6t-12.5 57z" />
<glyph unicode="&#xe0;" horiz-adv-x="891" d="M479 1028q60 55 111 55q39 -4 79 -36.5t99 -85.5q20 -21 6 -36.5t-43 -2.5q-39 18 -77 19t-70 -21q-52 -39 -126.5 -124t-146 -192.5t-129 -229.5t-76.5 -239q-6 -35 7.5 -44t35 -2t47 23.5t42.5 34.5q71 68 152 162t157 193.5t135 188.5t86 147q8 28 21.5 61t21.5 55 q16 60 39 60q12 0 33.5 -14.5t56.5 -38.5q29 -23 32 -41.5t-11 -53.5q-56 -155 -97 -289.5t-67 -267.5q26 27 51.5 56.5t38.5 44.5q22 28 48 21t1 -46q-76 -111 -109.5 -190.5t-54.5 -174.5q-12 -53 -33.5 -53t-83.5 43q-39 29 -42 42.5t1 53.5q11 64 27 138.5t33.5 149.5 t37 142.5t40.5 118.5q-64 -100 -146 -206.5t-161.5 -198.5t-147.5 -159.5t-98 -88.5q-56 -37 -84 -37q-21 0 -37.5 12.5t-34.5 24.5q-39 21 -57.5 52.5t-8.5 95.5q11 94 56 210.5t112.5 236.5t152.5 231.5t181 199.5zM547 1606q24 12 51 10t66 -43q18 -21 43.5 -52.5 t54.5 -67.5t52.5 -74t39.5 -68q14 -31 -8.5 -45.5t-48.5 20.5q-45 55 -93.5 104.5t-93.5 84.5q-35 28 -56.5 37.5t-41.5 9.5q-8 0 -21.5 6t-21.5 14t-9 15.5t11 13.5z" />
<glyph unicode="&#xe1;" horiz-adv-x="987" d="M479 1028q60 55 111 55q39 -4 79 -36.5t99 -85.5q20 -21 6 -36.5t-43 -2.5q-39 18 -77 19t-70 -21q-52 -39 -126.5 -124t-146 -192.5t-129 -229.5t-76.5 -239q-6 -35 7.5 -44t35 -2t47 23.5t42.5 34.5q71 68 152 162t157 193.5t135 188.5t86 147q8 28 21.5 61t21.5 55 q16 60 39 60q12 0 33.5 -14.5t56.5 -38.5q29 -23 32 -41.5t-11 -53.5q-56 -155 -97 -289.5t-67 -267.5q26 27 51.5 56.5t38.5 44.5q22 28 48 21t1 -46q-76 -111 -109.5 -190.5t-54.5 -174.5q-12 -53 -33.5 -53t-83.5 43q-39 29 -42 42.5t1 53.5q11 64 27 138.5t33.5 149.5 t37 142.5t40.5 118.5q-64 -100 -146 -206.5t-161.5 -198.5t-147.5 -159.5t-98 -88.5q-56 -37 -84 -37q-21 0 -37.5 12.5t-34.5 24.5q-39 21 -57.5 52.5t-8.5 95.5q11 94 56 210.5t112.5 236.5t152.5 231.5t181 199.5zM1143 1571q10 -6 10 -13.5t-8 -15.5t-21.5 -14t-23.5 -6 q-21 0 -41.5 -9.5t-54.5 -37.5q-46 -35 -94 -84.5t-93 -104.5q-26 -35 -49 -20.5t-8 45.5q14 30 38.5 68t52.5 74t54.5 67.5t44.5 52.5q37 41 63.5 43t53.5 -10z" />
<glyph unicode="&#xe2;" horiz-adv-x="1034" d="M479 1028q60 55 111 55q39 -4 79 -36.5t99 -85.5q20 -21 6 -36.5t-43 -2.5q-39 18 -77 19t-70 -21q-52 -39 -126.5 -124t-146 -192.5t-129 -229.5t-76.5 -239q-6 -35 7.5 -44t35 -2t47 23.5t42.5 34.5q71 68 152 162t157 193.5t135 188.5t86 147q8 28 21.5 61t21.5 55 q16 60 39 60q12 0 33.5 -14.5t56.5 -38.5q29 -23 32 -41.5t-11 -53.5q-56 -155 -97 -289.5t-67 -267.5q26 27 51.5 56.5t38.5 44.5q22 28 48 21t1 -46q-76 -111 -109.5 -190.5t-54.5 -174.5q-12 -53 -33.5 -53t-83.5 43q-39 29 -42 42.5t1 53.5q11 64 27 138.5t33.5 149.5 t37 142.5t40.5 118.5q-64 -100 -146 -206.5t-161.5 -198.5t-147.5 -159.5t-98 -88.5q-56 -37 -84 -37q-21 0 -37.5 12.5t-34.5 24.5q-39 21 -57.5 52.5t-8.5 95.5q11 94 56 210.5t112.5 236.5t152.5 231.5t181 199.5zM498 1282q-11 39 -1.5 45t33.5 12q13 0 49.5 22.5 t78.5 50.5t82 57.5t57 41.5q14 15 21 25t11.5 18.5t9.5 16.5t23 14q25 6 32 8t13 -14q8 -35 24.5 -75t35 -76.5t38 -65.5t35.5 -39q27 -6 31 -18.5t-41 -28.5q-45 -19 -63.5 -21t-38.5 35q-8 15 -21.5 40.5t-27 52t-25.5 50t-18 33.5q-2 13 -39 -14q-17 -12 -49.5 -35.5 t-69.5 -50.5t-68.5 -51.5t-46.5 -32.5q-35 -20 -46 -21t-19 21z" />
<glyph unicode="&#xe3;" horiz-adv-x="1012" d="M479 1028q60 55 111 55q39 -4 79 -36.5t99 -85.5q20 -21 6 -36.5t-43 -2.5q-39 18 -77 19t-70 -21q-52 -39 -126.5 -124t-146 -192.5t-129 -229.5t-76.5 -239q-6 -35 7.5 -44t35 -2t47 23.5t42.5 34.5q71 68 152 162t157 193.5t135 188.5t86 147q8 28 21.5 61t21.5 55 q16 60 39 60q12 0 33.5 -14.5t56.5 -38.5q29 -23 32 -41.5t-11 -53.5q-56 -155 -97 -289.5t-67 -267.5q26 27 51.5 56.5t38.5 44.5q22 28 48 21t1 -46q-76 -111 -109.5 -190.5t-54.5 -174.5q-12 -53 -33.5 -53t-83.5 43q-39 29 -42 42.5t1 53.5q11 64 27 138.5t33.5 149.5 t37 142.5t40.5 118.5q-64 -100 -146 -206.5t-161.5 -198.5t-147.5 -159.5t-98 -88.5q-56 -37 -84 -37q-21 0 -37.5 12.5t-34.5 24.5q-39 21 -57.5 52.5t-8.5 95.5q11 94 56 210.5t112.5 236.5t152.5 231.5t181 199.5zM819 1466q55 -49 75.5 -56t43.5 -13q14 -2 34.5 10 t42 31.5t39 41t33.5 33.5q3 31 21 31t35 -22q14 -21 23.5 -31t-5.5 -33q-18 -22 -50 -55t-62.5 -62.5t-58 -50t-36.5 -16.5q-39 6 -78.5 42t-87.5 89q-55 51 -77.5 57t-42.5 13q-13 4 -34.5 -9.5t-43 -31t-41 -39t-31.5 -33.5q0 -31 -18.5 -31t-34.5 21q-14 18 -23.5 30.5 t2.5 30.5q19 25 49.5 57.5t63.5 62.5t58.5 51.5t37.5 19.5q39 -9 78 -45.5t88 -92.5z" />
<glyph unicode="&#xe4;" horiz-adv-x="981" d="M479 1028q60 55 111 55q39 -4 79 -36.5t99 -85.5q20 -21 6 -36.5t-43 -2.5q-39 18 -77 19t-70 -21q-52 -39 -126.5 -124t-146 -192.5t-129 -229.5t-76.5 -239q-6 -35 7.5 -44t35 -2t47 23.5t42.5 34.5q71 68 152 162t157 193.5t135 188.5t86 147q8 28 21.5 61t21.5 55 q16 60 39 60q12 0 33.5 -14.5t56.5 -38.5q29 -23 32 -41.5t-11 -53.5q-56 -155 -97 -289.5t-67 -267.5q26 27 51.5 56.5t38.5 44.5q22 28 48 21t1 -46q-76 -111 -109.5 -190.5t-54.5 -174.5q-12 -53 -33.5 -53t-83.5 43q-39 29 -42 42.5t1 53.5q11 64 27 138.5t33.5 149.5 t37 142.5t40.5 118.5q-64 -100 -146 -206.5t-161.5 -198.5t-147.5 -159.5t-98 -88.5q-56 -37 -84 -37q-21 0 -37.5 12.5t-34.5 24.5q-39 21 -57.5 52.5t-8.5 95.5q11 94 56 210.5t112.5 236.5t152.5 231.5t181 199.5zM592 1298q29 76 41 138.5t16 119.5q6 25 7 37.5t12 18.5 q8 2 20 -14.5t41 -45.5q12 -18 19 -43q4 -26 -6.5 -66t-34.5 -108q-25 -59 -39.5 -88.5t-34.5 -19.5q-43 24 -49 59q0 14 8 12zM868 1300q29 76 41.5 138.5t20.5 122.5q2 20 4 32.5t10 18.5q8 2 21.5 -12.5t40.5 -47.5q14 -16 18 -43q4 -26 -5 -66t-36 -104 q-25 -63 -39 -91.5t-35 -20.5q-43 26 -49 59q0 14 8 14z" />
<glyph unicode="&#xe5;" horiz-adv-x="987" d="M479 1028q60 55 111 55q39 -4 79 -36.5t99 -85.5q20 -21 6 -36.5t-43 -2.5q-39 18 -77 19t-70 -21q-52 -39 -126.5 -124t-146 -192.5t-129 -229.5t-76.5 -239q-6 -35 7.5 -44t35 -2t47 23.5t42.5 34.5q71 68 152 162t157 193.5t135 188.5t86 147q8 28 21.5 61t21.5 55 q16 60 39 60q12 0 33.5 -14.5t56.5 -38.5q29 -23 32 -41.5t-11 -53.5q-56 -155 -97 -289.5t-67 -267.5q26 27 51.5 56.5t38.5 44.5q22 28 48 21t1 -46q-76 -111 -109.5 -190.5t-54.5 -174.5q-12 -53 -33.5 -53t-83.5 43q-39 29 -42 42.5t1 53.5q11 64 27 138.5t33.5 149.5 t37 142.5t40.5 118.5q-64 -100 -146 -206.5t-161.5 -198.5t-147.5 -159.5t-98 -88.5q-56 -37 -84 -37q-21 0 -37.5 12.5t-34.5 24.5q-39 21 -57.5 52.5t-8.5 95.5q11 94 56 210.5t112.5 236.5t152.5 231.5t181 199.5zM1024 1511q47 -36 41 -76t-64 -94q-40 -36 -86.5 -69 t-95.5 -45q-28 -4 -53 3t-49 23q-6 4 -10.5 8.5l-6.5 6.5l-6 6q-57 45 -69.5 82t8.5 74q12 18 38.5 44.5t59.5 52t69 48t66 31.5q35 10 49.5 -8.5t34.5 -71.5q4 -13 -7 -14t-15 6q-8 14 -41 4q-45 -13 -89 -54t-65 -65q-35 -45 -34 -69.5t22 -41.5q24 -12 59 -3t70 34 t67.5 55.5t57.5 59.5q18 22 19 37.5t-7 27.5q-12 19 -6 29t43 -21z" />
<glyph unicode="&#xe6;" horiz-adv-x="1268" d="M629 604q26 113 40.5 181.5t12.5 105.5t-26.5 47t-71.5 4q-72 -6 -138.5 -21.5t-138.5 -52.5q-35 -18 -42 -37.5t-7 -54.5t-17.5 -26.5t-29.5 22.5q-6 4 -14.5 17.5t-16.5 27.5q-10 14 -18 33q-19 39 -15.5 65.5t35.5 47.5q94 61 205 90.5t215 33.5q66 3 86.5 -12.5 t36.5 -87.5q76 -26 86 -72q14 29 32.5 54.5t41.5 50.5q30 39 56 55.5t49.5 16.5t49 -11.5t62.5 -25.5q-6 35 5 40t75 5q32 0 43.5 -4t12.5 -12.5t-2 -22.5t-3 -37q0 -94 2 -162.5t-3 -119t-23.5 -85t-59.5 -65.5q-51 -37 -98 -49.5t-91.5 -11.5t-86.5 10.5t-85 19.5 q-8 -12 -22 -55t-29.5 -101.5t-26 -127t-8.5 -136.5q5 -45 21 -61.5t65 2.5q43 16 87.5 40.5t93.5 62.5t105 93.5t132 129.5q29 26 51.5 10.5t-0.5 -47.5q-86 -119 -156.5 -197t-128 -124t-101.5 -63.5t-74 -17.5q-37 0 -71 21.5t-73 60.5q-12 6 -18 12.5t-33 18.5 q-22 12 -34.5 33.5t-12.5 61.5t14.5 102.5t44.5 152.5q-36 -63 -92.5 -136t-114 -136.5t-106.5 -110.5t-78 -59q-28 -17 -58 -23t-53.5 -2t-41 14.5t-19.5 22.5q-39 25 -64.5 59.5t-6.5 96.5q32 127 84.5 224t106.5 160.5t102.5 96.5t74.5 33q41 -4 82 -37t100 -86 q21 -21 5.5 -36t-39.5 -5q-35 16 -71 24.5t-67 -8.5q-43 -20 -85 -68t-74.5 -105.5t-58 -119t-40.5 -106.5q-20 -70 24 -70t118 70q45 43 98 100.5t105.5 121t99.5 130t84 127.5zM905 604q33 -6 71 0t83 51q24 25 33.5 57.5t11.5 71.5t0 80t-2 80q0 31 -12.5 48.5 t-51.5 -17.5q-57 -45 -114.5 -131t-112.5 -230q16 0 33 -2q12 -2 28.5 -4t32.5 -4z" />
<glyph unicode="&#xe7;" horiz-adv-x="770" d="M182 2q-67 33 -108 93.5t-35 152.5q2 61 26.5 164.5t66.5 215t96.5 217t109.5 169.5q24 26 43.5 40.5t41 13.5t52.5 -15.5t80 -40.5q25 10 61.5 15t68.5 1t54.5 -19.5t22.5 -50.5q0 -106 -17.5 -190t-37.5 -135q-19 -35 -35.5 -35t-38.5 12q-62 35 -70 54.5t15 35.5 q14 39 28.5 95.5t9.5 99.5q-4 57 -57 57q-12 0 -25.5 4.5t-30 0t-39 -20.5t-56.5 -62q-39 -55 -76 -124.5t-64.5 -143.5t-46 -139.5t-26.5 -104.5q-29 -167 4.5 -248t107.5 -79q35 0 80 30.5t89 73.5t86 90t69 82q24 31 43.5 24t5.5 -44q-12 -25 -33.5 -67t-48.5 -84 t-53.5 -83t-46.5 -65q-25 -27 -53.5 -30t-43.5 -3q-39 0 -65 8q-17 2 -37 10q-20 0 -37.5 2.5t-32.5 8.5q-20 -35 -40.5 -76t-32.5 -70q34 11 85.5 16t80.5 1q43 -6 52 -21.5t15 -66.5q37 -54 41 -80.5t-37 -59.5q-22 -16 -58 -35.5t-75 -37t-74.5 -30.5t-58.5 -17 q-45 -13 -59.5 11.5t-26.5 69.5q-14 46 7.5 48t41.5 -19q8 -2 32.5 0t56.5 13.5t66 27.5t64 39q13 8 25 20.5t13 21.5t-10 16.5t-44 9.5q-33 0 -84 -8.5t-80 -14.5q-23 -4 -32 6t-25 53q-9 23 -5.5 31t21.5 39q18 29 44 60.5t50 66.5z" />
<glyph unicode="&#xe8;" horiz-adv-x="776" d="M39 203q12 82 33.5 178t60.5 217q-35 14 -44 30.5t-2 23.5t24.5 7t44.5 -10q43 92 93 193.5t113 177.5q31 39 56.5 55.5t50.5 16.5t51.5 -11.5t59.5 -25.5q-5 35 6.5 40t77.5 5q30 0 42.5 -4t12.5 -12.5t-4 -22.5t-4 -37q0 -94 3 -162.5t-2 -119t-24.5 -85t-62.5 -65.5 q-47 -37 -97.5 -49.5t-97.5 -9t-89 12.5t-75 15q-8 -12 -22.5 -55t-27.5 -101.5t-24.5 -127t-9.5 -136.5q0 -45 17.5 -61.5t66.5 2.5q45 16 89 40.5t93.5 62.5t106.5 93.5t131 129.5q31 28 52.5 10.5t-7.5 -47.5q-139 -183 -229 -273t-153.5 -117.5t-112 -4t-103.5 74.5 q-16 6 -35.5 16.5t-35 26t-22.5 42t-1 67.5zM383 606q37 -2 75 1t83 48q20 25 29.5 57.5t11.5 71.5t0 80t-2 80q0 31 -10.5 48.5t-53.5 -17.5q-57 -45 -113.5 -131t-109.5 -230q14 -2 29 -4q14 -4 30.5 -4h30.5zM356 1606q27 12 53.5 10t63.5 -43q21 -21 47.5 -52.5 t54 -67.5t51 -74t40.5 -68q14 -31 -9.5 -45.5t-50.5 20.5q-45 55 -93 104.5t-91 84.5q-37 28 -58.5 37.5t-37.5 9.5q-11 0 -25 6t-21.5 14t-9.5 15.5t13 13.5z" />
<glyph unicode="&#xe9;" horiz-adv-x="784" d="M39 203q12 82 33.5 178t60.5 217q-35 14 -44 30.5t-2 23.5t24.5 7t44.5 -10q43 92 93 193.5t113 177.5q31 39 56.5 55.5t50.5 16.5t51.5 -11.5t59.5 -25.5q-5 35 6.5 40t77.5 5q30 0 42.5 -4t12.5 -12.5t-4 -22.5t-4 -37q0 -94 3 -162.5t-2 -119t-24.5 -85t-62.5 -65.5 q-47 -37 -97.5 -49.5t-97.5 -9t-89 12.5t-75 15q-8 -12 -22.5 -55t-27.5 -101.5t-24.5 -127t-9.5 -136.5q0 -45 17.5 -61.5t66.5 2.5q45 16 89 40.5t93.5 62.5t106.5 93.5t131 129.5q31 28 52.5 10.5t-7.5 -47.5q-139 -183 -229 -273t-153.5 -117.5t-112 -4t-103.5 74.5 q-16 6 -35.5 16.5t-35 26t-22.5 42t-1 67.5zM383 606q37 -2 75 1t83 48q20 25 29.5 57.5t11.5 71.5t0 80t-2 80q0 31 -10.5 48.5t-53.5 -17.5q-57 -45 -113.5 -131t-109.5 -230q14 -2 29 -4q14 -4 30.5 -4h30.5zM930 1571q10 -6 10 -13.5t-8 -15.5t-21.5 -14t-23.5 -6 q-19 0 -40.5 -9.5t-55.5 -37.5q-46 -35 -94 -84.5t-93 -104.5q-26 -35 -49 -20.5t-8 45.5q14 30 38.5 68t52.5 74t54.5 67.5t44.5 52.5q37 41 63.5 43t53.5 -10z" />
<glyph unicode="&#xea;" horiz-adv-x="776" d="M39 203q12 82 33.5 178t60.5 217q-35 14 -44 30.5t-2 23.5t24.5 7t44.5 -10q43 92 93 193.5t113 177.5q31 39 56.5 55.5t50.5 16.5t51.5 -11.5t59.5 -25.5q-5 35 6.5 40t77.5 5q30 0 42.5 -4t12.5 -12.5t-4 -22.5t-4 -37q0 -94 3 -162.5t-2 -119t-24.5 -85t-62.5 -65.5 q-47 -37 -97.5 -49.5t-97.5 -9t-89 12.5t-75 15q-8 -12 -22.5 -55t-27.5 -101.5t-24.5 -127t-9.5 -136.5q0 -45 17.5 -61.5t66.5 2.5q45 16 89 40.5t93.5 62.5t106.5 93.5t131 129.5q31 28 52.5 10.5t-7.5 -47.5q-139 -183 -229 -273t-153.5 -117.5t-112 -4t-103.5 74.5 q-16 6 -35.5 16.5t-35 26t-22.5 42t-1 67.5zM383 606q37 -2 75 1t83 48q20 25 29.5 57.5t11.5 71.5t0 80t-2 80q0 31 -10.5 48.5t-53.5 -17.5q-57 -45 -113.5 -131t-109.5 -230q14 -2 29 -4q14 -4 30.5 -4h30.5zM326 1282q-11 39 -1.5 45t31.5 12q15 0 51.5 22.5t78.5 50.5 t81 57.5t56 41.5q18 15 24 25t9 18.5t9.5 16.5t22.5 14q27 6 34 8t11 -14q8 -35 24.5 -75t35 -76.5t39 -65.5t36.5 -39q27 -6 30 -18.5t-42 -28.5q-45 -19 -63.5 -21t-38.5 35q-9 15 -22 40.5t-26.5 52t-25.5 50t-16 33.5q-5 13 -41 -14q-17 -12 -49.5 -35.5t-68.5 -50.5 t-69 -51.5t-45 -32.5q-37 -20 -47 -21t-18 21z" />
<glyph unicode="&#xeb;" horiz-adv-x="748" d="M39 203q12 82 33.5 178t60.5 217q-35 14 -44 30.5t-2 23.5t24.5 7t44.5 -10q43 92 93 193.5t113 177.5q31 39 56.5 55.5t50.5 16.5t51.5 -11.5t59.5 -25.5q-5 35 6.5 40t77.5 5q30 0 42.5 -4t12.5 -12.5t-4 -22.5t-4 -37q0 -94 3 -162.5t-2 -119t-24.5 -85t-62.5 -65.5 q-47 -37 -97.5 -49.5t-97.5 -9t-89 12.5t-75 15q-8 -12 -22.5 -55t-27.5 -101.5t-24.5 -127t-9.5 -136.5q0 -45 17.5 -61.5t66.5 2.5q45 16 89 40.5t93.5 62.5t106.5 93.5t131 129.5q31 28 52.5 10.5t-7.5 -47.5q-139 -183 -229 -273t-153.5 -117.5t-112 -4t-103.5 74.5 q-16 6 -35.5 16.5t-35 26t-22.5 42t-1 67.5zM383 606q37 -2 75 1t83 48q20 25 29.5 57.5t11.5 71.5t0 80t-2 80q0 31 -10.5 48.5t-53.5 -17.5q-57 -45 -113.5 -131t-109.5 -230q14 -2 29 -4q14 -4 30.5 -4h30.5zM393 1298q31 76 42 138.5t18 119.5q6 25 7 37.5t11 18.5 q8 2 20.5 -14.5t40.5 -45.5q15 -18 19 -43q4 -26 -5 -66t-38 -108q-23 -59 -38 -88.5t-34 -19.5q-45 24 -51 59q0 14 8 12zM672 1300q28 76 40.5 138.5t18.5 122.5q2 20 4 32.5t13 18.5q10 2 21 -12.5t42 -47.5q12 -16 16 -43q4 -26 -6 -66t-37 -104q-22 -63 -37.5 -91.5 t-31.5 -20.5q-47 26 -51 59q0 14 8 14z" />
<glyph unicode="&#xec;" horiz-adv-x="506" d="M12 61q39 64 80 176.5t79 236.5t62.5 237.5t30.5 181.5q4 57 -10 57t-43 -28l-82 -76q-23 -21 -37 -14.5t6 36.5q37 52 70 89.5t61 72.5q25 27 45.5 23t55.5 -29q20 -4 40.5 -9t36 -17.5t18.5 -39t-3 -73.5q-10 -54 -31.5 -141t-48.5 -175t-50.5 -161.5t-33.5 -108.5 q35 31 59.5 62.5t44.5 62.5q15 18 26 11t-3 -36q-12 -28 -47 -80.5t-62 -97.5q-12 -20 -31.5 -53t-34.5 -65.5t-28.5 -62.5t-19.5 -40q-6 -23 -35 -31t-92 31q-31 16 -34 24.5t11 36.5zM244 1606q28 12 55 10t63 -43q19 -21 45.5 -52.5t54 -67.5t52.5 -74t41 -68 q12 -31 -11.5 -45.5t-47.5 20.5q-45 55 -93.5 104.5t-93.5 84.5q-35 28 -56.5 37.5t-39.5 9.5q-10 0 -24.5 6t-21.5 14t-8 15.5t11 13.5z" />
<glyph unicode="&#xed;" horiz-adv-x="543" d="M12 61q39 64 80 176.5t79 236.5t62.5 237.5t30.5 181.5q4 57 -10 57t-43 -28l-82 -76q-23 -21 -37 -14.5t6 36.5q37 52 70 89.5t61 72.5q25 27 45.5 23t55.5 -29q20 -4 40.5 -9t36 -17.5t18.5 -39t-3 -73.5q-10 -54 -31.5 -141t-48.5 -175t-50.5 -161.5t-33.5 -108.5 q35 31 59.5 62.5t44.5 62.5q15 18 26 11t-3 -36q-12 -28 -47 -80.5t-62 -97.5q-12 -20 -31.5 -53t-34.5 -65.5t-28.5 -62.5t-19.5 -40q-6 -23 -35 -31t-92 31q-31 16 -34 24.5t11 36.5zM709 1571q10 -6 10 -13.5t-8.5 -15.5t-21.5 -14t-23 -6q-19 0 -40.5 -9.5t-56.5 -37.5 q-45 -35 -93 -84.5t-93 -104.5q-27 -35 -49.5 -20.5t-7.5 45.5q16 30 39.5 68t51 74t54.5 67.5l45 52.5q39 41 64.5 43t52.5 -10z" />
<glyph unicode="&#xee;" horiz-adv-x="543" d="M12 61q39 64 80 176.5t79 236.5t62.5 237.5t30.5 181.5q4 57 -10 57t-43 -28l-82 -76q-23 -21 -37 -14.5t6 36.5q37 52 70 89.5t61 72.5q25 27 45.5 23t55.5 -29q20 -4 40.5 -9t36 -17.5t18.5 -39t-3 -73.5q-10 -54 -31.5 -141t-48.5 -175t-50.5 -161.5t-33.5 -108.5 q35 31 59.5 62.5t44.5 62.5q15 18 26 11t-3 -36q-12 -28 -47 -80.5t-62 -97.5q-12 -20 -31.5 -53t-34.5 -65.5t-28.5 -62.5t-19.5 -40q-6 -23 -35 -31t-92 31q-31 16 -34 24.5t11 36.5zM141 1282q-12 39 -1.5 45t32.5 12q14 0 51 22.5t78 50.5t82 57.5t55 41.5q17 15 24 25 t11 18.5t9 16.5t24 14q24 6 32.5 8t12.5 -14q8 -35 24.5 -75t35 -76.5t38 -65.5t35.5 -39q27 -6 31 -18.5t-41 -28.5q-45 -19 -63.5 -21t-41.5 35q-8 15 -20 40.5t-26.5 52t-26 50t-17.5 33.5q-2 13 -41 -14q-14 -12 -48 -35.5t-69.5 -50.5t-67.5 -51.5t-44 -32.5 q-39 -20 -49 -21t-19 21z" />
<glyph unicode="&#xef;" horiz-adv-x="551" d="M12 61q39 64 80 176.5t79 236.5t62.5 237.5t30.5 181.5q4 57 -10 57t-43 -28l-82 -76q-23 -21 -37 -14.5t6 36.5q37 52 70 89.5t61 72.5q25 27 45.5 23t55.5 -29q20 -4 40.5 -9t36 -17.5t18.5 -39t-3 -73.5q-10 -54 -31.5 -141t-48.5 -175t-50.5 -161.5t-33.5 -108.5 q35 31 59.5 62.5t44.5 62.5q15 18 26 11t-3 -36q-12 -28 -47 -80.5t-62 -97.5q-12 -20 -31.5 -53t-34.5 -65.5t-28.5 -62.5t-19.5 -40q-6 -23 -35 -31t-92 31q-31 16 -34 24.5t11 36.5zM231 1298q29 76 41.5 138.5t18.5 119.5l6 37.5t12 18.5q8 2 20.5 -14.5t41.5 -45.5 q12 -18 18 -43q2 -26 -7 -66t-36 -108q-24 -59 -38.5 -88.5t-33.5 -19.5q-45 24 -51 59q0 14 8 12zM508 1300q31 76 42 138.5t19 122.5q2 20 4 32.5t13 18.5q8 2 19 -12.5t42 -47.5q12 -16 19 -43q2 -26 -7.5 -66t-35.5 -104q-25 -63 -39.5 -91.5t-32.5 -20.5q-45 26 -51 59 q0 14 8 14z" />
<glyph unicode="&#xf7;" horiz-adv-x="1116" d="M717 1028q0 -53 -36 -90t-89 -37t-91 37t-38 90q0 51 38 89t91 38t89 -38t36 -89zM141 561v133h899v-133h-899zM717 229q0 -55 -36 -92t-89 -37t-91 37t-38 92q0 54 38 89.5t91 35.5t89 -35.5t36 -89.5z" />
<glyph unicode="&#xf9;" horiz-adv-x="987" d="M88 125q8 78 21.5 165t32 170t40 155.5t41.5 125.5q-28 -20 -39.5 -33.5t-25.5 -25.5q-17 -14 -27 -7t4 27q25 37 39 58.5t22.5 36t12.5 21.5t8 20q25 61 46.5 98t39.5 59q12 11 22.5 20t27 9t42 -9t60.5 -32q30 -20 15 -36.5t-26 -31.5q-28 -45 -65 -139t-71 -208.5 t-58.5 -232.5t-24.5 -208q0 -107 92 -6q37 39 86.5 104.5t100.5 141t102 156.5t93 149.5t72 120t40 69.5q23 58 50.5 103t43.5 55q27 18 50.5 15t72.5 -34q27 -16 34 -24t5 -12t-8 -8.5t-12 -14.5q-89 -162 -155.5 -361.5t-103.5 -392.5q23 45 48.5 91.5t40.5 70.5 q10 29 30.5 17.5t5.5 -39.5q-32 -72 -64 -152t-46 -141q-15 -62 -38.5 -65t-105.5 50q-28 23 -31 42.5t5 60.5q12 51 25.5 113.5t31 129t34.5 130t40 118.5q-53 -86 -103.5 -164.5t-99.5 -152.5t-103.5 -144.5t-115.5 -140.5q-39 -45 -80 -44t-88 32q-53 10 -72.5 33.5 t-13.5 91.5zM461 1606q26 12 53 10t64 -43q20 -21 45.5 -52.5t54.5 -67.5t52.5 -74t39.5 -68q12 -31 -10.5 -45.5t-48.5 20.5q-45 55 -93.5 104.5t-93.5 84.5q-35 28 -56.5 37.5t-39.5 9.5q-8 0 -22.5 6t-21.5 14t-9 15.5t10 13.5z" />
<glyph unicode="&#xfa;" horiz-adv-x="1004" d="M88 125q8 78 21.5 165t32 170t40 155.5t41.5 125.5q-28 -20 -39.5 -33.5t-25.5 -25.5q-17 -14 -27 -7t4 27q25 37 39 58.5t22.5 36t12.5 21.5t8 20q25 61 46.5 98t39.5 59q12 11 22.5 20t27 9t42 -9t60.5 -32q30 -20 15 -36.5t-26 -31.5q-28 -45 -65 -139t-71 -208.5 t-58.5 -232.5t-24.5 -208q0 -107 92 -6q37 39 86.5 104.5t100.5 141t102 156.5t93 149.5t72 120t40 69.5q23 58 50.5 103t43.5 55q27 18 50.5 15t72.5 -34q27 -16 34 -24t5 -12t-8 -8.5t-12 -14.5q-89 -162 -155.5 -361.5t-103.5 -392.5q23 45 48.5 91.5t40.5 70.5 q10 29 30.5 17.5t5.5 -39.5q-32 -72 -64 -152t-46 -141q-15 -62 -38.5 -65t-105.5 50q-28 23 -31 42.5t5 60.5q12 51 25.5 113.5t31 129t34.5 130t40 118.5q-53 -86 -103.5 -164.5t-99.5 -152.5t-103.5 -144.5t-115.5 -140.5q-39 -45 -80 -44t-88 32q-53 10 -72.5 33.5 t-13.5 91.5zM1092 1571q10 -6 10 -13.5t-7.5 -15.5t-21.5 -14t-24 -6q-19 0 -40.5 -9.5t-56.5 -37.5q-45 -35 -93 -84.5t-91 -104.5q-29 -35 -51.5 -20.5t-7.5 45.5q16 30 39.5 68t51 74t54.5 67.5l45 52.5q39 41 65.5 43t53.5 -10z" />
<glyph unicode="&#xfb;" horiz-adv-x="1012" d="M88 125q8 78 21.5 165t32 170t40 155.5t41.5 125.5q-28 -20 -39.5 -33.5t-25.5 -25.5q-17 -14 -27 -7t4 27q25 37 39 58.5t22.5 36t12.5 21.5t8 20q25 61 46.5 98t39.5 59q12 11 22.5 20t27 9t42 -9t60.5 -32q30 -20 15 -36.5t-26 -31.5q-28 -45 -65 -139t-71 -208.5 t-58.5 -232.5t-24.5 -208q0 -107 92 -6q37 39 86.5 104.5t100.5 141t102 156.5t93 149.5t72 120t40 69.5q23 58 50.5 103t43.5 55q27 18 50.5 15t72.5 -34q27 -16 34 -24t5 -12t-8 -8.5t-12 -14.5q-89 -162 -155.5 -361.5t-103.5 -392.5q23 45 48.5 91.5t40.5 70.5 q10 29 30.5 17.5t5.5 -39.5q-32 -72 -64 -152t-46 -141q-15 -62 -38.5 -65t-105.5 50q-28 23 -31 42.5t5 60.5q12 51 25.5 113.5t31 129t34.5 130t40 118.5q-53 -86 -103.5 -164.5t-99.5 -152.5t-103.5 -144.5t-115.5 -140.5q-39 -45 -80 -44t-88 32q-53 10 -72.5 33.5 t-13.5 91.5zM465 1282q-10 39 -1 45t34 12q14 0 51 22.5t78 50.5t81 57.5t56 41.5q16 15 22.5 25t10.5 18.5t9 16.5t25 14q23 6 31 8t15 -14q8 -35 23 -75t33.5 -76.5t39 -65.5t37.5 -39q26 -6 30 -18.5t-43 -28.5q-45 -19 -63.5 -21t-38.5 35q-8 15 -21.5 40.5t-26.5 52 t-24.5 50t-19.5 33.5q-2 13 -39 -14q-16 -12 -49 -35.5t-69 -50.5t-67.5 -51.5t-46.5 -32.5q-36 -20 -47.5 -21t-19.5 21z" />
<glyph unicode="&#xfc;" horiz-adv-x="981" d="M88 125q8 78 21.5 165t32 170t40 155.5t41.5 125.5q-28 -20 -39.5 -33.5t-25.5 -25.5q-17 -14 -27 -7t4 27q25 37 39 58.5t22.5 36t12.5 21.5t8 20q25 61 46.5 98t39.5 59q12 11 22.5 20t27 9t42 -9t60.5 -32q30 -20 15 -36.5t-26 -31.5q-28 -45 -65 -139t-71 -208.5 t-58.5 -232.5t-24.5 -208q0 -107 92 -6q37 39 86.5 104.5t100.5 141t102 156.5t93 149.5t72 120t40 69.5q23 58 50.5 103t43.5 55q27 18 50.5 15t72.5 -34q27 -16 34 -24t5 -12t-8 -8.5t-12 -14.5q-89 -162 -155.5 -361.5t-103.5 -392.5q23 45 48.5 91.5t40.5 70.5 q10 29 30.5 17.5t5.5 -39.5q-32 -72 -64 -152t-46 -141q-15 -62 -38.5 -65t-105.5 50q-28 23 -31 42.5t5 60.5q12 51 25.5 113.5t31 129t34.5 130t40 118.5q-53 -86 -103.5 -164.5t-99.5 -152.5t-103.5 -144.5t-115.5 -140.5q-39 -45 -80 -44t-88 32q-53 10 -72.5 33.5 t-13.5 91.5zM516 1298q31 76 42 138.5t17 119.5q5 25 7 37.5t12 18.5q8 2 19.5 -14.5t41.5 -45.5q13 -18 19 -43q2 -26 -7.5 -66t-35.5 -108q-25 -59 -39 -88.5t-33 -19.5q-47 24 -51 59q0 14 8 12zM793 1300q30 76 41.5 138.5t19.5 122.5q2 20 4 32.5t12 18.5q9 2 20 -12.5 t42 -47.5q12 -16 18 -43q2 -26 -6 -66t-37 -104q-22 -63 -37.5 -91.5t-33.5 -20.5q-45 26 -52 59q0 14 9 14z" />
<glyph unicode="&#xff;" horiz-adv-x="958" d="M1010 899q-31 -145 -78 -355t-112.5 -438.5t-149.5 -452.5t-188.5 -403.5t-232.5 -290t-284 -110.5q-108 0 -232 60.5t-270 193.5q-18 18 -20 37.5t6 33t25.5 14.5t38.5 -13q96 -84 183 -132.5t195 -48.5q111 0 210.5 64.5t185.5 178.5t158.5 267.5t136 328.5t115 363.5 t91.5 378.5q9 37 16 73t13 73q-69 -115 -148 -227.5t-156 -210t-145.5 -173t-111.5 -112.5q-41 -33 -64.5 -39t-43 2t-37 32.5t-45.5 57.5q-23 27 -9 43q9 6 21 10q35 48 63.5 149t51 217t37 230.5t22.5 188.5q2 33 -4 42t-16.5 4t-23.5 -19.5t-30 -26.5 q-28 -23 -46.5 -40.5t-33.5 -29.5q-18 -12 -31.5 -2t3.5 33q20 29 43.5 59.5t54.5 75.5q22 33 37.5 55.5t29 32.5t29 8t45.5 -14q33 4 57.5 8t39 -3t18.5 -28.5t2 -68.5q-4 -74 -24.5 -196t-47 -250t-53.5 -237.5t-45 -150.5q43 33 99.5 97.5t119 142.5t121.5 164t110.5 167 t88 153.5t51.5 119.5q0 45 10 65.5t26.5 20.5t42 -13.5t60.5 -39.5q29 -23 29 -56.5t-4 -62.5zM512 1298q29 76 40 138.5t17 119.5q6 25 7.5 37.5t13.5 18.5q8 2 19.5 -14.5t39.5 -45.5q15 -18 19 -43q4 -26 -5.5 -66t-37.5 -108q-23 -59 -38.5 -88.5t-31.5 -19.5 q-47 24 -51 59q0 14 8 12zM788 1300q29 76 41.5 138.5t20.5 122.5q2 20 3 32.5t13 18.5q8 2 19.5 -12.5t42.5 -47.5q12 -16 16 -43q4 -26 -5 -66t-38 -104q-22 -63 -36.5 -91.5t-33.5 -20.5q-47 26 -51 59q0 14 8 14z" />
<glyph unicode="&#x131;" horiz-adv-x="483" d="M12 61q39 64 80 176.5t79 236.5t62.5 237.5t30.5 181.5q4 57 -10 57t-43 -28l-82 -76q-23 -21 -37 -14.5t6 36.5q37 52 70 89.5t61 72.5q25 27 45.5 23t55.5 -29q20 -4 40.5 -9t36 -17.5t18.5 -39t-3 -73.5q-10 -54 -31.5 -141t-48.5 -175t-50.5 -161.5t-33.5 -108.5 q35 31 59.5 62.5t44.5 62.5q15 18 26 11t-3 -36q-12 -28 -47 -80.5t-62 -97.5q-12 -20 -31.5 -53t-34.5 -65.5t-28.5 -62.5t-19.5 -40q-6 -23 -35 -31t-92 31q-31 16 -34 24.5t11 36.5z" />
<glyph unicode="&#x152;" horiz-adv-x="2142" d="M692 -47q-33 0 -66.5 3t-61 13.5t-44 22.5t-8.5 26q-80 21 -144.5 48.5t-110.5 71.5t-70.5 111.5t-18.5 170.5q6 209 70.5 418t152.5 386t178 306t152 184q61 62 123 62q49 0 100 -12.5t119 -43.5q12 19 34.5 35.5t65.5 23.5t111.5 7t173.5 -12q106 -17 211.5 -41.5 t201 -48t179.5 -42t151 -24.5q27 37 49.5 61.5t47.5 20.5q20 -6 29.5 -47t4.5 -97q-4 -24 -6 -36.5t-9 -19.5t-16.5 -10t-25.5 -11q-29 -15 -50.5 -22t-64.5 7q-20 4 -18 3t7 -1t-2 1t-42 12q-67 20 -175 41.5t-269 48.5q16 -37 19 -79t-6 -100.5t-33.5 -139.5t-67.5 -201 q127 14 227 17t186 -1q41 -6 62.5 -17.5t30 -29t8.5 -41t6 -47.5q2 -29 -9.5 -42.5t-33 -22.5t-50 -14t-63.5 -13q-39 -7 -55.5 2.5t-24.5 25t-17 28.5t-34 13h-43t-74 -3t-88 -5t-84 -4q-18 -53 -58 -141t-88 -180.5t-97.5 -175.5t-87.5 -130q67 0 169.5 -1t213 -5t216 -9 t177.5 -13q35 -7 44 12.5t10 41t7 38t37 14.5q29 -4 44 -59.5t28 -116.5q2 -20 -3 -36.5t-15.5 -30t-26 -27t-29.5 -31.5q-31 -37 -58.5 -27.5t-82.5 23.5q-80 16 -168 34.5t-191.5 29t-226.5 11.5t-274 -16q-41 -39 -75 -67.5t-75 -46t-89 -25.5t-116 -8zM797 70 q-9 55 -3.5 87.5t28 52t58 25t89.5 7.5q28 22 73 80.5t89.5 132t85 150.5t61.5 136q-55 97 -62.5 148t17 73.5t66.5 28.5t85 19q29 69 56.5 156t48 169t32 149.5t5.5 102.5q-70 12 -122 20.5t-95 4.5t-85 -23.5t-87 -68.5q-45 -47 -73 -131t-44 -173.5t-22.5 -165 t-6.5 -102.5q-6 -61 -34.5 -61t-32.5 53q-15 174 9.5 357.5t80.5 351.5q-41 6 -81 2t-63 -25q-36 -27 -90.5 -93.5t-115 -160.5t-120 -211t-107.5 -243.5t-74.5 -257t-20.5 -250.5q0 -68 14.5 -115t37 -82t57 -60.5t79.5 -48.5q68 -34 132.5 -45.5t134.5 11.5z" />
<glyph unicode="&#x153;" horiz-adv-x="1237" d="M629 100q-8 -10 -17.5 -19t-17.5 -20q-51 -53 -86 -70.5t-96 -17.5q-17 0 -35.5 2t-30.5 7q-18 2 -35 8q-57 2 -108 22.5t-90 54t-59.5 84t-18.5 109.5q4 62 29.5 167t66.5 219t94.5 218.5t110.5 167.5q22 27 42.5 43.5t44 14t56.5 -24t82 -68.5q23 9 36 15t22.5 11 t21.5 10t33 14q28 10 51 14t44.5 -6.5t45 -37t53.5 -79.5q17 20 32 41.5t32 42.5q31 41 56.5 57.5t50 16.5t50 -12.5t62.5 -26.5q-6 35 6 40t74 5q31 0 43 -3t13 -12.5t-3 -23.5t-4 -35q0 -96 3 -165.5t-2 -119t-24.5 -85t-60.5 -64.5q-47 -39 -92 -50.5t-84 -11.5t-80 9.5 t-84 19.5q-6 -12 -23.5 -55t-37 -101.5t-33.5 -126t-10 -135.5q2 -45 19 -61t65 0q43 16 87 42t93 63.5t107.5 92t133.5 128.5q29 28 48.5 14t-5.5 -49q-131 -178 -220 -270.5t-154.5 -120t-115.5 -4t-108 74.5q-10 10 -15 15.5t-9 8.5t-11.5 7t-19.5 10q-6 4 -10 4t-8 2z M707 598q-35 14 -46.5 30.5t-6.5 26t21.5 9.5t39.5 -11q10 35 14 72t10 74q6 53 9.5 88t-2 53t-20.5 22.5t-44 -4.5q-45 -18 -84 -34q-37 -15 -70.5 -29t-48.5 -18q-28 -15 -37.5 -16t-21.5 26q-43 -53 -78 -124t-61.5 -142.5t-46 -138t-25.5 -105.5q-31 -168 4 -250 t104 -80q45 4 107 41q41 29 83 82t78 120.5t66.5 146.5t55.5 161zM950 606q35 -4 75 1t85 50q20 25 30.5 58t11.5 71.5t0 79.5t-1 82q0 31 -11.5 47.5t-52.5 -16.5q-59 -49 -108 -134t-102 -229q10 0 20 -2q18 -2 53 -8z" />
<glyph unicode="&#x178;" horiz-adv-x="1782" d="M317 1044q-41 62 -76.5 124.5t-44 116.5t21.5 101.5t120 73.5q72 27 163 54.5t179 55t166 54.5t127 47q24 45 49 73t54.5 30t70.5 -20.5t98 -76.5q35 -28 6.5 -46.5t-102.5 -39.5q-86 -116 -152.5 -266.5t-112.5 -299t-69.5 -281t-23.5 -214.5q0 -75 18 -118t47 -58.5 t62.5 -5.5t68.5 45q258 260 450.5 552t354.5 628q27 100 64.5 128t113.5 -59q15 -16 19 -36.5t-11.5 -57.5t-50.5 -94t-98 -145q-23 -60 -55.5 -160t-69.5 -225t-80 -265.5t-87 -277.5t-86 -263t-83 -222q-47 -113 -85 -177.5t-92 -74t-138 35t-222 142.5q-24 14 -28 31.5 t5 25.5t27.5 11.5t41.5 -5.5q53 -20 94 -36.5t76.5 -16.5t66.5 21.5t62 76.5q51 97 108 221.5t112.5 267t107.5 297t95 306.5q-63 -113 -134.5 -220.5t-143.5 -202.5t-139.5 -176t-118.5 -132q-41 -43 -71.5 -61.5t-57.5 -18.5t-49.5 15.5t-48.5 41.5q-66 41 -109 65.5 t-66.5 57.5t-31.5 77t-6 126q2 80 26.5 190.5t61.5 234.5t84 250t92 238q-51 -18 -113.5 -44.5t-125 -56.5t-121 -62.5t-99.5 -65.5q-43 -33 -56.5 -58.5t-11.5 -52t15.5 -59.5t25.5 -76q11 -37 -24 -34t-60 46zM1331 1937q31 74 42 137.5t18 123.5q4 22 5 34.5t13 18.5 q8 2 19.5 -14.5t39.5 -45.5q15 -18 21 -43q2 -26 -7 -66t-36 -106q-25 -61 -39 -91t-33 -17q-45 22 -51 57q0 17 8 12zM1608 1942q30 73 41.5 135.5t19.5 122.5q2 20 3 32.5t14 18.5q8 2 19 -13.5t42 -46.5q12 -16 18 -43q2 -26 -7 -66t-36 -104q-22 -63 -37.5 -90.5 t-33.5 -19.5q-45 24 -52 57q0 17 9 17z" />
<glyph unicode="&#x192;" horiz-adv-x="1616" d="M694 938q-102 0 -161.5 -1t-88 -7t-40 -15.5t-19.5 -21.5q-4 -12 -12 -17.5t-15.5 -2t-7.5 15.5t8 43q27 82 45.5 107.5t61.5 23.5q-14 0 57.5 -7t225.5 -9q71 137 145 269t147.5 243.5t145 196.5t135.5 132q41 27 70.5 41.5t66.5 10t88 -31t127 -83.5q58 -17 93.5 -28 t54 -24.5t22.5 -33t-4 -53.5q-10 -56 -36.5 -143t-61.5 -152q-27 -52 -54.5 -67t-80.5 -1q-70 25 -82.5 55.5t32.5 42.5q23 29 40.5 69t29.5 81t20.5 79t12.5 64q6 33 -12.5 54.5t-47 30.5t-63.5 4t-63 -21q-68 -41 -135.5 -113t-135 -168t-136.5 -210.5t-130 -241.5 q76 4 120 4t68.5 3t32.5 11t23 25q18 22 35.5 13t-1.5 -56q-16 -39 -25 -63.5t-24.5 -37t-48.5 -16.5t-92 -2q-31 2 -74 2t-80 4q-20 -47 -41.5 -90t-44.5 -86q90 0 139.5 2t73 7t32.5 13.5t20 20.5q18 22 35.5 13t-1.5 -54q-16 -41 -25 -64.5t-24.5 -37t-48.5 -16.5t-90 -3 q-35 0 -80 2t-84 2q-65 -145 -123.5 -283.5t-105.5 -259t-82 -220t-49 -165.5q-17 -63 -29 -91.5t-29.5 -44t-48.5 -20.5t-86 -16q-57 -14 -68.5 -1.5t-3.5 63.5q9 51 14 114.5t4 122t-9.5 98.5t-20.5 46q-24 4 -32.5 10t-10.5 25q-4 30 105 49q47 8 72.5 8t38 -8.5 t16.5 -24.5t8 -45q35 102 103.5 272t160.5 375q-96 0 -154.5 -1t-87 -6t-39 -15.5t-18.5 -22.5q-4 -10 -13.5 -15t-15.5 -2t-6 15t8 43q27 80 42.5 105.5t62.5 21.5q35 -2 81 -5t89 -5t72.5 -2h29.5q23 41 44.5 87t43.5 91z" />
<glyph unicode="&#x2c6;" horiz-adv-x="604" d="M4 1282q-8 39 0 45t35 12q12 0 49 22.5t79 50.5t81 57.5t55 41.5q16 15 23.5 25t11.5 18.5t8 16.5t25 14q22 6 30.5 8t14.5 -14q8 -35 23.5 -75t35 -76.5t38.5 -65.5t36 -39q26 -6 30.5 -18.5t-40.5 -28.5q-45 -19 -64.5 -21t-40.5 35q-8 15 -21.5 40.5t-26.5 52 t-25.5 50t-18.5 33.5q0 13 -39 -14q-16 -12 -49 -35.5t-68.5 -50.5t-67.5 -51.5t-46 -32.5q-37 -20 -48.5 -21t-19.5 21z" />
<glyph unicode="&#x2c7;" horiz-adv-x="2589" d="M334 0v1997h1997v-1997h-1997zM500 166h1663v1665h-1663v-1665z" />
<glyph unicode="&#x2d8;" horiz-adv-x="680" d="M547 1530q14 0 22.5 -2t5.5 -17q-14 -77 -55 -126.5t-91 -76t-100 -33.5t-81 -7q-35 0 -79 5t-83 25.5t-64.5 57.5t-25.5 96v31.5t4 29.5q4 17 12 17h23q22 0 29.5 -4t1.5 -19q-3 -12 -3 -18q0 -39 17.5 -62.5t47.5 -37t66.5 -17.5t77.5 -4q74 0 148 35t92 110q0 13 4 15 t31 2z" />
<glyph unicode="&#x2d9;" horiz-adv-x="309" d="M8 1296q31 78 43 141.5t19 125.5q4 26 6 38.5t12 16.5h2q8 0 21.5 -15.5l40.5 -46.5q14 -14 20 -43v-6q0 -57 -45 -174q-21 -55 -35 -85.5t-31 -30.5q-4 0 -5 1t-3 1q-49 26 -53 61q0 16 8 16z" />
<glyph unicode="&#x2da;" horiz-adv-x="557" d="M403 1511q43 -30 43 -65q0 -43 -65 -105q-39 -36 -86 -69t-94 -45q-6 0 -12.5 -1t-10.5 -1q-20 0 -40.5 7t-41.5 21q-6 4 -10 8.5t-6 6.5l-6 6q-39 31 -56.5 57.5t-17.5 50.5q0 21 12 48q11 18 38.5 44.5t60 52t68.5 48t65 31.5q22 6 24 6q23 0 33 -20.5t29 -65.5 q4 -4 4 -6q0 -9 -15 -9q-8 0 -12 7q-8 8 -22 8q-11 0 -19 -4q-45 -13 -89 -54t-62 -65q-37 -51 -37 -72q0 -22 22 -39q17 -6 33 -6q27 0 55.5 15.5t59.5 36t58.5 48t47.5 52.5q23 22 23 45q0 8 -8 20q-11 10 -11 23q0 8 11 8q12 0 34 -23z" />
<glyph unicode="&#x2db;" horiz-adv-x="350" d="M401 31q-102 -64 -158.5 -122.5t-82 -105.5t-30.5 -83.5t-5 -49.5v-4q0 -37 20.5 -61.5t44.5 -24.5q9 0 23 8q53 23 87 48.5t77 70.5q6 6 6 21q0 12 -3 22t-3 17q0 4 2 8q10 4 12 4q12 0 25 -17q39 -47 39 -73q0 -23 -19 -39q-47 -53 -86 -83t-106 -61q-23 -10 -45 -10 q-29 0 -46.5 14.5t-31.5 43.5q-15 0 -36.5 5t-39.5 11t-31.5 16.5t-13.5 20.5v4q0 27 5 72t36 101t96.5 118.5t184.5 128.5h79z" />
<glyph unicode="&#x2dc;" horiz-adv-x="868" d="M383 1466q53 -49 74.5 -56t42.5 -13q16 -2 35.5 10t41 31.5t41 41t31.5 33.5q4 31 21.5 31t36.5 -22q14 -21 23 -31t-5 -33q-18 -22 -49 -55t-63.5 -62.5t-58.5 -50t-36 -16.5q-39 6 -79 42t-89 89q-51 51 -73.5 57t-45.5 13q-14 4 -35.5 -9.5t-42 -31t-40 -39 t-31.5 -33.5q0 -31 -18.5 -31t-32.5 21q-19 18 -27 30.5t4 30.5q19 25 49.5 57.5t62.5 62.5t58.5 51.5t36.5 19.5q41 -9 80 -45.5t88 -92.5z" />
<glyph unicode="&#x2dd;" horiz-adv-x="762" d="M319 1571q17 -8 17 -17q0 -12 -16.5 -22t-32.5 -10q-19 0 -38.5 -9.5t-47.5 -37.5q-39 -35 -76 -84.5t-72 -104.5q-10 -20 -30 -20q-25 0 -25 30q0 9 2 15q10 30 27.5 68t38 74t40 67.5t31.5 52.5q37 45 72 45q20 0 43 -12zM616 1571q17 -8 17 -17q0 -12 -15.5 -22 t-31.5 -10q-19 0 -38.5 -9.5t-49.5 -37.5q-37 -35 -76 -84.5t-76 -104.5q-10 -20 -29 -20q-26 0 -26 30q0 4 1 6.5t1 8.5q10 30 27.5 68t39 74t42 67.5t34.5 52.5q37 45 70 45q22 0 43 -12z" />
<glyph unicode="&#x3c0;" horiz-adv-x="1321" d="M1253 16q-61 -34 -159 -34q-80 0 -132.5 25.5t-85 69.5t-47 102.5t-14.5 119.5v727h-303v-700q0 -109 -8 -189t-23 -139h-202q18 74 24 160t6 180v688q-43 0 -104.5 -14.5t-102.5 -34.5q-16 41 -27.5 68.5t-27.5 68.5q43 23 125 44.5t195 21.5h876v-154h-225v-707 q0 -81 27.5 -132.5t99.5 -51.5q22 0 36.5 4t35.5 13z" />
<glyph unicode="&#x1000;" horiz-adv-x="2046" d="M891 1194q33 16 73 18t78.5 -5t74.5 -22.5t60.5 -36t36 -44t3.5 -45.5l-66 -473q494 540 661 594q46 2 88 -12.5t74.5 -39t54 -59.5t25.5 -74q2 -45 -3 -130t-20.5 -200.5t-40 -257t-57.5 -296.5q-14 -35 -51 -64t-80 -50.5t-89 -33.5t-82 -15t-58.5 3t-16.5 24 q54 199 88.5 364t53 282.5t19.5 185t-11 76.5q-12 18 -47 3.5t-84 -51t-107.5 -92t-120 -116t-120 -123t-105.5 -115.5q-6 -53 -15 -101t-18.5 -89t-15.5 -76t-8 -62q-39 -18 -91 -41.5t-102.5 -43t-93.5 -33t-59 -11.5q-2 11 5 62t21.5 130t32 176t33.5 198.5t32.5 200 t26 178t11.5 134t-7 64.5q-69 -65 -134.5 -130.5t-124 -127t-106.5 -118t-86 -100.5t-59.5 -75.5t-27.5 -46.5q26 0 43.5 -2t30 -7t21.5 -14.5t22 -25.5q-27 -84 -71 -155.5t-98.5 -127t-116 -92.5t-124.5 -51q-72 -6 -114 10.5t-62.5 45t-22.5 63.5t4 59q31 62 80 131.5 t112.5 143t138.5 150.5t152 149.5t155.5 141.5t152.5 125t138.5 101t113.5 72z" />
<glyph unicode="&#x1001;" horiz-adv-x="1253" d="M903 524q-88 -6 -162.5 -24.5t-143.5 -44t-132.5 -53t-126.5 -52.5q-39 -18 -77 -47t-69.5 -61.5t-58.5 -68.5t-41 -66.5t-16 -56t12 -38.5q78 33 175 82t203.5 111.5t217.5 141.5t219 177zM410 1020q0 -37 9 -86t27 -105q11 -45 -60 -25.5t-239 101.5l-26 146 q45 34 86 66t82 57q166 -5 314.5 -15t276.5 -36.5t232.5 -74t179.5 -126.5q15 -19 23 -48.5t9 -66.5t-2 -77t-10 -74.5t-17.5 -62.5t-20.5 -42q-70 -92 -159 -177t-189.5 -159t-205 -135.5t-202.5 -107.5t-186 -75.5t-154 -41.5q-24 -15 -58 -5.5t-69 34t-67.5 58t-59 67.5 t-44 65.5t-17.5 48.5q4 80 55 148.5t136 124t195.5 98.5t234.5 71.5t252 43t247 14.5q12 4 25.5 24.5t23.5 48t14.5 54t-2.5 43.5q-67 49 -140 89t-152.5 69.5t-164.5 48t-177 20.5z" />
<glyph unicode="&#x1002;" horiz-adv-x="1145" d="M674 1192q69 4 136 2t124 -12.5t101 -28.5t67 -49q-6 -103 -12.5 -212.5t-10.5 -213t-6 -196.5t0 -164.5t10.5 -117.5t20.5 -57q-33 -30 -72 -58t-78 -50.5t-75.5 -35.5t-64.5 -17.5t-43 4t-11 30.5q-4 43 0 111t12 150.5t18.5 175t19.5 182.5t15 173t6 146.5t-8 103.5 t-26 44q-39 -31 -84 -76t-91.5 -102.5t-92.5 -121t-91 -128t-85 -127t-74 -115.5q28 4 47.5 -1t34 -16.5t22.5 -24.5t16 -25q-28 -109 -54 -184t-57.5 -122t-75.5 -69.5t-110 -24.5q-41 -2 -71.5 13.5t-52 40t-35 59.5t-18.5 71.5t-1 73.5t15 72q36 70 88.5 149.5t114 163.5 t130 168t137 161t136 142.5t129.5 112.5z" />
<glyph unicode="&#x1003;" horiz-adv-x="1903" d="M-80 109q27 73 51.5 134.5t50 119t53 110.5t60.5 111q21 47 66 89t98 78.5t109.5 69.5t102.5 58.5t74.5 45t28.5 31.5l-307 -4l51 -53q17 -39 -161 -106q-19 8 -38.5 16t-37 20.5t-29.5 25.5t-14 32l162 237q90 33 205.5 43.5t263.5 -0.5q16 0 26 -15t16.5 -38.5 t8.5 -54.5t1 -61.5t-4 -59.5t-9 -49q-41 -25 -85.5 -58.5t-85 -75.5t-79.5 -91.5t-70 -100.5l-219 -383q72 -12 158 11.5t179 81t188 144.5t186 197q10 74 20 137.5t21.5 116t22.5 89t20 57.5q6 14 27.5 32.5t51 38t65.5 36t67.5 28.5t58 16t39.5 -2q-27 -92 -46.5 -188 t-34.5 -193.5t-24.5 -191.5t-12.5 -179t-3 -158t4 -128q80 -8 144.5 18.5t115.5 77.5t89 122t65.5 150.5t46 164.5t29 165t14.5 149.5t2 119.5l307 71q-2 -43 -4 -116.5t-14.5 -166t-40 -199t-77.5 -211.5t-130 -205.5t-197 -182.5q-12 -8 -57 -22.5t-106.5 -29t-130 -26.5 t-131 -18t-109.5 -4t-64 16q-22 29 -31.5 77t-10.5 105.5t1 121t2 122.5q-71 -82 -153 -151.5t-169 -126t-174 -96.5t-167 -58q-29 -10 -66 -12.5t-74.5 3t-73.5 16.5t-62.5 27.5t-41 38t-8.5 44.5z" />
<glyph unicode="&#x1004;" horiz-adv-x="1159" d="M1415 1155q10 -10 23.5 -25.5t24 -29t13.5 -23.5t-10 -8q-110 18 -206.5 17t-185.5 -21.5t-175 -62t-176 -105.5q-102 -72 -178 -148.5t-127 -165.5t-81 -191.5t-40 -227.5q29 2 74 13t94 28.5t100 40t94 45t71 42t32 34.5q-4 8 -12.5 13t-12.5 10t-3 13.5t14 22.5 q24 27 74 52.5t108.5 44t116 27.5t96.5 5q18 -6 23 -26.5t2 -48t-11 -57.5t-18.5 -54.5t-18.5 -42l-8 -17.5q-78 -82 -172 -135t-196.5 -90t-208 -58.5t-201.5 -37.5q-15 -2 -46.5 1t-70.5 12t-81 24.5t-74.5 33t-51 38t-12.5 42.5q6 148 40 272t95.5 230.5t152.5 197.5 t212 171q75 51 163.5 82.5t178.5 50t177 26t163.5 7.5t137 -6.5t97.5 -14.5z" />
<glyph unicode="&#x1005;" horiz-adv-x="1362" d="M811 758q-51 -19 -91 -37.5t-72 -35.5t-55.5 -31.5t-39.5 -26.5l92 -41q19 8 43.5 19t48 25.5t44 31t31.5 33t12 32.5t-13 31zM422 743q33 23 81 42.5t104.5 30.5t116.5 14.5t116 -7.5q26 -8 54 -17t54.5 -22.5t51 -31t44.5 -43.5q-20 -47 -54 -85t-76 -68t-94 -52.5 t-111 -40.5q-23 -4 -50.5 -2t-57.5 8t-57.5 15.5t-49 17.5t-36 13l-14.5 5q-63 -28 -118.5 -70t-85 -96.5t-27.5 -117t57 -130.5q121 0 237 29t220 78t195.5 116.5t164 148.5t128 170t85.5 181q-4 25 -32.5 49.5t-71.5 49t-101.5 46t-120 40t-126 32t-122.5 17.5t-107.5 -1 t-81.5 -22q-31 -24 -61 -54t-54.5 -58.5t-39.5 -53t-15 -40.5q4 -13 6 -22t7 -19.5t15.5 -21.5t26.5 -28zM399 1100q68 30 121 46.5t106.5 26t109 12.5t122.5 5q84 4 169 -10.5t161 -39t138.5 -54t103.5 -60.5q8 -6 21 -29.5t28.5 -56.5t32 -69.5t26.5 -69.5t13 -60.5 t-5 -38.5q-45 -127 -128 -241.5t-212 -207.5t-308 -161.5t-419 -103.5q-67 -11 -127.5 -4.5t-113 24t-95.5 43t-76.5 53t-59 55t-40.5 48.5q2 69 17.5 124.5t41 100.5t58.5 81t65.5 63.5t65.5 49t59 38.5q-18 14 -44.5 32.5t-54.5 37t-49.5 35.5t-25.5 32q-6 12 5.5 35.5 t34 52.5t54 60.5t67.5 60t72 52t66 38.5z" />
<glyph unicode="&#x1006;" horiz-adv-x="2038" d="M735 414q-80 -8 -138 -16.5t-108.5 -22t-97.5 -33.5t-106 -43q-56 -31 -104 -72t-78.5 -83t-40 -79.5t13.5 -56.5q74 33 147.5 64.5t154.5 74.5t168 105.5t189 161.5zM1151 516q-6 -18 -11 -33.5t-12 -25.5q13 -39 34.5 -75t50 -67.5t61.5 -58.5t65.5 -43t64.5 -22.5 t60 -0.5q101 119 175.5 229.5t128 215t90 206t59.5 203.5q-92 -16 -194.5 -62t-207 -113.5t-197.5 -157.5t-167 -195zM377 1030q0 -41 11 -88t28 -104q12 -95 -310 77v144q41 39 80 70.5t78 56.5q127 -2 246 -8.5t222.5 -25.5t193.5 -51t161 -87q13 -8 22 -22.5t17.5 -33 t13.5 -34t9 -29.5q90 84 190.5 144.5t201.5 96t192.5 46t164.5 -3.5q29 -23 56.5 -48.5t52.5 -55.5t43 -61.5t55 -97.5q-10 -112 -58 -239t-120 -246t-164 -221.5t-196 -161.5q-115 14 -203 27.5t-169 42t-149.5 71.5t-111.5 95q-92 -68 -195.5 -134.5t-207 -126 t-199.5 -104.5t-172 -74q-23 -12 -53.5 -4t-64.5 35t-64.5 58.5t-56 68.5t-42 67.5t-18.5 47.5q4 63 34.5 119.5t81 104.5t118 89t145 73t163.5 54.5t172.5 31.5t169 8t156.5 -13q10 8 27.5 37.5t33 61.5t24.5 60.5t3 47.5q-57 45 -125.5 87t-147.5 75.5t-165 54t-174 22.5z " />
<glyph unicode="&#x1007;" horiz-adv-x="1499" d="M1266 690q-31 25 -56.5 40t-47 25.5t-41 14.5t-42.5 8q11 -26 27 -52t33.5 -48.5t34 -37.5t24.5 -22q12 0 31.5 18.5t36.5 53.5zM1180 1044q-68 -2 -121 -18t-103.5 -45t-101.5 -68t-115 -84q-65 -47 -126.5 -105t-116 -120.5t-98.5 -128t-74.5 -126t-45 -113t-8.5 -91.5 q29 2 81 8.5t114.5 14.5t128 20.5t120 24.5t90.5 25.5t40 25.5q-2 8 -9.5 13.5t-11.5 11.5t-4 13t12 20q23 26 60 40.5t78 18.5t84 2t80 -6q43 -15 63.5 -32t28.5 -34.5t7 -31t-3 -15.5q-49 -51 -118 -93t-149.5 -73.5t-168.5 -55.5t-175.5 -38t-167 -22.5t-145.5 -8.5 q-12 -2 -42 3.5t-67.5 14.5t-76.5 23.5t-71 30.5t-49 35.5t-11 40.5q-29 53 -21 121.5t43 144.5t92.5 155t127 153.5t148.5 143t157 122.5q61 43 123.5 74.5t122 55t114.5 39t104 23.5q113 21 218 18q57 -8 118.5 -30.5t117.5 -51t102.5 -62.5t72.5 -64q4 -15 -3 -39.5 t-20.5 -54t-29.5 -61.5t-31.5 -57.5t-27 -44t-11.5 -20.5q15 -16 33 -36.5t35.5 -44t35 -46t31.5 -41.5q5 -10 -4.5 -18t-26 -14.5t-39 -9.5t-43 -5t-36.5 0t-25 8q-16 27 -32.5 52.5t-32.5 50.5q-29 -25 -58.5 -46.5t-59.5 -38t-56.5 -28.5t-44.5 -18q-47 8 -105.5 36.5 t-113 71.5t-98.5 97.5t-64 113.5q8 29 34.5 58.5t69.5 52t99.5 34t123.5 -1.5q41 -8 75 -19t60.5 -22.5t44 -20.5t27.5 -13q11 10 22 33.5t19 54.5q-41 39 -87 67.5t-109 50.5z" />
<glyph unicode="&#x1008;" horiz-adv-x="1722" d="M731 766q-102 -37 -162.5 -73t-95.5 -58l92 -39q29 12 67 31.5t67.5 43t42 49t-10.5 46.5zM342 752q33 22 81 40.5t104.5 31t117 15.5t115.5 -10q26 -8 54 -16t54.5 -21.5t50 -31t44.5 -43.5q-21 -47 -53.5 -85t-74.5 -67.5t-95.5 -52.5t-112.5 -41q-33 -6 -77 2 t-85 21.5t-69.5 23.5t-30.5 10q-64 -26 -118 -69t-85 -96.5t-27 -117t58 -130.5q122 2 237 30.5t218.5 79.5t193.5 121t163.5 151t128 171t85.5 182q-7 31 -51 64.5t-110.5 66.5t-146.5 58.5t-158.5 40t-148 13.5t-112.5 -22q-29 -24 -66 -57t-67.5 -66t-51 -61.5 t-20.5 -44.5q4 -13 6 -22t7 -18t15.5 -21.5t26.5 -28.5zM313 1079q66 29 121 50.5t108.5 36t110 21.5t123.5 11q84 2 169 -11t161 -38t138.5 -55.5t103.5 -61.5q8 -8 20 -27.5t26.5 -46t29 -58.5t23.5 -60.5t12 -51t-5 -34.5q-45 -125 -127 -247t-209 -223.5t-304 -177 t-415 -110.5q-67 -10 -126.5 -3t-111.5 24.5t-96.5 43t-78 53t-58 55.5t-39.5 48q2 102 36 177t80 127t98.5 88t91.5 63q-17 14 -35.5 32.5t-33.5 38t-27.5 37t-18.5 29.5q-8 20 9 57t51 77t80 78t93 58zM1513 1139q19 14 43.5 32.5t51 36t53.5 29.5t49.5 18.5t37.5 2 t19 -22.5q0 -201 -12 -383t-31.5 -340t-40 -290t-38.5 -228q-13 -76 -47.5 -142.5t-85 -125t-113 -105.5t-131 -81t-139 -56.5t-138.5 -30.5q-71 -8 -144 -10t-133.5 1t-105.5 8t-59 13q-21 13 -39 25t-30.5 24.5t-17.5 24.5t3 27q67 53 121.5 102t102.5 109.5t92 139.5 t89 189q7 15 32.5 28t57 23.5t63.5 15.5t50 3q-8 -53 -34.5 -115.5t-63.5 -126t-82 -125t-93 -113.5t-97.5 -91t-90.5 -60q35 -6 82 -8t98.5 -1t98.5 7t86 19q20 8 56 25.5t78 44t86 62.5t83 80t68.5 94t42.5 107q12 58 25.5 140t26.5 179t26.5 204.5t22.5 218t15 218 t6 204.5z" />
<glyph unicode="&#x1009;" horiz-adv-x="1268" d="M186 961q0 8 16.5 30.5t49.5 49t82 56t117 52.5q114 20 232 29.5t228.5 7.5t208 -15.5t174.5 -37.5q19 -9 37.5 -38.5t28.5 -67.5t12 -77t-10 -65q-8 -17 -23.5 -42.5t-42 -62.5t-68.5 -86t-103.5 -110.5t-147.5 -136t-203 -166.5q-53 -43 -101 -77t-98.5 -64.5 t-107.5 -65.5t-129 -80l-23 -531l95 -14q-41 -31 -90.5 -54.5t-101.5 -42t-104.5 -30.5t-97.5 -20q-18 2 -27 12t-11.5 27.5t2 42t10.5 55.5l39 514q-23 12 -41.5 27.5t-28.5 31t-12 32.5t8 34q281 178 503 332.5t376.5 275.5t239.5 203t93 112q-43 13 -101 18t-120.5 4 t-124 -10t-110.5 -28l6 -65q-27 -29 -73 -57.5t-100.5 -50t-111.5 -33t-108 -5.5q-35 19 -63 45.5t-45 53t-25.5 51t-4.5 37.5z" />
<glyph unicode="&#x100a;" horiz-adv-x="2079" d="M246 969q2 8 17.5 29.5t47 48t80.5 56.5t117 52q113 21 229.5 30t224 7t205 -15.5t172.5 -37.5q19 -9 37.5 -38.5t28.5 -66.5t12 -74.5t-10 -64.5q-29 -49 -122 -154.5t-255 -253.5q68 -55 141.5 -100t148.5 -80t145.5 -57.5t129 -32.5t103.5 -8t67 20q37 37 54.5 96.5 t15.5 135.5t-21.5 165t-54.5 187t-83 201.5t-107 208.5q-2 14 17.5 21t52 7t73.5 -7t81 -18.5t72.5 -27.5t51.5 -37q43 -94 71.5 -174t45 -147.5t21.5 -126t3 -110.5t-11 -101t-22 -99q-14 -26 -41.5 -64t-65.5 -78t-82 -81t-92 -75.5t-96.5 -59.5t-93.5 -33 q-55 -10 -136 7.5t-178 56.5t-203.5 95t-211.5 126q-53 -41 -99 -75t-96 -64.5t-106.5 -64.5t-128.5 -79l-22 -524l94 -14q-41 -29 -89 -52.5t-100.5 -43t-103.5 -32t-96 -18.5q-35 4 -37 39t10 96l39 510q-20 13 -38.5 26t-30 29.5t-13.5 33t8 32.5q277 176 496 329 t372.5 272.5t237.5 200.5t92 112q-43 10 -100 15t-118.5 4t-123 -9t-108.5 -27l6 -65q-27 -29 -73 -57.5t-99 -49t-110.5 -32t-106.5 -5.5q-35 19 -61.5 44.5t-44 53t-25.5 51t-4 36.5z" />
<glyph unicode="&#x100b;" horiz-adv-x="1253" d="M850 -135q35 24 67.5 31.5t49.5 -15.5l-17 -418l86 -22q-41 -27 -89 -46.5t-99 -33.5t-101.5 -22.5t-93.5 -10.5q-18 6 -25 16.5t-8.5 28t5 41t14.5 54.5l55 196q-147 -39 -323 -37t-363 35q-20 6 -25.5 40t2 78t23 92t38 85t50 52.5t56.5 -3.5q61 -39 133.5 -55.5 t163 -8t199 42t241.5 95.5q6 24 8 53t2 51q-68 -34 -140.5 -63t-142 -52.5t-135 -40t-121.5 -26.5q-12 -2 -41.5 2t-67.5 14.5t-78 24.5t-71.5 31.5t-50 38t-12.5 43.5q6 147 39 271t92 230.5t146 197.5t206 173q72 49 156 82t171 51.5t171 25.5t157.5 7t131 -6t92.5 -14 q10 -13 23.5 -28.5t23.5 -27.5t13 -21.5t-7 -6.5q-108 16 -200.5 15t-178.5 -22.5t-169 -62.5t-171 -105q-96 -71 -167.5 -149t-122 -166t-79 -192.5t-40.5 -227.5q28 0 77.5 14.5t105.5 37t115.5 48t108.5 52t82 48t35 36.5q-4 10 -7 17t-2 14.5t7 13.5t24 10 q39 14 71 25.5t59.5 17.5t53 9t54.5 3q25 -2 36 -22.5t16 -49t5 -57v-47.5q-2 -31 -6 -64.5t-10 -69.5t-16.5 -68.5t-24.5 -61.5q-2 -8 -5 -17.5t-9 -17.5q-97 -59 -199 -101t-198.5 -71t-181.5 -45t-148.5 -25.5t-100.5 -11.5t-35 -2q-10 -12 -19 -28.5t-9 -36.5 q94 -19 175 -14t157.5 26.5t153.5 54.5t159 68z" />
<glyph unicode="&#x100c;" horiz-adv-x="1266" d="M1446 1176q10 -13 24.5 -28t24.5 -28.5t13 -23t-9 -6.5q-113 18 -210 16t-187 -22.5t-177 -63.5t-180 -107q-104 -73 -180 -151t-128 -168t-81.5 -194.5t-42.5 -231.5q29 2 80 16.5t111.5 37t122 50t114 54t86 49t37.5 37.5q-4 8 -10 12t-10 10t-4 14.5t12 22.5 q25 29 57.5 46.5t69.5 27.5t76 11t78 -3q20 -6 34.5 -19.5t20.5 -30t8 -35.5t0 -38q-2 -45 -20 -96q-17 -121 -36.5 -223.5t-33.5 -192.5q-12 -82 -49 -154.5t-91.5 -134t-122 -111.5t-140 -87t-149.5 -60.5t-148 -32.5q-74 -10 -152 -12t-143.5 1t-112.5 9.5t-64 14.5 q-22 12 -42.5 25.5t-34 25.5t-18.5 26.5t3 28.5q15 23 38.5 51.5t56 56t72.5 52.5t87 39q21 6 48.5 7t58 -3t62.5 -12t59.5 -18.5t50 -20.5t35.5 -19l2 -41q-47 23 -96.5 26t-94.5 -5t-85 -25.5t-69.5 -38t-48 -40t-18.5 -29.5q39 -6 89 -8t104.5 0t105.5 8t92 18 q23 6 60.5 24.5t83 47.5t92.5 67.5t89 86t72.5 101.5t45.5 116q10 49 21 108.5t24 130.5q-134 -55 -272 -91t-259 -56q-12 -2 -44 2t-71.5 13t-81.5 24.5t-76 34t-52.5 39t-12.5 42.5q8 148 42 274t96.5 233.5t153.5 199.5t216 174q76 51 164 84t179 52.5t180 26.5t167 6 t139.5 -6t98.5 -13z" />
<glyph unicode="&#x100d;" horiz-adv-x="1382" d="M887 31q35 24 65.5 33.5t44.5 -13.5l-14 -569l88 -23q-41 -22 -89 -40.5t-99.5 -32t-101.5 -21.5t-91 -10q-35 8 -34 40t20 93l59 358q-78 -18 -164 -25t-178 -5t-186 12t-189 25q-18 6 -26 30.5t-6 59t12 75.5t27.5 81t41 75t50.5 57q43 35 91 60.5t91 38t71.5 14.5 t30.5 -6q7 -4 3.5 -19.5t-11.5 -37.5q162 53 291 121.5t230.5 144.5t175 151.5t123 139t74 110.5t28.5 64q-39 12 -93.5 17t-112.5 4t-115.5 -9t-104.5 -25l6 -63q-27 -29 -70 -55.5t-94 -47t-106.5 -30.5t-102.5 -4q-33 18 -57.5 42.5t-41.5 50.5t-25.5 48.5t-4.5 32.5 q2 10 17.5 30.5t46 46t78 53t112.5 48.5q107 18 217.5 27.5t214 7.5t194.5 -14.5t161 -36.5q14 -5 25 -19t21.5 -34.5t16.5 -44t9 -48t2 -47t-9 -39.5q-8 -14 -28.5 -50t-52.5 -84t-72.5 -105.5t-91 -117t-109 -115.5t-121.5 -105q-76 -58 -157 -111t-172 -96t-193.5 -74 t-218.5 -41q-17 -39 -29 -67.5t-12 -34.5q94 -17 176 -11.5t157.5 26t152.5 51t159 63.5z" />
<glyph unicode="&#x100e;" horiz-adv-x="1368" d="M-23 86q27 76 53.5 139.5t52.5 120.5t53.5 112.5t58.5 112.5q22 47 67 90.5t100.5 81t112.5 71.5t104.5 59.5t76 46t28.5 32.5l-311 -4l51 -51q14 -43 -168 -111q-14 9 -33.5 18t-37 21.5t-31 26.5t-15.5 33l164 243q92 31 211 42.5t266 -3.5q17 0 27 -15t16 -38.5 t8.5 -54.5t1 -61.5t-4.5 -60.5t-9 -50q-43 -25 -87 -60.5t-86 -78.5t-81 -93.5t-71 -103.5l-220 -393q136 -25 254.5 -8.5t218 67.5t178.5 136t136 200q20 41 33.5 87t18.5 92t7 90t3 82t3 65.5t7 42.5q6 14 28.5 33.5t53 38t66.5 37t68.5 29.5t60.5 16t40 -1 q-41 -141 -67.5 -262t-54.5 -222t-62.5 -180t-91.5 -136q-72 -89 -147 -154.5t-159 -111.5t-180 -74.5t-213 -44.5q-31 -5 -81 -6t-107.5 3.5t-114.5 12.5t-103 21.5t-73 31.5t-19 43z" />
<glyph unicode="&#x100f;" horiz-adv-x="2454" d="M1266 94q41 172 57 312.5t19.5 242t-4 158.5t-17.5 65q-12 17 -28.5 7.5t-36 -39t-41 -75.5t-43 -105.5t-42 -126t-38.5 -138.5q-2 -8 -2 -14v-14q38 -109 81 -175.5t95 -97.5zM877 1167q30 15 67 18t73 -3t68.5 -21.5t56 -35t34 -43t2.5 -46.5l-21 -192 q29 57 57.5 108.5t60.5 91t66.5 68.5t73.5 41q43 4 82 -9.5t70.5 -38t50 -57t20.5 -69.5q7 -57 -3.5 -172t-35.5 -272q132 161 280.5 324t315.5 306q21 21 57 23t77 -8.5t83 -30t73.5 -44t51 -49t15.5 -44.5q-39 -152 -75 -284t-64.5 -243.5t-50 -198.5t-31.5 -147 q0 -14 -22.5 -33.5t-57.5 -38t-76 -35t-77 -24.5t-61.5 -8t-29.5 12q-4 17 3 65t20.5 113.5t32 144.5t37 159.5t33.5 155.5t26.5 135.5t13.5 99.5t-8 43q-94 -62 -174 -146t-156 -180t-147.5 -199.5t-147.5 -207.5q-4 -17 -7 -33.5t-7 -32.5q-13 -31 -37.5 -56.5t-53 -45 t-60.5 -32.5t-58.5 -18.5t-47 -4.5t-26.5 12l-4 -4q-137 12 -209 92q-4 -2 -6 -8.5t-6 -8.5q-35 -20 -80 -38.5t-88 -33t-80 -20.5t-53 -4q-2 8 5 57.5t20.5 124t28.5 167.5t31.5 191.5t31 191.5t23.5 170t11 129t-6 65q-96 -94 -183 -188.5t-154.5 -173.5t-109.5 -135 t-48 -79q24 0 38.5 -2t25.5 -6t19.5 -14.5t20.5 -28.5q-25 -80 -64.5 -147.5t-90 -119.5t-107.5 -88t-115 -50q-65 -7 -104 9.5t-58.5 44t-21.5 60.5t4 58q29 59 75 125.5t104.5 138t127 144.5t140 142.5t144.5 135t140.5 121t126.5 97.5t105 68z" />
<glyph unicode="&#x1010;" horiz-adv-x="2193" d="M1135 1055q-52 -8 -118.5 -23.5t-142 -40t-156.5 -56.5t-160 -70t-151.5 -83t-134.5 -94q-20 -18 -40.5 -37.5t-34 -40t-18.5 -43t7 -51.5q45 -59 155 -140t284 -183q96 129 176 249.5t144.5 229t112.5 206t77 177.5zM1227 1194l239 -158q9 -18 2.5 -55t-26 -87 t-50 -111.5t-69.5 -131.5q76 70 156 136.5t157.5 131t151.5 127t141 119.5q23 23 61 25t79.5 -9.5t83.5 -32t75 -46t51.5 -53t12.5 -50.5q-43 -163 -81 -309.5t-71 -268.5t-55.5 -217t-34.5 -161q0 -16 -24.5 -35.5t-62.5 -40t-82 -38t-83 -28t-66.5 -11.5t-31.5 14 q-4 18 3 71.5t21.5 125t34 158.5l39 174t37.5 170t29.5 148.5t14.5 106.5t-9 47q-66 -45 -143.5 -101t-158.5 -122t-164 -137.5t-162 -147t-150.5 -151.5t-130.5 -150q8 -10 9 -27.5t-7 -45.5q-23 -21 -46.5 -37.5t-47 -27.5t-48 -17.5t-45.5 0.5q-246 96 -433 199.5 t-318 219.5q-35 37 -66 84.5t-50.5 93.5t-22.5 86t18 64q262 189 591.5 313.5t731.5 192.5z" />
<glyph unicode="&#x1011;" horiz-adv-x="2492" d="M1085 1040q-47 -8 -109.5 -23.5t-133 -38t-145 -52t-147.5 -66.5t-140.5 -78t-122.5 -88q-21 -16 -39.5 -33.5t-31.5 -37t-17 -40t8 -44.5q84 -115 405 -303q176 241 298 447t175 357zM2232 969q-84 -13 -187 -36.5t-213 -57t-218.5 -76.5t-200.5 -95.5t-161.5 -113 t-100.5 -125.5q12 -45 52 -90t93.5 -85t116 -75t121.5 -60.5t107.5 -42t74.5 -18.5q131 135 217 247t142.5 213t91.5 201.5t65 213.5zM1348 836q122 88 257.5 159.5t268.5 119.5t254 70.5t215 8.5q37 -23 75 -52.5t69.5 -63.5t56 -70.5t34.5 -73.5q-10 -86 -40.5 -178 t-80 -185.5t-114 -182.5t-141 -169t-163.5 -146.5t-179 -111.5q-82 8 -169 22.5t-173 36t-165 47t-146.5 57.5t-119 67.5t-79.5 76.5q-23 -30 -43.5 -61t-42.5 -60q18 -12 4 -69q-21 -19 -42.5 -34t-43 -26.5t-44 -15.5t-42.5 0q-457 174 -699 391q-32 33 -61 77t-46.5 86 t-20.5 79t18 59q241 174 547.5 292t678.5 181l222 -145q10 -23 -2.5 -72t-42.5 -114z" />
<glyph unicode="&#x1012;" horiz-adv-x="1149" d="M582 926v-88q-45 -76 -91.5 -109t-87.5 -55.5t-76.5 -36.5t-64.5 -23q-14 2 -43 25t-50.5 60.5t-36.5 88t-13 64.5q20 39 62 81t99.5 82t126 75.5t140.5 62.5q127 51 239.5 67.5t214.5 8.5q80 -39 109 -55.5t53.5 -38t40 -45t25.5 -97.5q-37 -80 -81 -151.5t-91 -113.5 t-94.5 -78t-122.5 -68q90 -7 148.5 -22t82.5 -36l59 -178q-36 -41 -94.5 -91t-145.5 -95t-181.5 -83t-202.5 -67q-109 -26 -196 -35.5t-175 -11.5t-179 4t-202 13l-37 63q158 -4 296.5 15.5t255 53t210.5 80t163 94.5t111 96t54 87l-479 -127q-70 31 -17 80 q121 51 220.5 129t184.5 161t138 179t74 221q-119 -45 -204 -91t-142 -95z" />
<glyph unicode="&#x1013;" horiz-adv-x="1339" d="M977 301q-41 70 -86 134.5t-88 116.5t-83 91t-71 59q-20 -71 -16 -147t31 -156q34 21 69 14t78 -36l57 -123zM1034 1163q2 -4 4 -6q54 -14 108 -67.5t100 -129t82 -171t52.5 -193.5t10 -194.5t-42.5 -176.5q-13 -26 -55 -58t-100 -61.5t-126 -54t-129 -35.5 q-45 0 -74.5 3.5t-55.5 13.5t-54.5 27.5t-75.5 45.5q-76 -34 -142.5 -52.5t-133 -29t-133 -14.5t-140.5 -8q-12 -2 -41 6t-62.5 22.5t-70.5 34t-64.5 41t-44 43t-10.5 44.5q6 36 28.5 92.5t57.5 126t78 146.5t93 152.5t105.5 147.5t109.5 128t107.5 96t102.5 53 q162 43 288 47t228 -19zM897 1092q-43 2 -65.5 4t-43 0t-45 -12.5t-69.5 -32.5q-23 -11 -56.5 -43.5t-74.5 -81.5t-85 -110.5t-87 -128t-80 -135.5t-64.5 -132.5t-43 -117.5t-11.5 -95q27 2 63.5 8t78.5 18.5t85 32t82 47.5q-35 60 -57.5 129.5t-30.5 155.5q17 43 55.5 82 t92 71.5t116 57.5t125.5 35q49 -2 95.5 -36t87.5 -92.5t77.5 -139t67.5 -181.5q10 13 13 48.5t1 83.5t-9 106.5t-21.5 118t-33 117t-43 104.5t-54 78.5t-66.5 40.5z" />
<glyph unicode="&#x1014;" horiz-adv-x="1268" d="M438 227l17 168q-4 6 -23.5 10.5t-44.5 7.5t-53.5 3t-53 -2t-41 -7.5t-18.5 -13.5q-4 -10 7.5 -25.5t31 -33t44 -35.5t49 -32.5t47 -26t38.5 -13.5zM899 913l156 162q-45 6 -97.5 2t-104.5 -11t-103.5 -16.5t-96.5 -15.5q2 -18 30 -56t72 -88t100 -108.5t114.5 -121 t116 -125t103.5 -118t75.5 -100.5t35.5 -75q-2 -13 -13 -35.5t-28.5 -50t-37 -55t-39 -50t-36 -37t-26.5 -14.5q-63 -18 -176 -19t-278 19l-25 -555q-88 16 -144.5 42t-84.5 58q-6 27 -9.5 75t-1.5 113.5t6.5 147.5t12.5 172q-25 6 -63 15.5t-81 21.5t-88 26.5t-83.5 30 t-66.5 28.5t-38 26q-8 14 -6 50t13 73.5t29.5 69.5t43.5 38q43 10 102.5 21.5t123 21.5t127 16.5t115.5 6.5t87 -10.5t43 -32.5q6 -31 11 -55.5t6 -58.5t-2 -81t-11 -123q25 -8 75 -13t107.5 -7t114.5 -3t100 -1q11 0 -10.5 32.5t-66 88t-104.5 127t-124.5 148.5t-128 152.5 t-114 141t-83 113t-34.5 65.5q0 31 32.5 61.5t80.5 60.5t101.5 54.5t92.5 38.5q78 4 153.5 6t136 0t101.5 -7t47 -17q19 -31 30 -70t16 -75t4 -66.5t-5 -44.5l-131 -48h-79t-60.5 2.5t-34.5 10.5t0 26z" />
<glyph unicode="&#x1015;" horiz-adv-x="1235" d="M449 1210q14 9 43.5 14t63.5 7t62.5 2t43.5 -2q22 -8 29 -46t5 -91.5t-11 -112.5t-22.5 -111.5t-26.5 -88.5t-24 -40q-30 -18 -57 -28q-23 -8 -45.5 -6t-32.5 26q-59 -65 -124.5 -189t-137.5 -306q47 -11 108.5 -17t131 -3t142.5 16.5t139.5 40t124 71.5t95.5 111 q31 49 46.5 113.5t20.5 133t3 137t-7 126t-11.5 100.5t-8.5 57q7 15 28.5 35.5t52 41t65.5 38.5t66.5 30.5t58 16.5t39.5 -2q28 -115 17 -207t-24.5 -175t-32 -158.5t-47 -146.5t-71.5 -139.5t-107 -135.5q-79 -86 -168.5 -143.5t-183.5 -93.5t-193.5 -55.5t-201.5 -29.5 q-47 2 -73.5 8t-65.5 21.5t-83 39t-80 51t-57.5 55.5t-13.5 52q66 195 142.5 359t149.5 289.5t135.5 210.5t97.5 124z" />
<glyph unicode="&#x1016;" horiz-adv-x="1206" d="M969 680q10 53 13 105.5t3 99.5t-2 84t-6 59q-21 -29 -35 -65q-31 -76 -23.5 -148t50.5 -135zM434 1124q15 9 42.5 19t57 17t56 11.5t39.5 2.5q22 -7 29.5 -43.5t5.5 -89t-12.5 -111t-25 -109.5t-27.5 -87t-24 -40q-24 -22 -47 -32q-18 -11 -36.5 -11t-26.5 23 q-189 -248 -256 -471q47 -8 104.5 -9t121 9t129 29.5t126 52t113.5 80t92 108.5l-92 125q-31 51 -46.5 103.5t-13.5 104.5t19.5 107.5t52.5 116.5q29 47 70 85t84 61.5t82 37t61 15.5q127 -23 156 -92q6 -127 -12.5 -203t-35 -142.5t-36 -125t-48 -113.5t-69.5 -112.5 t-100 -121.5q-80 -83 -160 -148t-165 -110t-176 -71.5t-212 -20.5q-31 13 -48.5 18t-54 19t-79.5 37t-79 48.5t-56.5 52t-14.5 49.5q64 186 139.5 340.5t147.5 274.5t131 199.5t94 116.5z" />
<glyph unicode="&#x1017;" horiz-adv-x="1364" d="M670 932q-6 0 -34 -36t-67 -95.5t-85 -134t-91 -153.5t-85 -153.5t-64 -132.5q53 -10 117.5 -11t135 9.5t143.5 30.5t141.5 53t128 81t102.5 112q26 39 44.5 85t30 93t17.5 95t8 93q-53 -90 -108.5 -165.5t-106.5 -139.5q-33 -12 -71 -21.5t-71.5 -11.5t-55 3.5 t-21.5 19.5q12 72 16 135.5t1 113.5t-10 84t-15 46zM498 1165q16 9 49 13t68.5 6t68.5 2t47 -2q6 -2 11.5 -6t7.5 -9q20 -18 31.5 -55t15.5 -92t3 -133t-3 -174q37 26 71.5 68t69.5 90.5t68.5 99.5t68.5 98t72 86t74 64q51 -9 92 -25q35 -12 63.5 -33.5t30.5 -54.5 q23 -147 3.5 -235.5t-57.5 -177.5t-100.5 -182t-158.5 -189q-88 -88 -178.5 -154t-185.5 -111t-197.5 -71.5t-251.5 20.5q-2 -8 -31 -2t-71 21.5t-89 37t-87 48t-63.5 53.5t-15.5 51q72 189 156 347.5t164 279.5t147.5 202.5t106.5 118.5z" />
<glyph unicode="&#x1018;" horiz-adv-x="1898" d="M66 985q2 8 16 28.5t45 45t76 52.5t108 48q107 19 215.5 27t210 7t192.5 -13.5t161 -34.5q20 -8 36.5 -36t25.5 -62.5t10 -69.5t-11 -59q-2 -11 -7 -23t-14 -25q66 41 135.5 82t137 83t132 86t124.5 91q20 19 55 22t73 -7t76 -28.5t67.5 -41t46 -46.5t12.5 -44 q-39 -143 -88.5 -275.5t-95.5 -243t-80.5 -198.5t-45.5 -145q0 -15 -23.5 -32t-57 -35.5t-74.5 -34t-77 -24.5t-60.5 -9t-28.5 12q-4 16 6 63.5t29.5 113t46 143t53.5 157.5t50.5 154.5t41 133t23.5 96.5t-4 42q-74 -47 -158 -100.5t-170 -109.5t-171 -118.5t-167 -130.5 q-37 -51 -95.5 -104t-130 -105.5t-153.5 -101.5t-166 -91t-166 -74t-155 -48q-25 0 -50.5 11.5t-50 27.5t-47 34.5t-39 36t-26 33t-6.5 23.5q251 102 454 201.5t346.5 203t225.5 215t94 236.5q-39 10 -93.5 15t-111.5 3t-114.5 -10t-102.5 -24l6 -60q-27 -26 -69 -53 t-92 -47.5t-103 -30.5t-100 -6q-33 18 -57.5 43t-41 50.5t-24 48t-4.5 32.5z" />
<glyph unicode="&#x1019;" horiz-adv-x="1276" d="M709 692q-35 -10 -64 -32.5t-50.5 -53.5t-33.5 -63.5t-14 -63.5q-2 -10 1 -37.5t10 -60.5t18.5 -65.5t25.5 -55.5q12 6 27.5 30.5t30 60.5t26.5 81t19.5 90t8.5 89t-5 81zM240 1167q8 15 25.5 18t41 -1t49 -14.5t47 -23.5t38 -28.5t22.5 -30.5q-2 -32 -4 -71t-8.5 -79 t-18.5 -80t-35 -73l-61 9q-12 -23 -27.5 -61t-33 -85t-33 -98t-27.5 -98.5t-20.5 -85t-8.5 -58.5q0 -39 19.5 -68.5t50.5 -47t68.5 -21.5t76.5 10q-32 53 -45.5 113.5t-10.5 120t20.5 115t46.5 98.5q18 22 43.5 41.5t55.5 37t59.5 31t58.5 25.5q67 24 139 41 q14 -12 33.5 -24.5t37 -26t31 -25.5t17.5 -22q10 -93 -1.5 -165.5t-41 -134t-74.5 -111.5t-102 -97q24 -27 60 -48.5t69.5 -35t58.5 -18.5t31 -1q37 33 61.5 97.5t40 151.5t23.5 190.5t10 211t0 213t-4 197.5q2 19 18.5 22t41 -5.5t51 -26t51 -38t41 -42t20.5 -39.5 q-2 -131 -4 -252t-11 -227.5t-28.5 -195.5t-53.5 -157.5t-86 -112.5t-126 -63q-84 -20 -150.5 -20t-120 11t-95.5 30.5t-74 40.5q-68 -23 -155 -39t-192 -27q-18 -2 -41.5 7.5t-47 23.5t-45 33.5t-39 39t-29 37t-11.5 31.5q5 95 29.5 206.5t64.5 235.5t94 260t120 279z" />
<glyph unicode="&#x101a;" horiz-adv-x="1913" d="M510 1112q14 8 36.5 15.5t46 12.5t46.5 7t35 0q16 -4 25.5 -26.5t11.5 -55.5t-1 -72t-9.5 -80t-15.5 -80.5t-18.5 -70.5t-18.5 -51.5t-17 -22.5q-37 -14 -72 -20q-27 -6 -53.5 -4t-36.5 24l-254 -508q68 -10 148.5 23t170 98.5t180.5 157.5t179 198q8 72 19.5 133.5 t22.5 110.5t21.5 85t16.5 54q6 15 27.5 32.5t50 35.5t62.5 34.5t64.5 28t56.5 16.5t38 -1q-25 -88 -44.5 -186.5t-33.5 -198t-23.5 -197.5t-13.5 -186t-3 -163t7 -128q76 -6 137.5 21.5t110.5 81t86 126t63.5 156.5t45 170t27.5 167t13.5 149.5t2.5 115.5l290 72 q-2 -41 -3 -117t-12 -172t-36.5 -205.5t-75 -218t-126 -208t-189.5 -177.5q-12 -8 -54 -22.5t-101.5 -27.5t-126 -25.5t-126 -17.5t-104.5 -4t-59 15q-23 29 -31 75t-9 101.5t1 115.5t2 118q-68 -78 -148 -145.5t-163.5 -122t-167.5 -91.5t-160 -55q-29 -10 -63.5 -13 t-71.5 2t-72 16t-59.5 26.5t-38 36t-6.5 43.5q43 116 92 231t100 219.5t104.5 195.5t102.5 162.5t94 121t80 69.5z" />
<glyph unicode="&#x101b;" horiz-adv-x="1122" d="M752 1147q18 2 34 2h33q55 0 109 -7t100 -21t81.5 -34t55.5 -45q-2 -73 -8.5 -163.5t-16 -190.5t-21.5 -206t-24.5 -210.5t-24 -204t-20.5 -186t-14.5 -157t-5.5 -117.5q0 -73 17 -76q-30 -42 -74 -73.5t-90.5 -52t-89 -30.5t-68.5 -10q-25 0 -39 9t-14 26q0 2 1 4.5 t1 5.5v17q0 41 10.5 112.5t27 164t38 200t44 221t44 227.5t38 219t27 195.5t10.5 157.5q0 60 -9.5 95.5t-31.5 41.5q-39 -29 -82 -74.5t-88 -100.5t-90 -117t-88.5 -125t-83 -123.5t-73.5 -112.5q6 2 11.5 2h10.5q40 0 60.5 -12.5t15.5 -35.5q-25 -107 -53.5 -184.5 t-62 -127.5t-73 -73.5t-86.5 -23.5q-51 0 -93 22.5t-71 60t-45 85t-16 98.5v20.5t2 20.5q36 67 92 146.5t123.5 163t143 167t151 159.5t146 140.5t129.5 110.5z" />
<glyph unicode="&#x101c;" horiz-adv-x="1772" d="M643 1186q68 4 114 1t79.5 -14.5t58.5 -31t47 -47.5q-6 -80 -2 -165t16.5 -169t30 -165t37.5 -150.5t41.5 -127t42.5 -94.5q66 -18 135.5 -25.5t131 9t111.5 62.5t77 134q26 84 33.5 175.5t2 178.5t-19.5 168t-29.5 145.5t-28 108.5t-14.5 58q6 14 25.5 17t47.5 -4 t60.5 -21.5t62.5 -33.5t53.5 -42t35.5 -45q18 -84 30.5 -160t12.5 -149.5t-16.5 -145t-51 -144.5t-94 -147.5t-147.5 -154.5q-68 -62 -132.5 -103t-136 -63.5t-155.5 -30.5t-193 -4q-4 0 -13 6t-21.5 13.5l-22.5 13.5t-14 8q-27 33 -49.5 96.5t-41 144.5t-30.5 174 t-21.5 185t-14.5 177l-9 153q-60 -41 -111 -98.5t-101 -124t-97.5 -140t-96.5 -151.5q31 -2 46.5 -19.5t27.5 -42.5q-29 -102 -56.5 -172.5t-55 -115.5t-60.5 -66.5t-70 -28.5q-37 -6 -65.5 15.5t-49 56.5t-33.5 77t-20.5 79t-8.5 62.5t3 25.5q35 65 85 143t111.5 157 t129 158.5t136.5 152.5t134.5 134.5t122.5 106.5z" />
<glyph unicode="&#x101d;" horiz-adv-x="1458" d="M258 137q125 0 244 30t225.5 81t199.5 122.5t167.5 154.5t130 176.5t88.5 187.5q-6 31 -46 61.5t-99.5 57t-133 45t-146.5 28t-137.5 4t-107.5 -25.5q-33 -19 -75 -55.5t-86 -89t-87 -116t-78.5 -132t-62.5 -140t-36 -141.5t-1 -133.5t41 -114.5zM463 1065 q67 31 122.5 52.5t111 35.5t111.5 22.5t126 10.5q174 6 300 -21.5t210 -87.5q8 -8 21.5 -28.5t27.5 -49t28.5 -61.5t23.5 -62.5t12.5 -53t-5.5 -34.5q-47 -129 -130 -252.5t-213 -227t-311 -181.5t-425 -115q-70 -12 -131 -5t-114.5 24.5t-97.5 44t-79 55.5t-60.5 56.5 t-39.5 50.5q-33 55 -33 117.5t22.5 127t62.5 130t90 127t105.5 115.5t105.5 97t92 73t67 40z" />
<glyph unicode="&#x101e;" horiz-adv-x="1812" d="M82 952q2 9 17.5 27t47 44t79.5 52.5t114 48.5q109 23 221.5 37.5t218 19.5t197.5 1t164 -21q20 -6 36.5 -28.5t26.5 -53t11.5 -62.5t-11.5 -54q-14 -23 -44 -69t-76 -107.5t-108.5 -130t-139.5 -132.5q63 -43 269 -138t262 -100t99 0t66 21q39 33 55.5 91.5t17.5 153.5 t-17.5 181t-52.5 176t-80 181.5t-101 175.5q-2 12 19.5 17t56 3t78.5 -8t86 -16.5t77 -24.5t51 -29q62 -116 96.5 -218.5t49 -192.5t9.5 -166t-34 -185q-20 -81 -156.5 -245t-297.5 -201q-209 23 -427.5 167t-287.5 230q-121 -94 -271.5 -193.5t-330.5 -205.5q-25 0 -61 7 t-73.5 17.5t-74.5 23.5t-65.5 26.5t-45 26t-14.5 18.5q180 108 339 214.5t292 203t239.5 180.5t181 149.5t116.5 110.5t46 61q-82 15 -177 9.5t-191 -39.5l4 -54q-27 -26 -71 -53t-96 -48.5t-107.5 -33.5t-102.5 -10q-33 12 -58.5 32.5t-43 42t-24.5 40t-3 30.5z" />
<glyph unicode="&#x101f;" horiz-adv-x="1980" d="M383 1155q14 8 43 13.5t59.5 7.5t59 2t41.5 -2q20 -9 28.5 -44.5t6 -87t-11.5 -108.5t-21.5 -107.5t-25.5 -84t-23 -37.5q-29 -19 -56 -25q-22 -8 -42.5 -6t-30.5 24q-115 -127 -250 -475q45 -10 103.5 -15t123 -3t132 13t130 38t116.5 69t93 105q29 45 44.5 107.5 t22.5 129t6 132t-5 122t-9.5 96.5t-7.5 54q6 14 26.5 33.5t49.5 39t61.5 37t64.5 30t56.5 16.5t36.5 -2q-4 -80 -8 -154t-13 -143.5t-21.5 -134t-33.5 -125.5q74 63 157 124.5t165 123t161 120t148 117.5q21 19 52.5 22t67.5 -7.5t72 -28t63.5 -40t43 -46t10.5 -41.5 q-36 -142 -70 -265.5t-60.5 -229t-46 -187.5t-29.5 -137q0 -15 -20.5 -32.5t-53.5 -34.5t-71 -32.5t-70.5 -25t-57 -9.5t-28.5 13q-5 16 2.5 61t19.5 106.5t28.5 136.5t34 149.5t33 146t24.5 127t11 91.5t-8 40q-66 -43 -153 -99.5t-181 -121t-190.5 -135t-180.5 -144.5 q-20 -31 -46.5 -60.5t-57.5 -58.5q-20 -22 -41.5 -40.5t-42.5 -36.5q-2 -3 -6 -7l2 4q-70 -55 -142.5 -94t-149.5 -64.5t-156.5 -42t-165.5 -24.5q-2 -8 -28 -2t-62.5 21.5t-78.5 37t-76 47t-54.5 53.5t-14.5 50q62 186 135.5 343t144 277.5t129 201.5t93.5 118z" />
<glyph unicode="&#x1020;" horiz-adv-x="1096" d="M274 -86q82 -4 160 12.5t145.5 46t122 67.5t89.5 75q6 20 8 43.5t-4 46.5q-74 -39 -153 -72t-155.5 -58.5t-148.5 -44t-131 -30.5q-12 -2 -43 2t-70 14.5t-80 24.5t-73.5 32.5t-51 40t-12.5 44.5q8 149 41 276t93.5 235.5t150.5 203t211 176.5q73 51 159 83.5t175.5 51 t175.5 26t160.5 7.5t135 -6.5t95.5 -14.5q10 -12 23.5 -27.5t23.5 -29t14 -21.5t-8 -8q-110 18 -205.5 17t-182.5 -21.5t-172 -63.5t-175 -108q-100 -74 -174 -153t-125 -170t-80 -196.5t-41 -232.5q29 0 79 15.5t108.5 37t119 49t110.5 54.5t83 50.5t37 35.5q-2 8 -9.5 13 t-11.5 11.5t-3 13.5t13 23q25 27 55.5 46.5t65.5 29.5t74 12t76 -4q41 -14 62.5 -37.5t29.5 -48t7 -43t-3 -22.5q-2 -19 -14.5 -39.5t-38.5 -40.5q8 -66 9 -112t-8 -81.5t-29.5 -66.5t-57.5 -62q-62 -45 -138.5 -78.5t-169 -56t-194.5 -35t-213 -16.5l-31 -385l-1 -10 t1 -24.5t9.5 -28t21.5 -17.5q43 -6 85 -4t75 14q22 7 60 19t83 30.5t91 44t82 61.5t58.5 82t18.5 107q0 2 -19.5 -6t-50 -23.5t-69.5 -38t-77 -50t-73 -58t-55 -63.5l-4 55q28 72 113 145.5t233 151.5q80 2 141 -2q27 -2 52.5 -6t44 -12.5t28.5 -18.5t8 -26 q-12 -82 -47 -145.5t-84 -113t-110.5 -84t-130 -59t-140 -40t-143.5 -25.5q-35 -5 -79 -7t-89 -2h-88t-78 1t-57.5 2t-24.5 1q-43 5 -77.5 25.5t-49.5 54.5q-4 4 -6 13.5t-2 17.5q0 10 2 19q0 2 4 20t12.5 48t17.5 68t19 77l54 210q8 33 29.5 56.5t50 38t60.5 20.5t60.5 6 t48 -4t23.5 -12v-35q2 -4 10 -5t19.5 -1t20.5 1t13 1z" />
<glyph unicode="&#x1021;" horiz-adv-x="1798" d="M477 930l6 -109q-45 -43 -86 -72.5t-78.5 -50t-70.5 -34t-58 -21.5q-14 2 -28.5 26.5t-27.5 56.5t-21.5 61.5t-6.5 43.5q19 37 57 75t89 75t112.5 68.5t127.5 58.5q114 45 216.5 61.5t192.5 8.5q29 -7 54.5 -22t47 -35.5t37 -41t17.5 -39.5q-33 -73 -73 -139.5t-84 -121 t-91 -96.5t-96 -71q80 -6 132 -19t77 -32l8 -24q65 81 140 166t156 168t167 163t174 154q20 16 51 18t64.5 -6t68.5 -25.5t60.5 -37t41 -41t11.5 -39.5q-35 -129 -72 -257t-67.5 -239.5t-54 -200t-34.5 -139.5q0 -12 -20.5 -28.5t-51 -33t-67.5 -29.5t-68.5 -21.5t-54 -8.5 t-26.5 11q-5 16 3.5 60t23 107.5t32.5 139.5t36.5 152.5t36 149.5t30 130t15.5 93t-7 40q-76 -49 -151 -114.5t-145.5 -141.5t-139 -159t-134.5 -165q-10 -18 -22.5 -34.5t-28.5 -32.5l-10 -12v2q-39 -41 -91.5 -81t-112.5 -77t-127 -67.5t-136 -51.5q-96 -31 -180 -40 t-166 -6t-165 19.5t-177 38.5l-33 58q143 -4 268 13.5t230.5 49t190.5 73.5t147.5 86t99.5 88t47 81l-432 -117q-60 29 -14 74q108 47 197 118.5t160 157.5t120 178.5t78 178.5q-107 -39 -184 -82t-130 -88z" />
</font>
</defs>
</svg>
