<?xml version="1.0" standalone="no"?>
<!DOCTYPE svg PUBLIC "-//W3C//DTD SVG 1.1//EN" "http://www.w3.org/Graphics/SVG/1.1/DTD/svg11.dtd" >
<svg xmlns="http://www.w3.org/2000/svg">
<metadata></metadata>
<defs>
<font id="ayar_thawka_pubregular" horiz-adv-x="0" >
<font-face units-per-em="1000" ascent="800" descent="-200" />
<missing-glyph horiz-adv-x="332" />
<glyph unicode="&#x100a;&#x1039;&#x100a;" horiz-adv-x="798" d="M499 -85l-28 15q5 11 13.5 19.5t18.5 14.5t23 9.5t25 2.5q14 -1 27.5 -5.5t24 -13.5t17 -20.5t6.5 -23.5v-51q0 -6 4.5 -12.5t11.5 -11.5t15 -8.5t17 -3.5q10 0 18.5 3.5t15 8.5t10.5 11.5t4 12.5v51q0 5 -3.5 11t-9.5 11t-14.5 9t-18.5 4h-5h-5q1 11 2 18t2 10q4 1 8 0 q14 -1 27 -5.5t24 -13.5t17 -20.5t6 -23.5v-51q0 -13 -6 -24.5t-17 -20t-25 -14t-29 -6.5q-9 0 -18 2.5t-17.5 6t-15.5 9t-13 11.5q-5 -6 -12 -11t-15 -9t-17 -6t-19 -3q-11 0 -21 2.5t-19 7.5v-97h214v24h30v-39q0 -3 -1.5 -5.5l-3 -5t-4.5 -4t-6 -1.5h-243q-4 0 -6.5 1.5 t-4.5 4t-3.5 5t-1.5 5.5v139q-2 3 -3.5 6t-2.5 6l27 15q1 -6 5.5 -12t11 -11.5t14.5 -8.5t17 -3q10 0 18.5 3.5t14.5 8.5t10 11t5 12v2.5v6.5v8.5v9.5v25q0 5 -3.5 11t-9.5 11t-14.5 9t-18.5 4q-9 0 -18 -2.5t-16 -7.5t-11.5 -11t-4.5 -12zM110 294l-70 40q11 26 32 48.5 t48.5 38t59.5 24t64 6.5q35 -2 69.5 -15.5t61 -35.5t43 -50.5t16.5 -61.5v-136q2 -17 13 -33.5t28 -30t38.5 -22t44.5 -8.5q24 1 46.5 9t39 21.5t26.5 29.5t10 34v136q0 14 -9 29.5t-24.5 28.5t-37 22.5t-46.5 10.5h-12.5t-13.5 -2q4 29 7 47t4 27q10 1 19 0 q36 -2 70.5 -15.5t61 -36t43 -51t16.5 -60.5v-136q0 -33 -16 -63t-43.5 -52.5t-63.5 -36.5t-76 -14q-24 -1 -46.5 5t-43.5 15.5t-39 23t-33 29.5q-14 -16 -31.5 -29.5t-38.5 -22.5t-44.5 -14.5t-47.5 -6.5q-27 -1 -52.5 6t-48.5 19v-255h314v-77h-352q-7 0 -14 3t-12.5 8.5 t-8.5 12.5t-3 15v361q-6 7 -10 15t-7 16l70 38q3 -16 14 -32t27.5 -29t37.5 -21t44 -8q23 1 45.5 9t39 20.5t26.5 28.5t11 32v140q0 14 -9 29.5t-24.5 28.5t-37 22.5t-46.5 10.5q-24 1 -46.5 -6t-40.5 -20t-29 -28.5t-13 -30.5z" />
<glyph unicode="&#x1039;&#x100c;" d="M-540 -102q6 29 28.5 47t52.5 18h268q33 0 56 -24t23 -61v-143q0 -20 -11.5 -30t-28.5 -10q-15 0 -26 8.5t-11 24.5l1 150l-3 9h-268q-8 0 -8 -9v-89l1 -11q0 -38 -23.5 -61.5t-60.5 -23.5h-268q-33 0 -57 25t-24 63v141q0 22 11.5 33.5t25.5 11.5q16 0 28.5 -13 t12.5 -34v-142l3 -9h268l7 4v105z" />
<glyph unicode="&#x100b;&#x1039;&#x100c;" horiz-adv-x="468" d="M472 78q0 -33 -15 -52q-21 -25 -65 -25h-268q-43 0 -64.5 23t-21.5 62l1 265q0 38 22 60t63 22h265q36 0 59 -25t23 -60v-30q0 -18 -11.5 -28.5t-26.5 -10.5q-16 0 -27.5 10.5t-11.5 28.5v30l-5 8h-265l-8 -5v-265q0 -8 8 -8h268l2 8v35q0 18 11.5 28t27.5 10 q15 0 26.5 -10t11.5 -28zM463 -181q0 -51 -32.5 -84.5t-83.5 -33.5h-206q-49 0 -76 26t-27 72q0 45 26.5 65.5t75.5 20.5h33q36 0 36 -36t-36 -36h-30q-31 0 -31 -22q0 -18 29 -18h206q18 0 31 12.5t13 33.5v88h-317q-36 0 -36 36t36 36h329q31 0 45.5 -18t14.5 -46v-96z " />
<glyph unicode="&#x100d;&#x1039;&#x100e;" horiz-adv-x="490" d="M385 -301h-74q-15 0 -26.5 11t-11.5 26v263h-158q-18 0 -33.5 7t-26.5 19t-17.5 27.5t-6.5 31.5v121l6 14l121 99q0 18 -6 29.5t-23 11.5h-62q-36 0 -36 36t36 36h62q70 0 89 -43q12 -26 12 -87q0 -17 -13 -27l-107 -87v-103l5 -8h84v37q-3 6 -3 14v13q0 14 13 14t13 -14 v-13l1 -3h94q3 0 3 3v98l-3 2h-93l-2 -3v-11q0 -14 -13 -14t-13 14v11q0 14 7.5 23t20.5 9h93q11 0 20.5 -8.5t9.5 -22.5v-98q0 -14 -8.5 -22.5t-21.5 -8.5h-94v-20h154q8 0 8 8v268l-8 2h-36q-40 0 -40 39q0 15 10 26.5t30 11.5h36q37 0 62 -23t25 -56v-270 q0 -36 -23.5 -59.5t-63.5 -23.5h-29v-225h37q19 0 28 -12t9 -26t-9 -25.5t-28 -11.5z" />
<glyph unicode="&#x1009;&#x1039;&#x1005;" horiz-adv-x="476" d="M36 120q0 18 11.5 28t26.5 10q16 0 27.5 -10t11.5 -28v-35l2 -8h268q8 0 8 8v265l-8 5h-265l-5 -8v-30q0 -18 -11.5 -28.5t-27.5 -10.5q-15 0 -26.5 10.5t-11.5 28.5v30q0 33 23.5 59t58.5 26h265q85 0 85 -82v-265q1 -38 -21 -61.5t-64 -23.5h-275v-182q0 -20 12 -33 t31 -13h207q16 0 27 12t11 29v33q0 36 36 36t36 -36v-33q0 -46 -31 -79.5t-79 -33.5h-207q-48 0 -81.5 33.5t-33.5 84.5v302zM389 -131q0 -23 -14 -37.5t-35 -14.5h-165q-23 0 -38 14.5t-15 37.5v66q0 20 16.5 34t36.5 14h164q21 0 35.5 -15t14.5 -36v-63zM341 -131v63l-2 5 h-123l29 -29q6 -6 6 -11q0 -7 -7 -13l-26 -21h122zM208 -103l-38 38v-70z" />
<glyph unicode="&#x1009;&#x1039;&#x1007;" horiz-adv-x="470" d="M36 120q0 18 11.5 28t26.5 10q16 0 27.5 -10t11.5 -28v-35l2 -8h268q8 0 8 8v265l-8 5h-265l-5 -8v-30q0 -18 -11.5 -28.5t-27.5 -10.5q-15 0 -26.5 10.5t-11.5 28.5v30q0 33 23.5 59t58.5 26h265q85 0 85 -82v-265q1 -38 -21 -61.5t-64 -23.5h-275v-182q0 -20 12 -33 t31 -13h207q16 0 27 12t11 29v33q0 36 36 36t36 -36v-33q0 -46 -31 -79.5t-79 -33.5h-207q-48 0 -81.5 33.5t-33.5 84.5v302zM334 -73q0 15 -8 15h-54q12 -8 27 -13q10 -2 18.5 -2h16.5zM378 -76l21 -17q7 -5 7 -13q0 -17 -17 -17q-4 0 -10 3l-19 16h-4q-8 0 -19 -0.5 t-16 -0.5q-16 0 -29 3q-21 7 -36.5 16t-29.5 28h-47q-16 0 -16 -7v-59q0 -10 16 -10h178q17 1 21 -21q0 -22 -21 -22h-178q-29 0 -44 14.5t-15 38.5v59q0 24 15.5 37.5t43.5 13.5h147q52 0 52 -62z" />
<glyph unicode="&#x102b;&#x103a;" horiz-adv-x="249" d="M109 701l48 14l18 5h89q36 0 36 -36t-36 -36h-79l-77 -30v-588q0 -36 -36 -36t-36 36v592l-91 -35v-67q0 -36 -36 -36t-36 36v91q0 24 23 33l166 74q8 2 12 2q12 0 23 -5.5t12 -13.5z" />
<glyph unicode="&#x102d;&#x1036;" horiz-adv-x="68" d="M-147 534q0 -35 -22.5 -59t-56.5 -24h-198q-36 0 -60.5 23.5t-24.5 59.5v107q0 33 26.5 56t58.5 23h196q34 0 57.5 -24.5t23.5 -58.5v-103zM-224 534v103l-4 9h-196l-8 -5v-107q0 -8 8 -8h198zM66 587q7 -11 7 -21t-9 -20l-28 -31q-11 -11 -24 -11h-85q-13 0 -23 10 l-28 26q-10 11 -10 24q0 10 4 16l48 79q9 15 28 15h38q17 0 27 -12zM-2 569l-29 41h-5l-24 -41h58z" />
<glyph unicode="&#x1004;&#x103a;&#x1039;&#x102d;" horiz-adv-x="92" d="M76 534q0 -35 -22.5 -59t-56.5 -24h-198q-36 0 -60.5 23.5t-24.5 59.5v107q0 33 26.5 56t58.5 23h196q34 0 57.5 -24.5t23.5 -58.5v-103zM-1 534v103l-4 9h-196l-8 -5v-107q0 -8 8 -8h198z" />
<glyph unicode="&#x1004;&#x103a;&#x1039;&#x102e;" horiz-adv-x="52" d="M-396 434h-172q-41 0 -41 30q0 20 19 35l91 77l-87 77q-18 14 -18 35q0 30 41 30h164q36 0 36 -36t-36 -36h-80l51 -41q18 -15 18 -29q0 -13 -19 -29l-54 -41h87q36 0 36 -36t-36 -36zM-23 534q0 -35 -17 -59t-43 -24h-202q-27 0 -45.5 23.5t-18.5 59.5v107q0 33 20 56 t44 23h201q26 0 43.5 -24.5t17.5 -58.5v-103zM-91 526h8l2 8v103l-3 9h-201l-6 -5v-107q0 -8 6 -8h4l49 70l6 6q20 12 38 12t38 -10l8 -6zM-226 526h79l-22 30q-9 4 -21 4q-6 0 -14 -3z" />
<glyph unicode="&#x1004;&#x103a;&#x1039;&#x1036;" horiz-adv-x="21" d="M-221 434h-172q-41 0 -41 30q0 20 19 35l91 77l-87 77q-18 14 -18 35q0 30 41 30h164q36 0 36 -36t-36 -36h-80l51 -41q18 -15 18 -29q0 -13 -19 -29l-54 -41h87q36 0 36 -36t-36 -36zM11 587q7 -11 7 -21t-9 -20l-28 -31q-11 -11 -24 -11h-85q-13 0 -23 10l-28 26 q-10 11 -10 24q0 10 4 16l48 79q9 15 28 15h38q17 0 27 -12zM-57 569l-29 41h-5l-24 -41h58z" />
<glyph unicode="&#x1004;&#x103a;&#x1039;" d="M-101 434h-252q-41 0 -41 30q0 20 19 35l91 77l-87 77q-18 14 -18 35q0 30 41 30h244q36 0 36 -36t-36 -36h-160l51 -41q18 -15 18 -29q0 -13 -19 -29l-54 -41h167q36 0 36 -36t-36 -36z" />
<glyph unicode="&#x103e;&#x1030;" d="M-44 -300h-56q-36 0 -36 36v221q0 36 36 36t36 -36v-185h20q36 0 36 -36t-36 -36zM-208 -263q0 -18 -10 -28t-26 -10q-36 0 -36 38v219q0 37 36 37t36 -37v-219zM-353 -264q0 -36 -36 -36h-61q-36 0 -36 36t36 36h25v185q0 36 36 36t36 -36v-221z" />
<glyph unicode="&#x103b;&#x103e;" horiz-adv-x="137" d="M-91 -300h-149q-36 0 -36 36t36 36h113v192q0 36 36 36t36 -36v-139l91 -37v608q0 36 36 36t36 -36v-662q0 -39 -30 -39q-5 0 -19 5l-114 47q0 -21 -9 -34t-27 -13z" />
<glyph unicode="&#x103d;&#x103e;" d="M-108 -206l-6 15l-134 112l-138 -112l-8 -15q3 -22 18 -22h245q23 0 23 22zM-416 -293l-14 -7h-105q-36 0 -36 36t36 36h69v24q0 18 9 36q2 6 8.5 15t9.5 11l168 136q12 8 23 8q13 0 22 -8l165 -136q11 -10 18 -27t7 -33q0 -51 -16 -72q-20 -26 -79 -26h-242h-18 q-19 0 -25 7z" />
<glyph unicode="&#x100a;&#x1039;&#x1009;" horiz-adv-x="1116" d="M39 338q12 26 33 48t48.5 38t59 24.5t62.5 6.5q36 -2 70 -15.5t60.5 -35.5t43 -50.5t16.5 -61.5v-127q3 -17 14 -33t27.5 -29.5t37.5 -22.5t45 -9q25 0 46.5 8.5t38.5 21t26 29t10 32.5v4.5v4.5v121q0 14 -9 29.5t-24.5 28.5t-37 22.5t-45.5 10.5q-7 1 -13 0.5t-13 -1.5 q5 28 7 45.5t4 27.5h19q36 -2 70 -15.5t60.5 -35.5t42.5 -50.5t16 -61.5v-119q0 -17 10.5 -35t27.5 -33t39.5 -24.5t47.5 -8.5q25 0 47 8.5t38.5 21.5t26 29.5t9.5 33.5v127q0 15 -9 30t-24.5 28t-36.5 22.5t-45 10.5q-14 1 -26 -1q4 28 6.5 46t3.5 27q10 1 19 0 q36 -2 70 -15.5t60.5 -35.5t43 -50.5t16.5 -61.5v-127q0 -33 -16 -62.5t-43.5 -52t-63 -36.5t-75.5 -14q-24 0 -46.5 5t-43.5 15t-39 23.5t-33 29.5q-14 -16 -31.5 -29.5t-38 -23t-44 -15t-47.5 -5.5t-46.5 5t-43.5 15t-39 23t-33 29q-28 -32 -69.5 -51.5t-90.5 -20.5 q-32 -1 -64 8q-20 7 -35 14v-8v-255h846v64h78v-103q0 -9 -2.5 -16t-8 -12.5t-13 -9t-14.5 -3.5h-925q-8 0 -15 3.5t-12.5 9t-9 12.5t-3.5 16v371q-10 16 -17 32l69 39q4 -17 15 -33t27.5 -28.5t37.5 -20.5t44 -8q24 0 45.5 8t38 20.5t26.5 28.5t11 33v130q0 14 -9 29.5 t-24.5 28.5t-37 22.5t-44.5 10.5q-26 2 -48 -5.5t-39.5 -20.5t-28.5 -28.5t-14 -30.5z" />
<glyph unicode="&#x1009;&#x1039;&#x1006;" horiz-adv-x="501" d="M36 120q0 18 11.5 28t26.5 10q16 0 27.5 -10t11.5 -28v-35l2 -8h268q8 0 8 8v265l-8 5h-265l-5 -8v-30q0 -18 -11.5 -28.5t-27.5 -10.5q-15 0 -26.5 10.5t-11.5 28.5v30q0 33 23.5 59t58.5 26h265q85 0 85 -82v-265q1 -38 -21 -61.5t-64 -23.5h-268h-7v-182q0 -20 12 -33 t31 -13h564q17 0 28 12t11 29v33q0 36 36 36t36 -36v-33q0 -46 -31.5 -79.5t-79.5 -33.5h-564q-48 0 -81.5 33.5t-33.5 84.5v302zM173 -159h62q-10 9 -27 13.5t-35 4.5v-18zM347 -40q2 2 8 4t11 2h151q19 0 34.5 -17t15.5 -40v-57q0 -23 -15 -40t-35 -17h-154q-14 0 -18 5 q-9 -5 -19 -5h-161q-13 0 -18 15q-3 3 -3 9v57q0 17 14 17q35 0 63 -11q35 -13 45 -41h60q3 0 7 3t4 8v57q0 5 -3.5 8.5t-7.5 3.5h-156q-21 0 -21 22q0 23 21 23h156q10 0 21 -6zM384 -159h133q4 0 8 3t4 8v57q0 5 -3 8.5t-9 3.5h-134q-6 -4 -6 -12v-57q0 -2 2 -6.5t5 -4.5z " />
<glyph unicode="&#x1009;&#x1039;&#x1008;" horiz-adv-x="610" d="M36 120q0 18 11.5 28t26.5 10q16 0 27.5 -10t11.5 -28v-35l2 -8h268q8 0 8 8v265l-8 5h-265l-5 -8v-30q0 -18 -11.5 -28.5t-27.5 -10.5q-15 0 -26.5 10.5t-11.5 28.5v30q0 33 23.5 59t58.5 26h265q85 0 85 -82v-265q1 -38 -21 -61.5t-64 -23.5h-275v-182q0 -20 12 -33 t31 -13h207v-72h-207q-48 0 -81.5 33.5t-33.5 84.5v302zM389 -131q0 -23 -14 -37.5t-35 -14.5h-165q-23 0 -38 14.5t-15 37.5v66q0 20 16.5 34t36.5 14h164q21 0 35.5 -15t14.5 -36v-63zM341 -131v63l-2 5h-123l29 -29q6 -6 6 -11q0 -7 -7 -13l-26 -21h122zM208 -103l-38 38 v-70zM572 -266q0 -39 -30 -39q-5 0 -19 5l-136 58l20 70l93 -40v608q0 36 36 36t36 -36v-662z" />
<glyph unicode="&#x1020;&#x103e;" horiz-adv-x="474" d="M371 148l70 -40q-6 -15 -16 -30v-145l-2 -1q-1 0 -1.5 -0.5t-1.5 -0.5q-41 -24 -86 -35.5t-90 -11.5q-13 0 -29 0.5t-32.5 2t-32 4.5t-27.5 6v-141h241v24q-1 15 -7 20t-15 4.5t25 75.5q27 -5 42.5 -19t23 -30t8.5 -30.5t1 -22.5v-61q0 -8 -3.5 -15t-8.5 -12.5t-12 -8.5 t-15 -3h-319q-8 0 -15 3t-12 8.5t-8.5 12.5t-3.5 15v264q10 30 35 20q13 -8 33 -14.5t42.5 -11.5t45 -8t41.5 -3q30 -1 56 4t49 14v31q-26 -13 -55 -19.5t-57 -4.5q-25 0 -49 6.5t-45 18t-39.5 27t-32 33.5t-21 38.5t-7.5 41.5v131q0 33 16.5 63.5t44.5 53.5t64.5 37 t77.5 14q32 0 63 -9.5t57 -27t46 -40.5t30 -49l-70 -38q-3 15 -14.5 31.5t-28.5 29.5t-38.5 21.5t-44.5 8.5q-25 -1 -47.5 -9.5t-39.5 -21.5t-27 -29.5t-10 -34.5v-131q0 -14 9.5 -29.5t25.5 -29t37.5 -23t46.5 -10.5t48 6t41 20.5t29.5 29t13.5 30.5zM198 -180h33v60h56 v-56q0 -16 -5.5 -27t-13 -18.5t-18.5 -10.5t-21 -3h-31v55z" />
<glyph unicode="&#x102d;&#x103e;&#x102f;" d="M-284 -264q0 -36 -36 -36h-106q-36 0 -36 36t36 36h70v185q0 36 36 36t36 -36v-221zM-71 -300h-105q-36 0 -36 36v221q0 36 36 36t36 -36v-185h69q36 0 36 -36t-36 -36zM-30 534q0 -35 -22.5 -59t-56.5 -24h-268q-36 0 -60.5 23.5t-24.5 59.5v107q0 33 26.5 56t58.5 23 h266q34 0 57.5 -24.5t23.5 -58.5v-103zM-107 534v103l-4 9h-266l-8 -5v-107q0 -8 8 -8h268z" />
<glyph unicode="&#x1036;&#x103e;&#x102f;" d="M-284 -264q0 -36 -36 -36h-106q-36 0 -36 36t36 36h70v185q0 36 36 36t36 -36v-221zM-71 -300h-105q-36 0 -36 36v221q0 36 36 36t36 -36v-185h69q36 0 36 -36t-36 -36zM-156 587q7 -11 7 -21t-9 -20l-28 -31q-11 -11 -24 -11h-85q-13 0 -23 10l-28 26q-10 11 -10 24 q0 10 4 16l48 79q9 15 28 15h38q17 0 27 -12zM-224 569l-29 41h-5l-24 -41h58z" />
<glyph unicode=" "  horiz-adv-x="332" />
<glyph unicode="&#x09;" horiz-adv-x="332" />
<glyph unicode="&#xa0;" horiz-adv-x="332" />
<glyph unicode="!" horiz-adv-x="246" d="M89 667h68v-478h-68v478zM122 73q21 0 34.5 -11.5t13.5 -28.5t-14 -28.5t-35 -11.5q-19 0 -33 12t-14 28q0 17 14.5 28.5t33.5 11.5z" />
<glyph unicode="&#x22;" horiz-adv-x="322" d="M118 357h-54v283h54v-283zM236 357h-54v283h54v-283z" />
<glyph unicode="#" horiz-adv-x="574" d="M124 53l22 154h-98v47h104l21 133h-105v47h112l22 153h64l-22 -153h122l23 153h63l-22 -153h99v-47h-105l-21 -133h105v-47h-111l-23 -154h-64l22 154h-122l-23 -154h-63zM236 387l-19 -133h123l19 133h-123z" />
<glyph unicode="$" horiz-adv-x="556" d="M251 53v242h-102q-47 0 -71.5 22.5t-24.5 68.5v160q0 55 35 77q27 17 96 17h67v67h63v-67h189v-167h-72v114h-117v-239h68q73 0 101 -19.5t28 -69.5v-167q0 -52 -28.5 -72t-103.5 -20h-65v-67h-63v67h-198v167h72v-114h126zM314 53h48q47 0 59 14q10 10 10 50v125 q0 34 -18 45q-15 8 -58 8h-41v-242zM251 587h-45q-43 0 -58 -14t-15 -54v-93q0 -40 3.5 -52.5t16.5 -19t62 -6.5h36v239z" />
<glyph unicode="%" horiz-adv-x="773" d="M288 581v-208q0 -59 -80 -59h-86q-80 0 -80 59v208q0 59 80 59h86q80 0 80 -59zM198 604h-66q-37 0 -37 -32v-190q0 -32 37 -32h66q37 0 37 32v190q0 32 -37 32zM648 653l-486 -653h-47l486 653h47zM721 268v-209q0 -59 -80 -59h-85q-81 0 -81 59v209q0 59 81 59h85 q80 0 80 -59zM631 291h-66q-37 0 -37 -32v-191q0 -32 37 -32h66q37 0 37 32v191q0 32 -37 32z" />
<glyph unicode="&#x26;" horiz-adv-x="715" d="M623 -2l-143 141l-163 -115q-42 -30 -72 -30q-37 0 -73 36l-102 102q-30 30 -30 60q0 36 43 66l161 113l-102 95v97q0 58 22 77.5t88 19.5h100q58 0 84 -22t26 -72v-123l-116 -77l141 -141l119 82l47 -44l-119 -85l142 -141zM432 184l-143 142l-143 -103q-30 -22 -30 -34 q0 -13 17 -30l72 -72q24 -24 40 -24q18 0 44 19zM299 410l87 61v79q0 45 -19 53q-11 4 -35 4h-60q-31 0 -43 -11.5t-12 -42.5v-61z" />
<glyph unicode="'" horiz-adv-x="202" d="M118 357h-54v283h54v-283z" />
<glyph unicode="(" horiz-adv-x="282" d="M227 758v-50q-63 -42 -87.5 -89.5t-24.5 -127.5v-315q0 -81 24 -128t88 -89v-51q-87 44 -125 105t-38 157v326q0 96 38 157.5t125 104.5z" />
<glyph unicode=")" horiz-adv-x="257" d="M40 -92v51q63 42 87 89t24 128v315q0 80 -24.5 127.5t-86.5 89.5v50q86 -43 124.5 -104.5t38.5 -157.5v-326q0 -96 -38.5 -157t-124.5 -105z" />
<glyph unicode="*" horiz-adv-x="405" d="M144 501l-108 61l26 44l108 -60v121h52v-121l108 60l26 -44l-108 -61l108 -60l-26 -44l-108 60v-121h-52v121l-108 -60l-26 44z" />
<glyph unicode="+" horiz-adv-x="501" d="M204 332v145h64v-145h156v-60h-156v-145h-64v145h-156v60h156z" />
<glyph unicode="," horiz-adv-x="202" d="M8 -159l113 251h54l-114 -251h-53z" />
<glyph unicode="-" horiz-adv-x="224" d="M0 193v40h216v-40h-216z" />
<glyph unicode="." horiz-adv-x="195" d="M96 73q20 0 34 -11.5t14 -28.5t-14.5 -28.5t-34.5 -11.5q-19 0 -33 12t-14 28q0 17 14.5 28.5t33.5 11.5z" />
<glyph unicode="/" horiz-adv-x="437" d="M8 -37l382 740h49l-384 -740h-47z" />
<glyph unicode="0" horiz-adv-x="556" d="M504 529v-418q0 -50 -30 -77q-38 -34 -109 -34h-162q-71 0 -109 34q-30 27 -30 77v418q0 50 30 77q38 34 109 34h162q71 0 109 -34q30 -27 30 -77zM347 587h-126q-82 0 -82 -76v-382q0 -76 82 -76h126q81 0 81 76v382q0 76 -81 76z" />
<glyph unicode="1" horiz-adv-x="379" d="M102 0v53h72v504l-138 -100v63l166 120h43v-587h72v-53h-215z" />
<glyph unicode="2" horiz-adv-x="535" d="M52 0v138q0 40 14 61.5t56 44.5l290 159v117q0 67 -80 67h-130q-75 0 -75 -68v-79h-75v84q0 55 39 87q36 29 108 29h148q61 0 100.5 -28t39.5 -72v-175l-329 -178q-31 -17 -31 -63v-71h289v114h69v-167h-433z" />
<glyph unicode="3" horiz-adv-x="527" d="M48 169h76v-52q0 -36 12.5 -50t45.5 -14h149q46 0 61.5 14.5t15.5 56.5v128q0 38 -17 52t-62 14h-138v33l212 236h-276v-149h-68v202h411v-66l-182 -203h64q132 0 132 -102v-150q0 -119 -135 -119h-150q-84 0 -117.5 23t-33.5 81v65z" />
<glyph unicode="4" horiz-adv-x="501" d="M330 0v166h-302v55l285 419h88v-421h77v-53h-77v-166h-71zM330 219v343l-234 -343h234z" />
<glyph unicode="5" horiz-adv-x="542" d="M52 161h68v-31q0 -44 17.5 -60.5t62.5 -16.5h132q48 0 65.5 15t17.5 57v143q0 64 -83 64h-252v308h384v-53h-308v-202h190q76 0 110.5 -25.5t34.5 -84.5v-163q0 -112 -153 -112h-135q-75 0 -113 28.5t-38 95.5v37z" />
<glyph unicode="6" horiz-adv-x="546" d="M487 485h-68v38q0 64 -95 64h-101q-84 0 -84 -75v-179q28 37 89 37h138q132 0 132 -119v-123q0 -70 -36 -99t-124 -29h-114q-160 0 -160 123v393q0 65 35 94.5t99 29.5h150q139 0 139 -116v-39zM234 53h100q52 0 70 15t18 60v114q0 75 -84 75h-109q-90 0 -90 -67v-116 q0 -47 20 -64t75 -17z" />
<glyph unicode="7" horiz-adv-x="501" d="M84 0l301 587h-289v-147h-68v200h434v-53l-301 -587h-77z" />
<glyph unicode="8" horiz-adv-x="531" d="M56 119v123q0 40 20.5 63t73.5 42q-53 20 -70.5 40.5t-17.5 63.5v81q0 108 147 108h145q59 0 96 -28t37 -73v-93q0 -46 -32 -71q-15 -11 -59 -28q52 -17 71.5 -40t19.5 -66v-121q0 -120 -152 -120h-124q-84 0 -115 24q-40 30 -40 95zM209 53h129q74 0 74 74v120 q0 73 -78 73h-113q-89 0 -89 -77v-120q0 -70 77 -70zM220 373h115q77 0 77 68v90q0 56 -78 56h-107q-88 0 -88 -58v-78q0 -78 81 -78z" />
<glyph unicode="9" horiz-adv-x="527" d="M62 155h69v-38q0 -64 95 -64h100q84 0 84 75v180q-22 -23 -39 -30t-51 -7h-136q-132 0 -132 118v124q0 69 36 98t123 29h114q161 0 161 -122v-394q0 -65 -35.5 -94.5t-98.5 -29.5h-150q-140 0 -140 116v39zM316 587h-100q-53 0 -71 -15t-18 -60v-113q0 -75 84 -75h109 q90 0 90 67v115q0 47 -19.5 64t-74.5 17z" />
<glyph unicode=":" horiz-adv-x="202" d="M96 434q20 0 34 -11.5t14 -28.5t-14.5 -28.5t-34.5 -11.5q-19 0 -33 12t-14 28q0 17 14.5 28.5t33.5 11.5zM96 73q20 0 34 -11.5t14 -28.5t-14.5 -28.5t-34.5 -11.5q-19 0 -33 12t-14 28q0 17 14.5 28.5t33.5 11.5z" />
<glyph unicode=";" horiz-adv-x="285" d="M8 -159l113 251h54l-114 -251h-53zM170 253q21 0 34.5 -11.5t13.5 -28.5t-14 -28.5t-35 -11.5q-19 0 -33 12t-14 28q0 17 14.5 28.5t33.5 11.5z" />
<glyph unicode="&#x3c;" horiz-adv-x="500" d="M559 559v-61l-440 -165l440 -165v-61l-519 200v53z" />
<glyph unicode="=" horiz-adv-x="470" d="M48 234v53h376v-53h-376zM48 354v53h376v-53h-376z" />
<glyph unicode="&#x3e;" horiz-adv-x="618" d="M41 559l519 -199v-53l-519 -200v61l440 165l-440 165v61z" />
<glyph unicode="?" horiz-adv-x="470" d="M133 190v170h172q43 0 43 44v164q0 26 -11 36t-38 10h-125q-38 0 -48 -12t-10 -38v-61h-68v94q0 70 94 70h184q98 0 98 -82v-195q0 -83 -101 -83h-121v-117h-69zM169 73q21 0 34.5 -11.5t13.5 -28.5t-14.5 -28.5t-34.5 -11.5q-19 0 -33 12t-14 28q0 17 14.5 28.5 t33.5 11.5z" />
<glyph unicode="@" horiz-adv-x="614" d="M506 136h53v-31q0 -105 -125 -105h-247q-123 0 -123 100v459q0 61 33 87q28 21 108 21h227q67 0 97 -26t30 -85v-283q0 -105 -125 -105h-168q-88 0 -88 83v164q0 78 86 78h175v-283q48 1 61 28q6 14 6 62v260q0 41 -10 53q-14 17 -62 17h-240q-45 0 -61.5 -14t-16.5 -53 v-440q0 -54 16 -70t67 -16h223q48 0 66 15.5t18 58.5v25zM380 210v241h-103q-39 0 -39 -37v-171q0 -33 39 -33h103z" />
<glyph unicode="A" horiz-adv-x="690" d="M8 0v56l77 -2l193 613h136l186 -613l77 2v-56h-237v56l77 -2l-55 178h-238l-56 -178l77 2v-56h-237zM240 286h209l-105 330z" />
<glyph unicode="B" horiz-adv-x="614" d="M52 0v56l76 -2v559l-76 -2v56h367q87 0 116.5 -22t29.5 -89v-125q0 -43 -19 -61.5t-72 -24.5q60 -8 80 -24.5t20 -57.5v-156q0 -67 -30 -87t-130 -20h-362zM209 54h213q41 0 56 9.5t15 40.5v160q0 34 -19 44q-14 8 -59 8h-206v-262zM209 370h183q52 0 72.5 13.5 t20.5 46.5v126q0 35 -15 46t-62 11h-199v-243z" />
<glyph unicode="C" horiz-adv-x="565" d="M514 0h-318q-72 0 -104 25q-28 22 -28 78v462q0 55 40 83q27 19 98 19h302v-167h-72v114h-224q-39 0 -51.5 -13t-12.5 -51v-443q0 -32 15 -43t59 -11h224v114h72v-167z" />
<glyph unicode="D" horiz-adv-x="622" d="M128 613l-76 -2v56h361q98 0 131 -28.5t33 -100.5v-404q0 -82 -38.5 -108t-129.5 -26h-357v56l76 -2v559zM209 54h213q46 0 65 21q10 11 10 46v418q0 42 -13 56q-17 18 -62 18h-213v-559z" />
<glyph unicode="E" horiz-adv-x="596" d="M52 0v56l76 -2v559l-76 -2v56h508v-165h-73v111h-278v-246h254v-54h-254v-259h278v111h73v-165h-508z" />
<glyph unicode="F" horiz-adv-x="569" d="M52 0v56l76 -2v559l-76 -2v56h477v-169h-73v115h-247v-248h251v-54h-251v-257l77 2v-56h-234z" />
<glyph unicode="G" horiz-adv-x="575" d="M516 0h-311q-89 0 -115 23t-26 74v483q0 87 111 87h334v-167h-72v114h-222q-41 0 -56 -10.5t-15 -38.5v-464q0 -48 59 -48h233v253h-159v53h239v-359z" />
<glyph unicode="H" horiz-adv-x="681" d="M52 0v55l75 -2v561l-75 -2v55h231v-55l-75 2v-245h280v245l-75 -2v55h231v-55l-75 2v-561l75 2v-55h-231v55l75 -2v263h-280v-263l75 2v-55h-231z" />
<glyph unicode="I" horiz-adv-x="341" d="M52 0v55l75 -2v561l-75 -2v55h231v-55l-75 2v-561l75 2v-55h-231z" />
<glyph unicode="J" horiz-adv-x="378" d="M28 0v53h90q37 0 51.5 11.5t14.5 40.5v509l-76 -2v55h233v-55l-77 2v-516q0 -52 -34 -75t-111 -23h-91z" />
<glyph unicode="K" horiz-adv-x="638" d="M52 0v55l76 -2v561l-76 -2v55h232v-55l-75 2v-277l243 277l-75 -2v55h234v-55l-76 2l-227 -252h131q112 0 112 -97v-212l72 2v-55h-225v55l72 -2v192q0 40 -13.5 52t-56.5 12h-191v-256l75 2v-55h-232z" />
<glyph unicode="L" horiz-adv-x="551" d="M52 0v55l75 -2v561l-75 -2v55h231v-55l-75 2v-561h229v114h72v-167h-457z" />
<glyph unicode="M" horiz-adv-x="874" d="M52 0v55l75 -2v561l-75 -2v55h180l176 -354q22 -44 30 -78q11 49 28 83l176 349h184v-55l-76 2v-561l76 2v-55h-232v56l76 -3v412q0 32 2 64l2 32l2 33q-10 -38 -27 -70l-183 -351h-58l-176 345q-23 45 -34 80q10 -80 10 -114v-431l75 2v-55h-231z" />
<glyph unicode="N" horiz-adv-x="734" d="M52 0v55l75 -2v561l-75 -2l1 55h164l257 -445q47 -82 66 -132q-13 84 -13 147v377l-76 -2v55h233v-55l-77 2v-614h-90l-265 460q-22 38 -46 93q-2 7 -10 24q1 -10 3 -26l4 -32q5 -43 5 -70v-396l75 2v-55h-231z" />
<glyph unicode="O" horiz-adv-x="573" d="M64 100v459q0 61 33 87q27 21 108 21h186q69 0 99 -25.5t30 -84.5v-453q0 -104 -126 -104h-206q-124 0 -124 100zM227 53h128q53 0 68.5 16.5t15.5 74.5v400q0 44 -14.5 57t-57.5 13h-145q-46 0 -62 -14t-16 -53v-407q0 -55 15.5 -71t67.5 -16z" />
<glyph unicode="P" horiz-adv-x="596" d="M53 0l-1 55l75 -2v561l-75 -2v55h354q74 0 104 -17q41 -23 41 -74v-164q0 -53 -31.5 -76t-100.5 -23h-211v-260l74 2v-55h-229zM208 366h193q42 0 55.5 13t13.5 54v123q0 34 -16 46t-60 12h-186v-248z" />
<glyph unicode="Q" horiz-adv-x="577" d="M329 -64h-72v64h-69q-124 0 -124 100v459q0 61 33 87q27 21 108 21h186q69 0 99 -25.5t30 -84.5v-453q0 -104 -126 -104h-65v-64zM329 168v-115h26q53 0 68.5 16.5t15.5 74.5v400q0 44 -14.5 57t-57.5 13h-145q-46 0 -62 -14t-16 -53v-408q0 -34 4 -47q7 -26 32 -34 q13 -5 47 -5h30v115h72z" />
<glyph unicode="R" horiz-adv-x="685" d="M52 612v55h384q124 0 124 -89v-153q0 -32 -14 -47t-53 -26l-14 -4q56 -11 72.5 -27.5t16.5 -63.5v-204l76 2v-55h-232v55l75 -2v205q0 50 -27 58q-16 5 -51 5h-200v-268l78 2v-55h-234v55l75 -2v561zM209 374h191q48 0 64 10.5t16 42.5v139q0 27 -18.5 37.5t-65.5 10.5 h-187v-240z" />
<glyph unicode="S" horiz-adv-x="551" d="M52 0v167h72v-114h236q48 0 60 14q10 10 10 50v145q0 34 -18 45q-15 8 -58 8h-206q-47 0 -71.5 22.5t-24.5 68.5v167q0 55 34 77q28 17 96 17h320v-167h-72v114h-225q-43 0 -58 -14t-15 -54v-120q0 -41 20 -52q11 -6 60 -6h167q75 0 103 -19.5t28 -69.5v-187 q0 -52 -29 -72t-103 -20h-326z" />
<glyph unicode="T" horiz-adv-x="565" d="M139 0v55l105 -2v561h-144v-147h-72v200h512v-200h-72v147h-144v-561l103 2v-55h-288z" />
<glyph unicode="U" horiz-adv-x="679" d="M32 667h232v-55l-76 2v-494q0 -40 16.5 -53.5t64.5 -13.5h152q40 0 55 13.5t15 48.5v499l-76 -2v55h232v-55l-76 2v-506q0 -58 -29.5 -83t-97.5 -25h-216q-120 0 -120 113v501l-76 -2v55z" />
<glyph unicode="V" horiz-adv-x="675" d="M8 667h232v-55l-76 2l142 -444q20 -63 32 -113l6 24l5 22q5 22 19 69l136 442l-76 -2v55h236v-55l-76 2l-194 -614h-110l-200 614l-76 -2v55z" />
<glyph unicode="W" horiz-adv-x="915" d="M8 667h228v-55l-75 2l91 -415q12 -51 25 -130q5 44 23 130l101 468h113l105 -466q19 -83 23 -132q4 32 8 62q2 8 15 71l90 412l-76 -2v55h227v-55l-76 2l-134 -614h-108l-110 484q-15 64 -21 117q-5 -47 -20 -117l-107 -484h-108l-138 614l-76 -2v55z" />
<glyph unicode="X" horiz-adv-x="642" d="M30 0v55l76 -2l172 288l-172 273l-76 -2v55h236v-55l-75 2l129 -209l125 209l-77 -2v55h237v-55l-76 2l-169 -273l180 -288l76 2v-55h-236v55l76 -2l-136 225l-136 -225l75 2v-55h-229z" />
<glyph unicode="Y" horiz-adv-x="652" d="M211 0v55l77 -2v255l-204 306l-76 -2v55h244v-55l-77 2l151 -242l149 242l-75 -2v55h241v-55l-76 2l-197 -306v-255l76 2v-55h-233z" />
<glyph unicode="Z" horiz-adv-x="561" d="M34 0v46l391 568h-297v-114h-72v167h473v-43l-396 -571h324v114h72v-167h-495z" />
<glyph unicode="[" horiz-adv-x="280" d="M232 748v-39h-77q-33 0 -37 -13q-3 -6 -3 -20v-683q0 -27 16 -31q7 -2 24 -2h77v-39h-93q-75 0 -75 60v707q0 60 75 60h93z" />
<glyph unicode="\" horiz-adv-x="443" d="M439 -37h-47l-384 740h50z" />
<glyph unicode="]" horiz-adv-x="250" d="M40 -79v39h76q33 0 38 13q2 6 2 20v683q0 27 -16 31q-7 2 -24 2h-76v39h92q76 0 76 -60v-707q0 -60 -76 -60h-92z" />
<glyph unicode="^" horiz-adv-x="596" d="M113 380h-71l216 288h84l215 -288h-72l-186 246z" />
<glyph unicode="_" horiz-adv-x="596" d="M0 -107v53h600v-53h-600z" />
<glyph unicode="`" horiz-adv-x="573" d="M293 489l-101 135h70l102 -135h-71z" />
<glyph unicode="a" horiz-adv-x="502" d="M476 0h-339q-48 0 -64 10q-21 14 -21 43v128q0 59 73 59h215v98q0 22 -11.5 29t-40.5 7h-113q-26 0 -34 -7.5t-8 -28.5v-32h-68v59q0 62 72 62h191q84 0 84 -64v-310l64 2v-55zM340 53v134h-166q-50 0 -50 -30v-70q0 -34 50 -34h166z" />
<glyph unicode="b" horiz-adv-x="494" d="M84 0v607l-68 -2v55h140v-233h210q86 0 86 -63v-303q0 -61 -73 -61h-295zM156 53h167q33 0 42 5q15 9 15 38v240q0 27 -19 34q-12 4 -38 4h-167v-321z" />
<glyph unicode="c" horiz-adv-x="437" d="M403 0h-245q-102 0 -102 78v267q0 47 22.5 64.5t82.5 17.5h231v-114h-68v61h-132q-37 0 -50.5 -9.5t-13.5 -37.5v-221q0 -30 12 -41.5t42 -11.5h153v60h68v-113z" />
<glyph unicode="d" horiz-adv-x="514" d="M289 660h139v-607l69 2l1 -55h-346q-48 0 -66 8q-30 13 -30 49v302q0 68 95 68h205v180l-67 -2v55zM356 53v321h-181q-31 0 -39 -6.5t-8 -32.5v-241q0 -31 21 -38q11 -3 30 -3h177z" />
<glyph unicode="e" horiz-adv-x="459" d="M415 111v-44q0 -37 -21.5 -52t-76.5 -15h-171q-49 0 -69.5 18t-20.5 61v275q0 40 19.5 56.5t66.5 16.5h182q91 0 91 -74v-165h-287v-97q0 -26 12 -33q9 -5 41 -5h109q39 0 48 6.5t9 32.5v19h68zM128 241h215v94q0 31 -19 36q-10 3 -31 3h-118q-27 0 -37 -9t-10 -31v-93z " />
<glyph unicode="f" horiz-adv-x="285" d="M38 0v55l69 -2v321h-69v53h69v150q0 48 19 63q25 20 79 20h72v-53h-43q-35 0 -45 -9t-10 -32v-139h67v-53h-67v-321l67 2v-55h-208z" />
<glyph unicode="g" horiz-adv-x="502" d="M68 -68h72v-19q0 -22 9 -27.5t43 -5.5h104q39 0 48.5 7t9.5 36v77h-212q-86 0 -86 63v302q0 62 86 62h350v-55l-66 2v-489q0 -58 -72 -58h-218q-68 0 -68 50v55zM354 53v321h-162q-38 0 -47 -4q-17 -7 -17 -36v-227q0 -38 9 -46t54 -8h163z" />
<glyph unicode="h" horiz-adv-x="573" d="M40 0v55l68 -2v554l-68 -2v55h140v-233h200q92 0 92 -62v-312l67 2v-55h-208v55l69 -2v279q0 26 -9 34t-38 8h-173v-321l67 2v-55h-207z" />
<glyph unicode="i" horiz-adv-x="285" d="M40 427h140v-374l68 2v-55h-208v55l68 -2v321l-68 -2v55zM138 598q20 0 35 -12.5t15 -29.5t-15 -29.5t-35 -12.5t-35 12.5t-15 29.5t15 29.5t35 12.5z" />
<glyph unicode="j" horiz-adv-x="232" d="M40 372v55h140v-508q0 -52 -22 -71q-26 -23 -82 -23h-36v50h3q45 0 55 7.5t10 41.5v450zM138 598q20 0 35 -12.5t15 -29.5t-15 -29.5t-35 -12.5t-35 12.5t-15 29.5t15 29.5t35 12.5z" />
<glyph unicode="k" horiz-adv-x="557" d="M40 0v55l68 -2v554l-68 -2v55h140v-442l169 156l-68 -2v55h210v-55l-69 2l-154 -156l195 -165l67 2v-55h-228v55l69 -2l-191 159v-212h-140z" />
<glyph unicode="l" horiz-adv-x="270" d="M40 0v55l68 -2v554l-68 -2v55h140v-607l67 2v-55h-207z" />
<glyph unicode="m" horiz-adv-x="858" d="M42 427h623q50 0 69 -14q24 -18 24 -52v-308l69 2v-55h-209v55l68 -2v284q0 22 -11 29.5t-46 7.5h-159v-321l68 2v-55h-208v55l68 -2v321h-216v-321l68 2v-55h-208v55l68 -2v321l-68 -2v55z" />
<glyph unicode="n" horiz-adv-x="567" d="M42 427h341q51 0 71.5 -16t20.5 -46v-312l67 2v-55h-207v55l68 -2v278q0 29 -10.5 36t-50.5 7h-160v-321l68 2v-55h-208v55l68 -2v321l-68 -2v55z" />
<glyph unicode="o" horiz-adv-x="480" d="M161 427h170q59 0 79 -14t20 -57v-284q0 -72 -99 -72h-173q-102 0 -102 64v296q0 39 22.5 53t82.5 14zM128 338v-237q0 -32 16 -41q12 -7 44 -7h117q36 0 47 13q6 8 6 40v232q0 25 -14 30.5t-39 5.5h-131q-46 0 -46 -36z" />
<glyph unicode="p" horiz-adv-x="494" d="M24 -171v57l68 -4v492l-68 -2v55h348q47 0 65 -12q24 -16 24 -52v-287q0 -43 -21.5 -59.5t-77.5 -16.5h-198v-118l68 4v-57h-208zM160 53h168q46 0 52 18q4 8 4 26v239q0 25 -10 31.5t-37 6.5h-177v-321z" />
<glyph unicode="q" horiz-adv-x="508" d="M493 -171h-209v57l69 -4v118h-199q-56 0 -77 16.5t-21 59.5v287q0 36 24 52q18 12 64 12h349v-55l-68 2v-492l68 4v-57zM358 53v321h-178q-31 0 -39 -8.5t-8 -29.5v-239q0 -35 19 -41q12 -3 38 -3h168z" />
<glyph unicode="r" horiz-adv-x="415" d="M42 0v55l68 -2v321l-68 -2v55h245q84 0 84 -53v-90h-69v61q0 19 -6 24t-27 5h-87v-321l68 2v-55h-208z" />
<glyph unicode="s" horiz-adv-x="445" d="M48 0v113h68v-60h161q45 0 52 14q3 7 3 21v62q0 23 -11 29t-37 6h-133q-96 0 -96 70v107q0 65 81 65h259v-114h-69v61h-157q-42 0 -42 -32v-74q0 -30 46 -30h133q61 0 79.5 -14.5t18.5 -58.5v-87q0 -44 -22.5 -61t-81.5 -17h-252z" />
<glyph unicode="t" horiz-adv-x="268" d="M250 0h-69q-49 0 -69 17t-20 60v297h-68v53h68v145h72v-145h68v-53h-68v-284q0 -25 9 -31t45 -6h32v-53z" />
<glyph unicode="u" horiz-adv-x="559" d="M40 427h140v-329q0 -29 13 -37t48 -8h162v321l-68 -2v55h140v-374l69 2l-3 -55h-341q-54 0 -73 13t-19 50v311l-68 -2v55z" />
<glyph unicode="v" horiz-adv-x="522" d="M228 0l-151 374l-69 -2v55h209v-55l-68 2l75 -185q28 -66 34 -114q14 65 37 121l72 178l-67 -2v55h210v-55l-67 2l-159 -374h-56z" />
<glyph unicode="w" horiz-adv-x="760" d="M210 0l-133 374l-69 -2v55h209v-55l-68 2l59 -165q21 -62 31 -133q6 50 24 102l89 249h58l78 -224q24 -68 28 -127q11 56 31 113l66 185l-68 -2v55h207v-55l-68 2l-137 -374h-56l-88 254q-8 26 -21 93q-9 -56 -22 -93l-90 -254h-60z" />
<glyph unicode="x" horiz-adv-x="516" d="M32 0v55l69 -2l126 170l-113 151l-68 -2v55h136v-40l81 -112l77 112v40h140v-55l-67 2l-112 -151l125 -170l68 2v-55h-136v43l-95 128l-90 -128v-43h-141z" />
<glyph unicode="y" horiz-adv-x="512" d="M134 -173l86 205l-143 342l-69 -2v55h207v-55l-69 2l74 -177q18 -43 33 -97q15 49 37 102l74 172l-69 -2v55h207v-55l-69 2l-229 -547h-70z" />
<glyph unicode="z" horiz-adv-x="445" d="M40 0v44l286 330h-218v-58h-68v111h369v-53l-285 -321h217v60h68v-113h-369z" />
<glyph unicode="{" horiz-adv-x="321" d="M275 747v-40h-9q-64 0 -85 -20.5t-21 -81.5v-157q0 -47 -14 -70.5t-54 -43.5q40 -21 54 -44.5t14 -70.5v-157q0 -61 21 -81.5t85 -20.5h9v-40h-9q-85 0 -121.5 32.5t-36.5 106.5v152q0 48 -14 68t-54 29v51q40 9 54 29t14 68v152q0 74 36.5 106.5t121.5 32.5h9z" />
<glyph unicode="|" horiz-adv-x="606" d="M264 667h73v-834h-73v834z" />
<glyph unicode="}" horiz-adv-x="307" d="M40 -80v40h8q65 0 86 20.5t21 81.5v157q0 47 13.5 70.5t53.5 44.5q-40 20 -53.5 43.5t-13.5 70.5v157q0 61 -21 81.5t-86 20.5h-8v40h8q85 0 121.5 -32.5t36.5 -106.5v-152q0 -48 14 -68t55 -29v-51q-41 -9 -55 -29t-14 -68v-152q0 -74 -36.5 -106.5t-121.5 -32.5h-8z " />
<glyph unicode="~" horiz-adv-x="805" d="M155 587l-41 27q66 106 158 106q47 0 140 -40q82 -36 120 -36q60 0 114 78l42 -26q-66 -107 -159 -107q-42 0 -141 42q-81 34 -119 34q-58 0 -114 -78z" />
<glyph unicode="&#xa1;" horiz-adv-x="311" d="M96 -35l21 330h50l24 -330v-138h-95v138zM100 450h87v-87h-87v87z" />
<glyph unicode="&#xa2;" horiz-adv-x="482" d="M441 157q-16 -85 -69.5 -126.5t-120.5 -41.5q-22 0 -44 5l-50 -168l-47 14l48 169q-53 26 -81.5 81.5t-28.5 132.5q0 120 58 179.5t141 59.5q16 0 43 -4l48 165l47 -14l-47 -164q79 -35 95 -127l-75 -11q-8 46 -40 72l-94 -325q14 -4 26 -4q42 0 75 30t40 85zM273 399 q-85 7 -122 -55q-25 -45 -25 -117q0 -115 52 -152z" />
<glyph unicode="&#xa3;" horiz-adv-x="502" d="M462 16q-63 -26 -104 -26q-29 0 -59 8q-70 21 -87.5 25.5t-40.5 4.5q-66 0 -128 -40l-30 74q97 56 97 166q0 27 -6 53h-83v63h65q-22 73 -22 112q0 82 56 129.5t138 47.5q69 0 121.5 -39t65.5 -122l-76 -11q-6 52 -38 81t-75 29q-48 0 -79 -31.5t-31 -73.5q0 -48 25 -122 h133v-63h-120q8 -19 8 -37q0 -82 -76 -161l1 -2q27 9 60 9q36 0 80 -10q65 -17 98 -17q32 0 82 23z" />
<glyph unicode="&#xa5;" horiz-adv-x="506" d="M483 623l-162 -285h135v-59h-175v-76h175v-59h-175v-144h-77v144h-176v59h176v76h-176v59h136l-163 285h85l127 -227q18 -31 28 -58q8 19 43 86l108 199h91z" />
<glyph unicode="&#xa7;" horiz-adv-x="479" d="M331 478q-7 46 -30 69.5t-62 23.5q-37 0 -62 -20.5t-25 -47.5q0 -25 25 -51t121 -83q53 -32 83 -54.5t47.5 -50.5t17.5 -67q0 -86 -97 -121q68 -53 68 -120q0 -60 -46.5 -99.5t-122.5 -39.5q-77 0 -126.5 39t-58.5 114l76 11q9 -50 36.5 -74.5t72.5 -24.5q43 0 67.5 22.5 t24.5 51.5q0 18 -10 33t-51 45t-98 65q-92 56 -118 95t-26 79t24.5 73.5t70.5 47.5q-56 49 -56 105q0 53 42 93.5t114 40.5q76 0 122.5 -36t55.5 -111zM311 104q62 31 62 79q0 31 -29 58.5t-88 63.5q-63 40 -86 60q-65 -34 -65 -83q0 -31 25.5 -56.5t82.5 -59.5 q62 -36 98 -62z" />
<glyph unicode="&#xa8;" horiz-adv-x="305" d="M263 532h-79v87h79v-87zM105 532h-78v87h78v-87z" />
<glyph unicode="&#xa9;" horiz-adv-x="646" d="M321 633q131 0 225.5 -94t94.5 -226t-94 -226.5t-226 -94.5t-226.5 94.5t-94.5 226.5t94.5 226t226.5 94zM320 45q111 0 189.5 79t78.5 189q0 111 -78.5 189t-189.5 78q-110 0 -188.5 -78t-78.5 -189q0 -110 78.5 -189t188.5 -79zM476 245q-14 -55 -56 -85.5t-98 -30.5 q-76 0 -122.5 49.5t-46.5 133.5t46 132t126 48q53 0 91.5 -25.5t53.5 -74.5l-51 -12q-26 65 -96 65q-53 0 -82.5 -37.5t-29.5 -96.5q0 -65 30 -98.5t77 -33.5q35 0 64.5 19.5t41.5 62.5z" />
<glyph unicode="&#xab;" horiz-adv-x="496" d="M424 30h-63l-135 194l135 194h63l-111 -194zM258 30h-63l-135 194l135 194h63l-111 -194z" />
<glyph unicode="&#xac;" horiz-adv-x="512" d="M460 177h-72v189h-340v72h412v-261z" />
<glyph unicode="&#xae;" horiz-adv-x="646" d="M321 633q131 0 225.5 -94t94.5 -226t-94 -226.5t-226 -94.5t-226.5 94.5t-94.5 226.5t94.5 226t226.5 94zM320 45q111 0 189.5 79t78.5 189q0 111 -78.5 189t-189.5 78q-110 0 -188.5 -78t-78.5 -189q0 -110 78.5 -189t188.5 -79zM470 136h-68q-64 116 -84 131t-49 15 h-33v-146h-56v344h119q54 0 83 -7.5t46.5 -32.5t17.5 -53q0 -36 -25 -64.5t-73 -31.5v-2q31 -7 80 -86zM236 330h68q47 0 65 14t18 38t-18 37.5t-70 13.5h-63v-103z" />
<glyph unicode="&#xaf;" horiz-adv-x="437" d="M440 690h-445v43h445v-43z" />
<glyph unicode="&#xb0;" horiz-adv-x="358" d="M174 631q49 0 83 -34.5t34 -83.5q0 -48 -34.5 -83t-82.5 -35t-82.5 35t-34.5 83q0 49 34 83.5t83 34.5zM174 441q30 0 50.5 21.5t20.5 50.5q0 30 -20.5 51t-50.5 21t-50.5 -21t-20.5 -51q0 -29 20.5 -50.5t50.5 -21.5z" />
<glyph unicode="&#xb1;" horiz-adv-x="504" d="M460 290h-170v-171h-72v171h-170v71h170v171h72v-171h170v-71zM460 0h-412v71h412v-71z" />
<glyph unicode="&#xb4;" horiz-adv-x="299" d="M253 633l-94 -119h-62l56 119h100z" />
<glyph unicode="&#xb5;" horiz-adv-x="470" d="M425 0h-68v53h-2q-36 -63 -111 -63q-69 0 -107 55h-1v-218h-78v624h77v-191q0 -80 6.5 -115.5t33 -61t65.5 -25.5q18 0 37 6.5t36.5 23.5t24.5 38t8.5 48.5t1.5 84.5v192h77v-451z" />
<glyph unicode="&#xb6;" horiz-adv-x="470" d="M469 549h-61v-722h-71v722h-95v-722h-71v444q-83 5 -127.5 53t-44.5 120q0 77 49 128t152 51h269v-74z" />
<glyph unicode="&#xb7;" horiz-adv-x="240" d="M164 263h-87v87h87v-87z" />
<glyph unicode="&#xbb;" horiz-adv-x="481" d="M424 224l-135 -194h-63l111 194l-111 194h63zM258 224l-135 -194h-63l111 194l-111 194h63z" />
<glyph unicode="&#xbf;" horiz-adv-x="531" d="M467 -2q-10 -87 -63.5 -133.5t-138.5 -46.5q-88 0 -144 48t-56 121q0 36 16 70.5t78 88.5q46 42 58.5 66t13.5 86h73q0 -49 -3.5 -71.5t-15 -44.5t-29.5 -41t-51 -48q-41 -36 -51 -57t-10 -43q0 -45 35 -78.5t85 -33.5q103 0 124 125zM222 452h87v-88h-87v88z" />
<glyph unicode="&#xc0;" horiz-adv-x="581" d="M581 0h-93l-73 190h-260l-69 -190h-87l239 623h89zM390 255q-77 202 -86.5 229.5t-21.5 73.5h-2q-12 -63 -32 -117l-70 -186h212zM339 664h-62l-94 119h100z" />
<glyph unicode="&#xc2;" horiz-adv-x="581" d="M581 0h-93l-73 190h-260l-69 -190h-87l239 623h89zM390 255q-77 202 -86.5 229.5t-21.5 73.5h-2q-12 -63 -32 -117l-70 -186h212zM425 664h-87l-46 72l-48 -72h-87l92 119h81z" />
<glyph unicode="&#xc3;" horiz-adv-x="585" d="M581 0h-93l-73 190h-260l-69 -190h-87l239 623h89zM390 255q-77 202 -86.5 229.5t-21.5 73.5h-2q-12 -63 -32 -117l-70 -186h212zM432 771q0 -48 -24.5 -72.5t-59.5 -24.5q-20 0 -33 4.5t-31 16.5q-30 19 -48 19q-36 0 -37 -40h-52q0 47 25.5 72t60.5 25q28 0 60 -20 t52 -20q30 0 34 40h53z" />
<glyph unicode="&#xc4;" horiz-adv-x="587" d="M581 0h-93l-73 190h-260l-69 -190h-87l239 623h89zM390 255q-77 202 -86.5 229.5t-21.5 73.5h-2q-12 -63 -32 -117l-70 -186h212zM407 679h-78v87h78v-87zM250 679h-79v87h79v-87z" />
<glyph unicode="&#xc5;" horiz-adv-x="585" d="M581 0h-93l-73 190h-260l-69 -190h-87l239 623h89zM390 255q-77 202 -86.5 229.5t-21.5 73.5h-2q-12 -63 -32 -117l-70 -186h212zM290 800q32 0 54 -22t22 -54t-22 -54.5t-54 -22.5t-54.5 22.5t-22.5 54.5t22.5 54t54.5 22zM290 679q18 0 31.5 13.5t13.5 31.5 q0 19 -13 32t-32 13t-32.5 -13t-13.5 -32q0 -18 13.5 -31.5t32.5 -13.5z" />
<glyph unicode="&#xc6;" horiz-adv-x="828" d="M822 0h-407v180h-240l-85 -180h-90l300 623h511v-74h-313v-191h291v-74h-291v-211h324v-73zM415 253v296h-62l-143 -296h205z" />
<glyph unicode="&#xca;" horiz-adv-x="573" d="M534 0h-465v623h450v-74h-368v-191h345v-74h-345v-210h383v-74zM432 664h-87l-46 72l-48 -72h-87l92 119h81z" />
<glyph unicode="&#xcb;" horiz-adv-x="570" d="M534 0h-465v623h450v-74h-368v-191h345v-74h-345v-210h383v-74zM417 679h-78v87h78v-87zM260 679h-79v87h79v-87z" />
<glyph unicode="&#xcd;" horiz-adv-x="236" d="M163 0h-83v623h83v-623zM231 783l-94 -119h-62l56 119h100z" />
<glyph unicode="&#xce;" horiz-adv-x="251" d="M163 0h-83v623h83v-623zM258 664h-87l-47 72l-48 -72h-87l92 119h81z" />
<glyph unicode="&#xd1;" horiz-adv-x="617" d="M559 0h-85l-325 489h-2v-489h-78v623h84l325 -489h2v489h79v-623zM465 769q0 -48 -24 -72t-59 -24q-19 0 -32.5 4t-31.5 16q-30 20 -48 20q-35 0 -37 -40h-52q0 46 25.5 71t60.5 25q28 0 60 -20t52 -20q30 0 34 40h52z" />
<glyph unicode="&#xd2;" horiz-adv-x="675" d="M339 633q132 0 215 -88.5t83 -233.5q0 -146 -83.5 -233.5t-214.5 -87.5q-135 0 -216.5 91t-81.5 223q0 153 83 241t215 88zM338 60q95 0 154 66t60 185q0 121 -60 186.5t-152 65.5q-93 0 -153.5 -64t-60.5 -197q0 -108 59 -175t153 -67zM396 664h-64l-94 119h101z" />
<glyph unicode="&#xd3;" horiz-adv-x="671" d="M339 633q132 0 215 -88.5t83 -233.5q0 -146 -83.5 -233.5t-214.5 -87.5q-135 0 -216.5 91t-81.5 223q0 153 83 241t215 88zM338 60q95 0 154 66t60 185q0 121 -60 186.5t-152 65.5q-93 0 -153.5 -64t-60.5 -197q0 -108 59 -175t153 -67zM447 783l-94 -119h-63l56 119h101 z" />
<glyph unicode="&#xd4;" horiz-adv-x="683" d="M339 633q132 0 215 -88.5t83 -233.5q0 -146 -83.5 -233.5t-214.5 -87.5q-135 0 -216.5 91t-81.5 223q0 153 83 241t215 88zM338 60q95 0 154 66t60 185q0 121 -60 186.5t-152 65.5q-93 0 -153.5 -64t-60.5 -197q0 -108 59 -175t153 -67zM472 664h-86l-46 72l-49 -72h-87 l93 119h81z" />
<glyph unicode="&#xd5;" horiz-adv-x="671" d="M339 633q132 0 215 -88.5t83 -233.5q0 -146 -83.5 -233.5t-214.5 -87.5q-135 0 -216.5 91t-81.5 223q0 153 83 241t215 88zM338 60q95 0 154 66t60 185q0 121 -60 186.5t-152 65.5q-93 0 -153.5 -64t-60.5 -197q0 -108 59 -175t153 -67zM481 769q0 -48 -24.5 -72 t-58.5 -24q-20 0 -33.5 4t-31.5 16q-30 20 -48 20q-35 0 -36 -40h-52q0 46 25 71t61 25q27 0 59 -20t53 -20q29 0 34 40h52z" />
<glyph unicode="&#xd6;" horiz-adv-x="679" d="M339 633q132 0 215 -88.5t83 -233.5q0 -146 -83.5 -233.5t-214.5 -87.5q-135 0 -216.5 91t-81.5 223q0 153 83 241t215 88zM338 60q95 0 154 66t60 185q0 121 -60 186.5t-152 65.5q-93 0 -153.5 -64t-60.5 -197q0 -108 59 -175t153 -67zM456 679h-78v87h78v-87zM299 679 h-79v87h79v-87z" />
<glyph unicode="&#xd8;" horiz-adv-x="681" d="M646 610l-75 -84q38 -54 52 -104.5t14 -110.5q0 -146 -84.5 -233.5t-211.5 -87.5q-110 0 -191 65l-72 -80l-42 35l74 84q-42 63 -55.5 111t-13.5 105q0 145 82 234t217 89q109 0 192 -68l71 81zM480 509q-39 33 -70 43.5t-70 10.5q-94 0 -154 -64.5t-60 -187.5 q0 -90 38 -157zM200 111q59 -51 138 -51q96 0 155 67t59 182q0 89 -36 156z" />
<glyph unicode="&#xd9;" horiz-adv-x="635" d="M559 263q0 -48 -5.5 -89t-28 -84t-74 -71.5t-136.5 -28.5q-84 0 -134.5 25t-74.5 65.5t-30.5 84.5t-6.5 98v360h82v-359q0 -56 8 -96.5t42.5 -72t106.5 -31.5t108.5 25t48 66.5t11.5 108.5v359h83v-360zM363 664h-63l-94 119h101z" />
<glyph unicode="&#xda;" horiz-adv-x="625" d="M559 263q0 -48 -5.5 -89t-28 -84t-74 -71.5t-136.5 -28.5q-84 0 -134.5 25t-74.5 65.5t-30.5 84.5t-6.5 98v360h82v-359q0 -56 8 -96.5t42.5 -72t106.5 -31.5t108.5 25t48 66.5t11.5 108.5v359h83v-360zM423 783l-94 -119h-63l57 119h100z" />
<glyph unicode="&#xdb;" horiz-adv-x="625" d="M559 263q0 -48 -5.5 -89t-28 -84t-74 -71.5t-136.5 -28.5q-84 0 -134.5 25t-74.5 65.5t-30.5 84.5t-6.5 98v360h82v-359q0 -56 8 -96.5t42.5 -72t106.5 -31.5t108.5 25t48 66.5t11.5 108.5v359h83v-360zM449 664h-86l-47 72l-49 -72h-86l91 119h81z" />
<glyph unicode="&#xdc;" horiz-adv-x="619" d="M559 263q0 -48 -5.5 -89t-28 -84t-74 -71.5t-136.5 -28.5q-84 0 -134.5 25t-74.5 65.5t-30.5 84.5t-6.5 98v360h82v-359q0 -56 8 -96.5t42.5 -72t106.5 -31.5t108.5 25t48 66.5t11.5 108.5v359h83v-360zM432 679h-78v87h78v-87zM275 679h-78v87h78v-87z" />
<glyph unicode="&#xdf;" horiz-adv-x="539" d="M63 0v425q0 74 18.5 118.5t64 67t98.5 22.5q70 0 113.5 -35.5t43.5 -85.5q0 -42 -23 -82q-6 -10 -23.5 -42t-17.5 -50q0 -19 14 -33t63 -46q54 -35 71 -63.5t17 -63.5q0 -59 -44 -100.5t-111 -41.5q-103 0 -155 101l66 32q38 -71 87 -71q33 0 56 22.5t23 51.5 q0 24 -11.5 38t-42.5 35q-63 44 -87.5 71.5t-24.5 55.5q0 19 7 36.5t25 49.5q26 46 31.5 63t5.5 29q0 28 -24.5 47.5t-60.5 19.5q-49 0 -76 -31.5t-27 -118.5v-421h-76z" />
<glyph unicode="&#xe0;" horiz-adv-x="470" d="M449 0h-80q-11 21 -16 56q-77 -66 -166 -66q-71 0 -112.5 35.5t-41.5 93.5q0 57 39.5 93t138.5 48l71 11q40 6 66 15q0 35 -2 49t-12.5 29.5t-33.5 24.5t-62 9q-49 0 -78 -18t-39 -68l-75 10q12 69 63.5 104t140.5 35q81 0 119 -24t47 -58t9 -88v-102q0 -94 3.5 -126.5 t20.5 -62.5zM348 198v28q-60 -20 -146.5 -31.5t-86.5 -73.5q0 -31 23.5 -51t66.5 -20q57 0 100 33.5t43 114.5zM290 514h-63l-94 119h101z" />
<glyph unicode="&#xe1;" horiz-adv-x="466" d="M449 0h-80q-11 21 -16 56q-77 -66 -166 -66q-71 0 -112.5 35.5t-41.5 93.5q0 57 39.5 93t138.5 48l71 11q40 6 66 15q0 35 -2 49t-12.5 29.5t-33.5 24.5t-62 9q-49 0 -78 -18t-39 -68l-75 10q12 69 63.5 104t140.5 35q81 0 119 -24t47 -58t9 -88v-102q0 -94 3.5 -126.5 t20.5 -62.5zM348 198v28q-60 -20 -146.5 -31.5t-86.5 -73.5q0 -31 23.5 -51t66.5 -20q57 0 100 33.5t43 114.5zM351 633l-93 -119h-63l56 119h100z" />
<glyph unicode="&#xe2;" horiz-adv-x="472" d="M449 0h-80q-11 21 -16 56q-77 -66 -166 -66q-71 0 -112.5 35.5t-41.5 93.5q0 57 39.5 93t138.5 48l71 11q40 6 66 15q0 35 -2 49t-12.5 29.5t-33.5 24.5t-62 9q-49 0 -78 -18t-39 -68l-75 10q12 69 63.5 104t140.5 35q81 0 119 -24t47 -58t9 -88v-102q0 -94 3.5 -126.5 t20.5 -62.5zM348 198v28q-60 -20 -146.5 -31.5t-86.5 -73.5q0 -31 23.5 -51t66.5 -20q57 0 100 33.5t43 114.5zM376 514h-86l-47 72l-49 -72h-86l91 119h81z" />
<glyph unicode="&#xe3;" horiz-adv-x="464" d="M449 0h-80q-11 21 -16 56q-77 -66 -166 -66q-71 0 -112.5 35.5t-41.5 93.5q0 57 39.5 93t138.5 48l71 11q40 6 66 15q0 35 -2 49t-12.5 29.5t-33.5 24.5t-62 9q-49 0 -78 -18t-39 -68l-75 10q12 69 63.5 104t140.5 35q81 0 119 -24t47 -58t9 -88v-102q0 -94 3.5 -126.5 t20.5 -62.5zM348 198v28q-60 -20 -146.5 -31.5t-86.5 -73.5q0 -31 23.5 -51t66.5 -20q57 0 100 33.5t43 114.5zM384 623q0 -48 -24.5 -72.5t-59.5 -24.5q-19 0 -32.5 4.5t-31.5 16.5q-30 19 -48 19q-35 0 -37 -40h-52q0 47 26 72t60 25q28 0 60.5 -20t52.5 -20q29 0 33 40 h53z" />
<glyph unicode="&#xe4;" horiz-adv-x="470" d="M449 0h-80q-11 21 -16 56q-77 -66 -166 -66q-71 0 -112.5 35.5t-41.5 93.5q0 57 39.5 93t138.5 48l71 11q40 6 66 15q0 35 -2 49t-12.5 29.5t-33.5 24.5t-62 9q-49 0 -78 -18t-39 -68l-75 10q12 69 63.5 104t140.5 35q81 0 119 -24t47 -58t9 -88v-102q0 -94 3.5 -126.5 t20.5 -62.5zM348 198v28q-60 -20 -146.5 -31.5t-86.5 -73.5q0 -31 23.5 -51t66.5 -20q57 0 100 33.5t43 114.5zM359 532h-78v87h78v-87zM202 532h-78v87h78v-87z" />
<glyph unicode="&#xe5;" horiz-adv-x="470" d="M449 0h-80q-11 21 -16 56q-77 -66 -166 -66q-71 0 -112.5 35.5t-41.5 93.5q0 57 39.5 93t138.5 48l71 11q40 6 66 15q0 35 -2 49t-12.5 29.5t-33.5 24.5t-62 9q-49 0 -78 -18t-39 -68l-75 10q12 69 63.5 104t140.5 35q81 0 119 -24t47 -58t9 -88v-102q0 -94 3.5 -126.5 t20.5 -62.5zM348 198v28q-60 -20 -146.5 -31.5t-86.5 -73.5q0 -31 23.5 -51t66.5 -20q57 0 100 33.5t43 114.5zM242 654q32 0 54 -22t22 -54q0 -33 -22 -55t-54 -22q-31 0 -54 22t-23 55q0 32 23 54t54 22zM242 532q19 0 32.5 13.5t13.5 32.5t-13.5 32t-32.5 13 q-18 0 -31.5 -13t-13.5 -32t13.5 -32.5t31.5 -13.5z" />
<glyph unicode="&#xe6;" horiz-adv-x="773" d="M739 206h-326q1 -54 11.5 -82t43.5 -49.5t74 -21.5q45 0 74.5 24t42.5 72l79 -11q-23 -74 -72.5 -111t-126.5 -37q-51 0 -93 20.5t-75 63.5q-41 -43 -88 -63.5t-99 -20.5q-76 0 -115 39.5t-39 89.5q0 18 7 41.5t31 47.5t60.5 35t101.5 21q73 9 106 20q0 42 -2.5 56 t-12 28.5t-30 22t-53.5 7.5q-54 0 -82.5 -17.5t-38.5 -69.5l-74 9q14 71 63 106t132 35q62 0 101 -15t55 -46q55 61 145 61q55 0 94.5 -21.5t64 -58t33 -77t8.5 -98.5zM661 269q-6 64 -36.5 96.5t-85.5 32.5t-88 -34.5t-38 -94.5h248zM338 226q-48 -19 -138 -30 q-44 -6 -66.5 -24.5t-22.5 -49.5q0 -30 22.5 -51t65.5 -21q35 0 66 13.5t48 37t21 47t4 78.5z" />
<glyph unicode="&#xe7;" horiz-adv-x="451" d="M243 -90q0 27 -63 27l14 56q-77 15 -118.5 75.5t-41.5 152.5q0 120 56.5 180t149.5 60q66 0 116 -34t64 -109l-75 -12q-10 46 -36 69t-67 23q-64 0 -97 -45.5t-33 -127.5q0 -83 32.5 -128t93.5 -45q48 0 77 28.5t37 83.5l75 -9q-13 -77 -57.5 -118t-120.5 -47l-5 -21 q35 -4 52 -22t17 -42q0 -37 -33 -56.5t-90 -19.5q-19 0 -45 4l2 50q20 -3 37 -3q59 0 59 30z" />
<glyph unicode="&#xe8;" horiz-adv-x="481" d="M450 206h-338q5 -75 43 -114.5t95 -39.5q43 0 73 23t46 70l78 -9q-19 -71 -70 -108.5t-127 -37.5q-102 0 -159 62t-57 170q0 106 55.5 172.5t155.5 66.5q50 0 95.5 -21.5t77.5 -74t32 -159.5zM371 269q-5 69 -42.5 99t-83.5 30q-54 0 -88.5 -36t-39.5 -93h254zM290 514 h-63l-94 119h101z" />
<glyph unicode="&#xe9;" horiz-adv-x="485" d="M450 206h-338q5 -75 43 -114.5t95 -39.5q43 0 73 23t46 70l78 -9q-19 -71 -70 -108.5t-127 -37.5q-102 0 -159 62t-57 170q0 106 55.5 172.5t155.5 66.5q50 0 95.5 -21.5t77.5 -74t32 -159.5zM371 269q-5 69 -42.5 99t-83.5 30q-54 0 -88.5 -36t-39.5 -93h254zM351 633 l-93 -119h-63l56 119h100z" />
<glyph unicode="&#xea;" horiz-adv-x="481" d="M450 206h-338q5 -75 43 -114.5t95 -39.5q43 0 73 23t46 70l78 -9q-19 -71 -70 -108.5t-127 -37.5q-102 0 -159 62t-57 170q0 106 55.5 172.5t155.5 66.5q50 0 95.5 -21.5t77.5 -74t32 -159.5zM371 269q-5 69 -42.5 99t-83.5 30q-54 0 -88.5 -36t-39.5 -93h254zM378 514 h-87l-47 72l-48 -72h-87l92 119h81z" />
<glyph unicode="&#xeb;" horiz-adv-x="476" d="M450 206h-338q5 -75 43 -114.5t95 -39.5q43 0 73 23t46 70l78 -9q-19 -71 -70 -108.5t-127 -37.5q-102 0 -159 62t-57 170q0 106 55.5 172.5t155.5 66.5q50 0 95.5 -21.5t77.5 -74t32 -159.5zM371 269q-5 69 -42.5 99t-83.5 30q-54 0 -88.5 -36t-39.5 -93h254zM361 532 h-78v87h78v-87zM204 532h-79v87h79v-87z" />
<glyph unicode="&#xec;" horiz-adv-x="224" d="M159 0h-76v451h76v-451zM170 514h-63l-94 119h100z" />
<glyph unicode="&#xed;" horiz-adv-x="234" d="M159 0h-76v451h76v-451zM231 633l-94 -119h-62l56 119h100z" />
<glyph unicode="&#xee;" horiz-adv-x="255" d="M159 0h-76v451h76v-451zM258 514h-87l-47 72l-48 -72h-87l92 119h81z" />
<glyph unicode="&#xef;" horiz-adv-x="249" d="M159 0h-76v451h76v-451zM243 532h-79v87h79v-87zM85 532h-78v87h78v-87z" />
<glyph unicode="&#xf7;" horiz-adv-x="508" d="M298 400h-87v87h87v-87zM460 271h-412v72h412v-72zM298 127h-87v87h87v-87z" />
<glyph unicode="&#xf9;" horiz-adv-x="476" d="M424 0h-69v66h-2q-52 -76 -142 -76q-47 0 -87 21.5t-53.5 60t-13.5 99.5v280h77v-250q0 -60 5.5 -85.5t30 -42.5t57.5 -17q44 0 82 30t38 124v241h77v-451zM290 514h-63l-94 119h101z" />
<glyph unicode="&#xfa;" horiz-adv-x="472" d="M424 0h-69v66h-2q-52 -76 -142 -76q-47 0 -87 21.5t-53.5 60t-13.5 99.5v280h77v-250q0 -60 5.5 -85.5t30 -42.5t57.5 -17q44 0 82 30t38 124v241h77v-451zM351 633l-93 -119h-63l56 119h100z" />
<glyph unicode="&#xfb;" horiz-adv-x="483" d="M424 0h-69v66h-2q-52 -76 -142 -76q-47 0 -87 21.5t-53.5 60t-13.5 99.5v280h77v-250q0 -60 5.5 -85.5t30 -42.5t57.5 -17q44 0 82 30t38 124v241h77v-451zM378 514h-87l-47 72l-48 -72h-87l92 119h81z" />
<glyph unicode="&#xfc;" horiz-adv-x="476" d="M424 0h-69v66h-2q-52 -76 -142 -76q-47 0 -87 21.5t-53.5 60t-13.5 99.5v280h77v-250q0 -60 5.5 -85.5t30 -42.5t57.5 -17q44 0 82 30t38 124v241h77v-451zM359 532h-78v87h78v-87zM202 532h-78v87h78v-87z" />
<glyph unicode="&#xff;" horiz-adv-x="439" d="M428 451l-172 -459q-1 -1 -1 -2q-24 -77 -57.5 -125t-93.5 -48q-20 0 -50 9l-8 72q23 -7 44 -7q42 0 58 23.5t37 84.5l-171 452h83l106 -295q9 -28 20 -71h1q11 50 27 94l100 272h77zM336 532h-78v87h78v-87zM178 532h-78v87h78v-87z" />
<glyph unicode="&#x131;" horiz-adv-x="245" d="M159 0h-76v451h76v-451z" />
<glyph unicode="&#x152;" horiz-adv-x="871" d="M842 0h-365v90h-2q-57 -100 -169 -100q-122 0 -186.5 89t-64.5 233q0 149 65 235t186 86q114 0 168 -94h2v84h353v-74h-276v-190h254v-74h-254v-211h289v-74zM305 56q69 0 118 60.5t49 200.5q0 122 -46.5 186t-120.5 64q-68 0 -116.5 -61t-48.5 -200q0 -120 45.5 -185 t119.5 -65z" />
<glyph unicode="&#x153;" horiz-adv-x="825" d="M786 205h-332q1 -69 38.5 -110.5t95.5 -41.5q89 0 117 94l76 -11q-20 -73 -70 -109.5t-124 -36.5q-115 0 -174 85q-65 -85 -168 -85q-95 0 -153.5 60.5t-58.5 169.5q0 115 57 178t156 63q57 0 101 -23t66 -63q60 86 166 86q87 0 147 -59.5t60 -196.5zM706 268 q-6 67 -40 98.5t-82 31.5q-50 0 -85.5 -33t-41.5 -97h249zM244 53q57 0 95 46t38 128q0 83 -38.5 127t-94.5 44q-61 0 -97 -48t-36 -124q0 -87 37.5 -130t95.5 -43z" />
<glyph unicode="&#x178;" horiz-adv-x="581" d="M409 678h-78v87h78v-87zM251 678h-78v87h78v-87zM575 623l-248 -359v-264h-83v264l-240 359h100l137 -210q21 -32 50 -83q17 35 188 293h96z" />
<glyph unicode="&#x192;" horiz-adv-x="247" d="M271 626l-12 -67q-23 4 -45 4q-28 0 -45.5 -12t-17.5 -58v-42h87v-60h-87v-396q0 -44 -7 -71t-30 -42.5t-69 -15.5q-23 0 -57 7l10 68q18 -4 34 -4q27 0 35 12t8 41v401h-68v60h68v48q0 34 6.5 62t34 50t83.5 22q34 0 72 -7z" />
<glyph unicode="&#x2c6;" horiz-adv-x="288" d="M279 514h-87l-46 72l-49 -72h-87l93 119h81z" />
<glyph unicode="&#x2c7;" horiz-adv-x="851" d="M109 0v652h652v-652h-652zM163 54h543v544h-543v-544z" />
<glyph unicode="&#x2d8;" horiz-adv-x="291" d="M271 628q-2 -47 -37 -78.5t-90 -31.5q-54 0 -88.5 31.5t-36.5 78.5h52q6 -29 24 -43t49 -14q32 0 50 14t24 43h53z" />
<glyph unicode="&#x2d9;" horiz-adv-x="270" d="M184 532h-79v87h79v-87z" />
<glyph unicode="&#x2da;" horiz-adv-x="293" d="M145 654q32 0 54.5 -22t22.5 -54q0 -33 -22.5 -55t-54.5 -22t-54 22t-22 55q0 32 22 54t54 22zM145 532q19 0 32.5 13.5t13.5 32.5t-13.5 32t-32.5 13q-18 0 -31.5 -13t-13.5 -32t13.5 -32.5t31.5 -13.5z" />
<glyph unicode="&#x2db;" horiz-adv-x="333" d="M264 -155q-51 -26 -93 -26q-41 0 -67.5 25.5t-26.5 68.5q0 36 18 97h53q-17 -38 -17 -70q0 -28 17 -46t44 -18q33 0 72 20v-51z" />
<glyph unicode="&#x2dc;" horiz-adv-x="293" d="M287 623q0 -48 -24.5 -72.5t-58.5 -24.5q-20 0 -33.5 4.5t-31.5 16.5q-30 19 -48 19q-35 0 -36 -40h-52q0 47 25.5 72t60.5 25q28 0 60 -20t52 -20q30 0 34 40h52z" />
<glyph unicode="&#x2dd;" horiz-adv-x="328" d="M325 633l-94 -119h-63l56 119h101zM181 633l-94 -119h-63l57 119h100z" />
<glyph unicode="&#x3c0;" horiz-adv-x="589" d="M576 388h-111v-388h-77v388h-187v-388h-76v388h-111v63h562v-63z" />
<glyph unicode="&#x1000;" horiz-adv-x="856" d="M823 85q0 -36 -23.5 -60.5t-57.5 -24.5h-129q-18 0 -28 11.5t-10 26.5q0 16 10 27.5t28 11.5h129l2 8v262l-5 8h-261l-9 -5v-3v-268q0 -33 -25 -56t-62 -23h-36q-40 0 -40 38q0 16 10 27.5t30 11.5h36l8 2v268q0 8 -8 8h-262l-5 -8v-265l9 -5h30q39 0 39 -39 q0 -15 -10 -26.5t-29 -11.5h-30q-36 0 -62 23.5t-26 58.5v265q0 32 24 58.5t60 26.5h262q13 0 23.5 -3t25.5 -10q8 3 20 8t27 5h261q36 0 60 -25t24 -60v-262z" />
<glyph unicode="&#x1001;" horiz-adv-x="501" d="M468 85q0 -38 -24.5 -61.5t-60.5 -23.5h-268q-33 0 -56 24t-23 61v65q0 29 24 55.5t60 26.5q68 0 132 -42t104 -113h27q8 0 8 8v265l-8 5h-265l-5 -8v-33q0 -18 -11.5 -28t-27.5 -10q-15 0 -26.5 10t-11.5 28v33q0 33 23.5 59t58.5 26h265q32 0 58.5 -23.5t26.5 -58.5 v-265zM263 77q-25 31 -57 51q-40 27 -86 27l-7 -5v-65l2 -8h148z" />
<glyph unicode="&#x1002;" horiz-adv-x="501" d="M468 79q0 -33 -24 -56t-61 -23h-35q-18 0 -28 11.5t-10 26.5q0 16 10 27.5t28 11.5h35l8 2v268q0 8 -8 8h-265l-5 -8v-265l8 -5h30q18 0 28.5 -11.5t10.5 -27.5q0 -15 -10.5 -26.5t-28.5 -11.5h-30q-33 0 -59 23.5t-26 58.5v265q0 32 23.5 58.5t58.5 26.5h265 q38 0 61.5 -24.5t23.5 -60.5v-268z" />
<glyph unicode="&#x1003;" horiz-adv-x="856" d="M115 188v-103l5 -8h262q8 0 8 8v268l-8 2h-36q-40 0 -40 39q0 15 10 26.5t30 11.5h36q37 0 62 -23t25 -56v-268v-3l9 -5h261l5 8v262l-2 8h-129q-18 0 -28 11.5t-10 27.5q0 15 10 26.5t28 11.5h129q34 0 57.5 -24.5t23.5 -60.5v-262q0 -35 -24 -60t-60 -25h-261 q-12 0 -21 3t-26 10q-15 -7 -25 -10t-24 -3h-262q-36 0 -60 26.5t-24 58.5v121l6 14l10 9l111 90q0 18 -6 29.5t-23 11.5h-62q-36 0 -36 36t36 36h62q69 0 89 -43q12 -25 12 -87q0 -16 -13 -27z" />
<glyph unicode="&#x1004;" horiz-adv-x="503" d="M468 85q0 -35 -23 -60t-56 -25h-268q-36 0 -60.5 23.5t-24.5 61.5v265q0 35 26 58.5t59 23.5h265q36 0 59 -25t23 -60v-30q0 -18 -11.5 -28.5t-26.5 -10.5q-16 0 -27.5 10.5t-11.5 28.5v30l-5 8h-265l-8 -5v-265q0 -8 8 -8h268l2 8v35q0 18 11.5 28t27.5 10 q15 0 26.5 -10t11.5 -28v-35z" />
<glyph unicode="&#x1005;" horiz-adv-x="501" d="M468 85q0 -35 -23 -60t-56 -25h-268q-36 0 -60.5 23.5t-24.5 61.5v265q0 35 26 58.5t59 23.5h265q36 0 59 -25t23 -60v-262zM113 88q0 -11 8 -11h268l2 8v262l-5 8h-265l-8 -5l3 -2l131 -103q6 -5 6 -22t-5 -20l-132 -113zM113 281v-123l74 64z" />
<glyph unicode="&#x1006;" horiz-adv-x="858" d="M263 77q-25 31 -57 51q-40 27 -86 27l-7 -5v-65l2 -8h148zM746 85v262l-4 8h-266l-8 -5v-265q0 -8 8 -8h268zM428 418q21 14 48 14h266q36 0 58.5 -25t22.5 -60v-262q0 -35 -22.5 -60t-56.5 -25h-268q-33 0 -44 14q-24 -14 -49 -14h-268q-33 0 -56 24t-23 61v65 q0 29 24 55.5t60 26.5q68 0 132 -42t104 -113h27q8 0 8 8v265l-8 5h-265l-5 -8v-33q0 -18 -11.5 -28t-27.5 -10q-15 0 -26.5 10t-11.5 28v33q0 33 23.5 59t58.5 26h265q31 0 45 -14z" />
<glyph unicode="&#x1007;" horiz-adv-x="561" d="M391 282v65l-2 8h-148q25 -31 57 -51q40 -27 86 -27zM468 335l69 -40q20 -12 20 -34q0 -16 -11 -28t-26 -12q-7 0 -19 6l-40 24q-10 -21 -30.5 -36t-46.5 -15q-68 0 -132 42t-104 113h-27q-8 0 -8 -8v-265l8 -5h265l5 8v33q0 37 39 37q16 0 27 -9t11 -28v-33 q0 -33 -23.5 -59t-58.5 -26h-265q-32 0 -58.5 23.5t-26.5 58.5v265q0 38 24.5 61.5t60.5 23.5h268q33 0 56 -24t23 -61v-12z" />
<glyph unicode="&#x1008;" horiz-adv-x="661" d="M626 -266q0 -39 -30 -39q-5 0 -19 5l-163 67q-23 10 -23 34v163q0 36 36 36t36 -36v-139l91 -37v608q0 36 36 36t36 -36v-662zM468 85q0 -35 -23 -60t-56 -25h-268q-36 0 -60.5 23.5t-24.5 61.5v265q0 35 26 58.5t59 23.5h265q36 0 59 -25t23 -60v-262zM113 88 q0 -11 8 -11h268l2 8v262l-5 8h-265l-8 -5l3 -2l131 -103q6 -5 6 -22t-5 -20l-132 -113zM113 281v-123l74 64z" />
<glyph unicode="&#x1009;" horiz-adv-x="500" d="M36 120q0 18 11.5 28t26.5 10q16 0 27.5 -10t11.5 -28v-35l2 -8h268q8 0 8 8v265l-8 5h-265l-5 -8v-30q0 -18 -11.5 -28.5t-27.5 -10.5q-15 0 -26.5 10.5t-11.5 28.5v30q0 33 23.5 59t58.5 26h265q85 0 85 -82v-265q1 -38 -21 -61.5t-64 -23.5h-268h-7v-182q0 -20 12 -33 t31 -13h564q17 0 28 12t11 29v33q0 36 36 36t36 -36v-33q0 -46 -31.5 -79.5t-79.5 -33.5h-564q-48 0 -81.5 33.5t-33.5 84.5v302z" />
<glyph unicode="&#x100a;" horiz-adv-x="858" d="M36 120q0 18 11.5 28t26.5 10q16 0 27.5 -10t11.5 -28v-35l2 -8h268q8 0 8 8v265l-8 5h-265l-5 -8v-30q0 -18 -11.5 -28.5t-27.5 -10.5q-15 0 -26.5 10.5t-11.5 28.5v30q0 33 23.5 59t58.5 26h265q32 0 58.5 -23.5t26.5 -58.5v-265h1l7 -8h262l5 8v262l-3 8h-124 q-18 0 -28.5 11.5t-10.5 27.5q0 15 10.5 26.5t28.5 11.5h124q35 0 58.5 -24.5t23.5 -60.5v-262q0 -35 -24 -60t-60 -25h-262q-22 0 -46 13q-21 -13 -47 -13h-268h-7v-182q0 -20 12 -33t31 -13h564q17 0 28 12t11 29v33q0 36 36 36t36 -36v-33q0 -46 -31.5 -79.5t-79.5 -33.5 h-564q-48 0 -81.5 33.5t-33.5 84.5v302z" />
<glyph unicode="&#x100b;" horiz-adv-x="510" d="M474 86q0 -5 -1 -8v-141q0 -15 -11 -26t-26 -11h-303v-28h299q15 0 26 -11t11 -26v-61h36q19 0 28 -12t9 -26t-9 -25.5t-28 -11.5h-73q-15 0 -26.5 11.5t-11.5 26.5v60h-299q-14 0 -25.5 11.5t-11.5 26.5v102q0 15 11.5 26.5t25.5 11.5h303v26h-271q-36 0 -60.5 23.5 t-24.5 61.5v265q0 18 7 33t19 26t27 17t32 6h265q36 0 59 -25t23 -60v-30q0 -18 -11.5 -28.5t-26.5 -10.5q-16 0 -27.5 10.5t-11.5 28.5v30l-5 8h-265l-8 -5v-265q0 -8 8 -8h268l2 8v35q0 18 11.5 28t27.5 10q15 0 26.5 -10t11.5 -28v-35z" />
<glyph unicode="&#x100c;" horiz-adv-x="496" d="M469 -182q0 -51 -32.5 -84.5t-82.5 -33.5h-206q-50 0 -80.5 33t-30.5 80v33q0 36 36 36t36 -36v-33q0 -16 11.5 -28.5t27.5 -12.5h206q18 0 30.5 12.5t12.5 33.5v182h-7h-268q-43 0 -64.5 23t-21.5 62l1 265q0 38 22.5 60t62.5 22h266q36 0 58.5 -25t22.5 -60v-30 q0 -18 -11.5 -28.5t-26.5 -10.5q-16 0 -27.5 10.5t-11.5 28.5v30l-4 8h-266l-8 -5v-265q0 -8 8 -8h268l2 8v35q0 18 11.5 28t27.5 10q15 0 26.5 -10t11.5 -28v-302z" />
<glyph unicode="&#x100d;" horiz-adv-x="506" d="M41 120q0 18 11.5 28t26.5 10q16 0 27.5 -10t11.5 -28v-35l2 -8h268q8 0 8 8v265l-8 5h-265l-5 -8v-30q0 -18 -11.5 -28.5t-27.5 -10.5q-15 0 -26.5 10.5t-11.5 28.5v30q0 35 23 60t59 25h265q16 0 31.5 -6t27.5 -17t19 -26t7 -33v-265q0 -38 -24.5 -61.5t-60.5 -23.5 h-268h-4v-39h280q15 0 26 -11t11 -26v-151h36q19 0 28 -11.5t9 -26t-9 -26t-28 -11.5h-73q-15 0 -26.5 11.5t-11.5 26.5v150h-280q-15 0 -26 11.5t-11 26.5v196z" />
<glyph unicode="&#x100e;" horiz-adv-x="506" d="M115 188v-103l5 -8h262q8 0 8 8v268l-8 2h-36q-40 0 -40 39q0 15 10 26.5t30 11.5h36q37 0 62 -23t25 -56v-270q0 -36 -23.5 -59.5t-63.5 -23.5h-262q-36 0 -60 26.5t-24 58.5v121l6 14l10 9l111 90q0 18 -6 29.5t-23 11.5h-62q-36 0 -36 36t36 36h62q69 0 89 -43 q12 -25 12 -87q0 -16 -13 -27z" />
<glyph unicode="&#x100f;" horiz-adv-x="1008" d="M554 94v244q0 5 -3 10q-9 12 -21 12h-43q-7 0 -14 -9.5t-7 -19.5v-237q0 -22 21 -22h48q19 0 19 22zM586 416q10 9 23 12.5t27 3.5h262q36 0 60 -25t24 -60v-262q0 -36 -23.5 -60.5t-58.5 -24.5h-128q-18 0 -28.5 11.5t-10.5 26.5q0 16 10.5 27.5t28.5 11.5h128l2 8v262 l-4 8h-255q-17 0 -17 -17v-244q0 -41 -24 -67.5t-67 -26.5h-48q-41 0 -67 25t-26 69l1 242q-6 19 -17 19h-258l-5 -8v-265l9 -5h30q39 0 39 -39q0 -15 -10 -26.5t-29 -11.5h-30q-36 0 -62 23.5t-26 58.5v265q0 32 24 58.5t60 26.5h262q31 0 51 -16q23 16 54 16h43 q33 0 56 -16z" />
<glyph unicode="&#x1010;" horiz-adv-x="858" d="M822 85q0 -36 -23.5 -60.5t-58.5 -24.5h-124q-18 0 -28.5 11.5t-10.5 26.5q0 16 10.5 27.5t28.5 11.5h124l3 8v262l-5 8h-262l-7 -5v-265q0 -36 -23.5 -60.5t-57.5 -24.5h-264q-36 0 -62 23.5t-26 61.5v265q0 35 27 58.5t61 23.5h261q15 0 30 -6q6 -2 15 -7q24 13 46 13 h262q36 0 60 -25t24 -60v-262zM390 85v262l-5 8h-261l-9 -5v-265q0 -8 9 -8h264z" />
<glyph unicode="&#x1011;" horiz-adv-x="852" d="M822 85q0 -36 -23.5 -60.5t-58.5 -24.5h-262q-27 0 -47 13q-21 -13 -43 -13h-264q-36 0 -62 23.5t-26 61.5v265q0 35 27 58.5t61 23.5h261q12 0 21 -3t25 -10q9 5 15 7q16 6 32 6h260q36 0 60 -25t24 -60v-262zM743 85v262l-5 8h-260l-9 -5v-265q0 -8 9 -8h262zM390 85 v262l-5 8h-261l-9 -5v-265q0 -8 9 -8h264z" />
<glyph unicode="&#x1012;" horiz-adv-x="500" d="M472 126q0 -61 -17 -89q-23 -37 -83 -37h-228q-61 0 -84.5 26t-23.5 84q0 16 11.5 26t25.5 10q16 0 26.5 -9.5t10.5 -26.5q0 -38 34 -38h228q11 0 15 8.5t4 20.5v13l-126 86q-11 6 -11 33q0 24 14 31l121 88q-6 6 -19 6h-231q-14 0 -21.5 -6t-10.5 -17l30 -30 q11 -11 11 -25q0 -15 -11 -25.5t-27 -10.5q-13 0 -24 10l-42 42q-10 11 -10 26q0 54 19 78q24 30 86 30h231q60 0 80 -23t20 -76q0 -9 -6.5 -17.5t-17.5 -14.5l-87 -70l91 -57q11 -5 16.5 -19.5t5.5 -26.5z" />
<glyph unicode="&#x1013;" horiz-adv-x="500" d="M468 85q0 -35 -23 -60t-56 -25h-268q-36 0 -60.5 23.5t-24.5 61.5v265q0 35 26 58.5t59 23.5h265q36 0 59 -25t23 -60v-262zM376 77h13l2 8v262l-5 8h-265l-8 -5v-265q0 -8 8 -8h6l97 158q5 9 23 9q16 0 22 -8zM191 77h121l-62 95z" />
<glyph unicode="&#x1014;" horiz-adv-x="496" d="M229 72q-14 26 -40.5 45t-58.5 19q-8 0 -22 -3v-30q0 -13 11.5 -22t24.5 -9h85zM296 0v-265q0 -36 -36 -36t-36 36v265h-80q-40 0 -74 28q-40 31 -34 75q0 9 0.5 19t4.5 18q11 27 33.5 34t49.5 7q54 0 100.5 -31t62.5 -78h75q11 0 21.5 10t10.5 24q0 21 -16 37q-2 2 -7 6 l-258 139q-33 20 -33 68q0 32 17 54t48 22h228q36 0 36 -36t-36 -36h-228q-2 0 -1.5 -3t4.5 -5l258 -140q12 -7 18 -13q42 -38 42 -93q0 -41 -35 -73.5t-69 -32.5h-66z" />
<glyph unicode="&#x1015;" horiz-adv-x="504" d="M468 85q0 -36 -23.5 -60.5t-61.5 -24.5h-265q-35 0 -58.5 26t-23.5 59v265q0 36 25 59t60 23h30q18 0 28.5 -11.5t10.5 -26.5q0 -16 -10.5 -27.5t-28.5 -11.5h-30l-8 -5v-265l5 -8h265q8 0 8 8v268l-8 2h-35q-18 0 -28 11.5t-10 27.5q0 15 10 26.5t28 11.5h35 q35 0 60 -23t25 -56v-268z" />
<glyph unicode="&#x1016;" horiz-adv-x="498" d="M468 85q0 -36 -23.5 -60.5t-61.5 -24.5h-265q-35 0 -58.5 26t-23.5 59v265q0 36 25 59t60 23h33q18 0 28 -11.5t10 -26.5q0 -16 -10 -27.5t-28 -11.5h-33l-8 -5v-265l5 -8h265q8 0 8 8v27q-69 40 -112 104.5t-43 131.5q0 36 26.5 60t55.5 24h65q35 0 60 -23t25 -56v-268z M391 205v148l-8 2h-65l-5 -7q0 -47 25 -86q18 -29 53 -57z" />
<glyph unicode="&#x1017;" horiz-adv-x="498" d="M185 376l67 -90l64 86q-6 10 -6 22q0 15 10 26.5t28 11.5h35q35 0 60 -23t25 -56v-268q0 -36 -23.5 -60.5t-61.5 -24.5h-265q-35 0 -58.5 26t-23.5 59v265q0 36 25 59t60 23h30q37 0 37 -38q0 -9 -3 -18zM368 355l-94 -131q-10 -14 -22 -14q-11 0 -22 14l-97 131h-12 l-8 -5v-265l5 -8h265q8 0 8 8v268l-8 2h-15z" />
<glyph unicode="&#x1018;" horiz-adv-x="862" d="M824 85q0 -36 -23 -60.5t-58 -24.5h-125q-18 0 -28 11.5t-10 26.5q0 16 10 27.5t28 11.5h125l2 8v262l-5 8h-261l-7 -5l-2 -1v-267q0 -35 -25.5 -58.5t-59.5 -23.5h-265q-36 0 -59 25t-23 60v30q0 37 39 37q17 0 27.5 -9t10.5 -28v-30l5 -8h265l9 5v265q0 8 -9 8h-267 l-3 -8v-35q0 -18 -11.5 -28t-26.5 -10q-17 0 -28 9.5t-11 28.5v35q0 35 23 60t57 25h267q27 0 47 -13q24 13 47 13h261q36 0 60 -25t24 -60v-262z" />
<glyph unicode="&#x1019;" horiz-adv-x="502" d="M385 77q4 1 5 4t1 4v268l-8 2h-35q-18 0 -28 11.5t-10 27.5q0 15 10 26.5t28 11.5h35q35 0 60 -23t25 -56v-268q0 -36 -23.5 -60.5t-61.5 -24.5h-265q-35 0 -58.5 26t-23.5 59v265q0 36 25 59t60 23h30q18 0 28.5 -11.5t10.5 -26.5q0 -16 -10.5 -27.5t-28.5 -11.5h-30 l-8 -5v-265l3 -8l114 155q5 8 22 8t22 -8zM182 77h138l-68 93z" />
<glyph unicode="&#x101a;" horiz-adv-x="852" d="M823 85q0 -35 -24 -60t-60 -25h-261q-12 0 -21 3t-26 10q-15 -7 -25 -10t-24 -3h-262q-36 0 -60 26.5t-24 58.5v265q0 35 26 58.5t62 23.5h30q39 0 39 -38q0 -16 -10 -27.5t-29 -11.5h-30l-9 -5v-265l5 -8h262q8 0 8 8v268l-8 2h-36q-40 0 -40 39q0 15 10 26.5t30 11.5 h36q37 0 62 -23t25 -56v-268v-3l9 -5h261l5 8v262l-2 8h-129q-18 0 -28 11.5t-10 27.5q0 15 10 26.5t28 11.5h129q34 0 57.5 -24.5t23.5 -60.5v-262z" />
<glyph unicode="&#x101b;" horiz-adv-x="512" d="M227 55q0 -25 -5 -36q-8 -19 -30 -19h-71q-33 0 -59 23.5t-26 58.5v265q0 32 23.5 58.5t58.5 26.5h265q38 0 61.5 -24.5t23.5 -60.5v-539q0 -13 11.5 -23.5t24.5 -10.5h11q36 0 36 -36t-36 -36h-11q-43 0 -78 29.5t-35 74.5v541q0 8 -8 8h-265l-5 -8v-100q49 -8 79 -51 q35 -52 35 -141zM113 192v-110l8 -5h51q0 51 -16 78t-43 37z" />
<glyph unicode="&#x101c;" horiz-adv-x="852" d="M392 65l-2 20v265l-7 5h-268l-3 -9v-262l6 -8h129q18 0 28.5 -11.5t10.5 -27.5q0 -14 -10.5 -25.5t-28.5 -11.5h-129q-35 0 -58.5 24.5t-23.5 59.5v262q0 37 23 61t56 24h268q37 0 60.5 -23.5t23.5 -61.5l-1 -11v-250q0 -9 8 -9h268l3 9v262l-6 8h-129q-17 0 -27.5 11.5 t-10.5 25.5q0 17 9 28t29 11h129q35 0 58.5 -24.5t23.5 -59.5v-262q0 -37 -23 -61t-56 -24h-268q-30 0 -53 18t-29 47z" />
<glyph unicode="&#x101d;" horiz-adv-x="505" d="M468 85q0 -35 -23 -60t-56 -25h-268q-36 0 -60.5 23.5t-24.5 61.5v265q0 35 26 58.5t59 23.5h265q36 0 59 -25t23 -60v-262zM391 85v262l-5 8h-265l-8 -5v-265q0 -8 8 -8h268z" />
<glyph unicode="&#x101e;" horiz-adv-x="852" d="M430 13q-21 -13 -47 -13h-268q-33 0 -56 24t-23 61v35q0 18 11.5 28t26.5 10q16 0 27.5 -10t11.5 -28v-35l2 -8h268q8 0 8 8v265l-8 5h-265l-5 -8v-30q0 -18 -11.5 -28.5t-27.5 -10.5q-15 0 -26.5 10.5t-11.5 28.5v30q0 33 23.5 59t58.5 26h265q32 0 58.5 -23.5 t26.5 -58.5v-265h1l7 -8h262l5 8v262l-3 8h-124q-18 0 -28.5 11.5t-10.5 27.5q0 15 10.5 26.5t28.5 11.5h124q35 0 58.5 -24.5t23.5 -60.5v-262q0 -35 -24 -60t-60 -25h-262q-22 0 -46 13z" />
<glyph unicode="&#x101f;" horiz-adv-x="860" d="M434 416q14 16 34 16h240q64 0 89.5 -25t25.5 -76v-233q0 -52 -26.5 -75t-71.5 -23h-103q-17 0 -27.5 11.5t-10.5 25.5q0 17 9 28t29 11h103q23 0 23 22v233q0 24 -40 24h-240v-270q0 -36 -23.5 -60.5t-61.5 -24.5h-265q-35 0 -58.5 26t-23.5 59v265q0 36 25 59t60 23h30 q18 0 28.5 -11.5t10.5 -26.5q0 -16 -10.5 -27.5t-28.5 -11.5h-30l-8 -5v-265l5 -8h265q8 0 8 8v268l-8 2h-35q-18 0 -28 11.5t-10 27.5q0 15 10 26.5t28 11.5h35q27 0 51 -16z" />
<glyph unicode="&#x1020;" horiz-adv-x="506" d="M395 -210q0 22 -31 22h-30q-36 0 -36 36t36 36h33q49 0 75.5 -20.5t26.5 -65.5q0 -98 -103 -98h-216q-48 0 -81.5 33.5t-33.5 84.5l1 96q0 28 14 46t46 18h341q36 0 36 -36t-36 -36h-329l-1 -88q0 -20 12 -33t31 -13h216q20 0 24.5 3.5t4.5 14.5zM470 77q0 -33 -15 -52 q-21 -25 -65 -25h-268q-43 0 -64.5 23t-21.5 62l1 265q0 38 22.5 60t62.5 22h266q36 0 58.5 -25t22.5 -60v-30q0 -18 -11.5 -28.5t-26.5 -10.5q-16 0 -27.5 10.5t-11.5 28.5v30l-4 8h-266l-8 -5v-265q0 -8 8 -8h268l2 8v35q0 18 11.5 28t27.5 10q15 0 26.5 -10t11.5 -28z " />
<glyph unicode="&#x1021;" horiz-adv-x="860" d="M433 419q12 9 24.5 10.5t18.5 2.5h262q36 0 60 -25t24 -60v-262q0 -36 -23.5 -60.5t-58.5 -24.5h-124q-18 0 -28.5 11.5t-10.5 26.5q0 16 10.5 27.5t28.5 11.5h124l3 8v262l-5 8h-262h-7l1 -24q0 -9 -6.5 -17.5t-17.5 -14.5l-87 -70l91 -57q11 -5 16.5 -19.5t5.5 -26.5 q0 -61 -17 -89q-23 -37 -83 -37h-228q-61 0 -84.5 26t-23.5 84q0 16 11.5 26t25.5 10q16 0 26.5 -9.5t10.5 -26.5q0 -38 34 -38h228q11 0 15 8.5t4 20.5v13l-126 86q-11 6 -11 33q0 24 14 31l121 88q-6 6 -19 6h-231q-14 0 -21.5 -6t-10.5 -17l30 -30q11 -11 11 -25 q0 -15 -11 -25.5t-27 -10.5q-13 0 -24 10l-42 42q-10 11 -10 26q0 54 19 78q24 30 86 30h231q39 0 63 -11z" />
<glyph unicode="&#x1022;" horiz-adv-x="813" d="M556 63q7 -1 13.5 -1.5t14.5 -0.5q25 2 47 11.5t38 23t25 29t9 30.5v131q0 18 -10 35t-27 30.5t-39.5 22t-48.5 8.5q-25 0 -48.5 -9.5t-41 -25t-28 -34t-10.5 -35.5l-1 -2v-137q0 -23 -9 -45.5t-25 -42t-37 -35t-46 -25.5l-29 69q30 14 48.5 36.5t18.5 42.5v147 q0 18 -10 35t-27 30.5t-39.5 22t-48.5 8.5t-49.5 -9.5t-40.5 -25t-27.5 -34t-10.5 -35.5v-29q0 -16 13 -34.5t32 -33.5q21 -16 37.5 -37t16.5 -52q0 -36 -18 -59t-45 -34t-59 -11t-59 10l23 68q17 -9 32 -9t26 5t17 13.5t6 16.5q0 10 -10.5 18.5t-21.5 16.5 q-34 24 -51.5 54.5t-17.5 67.5v29q0 34 17 66.5t46 57.5t66 40t78 14q52 0 96 -20.5t72 -54.5q30 35 73.5 55.5t92.5 19.5q41 -1 78 -15t65 -37.5t44.5 -53.5t16.5 -64v-131q0 -34 -17 -63.5t-44 -52t-62 -36.5t-72 -15q-11 -2 -21 0z" />
<glyph unicode="&#x1023;" horiz-adv-x="860" d="M397 -214v87q0 25 -17 25h-249q-20 -2 -20 -20v-92q0 -36 -36 -36t-36 36v92q0 50 19.5 70.5t72.5 20.5h249q23 1 32.5 -0.5t21.5 -8.5q18 9 54 9h250q48 1 68.5 -20.5t20.5 -75.5v-55q1 -2 1 -7v-37h27q19 0 28 -11.5t9 -26t-9 -26t-28 -11.5h-65q-15 0 -24.5 11.5 t-9.5 26.5v50q0 2 -0.5 4.5t-0.5 4.5v77q0 25 -17 25h-250q-19 -1 -19 -20v-92q0 -36 -36 -36t-36 36zM827 85q0 -36 -23.5 -60.5t-57.5 -24.5h-129q-18 0 -28 11.5t-10 26.5q0 16 10 27.5t28 11.5h129l2 8v262l-5 8h-261l-9 -5v-3v-268q0 -33 -25 -56t-62 -23h-36 q-40 0 -40 38q0 16 10 27.5t30 11.5h36l8 2v268q0 8 -8 8h-262l-5 -8v-265l9 -5h30q39 0 39 -39q0 -15 -10 -26.5t-29 -11.5h-30q-36 0 -62 23.5t-26 58.5v265q0 16 6.5 31.5t17.5 27.5t26.5 19t33.5 7h262q13 0 23.5 -3t25.5 -10q8 3 20 8t27 5h261q36 0 60 -25t24 -60 v-262z" />
<glyph unicode="&#x1024;" horiz-adv-x="997" d="M823 -194q0 -36 -42 -71t-85 -35h-526q-61 0 -96.5 36.5t-35.5 85.5q0 51 33 84q37 39 99 39q93 0 189.5 -17.5t168.5 -51.5q22 -9 22 -32q0 -14 -10 -25t-25 -11q-9 0 -16 4q-65 28 -155.5 44.5t-173.5 16.5q-25 0 -40 -15t-15 -36t14 -35.5t41 -14.5h526q17 0 32.5 9.5 t15.5 24.5v541l-5 8h-261l-9 -5v-3v-268q0 -33 -25 -56t-62 -23h-36q-40 0 -40 38q0 16 10 27.5t30 11.5h36l8 2v268q0 8 -8 8h-262l-5 -8v-265l9 -5h30q39 0 39 -39q0 -15 -10 -26.5t-29 -11.5h-30q-36 0 -62 23.5t-26 58.5v265q0 32 24 58.5t60 26.5h262q13 0 23.5 -3 t25.5 -10q8 3 20 8t27 5h261q36 0 60 -25t24 -60v-541zM787 457l-218 39q-33 4 -33 37v91q0 38 26 67t74 29h239q26 0 59.5 -35t33.5 -62v-15q0 -18 -11 -28t-27 -10t-27 10t-11 28v15q0 6 -5.5 13.5t-11.5 7.5h-239q-23 0 -23 -20v-59l185 -32q65 -11 110 -58 q60 -62 60 -165v-576q0 -36 -36 -36t-36 36v576q0 69 -27.5 103.5t-81.5 43.5z" />
<glyph unicode="&#x1025;" horiz-adv-x="500" d="M36 120q0 18 11.5 28t26.5 10q16 0 27.5 -10t11.5 -28v-35l2 -8h268q8 0 8 8v265l-8 5h-265l-5 -8v-30q0 -18 -11.5 -28.5t-27.5 -10.5q-15 0 -26.5 10.5t-11.5 28.5v30q0 33 23.5 59t58.5 26h265q85 0 85 -82v-265q1 -38 -21 -61.5t-64 -23.5h-268h-7v-182q0 -20 12 -33 t31 -13h207q16 0 27 12t11 29v33q0 36 36 36t36 -36v-33q0 -46 -31 -79.5t-79 -33.5h-207q-48 0 -81.5 33.5t-33.5 84.5v302z" />
<glyph unicode="&#x1026;" horiz-adv-x="472" d="M36 120q0 18 11.5 28t26.5 10q16 0 27.5 -10t11.5 -28v-35l2 -8h268q8 0 8 8v265l-8 5h-265l-5 -8v-30q0 -18 -11.5 -28.5t-27.5 -10.5q-15 0 -26.5 10.5t-11.5 28.5v30q0 33 23.5 59t58.5 26h265q85 0 85 -82v-265q1 -38 -21 -61.5t-64 -23.5h-268h-7v-182q0 -20 12 -33 t31 -13h207q16 0 27 12t11 29v33q0 36 36 36t36 -36v-33q0 -46 -31 -79.5t-79 -33.5h-207q-48 0 -81.5 33.5t-33.5 84.5v302zM469 534q0 -35 -23 -59t-57 -24h-267q-36 0 -60.5 23.5t-24.5 59.5v107q0 33 26 56t59 23h265q35 0 58.5 -24.5t23.5 -58.5v-103zM379 526h10l3 8 v103l-5 9h-265l-9 -5v-107q0 -8 9 -8h5l64 70l9 6q25 12 50 12q23 0 51 -10l9 -6zM200 526h104l-29 30q-13 4 -27 4q-9 0 -19 -3z" />
<glyph unicode="&#x1027;" horiz-adv-x="498" d="M391 283v64l-5 8h-81q11 -27 33.5 -45t52.5 -27zM248 77q16 60 72 97q51 32 104 32q18 3 31 -7.5t13 -30.5v-83q0 -35 -23 -60t-56 -25h-268q-36 0 -60.5 23.5t-24.5 61.5v265q0 35 26 58.5t59 23.5h265q36 0 59 -25t23 -60v-83q0 -41 -41 -41q-54 0 -103 33 q-59 38 -74 99h-129l-8 -5v-265q0 -8 8 -8h127zM391 148q-31 -10 -52.5 -26t-33.5 -45h84l2 8v63z" />
<glyph unicode="&#x1028;" horiz-adv-x="529" d="M129 -143q0 -15 9.5 -32.5t27 -31.5t41 -24.5t50.5 -11.5q29 -1 55 8t45.5 23.5t31.5 33t12 35.5v45h85v-45q0 -39 -21 -72.5t-54 -58t-74.5 -38t-83.5 -10.5q-39 1 -76.5 16.5t-67 39.5t-47.5 55.5t-18 67.5v412q2 36 21 69.5t50 59.5t70.5 41.5t82.5 15.5 q44 -2 84 -16.5t70.5 -39.5t48 -57.5t17.5 -68.5v-75v-3q2 -52 -4.5 -85t-18.5 -52.5t-30.5 -27.5t-41.5 -8h-47q-29 0 -44 16t-20 39t-2 49.5t12 46.5q5 14 9.5 28t-2.5 24q-4 5 -16.5 8.5t-26 -0.5t-24 -17t-9.5 -38l-60 49q6 32 31 54.5t57 31t64.5 -1t54.5 -41.5 q7 -13 9.5 -26.5t2 -28.5t-3.5 -28.5t-7 -24.5q-8 -25 -10 -42t10 -17q14 0 22 3t12 12.5t5 27.5t-2 49l-5 73q-1 18 -9.5 37.5t-25 35t-41.5 25.5t-60 10q-28 0 -53 -11t-44 -27.5t-30 -36t-11 -38.5v-406z" />
<glyph unicode="&#x1029;" horiz-adv-x="1004" d="M964 578q0 -36 -36 -36t-36 36v23q0 18 -16 32.5t-42 14.5h-665q-25 0 -43 -11.5t-18 -35.5v-781q0 -47 54 -47h676q24 0 37 13.5t13 33.5v149q0 36 36 36t36 -36v-149q0 -50 -32 -84.5t-90 -34.5h-676q-126 0 -126 119v781q0 54 39.5 86.5t93.5 32.5h665q62 0 98 -40 q32 -33 32 -79v-23zM569 13q-21 -13 -47 -13h-268q-33 0 -56 24t-23 61v35q0 18 11.5 28t26.5 10q16 0 27.5 -10t11.5 -28v-35l2 -8h268q8 0 8 8v265l-8 5h-265l-5 -8v-30q0 -18 -11.5 -28.5t-27.5 -10.5q-15 0 -26.5 10.5t-11.5 28.5v30q0 33 23.5 59t58.5 26h265 q32 0 58.5 -23.5t26.5 -58.5v-265h1l7 -8h262l5 8v262l-3 8h-124q-18 0 -28.5 11.5t-10.5 27.5q0 15 10.5 26.5t28.5 11.5h124q35 0 58.5 -24.5t23.5 -60.5v-262q0 -35 -24 -60t-60 -25h-262q-22 0 -46 13z" />
<glyph unicode="&#x102a;" horiz-adv-x="1916" d="M1428 578q0 -36 -36 -36t-36 36v23q0 18 -16 32.5t-42 14.5h-665q-25 0 -43 -11.5t-18 -35.5v-781q0 -47 54 -47h676q24 0 37 13.5t13 33.5v149q0 36 36 36t36 -36v-149q0 -50 -32 -84.5t-90 -34.5h-676q-126 0 -126 119v781q0 54 39.5 86.5t93.5 32.5h665q62 0 98 -40 q32 -33 32 -79v-23zM1033 13q-21 -13 -47 -13h-268q-33 0 -56 24t-23 61v35q0 18 11.5 28t26.5 10q16 0 27.5 -10t11.5 -28v-35l2 -8h268q8 0 8 8v265l-8 5h-265l-5 -8v-30q0 -18 -11.5 -28.5t-27.5 -10.5q-15 0 -26.5 10.5t-11.5 28.5v30q0 33 23.5 59t58.5 26h265 q32 0 58.5 -23.5t26.5 -58.5v-265h1l7 -8h262l5 8v262l-3 8h-124q-18 0 -28.5 11.5t-10.5 27.5q0 15 10.5 26.5t28.5 11.5h124q35 0 58.5 -24.5t23.5 -60.5v-262q0 -35 -24 -60t-60 -25h-262q-22 0 -46 13zM468 85q0 -35 -23 -60t-56 -25h-268q-36 0 -60.5 23.5t-24.5 61.5 v265q0 35 26 58.5t59 23.5h265q36 0 59 -25t23 -60v-33q0 -18 -11.5 -28t-26.5 -10q-16 0 -27.5 10t-11.5 28v33l-5 8h-265l-8 -5v-265q0 -8 8 -8h27q40 69 104.5 112t131.5 43q36 0 60 -26.5t24 -55.5v-65zM391 85v65l-7 5q-47 0 -86 -25q-29 -18 -57 -53h148zM1867 85 q0 -36 -23 -60.5t-58 -24.5h-125q-18 0 -28 11.5t-10 26.5q0 16 10 27.5t28 11.5h125l2 8v262l-5 8h-297q-51 0 -51 39q0 15 13.5 26.5t37.5 11.5h297q36 0 60 -25t24 -60v-262zM1872 608q0 -18 -11.5 -28t-26.5 -10q-16 0 -27.5 10t-11.5 28v15q0 6 -5 13.5t-11 7.5h-239 q-23 0 -23 -20v-59l227 -54q15 -2 23.5 -13t8.5 -24q0 -16 -12.5 -28.5t-32.5 -9.5l-258 60q-33 4 -33 37v91q0 38 26 67t74 29h239q45 -1 69 -35.5t24 -61.5v-15z" />
<glyph unicode="&#x102b;" horiz-adv-x="159" d="M108 30q0 -36 -36 -36t-36 36v594l-91 -37v-67q0 -36 -36 -36t-36 36v91q0 24 23 33l163 68q14 4 20 4q29 0 29 -38v-648z" />
<glyph unicode="&#x102c;" horiz-adv-x="368" d="M338 85q0 -36 -23 -60.5t-58 -24.5h-125q-18 0 -28 11.5t-10 26.5q0 16 10 27.5t28 11.5h125l2 8v262l-5 8h-237q-51 0 -51 39q0 15 13.5 26.5t37.5 11.5h237q36 0 60 -25t24 -60v-262z" />
<glyph unicode="&#x102d;" d="M-26 534q0 -35 -22.5 -59t-56.5 -24h-268q-36 0 -60.5 23.5t-24.5 59.5v107q0 33 26.5 56t58.5 23h266q34 0 57.5 -24.5t23.5 -58.5v-103zM-103 534v103l-4 9h-266l-8 -5v-107q0 -8 8 -8h268z" />
<glyph unicode="&#x102e;" d="M-32 534q0 -35 -22.5 -59t-56.5 -24h-268q-36 0 -60.5 23.5t-24.5 59.5v107q0 33 26.5 56t58.5 23h266q34 0 57.5 -24.5t23.5 -58.5v-103zM-122 526h11l2 8v103l-4 9h-266l-8 -5v-107q0 -8 8 -8h5l65 70l8 6q26 12 51 12q23 0 50 -10l10 -6zM-301 526h105l-29 30 q-13 4 -28 4q-8 0 -19 -3z" />
<glyph unicode="&#x102f;" d="M-138 -300h-105q-36 0 -36 36v221q0 36 36 36t36 -36v-185h69q36 0 36 -36t-36 -36z" />
<glyph unicode="&#x1030;" d="M-61 -300h-105q-36 0 -36 36v221q0 36 36 36t36 -36v-185h69q36 0 36 -36t-36 -36zM-274 -265q0 -36 -36 -36t-36 36v222q0 36 36 36t36 -36v-222z" />
<glyph unicode="&#x1031;" horiz-adv-x="500" d="M468 85q0 -35 -23 -60t-56 -25h-268q-36 0 -60.5 23.5t-24.5 61.5v265q0 35 26 58.5t59 23.5h265q36 0 59 -25t23 -60v-33q0 -18 -11.5 -28t-26.5 -10q-16 0 -27.5 10t-11.5 28v33l-5 8h-265l-8 -5v-265q0 -8 8 -8h27q40 69 104.5 112t131.5 43q36 0 60 -26.5t24 -55.5 v-65zM391 85v65l-7 5q-47 0 -86 -25q-29 -18 -57 -53h148z" />
<glyph unicode="&#x1032;" d="M-76 499q22 -9 22 -32q0 -16 -10 -27.5t-25 -11.5q-6 0 -15 4l-298 125q-22 9 -22 32q0 16 10.5 27.5t24.5 11.5q9 0 16 -4z" />
<glyph unicode="&#x1033;" d="M-391 606q0 31 12.5 59t34.5 48.5t51 32.5t63 12q32 0 61.5 -12t50.5 -32.5t34 -48.5t13 -59t-13 -59t-34 -48.5t-50.5 -32.5t-61.5 -12q-34 0 -63 12t-51 32.5t-34.5 48.5t-12.5 59zM-324 606q0 -18 7.5 -34t19.5 -28t29.5 -19t37.5 -7q18 0 35 7t29.5 19t19.5 28t7 34 t-7 34.5t-19.5 28.5t-29.5 19t-35 7q-20 0 -37.5 -7t-29.5 -19t-19.5 -28.5t-7.5 -34.5zM-230 665q23 0 40.5 -17t17.5 -42t-17.5 -41.5t-40.5 -16.5q-26 0 -43 16.5t-17 41.5t17 42t43 17zM-230 631q-12 0 -19 -7.5t-7 -17.5q0 -11 7 -17.5t19 -6.5q9 0 16 6.5t7 17.5 q0 10 -7 17.5t-16 7.5z" />
<glyph unicode="&#x1034;" d="M-105 624q7 4 16 4q14 0 24.5 -11.5t10.5 -27.5q0 -23 -22 -32l-298 -125q-9 -4 -15 -4q-15 0 -25 11.5t-10 27.5q0 23 22 32z" />
<glyph unicode="&#x1035;" d="M-144 557q-32 10 -63.5 -0.5t-51.5 -31.5q17 -8 37 -8q24 0 44.5 11.5t33.5 28.5zM-222 454q-34 0 -63 12t-51 32.5t-34.5 48.5t-12.5 59q0 32 12.5 59.5t34.5 48.5t51 32.5t63 11.5q42 0 76 -18t57 -48l-55 -35q-14 16 -34 27t-44 11q-20 0 -37 -7t-29.5 -19t-20 -28.5 t-7.5 -34.5q0 -36 26 -60q14 17 34.5 29.5t43 18t46 5t46.5 -9.5h1q31 -29 31 -67q-21 -31 -56.5 -49.5t-77.5 -18.5z" />
<glyph unicode="&#x1036;" d="M-145 587q7 -11 7 -21t-9 -20l-28 -31q-11 -11 -24 -11h-85q-13 0 -23 10l-28 26q-10 11 -10 24q0 10 4 16l48 79q9 15 28 15h38q17 0 27 -12zM-213 569l-29 41h-5l-24 -41h58z" />
<glyph unicode="&#x1037;" d="M-143 -152l-55 -76q-10 -12 -27 -12h-38q-19 0 -28 16l-48 79q-5 8 -5 17q0 12 11 22l28 27q9 9 23 9h85q13 0 24 -10l27 -32q10 -9 10 -21q0 -10 -7 -19zM-212 -134h-57l24 -41h5z" />
<glyph unicode="&#x1038;" horiz-adv-x="294" d="M236 344q8 -10 8 -20q0 -11 -10 -20l-28 -32q-10 -10 -24 -10h-85q-13 0 -23 9l-27 27q-11 10 -11 24q0 9 5 15l48 79q8 16 27 16h39q17 0 26 -12zM168 326l-29 41h-5l-24 -41h58zM236 88l-55 -76q-9 -12 -26 -12h-39q-19 0 -27 16l-48 79q-5 8 -5 17q0 12 11 22l27 27 q10 9 23 9h85q14 0 24 -10l28 -32q10 -9 10 -21q0 -10 -8 -19zM168 106h-58l24 -41h5z" />
<glyph unicode="&#x1039;" horiz-adv-x="255" d="M251 381h-33v-385h-38v385h-50v-385h-39v237q-43 3 -67 29t-24 63q0 42 26 69t81 27h144v-40z" />
<glyph unicode="&#x103a;" d="M-20 608q0 -18 -11.5 -28t-26.5 -10q-16 0 -27.5 10t-11.5 28v15q0 6 -5 13.5t-11 7.5h-239q-23 0 -23 -20v-59l227 -54q15 -2 23.5 -13t8.5 -24q0 -16 -12.5 -28.5t-32.5 -9.5l-258 60q-33 4 -33 37v91q0 38 26 67t74 29h239q40 -1 66.5 -35.5t26.5 -61.5v-15z" />
<glyph unicode="&#x103b;" horiz-adv-x="143" d="M108 -266q0 -39 -30 -39q-5 0 -19 5l-163 67q-23 10 -23 34v163q0 36 36 36t36 -36v-139l91 -37v608q0 36 36 36t36 -36v-662z" />
<glyph unicode="&#x103c;" horiz-adv-x="140" d="M608 569q0 -36 -36 -36t-36 36v32q0 18 -15.5 32.5t-41.5 14.5h-310q-25 0 -43 -11.5t-18 -35.5v-781q0 -47 54 -47h320q24 0 37.5 13.5t13.5 33.5v180q0 36 36 36t36 -36v-180q0 -50 -32 -84.5t-91 -34.5h-320q-126 0 -126 119v781q0 54 39.5 86.5t93.5 32.5h310 q62 0 98 -40q31 -33 31 -79v-32z" />
<glyph unicode="&#x103d;" d="M-23 -202q0 -51 -15 -72q-21 -26 -79 -26h-243q-50 0 -71 23.5t-21 72.5l2 13l13 35l11 14l168 136q12 8 23 8q13 0 23 -8l164 -136l11 -15l12 -33zM-95 -206l-6 15l-134 112l-138 -112l-7 -19q2 -18 18 -18h245q22 0 22 22z" />
<glyph unicode="&#x103e;" d="M-199 -264q0 -36 -36 -36h-105q-36 0 -36 36t36 36h69v185q0 36 36 36t36 -36v-221z" />
<glyph unicode="&#x103f;" horiz-adv-x="1209" d="M830 77h262l5 8v262l-3 8h-124q-18 0 -28.5 11.5t-10.5 27.5q0 15 10.5 26.5t28.5 11.5h124q35 0 58.5 -24.5t23.5 -60.5v-262q0 -35 -24 -60t-60 -25h-262q-25 0 -45 17q-21 -17 -47 -17h-262q-22 0 -46 13q-21 -13 -47 -13h-268q-33 0 -56 24t-23 61v35q0 18 11.5 28 t26.5 10q16 0 27.5 -10t11.5 -28v-35l2 -8h268q8 0 8 8v265l-8 5h-265l-5 -8v-30q0 -18 -11.5 -28.5t-27.5 -10.5q-15 0 -26.5 10.5t-11.5 28.5v30q0 33 23.5 59t58.5 26h265q32 0 58.5 -23.5t26.5 -58.5v-265h1l7 -8h262l5 8v262l-3 8h-124q-18 0 -28.5 11.5t-10.5 27.5 q0 15 10.5 26.5t28.5 11.5h124q35 0 58.5 -24.5t23.5 -60.5v-253q0 -17 8 -17z" />
<glyph unicode="&#x1040;" horiz-adv-x="500" d="M220 355h-94l-8 -5v-265q0 -8 8 -8h94v-77h-94q-36 0 -60.5 23.5t-24.5 61.5v265q0 18 7 33t19 26t27 17t32 6h94v-77zM396 85v262l-5 8h-98v77h98q36 0 59 -25t23 -60v-262q0 -35 -23 -60t-56 -25h-101v77h101z" />
<glyph unicode="&#x1041;" horiz-adv-x="504" d="M39 120q0 18 11.5 28t26.5 10q16 0 27.5 -10t11.5 -28v-35l2 -8h268q8 0 8 8v265l-8 5h-265l-5 -8v-30q0 -18 -11.5 -28.5t-27.5 -10.5q-15 0 -26.5 10.5t-11.5 28.5v30q0 35 23 60t59 25h265q33 0 59 -23.5t26 -58.5v-265q0 -38 -24.5 -61.5t-60.5 -23.5h-268 q-33 0 -56 25t-23 60v35z" />
<glyph unicode="&#x1042;" horiz-adv-x="525" d="M490 -178q0 -51 -35.5 -86.5t-87.5 -35.5h-295q-36 0 -36 36t36 36h295q22 0 36.5 14.5t14.5 35.5v569q0 36 36 36t36 -36v-569z" />
<glyph unicode="&#x1043;" horiz-adv-x="498" d="M77 10q-41 24 -41 75v35q0 18 11.5 28t26.5 10q16 0 27.5 -10t11.5 -28v-35l2 -8h268q8 0 8 8v265l-8 5h-265l-5 -8v-30q0 -18 -11.5 -28.5t-27.5 -10.5q-15 0 -26.5 10.5t-11.5 28.5v30q0 33 23.5 59t58.5 26h265q32 0 58.5 -23.5t26.5 -58.5v-265q0 -38 -24.5 -61.5 t-60.5 -23.5h-204l200 -240q10 -10 10 -24t-11 -25t-25 -11q-15 0 -27 12z" />
<glyph unicode="&#x1044;" horiz-adv-x="502" d="M180 -288q-12 -12 -27 -12q-14 0 -25 11t-11 25t10 24l200 240h-204q-36 0 -60.5 23.5t-24.5 61.5v265q0 35 26.5 58.5t58.5 23.5h265q35 0 58.5 -26t23.5 -59v-30q0 -18 -11.5 -28.5t-26.5 -10.5q-16 0 -27.5 10.5t-11.5 28.5v30l-5 8h-265l-8 -5v-265q0 -8 8 -8h268 l2 8v35q0 18 11.5 28t27.5 10q15 0 26.5 -10t11.5 -28v-35q0 -51 -41 -75z" />
<glyph unicode="&#x1045;" horiz-adv-x="502" d="M113 314l119 -66q18 -10 18 -24t-20 -22l-122 -58q-7 -4 -18 -4q-20 0 -37 11.5t-17 35.5v160q0 33 23.5 59t58.5 26h265q32 0 58.5 -23.5t26.5 -58.5v-564q0 -38 -24.5 -61.5t-60.5 -23.5h-268q-33 0 -56 24t-23 61v35q0 18 11.5 28.5t26.5 10.5q16 0 27.5 -10.5 t11.5 -28.5v-35l2 -8h268q8 0 8 8v564l-8 5h-265l-5 -8v-33zM113 205l50 23l-50 28v-51z" />
<glyph unicode="&#x1046;" horiz-adv-x="500" d="M446 245q22 -11 22 -34v-126q0 -33 -23.5 -59t-58.5 -26h-265q-32 0 -58.5 23.5t-26.5 58.5v552q0 38 24.5 61.5t60.5 23.5h268q33 0 56 -24t23 -61v-35q0 -18 -11.5 -28.5t-26.5 -10.5q-17 0 -28 10t-11 29v35l-2 8h-268q-8 0 -8 -8v-552l8 -5h265l5 8v127l-153 106 q-6 6 -6 18q0 25 13 32l173 58q7 4 13 4q12 0 20.5 -10t8.5 -23q0 -17 -18 -26l-129 -37z" />
<glyph unicode="&#x1047;" horiz-adv-x="498" d="M391 90v257q0 8 -8 8h-265l-5 -8v-186q0 -43 -36 -43q-16 0 -28.5 11t-12.5 32v186q0 32 23.5 58.5t58.5 26.5h265q38 0 61.5 -24.5t23.5 -60.5v-247q2 -14 -4 -24l-133 -261q5 -43 34 -43h26q36 0 36 -36t-36 -36h-26q-42 0 -74 34t-32 88l4 16z" />
<glyph unicode="&#x1048;" horiz-adv-x="502" d="M121 0q-35 0 -60 23t-25 56v268q0 36 23.5 60.5t61.5 24.5h265q35 0 58.5 -26t23.5 -59v-265q0 -36 -25 -59t-60 -23h-33q-37 0 -37 38q0 17 9 28t28 11h33l8 5v265l-5 8h-265q-8 0 -8 -8v-27q69 -40 112 -104.5t43 -131.5q0 -36 -26.5 -60t-55.5 -24h-65zM121 77h65l5 7 q0 47 -25 86q-18 29 -53 57v-148z" />
<glyph unicode="&#x1049;" horiz-adv-x="496" d="M468 -214q0 -34 -23 -59.5t-56 -25.5h-268q-36 0 -60.5 23.5t-24.5 61.5v564q0 35 26 58.5t59 23.5h265q36 0 59 -25t23 -60v-126q0 -13 -5.5 -20.5t-16.5 -13.5l-133 -89l129 -37q18 -8 18 -27q0 -32 -29 -32q-6 0 -13 4l-173 58q-5 2 -9 12t-4 21t6 17l153 106v127 l-5 8h-265l-8 -5v-564q0 -8 8 -8h268l2 8v35q0 18 11.5 28.5t27.5 10.5q15 0 26.5 -10.5t11.5 -28.5v-35z" />
<glyph unicode="&#x104a;" horiz-adv-x="167" d="M108 34q0 -36 -36 -36t-36 36v361q0 36 36 36t36 -36v-361z" />
<glyph unicode="&#x104b;" horiz-adv-x="338" d="M240 34q0 -36 -36 -36q-16 0 -26 9t-10 25v364q0 36 36 36t36 -36v-362zM108 32q0 -15 -10 -24t-26 -9q-36 0 -36 36v360q0 36 36 36t36 -36v-363z" />
<glyph unicode="&#x104c;" horiz-adv-x="494" d="M460 -182q0 -51 -32.5 -84.5t-83.5 -33.5h-206q-49 0 -76 26t-27 72q0 45 26.5 65.5t75.5 20.5h33q36 0 36 -36t-36 -36h-30q-31 0 -31 -22q0 -18 29 -18h206q18 0 31 12.5t13 33.5l-2 86h-314q-36 0 -36 36t36 36h326q32 0 46 -18t14 -47zM382 0h-268q-43 0 -61.5 23 t-18.5 54l1 43q0 18 11.5 28t26.5 10q16 0 27.5 -10t11.5 -28v-35l2 -8h268q8 0 8 8v265l-8 5h-266l-4 -8v-30q0 -18 -11.5 -28.5t-27.5 -10.5q-15 0 -26.5 10.5t-11.5 28.5v30q0 33 23.5 59t57.5 26h266q85 0 85 -82v-265q1 -38 -21 -61.5t-64 -23.5zM468 608 q0 -18 -11.5 -28t-26.5 -10q-16 0 -27.5 10t-11.5 28v15q0 6 -5.5 13.5t-11.5 7.5h-238q-23 0 -23 -20v-59l227 -54q15 -2 23.5 -13t8.5 -24q0 -16 -12.5 -28.5t-33.5 -9.5l-258 60q-32 4 -32 37v91q0 38 26 67t74 29h238q27 0 60.5 -35t33.5 -62v-15z" />
<glyph unicode="&#x104d;" horiz-adv-x="618" d="M172 77q0 51 -16 78t-43 37v-110l8 -5h51zM468 -96q0 -19 -11 -28.5t-25 -9.5q-16 0 -28.5 10t-12.5 26v445q0 8 -8 8h-265l-5 -8v-100q49 -8 79 -51q35 -52 35 -141q0 -25 -5 -36q-8 -19 -30 -19h-71q-33 0 -59 23.5t-26 58.5v265q0 32 23.5 58.5t58.5 26.5h265 q38 0 61.5 -24.5t23.5 -60.5v-443zM442 452l-251 44q-33 4 -33 37v91q0 38 26 67t74 29h239q26 0 59.5 -35t33.5 -62v-15q0 -18 -11 -28t-27 -10t-27 10t-11 28v15q0 6 -5.5 13.5t-11.5 7.5h-239q-23 0 -23 -20v-59l217 -37q57 -10 97.5 -58t40.5 -115v-528q0 -50 -37 -87.5 t-87 -37.5h-302q-60 0 -93 34.5t-33 82.5q0 49 32 81q36 38 94 38q68 0 124 -24q41 -18 90 -56q14 -10 14 -28q0 -15 -11 -26.5t-26 -11.5q-13 0 -23 9q-36 30 -69 44q-46 21 -99 21q-22 0 -35.5 -13.5t-13.5 -32.5q0 -18 12.5 -32t36.5 -14h302q21 0 36.5 16t15.5 37v528 q0 37 -18 63t-58 34z" />
<glyph unicode="&#x104e;" horiz-adv-x="496" d="M391 120q-1 18 9 28t27 10q16 0 28.5 -10t12.5 -28v-384q0 -13 -7 -23q-12 -15 -33 -15q-16 0 -27 9t-11 28l-1 265h-268q-36 0 -60.5 23.5t-24.5 61.5v265q0 35 26 58.5t59 23.5h265q36 0 59 -25t23 -60v-30q0 -18 -11.5 -28.5t-26.5 -10.5q-16 0 -27.5 10.5t-11.5 28.5 v30l-5 8h-265l-8 -5v-265q0 -8 8 -8h258q7 0 11 11q0 1 1 6v26z" />
<glyph unicode="&#x104f;" horiz-adv-x="780" d="M391 85v63q-31 -10 -52.5 -26t-33.5 -45h84zM391 283v64l-5 8h-81q11 -27 33.5 -45t52.5 -27zM458 388l110 -33q26 -7 26 -35v-288q0 -36 -36 -36t-36 36v261l-54 15v-44q0 -41 -41 -41q-54 0 -103 33q-59 38 -74 99h-129l-8 -5v-265q0 -8 8 -8h127q16 60 72 97 q51 32 104 32q18 3 31 -7.5t13 -30.5v-83q0 -35 -23 -60t-56 -25h-268q-36 0 -60.5 23.5t-24.5 61.5v265q0 35 26 58.5t59 23.5h265q24 0 43 -12t29 -32zM716 478q26 -10 26 -35v-411q0 -36 -36 -36t-36 36v383l-324 81q-33 4 -33 37v91q0 38 26 67t74 29h239q26 0 59.5 -35 t33.5 -62v-15q0 -18 -11.5 -28t-26.5 -10q-16 0 -27.5 10t-11.5 28v15q0 6 -5 13.5t-11 7.5h-239q-23 0 -23 -20v-59z" />
<glyph unicode="&#x1050;" horiz-adv-x="499" d="M376 288q0 14 -9.5 30t-25.5 29.5t-38 23t-46 10.5q-27 1 -51.5 -7t-43 -22t-29 -31.5t-10.5 -32.5v-141q0 -24 19 -48.5t47 -39.5q-11 -29 -18 -45.5t-11 -24.5q-26 12 -47 29t-36.5 37.5t-24.5 44t-9 47.5v141q0 36 19.5 67t50.5 54t69.5 35.5t78.5 10.5 q36 -2 71 -15.5t62.5 -36.5t44.5 -52.5t17 -62.5v-149q0 -24 -8.5 -47t-24 -42.5t-37.5 -35.5t-47 -26l-29 69q29 13 47.5 35.5t18.5 46.5v149zM329 269q-12 20 -33 32.5t-47 12.5q-25 0 -46 -12.5t-33 -32.5q-13 -22 -13 -48q0 -19 7 -36.5t20 -29.5t29.5 -19.5t35.5 -7.5 t36 7.5t29.5 19.5t20 29.5t7.5 36.5q0 26 -13 48zM249 183q-16 0 -27.5 11t-11.5 27q0 18 11.5 28t27.5 10q17 0 28 -10t11 -28q0 -16 -11 -27t-28 -11z" />
<glyph unicode="&#x1051;" horiz-adv-x="491" d="M376 305q0 24 -18.5 46.5t-47.5 35.5l29 69q25 -11 47 -27t37.5 -35.5t24 -42t8.5 -46.5v-149q0 -33 -17 -62.5t-44.5 -52.5t-62.5 -37t-71 -15q-40 -2 -78.5 10t-69.5 35t-50.5 54.5t-19.5 67.5v141q0 24 9 47t24.5 43.5t36.5 38t47 28.5q4 -7 11 -24t18 -45 q-28 -15 -47 -39.5t-19 -48.5v-141q0 -16 10.5 -33t29 -31t43 -22.5t51.5 -7.5q24 1 46 11t38 23.5t25.5 29.5t9.5 30v149zM329 175q13 22 13 47q0 20 -7.5 37t-20 29.5t-29.5 20t-36 7.5t-35.5 -7.5t-29.5 -20t-20 -29.5t-7 -37q0 -25 13 -47q12 -21 33 -33t46 -12 q26 0 47 12t33 33zM249 261q17 0 28 -11t11 -28t-11 -27.5t-28 -10.5q-16 0 -27.5 10.5t-11.5 27.5t11.5 28t27.5 11z" />
<glyph unicode="&#x1052;" horiz-adv-x="487" d="M246 -11q-30 0 -65 11.5t-66 34.5t-52 56t-21 76v3v135q0 25 9 47.5t25 41.5t37.5 34.5t46.5 26.5l29 -70q-31 -14 -49 -36.5t-18 -43.5v-146q0 -17 10 -34.5t27 -30.5t39.5 -21.5t48.5 -8.5q25 0 48 9.5t40.5 25t28 33.5t10.5 35v29q0 17 -13 35t-31 33q-22 16 -38.5 37 t-16.5 53q0 35 18 58t45.5 34t59 11.5t58.5 -9.5l-22 -68q-17 8 -32.5 8t-26.5 -5t-17.5 -13t-6.5 -16q0 -11 11 -19.5t23 -16.5q34 -24 51.5 -54.5t17.5 -67.5v-29q0 -34 -17 -66t-46 -56.5t-67 -40t-78 -15.5z" />
<glyph unicode="&#x1053;" horiz-adv-x="491" d="M235 -14q-38 3 -73.5 18.5t-62 40t-42.5 55t-16 63.5v29q0 37 18 67.5t52 54.5q11 8 21.5 16.5t10.5 19.5q0 8 -6 16t-17 13t-26 5t-33 -8l-22 68q27 9 59 9t59 -11.5t45.5 -34t18.5 -57.5q0 -32 -17 -53t-38 -37q-19 -15 -32 -33t-13 -35v-29q0 -17 10 -35t27 -33 t40 -25t47 -10h5q26 0 48.5 10t39.5 25t27 33t10 35v29q0 17 -13.5 35t-31.5 33q-22 16 -38.5 37t-16.5 53q0 35 18 57.5t45.5 34t59 11.5t58.5 -9l-22 -68q-17 8 -32.5 8t-26.5 -5t-17 -13t-6 -16q0 -11 10.5 -19.5t22.5 -16.5q34 -24 51.5 -54.5t17.5 -67.5v-29 q0 -33 -16 -63.5t-42.5 -55t-62 -40t-72.5 -18.5h-26z" />
<glyph unicode="&#x1054;" horiz-adv-x="491" d="M382 290q-6 19 -20 36t-32.5 29t-41.5 18.5t-46 6.5q-24 -1 -45 -9.5t-37 -21.5q15 -28 42.5 -48.5t58 -29t62.5 -4.5t59 23zM392 229q-34 -17 -71.5 -19.5t-74 6.5t-68.5 29.5t-54 50.5q-1 -3 -1 -9v-131q0 -17 10 -34.5t26.5 -31t39 -21.5t48.5 -8q56 0 91.5 24 t46.5 59l71 -39q-29 -62 -84 -90t-126 -28q-41 0 -78 14t-65 37t-44 53.5t-16 64.5v131q0 33 16.5 62.5t44 52t62.5 36.5t71 16q39 2 77.5 -10t69 -34.5t50 -53t20.5 -66.5q-8 -19 -22 -33t-40 -28z" />
<glyph unicode="&#x1055;" horiz-adv-x="477" d="M380 290q-6 19 -20 36t-33.5 29t-42 18.5t-45.5 6.5q-24 -1 -45 -9.5t-37 -21.5q16 -28 42.5 -48.5t58 -29t63.5 -4.5t59 23zM119 119q0 -23 12 -38t29 -15q20 0 31.5 13.5t11.5 35.5v26h79v-25q1 -22 12.5 -36t28.5 -14q20 0 31.5 13.5t11.5 36.5v25h79v-25 q0 -29 -9 -52.5t-25 -40.5t-39 -26.5t-50 -9.5q-24 1 -44 9t-34 22q-17 -15 -38 -23t-47 -8q-29 1 -51 12t-37 29.5t-23 41.5t-8 49l-1 168q0 33 17 62.5t44.5 52t62.5 36.5t71 16q38 2 76.5 -10t69.5 -34.5t50.5 -53t20.5 -66.5q-8 -19 -22 -33t-40 -28 q-34 -17 -71.5 -19.5t-74 6.5t-68.5 29.5t-54 50.5q-1 -3 -1 -9z" />
<glyph unicode="&#x1056;" horiz-adv-x="493" d="M245 -14q-29 0 -64.5 11.5t-66.5 34.5t-52 56t-21 76v2v51h80v-61q0 -17 10 -34.5t27 -30.5t40 -21.5t48 -8.5t48.5 9.5t41 25t28 33.5t10.5 35v29q0 17 -13 35t-32 33q-22 16 -38.5 37t-16.5 53q0 35 18 57.5t45.5 33.5t59 11.5t58.5 -9.5l-22 -68q-17 9 -32.5 9 t-26.5 -5t-17 -13.5t-6 -15.5q0 -12 10.5 -20t22.5 -16q34 -24 51.5 -54.5t17.5 -67.5v-29q0 -34 -17 -66t-46 -57t-67 -40t-78 -15z" />
<glyph unicode="&#x1057;" horiz-adv-x="489" d="M376 192q0 17 -13.5 35t-32.5 33q-21 16 -37.5 37.5t-16.5 52.5q0 35 18 58t45.5 34t59 11t59.5 -9l-23 -68q-18 9 -33 9t-26 -5.5t-17 -13.5t-6 -16q0 -11 11 -19.5t22 -16.5q34 -24 52 -54.5t18 -67.5v-74q0 -25 -8 -48.5t-23.5 -42t-38 -30t-51.5 -11.5q-53 0 -87 31 q-14 -14 -34 -22t-45 -9q-29 0 -52 9.5t-39.5 26.5t-25.5 41t-9 53v96h81v-96q0 -23 12 -36.5t31 -13.5q18 0 29.5 14t12.5 36v25h81v-27q0 -21 12 -34.5t32 -13.5q18 0 30 15t12 37v74z" />
<glyph unicode="&#x1058;" d="M-144 -116v0q-13 19 -33.5 29.5t-45.5 10.5q-20 0 -37 -7q21 -22 52 -32t64 -1zM-223 -11q43 0 78.5 -19t57.5 -50q1 -37 -31 -68h-1q-24 -9 -48 -10t-47 5t-43 18.5t-35 29.5q-26 -25 -26 -61q0 -19 7.5 -35t20.5 -28t30 -19t37 -7q25 0 45.5 10t32.5 29l56 -37 q-22 -30 -57 -48.5t-77 -18.5q-34 0 -64 12t-52 33t-34.5 49t-12.5 60t12.5 60t34.5 49t52 33.5t64 12.5z" />
<glyph unicode="&#x1059;" d="M-160 -116h-1q-13 19 -34 30t-44 11q-10 0 -19.5 -2t-18.5 -5q20 -23 51.5 -33t65.5 -1zM-239 -11q42 0 78 -18.5t58 -50.5q2 -38 -31 -68v1q-24 -9 -48.5 -10t-48 5t-43.5 18.5t-35 29.5q-23 -23 -26 -54v-49q0 -19 5 -32t21 -14q18 0 20.5 12t2.5 32h69v-12t1 -11 q2 -9 7.5 -15t19.5 -6q15 0 20 13.5t5 32.5h68q0 -22 -5.5 -42.5t-16.5 -36.5t-28.5 -25.5t-42.5 -9.5q-38 0 -62 17q-21 -17 -59 -17q-25 0 -42.5 11.5t-28.5 28t-16.5 36.5t-5.5 38v28v7v6q0 32 13 60.5t35 49.5t52 33t64 12z" />
<glyph unicode="&#x105a;" horiz-adv-x="472" d="M440 107q-10 -27 -32 -49.5t-50 -39t-60 -24.5t-64 -6q-25 1 -48.5 7.5t-45 18t-40 26.5t-32 33t-21 38.5t-7.5 42.5v131q0 33 16.5 63t44 53.5t64.5 37.5t77 14q33 0 64 -9.5t57 -27t46 -40.5t31 -49l-71 -39q-3 16 -14.5 32.5t-28.5 29.5t-38.5 21.5t-44.5 7.5 q-25 0 -47.5 -8.5t-39.5 -21.5t-26.5 -30t-9.5 -34v-131q0 -14 9 -30t25 -29.5t37 -22.5t47 -11q25 0 48 7t41 20t29.5 29t13.5 31zM119 -171v46q0 19 9 38.5t26 35.5t40 26t52 10q25 0 47.5 -9.5t38.5 -25.5t25.5 -36t9.5 -39v-23q0 -20 -10 -33t-23 -24.5t-26 -23.5 t-17 -28l-1.5 -6t0.5 -4q2 -7 7.5 -12.5t7.5 -9.5l-44 -33q-26 7 -34 27.5t-4 43.5q2 17 12 32.5t23 27.5t25 23t16 20v23q0 4 -3.5 11t-10.5 14t-17 12t-22 5q-16 0 -27 -5t-18 -12t-10.5 -14t-3.5 -11v-46h-68z" />
<glyph unicode="&#x105b;" horiz-adv-x="650" d="M259 378q-4 -14 -0.5 -27t12.5 -23.5t21 -18.5t25.5 -11.5t27 -2t23.5 8.5q-5 13 -15 25.5t-24.5 22.5t-32 17t-37.5 9zM441 314q-2 -19 -13 -48q-20 -25 -46.5 -34.5t-53 -8t-52.5 13.5t-45.5 31.5t-31.5 44.5t-12 53q-15 -7 -27 -16.5t-21 -20t-13.5 -21.5t-4.5 -21 v-130q0 -18 10 -35t27 -30t39.5 -21.5t46.5 -8.5q23 0 44.5 8t38.5 21t28.5 29.5t14.5 32.5l70 -39q-10 -26 -30 -49t-46 -40t-57 -26.5t-63 -9.5q-41 0 -77.5 14t-64 37t-44 53t-16.5 64v130q0 32 16.5 61.5t44 52t61.5 36t71 16.5q25 0 50 -4.5t49 -14.5t44 -24.5 t35 -32.5q17 6 33 6t32 -4.5t29 -13.5t24 -21l-39 -71q-2 13 -8 21.5t-13 13t-14.5 6t-15.5 0.5zM531 453h78v-738q0 -9 -2.5 -16t-8.5 -12t-13 -8.5t-14 -3.5l-194 62q-5 1 -11.5 5.5t-12.5 11.5t-10.5 14.5t-4.5 15.5v218h78v-196l115 -39v686z" />
<glyph unicode="&#x105c;" horiz-adv-x="491" d="M41 154v122q0 35 17 67.5t46.5 57.5t66.5 39.5t78 13.5t78 -14.5t65 -36.5t44.5 -53.5t16.5 -64.5v-131q0 -33 -17 -62.5t-44 -52t-62 -36.5t-72 -16q-38 -2 -77 10.5t-70 35.5t-50.5 54t-19.5 67zM121 276v-122q0 -15 11 -32.5t29.5 -31t42 -22t50.5 -7.5 q25 1 46.5 10.5t37.5 23t25.5 29.5t9.5 30v19v112q0 18 -10 35t-27 30t-39.5 21.5t-48.5 8.5q-25 0 -48 -9t-40.5 -24.5t-28 -34t-10.5 -36.5zM326 173q14 21 14 48q0 19 -7 36t-20 29.5t-30 20t-36 7.5t-36 -7.5t-29.5 -20t-20 -29.5t-7.5 -36q0 -26 13 -48 q13 -20 33.5 -32.5t46.5 -12.5q25 0 46 12.5t33 32.5zM248 259q16 0 27 -11t11 -27q0 -18 -11 -28t-27 -10q-18 0 -29.5 10t-11.5 28q0 16 11.5 27t29.5 11z" />
<glyph unicode="&#x105d;" horiz-adv-x="472" d="M359 212v104q0 19 -17.5 41t-46.5 35l27 66q24 -9 44.5 -24.5t36 -34t24 -39.5t8.5 -44v-144q0 -37 -20 -69t-53 -55v-205v-125q0 -16 -11.5 -27t-26.5 -11l-100 -1l-145 1q-15 0 -26 11t-11 27v66q0 8 1 22t8 29.5t22 28.5t42 19q23 5 45 -0.5t41 -15.5t34 -22t24 -22 l-53 -53q-3 3 -11 9.5t-18 13t-20 11.5t-19 6t-15 -4t-7 -19v-31h104h67v82v178q-11 -3 -22.5 -4t-23.5 -2q-38 0 -74.5 14t-64 37.5t-44 54.5t-16.5 64v136q0 23 8.5 44.5t23.5 39.5t35.5 33t43.5 25l28 -66q-28 -14 -45.5 -35t-17.5 -41v-113q25 22 56 33.5t63 12.5 t63.5 -8.5t58.5 -28.5zM133 138q16 -24 44.5 -41t62.5 -16q37 1 67 18t43 41q-21 27 -50 40.5t-59 13t-59 -14.5t-49 -41z" />
<glyph unicode="&#x105e;" d="M-198 -162h-97q-17 0 -19.5 -9t9.5 -14l89 -57q11 -6 15 0.5t3 14.5v65zM-215 -321q-6 0 -11.5 2t-9.5 3q-5 3 -8 5l-94 63q-27 13 -39 39.5t-7.5 52.5t27 45.5t62.5 19.5h97v75h69v-75h55v-71h-55v-49q0 -57 -19.5 -83.5t-66.5 -26.5z" />
<glyph unicode="&#x105f;" d="M-137 -227v11l71 -23q-3 -17 -11 -32t-20.5 -26t-28.5 -17.5t-34 -6.5h-125q-19 0 -36 7t-30 20t-20.5 30t-7.5 37v15q0 19 7.5 36.5t20.5 30t30 20t36 7.5h28v101h71v-172h-99q-9 0 -16 -7t-7 -16v-15q0 -9 7 -16t16 -7h125q9 0 16 7t7 16z" />
<glyph unicode="&#x1060;" d="M-73 -75l-237 -152q-11 -7 -9 -16t19 -9h227v-73h-227q-41 0 -63.5 20t-27.5 47t7.5 54t39.5 41l232 149z" />
<glyph unicode="&#x1061;" horiz-adv-x="470" d="M207 75q-4 39 -27.5 68t-62.5 41v-23q0 -13 6.5 -26t18.5 -24.5t28.5 -21t36.5 -14.5zM117 237q38 -8 67.5 -30t48 -52t24 -66t-5.5 -73l-2 -299q0 -15 -11 -26.5t-26 -11.5h-121v75h84l1 256q-28 8 -52 23t-42.5 34.5t-29 43t-10.5 50.5v131q0 32 15.5 60.5t42 51 t62 35.5t73.5 14q38 0 73.5 -13.5t62.5 -36.5t44 -52.5t19 -61.5v-536h42v-74h-80q-14 0 -26 11t-12 25v569q0 17 -9.5 34t-26.5 31.5t-39 23.5t-47 9q-24 0 -45.5 -7.5t-38 -21t-26 -29.5t-9.5 -32v-55z" />
<glyph unicode="&#x1062;" horiz-adv-x="288" d="M15 453h186q16 0 27.5 -11.5t11.5 -26.5v-426h-78v387h-147v77z" />
<glyph unicode="&#x1063;" horiz-adv-x="466" d="M111 157q1 -14 12 -29.5t28.5 -28t40 -20t47.5 -5.5q23 1 44 10t36.5 22t24.5 28t9 29v126q0 18 -9.5 34t-26.5 29t-38.5 21t-46.5 8q-22 0 -43 -7.5t-37.5 -20.5t-27 -29t-13.5 -31l-68 37q9 26 28.5 48.5t45 39t55.5 26t62 9.5q39 -1 74.5 -14.5t62.5 -36t43 -52 t16 -61.5v-126q0 -32 -16 -60t-43 -50t-60.5 -35.5t-67.5 -15.5q-27 -1 -52.5 4t-48.5 16v-342h-76v399q-8 9 -14 18.5t-10 20.5z" />
<glyph unicode="&#x1064;" horiz-adv-x="433" d="M271 375h-229v78h271q17 0 28.5 -11.5t11.5 -27.5v-43v-9t-5 -11l-163 -283h211v-79h-257q-15 0 -27 11.5t-12 28.5v39q0 7 2.5 12.5t3.5 6.5z" />
<glyph unicode="&#x1065;" horiz-adv-x="462" d="M102 144q3 -15 14 -30.5t28.5 -28t40 -20t47.5 -5.5q25 1 45.5 10t36.5 22t25 28.5t9 29.5v128q0 16 -10 32.5t-26.5 29.5t-38.5 21.5t-47 9.5q-22 0 -43 -8.5t-37.5 -21t-27.5 -28.5t-15 -32l-69 38q11 25 30.5 47.5t45 39.5t55.5 27t62 9q40 0 76 -14t63.5 -36 t43.5 -52t16 -62v-128q0 -21 -7.5 -41t-20.5 -38t-31.5 -32.5t-39 -25.5t-44 -17.5t-47.5 -7.5q-31 -2 -63 6t-59 24t-48.5 38t-31.5 48z" />
<glyph unicode="&#x1066;" horiz-adv-x="474" d="M179 -245h99v259q-7 -2 -14 -2.5t-15 -1.5q-37 -2 -73.5 10t-66 33.5t-48 51t-18.5 64.5v134q0 23 8 45t23 41.5t35.5 35.5t43.5 28q4 -8 10.5 -24t17.5 -42q-28 -15 -45.5 -38.5t-17.5 -45.5v-134q0 -15 10.5 -31.5t28 -29.5t40.5 -21t48 -7q24 1 45 10t36 22t23.5 28 t8.5 29v142q0 23 -17.5 44t-44.5 34l27 65q49 -20 80.5 -58.5t31.5 -84.5v-142q0 -39 -23 -71.5t-59 -54.5v-326q0 -15 -11.5 -26t-25.5 -11h-137v75z" />
<glyph unicode="&#x1067;" horiz-adv-x="313" d="M151 122q-14 0 -23 -9t-9 -22q0 -14 9 -22t23 -8t22.5 8t8.5 22q0 13 -8.5 22t-22.5 9zM173 188v268h77v-360q1 -2 1 -5t-1 -5v-2v-1q-2 -19 -10 -35.5t-21.5 -28.5t-30.5 -19.5t-37 -7.5q-21 0 -39 7.5t-31.5 21t-21 32t-7.5 38.5q0 21 7.5 39t21 31.5t31.5 21t39 7.5 q11 0 22 -2z" />
<glyph unicode="&#x1068;" horiz-adv-x="351" d="M248 706q19 0 36 -7t29.5 -19.5t19.5 -29t7 -36.5q0 -19 -7 -35.5t-19.5 -29.5t-29.5 -20t-36 -7t-36 7t-29.5 20t-20 29.5t-7.5 35.5q0 20 7.5 36.5t20 29t29.5 19.5t36 7zM248 643q-13 0 -21 -8.5t-8 -20.5q0 -13 8 -20.5t21 -7.5q12 0 20.5 7.5t8.5 20.5 q0 12 -8.5 20.5t-20.5 8.5zM52 67h163v387h79v-426q0 -16 -11.5 -27.5t-28.5 -11.5h-202v78z" />
<glyph unicode="&#x1069;" horiz-adv-x="347" d="M240 93v12l78 -24q-2 -20 -11 -36.5t-22.5 -29.5t-31.5 -19.5t-39 -6.5h-60q-22 0 -41 8t-33 22.5t-22.5 33.5t-8.5 40v64q0 23 8.5 41.5t22.5 33t33 22.5t41 8h44q9 0 16.5 8t7.5 19v60q0 11 -7.5 18.5t-16.5 7.5h-61q-12 0 -19 -7.5t-7 -18.5v-11l-79 24q2 19 11 36 t23 29.5t32 19.5t39 7h61q21 0 40 -8t33 -22.5t22.5 -33.5t8.5 -41v-60q0 -23 -8.5 -41.5t-22.5 -33t-33 -22.5t-40 -8h-44q-11 0 -18 -7.5t-7 -19.5v-64q0 -10 7 -17.5t18 -7.5h60q11 0 18.5 7.5t7.5 17.5z" />
<glyph unicode="&#x106a;" horiz-adv-x="414" d="M115 93q0 -11 7 -18t18 -7h121q10 0 16.5 7t6.5 18v362h81l1 -362q0 -22 -8.5 -40.5t-22.5 -33t-33.5 -22.5t-40.5 -8h-121q-19 0 -37.5 6.5t-32 19t-22.5 29.5t-12 36l79 25v-12z" />
<glyph unicode="&#x106b;" horiz-adv-x="420" d="M115 339l-79 24q3 20 12 37t22.5 29t32 19t37.5 7h121q21 0 40.5 -8t33.5 -22.5t22.5 -33.5t8.5 -41l-1 -361h-81v361q0 12 -6.5 19t-16.5 7h-121q-11 0 -18 -7t-7 -19v-11z" />
<glyph unicode="&#x106c;" horiz-adv-x="405" d="M287 105l79 -25q-3 -19 -12 -36t-23 -29.5t-32 -19t-37 -6.5h-121q-21 0 -40.5 8t-34 22.5t-22.5 33t-8 40.5l1 362h81v-362q0 -11 6 -18t17 -7h121q11 0 18 7t7 18v12z" />
<glyph unicode="&#x106d;" horiz-adv-x="361" d="M112 93q0 -10 7 -17.5t19 -7.5h60q10 0 17.5 7.5t7.5 17.5v64q0 12 -7.5 19.5t-17.5 7.5h-44q-21 0 -40.5 8t-33.5 22.5t-22 33t-8 41.5v60q0 22 8 41t22 33.5t33.5 22.5t40.5 8h61q20 0 38 -7t32 -19.5t23 -29.5t12 -36l-79 -24v11q0 11 -7.5 18.5t-18.5 7.5h-61 q-10 0 -17 -7.5t-7 -18.5v-60q0 -11 7 -19t17 -8h44q22 0 40.5 -8t33 -22.5t23 -33t8.5 -41.5v-64q0 -21 -8.5 -40t-23 -33.5t-33 -22.5t-40.5 -8h-60q-21 0 -39 6.5t-32 19.5t-22.5 29.5t-10.5 36.5l78 24v-12z" />
<glyph unicode="&#x106e;" horiz-adv-x="974" d="M118 144q0 -12 6.5 -25t18 -25t27 -22t34.5 -15l-30 -68q-28 9 -52.5 25t-43 36t-29 44t-10.5 50v133q0 34 17 66t46 57t66.5 39.5t77.5 14.5q43 -1 80 -15.5t66 -39.5q15 24 42 39t58 15t59 -15.5t43 -38.5q28 25 66 40t80 15q40 -1 77 -14.5t64.5 -37t44 -54 t16.5 -63.5v-131q0 -33 -16.5 -62.5t-44 -52t-62 -36.5t-70.5 -15h-21q-1 9 -3.5 27.5t-7.5 47.5q15 -2 27 -2q25 1 47 10.5t38 23t25 29.5t9 30v131q0 18 -10 34.5t-27 30t-39.5 22t-47.5 8.5q-24 0 -45.5 -8t-38.5 -21.5t-28.5 -30.5t-13.5 -33v-9t-0.5 -21t-0.5 -30v-34 v-91q0 -19 -6.5 -36.5t-17.5 -32.5t-26 -26.5t-33 -17.5q-3 9 -10 27t-19 47q12 3 22 12.5t10 26.5v232q0 10 -4.5 17.5t-10.5 12.5t-13 8t-12 3q-6 0 -13.5 -3.5t-14 -8.5t-11 -13.5t-4.5 -18.5v-187q0 -27 -11.5 -51.5t-30.5 -45.5t-45 -36.5t-55 -23.5l-27 69 q20 5 36.5 15t28.5 22.5t18.5 25.5t6.5 25v141q0 18 -10 34.5t-27 30t-39.5 22t-48.5 8.5q-25 0 -48 -9.5t-40.5 -25t-28 -33.5t-10.5 -35v-133z" />
<glyph unicode="&#x106f;" horiz-adv-x="811" d="M368 169v129q0 11 -5 23.5t-13.5 24.5t-20.5 22t-26 17l28 68q23 -10 43 -28t36 -36q29 33 72.5 50t91.5 16q40 -1 76.5 -15t64 -37t44 -52.5t16.5 -62.5v-129q0 -3 -0.5 -6.5t-1.5 -7.5v-428q0 -15 -11.5 -26.5t-25.5 -11.5h-235v76h195v279q-51 -36 -114 -40 q-10 -1 -19 0q-1 9 -3.5 28t-7.5 47q6 -2 13 -2h13q25 1 46.5 10.5t37 23t24.5 29t9 29.5v129q0 17 -9.5 34t-26.5 30t-39 21t-47 8q-25 1 -48 -6.5t-40.5 -21.5t-27.5 -31t-10 -34v-119q0 -34 -17.5 -66t-46 -56.5t-65.5 -39t-77 -14.5q-40 1 -76.5 15t-64 37t-43.5 53 t-16 63v137q0 24 9 47.5t25 44t37 37t45 26.5l28 -68q-14 -6 -26 -16.5t-20.5 -23t-13.5 -25t-5 -22.5v-137q0 -18 9.5 -34.5t26.5 -29.5t39.5 -21.5t47.5 -8.5q24 0 47 9.5t40.5 24.5t27.5 33t10 35z" />
<glyph unicode="&#x1070;" horiz-adv-x="817" d="M508 -242h196v271q-53 -36 -122 -37q-48 -1 -91.5 19.5t-72.5 54.5q-29 -33 -72 -53t-93 -21q-41 -1 -78.5 13.5t-66 39.5t-45.5 57t-17 66v28q0 37 18 67.5t51 53.5q11 9 22 17t11 18q0 7 -6.5 15.5t-17.5 13.5t-25.5 5t-31.5 -9l-23 68q27 9 58.5 9t58.5 -11t45 -33.5 t18 -57.5q0 -31 -17 -51.5t-37 -37.5q-19 -14 -32 -32.5t-13 -34.5v-28q0 -17 10.5 -35t27.5 -33.5t40 -25t49 -9.5q25 0 47.5 8t39.5 21.5t27 30.5t10 34v146q0 21 -18.5 43t-48.5 36l29 69q24 -11 45 -26.5t37 -34.5t25 -41t9 -46v-135v-2q0 -17 10.5 -35t27.5 -33.5 t40 -25t49 -9.5q24 0 46 8t39 21t27 29t11 33v8v125q0 15 -9 30.5t-25 29t-37.5 23t-46.5 11.5q-6 0 -12.5 -0.5t-13.5 -1.5l11 75h19q37 -2 72 -16t62 -37t43.5 -52t16.5 -62v-130q0 -4 -0.5 -9t-0.5 -11v-420q0 -16 -12 -28t-27 -12h-236v79z" />
<glyph unicode="&#x1071;" horiz-adv-x="489" d="M131 599q-8 0 -13.5 -4.5t-5.5 -13.5q0 -8 5.5 -12.5t13.5 -4.5t13 4.5t5 12.5q0 9 -5 13.5t-13 4.5zM131 663q17 0 31.5 -7t25.5 -17.5t17.5 -25.5t6.5 -32t-6.5 -31.5t-17.5 -26t-25.5 -17.5t-31.5 -6t-32 6t-26 17.5t-17 26t-6 31.5t6 32t17 25.5t26 17.5t32 7z M360 599q-8 0 -14 -4.5t-6 -13.5q0 -8 6 -12.5t14 -4.5q7 0 12.5 4.5t5.5 12.5q0 9 -5.5 13.5t-12.5 4.5zM360 663q16 0 31 -7t26 -17.5t17 -25.5t6 -32t-6 -31.5t-17 -26t-26 -17.5t-31 -6q-17 0 -32 6t-26 17.5t-17 26t-6 31.5t6 32t17 25.5t26 17.5t32 7z" />
<glyph unicode="&#x1072;" d="M-216 454q-34 0 -63 12t-51 33t-34 49t-12 59q0 32 12 60t34 49t51 33.5t63 12.5q22 0 44 -7t40 -18t33 -26.5t25 -34.5l-64 -31q-5 9 -13 18.5t-18.5 16t-22.5 9.5t-25 3q-18 0 -34.5 -6t-28 -18t-18.5 -27.5t-7 -33.5q0 -17 7 -32.5t18.5 -27.5t28 -18t34.5 -6 q23 0 43 10.5t32 29.5l64 -31q-11 -17 -25.5 -31.5t-32 -25t-38.5 -16t-42 -5.5z" />
<glyph unicode="&#x1073;" d="M-410 553l130 126q15 15 26 22.5t22 8.5t22 -5.5t25 -19.5l130 -135l-49 -49l-128 128l-129 -126z" />
<glyph unicode="&#x1074;" d="M-361 719l129 -126l128 128l49 -49l-130 -135q-14 -14 -25 -20t-22 -5.5t-22 8.5t-26 23l-130 126z" />
<glyph unicode="&#x1075;" horiz-adv-x="504" d="M256 454q29 0 64.5 -11.5t66.5 -34t52 -55.5t21 -76v-2v-136q0 -24 -9.5 -46.5t-25.5 -42t-37 -35t-46 -26.5l-29 69q31 14 49 37t18 44v146q0 18 -10 35t-27 30t-40 21.5t-48 8.5t-48.5 -9t-41 -25t-28 -34t-10.5 -35v-29q0 -17 13 -35t32 -33q22 -16 38.5 -37.5 t16.5 -52.5q0 -36 -18 -58.5t-45.5 -33.5t-59 -11t-58.5 10l22 68q17 -9 32.5 -9t26.5 5t17 13.5t6 15.5q0 11 -10.5 19.5t-22.5 16.5q-34 24 -51.5 55t-17.5 67v29q0 35 17 67t46 56.5t66.5 39t78.5 14.5z" />
<glyph unicode="&#x1076;" horiz-adv-x="468" d="M99 151q6 -19 19.5 -35.5t33 -29t42 -19.5t45.5 -6q24 2 45 10.5t37 21.5q-16 28 -42.5 48.5t-57.5 29t-63 4.5t-59 -24zM89 213q34 17 71.5 19.5t74 -7t68.5 -30t55 -50.5v10v131q0 14 -2.5 28t-9.5 26t-18.5 21.5t-30.5 14.5q-12 3 -23.5 6t-22 3.5t-18 -2.5t-9.5 -11 q-3 -7 -5.5 -15t-7.5 -19q-9 -26 -29 -44t-52 -18q-36 0 -57 15t-32 38.5t-13.5 52.5t-0.5 57l83 16q-12 -29 -12.5 -48.5t4.5 -31.5t12.5 -17t15.5 -5q11 0 17 9t9 23q4 23 11 36.5t17 20.5t24 10t32 3q13 -2 26 -3q10 -2 22.5 -4t22.5 -6q28 -11 51 -27t40 -36.5 t26.5 -43.5t9.5 -49v-131q0 -33 -17 -62.5t-44 -52.5t-62 -37t-71 -15q-39 -2 -77 10t-69 34.5t-50.5 53t-20.5 66.5q8 19 22 33t40 28z" />
<glyph unicode="&#x1077;" horiz-adv-x="485" d="M373 154q-26 -15 -43.5 -40t-21.5 -56q29 14 47 36.5t18 43.5v16zM263 -14q-11 37 -8 72.5t18.5 65.5t40.5 53.5t59 35.5v72q0 17 -9 34t-26 30.5t-39.5 22t-50.5 8.5q-30 0 -53.5 -10t-40 -25t-25.5 -33t-9 -36v-29q0 -17 13 -35t32 -32q21 -17 38 -38t17 -53 q0 -36 -18 -58.5t-45 -33.5t-59 -11t-59 10l22 68q18 -9 32.5 -9t25.5 5.5t17.5 13.5t6.5 15q0 11 -11 19.5t-22 16.5q-34 24 -52 55t-18 67v29q0 35 15 67t42.5 56.5t66 39t85.5 14.5q35 0 71 -11.5t65.5 -34t48.5 -55.5t19 -76v-2v-136q0 -24 -9 -46.5t-25 -42t-38 -35 t-46 -25.5z" />
<glyph unicode="&#x1078;" horiz-adv-x="815" d="M779 155q0 -24 -9 -46t-24 -41t-36 -34.5t-45.5 -25.5t-50 -15.5t-51.5 -3.5q-24 0 -48 7t-45.5 18t-40 26.5t-31.5 33.5t-21 38.5t-8 42.5v121q0 18 -10.5 36t-28 33.5t-40.5 25t-48 9.5t-48 -8.5t-39.5 -22t-26.5 -30t-10 -34.5v-130q0 -15 9 -30.5t25 -29t38 -23 t47 -10.5q14 -1 26 1q-4 -29 -7 -47t-3 -27h-21q-36 1 -71 15t-62 36.5t-43.5 52t-16.5 62.5v130q0 33 16 63.5t44 54t65 37t77 13.5q24 0 47.5 -5t44.5 -15t39.5 -24t33.5 -30q14 16 32.5 29.5t39.5 23.5t44.5 15.5t49.5 5.5t51.5 -6.5t49 -18.5t43 -28.5t33.5 -36t22 -42 t8 -45.5v-121zM699 276q0 18 -10 36t-27.5 33.5t-40.5 25t-49 9.5q-25 -1 -47 -9.5t-39.5 -21.5t-27 -29.5t-9.5 -34.5v-130q0 -15 9 -30.5t25 -29t37.5 -23t46.5 -10.5q27 -1 50.5 7.5t42 22t29 30.5t10.5 33v121z" />
<glyph unicode="&#x1079;" horiz-adv-x="828" d="M123 146q2 -14 12 -28.5t26 -26.5t36 -21t44 -9h2q-14 37 -46 60.5t-74 24.5zM706 276q0 18 -10 36t-28 33.5t-41 25t-48 9.5q-26 0 -48.5 -8.5t-39.5 -21.5t-27 -30t-10 -35v-131q0 -15 9.5 -31t25.5 -29.5t38 -23t46 -9.5q27 -2 51 6.5t42.5 22.5t29 31t10.5 33v122z M786 154q0 -36 -19.5 -67t-50 -54t-69.5 -35.5t-78 -10.5q-37 2 -72 15.5t-62 36.5t-44 52.5t-17 62.5v121v1q0 18 -10.5 36t-28 33.5t-40.5 25t-48 9.5q-26 0 -48.5 -8.5t-39.5 -21.5t-27 -30t-10 -35v-86q40 0 75.5 -16.5t60.5 -45t37 -66t8 -80.5l-46 -4h-20 q-37 2 -72 15.5t-62 36.5t-43.5 52.5t-16.5 62.5v131q0 33 16 63.5t44 54t65 37t78 14.5q49 1 92.5 -20t73.5 -55q28 33 71.5 53.5t93.5 21.5q40 0 78 -14.5t67 -39.5t46.5 -57t17.5 -67v-122z" />
<glyph unicode="&#x107a;" horiz-adv-x="819" d="M585 453q37 -1 71.5 -15t61.5 -36t44 -51.5t17 -61.5v-131q0 -33 -16.5 -63t-44.5 -53t-64.5 -37t-76.5 -14q-35 -1 -68.5 10t-60.5 32v-276h87v-78h-127q-15 0 -26.5 12t-11.5 28l1 559q0 17 -10 35t-27.5 33.5t-40.5 24.5t-49 9q-24 0 -46.5 -8t-40 -21t-27 -30 t-9.5 -34v-130q0 -14 9 -29.5t25 -29.5t38 -23t46 -11q7 -1 13.5 -0.5t13.5 1.5q-4 -28 -6.5 -46.5t-4.5 -27.5q-11 -2 -20 0q-36 2 -70.5 15.5t-62 36.5t-44 52t-16.5 62v130q0 33 16.5 63t44 53t64 36.5t76.5 14.5q40 0 77.5 -14.5t66 -39t45.5 -56.5t17 -66v-116 q2 -16 12.5 -33.5t27.5 -32.5t39.5 -24t47.5 -8q25 0 47.5 8t39.5 21.5t26.5 30.5t9.5 34v131q0 14 -9 29.5t-25 29t-37.5 22.5t-46.5 10h-13t-14 -1q4 29 7 47t5 27q10 1 19 0z" />
<glyph unicode="&#x107b;" horiz-adv-x="821" d="M705 146q-42 -1 -74 -24.5t-46 -60.5h2q23 0 43.5 9t36.5 21t26 26.5t12 28.5zM122 276v-122q0 -16 10.5 -33t29 -31t42.5 -22.5t51 -6.5q25 0 46.5 9.5t37.5 23t25.5 29.5t9.5 31v131q0 18 -10 35t-27 30t-39.5 21.5t-48.5 8.5q-25 0 -48 -9.5t-40.5 -25t-28 -33.5 t-10.5 -36zM43 276q0 35 17 67t46 57t66.5 39.5t78.5 14.5q50 -1 94 -21.5t72 -53.5q29 34 72.5 55t92.5 20q41 -1 78 -14.5t65 -37t44.5 -54t16.5 -63.5v-131q0 -33 -17 -62.5t-44 -52.5t-62 -36.5t-72 -15.5h-19l-46 4q-5 43 7 80.5t37 66t60 45t76 16.5v86q0 18 -10 35 t-27 30t-39.5 21.5t-48.5 8.5q-25 0 -48 -9.5t-40.5 -25t-28 -33.5t-10.5 -36v-1v-121q0 -33 -16.5 -62.5t-44 -52.5t-62.5 -36.5t-72 -15.5q-38 -2 -77 10.5t-70 35.5t-50 54t-19 67v122z" />
<glyph unicode="&#x107c;" horiz-adv-x="811" d="M703 153q-27 20 -59 24t-63.5 -4.5t-58 -28.5t-41.5 -49q15 -13 36 -21t45 -10q23 -2 46 5t42 20t33 29t20 35zM102 153q6 -19 20 -35t33.5 -29t42 -20t46.5 -5q23 2 44 10t37 21q-17 29 -43 49t-57 28.5t-63 4.5t-60 -24zM93 216q33 17 71.5 19.5t75 -7.5t68 -30.5 t54.5 -49.5v9v132q0 17 -9.5 34t-27 30.5t-40 21.5t-47.5 8q-56 0 -91 -24t-47 -59l-70 39q27 63 83 91t126 28q50 0 92.5 -20.5t71.5 -51.5q28 31 71 51.5t92 20.5q70 0 126 -28t84 -91l-71 -39q-11 35 -46.5 59t-91.5 24q-25 0 -47.5 -8t-40 -21.5t-27 -30.5t-9.5 -34 v-132q0 -6 1 -9q22 29 54 49.5t68.5 30.5t74 7.5t71.5 -19.5q26 -14 40 -28.5t22 -33.5q-1 -35 -20.5 -66t-50.5 -53.5t-69.5 -34t-76.5 -10.5q-45 3 -86 22t-68 50q-28 -31 -69 -50t-86 -22q-38 -1 -76.5 10.5t-69.5 34t-50.5 53.5t-20.5 66q8 19 22 33.5t40 28.5z" />
<glyph unicode="&#x107d;" horiz-adv-x="830" d="M727 149q-28 20 -60 23.5t-62.5 -5t-57.5 -28t-43 -48.5q17 -13 38 -21.5t44 -9.5q23 -2 46 5t42 19.5t33 29t20 35.5zM263 -13q-41 0 -78 14.5t-66.5 39.5t-46.5 57t-17 66v29q0 37 18 67t52 54q12 8 22 16.5t10 19.5q0 8 -6 16t-16.5 13.5t-26 5.5t-32.5 -9l-23 68 q27 9 59 9t59 -11t45.5 -34t18.5 -58q0 -31 -17 -52t-38 -37q-19 -15 -32 -33t-13 -35v-29q0 -17 10.5 -35.5t28 -33.5t40.5 -24.5t48 -9.5q26 0 48.5 8.5t39.5 21.5t27 30.5t10 34.5v146q0 20 -18.5 43t-47.5 37l28 69q25 -11 46.5 -27t38.5 -35q28 28 69 46t87 18 q71 0 126.5 -27.5t83.5 -90.5l-70 -40q-12 36 -47.5 60t-91.5 24q-25 0 -47.5 -8.5t-40 -22t-27 -30t-9.5 -33.5v-132v-4.5v-5.5q23 30 55 50.5t68.5 30.5t74.5 7.5t71 -19.5q27 -14 40.5 -28.5t22.5 -33.5q-1 -35 -21 -66t-50.5 -53.5t-69 -34.5t-77.5 -10q-44 3 -85.5 23 t-69.5 51q-17 -18 -37.5 -31.5t-42 -23t-43.5 -14t-40 -4.5z" />
<glyph unicode="&#x107e;" horiz-adv-x="826" d="M717 152q-27 19 -59 23t-63 -4.5t-57.5 -29t-42.5 -48.5q17 -13 37.5 -21t43.5 -10q23 -1 46 6t42 19t33 29t20 36zM255 -11q-40 0 -77.5 15t-66.5 39.5t-46 56.5t-17 66v28q0 37 18 68t50 55q13 6 23.5 14.5t10.5 19.5q0 7 -6 16t-17 13.5t-26.5 4.5t-32.5 -8l-22 68 q27 9 58.5 9t59 -11t45.5 -34t18 -58q0 -31 -16.5 -52t-38.5 -37q-19 -14 -31.5 -32t-12.5 -36v-28q0 -17 10 -35.5t27.5 -33.5t40.5 -24.5t48 -9.5q26 0 48.5 8.5t39 22t26.5 30t10 33.5v146q0 20 -18.5 43t-47.5 37l28 69q25 -10 46.5 -26.5t38.5 -36.5q28 29 69 46.5 t87 17.5q70 0 125.5 -27t83.5 -90l-70 -39q-12 35 -47 59t-91 24q-25 0 -47.5 -8.5t-40 -22t-27 -30t-9.5 -34.5v-130q0 -6 1 -9q22 29 53.5 49.5t68 30t74 7t71.5 -19.5q26 -14 40 -28.5t23 -32.5q-1 -36 -20.5 -66t-50.5 -52.5t-69.5 -34.5t-76.5 -10q-15 0 -30.5 3.5 t-29.5 8.5l-41 -270q0 -15 -11.5 -27t-27.5 -12h-126v78h91l41 271q-6 4 -11 10t-11 11q-17 -18 -37 -31.5t-41.5 -23t-43 -14t-39.5 -4.5z" />
<glyph unicode="&#x107f;" horiz-adv-x="510" d="M126 251q13 2 24 8.5t18.5 16.5t12.5 23t6 25.5t-2.5 24.5t-11.5 21q-21 -14 -34 -33.5t-13 -39.5v-46zM468 162q0 -25 -9.5 -47.5t-25 -42.5t-37 -36t-46.5 -26.5t-52 -16t-54 -4.5q-37 3 -73 17t-64 37.5t-46 54t-18 64.5v135q0 24 9 47t24.5 43t36.5 36t47 27l45 -16 q27 -19 39.5 -44.5t13.5 -53.5t-8.5 -55t-27.5 -49t-42.5 -36t-53.5 -15v-19q0 -15 9.5 -31.5t26 -30.5t39 -23.5t47.5 -10.5q28 -2 53 7t43.5 23t29.5 31.5t11 34.5v126q0 12 -5 25t-14.5 25.5t-22.5 23.5t-29 18l28 72q27 -12 50 -29t40 -39t26.5 -46.5t9.5 -49.5v-126z " />
<glyph unicode="&#x1080;" horiz-adv-x="809" d="M103 151q6 -19 20 -35.5t33 -29t42 -19.5t46 -6q24 2 44.5 10.5t37.5 21.5q-17 28 -43 48.5t-57.5 29t-63.5 4.5t-59 -24zM94 213q33 17 71 19.5t74.5 -7t68.5 -30t54 -50.5q1 3 1 10v131q0 17 -9.5 34.5t-27 30.5t-40 21t-47.5 8q-56 0 -91.5 -23.5t-46.5 -58.5l-71 39 q28 62 84 90t125 28q41 0 78 -14t65 -37.5t44.5 -54t16.5 -63.5v-123q1 -17 11.5 -35t27.5 -33t40 -24.5t49 -9.5q25 0 47.5 9t40 22t27 30t9.5 35v131q0 14 -9.5 30t-25 29.5t-37.5 22.5t-47 10q-6 1 -13 0.5t-14 -0.5q4 28 6.5 47t4.5 28h21q36 -2 70.5 -15.5t62 -36.5 t44.5 -52.5t17 -62.5v-131q0 -34 -16.5 -64t-44.5 -53.5t-64.5 -37t-77.5 -14.5q-50 -1 -93.5 20t-72.5 55q-29 -32 -70.5 -52.5t-87.5 -22.5q-38 -2 -76 10t-69 34.5t-51 53t-21 66.5q9 19 23 33t40 28z" />
<glyph unicode="&#x1081;" horiz-adv-x="499" d="M46 -243h46l47 254q-5 3 -11 6q-26 16 -44.5 37t-29.5 46t-11 53v131q0 34 16.5 64.5t45 54t65.5 37.5t78 15q41 0 78.5 -14.5t66 -38.5t47 -55.5t19.5 -66.5v-80h-79v76q0 18 -11 36t-29 33.5t-41.5 25t-49.5 9.5q-25 0 -48 -9t-40.5 -22.5t-27.5 -30.5t-10 -34v-50 q39 -9 70.5 -31.5t51 -54.5t25.5 -70.5t-5 -78.5l-52 -4l-45 -276q0 -8 -3 -15t-8 -12t-12 -8.5t-15 -3.5h-84v77zM218 61q-3 41 -28 72.5t-67 44.5v-25q0 -14 7 -27.5t19.5 -26.5t30 -23t38.5 -15z" />
<glyph unicode="&#x1082;" d="M-230 -11q15 0 30 -2l-9 -64q-5 1 -10.5 1.5t-10.5 0.5q-20 0 -37.5 -7t-30.5 -19.5t-20.5 -29t-7.5 -35.5t7.5 -34.5t20.5 -28t30.5 -19.5t37.5 -7q24 0 45 10.5t33 29.5l58 -35q-22 -31 -57.5 -50.5t-78.5 -19.5q-34 0 -64 12t-52 33t-35 49t-13 60t13 60.5t35 49.5 t52 33t64 12z" />
<glyph unicode="&#x1083;" horiz-adv-x="451" d="M341 -220v11l75 -24q-3 -19 -11.5 -34.5t-21.5 -27.5t-30.5 -18.5t-35.5 -6.5h-26q-21 0 -39 8t-31.5 21.5t-21.5 31.5t-8 39l2 574q0 10 -6.5 17.5t-16.5 7.5h-26q-10 0 -17 -7.5t-7 -17.5v-11l-74 24q2 18 10.5 34t21.5 27.5t30 18.5t36 7h26q20 0 38.5 -7.5t32 -21 t21.5 -32t8 -39.5l-1 -574q0 -10 5.5 -17.5t16.5 -7.5h26q9 0 16.5 7.5t7.5 17.5z" />
<glyph unicode="&#x1084;" horiz-adv-x="477" d="M441 362q2 -8 3 -15t3 -13q-7 -4 -25 -15.5t-46 -27.5q0 9 -2 18.5t-3 18.5q-4 16 -17.5 26t-30.5 16t-37 8t-38 2q-24 0 -47.5 -4t-42 -12.5t-29 -22.5t-8.5 -35q2 -17 20 -25.5t42.5 -11.5t49.5 -3h40v-80q-14 0 -37.5 -0.5t-48 -4.5t-43 -13.5t-21.5 -27.5 q-7 -42 23 -61t97 -19q37 0 62.5 5.5t41 16.5t22.5 27t7 39l71 -42q-3 -30 -15.5 -52.5t-37 -37.5t-63 -23t-92.5 -8q-106 0 -156.5 39.5t-42.5 128.5q3 33 17 50t41 23q-24 9 -39.5 25.5t-18.5 42.5q-3 47 11.5 78t42 49.5t66.5 25.5t87 7q45 0 78.5 -4.5t57 -15.5 t37.5 -28.5t21 -43.5z" />
<glyph unicode="&#x1085;" d="M-200 531q23 0 36.5 10t19.5 27l56 -37q-15 -31 -44.5 -49t-70.5 -18h-45q-26 0 -48 4.5t-38 15t-25.5 27.5t-9.5 41q0 18 4.5 30t10.5 18q6 8 15 13q-9 5 -15 13q-7 7 -11.5 17.5t-4.5 24.5q0 26 9.5 43t26 27.5t38.5 15.5t48 5h45q37 0 64.5 -15t45.5 -41l-55 -38 q-16 27 -52 27h-50q-24 0 -39 -4.5t-15 -24.5q0 -5 3.5 -9.5t9.5 -6.5t11.5 -4t9.5 -2h67v-59h-71q-2 0 -7 -2t-10 -5t-8.5 -7.5t-3.5 -9.5q0 -9 5 -14t14 -8t20.5 -4t23.5 -1h40z" />
<glyph unicode="&#x1086;" d="M-182 621l-98 -167l-58 34l55 95q-29 9 -47.5 33t-18.5 56q0 18 7 34.5t19.5 29t29 19.5t35.5 7t35 -7t28.5 -19.5t20 -29t7.5 -34.5q0 -29 -15 -51zM-258 699q-13 0 -21 -8t-8 -19q0 -14 8 -21t21 -7q11 0 19.5 7t8.5 21q0 11 -8.5 19t-19.5 8z" />
<glyph unicode="&#x1087;" horiz-adv-x="267" d="M207 29l-99 -171l-60 35l56 97q-29 9 -48 33.5t-19 56.5q0 20 7.5 37t20 29t29.5 19.5t36 7.5t36 -7.5t29.5 -19.5t20 -29t7.5 -37q0 -28 -16 -51zM130 108q-14 0 -22 -8t-8 -20q0 -14 8 -21t22 -7q12 0 20.5 7t8.5 21q0 12 -8.5 20t-20.5 8z" />
<glyph unicode="&#x1088;" horiz-adv-x="267" d="M130 458q18 0 35 -7t29.5 -19.5t19.5 -29.5t7 -35q0 -19 -7 -36t-19.5 -29.5t-29.5 -20t-35 -7.5q-19 0 -35.5 7.5t-29 20t-19.5 29.5t-7 36q0 18 7 35t19.5 29.5t29 19.5t35.5 7zM130 394q-13 0 -21 -8t-8 -19q0 -14 8 -21t21 -7q12 0 20 7t8 21q0 11 -8 19t-20 8z M207 29l-99 -171l-60 35l56 97q-29 9 -48 33.5t-19 56.5q0 20 7.5 37t20 29t29.5 19.5t36 7.5t36 -7.5t29.5 -19.5t20 -29t7.5 -37q0 -28 -16 -51zM130 108q-14 0 -22 -8t-8 -20q0 -14 8 -21t22 -7q12 0 20.5 7t8.5 21q0 12 -8.5 20t-20.5 8z" />
<glyph unicode="&#x1089;" horiz-adv-x="267" d="M130 175q18 0 35 -6.5t29.5 -19t19.5 -29.5t7 -36q0 -18 -7 -35t-19.5 -29.5t-29.5 -20t-35 -7.5q-19 0 -35.5 7.5t-29 20t-19.5 29.5t-7 35q0 19 7 36t19.5 29.5t29 19t35.5 6.5zM130 112q-13 0 -21 -8t-8 -20q0 -13 8 -20t21 -7q12 0 20 7t8 20q0 12 -8 20t-20 8z" />
<glyph unicode="&#x108a;" horiz-adv-x="380" d="M180 10q-24 -16 -52 -16q-20 0 -36.5 7.5t-29 20t-20 29.5t-7.5 37q0 19 7.5 35.5t20 29.5t29 20t36.5 7q32 0 56.5 -18.5t33.5 -48.5l97 57l35 -61zM100 88q0 -13 8 -21.5t20 -8.5q14 0 21.5 8.5t7.5 21.5t-7.5 21t-21.5 8q-12 0 -20 -8t-8 -21zM180 280 q-24 -16 -52 -16q-20 0 -36.5 7.5t-29 20t-20 29.5t-7.5 37q0 18 7.5 35t20 29.5t29 20t36.5 7.5q32 0 56.5 -19t33.5 -48l97 57l35 -61zM100 358q0 -13 8 -21.5t20 -8.5q14 0 21.5 8.5t7.5 21.5t-7.5 21t-21.5 8q-12 0 -20 -8t-8 -21z" />
<glyph unicode="&#x108b;" horiz-adv-x="268" d="M130 309q18 0 35 -7t29.5 -19t19.5 -29t7 -36t-7 -35.5t-19.5 -29.5t-29.5 -20.5t-35 -7.5q-19 0 -35.5 7.5t-29 20.5t-19.5 29.5t-7 35.5t7 36t19.5 29t29 19t35.5 7zM130 246q-13 0 -21 -8t-8 -20q0 -13 8 -20.5t21 -7.5q12 0 20 7.5t8 20.5q0 12 -8 20t-20 8z" />
<glyph unicode="&#x108c;" horiz-adv-x="552" d="M130 309q18 0 35 -7t29.5 -19t19.5 -29t7 -36t-7 -35.5t-19.5 -29.5t-29.5 -20.5t-35 -7.5q-19 0 -35.5 7.5t-29 20.5t-19.5 29.5t-7 35.5t7 36t19.5 29t29 19t35.5 7zM130 246q-13 0 -21 -8t-8 -20q0 -13 8 -20.5t21 -7.5q12 0 20 7.5t8 20.5q0 12 -8 20t-20 8zM421 309 q19 0 35.5 -7t29 -19t19.5 -29t7 -36t-7 -35.5t-19.5 -29.5t-29 -20.5t-35.5 -7.5t-35.5 7.5t-29 20.5t-19.5 29.5t-7 35.5t7 36t19.5 29t29 19t35.5 7zM421 246q-13 0 -21 -8t-8 -20q0 -13 8 -20.5t21 -7.5q12 0 20 7.5t8 20.5q0 12 -8 20t-20 8z" />
<glyph unicode="&#x108d;" d="M-414 -83h363v-76h-363v76z" />
<glyph unicode="&#x108e;" horiz-adv-x="489" d="M177 361q4 -15 15 -24t25 -13t29 -3.5t28.5 5.5t23 14.5t12.5 22.5q-12 8 -26.5 11.5t-30.5 4.5q-21 1 -40 -4t-36 -14zM121 165q0 -17 10 -35t27 -33.5t40.5 -25t48.5 -9.5t47.5 8.5t39.5 22t27 30t10 34.5v130q0 12 -7 25q-11 -21 -30 -34.5t-41 -20.5t-46 -7 t-46.5 6.5t-42 19.5t-33.5 32q-4 -11 -4 -21v-122zM42 287q0 23 8.5 45t24 41t36.5 34t45 26t49.5 15.5t51.5 4.5q36 -2 70.5 -16t62 -36.5t44 -51.5t16.5 -62v-130q0 -33 -16.5 -63.5t-44 -53.5t-64 -37t-77.5 -14q-27 0 -52.5 6.5t-48.5 18.5t-42.5 28.5t-33.5 36 t-21.5 42t-7.5 44.5v122z" />
<glyph unicode="&#x108f;" horiz-adv-x="261" d="M130 458q19 0 35.5 -7t29 -19.5t19.5 -29.5t7 -35q0 -19 -7 -36t-19.5 -29.5t-29 -20t-35.5 -7.5q-18 0 -35 7.5t-29.5 20t-19.5 29.5t-7 36q0 18 7 35t19.5 29.5t29.5 19.5t35 7zM130 394q-12 0 -20 -8t-8 -19q0 -14 8 -21t20 -7q13 0 21 7t8 21q0 11 -8 19t-21 8z M52 29q-15 23 -15 51q0 20 7.5 37t20 29t29.5 19.5t36 7.5t36 -7.5t29.5 -19.5t20 -29t7.5 -37q0 -32 -19 -56.5t-48 -33.5l56 -97l-60 -35zM130 108q-12 0 -20.5 -8t-8.5 -20q0 -14 8.5 -21t20.5 -7q13 0 21.5 7t8.5 21q0 12 -8.5 20t-21.5 8z" />
<glyph unicode="&#x1090;" horiz-adv-x="451" d="M106 591v-444q0 -15 10 -31t27.5 -29t40.5 -21t48 -6q23 1 43.5 9.5t36 21t24 27.5t8.5 29v452q0 17 -9 33t-25 28.5t-38 21t-46 8.5t-46 -9t-38.5 -23.5t-26 -32t-9.5 -34.5zM30 591q0 33 16.5 63.5t44 53.5t63 37t74.5 14q38 -1 72.5 -14t61 -34.5t42 -50.5t15.5 -61 v-452q0 -31 -15.5 -59t-41.5 -49.5t-58.5 -34.5t-67.5 -15q-37 -1 -74 10.5t-66.5 33t-47.5 51t-18 63.5v444z" />
<glyph unicode="&#x1091;" horiz-adv-x="351" d="M124 683l-63 -35l-36 66l82 46q16 8 34.5 5t34 -14.5t26 -30.5t10.5 -43v-593q0 -5 5 -10t12 -1l57 44l47 -58q-22 -16 -37.5 -27.5t-25.5 -18t-16 -10.5t-8 -5q-22 -13 -42 -9t-35.5 18.5t-24 35t-8.5 41.5v593q0 4 -2.5 6t-9.5 0z" />
<glyph unicode="&#x1092;" horiz-adv-x="454" d="M35 554v206h74v-37q25 17 55 26.5t62 10.5q38 0 72.5 -13.5t61.5 -36t43.5 -51.5t17.5 -61v-136q0 -22 -7 -51.5t-18 -62t-23.5 -66.5t-23 -63.5t-17.5 -52.5t-7 -35q1 -37 10 -65t18 -45l-64 -32q-10 22 -18 45q-7 20 -12.5 43.5t-5.5 43.5q0 34 15 79t32.5 93t32.5 95 t15 85v120q0 16 -9.5 33.5t-26.5 31.5t-39 23t-46 9t-44.5 -7.5t-37 -20.5t-26 -29t-9.5 -32v-47h-74h-1z" />
<glyph unicode="&#x1093;" horiz-adv-x="512" d="M230 754l-47 -297q20 10 42.5 17t45.5 7q36 3 73.5 -9t67 -34t48 -52t18.5 -65v-180q0 -23 -8.5 -45t-23.5 -42t-35.5 -36t-43.5 -26q-4 6 -10.5 22t-17.5 43q28 14 45.5 38t17.5 46v180q0 16 -10.5 32.5t-28 29.5t-40.5 21t-48 7q-22 -2 -40.5 -9t-33 -18t-25 -24 t-13.5 -26l-55 -346l-74 11l123 766z" />
<glyph unicode="&#x1094;" horiz-adv-x="604" d="M277 493l-197 -510l-71 30l268 686v63h79l-1 -679q0 -11 6 -19t17 -8h116q9 0 16.5 7t7.5 18v11l76 -23q-3 -19 -11.5 -35.5t-22 -28.5t-30.5 -19t-36 -7h-116q-21 0 -39.5 8.5t-32 22t-22 32t-8.5 39.5z" />
<glyph unicode="&#x1095;" horiz-adv-x="464" d="M325 294h-129q-25 0 -42 -9t-27.5 -22.5t-14.5 -28.5t-4 -27v-59q0 -84 92 -84h38q27 0 43.5 4t26 14t13.5 26t4 40v146zM400 762v-393h50v-75h-50v-146q0 -53 -16 -84t-40.5 -48t-53 -22t-52.5 -5h-38q-25 0 -53.5 6.5t-54 25t-42 49t-16.5 78.5v59q0 32 9 61t29 51.5 t50.5 36t73.5 13.5h129v393h75z" />
<glyph unicode="&#x1096;" horiz-adv-x="458" d="M325 456v147q0 23 -4 39t-13.5 26t-26 14t-43.5 4h-38q-92 0 -92 -83v-59q0 -13 4 -28t14.5 -28.5t27.5 -22.5t42 -9h129zM400 -11h-75v392h-129q-43 0 -73.5 13.5t-50.5 36t-29 52t-9 61.5v59q0 47 16.5 78t42 49t54 25t53.5 7h38q24 0 52.5 -5.5t53 -22.5t40.5 -48 t16 -83v-147h50v-75h-50v-392z" />
<glyph unicode="&#x1097;" horiz-adv-x="416" d="M312 89v11l75 -24q-2 -19 -10.5 -35t-22 -27.5t-30.5 -18t-36 -6.5h-167q-20 0 -38.5 7.5t-32 21t-21.5 32t-8 39.5q0 9 3.5 21t8.5 29l271 511q9 17 1 26.5t-19 9.5h-170q-10 0 -16.5 -7t-6.5 -17v-12l-76 24q3 18 11.5 34.5t21.5 28t30.5 18.5t35.5 7h170q21 0 39.5 -8 t32 -21.5t21 -32t7.5 -38.5q-2 -20 -6 -29l-276 -531q-4 -38 17 -38h167q10 0 17 7t7 18z" />
<glyph unicode="&#x1098;" horiz-adv-x="454" d="M110 247v-97q0 -15 10 -31.5t27.5 -29.5t40 -20.5t47.5 -6.5q24 1 44.5 9.5t35.5 22t24 28t9 28.5v105q0 15 -8.5 30t-22.5 27.5t-33 20.5t-41 11h-4q-12 -1 -23 0q-22 -3 -41 -13t-34 -23.5t-23 -29.5t-8 -31zM34 247q0 38 21.5 72.5t57.5 58.5q-34 21 -56.5 53 t-22.5 71v108q0 23 8.5 46t24 42.5t37 36t45.5 27.5l26 -66q-29 -15 -47 -39t-18 -47v-108q0 -14 8 -28.5t22.5 -26.5t34 -21t41.5 -12q4 1 13.5 1t13.5 -1q22 3 41 12t33.5 21.5t22.5 27t8 27.5v116q0 22 -16 42.5t-43 33.5l28 65q46 -20 76 -58t30 -83v-116 q0 -37 -21.5 -69t-54.5 -53q34 -23 55 -55.5t21 -69.5v-105q0 -31 -16 -59.5t-42 -49.5t-58.5 -34.5t-67.5 -14.5q-36 -2 -72.5 9.5t-66 33.5t-48 51.5t-18.5 63.5v97z" />
<glyph unicode="&#x1099;" horiz-adv-x="454" d="M110 485q0 -14 8 -30.5t23 -30t34 -23.5t41 -12h23h4q22 2 41 10.5t33 20.5t22.5 27t8.5 30v122q0 13 -9 28t-24 28t-35.5 22t-44.5 9q-25 2 -47.5 -6t-40 -21t-27.5 -29.5t-10 -30.5v-114zM34 485v114q0 34 18.5 63.5t48 51.5t66 33t72.5 10q35 -2 67.5 -15t58.5 -34.5 t42 -49.5t16 -59v-122q0 -37 -21 -69t-55 -55q33 -22 54.5 -54t21.5 -69v-100q0 -45 -30 -82.5t-76 -58.5l-28 66q27 12 43 32.5t16 42.5v100q0 14 -8 28t-22.5 27t-33.5 22t-41 11q-4 -1 -13.5 -1t-13.5 1q-22 -2 -41.5 -11t-34 -21.5t-22.5 -27t-8 -28.5v-91 q0 -23 18 -47.5t47 -39.5l-26 -65q-24 11 -45.5 27t-37 36t-24 42.5t-8.5 46.5v91q0 39 22.5 71t56.5 53q-36 24 -57.5 59t-21.5 72z" />
<glyph unicode="&#x109a;" horiz-adv-x="259" d="M130 454q18 0 35 -7t29.5 -19t19.5 -29t7 -36t-7 -35.5t-19.5 -29.5t-29.5 -20t-35 -7q-19 0 -35.5 7t-29 20t-19.5 29.5t-7 35.5t7 36t19.5 29t29 19t35.5 7zM130 391q-13 0 -21 -8t-8 -20q0 -13 8 -20.5t21 -7.5q12 0 20 7.5t8 20.5q0 12 -8 20t-20 8z" />
<glyph unicode="&#x109b;" horiz-adv-x="259" d="M207 625l-99 -171l-60 36l56 96q-29 9 -48 34t-19 56q0 20 7.5 37t20 29t29.5 19.5t36 7.5t36 -7.5t29.5 -19.5t20 -29t7.5 -37q0 -28 -16 -51zM130 704q-14 0 -22 -8t-8 -20q0 -13 8 -20.5t22 -7.5q12 0 20.5 7.5t8.5 20.5q0 12 -8.5 20t-20.5 8z" />
<glyph unicode="&#x109c;" horiz-adv-x="378" d="M350 335l-35 -60l-97 56q-9 -29 -33.5 -48t-56.5 -19q-20 0 -36.5 7.5t-29 20t-20 29.5t-7.5 36t7.5 36t20 29.5t29 20t36.5 7.5q28 0 52 -15zM100 357q0 -13 8 -21.5t20 -8.5q14 0 21.5 8.5t7.5 21.5q0 12 -7.5 20.5t-21.5 8.5q-12 0 -20 -8.5t-8 -20.5zM350 66l-35 -61 l-97 56q-9 -29 -33.5 -48t-56.5 -19q-20 0 -36.5 7.5t-29 20t-20 29.5t-7.5 36q0 20 7.5 36.5t20 29.5t29 20t36.5 7q28 0 52 -15zM100 87q0 -13 8 -21.5t20 -8.5q14 0 21.5 8.5t7.5 21.5q0 12 -7.5 20.5t-21.5 8.5q-12 0 -20 -8.5t-8 -20.5z" />
<glyph unicode="&#x109d;" d="M-251 631q0 35 -15 48.5t-33 11.5t-32 -16t-12 -35l-70 28q5 31 25 52t45.5 32t55 10t53.5 -15.5t39.5 -42.5t15.5 -73v-91v-34.5t0.5 -30t0.5 -22.5v-9q0 -4 12 -13l-61 -42q-9 8 -15.5 18t-8.5 22v202z" />
<glyph unicode="&#x109e;" horiz-adv-x="347" d="M341 -220v11l75 -24q-3 -19 -11.5 -34.5t-21.5 -27.5t-30.5 -18.5t-35.5 -6.5h-26q-21 0 -39 8t-31.5 21.5t-21.5 31.5t-8 39l2 574q0 10 -6.5 17.5t-16.5 7.5h-26q-10 0 -17 -7.5t-7 -17.5v-11l-74 24q2 18 10.5 34t21.5 27.5t30 18.5t36 7h26q20 0 38.5 -7.5t32 -21 t21.5 -32t8 -39.5l-1 -574q0 -10 5.5 -17.5t16.5 -7.5h26q9 0 16.5 7.5t7.5 17.5zM165 719q19 0 35.5 -7t29 -19t20 -29t7.5 -36t-7.5 -35.5t-20 -29.5t-29 -20.5t-35.5 -7.5t-35.5 7.5t-28.5 20.5t-19.5 29.5t-7.5 35.5t7.5 36t19.5 29t28.5 19t35.5 7zM165 656 q-12 0 -20.5 -8t-8.5 -20q0 -13 8.5 -20.5t20.5 -7.5t20.5 7.5t8.5 20.5q0 12 -8.5 20t-20.5 8z" />
<glyph unicode="&#x109f;" horiz-adv-x="593" d="M554 -236q-1 -17 -9.5 -33t-21 -27t-29.5 -17.5t-35 -6.5h-24q-19 0 -37 7.5t-31 20.5t-20.5 30.5t-7.5 36.5l1 492q0 15 -9.5 30.5t-26.5 28.5t-38.5 20t-45.5 7q-23 -1 -43 -9.5t-34.5 -21t-23 -27.5t-8.5 -28v-135q0 -21 16.5 -41.5t43.5 -32.5l-27 -62 q-46 20 -75.5 56.5t-29.5 79.5v135q0 31 15 57.5t40 47t56.5 33t65.5 14.5q35 2 70 -9t63.5 -31.5t46 -49.5t17.5 -62l1 -492q0 -10 6 -16.5t15 -6.5h24q9 0 15.5 5t7.5 13v460q1 30 -1 65t-11.5 66.5t-29 55t-54.5 29.5q-32 3 -59.5 16.5t-47.5 34t-32 48t-12 58.5 q0 32 13.5 61t36 50.5t52.5 33.5t64 12q28 0 54 -8.5t46.5 -23.5t36 -35.5t22.5 -45.5l-66 -18q-9 29 -34 47.5t-59 18.5q-20 0 -37.5 -7.5t-30.5 -20t-21 -29t-8 -35.5q0 -18 7 -34t19 -28t28 -20t35 -9h3q73 -13 113 -76q10 -15 18 -34.5t13.5 -41.5t9 -46t3.5 -47z" />
<glyph unicode="&#x1700;" />
<glyph unicode="&#x200b;" />
<glyph unicode="&#x200c;" />
<glyph unicode="&#x200d;" />
<glyph unicode="&#x2013;" horiz-adv-x="433" d="M440 194h-445v63h445v-63z" />
<glyph unicode="&#x2014;" horiz-adv-x="869" d="M875 194h-880v63h880v-63z" />
<glyph unicode="&#x2018;" horiz-adv-x="190" d="M144 604q-46 -19 -47 -85h40v-89h-81v69q0 31 3.5 53t18.5 44.5t47 36.5z" />
<glyph unicode="&#x2019;" horiz-adv-x="194" d="M137 553q0 -30 -3.5 -52.5t-18.5 -44.5t-47 -37l-19 30q46 19 47 85h-40v89h81v-70z" />
<glyph unicode="&#x201a;" horiz-adv-x="188" d="M135 19q0 -30 -3.5 -52.5t-19 -44.5t-47.5 -37l-19 30q46 18 47 85h-40v89h82v-70z" />
<glyph unicode="&#x201c;" horiz-adv-x="299" d="M258 604q-46 -19 -47 -85h40v-89h-81v69q0 31 3.5 53t18.5 44.5t47 36.5zM126 604q-46 -19 -47 -85h40v-89h-82v69q0 31 3.5 53t19 44.5t47.5 36.5z" />
<glyph unicode="&#x201d;" horiz-adv-x="301" d="M252 553q0 -30 -3.5 -52.5t-18.5 -44.5t-47 -37l-19 30q46 19 47 85h-40v89h81v-70zM120 553q0 -30 -3.5 -52.5t-18.5 -44.5t-48 -37l-19 30q46 19 47 85h-40v89h82v-70z" />
<glyph unicode="&#x2020;" horiz-adv-x="485" d="M450 368h-170v-515h-76v515h-170v68h170v172h76v-172h170v-68z" />
<glyph unicode="&#x2022;" horiz-adv-x="305" d="M152 412q45 0 76.5 -31.5t31.5 -76.5q0 -44 -31.5 -75.5t-76.5 -31.5q-44 0 -76 31.5t-32 75.5q0 45 32 76.5t76 31.5z" />
<glyph unicode="&#x2030;" horiz-adv-x="871" d="M447 633l-254 -655h-56l254 655h56zM137 628q60 0 91 -42t31 -118q0 -84 -30.5 -126t-91.5 -42q-59 0 -90 42.5t-31 123.5q0 78 30.5 120t90.5 42zM139 354q58 0 58 111t-60 111q-28 0 -43.5 -25t-15.5 -87q0 -110 61 -110zM732 304q60 0 91 -42t31 -118 q0 -84 -30.5 -125.5t-90.5 -41.5t-91 42t-31 124q0 76 30.5 118.5t90.5 42.5zM734 30q58 0 58 110q0 111 -59 111q-28 0 -44 -24.5t-16 -87.5q0 -109 61 -109zM445 304q60 0 91.5 -42t31.5 -118q0 -84 -30.5 -125.5t-91.5 -41.5q-59 0 -90 42t-31 124q0 76 30.5 118.5 t89.5 42.5zM448 30q57 0 57 110q0 111 -59 111q-28 0 -43.5 -24.5t-15.5 -87.5q0 -109 61 -109z" />
<glyph unicode="&#x2039;" horiz-adv-x="278" d="M236 30h-63l-135 194l135 194h63l-111 -194z" />
<glyph unicode="&#x203a;" horiz-adv-x="305" d="M251 224l-134 -194h-63l110 194l-110 194h63z" />
<glyph unicode="&#x2044;" horiz-adv-x="194" d="M342 637l-468 -659h-67l469 659h66z" />
<glyph unicode="&#x20ac;" horiz-adv-x="472" d="M471 599l-18 -79q-52 43 -117 43q-89 0 -140 -51t-60 -114h289l-11 -58h-285l-1 -16l1 -40h273l-11 -57h-254q17 -86 70.5 -126.5t121.5 -40.5q80 0 124 42v-88q-53 -24 -117 -24q-234 0 -283 237h-65l12 57h44q-1 11 -1 39v17h-55l12 58h50q22 117 102 176t186 59 q79 0 133 -34z" />
<glyph unicode="&#x2122;" horiz-adv-x="846" d="M749 277h-53v290h-2l-87 -290h-52l-91 295h-2v-295h-53v346h85l86 -277h2l84 277h83v-346zM370 572h-113v-295h-58v295h-112v51h283v-51z" />
<glyph unicode="&#x2202;" horiz-adv-x="454" d="M125 476h-19q57 129 161 129q64 0 106 -46q50 -56 50 -168q0 -151 -71 -279q-69 -125 -181 -125q-67 0 -105 39q-38 38 -38 104q0 101 70 178t164 77q95 0 132 -81h2q4 44 4 80q0 73 -38.5 116.5t-108.5 43.5q-82 0 -128 -68zM387 267q-36 96 -121 96q-76 0 -125 -87 q-42 -75 -42 -164q0 -44 22 -72q23 -29 62 -29q57 0 118 68.5t86 187.5z" />
<glyph unicode="&#x220f;" horiz-adv-x="717" d="M699 -88h-239v20q49 0 67 17q18 14 18 54v613h-369v-613q0 -40 17 -54q18 -17 67 -17v-20h-238v20q48 0 68 17q16 14 16 54v560q0 38 -16 54q-20 16 -68 16v20h677v-20q-49 0 -67 -16t-18 -54v-560q0 -40 18 -54q18 -17 67 -17v-20z" />
<glyph unicode="&#x2211;" horiz-adv-x="610" d="M605 80q-36 -139 -36 -168h-554l316 367l-313 375l519 -1l5 -138h-17q-13 61 -45 83q-27 18 -89 18h-250l259 -313l-276 -321h343q52 0 75 21q20 19 43 77h20z" />
<glyph unicode="&#x221a;" horiz-adv-x="499" d="M478 680l-173 -697l-170 304l-85 -39l-14 27l128 64l136 -242h2l144 583h32z" />
<glyph unicode="&#x221e;" horiz-adv-x="481" d="M460 224q0 -67 -35 -104q-32 -34 -80 -34q-65 0 -109 94q-39 -76 -106 -76q-49 0 -81 33.5t-32 86.5q0 55 29 88q28 32 72 32q60 0 97 -75q18 49 45.5 70t74.5 21q55 0 90 -38.5t35 -97.5zM439 224q0 46 -26 77t-64 31q-35 0 -57 -28q-8 -9 -22 -44q-22 -51 -25 -56 q25 -47 46 -67q24 -23 56 -23q42 0 67 29.5t25 80.5zM205 244q-34 72 -88 72q-36 0 -57.5 -26t-21.5 -66q0 -39 22 -66t51 -27q58 0 94 113z" />
<glyph unicode="&#x222b;" horiz-adv-x="422" d="M378 823q0 -23 -13 -39t-34 -16q-20 0 -34.5 13.5t-14.5 33.5q0 8 2.5 18.5t2.5 13.5q0 13 -10 13q-19 0 -34 -21q-27 -36 -27 -99q0 -15 35 -267q22 -162 22 -271q0 -225 -25 -326q-12 -50 -44.5 -81t-73.5 -31q-33 0 -54 18.5t-21 47.5q0 24 13.5 39t33.5 15t33 -14.5 t13 -34.5q0 -7 -2 -16.5t-2 -12.5q0 -12 9 -12q24 0 42 30.5t18 76.5q0 43 -36 323q-20 163 -20 309q0 131 13 202q14 76 46.5 115t82.5 39q32 0 55.5 -19t23.5 -47z" />
<glyph unicode="&#x2248;" horiz-adv-x="502" d="M460 384q-46 -46 -110 -46q-25 0 -94 26q-74 27 -103 27q-54 0 -105 -53v78q44 47 111 47q30 0 111 -29q67 -24 88 -24q56 0 102 54v-80zM460 195q-46 -45 -110 -45q-25 0 -94 25q-74 28 -103 28q-54 0 -105 -54v78q44 47 111 47q30 0 111 -29q67 -24 88 -24q56 0 102 54 v-80z" />
<glyph unicode="&#x2260;" horiz-adv-x="499" d="M460 177h-194l-13 -87h-63l13 87h-155v71h165l18 118h-183v72h194l13 87h63l-13 -87h155v-72h-165l-18 -118h183v-71z" />
<glyph unicode="&#x2264;" horiz-adv-x="500" d="M460 144l-412 176v71l412 174v-75l-327 -134l327 -136v-76zM460 48h-412v71h412v-71z" />
<glyph unicode="&#x2265;" horiz-adv-x="504" d="M460 320l-412 -176v76l327 136l-327 134v75l412 -174v-71zM460 48h-412v71h412v-71z" />
<glyph unicode="&#x25ca;" horiz-adv-x="525" d="M448 326l-187 -256l-187 256l187 257zM407 326l-146 200l-146 -200l146 -200z" />
<glyph unicode="&#xa900;" horiz-adv-x="489" d="M138 -8q-42 0 -70 31q-29 32 -29 87v235q0 108 95 118h219q99 -3 99 -118v-235q0 -44 -15 -71q-15 -26 -36 -37q-21 -10 -41 -10h-222zM344 45q46 0 46 58v245q0 60 -55 60h-187q-52 -1 -52 -69v-230q0 -63 59 -63z" />
<glyph unicode="&#xa901;" horiz-adv-x="445" d="M196 40l116 -1q42 0 42 36v29q0 4 -15 4q-36 0 -82 -17.5t-61 -50.5zM354 303v59q0 27 -8 39.5t-36 12.5h-173q-30 -1 -38.5 -18.5t-8.5 -42.5v-1h-51v6q0 95 85 105h202q83 -2 83 -105v-101h-272q-47 -1 -47 -68v-92q0 -57 53 -57q10 36 47 63t86 41t86 14q47 0 47 -19 v-41q0 -39 -13.5 -63t-32.5 -33.5t-37 -9.5h-198q-38 0 -63.5 28t-25.5 78v96q0 99 85 109h230z" />
<glyph unicode="&#xa902;" horiz-adv-x="483" d="M280 -8h-64l-177 471h57l152 -402l145 402h59z" />
<glyph unicode="&#xa903;" horiz-adv-x="487" d="M155 287h-116v58q0 108 95 118h219q99 -3 99 -118v-47l-354 -172l-2 -17q0 -37 20 -52q4 9 34 30q35 25 85 44t95 19h122v-40q0 -44 -15 -70.5t-36 -37t-41 -10.5h-222q-42 0 -70.5 31.5t-28.5 86.5v54l351 162v22q0 60 -55 60h-187q-52 -1 -52 -69v-13h59v-39zM155 46 l189 -1q46 0 46 44v16h-55q-36 0 -69.5 -11t-79.5 -31q-29 -12 -44 -16q6 -1 13 -1z" />
<glyph unicode="&#xa904;" horiz-adv-x="487" d="M96 388l75 75h182q99 -3 99 -118v-234q0 -63 -29.5 -90.5t-62.5 -27.5h-64v51l48 2q46 0 46 59v243q0 60 -55 60h-145l-94 -96v-59q0 -63 59 -63h38v-54h-55q-42 0 -70.5 31.5t-28.5 86.5v209h57v-75z" />
<glyph unicode="&#xa905;" horiz-adv-x="491" d="M209 45v-53h-71q-42 0 -70.5 31.5t-28.5 86.5v235q0 108 95 118h320v-121h-56v66h-250q-52 -1 -52 -69v-230q0 -63 59 -63z" />
<glyph unicode="&#xa906;" horiz-adv-x="485" d="M390 137v211q0 60 -55 60h-50l-189 -313v-103h-57v471h57v-252l153 252h104q99 -3 99 -118v-270q-28 -83 -108 -83q-46 0 -73 21t-27 58q0 34 18 64.5t60 30.5h14q8 0 17 -2t19 -9t18 -18zM371 73q-3 44 -44 44q-34 -3 -34 -42q0 -34 34 -38q39 0 44 36z" />
<glyph unicode="&#xa907;" horiz-adv-x="491" d="M216 327v-56h-68q-52 0 -52 -68v-94q0 -63 59 -63l189 -1q46 0 46 58v168h-55v56h55v84l-55 -43v67l55 40h62v-365q0 -44 -15 -70.5t-36 -37t-41 -10.5h-222q-42 0 -70.5 31.5t-28.5 86.5v99q0 108 95 118h82z" />
<glyph unicode="&#xa908;" horiz-adv-x="483" d="M452 164v-54q0 -44 -15 -70.5t-36 -37t-41 -10.5h-222q-42 0 -70.5 31.5t-28.5 86.5v353h57v-354q0 -63 59 -63l189 -1q46 0 46 58v61h62z" />
<glyph unicode="&#xa909;" horiz-adv-x="483" d="M358 327q93 -10 93 -118v-99q0 -55 -28.5 -86.5t-69.5 -31.5h-223q-18 0 -39.5 10.5t-36.5 37t-15 70.5v365h62l56 -40v-67l-56 43v-84h56v-56h-56v-168q0 -58 47 -58l188 1q58 0 58 63v94q0 68 -51 68h-69v56h84z" />
<glyph unicode="&#xa90a;" horiz-adv-x="531" d="M362 409l-127 -129v-288h-196v125q0 25 6 44t26 31l108 107v46q0 35 -6.5 49.5t-31.5 14.5l-14 1q-20 0 -25.5 -12.5t-5.5 -44.5v-41h-57v81q0 68 59 70h69q33 0 50.5 -21t17.5 -57v-30l109 108h59q99 -3 99 -118v-353h-132v53h70v303q0 61 -56 61h-22zM96 115v-70l83 1 v177l-67 -66q-16 -19 -16 -42z" />
<glyph unicode="&#xa90b;" horiz-adv-x="485" d="M390 267v81q0 60 -55 60h-187q-52 -1 -52 -69v-72h294zM390 221h-351v124q0 108 95 118h219q99 -3 99 -118v-235q0 -44 -15 -70.5t-36 -37t-41 -10.5h-222q-42 0 -70.5 31.5t-28.5 86.5v44h162v-42h-105v-3q0 -63 59 -63l189 -1q46 0 46 58v118z" />
<glyph unicode="&#xa90c;" horiz-adv-x="487" d="M390 237v111q0 60 -55 60h-17l-166 -172zM96 253l200 210h57q99 -3 99 -118v-353h-139v53h77v138h-294v-138h84v-53h-141v471h57v-210z" />
<glyph unicode="&#xa90d;" horiz-adv-x="491" d="M302 188h150v-78q0 -44 -15 -70.5t-36 -37t-41 -10.5h-222q-42 0 -70.5 31.5t-28.5 86.5v235q0 108 95 118h219q99 -3 99 -118v-80h-149v46l87 1v36q0 60 -55 60h-187q-52 -1 -52 -69v-230q0 -63 59 -63l189 -1q46 0 46 58v35h-88v50z" />
<glyph unicode="&#xa90e;" horiz-adv-x="489" d="M185 233q9 -39 42 -39q34 0 38 39q0 46 -40 46q-18 -1 -29 -13.5t-11 -32.5zM390 46v302q0 60 -55 60h-187q-52 -1 -52 -69v-13q0 -64 54 -64q13 62 78 62q38 0 60 -25.5t22 -68.5q0 -23 -12.5 -41.5t-33 -28.5t-41.5 -10q-22 1 -43 16l-73 -120h72v-54h-140v47l99 170 q-42 0 -70.5 31.5t-28.5 85.5v19q0 108 95 118h219q99 -3 99 -118v-353h-149v54h87z" />
<glyph unicode="&#xa90f;" horiz-adv-x="527" d="M131 315h-56v31q0 107 94 117h220q99 -2 99 -117v-236q0 -44 -15 -70.5t-36.5 -37t-40.5 -10.5h-40v54h23q47 0 47 57v58q0 59 -56 59h-186q-36 -1 -44.5 -13t-8.5 -35v-180h-92v45h36v137q0 51 23 73.5t71 27.5h193q43 0 64 -17v91q0 60 -56 60h-186q-53 -1 -53 -55v-39 z" />
<glyph unicode="&#xa910;" horiz-adv-x="497" d="M208 -187v-56h-68q-42 0 -71.5 32.5t-29.5 88.5v584h59v-116q29 58 70 86.5t101 29.5q74 0 130 -43t62 -148q0 -48 -21.5 -81t-53.5 -55.5t-60 -22.5l118 -58v-62h-268v48h184l-178 81q85 0 133 28t66 59t18 62q0 56 -34.5 97t-99.5 41q-31 -2 -56.5 -18t-44.5 -39 t-36 -53.5t-30 -54.5v-367q0 -63 59 -63h51z" />
<glyph unicode="&#xa911;" horiz-adv-x="495" d="M100 -1v-129q0 -24 12 -41.5t36 -17.5l190 -1q29 0 41 8.5t15 28.5q3 9 3 42h-90v48h149v-78q0 -55 -30.5 -79t-71.5 -24h-223q-33 0 -62.5 28t-29.5 92v312h151v-51h-90v-34q0 -22 10.5 -40.5t37.5 -18.5l190 2q61 0 61 55q0 3 -1 7v231q0 68 -52 69h-189 q-34 0 -45.5 -19.5t-11.5 -40.5v-36l88 -1v-46h-149v80q0 115 100 118h221q96 -10 96 -118v-236q0 -56 -29 -87t-73 -31h-223q-19 0 -31 8z" />
<glyph unicode="&#xa912;" horiz-adv-x="481" d="M372 74q-4 43 -45 43q-34 -3 -34 -42q0 -34 34 -38q39 0 45 37zM454 169q0 -175 -110 -177q-43 0 -71.5 21t-28.5 58q0 34 18 64.5t60 30.5h14.5t16.5 -2t19 -9t19 -18q0 57 -19 85.5t-78 34.5q-40 0 -79.5 -19.5t-71 -57t-47.5 -85.5v-103h-57v471h57l353 -73v-49 l-353 65v-194q32 45 83 75t113 30q28 0 50 -5q52 -11 80.5 -49.5t31.5 -93.5z" />
<glyph unicode="&#xa913;" horiz-adv-x="487" d="M216 463v-55h-68q-52 -1 -52 -69v-230q0 -63 59 -63l189 -1q46 0 46 58v532l-55 -42v67l55 39h62v-589q0 -44 -15 -70.5t-36 -37t-41 -10.5h-222q-42 0 -70.5 31.5t-28.5 86.5v235q0 108 95 118h82z" />
<glyph unicode="&#xa914;" horiz-adv-x="481" d="M223 -188v-56h-85q-38 0 -68.5 30.5t-30.5 87.5v297h140v-46h-83v-16q0 -63 59 -63l189 -1q46 0 46 58v47l-157 52l-194 65v78q0 108 95 118h219q99 -3 99 -118v-54h-121v39l59 1v17q0 60 -55 60h-187q-52 -1 -52 -69v-38l160 -55l196 -58v-78q0 -44 -15 -70.5t-36 -37 t-41 -10.5h-222q-28 0 -42 7v-126q0 -61 59 -61h68z" />
<glyph unicode="&#xa915;" horiz-adv-x="485" d="M96 166l294 146v36q0 60 -55 60h-187q-52 -1 -52 -69v-173zM96 109q0 -63 59 -63l189 -1q46 0 46 58v21h-88v47h150v-61q0 -44 -15 -70.5t-36 -37t-41 -10.5h-222q-42 0 -70.5 31.5t-28.5 86.5v235q0 107 95 118h219q99 -3 99 -118v-58z" />
<glyph unicode="&#xa916;" horiz-adv-x="487" d="M293 565h100v31q0 41 -63 41h-173q-29 0 -42.5 -20.5t-13.5 -44.5v-135q10 26 63 26h192q51 -8 72 -32t21 -101v-289h36v-49h-92v340q0 38 -8.5 56t-42.5 19h-185q-56 -18 -56 -99v-195q0 -40 9 -57q9 -16 33 -16h28v-48h-40q-44 0 -68 26t-24 105v447q0 119 99 125h213 q49 -9 73.5 -34t24.5 -80v-65h-156v49z" />
<glyph unicode="&#xa917;" horiz-adv-x="487" d="M355 45l-111 112l-108 -111zM313 463h139v-353q0 -44 -15 -70.5t-36 -37t-41 -10.5h-222q-42 0 -70.5 31.5t-28.5 86.5v353h130v-55h-73v-316l148 141l146 -141v316h-77v55z" />
<glyph unicode="&#xa918;" horiz-adv-x="487" d="M39 463h314q99 -3 99 -118v-47l-354 -172l-2 -17q0 -63 59 -63l189 -1q46 0 46 44v16h-55q-36 0 -69.5 -11t-80 -31t-58.5 -20q-11 0 -11 11q0 9 34.5 33.5t84.5 43.5t95 19h122v-40q0 -44 -15 -70.5t-36 -37t-41 -10.5h-222q-42 0 -70.5 31.5t-28.5 86.5v54l351 162v22 q0 60 -55 60h-295z" />
<glyph unicode="&#xa919;" horiz-adv-x="485" d="M390 137v211q0 60 -55 60h-50l-189 -313v-103h-57v471h57v-252l153 252h104q99 -3 99 -118v-270q-28 -83 -108 -83q-46 0 -73 21t-27 58q0 34 18 64.5t60 30.5h14q8 0 17 -2t19 -9t18 -18zM371 73q-3 44 -44 44q-34 -3 -34 -42q0 -34 34 -38q39 0 44 36z" />
<glyph unicode="&#xa91a;" horiz-adv-x="487" d="M96 46h97v-54h-154v471h57v-75l75 75h182q99 -3 99 -118v-471q0 -63 -29.5 -90.5t-62.5 -27.5h-64v52l48 1q46 0 46 59v480q0 60 -55 60h-145l-94 -96v-266z" />
<glyph unicode="&#xa91b;" horiz-adv-x="692" d="M596 45v303q0 60 -57 60h-99q-60 0 -60 -60q0 -4 1 -9v-230q0 -61 -32.5 -89t-77.5 -28h-133q-38 0 -68.5 30.5t-30.5 87.5v353h158v-55h-101v-299q0 -63 59 -63l101 -1q34 0 51.5 18.5t17.5 46.5v235q0 58 28.5 87.5t79.5 30.5h125q99 -3 99 -118v-353h-149v53h88z" />
<glyph unicode="&#xa91c;" horiz-adv-x="637" d="M596 -126q0 -63 -29 -90.5t-64 -27.5h-355q-42 0 -70.5 31.5t-28.5 86.5v66h155v-44h-94v-17q0 -67 55 -67l322 -1q48 0 48 56v126q-15 -7 -32 -7h-117q-42 0 -70.5 32t-28.5 86v245q0 59 -57 59h-82q-52 -1 -52 -69v-230q0 -63 59 -63l38 -1v-52h-55q-42 0 -70.5 31.5 t-28.5 85.5v236q0 107 95 117h115q99 -3 99 -117v-236q0 -72 55 -72l84 1q48 0 48 59v251q0 59 -57 59h-40v55h59q99 -3 99 -117v-472z" />
<glyph unicode="&#xa91d;" horiz-adv-x="493" d="M280 463h83q96 -10 96 -115v-237q0 -55 -29 -87t-72 -32h-223q-33 0 -63 28t-30 91v589h61l58 -34v-62l-58 35v-534q0 -60 48 -60l191 1q59 0 59 64v233q0 27 -9.5 46.5t-43.5 20.5h-68v53z" />
<glyph unicode="&#xa91e;" horiz-adv-x="491" d="M390 -1q-11 -7 -30 -7h-222q-42 0 -70.5 31.5t-28.5 86.5v235q0 108 95 118h219q99 -3 99 -118v-80h-149v46l87 1v36q0 60 -55 60h-187q-52 -1 -52 -69v-230q0 -63 59 -63l189 -1q46 0 46 58v35h-88v50h150v-312q0 -64 -29.5 -92t-62.5 -28h-222q-40 0 -69.5 24.5 t-29.5 79.5v78h146v-49h-87q0 -33 2 -42q3 -20 15.5 -28t39.5 -8l189 1q23 0 34.5 15.5t11.5 42.5v129z" />
<glyph unicode="&#xa91f;" horiz-adv-x="485" d="M96 138v-29q0 -63 59 -63l27 -1l208 208v210h62v-589q0 -63 -29.5 -90.5t-62.5 -27.5h-42v53h26q46 0 46 59v303l-178 -179h-74q-38 0 -68.5 30.5t-30.5 87.5v353h166v-161q-4 -64 -32 -105q-23 -33 -77 -59zM96 197q25 7 39.5 34.5t14.5 70.5v106h-54v-211z" />
<glyph unicode="&#xa920;" horiz-adv-x="491" d="M160 145h-64v-36q0 -63 59 -63l189 -1q46 0 46 58v300l-150 -111l-144 111v-97h-57v157h69l132 -104l136 104h76v-353q0 -44 -15 -70.5t-36 -37t-41 -10.5h-222q-42 0 -70.5 31.5t-28.5 86.5v82h121v-47z" />
<glyph unicode="&#xa921;" horiz-adv-x="485" d="M390 581q0 58 -55 58h-187q-52 -1 -52 -54v-25h107v-45h-164v61q0 107 95 118h219q99 -4 99 -118v-584h-59l-297 388v-339h83v-49h-140v471h59l292 -378v496z" />
<glyph unicode="&#xa922;" horiz-adv-x="485" d="M84 227q-45 2 -45 50v68q0 108 95 118h219q99 -3 99 -118v-80h-137v46l75 1v36q0 60 -55 60h-187q-52 -1 -52 -69v-52q0 -16 13 -26t32 -10h92v-52h-88q-23 0 -37 -16q-12 -14 -12 -25v-4v-45q0 -63 59 -63l189 -1q46 0 46 58v35h-77v50h139v-78q0 -44 -15 -70.5t-36 -37 t-41 -10.5h-222q-42 0 -70.5 31.5t-28.5 86.5v73q0 38 45 44z" />
<glyph unicode="&#xa923;" horiz-adv-x="489" d="M390 171l-178 -179h-74q-38 0 -68.5 30.5t-30.5 87.5v353h121v-55h-64v-299q0 -63 59 -63l27 -1l208 208v155h-60v55h122v-353q0 -44 -15 -70.5t-36 -37t-41 -10.5h-42v53h26q46 0 46 58v68z" />
<glyph unicode="&#xa924;" horiz-adv-x="487" d="M174 320v-48h-135v73q0 108 95 118h219q99 -3 99 -118v-235q0 -44 -15 -70.5t-36 -37t-41 -10.5h-222q-42 0 -70.5 31.5t-28.5 86.5v26l351 198v14q0 60 -55 60h-187q-52 -1 -52 -69v-19h78zM390 275l-294 -168v-15q0 -19 12.5 -32.5t34.5 -13.5l201 -1q46 0 46 58v172z " />
<glyph unicode="&#xa925;" horiz-adv-x="487" d="M138 -8q-42 0 -70.5 31.5t-28.5 86.5v235q0 108 95 118h219q99 -3 99 -118v-235q0 -44 -15 -70.5t-36 -37t-41 -10.5h-222zM389 380q-2 18 -15.5 23t-38.5 5h-187q-47 0 -50 -28q59 -53 154 -58q80 0 137 58zM390 313q-31 -31 -66 -39.5t-75 -8.5q-47 3 -82.5 11.5 t-70.5 39.5v-207q0 -63 59 -63l189 -1q46 0 46 58v210z" />
<glyph unicode="&#xa926;" d="M-273 681l16 15h50l19 -18v-51l-16 -16h-53l-16 16v54z" />
<glyph unicode="&#xa927;" d="M-178 567l75 -54h-68l-207 141h77z" />
<glyph unicode="&#xa928;" d="M-137 513l-110 109l-108 -109h-66l174 183l176 -183h-66z" />
<glyph unicode="&#xa929;" d="M-406 630q0 -63 60 -63l189 -1q48 0 48 59v70h61v-64q0 -65 -27 -92t-60 -27h-227q-44 0 -72 32t-28 87v64h56v-65z" />
<glyph unicode="&#xa92a;" d="M-406 631q0 -63 60 -63l189 -1q48 0 48 59v70h61v-64q0 -65 -27 -92q-28 -27 -60 -27h-228q-43 0 -71 32t-28 87v64h56v-65zM-235 611h-54l-19 19v50l16 16h57l19 -20v-46z" />
<glyph unicode="&#xa92b;" d="M-273 -75l16 17h52l18 -18v-53l-16 -16h-54l-16 16v54z" />
<glyph unicode="&#xa92c;" d="M-316 -8l-46 -16q-14 -15 -18.5 -28t-4.5 -38v-37q0 -62 58 -62l188 1q46 0 46 56v46h61v-40q0 -63 -29 -90.5t-62 -27.5h-221q-41 0 -69.5 32t-28.5 86v54q0 38 21 65t57 35z" />
<glyph unicode="&#xa92d;" d="M-311 -3l-48 -22q-17 -11 -21.5 -27.5t-4.5 -50.5v-23q0 -63 59 -63l190 1q47 0 47 57v46h63v-40q0 -64 -29.5 -91.5t-64.5 -27.5h-222q-43 0 -71.5 32t-28.5 87v54q0 85 70 102zM-238 -59q21 0 35.5 -11t14.5 -37q-3 -39 -52 -39q-39 4 -43 43q0 38 45 44z" />
<glyph unicode="&#xa92e;" horiz-adv-x="696" d="M656 -1h-80q-46 36 -114 59t-116 23q-46 0 -95.5 -16t-84.5 -36t-35 -30h-92q13 36 65.5 71.5t117 57.5t111.5 22q59 0 128.5 -21t123 -55.5t71.5 -74.5z" />
<glyph unicode="&#xa92f;" horiz-adv-x="138" d="M96 -8h-57v470h57v-470z" />
<glyph unicode="&#xaa60;" horiz-adv-x="819" d="M637 57q28 14 45 36t17 42v35q-28 -18 -45 -47.5t-17 -65.5zM699 279q0 17 -10 35t-27 33t-40 24.5t-49 9.5q-25 0 -47.5 -8.5t-39.5 -21.5t-27 -30t-10 -34v-152q0 -21 18 -43t48 -36l-28 -69q-25 11 -46 26.5t-37 34t-25 41.5t-9 46v142v2q0 17 -10.5 35t-27.5 33 t-40 24.5t-48 9.5q-26 0 -48.5 -8.5t-39.5 -21.5t-26.5 -30t-9.5 -34v-130q0 -14 9 -30t25 -29.5t37.5 -23t46.5 -10.5h12.5t13.5 2q-4 -28 -6 -47t-4 -28q-10 -1 -20 0q-36 2 -71 15.5t-62 36.5t-44 52t-17 62v130q0 33 16.5 63t44.5 53t64.5 37t76.5 14q49 1 92.5 -19.5 t72.5 -54.5q28 33 71.5 53t93.5 21q41 1 78 -13.5t66 -39.5t46 -57t17 -65v-144q0 -24 -9 -46.5t-25 -41t-37 -34t-45 -25.5l-64 17q-15 37 -14 72t15 64.5t39.5 52t59.5 35.5v50z" />
<glyph unicode="&#xaa61;" horiz-adv-x="819" d="M449 289v-147q4 -15 15.5 -30t29.5 -26.5t40 -19t47 -5.5q25 0 46.5 9.5t37.5 23t25 29.5t9 31v131q0 18 -9.5 35t-27 30t-40 21.5t-47.5 8.5q-24 0 -45 -8t-37.5 -21t-28 -29.5t-15.5 -32.5zM246 454q19 0 40.5 -5t43.5 -14t43 -23.5t37 -32.5q30 33 73 54.5t93 20.5 q41 -1 77.5 -14.5t64.5 -37t44.5 -54t16.5 -63.5v-131q0 -33 -17 -62.5t-44 -52.5t-61.5 -36.5t-71.5 -15.5q-47 -3 -92 15t-78 49q-16 -19 -37.5 -34.5t-46.5 -27.5l-28 70q28 13 46 35t20 41q0 2 -0.5 14t-0.5 29v36.5v36.5t0.5 28.5t0.5 13.5q-2 16 -13 31.5t-27.5 28 t-38 20t-45.5 7.5q-26 0 -49 -9.5t-40.5 -25t-28 -33.5t-10.5 -36v-28q0 -17 13 -35t32 -33q22 -16 38 -37t16 -53q0 -35 -18 -57.5t-45 -33.5t-58.5 -11t-58.5 10l22 68q17 -9 32.5 -9t26.5 5t17 13t6 15q0 12 -10.5 20t-22.5 16q-34 24 -51.5 55t-17.5 67v28q0 35 17 67 t46 56.5t66.5 39.5t78.5 15z" />
<glyph unicode="&#xaa62;" horiz-adv-x="671" d="M202 94q9 13 15 27.5t10 27.5q-1 3 -1 7v140q0 25 9 48t25 43.5t37 38t47 28.5q3 -7 10 -24t18 -45q-28 -15 -46.5 -40t-18.5 -49v-140q0 -17 10.5 -33.5t29 -30.5t42 -22.5t51.5 -7.5q25 1 46.5 10.5t37.5 23t25.5 29.5t9.5 31v149q0 24 -18.5 46t-46.5 36l28 69 q52 -21 84.5 -62t32.5 -89v-149q0 -33 -17 -62.5t-44.5 -52.5t-62 -37t-71.5 -15q-48 -3 -94.5 15.5t-78.5 52.5q-12 -31 -38 -50t-61 -19h-10q-22 0 -41 8t-33 22.5t-22.5 33.5t-8.5 41l-25 363h82l25 -363q0 -11 6.5 -18.5t16.5 -7.5h10q11 0 17 9t13 18z" />
<glyph unicode="&#xaa63;" horiz-adv-x="809" d="M361 156q-26 -15 -43 -40t-21 -55q29 14 46.5 36t17.5 42v17zM440 282v-5v-1v-119q0 -17 11 -33.5t29.5 -30.5t42.5 -23t50 -7q26 1 47.5 10.5t37.5 23t25.5 29.5t9.5 31v130q0 17 -10 34.5t-27 30.5t-39.5 21.5t-48.5 8.5q-25 0 -47.5 -9t-40 -23.5t-28.5 -32.5t-12 -35 zM252 -12q-12 37 -8.5 72.5t18 65.5t40 53.5t59.5 35.5v70q0 18 -9 35t-25.5 30.5t-39.5 21.5t-51 8q-29 0 -52.5 -9.5t-40.5 -24.5t-26 -33.5t-9 -35.5v-29q0 -16 13 -34.5t32 -32.5q22 -17 38.5 -37.5t16.5 -52.5q0 -36 -18 -58.5t-45 -33.5t-59 -11t-59 10l22 68 q17 -9 32.5 -9t26.5 5t17 13.5t6 15.5q0 11 -10.5 19.5t-22.5 16.5q-34 24 -51.5 54.5t-17.5 66.5v29q0 35 14.5 67t41.5 56.5t65.5 39t86.5 14.5q44 0 89 -18t77 -55q29 34 73 55t93 20q41 0 78 -14t65 -37.5t44 -53.5t16 -64v-130q0 -33 -16.5 -62.5t-44 -52.5t-62.5 -37 t-71 -16q-47 -2 -92.5 15.5t-77.5 48.5q-32 -40 -86 -63z" />
<glyph unicode="&#xaa64;" horiz-adv-x="811" d="M412 390q29 31 70.5 49.5t87.5 17.5q41 -1 78 -15t64.5 -37.5t44 -53.5t16.5 -64v-131q0 -33 -16.5 -62.5t-44 -52.5t-62.5 -37t-71 -15q-25 -2 -50 3t-48 14.5t-43.5 23.5t-36.5 31q-29 -31 -70 -50t-85 -22q-39 -2 -77.5 10t-70 35t-50.5 55t-19 68v140q0 24 9 47.5 t24.5 44t37 38t46.5 28.5q3 -8 10 -25t19 -45q-30 -14 -48.5 -39t-18.5 -49v-140q0 -17 11 -33.5t29 -30.5t42.5 -23t51.5 -7q24 1 46 10.5t38 23t25.5 29.5t9.5 31v149q0 24 -18.5 46t-47.5 36l30 69q26 -12 48 -28.5t39 -38.5zM441 279v-123q0 -16 10.5 -33t29 -30.5 t42.5 -22.5t51 -7q25 1 47 10.5t38 23t25.5 29.5t9.5 30v131q0 18 -10 35t-27 30.5t-40 21.5t-48 8q-26 1 -49 -9t-40.5 -25t-28 -33.5t-10.5 -35.5z" />
<glyph unicode="&#xaa65;" horiz-adv-x="809" d="M121 -216q0 -11 7 -18.5t18 -7.5h199q11 0 17 7.5t6 18.5l-1 244q-12 -9 -25 -16q-23 -12 -49 -18.5t-53 -5.5q-40 0 -77 14t-64.5 37t-44 53t-16.5 64v130q0 24 9 46.5t25 41.5t37 34.5t46 26.5l29 -69q-15 -7 -27.5 -17t-21 -20.5t-13.5 -21.5t-5 -21v-130 q0 -18 10 -35t27 -30t39.5 -21.5t47.5 -8.5q26 0 49 9.5t40.5 25t27.5 33.5q7 12 9 25l1 132q0 10 -4.5 21.5t-13 21.5t-21 19.5t-26.5 16.5l28 69q24 -10 44 -24.5t36 -32.5q15 17 33 31t39.5 24.5t45 15.5t47.5 5q41 0 77.5 -14t64.5 -37.5t44.5 -53.5t16.5 -63v-131 q0 -33 -17 -62.5t-44 -52t-61.5 -36.5t-71.5 -15q-10 -1 -20 0q-1 10 -4 28t-7 47l13 -2h14q25 1 46.5 10.5t37.5 23t25 29t9 30.5v131q0 17 -9.5 34t-27 30t-40 21.5t-46.5 8.5q-27 1 -50 -9t-40 -25t-27 -33.5t-10 -35.5l-1 -492q0 -22 -8.5 -41t-22.5 -32.5t-32 -22 t-40 -8.5h-199q-20 0 -37.5 7t-31 19.5t-22.5 29t-12 34.5l78 25v-11z" />
<glyph unicode="&#xaa66;" horiz-adv-x="813" d="M37 276q0 35 17.5 67.5t46.5 57.5t66.5 39.5t78.5 13.5q51 -1 94.5 -21.5t71.5 -52.5q30 33 73.5 54t92.5 20q41 0 78 -14t65 -37t44.5 -53.5t16.5 -64.5v-131q0 -33 -16.5 -63t-44 -52.5t-62.5 -36t-72 -16.5h-20q-1 10 -4 29t-7 47q15 -2 27 -1q25 0 47 9.5t38 23 t25 29.5t9 31v131q0 18 -10 35t-27 30t-39.5 21.5t-48.5 8.5q-25 0 -48.5 -9t-41 -25t-28 -34t-10.5 -36v-1v-121q0 -33 -16.5 -63t-44 -52.5t-62.5 -36t-72 -16.5q-38 -2 -77 10.5t-70.5 35.5t-50.5 54.5t-19 67.5v122zM117 276v-122q0 -16 11 -33t29 -31t42 -22.5t51 -6.5 q26 0 47.5 9.5t37.5 23t25.5 29.5t9.5 31v131q0 18 -10.5 35t-27.5 30t-39.5 21.5t-48.5 8.5q-25 0 -48 -9t-40.5 -25t-28 -34t-10.5 -36zM243 261q-18 0 -29 -11t-11 -28t11 -27.5t29 -10.5q16 0 27 10.5t11 27.5t-11 28t-27 11zM243 316q19 0 35.5 -7.5t29.5 -20t20 -29.5 t7 -37q0 -19 -7 -35.5t-20 -29.5t-29.5 -20t-35.5 -7q-20 0 -37 7t-29 20t-19.5 29.5t-7.5 35.5q0 20 7.5 37t19.5 29.5t29 20t37 7.5z" />
<glyph unicode="&#xaa67;" horiz-adv-x="813" d="M449 276v-122q0 -16 11 -33t29.5 -31t42.5 -22.5t51 -6.5q25 0 47 9.5t38 23t25 29.5t9 31v131q0 18 -10 35t-27 30t-39.5 21.5t-48.5 8.5q-25 0 -48.5 -9t-41 -25t-28 -34t-10.5 -36zM37 276q0 35 17.5 67.5t46.5 57.5t66.5 39.5t78.5 13.5q51 -1 94.5 -21.5t71.5 -52.5 q30 33 73.5 54t92.5 20q41 0 78 -14t65 -37t44.5 -53.5t16.5 -64.5v-131q0 -33 -16.5 -63t-44 -52.5t-62.5 -36t-72 -16.5q-49 -2 -97.5 18t-80.5 55q-28 -31 -69.5 -50.5t-85.5 -22.5q-38 -2 -77 10.5t-70.5 35.5t-50.5 54.5t-19 67.5v122zM117 276v-122q0 -16 11 -33 t29 -31t42 -22.5t51 -6.5q26 0 47.5 9.5t37.5 23t25.5 29.5t9.5 31v131q0 18 -10 35t-27 30t-40 21.5t-49 8.5q-25 0 -48 -9t-40.5 -25t-28 -34t-10.5 -36zM244 261q-18 0 -29.5 -11t-11.5 -28q0 -16 11.5 -26.5t29.5 -10.5q16 0 27 10.5t11 26.5q0 17 -11 28t-27 11z M244 316q18 0 35 -7.5t29.5 -20t20 -29t7.5 -36.5t-7.5 -36.5t-20 -29.5t-29.5 -20t-35 -7q-19 0 -36 7t-29.5 20t-20 29.5t-7.5 36.5t7.5 36.5t20 29t29.5 20t36 7.5z" />
<glyph unicode="&#xaa68;" horiz-adv-x="815" d="M38 276q0 35 17 67t46 57t66.5 39.5t78.5 14.5q51 -1 95 -21.5t71 -53.5q30 34 74 55t93 20q41 -1 78 -14.5t64.5 -37t44 -54t16.5 -63.5v-132q0 -18 -5 -36q-8 -27 -27 -50t-44.5 -40.5t-56 -28t-61.5 -12.5h-21l-45 4q-5 36 3 68.5t26 58.5q25 37 64.5 59t87.5 23v86 q0 18 -10 34.5t-27 30t-39.5 22t-48.5 8.5t-49 -9.5t-40.5 -25t-28 -33.5t-10.5 -36v-123q0 -9 -1.5 -18t-4.5 -18q-8 -27 -26.5 -50t-44.5 -40.5t-56.5 -28t-61.5 -12.5q-34 -2 -68 7.5t-63 27.5t-50.5 42.5t-30.5 53.5q-5 18 -5 36v123zM117 276v-123q0 -16 13 -36 q9 -12 21.5 -22.5t28 -18.5t33.5 -12.5t38 -2.5q35 1 63.5 18t42.5 38q13 20 13 36v132q0 18 -10 34.5t-27 30t-39.5 22t-48.5 8.5q-25 0 -48.5 -9.5t-41 -25t-28 -33.5t-10.5 -36zM158 254q-2 -7 -3.5 -15t-1.5 -16q0 -20 7 -36.5t20 -29.5t29.5 -20t36.5 -7q19 0 35.5 7 t29.5 20t20.5 29.5t7.5 36.5q0 16 -5 31q-10 27 -34 44.5t-54 17.5q-31 0 -55 -17.5t-33 -44.5zM222 254q10 8 24 8q13 0 23 -8q16 -11 16 -31q0 -17 -11.5 -27.5t-27.5 -10.5q-17 0 -28 10.5t-11 27.5q0 20 15 31zM623 117q-14 -11 -24 -25.5t-17 -30.5h2q35 1 63.5 18 t42.5 38q9 15 12 28q-22 0 -42 -7.5t-37 -20.5z" />
<glyph unicode="&#xaa69;" horiz-adv-x="821" d="M41 154v122q0 35 17 67.5t46.5 57.5t66.5 39.5t78 13.5q47 -1 88.5 -19t70.5 -47q32 37 78 54t102 17q41 0 78 -14t64.5 -37t44 -53.5t16.5 -64.5v-131q0 -33 -16.5 -62.5t-44 -52t-62.5 -36.5t-71 -16q-25 -2 -50 3t-48.5 15t-44 24t-36.5 32q-28 -34 -70.5 -55 t-89.5 -24q-38 -2 -77 10.5t-70 35.5t-50.5 54t-19.5 67zM121 276v-122q0 -15 11 -32.5t29.5 -31t42 -22t50.5 -7.5q25 1 46.5 10.5t37.5 23t25.5 29.5t9.5 30v131q0 18 -10 35t-27 30t-39.5 21.5t-48.5 8.5q-25 0 -48 -9t-40.5 -24.5t-28 -34t-10.5 -36.5zM453 285v-63 q32 14 68.5 15.5t71.5 -9t65.5 -30.5t51.5 -48q1 3 1 9v131q0 17 -10 34.5t-26.5 31t-39 21.5t-48.5 8q-54 0 -88.5 -22.5t-48.5 -55.5q3 -11 3 -22zM326 173q14 21 14 48q0 19 -7 36t-20 29.5t-30 20t-36 7.5t-36 -7.5t-29.5 -20t-20 -29.5t-7.5 -36q0 -26 13 -48 q13 -20 33.5 -32.5t46.5 -12.5q25 0 46 12.5t33 32.5zM453 153q5 -19 19 -35t33 -28t41.5 -18.5t45.5 -5.5q24 1 45 9.5t37 21.5q-16 28 -42.5 48t-57 28.5t-62.5 5t-59 -22.5v-2v-1zM248 259q16 0 27 -11t11 -27q0 -18 -11 -28t-27 -10q-18 0 -29.5 10t-11.5 28 q0 16 11.5 27t29.5 11z" />
<glyph unicode="&#xaa6a;" horiz-adv-x="819" d="M41 154v122q0 35 17 67.5t46.5 57.5t66.5 39.5t78 13.5q47 -1 88.5 -19t70.5 -47q32 37 78 54t102 17q41 0 78 -14t64.5 -37t44 -53.5t16.5 -64.5v-131q0 -33 -16.5 -62.5t-44 -52t-62.5 -36.5t-71 -16q-25 -2 -50 3t-48.5 15t-44 24t-36.5 32q-28 -34 -70.5 -55 t-89.5 -24q-38 -2 -77 10.5t-70 35.5t-50.5 54t-19.5 67zM121 276v-122q0 -15 11 -32.5t29.5 -31t42 -22t50.5 -7.5q25 1 46.5 10.5t37.5 23t25.5 29.5t9.5 30v131q0 18 -10 35t-27 30t-39.5 21.5t-48.5 8.5q-25 0 -48 -9t-40.5 -24.5t-28 -34t-10.5 -36.5zM453 285v-63 q32 14 68.5 15.5t71.5 -9t65.5 -30.5t51.5 -48q1 3 1 9v131q0 17 -10 34.5t-26.5 31t-39 21.5t-48.5 8q-54 0 -88.5 -22.5t-48.5 -55.5q3 -11 3 -22zM453 153q5 -19 19 -35t33 -28t41.5 -18.5t45.5 -5.5q24 1 45 9.5t37 21.5q-16 28 -42.5 48t-57 28.5t-62.5 5t-59 -22.5v-2 v-1z" />
<glyph unicode="&#xaa6b;" horiz-adv-x="539" d="M237 72q11 26 11 53t-8.5 51.5t-26 45.5t-42.5 34v-103q0 -22 18 -44.5t48 -36.5zM90 285q-29 26 -41 65.5t-9 103.5l77 -3q-2 -55 8 -83q28 39 75.5 63t99.5 23q41 0 78 -14t65 -37.5t45 -54t17 -63.5v-132q0 -25 -9.5 -47.5t-25.5 -42t-37.5 -35.5t-46.5 -26l-28 69 q30 14 48.5 37t18.5 45v132q0 17 -10.5 34t-27.5 30t-39.5 22t-48.5 9q-37 0 -67.5 -18.5t-47.5 -44.5q1 0 5 -2l2 -2q41 -19 68.5 -51.5t40 -72t8.5 -81.5t-26 -81q-5 -7 -10 -15q-4 -6 -8.5 -13t-8.5 -12q-14 3 -25.5 7t-21.5 8q-24 11 -46 26.5t-38 35t-25 42t-9 47.5 v123v9z" />
<glyph unicode="&#xaa6c;" horiz-adv-x="953" d="M508 281q0 26 7 45.5t19 35.5q10 18 -6 18h-93q-20 0 -9 -18q11 -14 19 -35.5t8 -45.5v-122q0 -36 -19.5 -67t-50 -54t-69.5 -35.5t-78 -10.5q-37 1 -71.5 15t-62 37t-44.5 52.5t-17 62.5v131q0 29 12.5 55.5t34 48.5t50 37.5t62.5 22.5l41 -69q-25 -1 -46.5 -9.5 t-38 -22t-26 -30t-9.5 -33.5v-131q0 -14 9.5 -30t25.5 -29.5t38 -23.5t46 -10q27 -2 51 6.5t42.5 22.5t29 31t10.5 33v122q0 24 -19 49q-11 17 -15 36t5 42q9 24 29 37.5t45 13.5h133q24 0 41.5 -11t27 -28t9 -38t-12.5 -42q-9 -6 -18.5 -21.5t-9.5 -37.5v-122 q0 -16 10.5 -33t29 -31t43 -22.5t50.5 -6.5q25 0 47 10t38 23.5t25 29.5t9 30v131q0 17 -9.5 33.5t-26 30t-38 22t-46.5 9.5l41 69q33 -7 62 -22.5t50.5 -37.5t34 -48.5t12.5 -55.5v-131q0 -33 -17 -62.5t-44.5 -52.5t-62 -37t-70.5 -15q-40 -2 -78.5 10.5t-69.5 35.5 t-50.5 54t-19.5 67v122z" />
<glyph unicode="&#xaa6d;" horiz-adv-x="652" d="M200 391q-12 0 -20.5 -8t-8.5 -20q0 -13 8.5 -20t20.5 -7t20 7t8 20q0 12 -8 20t-20 8zM200 453q27 0 48.5 -13.5t32.5 -36.5q28 23 63.5 36.5t73.5 13.5q40 0 76 -13.5t63 -36.5t43 -52.5t16 -61.5v-127q0 -32 -16.5 -60.5t-42.5 -50t-60.5 -35.5t-69.5 -15 q-10 -2 -19 0q-2 9 -4 26.5t-6 45.5q6 -1 12.5 -1.5t12.5 0.5q25 1 46 10t36.5 22t24.5 28.5t9 29.5v127q0 18 -10 34t-26.5 29t-38 21t-46.5 8q-23 1 -44 -7t-37 -21t-27.5 -29.5t-14.5 -31.5v-510q0 -21 -8 -39.5t-22 -32.5t-32.5 -22t-39.5 -8h-59q-20 0 -37 7t-31 19 t-22.5 28.5t-10.5 35.5l75 23v-11q0 -11 8 -18.5t18 -7.5h59q10 0 16.5 7.5t6.5 18.5v492q-4 -1 -8 -1h-8q-19 0 -35 7t-28 19.5t-19 28.5t-7 35t7 35.5t19 29t28 19t35 6.5z" />
<glyph unicode="&#xaa6e;" horiz-adv-x="823" d="M231 62q-1 23 -9 44t-22.5 38t-34.5 27.5t-43 14.5v-31q0 -14 8.5 -29t23 -28.5t34 -23t43.5 -12.5zM122 240q42 -5 76 -25.5t56 -52.5t29 -72.5t-5 -82.5l-18 -10q-7 -4 -14 -6.5t-9 -2.5q-36 1 -71 15t-62.5 36.5t-44 52t-16.5 63.5v130q0 34 16 64.5t44 53.5t65 37 t78 14q40 1 78 -13.5t67 -39.5t46 -57t17 -67l-1 -115q1 -18 12 -36t28.5 -32t40 -23.5t47.5 -9.5t47.5 9t40 22t27 30t9.5 35v130q0 15 -9 31t-25 29.5t-37.5 22.5t-47.5 10h-13t-14 -1q4 29 7 47.5t5 27.5h19q36 -1 71 -15t62.5 -36.5t44.5 -52.5t17 -63v-130 q0 -34 -16.5 -64.5t-44.5 -53.5t-65 -37t-77 -14q-40 -1 -77.5 13.5t-66.5 39t-46 56.5t-18 65h-1l2 115q0 17 -10.5 35.5t-28 34t-41 24.5t-48.5 9q-26 0 -48.5 -8.5t-39.5 -21.5t-27 -30t-10 -35v-45z" />
<glyph unicode="&#xaa6f;" horiz-adv-x="671" d="M303 277v-123q0 -15 10.5 -32.5t29 -31t42 -22t50.5 -7.5q25 1 46.5 10.5t37.5 23t25.5 29.5t9.5 30v131q0 18 -9.5 35t-27 30t-40 21.5t-47.5 8.5q-26 0 -49 -9t-40.5 -25t-27.5 -34t-10 -35zM248 356q-3 9 -10 14t-16 5h-77q-11 0 -17.5 -7.5t-6.5 -18.5l1 -362h-81 l-1 362q0 22 8.5 41t22.5 33.5t33 22.5t41 8h77q25 0 46.5 -10.5t35.5 -28.5q27 19 59.5 29.5t67.5 9.5q40 0 77 -14t65 -37t44.5 -53.5t16.5 -64.5v-131q0 -33 -17 -62.5t-44.5 -52t-62 -36.5t-70.5 -15q-39 -3 -78 10t-70 35.5t-50.5 53.5t-19.5 67v123q0 40 26 79z" />
<glyph unicode="&#xaa70;" horiz-adv-x="815" d="M181 57q0 36 -16.5 65.5t-45.5 47.5v-35q0 -20 17 -42t45 -36zM119 229q34 -13 59.5 -35.5t39.5 -52t15.5 -64.5t-13.5 -72l-64 -17q-25 10 -46 25.5t-37 34t-25 41t-9 46.5v144q0 33 17.5 65t46 57t66 39.5t77.5 13.5q51 -1 94 -21t72 -53q28 34 71.5 54.5t92.5 19.5 q41 0 77.5 -14t64 -37t44 -53t16.5 -63v-130q0 -33 -16.5 -62t-44 -52t-62 -36.5t-70.5 -15.5q-10 -1 -21 0q-1 9 -3.5 28t-6.5 47q7 -2 13.5 -2h13.5q24 1 46 10.5t38 23t25 29.5t9 30v130q0 17 -10 34t-27 30t-39.5 21.5t-47.5 8.5q-26 0 -49 -9.5t-40 -24.5t-27 -33 t-10 -35v-2v-142q0 -23 -9.5 -46t-25 -41.5t-37 -34t-46.5 -26.5l-28 69q30 14 48 36t18 43v152q0 17 -10 34t-26.5 30t-39 21.5t-48.5 8.5q-25 0 -48 -9.5t-40.5 -24.5t-27.5 -33t-10 -35v-50z" />
<glyph unicode="&#xaa71;" d="M-400 654q39 29 83 43.5t89 14.5t88.5 -14.5t82.5 -43.5l-36 -48q-31 23 -65.5 34.5t-69.5 11.5t-70 -11.5t-66 -34.5zM-112 502q-24 21 -53.5 31.5t-59.5 11.5t-59.5 -9t-54.5 -29l-43 44q33 28 73 41.5t80.5 13.5t80.5 -14t74 -42z" />
<glyph unicode="&#xaa72;" horiz-adv-x="972" d="M153 65q-9 44 -18 74.5t-23 43.5v-38q0 -28 9 -50.5t32 -29.5zM622 289v-142q4 -15 15.5 -29.5t29 -26t39 -18.5t44.5 -5q25 1 46 10.5t36.5 22.5t24.5 28t9 29v128q0 17 -9.5 33.5t-26.5 29.5t-38.5 21t-46.5 8q-23 1 -43.5 -7t-37 -20.5t-27.5 -29t-15 -32.5zM425 450 q18 0 39 -4.5t42.5 -14t41.5 -23t36 -31.5q29 33 72 53.5t90 19.5q40 0 76 -13.5t63 -36t43 -52t16 -62.5v-128q0 -32 -16.5 -60.5t-42.5 -50.5t-60.5 -35.5t-70.5 -15.5q-45 -3 -89 14.5t-75 47.5q-16 -19 -37 -34t-45 -26l-27 68q27 13 44.5 34t18.5 40v13.5v28v36v36v28 v12.5q-2 15 -12 30.5t-26.5 27.5t-37.5 19.5t-44 7.5q-25 0 -47.5 -9.5t-39.5 -24.5t-27.5 -33t-10.5 -34v-114q0 -39 -5.5 -67t-15.5 -47t-24 -29.5t-29 -15.5v-7t1 -6l-61 -9l-2 14h-10q-20 0 -41 7t-38 22t-28.5 37t-11.5 52v56q0 30 10 50.5t25 33t33 17t33.5 2.5 t27.5 -10t15 -21q9 -12 19 -50t19 -104q4 12 4.5 29.5t0.5 43.5v116q0 33 17 64t45.5 55t65 38.5t76.5 14.5z" />
<glyph unicode="&#xaa73;" horiz-adv-x="617" d="M166 350q-2 11 -6 18t-13 7q-11 0 -17.5 -7.5t-6.5 -18.5v-362h-81l-1 362q0 22 8 41t22.5 33.5t34 22.5t41.5 8q27 0 45.5 -9.5t30 -24.5t16.5 -33.5t5 -36.5v-9.5t0.5 -22t0.5 -31v-35.5v-97q0 -16 10.5 -33t29 -31t43 -22.5t50.5 -7.5q25 1 47 10.5t38 23t25 29.5 t9 31v148q0 24 -18 46.5t-47 35.5l29 69q25 -10 46.5 -26t37 -36t24 -42.5t8.5 -46.5v-148q0 -34 -16.5 -63.5t-44 -52t-62.5 -36.5t-71 -15q-39 -2 -78 10.5t-70 35.5t-50 54t-19 67v195z" />
<glyph unicode="&#xaa74;" horiz-adv-x="562" d="M283 332q-10 -24 -10.5 -48t8 -46.5t24.5 -41t39 -30.5v93q0 19 -17 39t-43 34h-1zM266 -204q-11 0 -19 -8.5t-8 -19.5t8 -18t19 -7t19.5 7t8.5 18t-8.5 19.5t-19.5 8.5zM458 231q0 31 -2 66t-11.5 66t-29.5 54t-54 30q-32 2 -59.5 15.5t-47.5 34.5t-31.5 48t-11.5 59 t12.5 61t35 50t53 33.5t64.5 12.5q28 0 53.5 -8.5t46.5 -23.5t36.5 -36t22.5 -45l-67 -17q-8 27 -34 45.5t-58 18.5q-20 0 -37.5 -7.5t-31 -20t-20.5 -29t-7 -34.5q0 -37 25 -62.5t62 -29.5h0.5h1.5h2q73 -13 113 -74q19 -30 30.5 -77t13.5 -93v-552q0 -14 -11 -25t-25 -11 l-152 48q-11 -19 -30.5 -31t-43.5 -12q-18 0 -33 6.5t-26.5 17.5t-18 26.5t-6.5 32.5q0 18 6.5 33.5t18 26.5t26.5 17.5t33 6.5h14v143q-24 -8 -55 -8q-36 1 -69.5 13.5t-59 33.5t-40 48.5t-14.5 57.5v119q0 22 8 42t22.5 38t34 32t42.5 23l25 -61q-26 -14 -43 -34.5 t-17 -39.5v-119q0 -16 9 -31.5t24.5 -27t36 -19.5t43.5 -8q34 -1 62 16.5t41 40.5q-38 17 -64 46.5t-38 65t-8.5 74.5t23.5 75l1 4q4 7 10 15t12 17q13 -3 23.5 -6t19.5 -8q22 -9 41.5 -23t34 -31.5t23 -38t8.5 -42.5v-111q0 -33 -18 -63.5t-46 -53.5v-232l105 -36z" />
<glyph unicode="&#xaa75;" horiz-adv-x="871" d="M572 -205q-11 0 -19 -7.5t-8 -18.5q0 -12 8 -19t19 -7q12 0 19.5 7t7.5 19q0 11 -7.5 18.5t-19.5 7.5zM763 230q0 31 -2 66t-11.5 66.5t-29 54.5t-53.5 30q-32 2 -59 15.5t-47.5 34t-32 48t-11.5 59.5q0 31 13 60t35 50.5t52.5 33.5t64.5 12q28 0 54 -8.5t47 -23.5 t36 -35.5t22 -45.5l-67 -17q-9 28 -34 46.5t-58 18.5q-19 0 -37 -7.5t-31 -20t-21 -29t-8 -34.5q0 -19 7 -35t18.5 -28t27.5 -20t35 -9h4q38 -7 65 -26t48 -50q9 -15 17 -34.5t14 -41.5t9 -46t4 -47v-551q0 -14 -10.5 -25t-25.5 -11l-152 48q-11 -20 -30.5 -32t-43.5 -12 q-17 0 -32 6.5t-26.5 18t-18 27.5t-6.5 33q0 18 6.5 33t18 26.5t26.5 18t32 6.5q10 0 14 -1v212q27 13 43 33t16 39v119q0 16 -9 31t-24 27.5t-35.5 20t-43.5 7.5q-24 0 -45 -8.5t-36.5 -22.5t-25 -31t-9.5 -32v-2v-123q0 -22 -8 -42t-23 -37.5t-34.5 -31.5t-41.5 -24 l-26 62q28 12 44 33t16 40v133q0 16 -9 31t-24.5 27.5t-36 20t-42.5 7.5q-24 0 -45 -8.5t-37 -22.5t-25 -31t-9 -32v-26q0 -16 11.5 -32t28.5 -30q19 -15 35 -33.5t16 -47.5q0 -32 -16.5 -52.5t-41.5 -30.5t-54 -10.5t-53 8.5l20 63q16 -8 30 -8t23.5 4.5t15.5 11.5t6 14 q0 9 -10 17l-20 16q-64 44 -64 110v26q0 31 16 60t42 51.5t60 36t71 13.5q46 0 86 -19t66 -49q26 31 66 50t84 18q37 0 70.5 -13t58.5 -34t40 -48.5t15 -57.5v-119q0 -32 -16.5 -59.5t-43.5 -48.5v-229l105 -36v467z" />
<glyph unicode="&#xaa76;" horiz-adv-x="817" d="M523 -204q-11 0 -19.5 -8t-8.5 -19q0 -12 8.5 -19t19.5 -7q12 0 19 7t7 19q0 11 -7 19t-19 8zM181 342q-30 1 -55 -12.5t-42 -33.5l-50 48q27 29 65.5 47.5t82.5 17.5q46 -1 85.5 -19.5t65.5 -48.5q27 31 67 50t84 18q37 0 70.5 -12.5t58.5 -33.5t40 -49t15 -58v-119 q0 -32 -16.5 -60t-43.5 -48v-230l105 -36v468q1 31 -1 66.5t-12 66.5t-29.5 54.5t-53.5 30.5q-32 2 -59 15t-47.5 34t-32 48.5t-11.5 58.5q0 33 13 61.5t35.5 49.5t53 33.5t64.5 12.5q28 0 54 -8.5t46.5 -23.5t36 -35.5t22.5 -45.5l-67 -18q-9 28 -34.5 46.5t-57.5 18.5 q-20 0 -38 -7.5t-31 -19.5t-20.5 -28.5t-7.5 -35.5q0 -37 25 -62.5t63 -29.5q1 -1 2 -1h1q38 -6 65 -24.5t48 -49.5q10 -15 18 -34.5t13.5 -42t9 -46t4.5 -46.5v-553q0 -14 -11 -25t-25 -11l-152 48q-12 -20 -31 -32t-43 -12q-17 0 -32.5 6.5t-27 18t-18 27.5t-6.5 33 q0 18 6.5 33t18 26.5t27 18t32.5 6.5h7t7 -1v212q26 13 42.5 33.5t16.5 39.5v119q0 15 -9 30.5t-24.5 27.5t-36 20t-43.5 8q-24 0 -45 -8.5t-37 -22.5t-25 -31t-9 -32v-2l-1 -526q0 -14 -11 -24.5t-25 -10.5l-110 -1l-137 1q-14 0 -24.5 10.5t-10.5 24.5v64q0 8 1 21.5 t7.5 27.5t20.5 26.5t39 17.5q23 5 44 0t38.5 -14t32 -21t23.5 -20l-51 -52q-5 5 -18.5 16t-27.5 17.5t-26 4.5t-13 -22v-30h98h78v500q0 15 -9 30.5t-24.5 27.5t-36 20t-43.5 8z" />
<glyph unicode="&#xaa77;" horiz-adv-x="508" d="M511 -154v12l77 -25q-3 -19 -11.5 -35.5t-22 -29t-31 -19t-37.5 -6.5h-31q-21 0 -39.5 8t-32.5 22t-22 33t-8 40v88q-15 -27 -28 -50t-23 -42t-16 -34t-6 -24q0 -19 4.5 -32t11.5 -22t14.5 -15t15.5 -13l-67 -32q-15 14 -28 31q-10 14 -19 32.5t-8 40.5q0 21 10 48 t24.5 57t32.5 62.5t34.5 64t29.5 62t18 57.5v5v5v4v145q0 17 -9.5 34t-26.5 30.5t-39 21.5t-47 9q-25 0 -47.5 -9.5t-40 -24.5t-27.5 -33t-10 -36v-28q0 -17 12.5 -34.5t31.5 -31.5q21 -16 37 -36.5t16 -52.5q0 -35 -17.5 -57.5t-44 -33t-58 -10.5t-58.5 10l23 66 q17 -9 32 -8.5t25.5 5.5t17 13t6.5 15q0 11 -11 19.5t-22 15.5q-69 47 -69 120v28q0 34 17 65.5t45.5 55.5t66 39t76.5 15q28 0 63 -11.5t65 -33.5t50.5 -54.5t20.5 -75.5v-430q0 -11 6.5 -18.5t17.5 -7.5h31q11 0 18 7.5t7 18.5zM235 522h10h10l-2 -68q-4 -1 -8.5 -1h-9.5 q-33 0 -62.5 12t-52 33t-35 49t-12.5 60q0 31 12.5 59t35 49t52 32.5t62.5 11.5q28 0 53.5 -8t46 -23t35.5 -35.5t22 -44.5l-71 -19q-4 14 -11.5 25.5t-19 19.5t-25.5 12.5t-30 4.5q-18 0 -34.5 -6.5t-28.5 -18t-19 -26.5t-7 -33t7 -33.5t19 -27t28.5 -18t34.5 -6.5z" />
<glyph unicode="&#xaa78;" horiz-adv-x="986" d="M572 401q-43 -51 -94.5 -75.5t-105.5 -23.5t-105.5 28t-93.5 79l47 58q32 -41 71.5 -61.5t80.5 -21t81.5 18t72.5 58.5zM86 474q50 -53 75 -116t24 -128t-27.5 -127.5t-78.5 -113.5l-59 57q41 39 61.5 87.5t21.5 98.5t-18 98.5t-58 87.5zM133 29q37 46 87.5 74.5 t105 36.5t110 -3.5t103.5 -46.5q5 61 18 124.5t33 125t46.5 119t56.5 106t64 86t70 58.5q13 8 30.5 14.5t38.5 7t44 -6.5t45 -27l-12 -81q-40 33 -74 32.5t-63 -20.5q-59 -61 -99 -136.5t-66.5 -156t-41 -160t-20.5 -147.5l-73 -50q-33 42 -77 62.5t-91 21t-92 -20.5 t-78 -63z" />
<glyph unicode="&#xaa79;" horiz-adv-x="476" d="M234 453q28 0 63 -11.5t66 -33.5t51.5 -54.5t20.5 -75.5l-1 -135q0 -4 -0.5 -7t-0.5 -6q-2 -23 -10.5 -53t-20 -61.5t-24 -63.5t-23.5 -59.5t-18 -49.5t-6 -34q1 -20 6 -34.5t11.5 -26.5t14.5 -20.5t15 -15.5l-68 -33q-16 18 -28 38q-11 17 -19 39t-8 43q0 35 15 77.5 t33 88t34 91t18 85.5v147q0 17 -10 34t-27 29.5t-39 20.5t-47 8t-48 -9t-40.5 -24t-27.5 -33.5t-10 -35.5v-28q0 -16 13 -34t31 -32q21 -17 38 -38t17 -52q0 -34 -18 -56.5t-44.5 -33.5t-58.5 -11t-59 9l23 69q18 -10 32.5 -10t25 5t17 13t6.5 15q0 12 -11 20l-22 16 q-34 23 -51.5 53.5t-17.5 66.5v28q0 34 17 66t46 56t66.5 38.5t77.5 14.5z" />
<glyph unicode="&#xaa7a;" horiz-adv-x="934" d="M710 448q35 -2 69 -16t61 -36t43.5 -51t16.5 -61v-130q0 -32 -16 -61.5t-43.5 -52.5t-64 -36.5t-75.5 -14.5q-35 0 -67.5 11.5t-60.5 32.5l2 -316q0 -16 -11.5 -27t-27.5 -11h-464q-15 0 -26.5 11t-11.5 27v931q0 15 11.5 26.5t26.5 11.5h425v72h77v-110 q0 -16 -11.5 -27.5t-26.5 -11.5h-425v-853h386v518q0 17 -10 34.5t-26.5 32.5t-39 24.5t-48.5 9.5q-25 0 -47 -8.5t-38.5 -21.5t-26.5 -29.5t-10 -33.5v-129q0 -14 9 -29.5t24.5 -28.5t37 -22t45.5 -10h14t13 1q-5 -29 -7 -47t-4 -27q-9 -1 -20 0q-35 3 -69 16.5t-61 35.5 t-43.5 50.5t-16.5 60.5v129q0 32 16.5 62t44 52.5t63.5 36.5t75 15q40 0 76.5 -14.5t65 -39t45.5 -56t17 -64.5l-1 -115q1 -16 11.5 -33.5t27.5 -31.5t39 -22.5t46 -8.5q25 0 47.5 8t39 21t26.5 29t10 33v130q0 14 -9 29t-25 28.5t-37.5 22.5t-46.5 11q-13 1 -25 -3 q4 29 6.5 47t4.5 29h20z" />
<glyph unicode="&#xaa7b;" horiz-adv-x="263" d="M52 29q-15 23 -15 51q0 20 7.5 37t20 29t29.5 19.5t36 7.5t36 -7.5t29.5 -19.5t20 -29t7.5 -37q0 -32 -19 -56.5t-48 -33.5l56 -97l-60 -35zM130 108q-12 0 -20.5 -8t-8.5 -20q0 -14 8.5 -21t20.5 -7q13 0 21.5 7t8.5 21q0 12 -8.5 20t-21.5 8z" />
<glyph unicode="&#xe000;" horiz-adv-x="425" d="M0 425h425v-425h-425v425z" />
<glyph unicode="&#xfb01;" horiz-adv-x="410" d="M276 626l-12 -67q-23 4 -45 4q-28 0 -45 -12t-17 -58v-42h87v-60h-87v-391h-77v391h-68v60h68v48q0 34 6 62t33.5 50t84.5 22q34 0 72 -7zM376 0h-77v451h77v-451zM376 536h-77v87h77v-87z" />
<glyph unicode="&#xfb02;" horiz-adv-x="412" d="M276 626l-12 -67q-23 4 -45 4q-28 0 -45 -12t-17 -58v-42h87v-60h-87v-391h-77v391h-68v60h68v48q0 34 6 62t33.5 50t84.5 22q34 0 72 -7zM374 0h-76v623h76v-623z" />
<glyph d="M-228 535q-6 15 -17 26t-24.5 17t-29 6.5t-30.5 -4.5q4 -6 8.5 -11t9.5 -9q18 -16 39.5 -22t43.5 -3zM-377 754q19 23 44 37t52 20t55 3t55 -15q14 -11 14.5 -24.5t-7 -24.5t-19 -16t-23.5 1q-15 5 -31 6t-31 -2.5t-28.5 -12t-24.5 -21.5q-16 -17 -22 -37.5t-3 -41.5 q20 8 40.5 8.5t40 -5t36.5 -17t29.5 -28t19.5 -36.5t6 -44q2 -12 -5 -23.5t-24 -15.5q-40 -9 -81.5 0.5t-74.5 38.5q-28 24 -43 55.5t-17.5 65.5t8 68t34.5 61z" />
<glyph d="M-362 535q-5 15 -16.5 26t-25 17t-29 6.5t-29.5 -4.5q4 -6 8.5 -11t9.5 -9q17 -16 38.5 -22t43.5 -3zM-511 754q20 23 44.5 37t51.5 20t55.5 3t53.5 -15q15 -11 15.5 -24.5t-6.5 -24.5t-19 -16t-23 1q-15 5 -31 6t-31.5 -2.5t-29 -12t-24.5 -21.5q-16 -17 -21.5 -37.5 t-3.5 -41.5q20 8 40.5 8.5t40 -5t36.5 -17t29.5 -28t19 -36.5t6.5 -44q1 -12 -5.5 -23.5t-22.5 -15.5q-40 -9 -82 0.5t-76 38.5q-27 24 -42 55.5t-17.5 65.5t8 68t34.5 61zM-202 563q14 -13 31.5 -20t36.5 -7q21 0 38 7t31 20q-6 13 -17 22.5t-24.5 14t-27 4.5t-26.5 -4.5 t-23.5 -14t-18.5 -22.5zM-234 635q0 -14 4 -27q18 22 43.5 33t53 11t53 -11t44.5 -33q3 13 3 27q0 20 -8 38t-21.5 31t-31.5 21.5t-40 8.5q-20 0 -38 -8.5t-32 -21.5t-22 -31t-8 -38zM-308 635q0 35 13.5 66.5t37 55t55.5 37t68 13.5q37 0 69 -13.5t56 -37t37.5 -55 t13.5 -66.5q0 -36 -13.5 -67.5t-37.5 -54.5t-56 -37t-69 -14q-36 0 -68 14t-55.5 37t-37 54.5t-13.5 67.5z" />
<glyph d="M-120 -28q17 -12 31 -28.5t23.5 -36.5t15 -42t5.5 -45q0 -39 -13.5 -72.5t-37.5 -58.5t-55.5 -39.5t-67.5 -14.5q-35 0 -66.5 14.5t-55 39.5t-37 58.5t-13.5 72.5q0 23 5.5 44.5t14.5 41t22.5 36t29.5 28.5q10 9 19.5 9t17.5 -4.5t13.5 -12.5t7 -18t-2 -19t-12.5 -17 q-20 -15 -31.5 -38.5t-11.5 -49.5q0 -23 8 -42.5t21.5 -34t32 -23.5t38.5 -9q21 0 39.5 9t32.5 23.5t22 34t8 42.5q0 27 -12 51t-32 39q-10 6 -13.5 15.5t-2 19t6.5 17.5t13.5 13t17.5 4.5t19 -7.5zM-219 -127q12 0 22.5 -4.5t18 -12t12 -17.5t4.5 -22q0 -11 -4.5 -21.5 t-12 -18t-18 -12t-22.5 -4.5q-11 0 -21.5 4.5t-18 12t-12 18t-4.5 21.5q0 12 4.5 22t12 17.5t18 12t21.5 4.5zM-219 -160q-9 0 -16 -6.5t-7 -16.5t7 -16.5t16 -6.5q10 0 16.5 6.5t6.5 16.5t-6.5 16.5t-16.5 6.5zM-219 -127q12 0 22.5 -4.5t18 -12t12 -17.5t4.5 -22 q0 -11 -4.5 -21.5t-12 -18t-18 -12t-22.5 -4.5q-11 0 -21.5 4.5t-18 12t-12 18t-4.5 21.5q0 12 4.5 22t12 17.5t18 12t21.5 4.5zM-219 -160q-9 0 -16 -6.5t-7 -16.5t7 -16.5t16 -6.5q10 0 16.5 6.5t6.5 16.5t-6.5 16.5t-16.5 6.5z" />
<glyph d="M-224 631q0 -20 8.5 -37.5t22 -31t31.5 -20.5t40 -7q20 0 38.5 7t32.5 20.5t22 31t8 37.5q0 19 -8 37t-22 31t-32.5 20.5t-38.5 7.5q-22 0 -40 -7.5t-31.5 -20.5t-22 -31t-8.5 -37zM-299 631q0 35 14 65.5t38 53t56 36t69 13.5q36 0 68.5 -13.5t56 -36t37.5 -53t14 -65.5 t-14 -65.5t-37.5 -53t-56 -36.5t-68.5 -14q-37 0 -69 14t-56 36.5t-38 53t-14 65.5zM-344 535q-6 15 -16.5 26t-24.5 17t-29.5 6.5t-29.5 -4.5q4 -6 8 -11t9 -9q18 -16 39 -22t44 -3zM-494 754q20 23 45 37t52 20t55 3t54 -15q14 -11 15 -24.5t-6 -24.5t-19 -16t-24 1 q-15 5 -30.5 6t-31 -2.5t-29 -12t-25.5 -21.5q-15 -17 -20.5 -37.5t-3.5 -41.5q19 8 40 8.5t40.5 -5t36.5 -17t29.5 -28t19.5 -36.5t6 -44q1 -12 -6 -23.5t-23 -15.5q-40 -9 -81.5 0.5t-75.5 38.5q-27 24 -42.5 55.5t-18 65.5t8.5 68t34 61z" />
<glyph d="M-423 599q-18 -1 -29.5 -3.5t-19 -7t-10.5 -10.5t-3 -13t3.5 -14t11.5 -11.5t21.5 -7t33.5 -2.5q18 0 32.5 5t24.5 11q8 6 16.5 6t15 -4t11 -11t6 -16t-2 -17t-12.5 -14q-18 -13 -42 -20t-49 -7q-22 0 -45.5 6.5t-43 19t-32 32t-12.5 44.5q0 21 8.5 37.5t24.5 29.5 q-16 13 -24.5 29.5t-8.5 37.5q0 26 12.5 45t32 31.5t43 18.5t45.5 6q25 0 49 -7t42 -20q9 -5 12.5 -13.5t2 -16.5t-6 -15.5t-11 -11.5t-14.5 -4t-17 5q-10 8 -24.5 12.5t-32.5 4.5q-20 0 -33.5 -3t-21.5 -8.5t-11.5 -11.5t-3.5 -12q0 -9 3 -15t10.5 -10t19 -6t29.5 -3 q2 1 4 1h4q25 0 49 -7t42 -20q9 -7 12.5 -15t2 -16.5t-6 -15.5t-11 -11t-14.5 -3.5t-17 6.5t-22.5 10t-29.5 5h-6h-7zM-93 462q-36 -4 -69.5 5t-60 28.5t-44.5 48t-23 64.5q-6 35 3.5 67.5t29.5 59t49.5 44t65.5 22.5q33 4 63.5 -2.5t56 -22.5t44.5 -40t29 -54 q3 -11 0 -20.5t-10 -16t-16 -9.5t-18 -1.5t-16.5 8t-11.5 17.5q-6 17 -16.5 31t-25.5 23t-32 13t-36 2q-21 -3 -37.5 -13.5t-28.5 -25t-17.5 -33.5t-1.5 -40q2 -19 12.5 -35.5t26 -28t34.5 -16.5t40 -2q13 1 22 -3t14 -11.5t6.5 -17t-2 -18t-10.5 -15t-20 -8.5z" />
<glyph d="M-93 462q-36 -4 -69.5 5t-60 28.5t-44.5 48t-23 64.5q-6 35 3.5 67.5t29.5 59t49.5 44t65.5 22.5q33 4 63.5 -2.5t56 -22.5t44.5 -40t29 -54q3 -11 0 -20.5t-10 -16t-16 -9.5t-18 -1.5t-16.5 8t-11.5 17.5q-6 17 -16.5 31t-25.5 23t-32 13t-36 2q-21 -3 -37.5 -13.5 t-28.5 -25t-17.5 -33.5t-1.5 -40q2 -19 12.5 -35.5t26 -28t34.5 -16.5t40 -2q13 1 22 -3t14 -11.5t6.5 -17t-2 -18t-10.5 -15t-20 -8.5zM-362 535q-5 15 -16.5 26t-25 17t-29 6.5t-29.5 -4.5q4 -6 8.5 -11t9.5 -9q17 -16 38.5 -22t43.5 -3zM-511 754q20 23 44.5 37t51.5 20 t55.5 3t53.5 -15q15 -11 15.5 -24.5t-6.5 -24.5t-19 -16t-23 1q-15 5 -31 6t-31.5 -2.5t-29 -12t-24.5 -21.5q-16 -17 -21.5 -37.5t-3.5 -41.5q20 8 40.5 8.5t40 -5t36.5 -17t29.5 -28t19 -36.5t6.5 -44q1 -12 -5.5 -23.5t-22.5 -15.5q-40 -9 -82 0.5t-76 38.5 q-27 24 -42 55.5t-17.5 65.5t8 68t34.5 61z" />
<glyph d="M-408 -11q15 -9 31.5 -15t34 -9.5t35 -5.5t33.5 -2q35 -1 67 4.5t62 24.5q4 3 9 5t10 3t9.5 0.5t7.5 -1.5q11 -3 18.5 -12t7.5 -24v-236q0 -6 2 -8t10 -2h41q13 0 21.5 -6t12.5 -14t4 -18t-4 -18t-12.5 -14t-21.5 -6h-41q-17 0 -32.5 5.5t-27.5 16.5t-19 27t-7 37v176 q-30 -10 -59.5 -13.5t-60.5 -2.5q-21 0 -43.5 3t-44.5 8t-43.5 13.5t-39.5 20.5q-10 7 -14.5 16.5t-3 18.5t6.5 17t13 13t18.5 5t19.5 -7z" />
<glyph d="M-408 -11q14 -10 31.5 -16.5t35 -11t36 -6.5t35.5 -2q35 0 68.5 7.5t63.5 27.5q13 8 24 6.5t20 -8.5t12.5 -18t1.5 -21v-196q0 -24 -9 -45t-25 -37t-36.5 -25t-45.5 -9h-180q-25 0 -46 9.5t-36.5 25t-24.5 36.5t-9 45t10 45.5t27 36.5t39.5 22.5t48.5 4.5q18 -3 33 -8.5 t28 -14t25.5 -18.5t26.5 -22q10 -9 12.5 -18t0.5 -18t-8 -16t-14.5 -10t-18.5 -1.5t-20 9.5q-6 4 -11.5 10t-12 11.5t-14.5 10t-18 9.5q-8 4 -18 4.5t-19 -2.5t-15.5 -11.5t-6.5 -23.5q0 -8 3 -15.5t8.5 -13t13 -8.5t16.5 -3h180q8 0 16 3t13 8.5t8.5 13t3.5 15.5v145 q-29 -10 -58.5 -14t-59.5 -3q-21 0 -44.5 2.5t-46.5 8t-45 14.5t-40 21q-11 7 -15 16t-3 18.5t6.5 17.5t13 13t18 5t21.5 -6z" />
<glyph d="M-481 -284v57q-4 3 -7.5 7t-6.5 8q-8 11 -4.5 21t12 15t19.5 5t19 -11q10 -15 27 -23t37 -8q16 0 30 5t24.5 14.5t16.5 23t7 27.5v4q-1 15 -7 28t-16.5 22.5t-24.5 15.5t-30 6q-19 0 -36 -8.5t-27 -22.5q-5 -7 -12 -9.5t-14 -1t-13 5t-9 9.5t-3 13t5 14q18 24 46.5 38 t62.5 14q27 0 52 -9.5t43 -27t28.5 -40.5t10.5 -48v-3q0 -14 6.5 -27.5t17.5 -23t24.5 -14.5t29.5 -5t30.5 5t25 15.5t16.5 23.5t6 29q0 15 -6 28.5t-16.5 23t-25 15.5t-30.5 6q-14 0 -21 8t-7 18t7 18t21 8q28 0 52 -9.5t42.5 -27t29 -40.5t10.5 -48q0 -26 -10.5 -49 t-29 -40t-42.5 -27t-52 -10q-32 0 -59.5 13.5t-46.5 35.5q-19 -22 -46.5 -35.5t-59.5 -13.5q-19 0 -40 6v-24q0 -11 9 -19.5t22 -8.5h265q13 0 22 8.5t9 19.5q0 9 9 13t19.5 4t19.5 -4t9 -13q0 -16 -7 -31t-19 -26.5t-28 -18t-34 -6.5h-265q-18 0 -34 6.5t-27.5 18 t-18.5 26.5t-7 31z" />
<glyph horiz-adv-x="504" d="M277 -136q9 -4 9.5 -10.5t-3.5 -11.5t-11.5 -7t-15.5 2q-5 2 -11 4t-13 2q-18 0 -27 -7t-9 -15q0 -6 9 -13.5t27 -7.5q7 0 13 1.5t11 4.5q8 5 15.5 2.5t11.5 -7.5t3.5 -11.5t-9.5 -10.5l-1.5 -0.5t-3.5 -1.5q0 -1 0.5 -4t0.5 -7v-9q0 -7 1 -11.5t11 -4.5h12 q8 0 11.5 -4.5t3.5 -10t-3.5 -10t-11.5 -4.5h-12q-14 0 -22 3.5t-13.5 9t-7.5 13t-2 14.5v16q-1 0 -3.5 -0.5t-4.5 -0.5q-15 0 -28.5 4t-24 11t-17 17.5t-6.5 21.5q0 13 6.5 22.5t17 16.5t24 11t28.5 4q12 0 24 -2.5t21 -8.5zM449 -42q0 -6 -2 -10.5t-4.5 -8.5t-5.5 -7 t-6 -4q-19 -13 -42 -22t-47.5 -14.5t-48.5 -8.5t-47 -3q-30 0 -59.5 4t-58.5 14v-148q0 -8 3 -15.5t8.5 -13.5t13 -8.5t16.5 -2.5h184q8 0 15.5 2.5t12.5 8.5t8.5 13.5t3.5 15.5q0 15 -4.5 23.5t-11 11.5t-13.5 3t-14 -1q-7 -2 -13.5 3t-11.5 12.5t-8 17t-1.5 17.5t8 14.5 t19.5 8.5q25 3 48 -4.5t40.5 -22.5t27.5 -37t10 -46t-9.5 -45.5t-25 -37.5t-37 -25t-44.5 -9h-184q-25 0 -46 9t-37 25t-25 37.5t-9 45.5v200q-3 11 1 22t13 18t20.5 8t23.5 -7q30 -19 64 -26.5t70 -7.5q14 0 31 1.5t34 4.5t33 7.5t31 12.5v28q-45 -21 -97 -21 q-48 0 -91 18.5t-75 50.5t-50.5 75t-18.5 91q0 50 18.5 92.5t50.5 75t75 51t91 18.5q29 0 55.5 -6.5t49.5 -18t43 -28t37 -36.5q8 -11 9 -20.5t-3.5 -18t-12 -15t-16.5 -8.5t-19 1.5t-18 13.5q-21 27 -53.5 43t-71.5 16q-32 0 -61 -12.5t-50.5 -34t-34.5 -51t-13 -62.5 q0 -32 13 -61.5t34.5 -51t50.5 -34t61 -12.5q40 0 73 17t54 46q8 10 17.5 13.5t19 2t17.5 -7.5t12.5 -14.5t3.5 -19t-8 -19.5l-8 -10t-8 -9v-8.5v-20v-25v-25.5v-20v-8z" />
<glyph d="M-242 -115q-3 -6 -5 -15t0 -20q1 -7 4.5 -13t8 -11t8 -8.5t5.5 -3.5q4 6 4 15.5t-3.5 20t-9 20t-12.5 15.5zM-277 -228q-21 18 -31.5 40.5t-10.5 46t8.5 46t25.5 39.5t41 27t55 8q23 0 44.5 -9t38 -24t26 -35.5t9.5 -44.5q0 -20 -5 -37.5t-12 -33.5t-15.5 -31.5 t-15.5 -31.5q-2 -4 -3.5 -10t-1.5 -11t4 -7.5t13 -0.5q14 1 22.5 -3.5t13 -12t4 -16t-4.5 -16.5t-13 -13t-22 -6q-23 -4 -41 1t-28.5 15.5t-14.5 25.5t-1 33q4 18 12.5 36.5t17.5 38t16 39.5t6 41q0 17 -9.5 27.5t-23 15t-28.5 2.5t-26 -10q10 -8 17.5 -20t12 -25.5t5 -28.5 t-3.5 -28t-13 -23t-23 -14q-9 -1 -17 1q-8 1 -15 3t-13 6z" />
<glyph horiz-adv-x="180" d="M163 -366h-7q-24 0 -45.5 9t-37 25t-24.5 37t-9 45v950q0 24 9 45t24.5 37t37 25t45.5 9h143q11 0 18.5 -6t11 -14.5t3 -18t-4 -17.5t-11 -14t-17.5 -6h-143q-8 0 -15.5 -3t-13.5 -8.5t-8.5 -13t-2.5 -15.5v-950q0 -8 2.5 -15.5t8.5 -13t13.5 -8.5t15.5 -3h7 q16 0 26.5 -6t16 -14t5.5 -18t-5.5 -18t-16 -14t-26.5 -6z" />
<glyph horiz-adv-x="171" d="M290 -366h-134q-24 0 -45.5 9t-37 25t-24.5 37t-9 45v950q0 24 9 45t24.5 37t37 25t45.5 9h752q24 0 45 -9t36.5 -25t25 -37t9.5 -45v-46q0 -13 -5.5 -21t-14.5 -12.5t-18.5 -4.5t-18 4.5t-14 12.5t-5.5 21v46q0 8 -3.5 15.5t-8.5 13t-12 8.5t-16 3h-752q-8 0 -15.5 -3 t-13 -8.5t-8.5 -13t-3 -15.5v-950q0 -8 3 -15.5t8.5 -13t13 -8.5t15.5 -3h134q13 0 23 -6t15.5 -14t6 -18t-4 -18t-14 -14t-26.5 -6z" />
<glyph horiz-adv-x="171" d="M156 -366q-24 0 -45.5 9t-37 25t-24.5 37t-9 45v950q0 24 9 45t24.5 37t37 25t45.5 9h490q24 0 45.5 -9t37 -25t24.5 -37t9 -45v-46q0 -13 -5.5 -21t-14 -12.5t-18.5 -4.5t-18 4.5t-14 12.5t-6 21v46q0 8 -3 15.5t-8.5 13t-13 8.5t-15.5 3h-490q-8 0 -15.5 -3t-13.5 -8.5 t-8.5 -13t-2.5 -15.5v-950q0 -8 2.5 -15.5t8.5 -13t13.5 -8.5t15.5 -3q10 0 16 -6t9 -14t2.5 -18t-4 -18t-9.5 -14t-14 -6z" />
<glyph d="M-157 -276q-2 -4 -1 -8.5t4 -7.5t6 -5.5t5 -2.5q9 -3 14 -10t6.5 -15.5t-0.5 -18t-9.5 -15.5t-20 -9t-30.5 2q-10 4 -19.5 12.5t-16 20.5t-8.5 28t3 34q6 19 14.5 38.5t16.5 37t14.5 33t5.5 27.5q0 15 -8 26t-19.5 16.5t-25 5.5t-25 -5.5t-19 -17.5t-7.5 -29 q0 -18 -10.5 -26.5t-24 -8.5t-23.5 8.5t-10 26.5q0 29 10 51.5t27 37.5t38.5 22.5t44 7.5t44 -7t39 -21.5t27.5 -36.5t10 -50q0 -18 -5.5 -33t-13 -31t-16.5 -34.5t-17 -42.5z" />
<glyph horiz-adv-x="282" d="M180 -299h-108q-36 0 -36 36v947q0 36 36 36h108q36 0 36 -36t-36 -36h-72v-875h72q36 0 36 -36t-36 -36z" />
<glyph horiz-adv-x="289" d="M76 -299q-36 0 -36 36t36 36h72v875h-72q-36 0 -36 36t36 36h108q36 0 36 -36v-947q0 -36 -36 -36h-108z" />
<glyph horiz-adv-x="153" d="M-290 -265v137q0 25 -17 25h-249q-20 -1 -20 -20v-142q0 -36 -36 -36t-36 36v142q0 50 19.5 70.5t72.5 20.5h249q23 1 32.5 -0.5t21.5 -8.5q18 9 54 9h250q48 1 68.5 -20.5t20.5 -75.5v-137q0 -36 -36 -36t-36 36v137q0 25 -17 25h-250q-19 -1 -19 -20v-142 q0 -36 -36 -36t-36 36z" />
<glyph d="M-465 -265v137q0 25 -17 25h-249q-20 -1 -20 -20v-142q0 -36 -36 -36t-36 36v142q0 50 19.5 70.5t72.5 20.5h249q23 1 32.5 -0.5t21.5 -8.5q18 9 54 9h250q48 1 68.5 -20.5t20.5 -75.5v-137q0 -36 -36 -36t-36 36v137q0 25 -17 25h-250q-19 -1 -19 -20v-142 q0 -36 -36 -36t-36 36z" />
<glyph d="M-212 -229h78q26 0 26 11v97q0 17 -25 17h-295q-36 0 -36 36t36 36h295q48 0 72.5 -24t24.5 -65v-97q0 -39 -26 -61t-72 -22h-244q-40 0 -62.5 25.5t-22.5 77.5q0 18 9 31t27 13q12 0 31 1.5t28 1.5q13 0 19.5 -0.5t28.5 -5.5q34 -10 59.5 -25.5t48.5 -46.5zM-391 -205 q0 -24 13 -24h90q-20 14 -46 19q-16 5 -44 5h-13z" />
<glyph d="M-35 -265q0 -36 -36 -36t-36 36v137q0 25 -17 25h-249q-19 0 -19 -21v-141q0 -36 -36 -36t-36 36v141q0 50 19 71.5t72 21.5h249q48 0 68.5 -21.5t20.5 -75.5v-137z" />
<glyph horiz-adv-x="128" d="M-625 -158l1 -10v-41q0 -19 19 -19h250q17 0 17 25v136q0 37 36 37t36 -36v-137v-6q0 -19 19 -19h249q17 0 17 25v137q0 36 36 36t36 -36v-137q0 -55 -19.5 -76t-69.5 -21h-249q-34 0 -55 10q-9 -5 -22.5 -7.5t-30.5 -2.5h-250q-51 0 -71 21t-20 70v41q0 19 13 29l4 2 l60 54h-59q-14 0 -20 10.5t-6 16.5q0 12 6.5 19.5t19.5 7.5h120q10 0 17 -10.5t7 -25.5q0 -9 -7 -17z" />
<glyph d="M-751 -158l1 -10v-41q0 -19 19 -19h250q17 0 17 25v136q0 37 36 37t36 -36v-137v-6q0 -19 19 -19h249q17 0 17 25v137q0 36 36 36t36 -36v-137q0 -55 -19.5 -76t-69.5 -21h-249q-34 0 -55 10q-9 -5 -22.5 -7.5t-30.5 -2.5h-250q-51 0 -71 21t-20 70v41q0 19 13 29l4 2 l60 54h-59q-14 0 -20 10.5t-6 16.5q0 12 6.5 19.5t19.5 7.5h120q10 0 17 -10.5t7 -25.5q0 -9 -7 -17z" />
<glyph d="M-35 -217q0 -35 -22.5 -59t-56.5 -24h-268q-36 0 -60.5 23.5t-24.5 59.5v107q0 33 26.5 56t58.5 23h266q34 0 57.5 -24.5t23.5 -58.5v-103zM-112 -217v103l-4 8h-200l47 -46q10 -10 10 -20t-12 -20l-40 -34h197zM-328 -170l-61 61l-1 -108l1 -5z" />
<glyph horiz-adv-x="124" d="M-592 -228h112q-15 14 -46.5 21t-65.5 7v-28zM-270 -41q3 4 14.5 7t22.5 3h278q37 0 65.5 -27t28.5 -62v-91q0 -36 -27.5 -62.5t-66.5 -26.5h-285q-27 0 -34 7q-17 -7 -36 -7h-298q-24 0 -32 22q-6 6 -6 16v89q0 27 26 27q66 0 117 -17q65 -22 84 -65h109q7 0 14.5 5 t7.5 12v91q0 7 -6 12t-16 5h-290q-36 0 -36 36t36 36h290q20 0 40 -10zM-201 -228h246q7 0 14.5 5t7.5 12v91q0 7 -6 12t-16 5h-249q-12 -4 -12 -17v-91q0 -5 4.5 -11t10.5 -6z" />
<glyph d="M-760 -228h112q-15 14 -46.5 21t-65.5 7v-28zM-438 -41q3 4 14.5 7t22.5 3h278q37 0 65.5 -27t28.5 -62v-91q0 -36 -27.5 -62.5t-66.5 -26.5h-285q-27 0 -34 7q-17 -7 -36 -7h-298q-24 0 -32 22q-6 6 -6 16v89q0 27 26 27q66 0 117 -17q65 -22 84 -65h109q7 0 14.5 5 t7.5 12v91q0 7 -6 12t-16 5h-290q-36 0 -36 36t36 36h290q20 0 40 -10zM-369 -228h246q7 0 14.5 5t7.5 12v91q0 7 -6 12t-16 5h-249q-12 -4 -12 -17v-91q0 -5 4.5 -11t10.5 -6z" />
<glyph d="M-118 -126q0 24 -13 24h-90q20 -14 45 -19q16 -5 30.5 -5h27.5zM-46 -132l28 -20q11 -7 11 -20q0 -29 -29 -29q-7 0 -16 6l-25 17h-5q-12 0 -31 -1t-28 -1q-25 0 -48 6q-35 10 -60 25.5t-48 46.5h-78q-26 0 -26 -11v-97q0 -17 25 -17h295q36 0 36 -36t-36 -36h-295 q-48 0 -72.5 24t-24.5 65v97q0 39 25.5 61t72.5 22h244q85 0 85 -102z" />
<glyph horiz-adv-x="149" d="M-35 -217q0 -35 -22.5 -59t-56.5 -24h-268q-36 0 -60.5 23.5t-24.5 59.5v107q0 33 26.5 56t58.5 23h266q34 0 57.5 -24.5t23.5 -58.5v-103zM-112 -217v103l-14 8h-190l47 -46q10 -10 10 -20t-12 -20l-40 -34h188zM-328 -170l-61 61v-108v-5zM108 -266q0 -39 -30 -39 q-5 0 -19 5l-77 38l6 77l48 -27v608q0 36 36 36t36 -36v-662z" />
<glyph horiz-adv-x="509" d="M36 120q0 18 11.5 28t26.5 10q16 0 27.5 -10t11.5 -28v-35l2 -8h268q8 0 8 8v265l-8 5h-265l-5 -8v-30q0 -18 -11.5 -28.5t-27.5 -10.5q-15 0 -26.5 10.5t-11.5 28.5v30q0 33 23.5 59t58.5 26h265q85 0 85 -82v-265q1 -38 -21 -61.5t-64 -23.5h-268h-7v-182q0 -20 12 -33 t31 -13h207q16 0 27 12t11 29v33q0 36 36 36t36 -36v-33q0 -46 -31 -79.5t-79 -33.5h-207q-48 0 -81.5 33.5t-33.5 84.5v302z" />
<glyph horiz-adv-x="860" d="M36 120q0 18 11.5 28t26.5 10q16 0 27.5 -10t11.5 -28v-35l2 -8h268q8 0 8 8v265l-8 5h-265l-5 -8v-30q0 -18 -11.5 -28.5t-27.5 -10.5q-15 0 -26.5 10.5t-11.5 28.5v30q0 33 23.5 59t58.5 26h265q32 0 58.5 -23.5t26.5 -58.5v-265h1l7 -8h262l5 8v262l-3 8h-124 q-18 0 -28.5 11.5t-10.5 27.5q0 15 10.5 26.5t28.5 11.5h124q35 0 58.5 -24.5t23.5 -60.5v-262q0 -35 -24 -60t-60 -25h-262q-22 0 -46 13q-21 -13 -47 -13h-268h-7v-182q0 -20 12 -33t31 -13h214q19 0 30 -11t11 -25q0 -36 -41 -36h-214q-48 0 -81.5 33.5t-33.5 84.5v302z " />
<glyph horiz-adv-x="510" d="M480 84q0 -35 -23 -60t-56 -25h-268q-36 0 -60.5 23.5t-24.5 61.5v265q0 18 7 33t19 26t27 17t32 6h265q36 0 59 -25t23 -60v-30q0 -18 -11.5 -28.5t-26.5 -10.5q-16 0 -27.5 10.5t-11.5 28.5v30l-5 8h-265l-8 -5v-265q0 -8 8 -8h268l2 8v35q0 18 11.5 28t27.5 10 q15 0 26.5 -10t11.5 -28v-35zM481 -303h-73q-15 0 -26.5 11.5t-11.5 26.5v150h-280q-14 0 -25.5 11t-11.5 27q0 12 5 19t11 11q7 4 17 7h322q15 0 26 -11t11 -26v-151h36q19 0 28 -11.5t9 -26t-9 -26t-28 -11.5z" />
<glyph d="M-105 -154q0 -15 -10.5 -26.5t-25.5 -11.5h-131q-17 0 -29 10.5t-12 27.5v93q0 15 13 25t28 10h129q17 0 27.5 -10.5t10.5 -26.5v-13q0 -9 -5 -13.5t-12 -4.5q-8 0 -13 4.5t-5 13.5v13l-3 3h-129l-3 -1v-93q0 -3 3 -3h131l1 3v16q0 8 5 13t13 5q7 0 12 -5t5 -13v-16z M-103 -299h-35q-7 0 -12.5 5t-5.5 13v39h-136q-7 0 -12.5 5t-5.5 13q0 9 8 13q4 2 8 3h156q6 0 11.5 -5.5t5.5 -10.5v-41h18q9 0 13 -5.5t4 -11.5t-4 -11.5t-13 -5.5z" />
<glyph d="M-200 -203q0 -11 -9 -18.5t-21 -7.5h-103q-14 0 -23.5 6.5t-9.5 19.5v61q0 10 10 16.5t23 6.5h102q13 0 22 -7t9 -17v-9q0 -6 -4.5 -9t-10.5 -3q-14 0 -14 12v9l-2 2h-102l-3 -1v-61q0 -2 3 -2h103l1 2v10q0 12 14 12q6 0 10.5 -3.5t4.5 -8.5v-10zM-199 -300h-29 q-5 0 -9.5 3.5t-4.5 8.5v26h-108q-5 0 -9.5 3t-4.5 8t6 9q3 2 7 2h123q5 0 9.5 -3.5t4.5 -7.5v-27h15q7 0 10 -3.5t3 -7.5t-3 -7.5t-10 -3.5z" />
<glyph d="M-446 -135q0 8 5.5 13t12.5 5q8 0 13 -5t5 -13v-16l2 -3h132q3 0 3 3v93l-3 2h-131l-3 -3v-13q0 -18 -18 -18q-7 0 -12.5 4.5t-5.5 13.5v13q0 16 11 26.5t28 10.5h131q16 0 29 -10t13 -26v-93q0 -18 -12 -28.5t-30 -10.5h-132q-16 0 -27 11.5t-11 27.5v16zM-235 -299h-36 q-7 0 -12.5 5t-5.5 13v40h-138q-7 0 -12.5 5t-5.5 13q0 9 8 13q4 2 8 3h158q7 0 12.5 -5.5t5.5 -10.5v-42h18q9 0 13.5 -5.5t4.5 -11.5t-4.5 -11.5t-13.5 -5.5z" />
<glyph d="M-343 -189q0 5 3.5 8.5t8.5 3.5q12 0 12 -12v-11l90 -2q2 0 2 2v63l-90 1l-2 -11q0 -12 -12 -12q-5 0 -8.5 3t-3.5 9v9q0 11 7.5 18t18.5 7h88q11 0 19.5 -6.5t8.5 -17.5v-63q0 -12 -8 -19t-20 -7h-89q-11 0 -18 7.5t-7 18.5v11zM-200 -299h-24q-5 0 -8.5 3.5t-3.5 8.5 v27h-93q-5 0 -8.5 3.5t-3.5 8.5q0 6 5 9q3 2 6 2h106q5 0 8.5 -3.5t3.5 -7.5v-28h12q6 0 9 -3.5t3 -8.5q0 -11 -12 -11z" />
<glyph d="M-512 -96v-109q0 -22 21 -22h48q20 0 20 22v110q0 34 25 51t56 17h231q20 3 34 -9.5t14 -32.5q0 -14 -11 -23.5t-28 -9.5h-233q-16 -1 -16 -18v-85q0 -41 -24 -67.5t-68 -26.5h-48q-40 0 -66.5 25t-26.5 69v82q-5 20 -16 20h-258l-5 -9v-105l9 -5h30q39 0 39 -39 q0 -15 -10 -26.5t-29 -11.5h-30q-36 0 -62 23.5t-26 58.5v105q0 33 24 59t60 26h262q33 0 58.5 -19.5t25.5 -49.5z" />
<glyph d="M-451 -133l50 49l-48 1q-14 0 -20 10.5t-6 16.5q0 12 6.5 19.5t19.5 7.5h120q10 0 17 -10.5t7 -25.5q0 -11 -7 -17l-83 -81v-46q0 -19 19 -19h250q17 0 17 25v137q0 36 36 36t36 -36v-137q0 -55 -20 -76t-69 -21h-250q-51 0 -71 21t-20 70v46q0 20 16 30z" />
<glyph horiz-adv-x="223" d="M-217 -206v85q0 5 -3 9q-9 12 -21 12h-43q-7 0 -14 -9.5t-7 -18.5v-78q0 -22 21 -22h48q19 0 19 22zM-185 -43q10 8 23 11.5t27 3.5h262q36 0 60 -25t24 -60v-102q0 -36 -23.5 -60.5t-58.5 -24.5h-128q-18 0 -28.5 11.5t-10.5 26.5q0 16 10.5 27.5t28.5 11.5h128l2 8v102 l-4 9h-255q-17 0 -17 -17v-85q0 -41 -24 -67.5t-67 -26.5h-48q-41 0 -67 25t-26 69l1 82q-6 20 -17 20h-258l-5 -9v-105l9 -5h30q39 0 39 -39q0 -15 -10 -26.5t-29 -11.5h-30q-36 0 -62 23.5t-26 58.5v105q0 33 24 59t60 26h262q31 0 51 -15q23 15 54 15h43q33 0 56 -15z " />
<glyph d="M-460 -206v85q0 5 -3 9q-9 12 -21 12h-43q-7 0 -14 -9.5t-7 -18.5v-78q0 -22 21 -22h48q19 0 19 22zM-428 -43q10 8 23 11.5t27 3.5h262q36 0 60 -25t24 -60v-102q0 -36 -23.5 -60.5t-58.5 -24.5h-128q-18 0 -28.5 11.5t-10.5 26.5q0 16 10.5 27.5t28.5 11.5h128l2 8v102 l-4 9h-255q-17 0 -17 -17v-85q0 -41 -24 -67.5t-67 -26.5h-48q-41 0 -67 25t-26 69l1 82q-6 20 -17 20h-258l-5 -9v-105l9 -5h30q39 0 39 -39q0 -15 -10 -26.5t-29 -11.5h-30q-36 0 -62 23.5t-26 58.5v105q0 33 24 59t60 26h262q31 0 51 -15q23 15 54 15h43q33 0 56 -15z " />
<glyph horiz-adv-x="181" d="M-296 -217v103l-4 8h-266l-8 -4v-107q0 -9 8 -9h268zM215 -240q0 -33 -9 -45q-12 -16 -49 -16h-147q-30 0 -43 14t-13 45l2 8l8 22l6 8l97 64v12q0 25 -17 25l-250 1q-19 0 -19 -22v-93q0 -35 -22.5 -59t-56.5 -24h-268q-36 0 -60.5 23.5t-24.5 59.5v107q0 16 7 30.5 t19 25.5t27.5 17t31.5 6h266q23 0 42 -11q19 12 58 12l250 -1q48 0 68.5 -21.5t20.5 -75.5v-35l61 -41l6 -9l8 -20zM157 -239l-3 8l-63 39l-64 -39l-3 -9q0 -9 8 -9h114q11 0 11 10z" />
<glyph horiz-adv-x="155" d="M-298 -217v103l-4 8h-266l-8 -4v-107q0 -9 8 -9h268zM-221 -124v-93q0 -35 -22.5 -59t-56.5 -24h-268q-36 0 -60.5 23.5t-24.5 59.5v107q0 33 26.5 56t58.5 23h266q24 0 42 -11q19 12 58 12l250 -1q48 0 68.5 -21.5t20.5 -75.5v-137q0 -36 -36 -36t-36 36v137 q0 25 -17 25l-250 1q-19 0 -19 -22z" />
<glyph d="M-466 -217v103l-4 8h-266l-8 -4v-107q0 -9 8 -9h268zM-389 -124v-93q0 -35 -22.5 -59t-56.5 -24h-268q-36 0 -60.5 23.5t-24.5 59.5v107q0 33 26.5 56t58.5 23h266q24 0 42 -11q19 12 58 12l250 -1q48 0 68.5 -21.5t20.5 -75.5v-137q0 -36 -36 -36t-36 36v137 q0 25 -17 25l-250 1q-19 0 -19 -22z" />
<glyph horiz-adv-x="149" d="M58 -217v103l-4 8h-266l-8 -4v-107q0 -9 8 -9h268zM-297 -217v103l-5 8h-265l-8 -4v-107q0 -9 8 -9h268zM-257 -288q-21 -12 -42 -12h-268q-36 0 -60.5 23.5t-24.5 59.5v107q0 33 26.5 56t58.5 23h265q26 0 45 -13q23 13 45 13h266q34 0 57.5 -24.5t23.5 -58.5v-103 q0 -35 -22.5 -59t-56.5 -24h-268q-24 0 -45 12z" />
<glyph d="M-107 -217v103l-4 8h-266l-8 -4v-107q0 -9 8 -9h268zM-462 -217v103l-5 8h-265l-8 -4v-107q0 -9 8 -9h268zM-422 -288q-21 -12 -42 -12h-268q-36 0 -60.5 23.5t-24.5 59.5v107q0 33 26.5 56t58.5 23h265q26 0 45 -13q23 13 45 13h266q34 0 57.5 -24.5t23.5 -58.5v-103 q0 -35 -22.5 -59t-56.5 -24h-268q-24 0 -45 12z" />
<glyph d="M-109 -223l-99 36q-7 2 -7 19q0 16 7 19l101 41l-10 4h-306q-36 0 -36 36t36 36h306q37 0 61 -25.5t24 -57.5q0 -27 -23 -34l-57 -18l57 -15q24 -8 24 -32q0 -30 -28 -58t-60 -28h-304q-36 0 -36 36t36 36h304z" />
<glyph d="M-35 -217q0 -35 -22.5 -59t-56.5 -24h-268q-36 0 -60.5 23.5t-24.5 59.5v107q0 33 26.5 56t58.5 23h266q34 0 57.5 -24.5t23.5 -58.5v-103zM-137 -226h23l2 9v103l-4 8h-266l-8 -4v-107q0 -9 8 -9h15l56 71q7 10 21 10h85q13 0 20 -10zM-299 -226h100l-18 27h-61z" />
<glyph d="M-213 -300h-198q-18 0 -27 11.5t-9 28.5v82q0 27 26 27q15 0 27 0.5t21 0.5q60 0 95 -20.5t62 -57.5h72q10 0 15.5 5t5.5 11q0 8 -6 16.5t-13 10.5l-221 72q-12 4 -19.5 13.5t-7.5 20.5q0 19 16.5 33t45.5 14h202q36 0 36 -36t-36 -36h-117l134 -40q27 -10 42 -32t15 -46 q0 -25 -14.5 -45.5t-42.5 -28.5l17 -3q14 0 20 -10t6 -16q0 -27 -26 -27q-29 0 -65 17q-25 12 -56 35zM-393 -228h103q-24 17 -45 20.5t-58 3.5v-24z" />
<glyph horiz-adv-x="496" d="M229 72q-14 26 -40.5 45t-58.5 19q-8 0 -22 -3v-30q0 -13 11.5 -22t24.5 -9h85zM283 0h-139q-40 0 -74 28q-40 31 -34 75q0 9 0.5 19t4.5 18q11 27 28 32.5t28.5 7.5t27.5 2q53 0 98.5 -30t62.5 -76l2 -4h74q11 0 21.5 10t10.5 24q0 21 -16 37q-2 2 -7 6l-259 139 q-33 20 -33 68q0 32 17 54t48 22h228q36 0 36 -36t-36 -36h-228q-2 0 -1.5 -3t3.5 -5l260 -140q12 -7 18 -13q42 -38 42 -93q0 -35 -25.5 -63.5t-57.5 -38.5q23 -5 35 -5q13 0 21 -8t8 -20q0 -24 -24 -25q-31 -4 -67.5 11t-72.5 43z" />
<glyph d="M-37 -203q0 -55 -20 -76t-69 -21h-250q-51 0 -71 21t-20 70v142q0 36 36 36t36 -36v-142q0 -19 19 -19h250q17 0 17 25v137q0 36 36 36t36 -36v-137z" />
<glyph d="M-128 -228l-93 145q-6 10 5.5 32t24.5 22h119q11 0 17 -6q18 -8 18 -31v-137q0 -55 -20 -76t-69 -21h-250q-51 0 -71 21t-20 70v142q0 36 36 36t36 -36v-142q0 -19 19 -19h248zM-109 -83h-46l46 -73v73z" />
<glyph d="M-395 -110v-99q0 -19 19 -19h250q17 0 17 25v95l-95 -59l-14 -5h-71l-15 5zM-281 -118h54l136 83q8 5 19 5q13 0 24 -9.5t11 -26.5v-137q0 -55 -20 -76t-69 -21h-250q-51 0 -71 21t-20 70v142q0 18 11 27.5t26 9.5q11 0 21 -6z" />
<glyph horiz-adv-x="128" d="M-271 -50q4 7 18.5 13t27.5 6h254q37 0 65.5 -27t28.5 -62v-91q0 -36 -27.5 -62.5t-66.5 -26.5h-93q-36 0 -36 36t36 36h93q7 0 14.5 5t7.5 12v91q0 7 -6 12t-16 5h-246q-8 -1 -11.5 -6.5t-3.5 -10.5v-91q0 -36 -28 -62.5t-66 -26.5h-298q-36 0 -36 36t36 36h298 q7 0 14.5 5t7.5 12v91q0 7 -6 12t-16 5h-290q-36 0 -36 36t36 36h290q30 0 55 -19z" />
<glyph d="M-431 -50q4 7 18.5 13t27.5 6h254q37 0 65.5 -27t28.5 -62v-91q0 -36 -27.5 -62.5t-66.5 -26.5h-93q-36 0 -36 36t36 36h93q7 0 14.5 5t7.5 12v91q0 7 -6 12t-16 5h-246q-8 -1 -11.5 -6.5t-3.5 -10.5v-91q0 -36 -28 -62.5t-66 -26.5h-298q-36 0 -36 36t36 36h298 q7 0 14.5 5t7.5 12v91q0 7 -6 12t-16 5h-290q-36 0 -36 36t36 36h290q30 0 55 -19z" />
<glyph d="M-137 -226h15q14 0 14 11v150q0 36 36 36t36 -36v-150q0 -48 -18.5 -66.5t-67.5 -18.5h-258q-45 0 -65.5 18t-20.5 66v148q0 36 36 36t36 -36v-146q0 -13 14 -13h15l54 72q7 10 21 10h85q13 0 20 -10zM-202 -226l-15 27h-61l-18 -27h94z" />
<glyph horiz-adv-x="131" d="M-291 -67q0 36 36 36t36 -36v-142q0 -19 19 -20h250q17 0 17 25v137q0 36 36 36t36 -36v-137q0 -54 -20.5 -75.5t-68.5 -20.5h-250q-36 0 -54 9q-12 -7 -21.5 -8.5t-32.5 -0.5h-249q-53 0 -72.5 20.5t-19.5 70.5v142q0 36 36 36t36 -36v-142q0 -19 20 -20h249q17 0 17 25 v137z" />
<glyph d="M-455 -67q0 36 36 36t36 -36v-142q0 -19 19 -20h250q17 0 17 25v137q0 36 36 36t36 -36v-137q0 -54 -20.5 -75.5t-68.5 -20.5h-250q-36 0 -54 9q-12 -7 -21.5 -8.5t-32.5 -0.5h-249q-53 0 -72.5 20.5t-19.5 70.5v142q0 36 36 36t36 -36v-142q0 -19 20 -20h249q17 0 17 25 v137z" />
<glyph horiz-adv-x="498" d="M227 55q0 -25 -5 -36q-8 -19 -30 -19h-71q-33 0 -59 23.5t-26 58.5v265q0 32 23.5 58.5t58.5 26.5h265q38 0 61.5 -24.5t23.5 -60.5v-445q0 -47 -38 -47q-16 0 -27.5 11.5t-11.5 32.5v448q0 8 -8 8h-265l-5 -8v-100q49 -8 79 -51q35 -52 35 -141zM113 192v-110l8 -5h51 q0 51 -16 78t-43 37z" />
<glyph horiz-adv-x="126" d="M-300 -216v105l-7 4h-268l-3 -9v-142q0 -21 -12.5 -34t-28.5 -13q-14 0 -25.5 11.5t-11.5 33.5v141q0 38 24 63t57 25h268q37 0 60.5 -23.5t23.5 -61.5l-1 -11v-89q0 -9 8 -9h268l3 9l-1 150q0 16 11 24.5t26 8.5q17 0 28.5 -10t11.5 -30v-143q0 -37 -23 -61t-56 -24 h-268q-30 0 -52.5 18t-28.5 47z" />
<glyph d="M-462 -216v105l-7 4h-268l-3 -9v-142q0 -21 -12.5 -34t-28.5 -13q-14 0 -25.5 11.5t-11.5 33.5v141q0 38 24 63t57 25h268q37 0 60.5 -23.5t23.5 -61.5l-1 -11v-89q0 -9 8 -9h268l3 9l-1 150q0 16 11 24.5t26 8.5q17 0 28.5 -10t11.5 -30v-143q0 -37 -23 -61t-56 -24 h-268q-30 0 -52.5 18t-28.5 47z" />
<glyph horiz-adv-x="125" d="M-279 -281q-25 -19 -55 -19h-290q-36 0 -36 36t36 36h290q10 0 16 5t6 12v91q0 7 -7.5 12t-14.5 5h-298q-36 0 -36 36t36 36h298q38 0 66 -26.5t28 -62.5v-91q0 -5 3.5 -10.5t11.5 -6.5h246q10 0 16 5t6 12v91q0 7 -7.5 12t-14.5 5h-93q-36 0 -36 36t36 36h93 q39 0 66.5 -26.5t27.5 -62.5v-91q0 -35 -28.5 -62t-65.5 -27h-254q-13 0 -27.5 6t-18.5 13z" />
<glyph d="M-431 -281q-25 -19 -55 -19h-290q-36 0 -36 36t36 36h290q10 0 16 5t6 12v91q0 7 -7.5 12t-14.5 5h-298q-36 0 -36 36t36 36h298q38 0 66 -26.5t28 -62.5v-91q0 -5 3.5 -10.5t11.5 -6.5h246q10 0 16 5t6 12v91q0 7 -7.5 12t-14.5 5h-93q-36 0 -36 36t36 36h93 q39 0 66.5 -26.5t27.5 -62.5v-91q0 -35 -28.5 -62t-65.5 -27h-254q-13 0 -27.5 6t-18.5 13z" />
<glyph horiz-adv-x="132" d="M-227 -116h-1v-88q0 -55 -20 -76t-69 -21h-250q-51 0 -71 21t-20 70v142q0 36 36 36t36 -36v-142q0 -19 19 -19h250q17 0 17 25v108v1v28q0 36 36 36q12 0 19 -4q11 4 26 4h268q33 0 56 -24t23 -61v-143q0 -20 -11.5 -30t-28.5 -10q-15 0 -26 8.5t-11 24.5l1 150l-3 9 h-268q-8 0 -8 -9z" />
<glyph d="M-390 -116h-1v-88q0 -55 -20 -76t-69 -21h-250q-51 0 -71 21t-20 70v142q0 36 36 36t36 -36v-142q0 -19 19 -19h250q17 0 17 25v108v1v28q0 36 36 36q12 0 19 -4q11 4 26 4h268q33 0 56 -24t23 -61v-143q0 -20 -11.5 -30t-28.5 -10q-15 0 -26 8.5t-11 24.5l1 150l-3 9 h-268q-8 0 -8 -9z" />
<glyph horiz-adv-x="131" d="M-276 -47q20 14 46 14h268q33 0 56 -24t23 -61v-143q0 -20 -11.5 -30t-28.5 -10q-15 0 -26 8.5t-11 24.5l1 150l-3 9h-268q-3 0 -7 -4v-3q0 -26 -23 -34l-57 -18l57 -15q24 -8 24 -32q0 -30 -28 -58t-60 -28h-304q-36 0 -36 36t36 36h304l10 5l-99 36q-7 1 -7 19 q0 16 7 19l101 41l-10 4h-306q-36 0 -36 36t36 36h306q26 0 46 -14z" />
<glyph d="M-428 -47q20 14 46 14h268q33 0 56 -24t23 -61v-143q0 -20 -11.5 -30t-28.5 -10q-15 0 -26 8.5t-11 24.5l1 150l-3 9h-268q-3 0 -7 -4v-3q0 -26 -23 -34l-57 -18l57 -15q24 -8 24 -32q0 -30 -28 -58t-60 -28h-304q-36 0 -36 36t36 36h304l10 5l-99 36q-7 1 -7 19 q0 16 7 19l101 41l-10 4h-306q-36 0 -36 36t36 36h306q26 0 46 -14z" />
<glyph horiz-adv-x="157" d="M108 30q0 -36 -36 -36t-36 36v594l-41 -16l-26 64l90 40q14 4 20 4q29 0 29 -38v-648z" />
<glyph horiz-adv-x="79" d="M-35 534q0 -35 -22.5 -59t-56.5 -24h-268q-36 0 -60.5 23.5t-24.5 59.5v107q0 33 26.5 56t58.5 23h266q34 0 57.5 -24.5t23.5 -58.5v-103zM-112 534v103l-4 9h-266l-8 -5v-107q0 -8 8 -8h268z" />
<glyph d="M-23 -300h-85q-36 0 -36 36v221q0 36 36 36t36 -36v-185h49q36 0 36 -36t-36 -36z" />
<glyph horiz-adv-x="167" d="M138 -300h-67q-36 0 -36 36v660q0 36 36 36t36 -36v-624h31q36 0 36 -36t-36 -36z" />
<glyph horiz-adv-x="321" d="M301 -300h-86q-36 0 -36 36v656q0 36 36 36t36 -36v-620h50q36 0 36 -36t-36 -36zM108 -266q0 -36 -36 -36t-36 36v658q0 36 36 36t36 -36v-658z" />
<glyph horiz-adv-x="102" d="M80 -132l-55 -76q-10 -12 -27 -12h-38q-19 0 -28 16l-48 79q-5 8 -5 17q0 12 11 22l28 27q9 9 23 9h85q13 0 24 -10l27 -32q10 -9 10 -21q0 -10 -7 -19zM11 -114h-57l24 -41h5z" />
<glyph d="M-298 -112l-55 -76q-10 -12 -27 -12h-38q-19 0 -28 16l-48 79q-5 8 -5 17q0 12 11 22l28 27q9 9 23 9h85q13 0 24 -10l27 -32q10 -9 10 -21q0 -10 -7 -19zM-367 -94h-57l24 -41h5z" />
<glyph horiz-adv-x="209" d="M183 -132l-55 -76q-10 -12 -27 -12h-38q-19 0 -28 16l-48 79q-5 8 -5 17q0 12 11 22l28 27q9 9 23 9h85q13 0 24 -10l27 -32q10 -9 10 -21q0 -10 -7 -19zM114 -114h-57l24 -41h5z" />
<glyph horiz-adv-x="128" d="M108 -266q0 -39 -30 -39q-5 0 -19 5l-134 55l20 70l91 -37v608q0 36 36 36t36 -36v-662z" />
<glyph horiz-adv-x="147" d="M184 648h-15q-25 0 -43 -11.5t-18 -35.5v-781q0 -47 54 -47h176q24 0 37.5 13.5t13.5 33.5v180q0 36 36 36t36 -36v-180q0 -50 -32 -84.5t-91 -34.5h-176q-126 0 -126 119v781q0 54 39.5 86.5t93.5 32.5h15q18 0 27.5 -11t9.5 -24q0 -14 -10.5 -25.5t-26.5 -11.5z" />
<glyph horiz-adv-x="136" d="M503 648h-334q-25 0 -43 -11.5t-18 -35.5v-781q0 -47 54 -47h532q24 0 37 13.5t13 33.5v180q0 36 36 36t36 -36v-180q0 -50 -32 -84.5t-90 -34.5h-532q-126 0 -126 119v781q0 54 39.5 86.5t93.5 32.5h334q19 0 30 -11t11 -24q0 -15 -11 -26t-30 -11z" />
<glyph horiz-adv-x="148" d="M608 569q0 -36 -36 -36t-36 36v32q0 18 -15.5 32.5t-41.5 14.5h-310q-25 0 -43 -11.5t-18 -35.5v-781q0 -47 54 -47h176q24 0 37.5 13.5t13.5 33.5v180q0 36 36 36t36 -36v-180q0 -50 -32 -84.5t-91 -34.5h-176q-126 0 -126 119v781q0 54 39.5 86.5t93.5 32.5h310 q62 0 98 -40q31 -33 31 -79v-32z" />
<glyph horiz-adv-x="136" d="M964 578q0 -36 -36 -36t-36 36v23q0 18 -16 32.5t-42 14.5h-665q-25 0 -43 -11.5t-18 -35.5v-781q0 -47 54 -47h532q24 0 37 13.5t13 33.5v180q0 36 36 36t36 -36v-180q0 -50 -32 -84.5t-90 -34.5h-532q-126 0 -126 119v781q0 54 39.5 86.5t93.5 32.5h665q62 0 98 -40 q32 -33 32 -79v-23z" />
<glyph horiz-adv-x="148" d="M608 574q0 -36 -36 -36t-36 36v27q0 18 -15.5 32.5t-41.5 14.5h-310q-25 0 -43 -11.5t-18 -35.5v-783q0 -47 54 -47h37q40 0 40 -36t-40 -36h-37q-126 0 -126 119v783q0 54 39.5 86.5t93.5 32.5h310q62 0 98 -40q31 -33 31 -79v-27z" />
<glyph horiz-adv-x="137" d="M964 564q0 -36 -36 -36t-36 36v37q0 18 -16 32.5t-42 14.5h-665q-25 0 -43 -11.5t-18 -35.5v-781q0 -47 54 -47h317q24 0 36.5 -10t12.5 -27q0 -14 -12.5 -24.5t-36.5 -10.5h-317q-126 0 -126 119v781q0 54 39.5 86.5t93.5 32.5h665q62 0 98 -40q32 -33 32 -79v-37z" />
<glyph horiz-adv-x="148" d="M169 649q-24 0 -42.5 -12t-18.5 -35v-782q0 -47 54 -47h320q24 0 37.5 13.5t13.5 33.5v180q0 36 36 36t36 -36v-180q0 -50 -32 -84.5t-91 -34.5h-320q-126 0 -126 119v782q0 54 39.5 86.5t93.5 32.5q19 0 31 -11.5t12 -25.5q0 -35 -43 -35z" />
<glyph horiz-adv-x="139" d="M496 648h-327q-25 0 -43 -11.5t-18 -35.5v-781q0 -47 54 -47h676q24 0 37 13.5t13 33.5v180q0 36 36 36t36 -36v-180q0 -50 -32 -84.5t-90 -34.5h-676q-126 0 -126 119v781q0 54 39.5 86.5t93.5 32.5h327q19 0 30.5 -11.5t11.5 -25.5q0 -15 -11.5 -25t-30.5 -10z" />
<glyph horiz-adv-x="136" d="M964 578q0 -36 -36 -36t-36 36v23q0 18 -16 32.5t-42 14.5h-665q-25 0 -43 -11.5t-18 -35.5v-781q0 -47 54 -47h676q24 0 37 13.5t13 33.5v180q0 36 36 36t36 -36v-180q0 -50 -32 -84.5t-90 -34.5h-676q-126 0 -126 119v781q0 54 39.5 86.5t93.5 32.5h665q62 0 98 -40 q32 -33 32 -79v-23z" />
<glyph d="M-106 -206l-6 15l-134 112l-138 -112l-7 -19q2 -18 18 -18h245q22 0 22 22zM-488 -155q-15 0 -21 10.5t-6 16.5q0 12 6.5 19.5t20.5 7.5h102l117 95q12 8 23 8q13 0 23 -8l164 -136l11 -15l12 -33l2 -12q0 -51 -15 -72q-21 -26 -79 -26h-243q-50 0 -71 23.5t-21 72.5 l2 13l13 35z" />
<glyph d="M-34 -202q0 -51 -15 -72q-21 -26 -79 -26h-243q-50 0 -71 23.5t-21 72.5l2 13l13 35l11 14l168 136q12 8 23 8q13 0 23 -8l164 -136l11 -15l12 -33zM-106 -206l-6 15l-134 112l-138 -112l-7 -19q2 -18 18 -18h245q22 0 22 22z" />
<glyph d="M-284 -264q0 -36 -36 -36h-106q-36 0 -36 36t36 36h70v185q0 36 36 36t36 -36v-221zM-71 -300h-105q-36 0 -36 36v221q0 36 36 36t36 -36v-185h69q36 0 36 -36t-36 -36z" />
<glyph d="M-209 -264q0 -36 -36 -36h-105q-36 0 -36 36t36 36h69v185q0 36 36 36t36 -36v-221z" />
<glyph d="M-174 -120q0 -30 -30 -30h-88q-30 0 -30 30t30 30h58v54q0 30 30 30t30 -30v-84z" />
<glyph horiz-adv-x="280" d="M125 673q3 1 6.5 1.5t7.5 0.5q16 0 30.5 -6.5t26 -17.5t18.5 -24.5t7 -27.5q0 -19 -7 -34t-18.5 -24.5t-26 -15t-30.5 -5.5q-20 0 -35.5 8t-28.5 25q-22 27 -29.5 56.5t-4.5 58t16 54.5t33.5 45.5t47 31t56.5 11.5q13 0 20 -4.5t7.5 -10.5t-6 -11.5t-20.5 -6.5 q-24 -3 -40 -13t-24.5 -25t-10 -32t4.5 -34z" />
<glyph horiz-adv-x="288" d="M137 658q-3 -1 -6.5 -1.5t-7.5 -0.5q-16 0 -31 6t-26.5 17t-18 24.5t-6.5 28.5q0 19 6.5 33.5t18 24.5t26.5 15t31 5q20 0 35.5 -8t28.5 -25q20 -27 28.5 -56t5 -57.5t-16 -55t-33 -45.5t-47 -31t-57.5 -12q-12 0 -19 5t-8 11t5.5 11.5t21.5 5.5q23 3 39 13t24.5 25 t10.5 32t-4 35z" />
<glyph horiz-adv-x="510" d="M331 673q4 1 7.5 1.5t7.5 0.5q16 0 31 -6.5t26 -17.5t18 -24.5t7 -27.5q0 -19 -7 -34t-18 -24.5t-26 -15t-31 -5.5q-20 0 -35.5 8t-28.5 25q-21 27 -29 56.5t-4.5 58t16 54.5t33 45.5t47 31t57.5 11.5q12 0 19 -4.5t7.5 -10.5t-5.5 -11.5t-20 -6.5q-24 -3 -40 -13 t-25 -25t-10.5 -32t3.5 -34zM125 673q3 1 6.5 1.5t7.5 0.5q16 0 30.5 -6.5t26 -17.5t18.5 -24.5t7 -27.5q0 -19 -7 -34t-18.5 -24.5t-26 -15t-30.5 -5.5q-20 0 -35.5 8t-28.5 25q-22 27 -29.5 56.5t-4.5 58t16 54.5t33.5 45.5t47 31t56.5 11.5q13 0 20 -4.5t7.5 -10.5 t-6 -11.5t-20.5 -6.5q-24 -3 -40 -13t-24.5 -25t-10 -32t4.5 -34z" />
<glyph horiz-adv-x="508" d="M138 658q-4 -1 -7.5 -1.5t-7.5 -0.5q-16 0 -30.5 6t-26 17t-18.5 24.5t-7 28.5q0 19 7 33.5t18.5 24.5t26 15t30.5 5q20 0 35.5 -8t29.5 -25q20 -27 28 -56t5 -57.5t-16 -55t-33 -45.5t-47 -31t-58 -12q-12 0 -19 5t-7.5 11t5.5 11.5t21 5.5q23 3 39 13t25 25t10.5 32 t-3.5 35zM344 658q-2 -1 -5.5 -1.5t-8.5 -0.5q-16 0 -30.5 6t-26 17t-18.5 24.5t-7 28.5q0 19 7 33.5t18.5 24.5t26 15t30.5 5q21 0 36 -8t28 -25q21 -27 29 -56t5 -57.5t-16 -55t-33.5 -45.5t-47 -31t-56.5 -12q-13 0 -20 5t-7.5 11t6 11.5t20.5 5.5q24 3 40 13t24.5 25 t10 32t-4.5 35z" />
<glyph horiz-adv-x="512" d="M121 415q0 18 17 26q5 3 13 3q17 0 25 -17q4 -5 4 -12q0 -19 -18 -26q-5 -4 -11 -4q-19 0 -27 18q-3 5 -3 12zM45 339q0 19 16 26q6 3 14 3q17 0 26 -16q2 -6 2 -13q0 -18 -17 -26q-5 -3 -11 -3q-19 0 -27 16q-3 7 -3 13zM17 236q0 18 17 26q6 3 12 3q19 0 26 -16 q3 -6 3 -13q0 -18 -16 -26q-7 -3 -13 -3q-18 0 -26 16q-3 7 -3 13zM45 134q0 17 16 25q6 3 14 3q17 0 26 -17q2 -6 2 -11q0 -19 -17 -27q-5 -4 -11 -4q-19 0 -27 17q-3 6 -3 14zM121 57q0 18 17 27q5 2 13 2q17 0 25 -16q4 -6 4 -13q0 -18 -18 -26q-5 -3 -11 -3 q-19 0 -27 16q-3 7 -3 13zM225 30q0 18 16 26q7 3 13 3q18 0 26 -16q3 -8 3 -13q0 -19 -17 -27q-5 -3 -12 -3q-18 0 -27 17q-2 6 -2 13zM329 57q0 18 16 27q6 2 13 2q18 0 27 -16q2 -6 2 -13q0 -18 -16 -26q-7 -3 -13 -3q-19 0 -27 16q-2 7 -2 13zM404 134q0 17 17 25 q6 3 13 3q19 0 26 -17q2 -6 2 -11q0 -19 -16 -27q-5 -4 -12 -4q-18 0 -26 17q-4 6 -4 14zM432 236q0 18 17 26q6 3 13 3q18 0 26 -16q3 -6 3 -13q0 -18 -16 -26q-7 -3 -13 -3q-18 0 -27 16q-3 7 -3 13zM404 339q0 19 17 26q6 3 13 3q19 0 26 -16q2 -6 2 -13q0 -18 -16 -26 q-5 -3 -12 -3q-18 0 -26 16q-4 7 -4 13zM329 415q0 18 16 26q6 3 13 3q18 0 27 -17q2 -5 2 -12q0 -19 -16 -26q-7 -4 -13 -4q-19 0 -27 18q-2 5 -2 12zM225 443q0 18 16 26q7 2 13 2q18 0 26 -16q3 -6 3 -12q0 -19 -17 -26q-5 -4 -12 -4q-18 0 -27 17q-2 6 -2 13z" />
<glyph horiz-adv-x="322" d="M66 -326l-74 21l265 1063l76 -21z" />
<glyph d="M-317 -167q0 -18 7 -33t18.5 -26.5t27.5 -18t35 -6.5q18 0 34 6.5t28 18t19 26.5t7 33q0 17 -7 32t-19 26.5t-28 18t-34 6.5q-19 0 -35 -6.5t-27.5 -18t-18.5 -26.5t-7 -32zM-390 -167q0 31 13 59t34.5 48.5t51 32t62.5 11.5t62 -11.5t51 -32t34.5 -48.5t12.5 -59 t-12.5 -59t-34.5 -48.5t-51 -32.5t-62 -12t-62.5 12t-51 32.5t-34.5 48.5t-13 59z" />
<glyph d="M-391 -157q0 32 12.5 60t34.5 48t51 32t63 12q32 0 61.5 -12t50.5 -32t34 -48t13 -60q0 -31 -13 -59t-34 -48.5t-50.5 -32t-61.5 -11.5q-34 0 -63 11.5t-51 32t-34.5 48.5t-12.5 59zM-324 -157q0 -18 7.5 -33.5t19.5 -27.5t29.5 -19t37.5 -7q18 0 35 7t29.5 19t19.5 27.5 t7 33.5q0 19 -7 35t-19.5 28t-29.5 19t-35 7q-20 0 -37.5 -7t-29.5 -19t-19.5 -28t-7.5 -35zM-230 -98q23 0 40.5 -17t17.5 -42q0 -24 -17.5 -41t-40.5 -17q-26 0 -43 17t-17 41q0 25 17 42t43 17zM-230 -132q-12 0 -19 -7.5t-7 -17.5t7 -16.5t19 -6.5q9 0 16 6.5t7 16.5 t-7 17.5t-16 7.5z" />
<glyph d="M-198 608q0 -18 6.5 -33t18.5 -26.5t28 -18t35 -6.5q18 0 34 6.5t28 18t19 26.5t7 33q0 17 -7 32t-19 26.5t-28 18t-34 6.5q-19 0 -35 -6.5t-28 -18t-18.5 -26.5t-6.5 -32zM-271 608q0 31 13 59t34.5 48.5t50.5 32t63 11.5q33 0 62 -11.5t51 -32t34.5 -48.5t12.5 -59 q0 -32 -12.5 -59.5t-34.5 -48t-51 -32.5t-62 -12q-34 0 -63 12t-50.5 32.5t-34.5 48t-13 59.5zM-317 474l-233 189l49 59l233 -189z" />
<glyph d="M-1 -300h-105q-36 0 -36 36v221q0 36 36 36t36 -36v-185h69q36 0 36 -36t-36 -36zM-214 -265q0 -36 -36 -36t-36 36v222q0 36 36 36t36 -36v-222z" />
</font>
</defs>
</svg>
