<?xml version="1.0" standalone="no"?>
<!DOCTYPE svg PUBLIC "-//W3C//DTD SVG 1.1//EN" "http://www.w3.org/Graphics/SVG/1.1/DTD/svg11.dtd" >
<svg xmlns="http://www.w3.org/2000/svg">
<metadata></metadata>
<defs>
<font id="ayar_typewriterregular" horiz-adv-x="0" >
<font-face units-per-em="2048" ascent="1638" descent="-410" />
<missing-glyph horiz-adv-x="512" />
<glyph unicode="&#x100a;&#x1039;&#x100a;" horiz-adv-x="2203" d="M857 -492v97q-6 7 -12 13.5t-11 13.5q-14 19 -8.5 36t20.5 27t34 8.5t33 -20.5q18 -25 47.5 -39.5t64.5 -14.5q27 0 51.5 9.5t42.5 26t29 39t12 48.5v6q-1 26 -12 48.5t-29 39.5t-42.5 26.5t-51.5 9.5q-35 0 -64 -14t-47 -38q-14 -19 -33.5 -20t-34 9t-19.5 27.5t10 35.5 q31 41 80 66t108 25q48 0 90 -17t73.5 -46.5t50 -69t18.5 -84.5v-4q0 -26 11 -48.5t29.5 -39t42.5 -26t52 -9.5q27 0 52 10t43.5 27t29 40.5t10.5 49.5t-10.5 49t-29 40t-43.5 27t-52 10q-24 0 -36.5 14t-12.5 31.5t12.5 31.5t36.5 14q48 0 90 -17t74 -46.5t50 -69t18 -84.5 q0 -46 -18 -85t-50 -69t-74 -47t-90 -17q-56 0 -103.5 23t-79.5 62q-33 -39 -80.5 -62t-103.5 -23q-35 0 -69 10v-40q0 -21 15.5 -35.5t38.5 -14.5h458q22 0 37.5 14.5t15.5 35.5q0 15 15.5 22.5t34 7.5t34 -7.5t15.5 -22.5q0 -30 -12 -55.5t-32.5 -45t-48.5 -30.5t-59 -11 h-458q-32 0 -59.5 11t-48.5 30.5t-33 45t-12 55.5zM1578 495q0 -111 -32 -204.5t-89.5 -161.5t-137.5 -106t-175 -38q-45 0 -88.5 8t-83.5 26.5t-76.5 49.5t-67.5 76l-41 -44q-53 -53 -126 -81t-148 -28q-35 0 -71.5 6.5t-71.5 19.5t-66.5 31.5t-55.5 42.5v-418 q0 -27 10.5 -56t30 -52.5t48 -38.5t64.5 -15h130h28q20 0 35 2t22 12q2 2 17 61q15 58 75 58q63 0 63 -68q0 -47 -14 -85t-43.5 -65t-74.5 -41.5t-108 -14.5h-132q-62 0 -115 25t-91.5 67t-60.5 97t-22 114v653l-7 31q-2 6 -2.5 14.5t-0.5 17.5q0 68 71 68q53 0 68 -61 l7 -39q14 -49 40.5 -88t62 -66.5t77.5 -42t87 -14.5q64 0 117 25t91 71.5t59.5 111t21.5 144.5v141q0 79 -21.5 143.5t-59.5 111t-90.5 72t-113.5 25.5q-47 0 -91 -16t-80.5 -46t-64 -72t-40.5 -94q-15 -58 -70 -66q-68 0 -68 78q0 13 1 22t3 14q15 73 53.5 134t92.5 104.5 t121 67.5t139 24q53 0 106 -15t101.5 -44.5t90 -72.5t71.5 -98.5t45.5 -124t12.5 -147.5v-141q0 -126 -32 -203q18 -38 44.5 -67t59 -48.5t69 -30t72.5 -10.5q54 0 105.5 23t91.5 67.5t64.5 111t24.5 153.5v140q0 75 -19.5 139.5t-56 112t-88.5 75t-117 27.5q-18 0 -38 -2 t-40 -7l-31 -5q-80 0 -80 65q0 57 56 75l63 20l63 5q87 0 158.5 -29t135.5 -100q67 -72 100 -164.5t33 -211.5v-140z" />
<glyph unicode="&#x1039;&#x100c;" d="M-1001 -577q-9 17 -15.5 41t-11 50t-7 52t-2.5 46q0 77 33 142.5t88.5 113t128 74.5t152.5 27t153 -27t128.5 -74.5t88.5 -113t33 -142.5q0 -60 -20.5 -113.5t-56 -97t-84 -76t-104.5 -50.5q-23 -7 -41.5 -2t-31 18t-18 31t-3 35.5t14.5 32.5t35 22q78 25 122 80t44 120 q0 40 -19 78.5t-53.5 68.5t-82 48.5t-105.5 18.5q-57 0 -105 -18.5t-82 -48.5t-53 -68.5t-19 -78.5q0 -24 6 -53.5t18 -58t29.5 -53.5t39.5 -40q27 -19 31 -45t-8 -47.5t-35.5 -33t-50.5 -1.5h-556q-49 0 -83.5 22.5t-56.5 54t-32.5 66t-10.5 59.5v244q0 37 13.5 70.5 t38 58.5t58 39.5t73.5 14.5h200q36 0 53.5 -22.5t17.5 -49.5t-17.5 -49.5t-53.5 -22.5h-200q-19 0 -29.5 -10.5t-10.5 -28.5v-244q0 -13 4.5 -23.5t11 -18.5t13.5 -12.5t11 -4.5h419z" />
<glyph unicode="&#x100b;&#x1039;&#x100c;" horiz-adv-x="1268" d="M749 -295q36 -33 55 -68q17 -30 6.5 -56t-33.5 -39t-51 -8.5t-45 35.5q-25 45 -62.5 58.5t-82.5 13.5l-116 8q-23 0 -40.5 -1.5t-30.5 -7.5t-19.5 -18.5t-6.5 -34.5q0 -17 9.5 -34t30.5 -30.5t55 -22t83 -8.5h406q13 0 30 11t32.5 29t26 40t10.5 43v90h140v-90 q0 -42 -18.5 -88t-51 -85t-76 -64.5t-93.5 -25.5h-406q-50 0 -106.5 11.5t-103.5 38.5t-78 72t-31 113q0 35 9.5 65t26.5 53h531zM1046 122q-17 -13 -35.5 -26t-38.5 -25q-135 -84 -292 -84q-214 0 -376 135h742zM218 -295q30 42 82 63.5t123 21.5l116 -9q70 0 122.5 -22 t87.5 -54h-531zM1006 -295v142q-95 -34 -195.5 -44t-200 2t-195.5 44t-182 83q-30 18 -34 45.5t9.5 50.5t39.5 33t56 -8q176 -103 367 -112.5t375 76.5q21 9 39 9t31.5 -9t21.5 -25.5t8 -38.5v-248h-140zM304 122q-8 8 -17 16t-17 16q-167 167 -167 406q0 116 42 217 t128 186q168 170 407 170q76 0 147.5 -20.5t139.5 -59.5q72 -38 122.5 -86.5t76.5 -111.5q10 -22 1.5 -49t-32.5 -39q-12 -6 -25 -6.5t-25 3.5t-21.5 11t-14.5 16q-25 43 -65 80.5t-89.5 65t-104.5 43t-110 15.5q-91 0 -169 -31.5t-143 -96.5q-128 -125 -128 -307 q0 -179 128 -307q65 -65 143 -96.5t169 -31.5q59 0 114.5 15.5t104 44.5t89 69.5t69.5 91.5q4 7 14 13.5t22.5 11t26.5 4.5t26 -6t21 -16.5t13 -23t3 -25.5t-7 -25q-23 -45 -55.5 -83.5t-74.5 -73.5h-742z" />
<glyph unicode="&#x100d;&#x1039;&#x100e;" horiz-adv-x="1369" d="M943 -734q0 -68 -59 -68h-154q-35 0 -58 16.5t-23 51.5v739q-103 7 -192 45.5t-166 116.5q-87 88 -128.5 193.5t-41.5 230.5q0 42 9.5 82.5t30.5 72t55 51t83 19.5q8 0 23.5 2t31.5 10.5t29.5 26.5t16.5 50q0 39 -24 65t-69 32q-28 0 -49.5 -10.5t-32.5 -31.5 q-11 -20 -30.5 -28t-37.5 -8q-19 0 -31.5 7.5t-19.5 17.5t-10 21t-3 18q0 15 4 27.5t7 18.5q70 106 207 106q27 0 48.5 -3t41 -11.5t38 -22.5t38.5 -35q32 -34 48 -74t16 -91q0 -45 -18 -86t-50 -72.5t-76 -50t-96 -18.5q-27 0 -34.5 -24t-7.5 -61q0 -58 15.5 -113.5 t43.5 -105.5t67 -92.5t86 -73.5v106q0 11 4 18q-16 19 -26 38q-12 21 -4.5 39t23.5 27t35 5.5t31 -24.5q20 -36 62 -60.5t98 -24.5q37 0 68.5 11.5t54.5 30.5t36.5 43.5t15.5 51.5q0 4 1 7v1q0 28 -13 54t-36 46t-55.5 32.5t-71.5 12.5q-57 0 -99 -25t-62 -61 q-12 -21 -31 -24.5t-35 5t-23.5 26.5t4.5 39q34 63 100 100t146 37q54 0 103 -18t86.5 -50.5t60 -77t22.5 -96.5q0 -2 0.5 -4.5t-0.5 -4.5q-4 -20 -7 -36t-7.5 -31t-12 -30t-21.5 -32q-38 -48 -97.5 -76t-126.5 -28q-68 0 -127 28v-103q64 -22 131 -22q175 0 305 133 q135 132 135 322q0 130 -56.5 233.5t-171.5 187.5q-6 4 -12 12.5t-11.5 18.5t-9 21.5t-3.5 21.5q0 16 7 27t17.5 17.5t21.5 9t19 2.5q10 0 19 -2t17 -4q9 -3 16 -6q285 -205 285 -539q0 -244 -170 -422q-69 -72 -148 -110.5t-170 -50.5v-675h96q59 0 59 -67z" />
<glyph unicode="&#x1009;&#x1039;&#x1005;" horiz-adv-x="1270" d="M1144 569q0 -119 -39 -217t-119 -183q-81 -85 -176 -126t-210 -41q-104 0 -187 28t-158 98v-383q0 -44 13.5 -82.5t37 -66.5t54.5 -44t67 -16h431q64 0 105.5 34.5t41.5 93.5q0 69 67 69q65 0 65 -69q0 -63 -22.5 -112t-61 -83t-89 -51.5t-106.5 -17.5h-436 q-60 0 -115 27t-97 73.5t-66.5 109t-24.5 133.5v537l-7 28q0 69 65 69q15 -1 28 -5.5t24 -16.5l14 -16q39 -53 79 -91t83 -62.5t91 -36t104 -11.5q83 0 158 35t131.5 94.5t89.5 137.5t33 164q0 87 -30 165t-83 136.5t-125 92.5t-157 34q-62 0 -120 -19.5t-109 -52.5 t-93.5 -76t-73.5 -89q-8 -12 -20 -19.5t-32 -10.5q-68 0 -68 70l11 38q45 66 104 120.5t125.5 93.5t138 60.5t141.5 21.5q216 0 369 -170q76 -85 115 -183t39 -212zM654 0q52 0 99.5 -17.5t83.5 -48.5t57.5 -73.5t21.5 -92.5q0 -51 -21.5 -93.5t-57.5 -73.5t-83.5 -48.5 t-99.5 -17.5t-99.5 17.5t-83.5 48.5t-57.5 73.5t-21.5 93.5q0 50 21.5 92.5t57.5 73.5t83.5 48.5t99.5 17.5zM533 -135q-23 -20 -35.5 -45.5t-12.5 -51.5t12.5 -51t35.5 -45q15 6 27.5 17t21.5 24.5t14 27.5t5 26q0 13 -5 28t-14 28.5t-21.5 24.5t-27.5 17zM654 -93 q-18 0 -36 -3q30 -28 47 -65t17 -72q0 -32 -17.5 -69t-47.5 -66q18 -3 37 -3q37 0 68.5 12t53.5 31.5t34.5 44.5t12.5 51q0 27 -12.5 52t-34.5 44.5t-53.5 31t-68.5 11.5z" />
<glyph unicode="&#x1009;&#x1039;&#x1007;" horiz-adv-x="1260" d="M1148 574q0 -119 -39 -217t-119 -183q-81 -85 -176 -126t-210 -41q-104 0 -187 28t-158 98v-383q0 -44 13.5 -82.5t37 -66.5t54.5 -44t67 -16h431q64 0 105.5 34.5t41.5 93.5q0 69 67 69q65 0 65 -69q0 -63 -22.5 -112t-61 -83t-89 -51.5t-106.5 -17.5h-436 q-60 0 -115 27t-97 73.5t-66.5 109t-24.5 133.5v537l-7 28q0 69 65 69q15 -1 28 -5.5t24 -16.5l14 -16q39 -53 79 -91t83 -62.5t91 -36t104 -11.5q83 0 158 35t131.5 94.5t89.5 137.5t33 164q0 87 -30 165t-83 136.5t-125 92.5t-157 34q-62 0 -120 -19.5t-109 -52.5 t-93.5 -76t-73.5 -89q-8 -12 -20 -19.5t-32 -10.5q-68 0 -68 70l11 38q45 66 104 120.5t125.5 93.5t138 60.5t141.5 21.5q216 0 369 -170q76 -85 115 -183t39 -212zM700 -99q-5 -9 -4.5 -21.5t6 -24t14 -19.5t19.5 -9q14 -2 25.5 4.5t17.5 17.5q-14 17 -33.5 30.5 t-44.5 21.5zM854 -155q-10 -44 -45 -69t-80 -22q-27 1 -48.5 15.5t-35.5 36.5t-20 48t-1 51q-29 -3 -53 -15t-41 -29t-26.5 -38t-9.5 -43q0 -25 11 -48t31.5 -41t49 -28.5t63.5 -10.5q47 0 83 20t55 50q11 18 28 20.5t30.5 -6t19.5 -24.5t-6 -34q-31 -51 -87 -81.5 t-123 -30.5q-48 0 -91.5 16t-76.5 44.5t-53 68t-20 85.5t20 85.5t53 67.5t76.5 44t91.5 16q44 0 83 -12.5t70 -35.5q18 30 49 41t61 4.5t53.5 -29t26.5 -57.5q1 -18 -9.5 -31t-24 -17t-25 2t-11.5 24q-1 21 -11 29t-21.5 6.5t-21.5 -10.5t-10 -20q0 -2 -1 -12.5t-3 -29.5z " />
<glyph unicode="&#x102b;&#x103a;" horiz-adv-x="658" d="M252 65q0 -73 -71 -73q-70 0 -70 73v1437q0 42 -17 76.5t-47 59.5t-70.5 38.5t-86.5 13.5q-54 0 -102.5 -17t-87.5 -51q-86 -86 -86 -228q0 -73 -70 -73q-67 0 -67 73q0 217 130 338q59 54 127.5 81t153.5 27q143 0 248 -90q46 -38 74 -87q2 2 4 4.5t4 4.5 q112 128 282 128q60 0 119.5 -18t111.5 -52.5t92 -83.5t62 -110q8 -24 8 -38q0 -58 -78 -58q-21 0 -37.5 11.5t-26.5 34.5q-70 168 -251 168q-53 0 -98.5 -21t-78.5 -57.5t-51.5 -86t-18.5 -107.5q0 -8 -0.5 -16t-0.5 -16v-1285z" />
<glyph unicode="&#x102d;&#x1036;" d="M144 1527q0 -48 -17.5 -89.5t-48.5 -72.5t-73.5 -48.5t-91.5 -17.5q-48 0 -89.5 17t-73 47.5t-49.5 72.5t-18 91q0 48 18 90t49.5 73.5t73 49.5t89.5 18t90 -18t73.5 -49.5t49.5 -73.5t18 -90zM1 1527q0 38 -25 63t-63 25t-62.5 -25t-24.5 -63q0 -36 24.5 -60.5 t62.5 -24.5q36 0 62 24.5t26 60.5zM-377 1546q0 -157 -111 -268q-108 -110 -268 -110q-158 0 -268 110q-111 111 -111 268q0 153 111 269q110 113 268 113q147 0 263 -113t116 -269zM-515 1546q0 50 -18.5 94.5t-50.5 77.5t-76 52.5t-96 19.5q-49 0 -92.5 -18.5t-76.5 -51.5 t-52.5 -77.5t-19.5 -96.5q0 -50 18 -93.5t50.5 -76t76.5 -51.5t96 -19q50 0 94 18t76.5 50t51.5 76t19 96z" />
<glyph unicode="&#x1004;&#x103a;&#x1039;&#x102d;" d="M122 1536q0 -79 -29.5 -148t-81 -120t-120.5 -80.5t-148 -29.5q-78 0 -147 29.5t-120.5 81t-81 120.5t-29.5 147q0 76 29.5 145.5t80.5 122t120 83.5t148 31q73 0 141.5 -30.5t121 -83t84.5 -122t32 -146.5zM-16 1536q0 50 -18.5 94.5t-50.5 77.5t-76 52.5t-96 19.5 q-49 0 -92.5 -18.5t-76.5 -51.5t-52 -77.5t-19 -96.5q0 -50 18 -93.5t50 -76t76 -51.5t96 -19q50 0 94 18t76.5 50t51.5 76t19 96zM-653 1318q0 -20 -10.5 -38t-26 -33.5t-33 -27.5t-31.5 -19q-29 -14 -53.5 -21t-57.5 -7q-49 0 -94 18t-79.5 49.5t-55 74.5t-20.5 92 q0 51 19 94t57 75q-27 29 -40 62t-13 69q0 42 18 80.5t48 67.5t70.5 46.5t85.5 17.5q31 0 62.5 -6.5t58.5 -20t46.5 -35.5t26.5 -52q0 -73 -71 -73q-14 0 -26.5 8t-26 17t-30 17t-38.5 8q-36 0 -59.5 -19.5t-23.5 -55.5q0 -16 17.5 -37t42.5 -31l23 3q34 0 69.5 -7.5 t65.5 -23t51 -39t28 -54.5q0 -31 -25 -55l-43 -15q-23 0 -55 22q-11 11 -28 20.5t-40 14.5l-21 -5l-25 3q-35 -4 -60 -30t-25 -66q0 -19 9 -36.5t25 -31t36 -22t43 -8.5q21 0 41 13t40 37q22 26 58 26q20 0 41 -15.5t29 -50.5z" />
<glyph unicode="&#x1004;&#x103a;&#x1039;&#x102e;" horiz-adv-x="199" d="M-655 1327q0 -14 -4 -26t-14 -22q-19 -25 -39.5 -42t-43.5 -28q-28 -15 -53.5 -21.5t-57.5 -6.5q-49 0 -94 18t-79.5 49.5t-55 74.5t-20.5 92q0 51 19 94t57 75q-27 29 -40 62t-13 69q0 88 68 149q64 63 154 63q54 0 99 -17.5t79 -53.5q6 -14 10 -23.5t6 -19.5 q0 -73 -71 -73q-14 0 -26.5 8t-26 17t-30 17t-38.5 8q-36 0 -59.5 -19.5t-23.5 -55.5q0 -18 20 -38q15 -20 40 -30l23 3q124 0 196 -81q11 -11 18 -43q0 -31 -25 -55l-43 -15q-23 0 -55 22q-11 11 -28 20.5t-40 14.5l-21 -5l-25 3q-38 -4 -63 -35q-22 -22 -22 -61 q0 -19 9 -36.5t25 -31t36 -22t43 -8.5q21 0 41 13t40 37q22 26 58 26q24 0 45 -21q10 -5 15.5 -16.5t9.5 -28.5zM127 1545q0 -80 -25.5 -141t-79.5 -119q-110 -118 -274 -118q-97 0 -174 40t-132 118q-38 50 -55 101t-17 119q0 154 110 269q110 113 268 113q146 0 264 -113 q115 -114 115 -269zM-11 1548q0 49 -18.5 92.5t-50.5 76.5t-76 52.5t-96 19.5q-49 0 -92.5 -18.5t-76.5 -51.5t-52 -77.5t-19 -96.5q0 -20 3.5 -39t8.5 -36q98 83 216 83q133 0 236 -98q17 35 17 93zM-114 1345q-70 70 -158 70q-79 0 -135 -55q34 -29 73 -42t82 -13 q36 0 71 9.5t67 30.5z" />
<glyph unicode="&#x1004;&#x103a;&#x1039;&#x1036;" horiz-adv-x="14" d="M-498 1308q0 -14 -4 -26.5t-14 -21.5q-37 -49 -83 -71q-28 -15 -53.5 -21t-57.5 -6q-49 0 -94 18t-79.5 49.5t-55 74.5t-20.5 92q0 51 19 94t57 75q-27 28 -40 61.5t-13 69.5q0 43 16.5 80.5t51.5 67.5q63 63 154 63q54 0 99 -17t79 -53q6 -14 10 -23.5t6 -19.5 q0 -73 -71 -73q-14 0 -26.5 8t-26 17t-30 17t-38.5 8q-36 0 -59.5 -20t-23.5 -55q0 -20 20 -38q15 -20 40 -30l23 2q124 0 196 -80q11 -11 18 -43q0 -15 -5.5 -28.5t-19.5 -27.5l-43 -15q-21 0 -55 23q-11 11 -28 20.5t-40 14.5l-21 -5l-25 3q-38 -4 -63 -36 q-22 -22 -22 -60q0 -19 9 -36.5t25 -31t36 -22t43 -8.5q42 0 81 50q21 25 58 25q25 0 45 -20q10 -5 15.5 -16.5t9.5 -28.5zM7 1496q0 -48 -18 -89.5t-49 -72.5t-73 -48.5t-91 -17.5q-48 0 -90 17.5t-73.5 48t-49.5 72t-18 90.5q0 48 18 90t49.5 73.5t73.5 49.5t90 18t90 -18 t73.5 -49.5t49.5 -73.5t18 -90zM-136 1496q0 38 -25 63t-63 25t-63 -25t-25 -63q0 -18 6.5 -33.5t18.5 -27t28 -18t35 -6.5q18 0 34 6.5t28 18t19 27t7 33.5z" />
<glyph unicode="&#x1004;&#x103a;&#x1039;" d="M-308 1308q0 -14 -4 -26.5t-14 -21.5q-37 -49 -83 -71q-28 -15 -53.5 -21t-57.5 -6q-49 0 -94 18t-79.5 49.5t-55 74.5t-20.5 92q0 51 19 94t57 75q-27 28 -40 61.5t-13 69.5q0 43 16.5 80.5t51.5 67.5q63 63 154 63q54 0 99 -17t79 -53q6 -14 10 -23.5t6 -19.5 q0 -73 -71 -73q-14 0 -26.5 8t-26 17t-30 17t-38.5 8q-36 0 -59.5 -20t-23.5 -55q0 -20 20 -38q15 -20 40 -30l23 2q124 0 196 -80q11 -11 18 -43q0 -15 -5.5 -28.5t-19.5 -27.5l-43 -15q-21 0 -55 23q-11 11 -28 20.5t-40 14.5l-21 -5l-25 3q-38 -4 -63 -36 q-22 -22 -22 -60q0 -19 9 -36.5t25 -31t36 -22t43 -8.5q42 0 81 50q21 25 58 25q25 0 45 -20q10 -5 15.5 -16.5t9.5 -28.5z" />
<glyph unicode="&#x103e;&#x1030;" horiz-adv-x="602" d="M-534 -86l-230 -501q-14 -42 -37 -77.5t-52.5 -61.5t-63 -40.5t-69.5 -14.5q-83 0 -139 66q-29 34 -41.5 79t-12.5 102l2 51q0 52 64 52q60 0 68 -71l-2 -35q0 -42 18 -66t48 -24q35 0 55 21t40 66l229 505q14 39 62 39q23 0 54 -24q5 -10 8.5 -20.5t3.5 -21.5 q0 -9 -5 -24zM597 -855q0 -69 -66 -69h-187q-66 0 -66 69v1918q0 71 66 71q74 0 74 -71v-1846h113q66 0 66 -72zM152 -860q0 -72 -77 -72q-79 0 -79 72v1920q0 72 79 72q77 0 77 -72v-1920z" />
<glyph unicode="&#x103b;&#x103e;" horiz-adv-x="305" d="M148 -670q0 -67 -55 -74q-35 0 -44 10l-281 148q-35 19 -35 64q0 17 5.5 31.5t14.5 27.5q8 5 17 8.5t23 3.5q5 0 27 -5l-17 10v521q0 69 61 69q69 0 69 -69v-588l81 -44v1626q0 72 72 72q62 0 62 -72v-1739zM-534 -86l-230 -501q-14 -42 -37 -77.5t-52.5 -61.5t-63 -40.5 t-69.5 -14.5q-83 0 -139 66q-29 34 -41.5 79t-12.5 102l2 51q0 52 64 52q60 0 68 -71l-2 -35q0 -42 18 -66t48 -24q35 0 55 21t40 66l229 505q14 39 62 39q23 0 54 -24q5 -10 8.5 -20.5t3.5 -21.5q0 -9 -5 -24z" />
<glyph unicode="&#x103d;&#x103e;" d="M-199 -584q0 -122 -107 -193q-55 -35 -118.5 -53.5t-135.5 -18.5q-140 0 -240 60q-21 13 -38 26.5t-31 29.5q-34 -44 -79 -69.5t-93 -25.5q-83 0 -143 68q-29 34 -42 80.5t-13 104.5l2 53q0 53 65 53q62 0 70 -73l-2 -35q0 -44 18.5 -68.5t49.5 -24.5q18 0 37.5 13t38 36 t34.5 53.5t25 66.5l2 -4q18 51 54.5 119t91.5 156q7 11 20.5 31.5t30.5 45.5t37.5 53t41.5 55q8 10 22 20.5t32 10.5q8 0 16 -3.5t15 -8.5q8 -5 16 -11q51 -59 88 -104.5t60 -80.5q158 -208 173 -327zM-334 -584l-3 18q-11 79 -105 216q-9 13 -23 31.5t-35 43.5l-65 80 l-105 -163q-24 -38 -41.5 -67.5t-31 -55t-23.5 -48.5t-17 -47l-2 -35q0 -47 57 -65q38 -17 79 -26.5t89 -9.5q45 0 86 8.5t72 25t49.5 40.5t18.5 54z" />
<glyph unicode="&#x100a;&#x1039;&#x1009;" horiz-adv-x="2405" d="M2306 498q0 -123 -35.5 -218.5t-104.5 -165.5q-65 -66 -143.5 -99.5t-175.5 -33.5q-51 0 -99.5 11.5t-95.5 36.5q-36 19 -67.5 43.5t-55.5 56.5q-25 -28 -56.5 -54t-71.5 -46q-53 -25 -103 -38t-98 -13q-109 0 -210 53q-36 21 -68 49t-58 64q-25 -30 -59.5 -57.5t-76 -49 t-90 -34t-102.5 -12.5q-74 0 -140.5 22.5t-124.5 67.5q-1 -74 -1.5 -148.5t-2.5 -134.5q-2 -70 -3 -136q0 -61 44 -113q37 -52 111 -52h173q28 0 52 0.5t34 14.5q2 2 17 61t76 59q64 0 64 -69q0 -79 -41 -135q-32 -35 -80 -54.5t-122 -19.5h-175q-124 0 -210 94 q-83 90 -83 214v631q-6 16 -10.5 32.5t-9.5 34.5q-2 5 -2 14v18q0 68 73 68q16 0 25 -4q42 -8 54 -60l8 -39q1 -5 2 -12t2 -17q17 -45 45 -79t63.5 -56.5t76 -34t82.5 -11.5q124 0 208 85q98 97 98 271v140q0 173 -95 271q-81 85 -203 85q-49 0 -95 -15t-84.5 -43.5 t-67.5 -71.5t-44 -98q-15 -60 -73 -68q-73 0 -73 78q0 14 1.5 23t3.5 15q37 157 161 243q117 90 266 90q106 0 203 -52q93 -46 163 -146q20 -36 36 -73.5t29 -76.5q8 -40 13 -77.5t5 -80.5v-143q0 -61 -9 -111.5t-26 -94.5q20 -38 43.5 -67t58.5 -46q72 -45 153 -45 q113 0 206 93q95 93 95 266v140q0 169 -90 271q-80 88 -206 88q-40 0 -80 -10l-33 -5q-85 0 -85 67q0 52 58 78l68 18l65 5q181 0 308 -131q141 -139 141 -381v-140q0 -63 -7.5 -116t-27.5 -108q20 -32 44 -56t56 -41q64 -38 143 -38q115 0 203 88q98 101 98 271v140 q0 168 -93 271q-80 88 -203 88q-19 0 -39.5 -2.5t-41.5 -7.5l-32 -5q-85 0 -85 67q0 52 57 78l68 18l65 5q181 0 309 -131q140 -140 140 -381v-140z" />
<glyph unicode="&#x1009;&#x1039;&#x1006;" horiz-adv-x="1275" d="M786 104q-64 -59 -131.5 -84t-142.5 -25q-97 0 -182 44q-2 1 -2.5 1.5t-2.5 1.5q-1 0 -1.5 0.5t-1.5 0.5q-21 11 -39 22t-35 29v-417q0 -63 44 -111q34 -51 108 -51h601q20 0 35 2t22 12q2 2 6 17t11 44q15 58 76 58q62 0 62 -68q0 -78 -41 -133q-31 -35 -78.5 -54 t-120.5 -19h-575q-63 0 -113.5 23.5t-92.5 69.5q-82 88 -82 210v653l-8 31q-2 5 -2 13.5v17.5q0 68 70 68q53 0 68 -60l7 -39q15 -50 41 -89t65 -68q72 -54 161 -54q119 0 198 82q45 48 68 115t23 155v140q0 169 -91 266q-80 86 -193 86q-47 0 -91 -16t-80.5 -46t-64 -72 t-40.5 -94q-15 -58 -71 -66q-68 0 -68 78q0 13 1.5 22t3.5 14q33 156 153 240q53 46 116 68t136 22q103 0 194 -50t153 -148q22 -34 39 -67t26 -79q5 -25 8 -55.5t5 -62t2.5 -61.5t0.5 -55q0 -14 -0.5 -26t-0.5 -20v-18q0 -31 -1 -56.5t-4.5 -48.5t-10 -47t-16.5 -52 q-11 -32 -22 -57.5t-25 -48.5t-31.5 -44.5t-42.5 -43.5zM367 -306q20 -23 52 -38t71 -15q18 0 35.5 3.5t32.5 9.5q-29 31 -62.5 44t-63.5 13q-19 0 -35.5 -4.5t-29.5 -12.5zM722 -236v-10q3 -22 14.5 -42.5t31 -36t46 -25t57.5 -9.5q33 0 61 10.5t48 27.5t31 39.5t11 45.5 q0 24 -11 46t-31 39.5t-48 28t-61 10.5q-31 0 -57.5 -9.5t-46 -25t-31 -36t-14.5 -42.5v-11zM288 -132q31 48 84.5 75.5t117.5 27.5q57 0 107.5 -23.5t83.5 -64.5q32 41 82.5 64.5t107.5 23.5q46 0 88 -15.5t74.5 -43t51.5 -65.5t19 -83t-19 -82.5t-51.5 -65t-74.5 -43 t-88 -15.5q-57 0 -107.5 23t-82.5 65q-33 -42 -83.5 -65t-107.5 -23q-66 0 -120 29t-85 79q-7 11 -7 22q0 8 3 14l3 7q24 39 60 56.5t78 17.5q51 0 102.5 -23.5t89.5 -63.5q22 27 25 58v10v11q-3 22 -15 42.5t-31.5 36t-45.5 25t-57 9.5q-45 0 -79.5 -18.5t-53.5 -46.5 q-7 -11 -16 -15.5t-18 -4.5q-17 0 -29.5 12t-12.5 29q0 13 7 24z" />
<glyph unicode="&#x1009;&#x1039;&#x1008;" horiz-adv-x="1275" d="M786 104q-64 -59 -131.5 -84t-142.5 -25q-97 0 -182 44l-5 3q-1 0 -1.5 0.5t-1.5 0.5q-21 11 -39 22t-35 29v-417q0 -63 44 -111q17 -26 45 -37t63 -14q32 -3 49 -19t17.5 -37.5t-15.5 -44.5t-51 -40q-64 0 -115 23.5t-93 69.5q-82 88 -82 210v653l-8 31q-2 5 -2 13.5 v17.5q0 68 70 68q53 0 68 -60l7 -39q15 -50 41 -89t65 -68q72 -54 161 -54q119 0 198 82q45 48 68 115t23 155v140q0 169 -91 266q-80 86 -193 86q-47 0 -91 -16t-80.5 -46t-64 -72t-40.5 -94q-15 -58 -71 -66q-68 0 -68 78q0 13 1.5 22t3.5 14q33 156 153 240q53 46 116 68 t136 22q103 0 194 -50t153 -148q22 -34 39 -67t26 -79q5 -25 8 -55.5t5 -62t2.5 -61.5t0.5 -55q0 -14 -0.5 -26t-0.5 -20v-18q0 -31 -1 -56.5t-4.5 -48.5t-10 -47t-16.5 -52q-11 -32 -22 -57.5t-25 -48.5t-31.5 -44.5t-42.5 -43.5zM1171 -600q0 -67 -55 -74q-35 0 -44 10 l-198 109q-35 19 -35 64q0 17 5.5 31.5t14.5 27.5q8 5 17 8.5t23 3.5q5 0 27 -5l30 -18l79 -47v1559q3 72 74 72q62 0 62 -72v-1669zM654 0q52 0 99.5 -17.5t83.5 -48.5t57.5 -73.5t21.5 -92.5q0 -51 -21.5 -93.5t-57.5 -73.5t-83.5 -48.5t-99.5 -17.5t-99.5 17.5 t-83.5 48.5t-57.5 73.5t-21.5 93.5q0 50 21.5 92.5t57.5 73.5t83.5 48.5t99.5 17.5zM533 -135q-23 -20 -35.5 -45.5t-12.5 -51.5t12.5 -51t35.5 -45q15 6 27.5 17t21.5 24.5t14 27.5t5 26q0 13 -5 28t-14 28.5t-21.5 24.5t-27.5 17zM654 -93q-18 0 -36 -3q30 -28 47 -65 t17 -72q0 -32 -17.5 -69t-47.5 -66q18 -3 37 -3q37 0 68.5 12t53.5 31.5t34.5 44.5t12.5 51q0 27 -12.5 52t-34.5 44.5t-53.5 31t-68.5 11.5z" />
<glyph unicode="&#x1020;&#x103e;" horiz-adv-x="1265" d="M745 -313q0 -30 -11.5 -56t-29 -43.5t-37.5 -27.5q-5 -3 -20 -9t-44 -6h-51q-15 0 -25.5 7t-16 17t-5.5 21.5t5.5 22t16 17.5t25.5 7h51q10 0 19.5 4t15.5 10.5t10 16t4 19.5v60q14 23 29 28.5t28.5 1.5t23 -15t12.5 -21v-54zM1156 865q0 -75 -70 -75q-25 0 -49 25 q-41 43 -81.5 77.5t-85.5 58t-96.5 36t-113.5 12.5q-85 0 -161.5 -34t-134.5 -92.5t-92 -137t-34 -168.5q0 -92 33 -170.5t90 -135.5t133.5 -89.5t163.5 -32.5h55q25 0 47.5 2t45 10t47 22.5t53.5 40.5q41 35 95 35q33 0 60 -13t46.5 -34.5t30.5 -51t11 -62.5q0 -48 -31 -99 t-91 -92.5t-148 -68t-202 -26.5q-103 0 -190 21.5t-162 63.5v-210q0 -81 45.5 -124t131.5 -43h258q42 0 79 3.5t65 11.5t44 21t16 33q0 41 -29.5 57.5t-77.5 16.5q-29 3 -39 20.5t-7.5 38t15.5 38t31 22.5q38 -3 81.5 -12.5t80 -30t61 -54t24.5 -84.5t-29.5 -92t-77.5 -70 t-110 -44.5t-127 -15.5h-258q-71 0 -129 22t-99 62.5t-63 98t-22 128.5v340q0 16 2.5 25t9 14t18.5 7t31 5q29 0 53 -24q33 -34 74.5 -58.5t89.5 -40.5t101 -24t107 -8q38 0 79 5.5t81 17t76 29.5t65 42q34 23 34 58q0 42 -7 42q-45 -35 -80 -57t-72.5 -34t-82.5 -16.5 t-110 -4.5q-229 0 -393 166q-83 84 -123 184t-40 219q0 236 160 403q163 170 394 170q70 0 133.5 -13t122 -40.5t114.5 -71.5t113 -106z" />
<glyph unicode="&#x102d;&#x103e;&#x102f;" horiz-adv-x="276" d="M-534 -86l-230 -501q-14 -42 -37 -77.5t-52.5 -61.5t-63 -40.5t-69.5 -14.5q-83 0 -139 66q-29 34 -41.5 79t-12.5 102l2 51q0 52 64 52q60 0 68 -71l-2 -35q0 -42 18 -66t48 -24q35 0 55 21t40 66l229 505q14 39 62 39q23 0 54 -24q5 -10 8.5 -20.5t3.5 -21.5 q0 -9 -5 -24zM290 -854q0 -68 -59 -68h-154q-35 0 -58 16.5t-23 51.5v1909q0 31 23 49.5t58 18.5q58 0 58 -68v-1842h96q59 0 59 -67zM-200 1469q0 -158 -110 -268q-55 -54 -122 -82t-146 -28q-80 0 -147 28t-121 82q-111 111 -111 268q0 155 111 269q108 113 268 113 q147 0 263 -113q59 -57 87 -124t28 -145zM-338 1469q0 50 -18 94.5t-50 77.5t-76 52.5t-96 19.5q-49 0 -93 -18.5t-77 -51.5t-52 -77.5t-19 -96.5q0 -50 18 -93.5t50.5 -76t76.5 -51.5t96 -19q50 0 93.5 18t76 50t51.5 76t19 96z" />
<glyph unicode="&#x1036;&#x103e;&#x102f;" horiz-adv-x="252" d="M-534 -86l-230 -501q-14 -42 -37 -77.5t-52.5 -61.5t-63 -40.5t-69.5 -14.5q-83 0 -139 66q-29 34 -41.5 79t-12.5 102l2 51q0 52 64 52q60 0 68 -71l-2 -35q0 -42 18 -66t48 -24q35 0 55 21t40 66l229 505q14 39 62 39q23 0 54 -24q5 -10 8.5 -20.5t3.5 -21.5 q0 -9 -5 -24zM290 -854q0 -68 -59 -68h-154q-35 0 -58 16.5t-23 51.5v1909q0 31 23 49.5t58 18.5q58 0 58 -68v-1842h96q59 0 59 -67zM-340 1514q0 -47 -17.5 -87.5t-47.5 -70.5t-71 -47.5t-89 -17.5q-47 0 -88 17t-72 47t-48.5 70.5t-17.5 88.5q0 47 17.5 88t48.5 72 t72 48.5t88 17.5t88 -17.5t71.5 -48.5t48 -72t17.5 -88zM-479 1514q0 37 -24.5 61.5t-61.5 24.5t-61.5 -24.5t-24.5 -61.5q0 -35 24.5 -59t61.5 -24q18 0 33.5 6.5t27 17.5t18.5 26.5t7 32.5z" />
<glyph unicode=" "  horiz-adv-x="512" />
<glyph unicode="&#x09;" horiz-adv-x="512" />
<glyph unicode="&#xa0;" horiz-adv-x="512" />
<glyph unicode="!" horiz-adv-x="858" d="M428 -35q-53 0 -90 38t-37 91t37 91t90 38t91 -38t38 -91t-38 -91t-91 -38zM356 846l-4 225q0 84 -4 191q-2 16 -2 38q0 111 86 111q88 0 88 -119q0 -22 -2 -41q-2 -10 -6 -180l-6 -221v-385q0 -72 -2 -88q-8 -58 -43 -64q-12 -2 -31 -2q-74 0 -74 103v432z" />
<glyph unicode="&#x22;" horiz-adv-x="674" d="M274 1366l-28 -549h-111l-26 549h165zM565 1366l-26 -549h-111l-27 549h164z" />
<glyph unicode="#" horiz-adv-x="1229" d="M897 561h225l-22 -137h-223l-66 -424h-154l66 424h-277l-65 -424h-152l66 424h-229l20 137h229l41 270h-227l21 138h227l61 397h154l-62 -397h275l61 397h154l-59 -397h221l-21 -138h-223zM743 561l41 270h-274l-41 -270h274z" />
<glyph unicode="$" horiz-adv-x="1305" d="M958 1106q-43 131 -233 133v-459q16 -4 51 -12q160 -37 221.5 -67.5t114.5 -100.5q64 -84 64 -199q0 -108 -59.5 -201.5t-158.5 -138.5q-90 -43 -233 -69v-174q0 -54 -57 -54q-58 0 -58 54v174q-151 10 -255.5 54t-165 126t-60.5 180q0 84 41 135.5t109 51.5 q45 0 75.5 -30t30.5 -75q0 -88 -106 -94q10 -96 99 -153.5t232 -59.5v516l-30 8q-166 45 -226 72q-73 33 -114 92q-47 68 -47 172q0 107 59 199t154 133q79 35 204 55v164q0 61 58 61q57 0 57 -61v-164q184 -20 292.5 -102t108.5 -201q0 -53 -32.5 -89t-81.5 -36 q-41 0 -70 26.5t-29 63.5q0 41 45 70zM610 805v434q-114 -4 -187 -65.5t-73 -155.5q0 -82 49.5 -126t173.5 -77q11 -2 37 -10zM725 618v-491q125 2 208 73.5t83 180.5q0 100 -59.5 153.5t-196.5 77.5q-8 2 -35 6z" />
<glyph unicode="%" horiz-adv-x="1640" d="M414 31l561 1081q-62 -39 -115 -39q-96 0 -147 72q16 -74 16 -150q0 -192 -89 -304.5t-243 -112.5q-147 0 -236 112.5t-89 298.5q0 195 91 308.5t247 113.5q82 0 131 -23.5t129 -99.5q102 -98 194 -98q144 0 248 186q33 60 88 60q57 0 57 -31q0 -4 -4 -21l-18 -34 l-700 -1344q-23 -45 -37 -57q-21 -21 -60 -21q-53 0 -53 35q0 14 12 37zM903 352q0 201 92 318.5t250 117.5q152 0 238 -108.5t86 -302.5q0 -189 -91.5 -305.5t-236.5 -116.5q-158 0 -248 106.5t-90 290.5zM592 991q0 303 -184 303q-199 0 -199 -307q0 -139 51 -216t143 -77 q189 0 189 297zM1432 373q0 299 -185 299q-96 0 -151.5 -83t-55.5 -229q0 -135 52.5 -211.5t144.5 -76.5q90 0 142.5 79.5t52.5 221.5z" />
<glyph unicode="&#x26;" horiz-adv-x="1677" d="M940 1165q0 -227 -295 -379l23 -36q55 -93 196 -293l23 -29l12 35l80 211q143 377 407 377q123 0 199 -71t76 -185q0 -109 -71.5 -183.5t-178.5 -74.5q-78 0 -127 38.5t-49 102.5q0 98 86 98q74 0 74 -67q0 -9 -11 -33q29 -4 33 -4q39 0 67.5 32.5t28.5 79.5 q0 60 -37.5 95.5t-103.5 35.5q-106 0 -174 -116q-55 -94 -135 -314q-43 -118 -80 -184q88 -98 147.5 -131t149.5 -33q18 0 54 4t55 4q84 0 84 -75q0 -72 -87 -72h-32q-29 2 -58 2h-108q-141 0 -301 166q-56 -64 -94 -90q-127 -88 -293 -88q-187 0 -305.5 112.5t-118.5 290.5 q0 240 200 367q68 43 125 71l25 13q-109 196 -109 315q0 123 85 199t225 76q145 0 229 -72t84 -195zM485 1165q0 -78 90 -256q199 95 199 242q0 66 -40 105.5t-107 39.5q-64 0 -103 -35.5t-39 -95.5zM578 573q-50 76 -89 144q-77 -37 -127 -80q-112 -96 -112 -244 q0 -114 72.5 -185t189.5 -71q174 0 281 142q-138 176 -215 294z" />
<glyph unicode="'" horiz-adv-x="383" d="M274 1366l-28 -549h-111l-26 549h165z" />
<glyph unicode="(" horiz-adv-x="932" d="M137 508v39q0 356 228 602q129 139 284 215q129 63 189 63q39 0 39 -28q0 -23 -54 -49q-196 -97 -344 -275q-172 -207 -172 -512q0 -411 209 -657q148 -174 320 -256q57 -27 57 -53q0 -27 -37 -27q-72 0 -219 80q-238 129 -367 358q-123 217 -133 500z" />
<glyph unicode=")" horiz-adv-x="932" d="M541 1157q239 -260 252 -668q2 -12 2 -38q0 -357 -230 -605q-123 -133 -284 -213q-129 -63 -189 -63q-39 0 -39 29q0 22 53 49q201 102 347 274q172 205 172 512q0 412 -209 658q-148 172 -322 256q-57 26 -57 51q0 28 37 28q71 0 217.5 -78.5t249.5 -191.5z" />
<glyph unicode="*" horiz-adv-x="1305" d="M715 1288l-35 -188q0 -10 10 -10q6 0 31 22l119 111q39 37 82 37q67 0 67 -60q0 -59 -80 -90l-153 -57q-35 -15 -35 -25q0 -8 35 -22l153 -58q80 -30 80 -88q0 -61 -67 -61q-43 0 -82 37l-119 110q-25 23 -31 23q-10 0 -10 -11v-8l4 -24l31 -156q4 -20 4 -35 q0 -86 -68 -86q-67 0 -67 86q0 17 4 35l33 156q4 20 4 30q0 13 -11 13q-6 0 -30 -23l-119 -110q-39 -37 -84 -37q-66 0 -66 59q0 60 80 90l152 58q35 14 35 22q0 12 -35 25l-152 57q-80 31 -80 88q0 59 68 59q45 0 82 -34l119 -111q24 -22 30 -22q11 0 11 12q0 10 -4 31 l-33 155q-4 19 -4 35q0 88 67 88q68 0 68 -88q0 -14 -4 -35z" />
<glyph unicode="+" horiz-adv-x="1024" d="M68 612v140h368v350h152v-350h368v-140h-368v-350h-152v350h-368z" />
<glyph unicode="," horiz-adv-x="559" d="M305 -70q0 35 -35 35h-41q-47 0 -78.5 35t-31.5 86q0 59 41 99t102 40q74 0 119 -57t45 -150q0 -155 -121 -321q-53 -72 -90 -72q-41 0 -41 41q0 15 16 37q115 152 115 227z" />
<glyph unicode="-" horiz-adv-x="633" d="M76 547q0 71 82 71h319q82 0 82 -69q0 -74 -82 -74h-319q-82 0 -82 72z" />
<glyph unicode="." horiz-adv-x="559" d="M279 -35q-54 0 -90.5 38t-36.5 91t36.5 91t90.5 38q53 0 90 -38t37 -91t-37 -91t-90 -38z" />
<glyph unicode="/" horiz-adv-x="819" d="M713 1288l-586 -1501q-27 -68 -55 -152q-19 -51 -56 -51h-65q-31 0 -31 23q0 8 6 18l21 51l24 60l533 1362q22 59 69 190l29 80q16 43 60 43h61q27 0 27 -22q0 -11 -19 -56q-10 -24 -18 -45z" />
<glyph unicode="0" horiz-adv-x="1305" d="M643 -45q-260 0 -408.5 191.5t-148.5 527.5q0 342 154.5 539.5t423.5 197.5q256 0 404.5 -189.5t148.5 -512.5q0 -351 -154 -552.5t-420 -201.5zM659 1260q-376 0 -391 -564v-30q0 -269 98.5 -415.5t278.5 -146.5q184 0 288.5 160t104.5 441q0 268 -98 411.5t-281 143.5z " />
<glyph unicode="1" horiz-adv-x="1305" d="M580 473l-7 594q-2 104 -21.5 139t-76.5 35q-20 0 -59 -5t-60 -5q-80 0 -80 72q0 71 76 71q25 0 77 -5t81 -5q65 0 108 4q64 6 78 6q45 0 56 -26q8 -19 8 -64q0 -6 -2 -49q-10 -219 -10 -397v-232q0 -63 2 -170q4 -129 4 -170q2 -141 94 -141q22 0 67.5 5t67.5 5 q98 0 98 -72q0 -71 -90 -71q-35 0 -65 4q-172 22 -262 22q-91 0 -222 -18q-73 -10 -104 -10q-88 0 -88 73q0 72 100 72q31 0 64 -6q49 -4 61 -4q72 0 88.5 56.5t16.5 291.5z" />
<glyph unicode="2" horiz-adv-x="1305" d="M252 244q92 98 223 98q121 0 254 -106q148 -117 227 -117q58 0 93.5 38t35.5 97q0 20 -8 45q-33 -33 -73 -33q-89 0 -89 86q0 47 35 78t92 31q76 0 122 -54.5t46 -144.5q0 -127 -79.5 -217t-194.5 -90q-109 0 -261.5 116.5t-266.5 116.5q-115 0 -144 -86q21 4 25 4 q59 0 59 -59q0 -92 -102 -92q-68 0 -110 58.5t-42 156.5q0 358 494 516l147 47q248 80 248 268q0 127 -89 201t-245 74q-137 0 -227 -55.5t-107 -151.5q111 -8 111 -96q0 -53 -39 -91t-96 -38q-70 0 -112 48t-42 126q0 168 151.5 280.5t375.5 112.5q217 0 355 -113.5 t138 -293.5q0 -123 -66.5 -217.5t-185.5 -141.5q-37 -14 -246 -86q-149 -51 -239 -98q-66 -35 -112 -88.5t-56 -128.5z" />
<glyph unicode="3" horiz-adv-x="1305" d="M512 797l426 417h-475q-80 0 -107 -10q-51 -16 -51 -80q0 -20 4 -59t4 -59q0 -107 -71 -107q-70 0 -70 88q0 25 3 75t3 75q0 57 -2 85.5t-2 63.5q0 55 20.5 68.5t102.5 13.5h504q41 0 139 4q49 2 115 2q121 0 121 -74q0 -47 -52 -96l-376 -362q12 0 32 2h27 q174 0 285.5 -111.5t111.5 -286.5q0 -217 -158.5 -354t-408.5 -137q-229 0 -383 111.5t-154 279.5q0 96 55.5 162.5t137.5 66.5q53 0 87 -31.5t34 -82.5q0 -103 -121 -103h-23v-14q0 -100 112 -174t263 -74q170 0 278.5 97.5t108.5 248.5q0 267 -303 267q-80 0 -166 -19 q-18 -4 -35 -4q-49 0 -49 53q0 25 33 58z" />
<glyph unicode="4" horiz-adv-x="1305" d="M928 1266v-707h241q68 0 68 -70q0 -69 -72 -69h-237v-125q0 -170 92 -170q24 0 67 4l43 4q87 0 87 -70q0 -71 -74 -71q-45 0 -121 12q-64 10 -158 10q-57 0 -171.5 -12t-172.5 -12q-78 0 -78 69q0 74 95 74q20 0 60 -4t60 -4q103 0 103 170v125h-635q-94 0 -94 82 q0 33 22 65l543 674q86 107 127 138.5t94 31.5q111 0 111 -145zM229 559h531l14 670z" />
<glyph unicode="5" horiz-adv-x="1305" d="M381 1141l-25 -328q160 111 353 111q229 0 362 -122t133 -333q0 -229 -158.5 -371.5t-414.5 -142.5q-211 0 -357.5 103.5t-146.5 252.5q0 74 47 124t115 50q53 0 87 -30.5t34 -81.5q0 -35 -24 -60.5t-56 -25.5q-25 -2 -25 -15q0 -67 107.5 -121.5t240.5 -54.5 q164 0 269.5 101.5t105.5 259.5q0 151 -89 238t-245 87q-190 0 -303 -110q-45 -43 -63.5 -56.5t-46.5 -17.5h-9q-79 0 -79 90q0 4 2 8l28 396q2 32 4 112q2 113 16.5 138.5t75.5 25.5q25 0 37 -2l101 2h118h252q60 0 91 2q61 4 83 4q82 0 82 -121l-2 -14q0 -53 17 -125 q8 -24 8 -45q0 -65 -70 -65q-65 0 -69 96q-4 114 -101 114h-428q-51 0 -57 -73z" />
<glyph unicode="6" horiz-adv-x="1305" d="M700 1276q-184 0 -298.5 -154.5t-129.5 -421.5q129 224 426 224q224 0 365 -131t141 -336q0 -219 -151.5 -360.5t-388.5 -141.5q-263 0 -413.5 174t-150.5 475q0 371 166 589t447 218q172 0 292.5 -86t120.5 -209q0 -57 -39.5 -98t-93.5 -41q-43 0 -74.5 31.5t-31.5 76.5 q0 62 57 82q-61 109 -244 109zM670 784q-166 0 -262.5 -91t-96.5 -247q0 -159 97.5 -254.5t259.5 -95.5q157 0 256.5 98.5t99.5 254.5q0 151 -97.5 243t-256.5 92z" />
<glyph unicode="7" horiz-adv-x="1305" d="M285 1288l-4 -22q51 82 92 110.5t110 28.5q101 0 236 -105q151 -116 233 -116q86 0 107 57h-17q-28 0 -51.5 24.5t-23.5 55.5q0 39 29.5 66.5t70.5 27.5q135 0 135 -182q0 -135 -67 -238q-43 -63 -93 -110q-22 -23 -90 -82q-139 -121 -190 -223q-74 -146 -74 -353 q0 4 2 -45q4 -98 4 -88q0 -129 -102 -129q-107 0 -107 168q0 264 99 461q80 160 340 373q106 88 120 145q-69 -59 -176 -59q-131 0 -256 94l-84 63q-45 33 -100 33q-131 0 -131 -168q0 -51 8 -92q14 -72 14 -106q0 -35 -23.5 -59.5t-57.5 -24.5q-82 0 -82 88q0 34 11 106 t11 111q0 57 -8 122.5t-8 114.5q0 84 71 84q60 0 60 -71q0 -15 -8 -60z" />
<glyph unicode="8" horiz-adv-x="1305" d="M248 698q53 41 143 74q-112 64 -153 122t-41 150q0 156 132 261.5t324 105.5q193 0 325 -105.5t132 -261.5q0 -92 -42 -150t-153 -122q86 -33 142 -74q143 -108 143 -301q0 -196 -149.5 -319t-391.5 -123q-251 0 -403 121t-152 321q0 191 144 301zM653 1266 q-123 0 -201.5 -62.5t-78.5 -159.5q0 -86 77.5 -140t202.5 -54t202 54t77 143q0 96 -79 157.5t-200 61.5zM662 694q-177 0 -276 -78.5t-99 -216.5q0 -133 101 -216t265 -83t265.5 83t101.5 216t-98.5 214t-259.5 81z" />
<glyph unicode="9" horiz-adv-x="1305" d="M586 88q192 0 305 152.5t119 418.5q-115 -208 -408 -208q-213 0 -346 128t-133 332q0 215 146.5 357.5t369.5 142.5q254 0 399.5 -179t145.5 -493q0 -366 -162 -575t-447 -209q-180 0 -306 86t-126 211q0 59 38 99t93 40q45 0 78 -29.5t33 -70.5q0 -60 -59 -88 q63 -115 260 -115zM643 1266q-154 0 -249 -96.5t-95 -249.5q0 -150 90 -238t242 -88q160 0 251 88t91 240q0 155 -91 249.5t-239 94.5z" />
<glyph unicode=":" horiz-adv-x="559" d="M279 -35q-54 0 -90.5 38t-36.5 91t36.5 91t90.5 38q53 0 90 -38t37 -91t-37 -91t-90 -38zM279 657q-54 0 -90.5 38t-36.5 91q0 54 36.5 91.5t90.5 37.5q53 0 90 -37.5t37 -91.5q0 -53 -37 -91t-90 -38z" />
<glyph unicode=";" horiz-adv-x="559" d="M305 -70q0 35 -35 35h-41q-47 0 -78.5 35t-31.5 86q0 59 41 99t102 40q74 0 119 -57t45 -150q0 -155 -121 -321q-53 -72 -90 -72q-41 0 -41 41q0 15 16 37q115 152 115 227zM258 657q-53 0 -90 38t-37 91q0 54 37 91.5t90 37.5t91 -37.5t38 -91.5q0 -53 -38 -91t-91 -38z " />
<glyph unicode="&#x3c;" horiz-adv-x="1024" d="M68 741l888 416v-149l-727 -332l725 -332l2 -149l-888 415v131z" />
<glyph unicode="=" horiz-adv-x="1024" d="M68 791v133h888v-133h-888zM68 477v133h888v-133h-888z" />
<glyph unicode="&#x3e;" horiz-adv-x="1024" d="M956 610l-888 -415v151l727 330l-725 332l-2 149l888 -416v-131z" />
<glyph unicode="?" horiz-adv-x="1229" d="M578 -35q-54 0 -91.5 38t-37.5 91t37.5 91t91.5 38q53 0 90 -38t37 -91t-37 -91t-90 -38zM283 1030q0 -53 53 -88q-2 8 -2 21q0 28 21.5 47.5t54.5 19.5q90 0 90 -90q0 -59 -47 -99t-117 -40q-90 0 -148.5 60.5t-58.5 154.5q0 172 146.5 283.5t375.5 111.5 q228 0 366 -106.5t138 -280.5q0 -219 -217 -330q-37 -18 -94 -43q-121 -51 -165 -98t-44 -125q0 -57 -10 -78q-17 -31 -66 -31q-86 0 -86 107q0 98 49 168q62 84 226 174q147 80 190 129t43 133q0 113 -92 181.5t-244 68.5q-153 0 -257.5 -72.5t-104.5 -177.5z" />
<glyph unicode="@" horiz-adv-x="1417" d="M813 412q0 16 2 28q-78 -121 -240 -121q-98 0 -158.5 67t-60.5 173q0 186 135.5 328.5t313.5 142.5q41 0 90 -12l41 -10q8 -4 20 -4q11 0 35 10q33 14 47 14q31 0 31 -27q0 -6 -4 -22l-10 -39l-117 -436q-6 -25 -6 -39q0 -37 39 -37q76 0 141 98q92 138 92 318 q0 170 -111.5 282.5t-281.5 112.5q-240 0 -417 -191.5t-177 -449.5q0 -201 129 -335t324 -134q114 0 189 27.5t188 109.5q40 31 67 31q39 0 39 -37q0 -39 -53 -80q-203 -160 -447 -160q-247 0 -412 165t-165 413q0 299 222 521t525 222q230 0 374 -135t144 -352 q0 -244 -178 -426q-108 -111 -227 -111q-53 0 -88 27t-35 68zM856 690l55 205q-61 31 -118 31q-119 0 -208 -104.5t-89 -243.5q0 -142 122 -142q170 0 238 254z" />
<glyph unicode="A" horiz-adv-x="1528" d="M1071 231l-74 201q-12 33 -25.5 41t-53.5 8h-365q-41 0 -56.5 -14t-39.5 -78l-60 -158q-8 -22 -8 -43q0 -65 80 -65q20 0 58 4t57 4q84 0 84 -72q0 -67 -93 -67q-16 0 -45 4l-102 14q-29 4 -94 4q-72 0 -101 -4l-86 -12q-57 -8 -84 -8q-79 0 -79 67q0 72 77 72 q17 0 25 -2h27q55 0 84 43q12 16 41 96l380 1030q33 86 130 86q94 0 124 -86l367 -1015q35 -97 63.5 -127.5t81.5 -30.5q17 0 25 2l57 4q78 0 78 -66q0 -69 -78 -69q-22 0 -59 4q-129 14 -193 14q-75 0 -245 -16q-43 -4 -66 -4q-82 0 -82 69q0 70 90 70q19 0 54.5 -4 t54.5 -4q67 0 67 55q0 8 -16 53zM924 649l-185 565l-188 -565q-4 -12 -4 -14q0 -19 31 -19h325q25 0 25 17q0 4 -4 16z" />
<glyph unicode="B" horiz-adv-x="1417" d="M1243 1044q0 -208 -237 -294q86 -27 141 -60q166 -96 166 -289q0 -188 -145.5 -299.5t-389.5 -111.5q-88 0 -223 10t-199 10q-55 0 -104 -6l-96 -12q-4 0 -15 -2h-14q-88 2 -88 73q0 66 63 66q17 0 56 -6q26 -4 43 -4q104 0 104 151v824q0 153 -104 153q-19 0 -43 -4 q-37 -6 -56 -6q-63 0 -63 66q0 71 94 71h27l100 -14q43 -6 117 -6q78 0 221 12q96 8 207 8q207 0 322.5 -87t115.5 -243zM459 956q0 -108 19.5 -133.5t107.5 -25.5h114q363 0 363 235q0 215 -299 215q-209 0 -257 -26.5t-48 -137.5v-127zM459 541v-228q0 -133 45 -163.5 t246 -30.5q383 0 383 287q0 264 -369 264h-170q-111 0 -127 -49q-8 -25 -8 -80z" />
<glyph unicode="C" horiz-adv-x="1305" d="M692 1411q228 0 371 -174l-2 23v22q-2 12 -2 14q-4 45 -4 41q0 70 65 70q70 0 70 -86q0 -16 -8 -98q-11 -103 -11 -142q0 -55 7 -112l8 -78v-21q0 -92 -74 -92q-80 0 -78 88l2 74q4 147 -92 239.5t-252 92.5q-203 0 -317.5 -155.5t-114.5 -430.5q0 -280 118 -437 t329 -157q114 0 205.5 55.5t127.5 145.5q25 59 25 160q0 94 78 94q84 0 84 -94q0 -220 -151.5 -359t-391.5 -139q-276 0 -441 194.5t-165 518.5q0 333 169 538t445 205z" />
<glyph unicode="D" horiz-adv-x="1491" d="M305 1094q0 153 -104 153q-19 0 -43 -4q-37 -6 -56 -6q-63 0 -63 66q0 71 92 71q10 0 27 -2l108 -14q62 -8 131 -8q58 0 115 6l133 14q39 4 103 4q186 0 311 -53q164 -70 259 -242t95 -399q0 -201 -75.5 -361.5t-207.5 -236.5q-157 -92 -380 -92q-45 0 -93 4l-141 12 q-72 6 -149 6q-68 0 -111 -6l-98 -14q-4 0 -15 -2h-16q-88 0 -88 71q0 29 18.5 48.5t44.5 19.5q23 0 56 -6q14 -4 43 -4q104 0 104 153v822zM477 1114v-866q0 -94 92 -115q31 -8 172 -8q246 0 357 133q133 160 133 422q0 205 -81 347t-222 183q-90 27 -217 27 q-162 0 -198 -18.5t-36 -104.5z" />
<glyph unicode="E" horiz-adv-x="1378" d="M305 1094q0 151 -104 151q-29 0 -43 -4q-33 -6 -56 -6q-26 0 -44.5 19.5t-18.5 48.5q0 71 86 71q2 0 31 -2q307 -20 286 -20h21l493 14q15 0 107 6q33 2 59 2q107 0 107 -94q0 -16 -8 -104q-7 -66 -7 -121q0 -72 5 -101q8 -59 8 -88q0 -78 -74 -78t-74 109v107 q0 172 -71 202q-54 23 -275 23q-145 0 -172 -6q-88 -23 -88 -123v-92v-45q-2 -29 -2 -41v-27q0 -82 37 -94q14 -4 49 -4h84q129 0 129 88q0 24 -6 63t-6 70q0 82 73 82q74 0 74 -88q0 -17 -14 -127q-12 -94 -12 -166q0 -41 8 -146q2 -16 10 -71q6 -45 6 -72q0 -74 -74 -74 q-71 0 -71 86q0 23 5 66t5 65q0 89 -117 89h-92q-59 0 -72.5 -20.5t-13.5 -88.5v-127q0 -33 2 -88q2 -68 2 -90q2 -82 33 -103q22 -14 106 -14h279q121 0 166 36t45 134q0 31 -3 91.5t-3 90.5q0 92 74 92q77 0 77 -94q0 -37 -4 -112.5t-4 -112.5q0 -29 3 -85t3 -85 q0 -96 -94 -96q-22 0 -72 4q-24 2 -90 2q15 0 -159.5 4t-301.5 4q-192 0 -376 -12q-9 0 -19 -2h-12q-86 0 -86 73q0 66 63 66q11 0 56 -4q22 -6 43 -6q104 0 104 153v822z" />
<glyph unicode="F" horiz-adv-x="1268" d="M303 596v172l-2 326q0 151 -104 151q-27 0 -41 -4q-33 -6 -54 -6q-26 0 -44.5 19.5t-18.5 48.5q0 71 86 71q10 0 31 -2l141 -14q80 -8 178 -8q53 0 230 6l235 8q47 2 111 6q28 2 61 2q109 0 109 -96q0 -37 -10.5 -113t-10.5 -114q0 -33 4 -82t4 -90q0 -84 -73 -84 q-76 0 -76 96q0 29 3 88t3 88q0 109 -61.5 137.5t-290.5 28.5q-195 0 -221 -35q-21 -27 -21 -188v-152q0 -57 15.5 -70.5t84.5 -13.5h68q133 0 133 98q0 23 -5 62t-5 59q0 78 74 78q69 0 69 -90q0 -12 -4 -49l-12 -111q-8 -74 -8 -110q0 -84 18 -213q6 -43 6 -82 q0 -80 -74 -80q-69 0 -69 86q0 20 3 61t3 62q0 63 -35 82q-22 14 -94 14h-64q-71 0 -87.5 -16.5t-16.5 -90.5v-243q0 -96 21.5 -130t80.5 -34q15 0 45.5 2t45.5 2q94 0 94 -70q0 -28 -21.5 -48.5t-52.5 -20.5q-33 0 -96 10q-90 14 -205 14q-74 0 -158 -12l-69 -10 q-6 0 -15 -2h-12q-90 0 -90 73q0 66 63 66q9 0 54 -4q22 -6 43 -6q55 0 76.5 33.5t23.5 119.5z" />
<glyph unicode="G" horiz-adv-x="1454" d="M686 1411q205 0 371 -154q-4 29 -4 33q-4 41 -4 45q0 68 67 68q74 0 74 -88q0 -29 -2 -43l-14 -98q-7 -44 -7 -93q0 -39 9 -166v-18q0 -92 -76 -92q-72 0 -72 100v62q0 141 -93 223t-251 82q-199 0 -311.5 -153.5t-112.5 -422.5q0 -284 116 -444t320 -160q158 0 244 92 t86 262q0 70 -23.5 97.5t-82.5 27.5q-17 0 -47.5 -2t-47.5 -2q-98 0 -98 70q0 72 84 72q27 0 59 -4q129 -17 207 -17q101 0 213 19q25 4 56 4q81 0 81 -68q0 -29 -21.5 -49.5t-49.5 -20.5q-25 0 -37 2q-4 0 -14 3h-17q-90 0 -90 -201v-164q0 -53 4 -96t4 -68q0 -84 -73 -84 q-72 0 -72 72l4 49q2 18 4 64q-47 -64 -74 -89q-118 -106 -329 -106q-265 0 -426.5 196.5t-161.5 514.5q0 340 165 542.5t443 202.5z" />
<glyph unicode="H" horiz-adv-x="1604" d="M473 788h655v302q0 153 -104 153q-12 0 -44 -6t-54 -6q-66 0 -66 67q0 74 88 74q29 0 104.5 -12t139.5 -12q102 0 205 14q59 8 78 8q90 0 90 -72q0 -65 -64 -65q-16 0 -49 5t-49 5q-105 0 -105 -153v-818q0 -153 103 -153q16 0 50 5t50 5q64 0 64 -66q0 -73 -90 -73 q-19 0 -80 12q-72 14 -156 14q-113 0 -190 -12q-91 -14 -99 -14q-90 0 -90 73q0 68 66 68q16 0 49 -5t49 -5q86 0 102 112q2 15 2 185v231h-655v-233q0 -170 2 -185q17 -112 103 -112q16 0 50 5t50 5q63 0 63 -66q0 -73 -90 -73q-14 0 -88 12q-98 16 -172 16q-86 0 -184 -16 l-49 -8q-25 -4 -27 -4q-94 0 -94 73q0 27 19.5 47.5t45.5 20.5q19 0 56 -6q22 -6 43 -6q104 0 104 153v822q0 153 -104 153q-15 0 -45.5 -6t-53.5 -6q-26 0 -45.5 20.5t-19.5 47.5q0 71 94 71q19 0 76 -10q78 -14 190 -14q43 0 128 12t126 12q90 0 90 -74q0 -28 -18 -47.5 t-45 -19.5q-23 0 -55.5 6t-44.5 6q-101 0 -103 -153z" />
<glyph unicode="I" horiz-adv-x="782" d="M305 1094q0 151 -104 151q-29 0 -43 -4q-33 -6 -56 -6q-26 0 -44.5 19.5t-18.5 48.5q0 71 90 71q12 0 29 -2l108 -14q62 -8 127 -8q64 0 139 10l93 12q16 2 28 2q90 0 90 -71q0 -29 -18 -48.5t-45 -19.5q-21 0 -55 6q-15 4 -43 4q-105 0 -105 -151v-822q0 -153 105 -153 q16 0 43 4q39 6 55 6q63 0 63 -66q0 -73 -90 -73h-14q-8 2 -14 2l-107 16q-53 8 -112 8q-87 0 -154 -10l-94 -14q-4 0 -15 -2h-16q-88 0 -88 73q0 66 63 66q11 0 56 -4q22 -6 43 -6q104 0 104 153v822z" />
<glyph unicode="J" horiz-adv-x="1268" d="M317 457q0 32 29 55q-18 10 -31 10q-45 0 -78.5 -48t-33.5 -112q0 -112 88 -186t225 -74q309 0 344 279q14 117 14 321v66l-2 326q0 151 -104 151q-29 0 -43 -4q-33 -6 -55 -6q-27 0 -45.5 19.5t-18.5 48.5q0 71 90 71q13 0 29 -2l109 -14q61 -8 127 -8q61 0 139 10 l94 12q8 2 29 2q90 0 90 -71q0 -68 -66 -68q-20 0 -55 6q-14 4 -43 4q-105 0 -105 -151v-392q0 -307 -24 -411q-23 -92 -92 -170q-150 -166 -406 -166q-215 0 -349 111.5t-134 287.5q0 131 83 220.5t206 89.5q88 0 143 -46.5t55 -119.5q0 -52 -32.5 -89.5t-77.5 -37.5 q-39 0 -69 25.5t-30 60.5z" />
<glyph unicode="K" horiz-adv-x="1604" d="M477 696l578 492q22 18 22 35q0 22 -39 22q-16 0 -22 -2q-74 -8 -109 -8q-73 0 -73 72q0 67 88 67q47 0 84 -4l108 -12q72 -8 109 -8q73 0 182 16q55 8 82 8q78 0 78 -69q0 -70 -72 -70q-6 0 -20 2h-23q-10 2 -31 2q-78 0 -139 -51l-387 -324q-25 -20 -25 -37 q0 -10 21 -34l31 -48l327 -446q131 -178 197 -178q4 0 12 2h10q56 6 68 6q74 0 74 -70q0 -69 -80 -69l-103 12q-75 8 -172 8q-110 0 -231 -12q-80 -8 -90 -8q-76 0 -76 67q0 74 80 74q22 0 63 -4q80 -8 93 -8q49 0 49 20q0 15 -19 39l-381 518q-12 17 -22 17q-8 0 -27 -17 l-215 -188q-2 -37 -2 -84q0 -178 2 -191q17 -116 103 -116q12 0 44.5 6t55.5 6q27 0 45 -19.5t18 -48.5q0 -71 -90 -71h-14q-8 2 -14 2l-115 16q-43 6 -133 6q-66 0 -109 -6l-112 -16q-4 0 -13 -2h-12q-92 0 -92 71q0 66 63 66q19 0 56 -6q24 -4 43 -4q102 0 102 153 q0 -4 2 144v180v172v182l-2 144q0 153 -102 153q-21 0 -43 -6q-37 -6 -56 -6q-65 0 -65 67q0 72 92 72q10 0 27 -2l98 -12q65 -8 111 -8q55 0 165.5 12t126.5 12q86 0 86 -71q0 -29 -18 -48.5t-45 -19.5q-21 0 -55 6q-15 4 -43 4q-72 0 -90.5 -50t-16.5 -245z" />
<glyph unicode="L" horiz-adv-x="1305" d="M477 295q0 -121 25 -143q18 -19 48 -23t134 -4h180q142 0 189 38t47 152q0 31 -2 72q-4 80 -4 96q0 90 71 90q86 0 86 -81q0 -25 -2 -39l-14 -105q-6 -45 -6 -94q0 -29 5 -85t5 -85q0 -92 -104 -92q-21 0 -95 4q-49 2 -151 4l-154 2h-327q-50 0 -164 -4q-17 0 -57 -4 t-62 -4q-86 0 -86 73q0 66 63 66q17 0 49.5 -5t49.5 -5q104 0 104 153v822q0 151 -104 151q-29 0 -43 -4q-33 -6 -56 -6q-26 0 -44.5 19.5t-18.5 48.5q0 71 88 71q12 0 31 -2l108 -12q90 -10 133 -10q54 0 131 10l95 12q16 2 26 2q92 0 92 -71q0 -29 -18 -48.5t-45 -19.5 q-21 0 -55 6q-15 4 -43 4q-105 0 -105 -151v-799z" />
<glyph unicode="M" horiz-adv-x="1939" d="M653 1221l316 -1037l346 1104q26 86 92 86h10q21 0 53 -6q41 -10 54 -10q32 -4 90 -4q61 0 96 6l72 12q6 2 24 2q95 0 95 -71q0 -66 -66 -66q-16 0 -48 5t-48 5q-105 0 -105 -153v-144l-2 -180v-174l2 -324q0 -153 103 -153q20 0 45 6q45 4 53 4q66 0 66 -66 q0 -73 -89 -73q5 0 -30 4q-142 16 -240 16q-96 0 -184 -14q-37 -6 -66 -6q-80 0 -80 67q0 70 82 70q21 0 31 -2q45 -4 53 -4q74 0 92 153q5 33 5 209q0 68 2 197l4 184v363q0 12 -11 12q-6 0 -12 -12l-377 -1170q-24 -77 -114 -77q-54 0 -79.5 15t-39.5 62l-371 1170 q-6 12 -14 12t-8 -12l12 -953q2 -149 82 -149q22 0 61 8h25q80 0 80 -72q0 -71 -82 -71q-15 0 -43 4q-45 6 -96 14q-41 6 -105 6q-113 0 -145 -6l-86 -16q-4 0 -13 -2h-12q-94 0 -94 71q0 29 18.5 48.5t44.5 19.5q23 0 53.5 -6t45.5 -6q104 0 104 153v824q0 153 -104 153 q-17 0 -49.5 -5t-49.5 -5q-63 0 -63 66q0 71 92 71q8 0 27 -2l71 -8q54 -6 101 -6q39 0 105.5 8t96.5 8q80 0 107 -100z" />
<glyph unicode="N" horiz-adv-x="1565" d="M606 1282l551 -1145v826q0 159 -2 176q-18 106 -102 106q-17 0 -49.5 -5t-49.5 -5q-26 0 -45.5 19.5t-19.5 45.5q0 74 92 74q18 0 27 -2l92 -12q61 -8 114 -8q54 0 142 12q30 4 71 10q5 0 15 2h14q88 0 88 -71q0 -70 -82 -70q-14 0 -22 2h-21q-61 0 -79.5 -26.5 t-22.5 -116.5l-4 -117l-4 -209v-547q0 -141 -32 -198.5t-110 -57.5q-100 0 -170 144l-536 1116v-953q0 -153 104 -153q17 0 49.5 5t49.5 5q65 0 65 -68q0 -71 -92 -71h-12q-11 2 -15 2l-84 12q-69 10 -131 10q-53 0 -137 -10l-100 -12q-4 0 -15 -2h-16q-88 0 -88 71 q0 64 65 64q11 0 56 -4q22 -6 43 -6q104 0 104 153v144l2 180v176l-2 324q0 153 -106 153q-15 0 -41 -4q-39 -6 -58 -6q-65 0 -65 68q0 71 88 71q12 0 33 -2q102 -10 157 -10q31 0 92.5 6t92.5 6q63 0 84 -43z" />
<glyph unicode="O" horiz-adv-x="1341" d="M668 -45q-273 0 -431.5 196.5t-158.5 532.5q0 340 159.5 533.5t440.5 193.5q268 0 427 -188.5t159 -509.5q0 -348 -161 -553t-435 -205zM672 1264q-197 0 -305.5 -151.5t-108.5 -426.5q0 -278 108.5 -431t303.5 -153q190 0 301.5 159t111.5 431q0 275 -106.5 423.5 t-304.5 148.5z" />
<glyph unicode="P" horiz-adv-x="1305" d="M305 272v822q0 151 -104 151q-17 0 -43 -4q-39 -6 -56 -6q-65 0 -65 68q0 71 90 71q14 0 31 -2l100 -12q49 -6 123 -6q51 0 123 6q168 14 254 14q131 0 225 -20q135 -29 212 -127.5t77 -237.5q0 -192 -132 -294.5t-382 -102.5h-146q-67 0 -80 2h-4q-32 0 -41.5 -11.5 t-9.5 -52.5v-41q0 -260 15.5 -315t89.5 -55q22 0 43 6q45 4 55 4q63 0 63 -66q0 -73 -90 -73l-28 4l-103 14q-43 6 -129 6q-71 0 -117 -6l-118 -16q-4 0 -13 -2h-14q-92 0 -92 71q0 29 18.5 48.5t44.5 19.5q23 0 56 -6q14 -4 43 -4q104 0 104 153zM492 1200 q-15 -20 -15 -113v-303q0 -55 78 -63q-6 0 119 0q145 0 241 22q183 43 183 240q0 260 -332 260q-246 0 -274 -43z" />
<glyph unicode="Q" horiz-adv-x="1341" d="M1264 696q0 -479 -330 -682v-155q0 -146 119 -146q67 0 92 35q16 25 20 94q4 97 74 97q80 0 80 -101q0 -112 -72.5 -181t-189.5 -69q-258 0 -258 238v143q-64 -14 -127 -14q-273 0 -433.5 194.5t-160.5 524.5q0 344 159.5 540.5t440.5 196.5q270 0 428 -192.5t158 -522.5 zM936 289v-109q59 74 86 142q61 163 61 378q0 269 -106.5 416.5t-298.5 147.5q-201 0 -313.5 -154t-112.5 -430q0 -385 188 -535q-55 91 -55 172q0 101 83 169.5t204 68.5q125 0 194.5 -70.5t69.5 -195.5zM674 88q51 0 127 21v157q0 162 -137 162q-74 0 -121 -45t-47 -117 q0 -80 49 -129t129 -49z" />
<glyph unicode="R" horiz-adv-x="1491" d="M1100 754q-60 -29 -152 -49q121 -23 167 -90.5t46 -223.5v-94q-2 -8 -2 -25q0 -147 94 -147q97 0 97 176v61l-2 52v28q0 60 8 82q16 35 63 35q74 0 74 -86q0 -2 -2 -45l-2 -43q-2 -43 -2 -55v-51q2 -13 2 -37q0 -119 -66.5 -185.5t-185.5 -66.5q-242 0 -242 243v62l2 70 v45q0 137 -52 181t-216 44h-190q-66 0 -66 -80v-158q0 -151 4 -172q19 -102 103 -102q28 0 43 4q34 6 53 6q65 0 65 -70q0 -73 -88 -73l-30 4l-111 14q-63 8 -113 8q-61 0 -143 -10l-98 -12q-33 -4 -31 -4q-88 0 -88 73q0 66 63 66q11 0 56 -4q22 -6 43 -6q104 0 104 153 v822q0 153 -104 153q-17 0 -49.5 -5t-49.5 -5q-26 0 -44.5 19.5t-18.5 46.5q0 71 90 71q8 0 29 -2l104 -10q41 -4 103 -4q63 0 141 4l156 8q77 4 143 4q450 0 450 -344q0 -203 -155 -276zM532 772h193q172 0 258 49q104 60 104 199q0 233 -319 233q-170 0 -230.5 -25.5 t-62.5 -101.5l-2 -65v-236q0 -34 12.5 -43.5t46.5 -9.5z" />
<glyph unicode="S" horiz-adv-x="1268" d="M629 1411q200 0 327 -129v29q0 80 64 80q70 0 70 -88v-13q0 -4 -6.5 -61.5t-6.5 -136.5q0 -11 4 -66l6 -82q3 -10 3 -29q0 -98 -76 -98q-80 0 -80 82v10l4 56q2 28 2 45q0 123 -83 192.5t-228 69.5q-133 0 -212 -65.5t-79 -176.5q0 -129 117 -190q65 -33 229 -60 q244 -39 334 -106q135 -101 135 -285q0 -192 -138 -313t-358 -121q-233 0 -387 147q0 -8 2 -18v-12q4 -33 4 -43q0 -76 -71 -76q-78 0 -78 86q0 10 2 16l8 107q6 80 6 102q0 41 -10 123t-10 123q0 92 78 92q80 0 80 -92v-37q-2 -16 -2 -47q0 -154 98 -244t266 -90 q156 0 248 74t92 201q0 194 -246 237l-116 21q-175 30 -271 71q-88 39 -140 122t-52 188q0 180 131 292.5t340 112.5z" />
<glyph unicode="T" horiz-adv-x="1305" d="M731 270q0 -153 105 -153q16 0 49 5t49 5q27 0 46 -19.5t19 -46.5q0 -71 -92 -71h-12q-10 2 -14 2l-101 14q-57 8 -129 8q-78 0 -137 -8l-102 -14q-6 0 -15 -2h-14q-90 0 -90 71q0 66 65 66q17 0 49.5 -5t49.5 -5q102 0 102 153v144l2 180v174l-2 334q0 145 -149 145h-64 q-147 0 -147 -143q0 -51 2 -70l8 -76q2 -18 2 -51q0 -129 -80 -129q-76 0 -76 94q0 27 4 93q7 98 7 125q0 51 -5 106q-8 109 -8 92q0 86 78 86q29 0 133 -6q10 0 168 -4l234 -4q41 0 219 4q39 0 133 6q84 6 131 6q102 0 102 -84v-4q0 -20 -5 -75.5t-11 -118.5v-23 q0 -31 6 -96q8 -86 8 -107q0 -84 -80 -84q-77 0 -77 103q0 37 6 109.5t6 109.5q0 141 -162 141h-57q-76 0 -109 -31.5t-37 -105.5l-6 -143z" />
<glyph unicode="U" horiz-adv-x="1454" d="M424 1051l-4 -131l-8 -166v-316q0 -143 31.5 -208.5t119.5 -102.5q82 -35 168 -35q113 0 193 43t103.5 116t25.5 185l4 527q0 155 -4 176q-19 104 -105 104q-14 0 -41 -4q-39 -6 -55 -6q-27 0 -46.5 20.5t-19.5 46.5q0 74 91 74q14 0 28 -2l121 -16q45 -6 102 -6 q56 0 93 6l88 14q37 6 49 6q86 0 86 -69q0 -70 -84 -70h-23q-6 2 -20 2q-62 0 -76 -61.5t-14 -315.5v-358q0 -133 -8 -193q-17 -102 -70 -178q-123 -178 -416 -178q-360 0 -465 235q-32 72 -32 224q0 73 6 217.5t6 218.5v108q0 150 -2 168q-15 113 -80 113h-14 q-11 -2 -19 -3t-27 -1q-86 0 -86 70q0 69 78 69q33 0 70 -6q100 -16 186 -16q88 0 203 18q25 4 53 4q84 0 84 -69q0 -70 -71 -70q-17 0 -49.5 5t-49.5 5q-65 0 -88 -69q-10 -31 -12 -125z" />
<glyph unicode="V" horiz-adv-x="1491" d="M498 1044l288 -874l275 856q31 98 31 139q0 78 -82 78q-15 0 -45.5 -5t-44.5 -5q-80 0 -80 72q0 69 78 69q43 0 130 -12t132 -12q73 0 182 18q35 6 65 6q76 0 76 -71q0 -70 -76 -70q-2 0 -8 2l-47 4h-10q-35 0 -56.5 -34t-60.5 -146l-336 -985q-35 -101 -129 -101 q-98 0 -133 101l-366 1030q-27 76 -43 96q-29 35 -91 35q-12 0 -38.5 -2t-38.5 -2q-80 0 -80 72q0 73 82 73q24 0 55 -6q115 -22 203 -22q51 0 151.5 13t149.5 13q76 0 76 -67q0 -74 -78 -74q-4 0 -19 2h-20q-12 2 -35 2q-90 0 -90 -57q0 -29 10 -62z" />
<glyph unicode="W" horiz-adv-x="1901" d="M444 1051l168 -867l211 1065q27 140 138 140q116 0 139 -123l205 -1096l174 850q18 90 18 137q0 84 -86 84q-18 0 -53 -2t-53 -2q-88 0 -88 70q0 67 86 67q32 0 67 -4q168 -20 221 -20q41 0 122 12t122 12q76 0 76 -71q0 -66 -74 -66q-12 0 -36.5 3t-37.5 3 q-43 0 -62.5 -32.5t-45.5 -147.5l-230 -977q-26 -113 -127 -113q-106 0 -133 140l-207 1083l-227 -1112q-22 -111 -117 -111q-96 0 -122 113l-244 1020q-19 78 -46.5 105.5t-86.5 27.5h-15l-45 -4q-65 0 -65 68q0 71 71 71q29 0 66 -6q111 -18 215 -18q49 0 225 20 q31 4 60 4q73 0 73 -67q0 -74 -90 -74q-18 0 -56 4t-56 4q-72 0 -72 -67q0 -25 6 -58z" />
<glyph unicode="X" horiz-adv-x="1604" d="M346 268l363 447l-375 440q-70 82 -127 82q-17 0 -46.5 -2t-45.5 -2q-84 0 -84 74q0 69 88 69q10 0 129 -20q57 -8 114 -8q109 0 242 20q41 6 72 6q82 0 82 -69q0 -72 -82 -72q-6 0 -19 2h-18q-27 4 -58.5 8t-41.5 4q-25 0 -25 -14q0 -8 12 -25l285 -372l281 356 q16 20 16 37q0 16 -27 16q-16 0 -30 -2q-60 -8 -95 -8q-82 0 -82 72q0 67 76 67q31 0 78 -8q94 -16 197 -16q63 0 178 18q51 8 65 8q84 0 84 -71q0 -72 -75 -72q-15 0 -43.5 5t-42.5 5q-50 0 -121 -88l-361 -440l385 -467q101 -123 164 -123q4 0 15 2h12q12 2 33 2 q75 0 75 -68q0 -71 -80 -71q-20 0 -71 8q-117 18 -191 18q-82 0 -180 -16q-61 -10 -98 -10q-88 0 -88 73q0 70 84 70q35 0 69 -2l64 -4h14q33 0 33 20q0 17 -39 66l-305 383l-299 -383q-37 -47 -37 -66q0 -22 29 -22h4l47 4l61 4q31 2 52 2q90 0 90 -72q0 -73 -78 -73 q-25 0 -80 10q-100 18 -201 18q-114 0 -227 -20q-45 -8 -72 -8q-86 0 -86 73q0 72 76 72q12 0 37.5 -3t38.5 -3q47 0 80.5 25.5t105.5 113.5z" />
<glyph unicode="Y" horiz-adv-x="1491" d="M666 408v38q-2 33 -2 56l-398 628q-39 62 -49 72q-31 31 -76 31q-24 0 -37 -2h-18q-14 -2 -20 -2q-95 0 -95 71q0 74 82 74q33 0 82 -8q98 -16 184 -16q64 0 191 18q43 6 74 6q84 0 84 -71q0 -70 -101 -70l-20 2h-51l-41 2q-25 2 -25 -16q0 -9 2 -12t10 -17l314 -533 l317 533q10 16 10 33q0 18 -26 18h-4l-37 -2l-53 -6q-35 -4 -54 -4q-84 0 -84 72q0 71 82 71q31 0 74 -6q115 -16 199 -16q88 0 194 16q41 6 70 6q78 0 78 -71q0 -66 -76 -66q-31 0 -47 4q-33 4 -45 4q-54 0 -86 -49l-31 -47l-403 -633v-86q0 -209 17 -260t87 -51q16 0 50 5 t50 5q64 0 64 -66q0 -73 -92 -73h-13q-8 2 -14 2l-113 14q-63 8 -125 8q-65 0 -124 -8l-105 -14q-4 0 -12 -2h-15q-92 0 -92 71q0 68 66 68q16 0 48 -5t48 -5q86 0 105 108q2 19 2 181z" />
<glyph unicode="Z" horiz-adv-x="1268" d="M1153 1176l-903 -1055h514q176 0 230.5 32.5t54.5 137.5q0 31 -6.5 84t-6.5 94q0 82 78 82q74 0 74 -86q0 -23 -6 -86.5t-6 -122.5q0 -57 2 -76q8 -71 8 -96q0 -96 -117 -96q-49 0 -94 2q-184 8 -385 8q-101 0 -234 -6q-43 -2 -110 -2q-96 0 -131 24.5t-35 89.5 q0 64 47 119l864 1020h-502q-127 0 -173 -45t-46 -166q0 -20 2 -63t2 -64q0 -102 -77 -102q-76 0 -76 84q0 39 8 113.5t8 113.5q0 27 -4 79t-4 79q0 110 111 106l55 -2q39 -2 111 0h71q51 -2 66 -2l424 2h82q147 0 147 -102q0 -47 -43 -98z" />
<glyph unicode="[" horiz-adv-x="895" d="M225 0v971q0 63 -4 159.5t-4 155.5q0 66 19 82q12 10 40 10q27 0 79.5 -5t78.5 -5q105 0 158 6t102 6q109 0 109 -71q0 -68 -115 -68q-35 0 -100.5 10.5t-100.5 10.5q-57 0 -76.5 -15.5t-23.5 -70.5l-8 -111q-6 -82 -6 -264v-631q0 -182 6 -264l8 -111q4 -55 27 -71 q16 -13 73 -13q35 0 101.5 9.5t99.5 9.5q115 0 115 -68q0 -72 -109 -72q-41 0 -123 6.5t-122 6.5h-17q-26 0 -78.5 -5.5t-77.5 -5.5q-40 0 -53 29q-6 17 -6 64q0 61 4 157.5t4 157.5z" />
<glyph unicode="\" horiz-adv-x="1024" d="M53 1536h148l729 -1706h-148z" />
<glyph unicode="]" horiz-adv-x="895" d="M516 -94q6 84 6 264v631q0 180 -6 264l-8 111q-4 55 -23.5 70.5t-76.5 15.5q-35 0 -101.5 -10.5t-99.5 -10.5q-115 0 -115 68q0 71 109 71q47 0 102 -6t158 -6q26 0 78.5 5t78.5 5q41 0 54 -28q6 -17 6 -64q0 -63 -4 -155.5t-4 -335.5v-619q0 -237 4 -334.5t4 -156.5 q0 -66 -15.5 -79.5t-44.5 -13.5q-26 0 -77.5 5.5t-77.5 5.5q-107 0 -160 -6.5t-102 -6.5q-109 0 -109 72q0 68 115 68q31 0 97.5 -9.5t103.5 -9.5q57 0 76.5 14.5t23.5 69.5z" />
<glyph unicode="^" horiz-adv-x="1024" d="M510 1249l-297 -501h-162l363 622h196l363 -622h-164z" />
<glyph unicode="_" horiz-adv-x="1024" d="M0 -272v135h1024v-135h-1024z" />
<glyph unicode="`" horiz-adv-x="1008" d="M346 1432q27 0 60 -21l258 -162q43 -26 43 -53q0 -49 -43 -49q2 0 -29 6l-291 127q-72 31 -72 78q0 31 21.5 52.5t52.5 21.5z" />
<glyph unicode="a" horiz-adv-x="1155" d="M961 -27q-168 0 -207 146q-105 -154 -328 -154q-166 0 -265.5 82t-99.5 219q0 170 146 250q55 31 95 40t161 24q172 18 224 51t52 121q0 84 -58 132t-163 48q-92 0 -172 -51q-31 -21 -31 -43q0 -9 19 -21q28 -20 28 -69q0 -41 -29.5 -68t-74.5 -27q-53 0 -89 37t-36 90 q0 115 113.5 197t275.5 82q373 0 373 -359v-413q0 -99 4 -117q12 -72 70 -72q71 0 71 131v101q0 65 64 65q67 0 67 -98v-10l-2 -117q-4 -197 -208 -197zM733 381l2 145q-45 -41 -95 -57t-179 -29q-234 -22 -234 -172q0 -78 56.5 -123t152.5 -45q137 0 216 75t81 206z" />
<glyph unicode="b" horiz-adv-x="1155" d="M346 1307q-16 -170 -18 -404q65 86 132.5 121t170.5 35q205 0 325.5 -143.5t120.5 -380.5q0 -261 -128 -415.5t-345 -154.5q-211 0 -305 158q8 -60 8 -66q0 -73 -71 -73q-72 0 -72 102q0 29 2 43q0 47 2 100l6 158l4 207l-4 547q-2 76 -15.5 102.5t-45.5 26.5 q-7 0 -54 -8q-22 -5 -39 -5q-69 0 -69 66q0 68 82 68q24 0 41 -2l49 -7q33 -4 53 -4q23 0 64 7.5t61 7.5q45 0 45 -58v-28zM344 713q-14 -66 -14 -185q0 -202 32 -278q64 -150 242 -150q141 0 224 112t83 300q0 193 -78.5 302.5t-216.5 109.5q-96 0 -173.5 -60.5 t-98.5 -150.5z" />
<glyph unicode="c" horiz-adv-x="1044" d="M676 676q0 82 102 94q-10 72 -68.5 113t-150.5 41q-141 0 -227 -113t-86 -299q0 -193 81 -302.5t224 -109.5q90 0 156.5 51.5t91.5 141.5q20 72 24 82q23 41 66 41q35 0 57.5 -22.5t22.5 -57.5q0 -51 -33 -123t-78 -119q-121 -129 -313 -129q-209 0 -337 147.5 t-128 387.5q0 254 132 406.5t351 152.5q164 0 272.5 -89t108.5 -227q0 -75 -42 -124.5t-107 -49.5q-52 0 -85.5 31t-33.5 76z" />
<glyph unicode="d" horiz-adv-x="1229" d="M539 1059q202 0 303 -158v207q0 82 -4 100q-11 64 -58 64q-16 0 -45.5 -6t-46.5 -6q-76 0 -76 65q0 68 103 68q16 0 59 -4q66 -7 68 -7q18 0 53 4.5t53 4.5q58 0 58 -82v-23q-2 -6 -5 -108q0 -13 -6 -158q-4 -102 -4 -156v-200l4 -342q2 -136 12.5 -168.5t49.5 -32.5 q26 0 41 4q32 4 45 4q76 0 76 -68q0 -69 -93 -69q-20 0 -62 5t-63 5q-6 0 -47 -4q-24 -6 -43 -6q-55 0 -55 74v10l2 35q-108 -146 -315 -146q-209 0 -336 151.5t-127 397.5q0 248 125 396.5t334 148.5zM829 336q9 67 9 174q0 137 -11 186q-18 103 -88 160q-82 68 -188 68 q-143 0 -224 -108.5t-81 -297.5q0 -194 84 -306t229 -112q111 0 184.5 64.5t85.5 171.5z" />
<glyph unicode="e" horiz-adv-x="1081" d="M1010 602q0 -78 -10.5 -95.5t-59.5 -17.5h-651q-27 0 -35 -7t-8 -23q0 -154 92 -256.5t229 -102.5q90 0 165 49.5t97 124.5l19 60q14 49 67 49q76 0 76 -78q0 -133 -135 -236.5t-307 -103.5q-215 0 -342 144.5t-127 388.5q0 250 135 405.5t352 155.5q193 0 318 -129 t125 -328zM266 655q0 -28 45 -28h490q43 0 43 28q0 109 -82 189t-193 80q-114 0 -208.5 -83t-94.5 -186z" />
<glyph unicode="f" horiz-adv-x="709" d="M686 1210q0 29 21 52q-35 32 -103 32q-88 0 -138 -56t-50 -157v-37q0 -26 26 -26h160q68 0 68 -74t-68 -74h-151q-35 0 -35 -36v-574q0 -76 2 -88q10 -55 51 -55q10 0 51 10q29 4 41 4q70 0 70 -68q0 -71 -84 -71q-35 0 -105.5 8t-105.5 8q-62 0 -111 -6 q-80 -10 -102 -10q-88 0 -88 71q0 27 21.5 47.5t49.5 20.5q21 0 46.5 -7t46.5 -7q39 0 49 49t12 237l2 431q0 36 -37 36h-102q-72 0 -72 76q0 72 74 72h117q26 0 26 26v37q0 162 86 248t244 86q129 0 207 -52t78 -140q0 -45 -29 -73t-72 -28q-41 0 -68.5 26t-27.5 62z" />
<glyph unicode="g" horiz-adv-x="1118" d="M565 1059q53 0 121 -17q10 201 234 201q94 0 157.5 -49t63.5 -125q0 -49 -32 -84t-75 -35q-33 0 -57.5 22.5t-24.5 53.5q0 33 45 68q-32 41 -84 41q-108 0 -110 -136q155 -104 155 -280q0 -141 -106.5 -235.5t-265.5 -94.5q-113 0 -234 53q-33 15 -55 15 q-29 0 -51.5 -25.5t-22.5 -60.5q0 -107 215 -107h13q16 0 36 2h25q195 0 315 -37q113 -34 178.5 -108t65.5 -166q0 -150 -138 -237t-374 -87q-235 0 -369.5 82t-134.5 226q0 165 187 235q-166 66 -166 197q0 143 166 196q-54 72 -54 168q0 139 107.5 231.5t269.5 92.5z M571 924q-90 0 -153.5 -53.5t-69.5 -133.5v-12q0 -90 61.5 -145.5t159.5 -55.5q103 0 167.5 55.5t64.5 141.5q0 88 -65.5 145.5t-164.5 57.5zM573 129q-163 0 -257.5 -49t-94.5 -133t92.5 -132t247.5 -48q164 0 259 49t95 131q0 86 -90 134t-252 48z" />
<glyph unicode="h" horiz-adv-x="1305" d="M401 1319l-8 -397q82 77 149.5 107t159.5 30q177 0 283.5 -100.5t106.5 -264.5v-342q0 -121 2 -133q8 -102 53 -102q16 0 47 8q12 2 33 2q76 0 76 -68q0 -67 -99 -67q-26 0 -78 6q-86 10 -139 10t-82 -4q-86 -12 -106 -12q-37 0 -61.5 21.5t-24.5 54.5q0 26 21.5 44.5 t49.5 18.5q23 0 54 -10q18 -6 34 -6q62 0 64 133q0 24 2 96l2 88v111q0 209 -41 280q-59 107 -209 107q-162 0 -235 -111q-52 -76 -54 -244l-2 -147q0 -12 -2 -41v-39q0 -117 2 -135q11 -100 60 -100q16 0 46 7t44 7q65 0 65 -64q0 -71 -90 -71q-28 0 -86 6q-78 8 -133 8 q-35 0 -96 -6q-82 -8 -105 -8q-84 0 -84 74q0 61 78 61q27 0 39 -4q35 -6 49 -6q33 0 44.5 62.5t13.5 254.5l2 367q0 307 -12.5 388t-57.5 81q-14 0 -43 -6.5t-45 -6.5q-70 0 -70 66q0 29 25 49.5t59 20.5q11 0 70 -7q39 -4 84 -4q18 0 51 4.5t47 4.5q47 0 47 -68v-4z" />
<glyph unicode="i" horiz-adv-x="635" d="M412 594v-266q0 -103 2 -121q10 -92 55 -92q10 0 51 10q10 4 31 4q78 0 78 -68q0 -28 -25.5 -48.5t-64.5 -20.5q-33 0 -99.5 9t-99.5 9q-53 0 -119 -8q-80 -10 -106 -10q-82 0 -82 69q0 68 69 68q17 0 48.5 -6t48.5 -6q49 0 59 131v178v168v178q-10 129 -61 129 q-17 0 -46.5 -7t-44.5 -7q-73 0 -73 65q0 70 90 70q39 0 55 -2q66 -8 84 -8q17 0 50.5 5t49.5 5q60 0 60 -80q0 -8 -2 -24.5t-2 -24.5q-2 -16 -4 -127q-2 -84 -2 -172zM305 1130q-47 0 -81 34t-34 81t34 80t81 33t81 -33t34 -80t-34 -81t-81 -34z" />
<glyph unicode="j" horiz-adv-x="596" d="M-33 -168q0 -43 -37 -80q56 -41 113 -41q115 0 165 67.5t50 217.5l2 643q0 180 -10 222t-55 42q-23 0 -58 -8q-18 -6 -37 -6q-65 0 -65 65q0 68 86 68q31 0 53 -2q66 -6 92 -6q17 0 51.5 5t51.5 5q59 0 59 -66q0 -10 -2 -40q-2 -37 -2 -60q-2 -33 -6 -147 q-4 -129 -4 -199v-463q0 -123 -11 -182q-18 -96 -73 -164q-99 -119 -275 -119q-123 0 -204.5 61.5t-81.5 153.5q0 51 29.5 85t74.5 34q39 0 66.5 -25.5t27.5 -60.5zM311 1130q-47 0 -80.5 34t-33.5 81t33.5 80t80.5 33t82 -34t35 -79q0 -47 -35 -81t-82 -34z" />
<glyph unicode="k" horiz-adv-x="1268" d="M399 518l351 328q18 16 18 37q0 20 -27 20q-20 0 -59 -8t-59 -8q-72 0 -72 65q0 72 90 72q23 0 57 -4q142 -16 215 -16q41 0 70 4l84 12q29 4 47 4q100 0 100 -70q0 -65 -69 -65q-17 0 -46.5 4t-45.5 4q-52 0 -107 -51l-215 -197q-22 -20 -22 -33q0 -10 16 -30l262 -340 q100 -129 143 -129q11 0 34.5 5t37.5 5q74 0 74 -66q0 -69 -94 -69q-37 0 -110 8t-109 8q-33 0 -95.5 -8t-93.5 -8q-78 0 -78 69q0 66 74 66q21 0 33 -2q37 -10 47 -10q18 0 18 14v6q-2 2 -2 4l-20 29l-27 39l-205 272q-20 27 -32 27q-9 0 -31 -21l-152 -135v-47 q0 -98 2 -110q11 -72 58 -72q20 0 34.5 3t38.5 3q70 0 70 -68q0 -67 -78 -67q-35 0 -105.5 9t-107.5 9q-47 0 -108 -8q-78 -10 -105 -10q-80 0 -80 67q0 68 78 68q17 0 39 -4q33 -6 45 -6q49 0 56 78l6 79v828q-4 110 -14.5 140t-43.5 30q-10 0 -39 -4q-28 -11 -57 -11 q-68 0 -68 64q0 70 80 70q41 0 58 -2q51 -7 67 -7q17 0 48.5 5.5t45.5 5.5h15q65 0 65 -84v-791z" />
<glyph unicode="l" horiz-adv-x="633" d="M399 856l2 -637q2 -104 56 -104q12 0 51 10q24 4 33 4q67 0 67 -70q0 -67 -84 -67q-32 0 -104 8t-111 8q-33 0 -98.5 -8t-95.5 -8h-11q-86 0 -86 74q0 63 70 63h14q13 -2 19 -2q51 -8 59 -8q37 0 46.5 31.5t11.5 164.5l2 144l6 317l-2 365q-2 61 -6 82q-15 47 -58 47 q-6 0 -53 -8q-23 -5 -37 -5q-70 0 -70 66q0 68 82 68q23 0 39 -2l49 -7q33 -4 56 -4q20 0 61 7.5t62 7.5q47 0 47 -60q0 -20 -2 -30q-15 -158 -15 -447z" />
<glyph unicode="m" horiz-adv-x="1901" d="M387 963v-60q74 88 139.5 122t163.5 34q201 0 295 -156q70 86 141.5 121t184.5 35q116 0 209 -49q102 -56 141 -156q27 -68 27 -213v-199l-2 -153q0 -84 2 -103q10 -73 53 -73q14 0 42.5 6t43.5 6q71 0 71 -62q0 -71 -81 -71q-31 0 -93.5 7t-95.5 7q-35 0 -101.5 -7 t-101.5 -7q-86 0 -86 71q0 62 66 62q8 0 41 -4q12 -4 33 -4q34 0 43.5 34.5t11.5 174.5l2 125v135q0 141 -21.5 205.5t-81 101.5t-135.5 37q-145 0 -202 -101q-45 -79 -45 -278v-145q0 -193 9 -241t48 -48q12 0 35.5 5t36.5 5q28 0 47.5 -19.5t19.5 -48.5q0 -67 -96 -67 q-31 0 -91.5 8t-90.5 8q-43 0 -94.5 -8t-90.5 -8q-84 0 -84 69q0 64 62 64q22 0 35 -4q28 -6 43 -6q49 0 51 104l2 96q2 45 2 88q2 37 2 39v170q0 179 -48 248.5t-171 69.5q-135 0 -207 -99q-59 -79 -59 -278v-272q0 -82 2 -97q8 -69 45 -69q10 0 43 8q4 0 12 2h14 q80 0 80 -68q0 -65 -92 -65q-35 0 -86 6q-70 8 -119 8q-24 0 -90 -6q-88 -8 -106 -8q-82 0 -82 69q0 64 78 64h12q8 -2 12 -2l51 -10q2 -2 9 -2q55 0 59 100l4 117v313q0 174 -9 217t-50 43q-9 0 -58 -10q-20 -4 -32 -4q-76 0 -76 65q0 70 84 70q22 0 61 -4t68 -4q10 0 22 2 h15l49 6h6q49 0 49 -59z" />
<glyph unicode="n" horiz-adv-x="1305" d="M393 961v-58q123 156 328 156q110 0 208.5 -56.5t133.5 -140.5q29 -69 29 -182v-389q0 -88 2 -105q10 -69 55 -69q18 0 48 5t42 5q27 0 46.5 -18.5t19.5 -45.5q0 -30 -25 -50.5t-59 -20.5q-29 0 -94.5 8t-122.5 8q-54 0 -89 -4q-102 -12 -108 -12q-82 0 -82 71 q0 64 70 64q16 0 36 -4q39 -8 50 -8q49 0 53 112l4 105l2 125v155q0 109 -10 150q-19 78 -80 121q-68 47 -154 47q-164 0 -235 -117q-49 -80 -49 -272v-273q0 -90 12 -122.5t45 -32.5q16 0 45 8t47 8q64 0 64 -70q0 -67 -82 -67q-17 0 -107 12q-45 6 -100 6q-43 0 -115 -8 q-90 -10 -102 -10q-86 0 -86 69q0 66 65 66q11 0 38.5 -6t53.5 -6q62 0 64 118l4 228v248l-4 71q-4 70 -17.5 95.5t-46.5 25.5q-14 0 -41.5 -5t-42.5 -5q-73 0 -73 65q0 68 92 68q12 0 20 -2l76 -8q33 0 58 4q53 4 55 4q59 0 59 -61z" />
<glyph unicode="o" horiz-adv-x="1118" d="M551 -35q-215 0 -344 148.5t-129 398.5t130 398.5t349 148.5q223 0 352 -145.5t129 -395.5t-133 -401.5t-354 -151.5zM561 924q-143 0 -225 -100.5t-90 -284.5v-27q0 -193 81 -302.5t226 -109.5q149 0 234 109.5t85 304.5q0 410 -311 410z" />
<glyph unicode="p" horiz-adv-x="1229" d="M391 965v-66q115 160 314 160q204 0 325 -141.5t121 -382.5q0 -261 -128 -415.5t-343 -154.5q-178 0 -289 125v-170q0 -78 4 -100q13 -64 60 -64q14 0 42.5 6.5t43.5 6.5q65 0 65 -68t-86 -68q-31 0 -92 9q-45 6 -135 6q-49 0 -82 -4q-82 -11 -109 -11q-34 0 -59 21.5 t-25 50.5q0 66 70 66q12 0 39 -7q35 -8 51 -8q39 0 48.5 40t11.5 222l2 791q-2 94 -54 94q-14 0 -43.5 -7t-46.5 -7q-76 0 -76 67q0 66 91 66q22 0 49 -2q51 -4 76 -4q18 0 53 3t51 3q51 0 51 -57zM422 715q-19 -80 -21 -195q0 -8 -2 -31v-28q0 -137 22.5 -199.5t89.5 -112 t165 -49.5q147 0 228 107.5t81 306.5q0 410 -291 410q-98 0 -175 -59.5t-97 -149.5z" />
<glyph unicode="q" horiz-adv-x="1155" d="M817 -10v92q-115 -117 -282 -117q-205 0 -330 150.5t-125 400.5t119.5 396.5t324.5 146.5q191 0 318 -154q-4 41 -4 39q0 88 69 88q70 0 70 -106v-43l-8 -244v-391l6 -293q2 -125 14 -163t53 -38q-2 0 50 10q20 5 32 5q66 0 66 -68t-76 -68q-37 0 -110.5 6.5t-110.5 6.5 t-109.5 -6.5t-107.5 -6.5q-76 0 -76 68q0 66 70 66q24 0 65 -9q21 -4 27 -4q45 0 53 103q2 12 2 133zM815 459v57q-4 137 -18 197q-27 100 -109 159q-70 52 -156 52q-135 0 -210.5 -106.5t-75.5 -297.5q0 -198 77.5 -309t217.5 -111q104 0 181 66.5t89 167.5q4 35 4 125z " />
<glyph unicode="r" horiz-adv-x="1006" d="M389 965v-56q107 150 285 150q143 0 232 -81t89 -208q0 -90 -45 -146.5t-119 -56.5q-47 0 -79.5 29t-32.5 70q0 32 24.5 58t57.5 26q6 0 26 -7q13 25 13 45q0 60 -52.5 101t-130.5 41q-159 0 -213 -144q-32 -88 -32 -266v-135q0 -137 2 -154q10 -116 63 -116q27 0 55 8 q23 6 39 6q66 0 66 -66q0 -71 -84 -71h-8q-31 0 -93.5 7t-93.5 7q-82 0 -129 -4l-114 -10q-84 0 -84 71q0 64 78 64q20 0 30 -2l31 -6q20 -4 29 -4q51 0 55 94l4 104l-6 465q-6 121 -62 121q-16 0 -44.5 -6t-45.5 -6q-67 0 -67 65q0 72 88 72q20 0 61 -5t62 -5q16 0 53 4 q16 4 39 4q53 0 53 -57z" />
<glyph unicode="s" horiz-adv-x="1008" d="M512 1059q137 0 229 -72v8q0 76 66 76q67 0 67 -65q0 -13 -4 -62q-8 -41 -8 -82q0 -24 7.5 -71.5t7.5 -71.5q0 -78 -68 -78q-66 0 -68 66l-2 67q-2 62 -70.5 106t-160.5 44q-94 0 -157.5 -48.5t-63.5 -119.5q0 -131 180 -156l119 -16q348 -47 348 -289 q0 -148 -112.5 -239t-295.5 -91q-170 0 -295 96q2 -20 2 -38q0 -74 -69 -74q-76 0 -76 84q0 -15 12 106q4 29 4 58q0 49 -8 92t-8 67q0 72 66 72q43 0 54 -20.5t13 -108.5t92 -143.5t230 -55.5q100 0 165.5 51.5t65.5 129.5q0 139 -221 161q-211 23 -321.5 83.5 t-110.5 211.5q0 144 108.5 233t282.5 89z" />
<glyph unicode="t" horiz-adv-x="819" d="M643 283l4 131q2 84 74 84t72 -95q0 -223 -58 -311q-78 -119 -256 -119q-164 0 -233 105q-51 76 -51 258v491q0 43 -39 43h-66q-33 0 -54.5 21.5t-21.5 52.5q0 29 21.5 51.5t48.5 22.5h80q35 0 35 39v211q0 78 80 78q73 0 73 -78v-219q0 -31 37 -31h223q78 0 78 -72 q0 -76 -84 -76h-225q-29 0 -29 -43v-503q0 -215 142 -215q143 0 149 174z" />
<glyph unicode="u" horiz-adv-x="1268" d="M915 51v64q-108 -150 -321 -150q-242 0 -336 150q-41 65 -45 153q-2 43 -2 181v169q0 281 -59 281q-13 0 -39.5 -5t-40.5 -5q-72 0 -72 67q0 66 88 66q21 0 60.5 -4t60.5 -4q18 0 63 6q31 4 35 4q64 0 64 -78v-43l-2 -133l-7 -152v-133q0 -178 29 -256q47 -129 225 -129 q89 0 156.5 40t93.5 106q33 80 33 303v113v133q-10 98 -53 98q-23 0 -37 -4h-25q-71 0 -71 63q0 72 80 72q18 0 56 -4t56 -4q17 0 49.5 3t49.5 3q61 0 61 -66q0 -28 -4 -45q-10 -77 -10 -229v-315q0 -125 2 -140q10 -108 57 -108q14 0 41 5t41 5q70 0 70 -68q0 -69 -86 -69 q-19 0 -54 4q-51 6 -63 6q-6 0 -43 -4q-25 -6 -43 -6q-58 0 -58 59z" />
<glyph unicode="v" horiz-adv-x="1231" d="M385 780l240 -639l231 639q21 58 21 74q0 45 -43 45q-17 0 -48.5 -7t-48.5 -7q-67 0 -67 67q0 72 98 72h16q11 -2 17 -2l86 -12q28 -4 59 -4q41 0 135 10q58 6 82 6q88 0 88 -68q0 -67 -71 -67q-23 0 -33 4q-31 6 -43 6q-37 0 -76 -98l-289 -738q-37 -94 -125 -94 q-84 0 -120 94l-295 758q-29 76 -68 76q-14 0 -43 -6t-43 -6q-68 0 -68 63q0 74 95 74q16 0 24 -2l86 -8q43 -4 86 -4q35 0 103 6l67 6q11 2 29 2q90 0 90 -70q0 -65 -78 -65q-24 0 -35 2q-38 8 -49 8q-33 0 -33 -29q0 -14 9 -41z" />
<glyph unicode="w" horiz-adv-x="1640" d="M367 737l149 -622l160 721q24 114 54 152t91 38q64 0 93.5 -39t54.5 -151l153 -721l152 622q14 60 14 103v4q0 55 -47 55q-18 0 -53 -7t-53 -7q-76 0 -76 67q0 72 100 72q15 0 31 -2l84 -10q33 -4 102 -4q56 0 107 6l67 8q9 2 23 2q88 0 88 -70q0 -67 -68 -67 q-22 0 -34 4q-33 4 -37 4q-56 0 -115 -227l-139 -527q-25 -96 -57.5 -134t-90.5 -38q-108 0 -145 172l-154 729l-159 -716q-23 -103 -58 -145t-94 -42q-96 0 -129 127l-197 737q-18 66 -57 66q-12 0 -37 -6q-33 -4 -45 -4q-68 0 -68 65q0 72 93 72q16 0 22 -2l88 -12 q29 -4 76 -4q57 0 131 8q92 10 107 10q90 0 90 -70q0 -67 -76 -67q-14 0 -51 4q-27 8 -51 8q-54 0 -54 -61q0 -41 15 -101z" />
<glyph unicode="x" horiz-adv-x="1305" d="M264 205l285 325l-285 336q-28 33 -69 33q-17 0 -25 -2l-35 -8q-8 -2 -29 -2q-67 0 -67 65q0 70 84 70h6q2 0 102 -8q52 -4 86 -4q35 0 100.5 6t98.5 6q84 0 84 -70q0 -65 -78 -65q-16 0 -30 4l-31 8h-12q-9 0 -9 -4q4 -12 19 -29l186 -225l195 225q18 21 18 29 q-2 4 -10 4q-10 0 -33.5 -6t-36.5 -6q-73 0 -73 69q0 68 86 68q-5 0 108 -10q45 -4 96 -4q52 0 109 6t82 6q90 0 90 -70q0 -67 -70 -67q-16 0 -47 8t-47 8q-49 0 -135 -98l-238 -271l320 -376q28 -35 69 -35q13 0 38.5 4t37.5 4q74 0 74 -66q0 -71 -86 -71h-16l-80 10 q-33 4 -99 4q-55 0 -110 -6l-74 -8h-22q-97 0 -97 65q0 72 76 72q27 0 76 -8q4 -2 14 -2q21 0 21 16q0 6 -7 12l-6 9l-227 266l-231 -266q-15 -17 -15 -25q0 -10 21 -10q14 0 42.5 4t43.5 4q88 0 88 -72q0 -65 -88 -65h-29l-82 8q-61 6 -108 6q-37 0 -88 -6q-70 -8 -103 -8 q-86 0 -86 69q0 68 74 68q12 0 36.5 -3t37.5 -3q39 0 110 82z" />
<glyph unicode="y" horiz-adv-x="1231" d="M401 827l236 -692l250 682q10 29 10 45q0 35 -47 35q-25 0 -39 -4q-33 -4 -43 -4q-68 0 -68 65q0 70 88 70q13 0 41 -4l74 -10q29 -4 62 -4q34 0 102 8t102 8q88 0 88 -68q0 -65 -67 -65q-21 0 -31 4q-26 6 -37 6q-39 0 -80 -104l-278 -697q-92 -231 -174 -336 q-139 -178 -348 -178q-125 0 -210 63.5t-85 153.5q0 64 36.5 104t96.5 40q47 0 77.5 -28t30.5 -69q0 -65 -59 -84q31 -45 117 -45q108 0 195 81t87 182q0 51 -55 190l-225 569l-25 66q-35 92 -80 92q-12 0 -43.5 -6t-42.5 -6q-71 0 -71 65q0 70 94 70q31 0 47 -2l82 -10h16 q15 -2 25 -2q74 0 158 8q63 6 84 6q86 0 86 -68q0 -67 -78 -67q-13 0 -39.5 5t-38.5 5q-29 0 -29 -29q0 -16 8 -41z" />
<glyph unicode="z" horiz-adv-x="1081" d="M121 211l667 676h-313q-153 0 -192 -9.5t-39 -48.5q0 -16 4 -36q10 -54 10 -101q0 -78 -68 -78q-69 0 -69 91q0 38 2 53q8 61 8 88q0 20 -7 60t-7 61q0 63 102 63q33 0 88 -2q64 -4 88 -4l123 -2h348q133 0 133 -94q0 -43 -77 -121l-664 -670h487q121 0 121 70v39 q0 35 -4 59q-4 78 -4 74q0 35 20.5 58.5t51.5 23.5q65 0 65 -78q0 -35 -4 -72q-8 -73 -8 -106q0 -23 5 -66t5 -65q0 -80 -90 -78l-125 4h-590q-51 0 -83.5 30.5t-32.5 78.5q0 53 49 102z" />
<glyph unicode="{" horiz-adv-x="1024" d="M563 739q0 -100 -26.5 -150t-98.5 -89q70 -37 97.5 -91.5t27.5 -150.5v-330q0 -112 39 -148t158 -36v-129h-60q-155 0 -220.5 68.5t-65.5 232.5v338q0 88 -27 131t-90 59v121q117 33 117 183v360q0 149 68.5 215t219.5 66h58v-129q-119 -3 -158 -37.5t-39 -141.5v-342z " />
<glyph unicode="|" horiz-adv-x="1024" d="M436 -512v2048h152v-2048h-152z" />
<glyph unicode="}" horiz-adv-x="1024" d="M483 264q0 98 27 149.5t98 90.5q-69 37 -97 91t-28 150v330q0 113 -38.5 149t-157.5 36v129h57q156 0 222.5 -69t66.5 -233v-337q0 -162 117 -191v-121q-117 -32 -117 -182v-360q0 -150 -67.5 -215.5t-221.5 -65.5h-57v129q119 2 157.5 37t38.5 141v342z" />
<glyph unicode="~" horiz-adv-x="1366" d="M461 1339q-101 0 -182 -147l-89 57q64 131 126.5 183.5t154.5 52.5q78 0 229 -70q138 -63 199 -63q102 0 184 137l93 -53q-115 -230 -295 -230q-72 0 -172 45l-115 52q-82 36 -133 36z" />
<glyph unicode="&#xa1;" horiz-adv-x="858" d="M428 1059q53 0 91 -38t38 -91t-38 -91t-91 -38t-90 38t-37 91t37 91t90 38zM504 -47q2 -148 6 -191v-38q0 -111 -86 -111t-86 121v41q2 24 8 178q6 172 6 223l-2 223l2 160q2 94 4 105q13 49 72 49q74 0 74 -103v-37z" />
<glyph unicode="&#xa2;" horiz-adv-x="1044" d="M676 676q0 82 102 94q-10 72 -68.5 113t-150.5 41q-141 0 -227 -113t-86 -299q0 -193 81 -302.5t224 -109.5q90 0 156.5 51.5t91.5 141.5q20 72 24 82q23 41 66 41q35 0 57.5 -22.5t22.5 -57.5q0 -49 -33 -121t-78 -121q-94 -104 -283 -129l-26 -63q37 6 53 6 q74 0 126 -45t52 -109q0 -71 -65.5 -120.5t-161.5 -49.5q-84 0 -149.5 37t-65.5 84q0 19 14.5 34t30.5 15q23 0 37 -16l22 -25q35 -39 105 -39q106 0 106 78q0 72 -92 72q-22 0 -47 -8l-49 -17q-6 -2 -23 -2q-26 0 -26 23q0 8 10 33l49 118q-108 19 -172 60 q-223 147 -223 469q0 254 132 406.5t351 152.5q164 0 272.5 -89t108.5 -227q0 -75 -42 -124.5t-107 -49.5q-52 0 -85.5 31t-33.5 76z" />
<glyph unicode="&#xa3;" horiz-adv-x="1491" d="M627 852l6 -16h418q22 0 39.5 -18.5t17.5 -43.5q0 -59 -55 -59h-355q90 -146 90 -297q0 -86 -24 -166q207 -152 364 -152q97 0 153 54.5t56 146.5q0 76 -43 122t-114 46q-47 0 -87 -25.5t-49 -60.5l-8 -35q-12 -49 -67 -49q-72 0 -72 76q0 94 82 161.5t197 67.5 q139 0 226 -84t87 -217q0 -145 -102.5 -245.5t-249.5 -100.5q-156 0 -279 72l-160 92q-145 -166 -370 -166q-144 0 -235 65.5t-91 167.5q0 107 85 175.5t216 68.5q137 0 330 -106q8 47 8 69q0 88 -104 285l-19 35h-301q-61 0 -61 59q0 62 59 62h234q-46 100 -46 190 q0 170 120 277.5t311 107.5q165 0 274 -84t109 -211q0 -65 -36 -110t-89 -45q-43 0 -73 29.5t-30 70.5q0 55 58 82q16 8 16 18q0 25 -37 53q-82 66 -195 66q-118 0 -194 -68.5t-76 -177.5q0 -51 21 -92zM330 90q155 0 235 109q-147 96 -272 96q-57 0 -96 -26.5t-39 -67.5 q0 -49 48 -80t124 -31z" />
<glyph unicode="&#xa5;" horiz-adv-x="1454" d="M160 522h471l-92 170h-379q-64 0 -64 58q0 59 64 59h315l-176 321q-33 60 -43 72q-29 33 -70 33q-14 0 -41.5 -2t-42.5 -2q-86 0 -86 69q0 74 80 74q33 0 82 -8q96 -16 168 -16q55 0 76 4q10 2 80 14q35 6 59 6q84 0 84 -71q0 -70 -98 -70q-4 0 -21 2h-30q-9 2 -21 2 q-24 0 -24 -14q0 -11 10 -31l272 -533l277 533q10 20 10 31q0 20 -27 20q-16 0 -30 -2q-31 -10 -78 -10q-82 0 -82 72q0 71 80 71q26 0 61 -6q92 -16 164 -16t178 16q39 6 70 6q80 0 80 -69q0 -68 -76 -68q-29 0 -45.5 3t-42.5 3q-43 0 -68 -29q-14 -12 -43 -65l-188 -340 h360q53 0 53 -59q0 -58 -53 -58h-424l-94 -170h518q53 0 53 -59q0 -57 -53 -57h-522v-35q0 -135 4 -160q19 -92 100 -92q17 0 50.5 5t50.5 5q63 0 63 -66q0 -73 -92 -73h-12q-8 2 -14 2l-113 14q-64 8 -125 8q-66 0 -125 -8l-104 -14q-5 0 -15 -2h-16q-88 0 -88 71 q0 68 65 68q17 0 48.5 -5t48.5 -5q63 0 81.5 40t22.5 179l2 68h-483q-64 0 -64 57q0 59 64 59z" />
<glyph unicode="&#xa7;" horiz-adv-x="1305" d="M838 1124q0 56 69 88q-65 72 -205 72q-96 0 -153 -43t-57 -117q0 -71 47 -111t247 -132q138 -64 195 -107t86 -104q18 -41 18 -90q0 -152 -178 -287q76 -64 103.5 -117t27.5 -127q0 -145 -106.5 -234t-280.5 -89q-180 0 -296.5 87t-116.5 220q0 76 37.5 121t101.5 45 q49 0 85 -35t36 -82q0 -62 -72 -100q-18 -11 -18 -21q0 -27 47 -55q86 -51 186 -51q102 0 165.5 49t63.5 129q0 61 -33.5 100t-123.5 84l-160 78q-143 70 -199 115q-102 84 -102 194q0 150 178 285q-108 102 -108 215q0 139 100 223t268 84q160 0 266.5 -74.5t106.5 -183.5 q0 -57 -34 -93t-87 -36q-45 0 -74.5 27.5t-29.5 72.5zM705 735q-113 51 -177 86l-12 -12q-92 -92 -92 -168q0 -57 45 -98t178 -105q74 -35 162 -84q109 97 109 187q0 57 -45.5 98t-167.5 96z" />
<glyph unicode="&#xa8;" horiz-adv-x="1006" d="M322 1169q-48 0 -81.5 34t-33.5 81t33.5 81t81.5 34q47 0 79.5 -34t32.5 -81t-32.5 -81t-79.5 -34zM686 1169q-47 0 -81 34t-34 81t34 81t81 34t80 -34t33 -81t-34 -81t-79 -34z" />
<glyph unicode="&#xa9;" horiz-adv-x="1620" d="M809 1411q303 0 516 -213t213 -516q0 -301 -214 -514t-515 -213t-514 213t-213 514q0 303 213 516t514 213zM809 57q256 0 437 183.5t181 441.5q0 260 -181 443.5t-437 183.5t-437.5 -183.5t-181.5 -443.5q0 -258 181.5 -441.5t437.5 -183.5zM813 1118q143 0 223 -88 q-2 4 -3 14.5t-1 24.5q0 47 47 47q49 0 49 -57q0 -19 -4 -58q-6 -59 -6 -83q0 -19 4 -66l4 -47v-12q0 -62 -53 -62t-53 60v45q0 84 -56.5 136t-150.5 52q-121 0 -190.5 -91t-69.5 -249q0 -162 70.5 -252t195.5 -90q217 0 219 205q0 63 56 63q59 0 59 -65q0 -131 -97.5 -215 t-246.5 -84q-174 0 -278.5 116.5t-104.5 311.5q0 198 106.5 321t280.5 123z" />
<glyph unicode="&#xab;" horiz-adv-x="709" d="M350 850l-104 -303l108 -322q6 -12 6 -22q0 -31 -26 -31q-23 0 -35 21l-207 339q-4 5 -4 13t6 20l203 324q12 20 31 20q26 0 26 -30q0 -17 -4 -29zM610 850l-102 -303l108 -322q5 -12 5 -22q0 -31 -27 -31q-23 0 -33 21l-209 339q-4 9 -4 15t8 18l203 324q12 20 29 20 q28 0 28 -28q0 -19 -6 -31z" />
<glyph unicode="&#xac;" horiz-adv-x="1024" d="M956 0h-151v412h-737v135h888v-547z" />
<glyph unicode="&#xae;" horiz-adv-x="1024" d="M512 1556q170 0 290 -119.5t120 -289.5q0 -168 -120 -289t-290 -121q-168 0 -289 121t-121 289q0 170 121 289.5t289 119.5zM512 799q145 0 246.5 102.5t101.5 245.5q0 145 -101.5 246.5t-246.5 101.5q-143 0 -245.5 -101.5t-102.5 -246.5q0 -143 102.5 -245.5 t245.5 -102.5zM676 1255q0 -69 -60 -94q33 -24 33 -88v-37q0 -28 15 -28q14 0 14 39v40q0 46 33 46q34 0 34 -35q0 -8 -2 -17v-53q0 -84 -86 -84q-82 0 -82 82l3 18v35q0 35 -14.5 43t-51.5 8h-53q-6 0 -6 -4v-86q0 -32 16 -32q6 0 10 2h19q30 0 30 -31q0 -35 -39 -35 q-2 0 -10 2l-30 4q-7 0 -17 2h-14q-6 0 -18.5 -2t-20.5 -2l-29 -2q-4 -2 -12 -2q-37 0 -37 33t31 33q10 0 18 -2h10q19 0 19 30v236q0 8 -4 22q0 2 -2 6.5t-13 4.5q-12 -2 -10 -2q-8 -2 -18 -2q-31 0 -31 32q0 33 39 33h10l29 -4h14q8 -2 15 -2q-2 0 41 2l43 2q14 2 40 2 q144 0 144 -113zM453 1282v-86q0 -2 4 -2h55q90 0 90 59q0 54 -78 54q-71 0 -71 -25z" />
<glyph unicode="&#xaf;" horiz-adv-x="1006" d="M203 1284q0 66 76 66h450q74 0 74 -60q0 -28 -21.5 -47.5t-52.5 -19.5h-450q-76 0 -76 61z" />
<glyph unicode="&#xb0;" horiz-adv-x="1024" d="M512 803q-121 0 -206 83t-85 201q0 117 85 200t206 83t206 -83t85 -200q0 -118 -85 -201t-206 -83zM512 1276q-80 0 -136.5 -55.5t-56.5 -133.5q0 -77 56.5 -133.5t136.5 -56.5t136.5 56.5t56.5 133.5q0 78 -56.5 133.5t-136.5 55.5z" />
<glyph unicode="&#xb1;" horiz-adv-x="1024" d="M41 709v139h395v371h152v-371h395v-139h-403v-369h-144v369h-395zM41 111v139h942v-139h-942z" />
<glyph unicode="&#xb4;" horiz-adv-x="1008" d="M807 1362q0 -51 -72 -82l-293 -127q-24 -6 -26 -6q-43 0 -43 49q0 27 43 53l258 162q33 21 61 21q72 0 72 -70z" />
<glyph unicode="&#xb5;" horiz-adv-x="1024" d="M244 -344h-150v1325h150v-555q0 -123 24.5 -186.5t89 -104.5t146.5 -41q143 0 221 127q51 84 51 223v537h150v-981h-148v174q-96 -201 -278 -201q-160 0 -256 152v-469z" />
<glyph unicode="&#xb6;" horiz-adv-x="1190" d="M580 -201h-131v846h-15q-10 -2 -16 -2q-166 0 -270.5 99.5t-104.5 256.5q0 117 60.5 207t161 125t231.5 35h551v-119h-123v-1448h-131v1448h-213v-1448z" />
<glyph unicode="&#xb7;" horiz-adv-x="281" d="M139 582q-57 0 -98 42t-41 99t41 99t98 42q60 0 101 -41t41 -100q0 -57 -41 -99t-101 -42z" />
<glyph unicode="&#xbb;" horiz-adv-x="709" d="M352 225l109 322l-103 303q-4 8 -4 29q0 30 27 30q16 0 29 -20l204 -324q7 -12 7 -18t-5 -15l-208 -339q-11 -21 -33 -21q-27 0 -27 31q0 10 4 22zM92 225l109 322l-105 303q-4 12 -4 29q0 30 27 30q18 0 31 -20l202 -324q8 -12 8 -18q0 -8 -6 -15l-207 -339 q-12 -21 -32 -21q-29 0 -29 31q0 4 6 22z" />
<glyph unicode="&#xbf;" horiz-adv-x="1229" d="M653 1059q54 0 90.5 -38t36.5 -91t-36.5 -91t-90.5 -38q-53 0 -90 38t-37 91t37 91t90 38zM948 -4q0 53 -53 86q2 -8 2 -21q0 -28 -22.5 -47.5t-55.5 -19.5q-88 0 -88 90q0 59 47 99t117 40q90 0 147.5 -60.5t57.5 -154.5q0 -174 -145.5 -284.5t-374.5 -110.5 q-230 0 -367 105.5t-137 281.5q0 219 217 330q37 18 94 43q119 51 163 98t44 127q0 61 16.5 84t61.5 23q86 0 86 -107q0 -96 -51 -168q-64 -88 -224 -174q-149 -80 -192 -128t-43 -134q0 -113 92 -181.5t244 -68.5q153 0 258.5 72.5t105.5 179.5z" />
<glyph unicode="&#xc0;" horiz-adv-x="1366" d="M1071 231l-74 201q-12 33 -25.5 41t-53.5 8h-365q-41 0 -56.5 -14t-39.5 -78l-60 -158q-8 -22 -8 -43q0 -65 80 -65q20 0 58 4t57 4q84 0 84 -72q0 -67 -93 -67q-16 0 -45 4l-102 14q-29 4 -94 4q-72 0 -101 -4l-86 -12q-57 -8 -84 -8q-79 0 -79 67q0 72 77 72 q17 0 25 -2h27q55 0 84 43q12 16 41 96l380 1030q33 86 130 86q94 0 124 -86l367 -1015q35 -97 63.5 -127.5t81.5 -30.5q17 0 25 2l57 4q78 0 78 -66q0 -69 -78 -69q-22 0 -59 4q-129 14 -193 14q-75 0 -245 -16q-43 -4 -66 -4q-82 0 -82 69q0 70 90 70q19 0 54.5 -4 t54.5 -4q67 0 67 55q0 8 -16 53zM924 649l-185 565l-188 -565q-4 -12 -4 -14q0 -19 31 -19h325q25 0 25 17q0 4 -4 16zM690 1784q27 0 60 -21l258 -162q43 -26 43 -53q0 -49 -43 -49q2 0 -29 6l-291 127q-72 31 -72 78q0 31 21.5 52.5t52.5 21.5z" />
<glyph unicode="&#xc2;" horiz-adv-x="1366" d="M1071 231l-74 201q-12 33 -25.5 41t-53.5 8h-365q-41 0 -56.5 -14t-39.5 -78l-60 -158q-8 -22 -8 -43q0 -65 80 -65q20 0 58 4t57 4q84 0 84 -72q0 -67 -93 -67q-16 0 -45 4l-102 14q-29 4 -94 4q-72 0 -101 -4l-86 -12q-57 -8 -84 -8q-79 0 -79 67q0 72 77 72 q17 0 25 -2h27q55 0 84 43q12 16 41 96l380 1030q33 86 130 86q94 0 124 -86l367 -1015q35 -97 63.5 -127.5t81.5 -30.5q17 0 25 2l57 4q78 0 78 -66q0 -69 -78 -69q-22 0 -59 4q-129 14 -193 14q-75 0 -245 -16q-43 -4 -66 -4q-82 0 -82 69q0 70 90 70q19 0 54.5 -4 t54.5 -4q67 0 67 55q0 8 -16 53zM924 649l-185 565l-188 -565q-4 -12 -4 -14q0 -19 31 -19h325q25 0 25 17q0 4 -4 16zM1075 1534l-227 106l-230 -106q-53 -25 -71 -25q-41 0 -41 35q0 20 43 51l258 182q24 15 41 15q18 0 39 -15l258 -182q14 -10 33 -22q10 -11 10 -25v-4 q0 -35 -41 -35q-19 0 -72 25z" />
<glyph unicode="&#xc3;" horiz-adv-x="1366" d="M1071 231l-74 201q-12 33 -25.5 41t-53.5 8h-365q-41 0 -56.5 -14t-39.5 -78l-60 -158q-8 -22 -8 -43q0 -65 80 -65q20 0 58 4t57 4q84 0 84 -72q0 -67 -93 -67q-16 0 -45 4l-102 14q-29 4 -94 4q-72 0 -101 -4l-86 -12q-57 -8 -84 -8q-79 0 -79 67q0 72 77 72 q17 0 25 -2h27q55 0 84 43q12 16 41 96l380 1030q33 86 130 86q94 0 124 -86l367 -1015q35 -97 63.5 -127.5t81.5 -30.5q17 0 25 2l57 4q78 0 78 -66q0 -69 -78 -69q-22 0 -59 4q-129 14 -193 14q-75 0 -245 -16q-43 -4 -66 -4q-82 0 -82 69q0 70 90 70q19 0 54.5 -4 t54.5 -4q67 0 67 55q0 8 -16 53zM924 649l-185 565l-188 -565q-4 -12 -4 -14q0 -19 31 -19h325q25 0 25 17q0 4 -4 16zM723 1737q49 0 137 -29l76 -25q37 -12 63 -12q48 0 82 33l29 26q6 11 23 11q28 0 28 -31q0 -64 -61.5 -114t-138.5 -50q-48 0 -129 27q-115 37 -148 37 q-59 0 -88 -37l-16 -21q-15 -18 -27 -18q-29 0 -29 31q0 69 60.5 120.5t138.5 51.5z" />
<glyph unicode="&#xc4;" horiz-adv-x="1366" d="M1071 231l-74 201q-12 33 -25.5 41t-53.5 8h-365q-41 0 -56.5 -14t-39.5 -78l-60 -158q-8 -22 -8 -43q0 -65 80 -65q20 0 58 4t57 4q84 0 84 -72q0 -67 -93 -67q-16 0 -45 4l-102 14q-29 4 -94 4q-72 0 -101 -4l-86 -12q-57 -8 -84 -8q-79 0 -79 67q0 72 77 72 q17 0 25 -2h27q55 0 84 43q12 16 41 96l380 1030q33 86 130 86q94 0 124 -86l367 -1015q35 -97 63.5 -127.5t81.5 -30.5q17 0 25 2l57 4q78 0 78 -66q0 -69 -78 -69q-22 0 -59 4q-129 14 -193 14q-75 0 -245 -16q-43 -4 -66 -4q-82 0 -82 69q0 70 90 70q19 0 54.5 -4 t54.5 -4q67 0 67 55q0 8 -16 53zM924 649l-185 565l-188 -565q-4 -12 -4 -14q0 -19 31 -19h325q25 0 25 17q0 4 -4 16zM662 1517q-48 0 -81.5 34t-33.5 81t33.5 81t81.5 34q47 0 79.5 -34t32.5 -81t-32.5 -81t-79.5 -34zM1026 1517q-47 0 -81 34t-34 81t34 81t81 34t80 -34 t33 -81t-34 -81t-79 -34z" />
<glyph unicode="&#xc5;" horiz-adv-x="1366" d="M1071 231l-74 201q-12 33 -25.5 41t-53.5 8h-365q-41 0 -56.5 -14t-39.5 -78l-60 -158q-8 -22 -8 -43q0 -65 80 -65q20 0 58 4t57 4q84 0 84 -72q0 -67 -93 -67q-16 0 -45 4l-102 14q-29 4 -94 4q-72 0 -101 -4l-86 -12q-57 -8 -84 -8q-79 0 -79 67q0 72 77 72 q17 0 25 -2h27q55 0 84 43q12 16 41 96l380 1030q33 86 130 86q94 0 124 -86l367 -1015q35 -97 63.5 -127.5t81.5 -30.5q17 0 25 2l57 4q78 0 78 -66q0 -69 -78 -69q-22 0 -59 4q-129 14 -193 14q-75 0 -245 -16q-43 -4 -66 -4q-82 0 -82 69q0 70 90 70q19 0 54.5 -4 t54.5 -4q67 0 67 55q0 8 -16 53zM924 649l-185 565l-188 -565q-4 -12 -4 -14q0 -19 31 -19h325q25 0 25 17q0 4 -4 16zM789 1470q-78 0 -133.5 54.5t-55.5 132.5t55.5 133t133.5 55q77 0 132.5 -55t55.5 -133t-55.5 -132.5t-132.5 -54.5zM789 1751q-39 0 -67 -27.5 t-28 -66.5t28 -66.5t67 -27.5q38 0 66 27.5t28 66.5q0 41 -27 67.5t-67 26.5z" />
<glyph unicode="&#xc6;" horiz-adv-x="2087" d="M551 545l-53 -90l-62 -111l-55 -92q-12 -21 -39 -64q-4 -6 -12 -19t-8 -22q0 -22 38 -22q17 0 43.5 5t40.5 5q80 0 80 -72q0 -73 -84 -73q-22 0 -57 6q-107 18 -166 18q-53 0 -164 -16q-55 -8 -78 -8q-73 0 -73 69q0 70 75 70q13 0 39.5 -4t38.5 -4q39 0 88 59l29 35 l688 1092q37 57 92 57q27 0 66 -2q76 -4 217 -4h92q45 0 189 4l323 12q94 -4 94 -96v-10q-2 -6 -2 -11l-8 -86q-6 -65 -6 -122q0 -60 4 -82q8 -99 8 -93q0 -79 -74 -79q-73 0 -73 104q0 8 2 33v43q2 16 2 49q0 143 -54.5 179t-273.5 36q-174 0 -221 -8t-59 -53 q-7 -19 -7 -86v-291q0 -29 9.5 -37t42.5 -8h147q119 0 119 96q0 20 -5 61t-5 62q0 84 69 84q72 0 72 -80q0 -41 -6 -84q-17 -117 -17 -223q0 -92 17 -209q6 -43 6 -70q0 -78 -72 -78q-71 0 -71 74q0 27 6 63.5t6 71.5q0 99 -121 99h-149q-48 0 -48 -39v-332 q0 -80 20.5 -99.5t108.5 -19.5h267q157 0 203.5 34t46.5 152q0 54 -5 97v43q0 116 72 116q74 0 74 -86q0 -40 -5 -123t-5 -124q0 -29 2 -56l6 -77v-17q0 -102 -109 -102q-16 0 -121 6q-174 10 -518 10q-200 0 -308.5 -8l-108.5 -8q-86 0 -86 71q0 72 100 72q-12 0 39 -2 q39 -2 51 -2q78 0 100 61q11 29 11 129v236q0 45 -10.5 56.5t-39.5 11.5h-331q-25 -5 -36 -20t-38 -58zM993 1249l-311 -493h289q33 0 35 45l12 448q0 13 -8 13q-11 0 -17 -13z" />
<glyph unicode="&#xca;" horiz-adv-x="1366" d="M305 1094q0 151 -104 151q-29 0 -43 -4q-33 -6 -56 -6q-26 0 -44.5 19.5t-18.5 48.5q0 71 86 71q2 0 31 -2q307 -20 286 -20h21l493 14q15 0 107 6q33 2 59 2q107 0 107 -94q0 -16 -8 -104q-7 -66 -7 -121q0 -72 5 -101q8 -59 8 -88q0 -78 -74 -78t-74 109v107 q0 172 -71 202q-54 23 -275 23q-145 0 -172 -6q-88 -23 -88 -123v-92v-45q-2 -29 -2 -41v-27q0 -82 37 -94q14 -4 49 -4h84q129 0 129 88q0 24 -6 63t-6 70q0 82 73 82q74 0 74 -88q0 -17 -14 -127q-12 -94 -12 -166q0 -41 8 -146q2 -16 10 -71q6 -45 6 -72q0 -74 -74 -74 q-71 0 -71 86q0 23 5 66t5 65q0 89 -117 89h-92q-59 0 -72.5 -20.5t-13.5 -88.5v-127q0 -33 2 -88q2 -68 2 -90q2 -82 33 -103q22 -14 106 -14h279q121 0 166 36t45 134q0 31 -3 91.5t-3 90.5q0 92 74 92q77 0 77 -94q0 -37 -4 -112.5t-4 -112.5q0 -29 3 -85t3 -85 q0 -96 -94 -96q-22 0 -72 4q-24 2 -90 2q15 0 -159.5 4t-301.5 4q-192 0 -376 -12q-9 0 -19 -2h-12q-86 0 -86 73q0 66 63 66q11 0 56 -4q22 -6 43 -6q104 0 104 153v822zM1091 1534l-227 106l-230 -106q-53 -25 -71 -25q-41 0 -41 35q0 20 43 51l258 182q24 15 41 15 q18 0 39 -15l258 -182q14 -10 33 -22q10 -11 10 -25v-4q0 -35 -41 -35q-19 0 -72 25z" />
<glyph unicode="&#xcb;" horiz-adv-x="1366" d="M305 1094q0 151 -104 151q-29 0 -43 -4q-33 -6 -56 -6q-26 0 -44.5 19.5t-18.5 48.5q0 71 86 71q2 0 31 -2q307 -20 286 -20h21l493 14q15 0 107 6q33 2 59 2q107 0 107 -94q0 -16 -8 -104q-7 -66 -7 -121q0 -72 5 -101q8 -59 8 -88q0 -78 -74 -78t-74 109v107 q0 172 -71 202q-54 23 -275 23q-145 0 -172 -6q-88 -23 -88 -123v-92v-45q-2 -29 -2 -41v-27q0 -82 37 -94q14 -4 49 -4h84q129 0 129 88q0 24 -6 63t-6 70q0 82 73 82q74 0 74 -88q0 -17 -14 -127q-12 -94 -12 -166q0 -41 8 -146q2 -16 10 -71q6 -45 6 -72q0 -74 -74 -74 q-71 0 -71 86q0 23 5 66t5 65q0 89 -117 89h-92q-59 0 -72.5 -20.5t-13.5 -88.5v-127q0 -33 2 -88q2 -68 2 -90q2 -82 33 -103q22 -14 106 -14h279q121 0 166 36t45 134q0 31 -3 91.5t-3 90.5q0 92 74 92q77 0 77 -94q0 -37 -4 -112.5t-4 -112.5q0 -29 3 -85t3 -85 q0 -96 -94 -96q-22 0 -72 4q-24 2 -90 2q15 0 -159.5 4t-301.5 4q-192 0 -376 -12q-9 0 -19 -2h-12q-86 0 -86 73q0 66 63 66q11 0 56 -4q22 -6 43 -6q104 0 104 153v822zM686 1517q-48 0 -81.5 34t-33.5 81t33.5 81t81.5 34q47 0 79.5 -34t32.5 -81t-32.5 -81t-79.5 -34z M1050 1517q-47 0 -81 34t-34 81t34 81t81 34t80 -34t33 -81t-34 -81t-79 -34z" />
<glyph unicode="&#xcd;" horiz-adv-x="569" d="M305 1094q0 151 -104 151q-29 0 -43 -4q-33 -6 -56 -6q-26 0 -44.5 19.5t-18.5 48.5q0 71 90 71q12 0 29 -2l108 -14q62 -8 127 -8q64 0 139 10l93 12q16 2 28 2q90 0 90 -71q0 -29 -18 -48.5t-45 -19.5q-21 0 -55 6q-15 4 -43 4q-105 0 -105 -151v-822q0 -153 105 -153 q16 0 43 4q39 6 55 6q63 0 63 -66q0 -73 -90 -73h-14q-8 2 -14 2l-107 16q-53 8 -112 8q-87 0 -154 -10l-94 -14q-4 0 -15 -2h-16q-88 0 -88 73q0 66 63 66q11 0 56 -4q22 -6 43 -6q104 0 104 153v822zM764 1714q0 -51 -72 -82l-293 -127q-24 -6 -26 -6q-43 0 -43 49 q0 27 43 53l258 162q33 21 61 21q72 0 72 -70z" />
<glyph unicode="&#xce;" horiz-adv-x="569" d="M305 1094q0 151 -104 151q-29 0 -43 -4q-33 -6 -56 -6q-26 0 -44.5 19.5t-18.5 48.5q0 71 90 71q12 0 29 -2l108 -14q62 -8 127 -8q64 0 139 10l93 12q16 2 28 2q90 0 90 -71q0 -29 -18 -48.5t-45 -19.5q-21 0 -55 6q-15 4 -43 4q-105 0 -105 -151v-822q0 -153 105 -153 q16 0 43 4q39 6 55 6q63 0 63 -66q0 -73 -90 -73h-14q-8 2 -14 2l-107 16q-53 8 -112 8q-87 0 -154 -10l-94 -14q-4 0 -15 -2h-16q-88 0 -88 73q0 66 63 66q11 0 56 -4q22 -6 43 -6q104 0 104 153v822zM688 1534l-227 106l-230 -106q-53 -25 -71 -25q-41 0 -41 35 q0 20 43 51l258 182q24 15 41 15q18 0 39 -15l258 -182q14 -10 33 -22q10 -11 10 -25v-4q0 -35 -41 -35q-19 0 -72 25z" />
<glyph unicode="&#xd1;" horiz-adv-x="1479" d="M606 1282l551 -1145v826q0 159 -2 176q-18 106 -102 106q-17 0 -49.5 -5t-49.5 -5q-26 0 -45.5 19.5t-19.5 45.5q0 74 92 74q18 0 27 -2l92 -12q61 -8 114 -8q54 0 142 12q30 4 71 10q5 0 15 2h14q88 0 88 -71q0 -70 -82 -70q-14 0 -22 2h-21q-61 0 -79.5 -26.5 t-22.5 -116.5l-4 -117l-4 -209v-547q0 -141 -32 -198.5t-110 -57.5q-100 0 -170 144l-536 1116v-953q0 -153 104 -153q17 0 49.5 5t49.5 5q65 0 65 -68q0 -71 -92 -71h-12q-11 2 -15 2l-84 12q-69 10 -131 10q-53 0 -137 -10l-100 -12q-4 0 -15 -2h-16q-88 0 -88 71 q0 64 65 64q11 0 56 -4q22 -6 43 -6q104 0 104 153v144l2 180v176l-2 324q0 153 -106 153q-15 0 -41 -4q-39 -6 -58 -6q-65 0 -65 68q0 71 88 71q12 0 33 -2q102 -10 157 -10q31 0 92.5 6t92.5 6q63 0 84 -43zM803 1733q49 0 137 -29l76 -25q37 -12 63 -12q48 0 82 33l29 26 q6 11 23 11q28 0 28 -31q0 -64 -61.5 -114t-138.5 -50q-48 0 -129 27q-115 37 -148 37q-59 0 -88 -37l-16 -21q-15 -18 -27 -18q-29 0 -29 31q0 69 60.5 120.5t138.5 51.5z" />
<glyph unicode="&#xd2;" horiz-adv-x="1593" d="M668 -45q-273 0 -431.5 196.5t-158.5 532.5q0 340 159.5 533.5t440.5 193.5q268 0 427 -188.5t159 -509.5q0 -348 -161 -553t-435 -205zM672 1264q-197 0 -305.5 -151.5t-108.5 -426.5q0 -278 108.5 -431t303.5 -153q190 0 301.5 159t111.5 431q0 275 -106.5 423.5 t-304.5 148.5zM822 1784q27 0 60 -21l258 -162q43 -26 43 -53q0 -49 -43 -49q2 0 -29 6l-291 127q-72 31 -72 78q0 31 21.5 52.5t52.5 21.5z" />
<glyph unicode="&#xd3;" horiz-adv-x="1593" d="M668 -45q-273 0 -431.5 196.5t-158.5 532.5q0 340 159.5 533.5t440.5 193.5q268 0 427 -188.5t159 -509.5q0 -348 -161 -553t-435 -205zM672 1264q-197 0 -305.5 -151.5t-108.5 -426.5q0 -278 108.5 -431t303.5 -153q190 0 301.5 159t111.5 431q0 275 -106.5 423.5 t-304.5 148.5zM1263 1714q0 -51 -72 -82l-293 -127q-24 -6 -26 -6q-43 0 -43 49q0 27 43 53l258 162q33 21 61 21q72 0 72 -70z" />
<glyph unicode="&#xd4;" horiz-adv-x="1593" d="M668 -45q-273 0 -431.5 196.5t-158.5 532.5q0 340 159.5 533.5t440.5 193.5q268 0 427 -188.5t159 -509.5q0 -348 -161 -553t-435 -205zM672 1264q-197 0 -305.5 -151.5t-108.5 -426.5q0 -278 108.5 -431t303.5 -153q190 0 301.5 159t111.5 431q0 275 -106.5 423.5 t-304.5 148.5zM1187 1534l-227 106l-230 -106q-53 -25 -71 -25q-41 0 -41 35q0 20 43 51l258 182q24 15 41 15q18 0 39 -15l258 -182q14 -10 33 -22q10 -11 10 -25v-4q0 -35 -41 -35q-19 0 -72 25z" />
<glyph unicode="&#xd5;" horiz-adv-x="1593" d="M668 -45q-273 0 -431.5 196.5t-158.5 532.5q0 340 159.5 533.5t440.5 193.5q268 0 427 -188.5t159 -509.5q0 -348 -161 -553t-435 -205zM672 1264q-197 0 -305.5 -151.5t-108.5 -426.5q0 -278 108.5 -431t303.5 -153q190 0 301.5 159t111.5 431q0 275 -106.5 423.5 t-304.5 148.5zM839 1733q49 0 137 -29l76 -25q37 -12 63 -12q48 0 82 33l29 26q6 11 23 11q28 0 28 -31q0 -64 -61.5 -114t-138.5 -50q-48 0 -129 27q-115 37 -148 37q-59 0 -88 -37l-16 -21q-15 -18 -27 -18q-29 0 -29 31q0 69 60.5 120.5t138.5 51.5z" />
<glyph unicode="&#xd6;" horiz-adv-x="1593" d="M668 -45q-273 0 -431.5 196.5t-158.5 532.5q0 340 159.5 533.5t440.5 193.5q268 0 427 -188.5t159 -509.5q0 -348 -161 -553t-435 -205zM672 1264q-197 0 -305.5 -151.5t-108.5 -426.5q0 -278 108.5 -431t303.5 -153q190 0 301.5 159t111.5 431q0 275 -106.5 423.5 t-304.5 148.5zM778 1517q-48 0 -81.5 34t-33.5 81t33.5 81t81.5 34q47 0 79.5 -34t32.5 -81t-32.5 -81t-79.5 -34zM1142 1517q-47 0 -81 34t-34 81t34 81t81 34t80 -34t33 -81t-34 -81t-79 -34z" />
<glyph unicode="&#xd8;" horiz-adv-x="1341" d="M676 1411q137 0 266 -59l72 131q14 26 39 26h90q18 0 18 -20q0 -2 -2 -6l-106 -205q86 -102 123 -172q88 -170 88 -418q0 -336 -159 -534.5t-427 -198.5q-150 0 -287 61l-65 -127q-15 -26 -39 -26h-97q-16 0 -16 16q0 6 2 10l111 205q-209 207 -209 563 q0 349 160.5 551.5t437.5 202.5zM356 236l525 989q-82 47 -201 47q-201 0 -311.5 -159t-110.5 -447q0 -267 98 -430zM977 1122l-522 -983q92 -47 198 -47q207 0 318.5 149.5t111.5 426.5q0 266 -77 409z" />
<glyph unicode="&#xd9;" horiz-adv-x="1479" d="M424 1051l-4 -131l-8 -166v-316q0 -143 31.5 -208.5t119.5 -102.5q82 -35 168 -35q113 0 193 43t103.5 116t25.5 185l4 527q0 155 -4 176q-19 104 -105 104q-14 0 -41 -4q-39 -6 -55 -6q-27 0 -46.5 20.5t-19.5 46.5q0 74 91 74q14 0 28 -2l121 -16q45 -6 102 -6 q56 0 93 6l88 14q37 6 49 6q86 0 86 -69q0 -70 -84 -70h-23q-6 2 -20 2q-62 0 -76 -61.5t-14 -315.5v-358q0 -133 -8 -193q-17 -102 -70 -178q-123 -178 -416 -178q-360 0 -465 235q-32 72 -32 224q0 73 6 217.5t6 218.5v108q0 150 -2 168q-15 113 -80 113h-14 q-11 -2 -19 -3t-27 -1q-86 0 -86 70q0 69 78 69q33 0 70 -6q100 -16 186 -16q88 0 203 18q25 4 53 4q84 0 84 -69q0 -70 -71 -70q-17 0 -49.5 5t-49.5 5q-65 0 -88 -69q-10 -31 -12 -125zM746 1784q27 0 60 -21l258 -162q43 -26 43 -53q0 -49 -43 -49q2 0 -29 6l-291 127 q-72 31 -72 78q0 31 21.5 52.5t52.5 21.5z" />
<glyph unicode="&#xda;" horiz-adv-x="1479" d="M424 1051l-4 -131l-8 -166v-316q0 -143 31.5 -208.5t119.5 -102.5q82 -35 168 -35q113 0 193 43t103.5 116t25.5 185l4 527q0 155 -4 176q-19 104 -105 104q-14 0 -41 -4q-39 -6 -55 -6q-27 0 -46.5 20.5t-19.5 46.5q0 74 91 74q14 0 28 -2l121 -16q45 -6 102 -6 q56 0 93 6l88 14q37 6 49 6q86 0 86 -69q0 -70 -84 -70h-23q-6 2 -20 2q-62 0 -76 -61.5t-14 -315.5v-358q0 -133 -8 -193q-17 -102 -70 -178q-123 -178 -416 -178q-360 0 -465 235q-32 72 -32 224q0 73 6 217.5t6 218.5v108q0 150 -2 168q-15 113 -80 113h-14 q-11 -2 -19 -3t-27 -1q-86 0 -86 70q0 69 78 69q33 0 70 -6q100 -16 186 -16q88 0 203 18q25 4 53 4q84 0 84 -69q0 -70 -71 -70q-17 0 -49.5 5t-49.5 5q-65 0 -88 -69q-10 -31 -12 -125zM1207 1714q0 -51 -72 -82l-293 -127q-24 -6 -26 -6q-43 0 -43 49q0 27 43 53l258 162 q33 21 61 21q72 0 72 -70z" />
<glyph unicode="&#xdb;" horiz-adv-x="1479" d="M424 1051l-4 -131l-8 -166v-316q0 -143 31.5 -208.5t119.5 -102.5q82 -35 168 -35q113 0 193 43t103.5 116t25.5 185l4 527q0 155 -4 176q-19 104 -105 104q-14 0 -41 -4q-39 -6 -55 -6q-27 0 -46.5 20.5t-19.5 46.5q0 74 91 74q14 0 28 -2l121 -16q45 -6 102 -6 q56 0 93 6l88 14q37 6 49 6q86 0 86 -69q0 -70 -84 -70h-23q-6 2 -20 2q-62 0 -76 -61.5t-14 -315.5v-358q0 -133 -8 -193q-17 -102 -70 -178q-123 -178 -416 -178q-360 0 -465 235q-32 72 -32 224q0 73 6 217.5t6 218.5v108q0 150 -2 168q-15 113 -80 113h-14 q-11 -2 -19 -3t-27 -1q-86 0 -86 70q0 69 78 69q33 0 70 -6q100 -16 186 -16q88 0 203 18q25 4 53 4q84 0 84 -69q0 -70 -71 -70q-17 0 -49.5 5t-49.5 5q-65 0 -88 -69q-10 -31 -12 -125zM1131 1534l-227 106l-230 -106q-53 -25 -71 -25q-41 0 -41 35q0 20 43 51l258 182 q24 15 41 15q18 0 39 -15l258 -182q14 -10 33 -22q10 -11 10 -25v-4q0 -35 -41 -35q-19 0 -72 25z" />
<glyph unicode="&#xdc;" horiz-adv-x="1479" d="M424 1051l-4 -131l-8 -166v-316q0 -143 31.5 -208.5t119.5 -102.5q82 -35 168 -35q113 0 193 43t103.5 116t25.5 185l4 527q0 155 -4 176q-19 104 -105 104q-14 0 -41 -4q-39 -6 -55 -6q-27 0 -46.5 20.5t-19.5 46.5q0 74 91 74q14 0 28 -2l121 -16q45 -6 102 -6 q56 0 93 6l88 14q37 6 49 6q86 0 86 -69q0 -70 -84 -70h-23q-6 2 -20 2q-62 0 -76 -61.5t-14 -315.5v-358q0 -133 -8 -193q-17 -102 -70 -178q-123 -178 -416 -178q-360 0 -465 235q-32 72 -32 224q0 73 6 217.5t6 218.5v108q0 150 -2 168q-15 113 -80 113h-14 q-11 -2 -19 -3t-27 -1q-86 0 -86 70q0 69 78 69q33 0 70 -6q100 -16 186 -16q88 0 203 18q25 4 53 4q84 0 84 -69q0 -70 -71 -70q-17 0 -49.5 5t-49.5 5q-65 0 -88 -69q-10 -31 -12 -125zM722 1517q-48 0 -81.5 34t-33.5 81t33.5 81t81.5 34q47 0 79.5 -34t32.5 -81 t-32.5 -81t-79.5 -34zM1086 1517q-47 0 -81 34t-34 81t34 81t81 34t80 -34t33 -81t-34 -81t-79 -34z" />
<glyph unicode="&#xdf;" horiz-adv-x="1305" d="M879 -35q-138 0 -228 92q-2 -80 -65 -80q-70 0 -70 91q0 30 4 55q10 63 10 108q0 25 -5 74t-5 74q0 86 72 86q63 0 63 -88v-33q-2 -10 -2 -35q0 -96 53.5 -152.5t145.5 -56.5t154.5 64.5t62.5 159.5q0 77 -43 128.5t-184 141.5l-119 76q-90 57 -90 135q0 63 98 142 t130 119t32 85q0 59 -53.5 98t-134.5 39q-162 0 -232 -131q-61 -115 -61 -338v-135l12 -565q2 -127 -92 -127q-17 0 -46.5 6t-45.5 6q-19 0 -57 -6t-54 -6q-88 0 -88 69q0 66 76 66q26 0 39 -2q30 -8 51 -8q49 0 59 84q2 16 2 118v39v86q-2 45 -2 48v133q0 137 -2 151 q-8 119 -55 119q-19 0 -37 -4h-10q-8 -2 -12 -2q-78 0 -78 67q0 66 65 66q8 0 41 -4q27 -8 53 -8q45 0 66 90q41 178 174 264q92 59 236 59q149 0 250.5 -83t101.5 -203q0 -117 -107 -199l-82 -64q-47 -36 -47 -59q0 -37 78 -82q135 -78 184.5 -114.5t90.5 -94.5 q59 -82 59 -190q0 -154 -104.5 -261.5t-251.5 -107.5z" />
<glyph unicode="&#xe0;" horiz-adv-x="1139" d="M961 -27q-168 0 -207 146q-105 -154 -328 -154q-166 0 -265.5 82t-99.5 219q0 170 146 250q55 31 95 40t161 24q172 18 224 51t52 121q0 84 -58 132t-163 48q-92 0 -172 -51q-31 -21 -31 -43q0 -9 19 -21q28 -20 28 -69q0 -41 -29.5 -68t-74.5 -27q-53 0 -89 37t-36 90 q0 115 113.5 197t275.5 82q373 0 373 -359v-413q0 -99 4 -117q12 -72 70 -72q71 0 71 131v101q0 65 64 65q67 0 67 -98v-10l-2 -117q-4 -197 -208 -197zM733 381l2 145q-45 -41 -95 -57t-179 -29q-234 -22 -234 -172q0 -78 56.5 -123t152.5 -45q137 0 216 75t81 206z M574 1432q27 0 60 -21l258 -162q43 -26 43 -53q0 -49 -43 -49q2 0 -29 6l-291 127q-72 31 -72 78q0 31 21.5 52.5t52.5 21.5z" />
<glyph unicode="&#xe1;" horiz-adv-x="1139" d="M961 -27q-168 0 -207 146q-105 -154 -328 -154q-166 0 -265.5 82t-99.5 219q0 170 146 250q55 31 95 40t161 24q172 18 224 51t52 121q0 84 -58 132t-163 48q-92 0 -172 -51q-31 -21 -31 -43q0 -9 19 -21q28 -20 28 -69q0 -41 -29.5 -68t-74.5 -27q-53 0 -89 37t-36 90 q0 115 113.5 197t275.5 82q373 0 373 -359v-413q0 -99 4 -117q12 -72 70 -72q71 0 71 131v101q0 65 64 65q67 0 67 -98v-10l-2 -117q-4 -197 -208 -197zM733 381l2 145q-45 -41 -95 -57t-179 -29q-234 -22 -234 -172q0 -78 56.5 -123t152.5 -45q137 0 216 75t81 206z M1039 1362q0 -51 -72 -82l-293 -127q-24 -6 -26 -6q-43 0 -43 49q0 27 43 53l258 162q33 21 61 21q72 0 72 -70z" />
<glyph unicode="&#xe2;" horiz-adv-x="1139" d="M961 -27q-168 0 -207 146q-105 -154 -328 -154q-166 0 -265.5 82t-99.5 219q0 170 146 250q55 31 95 40t161 24q172 18 224 51t52 121q0 84 -58 132t-163 48q-92 0 -172 -51q-31 -21 -31 -43q0 -9 19 -21q28 -20 28 -69q0 -41 -29.5 -68t-74.5 -27q-53 0 -89 37t-36 90 q0 115 113.5 197t275.5 82q373 0 373 -359v-413q0 -99 4 -117q12 -72 70 -72q71 0 71 131v101q0 65 64 65q67 0 67 -98v-10l-2 -117q-4 -197 -208 -197zM733 381l2 145q-45 -41 -95 -57t-179 -29q-234 -22 -234 -172q0 -78 56.5 -123t152.5 -45q137 0 216 75t81 206z M959 1182l-227 106l-230 -106q-53 -25 -71 -25q-41 0 -41 35q0 20 43 51l258 182q24 15 41 15q18 0 39 -15l258 -182q14 -10 33 -22q10 -11 10 -25v-4q0 -35 -41 -35q-19 0 -72 25z" />
<glyph unicode="&#xe3;" horiz-adv-x="1139" d="M961 -27q-168 0 -207 146q-105 -154 -328 -154q-166 0 -265.5 82t-99.5 219q0 170 146 250q55 31 95 40t161 24q172 18 224 51t52 121q0 84 -58 132t-163 48q-92 0 -172 -51q-31 -21 -31 -43q0 -9 19 -21q28 -20 28 -69q0 -41 -29.5 -68t-74.5 -27q-53 0 -89 37t-36 90 q0 115 113.5 197t275.5 82q373 0 373 -359v-413q0 -99 4 -117q12 -72 70 -72q71 0 71 131v101q0 65 64 65q67 0 67 -98v-10l-2 -117q-4 -197 -208 -197zM733 381l2 145q-45 -41 -95 -57t-179 -29q-234 -22 -234 -172q0 -78 56.5 -123t152.5 -45q137 0 216 75t81 206z M611 1389q49 0 137 -29l76 -25q37 -12 63 -12q48 0 82 33l29 26q6 11 23 11q28 0 28 -31q0 -64 -61.5 -114t-138.5 -50q-48 0 -129 27q-115 37 -148 37q-59 0 -88 -37l-16 -21q-15 -18 -27 -18q-29 0 -29 31q0 69 60.5 120.5t138.5 51.5z" />
<glyph unicode="&#xe4;" horiz-adv-x="1139" d="M961 -27q-168 0 -207 146q-105 -154 -328 -154q-166 0 -265.5 82t-99.5 219q0 170 146 250q55 31 95 40t161 24q172 18 224 51t52 121q0 84 -58 132t-163 48q-92 0 -172 -51q-31 -21 -31 -43q0 -9 19 -21q28 -20 28 -69q0 -41 -29.5 -68t-74.5 -27q-53 0 -89 37t-36 90 q0 115 113.5 197t275.5 82q373 0 373 -359v-413q0 -99 4 -117q12 -72 70 -72q71 0 71 131v101q0 65 64 65q67 0 67 -98v-10l-2 -117q-4 -197 -208 -197zM733 381l2 145q-45 -41 -95 -57t-179 -29q-234 -22 -234 -172q0 -78 56.5 -123t152.5 -45q137 0 216 75t81 206z M550 1169q-48 0 -81.5 34t-33.5 81t33.5 81t81.5 34q47 0 79.5 -34t32.5 -81t-32.5 -81t-79.5 -34zM914 1169q-47 0 -81 34t-34 81t34 81t81 34t80 -34t33 -81t-34 -81t-79 -34z" />
<glyph unicode="&#xe5;" horiz-adv-x="1139" d="M961 -27q-168 0 -207 146q-105 -154 -328 -154q-166 0 -265.5 82t-99.5 219q0 170 146 250q55 31 95 40t161 24q172 18 224 51t52 121q0 84 -58 132t-163 48q-92 0 -172 -51q-31 -21 -31 -43q0 -9 19 -21q28 -20 28 -69q0 -41 -29.5 -68t-74.5 -27q-53 0 -89 37t-36 90 q0 115 113.5 197t275.5 82q373 0 373 -359v-413q0 -99 4 -117q12 -72 70 -72q71 0 71 131v101q0 65 64 65q67 0 67 -98v-10l-2 -117q-4 -197 -208 -197zM733 381l2 145q-45 -41 -95 -57t-179 -29q-234 -22 -234 -172q0 -78 56.5 -123t152.5 -45q137 0 216 75t81 206z M677 1126q-78 0 -133.5 54.5t-55.5 132.5t55.5 133t133.5 55q77 0 132.5 -55t55.5 -133t-55.5 -132.5t-132.5 -54.5zM677 1407q-39 0 -67 -27.5t-28 -66.5t28 -66.5t67 -27.5q38 0 66 27.5t28 66.5q0 41 -27 67.5t-67 26.5z" />
<glyph unicode="&#xe6;" horiz-adv-x="1714" d="M778 971q45 -39 76 -115q143 203 358 203q189 0 311 -133t122 -340q0 -103 -54 -103h-645q-45 0 -45 -39q0 -147 86 -245.5t215 -98.5q92 0 163 48.5t99 127.5l17 48q16 45 65 45q33 0 55.5 -21.5t22.5 -52.5q0 -125 -135 -227.5t-299 -102.5q-240 0 -363 203 q-112 -203 -374 -203q-179 0 -285.5 85t-106.5 229q0 83 46.5 161t121.5 117q121 64 349 64h124q33 0 41.5 10t8.5 49q0 117 -67 184.5t-181 67.5q-92 0 -158 -43q-31 -21 -31 -39q0 -4 9 -16q26 -39 26 -70q0 -45 -32.5 -75t-79.5 -30q-52 0 -85.5 34t-33.5 87 q0 113 116.5 196t272.5 83q170 0 270 -88zM918 649q0 -28 47 -28h465q47 0 47 26q0 111 -81 194t-190 83q-112 0 -200 -83t-88 -192zM745 438q0 31 -7 38t-38 7h-163q-310 0 -310 -200q0 -82 64.5 -132.5t167.5 -50.5q149 0 227 95q59 71 59 215v28z" />
<glyph unicode="&#xe7;" horiz-adv-x="1008" d="M274 1415l230 -108l227 108q51 25 72 25q41 0 41 -37q0 -21 -43 -51l-258 -183q-17 -12 -39 -12q-17 0 -41 12l-258 183q-43 30 -43 51q0 37 41 37q20 0 71 -25z" />
<glyph unicode="&#xe8;" horiz-adv-x="1139" d="M1010 602q0 -78 -10.5 -95.5t-59.5 -17.5h-651q-27 0 -35 -7t-8 -23q0 -154 92 -256.5t229 -102.5q90 0 165 49.5t97 124.5l19 60q14 49 67 49q76 0 76 -78q0 -133 -135 -236.5t-307 -103.5q-215 0 -342 144.5t-127 388.5q0 250 135 405.5t352 155.5q193 0 318 -129 t125 -328zM266 655q0 -28 45 -28h490q43 0 43 28q0 109 -82 189t-193 80q-114 0 -208.5 -83t-94.5 -186zM574 1432q27 0 60 -21l258 -162q43 -26 43 -53q0 -49 -43 -49q2 0 -29 6l-291 127q-72 31 -72 78q0 31 21.5 52.5t52.5 21.5z" />
<glyph unicode="&#xe9;" horiz-adv-x="1139" d="M1010 602q0 -78 -10.5 -95.5t-59.5 -17.5h-651q-27 0 -35 -7t-8 -23q0 -154 92 -256.5t229 -102.5q90 0 165 49.5t97 124.5l19 60q14 49 67 49q76 0 76 -78q0 -133 -135 -236.5t-307 -103.5q-215 0 -342 144.5t-127 388.5q0 250 135 405.5t352 155.5q193 0 318 -129 t125 -328zM266 655q0 -28 45 -28h490q43 0 43 28q0 109 -82 189t-193 80q-114 0 -208.5 -83t-94.5 -186zM1039 1362q0 -51 -72 -82l-293 -127q-24 -6 -26 -6q-43 0 -43 49q0 27 43 53l258 162q33 21 61 21q72 0 72 -70z" />
<glyph unicode="&#xea;" horiz-adv-x="1139" d="M1010 602q0 -78 -10.5 -95.5t-59.5 -17.5h-651q-27 0 -35 -7t-8 -23q0 -154 92 -256.5t229 -102.5q90 0 165 49.5t97 124.5l19 60q14 49 67 49q76 0 76 -78q0 -133 -135 -236.5t-307 -103.5q-215 0 -342 144.5t-127 388.5q0 250 135 405.5t352 155.5q193 0 318 -129 t125 -328zM266 655q0 -28 45 -28h490q43 0 43 28q0 109 -82 189t-193 80q-114 0 -208.5 -83t-94.5 -186zM963 1182l-227 106l-230 -106q-53 -25 -71 -25q-41 0 -41 35q0 20 43 51l258 182q24 15 41 15q18 0 39 -15l258 -182q14 -10 33 -22q10 -11 10 -25v-4q0 -35 -41 -35 q-19 0 -72 25z" />
<glyph unicode="&#xeb;" horiz-adv-x="1139" d="M1010 602q0 -78 -10.5 -95.5t-59.5 -17.5h-651q-27 0 -35 -7t-8 -23q0 -154 92 -256.5t229 -102.5q90 0 165 49.5t97 124.5l19 60q14 49 67 49q76 0 76 -78q0 -133 -135 -236.5t-307 -103.5q-215 0 -342 144.5t-127 388.5q0 250 135 405.5t352 155.5q193 0 318 -129 t125 -328zM266 655q0 -28 45 -28h490q43 0 43 28q0 109 -82 189t-193 80q-114 0 -208.5 -83t-94.5 -186zM554 1169q-48 0 -81.5 34t-33.5 81t33.5 81t81.5 34q47 0 79.5 -34t32.5 -81t-32.5 -81t-79.5 -34zM918 1169q-47 0 -81 34t-34 81t34 81t81 34t80 -34t33 -81t-34 -81 t-79 -34z" />
<glyph unicode="&#xec;" horiz-adv-x="635" d="M412 594v-266q0 -103 2 -121q10 -92 55 -92q10 0 51 10q10 4 31 4q78 0 78 -68q0 -28 -25.5 -48.5t-64.5 -20.5q-33 0 -99.5 9t-99.5 9q-53 0 -119 -8q-80 -10 -106 -10q-82 0 -82 69q0 68 69 68q17 0 48.5 -6t48.5 -6q49 0 59 131v178v168v178q-10 129 -61 129 q-17 0 -46.5 -7t-44.5 -7q-73 0 -73 65q0 70 90 70q39 0 55 -2q66 -8 84 -8q17 0 50.5 5t49.5 5q60 0 60 -80q0 -8 -2 -24.5t-2 -24.5q-2 -16 -4 -127q-2 -84 -2 -172zM129 1432q27 0 59 -21l261 -162q43 -26 43 -53q0 -49 -46 -49q-2 0 -26 6l-291 127q-72 31 -72 78 q0 31 21.5 52.5t50.5 21.5z" />
<glyph unicode="&#xed;" horiz-adv-x="635" d="M412 594v-266q0 -103 2 -121q10 -92 55 -92q10 0 51 10q10 4 31 4q78 0 78 -68q0 -28 -25.5 -48.5t-64.5 -20.5q-33 0 -99.5 9t-99.5 9q-53 0 -119 -8q-80 -10 -106 -10q-82 0 -82 69q0 68 69 68q17 0 48.5 -6t48.5 -6q49 0 59 131v178v168v178q-10 129 -61 129 q-17 0 -46.5 -7t-44.5 -7q-73 0 -73 65q0 70 90 70q39 0 55 -2q66 -8 84 -8q17 0 50.5 5t49.5 5q60 0 60 -80q0 -8 -2 -24.5t-2 -24.5q-2 -16 -4 -127q-2 -84 -2 -172zM512 1362q0 -49 -74 -82l-291 -127q-24 -6 -26 -6q-43 0 -43 49q0 27 43 53l258 162q33 21 61 21 q72 0 72 -70z" />
<glyph unicode="&#xee;" horiz-adv-x="633" d="M412 594v-266q0 -103 2 -121q10 -92 55 -92q10 0 51 10q10 4 31 4q78 0 78 -68q0 -28 -25.5 -48.5t-64.5 -20.5q-33 0 -99.5 9t-99.5 9q-53 0 -119 -8q-80 -10 -106 -10q-82 0 -82 69q0 68 69 68q17 0 48.5 -6t48.5 -6q49 0 59 131v178v168v178q-10 129 -61 129 q-17 0 -46.5 -7t-44.5 -7q-73 0 -73 65q0 70 90 70q39 0 55 -2q66 -8 84 -8q17 0 50.5 5t49.5 5q60 0 60 -80q0 -8 -2 -24.5t-2 -24.5q-2 -16 -4 -127q-2 -84 -2 -172zM496 1182l-199 106l-199 -106q-45 -25 -63 -25q-35 0 -35 35q0 20 37 51l225 182q19 15 35 15 q14 0 35 -15l223 -182q39 -33 39 -51q0 -35 -35 -35q-18 0 -63 25z" />
<glyph unicode="&#xef;" horiz-adv-x="635" d="M412 594v-266q0 -103 2 -121q10 -92 55 -92q10 0 51 10q10 4 31 4q78 0 78 -68q0 -28 -25.5 -48.5t-64.5 -20.5q-33 0 -99.5 9t-99.5 9q-51 0 -117 -8q-80 -10 -108 -10q-82 0 -82 69q0 68 69 68q17 0 48.5 -6t48.5 -6q49 0 59 131v178v168v178q-10 129 -61 129 q-17 0 -46.5 -7t-44.5 -7q-73 0 -73 65q0 70 90 70q39 0 55 -2q66 -8 84 -8q17 0 50.5 5t49.5 5q60 0 60 -80q0 -33 -4 -88q-4 -63 -4 -88q-2 -84 -2 -172zM115 1169q-47 0 -81 34t-34 81t34 81t81 34t80.5 -34t33.5 -81t-33.5 -81t-80.5 -34zM479 1169q-47 0 -80.5 34 t-33.5 81t33.5 81t80.5 34t81 -34t34 -81t-34 -81t-81 -34z" />
<glyph unicode="&#xf7;" horiz-adv-x="1196" d="M700 942h-204v205h204v-205zM1083 639h-970v168h970v-168zM700 299h-204v205h204v-205z" />
<glyph unicode="&#xf9;" horiz-adv-x="1139" d="M915 51v64q-108 -150 -321 -150q-242 0 -336 150q-41 65 -45 153q-2 43 -2 181v169q0 281 -59 281q-13 0 -39.5 -5t-40.5 -5q-72 0 -72 67q0 66 88 66q21 0 60.5 -4t60.5 -4q18 0 63 6q31 4 35 4q64 0 64 -78v-43l-2 -133l-7 -152v-133q0 -178 29 -256q47 -129 225 -129 q89 0 156.5 40t93.5 106q33 80 33 303v113v133q-10 98 -53 98q-23 0 -37 -4h-25q-71 0 -71 63q0 72 80 72q18 0 56 -4t56 -4q17 0 49.5 3t49.5 3q61 0 61 -66q0 -28 -4 -45q-10 -77 -10 -229v-315q0 -125 2 -140q10 -108 57 -108q14 0 41 5t41 5q70 0 70 -68q0 -69 -86 -69 q-19 0 -54 4q-51 6 -63 6q-6 0 -43 -4q-25 -6 -43 -6q-58 0 -58 59zM574 1432q27 0 60 -21l258 -162q43 -26 43 -53q0 -49 -43 -49q2 0 -29 6l-291 127q-72 31 -72 78q0 31 21.5 52.5t52.5 21.5z" />
<glyph unicode="&#xfa;" horiz-adv-x="1139" d="M915 51v64q-108 -150 -321 -150q-242 0 -336 150q-41 65 -45 153q-2 43 -2 181v169q0 281 -59 281q-13 0 -39.5 -5t-40.5 -5q-72 0 -72 67q0 66 88 66q21 0 60.5 -4t60.5 -4q18 0 63 6q31 4 35 4q64 0 64 -78v-43l-2 -133l-7 -152v-133q0 -178 29 -256q47 -129 225 -129 q89 0 156.5 40t93.5 106q33 80 33 303v113v133q-10 98 -53 98q-23 0 -37 -4h-25q-71 0 -71 63q0 72 80 72q18 0 56 -4t56 -4q17 0 49.5 3t49.5 3q61 0 61 -66q0 -28 -4 -45q-10 -77 -10 -229v-315q0 -125 2 -140q10 -108 57 -108q14 0 41 5t41 5q70 0 70 -68q0 -69 -86 -69 q-19 0 -54 4q-51 6 -63 6q-6 0 -43 -4q-25 -6 -43 -6q-58 0 -58 59zM1039 1362q0 -51 -72 -82l-293 -127q-24 -6 -26 -6q-43 0 -43 49q0 27 43 53l258 162q33 21 61 21q72 0 72 -70z" />
<glyph unicode="&#xfb;" horiz-adv-x="1139" d="M915 51v64q-108 -150 -321 -150q-242 0 -336 150q-41 65 -45 153q-2 43 -2 181v169q0 281 -59 281q-13 0 -39.5 -5t-40.5 -5q-72 0 -72 67q0 66 88 66q21 0 60.5 -4t60.5 -4q18 0 63 6q31 4 35 4q64 0 64 -78v-43l-2 -133l-7 -152v-133q0 -178 29 -256q47 -129 225 -129 q89 0 156.5 40t93.5 106q33 80 33 303v113v133q-10 98 -53 98q-23 0 -37 -4h-25q-71 0 -71 63q0 72 80 72q18 0 56 -4t56 -4q17 0 49.5 3t49.5 3q61 0 61 -66q0 -28 -4 -45q-10 -77 -10 -229v-315q0 -125 2 -140q10 -108 57 -108q14 0 41 5t41 5q70 0 70 -68q0 -69 -86 -69 q-19 0 -54 4q-51 6 -63 6q-6 0 -43 -4q-25 -6 -43 -6q-58 0 -58 59zM963 1182l-227 106l-230 -106q-53 -25 -71 -25q-41 0 -41 35q0 20 43 51l258 182q24 15 41 15q18 0 39 -15l258 -182q14 -10 33 -22q10 -11 10 -25v-4q0 -35 -41 -35q-19 0 -72 25z" />
<glyph unicode="&#xfc;" horiz-adv-x="1139" d="M915 51v64q-108 -150 -321 -150q-242 0 -336 150q-41 65 -45 153q-2 43 -2 181v169q0 281 -59 281q-13 0 -39.5 -5t-40.5 -5q-72 0 -72 67q0 66 88 66q21 0 60.5 -4t60.5 -4q18 0 63 6q31 4 35 4q64 0 64 -78v-43l-2 -133l-7 -152v-133q0 -178 29 -256q47 -129 225 -129 q89 0 156.5 40t93.5 106q33 80 33 303v113v133q-10 98 -53 98q-23 0 -37 -4h-25q-71 0 -71 63q0 72 80 72q18 0 56 -4t56 -4q17 0 49.5 3t49.5 3q61 0 61 -66q0 -28 -4 -45q-10 -77 -10 -229v-315q0 -125 2 -140q10 -108 57 -108q14 0 41 5t41 5q70 0 70 -68q0 -69 -86 -69 q-19 0 -54 4q-51 6 -63 6q-6 0 -43 -4q-25 -6 -43 -6q-58 0 -58 59zM550 1169q-48 0 -81.5 34t-33.5 81t33.5 81t81.5 34q47 0 79.5 -34t32.5 -81t-32.5 -81t-79.5 -34zM914 1169q-47 0 -81 34t-34 81t34 81t81 34t80 -34t33 -81t-34 -81t-79 -34z" />
<glyph unicode="&#xff;" horiz-adv-x="1024" d="M401 827l236 -692l250 682q10 29 10 45q0 35 -47 35q-25 0 -39 -4q-33 -4 -43 -4q-68 0 -68 65q0 70 88 70q13 0 41 -4l74 -10q29 -4 62 -4q34 0 102 8t102 8q88 0 88 -68q0 -65 -67 -65q-21 0 -31 4q-26 6 -37 6q-39 0 -80 -104l-278 -697q-92 -231 -174 -336 q-139 -178 -348 -178q-125 0 -210 63.5t-85 153.5q0 64 36.5 104t96.5 40q47 0 77.5 -28t30.5 -69q0 -65 -59 -84q31 -45 117 -45q108 0 195 81t87 182q0 51 -55 190l-225 569l-25 66q-35 92 -80 92q-12 0 -43.5 -6t-42.5 -6q-71 0 -71 65q0 70 94 70q31 0 47 -2l82 -10h16 q15 -2 25 -2q74 0 158 8q63 6 84 6q86 0 86 -68q0 -67 -78 -67q-13 0 -39.5 5t-38.5 5q-29 0 -29 -29q0 -16 8 -41zM494 1169q-48 0 -81.5 34t-33.5 81t33.5 81t81.5 34q47 0 79.5 -34t32.5 -81t-32.5 -81t-79.5 -34zM858 1169q-47 0 -81 34t-34 81t34 81t81 34t80 -34 t33 -81t-34 -81t-79 -34z" />
<glyph unicode="&#x131;" horiz-adv-x="635" d="M412 594v-266q0 -103 2 -121q10 -92 55 -92q10 0 51 10q10 4 31 4q78 0 78 -68q0 -28 -25.5 -48.5t-64.5 -20.5q-33 0 -99.5 9t-99.5 9q-53 0 -119 -8q-80 -10 -106 -10q-82 0 -82 69q0 68 69 68q17 0 48.5 -6t48.5 -6q49 0 59 131v178v168v178q-10 129 -61 129 q-17 0 -46.5 -7t-44.5 -7q-73 0 -73 65q0 70 90 70q39 0 55 -2q66 -8 84 -8q17 0 50.5 5t49.5 5q60 0 60 -80q0 -8 -2 -24.5t-2 -24.5q-2 -16 -4 -127q-2 -84 -2 -172z" />
<glyph unicode="&#x152;" horiz-adv-x="2126" d="M659 1403q244 0 406 -186q-4 16 -12.5 43.5t-8.5 54.5q0 24 26 41.5t63 17.5q26 0 102 -4t135 -4h141l187 2q26 0 83.5 4t88.5 4q104 0 104 -92q0 -37 -7 -107.5t-7 -107.5q0 -33 5 -95.5t5 -94.5q0 -86 -72 -86q-51 0 -65 45q-8 24 -8 92v108l2 25q2 33 2 53 q0 86 -62 109q-53 20 -258 20h-137q-96 0 -127 -25.5t-31 -105.5v-229q0 -62 27 -76q16 -8 62 -8h98q117 0 117 92q0 31 -7 61q-8 41 -8 70q0 78 74 78t74 -80q0 -14 -9 -72q-16 -112 -16 -227q0 -127 14 -219q7 -39 7 -66q0 -76 -72 -76q-70 0 -70 84q0 23 5.5 66t5.5 66 q0 90 -109 90h-104q-76 0 -84 -39q-5 -15 -5 -45v-338q0 -92 46 -113q24 -12 126 -12h218q157 0 203 36t46 156q0 27 -2 78t-2 76q0 106 74 106t74 -84q0 -38 -6 -115t-6 -116q0 -63 2 -88l6 -72v-12q0 -100 -97 -96l-98 4l-139 4l-148 6l-143 -4q-78 -2 -162 -4 q-57 -6 -94 -6q-76 0 -76 61q0 41 19 115q-62 -76 -88 -98q-119 -107 -312 -107q-266 0 -422.5 191.5t-156.5 519.5q0 334 157.5 532.5t425.5 198.5zM668 1266q-191 0 -300.5 -154t-109.5 -422q0 -276 108.5 -433t299.5 -157q186 0 288.5 155t102.5 439q0 273 -101.5 422.5 t-287.5 149.5z" />
<glyph unicode="&#x153;" horiz-adv-x="1827" d="M1292 -35q-131 0 -219 51.5t-160 169.5q-94 -221 -366 -221q-217 0 -343 143.5t-126 391.5q0 250 133 404.5t346 154.5q154 0 260 -82q66 -51 113 -148q119 230 387 230q203 0 321.5 -130t118.5 -351q0 -93 -53 -93h-655q-31 0 -38 -9t-7 -46q0 -137 91 -233.5t218 -96.5 q88 0 168 52.5t96 121.5l14 60q13 47 68 47q78 0 78 -82q0 -92 -90 -190q-131 -144 -355 -144zM1028 653q0 -30 45 -30h467q29 0 39 6t10 35q0 108 -78.5 184t-191.5 76t-202 -83t-89 -188zM549 100q145 0 226 108.5t81 305.5q0 191 -81 300.5t-222 109.5t-224 -113 t-83 -305q0 -189 81 -297.5t222 -108.5z" />
<glyph unicode="&#x178;" horiz-adv-x="1229" d="M666 408v38q-2 33 -2 56l-398 628q-39 62 -49 72q-31 31 -76 31q-24 0 -37 -2h-18q-14 -2 -20 -2q-95 0 -95 71q0 74 82 74q33 0 82 -8q98 -16 184 -16q64 0 191 18q43 6 74 6q84 0 84 -71q0 -70 -101 -70l-20 2h-51l-41 2q-25 2 -25 -16q0 -9 2 -12t10 -17l314 -533 l317 533q10 16 10 33q0 18 -26 18h-4l-37 -2l-53 -6q-35 -4 -54 -4q-84 0 -84 72q0 71 82 71q31 0 74 -6q115 -16 199 -16q88 0 194 16q41 6 70 6q78 0 78 -71q0 -66 -76 -66q-31 0 -47 4q-33 4 -45 4q-54 0 -86 -49l-31 -47l-403 -633v-86q0 -209 17 -260t87 -51q16 0 50 5 t50 5q64 0 64 -66q0 -73 -92 -73h-13q-8 2 -14 2l-113 14q-63 8 -125 8q-65 0 -124 -8l-105 -14q-4 0 -12 -2h-15q-92 0 -92 71q0 68 66 68q16 0 48 -5t48 -5q86 0 105 108q2 19 2 181zM323 1436q-48 0 -81.5 34t-33.5 81t33.5 81t81.5 34q47 0 79.5 -34t32.5 -81t-32.5 -81 t-79.5 -34zM687 1436q-47 0 -81 34t-34 81t34 81t81 34t80 -34t33 -81t-34 -81t-79 -34z" />
<glyph unicode="&#x192;" horiz-adv-x="1305" d="M1104 1198q0 31 26 66q-47 53 -131 53q-81 0 -129.5 -58.5t-48.5 -160.5q0 -33 25 -33h162q75 0 75 -66q0 -67 -90 -67h-168q-37 0 -45 -45l-121 -666q-47 -260 -129 -387q-116 -180 -323 -180q-109 0 -185.5 53t-76.5 129q0 111 108 111q99 0 99 -90q0 -19 -13 -50 q45 -22 80 -22q219 0 301 481l107 641q0 25 -17 25h-53q-70 0 -70 67q0 66 64 66h63q41 0 50 45l10 59q45 265 309 265q133 0 224 -61.5t91 -151.5q0 -47 -28.5 -77t-73.5 -30q-92 0 -92 84z" />
<glyph unicode="&#x2c6;" horiz-adv-x="1008" d="M731 1182l-227 106l-230 -106q-53 -25 -71 -25q-41 0 -41 35q0 20 43 51l258 182q24 15 41 15q18 0 39 -15l258 -182q14 -10 33 -22q10 -11 10 -25v-4q0 -35 -41 -35q-19 0 -72 25z" />
<glyph unicode="&#x2c7;" horiz-adv-x="1305" d="M932 946q-6 60 -63.5 103t-139.5 49v-791q113 12 162 72q33 41 72 170q20 61 77 61q35 0 58.5 -24.5t23.5 -61.5q0 -92 -73.5 -188t-174.5 -133q-51 -19 -145 -39v-227q0 -58 -57 -58q-58 0 -58 58v227q-143 22 -227 82q-207 145 -207 444q0 182 81 316.5t224 191.5 q50 21 129 33v213q0 57 58 57q57 0 57 -57v-209q109 -14 182 -43q86 -35 141.5 -110.5t55.5 -159.5q0 -76 -46 -128.5t-114 -52.5q-49 0 -81.5 31t-32.5 76q0 41 24.5 69.5t56.5 28.5h17zM614 307v791q-258 -54 -258 -404q0 -174 68 -275.5t190 -111.5z" />
<glyph unicode="&#x2d8;" horiz-adv-x="1006" d="M242 1419q116 -116 262 -116q143 0 262 116q20 21 35 21q22 0 22 -29q0 -37 -22 -82q-37 -76 -121 -123t-176 -47q-94 0 -177 47t-120 123q-25 49 -25 82q0 29 27 29q12 0 33 -21z" />
<glyph unicode="&#x2d9;" horiz-adv-x="1008" d="M504 1167q-49 0 -84 35t-35 82q0 49 35 84t84 35q47 0 82 -35t35 -84q0 -47 -35 -82t-82 -35z" />
<glyph unicode="&#x2da;" horiz-adv-x="1008" d="M449 1126q-78 0 -133.5 54.5t-55.5 132.5t55.5 133t133.5 55q77 0 132.5 -55t55.5 -133t-55.5 -132.5t-132.5 -54.5zM449 1407q-39 0 -67 -27.5t-28 -66.5t28 -66.5t67 -27.5q38 0 66 27.5t28 66.5q0 41 -27 67.5t-67 26.5z" />
<glyph unicode="&#x2db;" horiz-adv-x="1008" d="M414 -199q0 115 151 199h119l-22 -20q-121 -111 -121 -177q0 -102 125 -102q20 0 56 9t50 9q41 0 41 -41q0 -28 -45 -48.5t-113 -20.5q-108 0 -174.5 53t-66.5 139z" />
<glyph unicode="&#x2dc;" horiz-adv-x="1006" d="M383 1389q49 0 137 -29l76 -25q37 -12 63 -12q48 0 82 33l29 26q6 11 23 11q28 0 28 -31q0 -64 -61.5 -114t-138.5 -50q-48 0 -129 27q-115 37 -148 37q-59 0 -88 -37l-16 -21q-15 -18 -27 -18q-29 0 -29 31q0 69 60.5 120.5t138.5 51.5z" />
<glyph unicode="&#x2dd;" horiz-adv-x="1006" d="M623 1458q0 -28 -33 -65l-205 -230q-14 -20 -39 -20q-39 0 -39 39q0 12 19 43l159 254q29 47 68 47q29 0 49.5 -19.5t20.5 -48.5zM889 1458q0 -26 -35 -65l-205 -230q-18 -20 -39 -20q-37 0 -37 39q0 16 17 43l160 254q28 47 67 47q29 0 50.5 -20.5t21.5 -47.5z" />
<glyph unicode="&#x3c0;" horiz-adv-x="1229" d="M957 781v-697h112q56 0 56 -42t-56 -42h-287q-56 0 -56 42t56 42h90v697h-515v-697h89q57 0 57 -42t-57 -42h-286q-56 0 -56 42t56 42h112v697h-112q-56 0 -56 42q0 43 56 43h909q56 0 56 -43q0 -42 -56 -42h-112z" />
<glyph unicode="&#x1000;" horiz-adv-x="1723" d="M1623 495q0 -108 -32 -200.5t-90 -160.5t-139.5 -106.5t-180.5 -38.5q-72 0 -72 69t72 69t128 29.5t94.5 80t58.5 117.5t20 141v148q0 66 -20.5 129.5t-57.5 113t-89.5 80t-116.5 30.5q-58 0 -105 -16t-82 -51l-70 -79q35 -93 35 -180l-2 -42v-153q0 -77 -13 -142 t-41.5 -121.5t-74.5 -107.5t-113 -100q-21 -15 -42 -15q-69 0 -69 69q0 26 24 57q53 40 89 79.5t58 82t31.5 91t9.5 107.5v160q0 75 -23.5 141.5t-64 116.5t-95.5 79t-118 29q-60 0 -113 -28t-92 -76t-61.5 -111t-22.5 -133v-163q0 -55 6.5 -108.5t22.5 -101.5t41 -87.5 t63 -67.5q32 -15 32 -57q0 -69 -71 -69l-40 12q-45 28 -81.5 76.5t-61.5 111t-38.5 136.5t-13.5 155v163q0 51 6.5 96t20.5 86t37 79.5t55 76.5q118 148 311 148q46 0 94 -11.5t92 -32.5t82 -50t65 -64q63 77 148 115t185 38q88 0 165.5 -38t135.5 -104.5t91 -156t33 -192.5 v-148z" />
<glyph unicode="&#x1001;" horiz-adv-x="1285" d="M1182 564q0 -236 -170 -406q-168 -168 -406 -168q-78 0 -152.5 21.5t-140 60t-118.5 92t-87 117.5q-5 13 -9 23t-4 19q0 26 28 42l5 7q69 66 152 97t185 31q69 0 135.5 -18t128.5 -56q103 -55 175 -182q28 28 51.5 59.5t41.5 66.5q23 46 35 94.5t12 99.5q0 176 -130 306 q-65 65 -141 98t-167 33q-58 0 -114.5 -15.5t-105.5 -43t-88 -65t-62 -81.5q-5 -6 -16 -14t-25.5 -13t-30 -5.5t-28.5 7.5q-21 15 -26.5 42t3.5 45q29 58 78.5 107t118.5 90q141 84 296 84q238 0 406 -168q170 -167 170 -407zM788 168q-45 88 -128 135q-43 28 -92 42.5 t-105 14.5q-126 0 -205 -59q28 -35 62 -64.5t76 -51.5q51 -28 103.5 -42.5t106.5 -14.5q48 0 93.5 9.5t88.5 30.5z" />
<glyph unicode="&#x1002;" horiz-adv-x="1363" d="M1273 555q0 -166 -72 -310.5t-217 -244.5q-4 -4 -16.5 -9t-28.5 -6t-32 5.5t-27 26.5q-7 12 -7 25.5t4 26.5t11 24.5t13 20.5q57 40 100.5 90t73 107t44 119t14.5 125q0 177 -132 314q-133 136 -315 136q-89 0 -166.5 -34t-146.5 -100q-134 -132 -134 -316 q0 -136 49.5 -248.5t160.5 -188.5q7 -3 13 -12.5t9.5 -21.5t3.5 -25.5t-6 -24.5q-12 -24 -28.5 -32.5t-30.5 -10.5q-17 -2 -34 4q-70 42 -122 102.5t-86.5 133t-51.5 155t-17 169.5q0 244 173 417q171 173 414 173q241 0 413 -176q174 -171 174 -414z" />
<glyph unicode="&#x1003;" horiz-adv-x="1730" d="M1641 493q0 -101 -29.5 -187t-86.5 -159q-57 -72 -134 -108.5t-174 -36.5q-116 0 -205 50q-32 17 -63 41.5t-63 59.5q-15 -19 -29 -33.5t-29 -26.5t-32.5 -22.5t-39.5 -21.5q-101 -52 -207 -52q-183 0 -306 148q-123 150 -123 338v142q0 38 12 73.5t35 62.5t56 43t75 16 q8 0 23.5 2t31.5 10.5t29 26.5t17 50q0 39 -24.5 65t-69.5 31q-28 0 -49 -10.5t-32 -31.5q-8 -15 -21.5 -22.5t-27.5 -10.5t-27 -2t-19 5q-21 12 -29 27.5t-8 30.5t4 27.5t7 18.5q69 106 207 106q26 0 47.5 -3t41 -11.5t38 -22t38.5 -34.5q32 -34 48 -74.5t16 -90.5 q0 -51 -16.5 -88.5t-54.5 -74.5q-72 -64 -168 -64q-13 0 -24 -11t-13 -31v-15v-140q0 -73 20 -134t59 -113q83 -101 207 -101q130 0 214 106q87 110 87 259v160q0 79 -13.5 133t-48.5 104q-20 32 -51 61.5t-70 61.5q-8 6 -14.5 15.5t-10.5 21t-4.5 24.5t4.5 25q11 25 29 33 t35 6q20 -2 43 -12q50 -32 91 -73.5t69 -86.5q84 -124 84 -313v-157l2 -40q0 -91 -35 -178q26 -33 53.5 -59t55.5 -46q18 -10 34 -17.5t33.5 -12.5t37.5 -7.5t45 -2.5q122 0 200 106q81 108 81 247v148q0 154 -74 256q-81 111 -226 111q-72 0 -72 69t72 69 q104 0 186.5 -40.5t145.5 -119.5q54 -69 81.5 -154t27.5 -191v-148z" />
<glyph unicode="&#x1004;" horiz-adv-x="1265" d="M1178 286q-33 -63 -84 -114.5t-120 -94.5t-142 -63.5t-151 -20.5q-241 0 -412 168q-168 168 -168 406q0 234 171 404q169 170 409 170q76 0 147.5 -20t140.5 -58q70 -39 122 -88t78 -112q8 -22 0 -49t-33 -39q-12 -6 -25 -6.5t-25 3.5t-22 11t-14 16q-25 43 -65 80.5 t-89 65t-104.5 43t-110.5 15.5q-91 0 -169.5 -31t-143.5 -97q-129 -125 -129 -308q0 -179 129 -308q65 -65 143.5 -96.5t169.5 -31.5q59 0 114.5 15.5t104 44.5t89 70t69.5 92q4 6 14 13t23 11.5t26.5 5t25.5 -5.5q25 -13 34 -40.5t-3 -50.5z" />
<glyph unicode="&#x1005;" horiz-adv-x="1362" d="M1115 568q0 178 -129 307q-65 65 -141 97.5t-167 32.5q-45 0 -87.5 -8.5t-85.5 -25.5q118 -170 118 -393q0 -36 -1.5 -65t-6 -55t-12 -52.5t-19.5 -56.5q-13 -45 -36 -87.5t-58 -85.5q47 -20 93.5 -31t94.5 -11q175 0 306 126q65 65 98 141t33 167zM1253 568 q0 -236 -168 -404t-407 -168q-236 0 -405 165q-171 166 -171 407q0 237 168 405q171 171 408 171q117 0 216.5 -42t185.5 -126q173 -166 173 -408zM485 581q0 95 -28.5 174t-67.5 139q-66 -64 -104 -133q-44 -86 -44 -193q0 -52 11 -98t31 -89q11 -21 21.5 -38.5t21 -32 t23 -28t28.5 -27.5q20 30 39.5 65t36.5 78q17 48 24.5 94t7.5 89z" />
<glyph unicode="&#x1006;" horiz-adv-x="1703" d="M260 312q34 -68 91 -112q39 -24 82.5 -37t90.5 -13q35 0 66 9t59 26q-17 24 -30 41t-24 31q-32 35 -69 54q-1 0 -1.5 0.5t-1.5 0.5h179l18 -22t18 -24q8 10 15 21t13 25h154q-2 -3 -2.5 -5.5t-2.5 -5.5q21 -38 44 -66t55 -45q35 -23 73 -33.5t77 -10.5q113 0 200 91 q33 33 54 75h153q-33 -112 -111 -191q-63 -65 -138.5 -98t-166.5 -33q-54 0 -104 13t-99 39q-73 40 -118 111q-24 -30 -60 -58t-73 -48q-47 -26 -94 -39t-93 -13q-70 0 -133 21.5t-115 62t-91.5 99.5t-61.5 134h147zM113 312q-12 40 -18 80q24 25 59 40t72.5 23t73.5 10.5 t61 2.5q105 0 188 -37.5t153 -118.5h-179q-32 14 -55.5 22.5t-45 13t-43 6t-48.5 1.5q-7 0 -19.5 -1t-25.5 -3.5t-24 -5t-14 -5.5q5 -16 12 -28h-147zM766 312q4 8 7.5 15.5t6.5 15.5q13 38 20 79t7 83v136q0 88 -23.5 154.5t-63 110t-93 65.5t-113.5 22q-75 0 -140 -35.5 t-104 -102.5q-14 -26 -43 -38.5t-58 1.5q-15 7 -24 20.5t-12 29.5t-0.5 32t11.5 29q33 51 75 89t93 64q50 28 101.5 42.5t107.5 14.5q51 0 99.5 -13t95.5 -37q32 -14 63 -40t63 -63q46 58 123 98q91 52 199 52q176 0 298 -126q67 -66 100.5 -157.5t33.5 -216.5v-138 q0 -51 -6.5 -97.5t-18.5 -88.5h-153q37 77 37 186v138q0 88 -23.5 154t-70.5 115q-80 83 -202 83q-42 0 -79 -9.5t-69 -29.5q-28 -17 -51.5 -40.5t-46.5 -55.5q20 -47 27 -96.5t7 -115.5v-138q0 -34 -1 -59.5t-4 -47.5t-8 -42t-14 -42h-154z" />
<glyph unicode="&#x1007;" horiz-adv-x="1544" d="M235 572q0 -94 31 -170.5t97 -142.5q129 -129 316 -129q60 0 116.5 16.5t106 46t90 70t69.5 89.5q18 26 59 35q32 0 50.5 -19t18.5 -48q0 -5 -1.5 -13t-3.5 -21q-65 -124 -207 -210q-141 -84 -298 -84q-238 0 -414 168q-88 85 -129 187t-41 225q2 234 170 399 q175 170 414 170q88 0 173.5 -27t154.5 -72l78 7q149 0 247 -105q101 -110 101 -259q0 -32 -5 -52q0 -52 -67 -52q-71 0 -71 72l3 39q0 88 -62 153q-33 38 -76 49l5 -12.5t11 -31.5t11 -40t5 -39q0 -53 -20.5 -99t-55.5 -80.5t-81.5 -54.5t-99.5 -20t-98.5 20.5t-79.5 55.5 t-53.5 81.5t-19.5 98.5q0 36 12 70t30 62.5t38 49.5t36 30q-32 10 -61 14t-55 4q-181 0 -313 -128q-128 -125 -131 -303zM819 772q0 -24 9 -45.5t25 -37.5t37.5 -25t45.5 -9t45.5 9t37.5 25t25.5 37.5t9.5 45.5t-9.5 45.5t-25.5 37.5t-37.5 25t-45.5 9t-45.5 -9t-37.5 -25 t-25 -37.5t-9 -45.5z" />
<glyph unicode="&#x1008;" horiz-adv-x="1552" d="M1450 -600q0 -67 -55 -74q-35 0 -44 10l-281 148q-35 19 -35 64q0 17 5.5 31.5t14.5 27.5q8 5 17 8.5t23 3.5q5 0 27 -5l-17 10v451q0 69 61 69q69 0 69 -69v-518l81 -44v1556q0 72 72 72q62 0 62 -72v-1669zM1108 566q0 178 -128 306q-65 65 -141 97.5t-167 32.5 q-45 0 -87.5 -8.5t-85.5 -25.5q118 -169 118 -392q0 -36 -1.5 -65t-6 -55t-12 -52.5t-19.5 -56.5q-13 -45 -35.5 -87.5t-57.5 -85.5q46 -20 92.5 -31t94.5 -11q176 0 305 126q131 129 131 308zM1246 566q0 -238 -168 -404q-166 -168 -406 -168q-117 0 -218 40.5t-187 125.5 q-170 165 -170 406q0 237 168 405q170 170 407 170q117 0 216.5 -42t185.5 -126q172 -165 172 -407zM479 579q0 94 -28.5 173.5t-67.5 139.5q-33 -33 -58.5 -66.5t-44.5 -66.5q-44 -84 -44 -193q0 -102 41 -187q11 -21 21.5 -38.5t21 -32t23 -28t28.5 -27.5q20 29 39.5 65 t36.5 78q17 48 24.5 94t7.5 89z" />
<glyph unicode="&#x1009;" horiz-adv-x="1037" d="M786 104q-64 -59 -131.5 -84t-142.5 -25q-96 0 -182 43q-23 13 -42.5 24.5t-39.5 31.5v-417q0 -63 44 -111q34 -51 108 -51h573q28 0 52 0.5t33 13.5q2 2 6 17t11 44q15 58 76 58q62 0 62 -68q0 -78 -41 -133q-31 -35 -78.5 -54t-120.5 -19h-575q-63 0 -113.5 23.5 t-92.5 69.5q-82 88 -82 210v653l-8 31q-2 5 -2 13.5v17.5q0 68 70 68q53 0 68 -60l7 -39q15 -50 41 -89.5t64 -68.5q74 -53 162 -53q120 0 197 83q92 95 92 269v140q0 86 -22.5 151.5t-67.5 115.5q-82 85 -194 85q-47 0 -91 -16t-80.5 -46t-64 -72t-40.5 -94 q-15 -58 -71 -66q-68 0 -68 78q0 13 1.5 22t3.5 14q33 156 153 240q53 46 116 68t136 22q102 0 194 -50t155 -147q20 -35 37 -68t26 -79q8 -39 11 -90t4 -98q1 -55 0 -110q0 -31 -1 -56.5t-4.5 -48.5t-10 -47t-16.5 -52q-11 -32 -22 -57.5t-25 -48.5t-31.5 -44.5 t-42.5 -43.5z" />
<glyph unicode="&#x100a;" horiz-adv-x="1675" d="M1578 495q0 -111 -32 -204.5t-89.5 -161.5t-137.5 -106t-175 -38q-45 0 -88.5 8t-83.5 26.5t-76.5 49.5t-67.5 76l-41 -44q-53 -53 -126 -81t-148 -28q-35 0 -71.5 6.5t-71.5 19.5t-66.5 31.5t-55.5 42.5v-418q0 -27 10.5 -56t30 -52.5t48 -38.5t64.5 -15h130h28 q20 0 35 2t22 12q2 2 17 61q15 58 75 58q63 0 63 -68q0 -47 -14 -85t-43.5 -65t-74.5 -41.5t-108 -14.5h-132q-62 0 -115 25t-91.5 67t-60.5 97t-22 114v653l-7 31q-2 6 -2.5 14.5t-0.5 17.5q0 68 71 68q53 0 68 -61l7 -39q14 -49 40.5 -88t62 -66.5t77.5 -42t87 -14.5 q64 0 117 25t91 71.5t59.5 111t21.5 144.5v141q0 79 -21.5 143.5t-59.5 111t-90.5 72t-113.5 25.5q-47 0 -91 -16t-80.5 -46t-64 -72t-40.5 -94q-15 -58 -70 -66q-68 0 -68 78q0 13 1 22t3 14q15 73 53.5 134t92.5 104.5t121 67.5t139 24q53 0 106 -15t101.5 -44.5t90 -72.5 t71.5 -98.5t45.5 -124t12.5 -147.5v-141q0 -126 -32 -203q18 -38 44.5 -67t59 -48.5t69 -30t72.5 -10.5q54 0 105.5 23t91.5 67.5t64.5 111t24.5 153.5v140q0 75 -19.5 139.5t-56 112t-88.5 75t-117 27.5q-18 0 -38 -2t-40 -7l-31 -5q-80 0 -80 65q0 57 56 75l63 20l63 5 q87 0 158.5 -29t135.5 -100q67 -72 100 -164.5t33 -211.5v-140z" />
<glyph unicode="&#x100b;" horiz-adv-x="1245" d="M798 13q-32 -10 -69.5 -16t-81.5 -6q-73 0 -142 20t-129.5 57.5t-111 89.5t-87 116t-56.5 138t-20 154q0 120 39.5 221.5t120.5 186.5q160 168 386 168q69 0 137.5 -18.5t132.5 -54t120.5 -87t100.5 -117.5q2 -5 6 -17.5t4 -26.5q0 -26 -13 -44t-42 -18q-23 0 -43.5 11 t-26.5 22q-25 40 -62 78.5t-85 67.5t-105.5 47t-123.5 18q-84 0 -159 -35.5t-131.5 -95.5t-89.5 -139t-33 -167q0 -87 33 -166.5t89.5 -140t132.5 -96.5t162 -36q31 0 54 2.5t45.5 9.5t48.5 19t62 30q23 17 67 22q29 0 54.5 -9.5t44.5 -28.5t30 -47t11 -65 q0 -108 -95.5 -168t-286.5 -60q-85 0 -163 9.5t-128 26.5l-82 31q0 -21 2 -33t7 -18.5t13.5 -10t21.5 -8.5q67 -21 137 -32t142 -11q42 0 78.5 2.5t74.5 10.5l60 13q16 3 34 3q27 0 51 -9t42.5 -29.5t30 -53.5t12.5 -82v-136q0 -27 19 -37.5t49 -10.5q5 0 11 0.5t12 0.5 q45 0 52 -71q0 -72 -56 -72q-41 0 -81 13.5t-71 38.5t-50 60t-19 78v128q0 19 -2 29t-7 15.5t-15 7.5l-25 5h-13q-17 -3 -41.5 -6.5t-50.5 -6.5t-51 -4.5t-44 -1.5q-49 0 -102 4t-103.5 13.5t-96 26t-79.5 41t-54 58.5t-20 80q0 12 2.5 33t11.5 41.5t26 35t46 14.5 q27 0 55.5 -3.5t43.5 -10.5q43 -19 78 -31.5t70 -20.5t73.5 -11.5t89.5 -3.5q37 0 81.5 4t83 17t64.5 38.5t26 67.5q-27 -15 -62.5 -26t-71.5 -25z" />
<glyph unicode="&#x100c;" horiz-adv-x="1252" d="M1154 857q0 -75 -70 -75q-30 0 -51 26q-37 45 -78 80.5t-88 60t-100.5 38t-114.5 13.5q-86 0 -161.5 -34.5t-131.5 -94t-89 -138t-33 -165.5t34 -167.5t93.5 -142t139.5 -98t172 -36.5q51 0 87 5.5t69.5 19.5t70 37t89.5 59q4 6 41 17q31 0 49.5 -15t18.5 -57v-551 q0 -64 -22.5 -114t-62 -84.5t-94 -52.5t-117.5 -18h-267q-78 0 -142.5 13.5t-110 41t-71 70.5t-25.5 103q0 45 24 85.5t61.5 71t84.5 48.5t94 18q45 0 92 -7t90 -18.5t77.5 -27t53.5 -32.5l41 -44q6 -4 10 -14.5t10 -29.5q0 -72 -68 -72q-25 0 -58 27q-2 2 -14.5 16.5 t-48.5 28.5q-49 18 -94.5 26.5t-87.5 8.5q-27 0 -51 -6.5t-42 -18t-28 -27t-10 -33.5q0 -51 49.5 -69.5t163.5 -18.5h267q34 0 63 5.5t50 20t33 40t12 66.5v421q-27 -15 -55.5 -29t-63 -24.5t-76 -17t-92.5 -6.5q-122 0 -226.5 44.5t-182 123t-121.5 185t-44 229.5 q0 80 19 154t54 137.5t84.5 115.5t110 89t130.5 57t147 20q76 0 145 -17t130 -48t114.5 -75.5t100.5 -99.5z" />
<glyph unicode="&#x100d;" horiz-adv-x="1291" d="M105 291q-7 13 -7 28q0 12 4 24t12 21.5t19 16t26 6.5q20 0 39 -9.5t27 -19.5q28 -51 68.5 -92t89 -70t103.5 -44.5t114 -15.5q90 0 170 34.5t140 93.5t95 138t35 169q0 91 -35 170t-95 138t-140 93t-170 34q-55 0 -110 -15.5t-104.5 -43t-89.5 -65t-64 -80.5 q-8 -13 -23.5 -21.5t-34.5 -8.5q-32 0 -48.5 22t-16.5 48q0 11 5 24q24 59 76 109.5t119 88t143 59t148 21.5q238 0 408 -170t170 -403q0 -120 -46 -224.5t-125 -181.5t-184 -121.5t-223 -44.5q-42 0 -86.5 6.5t-87.5 20t-83 34t-74 49.5q-6 2 -9 2q-11 0 -20 -11.5 t-9 -28.5q0 -10 0.5 -36.5t1 -55t2 -50.5t3.5 -23q3 -6 12 -12.5t23 -11.5q67 -23 136.5 -33t141.5 -10q41 0 77 2.5t74 9.5l59 14q16 3 33 3q27 0 51.5 -9t42.5 -29t29 -53.5t12 -81.5v-135q0 -24 17.5 -35t48.5 -11q6 0 12 0.5t13 0.5q44 0 52 -71q0 -26 -6.5 -40.5 t-18 -21.5t-28.5 -8t-38 -1q-30 0 -58.5 6.5t-57.5 33.5q-34 26 -51 65.5t-17 81.5v128q0 18 -10 29t-21 17q-13 7 -30 10q-17 -3 -41 -6.5t-50 -6.5t-51 -4.5t-43 -1.5q-84 0 -163 13t-160 39q-26 8 -49.5 22.5t-40.5 35.5t-27 48.5t-10 61.5q0 9 -1.5 34.5t-1.5 57.5 q0 29 2 59.5t8 56.5t16.5 43.5t27.5 20.5q-14 18 -25.5 36t-21.5 38z" />
<glyph unicode="&#x100e;" horiz-adv-x="1386" d="M1276 591q0 -244 -170 -422q-170 -176 -408 -176q-236 0 -407 174q-87 88 -128.5 193.5t-41.5 230.5q0 42 9.5 82.5t30.5 72t55 51t83 19.5q8 0 23.5 2t31.5 10.5t29.5 26.5t16.5 50q0 39 -24 65t-69 32q-28 0 -49.5 -10.5t-32.5 -31.5q-11 -20 -30.5 -28t-37.5 -8 q-19 0 -31.5 7.5t-19.5 17.5t-10 21t-3 18q0 15 4 27.5t7 18.5q70 106 207 106q27 0 48.5 -3t41 -11.5t38 -22.5t38.5 -35q32 -34 48 -74t16 -91q0 -45 -18 -86t-50 -72.5t-76 -50t-96 -18.5q-27 0 -34.5 -24t-7.5 -61q0 -88 35 -170t95 -145.5t139.5 -101.5t169.5 -38 q175 0 305 133q135 132 135 322q0 130 -56.5 233.5t-171.5 187.5q-6 4 -12 12.5t-11.5 18.5t-9 21.5t-3.5 21.5q0 16 7 27t17.5 17.5t21.5 9t19 2.5q10 0 19 -2t17 -4q9 -3 16 -6q285 -205 285 -539z" />
<glyph unicode="&#x100f;" horiz-adv-x="1777" d="M1675 482q0 -68 -19.5 -135t-54 -128.5t-82.5 -114.5t-106 -91q-3 -2 -14 -5.5t-25 -3.5q-9 0 -20 3t-21.5 10t-17.5 19.5t-7 31.5q0 18 8.5 34t21.5 24q42 30 78.5 69t63 85t41.5 97t15 105v193q0 63 -17.5 122.5t-50 105t-78.5 73t-103 27.5t-104 -21t-97 -67v-696 q0 -51 -15.5 -93t-43.5 -72t-67 -46.5t-86 -16.5q-39 0 -76 15t-66 43.5t-46.5 70.5t-17.5 96l3 681l-3 35q-9 13 -27.5 25.5t-42.5 22.5t-52.5 16.5t-57.5 6.5q-54 0 -99.5 -27.5t-78 -73t-51 -104.5t-18.5 -123v-193q0 -51 16 -104t43 -101t62.5 -87.5t73.5 -63.5 q10 -5 20.5 -24t10.5 -40q0 -17 -8 -28.5t-18.5 -18.5t-21 -10t-14.5 -3q-26 0 -55.5 18.5t-59 46.5t-56.5 62t-47 65q-85 135 -85 288v193q0 97 30 181.5t82.5 147.5t123.5 99t152 36q66 0 122.5 -16.5t104.5 -54.5q16 19 36 32t42 21t43.5 12t39.5 4q57 0 99 -20t65 -58 l91 51q67 29 154 29q81 0 152 -36.5t123.5 -99.5t82.5 -147.5t30 -180.5v-193zM954 219v681q0 44 -21 71t-59 32q-11 0 -23 -5t-21.5 -17t-15.5 -31t-6 -47l2 -687q0 -26 3.5 -42t11.5 -26t21 -14.5t32 -7.5q29 0 52.5 24t23.5 69z" />
<glyph unicode="&#x1010;" horiz-adv-x="1732" d="M1623 494q0 -123 -35.5 -217.5t-96.5 -159t-141 -97.5t-169 -33l-55 3q-72 0 -79 81q0 30 23.5 51t75.5 21l49 -2q51 0 102.5 24.5t92.5 70t66.5 111t25.5 147.5v139q0 79 -21.5 144.5t-60.5 111.5t-94 71.5t-121 25.5q-84 0 -144 -35t-103 -100q17 -51 26 -103t9 -110 v-138q0 -125 -40 -220.5t-103 -160t-140.5 -97t-152.5 -32.5q-85 0 -164 36.5t-139.5 103.5t-97 162t-36.5 212v149q0 224 133 353q134 131 307 131q94 0 177.5 -37.5t144.5 -115.5q25 34 62 61.5t80.5 47.5t91.5 31t94 11q90 0 169 -34.5t137.5 -99t92.5 -157.5t34 -211 v-139zM832 500v138q0 80 -22.5 145t-62 110.5t-93 70.5t-114.5 25q-60 0 -114.5 -22t-95.5 -64.5t-65 -105.5t-24 -144v-149q0 -79 20.5 -144.5t58.5 -113t92.5 -74t122.5 -26.5q65 0 119.5 27t94 74.5t61.5 112t22 140.5z" />
<glyph unicode="&#x1011;" horiz-adv-x="1727" d="M1627 502q0 -112 -33.5 -205.5t-93 -161t-140.5 -105t-175 -37.5q-47 0 -93.5 10.5t-88.5 31t-78 50.5t-63 69q-60 -73 -143.5 -113t-179.5 -40q-91 0 -170 37t-137.5 104t-92 161t-33.5 209v148q0 112 37 201.5t98.5 152.5t140.5 96.5t164 33.5q93 0 178 -38t143 -116 q25 33 61.5 61t80 48t91.5 31t95 11q90 0 168.5 -34t137 -98.5t92.5 -157.5t34 -211v-138zM1487 502v138q0 81 -22 146.5t-62 111t-94.5 70.5t-118.5 25q-84 0 -144 -35t-103 -101q35 -100 35 -212v-138q0 -116 -35 -203q20 -37 43.5 -65.5t58.5 -45.5q35 -23 73 -33.5 t77 -10.5q54 0 106.5 24t93.5 69.5t66.5 111t25.5 148.5zM837 507v138q0 79 -22 143.5t-61 110.5t-92 71.5t-116 25.5q-60 0 -114.5 -22t-95.5 -64.5t-65 -105.5t-24 -144v-148q0 -78 20.5 -144t59 -113.5t92.5 -74t122 -26.5q65 0 119.5 27t93.5 74.5t61 112t22 139.5z" />
<glyph unicode="&#x1012;" horiz-adv-x="1252" d="M1149 353q0 -84 -39 -151t-106.5 -113.5t-157.5 -71t-193 -24.5q-102 0 -181.5 12t-143.5 38.5t-117 69t-104 103.5q-4 6 -7 13q-2 6 -4 14t-2 18q0 7 3.5 19t11 23.5t20.5 20t31 8.5q15 0 29 -6.5t24 -14.5q85 -102 199 -147q24 -8 88 -20t153 -12q75 0 140 13.5t114 41 t77 69t28 97.5q0 37 -23.5 66t-67 49t-106 30t-140.5 10q-35 0 -57.5 16t-22.5 51t22.5 53.5t57.5 18.5q72 0 133 12.5t105 38t69 64t25 89.5q0 35 -31.5 63.5t-94.5 53.5q-64 17 -131.5 25.5t-148.5 8.5q-74 0 -135 -6.5t-109 -22.5t-81.5 -43t-50.5 -69q-8 -17 -22 -33 t-39 -16q-38 0 -54.5 23t-16.5 52q0 8 2 18q18 54 59.5 98t105.5 74.5t149.5 47t191.5 16.5q113 0 212 -19.5t173 -56.5t116.5 -90t42.5 -120q0 -45 -8 -83t-26 -70t-46.5 -60t-69.5 -55q85 -49 119.5 -104.5t34.5 -129.5z" />
<glyph unicode="&#x1013;" horiz-adv-x="1362" d="M1255 563q0 -79 -20.5 -152t-58 -136.5t-90 -116t-116.5 -90.5t-137.5 -58.5t-153.5 -20.5q-118 0 -218.5 40.5t-186.5 125.5t-128.5 185.5t-42.5 222.5q0 237 168 405q171 171 408 171q118 0 217.5 -42t185.5 -126q173 -170 173 -408zM1117 565q0 87 -35 165.5 t-95 138.5t-139.5 95.5t-168.5 35.5q-90 0 -169.5 -35t-139 -94.5t-94.5 -139t-35 -168.5q0 -64 16 -121.5t56 -111.5q30 39 70.5 68.5t86 49.5t95 30t99.5 10q52 0 104.5 -11t101.5 -33t92 -55t76 -76q12 21 25.5 44t25 52.5t19.5 67t9 88.5zM939 214q-48 66 -118.5 101 t-151.5 35q-40 0 -79 -9.5t-74 -26t-63.5 -40t-47.5 -50.5q118 -96 274 -96q144 0 260 86z" />
<glyph unicode="&#x1014;" horiz-adv-x="1263" d="M1165 329q0 -72 -29.5 -132.5t-87 -104.5t-143.5 -68.5t-198 -24.5v-267q0 -71 -66 -71q-68 0 -68 71v264q-233 0 -354 74.5t-121 225.5q0 44 18 81.5t50 65t76.5 43t97.5 15.5l48 -3q17 0 31.5 -2t25.5 -8q59 -14 107.5 -44.5t83 -75t53 -102t18.5 -125.5q5 0 11 -0.5 t11 -0.5q69 0 124.5 14t94.5 39t60 59.5t21 76.5q0 122 -117 202q-29 20 -90.5 45t-148.5 54q-168 56 -201 79q-115 67 -115 196q0 66 26 111.5t68 74t94 41.5t104 13q44 0 91 -6.5t87 -20t67 -35t31 -50.5q0 -59 -71 -67q-26 10 -55 19q-25 8 -58 14t-69 6q-37 0 -70 -4 t-57.5 -14.5t-39 -29.5t-14.5 -49q0 -21 9 -38t26 -31q15 -14 64 -31.5t125 -44.5q123 -38 209 -79t139.5 -92t77.5 -115t24 -148zM573 136q0 89 -41 145.5t-126 77.5l-41 7q-27 0 -51 -5.5t-42 -15t-29 -22.5t-11 -27q0 -84 89 -122t252 -38z" />
<glyph unicode="&#x1015;" horiz-adv-x="1363" d="M1273 579q0 -243 -174 -414q-172 -176 -413 -176q-243 0 -414 173q-173 173 -173 417q0 174 68 309.5t209 220.5q3 1 7 2q10 2 20 2q6 0 18 -3t24 -10.5t21 -21t9 -35.5q0 -19 -8 -35.5t-18 -21.5q-111 -76 -160.5 -173.5t-49.5 -233.5q0 -92 37.5 -174t99.5 -143.5 t142.5 -97t167.5 -35.5q91 0 172.5 37.5t142.5 100.5t96.5 144t35.5 168q0 128 -58.5 229t-173.5 182q-10 13 -19 31.5t-9 37.5q0 17 6.5 28.5t16 18.5t20.5 10t19 3q17 0 30.5 -5.5t18.5 -9.5q146 -100 217.5 -229t71.5 -296z" />
<glyph unicode="&#x1016;" horiz-adv-x="1363" d="M1263 588q0 -245 -171 -422q-171 -176 -411 -176q-119 0 -220.5 43.5t-189.5 130.5q-171 175 -171 424q0 183 67.5 317.5t207.5 223.5q4 2 13 5t21 3q9 0 22 -4t24 -13t19 -24t8 -36q0 -20 -11 -32.5t-22 -20.5q-105 -69 -158 -178t-53 -241q0 -89 35.5 -171t96 -145 t141 -101t170.5 -38q63 0 129 20t124 59q-57 45 -103.5 101.5t-79.5 122t-51.5 139t-18.5 153.5q0 72 18.5 143.5t52.5 129t83 95t111 43.5q25 0 47 -22q270 -210 270 -529zM1124 588q0 119 -48 218t-147 178q-26 -13 -46.5 -37.5t-34.5 -57t-21 -72t-7 -81.5 q0 -47 12 -104.5t38 -115.5t66 -110.5t97 -88.5q47 60 69 127t22 144z" />
<glyph unicode="&#x1017;" horiz-adv-x="1363" d="M1258 584q0 -245 -170 -420q-169 -175 -409 -175q-119 0 -220 43t-189 129q-170 176 -170 423q0 171 65.5 304.5t200.5 225.5q10 9 32 15t39 6q30 0 37 -17.5t10 -51.5q0 -54 16 -94.5t43 -68t61 -41.5t70 -14q37 0 71 14t59.5 41.5t41 69t15.5 95.5q0 34 10.5 52 t37.5 18q26 0 50.5 -11t32.5 -24q266 -209 266 -519zM1120 584q0 199 -143 342q-17 -52 -48 -94t-71.5 -72t-89 -46t-99.5 -16q-62 0 -111.5 18.5t-87 50.5t-64 73.5t-42.5 88.5q-23 -25 -43.5 -57t-40.5 -72q-17 -48 -29.5 -106t-12.5 -110q0 -88 35 -169.5t95 -144.5 t140 -101t171 -38q86 0 165.5 36.5t141 99t98 144.5t36.5 173z" />
<glyph unicode="&#x1018;" horiz-adv-x="1704" d="M1600 503q0 -107 -33.5 -199t-91.5 -159.5t-137.5 -105.5t-170.5 -38q-52 0 -86 7.5t-54.5 20.5t-30.5 31.5t-14 39.5q0 62 77 69l76 -15l47 -2q60 0 110.5 25.5t88 71.5t58.5 111t21 143v138q0 75 -20.5 139.5t-58.5 112t-92.5 74t-121.5 26.5q-81 0 -142 -40.5 t-104 -112.5q17 -38 24.5 -92t7.5 -112v-138q0 -55 -11.5 -119t-38.5 -126t-72 -116t-112 -89q-104 -49 -199 -49q-74 0 -140.5 23.5t-120.5 67t-93.5 105.5t-58.5 139l-3 27q0 79 69 79q52 0 69 -64q14 -53 43 -95t67.5 -71.5t83 -45t89.5 -15.5q65 0 118 24.5t91 70 t58.5 110t20.5 144.5v138q0 85 -23 150t-63 109t-94 67t-115 23q-46 0 -90 -13t-80.5 -42.5t-64.5 -76t-41 -113.5q-12 -54 -69 -62q-71 0 -71 71v15.5t2 11.5q16 84 55 151t94.5 114t124 72t142.5 25q93 0 173.5 -37.5t146.5 -112.5q29 42 67.5 72t80.5 49.5t86.5 29 t85.5 9.5q87 0 166.5 -34.5t140 -100t97 -159.5t36.5 -213v-138z" />
<glyph unicode="&#x1019;" horiz-adv-x="1363" d="M1257 594q0 -244 -170 -422q-170 -176 -408 -176q-119 0 -220 43.5t-189 130.5q-170 176 -170 424q0 91 17 164t51.5 133t85.5 110t119 94q10 6 19 8t18 2q29 0 46 -18t23 -50q0 -23 -7.5 -38.5t-24.5 -25.5q-52 -35 -91 -74t-65.5 -84.5t-39.5 -100t-13 -120.5 q0 -117 52 -215q31 36 73.5 66t92 51.5t104 34t109.5 12.5q115 0 217.5 -40.5t178.5 -125.5q28 50 41 103.5t13 113.5q0 64 -14.5 116t-43 97t-71.5 86t-100 82q-27 24 -27 59q0 71 69 71l39 -12q71 -51 124.5 -104t89.5 -113t54 -129.5t18 -152.5zM979 262q-24 26 -56 49 t-71 40.5t-84.5 28t-96.5 10.5q-45 0 -87.5 -9.5t-80.5 -26.5t-69.5 -40.5t-54.5 -51.5q66 -61 145.5 -92t154.5 -31q94 0 170 34.5t130 88.5z" />
<glyph unicode="&#x101a;" horiz-adv-x="1715" d="M1623 485q0 -103 -33 -192.5t-91 -156t-135.5 -104.5t-165.5 -38q-100 0 -185 38t-148 115q-27 -35 -65 -64t-82 -50t-92 -32.5t-94 -11.5q-193 0 -311 148q-32 38 -55 76.5t-37 79.5t-20.5 86t-6.5 96v163q0 81 13.5 155t38.5 136.5t61.5 110.5t81.5 77l40 12 q71 0 71 -69q0 -42 -32 -57q-38 -28 -63 -67.5t-41 -87.5t-22.5 -101.5t-6.5 -108.5v-163q0 -70 22.5 -133t61.5 -111t92 -76t113 -28q63 0 118 29t95.5 79t64 116.5t23.5 141.5v160q0 59 -9.5 107.5t-31.5 91t-58 81.5t-89 80q-24 31 -24 57q0 69 69 69q21 0 42 -15 q67 -49 113 -100t74.5 -107.5t41.5 -121.5t13 -142v-153l2 -42q0 -87 -35 -180l70 -79q35 -35 82 -51t105 -16q64 0 116.5 30.5t89.5 80t57.5 113t20.5 129.5v148q0 74 -20 141t-58.5 117.5t-94.5 80t-128 29.5t-72 69t72 69q99 0 180.5 -38.5t139.5 -106.5t90 -160.5 t32 -200.5v-148z" />
<glyph unicode="&#x101b;" horiz-adv-x="1440" d="M1489 -263q-9 -54 -28 -93t-45 -63.5t-58 -36t-67 -11.5q-38 0 -74.5 14t-65.5 39.5t-46.5 61t-17.5 78.5l3 856q0 83 -34.5 159t-93.5 134t-137 92.5t-165 34.5q-84 0 -161.5 -33.5t-137 -91.5t-95 -136.5t-35.5 -169.5q0 -88 33.5 -166t91.5 -136.5t136.5 -92.5 t167.5 -34q12 0 34 3.5t44.5 7t41 7t24.5 3.5q58 0 65 -67q0 -19 -15 -36t-43 -30t-66.5 -20.5t-84.5 -7.5q-226 0 -396 167q-86 84 -127 184.5t-41 217.5t40.5 217t124.5 182q165 169 399 169q230 0 398 -169q85 -82 126.5 -182t41.5 -217l-2 -841q5 -32 22 -46t41 -14 q16 0 28 8t20.5 19.5t13.5 24.5t6 22q8 35 24 52t36 24q75 0 75 -70q0 -3 -0.5 -6t-0.5 -7z" />
<glyph unicode="&#x101c;" horiz-adv-x="1743" d="M1624 498q0 -117 -33.5 -211t-90.5 -160.5t-132 -102t-159 -35.5q-81 0 -153.5 32.5t-127.5 96t-87.5 158t-32.5 218.5v138q0 81 -21 147t-58.5 113t-89 72.5t-113.5 25.5t-114.5 -24.5t-90 -68.5t-58.5 -105t-21 -135v-151q0 -77 22 -143t61 -114t93.5 -75t119.5 -27 l60 5q4 0 8 1q10 2 21 2q12 0 25 -3t24.5 -11.5t19 -23.5t7.5 -40q0 -27 -18.5 -43.5t-45 -24.5t-55 -10.5t-48.5 -2.5q-87 0 -166 34.5t-139 100t-95 160.5t-35 215v151q0 111 34 200.5t91.5 152t134.5 96t163 33.5q88 0 165 -35.5t135 -101t91.5 -159.5t33.5 -211v-138 q0 -87 20 -153t55 -110.5t81.5 -67.5t100.5 -23q52 0 102 25.5t89 72t62.5 112.5t23.5 148v139q0 81 -22.5 147t-61.5 113.5t-90 73t-108 25.5q-30 0 -54 -10t-46 -10q-8 0 -21 3.5t-25 12.5t-20.5 24.5t-8.5 39.5q0 27 21 44.5t53 26.5l101 12q87 0 163.5 -33.5 t134.5 -97.5t91.5 -157.5t33.5 -213.5v-139z" />
<glyph unicode="&#x101d;" horiz-adv-x="1363" d="M1255 563q0 -79 -20.5 -152t-58 -136.5t-90 -116t-116.5 -90.5t-138 -58.5t-153 -20.5q-236 0 -406 166q-171 168 -171 408q0 239 169 406q170 170 408 170q118 0 217 -42t186 -126q173 -168 173 -408zM1116 563q0 88 -35 167.5t-94.5 139.5t-139 95.5t-168.5 35.5 t-168.5 -34.5t-139.5 -94.5t-95 -139.5t-35 -169.5t35 -169t95 -138.5t139.5 -93.5t168.5 -34t168.5 35t139 94t94.5 138t35 168z" />
<glyph unicode="&#x101e;" horiz-adv-x="1699" d="M1600 506q0 -119 -36.5 -213.5t-97 -159.5t-140 -99.5t-166.5 -34.5q-41 0 -85.5 9t-86.5 28.5t-80.5 50t-67.5 72.5q-66 -75 -146.5 -112.5t-173.5 -37.5q-74 0 -142.5 25t-124 72t-94.5 114t-55 151q-2 5 -2 11.5v15.5q0 71 71 71q57 -8 69 -62q13 -67 41 -113.5 t64.5 -76t80.5 -42.5t90 -13q61 0 115 22.5t94 67t63 109.5t23 150v138q0 80 -20.5 144.5t-58.5 110t-91 70t-118 24.5q-45 0 -89.5 -15.5t-83 -45t-67.5 -71.5t-43 -95q-17 -64 -69 -64q-69 0 -69 79l3 27q19 77 58.5 139t93.5 105.5t120.5 67t140.5 23.5q95 0 199 -49 q67 -35 112 -89t72 -116t38.5 -126t11.5 -119v-138q0 -58 -7.5 -112t-24.5 -92q43 -72 104 -112.5t142 -40.5q67 0 121.5 26.5t92.5 74t58.5 112t20.5 139.5v138q0 78 -21 143t-58.5 111t-88 71.5t-110.5 25.5l-47 -2l-76 -15q-77 7 -77 69q4 21 14 39.5t30.5 31.5 t54.5 20.5t86 7.5q91 0 170.5 -38t137.5 -105.5t91.5 -159.5t33.5 -199v-138z" />
<glyph unicode="&#x101f;" horiz-adv-x="1721" d="M1619 481q0 -100 -32 -189t-90.5 -156t-139.5 -106t-179 -39q-18 -1 -40.5 2.5t-42 12t-32.5 22.5t-13 35q0 25 6.5 40t16.5 23.5t21.5 11t21.5 2.5q5 0 9 -0.5t8 -0.5l54 -10q63 0 116.5 28.5t92.5 77t60.5 112.5t21.5 134v148q0 79 -20.5 147t-59 117.5t-94.5 77.5 t-126 28q-40 0 -76 -10t-66.5 -28t-54.5 -43t-40 -55q30 -89 30 -192v-180q0 -110 -33.5 -202t-92.5 -158t-140 -103t-175 -37q-86 0 -163.5 33t-136.5 94.5t-94 150.5t-35 202v195q0 146 54 264.5t158 195.5q5 3 20.5 8t33.5 5q23 0 41 -15.5t18 -46.5q0 -17 -7.5 -34.5 t-21.5 -27.5q-33 -23 -61.5 -60t-49.5 -83.5t-33 -99t-12 -106.5v-195q0 -73 22 -134t60.5 -105t92 -68.5t116.5 -24.5t117.5 25.5t94.5 72t63 111t23 143.5v180l-7 94q-3 24 -12 50.5t-21 51.5t-26 47.5t-27 37.5q-16 22 -34 35.5t-33.5 24.5t-26 24t-10.5 34q0 12 3 24 t10.5 22.5t20 17t31.5 6.5q17 0 40 -8.5t47 -25t48 -41t42 -57.5q27 30 62.5 54t76 41.5t84.5 26.5t89 9q91 0 170 -33t137 -97.5t91.5 -160t33.5 -219.5v-148z" />
<glyph unicode="&#x1020;" horiz-adv-x="1265" d="M1156 865q0 -75 -70 -75q-25 0 -49 25q-41 43 -81.5 77.5t-85.5 58t-96.5 36t-113.5 12.5q-85 0 -161.5 -34t-134.5 -92.5t-92 -137t-34 -168.5q0 -92 33 -170.5t90 -135.5t133.5 -89.5t163.5 -32.5h67t58 6t57.5 21.5t65.5 47.5q41 35 95 35q33 0 60 -13t46.5 -34.5 t30.5 -51t11 -62.5q0 -48 -31 -99t-91 -92.5t-148 -68t-202 -26.5q-103 0 -190 21.5t-162 63.5v-210q0 -81 45.5 -124t131.5 -43h258q42 0 79 3.5t65 11.5t44 21t16 33q0 41 -29.5 57.5t-77.5 16.5l-80 -7q-20 -3 -45 -10t-50.5 -17t-49.5 -23.5t-42 -29.5q-3 -3 -14 -6 t-25 -3q-27 0 -47.5 17.5t-20.5 43.5q0 24 33.5 47.5t81.5 43.5t100 34.5t89 21.5l34 5h36q48 0 92.5 -13t79 -36t55 -56.5t20.5 -73.5q0 -50 -29 -91t-77 -70t-110 -45t-128 -16h-258q-71 0 -129 22t-99 62.5t-63 98t-22 128.5v340q0 16 2.5 25t9 14t18.5 7t31 5 q29 0 53 -24q33 -34 74.5 -58.5t89.5 -40.5t101 -24t107 -8q38 0 79 5.5t81 17t76 29.5t65 42q34 23 34 58q0 42 -7 42q-45 -35 -80 -57t-72.5 -34t-82.5 -16.5t-110 -4.5q-229 0 -393 166q-83 84 -123 184t-40 219q0 236 160 403q163 170 394 170q70 0 133.5 -13t122 -40.5 t114.5 -71.5t113 -106z" />
<glyph unicode="&#x1021;" horiz-adv-x="1738" d="M1093 208q0 -40 28 -68t68 -28q41 0 69 28t28 68q0 41 -28 68.5t-69 27.5q-40 0 -68 -27.5t-28 -68.5zM1492 502v151q0 72 -20.5 133t-57.5 106t-89 70t-116 25q-43 0 -78 -7t-64.5 -23t-55.5 -41.5t-51 -62.5l5 -39q0 -69 -34 -127t-104 -95q128 -98 128 -282 q0 -71 -33.5 -130t-91 -101.5t-133.5 -66.5t-161 -24q-78 0 -147.5 17t-126.5 51t-99 83.5t-64 114.5q-3 9 -5.5 17.5t-1.5 14.5q0 6 5 17.5t14 22t21 18.5t27 8q24 0 43.5 -15t27.5 -34q15 -45 44 -78.5t69 -55.5t89 -33t104 -11q58 0 109 13.5t88.5 38.5t59 60t21.5 78 q0 44 -16 82.5t-41 67.5t-57 47.5t-63 23.5q-51 0 -74.5 21t-29.5 52q0 59 69 66q47 0 87.5 7.5t70.5 24t47 42t17 62.5q0 46 -26.5 81.5t-68 59.5t-92.5 36.5t-101 12.5q-66 0 -121.5 -9.5t-95 -29t-62 -49t-22.5 -68.5q0 -18 6 -37.5t18.5 -35.5t31 -26t42.5 -10l20 2 q6 1 11.5 1.5t10.5 0.5q56 0 62 -67q0 -63 -57 -71l-44 -2q-58 0 -103 19.5t-76 53t-47 78t-16 94.5q0 67 33 121t91.5 92t140 59t177.5 21q54 0 106.5 -10.5t99.5 -29.5t86 -44t65 -55q62 62 139.5 93t176.5 31q94 0 172 -37t134 -100.5t87 -149.5t31 -183v-151 q0 -264 -116 -392q-47 -52 -111.5 -85.5t-149.5 -33.5q-54 0 -106 9.5t-93.5 34t-66.5 67t-25 107.5q0 46 19.5 85.5t51.5 68.5t74 45t87 16q45 -1 84 -16.5t68 -44.5t48 -69.5t24 -90.5q19 14 32.5 36.5t22 58t12.5 85.5t4 119z" />
<glyph unicode="&#x1022;" horiz-adv-x="1741" d="M1641 499q0 -106 -27.5 -191t-81.5 -154q-63 -79 -145.5 -119.5t-186.5 -40.5q-72 0 -72 69t72 69q145 0 226 111q74 102 74 256v148q0 139 -81 247q-78 106 -200 106q-25 0 -45 -2.5t-37.5 -7.5t-33.5 -12.5t-34 -17.5q-28 -20 -55.5 -46t-53.5 -59q35 -87 35 -178 l-2 -40v-157q0 -189 -84 -313q-28 -45 -69 -86.5t-91 -73.5q-23 -10 -43 -12q-17 -2 -35 5.5t-29 33.5q-5 12 -4.5 25t4.5 24.5t10.5 21t14.5 15.5q39 32 70 61.5t51 61.5q18 25 29.5 50.5t19 53.5t10.5 60.5t3 72.5v160q0 149 -87 259q-84 106 -214 106q-124 0 -207 -101 q-39 -52 -59 -113t-20 -134v-140v-15q2 -20 13 -31t24 -11q96 0 168 -64q38 -37 54.5 -74.5t16.5 -88.5q0 -50 -16 -90.5t-48 -74.5q-20 -21 -38.5 -34.5t-38 -22t-41 -11.5t-47.5 -3q-138 0 -207 106q-3 6 -7 18.5t-4 27.5t8 30.5t29 27.5q6 4 19 5t27 -2t27.5 -10.5 t21.5 -22.5q11 -21 32 -31.5t49 -10.5q45 5 69.5 31t24.5 65q-4 32 -17 50t-29 26.5t-31.5 10.5t-23.5 2q-42 0 -75 16t-56 43t-35 62.5t-12 73.5v142q0 188 123 338q123 148 306 148q106 0 207 -52q22 -11 39.5 -22t32.5 -23t29 -26t29 -33q32 35 63 59.5t63 41.5 q89 50 205 50q97 0 174 -36.5t134 -108.5q57 -73 86.5 -159t29.5 -187v-148z" />
<glyph unicode="&#x1023;" horiz-adv-x="1704" d="M1456 -344v-77q0 -33 1 -77h80q50 0 50 -65q0 -67 -50 -67h-128q-29 0 -48.5 16t-19.5 51q-1 58 -2 106q0 20 -0.5 39.5t-1 35t-0.5 26v12.5q0 36 -15.5 70t-43 60.5t-66 42t-84.5 15.5t-84.5 -15t-66.5 -40.5t-43.5 -59.5t-15.5 -73q0 -13 -6 -23.5t-15 -18.5 t-20.5 -12.5t-23.5 -4.5q-20 0 -35 14.5t-16 47.5q-1 35 -16.5 68.5t-42.5 59.5t-65.5 41.5t-85.5 15.5q-44 0 -82 -15t-66 -40.5t-43.5 -59.5t-15.5 -73q0 -26 8.5 -52t25.5 -49t43.5 -42t62.5 -30q11 -5 21.5 -20t10.5 -35q0 -22 -15.5 -37.5t-36.5 -15.5q-13 0 -24 4 q-48 15 -87 42.5t-66.5 64t-43 80t-15.5 90.5q0 64 24.5 119.5t68 96t102.5 63.5t128 23q45 0 90 -12t87 -32q27 -18 49 -39.5t42 -44.5q19 27 48.5 50t65 40.5t75 27.5t79.5 10q69 0 129 -24t104.5 -65.5t69.5 -96.5t25 -116zM1588 505q0 -108 -32 -199.5t-89 -158.5 t-136.5 -105t-174.5 -38q-70 0 -70 70q0 69 70 69q69 0 124 28.5t92.5 77.5t57.5 115t20 141v144q0 67 -20 130t-56.5 111.5t-87.5 77.5t-113 29q-33 0 -60.5 -4t-51.5 -13.5t-45 -25t-42 -38.5l-53 -62q37 -95 37 -178q0 -19 -5 -39v-166q0 -88 -16.5 -160t-48.5 -127 q-9 -18 -41.5 -54t-86.5 -92q-9 -9 -20 -14.5t-23 -9.5q-64 0 -70 72q0 32 21 54l68 72q46 50 62.5 112t16.5 147v171q0 74 -22 139.5t-61.5 114.5t-93.5 77.5t-117 28.5q-62 0 -113.5 -28.5t-89 -76.5t-58.5 -110t-21 -128v-160q0 -53 6.5 -106t21.5 -101t40 -87.5 t62 -64.5q31 -17 31 -57q0 -69 -70 -69q-7 2 -15.5 4t-22.5 10q-44 28 -79.5 75t-60.5 108.5t-38 134.5t-13 153v160q0 96 31 183t86.5 153.5t132.5 105.5t170 39q47 0 94 -11.5t89.5 -32.5t79 -49.5t63.5 -61.5q60 71 143 110.5t183 39.5q87 0 162.5 -37.5t131.5 -103.5 t88.5 -154.5t32.5 -190.5v-144z" />
<glyph unicode="&#x1024;" horiz-adv-x="1430" d="M1365 1308q0 -64 -66 -64q-62 0 -62 64q0 33 -12.5 62.5t-34.5 52t-51.5 36t-63.5 13.5q-31 0 -59 -12t-49.5 -33.5t-34.5 -52.5t-13 -68q0 -60 32.5 -95t86.5 -56q66 -32 111.5 -68.5t74 -79t41.5 -91.5t13 -106v-1195q0 -64 -65 -64q-64 0 -64 64v1190q0 34 -9 68 t-29 64.5t-51 55.5t-74 43q-44 16 -80 42.5t-61.5 63.5t-40 82.5t-14.5 98.5q0 58 23.5 109t63.5 88.5t92 59.5t109 22t108.5 -23.5t91.5 -63.5t63.5 -93.5t23.5 -113.5zM1100 730l-5 -937q0 -97 -34 -175.5t-99.5 -134t-161 -85.5t-218.5 -30q-117 0 -208.5 18t-154.5 53 t-95.5 86.5t-32.5 119.5q0 58 24 102t67 74t102 45.5t129 15.5q27 0 56 -1t62.5 -8t71 -22t81.5 -43l117 -90q18 -8 26 -46q0 -72 -63 -72q-11 0 -24.5 8.5t-30 21.5t-36.5 29.5t-42 32.5q-32 17 -56.5 28.5t-47.5 18.5t-48 10t-59 3q-44 0 -81 -7t-63.5 -21t-41 -34 t-14.5 -47q0 -29 31 -56t82 -47t116 -32t133 -12q88 0 158 18t119 54.5t75 91.5t26 130v940q0 30 -10 56.5t-28.5 46t-44 31t-56.5 11.5t-59 -10.5t-49.5 -29.5t-34 -45.5t-12.5 -59.5q0 -66 -62 -66q-65 0 -65 66q0 29 -11.5 56.5t-31.5 49t-48 34.5t-62 13 q-29 0 -55.5 -11.5t-46.5 -32t-32 -49.5t-12 -63q0 -36 11 -63.5t33 -51.5q8 -9 14 -19.5t9 -21.5q0 -72 -63 -72q-28 0 -48 20q-85 83 -85 211q0 61 23 113t61 89.5t88.5 59t105.5 21.5q25 0 52.5 -5.5t55.5 -17.5t55.5 -32t51.5 -48q42 54 96.5 78.5t121.5 24.5 q61 0 112 -23.5t88 -63t57.5 -90.5t20.5 -106z" />
<glyph unicode="&#x1025;" horiz-adv-x="1276" d="M1165 564q0 -239 -162 -408q-82 -86 -178.5 -128t-214.5 -42q-53 0 -100 6.5t-90.5 21.5t-83.5 39.5t-79 60.5v-391q0 -45 14 -84t38 -67.5t56 -45t68 -16.5h440q33 0 60.5 9t47.5 26.5t31 41.5t11 54q0 70 68 70q67 0 67 -70q0 -65 -23 -115t-62.5 -84.5t-91 -52.5 t-108.5 -18h-445q-62 0 -117.5 27.5t-98.5 75t-68 111.5t-25 136v548l-7 29q0 70 66 70q15 -1 28.5 -5.5t24.5 -16.5l14 -17q79 -107 165.5 -156t199.5 -49q85 0 161 36t133.5 96.5t91.5 140t34 167.5q0 89 -30.5 168.5t-84.5 139t-128 94.5t-160 35q-63 0 -122.5 -20 t-111 -53.5t-95 -77t-75.5 -91.5q-8 -12 -20.5 -19.5t-32.5 -11.5q-70 0 -70 72l12 39q46 67 106 123t128 95.5t140.5 61.5t144.5 22q112 0 205 -43t172 -131q78 -87 117.5 -187t39.5 -216z" />
<glyph unicode="&#x1026;" horiz-adv-x="1276" d="M835 1398q-2 46 -19.5 86.5t-48.5 70.5t-72 47.5t-89 17.5q-47 0 -89 -18t-73.5 -49t-50 -73.5t-18.5 -91.5q0 -24 3.5 -42.5t11.5 -36.5q45 40 98 63t109 23q62 0 118 -21t107 -65q13 27 13 72v17zM601 1157q38 0 74.5 9.5t68.5 32.5q-68 63 -143 63q-42 0 -75.5 -13.5 t-62.5 -43.5q61 -48 138 -48zM1160 584q0 -238 -162 -407q-161 -168 -391 -168q-53 0 -99.5 6.5t-89 21t-82.5 38.5t-80 60v-388q0 -44 13.5 -82.5t37.5 -67t56 -45t69 -16.5h437q65 0 107 34.5t42 94.5q0 70 68 70q66 0 66 -70q0 -64 -23 -114t-62 -84.5t-90 -52.5 t-108 -18h-442q-62 0 -117.5 27.5t-97.5 75t-67 110.5t-25 135v546l-8 29q0 69 65 69q34 0 52 -21l15 -17q41 -54 81.5 -92.5t84 -63t92 -36.5t105.5 -12q84 0 160 35t133 95t90.5 139.5t33.5 168.5q0 88 -30 167t-83 138t-126.5 93.5t-160.5 34.5q-63 0 -122.5 -17.5 t-115.5 -56.5q-29 -23 -51 -41t-41 -36.5t-36 -39t-36 -48.5q-13 -25 -53 -32q-69 0 -69 72l12 38q24 36 54 71.5t64.5 67.5t73.5 58.5t81 44.5q-70 58 -106.5 127.5t-36.5 157.5q0 72 27 138.5t75 118t113.5 82.5t142.5 31q72 0 138.5 -29t117.5 -79t81.5 -117t30.5 -143 q0 -78 -30 -149.5t-99 -125.5q73 -34 132.5 -90.5t101.5 -126.5t64.5 -149.5t22.5 -159.5z" />
<glyph unicode="&#x1027;" horiz-adv-x="1291" d="M1154 780q-54 -51 -112.5 -74.5t-125.5 -23.5q-62 0 -121.5 23t-107.5 64t-79 97.5t-37 123.5q-68 -14 -128.5 -52.5t-105.5 -95.5t-71 -127.5t-26 -148.5q0 -75 23.5 -144.5t66.5 -126t104.5 -97t136.5 -58.5q6 67 38 125.5t80.5 102t108 68.5t121.5 25q68 0 126 -25 t112 -76q4 -4 9.5 -18t5.5 -34q0 -8 -1.5 -17.5t-6.5 -18.5q-89 -134 -213 -208t-287 -74q-114 0 -213.5 41.5t-181.5 125.5q-84 84 -125 187t-41 222q0 120 44 224.5t120.5 181.5t178.5 121t218 44q83 0 149 -13t124 -43.5t112 -80.5t113 -125q2 -5 5 -16.5t3 -25.5 q0 -13 -3.5 -26.5t-12.5 -26.5zM1032 816q-74 98 -158.5 141t-187.5 43q7 -35 29 -71.5t54 -66t73.5 -48.5t89.5 -19q35 0 62.5 7.5t37.5 13.5zM1027 311q-8 14 -38 22t-68 8q-49 0 -85.5 -15t-62 -38t-42.5 -50t-26.5 -50.5t-13 -39.5t-3.5 -18q104 0 187 46.5t152 134.5z " />
<glyph unicode="&#x1028;" horiz-adv-x="1323" d="M1055 734l-2 4l-2 4q-23 100 -122 168q-57 43 -123 65t-143 22q-99 0 -178.5 -33.5t-135.5 -96.5t-86 -154.5t-30 -207.5v-611q0 -88 31.5 -165t92.5 -142q126 -133 306 -133q69 0 131.5 20.5t120.5 63.5q114 85 136 202q15 55 68 55q72 0 72 -60q0 -20 -2 -24 q-27 -154 -180 -277q-76 -61 -161.5 -92t-184.5 -31q-235 0 -402 170q-166 170 -166 413v611q0 294 158 462q160 173 410 173q212 0 370 -136q118 -100 151 -217q2 -4 3.5 -9t3.5 -10q22 -115 4.5 -206t-59.5 -157t-101.5 -108.5t-121.5 -61t-118.5 -13t-94 33.5t-47.5 79.5 t22 125.5q15 34 30.5 65t14.5 69q-1 27 -16.5 42t-37 18.5t-43.5 -4t-36.5 -24.5t-16 -44t18.5 -62q15 -27 6 -49.5t-29.5 -34t-44.5 -7.5t-39 31q-28 49 -31.5 101.5t14.5 97t55.5 76.5t91.5 41q70 11 120 -13t77 -68t30.5 -101t-18.5 -112q-8 -20 -18.5 -36.5t-17.5 -31 t-5 -29t20 -29.5q5 -5 30 -2t58.5 16.5t69 40t62 70t38 105.5t-2.5 147z" />
<glyph unicode="&#x1029;" horiz-adv-x="1956" d="M1621 -476q0 -59 -23.5 -106t-65.5 -79t-100 -49t-127 -17h-873q-67 0 -123.5 17.5t-107.5 46.5q-50 31 -75 80t-25 114v1909q0 129 92 203q49 39 102 57.5t116 18.5h657q71 0 71 -71q0 -70 -71 -70h-657q-36 0 -67 -10t-60 -30q-44 -38 -44 -102v-1905q0 -48 44 -81 q32 -17 67.5 -26t78.5 -9h872q80 0 129.5 29t49.5 80v477q0 71 69 71q71 0 71 -71v-477zM1850 506q0 -119 -36.5 -213.5t-97 -159.5t-140 -99.5t-166.5 -34.5q-41 0 -85.5 9t-86.5 28.5t-80.5 50t-67.5 72.5q-66 -75 -146.5 -112.5t-173.5 -37.5q-74 0 -142.5 25t-124 72 t-94.5 114t-55 151q-2 5 -2 11.5v15.5q0 71 71 71q57 -8 69 -62q13 -67 41 -113.5t64.5 -76t80.5 -42.5t90 -13q61 0 115 22.5t94 67t63 109.5t23 150v138q0 80 -20.5 144.5t-58.5 110t-91 70t-118 24.5q-45 0 -89.5 -15.5t-83 -45t-67.5 -71.5t-43 -95q-17 -64 -69 -64 q-69 0 -69 79l3 27q19 77 58.5 139t93.5 105.5t120.5 67t140.5 23.5q95 0 199 -49q67 -35 112 -89t72 -116t38.5 -126t11.5 -119v-138q0 -58 -7.5 -112t-24.5 -92q43 -72 104 -112.5t142 -40.5q67 0 121.5 26.5t92.5 74t58.5 112t20.5 139.5v138q0 78 -21 143t-58.5 111 t-88 71.5t-110.5 25.5l-47 -2l-76 -15q-77 7 -77 69q4 21 14 39.5t30.5 31.5t54.5 20.5t86 7.5q91 0 170.5 -38t137.5 -105.5t91.5 -159.5t33.5 -199v-138z" />
<glyph unicode="&#x102a;" horiz-adv-x="4403" d="M2929 -476q0 -59 -23.5 -106t-65.5 -79t-100 -49t-127 -17h-873q-67 0 -123.5 17.5t-107.5 46.5q-50 31 -75 80t-25 114v1909q0 129 92 203q49 39 102 57.5t116 18.5h657q71 0 71 -71q0 -70 -71 -70h-657q-36 0 -67 -10t-60 -30q-44 -38 -44 -102v-1905q0 -48 44 -81 q32 -17 67.5 -26t78.5 -9h872q80 0 129.5 29t49.5 80v477q0 71 69 71q71 0 71 -71v-477zM3158 506q0 -119 -36.5 -213.5t-97 -159.5t-140 -99.5t-166.5 -34.5q-41 0 -85.5 9t-86.5 28.5t-80.5 50t-67.5 72.5q-66 -75 -146.5 -112.5t-173.5 -37.5q-74 0 -142.5 25t-124 72 t-94.5 114t-55 151q-2 5 -2 11.5v15.5q0 71 71 71q57 -8 69 -62q13 -67 41 -113.5t64.5 -76t80.5 -42.5t90 -13q61 0 115 22.5t94 67t63 109.5t23 150v138q0 80 -20.5 144.5t-58.5 110t-91 70t-118 24.5q-45 0 -89.5 -15.5t-83 -45t-67.5 -71.5t-43 -95q-17 -64 -69 -64 q-69 0 -69 79l3 27q19 77 58.5 139t93.5 105.5t120.5 67t140.5 23.5q95 0 199 -49q67 -35 112 -89t72 -116t38.5 -126t11.5 -119v-138q0 -58 -7.5 -112t-24.5 -92q43 -72 104 -112.5t142 -40.5q67 0 121.5 26.5t92.5 74t58.5 112t20.5 139.5v138q0 78 -21 143t-58.5 111 t-88 71.5t-110.5 25.5l-47 -2l-76 -15q-77 7 -77 69q4 21 14 39.5t30.5 31.5t54.5 20.5t86 7.5q91 0 170.5 -38t137.5 -105.5t91.5 -159.5t33.5 -199v-138zM1376 774q0 -71 -69 -71q-27 0 -49 22q-127 130 -265 203t-281 73q-98 0 -181.5 -29.5t-151.5 -91.5 q-29 -27 -52 -57t-39.5 -60.5t-26.5 -60t-13 -54.5l20 5q228 0 440 -158q106 -79 171.5 -167t91.5 -189l-4 -41q-11 -30 -43 -51t-74 -33.5t-87.5 -18.5t-82.5 -6q-113 0 -212 37t-183 113q-93 85 -139 188.5t-46 231.5q0 248 180 415q178 165 432 165q91 0 175 -17.5 t163.5 -56t156 -100t152.5 -149.5q8 -10 13 -19t4 -23zM809 157q-35 78 -97.5 143t-140 111.5t-162 72.5t-163.5 26q0 -86 49.5 -158t147.5 -138q67 -45 132 -61t131 -16q18 0 41.5 3t61.5 17zM4304 566q0 -237 -170 -406q-168 -168 -404 -168q-172 0 -305 94 q-11 5 -21 23.5t-10 39.5q0 18 6.5 29.5t15.5 18.5t19.5 9.5t18.5 2.5q16 0 28.5 -4t15.5 -6q54 -35 108.5 -52t123.5 -17q88 0 167 35t139 95t95 139t35 167t-35 167t-94.5 139t-138.5 95t-168 35q-68 0 -134 -18.5t-123.5 -53t-102.5 -83t-71 -108.5q-5 -17 -27 -33 t-48 -16q-18 0 -29 7t-18 17.5t-9.5 22t-2.5 19.5q0 13 2.5 23l3.5 14q33 79 92.5 143t134.5 109.5t160.5 70t171.5 24.5q229 0 402 -170q88 -83 130 -184t42 -220zM4049 1520q2 -3 2 -14q0 -12 -3 -25t-10 -24.5t-18 -19t-27 -7.5q-22 0 -41.5 12.5t-27.5 28.5 q-32 78 -89 116.5t-143 38.5q-49 0 -91 -19.5t-73 -53.5t-49 -79t-18 -97q0 -48 19.5 -91.5t52.5 -77.5t78 -54t96 -20h44l29 2q5 1 9.5 1h9.5q57 0 63 -67q0 -62 -54 -69l-103 -2q-70 0 -137.5 29.5t-121 81t-86 120.5t-32.5 147q0 75 28 144.5t77.5 123t115.5 85t143 31.5 q61 0 115.5 -17t100.5 -48.5t82 -76t59 -99.5z" />
<glyph unicode="&#x102b;" horiz-adv-x="352" d="M237 63q0 -70 -68 -70q-67 0 -67 70v1376q0 40 -16.5 73.5t-45 57t-67 36.5t-82.5 13q-60 0 -109 -20.5t-83.5 -57.5t-53 -89t-18.5 -116q0 -70 -67 -70q-65 0 -65 70q0 95 29 173.5t81 135t124.5 87.5t158.5 31q68 0 131 -23.5t111.5 -66t77.5 -101.5t29 -130v-1379z " />
<glyph unicode="&#x102c;" horiz-adv-x="1236" d="M1139 566q0 -237 -170 -406q-168 -168 -404 -168q-172 0 -305 94q-11 5 -21 23.5t-10 39.5q0 18 6.5 29.5t15.5 18.5t19.5 9.5t18.5 2.5q16 0 28.5 -4t15.5 -6q54 -35 108.5 -52t123.5 -17q88 0 167 35t139 95t95 139t35 167t-35 167t-94.5 139t-138.5 95t-168 35 q-68 0 -134 -18.5t-123.5 -53t-102.5 -83t-71 -108.5q-5 -17 -27 -33t-48 -16q-18 0 -29 7t-18 17.5t-9.5 22t-2.5 19.5q0 13 2.5 23l3.5 14q33 79 92.5 143t134.5 109.5t160.5 70t171.5 24.5q229 0 402 -170q88 -83 130 -184t42 -220z" />
<glyph unicode="&#x102d;" d="M-200 1469q0 -158 -110 -268q-55 -54 -122 -82t-146 -28q-80 0 -147 28t-121 82q-111 111 -111 268q0 155 111 269q108 113 268 113q147 0 263 -113q59 -57 87 -124t28 -145zM-338 1469q0 50 -18 94.5t-50 77.5t-76 52.5t-96 19.5q-49 0 -93 -18.5t-77 -51.5t-52 -77.5 t-19 -96.5q0 -50 18 -93.5t50.5 -76t76.5 -51.5t96 -19q50 0 93.5 18t76 50t51.5 76t19 96z" />
<glyph unicode="&#x102e;" d="M-87 1470q0 -81 -25.5 -142t-80.5 -119q-110 -118 -273 -118q-97 0 -174.5 40t-131.5 118q-38 51 -55.5 102t-17.5 119q0 154 111 268q108 113 268 113q145 0 263 -113q116 -112 116 -268zM-225 1472q0 49 -18.5 92.5t-50.5 76.5t-76 52.5t-96 19.5q-49 0 -92.5 -18.5 t-76.5 -51t-52.5 -77t-19.5 -96.5q0 -21 3.5 -40t9.5 -36q49 42 103 62.5t113 20.5q66 0 125 -24t110 -73q10 19 14 41.5t4 50.5zM-328 1269q-36 36 -75.5 53t-82.5 17q-81 0 -135 -55q67 -55 155 -55q35 0 70.5 10t67.5 30z" />
<glyph unicode="&#x102f;" d="M-395 -734q0 -68 -59 -68h-154q-35 0 -58 16.5t-23 51.5v659q0 31 23 49.5t58 18.5q58 0 58 -68v-592h96q59 0 59 -67z" />
<glyph unicode="&#x1030;" d="M-103 -732q0 -69 -66 -69h-187q-66 0 -66 69v659q0 71 66 71q74 0 74 -71v-587h113q66 0 66 -72zM-548 -737q0 -72 -77 -72q-79 0 -79 72v661q0 72 79 72q77 0 77 -72v-661z" />
<glyph unicode="&#x1031;" horiz-adv-x="1308" d="M1376 774q0 -71 -69 -71q-27 0 -49 22q-127 130 -265 203t-281 73q-98 0 -181.5 -29.5t-151.5 -91.5q-29 -27 -52 -57t-39.5 -60.5t-26.5 -60t-13 -54.5l20 5q228 0 440 -158q106 -79 171.5 -167t91.5 -189l-4 -41q-11 -30 -43 -51t-74 -33.5t-87.5 -18.5t-82.5 -6 q-113 0 -212 37t-183 113q-93 85 -139 188.5t-46 231.5q0 248 180 415q178 165 432 165q91 0 175 -17.5t163.5 -56t156 -100t152.5 -149.5q8 -10 13 -19t4 -23zM809 157q-35 78 -97.5 143t-140 111.5t-162 72.5t-163.5 26q0 -86 49.5 -158t147.5 -138q67 -45 132 -61 t131 -16q18 0 41.5 3t61.5 17z" />
<glyph unicode="&#x1032;" d="M-252 1219q0 -71 -67 -71q-25 0 -50 21l-493 338q-9 11 -16 26.5t-11 33.5q0 17 5.5 32.5t19.5 29.5q11 9 25 15t31 9q17 0 34.5 -7t34.5 -22l469 -363z" />
<glyph unicode="&#x1033;" d="M-200 1469q0 -158 -110 -268q-55 -54 -122 -82t-146 -28q-80 0 -147 28t-121 82q-111 111 -111 268q0 155 111 269q108 113 268 113q147 0 263 -113q59 -57 87 -124t28 -145zM-338 1469q0 50 -18 94.5t-50 77.5t-76 52.5t-96 19.5q-49 0 -93 -18.5t-77 -51.5t-52 -77.5 t-19 -96.5q0 -50 18 -93.5t50.5 -76t76.5 -51.5t96 -19q50 0 93.5 18t76 50t51.5 76t19 96zM-425 1467q0 -32 -12 -60t-33 -49t-49.5 -33t-61.5 -12t-61.5 12t-49.5 32.5t-33.5 48.5t-12.5 61t12.5 61.5t33.5 49.5t49.5 33.5t61.5 12.5q32 0 60.5 -12.5t49.5 -33.5 t33.5 -49.5t12.5 -61.5zM-522 1467q0 26 -16.5 43t-42.5 17t-43 -17t-17 -43q0 -23 17 -40t43 -17q24 0 41.5 17t17.5 40z" />
<glyph unicode="&#x1034;" d="M-319 1661q29 12 53.5 7t42 -20t27 -37.5t8 -45.5t-15.5 -44t-43 -33l-680 -271q-29 -12 -53.5 -7t-42.5 20t-27.5 37.5t-7.5 45.5t16 44t43 33z" />
<glyph unicode="&#x1035;" d="M-375 1348q-29 18 -69 25.5t-84 0.5t-90 -29.5t-87 -65.5q26 -11 55.5 -17t61.5 -6q68 0 123 25.5t90 66.5zM-238 1649q13 -20 12.5 -39t-9.5 -34.5t-24.5 -25.5t-33.5 -12t-35.5 5.5t-30.5 27.5q-32 49 -91.5 81t-137.5 32q-57 0 -105 -18t-82 -48t-53 -68.5t-19 -79.5 q0 -64 43 -118q40 42 89 73.5t102 51t107.5 24.5t105 -6t94 -40.5t74.5 -79.5q2 -4 3 -6.5t3 -5.5q5 -14 4 -30t-12 -33q-26 -43 -63.5 -77.5t-83 -59t-98.5 -37.5t-109 -13q-80 0 -152.5 27t-128.5 74.5t-89 113t-33 142.5q0 78 33 143.5t89 113t128.5 74.5t152.5 27 q55 0 106.5 -12.5t96.5 -36t82.5 -56.5t64.5 -74z" />
<glyph unicode="&#x1036;" d="M-340 1514q0 -47 -17.5 -87.5t-47.5 -70.5t-71 -47.5t-89 -17.5q-47 0 -88 17t-72 47t-48.5 70.5t-17.5 88.5q0 47 17.5 88t48.5 72t72 48.5t88 17.5t88 -17.5t71.5 -48.5t48 -72t17.5 -88zM-479 1514q0 37 -24.5 61.5t-61.5 24.5t-61.5 -24.5t-24.5 -61.5 q0 -35 24.5 -59t61.5 -24q18 0 33.5 6.5t27 17.5t18.5 26.5t7 32.5z" />
<glyph unicode="&#x1037;" horiz-adv-x="235" d="M158 -425q0 -47 -17.5 -87.5t-47.5 -70.5t-71 -47.5t-89 -17.5q-47 0 -88 17t-72 47t-48.5 70.5t-17.5 88.5q0 47 17.5 88t48.5 72t72 48.5t88 17.5t88 -17.5t71.5 -48.5t48 -72t17.5 -88zM19 -425q0 37 -24.5 61.5t-61.5 24.5t-61.5 -24.5t-24.5 -61.5q0 -35 24.5 -59 t61.5 -24q18 0 33.5 6.5t27 17.5t18.5 26.5t7 32.5z" />
<glyph unicode="&#x1038;" horiz-adv-x="632" d="M545 218q0 -47 -17.5 -87.5t-47.5 -70.5t-71 -47.5t-89 -17.5q-47 0 -88 17t-72 47t-48.5 70.5t-17.5 88.5q0 47 17.5 88t48.5 72t72 48.5t88 17.5t88 -17.5t71.5 -48.5t48 -72t17.5 -88zM406 218q0 37 -24.5 61.5t-61.5 24.5t-61.5 -24.5t-24.5 -61.5q0 -35 24.5 -59 t61.5 -24q35 0 60.5 24t25.5 59zM545 919q0 -47 -17.5 -87.5t-47.5 -70.5t-71 -47.5t-89 -17.5q-47 0 -88 17t-72 47t-48.5 70.5t-17.5 88.5q0 47 17.5 88t48.5 72t72 48.5t88 17.5t88 -17.5t71.5 -48.5t48 -72t17.5 -88zM406 919q0 37 -24.5 61.5t-61.5 24.5t-61.5 -24.5 t-24.5 -61.5q0 -35 24.5 -59t61.5 -24q18 0 33.5 6.5t27 17.5t18.5 26.5t7 32.5z" />
<glyph unicode="&#x1039;" horiz-adv-x="626" d="M626 952h-81v-962h-95v962h-127v-962h-95v592q-110 7 -169 71.5t-59 158.5q0 103 65 170.5t202 67.5h359v-98z" />
<glyph unicode="&#x103a;" d="M-149 1610q2 -3 2 -14q0 -12 -3 -25t-10 -24.5t-18 -19t-27 -7.5q-22 0 -41.5 12.5t-27.5 28.5q-32 78 -89 116.5t-143 38.5q-49 0 -91 -19.5t-73 -53.5t-49 -79t-18 -97q0 -48 19.5 -91.5t52.5 -77.5t78 -54t96 -20h44l29 2q5 1 9.5 1h9.5q57 0 63 -67q0 -62 -54 -69 l-103 -2q-70 0 -137.5 29.5t-121 81t-86 120.5t-32.5 147q0 75 28 144.5t77.5 123t115.5 85t143 31.5q61 0 115.5 -17t100.5 -48.5t82 -76t59 -99.5z" />
<glyph unicode="&#x103b;" horiz-adv-x="245" d="M148 -670q0 -67 -55 -74q-35 0 -44 10l-281 148q-35 19 -35 64q0 17 5.5 31.5t14.5 27.5q8 5 17 8.5t23 3.5q5 0 27 -5l-17 10v521q0 69 61 69q69 0 69 -69v-588l81 -44v1626q0 72 72 72q62 0 62 -72v-1739z" />
<glyph unicode="&#x103c;" horiz-adv-x="347" d="M1621 -496q0 -59 -23.5 -106t-65.5 -79t-100 -49t-127 -17h-873q-67 0 -123.5 17.5t-107.5 46.5q-50 31 -75 80t-25 114v2009q0 129 92 203q49 39 102 57.5t116 18.5h467q71 0 71 -71q0 -70 -71 -70h-467q-36 0 -67 -10t-60 -30q-44 -38 -44 -102v-2005q0 -48 44 -81 q32 -17 67.5 -26t78.5 -9h872q80 0 129.5 29t49.5 80v547q0 71 69 71q71 0 71 -71v-547z" />
<glyph unicode="&#x103d;" d="M-287 -512q0 -116 -103 -184q-52 -34 -112 -51.5t-129 -17.5q-132 0 -229 57q-112 70 -112 179l7 58q25 95 150 295q7 11 20 30t29.5 43t35.5 51t40 53q7 9 20 19t30 10q8 0 15.5 -3.5t14.5 -7.5q8 -5 15 -11q49 -56 84 -99t57 -78q75 -99 116 -175.5t48 -134.5z M-416 -512l-3 17q-9 74 -100 205q-8 12 -21.5 30t-33.5 41l-62 77l-100 -156q-22 -36 -39 -64t-29.5 -52.5t-22 -46.5t-16.5 -44l-2 -34q0 -44 54 -62q36 -16 75.5 -24.5t84.5 -8.5q43 0 82 8t68.5 24t47 38.5t17.5 51.5z" />
<glyph unicode="&#x103e;" d="M-654 -86l-230 -501q-14 -42 -37 -77.5t-52.5 -61.5t-63 -40.5t-69.5 -14.5q-83 0 -139 66q-29 34 -41.5 79t-12.5 102l2 51q0 52 64 52q60 0 68 -71l-2 -35q0 -42 18 -66t48 -24q35 0 55 21t40 66l229 505q14 39 62 39q23 0 54 -24q5 -10 8.5 -20.5t3.5 -21.5 q0 -9 -5 -24z" />
<glyph unicode="&#x103f;" horiz-adv-x="2363" d="M2260 495q0 -115 -34.5 -208.5t-95 -159.5t-142.5 -102t-177 -36q-42 0 -85.5 9t-85 27t-78 45.5t-63.5 63.5q-30 -34 -69 -61.5t-82 -46.5t-87.5 -29.5t-83.5 -10.5q-46 0 -91 9.5t-87.5 29.5t-81 51t-69.5 73q-25 -30 -58.5 -57t-74.5 -47.5t-88.5 -33t-99.5 -12.5 q-76 0 -144 24t-123.5 70.5t-96 113.5t-59.5 153q-2 5 -2 13.5v18.5q0 66 71 66q56 0 71 -62q10 -62 37 -107.5t64.5 -76.5t83.5 -46t95 -15q65 0 120 25t95 70.5t62.5 110t22.5 143.5v137q0 78 -21.5 142.5t-60.5 110t-93 71t-118 25.5q-48 0 -93 -14.5t-82.5 -43 t-66 -70.5t-42.5 -96q-15 -58 -72 -66q-71 0 -71 76q0 13 1.5 22.5t3.5 14.5q18 75 59 135.5t97 103t123.5 65.5t138.5 23q48 0 97 -12t95.5 -36t88.5 -60.5t77 -85.5q41 -71 61 -144t20 -158v-140q0 -60 -8.5 -109.5t-25.5 -92.5q20 -37 42.5 -65t57.5 -45q71 -44 150 -44 q54 0 107 23t94.5 67.5t67.5 110t26 150.5v138q0 75 -20.5 139.5t-58 111.5t-91 73.5t-120.5 26.5q-18 0 -38 -2.5t-40 -7.5l-33 -5q-83 0 -83 66q0 50 56 76l67 17l64 5q91 0 171 -35.5t139.5 -101t94 -158t34.5 -205.5v-138q0 -61 -7 -113t-27 -106q41 -63 101.5 -97.5 t136.5 -34.5q62 0 116 26t93.5 72.5t62.5 111t23 141.5v138q0 73 -20.5 137t-58 111.5t-91 75t-120.5 27.5q-40 0 -79 -10l-31 -5q-84 0 -84 66q0 50 57 76l66 17l63 5q91 0 171 -35.5t140 -101t94.5 -158t34.5 -205.5v-138z" />
<glyph unicode="&#x1040;" horiz-adv-x="1363" d="M614 995q-80 -11 -148.5 -50.5t-118.5 -98.5t-79 -133t-29 -154t29 -153.5t79 -132t118.5 -97.5t148.5 -50v-140q-196 20 -342 163q-172 168 -172 410q0 110 40.5 209.5t110 177.5t163 128t200.5 61v-140zM1119 559q0 79 -29 153t-80 133t-120 99t-149 51v141 q98 -11 183 -52.5t161 -114.5q173 -167 173 -410q0 -110 -40 -209.5t-110 -177t-164.5 -127.5t-202.5 -60v141q79 10 148 49t120 97.5t80.5 132.5t29.5 154z" />
<glyph unicode="&#x1041;" horiz-adv-x="1288" d="M1181 566q0 -237 -171 -408q-83 -83 -184.5 -125t-222.5 -42q-76 0 -150 19.5t-146 61.5q-69 43 -119.5 96t-85.5 116q-8 19 -8 35q0 8 3 18t10.5 20t21.5 17.5t35 11.5q37 0 57 -36q28 -47 69 -87.5t90.5 -70t106 -46.5t116.5 -17q91 0 167 31t141 94q66 66 99 143 t33 169q0 176 -132 306q-65 65 -141 97.5t-167 32.5q-58 0 -114.5 -15.5t-105.5 -42.5t-88 -64.5t-62 -82.5q-8 -12 -21 -21.5t-34 -15.5q-29 0 -61 26q-10 16 -10 44q0 5 1.5 12.5t3.5 16.5q56 115 198 198q70 43 143.5 63.5t149.5 20.5q241 0 407 -168q171 -167 171 -407z " />
<glyph unicode="&#x1042;" horiz-adv-x="1001" d="M882 -70q0 -280 -183 -446q-80 -76 -178.5 -113t-216.5 -37q-79 0 -154.5 19.5t-140.5 58.5t-116 97t-80 135q-8 24 -8 37q0 54 72 54q44 0 61 -42q17 -50 50 -87t84 -66q91 -58 222 -58q181 0 309 108q140 122 140 340v1153q0 72 69 72q70 0 70 -72v-1153z" />
<glyph unicode="&#x1043;" horiz-adv-x="1264" d="M488 -4l362 -512q15 -20 15 -41q0 -71 -67 -71q-13 0 -26 7t-29 21l-138 196l-262 367l-163 219l-38 48q-6 12 -14 22t-15 20t-12 19.5t-5 20.5q0 8 3.5 16t9.5 22q11 15 26.5 23.5t35.5 12.5q42 0 55 -36q59 -98 176 -166q52 -29 101 -41t95 -12q88 0 162.5 32t138.5 95 q129 126 129 311q0 177 -129 303q-127 131 -301 131q-62 0 -115.5 -14t-103.5 -43q-51 -30 -85 -63.5t-58 -82.5q-22 -32 -56 -38q-23 0 -57 26q-12 18 -12 41q0 5 1.5 13t2.5 21q63 115 196 198q70 42 141 62.5t146 20.5q117 0 217 -41.5t181 -126.5q167 -167 167 -407 q0 -235 -167 -408q-81 -86 -181 -127.5t-217 -41.5h-42h-34q-12 2 -20 3t-14 1z" />
<glyph unicode="&#x1044;" horiz-adv-x="1257" d="M778 -7q-6 0 -14 -1t-20 -3h-34h-42q-117 0 -217 41.5t-181 127.5q-167 173 -167 408q0 240 167 407q81 85 181 126.5t217 41.5q75 0 146 -20.5t141 -62.5q133 -83 196 -198q1 -13 2.5 -21t1.5 -13q0 -23 -12 -41q-34 -26 -57 -26q-34 6 -56 38q-24 49 -58 82.5t-85 63.5 q-50 29 -103.5 43t-115.5 14q-174 0 -301 -131q-129 -126 -129 -303q0 -185 129 -311q64 -63 138.5 -95t162.5 -32q46 0 95 12t101 41q117 68 176 166q13 36 55 36q20 -4 35.5 -12.5t26.5 -23.5q6 -14 9.5 -22t3.5 -16q0 -11 -5 -20.5t-12 -19.5t-15 -20t-14 -22l-38 -48 l-163 -219l-262 -367l-138 -196q-16 -14 -29 -21t-26 -7q-67 0 -67 71q0 21 15 41z" />
<glyph unicode="&#x1045;" horiz-adv-x="1260" d="M1160 -32q0 -134 -45 -242t-133 -193q-164 -153 -387 -153q-188 0 -316 107q-72 60 -117.5 143t-65.5 198q-10 42 8 63t61 21q48 0 58 -46q24 -165 136 -257q54 -42 113 -63t128 -21q173 0 291 115q69 60 101.5 142t32.5 186v285v296q0 107 -32.5 192t-101.5 146 q-119 110 -294 110q-35 0 -68 -4t-78 -14l-52 -24l11 -4q63 -32 93.5 -81t30.5 -120q0 -43 -28 -102q-31 -63 -78 -94.5t-115 -31.5q-43 0 -101 27q-53 29 -82 79t-29 122q0 30 7 62t24 63q31 62 81 110t110.5 80.5t129.5 49.5t139 17q227 0 387 -145q181 -166 181 -438 v-296v-285zM396 722v33q0 46 -48 71l-38 8q-39 -5 -64 -34l-7 -14l-10 -17v-24q0 -39 50 -75l11 -5l30 -2q21 0 37.5 12t33.5 38z" />
<glyph unicode="&#x1046;" horiz-adv-x="1274" d="M981 801q15 16 15 72q0 47 -37 79q-28 37 -82 37q-16 0 -33.5 -9t-33.5 -28q-28 -40 -28 -95q0 -15 5 -24t5 -11q15 -23 55.5 -56.5t107.5 -68.5q51 -32 96 -54t87 -36q44 -11 51 -63q0 -139 -36.5 -243.5t-105 -174t-166.5 -104.5t-221 -35q-125 0 -224.5 39.5 t-177.5 119.5q-156 163 -156 456v626q0 199 171 367q85 87 181.5 128t207.5 41q77 0 149.5 -21t143.5 -63q153 -98 214 -298q5 -10 5 -31q0 -20 -14.5 -36.5t-52.5 -23.5q-43 0 -63 46q-23 71 -62.5 126.5t-100.5 95.5q-96 65 -224 65q-82 0 -154.5 -30.5t-135.5 -95.5 q-61 -63 -95.5 -130.5t-34.5 -139.5v-626q0 -113 31 -202t91 -152q112 -121 301 -121q187 0 290.5 90t103.5 273q-28 12 -48 20t-35 16q-22 12 -45 26t-49 30q-48 27 -82.5 52t-58.5 45q-19 15 -34 31t-32 44q-23 44 -23 101q0 51 15 98.5t46 89.5q32 41 73.5 62.5 t89.5 21.5q54 0 100.5 -20t84.5 -58q77 -77 77 -174q0 -93 -35 -148q-11 -17 -51 -17q-19 0 -33 7q-38 26 -38 64q0 15 5 20z" />
<glyph unicode="&#x1047;" horiz-adv-x="1414" d="M1489 -263q-9 -54 -28 -93t-45 -63.5t-58 -36t-67 -11.5q-38 0 -74.5 14t-65.5 39.5t-46.5 61t-17.5 78.5l3 856q0 83 -34.5 159t-93.5 134t-137 92.5t-165 34.5q-84 0 -161.5 -33.5t-137 -91.5t-95 -136.5t-35.5 -169.5q0 -88 33.5 -166t91.5 -136.5t136.5 -92.5 t167.5 -34q12 0 34 3.5t44.5 7t41 7t24.5 3.5q58 0 65 -67q0 -19 -15 -36t-43 -30t-66.5 -20.5t-84.5 -7.5q-226 0 -396 167q-86 84 -127 184.5t-41 217.5t40.5 217t124.5 182q165 169 399 169q230 0 398 -169q85 -82 126.5 -182t41.5 -217l-2 -841q5 -32 22 -46t41 -14 q16 0 28 8t20.5 19.5t13.5 24.5t6 22q8 35 24 52t36 24q75 0 75 -70q0 -3 -0.5 -6t-0.5 -7z" />
<glyph unicode="&#x1048;" horiz-adv-x="1363" d="M1252 564q0 -163 -71.5 -304.5t-214.5 -240.5q-15 -15 -39 -15q-70 0 -70 69q0 14 7 27t21 30q56 40 99 89.5t72 105.5t43.5 116.5t14.5 122.5q0 176 -130 309q-66 67 -143 100t-169 33q-174 0 -309 -130q-133 -130 -133 -312q0 -134 49 -244t159 -185q12 -6 21 -21 t13 -38q0 -67 -67 -74l-39 12q-69 42 -120.5 101t-85.5 130.5t-51 152.5t-17 166q0 240 170 410q86 85 187.5 127.5t222.5 42.5q237 0 408 -172q172 -171 172 -408z" />
<glyph unicode="&#x1049;" horiz-adv-x="1316" d="M1206 699q0 -55 -47 -67q-25 -5 -44 -9.5t-36 -10.5q-17 -5 -43.5 -16.5t-64.5 -30.5q-50 -24 -85.5 -48.5t-72.5 -55.5q-6 -5 -13 -11t-12 -15q-10 -14 -15.5 -22t-9 -16.5t-5 -19t-4.5 -29.5q0 -43 31 -84q43 -34 90 -34q19 0 39.5 9.5t37 26t27.5 39.5t11 49 q0 29 -7.5 46t-7.5 32q0 17 15.5 39.5t54.5 30.5q40 0 59 -36q8 -17 13 -30.5t7.5 -25.5t3 -25.5t0.5 -30.5q0 -112 -73 -189q-39 -37 -84 -57.5t-99 -20.5q-98 0 -183 78q-74 79 -74 186q0 37 6.5 63t23.5 57q13 28 32.5 52.5t44.5 44.5q35 31 77.5 60.5t92.5 53.5 q39 22 81 38.5t87 29.5q-23 100 -122 168q-57 43 -123 65t-143 22q-99 0 -178.5 -33.5t-135.5 -96.5t-86 -154.5t-30 -207.5v-611q0 -88 31.5 -165t92.5 -142q126 -133 306 -133q69 0 131.5 20.5t120.5 63.5q114 85 136 202q15 55 68 55q72 0 72 -60q0 -20 -2 -24 q-27 -154 -180 -277q-76 -61 -161.5 -92t-184.5 -31q-235 0 -402 170q-166 170 -166 413v611q0 294 158 462q160 173 410 173q212 0 370 -136q164 -137 164 -313z" />
<glyph unicode="&#x104a;" horiz-adv-x="389" d="M243 58q0 -69 -65 -69q-74 0 -74 69v1013q0 35 19.5 51.5t54.5 16.5q65 0 65 -68v-1013z" />
<glyph unicode="&#x104b;" horiz-adv-x="768" d="M542 58q0 -69 -60 -69q-35 0 -57 17t-22 52v1013q0 68 79 68q60 0 60 -68v-1013zM243 58q0 -69 -65 -69q-74 0 -74 69v1013q0 35 19.5 51.5t54.5 16.5q65 0 65 -68v-1013z" />
<glyph unicode="&#x104c;" horiz-adv-x="1257" d="M590 -96q43 0 89 9t99 30q20 10 40.5 17t40.5 15q38 20 82 52q9 10 37 10q13 0 29.5 -5.5t31.5 -14.5q8 -3 14 -7t9.5 -12t5 -21t1.5 -34v-224v-25q0 -149 -104 -260q-54 -54 -119.5 -80t-156.5 -26h-148q-193 0 -283.5 51.5t-90.5 160.5q0 30 6 54t19 40q14 16 38.5 34 t62 33t88.5 25t118 10q52 0 130 -30q26 -9 54 -22t60 -30q24 -14 24 -39q0 -11 -3.5 -23t-11.5 -22t-20.5 -17t-30.5 -7q-14 0 -22 5q-20 7 -45 14.5t-50.5 13.5t-48 10t-36.5 4h-57q-10 0 -26 -4t-39 -9q-43 -12 -47 -50q0 -26 55 -36q28 -7 49 -10t38.5 -4t33.5 -1h35 l158 -7q52 0 94.5 18.5t72.5 51.5t46 77.5t16 96.5v158q-161 -97 -335 -97q-204 0 -349 127q-20 12 -40 31.5t-37 46.5q-5 10 -8.5 19t-5.5 16q-5 17 -8.5 33.5t-3.5 33.5q0 26 7.5 50t22 42.5t37 29.5t52.5 11q41 0 105 -35q19 -15 41 -27t51 -22q43 -12 120 -12 q92 0 170 31t144 97q66 67 97 143t31 173q0 178 -116 311q-112 136 -274 136h-31h-31q-54 0 -104.5 -15t-97.5 -47q-38 -22 -72.5 -55t-68.5 -78q-9 -15 -23 -22t-31 -7q-69 0 -69 73l13 39q49 69 125 129q28 20 57.5 37.5t63.5 31.5q-23 17 -48 47t-48 59q-56 101 -56 211 q0 81 25.5 153t79.5 133t121.5 92.5t148.5 31.5q118 0 224 -70q52 -35 88.5 -82.5t56.5 -107.5q6 -9 5.5 -18t-0.5 -16q0 -60 -71 -60q-42 0 -64 45q-62 164 -239 164q-49 0 -92 -20.5t-75.5 -56t-51 -84t-18.5 -104.5q0 -100 66 -176q69 -73 163 -84h59q215 0 368 -177 q155 -176 155 -413q0 -248 -172 -419q-171 -171 -408 -171q-29 0 -61 2t-62.5 6.5t-58.5 11.5t-47 18q39 -53 100.5 -81t141.5 -28z" />
<glyph unicode="&#x104d;" horiz-adv-x="1701" d="M1646 1550q8 -20 8 -37q0 -57 -76 -57q-43 0 -62 45q-70 165 -247 165q-52 0 -96 -20.5t-76.5 -56.5t-51 -84.5t-18.5 -105.5q0 -159 148 -221q77 -32 137.5 -88t107.5 -140q94 -165 94 -370v-926q-14 -69 -66 -126t-147 -104q-93 -46 -181 -70t-171 -24h-267 q-171 0 -284 77q-114 77 -114 178q0 123 106 192q54 28 117 42.5t135 14.5q66 0 126 -11t114 -31q61 -23 98.5 -49.5t54.5 -61.5q7 -21 7 -39q0 -52 -62 -52q-17 0 -33.5 6t-33.5 23q-14 11 -42.5 24t-70.5 25q-83 23 -168 23q-104 0 -157 -26t-53 -73q0 -32 82 -67 q101 -52 178 -52h264q131 0 269 62q140 60 155 133v912q0 104 -17 181.5t-60 138.5q-62 104 -204 164q-43 16 -81 49t-69 79q-29 51 -42 102t-13 105q0 81 27.5 151t81.5 133q111 126 276 126q59 0 117.5 -18t109 -51.5t90 -81.5t60.5 -108zM1264 -153q0 -85 -71 -91 q-36 0 -52.5 21.5t-16.5 66.5v731q0 88 -33 164t-98 142q-137 131 -314 131q-184 0 -314 -136q-66 -67 -98 -141.5t-32 -172.5v-12l27 5l74 5q104 0 196 -33.5t172 -102.5q173 -151 173 -377q0 -23 -20 -43.5t-64 -28.5l-114 -8q-205 0 -363 127q-159 131 -207 333l-10 83 l-2 42q0 127 39.5 232.5t127.5 195.5q88 87 191 131t224 44t224 -44t189 -131q172 -173 172 -420v-713zM713 115q-15 63 -48.5 118.5t-82 97t-109 65t-127.5 23.5h-29.5t-22.5 -2q-24 -8 -32 -8q20 -59 56 -110.5t90 -96.5q119 -89 268 -89z" />
<glyph unicode="&#x104e;" horiz-adv-x="1302" d="M1185 280l-2 -4v-868q0 -35 -22 -53t-48 -18t-48 18t-22 53v706q-15 -11 -30 -21.5t-32 -21.5q-69 -43 -141.5 -63t-150.5 -20q-241 0 -410 166q-168 168 -168 406q0 233 170 403q169 169 408 169q76 0 147.5 -20t139.5 -58q72 -39 122.5 -87.5t76.5 -111.5 q10 -22 1.5 -48.5t-32.5 -39.5q-12 -6 -25 -6.5t-25 3.5t-21.5 11t-14.5 16q-25 43 -65 80.5t-89.5 65t-104.5 43t-110 15.5q-91 0 -169 -31.5t-143 -96.5q-128 -124 -128 -307q0 -179 128 -308q65 -64 143 -95.5t169 -31.5q59 0 114.5 15.5t104 44.5t89 69.5t69.5 91.5 q4 6 14 13t22.5 11.5t26.5 5t26 -5.5q24 -14 33 -41t-3 -49z" />
<glyph unicode="&#x104f;" horiz-adv-x="1754" d="M1632 1568q7 -21 7 -36q0 -55 -76 -55q-20 0 -36.5 10.5t-26.5 31.5q-61 163 -244 163q-53 0 -97.5 -20.5t-77 -56t-51 -83t-18.5 -102.5q0 -39 11 -72.5t31 -62.5q20 -31 46.5 -60t61.5 -49q79 -52 169 -185q89 -136 89 -252v-645q0 -71 -70 -71q-71 0 -71 71v645 q0 72 -62 172q-64 110 -118 149q-47 27 -85.5 63.5t-70.5 81.5q-35 54 -53.5 107.5t-18.5 107.5q0 159 111 281q112 124 274 124q58 0 116.5 -17.5t109 -50.5t90 -81t60.5 -108zM913 849q-2 36 -21.5 60.5t-57.5 41.5l-36 2q-35 0 -60.5 -22t-38.5 -57l-5 -36 q5 -35 23 -58.5t55 -40.5l40 -5q79 11 96 79zM879 300q0 8 -3.5 19.5t-9.5 26.5q-21 64 -94 64q-10 0 -23 -3t-26.5 -9t-25.5 -16.5t-21 -25.5q-17 -17 -17 -59q0 -10 2 -22t8 -25q33 -59 96 -59q19 0 39.5 6.5t37 20t27 34t10.5 48.5zM1027 726q-11 -23 -29 -45t-43 -38 q-58 -52 -148 -52q-24 0 -51.5 7t-54.5 19.5t-52 31.5t-44 43q-52 65 -52 151l7 66q2 15 8.5 30t16.5 32q-113 -22 -205 -114q-61 -61 -90.5 -136.5t-29.5 -166.5q0 -133 110 -249q29 -29 63 -56t76 -51q5 -4 14 -9t23 -11l-20 62l-6 55q0 165 141 231q18 7 32 12t26.5 8 t25 4.5t27.5 1.5q153 0 223 -144l18 -48t9 -63q0 -37 -13 -74t-37 -72q-16 -28 -47 -50.5t-76 -42.5q-38 -16 -80.5 -23.5t-87.5 -7.5q-109 0 -204 38t-183 118q-175 159 -175 371q0 240 160 404q80 85 178.5 125.5t216.5 40.5q58 0 107.5 -9t92.5 -25q154 -58 231 -203 q39 -75 62 -157t23 -176v-462q0 -72 -72 -72q-68 0 -68 72v462q0 30 -3.5 58t-7.5 51t-7.5 40t-4.5 23z" />
<glyph unicode="&#x1050;" horiz-adv-x="1355" d="M1273 555q0 -166 -72 -310.5t-217 -244.5q-4 -4 -16.5 -9t-28.5 -6t-32 5.5t-27 26.5q-7 12 -7 25.5t4 26.5t11 24.5t13 20.5q57 40 100.5 90t73 107t44 119t14.5 125q0 177 -132 314q-133 136 -315 136q-89 0 -166.5 -34t-146.5 -100q-134 -132 -134 -316 q0 -136 49.5 -248.5t160.5 -188.5q7 -3 13 -12.5t9.5 -21.5t3.5 -25.5t-6 -24.5q-12 -24 -28.5 -32.5t-30.5 -10.5q-17 -2 -34 4q-70 42 -122 102.5t-86.5 133t-51.5 155t-17 169.5q0 244 173 417q171 173 414 173q241 0 413 -176q174 -171 174 -414zM904 563 q0 -47 -17.5 -87.5t-47.5 -70.5t-71 -47.5t-89 -17.5q-47 0 -88 17t-72 47t-48.5 70.5t-17.5 88.5q0 47 17.5 88t48.5 72t72 48.5t88 17.5t88 -17.5t71.5 -48.5t48 -72t17.5 -88zM765 563q0 37 -24.5 61.5t-61.5 24.5t-61.5 -24.5t-24.5 -61.5q0 -35 24.5 -59t61.5 -24 q18 0 33.5 6.5t27 17.5t18.5 26.5t7 32.5z" />
<glyph unicode="&#x1051;" horiz-adv-x="1358" d="M1273 555q0 -243 -174 -414q-172 -176 -413 -176q-243 0 -414 173q-173 173 -173 417q0 87 17 169t51.5 155t86.5 133.5t122 102.5q17 6 34 4q14 -2 30.5 -11t28.5 -32q6 -11 6 -24.5t-3.5 -25.5t-9.5 -21.5t-13 -12.5q-111 -76 -160.5 -188.5t-49.5 -248.5 q0 -184 134 -316q69 -66 146.5 -100t166.5 -34q182 0 315 136q132 136 132 314q0 63 -14.5 125t-44 119t-73 107t-100.5 90q-6 9 -13 20.5t-11 24.5t-4 26.5t7 25.5q11 19 27 25.5t32 6t28.5 -5.5t16.5 -9q145 -100 217 -244.5t72 -310.5zM904 547q0 -47 -17.5 -88t-48 -72 t-71.5 -48.5t-88 -17.5t-88 17.5t-72 48.5t-48.5 72t-17.5 88q0 48 17.5 88.5t48.5 70.5t72 47t88 17q48 0 89 -17.5t71 -47.5t47.5 -70.5t17.5 -87.5zM765 547q0 17 -7 32t-18.5 26.5t-27 18t-33.5 6.5q-37 0 -61.5 -24t-24.5 -59q0 -37 24.5 -61.5t61.5 -24.5t61.5 24.5 t24.5 61.5z" />
<glyph unicode="&#x1052;" horiz-adv-x="1370" d="M93 591q0 334 285 539q7 3 16 6q8 2 16.5 4t19.5 2q8 0 19 -2.5t21.5 -9t17.5 -17.5t7 -27q0 -10 -3.5 -21.5t-9 -21.5t-11.5 -18.5t-12 -12.5q-115 -84 -171.5 -187.5t-56.5 -233.5q0 -190 135 -322q66 -68 141.5 -100.5t163.5 -32.5q90 0 169.5 38t139.5 101.5 t95 145.5t35 170q0 37 -7.5 61t-34.5 24q-52 0 -96 18.5t-76 50t-50 72.5t-18 86q0 51 16 91t48 74q20 21 38.5 35t38 22.5t41 11.5t48.5 3q137 0 207 -106q3 -6 7 -18.5t4 -27.5q0 -7 -3 -18t-10 -21t-19.5 -17.5t-31.5 -7.5q-18 0 -37.5 8t-30.5 28q-11 21 -32.5 31.5 t-49.5 10.5q-45 -6 -69 -32t-24 -65q3 -32 16.5 -50t29.5 -26.5t31.5 -10.5t23.5 -2q49 0 83 -19.5t55 -51t30.5 -72t9.5 -82.5q0 -125 -41.5 -230.5t-128.5 -193.5q-171 -174 -407 -174q-238 0 -408 176q-170 178 -170 422z" />
<glyph unicode="&#x1053;" horiz-adv-x="1381" d="M396 269q22 -24 51 -46q46 -35 99.5 -57t111.5 -28q3 -1 8 -1q8 -1 16 -1h16h3h16t16 1q2 0 3.5 0.5t3.5 0.5q57 5 108.5 26t96.5 54q28 21 58 51v-1q63 64 100 148t37 175q0 37 -7.5 61t-34.5 24q-52 0 -96 18.5t-76 50t-50 72.5t-18 86q0 51 16 91t48 74q20 21 38.5 35 t38 22.5t41 11.5t48.5 3q137 0 207 -106q3 -6 7 -18.5t4 -27.5q0 -7 -3 -18t-10 -21t-19.5 -17.5t-31.5 -7.5q-18 0 -37.5 8t-30.5 28q-11 21 -32.5 31.5t-49.5 10.5q-45 -6 -69 -32t-24 -65q3 -32 16.5 -50t29.5 -26.5t31.5 -10.5t23.5 -2q49 0 83 -19.5t55 -51t30.5 -72 t9.5 -82.5q0 -125 -41.5 -230.5t-128.5 -193.5q-168 -171 -398 -174h-12h-9q-230 3 -398 174q-87 88 -128.5 193.5t-41.5 230.5q0 42 9.5 82.5t30.5 72t55 51t83 19.5q8 0 23.5 2t31.5 10.5t29.5 26.5t16.5 50q0 39 -24 65t-69 32q-28 0 -49.5 -10.5t-32.5 -31.5 q-11 -20 -30.5 -28t-37.5 -8q-19 0 -31.5 7.5t-19.5 17.5t-10 21t-3 18q0 15 4 27.5t7 18.5q70 106 207 106q27 0 48.5 -3t41 -11.5t38 -22.5t38.5 -35q32 -34 48 -74t16 -91q0 -45 -18 -86t-50 -72.5t-76 -50t-96 -18.5q-27 0 -34.5 -24t-7.5 -61q0 -91 36.5 -175 t99.5 -148z" />
<glyph unicode="&#x1054;" horiz-adv-x="1305" d="M1218 228q1 -26 -17 -42q-58 -50 -107.5 -87t-104 -61.5t-120.5 -36.5t-157 -12q-254 0 -432 165q-180 166 -180 415q0 128 46 231.5t139 188.5q84 76 183 113t212 37q37 0 82.5 -6t87.5 -18.5t74 -33.5t43 -51l4 -41q-26 -101 -91.5 -189t-171.5 -167 q-212 -158 -440 -158l-20 5q3 -26 13 -55t26.5 -59.5t39.5 -60.5t52 -57q68 -62 151.5 -91.5t181.5 -29.5q71 0 120.5 5.5t91.5 22t82.5 46t93.5 76.5q25 22 49 22q69 0 69 -71zM809 971q-38 14 -61.5 17t-41.5 3q-66 0 -131 -16t-132 -61q-98 -66 -147.5 -138t-49.5 -158 q79 0 163.5 26t162 72.5t140 111.5t97.5 143z" />
<glyph unicode="&#x1055;" horiz-adv-x="1309" d="M605 146q22 6 39 18t31 28t26.5 33.5t26.5 33.5q42 28 83 -1q10 -18 21.5 -37t24 -35t26.5 -26.5t28 -13.5q50 4 92.5 31.5t77.5 85.5q19 30 47.5 33.5t51.5 -10.5t32.5 -41t-9.5 -57q-51 -83 -123.5 -132t-171.5 -54q-48 5 -84 24.5t-67 54.5q-53 -47 -118 -79h-17 q-56 0 -99.5 9t-81.5 26.5t-74 43t-76 57.5q-11 10 -18 19q-172 164 -172 408q0 128 46 231.5t139 188.5q84 76 183 113t212 37q37 0 82.5 -6t87.5 -18.5t74 -33.5t43 -51l4 -41q-26 -101 -91.5 -189t-171.5 -167q-212 -158 -440 -158l-20 5q5 -48 33.5 -105.5t79.5 -108.5 q9 -5 18 -12q28 -22 52.5 -40.5t50 -32t55 -22t67.5 -9.5zM810 967q-38 14 -61.5 17t-41.5 3q-66 0 -131 -16t-132 -61q-98 -66 -147.5 -138t-49.5 -158q79 0 163.5 26t162 72.5t140 111.5t97.5 143z" />
<glyph unicode="&#x1056;" horiz-adv-x="1281" d="M2 591q-1 41 19 64t45.5 24.5t47.5 -19.5t26 -69q7 -94 37 -174.5t98 -147.5q66 -68 141.5 -100.5t163.5 -32.5q90 0 169.5 38t139.5 101.5t95 145.5t35 170q0 37 -7.5 61t-34.5 24q-52 0 -96 18.5t-76 50t-50 72.5t-18 86q0 51 16 91t48 74q20 21 38.5 35t38 22.5 t41 11.5t48.5 3q137 0 207 -106q3 -6 7 -18.5t4 -27.5q0 -7 -3 -18t-10 -21t-19.5 -17.5t-31.5 -7.5q-18 0 -37.5 8t-30.5 28q-11 21 -32.5 31.5t-49.5 10.5q-45 -6 -69 -32t-24 -65q3 -32 16.5 -50t29.5 -26.5t31.5 -10.5t23.5 -2q49 0 83 -19.5t55 -51t30.5 -72t9.5 -82.5 q0 -125 -41.5 -230.5t-128.5 -193.5q-171 -174 -407 -174q-238 0 -408 176q-85 89 -126.5 193.5t-43.5 228.5z" />
<glyph unicode="&#x1057;" horiz-adv-x="1201" d="M612 146q35 1 63 8.5t52.5 19.5t47 28t46.5 36q66 64 104.5 149.5t38.5 179.5q0 37 -7.5 61t-34.5 24q-52 0 -96 18.5t-76 50t-50 72.5t-18 86q0 51 16.5 91t47.5 74q20 21 38.5 35t38 22.5t41.5 11.5t48 3q138 0 207 -106q4 -6 7.5 -18.5t3.5 -27.5q0 -7 -3 -18t-10 -21 t-19.5 -17.5t-31.5 -7.5q-18 0 -37.5 8t-30.5 28q-11 21 -32.5 31.5t-49.5 10.5q-45 -6 -68.5 -32t-23.5 -65q3 -32 16 -50t29 -26.5t31.5 -10.5t23.5 -2q49 0 83 -19.5t55 -51t30.5 -72t9.5 -82.5q0 -125 -41.5 -230.5t-128.5 -193.5q-14 -14 -30 -24q-36 -28 -69 -49.5 t-68.5 -36.5t-76.5 -23t-93 -8h-17q-65 32 -118 79q-31 -35 -67 -54.5t-84 -24.5q-99 5 -171.5 54t-123.5 132q-13 20 -12.5 39t10 34.5t25 25t33.5 11t35.5 -6.5t29.5 -28q36 -58 78.5 -85.5t92.5 -31.5q13 2 26.5 12t25.5 24.5t23 32t21 35.5q50 52 95 0q1 -1 10.5 -16 t25.5 -34t36.5 -35t42.5 -19z" />
<glyph unicode="&#x1058;" d="M-415 -288q-35 41 -90 66.5t-123 25.5q-32 0 -61.5 -6t-55.5 -17q41 -43 87 -66t90 -29.5t84 1t69 25.5zM-278 -589q-27 -41 -64.5 -74.5t-82.5 -56.5t-96.5 -35.5t-106.5 -12.5q-80 0 -152.5 27t-128.5 74.5t-89 113t-33 143.5q0 77 33 142.5t89 113t128.5 74.5 t152.5 27q56 0 109 -13t98.5 -37.5t83 -59t63.5 -77.5q11 -17 12 -33t-4 -30q-2 -3 -3 -5.5t-3 -6.5q-31 -50 -74.5 -79.5t-94 -40.5t-105 -6t-107.5 24.5t-102 51t-89 73.5q-43 -54 -43 -118q0 -41 19 -79.5t53 -68.5t82 -48t105 -18q78 0 137.5 32t91.5 81 q13 20 30.5 27.5t35.5 5.5t33.5 -12t24.5 -25.5t9.5 -34.5t-12.5 -39z" />
<glyph unicode="&#x1059;" horiz-adv-x="1707" d="M-287 -281q-35 41 -90 66.5t-123 25.5q-32 0 -61.5 -6t-55.5 -17q41 -43 87 -66t90 -29.5t84 1t69 25.5zM-759 -403q0 -46 18 -88q2 -3 4.5 -6t4.5 -7q42 -69 124 -106q13 5 31.5 25t39 33.5t42.5 9.5t43 -47q6 -12 11 -19t8 -11q68 5 110.5 24.5t66.5 48.5 q23 28 51.5 27.5t49.5 -17.5t26.5 -45t-16.5 -56q-49 -60 -119.5 -89.5t-157.5 -35.5q-29 -5 -55 5t-49 28q-47 -29 -95 -24.5t-91.5 30t-80 65t-61.5 79.5q-5 8 -9 19q-19 35 -29.5 74t-10.5 83q0 77 33 142.5t89 113t128.5 74.5t152.5 27q56 0 109 -13t98.5 -37.5t83 -59 t63.5 -77.5q11 -17 12 -33t-4 -30l-6 -12q-31 -50 -74.5 -79.5t-94 -40.5t-105 -6t-107.5 24.5t-102 51t-89 73.5q-43 -54 -43 -118z" />
<glyph unicode="&#x105a;" horiz-adv-x="1277" d="M779 -465q-2 -9 0.5 -16t6.5 -12.5t9.5 -9t9.5 -4.5q15 -4 24.5 -16t11.5 -27t-2.5 -31t-17 -27t-34 -15.5t-51.5 4.5q-18 5 -35 19.5t-27.5 35.5t-13.5 48.5t6 58.5q8 33 23 66.5t29 64.5t24 57.5t10 46.5q-1 28 -14 46.5t-33.5 28t-44 9.5t-43 -10t-33 -30t-13.5 -51 q0 -20 -8.5 -33t-21.5 -19.5t-28.5 -6.5t-28.5 6.5t-21.5 19.5t-8.5 33q0 51 18 90t47 64.5t66.5 38.5t76.5 13.5t76 -12t66.5 -37.5t47 -62.5t17.5 -87.5q0 -30 -8.5 -56t-22 -53.5t-29.5 -59.5t-30 -74zM1178 286q-33 -63 -84 -114.5t-120 -94.5t-142 -63.5t-151 -20.5 q-241 0 -412 168q-168 168 -168 406q0 234 171 404q169 170 409 170q76 0 147.5 -20t140.5 -58q70 -39 122 -88t78 -112q8 -22 0 -49t-33 -39q-12 -6 -25 -6.5t-25 3.5t-22 11t-14 16q-25 43 -65 80.5t-89 65t-104.5 43t-110.5 15.5q-91 0 -169.5 -31t-143.5 -97 q-129 -125 -129 -308q0 -179 129 -308q65 -65 143.5 -96.5t169.5 -31.5q59 0 114.5 15.5t104 44.5t89 70t69.5 92q4 6 14 13t23 11.5t26.5 5t25.5 -5.5q25 -13 34 -40.5t-3 -50.5z" />
<glyph unicode="&#x105b;" horiz-adv-x="1600" d="M1500 -600q0 -67 -55 -74q-35 0 -44 10l-281 148q-35 19 -35 64q0 17 5.5 31.5t14.5 27.5q8 5 17 8.5t23 3.5q5 0 27 -5l-17 10v451q0 69 61 69q69 0 69 -69v-518l81 -44v1556q0 72 72 72q62 0 62 -72v-1669zM235 572q0 -94 31 -170.5t97 -142.5q129 -129 316 -129 q60 0 116.5 16.5t106 46t90 70t69.5 89.5q18 26 59 35q32 0 50.5 -19t18.5 -48q0 -5 -1.5 -13t-3.5 -21q-65 -124 -207 -210q-141 -84 -298 -84q-238 0 -414 168q-88 85 -129 187t-41 225q2 234 170 399q175 170 414 170q88 0 173.5 -27t154.5 -72l78 7q75 0 138.5 -24 t108.5 -81q25 -32 18.5 -58t-28 -40.5t-48.5 -16t-43 15.5q-33 38 -76 49l5 -12.5t11 -31.5t11 -40t5 -39q0 -53 -20.5 -99t-55.5 -80.5t-81.5 -54.5t-99.5 -20t-98.5 20.5t-79.5 55.5t-53.5 81.5t-19.5 98.5q0 36 12 70t30 62.5t38 49.5t36 30q-32 10 -61 14t-55 4 q-181 0 -313 -128q-128 -125 -131 -303zM819 772q0 -24 9 -45.5t25 -37.5t37.5 -25t45.5 -9t45.5 9t37.5 25t25.5 37.5t9.5 45.5t-9.5 45.5t-25.5 37.5t-37.5 25t-45.5 9t-45.5 -9t-37.5 -25t-25 -37.5t-9 -45.5z" />
<glyph unicode="&#x105c;" horiz-adv-x="1363" d="M1255 563q0 -79 -20.5 -152t-58 -136.5t-90 -116t-116.5 -90.5t-138 -58.5t-153 -20.5q-236 0 -406 166q-171 168 -171 408q0 239 169 406q170 170 408 170q118 0 217 -42t186 -126q173 -168 173 -408zM1116 563q0 88 -35 167.5t-94.5 139.5t-139 95.5t-168.5 35.5 t-168.5 -34.5t-139.5 -94.5t-95 -139.5t-35 -169.5t35 -169t95 -138.5t139.5 -93.5t168.5 -34t168.5 35t139 94t94.5 138t35 168zM900 560q0 -47 -17.5 -87.5t-47.5 -70.5t-71 -47.5t-89 -17.5q-47 0 -88 17t-72 47t-48.5 70.5t-17.5 88.5q0 47 17.5 88t48.5 72t72 48.5 t88 17.5t88 -17.5t71.5 -48.5t48 -72t17.5 -88zM761 560q0 37 -24.5 61.5t-61.5 24.5t-61.5 -24.5t-24.5 -61.5q0 -35 24.5 -59t61.5 -24q18 0 33.5 6.5t27 17.5t18.5 26.5t7 32.5z" />
<glyph unicode="&#x105d;" horiz-adv-x="1384" d="M882 32l-230 -501q-14 -42 -37 -77.5t-52.5 -61.5t-63 -40.5t-69.5 -14.5q-83 0 -139 66q-29 34 -41.5 79t-12.5 102l2 51q0 52 64 52q60 0 68 -71l-2 -35q0 -42 18 -66t48 -24q35 0 55 21t40 66l190 420q-11 -1 -20.5 -1.5t-20.5 -0.5q-119 0 -220 43.5t-189 130.5 q-170 176 -170 424q0 91 17 164t51.5 133t85.5 110t119 94q10 6 19 8t18 2q29 0 46 -18t23 -50q0 -23 -7.5 -38.5t-24.5 -25.5q-52 -35 -91 -74t-65.5 -84.5t-39.5 -100t-13 -120.5q0 -117 52 -215q31 36 73.5 66t92 51.5t104 34t109.5 12.5q115 0 217.5 -40.5t178.5 -125.5 q28 50 41 103.5t13 113.5q0 64 -14.5 116t-43 97t-71.5 86t-100 82q-27 24 -27 59q0 71 69 71l39 -12q71 -51 124.5 -104t89.5 -113t54 -129.5t18 -152.5q0 -244 -170 -422q-93 -96 -205 -139v-1zM979 262q-24 26 -56 49t-71 40.5t-84.5 28t-96.5 10.5q-45 0 -87.5 -9.5 t-80.5 -26.5t-69.5 -40.5t-54.5 -51.5q66 -61 145.5 -92t154.5 -31q94 0 170 34.5t130 88.5z" />
<glyph unicode="&#x105e;" d="M-552 -445h-185q-18 0 -28 -7t0 -29q10 -17 32.5 -40.5t47.5 -46.5t51 -41.5t45 -25.5q5 -2 11.5 -2.5t12 2.5t9.5 9.5t4 18.5v162zM-403 -119v-177h136q25 0 41 -11t24.5 -27.5t8.5 -36t-8.5 -35.5t-24.5 -27.5t-41 -11.5h-136v-185q0 -30 -12.5 -56t-32.5 -46t-46 -32 t-52 -12q-44 0 -90 18t-90 47.5t-82 67t-67 75.5t-45.5 74t-16.5 62q1 18 14 42t33.5 45t47.5 35t55 14h235v177q0 25 11 41t27.5 24.5t36 8.5t35.5 -8.5t27.5 -24.5t11.5 -41z" />
<glyph unicode="&#x105f;" d="M-230 -500q0 -50 -16 -86.5t-42.5 -63.5t-62 -44t-74 -28t-79 -15t-77.5 -4q-36 0 -76 4t-78.5 14.5t-74 27.5t-62 44t-42.5 64t-16 87q0 58 24.5 100.5t64 70t89 43.5t101.5 21v149q0 25 10 40.5t26.5 23.5t34.5 8t34.5 -8t26.5 -23.5t10 -40.5v-215q0 -15 -5 -28.5 t-15.5 -23.5t-23.5 -15.5t-28 -5.5q-58 0 -97 -9.5t-63.5 -23.5t-34.5 -31t-10 -32q0 -20 9.5 -37t33 -31t63 -21t99.5 -7q61 0 100.5 7.5t63 21t33 31t9.5 36.5q0 24 11 39.5t26.5 24t34.5 8t35 -8.5t27 -23.5t11 -39.5z" />
<glyph unicode="&#x1060;" d="M-272 -184l-453 -422h405q25 0 41.5 -11.5t24.5 -28.5t8 -37t-8 -37t-24.5 -28.5t-41.5 -11.5h-595q-33 0 -54 12.5t-28.5 31.5t-1.5 42.5t30 45.5l591 554q18 18 38 21.5t38 -3t31.5 -21t19 -33t2 -38.5t-22.5 -36z" />
<glyph unicode="&#x1061;" horiz-adv-x="1440" d="M1489 -263q-9 -54 -28 -93t-45 -63.5t-58 -36t-67 -11.5q-38 0 -74.5 14t-65.5 39.5t-46.5 61t-17.5 78.5l3 856q0 83 -34.5 159t-93.5 134t-137 92.5t-165 34.5q-84 0 -161.5 -33.5t-137 -91.5t-95 -136.5t-35.5 -169.5q0 -88 33.5 -166t91.5 -136.5t136.5 -92.5 t167.5 -34q12 0 34 3.5t44.5 7t41 7t24.5 3.5q58 0 65 -67q0 -19 -15 -36t-43 -30t-66.5 -20.5t-84.5 -7.5q-226 0 -396 167q-86 84 -127 184.5t-41 217.5t40.5 217t124.5 182q165 169 399 169q230 0 398 -169q85 -82 126.5 -182t41.5 -217l-2 -841q5 -32 22 -46t41 -14 q16 0 28 8t20.5 19.5t13.5 24.5t6 22q8 35 24 52t36 24q75 0 75 -70q0 -3 -0.5 -6t-0.5 -7zM770 -86l-230 -501q-14 -42 -37 -77.5t-52.5 -61.5t-63 -40.5t-69.5 -14.5q-83 0 -139 66q-29 34 -41.5 79t-12.5 102l2 51q0 52 64 52q60 0 68 -71l-2 -35q0 -42 18 -66t48 -24 q35 0 55 21t40 66l229 505q14 39 62 39q23 0 54 -24q5 -10 8.5 -20.5t3.5 -21.5q0 -9 -5 -24z" />
<glyph unicode="&#x1062;" horiz-adv-x="616" d="M368 47v968h-306q-36 0 -54 22.5t-18 49.5t18 49.5t54 22.5h378q29 0 50.5 -21.5t21.5 -50.5v-1040q0 -36 -22.5 -54t-49.5 -18t-49.5 18t-22.5 54z" />
<glyph unicode="&#x1063;" horiz-adv-x="1216" d="M1165 564q0 -239 -162 -408q-82 -86 -178.5 -128t-214.5 -42q-53 0 -100 6.5t-90.5 21.5t-83.5 39.5t-79 60.5v-744q0 -39 -21.5 -55.5t-47.5 -14t-47.5 20.5t-21.5 47v901l-7 29q0 70 66 70q15 -1 28.5 -5.5t24.5 -16.5l14 -17q79 -107 165.5 -156t199.5 -49 q85 0 161 36t133.5 96.5t91.5 140t34 167.5q0 89 -30.5 168.5t-84.5 139t-128 94.5t-160 35q-63 0 -122.5 -20t-111 -53.5t-95 -77t-75.5 -91.5q-8 -12 -20.5 -19.5t-32.5 -11.5q-70 0 -70 72l12 39q46 67 106 123t128 95.5t140.5 61.5t144.5 22q112 0 205 -43t172 -131 q78 -87 117.5 -187t39.5 -216z" />
<glyph unicode="&#x1064;" horiz-adv-x="1047" d="M500 1006h-428q-36 0 -54 22.5t-18 49t18 49t54 22.5h465q22 -1 45 -9t41 -24.5t26.5 -41t0.5 -58.5l-191 -883h420q36 0 53.5 -22.5t17.5 -49t-17.5 -49t-53.5 -22.5h-444q-30 1 -54.5 11t-41 28.5t-24 43.5t-3.5 56l1 8z" />
<glyph unicode="&#x1065;" horiz-adv-x="1265" d="M117 286q-12 23 -3 50.5t34 40.5q12 6 25.5 5.5t26.5 -5t22.5 -11.5t14.5 -13q29 -51 69.5 -92t89 -70t104 -44.5t114.5 -15.5q91 0 169.5 31.5t143.5 96.5q129 129 129 308q0 183 -129 308q-65 66 -143.5 97t-169.5 31q-56 0 -111 -15.5t-104 -43t-89 -65t-65 -80.5 q-5 -9 -14.5 -16t-21.5 -11t-25 -3.5t-25 6.5q-25 12 -33 39t0 49q26 63 78 112t122 88q69 38 140.5 58t147.5 20q240 0 409 -170q171 -170 171 -404q0 -238 -168 -406q-171 -168 -412 -168q-78 0 -151 20.5t-142 63.5t-120 94.5t-84 114.5z" />
<glyph unicode="&#x1066;" horiz-adv-x="1363" d="M1273 579q0 -243 -174 -414q-172 -176 -413 -176q-243 0 -414 173q-173 173 -173 417q0 174 68 309.5t209 220.5q3 1 7 2q10 2 20 2q6 0 18 -3t24 -10.5t21 -21t9 -35.5q0 -19 -8 -35.5t-18 -21.5q-111 -76 -160.5 -173.5t-49.5 -233.5q0 -92 37.5 -174t99.5 -143.5 t142.5 -97t167.5 -35.5q91 0 172.5 37.5t142.5 100.5t96.5 144t35.5 168q0 128 -58.5 229t-173.5 182q-10 13 -19 31.5t-9 37.5q0 17 6.5 28.5t16 18.5t20.5 10t19 3q17 0 30.5 -5.5t18.5 -9.5q146 -100 217.5 -229t71.5 -296zM756 -86l-230 -501q-14 -42 -37 -77.5 t-52.5 -61.5t-63 -40.5t-69.5 -14.5q-83 0 -139 66q-29 34 -41.5 79t-12.5 102l2 51q0 52 64 52q60 0 68 -71l-2 -35q0 -42 18 -66t48 -24q35 0 55 21t40 66l229 505q14 39 62 39q23 0 54 -24q5 -10 8.5 -20.5t3.5 -21.5q0 -9 -5 -24z" />
<glyph unicode="&#x1067;" horiz-adv-x="648" d="M260 377q-24 0 -45.5 -9t-37 -25t-25 -37.5t-9.5 -45.5t9.5 -45t25 -37t37 -25t45.5 -9t45.5 9t37.5 25t25 37t9 45t-9 45.5t-25 37.5t-37.5 25t-45.5 9zM520 1071v-807v-5q0 -54 -20.5 -101t-56 -82t-82.5 -55.5t-101 -20.5t-101 20.5t-82.5 56t-56 82.5t-20.5 101 t20.5 101.5t56 82.5t82.5 55.5t101 20.5q32 0 61.5 -7t55.5 -20v578q0 36 22.5 54t49 18t49 -18t22.5 -54z" />
<glyph unicode="&#x1068;" horiz-adv-x="922" d="M629 1073l-15 -819q0 -66 -23.5 -113.5t-60.5 -78.5t-82 -46t-87 -15h-288q-36 0 -54 22.5t-18 49t18 49t54 22.5h288q21 0 41 6.5t35 20.5t24.5 35t9.5 50l14 819q1 36 23.5 53.5t49.5 17t49 -18.5t22 -54zM771 1514q0 -47 -17.5 -87.5t-47.5 -70.5t-71 -47.5t-89 -17.5 q-47 0 -88 17t-72 47t-48.5 70.5t-17.5 88.5q0 47 17.5 88t48.5 72t72 48.5t88 17.5t88 -17.5t71.5 -48.5t48 -72t17.5 -88zM632 1514q0 37 -24.5 61.5t-61.5 24.5t-61.5 -24.5t-24.5 -61.5q0 -35 24.5 -59t61.5 -24q18 0 33.5 6.5t27 17.5t18.5 26.5t7 32.5z" />
<glyph unicode="&#x1069;" horiz-adv-x="817" d="M56 1043q38 36 92.5 61.5t115 36.5t123 6.5t116 -27.5t94 -66.5t57.5 -109.5q25 -96 6 -168t-66.5 -124.5t-116.5 -86.5t-144 -55q-38 -10 -67.5 -20t-54.5 -24q-33 -19 -49 -50t-17 -66.5t13.5 -71.5t42 -65.5t67 -48t90 -19t111.5 20.5t130 72q29 21 56.5 13.5 t43.5 -29t15 -50.5t-30 -50q-105 -77 -200 -102.5t-175.5 -14.5t-143.5 53t-103 100.5t-54.5 127t2.5 134t68 120.5t141 86q33 11 72 21.5t76.5 24t70.5 32t55 46t29 66t-7 92.5q-10 37 -50 63t-93.5 33.5t-112 -7t-105.5 -58.5q-17 -16 -36 -19.5t-35.5 3t-29.5 20 t-18 30.5t-1 35.5t22 34.5z" />
<glyph unicode="&#x106a;" horiz-adv-x="704" d="M6 174q-9 22 -5 40.5t15.5 32t29 20.5t35 5.5t33.5 -12.5t25 -33q13 -33 40 -54.5t60 -31t68 -7t63.5 18.5t47 46.5t18.5 75.5v795q0 36 22.5 54t49 18t49 -18t22.5 -54v-795q0 -84 -34.5 -143t-89 -93.5t-121 -44t-130 7.5t-117 60t-81.5 112z" />
<glyph unicode="&#x106b;" horiz-adv-x="683" d="M6 958q28 69 81.5 112t117 60t130 7.5t121 -44t89 -93.5t34.5 -143v-795q0 -36 -22.5 -54t-49 -18t-49 18t-22.5 54v795q0 45 -18.5 75.5t-47 46.5t-63.5 18.5t-68 -7t-60 -31.5t-40 -54q-9 -22 -25 -33t-33.5 -12.5t-35 5.5t-29 20.5t-15.5 32t5 40.5z" />
<glyph unicode="&#x106c;" horiz-adv-x="679" d="M573 174q-28 -70 -81.5 -112.5t-117 -59.5t-130 -7.5t-121 44t-89 93.5t-34.5 143v795q0 36 22.5 54t49 18t49 -18t22.5 -54v-795q0 -45 18.5 -75.5t47 -46.5t63.5 -18.5t68 7t60 31t40 54.5q9 22 25 33t33.5 12.5t35 -5.5t29 -20.5t15.5 -32t-5 -40.5z" />
<glyph unicode="&#x106d;" horiz-adv-x="798" d="M655 1043q17 -16 21.5 -34.5t-0.5 -35.5t-18 -30.5t-29.5 -20t-35.5 -3t-36 19.5q-47 44 -105.5 58.5t-112 7t-93.5 -33.5t-50 -63q-14 -54 -7 -92.5t29 -66t55 -46t70.5 -32t76.5 -24t72 -21.5q90 -31 141 -86t68 -120.5t2.5 -134t-54.5 -127t-103 -100.5t-143.5 -53 t-175.5 14.5t-200 102.5q-29 21 -30 50t15 50.5t43.5 29t56.5 -13.5q69 -51 130 -72t111.5 -20.5t90 19t67 48t41.5 65.5t13.5 71.5t-16.5 66.5t-49 50q-25 14 -54.5 24t-67.5 20q-75 21 -144 55t-116.5 86.5t-66.5 124.5t6 168q17 66 57.5 109.5t94 66.5t116 27.5t123 -6.5 t115 -36.5t92.5 -61.5z" />
<glyph unicode="&#x106e;" horiz-adv-x="2051" d="M1192 997q52 72 135 118.5t199 46.5q103 0 182 -41t132.5 -106.5t81 -147.5t27.5 -163v-218q0 -66 -15.5 -141t-51 -143t-93 -121.5t-141.5 -76.5q-23 -7 -41 -1t-30 19.5t-17 31t-1.5 35t16 32.5t35.5 21q49 14 86 48.5t61.5 82t36.5 103t12 110.5v218q0 62 -19.5 118.5 t-56 100t-88.5 69.5t-116 26q-69 0 -122 -25.5t-88 -69t-53 -100.5t-18 -119v-218q0 -10 -3 -19q-1 -105 -10.5 -175t-28.5 -118t-48.5 -80t-69.5 -62q-29 -22 -54.5 -27.5t-45.5 0.5t-32.5 20t-16 31.5t3 35.5t26.5 32q16 11 32.5 23t31 29.5t27.5 41.5t22 60.5t14.5 87.5 t5.5 120v218q0 93 -13 154t-32.5 96.5t-41 49.5t-39.5 14q-23 0 -38.5 -1.5t-28 -5t-22.5 -9.5t-22 -16q44 -63 66 -136t22 -146v-218q0 -66 -11.5 -134.5t-39.5 -132t-75.5 -117t-120.5 -89.5q-32 -16 -54.5 -2t-29.5 40t3 55.5t42 44.5q43 21 71 55.5t43.5 78t21.5 95 t6 106.5v218q0 62 -19.5 118.5t-56 100t-88 69.5t-115.5 26q-69 0 -122 -25.5t-88.5 -69t-53.5 -100.5t-18 -119v-218q0 -55 12.5 -110t33.5 -102t49 -81t60 -46q33 -13 44 -40.5t4.5 -53.5t-29 -41t-55.5 -3q-69 25 -119 77.5t-81.5 118.5t-46.5 139.5t-15 141.5v218 q0 81 25.5 162.5t77.5 147t132 107t190 41.5q70 0 128.5 -19.5t106.5 -53.5q23 20 45 34t46.5 22.5t53.5 12.5t66 4q40 0 73.5 -12t60.5 -34t48 -52t37 -67z" />
<glyph unicode="&#x106f;" horiz-adv-x="1712" d="M1619 481q0 -100 -32 -189t-90.5 -156t-139.5 -106t-179 -39q-18 -1 -40.5 2.5t-42 12t-32.5 22.5t-13 35q0 25 6.5 40t16.5 23.5t21.5 11t21.5 2.5q5 0 9 -0.5t8 -0.5l54 -10q63 0 116.5 28.5t92.5 77t60.5 112.5t21.5 134v148q0 79 -20.5 147t-59 117.5t-94.5 77.5 t-126 28q-40 0 -76 -10t-66.5 -28t-54.5 -43t-40 -55q30 -89 30 -192v-180q0 -110 -33.5 -202t-92.5 -158t-140 -103t-175 -37q-86 0 -163.5 33t-136.5 94.5t-94 150.5t-35 202v195q0 146 54 264.5t158 195.5q5 3 20.5 8t33.5 5q23 0 41 -15.5t18 -46.5q0 -17 -7.5 -34.5 t-21.5 -27.5q-33 -23 -61.5 -60t-49.5 -83.5t-33 -99t-12 -106.5v-195q0 -73 22 -134t60.5 -105t92 -68.5t116.5 -24.5t117.5 25.5t94.5 72t63 111t23 143.5v180l-7 94q-3 24 -12 50.5t-21 51.5t-26 47.5t-27 37.5q-16 22 -34 35.5t-33.5 24.5t-26 24t-10.5 34q0 12 3 24 t10.5 22.5t20 17t31.5 6.5q17 0 40 -8.5t47 -25t48 -41t42 -57.5q27 30 62.5 54t76 41.5t84.5 26.5t89 9q91 0 170 -33t137 -97.5t91.5 -160t33.5 -219.5v-148zM1600 39l-230 -501q-14 -42 -37 -77.5t-52.5 -61.5t-63 -40.5t-69.5 -14.5q-83 0 -139 66q-29 34 -41.5 79 t-12.5 102l2 51q0 52 64 52q60 0 68 -71l-2 -35q0 -42 18 -66t48 -24q35 0 55 21t40 66l229 505q14 39 62 39q23 0 54 -24q5 -10 8.5 -20.5t3.5 -21.5q0 -9 -5 -24z" />
<glyph unicode="&#x1070;" horiz-adv-x="1722" d="M1641 493q0 -101 -29.5 -187t-86.5 -159q-57 -72 -134 -108.5t-174 -36.5q-116 0 -205 50q-32 17 -63 41.5t-63 59.5q-15 -19 -29 -33.5t-29 -26.5t-32.5 -22.5t-39.5 -21.5q-101 -52 -207 -52q-183 0 -306 148q-123 150 -123 338v142q0 38 12 73.5t35 62.5t56 43t75 16 q8 0 23.5 2t31.5 10.5t29 26.5t17 50q0 39 -24.5 65t-69.5 31q-28 0 -49 -10.5t-32 -31.5q-8 -15 -21.5 -22.5t-27.5 -10.5t-27 -2t-19 5q-21 12 -29 27.5t-8 30.5t4 27.5t7 18.5q69 106 207 106q26 0 47.5 -3t41 -11.5t38 -22t38.5 -34.5q32 -34 48 -74.5t16 -90.5 q0 -51 -16.5 -88.5t-54.5 -74.5q-72 -64 -168 -64q-13 0 -24 -11t-13 -31v-15v-140q0 -73 20 -134t59 -113q83 -101 207 -101q130 0 214 106q87 110 87 259v160q0 79 -13.5 133t-48.5 104q-20 32 -51 61.5t-70 61.5q-8 6 -14.5 15.5t-10.5 21t-4.5 24.5t4.5 25q11 25 29 33 t35 6q20 -2 43 -12q50 -32 91 -73.5t69 -86.5q84 -124 84 -313v-157l2 -40q0 -91 -35 -178q26 -33 53.5 -59t55.5 -46q18 -10 34 -17.5t33.5 -12.5t37.5 -7.5t45 -2.5q122 0 200 106q81 108 81 247v148q0 154 -74 256q-81 111 -226 111q-72 0 -72 69t72 69 q104 0 186.5 -40.5t145.5 -119.5q54 -69 81.5 -154t27.5 -191v-148zM1600 39l-230 -501q-14 -42 -37 -77.5t-52.5 -61.5t-63 -40.5t-69.5 -14.5q-83 0 -139 66q-29 34 -41.5 79t-12.5 102l2 51q0 52 64 52q60 0 68 -71l-2 -35q0 -42 18 -66t48 -24q35 0 55 21t40 66l229 505 q14 39 62 39q23 0 54 -24q5 -10 8.5 -20.5t3.5 -21.5q0 -9 -5 -24z" />
<glyph unicode="&#x1071;" d="M-651 1514q0 -47 -17.5 -87.5t-47.5 -70.5t-71 -47.5t-89 -17.5q-47 0 -88 17t-72 47t-48.5 70.5t-17.5 88.5q0 47 17.5 88t48.5 72t72 48.5t88 17.5t88 -17.5t71.5 -48.5t48 -72t17.5 -88zM-790 1514q0 37 -24.5 61.5t-61.5 24.5t-61.5 -24.5t-24.5 -61.5 q0 -35 24.5 -59t61.5 -24q18 0 33.5 6.5t27 17.5t18.5 26.5t7 32.5zM-100 1514q0 -47 -17.5 -87.5t-47.5 -70.5t-71 -47.5t-89 -17.5q-47 0 -88 17t-72 47t-48.5 70.5t-17.5 88.5q0 47 17.5 88t48.5 72t72 48.5t88 17.5t88 -17.5t71.5 -48.5t48 -72t17.5 -88zM-239 1514 q0 37 -24.5 61.5t-61.5 24.5t-61.5 -24.5t-24.5 -61.5q0 -35 24.5 -59t61.5 -24q18 0 33.5 6.5t27 17.5t18.5 26.5t7 32.5z" />
<glyph unicode="&#x1072;" d="M-182 1684q19 -30 10 -57.5t-31.5 -42t-51.5 -11.5t-48 33q-32 48 -92 80.5t-137 32.5q-58 0 -105.5 -18t-82 -48t-53.5 -68.5t-19 -79.5t19 -79.5t53.5 -68.5t82 -48t105.5 -18q39 0 74.5 9t65.5 25t53.5 37.5t38.5 46.5q12 20 29.5 28.5t35.5 7t33.5 -11.5t25 -25 t10 -34.5t-11.5 -39.5q-26 -43 -63.5 -77.5t-83 -58.5t-98.5 -37t-109 -13q-80 0 -152.5 26.5t-128.5 74t-89 113t-33 143.5t33 143.5t89 113t128.5 74t152.5 26.5q55 0 106.5 -12.5t96.5 -35.5t82.5 -56t64.5 -74z" />
<glyph unicode="&#x1073;" d="M-165 1127l-369 300l-328 -296q-23 -21 -47.5 -24.5t-46 5t-37.5 26t-22 40t0 46t29 44.5q120 109 200 185t132 121q37 31 65.5 47t55 17t54.5 -13t65 -42q58 -44 145 -121t222 -191q23 -20 30.5 -43.5t2.5 -46t-20 -41t-36 -28t-46 -7t-49 21.5z" />
<glyph unicode="&#x1074;" d="M-469 1837q49 -21 90.5 -53.5t72 -74t48 -91t17.5 -104.5q0 -77 -33 -142.5t-89 -113t-129 -74.5t-152 -27q-80 0 -152.5 27t-128.5 74.5t-89 113t-33 142.5q0 52 16 100t44 88.5t67 72.5t84 54q21 10 40 7.5t33 -13.5t22.5 -27.5t8 -34.5t-10.5 -34.5t-31 -26.5 q-62 -30 -95.5 -79.5t-33.5 -106.5q0 -41 19 -79.5t53 -68.5t81.5 -48t105.5 -18t105.5 18t82 48t53.5 68.5t19 79.5q0 60 -37.5 111t-104.5 80q-22 9 -32 25t-11 34t6 35t20.5 28.5t32.5 15t41 -5.5z" />
<glyph unicode="&#x1075;" horiz-adv-x="1369" d="M1276 544q0 -334 -285 -539q-7 -3 -16 -6q-8 -2 -17 -4t-19 -2q-8 0 -19 2.5t-21.5 9t-17.5 17t-7 27.5q0 10 3.5 21.5t9 21.5t11.5 18.5t12 12.5q115 84 171.5 187.5t56.5 233.5q0 190 -135 322q-130 133 -305 133q-90 0 -169.5 -38t-139.5 -101.5t-95 -145.5t-35 -170 q0 -37 7.5 -61t34.5 -24q52 0 96 -18.5t76 -50t50 -72.5t18 -86q0 -51 -16 -91t-48 -74q-20 -21 -38.5 -35t-38 -22.5t-41 -11.5t-48.5 -3q-137 0 -207 106q-3 6 -7 18.5t-4 27.5q0 7 3 18t10 21t19.5 17.5t31.5 7.5q18 0 37.5 -8t30.5 -28q11 -21 32.5 -31.5t49.5 -10.5 q45 6 69 32t24 65q-3 32 -16.5 50t-29.5 26.5t-31.5 10.5t-23.5 2q-49 0 -83 19.5t-55 51t-30.5 72t-9.5 82.5q0 125 41.5 230.5t128.5 193.5q171 174 407 174q238 0 408 -176q170 -178 170 -422z" />
<glyph unicode="&#x1076;" horiz-adv-x="1345" d="M1249 585q0 -239 -173 -414q-170 -170 -414 -170q-79 0 -155 22t-142.5 61t-120.5 93.5t-89 119.5q-5 13 -8.5 23t-3.5 19q0 27 27 43l5 8q139 130 344 130q70 0 138 -18.5t130 -56.5q104 -56 178 -186q58 58 96 128q23 48 35 96.5t12 101.5q0 91 -33.5 168t-99.5 143 q-65 65 -140 98t-165 35h-9q-8 0 -31 -2.5t-49 -12.5t-49.5 -28.5t-32.5 -51.5q-20 -71 -62 -114.5t-93 -61.5t-105 -10.5t-97 38.5t-69 84.5t-21 128.5q2 36 25.5 52t50.5 14.5t48 -20.5t19 -55q-3 -50 18 -75t49.5 -26.5t57 19.5t41.5 64q16 57 49.5 93.5t73.5 58t83 31.5 t79 13q4 1 8 1h8q244 0 414 -170q173 -170 173 -414zM847 181q-23 45 -54.5 79.5t-75.5 58.5q-89 58 -201 58q-129 0 -208 -60q29 -36 63 -65.5t78 -52.5q102 -58 213 -58q49 0 95.5 10t89.5 30z" />
<glyph unicode="&#x1077;" horiz-adv-x="1361" d="M985 186q168 154 168 376q0 23 -3 44q-50 -34 -87.5 -81.5t-59.5 -103t-27 -116t9 -119.5zM1292 562q0 -340 -289 -548q-5 -2 -9 -4t-9.5 -3t-11.5 -3q-23 -8 -47 -0.5t-39 36.5q-33 65 -46 134t-8.5 137t26.5 132.5t58 122t85.5 104.5t110.5 81q-35 77 -98 138 q-134 135 -309 135q-183 0 -315 -140q-66 -71 -99 -150.5t-33 -171.5q0 -14 0.5 -27t1.5 -27q5 -17 17.5 -25t24.5 -8q97 0 170 -65q40 -38 56.5 -76t16.5 -89t-16.5 -92.5t-48.5 -75.5q-20 -22 -39 -36t-39 -22.5t-42 -11.5t-48 -3q-140 0 -211 108q-3 6 -7 19t-4 28 t7.5 31t29.5 28q7 4 20 5t27 -2t28 -11t22 -23q24 -43 83 -43q45 6 70 32t25 66q-4 33 -17 51t-29.5 27t-32 10.5t-24.5 1.5q-42 0 -76 16.5t-57 44t-35 63.5t-12 74q-1 8 -1 16v16q0 128 43 234t130 197q88 88 190.5 132t223.5 44q241 0 414 -179q172 -178 172 -428z" />
<glyph unicode="&#x1078;" horiz-adv-x="1726" d="M100 633q0 118 34 211t92.5 157.5t137.5 99t169 34.5q46 0 94 -11t91.5 -31t80.5 -47.5t62 -61.5q61 78 144.5 115.5t177.5 37.5q173 0 307 -131q133 -129 133 -353v-149q0 -117 -36.5 -212t-97 -162t-139.5 -103.5t-164 -36.5q-75 0 -152.5 32.5t-140.5 97t-103 160 t-40 220.5v138q0 58 9 110t26 103q-43 65 -103 100t-144 35q-66 0 -121 -25.5t-94 -71.5t-60.5 -111.5t-21.5 -144.5v-139q0 -82 25.5 -147.5t66.5 -111t92.5 -70t102.5 -24.5l49 2q52 0 75.5 -21t23.5 -51q-8 -81 -79 -81l-55 -3q-89 0 -169 33t-141 97.5t-96.5 159 t-35.5 217.5v139zM891 500q0 -76 22 -140.5t61.5 -112t94 -74.5t119.5 -27q68 0 122.5 26.5t92.5 74t58.5 113t20.5 144.5v149q0 81 -24 144t-65 105.5t-95.5 64.5t-114.5 22q-62 0 -115 -25t-92.5 -70.5t-62 -110.5t-22.5 -145v-138z" />
</font>
</defs>
</svg>
