<?xml version="1.0" standalone="no"?>
<!DOCTYPE svg PUBLIC "-//W3C//DTD SVG 1.1//EN" "http://www.w3.org/Graphics/SVG/1.1/DTD/svg11.dtd" >
<svg>
<metadata>
Created by FontForge 20090914 at Sun Jul 24 19:35:45 2011
 By www-data
Copyright (c) 2009 by Ayar Unicode Group. All rights reserved.
</metadata>
<defs>
<font id="AyarTakhu" horiz-adv-x="0" >
  <font-face 
    font-family="Ayar Takhu"
    font-weight="400"
    font-stretch="condensed"
    units-per-em="2048"
    panose-1="2 0 8 3 0 0 0 2 0 3"
    ascent="1638"
    descent="-410"
    x-height="1061"
    cap-height="1466"
    bbox="-2061 -920.784 4495 2094"
    underline-thickness="129"
    underline-position="-886"
    unicode-range="U+0020-U+FB02"
  />
<missing-glyph horiz-adv-x="601" 
 />
    <glyph glyph-name="Mon_01" unicode="&#x100a;&#x1039;&#x100a;" horiz-adv-x="2203" 
d="M1245 -213l-67.9961 39.0029c7.33301 17.333 18 33.333 32 48s29.833 27.167 47.5 37.5s36.834 18.166 57.501 23.499s41.334 7.33301 62.001 6c23.333 -1.33301 46.166 -6.16602 68.499 -14.499s42.166 -19.833 59.499 -34.5s31.333 -31.5 42 -50.5s16 -38.833 16 -59.5
v-126c1.33301 -10 5.5 -20.5 12.5 -31.5s16.167 -20.833 27.5 -29.5s24 -15.834 38 -21.501s28.667 -8.5 44 -8.5c16 0 31.167 2.83301 45.5 8.5s26.833 12.5 37.5 20.5s19.334 17.5 26.001 28.5s10 22.167 10 33.5v126c0 8.66699 -3 18.167 -9 28.5s-14 19.666 -24 27.999
s-21.833 15.666 -35.5 21.999s-28.834 9.5 -45.501 9.5c-4 0.666992 -8.16699 0.833984 -12.5 0.500977s-8.5 -0.5 -12.5 -0.5c2.66699 18 4.66699 33 6 45s2.66602 20.667 3.99902 26c6 0.666992 12.333 0.666992 19 0c23.333 -1.33301 46.166 -6.16602 68.499 -14.499
s42.166 -19.833 59.499 -34.5s31.333 -31.5 42 -50.5s16 -38.833 16 -59.5v-126c0 -21.333 -5.33301 -41.666 -16 -60.999s-24.834 -36.333 -42.501 -51s-38.167 -26.334 -61.5 -35.001s-48 -13.334 -74 -14.001c-15.333 0 -30.5 1.66699 -45.5 5s-29.333 8 -43 14
s-26.5 13.5 -38.5 22.5s-22.667 18.833 -32 29.5c-8.66699 -10.667 -18.834 -20.334 -30.501 -29.001s-24.334 -16.167 -38.001 -22.5s-28 -11 -43 -14s-30.5 -4.83301 -46.5 -5.5c-17.333 0 -34.333 2 -51 6s-32.334 10 -47.001 18v-243h534v61h75v-99
c0 -4.66699 -1.16699 -9.33398 -3.5 -14.001s-5 -8.83398 -8 -12.501s-7 -6.5 -12 -8.5s-9.5 -3 -13.5 -3h-610c-4.66699 0 -9.33398 1 -14.001 3s-8.66699 4.83301 -12 8.5s-6.16602 7.83398 -8.49902 12.501s-3.5 9.33398 -3.5 14.001v347
c-3.33301 5.33301 -6.16602 10.5 -8.49902 15.5s-4.5 10.167 -6.5 15.5l67 37c2 -10 6.66699 -20.333 14 -31s16.333 -20.167 27 -28.5s22.834 -15.166 36.501 -20.499s28.167 -8 43.5 -8c15.333 0.666992 30.166 3.66699 44.499 9s26.833 12 37.5 20
s19.334 17.167 26.001 27.5s10.334 20.833 11.001 31.5v7v15v20.5v23.5v63c0 9.33301 -2.83301 19 -8.5 29s-13.667 19.167 -24 27.5s-22.5 15.666 -36.5 21.999s-29 9.5 -45 9.5c-16 0.666992 -31.5 -1.33301 -46.5 -6s-28.167 -11 -39.5 -19s-20.5 -17 -27.5 -27
s-11.5 -20.333 -13.5 -31zM274.004 733.003l-173.991 101c18 43.333 44.667 83.833 80 121.5s76 69.5 122 95.5s95.5 45.667 148.5 59s105.5 18.666 157.5 15.999c58.667 -2.66699 116.667 -15.167 174 -37.5s108.166 -52 152.499 -89s80.166 -79.333 107.499 -127
s41 -98.834 41 -153.501v-340c4.66699 -27.333 16.167 -55 34.5 -83s41.5 -53.333 69.5 -76s59.667 -40.834 95 -54.501s73 -20.5 113 -20.5c39.333 1.33301 77.833 8.5 115.5 21.5s70.167 30.833 97.5 53.5s49.166 47.667 65.499 75s24.5 55.333 24.5 84v340
c0 23.333 -7.5 47.833 -22.5 73.5s-35.5 49.5 -61.5 71.5s-56.833 40.833 -92.5 56.5s-73.834 24.167 -114.501 25.5h-32.5c-11 0 -22.167 -1.33301 -33.5 -4l18 117c4.66699 30 7.66699 52.333 9 67c16.667 1.33301 33 1.33301 49 0
c58.667 -2.66699 116.667 -15.167 174 -37.5s108.166 -52.333 152.499 -90s80.166 -80.334 107.499 -128.001s41 -98.167 41 -151.5v-340c0 -54.667 -13.333 -107 -40 -157s-62.834 -93.667 -108.501 -131s-98.5 -67.666 -158.5 -90.999s-122.667 -35 -188 -35
c-40 -1.33301 -79 2.83398 -117 12.501s-74.5 22.334 -109.5 38.001s-67.5 34.667 -97.5 57s-57.333 47.166 -82 74.499c-23.333 -27.333 -49.666 -51.833 -78.999 -73.5s-61.333 -40.334 -96 -56.001s-71.5 -28 -110.5 -37s-78.167 -14.167 -117.5 -15.5
c-45.333 -1.33301 -89.166 3.83398 -131.499 15.501s-82.5 27.167 -120.5 46.5v-637h782v-191h-878c-12.667 0 -24.834 2.5 -36.501 7.5s-21.834 11.833 -30.501 20.5s-15.5 18.834 -20.5 30.501s-7.5 24.167 -7.5 37.5v902c-9.33301 12 -17.333 24.5 -24 37.5
s-13 26.167 -19 39.5l174 97c6 -27.333 18.167 -54.333 36.5 -81s41.166 -51 68.499 -73s58.333 -39.5 93 -52.5s71.334 -19.5 110.001 -19.5c39.333 1.33301 77.5 8.5 114.5 21.5s69.167 30.167 96.5 51.5s49.5 45.333 66.5 72s26.167 53.667 27.5 81v348
c0 23.333 -7.5 47.833 -22.5 73.5s-35.5 49.5 -61.5 71.5s-56.833 40.833 -92.5 56.5s-73.834 24.167 -114.501 25.5c-40.667 2.66699 -79.834 -2.16602 -117.501 -14.499s-71.167 -29 -100.5 -50s-53.5 -44.5 -72.5 -70.5s-30.167 -52 -33.5 -78z" />
    <glyph glyph-name="uni100B_2_lig" unicode="&#x1039;&#x100b;" 
d="M-593 -383c22.667 0 42.833 5.66992 60.5 17.0029s30.5 25.666 38.5 42.999l139 -67c-13.333 -23.333 -30.333 -44.333 -51 -63v-210h92v-137h-154c-10.667 0 -20.834 2.16699 -30.501 6.5s-18.167 10 -25.5 17s-13.166 15.333 -17.499 25s-6.5 19.834 -6.5 30.501v202
c-14 -2 -28.333 -3 -43 -3h-34c-36 0 -70 6.16699 -102 18.5s-59.833 29.166 -83.5 50.499s-42.334 46.333 -56.001 75s-20.5 59.667 -20.5 93c0 32.667 6.83301 63.334 20.5 92.001s32.334 53.667 56.001 75s51.5 38.166 83.5 50.499s66 18.5 102 18.5h34
c47.333 0 90.166 -9.83301 128.499 -29.5s69.166 -46.167 92.499 -79.5l-128 -82c-9.33301 15.333 -22.166 27.666 -38.499 36.999s-35.166 14 -56.499 14h-30c-15.333 0 -29.5 -2.5 -42.5 -7.5s-24.333 -11.833 -34 -20.5s-17.334 -18.834 -23.001 -30.501
s-8.5 -24.167 -8.5 -37.5s2.83301 -26 8.5 -38s13.334 -22.5 23.001 -31.5s21 -16 34 -21s27.167 -7.5 42.5 -7.5h30z" />
    <glyph glyph-name="uni100C_1_lig" unicode="&#x1039;&#x100c;" 
d="M-1176 -451c0 54 10.4961 105.001 31.4961 153.001s49.833 90 86.5 126s79.334 64.333 128.001 85s101 31 157 31s108.5 -10.333 157.5 -31s91.833 -49 128.5 -85s65.5 -78 86.5 -126s31.5 -99 31.5 -153c0 -39.333 -5.5 -76.666 -16.5 -111.999s-26.333 -68.333 -46 -99
s-43.167 -58 -70.5 -82s-57.666 -44 -90.999 -60l-79 145c40 18 72.5 45.667 97.5 83s37.5 79 37.5 125c0 31.333 -6.16699 61 -18.5 89s-29.166 52.333 -50.499 73s-46.333 37 -75 49s-59.334 18 -92.001 18c-32 0 -62.333 -6 -91 -18s-53.667 -28.333 -75 -49
s-38.166 -45 -50.499 -73s-18.5 -57.667 -18.5 -89c0 -41.333 10 -79 30 -113s47 -61.333 81 -82l-75 -148c-7.33301 3.33301 -14.166 7.16602 -20.499 11.499s-12.5 8.83301 -18.5 13.5h-926c-11.333 0 -22.166 2.33301 -32.499 7s-19.5 11 -27.5 19
s-14.333 17.167 -19 27.5s-7 21.166 -7 32.499v542c0 12 2.33301 23.167 7 33.5s11 19.5 19 27.5s17.167 14.167 27.5 18.5s21.166 6.5 32.499 6.5h248v-173h-161v-368h702c-18.667 44 -28 92.333 -28 145z" />
    <glyph glyph-name="uni100C_2_lig" unicode="&#x100b;&#x1039;&#x100c;" horiz-adv-x="1163" 
d="M608 -80c62.667 1.33301 123.502 10.832 182.502 28.499s110.5 38.834 154.5 63.501c40.667 14 69 -2.66699 85 -50v-362v-307c0 -13.333 -2.66699 -25.666 -8 -36.999s-12.333 -21.333 -21 -30s-18.834 -15.5 -30.501 -20.5s-23.5 -7.5 -35.5 -7.5l-350 -3l-368 3
c-13.333 0 -25.666 2.5 -36.999 7.5s-21.333 11.833 -30 20.5s-15.5 18.667 -20.5 30s-7.5 23.666 -7.5 36.999v155c0 13.333 1 32.166 3 56.499s8.83301 49.333 20.5 75s30 49.667 55 72s60.167 38.166 105.5 47.499c40 8.66699 78.833 8.66699 116.5 0
s72.5 -21.5 104.5 -38.5s60.667 -35.833 86 -56.5s46 -39 62 -55l-135 -136c-6 6 -15.667 14.5 -29 25.5s-28.333 21.833 -45 32.5s-33.834 20.334 -51.501 29.001s-34 13.5 -49 14.5s-27.5 -2.83301 -37.5 -11.5s-15.333 -24.667 -16 -48v-67h264h264v198v172
c-38.667 -11.333 -77.334 -19.5 -116.001 -24.5s-78 -7.5 -118 -7.5c-82 0.666992 -162.5 12.167 -241.5 34.5s-153.833 55.5 -224.5 99.5l66 186c29.333 -20.667 59 -39 89 -55s61.333 -29.333 94 -40s67 -18.667 103 -24s74.667 -7.66602 116 -6.99902zM1084 271.999
c-18 -44 -44.4932 -84.501 -79.4932 -121.501s-75.333 -68.5 -121 -94.5s-94.834 -45.833 -147.501 -59.5s-105.334 -19.167 -158.001 -16.5c-58.667 2.66699 -116.334 15.334 -173.001 38.001s-107.167 52.334 -151.5 89.001s-80 79 -107 127s-40.5 98.667 -40.5 152v334
c0 54 13.333 105.667 40 155s62.667 92.833 108 130.5s97.833 67.834 157.5 90.501s122.5 34.334 188.5 35.001c53.333 0.666992 105.166 -7 155.499 -23s96.833 -38 139.5 -66s80.167 -60.833 112.5 -98.5s57.166 -77.834 74.499 -120.501l-173 -95
c-5.33301 26.667 -17.166 53.334 -35.499 80.001s-41.333 50.667 -69 72s-58.667 38.666 -93 51.999s-70.5 19.666 -108.5 18.999c-41.333 -0.666992 -80.333 -7.66699 -117 -21s-68.667 -30.833 -96 -52.5s-49.166 -46.334 -65.499 -74.001s-24.5 -55.5 -24.5 -83.5v-334
c0 -23.333 7.33301 -47.833 22 -73.5s35 -49.5 61 -71.5s56.667 -40.667 92 -56s73.333 -24 114 -26c41.333 -2 80.666 3.16699 117.999 15.5s70.666 29 99.999 50s53.166 44.333 71.499 70s29.166 51.167 32.499 76.5z" />
    <glyph glyph-name="uni100D_1_lig" unicode="&#x1039;&#x100d;" 
d="M-619 -557l-0.00292969 -72.998h1v-55h79v-116h-109c-11.333 0 -22.166 2.5 -32.499 7.5s-19.5 11.5 -27.5 19.5s-14.333 17.333 -19 28s-7 22 -7 34v9c-23.333 -2 -46.666 -3 -69.999 -3s-46.166 0.833008 -68.499 2.5s-43.5 4.16699 -63.5 7.5s-38 7.33301 -54 12
c-25.333 8 -45.833 19 -61.5 33s-23.5 32.667 -23.5 56l2 157l-15.5 19.5c-5 6.33301 -9.16699 13.166 -12.5 20.499l149 70c8.66699 -18 22.5 -32.833 41.5 -44.5s40.5 -17.5 64.5 -17.5h34c16 0 30.833 2.66699 44.5 8s25.834 12.666 36.501 21.999s19 20 25 32s9 25 9 39
s-3 27.333 -9 40s-14.333 23.667 -25 33s-22.834 16.666 -36.501 21.999s-28.5 8 -44.5 8h-34c-22 0 -42 -5.16699 -60 -15.5s-31.667 -23.166 -41 -38.499l-139 85c25.333 35.333 59 63.5 101 84.5s88 31.5 138 31.5h37c38.667 0 75.167 -6.5 109.5 -19.5
s64.166 -30.833 89.499 -53.5s45.5 -49.167 60.5 -79.5s22.5 -62.833 22.5 -97.5c0 -34 -7.5 -66.167 -22.5 -96.5s-35.167 -56.833 -60.5 -79.5s-55.166 -40.5 -89.499 -53.5s-70.833 -19.5 -109.5 -19.5h-37c-19.333 0 -38.333 1.5 -57 4.5s-36.334 7.83301 -53.001 14.5
v-56c18 -8 42.667 -13.833 74 -17.5s63.833 -5 97.5 -4s65.834 4.66699 96.501 11s54 15.833 70 28.5z" />
    <glyph glyph-name="uni100E_100D_lig" unicode="&#x100d;&#x1039;&#x100e;" horiz-adv-x="1202" 
d="M587 245l-13.999 0.00683594v-74c4 -0.666992 8.16699 -1 12.5 -1h13.5c40.667 0.666992 79.5 7.66699 116.5 21s69.167 30.833 96.5 52.5s49.166 46.167 65.499 73.5s24.5 55.333 24.5 84v357c0 16.667 -3.83301 34 -11.5 52s-18.667 35.667 -33 53
s-31.333 33.666 -51 48.999s-41.5 28.666 -65.5 39.999l69 169c40 -17.333 77.5 -38.5 112.5 -63.5s65.333 -53.333 91 -85s46 -65.667 61 -102s22.5 -73.833 22.5 -112.5v-332v-4c0 -40.667 -6 -78.667 -18 -114s-28.5 -67.833 -49.5 -97.5s-45.333 -56.334 -73 -80.001
s-56.834 -44.5 -87.501 -62.5v-679h213v-191h-309c-12.667 0 -24.667 2.5 -36 7.5s-21.333 11.833 -30 20.5s-15.667 18.834 -21 30.501s-8 23.834 -8 36.501v704c-13.333 -2.66699 -26.5 -4.5 -39.5 -5.5s-25.5 -1.5 -37.5 -1.5c-44 0 -87 5.5 -129 16.5
s-81.833 26.333 -119.5 46s-72.334 43 -104.001 70s-58.834 56.5 -81.501 88.5s-40.5 66 -53.5 102s-19.5 72.333 -19.5 109v70c0 58.667 14.667 113.167 44 163.5s71.333 94.5 126 132.5l27.5 19c9.66699 6.66699 18.334 13.667 26.001 21s14 14.833 19 22.5
s7.5 15.834 7.5 24.501c0 12 -5 24.667 -15 38s-23.833 24.166 -41.5 32.499s-38.667 12.5 -63 12.5s-50.833 -7.33301 -79.5 -22l-55 166c29.333 10.667 60.666 17.667 93.999 21s66.333 3.16602 99 -0.500977s64 -11.5 94 -23.5s56.333 -28.167 79 -48.5
s40.834 -45 54.501 -74s20.5 -62.833 20.5 -101.5c0 -26 -3.66699 -49.333 -11 -70s-17.333 -39.834 -30 -57.501s-27 -33.834 -43 -48.501s-32.333 -28.667 -49 -42c-15.333 -12 -29.5 -24.833 -42.5 -38.5s-24.5 -27.5 -34.5 -41.5s-17.833 -28.167 -23.5 -42.5
s-8.5 -28.5 -8.5 -42.5v-70c0 -18 3.5 -36.5 10.5 -55.5s16.833 -37.667 29.5 -56s28 -35.666 46 -51.999s37.667 -30.833 59 -43.5v83c-14 11.333 -26.667 24.666 -38 39.999l101 68c8.66699 -14.667 21 -26.334 37 -35.001s33.667 -13 53 -13h30
c14.667 0 28.334 2.5 41.001 7.5s23.667 11.667 33 20s16.666 18.166 21.999 29.499s8 23.666 8 36.999c0 12.667 -2.66699 24.834 -8 36.501s-12.666 21.667 -21.999 30s-20.333 15 -33 20s-26.334 7.5 -41.001 7.5h-30c-13.333 0 -25.666 -2 -36.999 -6
s-21.666 -9.66699 -30.999 -17l-80 87c20 15.333 42.667 27.333 68 36s52 13 80 13h30c32 0 61.833 -5.33301 89.5 -16s51.834 -25.334 72.501 -44.001s37 -40.667 49 -66s18 -52.333 18 -81s-6 -55.5 -18 -80.5s-28.333 -46.833 -49 -65.5s-44.834 -33.5 -72.501 -44.5
s-57.5 -16.5 -89.5 -16.5h-30z" />
    <glyph glyph-name="uni1025_1005_lig" unicode="&#x1009;&#x1039;&#x1005;" horiz-adv-x="1200" 
d="M336 35v-640.004h567v79h195v-176c0 -13.333 -2.5 -25.833 -7.5 -37.5s-12 -22 -21 -31s-19.333 -16.167 -31 -21.5s-24.167 -8 -37.5 -8h-762c-13.333 0 -25.833 2.66699 -37.5 8s-22 12.5 -31 21.5s-16.167 19.333 -21.5 31s-8 24.167 -8 37.5v896
c-8.66699 12 -16.834 25 -24.501 39s-15.167 28.667 -22.5 44l179 100c2.66699 -25.333 13.334 -51.333 32.001 -78s43.167 -50.834 73.5 -72.501s64.833 -38.834 103.5 -51.501s79.334 -17.667 122.001 -15c40.667 1.33301 79 10 115 26s67.333 35.667 94 59
s47.667 48.333 63 75s23 51.334 23 74.001v325c0 28.667 -8.16699 57.167 -24.5 85.5s-38.5 53.833 -66.5 76.5s-60.833 41 -98.5 55s-77.834 21 -120.501 21c-39.333 0 -76.666 -6.83301 -111.999 -20.5s-67 -31.334 -95 -53.001s-51.333 -46.167 -70 -73.5
s-31 -55 -37 -83l-176 98c16.667 44.667 41.5 86.334 74.5 125.001s71.167 72.167 114.5 100.5s91 50.5 143 66.5s105.333 24 160 24c68 -1.33301 132.667 -13.666 194 -36.999s115.166 -54.166 161.499 -92.499s83.166 -82.666 110.499 -132.999s41 -103.5 41 -159.5v-325
c0 -55.333 -13.667 -107.666 -41 -156.999s-63.666 -93 -108.999 -131s-97 -68.667 -155 -92s-117.667 -36.333 -179 -39c-48 -3.33301 -95.333 0.833984 -142 12.501s-92 27.5 -136 47.5zM635 -472.004c12.667 -2.66699 27.002 -4.00195 43.002 -4.00195
c24 0 46.667 4.33301 68 13s40 20.334 56 35.001s28.5 32 37.5 52s13.5 41.333 13.5 64s-4.5 44.167 -13.5 64.5s-21.5 37.833 -37.5 52.5s-34.667 26.334 -56 35.001s-44 13 -68 13c-10.667 0 -21 -0.833008 -31 -2.5s-19.667 -4.16699 -29 -7.5
c17.333 -23.333 30.833 -48.333 40.5 -75s15.167 -54 16.5 -82s-1.33398 -55.5 -8.00098 -82.5s-17.334 -52.167 -32.001 -75.5zM504.002 -312.006c0 -26.667 6 -51 18 -73s28.333 -40.667 49 -56c12 16.667 21 35.5 27 56.5s8.5 42.667 7.5 65s-5.5 44.5 -13.5 66.5
s-19.667 42.333 -35 61c-16.667 -15.333 -29.667 -33.333 -39 -54s-14 -42.667 -14 -66zM378.002 -312.006c0 39.333 7.83301 76.166 23.5 110.499s37 64.333 64 90s58.833 46 95.5 61s75.667 22.5 117 22.5s80.333 -7.5 117 -22.5s68.5 -35.333 95.5 -61
s48.333 -55.667 64 -90s23.5 -71.166 23.5 -110.499s-7.83301 -76.166 -23.5 -110.499s-37 -64.333 -64 -90s-58.833 -46 -95.5 -61s-75.667 -22.5 -117 -22.5s-80.333 7.5 -117 22.5s-68.5 35.333 -95.5 61s-48.333 55.667 -64 90s-23.5 71.166 -23.5 110.499z" />
    <glyph glyph-name="uni1025_1007_lig" unicode="&#x1009;&#x1039;&#x1007;" horiz-adv-x="1204" 
d="M336 35l0.000976562 -639.003h567v78h195v-176c0 -14 -2.5 -26.833 -7.5 -38.5s-11.833 -21.834 -20.5 -30.501s-18.834 -15.834 -30.501 -21.501s-24.5 -8.5 -38.5 -8.5h-761c-14 0 -26.833 2.83301 -38.5 8.5s-21.834 12.834 -30.501 21.501
s-15.834 18.834 -21.501 30.501s-8.5 24.5 -8.5 38.5v897l-24.5 38.5c-8.33301 13.667 -15.833 27.834 -22.5 42.501l178 101c2.66699 -24.667 13.667 -50.667 33 -78s44 -51.5 74 -72.5s64.5 -38 103.5 -51s79.5 -18.167 121.5 -15.5
c41.333 1.33301 79.666 10.166 114.999 26.499s66.666 36.166 93.999 59.499s48.5 48.166 63.5 74.499s22.5 50.5 22.5 72.5v326c0 28.667 -8.16699 57.334 -24.5 86.001s-38.5 54.167 -66.5 76.5s-60.833 40.333 -98.5 54s-77.5 20.5 -119.5 20.5
c-40 0 -77.667 -6.83301 -113 -20.5s-67 -31 -95 -52s-51.167 -45.5 -69.5 -73.5s-31.166 -55.667 -38.499 -83l-176 98c18 45.333 43.333 87.166 76 125.499s70.5 71.833 113.5 100.5s90.833 50.834 143.5 66.501s106.334 23.5 161.001 23.5
c66.667 -1.33301 130.834 -13.666 192.501 -36.999s115.667 -54.166 162 -92.499s83.166 -82.666 110.499 -132.999s41 -103.5 41 -159.5v-326c0 -54.667 -13.667 -106.5 -41 -155.5s-63.5 -92.667 -108.5 -131s-96.5 -69 -154.5 -92s-118 -36.167 -180 -39.5
c-47.333 -4 -94.666 -0.166992 -141.999 11.5s-92.666 27.834 -135.999 48.501zM592.001 -168.003c4 -16.667 11.833 -32.167 23.5 -46.5s25.667 -26.166 42 -35.499s33.333 -16.5 51 -21.5s35.5 -5.16699 53.5 -0.5c-5.33301 17.333 -13.5 33.166 -24.5 47.499
s-24 26.333 -39 36s-31.333 16.5 -49 20.5s-35.5 4 -53.5 0h-4zM872.001 -276.003c-17.333 -22 -37 -38.499 -59 -49.499s-44.5 -17.167 -67.5 -18.5s-46.167 1.66699 -69.5 9s-44.833 17.5 -64.5 30.5s-37.334 28.833 -53.001 47.5s-27.167 38.667 -34.5 60
c-18.667 -16 -33.167 -36.667 -43.5 -62s-14.166 -51.666 -11.499 -78.999c4 -20.667 11.5 -39.5 22.5 -56.5s24 -31 39 -42s32 -18.833 51 -23.5s38.833 -5.66699 59.5 -3c31.333 5.33301 58 19 80 41l90 -82c-20.667 -18.667 -43.5 -34.834 -68.5 -48.501
s-52.833 -23.5 -83.5 -29.5c-36.667 -5.33301 -72 -3.5 -106 5.5s-65 23.667 -93 44s-51.667 45.5 -71 75.5s-31.666 63.667 -36.999 101c-5.33301 36.667 -3.5 72.334 5.5 107.001s23.333 65.667 43 93s44.5 50.666 74.5 69.999s63.333 32.333 100 39
c45.333 6.66699 88.166 2.16699 128.499 -13.5s74.833 -39.167 103.5 -70.5c19.333 5.33301 39.833 7 61.5 5s42 -8.5 61 -19.5s35 -25.667 48 -44s21.833 -40.5 26.5 -66.5l-72 -10c-4 23.333 -14.167 40.666 -30.5 51.999s-33.5 17 -51.5 17c10.667 -26 18 -52.333 22 -79
z" />
    <glyph glyph-name="uni102B_103A_lig" unicode="&#x102b;&#x103a;" horiz-adv-x="639" 
d="M-385 1495c0 -31.333 5.33594 -59.999 16.0029 -85.999l-172 -53c-16 44.667 -24 91 -24 139c0 56 11.167 109 33.5 159s53 93.333 92 130s84.833 66 137.5 88s108.334 33 167.001 33c69.333 0 133.333 -14.333 192 -43s108 -67 148 -115
c39.333 48 88.333 86.333 147 115s123 43 193 43c52 0 101.833 -8.66699 149.5 -26s90 -41 127 -71s68.333 -65.5 94 -106.5s43.5 -84.5 53.5 -130.5l-174 -64c-1.33301 31.333 -8.83301 60.666 -22.5 87.999s-31.834 51.333 -54.501 72s-48.667 36.834 -78 48.501
s-61 17.5 -95 17.5c-32.667 0 -63.334 -5.16699 -92.001 -15.5s-54.334 -25 -77.001 -44s-41.167 -41.5 -55.5 -67.5s-22.833 -53.333 -25.5 -82v-33c0 -20.667 0.333008 -48.667 1 -84s1 -77 1 -125v-157c0 -56.667 0.333008 -116 1 -178s1 -124.333 1 -187v-760h-184v758
v766c-4 28.667 -13.167 56 -27.5 82s-32.5 48.5 -54.5 67.5s-47.333 33.667 -76 44s-59.334 15.5 -92.001 15.5c-34 0 -66.5 -6.16699 -97.5 -18.5s-57.667 -29.5 -80 -51.5s-40 -47.333 -53 -76s-19.5 -59.334 -19.5 -92.001z" />
    <glyph glyph-name="uni102D_1036_lig" unicode="&#x102d;&#x1036;" horiz-adv-x="139" 
d="M-994 1518c0 -29.333 5.66699 -56.666 17 -81.999s27 -47.5 47 -66.5s43.333 -34 70 -45s55.667 -16.5 87 -16.5c30.667 0 59.334 5.5 86.001 16.5s50 26 70 45s35.667 41.167 47 66.5s17 52.666 17 81.999c0 28.667 -5.66699 55.667 -17 81s-27 47.5 -47 66.5
s-43.333 34 -70 45s-55.334 16.5 -86.001 16.5c-31.333 0 -60.333 -5.5 -87 -16.5s-50 -26 -70 -45s-35.667 -41.167 -47 -66.5s-17 -52.333 -17 -81zM-1174 1518c0 52 10.5 101 31.5 147s49.667 86.167 86 120.5s78.833 61.5 127.5 81.5s100.667 30 156 30
c54.667 0 106.334 -10 155.001 -30s91.167 -47.167 127.5 -81.5s65 -74.5 86 -120.5s31.5 -95 31.5 -147c0 -52.667 -10.5 -102 -31.5 -148s-49.667 -86.167 -86 -120.5s-78.833 -61.5 -127.5 -81.5s-100.334 -30 -155.001 -30c-55.333 0 -107.333 10 -156 30
s-91.167 47.167 -127.5 81.5s-65 74.5 -86 120.5s-31.5 95.333 -31.5 148zM-79 1552c13.333 0 24.666 -4.66699 33.999 -14s14 -21 14 -35s-4.66699 -25.333 -14 -34s-20.666 -13 -33.999 -13c-15.333 0 -27.5 4.33301 -36.5 13s-13.5 20 -13.5 34s4.5 25.667 13.5 35
s21.167 14 36.5 14zM-79 1706c-28 0 -54.333 -5.33301 -79 -16s-46.167 -25.167 -64.5 -43.5s-32.833 -39.833 -43.5 -64.5s-16 -51 -16 -79s5.33301 -54.333 16 -79s25.167 -46.167 43.5 -64.5s39.833 -32.833 64.5 -43.5s51 -16 79 -16s54.333 5.33301 79 16
s46 25.167 64 43.5s32.333 39.833 43 64.5s16 51 16 79s-5.33301 54.333 -16 79s-25 46.167 -43 64.5s-39.333 32.833 -64 43.5s-51 16 -79 16z" />
    <glyph glyph-name="uni103A_102D_lig" unicode="&#x1004;&#x103a;&#x1039;&#x102d;" horiz-adv-x="188" 
d="M-954 1255c16 0 31.5 3.83398 46.5 11.501s28.167 16.834 39.5 27.501l90 -92c-23.333 -20.667 -50 -37 -80 -49s-62 -18 -96 -18h-33c-34 0 -66 5.66699 -96 17s-56 27.333 -78 48s-39.5 44.334 -52.5 71.001s-19.5 55 -19.5 85c0 32.667 6.83301 62.667 20.5 90
s32.834 51.333 57.501 72c-24.667 18.667 -43.834 42 -57.501 70s-20.5 57.667 -20.5 89s6.5 60.333 19.5 87s30.5 50 52.5 70s48 35.667 78 47s62 17 96 17h33c35.333 0 69 -6.66699 101 -20s59.667 -31.666 83 -54.999l-96 -86c-11.333 12 -24.5 21.833 -39.5 29.5
s-31.167 11.5 -48.5 11.5h-33c-16.667 0 -31.5 -2.83301 -44.5 -8.5s-24.5 -12.834 -34.5 -21.501s-18.167 -18.834 -24.5 -30.501s-9.5 -25.167 -9.5 -40.5c0 -13.333 3.16699 -25.833 9.5 -37.5s14.5 -22.334 24.5 -32.001s21.5 -16.834 34.5 -21.501s27.833 -7 44.5 -7
v-2h33c35.333 0 69 -6.83301 101 -20.5s59.667 -32.167 83 -55.5l-96 -86c-11.333 12.667 -24.5 22.667 -39.5 30s-31.167 11 -48.5 11h-33c-16.667 0 -31.5 -2.66699 -44.5 -8s-24.5 -12.5 -34.5 -21.5s-18.167 -19.667 -24.5 -32s-9.5 -25.166 -9.5 -38.499
c0 -14 3.16699 -27.167 9.5 -39.5s14.5 -22.833 24.5 -31.5s21.5 -15.834 34.5 -21.501s27.833 -8.5 44.5 -8.5h33zM-551 1528c0 -28.667 5.83301 -55.667 17.5 -81s27.334 -47.5 47.001 -66.5s42.834 -34 69.501 -45s55.667 -16.5 87 -16.5s60.333 5.5 87 16.5s50 26 70 45
s35.667 41.167 47 66.5s17 52.333 17 81s-5.66699 55.667 -17 81s-27 47.5 -47 66.5s-43.333 34 -70 45s-55.667 16.5 -87 16.5s-60.333 -5.5 -87 -16.5s-49.834 -26 -69.501 -45s-35.334 -41.167 -47.001 -66.5s-17.5 -52.333 -17.5 -81zM-729 1528
c0 52 10.167 100.833 30.5 146.5s49 85.5 86 119.5s79.667 61.333 128 82s99.833 31 154.5 31s106.667 -10.333 156 -31s92 -48 128 -82s64.667 -73.833 86 -119.5s32 -94.5 32 -146.5s-10.667 -101.167 -32 -147.5s-50 -87 -86 -122s-78.667 -62.333 -128 -82
s-101.333 -29.5 -156 -29.5s-106.167 9.83301 -154.5 29.5s-91 47 -128 82s-65.667 75.667 -86 122s-30.5 95.5 -30.5 147.5z" />
    <glyph glyph-name="uni103A_102E_lig" unicode="&#x1004;&#x103a;&#x1039;&#x102e;" horiz-adv-x="106" 
d="M-946 1255c17.333 0 33.667 3.49805 49 10.498s28 16.5 38 28.5l90 -92c-22.667 -20.667 -49.167 -37.167 -79.5 -49.5s-62.833 -18.5 -97.5 -18.5h-32c-34 0 -65.833 5.83301 -95.5 17.5s-55.5 27.5 -77.5 47.5s-39.5 43.333 -52.5 70s-19.5 55.334 -19.5 86.001
c0 32 7 61.833 21 89.5s32.667 51.5 56 71.5c-23.333 20 -42 43.667 -56 71s-21 57 -21 89c0 30.667 6.5 59.5 19.5 86.5s30.5 50.5 52.5 70.5s47.833 35.833 77.5 47.5s61.5 17.5 95.5 17.5h32c36.667 0 71 -7 103 -21s59.333 -32.667 82 -56l-97 -85
c-9.33301 12.667 -21.833 22.5 -37.5 29.5s-32.5 10.5 -50.5 10.5h-32c-15.333 0 -29.666 -2.66699 -42.999 -8s-25 -12.5 -35 -21.5s-18 -19.5 -24 -31.5s-9 -25 -9 -39s3 -27 9 -39s14 -22.5 24 -31.5s21.667 -16.167 35 -21.5s27.666 -8 42.999 -8v-1h32
c36.667 0 71 -6.66699 103 -20s59.333 -31.666 82 -54.999l-97 -86c-9.33301 12.667 -21.833 22.667 -37.5 30s-32.5 11 -50.5 11h-32c-15.333 0 -29.666 -2.66699 -42.999 -8s-25 -12.5 -35 -21.5s-18 -19.5 -24 -31.5s-9 -25 -9 -39s3 -27 9 -39s14 -22.5 24 -31.5
s21.667 -16.167 35 -21.5s27.666 -8 42.999 -8h32zM-733.999 1517c0 52.667 10.667 102.167 32 148.5s50.166 86.833 86.499 121.5s79 62 128 82s101.5 30 157.5 30c55.333 0 107.5 -10 156.5 -30s91.667 -47.333 128 -82s65.166 -75.167 86.499 -121.5
s32 -95.833 32 -148.5c0 -53.333 -10.667 -103.166 -32 -149.499s-50.166 -86.833 -86.499 -121.5s-79 -62 -128 -82s-101.167 -30 -156.5 -30c-56 0 -108.5 10 -157.5 30s-91.667 47.333 -128 82s-65.166 75.167 -86.499 121.5s-32 96.166 -32 149.499zM-156.999 1383
c-22 20 -47.501 35.1699 -76.501 45.5029s-59.333 15.833 -91 16.5s-63.167 -3.83301 -94.5 -13.5s-60.666 -24.834 -87.999 -45.501c21.333 -24.667 47.166 -44.334 77.499 -59.001s63.5 -22 99.5 -22c34.667 0 66.834 7.16699 96.501 21.5s55.167 33.166 76.5 56.499z
M-549 1470c33.333 22.667 69.168 39.834 107.501 51.501s76.666 17.5 114.999 17.5s76 -5.83301 113 -17.5s70.5 -29.167 100.5 -52.5l4 23c1.33301 8 2 16.333 2 25c0 28.667 -5.83301 55.834 -17.5 81.501s-27.667 48.167 -48 67.5s-44 34.5 -71 45.5
s-55.833 16.5 -86.5 16.5c-31.333 0 -60.5 -5.5 -87.5 -16.5s-50.667 -26.167 -71 -45.5s-36.333 -41.833 -48 -67.5s-17.5 -52.834 -17.5 -81.501c0 -7.33301 0.5 -14.833 1.5 -22.5s2.16699 -15.834 3.5 -24.501z" />
    <glyph glyph-name="uni103A_1036_lig" unicode="&#x1004;&#x103a;&#x1039;&#x1036;" horiz-adv-x="43" 
d="M-701 1256c17.333 0 33.4961 3.49805 48.4961 10.498s27.833 16.5 38.5 28.5l89 -92c-22.667 -21.333 -49 -38.166 -79 -50.499s-62.333 -18.5 -97 -18.5h-33c-34 0 -65.833 5.83301 -95.5 17.5s-55.5 27.5 -77.5 47.5s-39.333 43.5 -52 70.5s-19 55.833 -19 86.5
c0 32 6.83301 61.667 20.5 89s32.5 51.333 56.5 72c-24 20 -42.833 43.667 -56.5 71s-20.5 57 -20.5 89c0 30.667 6.33301 59.5 19 86.5s30 50.5 52 70.5s47.833 35.833 77.5 47.5s61.5 17.5 95.5 17.5h33c36.667 0 70.834 -7 102.501 -21s58.834 -32.667 81.501 -56
l-96 -85c-10 12.667 -22.667 22.5 -38 29.5s-32 10.5 -50 10.5h-33c-15.333 0 -29.666 -2.66699 -42.999 -8s-25 -12.5 -35 -21.5s-17.833 -19.5 -23.5 -31.5s-8.5 -25 -8.5 -39s2.83301 -27 8.5 -39s13.5 -22.5 23.5 -31.5s21.667 -16.167 35 -21.5s27.666 -8 42.999 -8v-1
h33c36.667 0 70.834 -6.66699 102.501 -20s58.834 -31.666 81.501 -54.999l-96 -86c-10 12.667 -22.667 22.667 -38 30s-32 11 -50 11h-33c-15.333 0 -29.666 -2.66699 -42.999 -8s-25 -12.5 -35 -21.5s-17.833 -19.5 -23.5 -31.5s-8.5 -25 -8.5 -39s2.83301 -27 8.5 -39
s13.5 -22.5 23.5 -31.5s21.667 -16.167 35 -21.5s27.666 -8 42.999 -8h33zM-216.004 1552c13.333 0 24.666 -4.66699 33.999 -14s14 -21 14 -35s-4.66699 -25.333 -14 -34s-20.666 -13 -33.999 -13c-15.333 0 -27.5 4.33301 -36.5 13s-13.5 20 -13.5 34s4.5 25.667 13.5 35
s21.167 14 36.5 14zM-216.004 1706c-28 0 -54.333 -5.33301 -79 -16s-46.167 -25.167 -64.5 -43.5s-32.833 -39.833 -43.5 -64.5s-16 -51 -16 -79s5.33301 -54.333 16 -79s25.167 -46.167 43.5 -64.5s39.833 -32.833 64.5 -43.5s51 -16 79 -16s54.333 5.33301 79 16
s46 25.167 64 43.5s32.333 39.833 43 64.5s16 51 16 79s-5.33301 54.333 -16 79s-25 46.167 -43 64.5s-39.333 32.833 -64 43.5s-51 16 -79 16z" />
    <glyph glyph-name="uni103A_lig" unicode="&#x1004;&#x103a;&#x1039;" 
d="M-560 1256c17.333 0 33.4961 3.49805 48.4961 10.498s27.833 16.5 38.5 28.5l89 -92c-22.667 -21.333 -49 -38.166 -79 -50.499s-62.333 -18.5 -97 -18.5h-33c-34 0 -65.833 5.83301 -95.5 17.5s-55.5 27.5 -77.5 47.5s-39.333 43.5 -52 70.5s-19 55.833 -19 86.5
c0 32 6.83301 61.667 20.5 89s32.5 51.333 56.5 72c-24 20 -42.833 43.667 -56.5 71s-20.5 57 -20.5 89c0 30.667 6.33301 59.5 19 86.5s30 50.5 52 70.5s47.833 35.833 77.5 47.5s61.5 17.5 95.5 17.5h33c36.667 0 70.834 -7 102.501 -21s58.834 -32.667 81.501 -56
l-96 -85c-10 12.667 -22.667 22.5 -38 29.5s-32 10.5 -50 10.5h-33c-15.333 0 -29.666 -2.66699 -42.999 -8s-25 -12.5 -35 -21.5s-17.833 -19.5 -23.5 -31.5s-8.5 -25 -8.5 -39s2.83301 -27 8.5 -39s13.5 -22.5 23.5 -31.5s21.667 -16.167 35 -21.5s27.666 -8 42.999 -8v-1
h33c36.667 0 70.834 -6.66699 102.501 -20s58.834 -31.666 81.501 -54.999l-96 -86c-10 12.667 -22.667 22.667 -38 30s-32 11 -50 11h-33c-15.333 0 -29.666 -2.66699 -42.999 -8s-25 -12.5 -35 -21.5s-17.833 -19.5 -23.5 -31.5s-8.5 -25 -8.5 -39s2.83301 -27 8.5 -39
s13.5 -22.5 23.5 -31.5s21.667 -16.167 35 -21.5s27.666 -8 42.999 -8h33z" />
    <glyph glyph-name="uni103E_1030_lig" unicode="&#x103e;&#x1030;" 
d="M-1159 -607l89.001 0.00195312v529h191v-625c0 -12.667 -2.5 -24.834 -7.5 -36.501s-12 -21.834 -21 -30.501s-19.333 -15.5 -31 -20.5s-23.834 -7.5 -36.501 -7.5h-184v191zM-158.999 -606.998l-89.002 0.00195312v529h-192v-625c0 -12.667 2.66699 -24.834 8 -36.501
s12.333 -21.834 21 -30.501s18.834 -15.5 30.501 -20.5s23.834 -7.5 36.501 -7.5h185v191zM-562.001 -795.996v718h-191v-718h191z" />
    <glyph glyph-name="uni103E_103B_lig" unicode="&#x103b;&#x103e;" horiz-adv-x="305" 
d="M-584 -609l124.004 0.00390625l1 586h191v-407l282 -137v1705h192v-1843c0 -12.667 -2.66699 -24.834 -8 -36.501s-12.333 -21.834 -21 -30.501s-18.834 -15.5 -30.501 -20.5s-23.834 -7.5 -36.501 -7.5l-379 143v-48c0 -12.667 -2.5 -24.834 -7.5 -36.501
s-11.833 -21.834 -20.5 -30.501s-18.834 -15.5 -30.501 -20.5s-23.834 -7.5 -36.501 -7.5h-220v191z" />
    <glyph glyph-name="uni103E_103D_lig" unicode="&#x103d;&#x103e;" 
d="M-659 -208l-182.002 -247.999c-16 -27.333 -23.333 -50.5 -22 -69.5s6.33301 -34.5 15 -46.5s18 -20.833 28 -26.5s15.333 -8.5 16 -8.5h288c0.666992 0 5.83398 2.83301 15.501 8.5s18.667 14.5 27 26.5s13.333 27.667 15 47s-5.16602 42.666 -20.499 69.999z
M-974.002 -735.999c-3.33301 -9.33301 -8.50195 -17.6699 -15.502 -25.0029s-15.167 -13.666 -24.5 -18.999s-19.333 -9.33301 -30 -12s-21 -4 -31 -4h-203v189h157c13.333 0 33 19 59 57c-1.33301 31.333 1.83398 62.833 9.50098 94.5s21.167 62.5 40.5 92.5l200 281
c13.333 24.667 33.833 43.167 61.5 55.5s57 18.5 88 18.5s60.667 -6 89 -18s50.166 -29.333 65.499 -52l200 -285c28.667 -51.333 43.834 -103.166 45.501 -155.499s-7.66602 -99.5 -27.999 -141.5s-50 -76.167 -89 -102.5s-84.5 -39.5 -136.5 -39.5h-288
c-34 0 -65.333 5.83301 -94 17.5s-54 27.834 -76 48.501z" />
    <glyph glyph-name="mon_03" unicode="&#x100a;&#x1039;&#x1009;" horiz-adv-x="2791" 
d="M99 844c18 43.333 44.6689 83.5029 80.002 120.503s75.833 68.667 121.5 95s94.834 46.333 147.501 60s105 19.167 157 16.5c59.333 -2.66699 117.5 -15.167 174.5 -37.5s107.667 -52 152 -89s80.166 -79.5 107.499 -127.5s41 -98.667 41 -152v-319
c4 -26.667 15 -53.667 33 -81s40.667 -52.166 68 -74.499s58.833 -40.666 94.5 -54.999s73.5 -21.5 113.5 -21.5c40.667 0 79.167 6.66699 115.5 20s68.333 30.666 96 51.999s49.5 45.5 65.5 72.5s24.667 54.5 26 82.5c-0.666992 2 -0.833984 5.16699 -0.500977 9.5
s0.5 8.83301 0.5 13.5v301c0 22.667 -7.5 47 -22.5 73s-35.5 50 -61.5 72s-56.833 40.667 -92.5 56s-73.834 23.666 -114.501 24.999c-11.333 1.33301 -22 1.66602 -32 0.999023s-20.667 -1.66699 -32 -3c7.33301 46 12.833 84 16.5 114s7.16699 52.667 10.5 68h48
c59.333 -2.66699 117.333 -15.167 174 -37.5s107 -52 151 -89s79.5 -79.5 106.5 -127.5s40.5 -98.667 40.5 -152l1 -298c0 -28 8.33301 -57 25 -87s39.167 -57.333 67.5 -82s61.333 -44.834 99 -60.501s77.167 -23.167 118.5 -22.5c40.667 0.666992 79.5 7.66699 116.5 21
s69.333 30.833 97 52.5s49.667 46.334 66 74.001s24.5 55.5 24.5 83.5v319c0 23.333 -7.5 47.833 -22.5 73.5s-35.5 49.5 -61.5 71.5s-56.667 40.667 -92 56s-73.333 24 -114 26c-22 1.33301 -43.667 0.333008 -65 -3l16.5 114.5c4.33301 30.333 7.5 53.166 9.5 68.499
c16.667 0.666992 33 0.666992 49 0c59.333 -3.33301 117.333 -16.333 174 -39s107.334 -52.334 152.001 -89.001s80.5 -79 107.5 -127s40.5 -98.667 40.5 -152v-319c0 -54 -13.333 -105.667 -40 -155s-62.667 -92.833 -108 -130.5s-98 -67.834 -158 -90.501
s-123 -34.334 -189 -35.001c-39.333 -0.666992 -78 3.33301 -116 12s-74.333 21 -109 37s-67.167 35.333 -97.5 58s-57.5 47.667 -81.5 75c-22.667 -27.333 -48.834 -52.166 -78.501 -74.499s-61.667 -41.5 -96 -57.5s-70.833 -28.333 -109.5 -37s-78.334 -13 -119.001 -13
c-39.333 -0.666992 -78 3.33301 -116 12s-74.333 21 -109 37s-67.167 35.167 -97.5 57.5s-57.5 47.166 -81.5 74.499c-46 -53.333 -104 -96.5 -174 -129.5s-146 -50.167 -228 -51.5c-53.333 -1.33301 -105.666 5.66699 -156.999 21
c-34.667 10.667 -64.334 22.334 -89.001 35.001v-22v-637h2115v161h195v-259c0 -13.333 -2.66699 -25.833 -8 -37.5s-12.333 -22.167 -21 -31.5s-19 -16.666 -31 -21.999s-24.333 -8 -37 -8h-2311c-13.333 0 -25.833 2.66699 -37.5 8s-22 12.666 -31 21.999
s-16.167 19.833 -21.5 31.5s-8 24.167 -8 37.5v928c-17.333 26 -31.333 52.667 -42 80l172 96c6 -27.333 18.167 -54.166 36.5 -80.499s41.333 -50 69 -71s59 -38 94 -51s71.5 -19.5 109.5 -19.5c40 0 78 6.5 114 19.5s67.667 30 95 51s49.5 44.833 66.5 71.5
s26.167 53.667 27.5 81v326c0 22.667 -7.5 47 -22.5 73s-35.5 50 -61.5 72s-56.667 40.667 -92 56s-73.333 23.666 -114 24.999c-41.333 2.66699 -80.666 -2.16602 -117.999 -14.499s-70.5 -29 -99.5 -50s-52.833 -44.5 -71.5 -70.5s-30 -51.333 -34 -76z" />
    <glyph glyph-name="uni1009_1006_lig" unicode="&#x1009;&#x1039;&#x1006;" horiz-adv-x="1660" 
d="M340 27l0.000976562 -631.008h1055v162h194v-260c0 -14 -2.66699 -26.833 -8 -38.5s-12.5 -21.834 -21.5 -30.501s-19.333 -15.834 -31 -21.501s-24.167 -8.5 -37.5 -8.5h-1249c-14 0 -26.833 2.83301 -38.5 8.5s-21.834 12.834 -30.501 21.501
s-15.834 18.834 -21.501 30.501s-8.5 24.5 -8.5 38.5v886c-18.667 27.333 -34.334 54.666 -47.001 81.999l178 103c4.66699 -26 16.5 -52.333 35.5 -79s43.167 -50.667 72.5 -72s63.5 -38 102.5 -50s79.5 -17.333 121.5 -16c41.333 2.66699 80 11.834 116 27.501
s67.333 34.334 94 56.001s47.834 45.834 63.501 72.501s23.5 52.334 23.5 77.001v328c0 28.667 -8.16699 57 -24.5 85s-38.833 52.833 -67.5 74.5s-61.834 39.334 -99.501 53.001s-77.5 21.167 -119.5 22.5c-40 0 -77.667 -6.83301 -113 -20.5s-67 -31.334 -95 -53.001
s-51.5 -46.167 -70.5 -73.5s-31.5 -54.666 -37.5 -81.999l-176 98c18 44 43.333 85.333 76 124s70.834 72.334 114.501 101.001s91.5 51.334 143.5 68.001s105.333 25 160 25c68 -1.33301 132.833 -13.666 194.5 -36.999s115.667 -54.5 162 -93.5
s83.166 -83.667 110.499 -134s41 -102.833 41 -157.5v-328c0 -36.667 -6.16699 -72.167 -18.5 -106.5s-30.166 -66.833 -53.499 -97.5s-50.333 -58.667 -81 -84s-63.667 -47.166 -99 -65.499s-72.833 -33.333 -112.5 -45s-80.167 -18.167 -121.5 -19.5
c-47.333 -2.66699 -94.666 1.5 -141.999 12.5s-92 26.833 -134 47.5zM499.001 -412.008c14.667 -22 34.002 -38.999 58.002 -50.999s50 -18 78 -18c23.333 0 44.666 4.33301 63.999 13c-10.667 12 -23.834 22.833 -39.501 32.5s-32.167 17 -49.5 22s-35.333 7.66699 -54 8
s-37.667 -1.83398 -57 -6.50098zM923.003 -329.007v-6v-5c1.33301 -19.333 6 -37.666 14 -54.999s18.833 -32.333 32.5 -45s29.834 -22.667 48.501 -30s38.334 -11 59.001 -11c21.333 0 41.666 3.66699 60.999 11s35.833 17.833 49.5 31.5s24.667 29.334 33 47.001
s12.5 36.5 12.5 56.5s-4.16699 39.167 -12.5 57.5s-19.333 34.166 -33 47.499s-30.167 23.666 -49.5 30.999s-39.666 11 -60.999 11c-20.667 0 -40.334 -3.5 -59.001 -10.5s-34.834 -17 -48.501 -30s-24.5 -28 -32.5 -45s-12.667 -35.5 -14 -55.5zM634.003 -600.007
c-24 0 -47.4951 2.82617 -70.4951 8.49316s-44.667 13.834 -65 24.501s-38.833 23 -55.5 37s-31.334 30.333 -44.001 49c-1.33301 42 17 80.667 55 116l9 1c25.333 11.333 51.166 17.333 77.499 18s52.166 -2.33301 77.499 -9s48.833 -16.667 70.5 -30s41.167 -29 58.5 -47
c12.667 11.333 22.5 25.166 29.5 41.499s10.833 33.5 11.5 51.5c0 0.666992 1.66699 1.33398 5 2.00098s5 1.33398 5 2.00098s-1.66699 1.83398 -5 3.50098s-5 2.83398 -5 3.50098c-0.666992 19.333 -5.33398 37.833 -14.001 55.5s-19.834 32.834 -33.501 45.501
s-29.667 22.5 -48 29.5s-37.833 10.5 -58.5 10.5c-26.667 0 -51.167 -5.5 -73.5 -16.5s-40.833 -26.5 -55.5 -46.5l-102 66c25.333 34.667 58 62.667 98 84s84.333 32 133 32c44.667 0 86.334 -9.33301 125.001 -28s71 -43.667 97 -75c26 31.333 58.167 56.333 96.5 75
s79.833 28 124.5 28c38.667 0 75.167 -6.83301 109.5 -20.5s64.166 -32.667 89.499 -57s45.333 -52.666 60 -84.999s22 -67.166 22 -104.499c0 -36 -7.33301 -70.167 -22 -102.5s-34.667 -60.5 -60 -84.5s-55.166 -43 -89.499 -57s-70.833 -21 -109.5 -21
c-44.667 0 -86.167 9.16699 -124.5 27.5s-70.5 43.5 -96.5 75.5c-26 -32 -58.333 -57.167 -97 -75.5s-80.334 -27.5 -125.001 -27.5z" />
    <glyph glyph-name="uni1009_1008_lig" unicode="&#x1009;&#x1039;&#x1008;" horiz-adv-x="1511" 
d="M340 27l0.000976562 -631.01h514v-197h-612c-14 0 -26.833 2.83301 -38.5 8.5s-21.834 12.834 -30.501 21.501s-15.834 18.834 -21.501 30.501s-8.5 24.5 -8.5 38.5v886c-18.667 27.333 -34.334 54.666 -47.001 81.999l178 103c4.66699 -26 16.5 -52.333 35.5 -79
s43.167 -50.667 72.5 -72s63.5 -38 102.5 -50s79.5 -17.333 121.5 -16c41.333 2.66699 80 11.834 116 27.501s67.333 34.334 94 56.001s47.834 45.834 63.501 72.501s23.5 52.334 23.5 77.001v328c0 28.667 -8.16699 57 -24.5 85s-38.833 52.833 -67.5 74.5
s-61.834 39.334 -99.501 53.001s-77.5 21.167 -119.5 22.5c-40 0 -77.667 -6.83301 -113 -20.5s-67 -31.334 -95 -53.001s-51.5 -46.167 -70.5 -73.5s-31.5 -54.666 -37.5 -81.999l-176 98c18 44 43.333 85.333 76 124s70.834 72.334 114.501 101.001
s91.5 51.334 143.5 68.001s105.333 25 160 25c68 -1.33301 132.833 -13.666 194.5 -36.999s115.667 -54.5 162 -93.5s83.166 -83.667 110.499 -134s41 -102.833 41 -157.5v-328c0 -36.667 -6.16699 -72.167 -18.5 -106.5s-30.166 -66.833 -53.499 -97.5
s-50.333 -58.667 -81 -84s-63.667 -47.166 -99 -65.499s-72.833 -33.333 -112.5 -45s-80.167 -18.167 -121.5 -19.5c-47.333 -2.66699 -94.666 1.5 -141.999 12.5s-92 26.833 -134 47.5zM635.001 -472.01c12.667 -2.66699 27.002 -4.00195 43.002 -4.00195
c24 0 46.667 4.33301 68 13s40 20.334 56 35.001s28.5 32 37.5 52s13.5 41.333 13.5 64s-4.5 44.167 -13.5 64.5s-21.5 37.833 -37.5 52.5s-34.667 26.334 -56 35.001s-44 13 -68 13c-10.667 0 -21 -0.833008 -31 -2.5s-19.667 -4.16699 -29 -7.5
c17.333 -23.333 30.833 -48.333 40.5 -75s15.167 -54 16.5 -82s-1.33398 -55.5 -8.00098 -82.5s-17.334 -52.167 -32.001 -75.5zM504.003 -312.012c0 -26.667 6 -51 18 -73s28.333 -40.667 49 -56c12 16.667 21 35.5 27 56.5s8.5 42.667 7.5 65s-5.5 44.5 -13.5 66.5
s-19.667 42.333 -35 61c-16.667 -15.333 -29.667 -33.333 -39 -54s-14 -42.667 -14 -66zM378.003 -312.012c0 39.333 7.83301 76.166 23.5 110.499s37 64.333 64 90s58.833 46 95.5 61s75.667 22.5 117 22.5s80.333 -7.5 117 -22.5s68.5 -35.333 95.5 -61
s48.333 -55.667 64 -90s23.5 -71.166 23.5 -110.499s-7.83301 -76.166 -23.5 -110.499s-37 -64.333 -64 -90s-58.833 -46 -95.5 -61s-75.667 -22.5 -117 -22.5s-80.333 7.5 -117 22.5s-68.5 35.333 -95.5 61s-48.333 55.667 -64 90s-23.5 71.166 -23.5 110.499z
M959.003 -455.012l250.002 -97.998v1684h190v-1840c0 -12.667 -2.5 -24.834 -7.5 -36.501s-11.833 -21.834 -20.5 -30.501s-18.834 -15.5 -30.501 -20.5s-23.834 -7.5 -36.501 -7.5l-424 154z" />
    <glyph glyph-name="uni1020_103E_lig" unicode="&#x1020;&#x103e;" horiz-adv-x="1265" 
d="M926 371l176.005 -100.998c-9.33301 -25.333 -23 -50.666 -41 -75.999v-361l-4 -2l-4 -2c-1.33301 -0.666992 -3 -1.33398 -5 -2.00098c-68 -38.667 -139.167 -67.667 -213.5 -87s-149.833 -29.333 -226.5 -30c-20 0 -43.333 0.666992 -70 2s-53.667 3.33301 -81 6
s-54.166 6.16699 -80.499 10.5s-49.166 9.16602 -68.499 14.499v-353h601v61c-1.33301 24 -7 40.333 -17 49s-22.667 12.5 -38 11.5s5 62.167 61 189.5c46.667 -10 82.667 -26.333 108 -49s44 -47.167 56 -73.5s19 -51.833 21 -76.5s3 -44 3 -58v-151
c0 -13.333 -2.5 -25.833 -7.5 -37.5s-12 -22 -21 -31s-19.333 -16 -31 -21s-24.167 -7.5 -37.5 -7.5h-796c-12.667 0 -24.834 2.5 -36.501 7.5s-22 12 -31 21s-16.167 19.333 -21.5 31s-8 24.167 -8 37.5v659c16 49.333 45 66 87 50c22 -12 49.5 -23.667 82.5 -35
s68.167 -21.166 105.5 -29.499s75 -15.166 113 -20.499s72.667 -8 104 -8c50 -0.666992 96.5 3 139.5 11s83.5 19.667 121.5 35v77c-43.333 -21.333 -89 -37.5 -137 -48.5s-96 -15.167 -144 -12.5c-40 2 -79.833 8.5 -119.5 19.5s-77.334 25.833 -113.001 44.5
s-68.834 40.667 -99.501 66s-57.167 53 -79.5 83s-39.833 62 -52.5 96s-19 69.333 -19 106v325c0 55.333 13.667 108.333 41 159s64.166 95.167 110.499 133.5s100 69.166 161 92.499s125.5 35.333 193.5 36c54 0.666992 106.833 -7.16602 158.5 -23.499
s99.167 -38.833 142.5 -67.5s81.666 -62.167 114.999 -100.5s58.666 -79.5 75.999 -123.5l-176 -97c-5.33301 26.667 -17.5 53.667 -36.5 81s-42.5 52 -70.5 74s-59.833 39.833 -95.5 53.5s-72.834 20.167 -111.501 19.5c-42 -0.666992 -81.833 -7.83398 -119.5 -21.501
s-70.5 -31.667 -98.5 -54s-50.333 -47.5 -67 -75.5s-25 -56.667 -25 -86v-325c0 -24 7.66699 -49 23 -75s36.333 -50.333 63 -73s58 -41.667 94 -57s74.667 -24 116 -26c42 -2 82.167 3.16699 120.5 15.5s72.5 29.166 102.5 50.499s54.5 45.166 73.5 71.499
s30.167 52.5 33.5 78.5zM495.005 -448.998h82.999v149h139v-140c0 -26 -4.33301 -48.333 -13 -67s-19.667 -34 -33 -46s-28.666 -20.833 -45.999 -26.5s-35 -8.5 -53 -8.5h-77v139z" />
    <glyph glyph-name="uni_lig_1" unicode="&#x102d;&#x103e;&#x102f;" 
d="M-289 -797h-105.998c-24 0 -47.833 3.83301 -71.5 11.5s-44.834 19.834 -63.501 36.501s-33.834 37.667 -45.501 63s-17.5 55.666 -17.5 90.999v554h191v-565h113v-191zM-1045 -606h113.002v565h191v-554c0 -35.333 -5.83301 -65.666 -17.5 -90.999
s-26.834 -46.333 -45.501 -63s-39.834 -28.834 -63.501 -36.501s-47.5 -11.5 -71.5 -11.5h-106v191zM-791.996 1518c0 -28.667 5.66699 -55.667 17 -81s27 -47.5 47 -66.5s43.333 -34 70 -45s55.334 -16.5 86.001 -16.5c30 0 58.333 5.5 85 16.5s50 26 70 45
s35.667 41.167 47 66.5s17 52.333 17 81s-5.66699 55.5 -17 80.5s-27 47 -47 66s-43.333 34 -70 45s-55 16.5 -85 16.5c-30.667 0 -59.334 -5.5 -86.001 -16.5s-50 -26 -70 -45s-35.667 -41 -47 -66s-17 -51.833 -17 -80.5zM-972.996 1518c0 52 10.5 101 31.5 147
s49.667 86.167 86 120.5s78.833 61.5 127.5 81.5s100.667 30 156 30c54.667 0 106.334 -10 155.001 -30s91.167 -47.167 127.5 -81.5s65 -74.5 86 -120.5s31.5 -95 31.5 -147c0 -52.667 -10.5 -102 -31.5 -148s-49.667 -86.167 -86 -120.5s-78.833 -61.5 -127.5 -81.5
s-100.334 -30 -155.001 -30c-55.333 0 -107.333 10 -156 30s-91.167 47.167 -127.5 81.5s-65 74.5 -86 120.5s-31.5 95.333 -31.5 148z" />
    <glyph glyph-name="uni_lig_2" unicode="&#x1036;&#x103e;&#x102f;" 
d="M-289 -797h-105.998c-24 0 -47.833 3.83301 -71.5 11.5s-44.834 19.834 -63.501 36.501s-33.834 37.667 -45.501 63s-17.5 55.666 -17.5 90.999v554h191v-565h113v-191zM-1045 -606h113.002v565h191v-554c0 -35.333 -5.83301 -65.666 -17.5 -90.999
s-26.834 -46.333 -45.501 -63s-39.834 -28.834 -63.501 -36.501s-47.5 -11.5 -71.5 -11.5h-106v191zM-665.996 1498c-14 0 -25.667 -4.33301 -35 -13s-14 -19.667 -14 -33s4.66699 -24 14 -32s21 -12 35 -12c12.667 0 23.5 4 32.5 12s13.5 18.667 13.5 32
s-4.5 24.333 -13.5 33s-19.833 13 -32.5 13zM-665.996 1655c28 0 54.333 -5.33301 79 -16s46 -25.167 64 -43.5s32.333 -39.833 43 -64.5s16 -51 16 -79s-5.33301 -54.333 -16 -79s-25 -46.167 -43 -64.5s-39.333 -32.833 -64 -43.5s-51 -16 -79 -16s-54.333 5.33301 -79 16
s-46.167 25.167 -64.5 43.5s-32.833 39.833 -43.5 64.5s-16 51 -16 79s5.33301 54.333 16 79s25.167 46.167 43.5 64.5s39.833 32.833 64.5 43.5s51 16 79 16z" />
    <glyph glyph-name=".notdef" horiz-adv-x="601" 
 />
    <glyph glyph-name="space" unicode=" " horiz-adv-x="638" 
 />
    <glyph glyph-name="exclam" unicode="!" horiz-adv-x="569" 
d="M397 1141l-51 -776h-117l-55 776v325h223v-325zM387 0h-205v205h205v-205z" />
    <glyph glyph-name="quotedbl" unicode="&#x22;" horiz-adv-x="727" 
d="M641 1227l-45 -281h-111l-49 281v239h205v-239zM289 1227l-45 -281h-111l-49 281v239h205v-239z" />
    <glyph glyph-name="numbersign" unicode="#" horiz-adv-x="1139" 
d="M1116 401h-309l-86 -426h-152l88 426h-315l-86 -426h-152l89 426h-170v148h198l76 364h-274v148h303l88 430h149l-86 -430h314l88 430h149l-86 -430h174v-148h-205l-73 -364h278v-148zM762 913h-316l-73 -364h313z" />
    <glyph glyph-name="dollar" unicode="$" horiz-adv-x="1139" 
d="M621 844c1.33301 -0.666992 6.33008 -1.99902 14.9971 -3.99902c136.667 -26.667 239.334 -75.334 308.001 -146.001s103 -163.334 103 -278.001c0 -117.333 -37.667 -219 -113 -305s-179.666 -132.667 -312.999 -140v-182h-107v180
c-136 15.333 -240.333 59.5 -313 132.5s-113.667 175.167 -123 306.5l180 32c14 -98.667 42.333 -174.667 85 -228s99.667 -83.666 171 -90.999v573c-135.333 29.333 -236.666 78.333 -303.999 147s-101 157 -101 265c0 107.333 33.333 199.5 100 276.5
s168.334 121.5 305.001 133.5v86h107v-86c113.333 -11.333 202.666 -47.333 267.999 -108s106.333 -145.667 123 -255l-187 -27c-10.667 68 -33 121.833 -67 161.5s-79.667 65.167 -137 76.5v-520zM513.997 866.001l0.000976562 500.002
c-72.667 -12.667 -128.334 -41.834 -167.001 -87.501s-58 -98.5 -58 -158.5c0 -68.667 20 -122.834 60 -162.501s95 -70.167 165 -91.5zM620.998 121.003c70 10.667 127.667 41.167 173 91.5s68 113.833 68 190.5c0 67.333 -17.167 121.5 -51.5 162.5
s-97.5 75.833 -189.5 104.5v-549z" />
    <glyph glyph-name="percent" unicode="%" horiz-adv-x="1821" 
d="M1384 1491l-796 -1542h-150l801 1542h145zM457 1489c91.333 0 167 -33.002 227 -99.002s90 -162.667 90 -290c0 -125.333 -30.667 -221.166 -92 -287.499s-135.666 -99.5 -222.999 -99.5c-90.667 0 -164.834 33.333 -222.501 100s-86.5 166.334 -86.5 299.001
c0 108.667 27 198.667 81 270s129.333 107 226 107zM461 837.998c104.667 0 157 90 157 270c0 172 -52.333 258 -157 258c-104 0 -156 -90.667 -156 -272c0 -170.667 52 -256 156 -256zM1360 720.998c92 0 167.834 -33.001 227.501 -99.001s89.5 -162.667 89.5 -290
c0 -93.333 -16.333 -169 -49 -227s-73 -99.167 -121 -123.5s-96.333 -36.5 -145 -36.5c-90.667 0 -164.834 33.333 -222.501 100s-86.5 166.334 -86.5 299.001c0 108.667 27 198.667 81 270s129.333 107 226 107zM1364 69.9971c105.333 0 158 90 158 270
c0 172 -52.667 258 -158 258c-104 0 -156 -90.667 -156 -272c0 -170.667 52 -256 156 -256z" />
    <glyph glyph-name="ampersand" unicode="&#x26;" horiz-adv-x="1366" 
d="M1319 109l-121 -143.998c-64 42 -139 111 -225 207c-116 -131.333 -256 -197 -420 -197c-139.333 0 -251.666 43.667 -336.999 131s-128 186.333 -128 297c0 90 29 171.667 87 245s145 138 261 194c-54 62 -94.833 118 -122.5 168s-41.5 101 -41.5 153
c0 89.333 35 166.333 105 231s156.667 97 260 97c98 0 179.167 -30.5 243.5 -91.5s96.5 -134.833 96.5 -221.5c0 -70.667 -23.167 -135.834 -69.5 -195.501s-115.5 -113.5 -207.5 -161.5l265 -336c26 54.667 49 123 69 205l187 -39
c-32.667 -128.667 -76.334 -234.334 -131.001 -317.001c72.667 -92.667 149 -167.667 229 -225zM608 936.002c72 40.667 120.833 79.001 146.5 115.001s38.5 77 38.5 123c0 50.667 -16.5 91.5 -49.5 122.5s-71.833 46.5 -116.5 46.5c-45.333 0 -85 -15 -119 -45
s-51 -68.667 -51 -116c0 -16.667 4.33301 -37.834 13 -63.501s54.667 -86.5 138 -182.5zM860 315.003l-330 410.001c-82.667 -49.333 -144.5 -99.833 -185.5 -151.5s-61.5 -104.167 -61.5 -157.5c0 -65.333 24.833 -128.5 74.5 -189.5s115.5 -91.5 197.5 -91.5
c54 0 109.333 16.667 166 50s103 76.666 139 129.999z" />
    <glyph glyph-name="quotesingle" unicode="'" horiz-adv-x="391" 
d="M141 946l-49 281v239h205v-239l-45 -281h-111z" />
    <glyph glyph-name="parenleft" unicode="(" horiz-adv-x="682" 
d="M608 -430l-129 0.00195312c-110.667 141.333 -197.667 295.666 -261 462.999s-95 333 -95 497c0 186 33.667 358.667 101 518s152.333 307 255 443h129c-118.667 -194.667 -198.167 -365.334 -238.5 -512.001s-60.5 -295.667 -60.5 -447c0 -322 99.667 -642.667 299 -962
z" />
    <glyph glyph-name="parenright" unicode=")" horiz-adv-x="682" 
d="M203 1491c110.667 -141.333 197.667 -295.667 261 -463s95 -333.333 95 -498c0 -185.333 -33.667 -357.666 -101 -516.999s-152.333 -307 -255 -443h-129c118.667 194.667 198.167 365.167 238.5 511.5s60.5 295.166 60.5 446.499c0 322.667 -99.667 643.667 -299 963
h129z" />
    <glyph glyph-name="asterisk" unicode="*" horiz-adv-x="811" 
d="M736 1196c-79.333 -24.667 -162.665 -42.9961 -249.998 -54.9961c31.333 -28 89.333 -91 174 -189l-121 -86c-39.333 52.667 -85 124.334 -137 215.001c-48.667 -92.667 -92.334 -164.334 -131.001 -215.001l-117 86c98 117.333 153.333 180.333 166 189
c-96.667 19.333 -178.334 37.666 -245.001 54.999l47 143c121.333 -44.667 198.333 -77.334 231 -98.001c-13.333 115.333 -20 198.666 -20 249.999h143c0 -61.333 -6 -136.333 -18 -225c-3.33301 -4.66699 -5 -12.334 -5 -23.001c63.333 31.333 142 63.333 236 96z" />
    <glyph glyph-name="plus" unicode="+" horiz-adv-x="1196" 
d="M1083 639h-401v-401h-168v401h-401v168h401v401h168v-401h401v-168z" />
    <glyph glyph-name="comma" unicode="," horiz-adv-x="569" 
d="M389 0c0 -84.667 -16.1689 -149.332 -48.502 -193.999s-72.166 -76.334 -119.499 -95.001l-49 76c74.667 32 112.334 103 113.001 213h-101v205h205v-205z" />
    <glyph glyph-name="hyphen" unicode="-" horiz-adv-x="682" 
d="M616 440h-550v181h550v-181z" />
    <glyph glyph-name="period" unicode="." horiz-adv-x="569" 
d="M387 0h-205v205h205v-205z" />
    <glyph glyph-name="slash" unicode="/" horiz-adv-x="569" 
d="M569 1466l-424 -1515h-145l424 1515h145z" />
    <glyph glyph-name="zero" unicode="0" horiz-adv-x="1139" 
d="M569 1473c318.667 0 478.001 -250.001 478.001 -750.001c0 -252.667 -41.167 -440.5 -123.5 -563.5s-200.5 -184.5 -354.5 -184.5c-318 0 -477 249.333 -477 748c0 252.667 41.167 440.834 123.5 564.501s200.166 185.5 353.499 185.5zM569.001 122.999
c96.667 0 169.669 46.832 219.002 140.499s74 246.834 74 459.501c0 148 -10.833 264.5 -32.5 349.5s-54.334 148.333 -98.001 190s-98.5 62.5 -164.5 62.5c-96.667 0 -169.334 -47.667 -218.001 -143s-73 -248.333 -73 -459c0 -146 11 -261.667 33 -347
s54.667 -148.833 98 -190.5s97.333 -62.5 162 -62.5z" />
    <glyph glyph-name="one" unicode="1" horiz-adv-x="1139" 
d="M768 0l-179.999 -0.000976562v1147c-90 -85.333 -210.333 -157.666 -361 -216.999v174c207.333 99.333 348.666 222.333 423.999 369h117v-1473z" />
    <glyph glyph-name="two" unicode="2" horiz-adv-x="1139" 
d="M1034 0h-970.997c0 82.667 28.833 166.334 86.5 251.001s165.5 190.667 323.5 318c96.667 77.333 183 158.5 259 243.5s114 170.5 114 256.5c0 74 -26.167 135.167 -78.5 183.5s-118.5 72.5 -198.5 72.5c-80.667 0 -148.334 -24.833 -203.001 -74.5
s-82.334 -123.834 -83.001 -222.501l-185 21c11.333 137.333 60.166 242.333 146.499 315s195.833 109 328.5 109c144 0 256.167 -39.833 336.5 -119.5s120.5 -175.834 120.5 -288.501c0 -94 -33.833 -189.167 -101.5 -285.5s-202.5 -225.166 -404.5 -386.499
c-106 -84.667 -176.333 -157.667 -211 -219h721v-174z" />
    <glyph glyph-name="three" unicode="3" horiz-adv-x="1139" 
d="M776 793c90.667 -17.333 159.165 -61.165 205.498 -131.498s69.5 -146.833 69.5 -229.5c0 -133.333 -48.5 -242.833 -145.5 -328.5s-213.167 -128.5 -348.5 -128.5c-129.333 0 -236 37.667 -320 113s-133 175 -147 299l180 25c18 -96.667 50.833 -169 98.5 -217
s110.5 -72 188.5 -72c84 0 155.167 29.5 213.5 88.5s87.5 131.167 87.5 216.5c0 82 -26.5 150 -79.5 204s-122.167 81 -207.5 81c-34.667 0 -77 -6.33301 -127 -19l21 158c48 0 86 2.33301 114 7s59.333 16 94 34s63.334 43.833 86.001 77.5s34 75.5 34 125.5
c0 72.667 -24.167 129 -72.5 169s-104.166 60 -167.499 60c-72.667 0 -131.834 -23 -177.501 -69s-74.5 -111.667 -86.5 -197l-180 33c23.333 127.333 74.833 222.666 154.5 285.999s174.834 95 285.501 95c122 0 223.833 -36.833 305.5 -110.5
s122.5 -163.834 122.5 -270.501c0 -136.667 -67 -235 -201 -295v-4z" />
    <glyph glyph-name="four" unicode="4" horiz-adv-x="1139" 
d="M1044 350h-198v-350h-180v350h-635v166l667 950h148v-950h198v-166zM666 516v662h-4l-455 -662h459z" />
    <glyph glyph-name="five" unicode="5" horiz-adv-x="1139" 
d="M324 881c89.333 61.333 181.999 92.001 277.999 92.001c122 0 228.333 -43.167 319 -129.5s136 -201.5 136 -345.5c0 -145.333 -46 -268.833 -138 -370.5s-212.667 -152.5 -362 -152.5c-122 0 -227.667 34.5 -317 103.5s-140.666 171.167 -153.999 306.5l188 14
c15.333 -92.667 48 -161.834 98 -207.501s111.667 -68.5 185 -68.5c91.333 0 165.333 34.5 222 103.5s85 153.833 85 254.5c0 102.667 -29 183.667 -87 243s-132.667 89 -224 89c-115.333 0 -204 -47 -266 -141l-170 20l143 754h727v-174h-584z" />
    <glyph glyph-name="six" unicode="6" horiz-adv-x="1139" 
d="M268 756c82.667 129.333 200.335 194 353.002 194c120 0 222 -44.333 306 -133s126 -202 126 -340c0 -139.333 -41.833 -257.833 -125.5 -355.5s-194.834 -146.5 -333.501 -146.5c-140.667 0 -260.5 52 -359.5 156s-148.5 289 -148.5 555
c0 261.333 44.833 457.833 134.5 589.5s219.5 197.5 389.5 197.5c110 0 203 -30.667 279 -92s122.333 -152.333 139 -273l-180 -16c-32.667 155.333 -115.334 233 -248.001 233c-92 0 -171 -45.667 -237 -137s-99 -235.333 -99 -432h4zM590.001 123
c82.667 0 149.667 33.3311 201 99.998s77 147.334 77 242.001s-25.667 173 -77 235s-120.333 93 -207 93c-79.333 0 -147.666 -29.167 -204.999 -87.5s-86 -135.166 -86 -230.499c0 -97.333 28.167 -180.333 84.5 -249s127.166 -103 212.499 -103z" />
    <glyph glyph-name="seven" unicode="7" horiz-adv-x="1139" 
d="M1047 1307c-144 -158 -268.668 -353.332 -374.001 -585.999s-167.333 -473 -186 -721h-184c4.66699 199.333 53.834 418.166 147.501 656.499s215.167 443.5 364.5 615.5h-717v174h949v-139z" />
    <glyph glyph-name="eight" unicode="8" horiz-adv-x="1139" 
d="M776 793c183.333 -58.667 275.004 -183.667 275.004 -375c0 -126 -45 -231.333 -135 -316s-205.667 -127 -347 -127c-142.667 0 -258.834 42.667 -348.501 128s-134.5 192.333 -134.5 321c0 92.667 25.167 173.667 75.5 243s118.166 111.333 203.499 126v4
c-146.667 45.333 -220 144.333 -220 297c0 108 38.667 198.167 116 270.5s178.666 108.5 303.999 108.5c127.333 0 230.166 -37.333 308.499 -112s117.5 -165 117.5 -271c0 -144 -71.667 -241.667 -215 -293v-4zM569.004 864c67.333 0 123.833 21.501 169.5 64.501
s68.5 96.833 68.5 161.5c0 66 -23.167 121.667 -69.5 167s-103.166 68 -170.499 68c-68.667 0 -125.334 -22.333 -170.001 -67s-67 -97.334 -67 -158.001c0 -72.667 23 -130.167 69 -172.5s102.667 -63.5 170 -63.5zM569.004 123.001c84.667 0 155.333 27.333 212 82
s85 125.667 85 213s-29.167 159 -87.5 215s-129.5 84 -213.5 84c-87.333 0 -158.333 -28.833 -213 -86.5s-82 -127.167 -82 -208.5c0 -84.667 28.167 -155.667 84.5 -213s127.833 -86 214.5 -86z" />
    <glyph glyph-name="nine" unicode="9" horiz-adv-x="1139" 
d="M868 690c-35.333 -57.333 -83.833 -103.666 -145.5 -138.999s-128.5 -53 -200.5 -53c-120.667 0 -223.167 44.167 -307.5 132.5s-126.5 203.833 -126.5 346.5c0 145.333 43 264.333 129 357s196.667 139 332 139c136 0 253.667 -53 353 -159s149 -289.333 149 -550
c0 -264.667 -45.333 -462.334 -136 -593.001s-220.334 -196 -389.001 -196c-110 0 -202 30.167 -276 90.5s-119 151.833 -135 274.5l172 14c27.333 -154 108.333 -231 243 -231c110.667 0 195.334 50.5 254.001 151.5s88 239.5 88 415.5h-4zM565 655
c88 0 157.832 31.168 209.499 93.501s77.5 141.166 77.5 236.499c0 96.667 -26.5 177.5 -79.5 242.5s-120.833 97.5 -203.5 97.5c-83.333 0 -153.666 -34.5 -210.999 -103.5s-86 -152.5 -86 -250.5c0 -92.667 28.167 -168.5 84.5 -227.5s125.833 -88.5 208.5 -88.5z" />
    <glyph glyph-name="colon" unicode=":" horiz-adv-x="569" 
d="M389 856h-205v205h205v-205zM389 0h-205v205h205v-205z" />
    <glyph glyph-name="semicolon" unicode=";" horiz-adv-x="569" 
d="M389 856h-205v205h205v-205zM389 0c0 -84.667 -16.1689 -149.332 -48.502 -193.999s-72.166 -76.334 -119.499 -95.001l-49 76c74.667 32 112.334 103 113.001 213h-101v205h205v-205z" />
    <glyph glyph-name="less" unicode="&#x3c;" horiz-adv-x="1196" 
d="M1083 227l-970 414v168l970 410v-179l-770 -315l770 -319v-179z" />
    <glyph glyph-name="equal" unicode="=" horiz-adv-x="1196" 
d="M1083 862h-970v168h970v-168zM1083 416h-970v168h970v-168z" />
    <glyph glyph-name="greater" unicode="&#x3e;" horiz-adv-x="1196" 
d="M1083 637l-970 -410v179l770 315l-770 319v179l970 -414v-168z" />
    <glyph glyph-name="question" unicode="?" horiz-adv-x="1139" 
d="M94 1067c15.333 135.333 65 239.834 149 313.501s192.667 110.5 326 110.5c137.333 0 250.166 -37.833 338.499 -113.5s132.5 -170.834 132.5 -285.501c0 -57.333 -12.833 -113 -38.5 -167s-86.5 -123.333 -182.5 -208c-73.333 -65.333 -119.5 -116.833 -138.5 -154.5
s-29.5 -105.167 -31.5 -202.5h-172c0 77.333 2.83301 133.833 8.5 169.5s17.334 70.5 35.001 104.5s40.667 66 69 96s68.166 67.333 119.499 112c65.333 58 106.166 103.5 122.499 136.5s24.5 66.5 24.5 100.5c0 70 -27.667 131.5 -83 184.5s-122.666 79.5 -201.999 79.5
c-161.333 0 -258.666 -98.667 -291.999 -296zM670 0.000976562h-205v205h205v-205z" />
    <glyph glyph-name="at" unicode="@" horiz-adv-x="2079" 
d="M2009 18c-72 -135.333 -184.666 -243.828 -337.999 -325.495s-335 -122.5 -545 -122.5c-322.667 0 -571.834 81.833 -747.501 245.5s-263.5 381.5 -263.5 653.5c0 172.667 39 340.5 117 503.5s191.333 290.5 340 382.5s326 138 532 138
c259.333 0 466.833 -76.333 622.5 -229s233.5 -336.334 233.5 -551.001c0 -188.667 -63.167 -355.334 -189.5 -500.001s-263.833 -217 -412.5 -217c-123.333 0 -187.666 56 -192.999 168c-96.667 -110.667 -199 -166 -307 -166c-102 0 -187.833 43.333 -257.5 130
s-104.5 192.667 -104.5 318c0 156.667 52.833 302 158.5 436s225.5 201 359.5 201c126.667 0 227.667 -61.333 303 -184l35 156h178c-98 -460.667 -151.5 -708.834 -160.5 -744.501s-13.5 -62.834 -13.5 -81.501c0 -21.333 7.5 -37.833 22.5 -49.5s30.5 -17.5 46.5 -17.5
c42 0 95.667 25.667 161 77s119.333 119.333 162 204s64 176 64 274c0 184.667 -68.833 336 -206.5 454s-307.5 177 -509.5 177c-244.667 0 -444.834 -83.333 -600.501 -250s-233.5 -371 -233.5 -613c0 -248.667 77.833 -438.834 233.5 -570.501
s365.167 -197.5 628.5 -197.5c160.667 0 301.5 26.667 422.5 80s215.167 127 282.5 221h180zM895.001 145.005c90 0 173.332 51 249.999 153s115 219 115 351c0 91.333 -22.333 162 -67 212s-99.667 75 -165 75c-99.333 0 -182.166 -55.5 -248.499 -166.5
s-99.5 -222.833 -99.5 -335.5c0 -88.667 21.333 -159 64 -211s93 -78 151 -78z" />
    <glyph glyph-name="A" unicode="A" horiz-adv-x="1366" 
d="M1368 0h-219l-172 446h-612l-162 -446h-205l563 1466h209zM918 600c-120 317.333 -187.667 497.5 -203 540.5s-32.333 100.5 -51 172.5h-5c-18.667 -98.667 -43.667 -190 -75 -274l-164 -439h498z" />
    <glyph glyph-name="B" unicode="B" horiz-adv-x="1366" 
d="M985 780c92 -28 160.833 -73.501 206.5 -136.501s68.5 -135.5 68.5 -217.5s-20.667 -157.333 -62 -226s-100 -119.167 -176 -151.5s-179 -48.5 -309 -48.5h-561v1466h550c178 0 303.5 -38.667 376.5 -116s109.5 -163.333 109.5 -258c0 -64 -16.833 -123.167 -50.5 -177.5
s-84.5 -99.166 -152.5 -134.499zM346 851.999l318.002 0.000976562c65.333 0 120.166 3.66699 164.499 11s83.5 26.666 117.5 57.999s51 80 51 146c0 69.333 -17.167 120.5 -51.5 153.5s-75.333 53.167 -123 60.5s-108.834 11 -183.501 11h-293v-440zM346.002 174h364.999
c130.667 0 221.334 22.333 272.001 67s76 106.334 76 185.001c0 79.333 -27 141.166 -81 185.499s-151.333 66.5 -292 66.5h-340v-504z" />
    <glyph glyph-name="C" unicode="C" horiz-adv-x="1479" 
d="M1399 465c-42.667 -164.667 -117.169 -287.499 -223.502 -368.499s-233.833 -121.5 -382.5 -121.5c-240 0 -414.833 75.167 -524.5 225.5s-164.5 331.166 -164.5 542.499c0 234 64.5 417.167 193.5 549.5s294.833 198.5 497.5 198.5c142.667 0 264.667 -36.333 366 -109
s172.333 -179 213 -319l-190 -45c-32 102 -80.667 178.667 -146 230s-147 77 -245 77c-160 0 -281.333 -52.5 -364 -157.5s-124 -245.833 -124 -422.5c0 -204 43.5 -355.667 130.5 -455s200.5 -149 340.5 -149c114.667 0 207.834 31 279.501 93s121.834 155.333 150.501 280
z" />
    <glyph glyph-name="D" unicode="D" horiz-adv-x="1479" 
d="M164 1466h506.001c88.667 0 165 -4.5 229 -13.5s125.167 -31 183.5 -66s109.333 -83.167 153 -144.5s78 -131.833 103 -211.5s37.5 -176.167 37.5 -289.5c0 -216 -51.333 -393.5 -154 -532.5s-279.334 -208.5 -530.001 -208.5h-528v1466zM358.001 174l314 0.000976562
c64 0 121.167 4 171.5 12s101.333 29.667 153 65s94.5 93.333 128.5 174s51 187.334 51 320.001c0 73.333 -6.5 141.833 -19.5 205.5s-37 121.667 -72 174s-75.167 90.666 -120.5 114.999s-89.5 39.166 -132.5 44.499s-98.167 8 -165.5 8h-308v-1118z" />
    <glyph glyph-name="E" unicode="E" horiz-adv-x="1366" 
d="M1257 0h-1095v1466h1061v-174h-867v-448h811v-174h-811v-496h901v-174z" />
    <glyph glyph-name="F" unicode="F" horiz-adv-x="1251" 
d="M1153 1292h-795v-454h689v-174h-689v-664h-194v1466h989v-174z" />
    <glyph glyph-name="G" unicode="G" horiz-adv-x="1593" 
d="M1462 205c-184.667 -153.333 -386.671 -230.001 -606.004 -230.001c-224.667 0 -405.834 68.5 -543.501 205.5s-206.5 319.167 -206.5 546.5c0 138.667 28.167 267.834 84.5 387.501s139.333 212.334 249 278.001s243.834 98.5 402.501 98.5
c164.667 0 296.834 -36.167 396.501 -108.5s166.834 -180.833 201.501 -325.5l-174 -49c-27.333 105.333 -76.333 184.5 -147 237.5s-163 79.5 -277 79.5c-176.667 0 -310 -54 -400 -162s-135 -249.333 -135 -424c0 -130.667 21.833 -239.334 65.5 -326.001
s108.334 -152.167 194.001 -196.5s178.834 -66.5 279.501 -66.5c153.333 0 296 50.333 428 151v272h-432v175h620v-543z" />
    <glyph glyph-name="H" unicode="H" horiz-adv-x="1479" 
d="M1315 0h-195v690h-762v-690h-194v1466h194v-602h762v602h195v-1466z" />
    <glyph glyph-name="I" unicode="I" horiz-adv-x="569" 
d="M383 0h-195v1466h195v-1466z" />
    <glyph glyph-name="J" unicode="J" horiz-adv-x="1024" 
d="M860 469c0 -179.333 -36.168 -306.5 -108.501 -381.5s-173.166 -112.5 -302.499 -112.5c-131.333 0 -229.833 36.833 -295.5 110.5s-98.5 184.5 -98.5 332.5l174 24c1.33301 -97.333 20.333 -170.333 57 -219s91 -73 163 -73c66 0 115 15.667 147 47
s51.667 67.5 59 108.5s11 92.167 11 153.5v1007h194v-997z" />
    <glyph glyph-name="K" unicode="K" horiz-adv-x="1366" 
d="M1362 0h-256l-520 741l-242 -233v-508h-194v1466h194v-727l729 727h262l-614 -594z" />
    <glyph glyph-name="L" unicode="L" horiz-adv-x="1139" 
d="M1071 0h-917v1466h194v-1292h723v-174z" />
    <glyph glyph-name="M" unicode="M" horiz-adv-x="1706" 
d="M1550 0l-184 -0.000976562v1227h-4l-422 -1227h-174l-420 1247h-6v-1247h-184v1466h290l347 -1038c38.667 -115.333 61 -187.666 67 -216.999h4l78 235l350 1020h258v-1466z" />
    <glyph glyph-name="N" unicode="N" horiz-adv-x="1479" 
d="M1315 0h-199l-766 1151h-4v-1151h-184v1466h198l766 -1151h4v1151h185v-1466z" />
    <glyph glyph-name="O" unicode="O" horiz-adv-x="1593" 
d="M799 1491c205.333 0 373.333 -69.668 504 -209.001s196 -323 196 -551c0 -227.333 -65.667 -410.166 -197 -548.499s-299 -207.5 -503 -207.5c-211.333 0 -381.333 71.667 -510 215s-193 318.333 -193 525c0 240.667 65.167 430.167 195.5 568.5s299.5 207.5 507.5 207.5
zM797 140.999c148.667 0 269.168 51.999 361.501 155.999s138.833 248.667 139.5 434c0 190.667 -47.167 337.334 -141.5 440.001s-212.833 154 -355.5 154c-146.667 0 -267.334 -50.333 -362.001 -151s-142 -255 -142 -463c0 -170 46.333 -307.5 139 -412.5
s213 -157.5 361 -157.5z" />
    <glyph glyph-name="P" unicode="P" horiz-adv-x="1366" 
d="M158 1466l553 -0.000976562c87.333 0 162.5 -4.33301 225.5 -13s121.5 -31.167 175.5 -67.5s94.833 -85.666 122.5 -147.999s41.5 -127.5 41.5 -195.5c0 -135.333 -43.5 -243.833 -130.5 -325.5s-226.5 -122.5 -418.5 -122.5h-375v-594h-194v1466zM352 767.999h377
c230.667 0 346 89.333 346 268c0 58.667 -15 110.5 -45 155.5s-66.833 73 -110.5 84s-108.5 16.5 -194.5 16.5h-373v-524z" />
    <glyph glyph-name="Q" unicode="Q" horiz-adv-x="1593" 
d="M1526 20l-58.001 -135.001c-113.333 43.333 -217.666 103.666 -312.999 180.999c-110.667 -60.667 -230.667 -91 -360 -91c-204.667 0 -372.334 70.833 -503.001 212.5s-196 323.5 -196 545.5c0 220 63.333 401.333 190 544s297.667 214 513 214
c204.667 0 372.5 -69.667 503.5 -209s196.5 -321.666 196.5 -546.999c0 -241.333 -73.667 -433.666 -221 -576.999c82.667 -59.333 165.334 -105.333 248.001 -138zM1126 263.999c114.667 106 172 262.333 172 469c0 184.667 -46.167 329.5 -138.5 434.5
s-212.5 157.5 -360.5 157.5s-268.667 -50.333 -362 -151s-140 -247.667 -140 -441c0 -189.333 46.667 -335.333 140 -438s214 -154 362 -154c72.667 0 138 13 196 39c-64.667 41.333 -128.667 69.333 -192 84l47 142c119.333 -34 211.333 -81.333 276 -142z" />
    <glyph glyph-name="R" unicode="R" horiz-adv-x="1479" 
d="M1456 0l-243.999 -0.00390625l-272 425c-35.333 52.667 -72.5 97.834 -111.5 135.501s-75.667 61.5 -110 71.5s-79.833 15 -136.5 15h-224v-647h-194v1466h649c88.667 0 163 -5.66699 223 -17s112.667 -35.166 158 -71.499s80.166 -82.166 104.499 -137.499
s36.5 -113.666 36.5 -174.999c0 -110.667 -35 -199.667 -105 -267s-172 -110 -306 -128v-4c98 -43.333 190 -132.333 276 -267zM358.001 820.996l416 0.000976562c84 0 150.5 7.16699 199.5 21.5s88.167 42.166 117.5 83.499s44 87.666 44 138.999
c0 66.667 -24.333 123.334 -73 170.001s-129 70 -241 70h-463v-484z" />
    <glyph glyph-name="S" unicode="S" horiz-adv-x="1366" 
d="M1028 1036c-8 93.333 -41.6689 163.496 -101.002 210.496s-144.333 70.5 -255 70.5c-100 0 -181.333 -18.667 -244 -56s-94 -91.666 -94 -162.999c0 -63.333 24.167 -110.5 72.5 -141.5s140.833 -61.833 277.5 -92.5c121.333 -26.667 220.333 -54 297 -82
s142.334 -71.5 197.001 -130.5s82 -138.167 82 -237.5c0 -126 -50.167 -230.667 -150.5 -314s-231.166 -125 -392.499 -125c-206 0 -360.167 46 -462.5 138s-156.5 211.333 -162.5 358l184 16c8.66699 -117.333 54 -202.833 136 -256.5s181 -80.5 297 -80.5
c108.667 0 196.5 22.333 263.5 67s100.5 105.334 100.5 182.001c0 80 -35 138.333 -105 175s-187.5 72.834 -352.5 108.501s-283.833 85.834 -356.5 150.501s-109 148.667 -109 252c0 117.333 46 214.333 138 291s217.333 115 376 115c162.667 0 293.5 -38.167 392.5 -114.5
s151.5 -184.833 157.5 -325.5z" />
    <glyph glyph-name="T" unicode="T" horiz-adv-x="1251" 
d="M1206 1292h-485v-1292h-195v1292h-481v174h1161v-174z" />
    <glyph glyph-name="U" unicode="U" horiz-adv-x="1479" 
d="M1315 618c0 -75.333 -4.16699 -145.001 -12.5 -209.001s-30.333 -129.833 -66 -197.5s-93.667 -124 -174 -169s-187.5 -67.5 -321.5 -67.5c-130.667 0 -236 20 -316 60s-138.667 91.667 -176 155s-61.166 129.333 -71.499 198s-15.5 145.334 -15.5 230.001v848h194v-845
c0 -88 6.33301 -163.833 19 -227.5s46 -120.167 100 -169.5s137.333 -74 250 -74c114 0 199.667 19.667 257 59s94.666 91.833 111.999 157.5s26 150.5 26 254.5v845h195v-848z" />
    <glyph glyph-name="V" unicode="V" horiz-adv-x="1366" 
d="M1352 1466l-574 -1466h-198l-568 1466h209l381 -1065c28.667 -68 54 -147.667 76 -239h4c20 78 45.333 157.667 76 239l397 1065h197z" />
    <glyph glyph-name="W" unicode="W" horiz-adv-x="1933" 
d="M1911 1466l-403.999 -1466h-186l-320 1155c-16.667 59.333 -27.334 104.333 -32.001 135h-4l-41 -174l-312 -1116h-196l-391 1466h198l226 -962c30 -126 49 -218.667 57 -278c1.33301 -12 2 -19 2 -21h4c26.667 126.667 47.667 217.334 63 272.001l279 989h236l208 -741
c52 -184 89.667 -357.333 113 -520h4c14 79.333 37.333 185.666 70 318.999l231 942h195z" />
    <glyph glyph-name="X" unicode="X" horiz-adv-x="1366" 
d="M1354 0l-240 -0.000976562l-294 416c-72 102 -117.333 170.333 -136 205h-4c0 -12 -145.333 -219 -436 -621h-234l568 764l-502 702h231l309 -438c33.333 -47.333 58 -87 74 -119c26 44.667 163.333 230.334 412 557.001h211l-514 -690z" />
    <glyph glyph-name="Y" unicode="Y" horiz-adv-x="1366" 
d="M1354 1466l-584.001 -845v-621h-195v621l-565 845h236l322 -493c32.667 -50 71.334 -115.667 116.001 -197c28 54.667 176 284.667 444 690h226z" />
    <glyph glyph-name="Z" unicode="Z" horiz-adv-x="1251" 
d="M1196 0l-1159 -0.000976562v182l751 936c0 2 17.667 23.833 53 65.5s68.333 77.834 99 108.501h-819v174h1050v-174l-823 -1013l-88 -105h936v-174z" />
    <glyph glyph-name="bracketleft" unicode="[" horiz-adv-x="569" 
d="M537 -408h-398v1874h398v-149h-218v-1575h218v-150z" />
    <glyph glyph-name="backslash" unicode="\" horiz-adv-x="569" 
d="M569 -49h-145l-424 1515h145z" />
    <glyph glyph-name="bracketright" unicode="]" horiz-adv-x="569" 
d="M430 -408h-397v150h217v1575h-217v149h397v-1874z" />
    <glyph glyph-name="asciicircum" unicode="^" horiz-adv-x="961" 
d="M907 666h-182l-246 598l-241 -598h-185l355 800h145z" />
    <glyph glyph-name="underscore" unicode="_" horiz-adv-x="1024" 
d="M1036 -256h-1048v102h1048v-102z" />
    <glyph glyph-name="grave" unicode="`" horiz-adv-x="682" 
d="M455 1210h-148l-221 281h236z" />
    <glyph glyph-name="a" unicode="a" horiz-adv-x="1139" 
d="M1057 0l-189.004 -0.00195312c-17.333 33.333 -29.666 77 -36.999 131c-120.667 -104 -251 -156 -391 -156c-112 0 -200.333 28 -265 84s-97 130 -97 222c0 88 31.167 160.5 93.5 217.5s170.5 94.833 324.5 113.5l168 25c62.667 10 114.334 22.333 155.001 37
c0 54 -1.66699 92.167 -5 114.5s-13.166 45.5 -29.499 69.5s-42.5 43.333 -78.5 58s-84.333 22 -145 22c-77.333 0 -138.5 -14.333 -183.5 -43s-75.833 -82 -92.5 -160l-176 23c19.333 108.667 69 190.334 149 245.001s190 82 330 82c127.333 0 220.833 -18.833 280.5 -56.5
s96.334 -83.167 110.001 -136.5s20.5 -122 20.5 -206v-242c0 -147.333 2.83301 -246.166 8.5 -296.499s22.167 -99.5 49.5 -147.5zM818.996 466.998l-0.00195312 65c-94 -31.333 -209 -56.166 -345 -74.499s-204 -75.833 -204 -172.5c0 -48.667 18.333 -88.834 55 -120.501
s89.334 -47.5 158.001 -47.5c88.667 0 166.834 26.5 234.501 79.5s101.5 143.167 101.5 270.5z" />
    <glyph glyph-name="b" unicode="b" horiz-adv-x="1139" 
d="M322 942c66.667 95.333 162.001 143 286.001 143c136.667 0 246 -49.667 328 -149s123 -229 123 -389c0 -184.667 -45.833 -326.167 -137.5 -424.5s-198.834 -147.5 -321.501 -147.5c-124.667 0 -221.667 52.667 -291 158h-4v-133h-168v1466h180v-524h5zM586.001 123
c83.333 0 152.167 35.834 206.5 107.501s81.5 172.167 81.5 301.5c0 124.667 -25 223.5 -75 296.5s-119 109.5 -207 109.5c-86.667 0 -156.5 -37.667 -209.5 -113s-79.5 -170.666 -79.5 -285.999c0 -112.667 11 -192.834 33 -240.501s55.167 -88.834 99.5 -123.501
s94.5 -52 150.5 -52z" />
    <glyph glyph-name="c" unicode="c" horiz-adv-x="1024" 
d="M1006 367c-23.333 -135.333 -76.666 -234.5 -159.999 -297.5s-177.666 -94.5 -282.999 -94.5c-154 0 -273 50.5 -357 151.5s-126 234.833 -126 401.5c0 138 24.167 248.5 72.5 331.5s108.833 141.333 181.5 175s149 50.5 229 50.5c109.333 0 202.833 -28.333 280.5 -85
s125.5 -140 143.5 -250l-174 -27c-18 71.333 -47.167 125 -87.5 161s-91.833 54 -154.5 54c-100.667 0 -177 -35.667 -229 -107s-78 -171 -78 -299c0 -130.667 25.5 -231.5 76.5 -302.5s124.5 -106.5 220.5 -106.5c77.333 0 138.166 22.167 182.499 66.5
s72.166 110.833 83.499 199.5z" />
    <glyph glyph-name="d" unicode="d" horiz-adv-x="1139" 
d="M995 0l-167.999 0.000976562v135h-4c-64.667 -106.667 -162.334 -160 -293.001 -160c-130 0 -238.5 51.5 -325.5 154.5s-130.5 236.5 -130.5 400.5c0 171.333 41 306.666 123 405.999s190.333 149 325 149c126.667 0 223 -48.333 289 -145h4v526h180v-1466z
M549.001 123.001c78.667 0 145.333 32.333 200 97s82 162.667 82 294c0 129.333 -25 232.333 -75 309s-121.667 115 -215 115s-163.833 -37.5 -211.5 -112.5s-71.5 -173.5 -71.5 -295.5c0 -88 12.833 -162.5 38.5 -223.5s61.5 -106.833 107.5 -137.5s94.333 -46 145 -46z
" />
    <glyph glyph-name="e" unicode="e" horiz-adv-x="1139" 
d="M1059 485l-795.002 0.00195312c7.33301 -117.333 40.833 -207 100.5 -269s134.167 -93 223.5 -93c68.667 0 126.334 18.167 173.001 54.5s82.334 91.166 107.001 164.499l185 -23c-30 -110.667 -85 -195.667 -165 -255s-180 -89 -300 -89
c-159.333 0 -283.833 48.833 -373.5 146.5s-134.5 231.167 -134.5 400.5c0 167.333 43.5 303 130.5 407s209.5 156 367.5 156c77.333 0 151.833 -17 223.5 -51s132.5 -91.833 182.5 -173.5s75 -206.834 75 -375.501zM873.998 633.002
c-7.33301 108 -40.8301 185.833 -100.497 233.5s-124.834 71.5 -195.501 71.5c-84.667 0 -154.334 -28.333 -209.001 -85s-86.334 -130 -95.001 -220h600z" />
    <glyph glyph-name="f" unicode="f" horiz-adv-x="569" 
d="M637 1473l-27 -157.999c-36 6.66699 -71.333 10 -106 10c-43.333 0 -78.833 -9.16699 -106.5 -27.5s-41.5 -63.833 -41.5 -136.5v-100h205v-139h-205v-922h-180v922h-160v139h160v115c0 53.333 5 101.666 15 144.999s36.5 82.5 79.5 117.5s109.167 52.5 198.5 52.5
c53.333 0 109.333 -6 168 -18z" />
    <glyph glyph-name="g" unicode="g" horiz-adv-x="1139" 
d="M1006 143c0 -150.667 -14.998 -263.167 -44.998 -337.5s-83.333 -132.166 -160 -173.499s-168.334 -62 -275.001 -62c-120 0 -220 26.667 -300 80s-120 140.666 -120 261.999l175 -27c6.66699 -56 30.167 -98 70.5 -126s97.833 -42 172.5 -42
c93.333 0 161.666 19 204.999 57s69.833 84.333 79.5 139s14.5 130 14.5 226c-78 -92.667 -176.333 -139 -295 -139c-138 0 -248.833 51 -332.5 153s-125.5 230.667 -125.5 386c0 156 40.667 286 122 390s194 156 338 156c125.333 0 227.333 -50.333 306 -151h4v127h166
v-918zM545.002 147c76.667 0 144.668 30.498 204.001 91.498s89 163.167 89 306.5c0 126.667 -28.333 223.834 -85 291.501s-126.667 101.5 -210 101.5c-85.333 0 -154.833 -34.667 -208.5 -104s-80.5 -164.333 -80.5 -285c0 -139.333 28.167 -241.166 84.5 -305.499
s125.166 -96.5 206.499 -96.5z" />
    <glyph glyph-name="h" unicode="h" horiz-adv-x="1139" 
d="M1004 0h-181.001v670c0 86.667 -18.667 151.667 -56 195s-93 65 -167 65c-73.333 0 -138.833 -25.5 -196.5 -76.5s-86.5 -142.167 -86.5 -273.5v-580h-180v1466h180v-526c85.333 96.667 192 145 320 145c68.667 0 134.334 -14 197.001 -42s106.667 -71 132 -129
s38 -138.667 38 -242v-672z" />
    <glyph glyph-name="i" unicode="i" horiz-adv-x="455" 
d="M317 0h-180v1061h180v-1061zM317 1262h-180v204h180v-204z" />
    <glyph glyph-name="j" unicode="j" horiz-adv-x="455" 
d="M317 -57c0 -70 -4.66699 -130.168 -14 -180.501s-33.5 -94.666 -72.5 -132.999s-99.5 -57.5 -181.5 -57.5c-47.333 0 -94.333 6 -141 18l35 152c33.333 -9.33301 61.333 -14 84 -14c38.667 0 66.667 13 84 39s26 86 26 180v1114h180v-1118zM317 1262h-180v204h180v-204z
" />
    <glyph glyph-name="k" unicode="k" horiz-adv-x="1024" 
d="M1016 0h-221l-353 543l-127 -121v-422h-180v1466h180v-835l426 430h234l-406 -393z" />
    <glyph glyph-name="l" unicode="l" horiz-adv-x="455" 
d="M317 0h-180v1466h180v-1466z" />
    <glyph glyph-name="m" unicode="m" horiz-adv-x="1706" 
d="M1575 0h-179.999v670c0 49.333 -3.33301 91.5 -10 126.5s-23.834 66 -51.501 93s-70.834 40.5 -129.501 40.5c-70.667 0 -131.667 -24.667 -183 -74s-77 -129.333 -77 -240v-616h-180v690c0 92 -16.167 155 -48.5 189s-78.166 51 -137.499 51
c-77.333 0 -140.833 -26.667 -190.5 -80s-74.5 -153 -74.5 -299v-551h-180v1061h162v-148h4c72 114.667 177.667 172 317 172c78 0 142.167 -15.5 192.5 -46.5s86.833 -77.5 109.5 -139.5c78.667 124 187.667 186 327 186c110 0 192.5 -29.667 247.5 -89
s82.5 -148.333 82.5 -267v-729z" />
    <glyph glyph-name="n" unicode="n" horiz-adv-x="1139" 
d="M1004 0l-181 -0.00195312v645c0 108.667 -19.5 183.334 -58.5 224.001s-93.167 61 -162.5 61c-53.333 0 -103.833 -13 -151.5 -39s-81.5 -62.667 -101.5 -110s-30 -114.333 -30 -201v-580h-180v1061h162v-150h4c38 58 84.833 101.5 140.5 130.5s120.167 43.5 193.5 43.5
c56 0 111.333 -10 166 -30s97.5 -50 128.5 -90s50.5 -82.667 58.5 -128s12 -106.666 12 -183.999v-653z" />
    <glyph glyph-name="o" unicode="o" horiz-adv-x="1139" 
d="M569 1085c143.333 0 262.167 -46.6689 356.5 -140.002s141.5 -226 141.5 -398c0 -208.667 -51 -356.167 -153 -442.5s-217 -129.5 -345 -129.5c-134 0 -250.333 44.333 -349 133s-148 229.334 -148 422.001c0 186.667 47.667 325.834 143 417.501
s213.333 137.5 354 137.5zM569.001 122.998c102.667 0 180.667 37.999 234 113.999s80 176 80 300c0 132.667 -30.167 232.667 -90.5 300s-134.833 101 -223.5 101c-91.333 0 -166.333 -34.167 -225 -102.5s-88 -170.166 -88 -305.499
c0 -134.667 29.833 -236.167 89.5 -304.5s134.167 -102.5 223.5 -102.5z" />
    <glyph glyph-name="p" unicode="p" horiz-adv-x="1139" 
d="M307 924c67.333 107.333 168.333 161.001 303 161.001c139.333 0 249.333 -50.5 330 -151.5s121 -232.5 121 -394.5c0 -172.667 -44.667 -309.834 -134 -411.501s-199 -152.5 -329 -152.5c-114 0 -205.333 45.333 -274 136h-5v-519h-180v1469h164v-137h4zM586 123.001
c84 0 153.499 34.833 208.499 104.5s82.5 173.5 82.5 311.5c0 130 -26.5 230 -79.5 300s-120.833 105 -203.5 105c-85.333 0 -155.5 -39 -210.5 -117s-82.5 -179 -82.5 -303c0 -131.333 26.333 -231 79 -299s121.334 -102 206.001 -102z" />
    <glyph glyph-name="q" unicode="q" horiz-adv-x="1139" 
d="M999 -408l-180.002 -0.000976562v519h-4c-69.333 -90.667 -160.666 -136 -273.999 -136c-130.667 0 -240.5 50.833 -329.5 152.5s-133.5 238.834 -133.5 411.501c0 162 40.333 293.5 121 394.5s190.334 151.5 329.001 151.5c134.667 0 235.667 -53.667 303 -161h5v137
h163v-1469zM552.998 122.999c84.667 0 153.333 34 206 102s79 167.667 79 299c0 124 -27.333 225 -82 303s-125 117 -211 117c-82.667 0 -150.5 -35 -203.5 -105s-79.5 -170 -79.5 -300c0 -91.333 12.333 -168 37 -230s59.667 -108.5 105 -139.5s95 -46.5 149 -46.5z" />
    <glyph glyph-name="r" unicode="r" horiz-adv-x="682" 
d="M709 1028l-61.999 -166c-44.667 26 -88.334 39 -131.001 39c-67.333 0 -118.333 -30.167 -153 -90.5s-52 -144.833 -52 -253.5v-557h-180v1061h164v-160h4c57.333 122.667 132.333 184 225 184c61.333 0 123 -19 185 -57z" />
    <glyph glyph-name="s" unicode="s" horiz-adv-x="1024" 
d="M729 764c-8 58 -31.5 101.503 -70.5 130.503s-93.167 43.5 -162.5 43.5c-68.667 0 -124.167 -11.667 -166.5 -35s-63.5 -57.333 -63.5 -102c0 -42 16.833 -72 50.5 -90s100.167 -40 199.5 -66c112 -28.667 195.833 -54 251.5 -76s99 -52.833 130 -92.5
s46.5 -94.834 46.5 -165.501c0 -94.667 -38.667 -174.334 -116 -239.001s-180.666 -97 -309.999 -97c-134.667 0 -239.834 28.5 -315.501 85.5s-122.167 142.5 -139.5 256.5l179 27c9.33301 -74 36.833 -129.333 82.5 -166s109.5 -55 191.5 -55c78.667 0 139 16.5 181 49.5
s63 73.167 63 120.5c0 32 -9.66699 57.667 -29 77s-43.5 33.833 -72.5 43.5s-94.167 26.834 -195.5 51.501c-150.667 36 -250.167 79.667 -298.5 131s-72.5 112.666 -72.5 183.999c0 88.667 35.333 161.667 106 219s165.667 86 285 86
c126.667 0 225.167 -24.833 295.5 -74.5s112.5 -123.834 126.5 -222.501z" />
    <glyph glyph-name="t" unicode="t" horiz-adv-x="569" 
d="M551 2c-53.333 -10.667 -98.333 -16.002 -135 -16.002c-78.667 0 -136 13.833 -172 41.5s-58 62.834 -66 105.501s-12 102 -12 178v611h-131v139h131v264l180 109v-373h180v-139h-180v-621c0 -53.333 5.5 -91.166 16.5 -113.499s38.833 -33.5 83.5 -33.5
c26 0 52.667 2.66699 80 8z" />
    <glyph glyph-name="u" unicode="u" horiz-adv-x="1139" 
d="M997 0l-161 0.000976562v156h-5c-81.333 -120.667 -192.333 -181 -333 -181c-74 0 -142.5 17.167 -205.5 51.5s-105 81.666 -126 141.999s-31.5 138.5 -31.5 234.5v658h180v-588c0 -94 4.5 -161.333 13.5 -202s32.5 -74.167 70.5 -100.5s83.333 -39.5 136 -39.5
c68 0 132 23.5 192 70.5s90 144.5 90 292.5v567h180v-1061z" />
    <glyph glyph-name="v" unicode="v" horiz-adv-x="1024" 
d="M999 1061l-401 -1061h-168l-403 1061h190l219 -614c41.333 -116 66 -194.667 74 -236h4c10.667 42.667 29 100 55 172l246 678h184z" />
    <glyph glyph-name="w" unicode="w" horiz-adv-x="1479" 
d="M1468 1061l-333 -1061h-187l-168 637c-0.666992 0 -7.66699 28.667 -21 86s-20 88.666 -20 93.999h-4l-211 -817h-188l-326 1061h187l231 -840l36 143l189 697h185l143 -556c40 -153.333 62 -240.333 66 -261h4l241 817h176z" />
    <glyph glyph-name="x" unicode="x" horiz-adv-x="1024" 
d="M1010 0l-221.999 -0.000976562l-276 420l-279 -420h-219l389 553l-358 508h223c145.333 -219.333 224.666 -341.666 237.999 -366.999l260 367h215l-367 -498z" />
    <glyph glyph-name="y" unicode="y" horiz-adv-x="1024" 
d="M1008 1061l-406 -1079c-0.666992 -1.33301 -1.33398 -3.66602 -2.00098 -6.99902c-38.667 -120 -83.834 -217.5 -135.501 -292.5s-125.167 -112.5 -220.5 -112.5c-32 0 -71 6.66699 -117 20l-18 170c34.667 -10.667 68.667 -16 102 -16
c66.667 0 112.834 18.333 138.501 55s54.5 103 86.5 199l-403 1063h194l250 -695c14.667 -42.667 30.334 -97.667 47.001 -165h4c16.667 77.333 38 151 64 221l233 639h183z" />
    <glyph glyph-name="z" unicode="z" horiz-adv-x="1024" 
d="M981 0h-940.002v145l676 775c-79.333 -4.66699 -147 -7 -203 -7h-434v148h868v-117l-575 -672c-11.333 -14 -40.666 -46.667 -87.999 -98c-11.333 -10.667 -19 -19.667 -23 -27c68.667 6 144.334 9 227.001 9h492v-156z" />
    <glyph glyph-name="braceleft" unicode="{" horiz-adv-x="684" 
d="M635 -430l-54.998 -0.00878906c-54.667 0 -101.834 4.83301 -141.501 14.5s-74.5 33.834 -104.5 72.501s-48.833 84.667 -56.5 138s-12.167 142 -13.5 266c0 86.667 -3.5 155.334 -10.5 206.001s-25.5 93.334 -55.5 128.001s-77 52.667 -141 54v163
c64 1.33301 111 19.166 141 53.499s48.5 76.833 55.5 127.5s10.5 119.334 10.5 206.001c1.33301 123.333 5.66602 211.5 12.999 264.5s25.833 99.167 55.5 138.5s64.5 64 104.5 74s87.667 15 143 15h55v-156h-31c-68.667 0 -114.5 -12.5 -137.5 -37.5
s-34.5 -81.5 -34.5 -169.5c0 -146 -3.16699 -251.667 -9.5 -317s-24 -120.166 -53 -164.499s-77.833 -83.166 -146.5 -116.499c68 -27.333 119.833 -71.666 155.5 -132.999s53.5 -167.666 53.5 -318.999c0 -139.333 3 -224.666 9 -255.999s17.5 -55.166 34.5 -71.499
s59.833 -24.5 128.5 -24.5h31v-156z" />
    <glyph glyph-name="bar" unicode="|" horiz-adv-x="532" 
d="M344 -408h-156v1874h156v-1874z" />
    <glyph glyph-name="braceright" unicode="}" horiz-adv-x="684" 
d="M627 449c-64 -1.33301 -110.832 -19.165 -140.499 -53.498s-48 -76.333 -55 -126s-10.833 -119.167 -11.5 -208.5c-1.33301 -122.667 -5.66602 -210.5 -12.999 -263.5s-25.833 -99.167 -55.5 -138.5s-64.5 -64 -104.5 -74s-87.667 -15 -143 -15h-55v156h31
c68.667 0 114.5 12.5 137.5 37.5s34.5 81.167 34.5 168.5c0 146.667 3.16699 252.667 9.5 318s24 120.166 53 164.499s77.833 82.833 146.5 115.5c-68 28 -119.833 72.667 -155.5 134s-53.5 167.666 -53.5 318.999c0 139.333 -3 224.5 -9 255.5s-17.5 54.833 -34.5 71.5
s-59.833 25 -128.5 25h-31v156h55c55.333 0 103.166 -5.16699 143.499 -15.5s75.666 -35.666 105.999 -75.999s49 -86.5 56 -138.5s10.5 -139.333 10.5 -262c0 -86 3.5 -154.333 10.5 -205s25.5 -93.334 55.5 -128.001s77 -52.667 141 -54v-163z" />
    <glyph glyph-name="asciitilde" unicode="~" horiz-adv-x="1196" 
d="M1110 674c-79.333 -76.667 -171.331 -115 -275.998 -115c-70 0 -151.333 20.667 -244 62c-96 47.333 -176.667 71 -242 71c-84.667 0 -171.334 -45 -260.001 -135v205c70.667 80.667 163 121 277 121c71.333 0 162.666 -23.333 273.999 -70
c87.333 -43.333 158.333 -65 213 -65c86 0 172 45.667 258 137v-211z" />
    <glyph glyph-name="nonbreakingspace" unicode="&#xa0;" horiz-adv-x="698" 
 />
    <glyph glyph-name="exclamdown" unicode="&#xa1;" horiz-adv-x="682" 
d="M226 -82l51 776h117l55 -776v-325h-223v325zM236 1059h205v-205h-205v205z" />
    <glyph glyph-name="cent" unicode="&#xa2;" horiz-adv-x="1139" 
d="M1038 369c-24 -132.667 -78.5029 -231.834 -163.503 -297.501s-179.833 -98.5 -284.5 -98.5c-34.667 0 -69 4.33301 -103 13l-116 -396l-113 33l115 397c-83.333 40.667 -147.5 104.834 -192.5 192.501s-67.5 191.5 -67.5 311.5c0 188 45.667 328.833 137 422.5
s202 140.5 332 140.5c24 0 57.333 -2.66699 100 -8l115 387l108 -32l-110 -387c123.333 -54.667 198.333 -153.667 225 -297l-176 -27c-13.333 72.667 -44.666 129.334 -93.999 170.001l-224 -766c22.667 -5.33301 43.334 -8 62.001 -8c67.333 0 126.333 23.167 177 69.5
s82.334 113.166 95.001 200.499zM642.997 940c-134 11.333 -229.667 -32.667 -287 -132c-39.333 -68.667 -59 -159.667 -59 -273c0 -180 41 -299.667 123 -359z" />
    <glyph glyph-name="sterling" unicode="&#xa3;" horiz-adv-x="1139" 
d="M1087 37c-97.333 -41.333 -178.336 -62.001 -243.003 -62.001c-46.667 0 -93 7 -139 21c-110.667 33.333 -179.834 53.333 -207.501 60s-59.167 10 -94.5 10c-103.333 0 -204.333 -31.667 -303 -95l-69 174c152.667 88.667 229 219.334 229 392.001
c0 42 -5.33301 83.667 -16 125h-195v147h154c-34 114.667 -51 202.667 -51 264c0 128.667 43.5 230.5 130.5 305.5s194.833 112.5 323.5 112.5c109.333 0 205.333 -30.833 288 -92.5s134.334 -157.167 155.001 -286.5l-181 -27c-10 82 -39.833 145.5 -89.5 190.5
s-108.5 67.5 -176.5 67.5c-75.333 0 -137.166 -24.5 -185.499 -73.5s-72.5 -106.167 -72.5 -171.5c0 -76 19 -172.333 57 -289h314v-147h-283c14 -30 21 -59.667 21 -89c0 -128.667 -60.333 -254.667 -181 -378l4 -5c40.667 15.333 87.334 23 140.001 23
c56.667 0 119.334 -8.33301 188.001 -25c102.667 -27.333 180 -41 232 -41c50.667 0 114.667 18.667 192 56z" />
    <glyph glyph-name="yen" unicode="&#xa5;" horiz-adv-x="1139" 
d="M1137 1466l-381 -669.001h317v-140h-411v-180h411v-139h-411v-338h-181v338h-415v139h415v180h-415v140h319l-383 669h201l299 -534c27.333 -48 49 -93 65 -135c12 28.667 46.333 95.334 103 200.001l254 469h213z" />
    <glyph glyph-name="section" unicode="&#xa7;" horiz-adv-x="1139" 
d="M778 1124c-10.667 72.667 -33.998 127.334 -69.998 164.001s-84.333 55 -145 55c-58.667 0 -107.5 -16 -146.5 -48s-58.5 -69 -58.5 -111c0 -40 19.667 -80.167 59 -120.5s133.666 -105.5 282.999 -195.5c85.333 -50.667 151 -93.167 197 -127.5
s83.167 -73.833 111.5 -118.5s42.5 -97 42.5 -157c0 -134.667 -76.667 -230.334 -230 -287.001c106.667 -82.667 160 -176 160 -280c0 -94 -36.667 -172.167 -110 -234.5s-169 -93.5 -287 -93.5c-122 0 -221.333 30.5 -298 91.5s-123 150.5 -139 268.5l181 25
c14 -78 42.333 -136.5 85 -175.5s99.667 -58.5 171 -58.5c68.667 0 122 17.833 160 53.5s57 76.167 57 121.5c0 28.667 -8 55 -24 79s-56.333 59.5 -121 106.5s-141.334 97.5 -230.001 151.5c-144.667 88 -237.5 162.5 -278.5 223.5s-61.5 123.167 -61.5 186.5
s19.5 121 58.5 173s94.5 89.333 166.5 112c-88.667 76 -133 158.667 -133 248c0 82 33 155 99 219s156 96 270 96c118 0 213.667 -28.5 287 -85.5s117 -143.833 131 -260.5zM731.002 244c98.667 49.333 148.002 111.333 148.002 186c0 48.667 -22.833 94.667 -68.5 138
s-115.167 93.666 -208.5 150.999c-98.667 62 -166.334 108.333 -203.001 139c-100.667 -53.333 -151 -118 -151 -194c0 -50 19.833 -94.667 59.5 -134s104.5 -85.666 194.5 -138.999c97.333 -57.333 173.666 -106.333 228.999 -147z" />
    <glyph glyph-name="dieresis" unicode="&#xa8;" horiz-adv-x="682" 
d="M618 1251h-184v205h184v-205zM248 1251h-185v205h185v-205z" />
    <glyph glyph-name="copyright" unicode="&#xa9;" horiz-adv-x="1509" 
d="M756 1491c206 0 382.999 -73.833 530.999 -221.5s222 -325.167 222 -532.5s-73.667 -385 -221 -533s-324.666 -222 -531.999 -222c-208 0 -386 73.833 -534 221.5s-222 325.5 -222 533.5c0 207.333 74 384.833 222 532.5s326 221.5 534 221.5zM753.999 106
c172.667 0 320.832 61.833 444.499 185.5s185.5 272.167 185.5 445.5s-61.667 321.5 -185 444.5s-271.666 184.5 -444.999 184.5s-321.5 -61.5 -444.5 -184.5s-184.5 -271.167 -184.5 -444.5s61.5 -321.833 184.5 -445.5s271.167 -185.5 444.5 -185.5zM1120 578
c-21.333 -88 -65.3281 -155.833 -131.995 -203.5s-143.334 -71.5 -230.001 -71.5c-119.333 0 -215.5 39 -288.5 117s-109.5 183 -109.5 315c0 130.667 36.167 234 108.5 310s170.833 114 295.5 114c84 0 156.167 -20 216.5 -60s102.166 -98.333 125.499 -175l-119 -29
c-40.667 102.667 -116.334 154 -227.001 154c-83.333 0 -147.833 -29.833 -193.5 -89.5s-68.5 -135.834 -68.5 -228.501c0 -101.333 23.667 -178.166 71 -230.499s107.666 -78.5 180.999 -78.5c54.667 0 105.167 15.5 151.5 46.5s78.166 79.5 95.499 145.5z" />
    <glyph glyph-name="guillemotleft" unicode="&#xab;" horiz-adv-x="1139" 
d="M997 72h-147l-318 456l318 457h147l-260 -457zM606 72h-147l-318 456l318 457h147l-260 -457z" />
    <glyph glyph-name="logicalnot" unicode="&#xac;" horiz-adv-x="1196" 
d="M1083 416h-170v446h-800v168h970v-614z" />
    <glyph glyph-name="registered" unicode="&#xae;" horiz-adv-x="1509" 
d="M756 1491c206 0 382.999 -73.833 530.999 -221.5s222 -325.167 222 -532.5s-73.667 -385 -221 -533s-324.666 -222 -531.999 -222c-208 0 -386 73.833 -534 221.5s-222 325.5 -222 533.5c0 207.333 74 384.833 222 532.5s326 221.5 534 221.5zM753.999 106
c172.667 0 320.832 61.833 444.499 185.5s185.5 272.167 185.5 445.5s-61.667 321.5 -185 444.5s-271.666 184.5 -444.999 184.5s-321.5 -61.5 -444.5 -184.5s-184.5 -271.167 -184.5 -444.5s61.5 -321.833 184.5 -445.5s271.167 -185.5 444.5 -185.5zM1106 319
l-160 -0.000976562c-100.667 183.333 -166.5 286.666 -197.5 309.999s-69.5 35 -115.5 35h-78v-345h-131v811h281c84 0 148.667 -6 194 -18s82 -37.5 110 -76.5s42 -80.5 42 -124.5c0 -55.333 -20 -105.666 -60 -150.999s-97.333 -70.666 -172 -75.999v-4
c48.667 -11.333 111.667 -79 189 -203zM554.997 775.999l160 -0.000976562c73.333 0 124.333 10.833 153 32.5s43 51.834 43 90.501c0 38 -13.833 67.667 -41.5 89s-82.5 32 -164.5 32h-150v-244z" />
    <glyph glyph-name="macron" unicode="&#xaf;" horiz-adv-x="1024" 
d="M1036 1624h-1048v102h1048v-102z" />
    <glyph glyph-name="degree" unicode="&#xb0;" horiz-adv-x="819" 
d="M410 1485c76 0 140.999 -27.167 194.999 -81.5s81 -119.5 81 -195.5c0 -76.667 -27.167 -142.167 -81.5 -196.5s-119.166 -81.5 -194.499 -81.5c-76 0 -141.167 27.167 -195.5 81.5s-81.5 119.833 -81.5 196.5s27 142 81 196s119.333 81 196 81zM409.999 1038
c46 0 85.5 16.667 118.5 50s49.5 73.333 49.5 120s-16.5 86.334 -49.5 119.001s-72.5 49 -118.5 49c-46.667 0 -86.334 -16.333 -119.001 -49s-49 -72.334 -49 -119.001s16.333 -86.667 49 -120s72.334 -50 119.001 -50z" />
    <glyph glyph-name="plusminus" unicode="&#xb1;" horiz-adv-x="1196" 
d="M1083 682h-401v-401h-168v401h-401v168h401v401h168v-401h401v-168zM1083 0h-970v168h970v-168z" />
    <glyph glyph-name="acute" unicode="&#xb4;" horiz-adv-x="682" 
d="M596 1491l-221 -281h-148l133 281h236z" />
    <glyph glyph-name="mu" unicode="&#xb5;" horiz-adv-x="1139" 
d="M999 0l-159 0.00292969v125h-4c-56 -100 -143.667 -150 -263 -150c-108 0 -191 43.667 -249 131h-5v-514h-182v1469h180v-449c0 -126 5.16699 -216.833 15.5 -272.5s36.333 -103.334 78 -143.001s93.167 -59.5 154.5 -59.5c27.333 0 56.166 5.16699 86.499 15.5
s59.333 28.666 87 54.999s46.834 56 57.501 89s17.167 71.167 19.5 114.5s3.5 109.666 3.5 198.999v451h180v-1061z" />
    <glyph glyph-name="paragraph" unicode="&#xb6;" horiz-adv-x="1100" 
d="M1104 1292l-143 -0.000976562v-1700h-168v1700h-224v-1700h-168v1045c-129.333 8.66699 -228.833 50.834 -298.5 126.501s-104.5 169.167 -104.5 280.5c0 122 38.167 222.833 114.5 302.5s195.833 119.5 358.5 119.5h633v-174z" />
    <glyph glyph-name="periodcentered" unicode="&#xb7;" horiz-adv-x="569" 
d="M387 618h-205v205h205v-205z" />
    <glyph glyph-name="guillemotright" unicode="&#xbb;" horiz-adv-x="1139" 
d="M997 528l-317 -456h-148l261 456l-261 457h148zM606 528l-317 -456h-148l260 456l-260 457h148z" />
    <glyph glyph-name="questiondown" unicode="&#xbf;" horiz-adv-x="1251" 
d="M1099 -5c-15.333 -135.333 -65 -239.834 -149 -313.501s-192.667 -110.5 -326 -110.5c-137.333 0 -250.166 37.833 -338.499 113.5s-132.5 170.834 -132.5 285.501c0 57.333 12.833 113 38.5 167s86.5 123.333 182.5 208c73.333 65.333 119.5 116.833 138.5 154.5
s29.5 105.167 31.5 202.5h172c0 -77.333 -2.83301 -133.833 -8.5 -169.5s-17.334 -70.5 -35.001 -104.5s-40.667 -66 -69 -96s-68.166 -67.333 -119.499 -112c-65.333 -58 -106.166 -103.5 -122.499 -136.5s-24.5 -66.5 -24.5 -100.5c0 -70 27.667 -131.5 83 -184.5
s122.666 -79.5 201.999 -79.5c161.333 0 258.666 98.667 291.999 296zM523 1062h205v-205h-205v205z" />
    <glyph glyph-name="Agrave" unicode="&#xc0;" horiz-adv-x="1366" 
d="M1368 0h-219l-172 446h-612l-162 -446h-205l563 1466h209zM918 600c-120 317.333 -187.667 497.5 -203 540.5s-32.333 100.5 -51 172.5h-5c-18.667 -98.667 -43.667 -190 -75 -274l-164 -439h498zM799 1562h-148l-221 281h236z" />
    <glyph glyph-name="Acircumflex" unicode="&#xc2;" horiz-adv-x="1366" 
d="M1368 0h-219l-172 446h-612l-162 -446h-205l563 1466h209zM918 600c-120 317.333 -187.667 497.5 -203 540.5s-32.333 100.5 -51 172.5h-5c-18.667 -98.667 -43.667 -190 -75 -274l-164 -439h498zM1001 1562h-204l-109 170l-115 -170h-204l217 281h190z" />
    <glyph glyph-name="Atilde" unicode="&#xc3;" horiz-adv-x="1366" 
d="M1368 0h-219l-172 446h-612l-162 -446h-205l563 1466h209zM918 600c-120 317.333 -187.667 497.5 -203 540.5s-32.333 100.5 -51 172.5h-5c-18.667 -98.667 -43.667 -190 -75 -274l-164 -439h498zM1016 1814c0 -74.667 -19.1641 -131.167 -57.4971 -169.5
s-84.833 -57.5 -139.5 -57.5c-30.667 0 -56.334 3.5 -77.001 10.5s-45.334 19.833 -74.001 38.5c-47.333 30 -85 45 -113 45c-55.333 0 -84 -31.333 -86 -94h-123c0 74 20 130.333 60 169s87.667 58 143 58c43.333 0 90.166 -15.667 140.499 -47s91.5 -47 123.5 -47
c46 0 72.667 31.333 80 94h123z" />
    <glyph glyph-name="Adieresis" unicode="&#xc4;" horiz-adv-x="1366" 
d="M1368 0h-219l-172 446h-612l-162 -446h-205l563 1466h209zM918 600c-120 317.333 -187.667 497.5 -203 540.5s-32.333 100.5 -51 172.5h-5c-18.667 -98.667 -43.667 -190 -75 -274l-164 -439h498zM958 1599h-184v205h184v-205zM588 1599h-185v205h185v-205z" />
    <glyph glyph-name="Aring" unicode="&#xc5;" horiz-adv-x="1366" 
d="M1368 0h-219l-172 446h-612l-162 -446h-205l563 1466h209zM918 600c-120 317.333 -187.667 497.5 -203 540.5s-32.333 100.5 -51 172.5h-5c-18.667 -98.667 -43.667 -190 -75 -274l-164 -439h498zM682 1884c50 0 92.5 -17.5 127.5 -52.5s52.5 -77.5 52.5 -127.5
s-17.5 -92.5 -52.5 -127.5s-77.5 -52.5 -127.5 -52.5s-92.5 17.5 -127.5 52.5s-52.5 77.5 -52.5 127.5s17.5 92.5 52.5 127.5s77.5 52.5 127.5 52.5zM682 1597c29.333 0 54.5 10.5 75.5 31.5s31.5 46.167 31.5 75.5s-10.333 54.5 -31 75.5s-46 31.5 -76 31.5
c-29.333 0 -54.5 -10.5 -75.5 -31.5s-31.5 -46.167 -31.5 -75.5s10.5 -54.5 31.5 -75.5s46.167 -31.5 75.5 -31.5z" />
    <glyph glyph-name="AE" unicode="&#xc6;" horiz-adv-x="2048" 
d="M1935 0h-958v424h-565l-201 -424h-211l707 1466h1202v-174h-738v-450h687v-172h-687v-498h764v-172zM977 596v696h-146l-337 -696h483z" />
    <glyph glyph-name="Ecircumflex" unicode="&#xca;" horiz-adv-x="1366" 
d="M1257 0h-1095v1466h1061v-174h-867v-448h811v-174h-811v-496h901v-174zM1017 1562h-204l-109 170l-115 -170h-204l217 281h190z" />
    <glyph glyph-name="Edieresis" unicode="&#xcb;" horiz-adv-x="1366" 
d="M1257 0h-1095v1466h1061v-174h-867v-448h811v-174h-811v-496h901v-174zM982 1599h-184v205h184v-205zM612 1599h-185v205h185v-205z" />
    <glyph glyph-name="Iacute" unicode="&#xcd;" horiz-adv-x="569" 
d="M383 0h-195v1466h195v-1466zM545 1843l-221 -281h-148l133 281h236z" />
    <glyph glyph-name="Icircumflex" unicode="&#xce;" horiz-adv-x="569" 
d="M383 0h-195v1466h195v-1466zM606 1562h-204l-109 170l-115 -170h-204l217 281h190z" />
    <glyph glyph-name="Ntilde" unicode="&#xd1;" horiz-adv-x="1479" 
d="M1315 0h-199l-766 1151h-4v-1151h-184v1466h198l766 -1151h4v1151h185v-1466zM1096 1810c0 -74.667 -19.1641 -131.167 -57.4971 -169.5s-84.833 -57.5 -139.5 -57.5c-30.667 0 -56.334 3.5 -77.001 10.5s-45.334 19.833 -74.001 38.5c-47.333 30 -85 45 -113 45
c-55.333 0 -84 -31.333 -86 -94h-123c0 74 20 130.333 60 169s87.667 58 143 58c43.333 0 90.166 -15.667 140.499 -47s91.5 -47 123.5 -47c46 0 72.667 31.333 80 94h123z" />
    <glyph glyph-name="Ograve" unicode="&#xd2;" horiz-adv-x="1593" 
d="M799 1491c205.333 0 373.333 -69.668 504 -209.001s196 -323 196 -551c0 -227.333 -65.667 -410.166 -197 -548.499s-299 -207.5 -503 -207.5c-211.333 0 -381.333 71.667 -510 215s-193 318.333 -193 525c0 240.667 65.167 430.167 195.5 568.5s299.5 207.5 507.5 207.5
zM797 140.999c148.667 0 269.168 51.999 361.501 155.999s138.833 248.667 139.5 434c0 190.667 -47.167 337.334 -141.5 440.001s-212.833 154 -355.5 154c-146.667 0 -267.334 -50.333 -362.001 -151s-142 -255 -142 -463c0 -170 46.333 -307.5 139 -412.5
s213 -157.5 361 -157.5zM931.001 1562h-148l-221 281h236z" />
    <glyph glyph-name="Oacute" unicode="&#xd3;" horiz-adv-x="1593" 
d="M799 1491c205.333 0 373.333 -69.668 504 -209.001s196 -323 196 -551c0 -227.333 -65.667 -410.166 -197 -548.499s-299 -207.5 -503 -207.5c-211.333 0 -381.333 71.667 -510 215s-193 318.333 -193 525c0 240.667 65.167 430.167 195.5 568.5s299.5 207.5 507.5 207.5
zM797 140.999c148.667 0 269.168 51.999 361.501 155.999s138.833 248.667 139.5 434c0 190.667 -47.167 337.334 -141.5 440.001s-212.833 154 -355.5 154c-146.667 0 -267.334 -50.333 -362.001 -151s-142 -255 -142 -463c0 -170 46.333 -307.5 139 -412.5
s213 -157.5 361 -157.5zM1052 1843l-221 -281h-148l133 281h236z" />
    <glyph glyph-name="Ocircumflex" unicode="&#xd4;" horiz-adv-x="1593" 
d="M799 1491c205.333 0 373.333 -69.668 504 -209.001s196 -323 196 -551c0 -227.333 -65.667 -410.166 -197 -548.499s-299 -207.5 -503 -207.5c-211.333 0 -381.333 71.667 -510 215s-193 318.333 -193 525c0 240.667 65.167 430.167 195.5 568.5s299.5 207.5 507.5 207.5
zM797 140.999c148.667 0 269.168 51.999 361.501 155.999s138.833 248.667 139.5 434c0 190.667 -47.167 337.334 -141.5 440.001s-212.833 154 -355.5 154c-146.667 0 -267.334 -50.333 -362.001 -151s-142 -255 -142 -463c0 -170 46.333 -307.5 139 -412.5
s213 -157.5 361 -157.5zM1113 1562h-204l-109 170l-115 -170h-204l217 281h190z" />
    <glyph glyph-name="Otilde" unicode="&#xd5;" horiz-adv-x="1593" 
d="M799 1491c205.333 0 373.333 -69.668 504 -209.001s196 -323 196 -551c0 -227.333 -65.667 -410.166 -197 -548.499s-299 -207.5 -503 -207.5c-211.333 0 -381.333 71.667 -510 215s-193 318.333 -193 525c0 240.667 65.167 430.167 195.5 568.5s299.5 207.5 507.5 207.5
zM797 140.999c148.667 0 269.168 51.999 361.501 155.999s138.833 248.667 139.5 434c0 190.667 -47.167 337.334 -141.5 440.001s-212.833 154 -355.5 154c-146.667 0 -267.334 -50.333 -362.001 -151s-142 -255 -142 -463c0 -170 46.333 -307.5 139 -412.5
s213 -157.5 361 -157.5zM1132 1810c0 -74.667 -19.1641 -131.167 -57.4971 -169.5s-84.833 -57.5 -139.5 -57.5c-30.667 0 -56.334 3.5 -77.001 10.5s-45.334 19.833 -74.001 38.5c-47.333 30 -85 45 -113 45c-55.333 0 -84 -31.333 -86 -94h-123c0 74 20 130.333 60 169
s87.667 58 143 58c43.333 0 90.166 -15.667 140.499 -47s91.5 -47 123.5 -47c46 0 72.667 31.333 80 94h123z" />
    <glyph glyph-name="Odieresis" unicode="&#xd6;" horiz-adv-x="1593" 
d="M799 1491c205.333 0 373.333 -69.668 504 -209.001s196 -323 196 -551c0 -227.333 -65.667 -410.166 -197 -548.499s-299 -207.5 -503 -207.5c-211.333 0 -381.333 71.667 -510 215s-193 318.333 -193 525c0 240.667 65.167 430.167 195.5 568.5s299.5 207.5 507.5 207.5
zM797 140.999c148.667 0 269.168 51.999 361.501 155.999s138.833 248.667 139.5 434c0 190.667 -47.167 337.334 -141.5 440.001s-212.833 154 -355.5 154c-146.667 0 -267.334 -50.333 -362.001 -151s-142 -255 -142 -463c0 -170 46.333 -307.5 139 -412.5
s213 -157.5 361 -157.5zM1074 1599h-184v205h184v-205zM704.001 1599h-185v205h185v-205z" />
    <glyph glyph-name="Oslash" unicode="&#xd8;" horiz-adv-x="1593" 
d="M1520 1436l-177 -197c60 -84.667 101 -166.5 123 -245.5s33 -165.833 33 -260.5c0 -229.333 -66.167 -413 -198.5 -551s-298.166 -207 -497.499 -207c-172 0 -322.333 51.333 -451 154l-168 -188l-100 84l176 196c-66.667 99.333 -110.667 186.5 -132 261.5
s-32 157.167 -32 246.5c0 228 64.667 412 194 552s299.666 210 510.999 210c170.667 0 320.667 -53.333 450 -160l168 189zM1130 1198c-61.333 51.333 -116.332 85.333 -164.999 102s-103.334 25 -164.001 25c-148 0 -269 -50.5 -363 -151.5s-141 -247.833 -141 -440.5
c0 -141.333 30 -265 90 -371zM471.001 262c93.333 -80.667 202 -120.999 326 -120.999c150 0 271 52.667 363 158s138 248 138 428c0 139.333 -28 261.666 -84 366.999z" />
    <glyph glyph-name="Ugrave" unicode="&#xd9;" horiz-adv-x="1479" 
d="M1315 618c0 -75.333 -4.16699 -145.001 -12.5 -209.001s-30.333 -129.833 -66 -197.5s-93.667 -124 -174 -169s-187.5 -67.5 -321.5 -67.5c-130.667 0 -236 20 -316 60s-138.667 91.667 -176 155s-61.166 129.333 -71.499 198s-15.5 145.334 -15.5 230.001v848h194v-845
c0 -88 6.33301 -163.833 19 -227.5s46 -120.167 100 -169.5s137.333 -74 250 -74c114 0 199.667 19.667 257 59s94.666 91.833 111.999 157.5s26 150.5 26 254.5v845h195v-848zM855 1562h-148l-221 281h236z" />
    <glyph glyph-name="Uacute" unicode="&#xda;" horiz-adv-x="1479" 
d="M1315 618c0 -75.333 -4.16699 -145.001 -12.5 -209.001s-30.333 -129.833 -66 -197.5s-93.667 -124 -174 -169s-187.5 -67.5 -321.5 -67.5c-130.667 0 -236 20 -316 60s-138.667 91.667 -176 155s-61.166 129.333 -71.499 198s-15.5 145.334 -15.5 230.001v848h194v-845
c0 -88 6.33301 -163.833 19 -227.5s46 -120.167 100 -169.5s137.333 -74 250 -74c114 0 199.667 19.667 257 59s94.666 91.833 111.999 157.5s26 150.5 26 254.5v845h195v-848zM996 1843l-221 -281h-148l133 281h236z" />
    <glyph glyph-name="Ucircumflex" unicode="&#xdb;" horiz-adv-x="1479" 
d="M1315 618c0 -75.333 -4.16699 -145.001 -12.5 -209.001s-30.333 -129.833 -66 -197.5s-93.667 -124 -174 -169s-187.5 -67.5 -321.5 -67.5c-130.667 0 -236 20 -316 60s-138.667 91.667 -176 155s-61.166 129.333 -71.499 198s-15.5 145.334 -15.5 230.001v848h194v-845
c0 -88 6.33301 -163.833 19 -227.5s46 -120.167 100 -169.5s137.333 -74 250 -74c114 0 199.667 19.667 257 59s94.666 91.833 111.999 157.5s26 150.5 26 254.5v845h195v-848zM1057 1562h-204l-109 170l-115 -170h-204l217 281h190z" />
    <glyph glyph-name="Udieresis" unicode="&#xdc;" horiz-adv-x="1479" 
d="M1315 618c0 -75.333 -4.16699 -145.001 -12.5 -209.001s-30.333 -129.833 -66 -197.5s-93.667 -124 -174 -169s-187.5 -67.5 -321.5 -67.5c-130.667 0 -236 20 -316 60s-138.667 91.667 -176 155s-61.166 129.333 -71.499 198s-15.5 145.334 -15.5 230.001v848h194v-845
c0 -88 6.33301 -163.833 19 -227.5s46 -120.167 100 -169.5s137.333 -74 250 -74c114 0 199.667 19.667 257 59s94.666 91.833 111.999 157.5s26 150.5 26 254.5v845h195v-848zM1018 1599h-184v205h184v-205zM648 1599h-185v205h185v-205z" />
    <glyph glyph-name="germandbls" unicode="&#xdf;" horiz-adv-x="1251" 
d="M147 0l0.000976562 999.002c0 118 14.667 211.667 44 281s79.666 121.833 150.999 157.5s148.333 53.5 231 53.5c111.333 0 201 -28 269 -84s102 -123.667 102 -203c0 -65.333 -17.667 -129.333 -53 -192c-10 -14.667 -28.833 -47.5 -56.5 -98.5
s-41.5 -89.833 -41.5 -116.5c0 -30.667 11.167 -56.834 33.5 -78.501s71.833 -57.834 148.5 -108.501c84 -55.333 139.5 -105.333 166.5 -150s40.5 -94.334 40.5 -149.001c0 -92 -34.5 -171 -103.5 -237s-156.167 -99 -261.5 -99c-162.667 0 -284 80 -364 240l155 74
c59.333 -110.667 127.666 -166 204.999 -166c50 0 93.167 17.333 129.5 52s54.5 75.334 54.5 122.001c0 37.333 -8.83301 67 -26.5 89s-51.167 50 -100.5 84c-98.667 67.333 -167 123 -205 167s-57 87.667 -57 131c0 30.667 5.5 59.5 16.5 86.5s30.167 65.167 57.5 114.5
c40.667 72 65.5 121.333 74.5 148s13.5 49.667 13.5 69c0 44.667 -19.167 82 -57.5 112s-86.166 45 -143.499 45c-76 0 -135.167 -24.5 -177.5 -73.5s-63.5 -141.833 -63.5 -278.5v-991h-181z" />
    <glyph glyph-name="agrave" unicode="&#xe0;" horiz-adv-x="1139" 
d="M1057 0l-189.004 -0.00195312c-17.333 33.333 -29.666 77 -36.999 131c-120.667 -104 -251 -156 -391 -156c-112 0 -200.333 28 -265 84s-97 130 -97 222c0 88 31.167 160.5 93.5 217.5s170.5 94.833 324.5 113.5l168 25c62.667 10 114.334 22.333 155.001 37
c0 54 -1.66699 92.167 -5 114.5s-13.166 45.5 -29.499 69.5s-42.5 43.333 -78.5 58s-84.333 22 -145 22c-77.333 0 -138.5 -14.333 -183.5 -43s-75.833 -82 -92.5 -160l-176 23c19.333 108.667 69 190.334 149 245.001s190 82 330 82c127.333 0 220.833 -18.833 280.5 -56.5
s96.334 -83.167 110.001 -136.5s20.5 -122 20.5 -206v-242c0 -147.333 2.83301 -246.166 8.5 -296.499s22.167 -99.5 49.5 -147.5zM818.996 466.998l-0.00195312 65c-94 -31.333 -209 -56.166 -345 -74.499s-204 -75.833 -204 -172.5c0 -48.667 18.333 -88.834 55 -120.501
s89.334 -47.5 158.001 -47.5c88.667 0 166.834 26.5 234.501 79.5s101.5 143.167 101.5 270.5zM682.994 1210h-148l-221 281h236z" />
    <glyph glyph-name="aacute" unicode="&#xe1;" horiz-adv-x="1139" 
d="M1057 0l-189.004 -0.00195312c-17.333 33.333 -29.666 77 -36.999 131c-120.667 -104 -251 -156 -391 -156c-112 0 -200.333 28 -265 84s-97 130 -97 222c0 88 31.167 160.5 93.5 217.5s170.5 94.833 324.5 113.5l168 25c62.667 10 114.334 22.333 155.001 37
c0 54 -1.66699 92.167 -5 114.5s-13.166 45.5 -29.499 69.5s-42.5 43.333 -78.5 58s-84.333 22 -145 22c-77.333 0 -138.5 -14.333 -183.5 -43s-75.833 -82 -92.5 -160l-176 23c19.333 108.667 69 190.334 149 245.001s190 82 330 82c127.333 0 220.833 -18.833 280.5 -56.5
s96.334 -83.167 110.001 -136.5s20.5 -122 20.5 -206v-242c0 -147.333 2.83301 -246.166 8.5 -296.499s22.167 -99.5 49.5 -147.5zM818.996 466.998l-0.00195312 65c-94 -31.333 -209 -56.166 -345 -74.499s-204 -75.833 -204 -172.5c0 -48.667 18.333 -88.834 55 -120.501
s89.334 -47.5 158.001 -47.5c88.667 0 166.834 26.5 234.501 79.5s101.5 143.167 101.5 270.5zM827.994 1491l-221 -281h-148l133 281h236z" />
    <glyph glyph-name="acircumflex" unicode="&#xe2;" horiz-adv-x="1139" 
d="M1057 0l-189.004 -0.00195312c-17.333 33.333 -29.666 77 -36.999 131c-120.667 -104 -251 -156 -391 -156c-112 0 -200.333 28 -265 84s-97 130 -97 222c0 88 31.167 160.5 93.5 217.5s170.5 94.833 324.5 113.5l168 25c62.667 10 114.334 22.333 155.001 37
c0 54 -1.66699 92.167 -5 114.5s-13.166 45.5 -29.499 69.5s-42.5 43.333 -78.5 58s-84.333 22 -145 22c-77.333 0 -138.5 -14.333 -183.5 -43s-75.833 -82 -92.5 -160l-176 23c19.333 108.667 69 190.334 149 245.001s190 82 330 82c127.333 0 220.833 -18.833 280.5 -56.5
s96.334 -83.167 110.001 -136.5s20.5 -122 20.5 -206v-242c0 -147.333 2.83301 -246.166 8.5 -296.499s22.167 -99.5 49.5 -147.5zM818.996 466.998l-0.00195312 65c-94 -31.333 -209 -56.166 -345 -74.499s-204 -75.833 -204 -172.5c0 -48.667 18.333 -88.834 55 -120.501
s89.334 -47.5 158.001 -47.5c88.667 0 166.834 26.5 234.501 79.5s101.5 143.167 101.5 270.5zM884.994 1210h-204l-109 170l-115 -170h-204l217 281h190z" />
    <glyph glyph-name="atilde" unicode="&#xe3;" horiz-adv-x="1139" 
d="M1057 0l-189.004 -0.00195312c-17.333 33.333 -29.666 77 -36.999 131c-120.667 -104 -251 -156 -391 -156c-112 0 -200.333 28 -265 84s-97 130 -97 222c0 88 31.167 160.5 93.5 217.5s170.5 94.833 324.5 113.5l168 25c62.667 10 114.334 22.333 155.001 37
c0 54 -1.66699 92.167 -5 114.5s-13.166 45.5 -29.499 69.5s-42.5 43.333 -78.5 58s-84.333 22 -145 22c-77.333 0 -138.5 -14.333 -183.5 -43s-75.833 -82 -92.5 -160l-176 23c19.333 108.667 69 190.334 149 245.001s190 82 330 82c127.333 0 220.833 -18.833 280.5 -56.5
s96.334 -83.167 110.001 -136.5s20.5 -122 20.5 -206v-242c0 -147.333 2.83301 -246.166 8.5 -296.499s22.167 -99.5 49.5 -147.5zM818.996 466.998l-0.00195312 65c-94 -31.333 -209 -56.166 -345 -74.499s-204 -75.833 -204 -172.5c0 -48.667 18.333 -88.834 55 -120.501
s89.334 -47.5 158.001 -47.5c88.667 0 166.834 26.5 234.501 79.5s101.5 143.167 101.5 270.5zM903.994 1466c0 -74.667 -19.1641 -131.167 -57.4971 -169.5s-84.833 -57.5 -139.5 -57.5c-30.667 0 -56.334 3.5 -77.001 10.5s-45.334 19.833 -74.001 38.5
c-47.333 30 -85 45 -113 45c-55.333 0 -84 -31.333 -86 -94h-123c0 74 20 130.333 60 169s87.667 58 143 58c43.333 0 90.166 -15.667 140.499 -47s91.5 -47 123.5 -47c46 0 72.667 31.333 80 94h123z" />
    <glyph glyph-name="adieresis" unicode="&#xe4;" horiz-adv-x="1139" 
d="M1057 0l-189.004 -0.00195312c-17.333 33.333 -29.666 77 -36.999 131c-120.667 -104 -251 -156 -391 -156c-112 0 -200.333 28 -265 84s-97 130 -97 222c0 88 31.167 160.5 93.5 217.5s170.5 94.833 324.5 113.5l168 25c62.667 10 114.334 22.333 155.001 37
c0 54 -1.66699 92.167 -5 114.5s-13.166 45.5 -29.499 69.5s-42.5 43.333 -78.5 58s-84.333 22 -145 22c-77.333 0 -138.5 -14.333 -183.5 -43s-75.833 -82 -92.5 -160l-176 23c19.333 108.667 69 190.334 149 245.001s190 82 330 82c127.333 0 220.833 -18.833 280.5 -56.5
s96.334 -83.167 110.001 -136.5s20.5 -122 20.5 -206v-242c0 -147.333 2.83301 -246.166 8.5 -296.499s22.167 -99.5 49.5 -147.5zM818.996 466.998l-0.00195312 65c-94 -31.333 -209 -56.166 -345 -74.499s-204 -75.833 -204 -172.5c0 -48.667 18.333 -88.834 55 -120.501
s89.334 -47.5 158.001 -47.5c88.667 0 166.834 26.5 234.501 79.5s101.5 143.167 101.5 270.5zM845.994 1251h-184v205h184v-205zM475.994 1251h-185v205h185v-205z" />
    <glyph glyph-name="aring" unicode="&#xe5;" horiz-adv-x="1139" 
d="M1057 0l-189.004 -0.00195312c-17.333 33.333 -29.666 77 -36.999 131c-120.667 -104 -251 -156 -391 -156c-112 0 -200.333 28 -265 84s-97 130 -97 222c0 88 31.167 160.5 93.5 217.5s170.5 94.833 324.5 113.5l168 25c62.667 10 114.334 22.333 155.001 37
c0 54 -1.66699 92.167 -5 114.5s-13.166 45.5 -29.499 69.5s-42.5 43.333 -78.5 58s-84.333 22 -145 22c-77.333 0 -138.5 -14.333 -183.5 -43s-75.833 -82 -92.5 -160l-176 23c19.333 108.667 69 190.334 149 245.001s190 82 330 82c127.333 0 220.833 -18.833 280.5 -56.5
s96.334 -83.167 110.001 -136.5s20.5 -122 20.5 -206v-242c0 -147.333 2.83301 -246.166 8.5 -296.499s22.167 -99.5 49.5 -147.5zM818.996 466.998l-0.00195312 65c-94 -31.333 -209 -56.166 -345 -74.499s-204 -75.833 -204 -172.5c0 -48.667 18.333 -88.834 55 -120.501
s89.334 -47.5 158.001 -47.5c88.667 0 166.834 26.5 234.501 79.5s101.5 143.167 101.5 270.5zM569.994 1540c50 0 92.5 -17.5 127.5 -52.5s52.5 -77.5 52.5 -127.5s-17.5 -92.5 -52.5 -127.5s-77.5 -52.5 -127.5 -52.5s-92.5 17.5 -127.5 52.5s-52.5 77.5 -52.5 127.5
s17.5 92.5 52.5 127.5s77.5 52.5 127.5 52.5zM569.994 1253c29.333 0 54.5 10.5 75.5 31.5s31.5 46.167 31.5 75.5s-10.333 54.5 -31 75.5s-46 31.5 -76 31.5c-29.333 0 -54.5 -10.5 -75.5 -31.5s-31.5 -46.167 -31.5 -75.5s10.5 -54.5 31.5 -75.5s46.167 -31.5 75.5 -31.5z
" />
    <glyph glyph-name="ae" unicode="&#xe6;" horiz-adv-x="1821" 
d="M1739 485h-765.998c1.33301 -84 10 -148.167 26 -192.5s50 -83.333 102 -117s110.333 -50.5 175 -50.5c71.333 0 129.833 18.667 175.5 56s78.5 93.666 98.5 168.999l187 -24c-35.333 -117.333 -91.833 -205.166 -169.5 -263.499s-176.834 -87.5 -297.501 -87.5
c-81.333 0 -155 16.5 -221 49.5s-124.333 82.833 -175 149.5c-65.333 -66.667 -134.666 -116.5 -207.999 -149.5s-150.666 -49.5 -231.999 -49.5c-120.667 0 -211.5 31 -272.5 93s-91.5 133 -91.5 213c0 28 5.83301 60.333 17.5 97s36.167 74 73.5 112
s84.666 65.667 141.999 83s136.666 33.333 237.999 48c114.667 15.333 198 31.666 250 48.999c0 64.667 -1.66699 108.167 -5 130.5s-12.666 44.833 -27.999 67.5s-39.166 40 -71.499 52s-74.833 18 -127.5 18c-82.667 0 -146.834 -14 -192.501 -42
s-75.834 -82.333 -90.501 -163l-176 21c22.667 110 72.334 192.667 149.001 248s180.667 83 312 83c96.667 0 175.667 -12 237 -36s104.666 -59.667 129.999 -107c86 95.333 200 143 342 143c85.333 0 159.166 -16.667 221.499 -50s112.5 -79.166 150.5 -137.499
s63.667 -118.833 77 -181.5s20 -139.667 20 -231zM1556 633c-9.33301 101.333 -38 177.5 -86 228.5s-115.333 76.5 -202 76.5c-86 0 -154.833 -27.167 -206.5 -81.5s-81.167 -128.833 -88.5 -223.5h583zM795.002 532c-76 -30 -184.003 -53.999 -324.003 -71.999
c-70 -8.66699 -122.333 -27.5 -157 -56.5s-52 -67.833 -52 -116.5c0 -46.667 17.333 -86.334 52 -119.001s86.334 -49 155.001 -49c54.667 0 106.334 10.667 155.001 32s86.334 50 113.001 86s43 72.833 49 110.5s9 99.167 9 184.5z" />
    <glyph glyph-name="ccedilla" unicode="&#xe7;" horiz-adv-x="1024" 
d="M571 -213c0 44 -48.998 65.998 -146.998 65.998l33 131c-120 22.667 -212.833 81.5 -278.5 176.5s-98.5 214.833 -98.5 359.5c0 188 44.5 329.167 133.5 423.5s206.167 141.5 351.5 141.5c103.333 0 194.333 -26.5 273 -79.5s129 -138.167 151 -255.5l-176 -29
c-16.667 72 -45.334 126.167 -86.001 162.5s-93.334 54.5 -158.001 54.5c-100 0 -175.833 -36 -227.5 -108s-77.5 -172 -77.5 -300c0 -130.667 25.5 -231.167 76.5 -301.5s124.5 -105.5 220.5 -105.5c75.333 0 135.333 22 180 66s74 110 88 198l177 -22
c-20.667 -120 -66 -212.5 -136 -277.5s-164.667 -102.5 -284 -112.5l-13 -49c56.667 -5.33301 98.167 -22.166 124.5 -50.499s39.5 -61.166 39.5 -98.499c0 -58.667 -26 -103 -78 -133s-123 -45 -213 -45c-29.333 0 -64 2.66699 -104 8l4 119c32 -6 61.333 -9 88 -9
c91.333 0 137 23.333 137 70z" />
    <glyph glyph-name="egrave" unicode="&#xe8;" horiz-adv-x="1139" 
d="M1059 485l-795.002 0.00195312c7.33301 -117.333 40.833 -207 100.5 -269s134.167 -93 223.5 -93c68.667 0 126.334 18.167 173.001 54.5s82.334 91.166 107.001 164.499l185 -23c-30 -110.667 -85 -195.667 -165 -255s-180 -89 -300 -89
c-159.333 0 -283.833 48.833 -373.5 146.5s-134.5 231.167 -134.5 400.5c0 167.333 43.5 303 130.5 407s209.5 156 367.5 156c77.333 0 151.833 -17 223.5 -51s132.5 -91.833 182.5 -173.5s75 -206.834 75 -375.501zM873.998 633.002
c-7.33301 108 -40.8301 185.833 -100.497 233.5s-124.834 71.5 -195.501 71.5c-84.667 0 -154.334 -28.333 -209.001 -85s-86.334 -130 -95.001 -220h600zM683.001 1210h-148l-221 281h236z" />
    <glyph glyph-name="eacute" unicode="&#xe9;" horiz-adv-x="1139" 
d="M1059 485l-795.002 0.00195312c7.33301 -117.333 40.833 -207 100.5 -269s134.167 -93 223.5 -93c68.667 0 126.334 18.167 173.001 54.5s82.334 91.166 107.001 164.499l185 -23c-30 -110.667 -85 -195.667 -165 -255s-180 -89 -300 -89
c-159.333 0 -283.833 48.833 -373.5 146.5s-134.5 231.167 -134.5 400.5c0 167.333 43.5 303 130.5 407s209.5 156 367.5 156c77.333 0 151.833 -17 223.5 -51s132.5 -91.833 182.5 -173.5s75 -206.834 75 -375.501zM873.998 633.002
c-7.33301 108 -40.8301 185.833 -100.497 233.5s-124.834 71.5 -195.501 71.5c-84.667 0 -154.334 -28.333 -209.001 -85s-86.334 -130 -95.001 -220h600zM828.001 1491l-221 -281h-148l133 281h236z" />
    <glyph glyph-name="ecircumflex" unicode="&#xea;" horiz-adv-x="1139" 
d="M1059 485l-795.002 0.00195312c7.33301 -117.333 40.833 -207 100.5 -269s134.167 -93 223.5 -93c68.667 0 126.334 18.167 173.001 54.5s82.334 91.166 107.001 164.499l185 -23c-30 -110.667 -85 -195.667 -165 -255s-180 -89 -300 -89
c-159.333 0 -283.833 48.833 -373.5 146.5s-134.5 231.167 -134.5 400.5c0 167.333 43.5 303 130.5 407s209.5 156 367.5 156c77.333 0 151.833 -17 223.5 -51s132.5 -91.833 182.5 -173.5s75 -206.834 75 -375.501zM873.998 633.002
c-7.33301 108 -40.8301 185.833 -100.497 233.5s-124.834 71.5 -195.501 71.5c-84.667 0 -154.334 -28.333 -209.001 -85s-86.334 -130 -95.001 -220h600zM889.001 1210h-204l-109 170l-115 -170h-204l217 281h190z" />
    <glyph glyph-name="edieresis" unicode="&#xeb;" horiz-adv-x="1139" 
d="M1059 485l-795.002 0.00195312c7.33301 -117.333 40.833 -207 100.5 -269s134.167 -93 223.5 -93c68.667 0 126.334 18.167 173.001 54.5s82.334 91.166 107.001 164.499l185 -23c-30 -110.667 -85 -195.667 -165 -255s-180 -89 -300 -89
c-159.333 0 -283.833 48.833 -373.5 146.5s-134.5 231.167 -134.5 400.5c0 167.333 43.5 303 130.5 407s209.5 156 367.5 156c77.333 0 151.833 -17 223.5 -51s132.5 -91.833 182.5 -173.5s75 -206.834 75 -375.501zM873.998 633.002
c-7.33301 108 -40.8301 185.833 -100.497 233.5s-124.834 71.5 -195.501 71.5c-84.667 0 -154.334 -28.333 -209.001 -85s-86.334 -130 -95.001 -220h600zM850.001 1251h-184v205h184v-205zM480.001 1251h-185v205h185v-205z" />
    <glyph glyph-name="igrave" unicode="&#xec;" horiz-adv-x="569" 
d="M374 0h-180v1061h180v-1061zM400 1210h-148l-221 281h236z" />
    <glyph glyph-name="iacute" unicode="&#xed;" horiz-adv-x="569" 
d="M374 0h-180v1061h180v-1061zM545 1491l-221 -281h-148l133 281h236z" />
    <glyph glyph-name="icircumflex" unicode="&#xee;" horiz-adv-x="569" 
d="M374 0h-180v1061h180v-1061zM606 1210h-204l-109 170l-115 -170h-204l217 281h190z" />
    <glyph glyph-name="idieresis" unicode="&#xef;" horiz-adv-x="569" 
d="M374 0h-180v1061h180v-1061zM571 1251h-184v205h184v-205zM201 1251h-185v205h185v-205z" />
    <glyph glyph-name="divide" unicode="&#xf7;" horiz-adv-x="1196" 
d="M700 942h-204v205h204v-205zM1083 639h-970v168h970v-168zM700 299h-204v205h204v-205z" />
    <glyph glyph-name="ugrave" unicode="&#xf9;" horiz-adv-x="1139" 
d="M997 0l-161 0.000976562v156h-5c-81.333 -120.667 -192.333 -181 -333 -181c-74 0 -142.5 17.167 -205.5 51.5s-105 81.666 -126 141.999s-31.5 138.5 -31.5 234.5v658h180v-588c0 -94 4.5 -161.333 13.5 -202s32.5 -74.167 70.5 -100.5s83.333 -39.5 136 -39.5
c68 0 132 23.5 192 70.5s90 144.5 90 292.5v567h180v-1061zM683 1210h-148l-221 281h236z" />
    <glyph glyph-name="uacute" unicode="&#xfa;" horiz-adv-x="1139" 
d="M997 0l-161 0.000976562v156h-5c-81.333 -120.667 -192.333 -181 -333 -181c-74 0 -142.5 17.167 -205.5 51.5s-105 81.666 -126 141.999s-31.5 138.5 -31.5 234.5v658h180v-588c0 -94 4.5 -161.333 13.5 -202s32.5 -74.167 70.5 -100.5s83.333 -39.5 136 -39.5
c68 0 132 23.5 192 70.5s90 144.5 90 292.5v567h180v-1061zM828 1491l-221 -281h-148l133 281h236z" />
    <glyph glyph-name="ucircumflex" unicode="&#xfb;" horiz-adv-x="1139" 
d="M997 0l-161 0.000976562v156h-5c-81.333 -120.667 -192.333 -181 -333 -181c-74 0 -142.5 17.167 -205.5 51.5s-105 81.666 -126 141.999s-31.5 138.5 -31.5 234.5v658h180v-588c0 -94 4.5 -161.333 13.5 -202s32.5 -74.167 70.5 -100.5s83.333 -39.5 136 -39.5
c68 0 132 23.5 192 70.5s90 144.5 90 292.5v567h180v-1061zM889 1210h-204l-109 170l-115 -170h-204l217 281h190z" />
    <glyph glyph-name="udieresis" unicode="&#xfc;" horiz-adv-x="1139" 
d="M997 0l-161 0.000976562v156h-5c-81.333 -120.667 -192.333 -181 -333 -181c-74 0 -142.5 17.167 -205.5 51.5s-105 81.666 -126 141.999s-31.5 138.5 -31.5 234.5v658h180v-588c0 -94 4.5 -161.333 13.5 -202s32.5 -74.167 70.5 -100.5s83.333 -39.5 136 -39.5
c68 0 132 23.5 192 70.5s90 144.5 90 292.5v567h180v-1061zM846 1251h-184v205h184v-205zM476 1251h-185v205h185v-205z" />
    <glyph glyph-name="ydieresis" unicode="&#xff;" horiz-adv-x="1024" 
d="M1008 1061l-406 -1079c-0.666992 -1.33301 -1.33398 -3.66602 -2.00098 -6.99902c-38.667 -120 -83.834 -217.5 -135.501 -292.5s-125.167 -112.5 -220.5 -112.5c-32 0 -71 6.66699 -117 20l-18 170c34.667 -10.667 68.667 -16 102 -16
c66.667 0 112.834 18.333 138.501 55s54.5 103 86.5 199l-403 1063h194l250 -695c14.667 -42.667 30.334 -97.667 47.001 -165h4c16.667 77.333 38 151 64 221l233 639h183zM790 1251h-184v205h184v-205zM420 1251h-185v205h185v-205z" />
    <glyph glyph-name="dotlessi" unicode="&#x131;" horiz-adv-x="569" 
d="M374 0h-180v1061h180v-1061z" />
    <glyph glyph-name="OE" unicode="&#x152;" horiz-adv-x="2048" 
d="M1982 0l-860.001 0.000976562v211h-4c-88 -157.333 -220.333 -236 -397 -236c-191.333 0 -337.833 70 -439.5 210s-152.5 323.333 -152.5 550c0 233.333 51.167 417.666 153.5 552.999s248.5 203 438.5 203c178.667 0 310.334 -74.333 395.001 -223h4v198h832v-174h-649
v-446h598v-174h-598v-498h679v-174zM718.999 131.001c108 0 200.167 47.5 276.5 142.5s114.5 252.167 114.5 471.5c0 193.333 -36.167 340 -108.5 440s-166.5 150 -282.5 150c-108 0 -199.833 -48 -275.5 -144s-113.5 -252.667 -113.5 -470c0 -188 35.5 -333.333 106.5 -436
s165.167 -154 282.5 -154z" />
    <glyph glyph-name="oe" unicode="&#x153;" horiz-adv-x="1933" 
d="M1851 483l-782.001 -0.000976562c2 -109.333 32.333 -196.333 91 -261s133.334 -97 224.001 -97c139.333 0 231 73.667 275 221l180 -27c-30.667 -114.667 -85.5 -200.667 -164.5 -258s-176.5 -86 -292.5 -86c-182 0 -318.333 67 -409 201
c-102.667 -134 -234.334 -201 -395.001 -201c-150 0 -270.833 48 -362.5 144s-137.5 229 -137.5 399c0 180.667 44.833 320.334 134.5 419.001s212.167 148 367.5 148c88.667 0 167.334 -18 236.001 -54s121 -85.333 157 -148c94.667 134.667 224.334 202 389.001 202
c137.333 0 253.166 -46.833 347.499 -140.5s141.5 -247.5 141.5 -461.5zM1663 630.999c-10 105.333 -41.6689 182.833 -95.002 232.5s-118 74.5 -194 74.5c-77.333 0 -144.166 -26 -200.499 -78s-89.166 -128.333 -98.499 -229h588zM572.997 124.999
c90 0 164.833 36.333 224.5 109s89.5 173 89.5 301c0 129.333 -30 228.833 -90 298.5s-134.667 104.5 -224 104.5c-94.667 0 -170.167 -37.833 -226.5 -113.5s-84.5 -173.167 -84.5 -292.5c0 -136 29.333 -237.833 88 -305.5s133 -101.5 223 -101.5z" />
    <glyph glyph-name="Ydieresis" unicode="&#x178;" horiz-adv-x="1366" 
d="M962 1595h-184v205h184v-205zM592 1595h-185v205h185v-205zM1354 1466l-584.001 -845v-621h-195v621l-565 845h236l322 -493c32.667 -50 71.334 -115.667 116.001 -197c28 54.667 176 284.667 444 690h226z" />
    <glyph glyph-name="florin" unicode="&#x192;" horiz-adv-x="569" 
d="M637 1473l-27 -157.999c-36 6.66699 -71.333 10 -106 10c-43.333 0 -78.833 -9.16699 -106.5 -27.5s-41.5 -63.833 -41.5 -136.5v-100h205v-139h-205v-934c0 -68.667 -5.5 -124 -16.5 -166s-34.5 -75.333 -70.5 -100s-90.333 -37 -163 -37
c-36.667 0 -81.667 5.33301 -135 16l25 160c27.333 -5.33301 54 -8 80 -8c42 0 69.167 9 81.5 27s18.5 50.333 18.5 97v945h-160v139h160v115c0 53.333 5 101.666 15 144.999s36.5 82.5 79.5 117.5s109.167 52.5 198.5 52.5c53.333 0 109.333 -6 168 -18z" />
    <glyph glyph-name="circumflex" unicode="&#x2c6;" horiz-adv-x="682" 
d="M657 1210h-204l-109 170l-115 -170h-204l217 281h190z" />
    <glyph glyph-name="caron" unicode="&#x2c7;" horiz-adv-x="2048" 
d="M256 0v1536h1536v-1536h-1536zM384 128h1280v1280h-1280v-1280z" />
    <glyph glyph-name="breve" unicode="&#x2d8;" horiz-adv-x="682" 
d="M637 1479c-3.33301 -74 -32.002 -135.833 -86.002 -185.5s-124.333 -74.5 -211 -74.5c-86 0 -155.833 24.833 -209.5 74.5s-82.167 111.5 -85.5 185.5h123c8.66699 -45.333 27.334 -79.333 56.001 -102s67.334 -34 116.001 -34s87.5 11.333 116.5 34
s48.167 56.667 57.5 102h123z" />
    <glyph glyph-name="dotaccent" unicode="&#x2d9;" horiz-adv-x="682" 
d="M432 1251h-184v205h184v-205z" />
    <glyph glyph-name="ring" unicode="&#x2da;" horiz-adv-x="682" 
d="M342 1540c50 0 92.5 -17.5 127.5 -52.5s52.5 -77.5 52.5 -127.5s-17.5 -92.5 -52.5 -127.5s-77.5 -52.5 -127.5 -52.5s-92.5 17.5 -127.5 52.5s-52.5 77.5 -52.5 127.5s17.5 92.5 52.5 127.5s77.5 52.5 127.5 52.5zM342 1253c29.333 0 54.5 10.5 75.5 31.5
s31.5 46.167 31.5 75.5s-10.333 54.5 -31 75.5s-46 31.5 -76 31.5c-29.333 0 -54.5 -10.5 -75.5 -31.5s-31.5 -46.167 -31.5 -75.5s10.5 -54.5 31.5 -75.5s46.167 -31.5 75.5 -31.5z" />
    <glyph glyph-name="ogonek" unicode="&#x2db;" horiz-adv-x="682" 
d="M621 -365c-80 -40.667 -153.333 -61.001 -220 -61.001c-64 0 -116.5 20 -157.5 60s-61.5 93.667 -61.5 161c0 56.667 13.667 133.334 41 230.001h125c-26 -60.667 -39 -116 -39 -166c0 -44 13.5 -80.333 40.5 -109s61.5 -43 103.5 -43c51.333 0 107.333 15.667 168 47
v-119z" />
    <glyph glyph-name="tilde" unicode="&#x2dc;" horiz-adv-x="682" 
d="M676 1466c0 -74.667 -19.1641 -131.167 -57.4971 -169.5s-84.833 -57.5 -139.5 -57.5c-30.667 0 -56.334 3.5 -77.001 10.5s-45.334 19.833 -74.001 38.5c-47.333 30 -85 45 -113 45c-55.333 0 -84 -31.333 -86 -94h-123c0 74 20 130.333 60 169s87.667 58 143 58
c43.333 0 90.166 -15.667 140.499 -47s91.5 -47 123.5 -47c46 0 72.667 31.333 80 94h123z" />
    <glyph glyph-name="hungarumlaut" unicode="&#x2dd;" horiz-adv-x="682" 
d="M764 1491l-221 -281h-148l133 281h236zM426 1491l-221 -281h-148l133 281h236z" />
    <glyph glyph-name="pi" unicode="&#x3c0;" horiz-adv-x="1389" 
d="M1356 913h-261v-913h-181v913h-440v-913h-180v913h-261v148h1323v-148z" />
    <glyph glyph-name="uni1000" unicode="&#x1000;" horiz-adv-x="2054" 
d="M1462 -20c-17.333 -1.33301 -34.6699 -1.33105 -52.0029 0.00195312l-9 69.5c-4 31 -9.33301 69.5 -16 115.5c22 -3.33301 44 -4.33301 66 -3c41.333 2 79.833 10.667 115.5 26s66.667 34.166 93 56.499s47 46.666 62 72.999s22.5 51.166 22.5 74.499v322
c0 28.667 -8.16699 56.834 -24.5 84.501s-38.5 52.5 -66.5 74.5s-60.5 40 -97.5 54s-76.167 21.333 -117.5 22c-42 0.666992 -82.167 -7 -120.5 -23s-71.833 -36.5 -100.5 -61.5s-51.5 -52.833 -68.5 -83.5s-25.5 -60 -25.5 -88v-4v-352c0 -39.333 -7.5 -77.333 -22.5 -114
s-35.667 -70.834 -62 -102.501s-57.166 -60.334 -92.499 -86.001s-73.333 -47.167 -114 -64.5l-69 170c24 11.333 46 24.833 66 40.5s37.167 32.334 51.5 50.001s25.5 35.667 33.5 54s12 35.833 12 52.5v377c0 28.667 -8.16699 56.834 -24.5 84.501s-38.5 52.5 -66.5 74.5
s-60.667 40 -98 54s-76.666 21.333 -117.999 22c-42 0.666992 -82 -7 -120 -23s-71.333 -36.5 -100 -61.5s-51.5 -52.833 -68.5 -83.5s-25.5 -60 -25.5 -88v-356c0 -17.333 4 -35.166 12 -53.499s19 -36 33 -53s30.833 -33.167 50.5 -48.5s41.5 -28.666 65.5 -39.999
l-69 -170c-40.667 16.667 -78.5 37.667 -113.5 63s-65.5 53.833 -91.5 85.5s-46.5 65.667 -61.5 102s-22.5 74.5 -22.5 114.5v356c0 56 14.333 110.5 43 163.5s66.667 100 114 141s102 73.667 164 98s126.333 36.166 193 35.499c41.333 -0.666992 81.5 -5.5 120.5 -14.5
s76 -21.667 111 -38s67.5 -35.833 97.5 -58.5s56.667 -47.334 80 -74.001c24 27.333 51.333 52.5 82 75.5s63.5 42.667 98.5 59s71.833 29 110.5 38s78 13.167 118 12.5c66.667 -0.666992 130.334 -12.5 191.001 -35.5s114 -53.5 160 -91.5s82.5 -82.167 109.5 -132.5
s40.5 -102.833 40.5 -157.5v-322c0 -54 -13.667 -105.333 -41 -154s-63.5 -91.667 -108.5 -129s-96.167 -67.5 -153.5 -90.5s-116 -35.833 -176 -38.5z" />
    <glyph glyph-name="uni1001" unicode="&#x1001;" horiz-adv-x="1239" 
d="M568 154c6.66699 24 6.99902 46.832 0.999023 68.499s-16.167 41.5 -30.5 59.5s-31.833 33.5 -52.5 46.5s-42.167 22.333 -64.5 28s-44.5 7.33398 -66.5 5.00098s-41.667 -9.83301 -59 -22.5c7.33301 -21.333 19.5 -42.333 36.5 -63s37.5 -39.5 61.5 -56.5
s50.833 -31.5 80.5 -43.5s60.834 -19.333 93.501 -22zM112.999 266.999c-8 30 2.66992 86.333 32.0029 169c34.667 40 73.667 68 117 84s87.333 22.5 132 19.5s88.334 -14.333 131.001 -34s80.5 -45.5 113.5 -77.5s59.667 -68.833 80 -110.5s30.166 -85.834 29.499 -132.501
c24.667 11.333 47 25 67 41s37.167 32.833 51.5 50.5s25.5 35.667 33.5 54s12 35.833 12 52.5v325c0 28.667 -8.16699 57.167 -24.5 85.5s-38.5 53.5 -66.5 75.5s-60.667 39.833 -98 53.5s-77 20.5 -119 20.5c-38.667 0.666992 -75.834 -5.83301 -111.501 -19.5
s-67.5 -31.334 -95.5 -53.001s-51.5 -46.167 -70.5 -73.5s-31.167 -54.333 -36.5 -81l-175 98c17.333 43.333 42.5 84.166 75.5 122.499s71.167 71.666 114.5 99.999s90.833 50.666 142.5 66.999s104.5 24.166 158.5 23.499c68 -0.666992 132.5 -12.5 193.5 -35.5
s114.5 -53.667 160.5 -92s82.5 -82.666 109.5 -132.999s40.5 -103.166 40.5 -158.499v-325c0 -36 -6.33301 -71 -19 -105s-30.167 -66 -52.5 -96s-48.666 -57.667 -78.999 -83s-63.333 -47.166 -99 -65.499s-73.334 -33.166 -113.001 -44.499s-79.5 -18 -119.5 -20
c-53.333 -2.66699 -106.833 2.83301 -160.5 16.5s-103.834 33.834 -150.501 60.501s-87.834 58.834 -123.501 96.501s-62.5 79.167 -80.5 124.5z" />
    <glyph glyph-name="uni1002" unicode="&#x1002;" horiz-adv-x="1278" 
d="M104 388l-0.00195312 316.004c0 41.333 7.66699 81 23 119s36.333 73.333 63 106s57.834 62.167 93.501 88.5s74.334 48.666 116.001 66.999s85 31.833 130 40.5s89.833 12 134.5 10c62.667 -3.33301 124 -17 184 -41s113.5 -55.5 160.5 -94.5s85 -83.833 114 -134.5
s43.5 -104.334 43.5 -161.001v-338c0 -40.667 -7.16699 -80 -21.5 -118s-34.333 -73.667 -60 -107s-56.334 -63.666 -92.001 -90.999s-74.5 -50.333 -116.5 -69l-75 179c24 11.333 45.667 24.666 65 39.999s36 32 50 50s24.833 36.833 32.5 56.5s11.5 39.5 11.5 59.5v338
c0 24.667 -8 50.667 -24 78s-37.667 52.666 -65 75.999s-59.833 43 -97.5 59s-77.834 25 -120.501 27c-46 2.66699 -89.667 -3.33301 -131 -18s-77.666 -33.834 -108.999 -57.501s-56.333 -50.167 -75 -79.5s-28 -57.666 -28 -84.999v-316c0 -20.667 4.33301 -42 13 -64
s21 -43.333 37 -64s35 -40 57 -58s46 -33.333 72 -46l-70 -180c-45.333 19.333 -87.166 43.666 -125.499 72.999s-71.5 62 -99.5 98s-50 74.5 -66 115.5s-24 82.833 -24 125.5z" />
    <glyph glyph-name="uni1003" unicode="&#x1003;" horiz-adv-x="2083" 
d="M1397 945l27.998 187.997c16.667 0.666992 33.667 0.666992 51 0c60.667 -3.33301 120 -16.5 178 -39.5s109.667 -53.333 155 -91s82 -81 110 -130s42 -100.833 42 -155.5v-327c0 -55.333 -13.667 -108.166 -41 -158.499s-64.333 -94.833 -111 -133.5
s-100.5 -69.5 -161.5 -92.5s-125.5 -34.833 -193.5 -35.5c-40 -0.666992 -79.5 3.5 -118.5 12.5s-76.167 21.667 -111.5 38s-68.5 36 -99.5 59s-58.833 48.5 -83.5 76.5c-23.333 -27.333 -50.166 -52.333 -80.499 -75s-63.333 -42.167 -99 -58.5s-73.167 -29 -112.5 -38
s-80 -13.833 -122 -14.5c-44.667 -0.666992 -88.5 4.5 -131.5 15.5s-83.833 26.667 -122.5 47s-74.167 44.333 -106.5 72s-60.166 58 -83.499 91s-41.666 67.833 -54.999 104.5s-20 74 -20 112v71c0 60.667 14.833 116.5 44.5 167.5s72.834 96.167 129.501 135.5l28.5 20
c9.66699 6.66699 18.5 13.667 26.5 21s14.5 15 19.5 23s7.5 16.333 7.5 25c0 12 -5.16699 24.833 -15.5 38.5s-24.666 24.834 -42.999 33.501s-40 13 -65 13s-51.833 -7.33301 -80.5 -22l-56 169c30 10.667 62 17.834 96 21.501s67.667 3.5 101 -0.5s65.333 -12 96 -24
s57.667 -28.333 81 -49s42 -46 56 -76s21 -64.667 21 -104c0 -26 -3.83301 -49.667 -11.5 -71s-17.834 -41 -30.501 -59s-27.167 -34.667 -43.5 -50s-33.166 -30 -50.499 -44c-31.333 -24 -57.833 -50.833 -79.5 -80.5s-32.5 -58.834 -32.5 -87.501v-71
c0 -28.667 8.5 -58.334 25.5 -89.001s40 -58.667 69 -84s62.833 -46 101.5 -62s79.334 -23.667 122.001 -23c42 0.666992 81.667 7.83398 119 21.501s70.166 31.5 98.499 53.5s50.833 47 67.5 75s25 56.667 25 86v365c0 16.667 -4 34.334 -12 53.001
s-19.333 36.834 -34 54.501s-32.167 34.5 -52.5 50.5s-42.833 29.667 -67.5 41l71 172c40.667 -17.333 79 -38.833 115 -64.5s67.167 -54.5 93.5 -86.5s47.166 -66.667 62.499 -104s23 -76 23 -116v-339v-4c0 -28.667 8.66699 -58.334 26 -89.001s40.5 -58.667 69.5 -84
s62.667 -46 101 -62s78.833 -23.667 121.5 -23c42 0.666992 81.667 7.83398 119 21.501s70.166 31.5 98.499 53.5s50.833 47 67.5 75s25 56.667 25 86v327c0 24 -7.66699 49.167 -23 75.5s-36.333 50.666 -63 72.999s-58 41.333 -94 57s-75 24.5 -117 26.5
c-24.667 1.33301 -47.334 0 -68.001 -4z" />
    <glyph glyph-name="uni1004" unicode="&#x1004;" horiz-adv-x="1235" 
d="M1100 268c-18 -44.667 -45 -85.8291 -81 -123.496s-77.333 -70.167 -124 -97.5s-96.834 -47.833 -150.501 -61.5s-107.167 -19.167 -160.5 -16.5c-41.333 2.66699 -81.833 9.5 -121.5 20.5s-77.167 25.667 -112.5 44s-68.333 40.166 -99 65.499s-57.334 53 -80.001 83
s-40.167 62.167 -52.5 96.5s-18.5 69.833 -18.5 106.5v326c0 56 13.667 108.833 41 158.5s63.833 94 109.5 133s99.334 70 161.001 93s125.834 34.5 192.501 34.5c54.667 2 108 -5.33301 160 -22s99.833 -39.334 143.5 -68.001s81.834 -62 114.501 -100s58 -79 76 -123
l-176 -98c-6 27.333 -18.5 54.666 -37.5 81.999s-42.5 51.833 -70.5 73.5s-59.667 39.334 -95 53.001s-73 19.834 -113 18.501c-40.667 0 -79.834 -6.83301 -117.501 -20.5s-70.5 -31.334 -98.5 -53.001s-50.167 -46.834 -66.5 -75.501s-24.5 -57.334 -24.5 -86.001v-326
c0 -23.333 7.5 -48.333 22.5 -75s35.833 -51.167 62.5 -73.5s57.667 -41 93 -56s74.333 -23.833 117 -26.5c42 -1.33301 82.167 4 120.5 16s72.5 28.667 102.5 50s54.667 45.333 74 72s30.333 53 33 79z" />
    <glyph glyph-name="uni1005" unicode="&#x1005;" horiz-adv-x="1257" 
d="M428 211c28.667 -19.333 60.835 -34.333 96.502 -45s73.167 -14.667 112.5 -12c40.667 1.33301 79.167 9.83301 115.5 25.5s67.5 34.667 93.5 57s46.833 46.5 62.5 72.5s23.5 51.333 23.5 76v324c0 28.667 -8.16699 57 -24.5 85s-38.833 53.167 -67.5 75.5
s-61.834 40.333 -99.501 54s-76.834 20.5 -117.501 20.5c-46.667 0 -90.5 -9.16699 -131.5 -27.5s-76.5 -41.833 -106.5 -70.5c44 -18 80.667 -42.667 110 -74s52.166 -67.166 68.499 -107.499s25.833 -82.666 28.5 -126.999s-1.5 -87.333 -12.5 -129
s-29.167 -79.834 -54.5 -114.501s-57.666 -62.334 -96.999 -83.001zM307.001 688l-0.000976562 -302.998c0 -12 1.33301 -23.667 4 -35c22 5.33301 41.167 16.666 57.5 33.999s28.666 37.166 36.999 59.499s12.833 46.5 13.5 72.5s-3.16602 51 -11.499 75
s-20.666 44.5 -36.999 61.5s-37.5 28.833 -63.5 35.5zM109 688.002c0 36.667 6.33301 73.498 19 110.498s30.667 71.833 54 104.5s51.333 62.667 84 90s68.167 51.333 106.5 72s79 36.334 122 47.001s87.167 15.334 132.5 14.001c66.667 0 130.334 -11.5 191.001 -34.5
s114 -53.667 160 -92s82.5 -82.666 109.5 -132.999s40.5 -102.833 40.5 -157.5v-324c0 -56 -13.5 -108.167 -40.5 -156.5s-63.167 -91.333 -108.5 -129s-97 -68.167 -155 -91.5s-117 -36.333 -177 -39c-42 -1.33301 -84.833 2.16699 -128.5 10.5s-85.334 21.333 -125.001 39
s-77 39.167 -112 64.5s-65 53.666 -90 84.999s-45 65.5 -60 102.5s-22.5 75.167 -22.5 114.5v303z" />
    <glyph glyph-name="uni1006" unicode="&#x1006;" horiz-adv-x="2050" 
d="M569 155c6.66699 24 6.99805 46.999 0.998047 68.999s-16.167 41.833 -30.5 59.5s-31.833 33 -52.5 46s-42.167 22.333 -64.5 28s-44.5 7.33398 -66.5 5.00098s-41.667 -9.83301 -59 -22.5c8 -21.333 20.5 -42.333 37.5 -63s37.333 -39.5 61 -56.5
s50.334 -31.333 80.001 -43s60.834 -19.167 93.501 -22.5zM1111 371.999c2.66699 -26 13.4961 -52.333 32.4961 -79s43.333 -50.667 73 -72s63.834 -38.333 102.501 -51s79 -18 121 -16c41.333 2 80 10.833 116 26.5s67.167 34.667 93.5 57s47.166 46.666 62.499 72.999
s23 51.5 23 75.5v324c0 28.667 -8.16699 57 -24.5 85s-38.666 53.167 -66.999 75.5s-61.166 40.333 -98.499 54s-77 20.834 -119 21.501c-40 0 -78.333 -7.33301 -115 -22s-69.167 -33.5 -97.5 -56.5s-51.666 -48.833 -69.999 -77.5s-29.166 -56.667 -32.499 -84v-322v-12z
M912.994 687.999l-0.000976562 12.998c0 4 0.333008 8.33301 1 13c-1.33301 28.667 -10.333 56.667 -27 84s-39 51.833 -67 73.5s-60.5 39.167 -97.5 52.5s-75.833 20.333 -116.5 21c-39.333 0.666992 -76.666 -5.83301 -111.999 -19.5s-67.166 -31.334 -95.499 -53.001
s-52 -46.167 -71 -73.5s-31.167 -54.333 -36.5 -81l-175 97c17.333 43.333 42.5 84.166 75.5 122.499s71.333 71.833 115 100.5s91.167 51 142.5 67s104.333 23.667 159 23c41.333 -0.666992 81.666 -5.5 120.999 -14.5s76.5 -21.5 111.5 -37.5s67.5 -35.333 97.5 -58
s56.667 -47.334 80 -74.001c24.667 27.333 52.334 52.5 83.001 75.5s63.667 42.667 99 59s72.333 28.833 111 37.5s78 12.667 118 12c67.333 -0.666992 131.5 -12.5 192.5 -35.5s114.5 -53.667 160.5 -92s82.667 -82.5 110 -132.5s41 -102.667 41 -158v-324
c0 -54.667 -13.833 -106.5 -41.5 -155.5s-64 -92.167 -109 -129.5s-96.5 -67.666 -154.5 -90.999s-117 -36.333 -177 -39c-40.667 -2 -81.5 0.833008 -122.5 8.5s-80.5 19.334 -118.5 35.001s-74 34.834 -108 57.501s-64 48.334 -90 77.001
c-23.333 -25.333 -49.5 -48.5 -78.5 -69.5s-60 -39.333 -93 -55s-67.333 -28 -103 -37s-71.5 -14.5 -107.5 -16.5c-53.333 -2.66699 -106.833 2.83301 -160.5 16.5s-103.834 33.834 -150.501 60.501s-88 58.834 -124 96.501s-63 79.167 -81 124.5
c-8 30.667 2.66699 86.667 32 168c34.667 40 73.667 68.167 117 84.5s87.333 23 132 20s88.334 -14.5 131.001 -34.5s80.5 -46 113.5 -78s59.5 -68.833 79.5 -110.5s30 -85.834 30 -132.501c22.667 10.667 43.667 23.334 63 38.001s36.166 30.167 50.499 46.5
s25.833 33.166 34.5 50.499s14 34 16 50v15v302z" />
    <glyph glyph-name="uni1007" unicode="&#x1007;" horiz-adv-x="1300" 
d="M647 944c-6.66699 -23.333 -7 -45.835 -1 -67.502s16.167 -41.334 30.5 -59.001s31.833 -33 52.5 -46s42.167 -22.667 64.5 -29s44.5 -8.16602 66.5 -5.49902s42 10.334 60 23.001c-8.66699 20.667 -21.5 41.5 -38.5 62.5s-37.5 40 -61.5 57s-50.667 31.333 -80 43
s-60.333 18.834 -93 21.501zM1102 783.998c-4 -31.333 -15.002 -71.3281 -33.002 -119.995c-34 -41.333 -72.833 -69.833 -116.5 -85.5s-87.667 -22.167 -132 -19.5s-88 14 -131 34s-81 46 -114 78s-59.333 68.833 -79 110.5s-29.5 85.5 -29.5 131.5
c-24.667 -10.667 -47.167 -23.834 -67.5 -39.501s-37.666 -32.334 -51.999 -50.001s-25.666 -35.834 -33.999 -54.501s-12.5 -36 -12.5 -52v-326c0 -30 8.5 -59 25.5 -87s39.5 -52.833 67.5 -74.5s60.833 -39.334 98.5 -53.001s76.834 -20.5 117.501 -20.5
c38.667 0 75.667 6.5 111 19.5s67 30.333 95 52s51.5 46.167 70.5 73.5s31.5 54.666 37.5 81.999l176 -98c-18 -44 -43.333 -85.167 -76 -123.5s-70.834 -71.5 -114.501 -99.5s-91.5 -50.167 -143.5 -66.5s-104.667 -24.5 -158 -24.5
c-66.667 1.33301 -130.667 13.666 -192 36.999s-115 54.166 -161 92.499s-82.667 82.333 -110 132s-41 102.5 -41 158.5v326c0 53.333 14 104.5 42 153.5s64.667 92.333 110 130s96.666 67.667 153.999 90s116 35.5 176 39.5c42 2 83.833 -0.833008 125.5 -8.5
s82.334 -20 122.001 -37s76.167 -37.5 109.5 -61.5s63 -51 89 -81c28.667 9.33301 56.334 14 83.001 14s53 -3.66699 79 -11s49.833 -18.5 71.5 -33.5s41.5 -32.833 59.5 -53.5l-96 -176c-4 22 -10.833 40.167 -20.5 54.5s-20.334 24.833 -32.001 31.5
s-24 11.334 -37 14.001s-25.5 3.33398 -37.5 2.00098z" />
    <glyph glyph-name="uni1008" unicode="&#x1008;" horiz-adv-x="1649" 
d="M1327 1130v-1702v1702zM1327 1130h194.999v-1834c0 -13.333 -2.66699 -25.833 -8 -37.5s-12.5 -22 -21.5 -31s-19.5 -16.167 -31.5 -21.5s-24.333 -8 -37 -8l-482 154c-8 2.66699 -17.5 7.66699 -28.5 15s-21.667 16.333 -32 27s-19.166 22.5 -26.499 35.5
s-11 26.167 -11 39.5v538h194v-481l289 -98v1702zM427.999 210c29.333 -18.667 61.6641 -33.3301 96.9971 -43.9971s72.333 -15 111 -13c41.333 2 80 10.667 116 26s67.167 34.333 93.5 57s47.166 47.167 62.499 73.5s23 51.166 23 74.499v324
c0 28.667 -8.16699 57.167 -24.5 85.5s-38.666 53.666 -66.999 75.999s-61.166 40.333 -98.499 54s-77 20.834 -119 21.501c-46 0 -89.333 -9.33301 -130 -28s-76 -42.667 -106 -72c42.667 -16.667 78.834 -40.834 108.501 -72.501s52.667 -67.5 69 -107.5
s25.833 -82.333 28.5 -127s-1.5 -87.834 -12.5 -129.501s-29.167 -80 -54.5 -115s-57.666 -62.833 -96.999 -83.5zM306.997 688.004l0.00292969 -303.999c0 -11.333 1.33301 -22.333 4 -33c22.667 5.33301 42 16.5 58 33.5s28.167 36.833 36.5 59.5s12.666 47 12.999 73
s-3.33398 50.667 -11.001 74s-19.834 43.666 -36.501 60.999s-38 29.333 -64 36zM109 688.005c0 37.333 6.50488 74.3301 19.5049 110.997s31.167 71.334 54.5 104.001s51.166 62.834 83.499 90.501s67.666 51.5 105.999 71.5s79 35.5 122 46.5s86.833 16.167 131.5 15.5
c67.333 -0.666992 131.333 -12.5 192 -35.5s114 -53.667 160 -92s82.667 -82.666 110 -132.999s41 -103.166 41 -158.499v-324c0 -54.667 -13.833 -106.334 -41.5 -155.001s-64 -91.667 -109 -129s-96.5 -67.666 -154.5 -90.999s-117 -36.333 -177 -39
c-42.667 -2 -85.667 1.16699 -129 9.5s-84.833 21.333 -124.5 39s-76.834 39.167 -111.501 64.5s-64.834 53.666 -90.501 84.999s-45.834 65.333 -60.501 102s-22 74.667 -22 114v304z" />
    <glyph glyph-name="uni1009" unicode="&#x1009;" horiz-adv-x="1219" 
d="M340 27l0.000976562 -631.008h1395v162h194v-260c0 -14 -2.66699 -26.833 -8 -38.5s-12.5 -21.834 -21.5 -30.501s-19.333 -15.834 -31 -21.501s-24.167 -8.5 -37.5 -8.5h-1589c-14 0 -26.833 2.83301 -38.5 8.5s-21.834 12.834 -30.501 21.501
s-15.834 18.834 -21.501 30.501s-8.5 24.5 -8.5 38.5v886c-18.667 27.333 -34.334 54.666 -47.001 81.999l178 103c4.66699 -26 16.5 -52.333 35.5 -79s43.167 -50.667 72.5 -72s63.5 -38 102.5 -50s79.5 -17.333 121.5 -16c41.333 2.66699 80 11.834 116 27.501
s67.333 34.334 94 56.001s47.834 45.834 63.501 72.501s23.5 52.334 23.5 77.001v328c0 28.667 -8.16699 57 -24.5 85s-38.833 52.833 -67.5 74.5s-61.834 39.334 -99.501 53.001s-77.5 21.167 -119.5 22.5c-40 0 -77.667 -6.83301 -113 -20.5s-67 -31.334 -95 -53.001
s-51.5 -46.167 -70.5 -73.5s-31.5 -54.666 -37.5 -81.999l-176 98c18 44 43.333 85.333 76 124s70.834 72.334 114.501 101.001s91.5 51.334 143.5 68.001s105.333 25 160 25c68 -1.33301 132.833 -13.666 194.5 -36.999s115.667 -54.5 162 -93.5
s83.166 -83.667 110.499 -134s41 -102.833 41 -157.5v-328c0 -36.667 -6.16699 -72.167 -18.5 -106.5s-30.166 -66.833 -53.499 -97.5s-50.333 -58.667 -81 -84s-63.667 -47.166 -99 -65.499s-72.833 -33.333 -112.5 -45s-80.167 -18.167 -121.5 -19.5
c-47.333 -2.66699 -94.666 1.5 -141.999 12.5s-92 26.833 -134 47.5z" />
    <glyph glyph-name="uni100A" unicode="&#x100a;" horiz-adv-x="2050" 
d="M275 735l-177.002 102.005c18 45.333 45.167 87 81.5 125s78 70.333 125 97s97.5 47 151.5 61s107.667 19.667 161 17c60.667 -3.33301 120.167 -16.5 178.5 -39.5s110.333 -53.333 156 -91s82.5 -81.167 110.5 -130.5s42 -101.333 42 -156v-327
c4 -28 15.167 -56.167 33.5 -84.5s41.833 -54 70.5 -77s61.334 -41.667 98.001 -56s75 -21.5 115 -21.5c42 0.666992 81.833 7.83398 119.5 21.501s70.667 31.667 99 54s50.833 47.666 67.5 75.999s25 57.166 25 86.499v327c0 24 -7.66699 49.333 -23 76
s-36.333 51.167 -63 73.5s-58 41.333 -94 57s-75 24.5 -117 26.5c-11.333 1.33301 -22.5 1.5 -33.5 0.5s-22.167 -2.16699 -33.5 -3.5l17 118.5c4.66699 31 8.33398 54.167 11.001 69.5c16 1.33301 32.667 1.33301 50 0c60.667 -3.33301 120 -16.5 178 -39.5
s109.667 -53.5 155 -91.5s82 -81.667 110 -131s42 -101.333 42 -156v-327c0 -56 -13.667 -109.333 -41 -160s-64.333 -95.167 -111 -133.5s-100.667 -69.166 -162 -92.499s-126 -35.333 -194 -36c-40 -0.666992 -79.5 3.5 -118.5 12.5s-76.167 21.667 -111.5 38
s-68.5 36 -99.5 59s-58.833 48.5 -83.5 76.5c-23.333 -27.333 -50.166 -52.333 -80.499 -75s-63.333 -42.167 -99 -58.5s-73.167 -29 -112.5 -38s-80 -13.833 -122 -14.5c-46 -0.666992 -90.667 4.66602 -134 15.999s-84.333 27.333 -123 48v-637h1396v161h195v-259
c0 -13.333 -2.66699 -25.833 -8 -37.5s-12.333 -22.167 -21 -31.5s-19 -16.666 -31 -21.999s-24.333 -8 -37 -8h-1592c-13.333 0 -25.833 2.66699 -37.5 8s-22 12.666 -31 21.999s-16.167 19.833 -21.5 31.5s-8 24.167 -8 37.5v908c-8.66699 12.667 -16.5 25.667 -23.5 39
s-13.167 26.666 -18.5 39.999l176 99c5.33301 -27.333 17.5 -54.833 36.5 -82.5s42.667 -52.5 71 -74.5s60.333 -39.833 96 -53.5s73.167 -20.167 112.5 -19.5c41.333 0.666992 80.5 7.66699 117.5 21s69.5 30.666 97.5 51.999s50.667 45.666 68 72.999
s26.666 55.333 27.999 84v16.5v39.5v54v61v164c0 24 -7.66699 49.167 -23 75.5s-36.333 50.666 -63 72.999s-58 41.333 -94 57s-75 24.5 -117 26.5c-42.667 2 -83.167 -3.33301 -121.5 -16s-72.5 -29.5 -102.5 -50.5s-54.5 -44.833 -73.5 -71.5s-30.5 -53 -34.5 -79z" />
    <glyph glyph-name="uni100B" unicode="&#x100b;" horiz-adv-x="1198" 
d="M1186 -605l0.00878906 -194.998h-232c-13.333 0 -25.833 2.66699 -37.5 8s-21.834 12.5 -30.501 21.5s-15.667 19.333 -21 31s-8 23.834 -8 36.501v140c-103.333 -32 -212.5 -42.667 -327.5 -32s-236.167 40 -363.5 88c-6.66699 2.66699 -13.667 7.66699 -21 15
s-14.166 15.5 -20.499 24.5s-11.5 18.167 -15.5 27.5s-6 17.666 -6 24.999v289c0 20 3.5 37.5 10.5 52.5s16.5 26.667 28.5 35s26.167 13 42.5 14s34.166 -2.5 53.499 -10.5c58.667 -24 114.667 -42.333 168 -55s104.833 -20 154.5 -22s98.167 1.33301 145.5 10
s94.666 22.334 141.999 41.001v85c-41.333 -18.667 -84.333 -32.667 -129 -42s-89.334 -13 -134.001 -11c-60.667 2.66699 -120 15.667 -178 39s-109.667 53.833 -155 91.5s-81.833 81.167 -109.5 130.5s-41.5 101.333 -41.5 156v326c0 55.333 13.667 108.166 41 158.499
s64.166 94.833 110.499 133.5s100 69.5 161 92.5s125.5 35.167 193.5 36.5c54.667 0.666992 107.834 -7.16602 159.501 -23.499s99.167 -38.833 142.5 -67.5s81.666 -62.334 114.999 -101.001s58.666 -80 75.999 -124l-176 -97c-5.33301 26.667 -17.5 53.667 -36.5 81
s-42.667 52 -71 74s-60.333 39.833 -96 53.5s-72.834 20.167 -111.501 19.5c-42 -0.666992 -81.833 -7.83398 -119.5 -21.501s-70.5 -31.5 -98.5 -53.5s-50.333 -47.167 -67 -75.5s-25 -56.833 -25 -85.5v-326c0 -24 7.66699 -49.333 23 -76s36.333 -51.167 63 -73.5
s58 -41.333 94 -57s75 -24.5 117 -26.5s82.167 3.33301 120.5 16s72.5 29.667 102.5 51s54.5 45.166 73.5 71.499s30.167 52.5 33.5 78.5l177 -101c-14.667 -35.333 -33.667 -67.666 -57 -96.999v-300c0 -6 -2 -13.667 -6 -23s-8.83301 -18.5 -14.5 -27.5
s-11.834 -17 -18.501 -24s-12.667 -11.833 -18 -14.5c-114.667 -53.333 -228 -84 -340 -92s-228.333 5.66699 -349 41v-79c122.667 -41.333 234.167 -59.833 334.5 -55.5s192.166 28.833 275.499 73.5c20 10.667 38.667 16.167 56 16.5s32.666 -3.5 45.999 -11.5
s23.833 -19.833 31.5 -35.5s11.5 -34.834 11.5 -57.501v-190h131z" />
    <glyph glyph-name="uni100C" unicode="&#x100c;" horiz-adv-x="1198" 
d="M924 371l176.003 -102c-7.33301 -18 -16.333 -35.667 -27 -53s-22.667 -33.666 -36 -48.999v-871c0 -13.333 -2.66699 -25.833 -8 -37.5s-12.5 -22 -21.5 -31s-19.333 -16 -31 -21s-23.834 -7.5 -36.501 -7.5h-735c-13.333 0 -25.833 2.5 -37.5 7.5s-22 12 -31 21
s-16 19.333 -21 31s-7.5 24.167 -7.5 37.5v171c0 14 1 33.333 3 58s9 50.167 21 76.5s30.833 51 56.5 74s61.834 39.5 108.501 49.5c40.667 8.66699 80.167 8.5 118.5 -0.5s74 -22.333 107 -40s62.667 -37.167 89 -58.5s47.5 -40 63.5 -56l-140 -139
c-6 6 -15.833 14.667 -29.5 26s-28.834 22.5 -45.501 33.5s-34.167 21 -52.5 30s-35 14 -50 15s-27.667 -2.83301 -38 -11.5s-16.166 -25 -17.499 -49v-81h541v628c-40.667 -18.667 -83.167 -32.5 -127.5 -41.5s-88.5 -12.5 -132.5 -10.5c-40.667 2 -80.667 8.66699 -120 20
s-77 26.333 -113 45s-69.333 40.667 -100 66s-57.167 53 -79.5 83s-39.833 62.167 -52.5 96.5s-19 69.5 -19 105.5v326c0 55.333 13.667 108.333 41 159s64.166 95.167 110.499 133.5s100 69.166 161 92.499s125.5 35.333 193.5 36
c54.667 0.666992 107.834 -7.16602 159.501 -23.499s99.167 -38.833 142.5 -67.5s81.666 -62.167 114.999 -100.5s58.666 -79.5 75.999 -123.5l-176 -98c-5.33301 26.667 -17.5 53.667 -36.5 81s-42.667 52 -71 74s-60.333 39.833 -96 53.5s-72.834 20.167 -111.501 19.5
c-42 -0.666992 -81.833 -7.83398 -119.5 -21.501s-70.5 -31.5 -98.5 -53.5s-50.333 -47.167 -67 -75.5s-25 -56.833 -25 -85.5v-326c0 -24 7.66699 -49.167 23 -75.5s36.333 -50.666 63 -72.999s58 -41.333 94 -57s74.667 -24.5 116 -26.5c42 -2 82.167 3.33301 120.5 16
s72.5 29.667 102.5 51s54.5 45.166 73.5 71.499s30.5 52.5 34.5 78.5z" />
    <glyph glyph-name="uni100D" unicode="&#x100d;" horiz-adv-x="1198" 
d="M1178 -605l0.00878906 -195.007h-231c-13.333 0 -25.833 2.66699 -37.5 8s-22 12.5 -31 21.5s-16.167 19.333 -21.5 31s-8 23.834 -8 36.501v432c-51.333 -16 -102 -26.667 -152 -32s-101.333 -5.66602 -154 -0.999023s-107.167 14.334 -163.5 29.001
s-115.833 34 -178.5 58c-6.66699 2.66699 -13.834 7.5 -21.501 14.5s-14.667 15 -21 24s-11.5 18.333 -15.5 28s-6 18.167 -6 25.5v310c-18.667 26 -33.334 53 -44.001 81l176 101c3.33301 -26 14.5 -52.167 33.5 -78.5s43.5 -50.166 73.5 -71.499s64.333 -38.333 103 -51
s79 -18 121 -16c41.333 2 80 10.833 116 26.5s67.333 34.667 94 57s47.667 46.833 63 73.5s23 52 23 76v326c0 28.667 -8.33301 57.167 -25 85.5s-39 53.5 -67 75.5s-60.833 39.833 -98.5 53.5s-77.5 20.834 -119.5 21.501
c-39.333 0.666992 -76.666 -5.83301 -111.999 -19.5s-67.166 -31.5 -95.499 -53.5s-52 -46.667 -71 -74s-31.167 -54.333 -36.5 -81l-176 97c17.333 44 42.666 85.333 75.999 124s71.666 72.334 114.999 101.001s90.833 51.167 142.5 67.5s104.834 24.166 159.501 23.499
c68 -1.33301 132.667 -13.5 194 -36.5s115.166 -53.833 161.499 -92.5s83.166 -83.167 110.499 -133.5s41 -103.166 41 -158.499v-326c0 -36.667 -6.33301 -72 -19 -106s-30.334 -66.167 -53.001 -96.5s-49.334 -58.166 -80.001 -83.499s-63.834 -47.333 -99.501 -66
s-73.334 -33.667 -113.001 -45s-79.5 -18 -119.5 -20c-47.333 -2 -94.5 2 -141.5 12s-92.167 25.667 -135.5 47v-81c62 -20.667 118.667 -35.334 170 -44.001s99.5 -12 144.5 -10s88.167 9.33301 129.5 22s82.666 30 123.999 52c20 10.667 38.667 16.334 56 17.001
s32.666 -3 45.999 -11s23.833 -20 31.5 -36s11.5 -35 11.5 -57v-482h131z" />
    <glyph glyph-name="uni100E" unicode="&#x100e;" horiz-adv-x="1243" 
d="M618 -35c-44.667 0 -88.501 5.8291 -131.501 17.4961s-84 27.334 -123 47.001s-74.5 43.167 -106.5 70.5s-59.667 57.833 -83 91.5s-41.833 68.5 -55.5 104.5s-20.5 73.333 -20.5 112v71c0 60 15 115.667 45 167s73 96.666 129 135.999c10 7.33301 19.667 14 29 20
s18.166 12.833 26.499 20.5s14.833 15.5 19.5 23.5s7 16 7 24c0 12.667 -5 25.834 -15 39.501s-24.333 24.834 -43 33.501s-40.167 12.667 -64.5 12s-50.833 -7.66699 -79.5 -21l-58 170c30 9.33301 62.167 16 96.5 20s68.166 4 101.499 0s65.333 -12.167 96 -24.5
s57.667 -28.666 81 -48.999s42.166 -45.5 56.499 -75.5s21.5 -65 21.5 -105c0 -26 -4.16699 -49.5 -12.5 -70.5s-18.666 -40.667 -30.999 -59s-26.666 -35 -42.999 -50s-33.166 -29.5 -50.499 -43.5c-15.333 -12 -29.833 -24.833 -43.5 -38.5s-25.667 -27.667 -36 -42
s-18.166 -29 -23.499 -44s-8 -29.5 -8 -43.5v-71c0 -28.667 8.5 -58.5 25.5 -89.5s39.833 -59 68.5 -84s62.5 -45.833 101.5 -62.5s79.5 -24 121.5 -22c42.667 0 82.5 6.66699 119.5 20s69.833 31.333 98.5 54s51.167 48 67.5 76s24.5 56.333 24.5 85v365
c0 16 -4.16699 33.5 -12.5 52.5s-19.666 37.5 -33.999 55.5s-31.333 34.833 -51 50.5s-41.834 29.5 -66.501 41.5l69 172c41.333 -17.333 79.666 -39 114.999 -65s66.333 -55 93 -87s47.5 -66.5 62.5 -103.5s22.5 -75.833 22.5 -116.5v-338v-4
c0 -48 -7.83301 -92.5 -23.5 -133.5s-37.167 -77.5 -64.5 -109.5s-58 -60.667 -92 -86s-70.167 -46.166 -108.5 -62.499s-76.166 -29 -113.499 -38s-72 -13.5 -104 -13.5z" />
    <glyph glyph-name="uni100F" unicode="&#x100f;" horiz-adv-x="2433" 
d="M297 381c0 -23.333 7.49512 -47.998 22.4951 -73.998s35.667 -50.167 62 -72.5s57.333 -41.333 93 -57s74.167 -24.5 115.5 -26.5l-18.5 -111.5l-11.5 -68.5c-58 4.66699 -114.667 18.834 -170 42.501s-104.5 54 -147.5 91s-77.5 79.167 -103.5 126.5s-39 97.333 -39 150
v323c0 54.667 13.5 107 40.5 157s63.5 94 109.5 132s99.167 68.5 159.5 91.5s124.166 34.833 191.499 35.5c68.667 1.33301 134.167 -10.667 196.5 -36s117.5 -59.333 165.5 -102c12 20 26.833 38.5 44.5 55.5s37.5 31.5 59.5 43.5s45.333 21.333 70 28s49.667 10 75 10
c26 0 51.5 -3.33301 76.5 -10s48.667 -16 71 -28s42.5 -26.5 60.5 -43.5s33 -35.5 45 -55.5c48 42 103.167 75.833 165.5 101.5s127.833 37.834 196.5 36.501c44.667 -0.666992 88.167 -6.16699 130.5 -16.5s82 -24.833 119 -43.5s71 -40.834 102 -66.501
s57.5 -53.834 79.5 -84.501s39.167 -63.334 51.5 -98.001s18.5 -70.334 18.5 -107.001v-323c0 -35.333 -6 -69.666 -18 -102.999s-28.833 -64.666 -50.5 -93.999s-47.167 -56.5 -76.5 -81.5s-61.166 -46.833 -95.499 -65.5s-70.666 -33.834 -108.999 -45.501
s-76.833 -18.834 -115.5 -21.501c-1.33301 7.33301 -3.33301 20.666 -6 39.999l-8 61c-3.33301 24.667 -6.66602 51.334 -9.99902 80.001c40.667 2 78.834 10.833 114.501 26.5s66.834 34.667 93.501 57s47.5 46.5 62.5 72.5s22.5 50.667 22.5 74v323
c0 28.667 -8.16699 56.834 -24.5 84.501s-38.5 52.5 -66.5 74.5s-60.667 39.833 -98 53.5s-76.666 20.834 -117.999 21.501c-42 0.666992 -82 -7 -120 -23s-71.333 -36.5 -100 -61.5s-51.5 -52.667 -68.5 -83s-25.5 -59.5 -25.5 -87.5l-3 -431
c0 -38.667 -7.83301 -75.667 -23.5 -111s-37 -66.666 -64 -93.999s-58.333 -49.166 -94 -65.499s-73.834 -24.5 -114.501 -24.5c-40 0 -77.833 8.16699 -113.5 24.5s-66.667 38.166 -93 65.499s-47.166 58.666 -62.499 93.999s-23 72.333 -23 111l-2 431
c0 28 -8.5 57.167 -25.5 87.5s-39.833 58 -68.5 83s-62.167 45.5 -100.5 61.5s-78.5 23.667 -120.5 23c-41.333 -0.666992 -80.5 -7.83398 -117.5 -21.501s-69.5 -31.5 -97.5 -53.5s-50.167 -46.833 -66.5 -74.5s-24.5 -55.834 -24.5 -84.501v-323zM1212 924.002
c-8.66699 0 -18.667 -2.16699 -30 -6.5s-22 -10.666 -32 -18.999s-18.333 -18.666 -25 -30.999s-10 -26.5 -10 -42.5v-573c0 -16 3.33301 -30.333 10 -43s15 -23.167 25 -31.5s20.667 -14.666 32 -18.999s21.333 -6.5 30 -6.5s18.834 2.16699 30.501 6.5
s22.834 10.666 33.501 18.999s19.5 18.833 26.5 31.5s10.5 27 10.5 43v573c0 16 -3.5 30.167 -10.5 42.5s-15.833 22.666 -26.5 30.999s-21.834 14.666 -33.501 18.999s-21.834 6.5 -30.501 6.5z" />
    <glyph glyph-name="uni1010" unicode="&#x1010;" horiz-adv-x="2056" 
d="M96 690c0 38.667 6.49512 76.334 19.4951 113.001s31.5 71.334 55.5 104.001s52 62.667 84 90s67.5 51.333 106.5 72s80 36.5 123 47.5s86.167 16.5 129.5 16.5c42.667 -2 83.834 -7.33301 123.501 -16s76.834 -21.167 111.501 -37.5s67.334 -35.833 98.001 -58.5
s57.667 -47.667 81 -75c24.667 27.333 52.334 52.666 83.001 75.999s63.834 43.166 99.501 59.499s72.834 29 111.501 38s78 13.5 118 13.5c66.667 -2 130.667 -14.167 192 -36.5s115.333 -53 162 -92s83.667 -83.667 111 -134s41 -102.833 41 -157.5v-326
c0 -54.667 -14 -106.5 -42 -155.5s-64.667 -92.333 -110 -130s-97 -68.167 -155 -91.5s-117 -36.333 -177 -39h-51c-1.33301 15.333 -4.33301 38.333 -9 69l-18 118c20.667 -2.66699 42.667 -3.33398 66 -2.00098c42 1.33301 81.167 9.83301 117.5 25.5
s67.833 34.667 94.5 57s47.5 46.5 62.5 72.5s22.5 51.333 22.5 76v326c0 28.667 -8.16699 57 -24.5 85s-38.5 53.167 -66.5 75.5s-61.167 40.333 -99.5 54s-77.833 20.5 -118.5 20.5c-42.667 1.33301 -83 -6.16699 -121 -22.5s-71.833 -37.166 -101.5 -62.499
s-53 -53.333 -70 -84s-25.5 -60.334 -25.5 -89.001v-303c0 -36.667 -6.5 -72.167 -19.5 -106.5s-30.333 -66.5 -52 -96.5s-47.834 -57.667 -78.501 -83s-64.167 -47.166 -100.5 -65.499s-74.333 -33.333 -114 -45s-79.167 -18.167 -118.5 -19.5
c-44 -2.66699 -87.5 0.5 -130.5 9.5s-84.5 22 -124.5 39s-77.5 38.5 -112.5 64.5s-65.167 54.667 -90.5 86s-45.5 65.5 -60.5 102.5s-22.5 75.167 -22.5 114.5v303zM294.995 690v-303.002c0 -26 8.83301 -53.333 26.5 -82s41.834 -54.167 72.501 -76.5
s65.834 -40.666 105.501 -54.999s82.167 -20.166 127.5 -17.499c40.667 1.33301 79.167 9.83301 115.5 25.5s67.833 34.667 94.5 57s47.5 46.5 62.5 72.5s22.5 51.333 22.5 76v326c0 28.667 -8.33301 57 -25 85s-39.334 52.833 -68.001 74.5s-61.334 39.334 -98.001 53.001
s-76.334 21.167 -119.001 22.5c-42 0 -82.167 -7.83301 -120.5 -23.5s-72.166 -36.167 -101.499 -61.5s-52.5 -53.333 -69.5 -84s-25.5 -60.334 -25.5 -89.001z" />
    <glyph glyph-name="uni1011" unicode="&#x1011;" horiz-adv-x="2060" 
d="M1124 694v-305.003c0 -26 9.33301 -53 28 -81s43 -53.5 73 -76.5s65.167 -41.333 105.5 -55s82.166 -19.834 125.499 -18.501c41.333 2.66699 80 11.834 116 27.501s67.333 34.334 94 56.001s47.5 45.834 62.5 72.501s22.5 51.667 22.5 75v326
c0 28.667 -8.16699 57.334 -24.5 86.001s-38.5 53.834 -66.5 75.501s-60.833 39.334 -98.5 53.001s-77.5 21.167 -119.5 22.5c-42.667 0 -83 -8.16699 -121 -24.5s-71.667 -36.833 -101 -61.5s-52.666 -52.334 -69.999 -83.001s-26 -60.334 -26 -89.001zM100 693.997
c0 56 14.3252 110.662 42.9922 163.995s67.334 100.833 116.001 142.5s104 74.834 166 99.501s126.333 36.334 193 35.001c42.667 0 83.834 -4.5 123.501 -13.5s76.834 -21.667 111.501 -38s67.334 -36.166 98.001 -59.499s57.667 -48.666 81 -75.999
c24.667 28.667 52.334 54.667 83.001 78s63.834 43.166 99.501 59.499s72.834 29 111.501 38s78.667 12.833 120 11.5c66.667 0 130.5 -11.667 191.5 -35s114.667 -54.5 161 -93.5s83.166 -83.333 110.499 -133s41 -102.5 41 -158.5v-326
c0 -35.333 -6.16699 -70.166 -18.5 -104.499s-29.833 -66.833 -52.5 -97.5s-49.334 -58.5 -80.001 -83.5s-63.667 -46.833 -99 -65.5s-72.833 -33.5 -112.5 -44.5s-80.167 -17.833 -121.5 -20.5c-39.333 -1.33301 -79.833 1.83398 -121.5 9.50098s-82 19.667 -121 36
s-75.167 35.833 -108.5 58.5s-63.666 49 -90.999 79c-23.333 -26 -49.333 -50 -78 -72s-59.667 -40.833 -93 -56.5s-68.166 -28 -104.499 -37s-72.166 -14.833 -107.499 -17.5c-44 -1.33301 -87.5 2.5 -130.5 11.5s-84.5 22 -124.5 39s-77.5 38.5 -112.5 64.5
s-65.167 54.333 -90.5 85s-45.5 64.5 -60.5 101.5s-22.5 75.167 -22.5 114.5v305zM298.992 693.992l-0.00195312 -305.003c0 -26 8.83301 -53 26.5 -81s41.834 -53.5 72.501 -76.5s65.834 -41.333 105.501 -55s82.167 -19.834 127.5 -18.501
c40.667 2.66699 79.167 11.834 115.5 27.501s67.833 34.334 94.5 56.001s47.5 45.834 62.5 72.501s22.5 51.667 22.5 75v326c0 28.667 -8.16699 57.334 -24.5 86.001s-38.5 53.834 -66.5 75.501s-60.833 39.334 -98.5 53.001s-77.834 21.167 -120.501 22.5
c-42 0 -82.167 -8.16699 -120.5 -24.5s-72.166 -36.833 -101.499 -61.5s-52.5 -52.334 -69.5 -83.001s-25.5 -60.334 -25.5 -89.001z" />
    <glyph glyph-name="uni1012" unicode="&#x1012;" horiz-adv-x="1223" 
d="M1107 731c-4.66699 -41.333 -19.667 -75.9941 -45 -103.994s-58 -49 -98 -63c44.667 -10.667 78.5 -30 101.5 -58s37.167 -69 42.5 -123c6.66699 -74 1 -137.333 -17 -190s-47.833 -95.834 -89.5 -129.501s-94.667 -58.334 -159 -74.001s-139.833 -23.5 -226.5 -23.5
c-90.667 0 -167.834 6.33301 -231.501 19s-116 31.667 -157 57s-71.833 56.666 -92.5 93.999s-33.334 80.666 -38.001 129.999l176 102c0 -36 5.5 -67.5 16.5 -94.5s29.333 -49.667 55 -68s59.667 -32 102 -41s95.166 -13.5 158.499 -13.5c109.333 0 188.833 16 238.5 48
s68.834 82.333 57.501 151c-3.33301 20 -12.666 36.667 -27.999 50s-34.333 24.166 -57 32.499s-47.5 14.666 -74.5 18.999s-53.667 7.33301 -80 9s-51.166 2.5 -74.499 2.5s-42.666 0.333008 -57.999 1l1 200c16 0.666992 36.333 0.833984 61 0.500977s50.667 0 78 1
s54.666 3 81.999 6s52.333 8 75 15s41.334 16.333 56.001 28s23 27.167 25 46.5c3.33301 35.333 -4 64.833 -22 88.5s-42.333 42.667 -73 57s-65.334 24.5 -104.001 30.5s-77.334 9 -116.001 9c-30.667 0 -62 -1.66699 -94 -5s-61.833 -9.83301 -89.5 -19.5
s-51.667 -22.834 -72 -39.501s-33.833 -38.334 -40.5 -65.001c-6.66699 -25.333 -5.16699 -50 4.5 -74s24.167 -41.333 43.5 -52l-154 -135c-24.667 20.667 -44 44.5 -58 71.5s-23.667 55.667 -29 86s-6.66602 61.833 -3.99902 94.5s8.33398 65.334 17.001 98.001
c12.667 35.333 30.5 67 53.5 95s53.5 51.667 91.5 71s84.167 34 138.5 44s119.166 15 194.499 15c78.667 0 150.667 -6 216 -18s120.833 -33 166.5 -63s80 -70.833 103 -122.5s32.167 -117.167 27.5 -196.5z" />
    <glyph glyph-name="uni1013" unicode="&#x1013;" horiz-adv-x="1237" 
d="M442 203c27.333 -15.333 57.1631 -27.3311 89.4961 -35.998s65.5 -11.667 99.5 -9c27.333 1.33301 52.833 5 76.5 11s45.834 15.333 66.501 28c-4 21.333 -14.167 39.833 -30.5 55.5s-35.833 27.667 -58.5 36s-46.167 13.166 -70.5 14.499
s-48.166 -1.33398 -71.499 -8.00098s-44.166 -17.5 -62.499 -32.5s-31.166 -34.833 -38.499 -59.5zM300.997 692.002l-0.00390625 -304.999c0 -16.667 4 -34.334 12 -53.001c22 32.667 49.333 59.5 82 80.5s67.834 37 105.501 48s76.334 16.5 116.001 16.5
s77.834 -5.83301 114.501 -17.5s70.834 -28.667 102.501 -51s56.834 -50.5 75.501 -84.5c11.333 20 17 40.333 17 61v326c0 28.667 -8.16699 57 -24.5 85s-38.5 53.167 -66.5 75.5s-60.833 40.333 -98.5 54s-77.834 20.5 -120.501 20.5
c-40.667 0 -80.5 -7.83301 -119.5 -23.5s-72.833 -36.167 -101.5 -61.5s-51.5 -53.333 -68.5 -84s-25.5 -59.667 -25.5 -87zM103.993 692.003c0 37.333 6.5 74.332 19.5 110.999s31.167 71.334 54.5 104.001s51 62.667 83 90s67.167 51.333 105.5 72s79 36.5 122 47.5
s87.167 15.5 132.5 13.5c66.667 0 130.334 -11.5 191.001 -34.5s114.167 -53.667 160.5 -92s83.166 -82.666 110.499 -132.999s41 -102.833 41 -157.5v-326c0 -54.667 -14 -106.167 -42 -154.5s-64.5 -91.333 -109.5 -129s-96.5 -68.167 -154.5 -91.5s-117 -36.333 -177 -39
c-42 -1.33301 -84.5 2.16699 -127.5 10.5s-84.333 21.333 -124 39s-77 39.167 -112 64.5s-65.5 53.666 -91.5 84.999s-46.167 65.5 -60.5 102.5s-21.5 74.5 -21.5 112.5v305z" />
    <glyph glyph-name="uni1014" unicode="&#x1014;" horiz-adv-x="1233" 
d="M305 250c4 -24.667 12.167 -43.166 24.5 -55.499s27.333 -20.833 45 -25.5s37.5 -7 59.5 -7h68c-6.66699 34 -15.834 62 -27.501 84s-24.667 38.667 -39 50s-29.333 18.5 -45 21.5s-29.667 2 -42 -3s-22.666 -13.333 -30.999 -25s-12.5 -24.834 -12.5 -39.501z
M678 158.001c39.333 0 73.999 0.672852 103.999 2.00586s55 5.33301 75 12s34.667 17.5 44 32.5s14 36.833 14 65.5c0 1.33301 -8.5 8.16602 -25.5 20.499l-66.5 48.5l-94 66.5l-111 75.5l-296 207c-10 6.66699 -19 14.334 -27 23.001
c-6.66699 5.33301 -14.167 11.666 -22.5 18.999s-15.166 15.333 -20.499 24c-26 35.333 -40.333 70.666 -43 105.999s2.66602 75.666 15.999 120.999c12.667 24.667 27.834 46.5 45.501 65.5s41.167 35 70.5 48s65.5 23.333 108.5 31s95.833 11.5 158.5 11.5
c61.333 0 112.166 -3.83301 152.499 -11.5s74.166 -17.667 101.499 -30s49.833 -27.333 67.5 -45s35.5 -37.5 53.5 -59.5l-119 -153c-9.33301 22.667 -20.5 41.167 -33.5 55.5s-29.667 25.666 -50 33.999s-44.5 14.166 -72.5 17.499s-62 5 -102 5
c-27.333 0 -52.166 0.333008 -74.499 1s-41.666 -0.666016 -57.999 -3.99902s-29 -9.83301 -38 -19.5s-13.5 -23.167 -13.5 -40.5c0 -8.66699 2 -15.667 6 -21s9.83301 -10.333 17.5 -15s16.167 -10.5 25.5 -17.5s21 -15.167 35 -24.5l543 -395
c21.333 -14 37.166 -31.833 47.499 -53.5s16.833 -46.167 19.5 -73.5c5.33301 -68.667 -2.16699 -123.5 -22.5 -164.5s-50 -72.333 -89 -94s-85.833 -36 -140.5 -43s-114 -10.5 -178 -10.5v-770h-197v770c-51.333 0 -100.333 5.83301 -147 17.5s-88 30.167 -124 55.5
s-65.333 56.166 -88 92.499s-34 79.5 -34 129.5c-1.33301 45.333 10.334 83.666 35.001 114.999s56.167 54.5 94.5 69.5s81 21.167 128 18.5s92.333 -16 136 -40s82.5 -58.5 116.5 -103.5s58 -102.167 72 -171.5z" />
    <glyph glyph-name="uni1015" unicode="&#x1015;" horiz-adv-x="1282" 
d="M104 725c0 42 8 83.5 24 124.5s38 79.667 66 116s61 69.166 99 98.499s80.333 53.666 127 72.999l69 -181c-25.333 -12 -49 -27.167 -71 -45.5s-41.167 -37.833 -57.5 -58.5s-29 -41.834 -38 -63.501s-13.5 -42.834 -13.5 -63.501v-317
c0 -27.333 9.66699 -55.666 29 -84.999s44.666 -55.666 75.999 -78.999s67.5 -42.5 108.5 -57.5s84.5 -21.167 130.5 -18.5c42.667 1.33301 82.667 10.166 120 26.499s69.666 36.166 96.999 59.499s49.333 48.666 66 75.999s25 53.333 25 78v337
c0 20.667 -3.83301 41 -11.5 61s-18.667 38.833 -33 56.5s-31 34.334 -50 50.001s-40.833 28.834 -65.5 39.501l76 178c40.667 -17.333 79.167 -39.666 115.5 -66.999s67 -57.666 92 -90.999s44.667 -69.166 59 -107.499s21.5 -78.166 21.5 -119.499v-337
c0 -56 -14.333 -109.667 -43 -161s-66.5 -96.5 -113.5 -135.5s-100.5 -70.333 -160.5 -94s-121.333 -37.167 -184 -40.5c-44 -2.66699 -88.5 0.5 -133.5 9.5s-88.333 22.667 -130 41s-80.667 40.5 -117 66.5s-67.666 55.333 -93.999 88s-47.166 68.167 -62.499 106.5
s-23 78.166 -23 119.499v317z" />
    <glyph glyph-name="uni1016" unicode="&#x1016;" horiz-adv-x="1249" 
d="M963 627v114.001c0 34 -10.5 67 -31.5 99s-49.5 59.667 -85.5 83c-14 -14.667 -23.833 -31.834 -29.5 -51.501s-7.66699 -40 -6 -61s6.5 -42.167 14.5 -63.5s18.667 -40.5 32 -57.5s29 -31.167 47 -42.5s37.667 -18 59 -20zM109 719.001
c0 42 8.00391 83.5049 24.0039 124.505s38 79.5 66 115.5s61.167 68.5 99.5 97.5s80.166 53.167 125.499 72.5l69 -179c-26 -12.667 -49.833 -28 -71.5 -46s-40.5 -37.333 -56.5 -58s-28.333 -42 -37 -64s-13 -43 -13 -63v-315c0 -27.333 9.33301 -55.666 28 -84.999
s43.667 -55.833 75 -79.5s67.666 -42.834 108.999 -57.501s84.666 -20.667 129.999 -18c42.667 2 82.667 11 120 27s69.833 35.667 97.5 59s49.334 48.666 65.001 75.999s23.5 53.333 23.5 78v48c-48.667 2 -93.5 14.667 -134.5 38s-76.333 53.333 -106 90
s-52.5 77.667 -68.5 123s-23.333 91.166 -22 137.499s12.666 90.666 33.999 132.999s54.666 78.833 99.999 109.5l113 41c42 -18.667 80.833 -41.5 116.5 -68.5s66.334 -57.167 92.001 -90.5s45.667 -69 60 -107s21.5 -77 21.5 -117v-337
c0 -56.667 -14.5 -110.334 -43.5 -161.001s-67 -95.334 -114 -134.001s-100.5 -70 -160.5 -94s-121 -37.667 -183 -41c-44.667 -2.66699 -89.334 0.5 -134.001 9.5s-87.834 22.667 -129.501 41s-80.5 40.666 -116.5 66.999s-67.167 55.833 -93.5 88.5
s-47.166 67.834 -62.499 105.501s-23 77.167 -23 118.5v315z" />
    <glyph glyph-name="uni1017" unicode="&#x1017;" horiz-adv-x="1364" 
d="M860 1130c42.667 -17.333 82.335 -39.3369 119.002 -66.0039s68.667 -56.667 96 -90s49.166 -69.166 65.499 -107.499s24.5 -78.833 24.5 -121.5v-337c0 -40 -6.5 -77.667 -19.5 -113s-31 -69.5 -54 -102.5s-51 -62.833 -84 -89.5s-68.833 -49.834 -107.5 -69.501
s-80.167 -35 -124.5 -46s-89.833 -17.167 -136.5 -18.5c-46.667 0 -92.5 5.83301 -137.5 17.5s-87.333 28.167 -127 49.5s-76.167 46.333 -109.5 75s-62.333 60 -87 94s-43.834 70.167 -57.501 108.5s-20.5 76.5 -20.5 114.5v317c0 42.667 7.83301 82.834 23.5 120.501
s36.834 72.834 63.501 105.501s58.167 62.334 94.5 89.001s74.833 48.667 115.5 66l9 4c9.33301 -30 17.666 -58.5 24.999 -85.5s18.166 -51.167 32.499 -72.5s33.833 -38.166 58.5 -50.499s60.334 -18.5 107.001 -18.5c47.333 0 84 5.83301 110 17.5s46.167 28 60.5 49
s25.333 45.167 33 72.5l25.5 88h2zM307.001 427.996c0 -28.667 8.83203 -58.999 26.499 -90.999s41.667 -61 72 -87s65.5 -47.167 105.5 -63.5s82 -24.5 126 -24.5c43.333 0 84.5 7.16699 123.5 21.5s73.167 33 102.5 56s52.5 49.167 69.5 78.5s25.5 59.333 25.5 90v337
c0 18 -3.66699 36.167 -11 54.5s-18.666 36.5 -33.999 54.5c-39.333 -35.333 -83.5 -61.833 -132.5 -79.5s-98.833 -25.834 -149.5 -24.501c-50.667 0 -100.167 8.5 -148.5 25.5s-92.5 43.167 -132.5 78.5c-13.333 -18 -23.833 -36.167 -31.5 -54.5s-11.5 -36.5 -11.5 -54.5
v-317z" />
    <glyph glyph-name="uni1018" unicode="&#x1018;" horiz-adv-x="2021" 
d="M272 371c4.66699 -26 16.5 -52.3301 35.5 -78.9971s43.5 -51 73.5 -73s64.167 -39 102.5 -51s78.5 -16.667 120.5 -14c42.667 1.33301 82 9.83301 118 25.5s67 34.667 93 57s46.833 46.833 62.5 73.5s23.5 51.667 23.5 75v164v170c-1.33301 28.667 -10.5 56.667 -27.5 84
s-39.5 51.5 -67.5 72.5s-60.833 38.333 -98.5 52s-76.167 20.5 -115.5 20.5c-40 0 -77.667 -6.83301 -113 -20.5s-67.333 -31 -96 -52s-52.167 -45.167 -70.5 -72.5s-31.166 -54.666 -38.499 -81.999l-176 96c16.667 45.333 41.667 87 75 125s71.833 71.667 115.5 101
s91.834 52 144.501 68s106.334 23.333 161.001 22c40.667 0 80.834 -4.5 120.501 -13.5s77.334 -21.667 113.001 -38s68.5 -36.166 98.5 -59.499s56.667 -48 80 -74c24 27.333 51.833 52.666 83.5 75.999s65.167 43.166 100.5 59.499s72.5 29 111.5 38
s78.167 12.833 117.5 11.5c68.667 0 133.667 -11.333 195 -34s114.833 -53.834 160.5 -93.501s82.167 -84.667 109.5 -135s41 -102.833 41 -157.5v-328c0 -54.667 -13.667 -106.5 -41 -155.5s-63.833 -92.333 -109.5 -130s-97.5 -68.167 -155.5 -91.5s-117 -36.333 -177 -39
h-49c-4.66699 15.333 -8.66699 38.666 -12 69.999s-8.33301 70.333 -15 117c10.667 -1.33301 21.167 -2.33301 31.5 -3s21.166 -0.333984 32.499 0.999023c42 1.33301 81.167 9.83301 117.5 25.5s67.666 34.667 93.999 57s47.5 46.833 63.5 73.5s24 51.667 24 75v328
c0 28.667 -8.33301 57 -25 85s-39 53.167 -67 75.5s-60.667 40.666 -98 54.999s-78 21.5 -122 21.5c-40.667 0 -79.167 -7.5 -115.5 -22.5s-68.833 -33.667 -97.5 -56s-51.834 -47.5 -69.501 -75.5s-28.5 -55.667 -32.5 -83v-328c0 -54.667 -14 -106.5 -42 -155.5
s-64.833 -92.333 -110.5 -130s-97.834 -68.167 -156.501 -91.5s-118.334 -36.333 -179.001 -39c-52.667 -2.66699 -106 2.83301 -160 16.5s-104.667 34.167 -152 61.5s-89 59.833 -125 97.5s-63 78.834 -81 123.501z" />
    <glyph glyph-name="uni1019" unicode="&#x1019;" horiz-adv-x="1264" 
d="M457 203c27.333 -14 56.335 -24.666 87.002 -31.999s63 -10.333 97 -9c27.333 1.33301 53.666 5.66602 78.999 12.999s49 16.666 71 27.999c-7.33301 22 -19.5 40.167 -36.5 54.5s-36.333 25.5 -58 33.5s-44.834 12.333 -69.501 13s-48.667 -2.66602 -72 -9.99902
s-43.5 -18.5 -60.5 -33.5s-29.5 -34.167 -37.5 -57.5zM90.002 719.001c0 42 7.83789 83.499 23.5049 124.499s37.5 79.667 65.5 116s61.5 69.166 100.5 98.499s81.167 53.333 126.5 72l69 -180c-26 -12 -49.833 -26.833 -71.5 -44.5s-40.334 -37.167 -56.001 -58.5
s-28 -42.833 -37 -64.5s-13.5 -42.834 -13.5 -63.501v-318c0 -26 8.33301 -52.333 25 -79c21.333 34 48.166 62.5 80.499 85.5s67.166 40.333 104.499 52s76.166 17.834 116.499 18.501s79.666 -4.5 117.999 -15.5s73.5 -27.667 105.5 -50s58.333 -50.5 79 -84.5
c13.333 26 20 50.333 20 73v340c0 19.333 -3.66699 38.833 -11 58.5s-17.833 38.834 -31.5 57.501s-30.5 35.5 -50.5 50.5s-41.667 27.833 -65 38.5l74 180c42.667 -18.667 81.667 -41.667 117 -69s66 -57.833 92 -91.5s46.167 -69.167 60.5 -106.5
s21.5 -76.666 21.5 -117.999v-340c0 -56 -14.333 -109.167 -43 -159.5s-66.5 -95.333 -113.5 -135s-100.667 -71.5 -161 -95.5s-121.833 -37.333 -184.5 -40c-44.667 -2.66699 -89.5 0.5 -134.5 9.5s-88.333 22.667 -130 41s-80.667 40.833 -117 67.5s-67.833 56 -94.5 88
s-47.5 67.167 -62.5 105.5s-22.5 77.833 -22.5 118.5v318z" />
    <glyph glyph-name="uni101A" unicode="&#x101a;" horiz-adv-x="2044" 
d="M1462 1124c60 -3.33301 118.671 -16.334 176.004 -39.001s108.5 -52.667 153.5 -90s81.167 -80.333 108.5 -129s41 -100 41 -154v-322c0 -55.333 -13.5 -108 -40.5 -158s-63.5 -94 -109.5 -132s-99.333 -68.5 -160 -91.5s-124.334 -34.833 -191.001 -35.5
c-40 -0.666992 -79.333 3.5 -118 12.5s-75.5 21.667 -110.5 38s-67.833 36 -98.5 59s-58 48.167 -82 75.5c-23.333 -27.333 -50 -52.166 -80 -74.499s-62.5 -41.666 -97.5 -57.999s-72 -29 -111 -38s-79.167 -13.833 -120.5 -14.5
c-66.667 -0.666992 -131 11.166 -193 35.499s-116.667 57 -164 98s-85.333 88 -114 141s-43 107.5 -43 163.5v356c0 40 7.5 78.167 22.5 114.5s35.5 70.333 61.5 102s56.5 60 91.5 85s72.833 46.167 113.5 63.5l69 -170c-24 -11.333 -45.833 -24.666 -65.5 -39.999
s-36.5 -31.5 -50.5 -48.5s-25 -34.667 -33 -53s-12 -36.166 -12 -53.499v-356c0 -28 8.5 -57.333 25.5 -88s39.833 -58.5 68.5 -83.5s62 -45.5 100 -61.5s78 -23.667 120 -23c41.333 0.666992 80.666 7.83398 117.999 21.501s70 31.5 98 53.5s50.167 47 66.5 75
s24.5 56.333 24.5 85v377c0 16.667 -4 34.167 -12 52.5s-19.167 36.333 -33.5 54s-31.5 34.334 -51.5 50.001s-42 29.167 -66 40.5l69 170c40.667 -17.333 78.667 -38.833 114 -64.5s66.166 -54.334 92.499 -86.001s47 -65.834 62 -102.501s22.5 -74.667 22.5 -114v-352v-4
c0 -28 8.5 -57.333 25.5 -88s39.833 -58.5 68.5 -83.5s62.167 -45.5 100.5 -61.5s78.5 -23.667 120.5 -23c41.333 0.666992 80.5 7.83398 117.5 21.501s69.5 31.5 97.5 53.5s50.167 47 66.5 75s24.5 56.333 24.5 85v322c0 23.333 -7.5 48.166 -22.5 74.499
s-35.667 50.666 -62 72.999s-57.333 41.166 -93 56.499s-74.167 24 -115.5 26c-22 0.666992 -44 -0.333008 -66 -3c6.66699 46 12 84.5 16 115.5l9 69.5c17.333 1.33301 34.666 1.33301 51.999 0z" />
    <glyph glyph-name="uni101B" unicode="&#x101b;" horiz-adv-x="1243" 
d="M526 170c-4 46.667 -14.502 84 -31.502 112s-37.167 49.833 -60.5 65.5s-47.5 26.5 -72.5 32.5s-47.167 9.66699 -66.5 11c0 -20.667 5.83301 -42.167 17.5 -64.5s27.334 -43.833 47.001 -64.5s43.834 -39.167 72.501 -55.5s60 -28.5 94 -36.5zM294.998 545
c40.667 0 80.8359 -6.83398 120.503 -20.501s76.167 -33.5 109.5 -59.5s62 -56.333 86 -91s41.5 -72.834 52.5 -114.501s14.5 -86.5 10.5 -134.5s-18.333 -97.333 -43 -148v-2h-51c-41.333 1.33301 -81.5 7.83301 -120.5 19.5s-76.5 26.834 -112.5 45.501s-69 40.5 -99 65.5
s-56.333 52.5 -79 82.5s-40.167 62.5 -52.5 97.5s-18.5 70.167 -18.5 105.5v324c0 56 13.667 108.833 41 158.5s63.833 93.667 109.5 132s99.334 69.166 161.001 92.499s125.834 35.666 192.501 36.999c66.667 0 130.5 -11.667 191.5 -35s115 -55.166 162 -95.499
s85.167 -86 114.5 -137s45.333 -104.5 48 -160.5v-1311h133v-195h-229c-14 0 -26.667 2.83301 -38 8.5s-21.833 12.834 -31.5 21.501s-16.834 18.834 -21.501 30.501s-7 24.5 -7 38.5v1392c0 30 -9 60 -27 90s-41.333 57.667 -70 83s-62.334 45.833 -101.001 61.5
s-79.334 23.5 -122.001 23.5c-40.667 0 -79.834 -6.83301 -117.501 -20.5s-70.834 -31.667 -99.501 -54s-51.167 -47.5 -67.5 -75.5s-24.5 -56.333 -24.5 -85v-170z" />
    <glyph glyph-name="uni101C" unicode="&#x101c;" horiz-adv-x="2046" 
d="M1460 1120c60.667 -3.33301 119.999 -16.5039 177.999 -39.5039s109.667 -53.333 155 -91s81.833 -81 109.5 -130s41.5 -100.833 41.5 -155.5v-325c2 -68.667 -11.333 -128.667 -40 -180s-67.167 -93.833 -115.5 -127.5s-103.666 -58.667 -165.999 -75
s-125.833 -24.166 -190.5 -23.499s-128.167 10 -190.5 28s-117.666 44.667 -165.999 80s-86.833 79 -115.5 131s-42 112.333 -40 181l2 286c0 28.667 -8.5 58.334 -25.5 89.001s-40 58.5 -69 83.5s-62.667 45.667 -101 62s-78.833 24.166 -121.5 23.499
c-42 -0.666992 -81.667 -7.83398 -119 -21.501s-70.166 -31.667 -98.499 -54s-50.833 -47.666 -67.5 -75.999s-25 -56.833 -25 -85.5v-325c0 -24 7.66699 -49.167 23 -75.5s36.333 -50.666 63 -72.999s58 -41.333 94 -57s75 -24.5 117 -26.5
c22.667 -1.33301 44.667 -0.333008 66 3c-7.33301 -47.333 -13.166 -86.5 -17.499 -117.5l-9.5 -69.5h-50c-60 3.33301 -119 16.5 -177 39.5s-109.833 53.333 -155.5 91s-82.334 81 -110.001 130s-41.5 100.833 -41.5 155.5v325c0 55.333 13.667 108.166 41 158.499
s64.166 94.833 110.499 133.5s100 69.5 161 92.5s125.167 35.167 192.5 36.5c67.333 0.666992 132.333 -11.333 195 -36s118 -57.667 166 -99s86.333 -88.666 115 -141.999s43 -108.333 43 -165l-2 -288c2 -28 11.833 -56.833 29.5 -86.5s41 -56.5 70 -80.5
s62.167 -43.667 99.5 -59s76.666 -22.666 117.999 -21.999c42 0.666992 81.667 7.83398 119 21.501s70 31.5 98 53.5s50.333 47 67 75s25 56.667 25 86v325c0 24 -7.66699 49.167 -23 75.5s-36.166 50.833 -62.499 73.5s-57.5 41.667 -93.5 57s-74.667 24 -116 26
c-22.667 0.666992 -45 -0.333008 -67 -3c7.33301 47.333 13.166 86.5 17.499 117.5s7.83301 54.167 10.5 69.5c16 1.33301 32.333 1.33301 49 0z" />
    <glyph glyph-name="uni101D" unicode="&#x101d;" horiz-adv-x="1239" 
d="M301 690v-304c0 -26.667 9 -54.167 27 -82.5s42.167 -54 72.5 -77s65.5 -41.333 105.5 -55s82 -19.5 126 -17.5c41.333 2 80 10.833 116 26.5s67.333 34.667 94 57s47.667 46.666 63 72.999s23 51.5 23 75.5v325c0 28.667 -8.33301 57.167 -25 85.5
s-39 53.666 -67 75.999s-60.833 40.333 -98.5 54s-77.5 20.834 -119.5 21.501c-42 0 -82.167 -8 -120.5 -24s-72 -36.667 -101 -62s-52.167 -53.166 -69.5 -83.499s-26 -59.833 -26 -88.5zM103 690c0 56.667 14.3379 111.666 43.0049 164.999s67 100.666 115 141.999
s103.167 74.166 165.5 98.499s127.166 36.166 194.499 35.499s131.5 -12.5 192.5 -35.5s114.667 -53.833 161 -92.5s83.166 -83.167 110.499 -133.5s41 -103.166 41 -158.499v-325c0 -36.667 -6.33301 -72 -19 -106s-30.167 -66.167 -52.5 -96.5
s-48.833 -58.166 -79.5 -83.499s-63.834 -47.166 -99.501 -65.499s-73.334 -33.166 -113.001 -44.499s-79.5 -18 -119.5 -20c-43.333 -2 -86.666 1.33301 -129.999 10s-85 21.667 -125 39s-77.333 38.833 -112 64.5s-64.834 54.167 -90.501 85.5s-45.834 65.333 -60.501 102
s-22 75 -22 115v304z" />
    <glyph glyph-name="uni101E" unicode="&#x101e;" horiz-adv-x="2038" 
d="M98 836c18 43.333 45 84.1641 81 122.497s77.667 70.833 125 97.5s98 47.167 152 61.5s107.333 20.166 160 17.499c60.667 -3.33301 120.334 -16.5 179.001 -39.5s110.834 -53.333 156.501 -91s82.5 -81 110.5 -130s42 -100.833 42 -155.5v-328
c4 -27.333 14.833 -55 32.5 -83s40.834 -53.5 69.501 -76.5s61.167 -41.667 97.5 -56s74.833 -21.5 115.5 -21.5c44 0 84.667 6.83301 122 20.5s70 31.667 98 54s50.333 47.833 67 76.5s25 57.334 25 86.001v328c0 23.333 -8 48.333 -24 75s-37.167 51.167 -63.5 73.5
s-57.666 41 -93.999 56s-75.5 23.833 -117.5 26.5c-11.333 1.33301 -22.166 1.33301 -32.499 0s-21.5 -2.66602 -33.5 -3.99902c8 48 13.833 87.333 17.5 118s7.5 54.334 11.5 71.001h49c39.333 -1.33301 78.833 -7.5 118.5 -18.5s77.667 -26.167 114 -45.5
s69.833 -41.5 100.5 -66.5s57.167 -52.5 79.5 -82.5s39.666 -62.5 51.999 -97.5s18.5 -70.167 18.5 -105.5v-328c0 -56 -13.667 -109.167 -41 -159.5s-64.166 -95 -110.499 -134s-99.833 -70.167 -160.5 -93.5s-125.334 -35 -194.001 -35c-39.333 0 -78.5 4.5 -117.5 13.5
s-76.167 21.667 -111.5 38s-68.833 35.833 -100.5 58.5s-59.5 48.334 -83.5 77.001c-23.333 -27.333 -50 -52.333 -80 -75s-62.833 -42.167 -98.5 -58.5s-73.334 -29 -113.001 -38s-79.834 -14.167 -120.501 -15.5c-56 -1.33301 -110 6.16699 -162 22.5
s-99.833 38.833 -143.5 67.5s-82.167 62.5 -115.5 101.5s-58.333 80.5 -75 124.5l176 98c7.33301 -27.333 20.166 -55 38.499 -83s41.5 -52.5 69.5 -73.5s60.167 -38 96.5 -51s74.166 -19.5 113.499 -19.5s77.833 6.5 115.5 19.5s70.5 30.333 98.5 52s50.5 46.167 67.5 73.5
s26.167 55.333 27.5 84v170v164c0 23.333 -7.83301 48.333 -23.5 75s-36.5 51.167 -62.5 73.5s-57 41 -93 56s-75.333 23.833 -118 26.5c-42 2.66699 -82.5 -2.5 -121.5 -15.5s-73.167 -30 -102.5 -51s-53.5 -45.167 -72.5 -72.5s-30.833 -53.333 -35.5 -78z" />
    <glyph glyph-name="uni101F" unicode="&#x101f;" horiz-adv-x="2050" 
d="M920 410l-0.00585938 304.997c0 16 -3.83301 33.667 -11.5 53s-18.667 37.5 -33 54.5s-31.666 33.333 -51.999 49s-42.166 28.834 -65.499 39.501l69 172c40 -16 76.667 -36 110 -60s63 -51 89 -81c24.667 28.667 52.334 54.667 83.001 78s63.834 43.5 99.501 60.5
s72.834 30 111.501 39s78.667 12.5 120 10.5c66.667 0 130.667 -11.5 192 -34.5s115.333 -54 162 -93s83.667 -83.333 111 -133s41 -102.5 41 -158.5v-326c0 -54.667 -14 -106.5 -42 -155.5s-64.667 -92.333 -110 -130s-97 -68.167 -155 -91.5s-117.667 -36.333 -179 -39
c-16 -1.33301 -32.333 -1.33301 -49 0c-1.33301 16.667 -4.33301 40.334 -9 71.001l-18 118l33.5 -4c11 -1.33301 21.833 -1.33301 32.5 0c42 1.33301 81.167 9.83301 117.5 25.5s67.833 34.667 94.5 57s47.5 46.5 62.5 72.5s22.5 51.333 22.5 76v326
c0 28.667 -8.16699 57.334 -24.5 86.001s-38.833 53.834 -67.5 75.501s-61.834 39.334 -99.501 53.001s-76.834 20.5 -117.501 20.5c-44 1.33301 -85.167 -6.16699 -123.5 -22.5s-71.833 -37.166 -100.5 -62.499s-51.5 -53.333 -68.5 -84s-25.5 -60.334 -25.5 -89.001
l-2 -278c0 -38.667 -6.5 -76 -19.5 -112s-31 -70.5 -54 -103.5s-51 -63.5 -84 -91.5s-68.5 -52.167 -106.5 -72.5s-78.5 -36 -121.5 -47s-87.167 -15.833 -132.5 -14.5c-66.667 0 -130.834 11.667 -192.501 35s-115.667 54.5 -162 93.5s-83.166 83.333 -110.499 133
s-41 102.5 -41 158.5v326c0 39.333 7.5 77.833 22.5 115.5s35.833 72.167 62.5 103.5s57.834 60 93.501 86s73.834 47.667 114.501 65l72 -172c-24.667 -10.667 -47.334 -24.167 -68.001 -40.5s-38.167 -33.333 -52.5 -51s-25.5 -35.834 -33.5 -54.501s-12 -36 -12 -52v-326
c0 -30 8.16699 -59 24.5 -87s38.833 -52.833 67.5 -74.5s61.834 -39.334 99.501 -53.001s76.834 -21.167 117.501 -22.5c44 0 85 8.16699 123 24.5s71.333 37 100 62s51.667 52.667 69 83s26 59.833 26 88.5z" />
    <glyph glyph-name="uni1020" unicode="&#x1020;" horiz-adv-x="1225" 
d="M926 371l176.004 -100.997c-9.33301 -25.333 -23 -50.666 -41 -75.999v-361l-4 -2l-4 -2c-1.33301 -0.666992 -3 -1.33398 -5 -2.00098v-1c-68 -38 -139.167 -66.667 -213.5 -86s-149.833 -29.333 -226.5 -30c-20 0 -43.333 0.666992 -70 2s-53.667 3.33301 -81 6
s-54.166 6.16699 -80.499 10.5s-49.166 9.16602 -68.499 14.499v-158v-195h331h270v61c-1.33301 24 -7 40.333 -17 49s-22.667 12.5 -38 11.5s-32 -5.83301 -50 -14.5s-35.5 -18.5 -52.5 -29.5s-32.333 -22.167 -46 -33.5s-23.5 -20 -29.5 -26l-139 139
c16 16 37 34.667 63 56s55.5 40.666 88.5 57.999s68.833 30.5 107.5 39.5s78.334 9.16699 119.001 0.5c46.667 -10 82.667 -26.333 108 -49s44 -47.167 56 -73.5s19 -51.833 21 -76.5s3 -44 3 -58v-151c0 -13.333 -2.5 -25.833 -7.5 -37.5s-12 -22 -21 -31
s-19.333 -16 -31 -21s-24.167 -7.5 -37.5 -7.5l-376 -3l-420 3c-12.667 0 -24.834 2.5 -36.501 7.5s-22 12 -31 21s-16.167 19.333 -21.5 31s-8 24.167 -8 37.5v306v353c16 49.333 45 66 87 50c22 -12 49.5 -23.667 82.5 -35s68.167 -21.166 105.5 -29.499
s75 -15.166 113 -20.499s72.667 -8 104 -8c50 -0.666992 96.5 3 139.5 11s83.5 19.667 121.5 35v77c-43.333 -21.333 -89 -37.5 -137 -48.5s-96 -15.167 -144 -12.5c-40 2 -79.833 8.5 -119.5 19.5s-77.334 25.833 -113.001 44.5s-68.834 40.667 -99.501 66
s-57.167 53 -79.5 83s-39.833 62 -52.5 96s-19 69.333 -19 106v325c0 55.333 13.667 108.333 41 159s64.166 95.167 110.499 133.5s100 69.166 161 92.499s125.5 35.333 193.5 36c54 0.666992 106.833 -7.16602 158.5 -23.499s99.167 -38.833 142.5 -67.5
s81.666 -62.167 114.999 -100.5s58.666 -79.5 75.999 -123.5l-176 -97c-5.33301 26.667 -17.5 53.667 -36.5 81s-42.5 52 -70.5 74s-59.833 39.833 -95.5 53.5s-72.834 20.167 -111.501 19.5c-42 -0.666992 -81.833 -7.83398 -119.5 -21.501s-70.5 -31.667 -98.5 -54
s-50.333 -47.5 -67 -75.5s-25 -56.667 -25 -86v-325c0 -24 7.66699 -49 23 -75s36.333 -50.333 63 -73s58 -41.667 94 -57s74.667 -24 116 -26c42 -2 82.167 3.16699 120.5 15.5s72.5 29.166 102.5 50.499s54.5 45.166 73.5 71.499s30.167 52.5 33.5 78.5z" />
    <glyph glyph-name="uni1021" unicode="&#x1021;" horiz-adv-x="2032" 
d="M1509 163c32 8.66699 61.166 21.332 87.499 37.999s49.166 35.167 68.499 55.5s34.333 41.333 45 63s16 42.167 16 61.5c-34 2.66699 -63.667 -0.666016 -89 -9.99902s-46.666 -23.5 -63.999 -42.5s-31.166 -42.5 -41.499 -70.5s-17.833 -59.667 -22.5 -95z
M611.999 -35.002c-90 0 -166.669 6.33496 -230.002 19.002s-115.5 31.5 -156.5 56.5s-72 56 -93 93s-33.833 80.167 -38.5 129.5l178 70c2.66699 -30.667 10.667 -57.334 24 -80.001s33 -41.667 59 -57s59.167 -26.833 99.5 -34.5s89.5 -11.5 147.5 -11.5
c109.333 0 188.833 16 238.5 48s68.834 82.333 57.501 151c-3.33301 20 -12.666 36.667 -27.999 50s-34.333 24.166 -57 32.499s-47.5 14.666 -74.5 18.999s-53.667 7.33301 -80 9s-51.166 2.5 -74.499 2.5s-42.333 0.333008 -57 1v199c16 0.666992 36.333 1 61 1
s50.667 0.333008 78 1s54.666 2.5 81.999 5.5s52.333 8 75 15s41.334 16.5 56.001 28.5s23 27.667 25 47c3.33301 35.333 -4 64.833 -22 88.5s-42.333 42.667 -73 57s-65.334 24.5 -104.001 30.5s-77.334 9 -116.001 9c-30.667 0 -62 -1.66699 -94 -5
s-61.833 -9.83301 -89.5 -19.5s-51.667 -22.834 -72 -39.501s-33.833 -38.334 -40.5 -65.001c-4.66699 -18.667 -4.83398 -37.334 -0.500977 -56.001s11.833 -34.667 22.5 -48l-192 -73c-18.667 38.667 -28.167 80.834 -28.5 126.501s5.83398 91.834 18.501 138.501
c7.33301 32.667 22.333 62.834 45 90.501s53.5 51.5 92.5 71.5s86.667 35.5 143 46.5s122.166 16.5 197.499 16.5c58.667 0 111.167 -2.66699 157.5 -8s87.333 -14.166 123 -26.499s65.834 -28.833 90.501 -49.5s44.667 -46.334 60 -77.001c21.333 24 46.333 46 75 66
s60 37.167 94 51.5s70.167 25.333 108.5 33s77.833 11.167 118.5 10.5c67.333 0 131.5 -11.5 192.5 -34.5s114.667 -53.833 161 -92.5s83.166 -83.334 110.499 -134.001s41 -103.667 41 -159v-328c0 -54.667 -13.833 -106.5 -41.5 -155.5s-64 -92.333 -109 -130
s-96.667 -68.167 -155 -91.5s-117.833 -36.333 -178.5 -39c-13.333 4 -22.666 11.333 -27.999 22c-12.667 30.667 -21.167 64.834 -25.5 102.501s-3.66602 76 2.00098 115s16.334 76.667 32.001 113s37.167 68.666 64.5 96.999s61 50.833 101 67.5s87 24.667 141 24v203
c0 28.667 -8.16699 57.167 -24.5 85.5s-38.5 53.833 -66.5 76.5s-60.833 41 -98.5 55s-77.834 21 -120.501 21c-38 0 -74.333 -6.5 -109 -19.5s-65.667 -29.667 -93 -50s-50.666 -43.5 -69.999 -69.5s-32.666 -52 -39.999 -78
c-4.66699 -41.333 -19.667 -76.166 -45 -104.499s-58 -49.5 -98 -63.5c20 0 38.667 -7.33301 56 -22s32.166 -31.834 44.499 -51.501s21.833 -39.667 28.5 -60s9.66699 -36.166 9 -47.499c2.66699 -65.333 -4.83301 -123.666 -22.5 -174.999s-46.5 -94.833 -86.5 -130.5
s-91.333 -63 -154 -82s-137.334 -28.5 -224.001 -28.5z" />
    <glyph glyph-name="uni1022" unicode="&#x1022;" horiz-adv-x="2058" 
d="M1389 158c10.667 -1.33301 21.8359 -2.33203 33.5029 -2.99902s23.5 -1 35.5 -1c42.667 2.66699 82 11.834 118 27.501s67.333 34.667 94 57s47.5 46.5 62.5 72.5s22.5 51.333 22.5 76v328c0 30 -8.16699 59 -24.5 87s-38.833 53.167 -67.5 75.5
s-61.834 40.666 -99.501 54.999s-77.5 21.5 -119.5 21.5c-42.667 0 -83.334 -7.83301 -122.001 -23.5s-72.667 -36.5 -102 -62.5s-52.666 -54.333 -69.999 -85s-26 -60.334 -26 -89.001l-2 -4v-342c0 -39.333 -7.5 -77.833 -22.5 -115.5s-35.833 -72.5 -62.5 -104.5
s-57.667 -61 -93 -87s-73.666 -47.333 -114.999 -64l-73 173c50 22.667 90.5 52.834 121.5 90.501s46.5 73.5 46.5 107.5v367c0 30 -8.33301 59 -25 87s-39.334 53.167 -68.001 75.5s-61.667 40.666 -99 54.999s-77.333 21.5 -120 21.5
c-43.333 0 -84.5 -7.83301 -123.5 -23.5s-72.833 -36.5 -101.5 -62.5s-51.5 -54.333 -68.5 -85s-25.5 -60.334 -25.5 -89.001v-71c0 -27.333 10.5 -56.5 31.5 -87.5s47.167 -58.5 78.5 -82.5c36 -27.333 68 -58.5 96 -93.5s42 -78.5 42 -130.5c0 -60 -15 -109 -45 -147
s-67.667 -66.333 -113 -85s-94.5 -28 -147.5 -28s-102.167 8.33301 -147.5 25l57 170c28.667 -15.333 55.334 -22.666 80.001 -21.999s46.167 5.16699 64.5 13.5s32.666 19.666 42.999 33.999s15.5 27.5 15.5 39.5c0 16.667 -8.83301 32.167 -26.5 46.5
s-36.167 28.166 -55.5 41.499c-56 40 -98.667 85.5 -128 136.5s-44 107.5 -44 169.5v71c0 57.333 14.333 113 43 167s67 101.833 115 143.5s103 74.834 165 99.501s127 36.334 195 35.001c86 0 165.667 -17.167 239 -51.5s133.666 -79.5 180.999 -135.5
c49.333 57.333 110.166 103.166 182.499 137.499s149.5 50.833 231.5 49.5c68 -1.33301 132.833 -13.666 194.5 -36.999s116 -54.5 163 -93.5s84.167 -83.667 111.5 -134s41 -103.5 41 -159.5v-328c0 -56 -14 -108.5 -42 -157.5s-64.833 -92.333 -110.5 -130
s-97.5 -68.167 -155.5 -91.5s-118 -36.333 -180 -39c-17.333 -2.66699 -34.333 -2.66699 -51 0l-28 189v0z" />
    <glyph glyph-name="uni1023" unicode="&#x1023;" horiz-adv-x="2064" 
d="M1958 373c0 -48 -10.3242 -93.5029 -30.9912 -136.503s-48.334 -81.833 -83.001 -116.5s-75.167 -65 -121.5 -91s-94.833 -46 -145.5 -60l-90 172c38 4 73.833 14.333 107.5 31s62.334 35.834 86.001 57.501s42.667 45.167 57 70.5s21.5 49.666 21.5 72.999v327
c0 28.667 -8.5 57 -25.5 85s-39.833 53.333 -68.5 76s-61.834 40.834 -99.501 54.501s-76.834 21.167 -117.501 22.5c-44 0 -85 -8.16699 -123 -24.5s-71.667 -37.166 -101 -62.499s-52.666 -53.333 -69.999 -84s-26 -60.334 -26 -89.001l-2 -4v-301
c0 -41.333 -7.5 -80.333 -22.5 -117s-35.833 -71.5 -62.5 -104.5s-57.667 -62.333 -93 -88s-73.333 -46.834 -114 -63.501l-72 172c24.667 12 47.167 26 67.5 42s37.666 32.833 51.999 50.5s25.666 35.667 33.999 54s12.5 36.5 12.5 54.5v327c0 28.667 -8.16699 57 -24.5 85
s-38.833 53.333 -67.5 76s-61.834 40.834 -99.501 54.501s-77.834 21.167 -120.501 22.5c-42 0 -82.5 -8.16699 -121.5 -24.5s-73.167 -37.166 -102.5 -62.499s-52.5 -53.333 -69.5 -84s-25.5 -60.334 -25.5 -89.001v-305c0 -18 4.16699 -36.167 12.5 -54.5
s19.666 -36.333 33.999 -54s31.666 -34.5 51.999 -50.5s42.166 -29.333 65.499 -40l-72 -174c-40.667 18 -78.834 39.833 -114.501 65.5s-66.5 54.667 -92.5 87s-46.5 66.833 -61.5 103.5s-22.5 75.667 -22.5 117v305c0 57.333 14.333 113 43 167
s67.334 101.833 116.001 143.5s104 74.667 166 99s127 35.833 195 34.5c42.667 0 83.834 -4.66699 123.501 -14s77.167 -22.333 112.5 -39s68.333 -36.167 99 -58.5s57.667 -47.166 81 -74.499c24.667 27.333 52.667 52.666 84 75.999s64.833 43.5 100.5 60.5
s73 29.833 112 38.5s78.833 12.334 119.5 11.001c66.667 -1.33301 131.167 -13.166 193.5 -35.499s116.666 -53 162.999 -92s83.166 -83.833 110.499 -134.5s41 -104 41 -160v-327zM1931.01 -614.003l0.00488281 -197.002h-178c-13.333 0 -25.833 2.66699 -37.5 8
s-22 12.5 -31 21.5s-16.167 19.333 -21.5 31s-8 24.167 -8 37.5c1.33301 49.333 2 93.666 2 132.999c0 16.667 0.333008 32.834 1 48.501s1 30 1 43v32v14.5c0 34 -6.83301 66.333 -20.5 97s-32.834 57.334 -57.501 80.001s-53 40.834 -85 54.501s-66.333 20.5 -103 20.5
c-36 0 -69.667 -6.16699 -101 -18.5s-58.833 -29.5 -82.5 -51.5s-42.834 -47.333 -57.501 -76s-22.667 -59.334 -24 -92.001v-227h-192v227c-1.33301 32.667 -9.5 63.334 -24.5 92.001s-34.5 54 -58.5 76s-51.333 39.167 -82 51.5s-63.667 18.5 -99 18.5
c-37.333 0 -72.333 -6.83301 -105 -20.5s-61 -31.834 -85 -54.501s-42.667 -49.334 -56 -80.001s-20 -63 -20 -97c0 -45.333 11.167 -86.833 33.5 -124.5s52.5 -67.167 90.5 -88.5l-84 -164c-35.333 18.667 -67.333 41 -96 67s-52.834 55.5 -72.501 88.5
s-35.334 67.833 -47.001 104.5s-17.5 75.667 -17.5 117c0 60 12.333 115.833 37 167.5s57.5 97.334 98.5 137.001s89 70.834 144 93.501s114.833 34 179.5 34c73.333 0 141.166 -15 203.499 -45s114.5 -71 156.5 -123c42.667 52 95 93 157 123s130 45 204 45
c62.667 0 121.334 -11 176.001 -33s102.5 -52 143.5 -90s73.667 -82.667 98 -134s37.166 -106.333 38.499 -165v-182h82z" />
    <glyph glyph-name="uni1024" unicode="&#x1024;" horiz-adv-x="2505" 
d="M2013 -700c0 -14 -2.67773 -27.1592 -8.01074 -39.4922s-12.5 -22.833 -21.5 -31.5s-19.667 -15.834 -32 -21.501s-25.166 -8.5 -38.499 -8.5l-1700 -2c-27.333 0 -50.666 11 -69.999 33c-9.33301 8 -17 18.167 -23 30.5s-9 25.5 -9 39.5l2 219c0 13.333 1.33301 33 4 59
s10.167 52.667 22.5 80s31.5 52.666 57.5 75.999s62.667 39.666 110 48.999c67.333 13.333 132.333 20.666 195 21.999s122.334 -1.66699 179.001 -9s110.334 -18.833 161.001 -34.5s97 -33.5 139 -53.5s80.167 -40.833 114.5 -62.5s62.5 -42.834 84.5 -63.501l-144 -145
c-21.333 20.667 -52.166 41.5 -92.499 62.5s-85.166 39 -134.499 54s-100.666 27.667 -153.999 38s-103.166 15.166 -149.499 14.499s-86.5 -7.16699 -120.5 -19.5s-57.333 -32.166 -70 -59.499v-127h1497v1296c0 30 -8.5 59.333 -25.5 88s-40.167 54.667 -69.5 78
s-63.5 41.833 -102.5 55.5s-79.5 21.167 -121.5 22.5c-45.333 0 -87.333 -8.16699 -126 -24.5s-73 -37.5 -103 -63.5s-54 -54.667 -72 -86s-27 -61.333 -27 -90l-2 -4v-312c0 -40.667 -7.83301 -80.5 -23.5 -119.5s-37.167 -74.833 -64.5 -107.5s-59 -62.334 -95 -89.001
s-76 -49 -120 -67l-72 179c26 10.667 49.667 24.167 71 40.5s39.5 33.666 54.5 51.999s26.167 37.166 33.5 56.499s11 37.666 11 54.999v336c0 30 -8.5 59.333 -25.5 88s-40.167 54.667 -69.5 78s-63 41.833 -101 55.5s-78.333 21.167 -121 22.5
c-45.333 0 -87.666 -8.16699 -126.999 -24.5s-74 -37.5 -104 -63.5s-54 -54.667 -72 -86s-27 -61.333 -27 -90v-316c0 -17.333 4.5 -35.666 13.5 -54.999s20.667 -38.166 35 -56.499s31.666 -35.333 51.999 -51s43.5 -29.5 69.5 -41.5l-73 -176
c-42.667 17.333 -82 39.333 -118 66s-67.667 56 -95 88s-48.5 67.5 -63.5 106.5s-22.5 78.833 -22.5 119.5v316c0 38 6.83301 76.167 20.5 114.5s32.334 74.166 56.001 107.499s52.334 64.333 86.001 93s70.167 53.334 109.5 74.001s81.166 36.667 125.499 48
s89.833 17 136.5 17c42.667 -1.33301 84.334 -6.33301 125.001 -15s79.167 -21.5 115.5 -38.5s70.166 -37.167 101.499 -60.5s59.333 -49.333 84 -78c26 28.667 54.667 55 86 79s65.5 44.5 102.5 61.5s75.333 29.833 115 38.5s79.834 13 120.501 13
c70.667 -1.33301 137.834 -13.833 201.501 -37.5s119 -55.334 166 -95.001s84.833 -85.5 113.5 -137.5s43 -106.667 43 -164zM2358.99 -800.992l-199.998 -0.00585938l-2 1381c1.33301 58.667 0.5 112.167 -2.5 160.5s-12 92.333 -27 132s-37.833 74.5 -68.5 104.5
s-73.334 54.667 -128.001 74c-57.333 5.33301 -110.5 19.833 -159.5 43.5s-91.667 54.334 -128 92.001s-64.666 81.167 -84.999 130.5s-30.5 102 -30.5 158c0 58.667 11.5 113.5 34.5 164.5s54.667 96 95 135s87.5 69.333 141.5 91s111.667 32.5 173 32.5
c50.667 0 98.834 -7.5 144.501 -22.5s87.334 -36 125 -63c37.667 -27 70.167 -59 97.5 -96s47 -77.5 59 -121.5l-190 -53c-6.66699 24.667 -18 46.834 -34 66.501s-34.167 37 -54.5 52s-43.166 27 -68.5 36c-25.333 9 -51.666 13.5 -78.999 13.5
c-34 0 -66 -6.16699 -96 -18.5s-56 -29 -78 -50s-39.5 -45.833 -52.5 -74.5s-19.5 -59.334 -19.5 -92.001c0 -32 5.83301 -61.167 17.5 -87.5s27.5 -50.166 47.5 -71.499s43.667 -38.5 71 -51.5s56.666 -20.833 87.999 -23.5c1.33301 0 2.66602 -0.333008 3.99902 -1
s2.66602 -1 3.99902 -1v0c31.333 -5.33301 62 -14.166 92 -26.499s58.333 -27.666 85 -45.999s50.5 -39.5 71.5 -63.5s39.167 -49.667 54.5 -77s28.666 -52.166 40 -74.499c11.333 -22.333 21.166 -46.166 29.499 -71.499s14.5 -53.333 18.5 -84s6.66699 -68 8 -112z" />
    <glyph glyph-name="uni1025" unicode="&#x1025;" horiz-adv-x="1200" 
d="M336 35l0.000976562 -639.003h567v78h195v-176c0 -14 -2.5 -26.833 -7.5 -38.5s-11.833 -21.834 -20.5 -30.501s-18.834 -15.834 -30.501 -21.501s-24.5 -8.5 -38.5 -8.5h-761c-14 0 -26.833 2.83301 -38.5 8.5s-21.834 12.834 -30.501 21.501
s-15.834 18.834 -21.501 30.501s-8.5 24.5 -8.5 38.5v897l-24.5 38.5c-8.33301 13.667 -15.833 27.834 -22.5 42.501l178 101c2.66699 -24.667 13.667 -50.667 33 -78s44 -51.5 74 -72.5s64.5 -38 103.5 -51s79.5 -18.167 121.5 -15.5
c41.333 1.33301 79.666 10.166 114.999 26.499s66.666 36.166 93.999 59.499s48.5 48.166 63.5 74.499s22.5 50.5 22.5 72.5v326c0 28.667 -8.16699 57.334 -24.5 86.001s-38.5 54.167 -66.5 76.5s-60.833 40.333 -98.5 54s-77.5 20.5 -119.5 20.5
c-40 0 -77.667 -6.83301 -113 -20.5s-67 -31 -95 -52s-51.167 -45.5 -69.5 -73.5s-31.166 -55.667 -38.499 -83l-176 98c18 45.333 43.333 87.166 76 125.499s70.5 71.833 113.5 100.5s90.833 50.834 143.5 66.501s106.334 23.5 161.001 23.5
c66.667 -1.33301 130.834 -13.666 192.501 -36.999s115.667 -54.166 162 -92.499s83.166 -82.666 110.499 -132.999s41 -103.5 41 -159.5v-326c0 -54.667 -13.667 -106.5 -41 -155.5s-63.5 -92.667 -108.5 -131s-96.5 -69 -154.5 -92s-118 -36.167 -180 -39.5
c-47.333 -4 -94.666 -0.166992 -141.999 11.5s-92.666 27.834 -135.999 48.501z" />
    <glyph glyph-name="uni1026" unicode="&#x1026;" horiz-adv-x="1200" 
d="M336 27l0.000976562 -631.001h567v78h195v-176c0 -14 -2.5 -26.833 -7.5 -38.5s-11.833 -21.834 -20.5 -30.501s-18.834 -15.834 -30.501 -21.501s-24.5 -8.5 -38.5 -8.5h-761c-14 0 -26.833 2.83301 -38.5 8.5s-21.834 12.834 -30.501 21.501
s-15.834 18.834 -21.501 30.501s-8.5 24.5 -8.5 38.5v888l-24.5 39.5c-8.33301 13.667 -15.833 27.834 -22.5 42.501l178 101c2.66699 -24.667 13.667 -50.334 33 -77.001s44 -51 74 -73s64.5 -39.5 103.5 -52.5s79.5 -17.833 121.5 -14.5
c41.333 1.33301 79.666 10.166 114.999 26.499s66.666 36 93.999 59s48.5 47.833 63.5 74.5s22.5 51 22.5 73v326c0 28.667 -8.16699 57.334 -24.5 86.001s-38.5 54.167 -66.5 76.5s-60.833 40.333 -98.5 54s-77.5 20.5 -119.5 20.5c-40 0 -77.667 -6.83301 -113 -20.5
s-67 -31 -95 -52s-51.167 -45.167 -69.5 -72.5s-31.166 -55.333 -38.499 -84l-176 98c18 45.333 43.333 87 76 125s70.5 71.333 113.5 100s90.833 51 143.5 67s106.334 24 161.001 24c66.667 -2 130.834 -14.5 192.501 -37.5s115.667 -53.667 162 -92
s83.166 -82.666 110.499 -132.999s41 -103.5 41 -159.5v-326c0 -54.667 -13.667 -106.5 -41 -155.5s-63.5 -92.667 -108.5 -131s-96.5 -69.166 -154.5 -92.499s-118 -36.333 -180 -39c-47.333 -4 -94.666 0.166992 -141.999 12.5s-92.666 28.166 -135.999 47.499z
M201.001 1518c0 52.667 10.5 102.334 31.5 149.001s50 87 87 121s79.667 61.333 128 82s100.5 31 156.5 31s108.667 -10.333 158 -31s92 -48 128 -82s64.667 -74.333 86 -121s32 -96.334 32 -149.001c0 -53.333 -10.667 -103.333 -32 -150s-50 -87.334 -86 -122.001
s-78.667 -61.834 -128 -81.501s-102 -29.5 -158 -29.5s-108.167 9.83301 -156.5 29.5s-91 46.834 -128 81.501s-66 75.334 -87 122.001s-31.5 96.667 -31.5 150zM778.001 1384c-22 19.333 -47.6689 34.499 -77.002 45.499s-59.666 16.833 -90.999 17.5
s-62.666 -4.16602 -93.999 -14.499s-60.666 -25.833 -87.999 -46.5c22 -24 48 -43.167 78 -57.5s62.667 -21.5 98 -21.5s68.166 7.16699 98.499 21.5s55.5 32.833 75.5 55.5zM384.999 1470c34 23.333 70.168 40.832 108.501 52.499s77 17.5 116 17.5
s76.5 -5.83301 112.5 -17.5s69.667 -29.167 101 -52.5c1.33301 7.33301 2.33301 15 3 23s1 16.333 1 25c0 28.667 -5.66699 55.834 -17 81.501s-27.333 48.167 -48 67.5s-44.334 34.5 -71.001 45.5s-55.667 16.5 -87 16.5s-60.333 -5.5 -87 -16.5
s-50.167 -26.167 -70.5 -45.5s-36.333 -41.833 -48 -67.5s-17.5 -52.834 -17.5 -81.501c0 -7.33301 0.666992 -14.666 2 -21.999s2 -16 2 -26z" />
    <glyph glyph-name="uni1027" unicode="&#x1027;" horiz-adv-x="1204" 
d="M897 776c-10.667 20.667 -24.668 40.167 -42.001 58.5s-36.5 35 -57.5 50s-44.167 27.667 -69.5 38s-51.666 17.5 -78.999 21.5c-1.33301 -30 6.5 -57 23.5 -81s37.833 -44.167 62.5 -60.5s51.667 -26.833 81 -31.5s56.333 -3 81 5zM898.999 311
c-23.333 10 -49.333 12.502 -78 7.50195s-55.167 -14.667 -79.5 -29s-45.5 -33 -63.5 -56s-27.667 -48.167 -29 -75.5c27.333 4 54 10.833 80 20.5s50 21.167 72 34.5s41.5 28.666 58.5 45.999s30.167 34.666 39.5 51.999zM474.999 182.002
c5.33301 44 19.665 84.6738 42.998 122.007s51.333 70.333 84 99s69.834 51.667 111.501 69s83.667 26.666 126 27.999s84 -6.16699 125 -22.5s78.5 -43.833 112.5 -82.5l21 -125c-19.333 -44.667 -46.666 -85.834 -81.999 -123.501s-76.666 -69.834 -123.999 -96.501
s-97.5 -46.834 -150.5 -60.501s-106.167 -19.167 -159.5 -16.5c-60 2.66699 -119.167 15.667 -177.5 39s-110 53.833 -155 91.5s-81.167 80.667 -108.5 129s-41 99.166 -41 152.499v326c0 56 13.333 108.833 40 158.5s63.167 94 109.5 133s100 69.667 161 92
s124.833 34.166 191.5 35.499c54.667 0 108 -7.83301 160 -23.5s99.833 -37.834 143.5 -66.501s81.834 -62 114.501 -100s58 -79 76 -123l-19 -123c-34 -38 -71.833 -65.167 -113.5 -81.5s-84.334 -23.5 -128.001 -21.5s-86.334 11.833 -128.001 29.5
s-79.167 41.167 -112.5 70.5s-61 63.833 -83 103.5s-34.333 82.167 -37 127.5c-26 -11.333 -49.833 -24.5 -71.5 -39.5s-40.334 -31.667 -56.001 -50s-28 -38.166 -37 -59.499s-13.5 -42 -13.5 -62v-326c0 -16.667 4.5 -34.834 13.5 -54.501s21.333 -38.334 37 -56.001
s34.334 -34.667 56.001 -51s45.5 -30.166 71.5 -41.499z" />
    <glyph glyph-name="uni1028" unicode="&#x1028;" horiz-adv-x="1339" 
d="M322 -356c0 -26 8.16699 -53.332 24.5 -81.999s38.833 -55 67.5 -79s62.667 -44.5 102 -61.5s81.666 -26.167 126.999 -27.5c48 -2.66699 93.5 3.5 136.5 18.5s80.833 34.667 113.5 59s58.834 52 78.501 83s29.5 60.833 29.5 89.5v110h213v-110
c0 -66 -17.333 -127 -52 -183s-79.667 -104.333 -135 -145s-117.5 -72 -186.5 -94s-138.167 -31 -207.5 -27c-65.333 2.66699 -129.5 16.667 -192.5 42s-119 58.166 -168 98.499s-88.167 86.833 -117.5 139.5s-44 109 -44 169v1028c2.66699 60 20 118 52 174
s73.667 105.5 125 148.5s110 77.5 176 103.5s134.667 39 206 39c73.333 -2.66699 143.166 -16.334 209.499 -41.001s124.666 -57.834 174.999 -99.501s90.333 -89.5 120 -143.5s44.5 -111 44.5 -171v-186v-9c2.66699 -86 -1.16602 -156.5 -11.499 -211.5
s-25.833 -99 -46.5 -132s-46.334 -56 -77.001 -69s-65 -19.5 -103 -19.5h-117c-47.333 0 -83.666 13.333 -108.999 40s-42.166 59.167 -50.499 97.5s-10 79.333 -5 123s14.833 82.5 29.5 116.5l23.5 70c7.66699 23.333 6.16699 43 -4.5 59
c-7.33301 9.33301 -21.5 16.833 -42.5 22.5s-42.833 5 -65.5 -2s-42.5 -21 -59.5 -42s-24.833 -52.833 -23.5 -95.5l-149 123c9.33301 53.333 34.833 98.833 76.5 136.5s89.167 63.334 142.5 77.001s107.166 12.667 161.499 -3s99.5 -50.167 135.5 -103.5
c12 -20.667 20 -42.667 24 -66s5.66699 -47.166 5 -71.499s-3.66699 -47.833 -9 -70.5s-10.666 -42.667 -15.999 -60c-14 -42.667 -22.667 -78 -26 -106s5.33398 -42 26.001 -42c22 0 39.667 2.33301 53 7s23.5 14.834 30.5 30.501s11.167 38.667 12.5 69
s0 71.166 -4 122.499l-14 183c-1.33301 30 -8.83301 61 -22.5 93s-34.5 61 -62.5 87s-62.833 47.167 -104.5 63.5s-91.167 24.5 -148.5 24.5c-46.667 0 -90.834 -8.83301 -132.501 -26.5s-78.5 -40.167 -110.5 -67.5s-57.167 -57.333 -75.5 -90s-27.5 -65 -27.5 -97v-1013z
" />
    <glyph glyph-name="uni1029" unicode="&#x1029;" horiz-adv-x="2380" 
d="M442 836c18 44.667 45 86.001 81 124.001s77.5 70.5 124.5 97.5s97.5 47.5 151.5 61.5s108 19.667 162 17c40 -2 80 -8.5 120 -19.5s78 -25.833 114 -44.5s69.5 -40.834 100.5 -66.501s57.667 -53.5 80 -83.5s40 -62.167 53 -96.5s19.5 -69.833 19.5 -106.5v-328
c4 -27.333 15.167 -55 33.5 -83s41.666 -53.5 69.999 -76.5s60.666 -41.833 96.999 -56.5s75.166 -22 116.499 -22c42.667 0 82.834 7 120.501 21s70.5 32.333 98.5 55s50.167 48.167 66.5 76.5s24.5 56.833 24.5 85.5v328c0 23.333 -7.66699 48.166 -23 74.499
s-36.333 50.833 -63 73.5s-58 41.834 -94 57.501s-75 24.5 -117 26.5c-12 1.33301 -23.167 1.66602 -33.5 0.999023s-21.5 -1.66699 -33.5 -3c8 46.667 13.833 85.5 17.5 116.5s7.16699 54.5 10.5 70.5h49c40.667 -2 80.834 -8.5 120.501 -19.5s77.5 -25.833 113.5 -44.5
s69.333 -40.834 100 -66.501s57.167 -53.5 79.5 -83.5s39.833 -62.167 52.5 -96.5s19 -69.833 19 -106.5v-328c0 -55.333 -13.667 -108.333 -41 -159s-64.333 -95.334 -111 -134.001s-100.5 -69.5 -161.5 -92.5s-125.5 -34.5 -193.5 -34.5
c-40 -0.666992 -79.5 3.5 -118.5 12.5s-76.167 21.667 -111.5 38s-68.666 35.833 -99.999 58.5s-59.333 48 -84 76c-23.333 -27.333 -50 -52.166 -80 -74.499s-62.667 -41.666 -98 -57.999s-72.666 -29 -111.999 -38s-80 -13.833 -122 -14.5
c-54.667 -2 -108.167 5.16699 -160.5 21.5s-100.5 38.833 -144.5 67.5s-82.667 62.5 -116 101.5s-58.333 80.167 -75 123.5l177 98c6 -27.333 18.5 -54.666 37.5 -81.999s42.667 -51.666 71 -72.999s60.333 -38.666 96 -51.999s73.167 -20 112.5 -20
c40.667 0 79.5 6.66699 116.5 20s69.5 30.833 97.5 52.5s50.667 46.167 68 73.5s26.666 55 27.999 83v170v164c0 23.333 -7.66699 48.166 -23 74.499s-36.333 50.833 -63 73.5s-58.167 41.834 -94.5 57.501s-75.5 24.5 -117.5 26.5c-42.667 2.66699 -83 -2.33301 -121 -15
s-71.833 -29.834 -101.5 -51.501s-54.167 -45.834 -73.5 -72.501s-31 -53 -35 -79zM296 -603.999h1779v571h196v-536c0 -30 -4.83301 -58.833 -14.5 -86.5s-23 -52.167 -40 -73.5s-37.333 -38.5 -61 -51.5s-49.5 -19.5 -77.5 -19.5h-1758
c-23.333 0 -47.833 5.83301 -73.5 17.5s-49.334 27.834 -71.001 48.501s-39.667 45.5 -54 74.5s-21.5 60.5 -21.5 94.5v2254c0 25.333 5.66699 50.666 17 75.999s26.666 48 45.999 68s41.666 36.167 66.999 48.5s52 18.5 80 18.5h1757c30.667 0 58.5 -6.33301 83.5 -19
s46.167 -28.834 63.5 -48.501s30.833 -41.667 40.5 -66s14.5 -48.166 14.5 -71.499v-174h-196v183h-1777v-2308z" />
    <glyph glyph-name="uni102A" unicode="&#x102a;" horiz-adv-x="4600" 
d="M1624 836c19.333 44.667 46.6689 86.168 82.002 124.501s76.666 70.833 123.999 97.5s97.833 47.167 151.5 61.5s107.834 20.166 162.501 17.499c40 -2.66699 80 -9.5 120 -20.5s78.167 -25.833 114.5 -44.5s69.833 -40.834 100.5 -66.501s57.334 -53.5 80 -83.5
c22.667 -30 40.5 -62.167 53.5 -96.5s19.5 -69.833 19.5 -106.5v-328c4 -27.333 14.833 -55 32.5 -83s40.834 -53.5 69.5 -76.5c28.667 -23 61.167 -41.667 97.5 -56s74.833 -21.5 115.5 -21.5c44 0 84.667 6.83301 122 20.5s70 31.667 98 54s50.167 47.833 66.5 76.5
s24.5 57.334 24.5 86.001v328c0 23.333 -7.83301 48.333 -23.5 75s-36.834 51.167 -63.5 73.5c-26.667 22.333 -57.667 41.333 -93 57s-74.333 24.167 -117 25.5c-12 1.33301 -23.167 1.66602 -33.5 0.999023s-21.5 -1.66699 -33.5 -3c8 48 13.667 87.333 17 118
s7 54.334 11 71.001h50c39.333 -2.66699 79.166 -9.5 119.5 -20.5c40.333 -11 78.166 -25.833 113.5 -44.5c35.333 -18.667 68.5 -40.834 99.5 -66.501s57.667 -53.5 80 -83.5s40 -62.167 53 -96.5s19.5 -69.833 19.5 -106.5v-328c0 -56 -14 -109.167 -42 -159.5
s-65.167 -94.666 -111.5 -132.999s-99.833 -69.166 -160.5 -92.499s-125.334 -35 -194 -35c-39.333 -1.33301 -78.5 2.83398 -117.5 12.501s-76.333 22.334 -112 38.001s-69.167 35.167 -100.5 58.5s-59.333 48.666 -84 75.999c-22.667 -27.333 -49.167 -52.333 -79.5 -75
s-63.166 -41.834 -98.5 -57.501c-35.333 -15.667 -72.833 -28.334 -112.5 -38.001s-79.834 -14.5 -120.5 -14.5c-54.667 -2.66699 -108.334 4.16602 -161.001 20.499s-101.167 38.833 -145.5 67.5s-82.833 62.5 -115.5 101.5s-58 80.5 -76 124.5l178 98
c5.33301 -27.333 17.666 -54.666 36.999 -81.999s43.333 -51.5 72 -72.5s60.667 -38.333 96 -52s73 -20.5 113 -20.5c39.333 0 77.833 6.83301 115.5 20.5s70.5 31 98.5 52s50.5 45.167 67.5 72.5s26.167 55.333 27.5 84v170v164c0 23.333 -7.5 48.333 -22.5 75
s-36.167 51.167 -63.5 73.5s-59.166 41.333 -95.5 57c-36.333 15.667 -74.833 24.167 -115.5 25.5c-44 2.66699 -84.667 -2 -122 -14s-71 -29 -101 -51s-54.667 -46.333 -74 -73s-31 -53 -35 -79zM3985 944.001c-36.667 0 -71.333 -5.82812 -103.999 -17.4951
c-32.667 -11.667 -62.334 -26.667 -89 -45c-26.667 -18.333 -49.834 -39.833 -69.5 -64.5c-19.667 -24.667 -35.167 -50 -46.5 -76l-162 113c20.667 38 47.334 74.167 80 108.5c32.667 34.333 69.834 63.666 111.5 87.999c41.667 24.333 86.5 43.666 134.5 57.999
s97 20.833 147 19.5c68.667 0 133.667 -11.5 195 -34.5c61.334 -23 115.167 -54.333 161.5 -94c46.334 -39.667 83.167 -84.834 110.5 -135.501c27.334 -50.667 41 -103 41 -157v-328c0 -36.667 -6.5 -72.167 -19.5 -106.5s-30.334 -66.5 -52 -96.5s-48.166 -58 -79.5 -84
s-65.167 -48.167 -101.5 -66.5c-36.334 -18.333 -74.334 -33 -114 -44c-39.667 -11 -79.167 -17.833 -118.5 -20.5h-49c-4 16.667 -8.16699 40.667 -12.5 72l-16.5 117c12.667 -2 24 -3.33301 34 -4s20.667 -0.333984 32 0.999023c42 2 81.167 10.833 117.5 26.5
c36.334 15.667 67.834 34.667 94.5 57s47.833 46.833 63.5 73.5c15.666 26.667 23.5 51.667 23.5 75v328c0 28.667 -8.16602 57 -24.5 85s-38.834 53.167 -67.5 75.5s-61.833 40.666 -99.5 54.999s-77.834 21.5 -120.501 21.5zM4047 1300.01c12 0 26.333 2.33301 43 7
l2 -177c-6.66699 -1.33301 -14.167 -2.33301 -22.5 -3s-15.833 -1 -22.5 -1c-57.333 0 -111 10.333 -161 31s-93.667 48.667 -131 84s-66.666 76.666 -88 123.999c-21.333 47.333 -32 97.666 -32 150.999c0 52.667 10.667 103 32 151s50.666 89.333 88 124
c37.333 34.667 81 62.334 131 83.001s103.667 31 161 31c44.667 0 88.5 -7.16699 131.5 -21.5s82 -34.166 117 -59.499s65.166 -55.5 90.5 -90.5s43.334 -72.167 54 -111.5l-176 -47c-6.66602 22 -16.833 42.5 -30.5 61.5c-13.666 19 -30.166 35.333 -49.5 49
s-40.5 24.667 -63.5 33s-47.5 12.5 -73.5 12.5c-31.333 0 -60.666 -5.5 -88 -16.5c-27.333 -11 -51.333 -26.167 -72 -45.5s-37 -41.833 -49 -67.5s-18 -54.167 -18 -85.5c0 -28.667 6 -56 18 -82s28.333 -49 49 -69s44.667 -35.833 72 -47.5s56.666 -17.5 88 -17.5z
M1479 -603.994h1777v565h197v-530c0 -30 -4.83301 -58.667 -14.5 -86s-23 -52 -40 -74s-37.5 -39.5 -61.5 -52.5s-49.667 -19.5 -77 -19.5h-1759c-23.333 0 -47.5 5.83301 -72.5 17.5s-48.5 28.167 -70.5 49.5s-40.167 46.333 -54.5 75s-21.5 60 -21.5 94v2255
c0 24 5.83301 48.667 17.5 74s27 48.333 46 69s41.167 37.167 66.5 49.5s52.333 18.5 81 18.5h1755c31.333 0 59.666 -6.5 85 -19.5c25.333 -13 46.5 -29.5 63.5 -49.5s30.333 -41.833 40 -65.5s14.5 -47.167 14.5 -70.5v-174h-197v182h-1775v-2308zM647.004 154.006
c32.667 2.66699 63.667 10.168 93 22.501s56 27 80 44s44.5 35.667 61.5 56s29.833 41.5 38.5 63.5c-18 12 -38 19.167 -60 21.5s-44.167 0.666016 -66.5 -5.00098s-43.833 -15 -64.5 -28s-38.167 -28.333 -52.5 -46s-24.5 -37.5 -30.5 -59.5s-5.66699 -45 1 -69z
M1102 266.007c-18 -44.667 -44.6699 -85.8271 -80.0029 -123.494s-76.666 -69.834 -123.999 -96.501s-97.5 -46.834 -150.5 -60.501s-106.167 -19.167 -159.5 -16.5c-41.333 1.33301 -81.666 7.83301 -120.999 19.5s-76.833 26.667 -112.5 45s-68.5 40.166 -98.5 65.499
s-56.333 53 -79 83s-40.5 62.167 -53.5 96.5s-19.5 69.166 -19.5 104.499v326c0 54.667 13.667 107.167 41 157.5s64 94.666 110 132.999s99.667 69 161 92s125.333 34.5 192 34.5c54.667 1.33301 108 -6.16699 160 -22.5s99.5 -38.833 142.5 -67.5s80.833 -62 113.5 -100
s58 -79 76 -123l-174 -96c-5.33301 26 -17.666 52.667 -36.999 80s-43 51.833 -71 73.5s-59.667 39.334 -95 53.001s-73 19.834 -113 18.501c-40.667 0 -79.834 -6.83301 -117.501 -20.5s-70.5 -31.334 -98.5 -53.001s-50.167 -46.5 -66.5 -74.5s-24.5 -56.333 -24.5 -85
v-326c0 -16.667 4.16699 -34.167 12.5 -52.5s19.666 -36.333 33.999 -54s31.333 -34.334 51 -50.001s41.834 -29.834 66.501 -42.501c0 48 9.83301 92.833 29.5 134.5s46.334 78.167 80.001 109.5s71.667 57 114 77s86 31.667 131 35s89 -3.16699 132 -19.5
s81.5 -44.5 115.5 -84.5c30 -83.333 41 -140 33 -170z" />
    <glyph glyph-name="uni102B" unicode="&#x102b;" horiz-adv-x="389" 
d="M-399 1497c0 -32 6.66895 -62.999 20.002 -92.999l-173 -48c-8.66699 21.333 -15.334 43.833 -20.001 67.5s-7 48.167 -7 73.5c0 56 11.333 108.833 34 158.5s53.5 92.834 92.5 129.501s84.667 65.667 137 87s108.166 32 167.499 32c58.667 0 114 -10.5 166 -31.5
s97.5 -49.667 136.5 -86s69.833 -79 92.5 -128s34.334 -101.167 35.001 -156.5c0 -0.666992 0.166992 -11.167 0.5 -31.5s0.666016 -48 0.999023 -83s0.5 -76.333 0.5 -124s0.166992 -99.334 0.5 -155.001l1 -175.5c0.333008 -61.333 0.5 -123 0.5 -185
c0.666992 -219.333 1 -468.333 1 -747h-185v1515c-2.66699 30.667 -11 59.167 -25 85.5s-32.333 49.333 -55 69s-48.5 35.167 -77.5 46.5s-59.833 17 -92.5 17c-34.667 0 -67.167 -6.33301 -97.5 -19s-56.833 -29.667 -79.5 -51s-40.667 -46.333 -54 -75
s-20 -59.334 -20 -92.001z" />
    <glyph glyph-name="uni102C" unicode="&#x102c;" horiz-adv-x="999" 
d="M383 950c-34 0 -67.002 -5.33008 -99.002 -15.9971s-61.333 -25.334 -88 -44.001s-49.667 -39.834 -69 -63.501s-33.666 -47.834 -42.999 -72.501l-162 110c22 38.667 49 74 81 106s68.167 60 108.5 84s83.666 42.667 129.999 56s94.166 20 143.499 20
c66.667 -1.33301 129.834 -13.166 189.501 -35.499s112.334 -52.333 158.001 -90s81.834 -81 108.501 -130s40 -100.833 40 -155.5v-338c0 -36.667 -6.16699 -71.834 -18.5 -105.501s-29.5 -65.167 -51.5 -94.5s-48.333 -56.333 -79 -81s-63.334 -46.167 -98.001 -64.5
s-71.167 -33 -109.5 -44s-77.166 -17.167 -116.499 -18.5c-16.667 -1.33301 -33.334 -1.33301 -50.001 0c-4 30 -12.667 91 -26 183c20 -2.66699 41.667 -3.33398 65 -2.00098c41.333 1.33301 79.333 9.83301 114 25.5s65 34.334 91 56.001s46.5 45.167 61.5 70.5
s22.5 50.333 22.5 75v338c0 28.667 -8.16699 56.667 -24.5 84s-38.166 51.833 -65.499 73.5s-59.5 39 -96.5 52s-75.833 20.167 -116.5 21.5z" />
    <glyph glyph-name="uni102D" unicode="&#x102d;" 
d="M-792 1518c0 -28.667 5.66699 -55.667 17 -81s27 -47.5 47 -66.5s43.333 -34 70 -45s55.334 -16.5 86.001 -16.5c30 0 58.333 5.5 85 16.5s50 26 70 45s35.667 41.167 47 66.5s17 52.333 17 81s-5.66699 55.5 -17 80.5s-27 47 -47 66s-43.333 34 -70 45
s-55 16.5 -85 16.5c-30.667 0 -59.334 -5.5 -86.001 -16.5s-50 -26 -70 -45s-35.667 -41 -47 -66s-17 -51.833 -17 -80.5zM-973 1518c0 52 10.5 101 31.5 147s49.667 86.167 86 120.5s78.833 61.5 127.5 81.5s100.667 30 156 30c54.667 0 106.334 -10 155.001 -30
s91.167 -47.167 127.5 -81.5s65 -74.5 86 -120.5s31.5 -95 31.5 -147c0 -52.667 -10.5 -102 -31.5 -148s-49.667 -86.167 -86 -120.5s-78.833 -61.5 -127.5 -81.5s-100.334 -30 -155.001 -30c-55.333 0 -107.333 10 -156 30s-91.167 47.167 -127.5 81.5s-65 74.5 -86 120.5
s-31.5 95.333 -31.5 148z" />
    <glyph glyph-name="uni102E" unicode="&#x102e;" 
d="M-977 1518c0 52.667 10.667 102.167 32 148.5s50.166 86.833 86.499 121.5s79 62 128 82s101.5 30 157.5 30c55.333 0 107.5 -10 156.5 -30s91.667 -47.333 128 -82s65.166 -75.167 86.499 -121.5s32 -95.833 32 -148.5c0 -53.333 -10.667 -103.166 -32 -149.499
s-50.166 -86.833 -86.499 -121.5s-79 -62 -128 -82s-101.167 -30 -156.5 -30c-56 0 -108.5 10 -157.5 30s-91.667 47.333 -128 82s-65.166 75.167 -86.499 121.5s-32 96.166 -32 149.499zM-400 1384c-22 20 -47.499 35.1699 -76.499 45.5029s-59.167 15.833 -90.5 16.5
s-62.833 -3.83301 -94.5 -13.5s-60.834 -24.834 -87.501 -45.501c20.667 -24.667 46.167 -44.334 76.5 -59.001s63.5 -22 99.5 -22c34.667 0 67 7.16699 97 21.5s55.333 33.166 76 56.499zM-791.999 1471c33.333 22.667 69.165 39.834 107.498 51.501
s76.833 17.5 115.5 17.5s76.334 -5.83301 113.001 -17.5s70.334 -29.167 101.001 -52.5c1.33301 7.33301 2.5 15 3.5 23s1.5 16.333 1.5 25c0 28.667 -5.83301 55.834 -17.5 81.501s-27.667 48.167 -48 67.5s-44 34.5 -71 45.5s-55.833 16.5 -86.5 16.5
c-31.333 0 -60.5 -5.5 -87.5 -16.5s-50.667 -26.167 -71 -45.5s-36.333 -41.833 -48 -67.5s-17.5 -52.834 -17.5 -81.501c0 -7.33301 0.5 -14.833 1.5 -22.5s2.16699 -15.834 3.5 -24.501z" />
    <glyph glyph-name="uni102F" unicode="&#x102f;" 
d="M-401 -797h-105.998c-24 0 -47.833 3.83301 -71.5 11.5s-44.834 19.834 -63.501 36.501s-33.834 37.667 -45.501 63s-17.5 55.666 -17.5 90.999v554h191v-565h113v-191z" />
    <glyph glyph-name="uni1030" unicode="&#x1030;" 
d="M-853 -789v755h191v-755h-191zM-209 -797h-109c-22 0 -44.5 4 -67.5 12s-44 20 -63 36s-34.5 36 -46.5 60s-18 51.667 -18 83v565h191v-565h113v-191z" />
    <glyph glyph-name="uni1031" unicode="&#x1031;" horiz-adv-x="1204" 
d="M647 154c32.667 2.66699 63.667 10.168 93 22.501s56 27 80 44s44.5 35.667 61.5 56s29.833 41.5 38.5 63.5c-18 12 -38 19.167 -60 21.5s-44.167 0.666016 -66.5 -5.00098s-43.833 -15 -64.5 -28s-38.167 -28.333 -52.5 -46s-24.5 -37.5 -30.5 -59.5s-5.66699 -45 1 -69
zM1102 266.001c-18 -44.667 -44.6699 -85.8271 -80.0029 -123.494s-76.666 -69.834 -123.999 -96.501s-97.5 -46.834 -150.5 -60.501s-106.167 -19.167 -159.5 -16.5c-41.333 1.33301 -81.666 7.83301 -120.999 19.5s-76.833 26.667 -112.5 45s-68.5 40.166 -98.5 65.499
s-56.333 53 -79 83s-40.5 62.167 -53.5 96.5s-19.5 69.166 -19.5 104.499v326c0 54.667 13.667 107.167 41 157.5s64 94.666 110 132.999s99.667 69 161 92s125.333 34.5 192 34.5c54.667 1.33301 108 -6.16699 160 -22.5s99.5 -38.833 142.5 -67.5s80.833 -62 113.5 -100
s58 -79 76 -123l-174 -96c-5.33301 26 -17.666 52.667 -36.999 80s-43 51.833 -71 73.5s-59.667 39.334 -95 53.001s-73 19.834 -113 18.501c-40.667 0 -79.834 -6.83301 -117.501 -20.5s-70.5 -31.334 -98.5 -53.001s-50.167 -46.5 -66.5 -74.5s-24.5 -56.333 -24.5 -85
v-326c0 -16.667 4.16699 -34.167 12.5 -52.5s19.666 -36.333 33.999 -54s31.333 -34.334 51 -50.001s41.834 -29.834 66.501 -42.501c0 48 9.83301 92.833 29.5 134.5s46.334 78.167 80.001 109.5s71.667 57 114 77s86 31.667 131 35s89 -3.16699 132 -19.5
s81.5 -44.5 115.5 -84.5c30 -83.333 41 -140 33 -170z" />
    </font>
</defs>
</svg>
