<?xml version="1.0" standalone="no"?>
<!DOCTYPE svg PUBLIC "-//W3C//DTD SVG 1.1//EN" "http://www.w3.org/Graphics/SVG/1.1/DTD/svg11.dtd" >
<svg xmlns="http://www.w3.org/2000/svg">
<metadata></metadata>
<defs>
<font id="ayar_kasonebold" horiz-adv-x="0" >
<font-face units-per-em="2048" ascent="1638" descent="-410" />
<missing-glyph horiz-adv-x="350" />
<glyph unicode="&#x100a;&#x1039;&#x100a;" horiz-adv-x="1505" d="M440 -823h187v-230h-187q-69 0 -126.5 19.5t-100.5 59.5t-66.5 100.5t-23.5 140.5v946q-25 55 -25 119l228 59v-49q0 -29 10 -52.5t28.5 -41t41 -27.5t51.5 -10h49q26 0 50 10t41 27.5t27.5 41t10.5 52.5v375q0 26 -10.5 51t-27.5 42t-41 27.5t-50 10.5h-49 q-29 0 -51.5 -10.5t-41 -27.5t-28.5 -42t-10 -51v-43l-228 55q2 74 31 136.5t78 109.5t112.5 73.5t137.5 26.5h49q74 0 139.5 -27.5t113.5 -76.5t75.5 -113.5t27.5 -140.5v-375v-10q2 -27 13.5 -48.5t29 -38t40 -25.5t48.5 -9h49q27 0 50.5 10t42 27.5t29 41t10.5 52.5v375 q0 26 -10.5 51t-29 42t-42 27.5t-50.5 10.5h-36l47 227q73 -2 136.5 -30.5t111 -76.5t74 -112.5t26.5 -138.5v-375q0 -76 -27.5 -141.5t-77 -113.5t-115 -75.5t-139.5 -27.5h-49q-71 0 -132.5 25.5t-110.5 70.5q-50 -45 -111 -70.5t-133 -25.5h-49q-29 0 -55.5 4t-51.5 12 v-733q0 -29 4 -46.5t14.5 -27.5t28 -13t43.5 -3zM971 -43q35 0 66 -13t54 -36.5t36 -54.5t13 -66v-176v-5q1 -13 6.5 -23t14 -18t19 -12.5t22.5 -4.5h23q13 0 24 5t19.5 13t13 19.5t4.5 25.5v176q0 13 -4.5 24t-13 20t-19.5 14t-24 5h-18l23 107q34 -1 64 -14.5t52 -36.5 t35.5 -54t13.5 -65v-176q0 -37 -14 -68t-36.5 -54t-53.5 -36t-66 -13h-23q-33 0 -63 12t-52 34q-24 -22 -53.5 -34t-62.5 -12h-23q-14 0 -26.5 2t-24.5 6v-349q0 -14 2 -22.5t7 -13.5t13.5 -6.5t20.5 -1.5h291q14 0 25 2t18 9t10 19t3 30h108q0 -39 -5.5 -66.5t-15.5 -46.5 t-24.5 -29.5t-33 -16.5t-40 -7.5t-45.5 -1.5h-291q-32 0 -60 9.5t-48 28t-31 47t-11 67.5v450q-11 25 -12 56l108 28v-22q0 -14 4.5 -25.5t13.5 -19.5t19.5 -13t24.5 -5h23q13 0 24.5 5t19.5 13t13 19.5t5 25.5v176q0 13 -5 24t-13 20t-19.5 14t-24.5 5h-23q-14 0 -24.5 -5 t-19.5 -14t-13.5 -20t-4.5 -24v-21l-108 27q1 34 15.5 64t36.5 52.5t53 35t65 12.5h23z" />
<glyph unicode="&#x1039;&#x100c;" d="M-504 -281q-27 0 -51.5 -9t-42 -27.5t-27.5 -42t-10 -50.5v-274q0 -25 1 -47.5t6 -41t17.5 -31.5t32.5 -17l-43 -223q-55 12 -102 43h-631q-80 0 -145.5 26.5t-112.5 74.5t-72 112.5t-25 140.5v260q0 160 88.5 242t262.5 82h77v-230h-77q-23 0 -45.5 -4t-39 -16.5 t-27.5 -30.5t-11 -43v-260q0 -62 31.5 -94.5t95.5 -32.5h500q-9 45 -9 90v274q0 74 28 139.5t77 113.5t114.5 77t139.5 29h49q74 0 139.5 -29t113.5 -77t76.5 -113.5t28.5 -139.5v-274q0 -72 -17 -133.5t-52 -109.5t-86 -77.5t-119 -37.5l-33 227q27 0 42.5 10t23.5 27.5 t10 41t2 52.5v274q0 27 -10 50.5t-27.5 42t-41 27.5t-50.5 9h-49z" />
<glyph unicode="&#x100b;&#x1039;&#x100c;" horiz-adv-x="932" d="M848 -168v-565q0 -80 -8.5 -140.5t-31 -99.5t-64.5 -58.5t-109 -19.5h-283q-51 0 -89 3.5t-65.5 14.5t-46 34.5t-28.5 62.5t-15.5 97.5t-5.5 140.5q4 24 17.5 53t40 47t69.5 21.5t107 -21.5l166 -80l-39 -82l-135 62q0 -39 3 -63.5t12 -39t28.5 -19.5t52.5 -5h86 q33 0 54.5 4t34.5 13t18.5 26.5t5.5 48.5v434q-35 -4 -70 -7t-72 -1q-51 0 -103 6t-101.5 17.5t-93.5 24.5t-81 30v221q0 8 7.5 9t20.5 -4t32.5 -15.5t46.5 -22.5q18 -8 49 -19.5t66.5 -20.5t76.5 -16t84 -9q47 0 96.5 6t95.5 19t86 33.5t68 47.5q17 12 17 -2v-66v-100z M444 1067h50q71 0 134.5 -27.5t111.5 -73.5t77 -108.5t33 -134.5l-227 -57v45q0 26 -10.5 49.5t-28 41t-41 28t-49.5 10.5h-50q-26 0 -49.5 -10.5t-41 -28t-28 -41t-10.5 -49.5v-373q0 -29 10.5 -52.5t28 -41t41 -26.5t49.5 -9h50q26 0 49.5 9t41 26.5t28 41t10.5 52.5v49 l227 -61q-2 -72 -30.5 -134.5t-77 -108.5t-113 -73.5t-135.5 -27.5h-50q-73 0 -137.5 28.5t-113 75.5t-76 111.5t-27.5 140.5v373q0 73 27.5 137.5t76 113t113 77t137.5 28.5z" />
<glyph unicode="&#x100d;&#x1039;&#x100e;" horiz-adv-x="969" d="M100 608v-2v4v-2zM387 -733v717q-61 12 -113.5 43.5t-90.5 78t-60.5 104.5t-22.5 124v272v2v2q2 21 15.5 38.5t34 33.5t43 31.5t43 30t33 26.5t12.5 25q0 16 -8.5 26t-21.5 16.5t-29.5 8.5t-33.5 2l-88 2v219h195q53 0 91 -10t61.5 -28.5t35 -46.5t11.5 -60v-107 q0 -37 -14.5 -67.5t-38 -57t-52.5 -49t-59 -45.5v-264q0 -29 12 -54.5t33 -43.5v120q-6 17 -6 35l65 19v-17q0 -14 11.5 -26.5t27.5 -12.5h14q19 0 29 12.5t10 26.5v113q0 14 -10 26.5t-29 12.5h-14q-16 0 -27.5 -12.5t-11.5 -26.5v-14l-65 18q0 20 8 38.5t22.5 33t34 21.5 t39.5 7h14q23 0 42.5 -8t32.5 -22.5t22.5 -34t9.5 -39.5v-113q0 -20 -9.5 -39.5t-22.5 -34t-32.5 -22.5t-42.5 -8h-14q-14 0 -31 6v-90q4 0 9.5 -1t9.5 -1h49q27 0 51.5 10t42 27.5t27.5 42t10 51.5v379q0 22 -1 44.5t-6 41t-17.5 32t-34.5 19.5l45 223q61 -12 106 -46 t76 -82t46 -108.5t15 -123.5v-379q0 -62 -19.5 -116t-53 -99t-79.5 -78t-102 -49v-725q0 -29 4.5 -47.5t14.5 -27.5t28.5 -13t45.5 -4v-230q-84 0 -145.5 14.5t-100.5 49.5t-57.5 97.5t-18.5 160.5z" />
<glyph unicode="&#x1009;&#x1039;&#x1005;" horiz-adv-x="941" d="M508 -825q29 0 50.5 5t34.5 16t21.5 31.5t10.5 51.5l223 -33q-4 -102 -32 -162.5t-73 -90t-104 -37t-131 -7.5h-86q-70 0 -127 19.5t-99 58.5t-67 98.5t-25 139.5v973q-14 45 -14 90l227 61v-51q0 -27 10.5 -50.5t28 -41t40 -27.5t48.5 -10h50q26 0 49.5 10t41 27.5 t29 41t11.5 50.5v375q0 26 -11.5 49.5t-29 41t-41 28t-49.5 10.5h-50q-26 0 -48.5 -10.5t-40 -28t-28 -41t-10.5 -49.5v-45l-227 55q2 72 31 134.5t77 109.5t111.5 73.5t134.5 26.5h50q73 0 138.5 -27.5t114 -76t76 -114t27.5 -136.5v-375q0 -74 -27.5 -138.5t-76 -112.5 t-114 -75.5t-138.5 -27.5h-50q-59 0 -112 18v-737q0 -29 4 -46.5t13 -26.5t27.5 -13t45.5 -4h86zM598 -51h31q45 0 86 -17.5t71.5 -48t48 -71.5t17.5 -88v-166q0 -47 -17.5 -88t-48 -72t-71.5 -48.5t-86 -17.5h-31q-47 0 -88 17.5t-71.5 48.5t-48 72t-17.5 88v166 q0 47 17.5 88t48 71.5t71.5 48t88 17.5zM516 -295v-147h19.5t19.5 5t15.5 19.5t7.5 44.5q0 31 -6.5 47.5t-14.5 22.5t-19.5 7t-21.5 1zM598 -193q-23 0 -39 -10t-29 -24q33 -4 54.5 -14.5t35 -27t18.5 -43t5 -63.5q0 -33 -5 -54.5t-17.5 -36.5t-32 -23.5t-47.5 -12.5 q22 -22 57 -22h31q33 0 57.5 23.5t24.5 58.5v166q0 34 -24.5 58.5t-57.5 24.5h-31z" />
<glyph unicode="&#x1009;&#x1039;&#x1007;" horiz-adv-x="859" d="M494 -190q6 -11 16 -27t22 -33q7 -6 16 -15t19.5 -18.5t18.5 -17.5t12 -10q2 26 0 48.5t-12.5 39t-33 25t-58.5 8.5zM481 -684q-43 0 -79.5 17.5t-64.5 48t-43 70.5t-15 87v172q0 45 15 86t43 73t64.5 49.5t79.5 17.5h29q70 0 114 -15.5t64 -58.5q64 -2 93.5 -50.5 t27.5 -125.5l-84 -39q4 35 1 55.5t-13 32.5v-19q-23 -39 -44.5 -58t-46 -21.5t-53 16t-65.5 59.5q-19 21 -32 38.5t-23 33.5q-21 -10 -31 -29.5t-10 -44.5v-172q0 -35 20.5 -57.5t52.5 -22.5h45q23 0 37.5 3t23.5 12.5t11 25t2 39.5l131 -8q0 -68 -13 -111t-39 -66.5 t-63.5 -30.5t-89.5 -7h-45zM418 -825q28 0 49.5 4t35 14t21.5 29.5t11 50.5l225 -23q-4 -106 -32 -166.5t-72 -90t-105.5 -38t-132.5 -8.5h-86q-68 0 -126.5 19.5t-100.5 58.5t-65.5 99.5t-23.5 140.5v971q-14 45 -16 92l227 59v-49q0 -29 11.5 -52.5t29 -41t41 -27.5 t47.5 -10h50q26 0 49.5 10t41 27.5t28 41t10.5 52.5v373q0 26 -10.5 49.5t-28 41t-41 29t-49.5 11.5h-50q-24 0 -47.5 -11.5t-41 -29t-29 -41t-11.5 -49.5v-45l-227 57q4 72 32.5 134.5t77 109.5t112 73.5t134.5 26.5h50q73 0 137.5 -27.5t113 -77t77 -114t28.5 -137.5v-373 q0 -76 -28.5 -140.5t-77 -112.5t-113 -75.5t-137.5 -27.5h-50q-61 0 -114 18v-735q0 -29 4 -46.5t14 -27.5t27.5 -13t44.5 -3h86z" />
<glyph unicode="&#x102b;&#x103a;" horiz-adv-x="648" d="M328 0h-226l-2 1765q-2 27 -12 48.5t-27.5 39t-40 26.5t-49.5 9h-49q-26 0 -50 -10t-41 -27.5t-28.5 -41t-11.5 -50.5v-377h-225v377q0 74 27.5 138.5t76.5 112.5t113.5 77t138.5 29h49q72 0 134.5 -26t109.5 -71q47 45 109.5 71t134.5 26h49q72 0 135.5 -28t111.5 -74 t76.5 -109.5t30.5 -135.5l-225 -55v45q0 27 -10.5 50.5t-27.5 41t-40.5 27.5t-50.5 10h-49q-27 0 -50.5 -9t-41 -26.5t-27.5 -39t-12 -48.5v-1765z" />
<glyph unicode="&#x102d;&#x1036;" horiz-adv-x="139" d="M-760 2124h49q76 0 141.5 -29t114.5 -78t78 -114.5t29 -141.5v-284q0 -76 -29 -141.5t-78 -113.5t-114.5 -77t-141.5 -29h-49q-74 0 -139.5 29t-114.5 77t-76.5 113.5t-27.5 141.5v284q0 76 27.5 141.5t76.5 114.5t114.5 78t139.5 29zM-760 1894q-26 0 -50 -10t-41 -28.5 t-28.5 -42t-11.5 -52.5v-284q0 -27 11.5 -51.5t28.5 -42t41 -27.5t50 -10h49q29 0 52.5 10t42 27.5t28.5 42t10 51.5v284q0 29 -10 52.5t-28.5 42t-42 28.5t-52.5 10h-49zM-299 1642q0 31 11.5 56.5t30.5 44t46 30t55 11.5h80q31 0 56.5 -11.5t44 -30t30 -44t11.5 -56.5 v-190q0 -29 -11.5 -54.5t-30 -45t-44 -30.5t-56.5 -11h-80q-28 0 -55 11t-46 30.5t-30.5 45t-11.5 54.5v190zM-139 1626q0 14 6 24.5t16 10.5q13 0 20 -10.5t7 -24.5v-156q0 -14 -7 -23t-20 -9q-10 0 -16 9t-6 23v156z" />
<glyph unicode="&#x1004;&#x103a;&#x1039;&#x102d;" horiz-adv-x="189" d="M-348 2124h49q74 0 139.5 -29t114.5 -78t77.5 -114.5t28.5 -141.5v-284q0 -76 -28.5 -141.5t-77.5 -113.5t-114.5 -77t-139.5 -29h-49q-76 0 -141.5 29t-113.5 77t-77 113.5t-29 141.5v284q0 76 29 141.5t77 114.5t113.5 78t141.5 29zM-348 1894q-29 0 -52.5 -10 t-41 -28.5t-27.5 -42t-10 -52.5v-284q0 -27 10 -51.5t27.5 -42t41 -27.5t52.5 -10h49q27 0 50.5 10t42 27.5t28.5 42t10 51.5v284q0 29 -10 52.5t-28.5 42t-42 28.5t-50.5 10h-49zM-979 1331q41 0 59.5 7.5t24.5 19.5l190 -133q-20 -37 -53 -58.5t-71.5 -33t-78.5 -14.5 t-71 -3q-88 0 -148.5 13.5t-98.5 48t-52 96t-8 160.5q2 28 12 58t25.5 55.5t35 45t39.5 29.5q-20 20 -39.5 38.5t-35 41t-25.5 47.5t-12 57q-4 92 15.5 150.5t60.5 91.5t99 45t132 12q55 0 100 -4t81 -16t61.5 -33.5t42.5 -58.5l-197 -121q-8 10 -27.5 14t-60.5 4t-61.5 -14 t-20.5 -59q0 -11 6 -25t15.5 -28.5t22.5 -27t28 -18.5h64.5h31.5h14q15 -2 22 -12t9 -18v-127q0 -21 -9 -32t-22 -22h-4t-15 1t-32.5 1h-54.5q-19 -4 -32 -13t-23.5 -21.5t-15.5 -25.5t-5 -26q0 -51 17.5 -71.5t64.5 -20.5z" />
<glyph unicode="&#x1004;&#x103a;&#x1039;&#x102e;" horiz-adv-x="101" d="M-979 1331q41 0 59.5 7.5t24.5 19.5l190 -133q-20 -37 -53 -58.5t-71.5 -33t-78.5 -14.5t-71 -3q-88 0 -148.5 13.5t-98.5 48t-52 96t-8 160.5q2 28 12 58t25.5 55.5t35 45t39.5 29.5q-20 20 -39.5 38.5t-35 41t-25.5 47.5t-12 57q-4 92 15.5 150.5t60.5 91.5t99 45 t132 12q55 0 100 -4t81 -16t61.5 -33.5t42.5 -58.5l-197 -121q-8 10 -27.5 14t-60.5 4t-61.5 -14t-20.5 -59q0 -11 6 -25t15.5 -28.5t22.5 -27t28 -18.5h64.5h31.5h14q15 -2 22 -12t9 -18v-127q0 -21 -9 -32t-22 -22h-4t-15 1t-32.5 1h-54.5q-19 -4 -32 -13t-23.5 -21.5 t-15.5 -25.5t-5 -26q0 -51 17.5 -71.5t64.5 -20.5zM-379 2126h49q76 0 142.5 -30t115.5 -79t79 -115.5t30 -142.5v-280q0 -74 -30 -140.5t-79 -117t-115.5 -79t-142.5 -28.5h-49q-76 0 -142.5 28.5t-115.5 79t-77.5 117t-28.5 140.5v280q0 76 28.5 142.5t77.5 115.5 t115.5 79t142.5 30zM-240 1380q-8 25 -18 48.5t-24.5 44t-30 33t-33.5 12.5q-21 0 -38 -12.5t-32.5 -33t-29 -44t-23.5 -48.5q18 -16 40.5 -25t49.5 -9h49q27 0 50.5 9t39.5 25zM-512 1552q35 35 76 55.5t90 20.5q47 0 84 -18.5t67 -46.5v196q0 29 -10 52.5t-29.5 42 t-43 28.5t-52.5 10h-49q-27 0 -51.5 -10t-43 -28.5t-28.5 -42t-10 -52.5v-207z" />
<glyph unicode="&#x1004;&#x103a;&#x1039;&#x1036;" horiz-adv-x="43" d="M-657 1331q41 0 59 7.5t27 19.5l188 -133q-18 -37 -52 -58.5t-73 -33t-79 -14.5t-70 -3q-86 0 -147.5 13.5t-98.5 48t-52.5 96t-9.5 160.5q2 28 13.5 58t27 55.5t35 45t37.5 29.5q-20 20 -39.5 38.5t-35 41t-26 47.5t-12.5 57q-4 92 15.5 150.5t60.5 91.5t100.5 45 t131.5 12q55 0 100 -4t81 -16t61.5 -33.5t41.5 -58.5l-196 -121q-9 10 -28 14t-60 4t-61.5 -14t-20.5 -59q0 -11 6 -25t15 -28.5t22.5 -27t27.5 -18.5h64.5h34.5h12q14 -2 21.5 -12t9.5 -18l2 -127q0 -21 -10.5 -32t-22.5 -22h-4t-15.5 1t-33 1h-54.5q-18 -4 -31.5 -13 t-22.5 -21.5t-15 -25.5t-6 -26q0 -51 17 -71.5t65 -20.5zM-236 1549v-157q0 -14 7 -23.5t18 -9.5t18 9.5t7 23.5v157q0 14 -7 23.5t-18 9.5t-18 -9.5t-7 -23.5zM-394 1565q0 29 11 55t30.5 45.5t45.5 30.5t55 11h81q30 0 56 -11t45.5 -30.5t30.5 -45.5t11 -55v-192 q0 -29 -11 -55t-30.5 -45.5t-45.5 -30.5t-56 -11h-81q-29 0 -55 11t-45.5 30.5t-30.5 45.5t-11 55v192z" />
<glyph unicode="&#x1004;&#x103a;&#x1039;" d="M-151 1823h-112h-43.5h-36t-24.5 1l-9 1q0 43 -23.5 55t-74.5 12h-33q-41 0 -60.5 -14t-19.5 -57q0 -11 5 -24t14.5 -26.5t21.5 -23.5t27 -16h72.5h45.5h31q14 -2 22.5 -12.5t10.5 -20.5l2 -129q0 -21 -10.5 -33t-24.5 -20h-27h-43.5h-74.5q-33 -9 -52.5 -31.5 t-19.5 -44.5q0 -51 16.5 -70.5t63.5 -19.5l33 -2q32 0 50.5 6t29 15t13.5 24.5t5 33.5l207 -106q0 -74 -19.5 -115t-57.5 -61.5t-91 -26.5t-123 -6h-45q-88 0 -151.5 13.5t-102.5 48t-54.5 98t-9.5 168.5q2 30 13.5 57t27 49.5t36 44t38.5 41.5q-24 25 -43.5 44.5t-35 41 t-25 46t-11.5 57.5q-4 94 16.5 153.5t62.5 93t101.5 46t135.5 12.5h33q71 0 130.5 -11.5t102.5 -44t66.5 -92t23.5 -155.5z" />
<glyph unicode="&#x103e;&#x1030;" d="M-614 -821q-1 -64 -11 -108t-35.5 -71.5t-72 -40t-121.5 -12.5l-2 226h43v782h199v-776zM-570 -1049v1004h198v-1010zM-328 -819v774h197v-780h17h14h14l-2 -226q-75 0 -121.5 12.5t-72 39t-35.5 70.5t-11 110z" />
<glyph unicode="&#x103b;&#x103e;" horiz-adv-x="266" d="M-20 1067h228v-1890q0 -31 -10.5 -71t-32 -75t-54 -59.5t-78.5 -24.5h-83l-216 115q-10 -31 -28.5 -52.5t-48 -34.5t-74.5 -19.5t-107 -6.5l-2 228h50v766h225l2 -650l231 -116z" />
<glyph unicode="&#x103d;&#x103e;" d="M-427 -1053q-138 -2 -234 47q-33 -24 -66.5 -34.5t-56.5 -10.5h-139v230q6 0 25.5 -1t42.5 -1h55v41v8v127q2 16 13 50t28.5 80t39 98t44.5 106q53 123 119 268h268q65 -152 119 -274q20 -54 41.5 -107t39 -97t27.5 -77t10 -45v-129q0 -72 -20.5 -122t-71.5 -93 q-28 -25 -56 -37t-59.5 -17.5t-72.5 -6.5t-96 -3zM-423 -819q51 0 75.5 12t33.5 31.5t9 43v46.5l-118 412l-123 -408q0 -25 1 -49.5t12 -44t37 -31.5t73 -12z" />
<glyph unicode="&#x100a;&#x1039;&#x1009;" horiz-adv-x="2018" d="M1038 842h-34l45 225q71 -2 134.5 -30.5t109.5 -77t74 -113t28 -135.5v-324l2 2v-51q0 -27 9 -51.5t27.5 -42t42 -27.5t50.5 -10h49q27 0 50.5 10t42 27.5t28.5 42t10 51.5v373q0 26 -10 49.5t-28.5 41t-42 29t-50.5 11.5h-37l47 225q74 -2 136.5 -30.5t109.5 -77 t73.5 -113t26.5 -135.5v-373q0 -74 -27.5 -139.5t-76.5 -112.5t-113.5 -75.5t-138.5 -28.5h-49q-72 0 -134.5 25.5t-109.5 70.5q-47 -45 -109.5 -70.5t-134.5 -25.5h-49q-71 0 -132.5 25.5t-108.5 70.5q-50 -45 -111.5 -70.5t-132.5 -25.5h-47q-43 0 -82 9v-1l-23 7l-2 1 v-733q0 -29 4 -46.5t14.5 -27.5t28 -14t43.5 -4h1103q30 0 52.5 5t37 19.5t21.5 39t7 63.5h226q0 -82 -11.5 -139.5t-33 -97.5t-51 -62.5t-68.5 -35t-84 -15.5t-96 -3h-1103q-67 0 -125.5 19.5t-100.5 58.5t-65.5 99.5t-23.5 140.5v938q-25 59 -27 125l228 61v-51 q0 -28 10 -51t28 -41q2 -2 4 -7q16 -14 36 -22q24 -10 53 -10h47q26 0 50 10t42 27.5t28.5 42t10.5 51.5v373q0 26 -10.5 49.5t-28.5 41t-42 29t-50 11.5h-47q-29 0 -52.5 -11.5t-41 -29t-27.5 -41t-10 -49.5v-45l-228 57q4 72 33 134.5t77 109.5t111.5 73.5t137.5 26.5h47 q74 0 139.5 -27.5t113.5 -76t75.5 -114t27.5 -138.5v-383q2 -25 13.5 -47.5t29 -39t40 -25.5t46.5 -9h49q27 0 50.5 10t42 27.5t27.5 42t9 51.5v373q0 26 -9 49.5t-27.5 41t-42 29t-50.5 11.5z" />
<glyph unicode="&#x1009;&#x1039;&#x1006;" horiz-adv-x="1487" d="M340 8v-745q0 -29 4 -46.5t14.5 -26.5t27.5 -13t44 -4h614q31 0 53.5 5t37 19.5t20.5 38t6 62.5h225q0 -123 -25.5 -193t-70.5 -104.5t-107.5 -44t-138.5 -9.5h-614q-68 0 -125 19.5t-99 58.5t-65.5 98.5t-23.5 139.5v979q-15 43 -17 90l226 59v-49q0 -27 10 -50.5 t27.5 -41t40 -27.5t51.5 -10h47q26 0 49.5 10t41 27.5t28 41t10.5 50.5v371q0 26 -10.5 49.5t-28 41t-41 28t-49.5 10.5h-47q-29 0 -51.5 -10.5t-40 -28t-27.5 -41t-10 -49.5v-45l-226 57q4 70 33 132.5t76 108.5t110.5 72.5t135.5 26.5h47q73 0 138 -27.5t113 -76 t75.5 -113t27.5 -135.5v-371q0 -74 -27.5 -138.5t-75.5 -112.5t-113 -75.5t-138 -27.5h-47q-31 0 -59.5 6t-55.5 14zM1242 -491q0 -51 -19.5 -95t-52 -77t-77 -52t-94.5 -19h-33q-48 0 -91 17t-74 48q-33 -31 -75 -48t-90 -17h-42q-27 0 -47 3q-40 2 -71.5 11t-54.5 28.5 t-37.5 50t-19.5 75.5q0 1 1 5q19 40 41.5 69.5t53 41.5t68 2.5t82.5 -47.5q21 -19 38.5 -37t28.5 -37q18 10 30.5 27t14.5 38v212q-2 17 -9 31t-19.5 24t-27 16.5t-30.5 6.5h-34q-17 0 -33.5 -4t-31 -11.5t-25 -20.5t-12.5 -35l-139 38q4 50 18.5 86t43.5 57.5t72.5 32 t106.5 10.5h34q47 0 89.5 -17t75.5 -47q31 30 74 47t91 17h33q50 0 94.5 -19t77 -52.5t52 -77.5t19.5 -93v-188zM878 -504q3 -16 10.5 -30t19 -24t26.5 -15.5t32 -5.5h33q18 0 34 6.5t28.5 18.5t18.5 28.5t6 34.5v188q0 17 -6 33t-18.5 28.5t-28.5 20t-34 7.5h-33 q-17 0 -32 -6.5t-26.5 -16.5t-19 -24t-10.5 -31q1 -65 1 -107v-67t-0.5 -33.5t-0.5 -4.5zM623 -594q-8 12 -18.5 24t-28.5 31q-13 14 -25 22.5t-22 15t-18.5 9t-17.5 4.5q0 -33 7.5 -53t23 -31t40.5 -16t59 -6z" />
<glyph unicode="&#x1009;&#x1039;&#x1008;" horiz-adv-x="1245" d="M340 8v-745q0 -29 4 -46.5t14.5 -26.5t27.5 -13t44 -4h170v-226h-170q-68 0 -125 19.5t-99 58.5t-65.5 98.5t-23.5 139.5v979q-15 43 -17 90l226 59v-49q0 -27 10 -50.5t27.5 -41t40 -27.5t51.5 -10h47q26 0 49.5 10t41 27.5t28 41t10.5 50.5v371q0 26 -10.5 49.5t-28 41 t-41 28t-49.5 10.5h-47q-29 0 -51.5 -10.5t-40 -28t-27.5 -41t-10 -49.5v-45l-226 57q4 70 33 132.5t76 108.5t110.5 72.5t135.5 26.5h47q73 0 138 -27.5t113 -76t75.5 -113t27.5 -135.5v-371q0 -74 -27.5 -138.5t-75.5 -112.5t-113 -75.5t-138 -27.5h-47q-31 0 -59.5 6 t-55.5 14zM598 -51h31q45 0 86 -17.5t71.5 -48t48 -71.5t17.5 -88v-166q0 -47 -17.5 -88t-48 -72t-71.5 -48.5t-86 -17.5h-31q-47 0 -88 17.5t-71.5 48.5t-48 72t-17.5 88v166q0 47 17.5 88t48 71.5t71.5 48t88 17.5zM516 -295v-147h19.5t19.5 5t15.5 19.5t7.5 44.5 q0 31 -6.5 47.5t-14.5 22.5t-19.5 7t-21.5 1zM598 -193q-23 0 -39 -10t-29 -24q33 -4 54.5 -14.5t35 -27t18.5 -43t5 -63.5q0 -33 -5 -54.5t-17.5 -36.5t-32 -23.5t-47.5 -12.5q22 -22 57 -22h31q33 0 57.5 23.5t24.5 58.5v166q0 34 -24.5 58.5t-57.5 24.5h-31zM913 1067 h225v-1882q0 -33 -9 -72t-30.5 -73.5t-54.5 -58t-80 -23.5h-82l-214 194l132 148l113 -115v1882z" />
<glyph unicode="&#x1020;&#x103e;" horiz-adv-x="954" d="M174 -41q62 -37 134.5 -54.5t158.5 -15.5q45 0 88 7.5t80 17.5v92q-62 -22 -129 -22h-49q-74 0 -138.5 27.5t-112.5 75.5t-77 112.5t-29 140.5v371q0 73 29 138.5t77 114t112.5 76t138.5 27.5h49q72 0 135.5 -26.5t111.5 -72.5t76.5 -109.5t30.5 -135.5l-225 -55v43 q0 26 -10.5 49.5t-27.5 42t-41 29t-50 10.5h-49q-27 0 -50.5 -10.5t-42 -29t-27.5 -42t-9 -49.5v-371q0 -29 9 -52.5t27.5 -42t42 -27.5t50.5 -9h49q26 0 50 9t41 27.5t27.5 42t10.5 52.5v49l225 -61q0 -43 -12 -90v-193v-69.5v-62.5v-44v-19q0 -47 -30 -77.5t-68 -42.5 q-33 -9 -63 -17t-60.5 -14t-68.5 -10t-89 -4q-37 0 -72 3t-69 7v-430q0 -29 5 -46.5t18.5 -27.5t35 -13t55.5 -3h86q31 0 50.5 5t28.5 18.5t12.5 39t3.5 64.5q141 118 167.5 100t40 -47t17.5 -53q0 -84 -4 -141.5t-15.5 -97.5t-30 -62.5t-46 -35t-65.5 -15.5t-89 -3h-283 q-67 0 -109 19.5t-65.5 59.5t-31 99.5t-7.5 139.5v532v113q-2 24 8.5 36.5t22.5 16.5t24.5 2t16.5 -6zM612 -564q3 -61 -8 -92t-35 -53.5t-67 -32t-112 -9.5v183h36v230h186v-226z" />
<glyph unicode="&#x102d;&#x103e;&#x102f;" d="M-489 -823q-3 -66 -13 -110t-39.5 -70.5t-83 -39t-139.5 -12.5l-2 226h14.5h16.5h18v784h228v-778zM-455 -823v778h229v-782h50l-2 -228q-86 0 -139.5 12.5t-83 40t-41 71.5t-13.5 108zM-492 2124h49q74 0 139.5 -29t114.5 -78t78 -114.5t29 -141.5v-284 q0 -76 -29 -141.5t-78 -113.5t-114.5 -77t-139.5 -29h-49q-76 0 -141.5 29t-113.5 77t-76.5 113.5t-28.5 141.5v284q0 76 28.5 141.5t76.5 114.5t113.5 78t141.5 29zM-492 1894q-26 0 -51 -10t-42 -28.5t-27.5 -42t-10.5 -52.5v-284q0 -27 10.5 -51.5t27.5 -42t42 -27.5 t51 -10h49q27 0 50.5 10t42 27.5t28.5 42t10 51.5v284q0 29 -10 52.5t-28.5 42t-42 28.5t-50.5 10h-49z" />
<glyph unicode="&#x1036;&#x103e;&#x102f;" d="M-489 -823q-3 -66 -13 -110t-39.5 -70.5t-83 -39t-139.5 -12.5l-2 226h14.5h16.5h18v784h228v-778zM-455 -823v778h229v-782h50l-2 -228q-86 0 -139.5 12.5t-83 40t-41 71.5t-13.5 108zM-435 1549v-157q0 -14 7 -23.5t18 -9.5t18 9.5t7 23.5v157q0 14 -7 23.5t-18 9.5 t-18 -9.5t-7 -23.5zM-593 1565q0 29 11 55t30.5 45.5t45.5 30.5t55 11h81q30 0 56 -11t45.5 -30.5t30.5 -45.5t11 -55v-192q0 -29 -11 -55t-30.5 -45.5t-45.5 -30.5t-56 -11h-81q-29 0 -55 11t-45.5 30.5t-30.5 45.5t-11 55v192z" />
<glyph unicode=" "  horiz-adv-x="350" />
<glyph unicode="&#x09;" horiz-adv-x="350" />
<glyph unicode="&#xa0;" horiz-adv-x="350" />
<glyph unicode="!" horiz-adv-x="701" d="M207 1382h266v-387q5 -79 0.5 -158.5t-12.5 -159.5q-8 -81 -16.5 -160t-14.5 -160h-174q-5 81 -14 160t-17 160q-9 80 -14.5 159.5t-3.5 158.5v387zM209 0v243h266v-243h-266z" />
<glyph unicode="&#x22;" horiz-adv-x="689" d="M408 862v500h243v-500h-243zM33 862v500h243v-500h-243z" />
<glyph unicode="#" horiz-adv-x="1031" d="M911 429h-176l-59 -429h-174l57 429h-147l-60 -429h-172l58 429h-175v181h201l23 169h-172v181h194l56 400h170l-54 -400h150l53 400h176l-55 -400h156v-181h-181l-22 -169h153v-181zM459 779l-23 -169h146l24 169h-147z" />
<glyph unicode="$" horiz-adv-x="1020" d="M571 157q53 14 88 55.5t35 117.5q0 34 -12 65.5t-30 57.5t-40 45.5t-41 30.5v-372zM446 568q-75 45 -139.5 85.5t-112.5 90.5t-75 116t-27 161q0 61 19 118t61 103.5t108 78.5t160 43v116h140v-116q84 -9 145.5 -32t102.5 -57t62 -76t23 -89q2 -29 6.5 -58t2.5 -58h-238 q0 37 -4 67.5t-16 53.5t-34.5 39.5t-58.5 25.5v-367q80 -37 149.5 -81.5t121 -97t81.5 -114.5t31 -133q1 -96 -19 -167.5t-65 -122.5t-117 -81.5t-173 -43.5v-201h-140v196q-107 8 -180 44.5t-116.5 95t-60.5 135.5t-11 167h245q1 -45 2 -85.5t12.5 -73.5t37.5 -57t77 -36 v411zM446 1180q-54 -8 -81 -47.5t-27 -91.5q0 -35 9 -61.5t24 -48.5t34.5 -41.5t40.5 -39.5v330z" />
<glyph unicode="%" horiz-adv-x="1713" d="M377 1356q112 0 175.5 -28t95 -74.5t39 -107.5t7.5 -126q0 -66 -7.5 -127t-39 -108t-95 -75t-175.5 -28q-111 0 -173.5 28t-94 75t-39 108t-7.5 127q0 65 7.5 126t39 107.5t94 74.5t173.5 28zM381 1222q-45 0 -69.5 -14.5t-36 -40.5t-13.5 -63.5t-2 -83.5q0 -47 2 -84.5 t13.5 -64t36 -41t69.5 -14.5q44 0 67.5 14.5t34.5 41t13 64t2 84.5q0 46 -2 83.5t-13 63.5t-34.5 40.5t-67.5 14.5zM1329 675q112 0 175.5 -28t94.5 -75t38.5 -108t7.5 -127t-7.5 -126.5t-38.5 -107.5t-94.5 -75t-175.5 -28q-111 0 -173.5 28t-93.5 75t-38.5 107.5 t-7.5 126.5q0 44 2.5 86t13 79.5t30.5 69t55 54.5t86.5 36t125.5 13zM1331 540q-45 0 -69 -14.5t-35 -40.5t-13 -64t-2 -84t2 -83.5t13 -63.5t35 -40.5t69 -14.5q44 0 67.5 14.5t34.5 40.5t13 63.5t2 83.5t-2 84t-13 64t-34.5 40.5t-67.5 14.5zM428 -28l688 1410h144 l-687 -1410h-145z" />
<glyph unicode="&#x26;" horiz-adv-x="1320" d="M627 955q21 15 42.5 33t38 38.5t27 44.5t10.5 51q0 24 -9 44t-23 34t-32.5 22t-37.5 9t-37 -4t-31.5 -16t-21.5 -28.5t-8 -41.5t8.5 -48.5t21.5 -48t27 -46t25 -43.5zM936 483q22 61 33 125t14 127h227q0 -124 -33 -240.5t-102 -223.5l185 -276h-308l-55 91 q-40 -34 -80.5 -57t-84.5 -36.5t-91.5 -19.5t-101.5 -6q-89 0 -164 32t-129.5 88t-85.5 132t-31 164q0 77 20.5 139t59 113.5t92 96t119.5 86.5q-23 35 -44.5 70.5t-38.5 73t-27.5 76t-10.5 79.5q0 82 31.5 139t82 92.5t113.5 51.5t127 16q61 0 119 -19.5t103.5 -56.5 t73.5 -90.5t28 -121.5q0 -57 -17 -107t-47.5 -93.5t-74 -79.5t-95.5 -65zM541 632q-20 -7 -48 -28.5t-52 -54.5t-38 -74.5t-6 -87.5q6 -38 22.5 -76t42 -68t60.5 -49t80 -19q56 0 101 22t85 54z" />
<glyph unicode="'" horiz-adv-x="517" d="M135 862v500h244v-500h-244z" />
<glyph unicode="(" horiz-adv-x="684" d="M571 1416q-30 -55 -56.5 -110t-48 -117t-38 -133t-28 -156t-17.5 -187.5t-6 -227.5q0 -126 9 -232t31.5 -205t61 -198.5t96.5 -214.5h-169q-55 84 -98.5 157.5t-77 143.5t-57 139.5t-38.5 144.5t-22 158.5t-7 182.5q0 120 17 232t53.5 218t93.5 206.5t136 198.5h165z" />
<glyph unicode=")" horiz-adv-x="681" d="M111 -365q30 54 56.5 109.5t48 117.5t38 133t28 156t17.5 187.5t6 227.5q0 127 -9 232.5t-32 204.5t-61.5 198.5t-96.5 214.5h170q82 -126 139.5 -231t92.5 -210t51 -221t16 -264q0 -120 -17 -232.5t-53.5 -218t-93 -206.5t-135.5 -198h-165z" />
<glyph unicode="*" horiz-adv-x="1014" d="M647 761l-110 143q-5 7 -9.5 13t-9.5 14q-5 -10 -11.5 -18.5t-12.5 -17.5l-111 -135l-135 86l112 140q5 7 10 13t13 13q-11 2 -20.5 5.5t-20.5 5.5l-180 52l49 140l182 -52q10 -3 19 -5t18 -6q-2 8 -2 17.5v19.5v171h164v-171v-16.5t-2 -16.5q9 2 19.5 5t23.5 7l176 54 l55 -144l-184 -49q-9 -3 -18.5 -5.5t-18.5 -2.5q8 -7 15.5 -15t13.5 -18l110 -138z" />
<glyph unicode="+" horiz-adv-x="1026" d="M399 907h226v-346h348v-204h-348v-357h-226v357h-346v204h346v346z" />
<glyph unicode="," horiz-adv-x="687" d="M207 -186q36 3 63.5 18.5t46 40.5t27 57t6.5 70h-143v243h270v-238q0 -118 -67 -187.5t-203 -84.5v81z" />
<glyph unicode="-" horiz-adv-x="699" d="M98 470v212h488v-212h-488z" />
<glyph unicode="." horiz-adv-x="675" d="M207 0v243h270v-243h-270z" />
<glyph unicode="/" horiz-adv-x="589" d="M461 1382h178l-483 -1556h-179z" />
<glyph unicode="0" horiz-adv-x="1018" d="M385 371q-3 -58 5.5 -96t26 -60t41.5 -31t52 -9t53.5 9t43.5 31t27.5 60t6.5 96v621q3 57 -6.5 94.5t-27.5 59.5t-43.5 30.5t-53.5 8.5t-52 -8.5t-41.5 -30.5t-26 -59.5t-5.5 -94.5v-621zM98 992q0 109 28.5 185t82 122.5t130.5 67.5t175 21q97 0 173.5 -21t130 -67.5 t82 -122.5t28.5 -185v-621q0 -110 -28.5 -186.5t-82 -123.5t-131 -68t-174.5 -21t-173.5 21t-130 68t-82 123.5t-28.5 186.5v621z" />
<glyph unicode="1" horiz-adv-x="1035" d="M436 958h-346v185q75 1 142 11.5t122 37.5t96 73t62 117h211v-1382h-287v958z" />
<glyph unicode="2" horiz-adv-x="1035" d="M66 0q2 45 7.5 109.5t16.5 124.5q7 36 25.5 77.5t50.5 90t80 103.5t114 118l140 133q34 34 60.5 61t44.5 56t27 64t9 84q0 47 -10 78.5t-28 50.5t-43 27t-56 8q-45 0 -81.5 -15t-51.5 -53q-11 -23 -15.5 -47t-6 -49t-1 -50t-0.5 -49h-268v38q0 30 1.5 74t13 92t37.5 95 t74.5 84.5t123.5 60.5t186 22q91 -1 166.5 -25.5t130 -71t85 -112.5t30.5 -149q0 -115 -46.5 -205.5t-136.5 -172.5l-225 -209q-22 -21 -48 -48t-48 -58t-37 -65t-16 -70h534v-202h-839z" />
<glyph unicode="3" horiz-adv-x="1044" d="M350 841q45 2 91.5 2.5t88.5 16.5q29 13 46.5 31.5t26.5 41t12 47t3 50.5q0 80 -33 117.5t-104 37.5q-22 0 -45.5 -4.5t-43.5 -16.5t-33.5 -33.5t-14.5 -54.5v-98h-268q-6 96 15 172.5t70.5 129t128.5 80.5t189 28q108 0 187 -24.5t130.5 -71t76 -112.5t24.5 -148 q0 -45 -10.5 -92t-34 -87.5t-62 -69.5t-94.5 -37v-4q51 -5 94 -28.5t74 -65t48 -101.5t16 -139q0 -102 -25.5 -182.5t-79.5 -137t-139 -86.5t-203 -30q-99 0 -169.5 20t-118 53t-75 76t-41.5 88t-17.5 89t-2.5 80v81h269q1 -28 1 -60.5t3 -64t10.5 -60.5t25 -51t46.5 -35 t75 -13q59 0 90.5 23t45.5 59.5t16 83.5t2 95q0 16 -1 36t-4 40.5t-9.5 39t-18.5 30.5q-20 22 -51.5 33.5t-67.5 16.5t-72.5 5.5t-66.5 0.5v203z" />
<glyph unicode="4" horiz-adv-x="1038" d="M545 483v560h-4l-283 -560h287zM831 1360v-877h132v-203h-132v-280h-286v280h-498v203l465 877h319z" />
<glyph unicode="5" horiz-adv-x="1023" d="M90 636l39 724h739v-203h-518l-18 -295q26 23 50.5 38t51 24t56 12.5t65.5 3.5q84 0 145 -20t103.5 -55t69 -81.5t41 -99.5t19.5 -109.5t5 -111.5q0 -118 -20.5 -209.5t-70 -154t-131 -95t-202.5 -32.5q-131 0 -216 27.5t-134.5 84.5t-69 144t-18.5 207h268q1 -37 2 -81 t13 -83t41 -66t87 -30q64 -3 97 22.5t47.5 67.5t16 95t3.5 104q4 83 -6.5 136t-32 83.5t-54 42t-71.5 11.5q-27 0 -51.5 -7.5t-44 -21t-32 -32t-15.5 -40.5h-254z" />
<glyph unicode="6" horiz-adv-x="1032" d="M373 479q-1 -64 0.5 -121.5t15 -99.5t44 -65t87.5 -18q56 1 84 23.5t39 63t10.5 96t-0.5 121.5v81t-11.5 81t-40.5 62t-87 25q-53 0 -81.5 -23t-42 -59t-15.5 -80t-2 -87zM86 830q0 165 27 273t81.5 171t138 88.5t197.5 25.5q85 0 156 -18t121.5 -55.5t77.5 -97 t24 -141.5h-266q-1 17 -3.5 37.5t-14.5 37t-36.5 27t-68.5 7.5q-41 -3 -67.5 -17.5t-43 -36t-24.5 -48.5t-11 -54.5t-3.5 -54t-1.5 -47.5v-88q18 16 36.5 32.5t44 30t60 21.5t84.5 8q91 0 156.5 -28t107.5 -82.5t62 -135.5t20 -187q0 -130 -19.5 -228.5t-68 -164.5 t-130.5 -99.5t-206 -33.5q-128 0 -212 36.5t-133 105t-68 165.5t-17 219v332z" />
<glyph unicode="7" horiz-adv-x="1020" d="M66 1360h864v-186q-102 -163 -170.5 -330t-116.5 -339q-35 -124 -59.5 -250.5t-30.5 -254.5h-295q9 109 31.5 216.5t54.5 213t72.5 209t85.5 205.5q12 28 31.5 67t42.5 82t49.5 86t52.5 78h-612v203z" />
<glyph unicode="8" horiz-adv-x="1038" d="M371 383q0 -44 3 -81t17 -65t43 -44.5t82 -17.5q52 3 80.5 23.5t41.5 52t15 71.5t2 84q0 49 -3 93t-17 77.5t-43 53t-80 19.5q-56 -1 -85 -21t-41.5 -55.5t-13.5 -84t-1 -105.5zM514 833q46 0 71.5 19t38 48.5t15 64t2.5 65.5q0 80 -33.5 117.5t-89.5 37.5q-41 0 -67 -14 t-40.5 -37.5t-20 -55t-5.5 -66.5q0 -31 3.5 -63t17 -57.5t39 -42t69.5 -16.5zM299 748q-46 22 -80 47.5t-56 62t-33 87.5t-11 124q0 55 21 112t68.5 103t123 75t184.5 29q107 0 181.5 -22.5t121 -67.5t67.5 -111.5t21 -154.5q0 -55 -8 -98.5t-30 -78.5t-59.5 -62t-96.5 -49 v-3q66 -13 110 -40.5t70.5 -71t37.5 -103t11 -134.5q0 -115 -29 -195t-83.5 -130t-132.5 -72.5t-175 -22.5q-122 0 -205.5 26t-135.5 78.5t-74.5 131t-22.5 183.5q0 77 11.5 133.5t37.5 98.5t66.5 72t99.5 53z" />
<glyph unicode="9" horiz-adv-x="1056" d="M653 881q1 64 -0.5 121.5t-15 99.5t-44 65t-87.5 18q-56 -1 -84 -23.5t-39 -63t-10.5 -96t0.5 -121.5v-81.5t11.5 -80.5t40.5 -62t87 -25q53 0 81.5 23t42 59t15.5 80t2 87zM940 531q0 -165 -26.5 -273t-81 -171.5t-137.5 -89t-197 -25.5q-85 0 -156 18t-121.5 56 t-77.5 96.5t-24 140.5h266q1 -17 4 -37t15.5 -36.5t37 -26.5t68.5 -8q40 0 67 13.5t43 35t24 49.5t11 56.5t3 55.5t1 48v89q-18 -17 -36.5 -33.5t-44 -30t-60 -21.5t-84.5 -8q-183 0 -265.5 110.5t-82.5 322.5q0 130 20 228.5t68.5 164.5t130.5 99.5t207 33.5 q128 0 211.5 -36.5t132 -104.5t67 -165.5t17.5 -219.5v-331z" />
<glyph unicode=":" horiz-adv-x="586" d="M150 781v244h270v-244h-270zM150 0v243h270v-243h-270z" />
<glyph unicode=";" horiz-adv-x="584" d="M150 -186q36 3 63.5 18.5t46 40.5t27 57t6.5 70h-143v243h270v-238q0 -118 -67 -187.5t-203 -84.5v81zM150 781v244h270v-244h-270z" />
<glyph unicode="&#x3c;" horiz-adv-x="1035" d="M940 160v-204l-854 415v182l854 418v-204l-608 -308z" />
<glyph unicode="=" horiz-adv-x="1029" d="M973 536h-920v203h920v-203zM973 177h-920v203h920v-203z" />
<glyph unicode="&#x3e;" horiz-adv-x="1020" d="M694 459l-608 308v204l854 -418v-182l-854 -415v204z" />
<glyph unicode="?" horiz-adv-x="1032" d="M106 1020q-6 102 18.5 176.5t76.5 123t129 72.5t176 24q91 0 164 -24t124.5 -68.5t79 -108t27.5 -142.5q0 -53 -9 -94.5t-26.5 -78t-44 -71.5t-61.5 -75q-37 -35 -70.5 -70t-71.5 -70q-24 -26 -38 -55.5t-22 -60t-10.5 -63t-2.5 -64.5h-240q-2 32 0.5 63.5t5.5 63.5 q6 66 27 113.5t52.5 88.5t70 80.5t78.5 87.5q23 28 38 51t24 46t13 49t4 61q0 81 -27 115t-89 34q-47 0 -73 -9.5t-42 -32.5q-12 -19 -16.5 -39.5t-6 -41t-1.5 -41t-3 -40.5h-254zM561 239v-239h-260v239h260z" />
<glyph unicode="@" horiz-adv-x="1725" d="M1520 291q-56 -75 -124.5 -135t-147.5 -102t-168 -64.5t-186 -22.5q-113 0 -217.5 26.5t-195 75.5t-165 118t-127.5 155t-82 186.5t-29 211.5q0 109 28.5 207.5t80.5 183t125 153t162.5 117t192.5 74.5t215 26q139 0 264 -38.5t231 -125.5q53 -43 96 -93t74 -107 t47.5 -120.5t16.5 -132.5q0 -120 -37.5 -225t-124.5 -191q-30 -30 -74 -60.5t-93.5 -55.5t-100.5 -40.5t-96 -15.5q-20 0 -38 8.5t-30.5 24.5t-17.5 38.5t1 51.5l-4 4q-66 -60 -126 -89.5t-123 -29.5q-81 0 -144.5 28t-107.5 77t-67.5 114.5t-23.5 140.5q0 89 30.5 173 t86.5 148.5t135.5 103.5t177.5 39q80 0 145 -28t112 -91l22 102h198l-106 -600q-7 -28 7 -37.5t32 -2.5q13 3 30.5 15t36 29t37.5 38t35 43q10 15 22 40t22.5 56t17.5 66t8 69q4 124 -37.5 222t-118.5 166t-185 104.5t-236 36.5q-141 0 -258.5 -46t-202 -128t-132 -195 t-47.5 -247q0 -142 52 -258t143 -198.5t214.5 -127.5t265.5 -45q60 0 116 14t107.5 38t99.5 57t91 71h195zM1022 724q3 44 -4.5 85.5t-27.5 73t-53.5 49.5t-81.5 14q-47 -3 -87.5 -25t-70.5 -55.5t-48.5 -77t-21.5 -89.5q-3 -49 7 -86.5t29.5 -64.5t47 -42.5t59.5 -19.5 q57 -8 102.5 12.5t77.5 57t50 82t22 86.5z" />
<glyph unicode="A" horiz-adv-x="1121" d="M18 0l367 1382h387l348 -1382h-307l-76 350h-336l-75 -350h-308zM446 553h246l-78 393q-11 48 -16.5 95.5t-11.5 96.5q-2 23 -4.5 46t-6.5 45h-4q-3 -22 -5.5 -45t-4.5 -46q-6 -49 -12 -96.5t-17 -95.5z" />
<glyph unicode="B" horiz-adv-x="1151" d="M481 202h89.5t82.5 16q29 11 46.5 32.5t26.5 48t12 55.5t3 55q0 56 -8 96.5t-30.5 66t-64 37.5t-108.5 12h-110v-419h61zM473 823q26 0 55 0.5t57 4.5t52 14t41 30q20 26 25.5 62.5t5.5 86.5q0 39 -6 68t-23 48.5t-47.5 30t-79.5 12.5h-133v-357h53zM133 0v1382h463 q46 0 91 -2.5t87 -12.5t79.5 -30.5t68.5 -55.5q24 -29 39 -58t23 -60t10.5 -63.5t2.5 -67.5q0 -45 -7 -88.5t-26.5 -81.5t-56 -69t-94.5 -51v-3q61 -8 103.5 -33.5t69 -67t38.5 -97.5t12 -123q0 -43 -4 -85.5t-16 -84.5q-23 -65 -56 -112t-79 -77t-105.5 -44.5t-136.5 -14.5 h-506z" />
<glyph unicode="C" horiz-adv-x="1154" d="M1049 492q-2 -20 -3.5 -40t-3.5 -39q-5 -95 -27.5 -176.5t-71.5 -141.5t-129 -94t-200 -34q-118 0 -201 21.5t-138.5 62t-87.5 97.5t-48.5 127.5t-21 154t-4.5 175.5v197q3 88 9.5 167.5t24 148t50 123.5t87 94t135 60t195.5 21q193 -3 299 -91.5t121 -266.5 q3 -26 5.5 -52.5t0.5 -52.5h-282q-3 22 -5 49.5t-6.5 55.5t-12.5 55t-22.5 48t-38.5 33.5t-59 12.5q-56 0 -93.5 -18.5t-60 -48t-33.5 -67.5t-15.5 -76.5t-4 -74.5t0.5 -63v-384q0 -28 1.5 -61.5t8 -67t20 -64.5t36 -54.5t57 -38t83.5 -14.5q39 0 65 17.5t41.5 45.5 t23.5 62.5t11 70t3 67.5t2 54h289z" />
<glyph unicode="D" horiz-adv-x="1261" d="M559 202q96 0 150.5 25.5t81.5 85.5t33.5 160.5t6.5 250.5q0 122 -8.5 208.5t-31 141.5t-63.5 80.5t-105 25.5h-189v-978h125zM147 0v1382h598q26 0 63.5 -6.5t78.5 -23.5t81.5 -47.5t73.5 -78.5q49 -73 66.5 -190t17.5 -288q0 -68 -1 -139t-7.5 -139.5t-21 -133 t-40.5 -121t-66 -102t-99 -76.5q-48 -25 -103.5 -31t-109.5 -6h-531z" />
<glyph unicode="E" horiz-adv-x="1038" d="M131 0v1382h807v-202h-520v-348h479v-204h-479v-426h520v-202h-807z" />
<glyph unicode="F" horiz-adv-x="1038" d="M150 0v1382h813v-202h-527v-350h494v-204h-494v-626h-286z" />
<glyph unicode="G" horiz-adv-x="1252" d="M113 802q3 88 9.5 167.5t24 148t50 123.5t87 94t135 60t195.5 21q92 -1 169.5 -14t139 -46.5t105 -91t68.5 -147.5q11 -42 11.5 -84t2.5 -84h-287q-2 52 -7 98t-25.5 80.5t-62 55.5t-114.5 24q-56 0 -93.5 -18.5t-60 -48t-33.5 -67.5t-15.5 -76.5t-4 -74.5t0.5 -63v-384 q0 -28 1.5 -61.5t8 -67t20 -64.5t36 -54.5t57 -38t83.5 -14.5q61 0 102.5 28t66.5 76.5t34.5 115.5t7.5 145h-198v202h477v-742h-215v158h-4q-22 -54 -52 -89.5t-65.5 -57.5t-75 -31.5t-78.5 -12.5q-118 0 -201 21.5t-138.5 62t-87.5 97.5t-48.5 127.5t-21 154t-4.5 175.5 v197z" />
<glyph unicode="H" horiz-adv-x="1264" d="M139 0v1382h287v-547h401v547h287v-1382h-287v632h-401v-632h-287z" />
<glyph unicode="I" horiz-adv-x="568" d="M141 0v1382h287v-1382h-287z" />
<glyph unicode="J" horiz-adv-x="895" d="M303 438v-171q1 -18 5.5 -35t15 -29.5t28 -20t43.5 -7.5q39 0 60 12t31 32.5t12 46.5t2 54v1062h286v-1008v-76.5t-7 -84t-24.5 -83t-52.5 -73.5q-32 -30 -70.5 -48t-83.5 -27.5t-94.5 -12t-101.5 -2.5q-38 0 -78 7t-78.5 23.5t-74 44t-64.5 67.5q-13 18 -22 54t-14.5 81 t-6.5 95.5t2 98.5h287z" />
<glyph unicode="K" horiz-adv-x="1163" d="M139 0v1382h287v-613h4q17 40 38.5 83t45.5 85.5t48.5 84t47.5 79.5l168 281h324l-379 -593l397 -789h-323l-271 545l-100 -149v-396h-287z" />
<glyph unicode="L" horiz-adv-x="1040" d="M139 0v1382h287v-1180h532v-202h-819z" />
<glyph unicode="M" horiz-adv-x="1588" d="M424 0h-287v1382h457l154 -641q18 -79 30.5 -158.5t22.5 -160.5h4q5 51 10 95t10 82.5t11 73t14 68.5l154 641h454v-1382h-287v435q0 207 5.5 412t19.5 412h-4l-307 -1259h-174l-301 1259h-11q14 -207 19.5 -412t5.5 -412v-435z" />
<glyph unicode="N" horiz-adv-x="1252" d="M825 1382h287v-1382h-299l-223 492q-29 61 -55 124t-50.5 130t-49.5 140t-50 155h-4q8 -86 16 -187t15 -207q6 -105 10 -204t4 -183v-260h-287v1382h297l223 -503q28 -60 53.5 -122t50.5 -128.5t50 -140.5t51 -158h4q-8 94 -15 193t-13 200q-7 100 -11 197.5t-4 190.5 v271z" />
<glyph unicode="O" horiz-adv-x="1255" d="M125 802q3 88 9.5 167.5t24 148t50 123.5t87 94t135.5 60t196 21q114 0 195 -21t135.5 -60t87 -94t50 -123.5t24 -148t9.5 -167.5v-197q0 -92 -4.5 -175.5t-21 -154t-48.5 -127.5t-87.5 -97.5t-138.5 -62t-201 -21.5t-201 21.5t-138.5 62t-88 97.5t-49 127.5t-21 154 t-4.5 175.5v197zM420 475q0 -28 1.5 -61.5t8 -67t20 -64.5t36.5 -54.5t57.5 -38t83.5 -14.5q51 0 86 14.5t58 39.5t36 57.5t19 68.5t7 73t1 70v353q0 28 -0.5 65t-6 76.5t-17.5 78t-35 69t-59 49t-89 18.5q-57 0 -94 -18.5t-60 -48t-34 -67.5t-15.5 -76.5t-4 -74.5t0.5 -63 v-384z" />
<glyph unicode="P" horiz-adv-x="1151" d="M426 781h154q47 0 85.5 10.5t65.5 35t42 66t15 104.5q0 60 -13.5 96t-41.5 55.5t-71.5 25.5t-104.5 6h-131v-399zM139 0v1382h586q103 0 171.5 -34t110 -89.5t59 -126t17.5 -142.5q0 -44 -7 -90t-23.5 -89.5t-44 -82t-68.5 -67.5q-34 -24 -73 -40t-80.5 -25.5t-84 -13.5 t-84.5 -3h-192v-579h-287z" />
<glyph unicode="Q" horiz-adv-x="1258" d="M1057 -131l-160 140q-53 -24 -117 -33t-153 -9q-118 0 -201 21.5t-138.5 62t-88 97.5t-49 127.5t-21 154t-4.5 175.5v197q3 88 9.5 167.5t24 148t50 123.5t87 94t135.5 60t196 21q114 0 195 -21t135.5 -60t87 -94t50 -123.5t24 -148t9.5 -167.5v-197q0 -67 -2.5 -134 t-11.5 -129t-25.5 -116t-44.5 -94l158 -141zM801 350l14 -13q8 32 12 68.5t4 69.5l3 384q0 27 0.5 63t-4 74.5t-15.5 76.5t-34 67.5t-60.5 48t-93.5 18.5q-57 0 -94 -18.5t-60 -48t-34 -67.5t-15.5 -76.5t-4 -74.5t0.5 -63v-384q0 -28 1.5 -61.5t8 -67t20 -64.5t36.5 -54.5 t57.5 -38t83.5 -14.5q21 0 39.5 2.5t33.5 6.5l-55 48z" />
<glyph unicode="R" horiz-adv-x="1267" d="M422 596v-596h-287v1382h543q93 0 172.5 -16t138 -54.5t92 -102t33.5 -159.5q0 -57 -9.5 -112.5t-36 -101.5t-72 -78t-117.5 -41v-3q64 -8 106.5 -29.5t68 -54t36 -75t10.5 -92.5q0 -14 -0.5 -49t1 -80.5t4.5 -95t9.5 -93.5t18 -76.5t28.5 -42.5v-26h-315 q-13 33 -19.5 79t-8.5 94.5t-2 95t-1 81.5q-1 32 -2.5 67.5t-10.5 68t-28.5 57t-56.5 34.5q-59 16 -120.5 17.5t-123.5 1.5h-51zM422 798h225q35 2 66 14t53.5 36t35.5 60.5t13 88.5q0 58 -13 93.5t-36.5 55t-57 26.5t-73.5 8h-213v-382z" />
<glyph unicode="S" horiz-adv-x="1148" d="M725 962q1 46 -3 90t-21 78.5t-51 55.5t-93 21q-72 0 -115 -29t-43 -100q0 -39 13 -67.5t35.5 -51t52 -41t63.5 -37.5q35 -20 82.5 -48t96.5 -59t94 -62.5t75 -57.5q37 -32 62 -64.5t40 -67.5t21 -73.5t6 -83.5q0 -98 -34.5 -172.5t-96.5 -124.5t-149.5 -75.5 t-192.5 -25.5q-129 0 -218 31t-144.5 86.5t-80 132.5t-24.5 170v102h287v-81q-2 -51 6 -93.5t29 -73.5t56.5 -48.5t88.5 -17.5q91 0 134.5 41.5t43.5 120.5q0 61 -29 104.5t-85 78.5q-56 39 -117.5 74.5t-121.5 72.5t-115 78.5t-99 93.5q-35 47 -54.5 101t-19.5 110 q0 178 112 272t339 94q114 0 191.5 -24t127 -63t75.5 -88.5t37.5 -100t12.5 -97.5t2 -81h-276z" />
<glyph unicode="T" horiz-adv-x="1029" d="M35 1382h956v-202h-334v-1180h-286v1180h-336v202z" />
<glyph unicode="U" horiz-adv-x="1255" d="M827 1382h287v-964q0 -115 -23 -199.5t-79 -140.5t-149 -83.5t-234 -27.5q-142 0 -236.5 27.5t-150.5 83.5t-79.5 140.5t-23.5 199.5v964h287v-942q0 -50 4.5 -97.5t25 -84.5t61.5 -60t114 -23q70 0 109 23t58.5 60t24 84.5t4.5 97.5v942z" />
<glyph unicode="V" horiz-adv-x="1103" d="M791 1382h307l-332 -1382h-383l-340 1382h307l180 -886q13 -59 21 -117.5t14 -118.5q3 -28 8 -56.5t5 -57.5h4q0 29 4.5 57.5t7.5 56.5q6 60 14 118.5t21 117.5z" />
<glyph unicode="W" horiz-adv-x="1701" d="M1126 667q22 -104 35 -231t29 -261h4q3 25 5 49.5t5 49.5q8 89 18 177t25 177l115 754h297l-285 -1382h-344l-115 545q-23 110 -34.5 220t-26.5 221h-4q-16 -111 -27.5 -221t-34.5 -220l-102 -545h-344l-293 1382h297l129 -754q16 -89 25.5 -177t17.5 -177 q3 -25 4.5 -49.5t3.5 -49.5h4q17 133 30.5 260.5t35.5 231.5l139 715h238z" />
<glyph unicode="X" horiz-adv-x="1139" d="M1116 0h-328l-163 337q-20 42 -35 86t-25 89h-4q-9 -69 -38 -132t-60 -125l-127 -255h-313l376 700l-362 682h321l156 -313q20 -43 36.5 -84.5t18.5 -89.5h6q3 34 13 66.5t23.5 64t28.5 62t30 60.5l110 234h324l-369 -682z" />
<glyph unicode="Y" horiz-adv-x="1148" d="M500 1020q23 -52 40.5 -104.5t26.5 -108.5h4q8 40 19 75t23.5 67t26 61.5t26.5 58.5l137 313h313l-405 -794v-588h-287v588l-399 794h313z" />
<glyph unicode="Z" horiz-adv-x="1032" d="M68 206l493 858q19 30 36.5 61t43.5 60q-28 -4 -55.5 -4.5t-55.5 -0.5h-430v202h840v-206l-494 -857q-18 -31 -35.5 -62t-43.5 -60q27 4 54.5 4.5t55.5 0.5h481v-202h-890v206z" />
<glyph unicode="[" horiz-adv-x="728" d="M166 -174v1556h407v-140h-182v-1275h182v-141h-407z" />
<glyph unicode="\" horiz-adv-x="511" d="M588 -174h-178l-484 1556h178z" />
<glyph unicode="]" horiz-adv-x="681" d="M516 1382v-1556h-407v141h182v1275h-182v140h407z" />
<glyph unicode="^" horiz-adv-x="1032" d="M20 688l369 694h246l369 -694l-213 -87l-279 514l-279 -514z" />
<glyph unicode="_" horiz-adv-x="1024" d="M0 -230v91h1024v-91h-1024z" />
<glyph unicode="`" horiz-adv-x="672" d="M319 1428l193 -269h-207l-303 269h317z" />
<glyph unicode="a" horiz-adv-x="1029" d="M649 0q-14 25 -16.5 52t0.5 55h-4q-23 -32 -49.5 -57.5t-57.5 -42.5q-29 -16 -61 -25.5t-66 -9.5q-161 0 -235 75.5t-74 235.5q0 90 32.5 148.5t87 99t126 68.5t149.5 57q42 16 71 33t45.5 37.5t20 46t-5.5 57.5q-9 35 -40 44t-85 9q-45 0 -72.5 -10.5t-42.5 -30 t-20 -47.5t-4 -63h-254q-1 74 15 135.5t61 106t124 69t204 24.5q90 0 154 -13.5t106.5 -36t67 -53t37 -65t15 -70t1.5 -69.5v-614q0 -38 5.5 -74t16.5 -72h-252zM612 547q-49 -30 -105.5 -62t-109.5 -70q-29 -23 -37 -57.5t-8 -67.5q0 -30 5.5 -54.5t20 -42t38.5 -27 t61 -9.5q40 0 64.5 13.5t39 36.5t21 52t8 60t1 61t1.5 55v112z" />
<glyph unicode="b" horiz-adv-x="1026" d="M397 341q0 -91 32 -137.5t97 -46.5q31 0 52 14t35 38t21 56.5t9 70.5v346q-3 39 -4.5 75t-12 64t-34 45t-70.5 17t-73 -24.5t-38 -60t-14 -75.5t0 -71v-311zM131 1382h266v-332q0 -25 -2 -51.5t-4 -64.5h4q20 37 44 63t53 41.5t64 22.5t77 6q64 -1 114.5 -18.5 t85.5 -59.5t54.5 -112.5t21.5 -178.5v-376q-2 -62 -14 -124.5t-42 -112.5t-83 -81.5t-137 -31.5q-42 2 -76.5 9.5t-64.5 23t-55.5 41.5t-47.5 65h-4v-111h-254v1382z" />
<glyph unicode="c" horiz-adv-x="919" d="M559 679v116q-3 42 -26 65t-66 23q-38 0 -59 -18.5t-30 -50t-10.5 -73.5t-0.5 -90v-245q-3 -77 1 -124t16 -73.5t32.5 -37.5t50.5 -14q31 0 48 12.5t26 33.5t12 48.5t6 58.5v96h266v-96q0 -82 -20 -145t-63.5 -106t-112.5 -65t-168 -22q-89 0 -157.5 22t-115 69 t-69.5 120.5t-19 177.5v337q-1 109 27 180.5t76.5 113.5t115 58.5t142.5 16.5q100 0 170 -26t113.5 -69t62.5 -98t18 -113v-82h-266z" />
<glyph unicode="d" horiz-adv-x="1017" d="M621 652q1 31 -0.5 71t-13.5 75.5t-38 60t-73 24.5t-70.5 -17t-34 -45t-12 -64t-4.5 -75v-346q2 -38 9 -70.5t21 -56.5t35 -38t52 -14q65 0 97 46.5t32 137.5v311zM621 111h-5q-19 -40 -42.5 -66t-52 -41.5t-62 -22.5t-72.5 -9q-84 0 -137.5 31.5t-84 81.5t-42.5 112.5 t-14 124.5v376q2 108 21.5 178.5t55 112.5t86 59.5t115.5 18.5q42 1 77 -6t64 -22.5t53 -41.5t44 -63h4q-5 24 -6.5 46.5t-1.5 46.5v355h266v-1382h-266v111z" />
<glyph unicode="e" horiz-adv-x="1024" d="M109 682q-5 92 18.5 163.5t73 121t124.5 75t173 25.5q139 0 220 -31.5t123 -90.5t54 -144t12 -191v-140h-532v-151q1 -51 11.5 -82.5t29 -49.5t43.5 -24t55 -6q73 0 99.5 48.5t23.5 146.5h266q4 -87 -15 -157.5t-63.5 -120t-116 -76t-173.5 -26.5q-116 0 -197.5 25 t-133.5 78.5t-75 136t-20 197.5v273zM641 654v90q-1 40 -8 66.5t-22.5 42.5t-42 23t-66.5 7q-50 0 -76 -16t-37.5 -42t-12.5 -59.5t-1 -68.5v-43h266z" />
<glyph unicode="f" horiz-adv-x="586" d="M43 865v174h102v104q0 70 16.5 116.5t51 73.5t87.5 38t126 11h100v-191q-15 4 -31 7t-28 3q-29 0 -42 -11t-13 -29v-122h114v-174h-114v-865h-267v865h-102z" />
<glyph unicode="g" horiz-adv-x="1023" d="M621 652q1 31 -0.5 71t-13.5 75.5t-38 60t-73 24.5t-70.5 -17t-34 -45t-12 -64t-4.5 -75v-346q2 -38 9 -70.5t21 -56.5t35 -38t52 -14q65 0 97 46.5t32 137.5v311zM387 -116q0 -17 8.5 -28t22.5 -18q15 -9 36 -12t46 -3q42 0 68 14t40.5 37t19.5 52.5t5 59.5v119l-4 4 q-20 -38 -44.5 -63t-54.5 -41t-66 -23.5t-79 -9.5q-84 0 -137 31t-83 81t-42 112t-14 124v377q2 107 21.5 178t54.5 113t85 60t115 19q91 2 147.5 -30.5t83.5 -104.5h5v107h266v-1008q0 -80 -16 -149t-62.5 -121t-131 -81.5t-220.5 -29.5q-66 0 -125 12t-104 39t-73.5 72 t-33.5 111h266z" />
<glyph unicode="h" horiz-adv-x="1026" d="M125 0v1382h266v-450h4q28 46 61.5 72.5t66 40.5t62 18t50.5 4q57 0 106.5 -15.5t86 -47.5t56.5 -82t17 -120v-802h-266v712q0 38 -3.5 69t-15 53t-34 34.5t-60.5 14.5q-38 1 -63.5 -13t-41 -40t-22 -61.5t-4.5 -77.5v-691h-266z" />
<glyph unicode="i" horiz-adv-x="574" d="M152 0v1039h266v-1039h-266zM152 1165v217h266v-217h-266z" />
<glyph unicode="j" horiz-adv-x="565" d="M63 -166q47 -2 73 7.5t26 47.5v1150h266v-1044q0 -41 1.5 -89.5t-6.5 -95t-31.5 -85t-72.5 -59.5q-29 -12 -97 -17.5t-159 1.5v184zM162 1165v217h266v-217h-266z" />
<glyph unicode="k" horiz-adv-x="916" d="M98 0v1382h267v-624q0 -33 -1.5 -66t-3.5 -66h5l251 413h291l-291 -418l283 -621h-297l-166 424l-71 -107v-317h-267z" />
<glyph unicode="l" horiz-adv-x="561" d="M152 0v1382h266v-1382h-266z" />
<glyph unicode="m" horiz-adv-x="1591" d="M401 932h5q22 43 52.5 69t64 40.5t69 19.5t67.5 6q37 1 78 -6.5t76 -23.5t60.5 -42t31.5 -63h4q39 69 103 102t164 33q73 0 126.5 -19t88 -50t51 -70.5t16.5 -81.5v-846h-266v702q0 35 -3.5 68.5t-16 59t-38 40.5t-69.5 13q-43 -2 -69.5 -16.5t-41 -40t-19.5 -61.5 t-5 -81v-684h-266v715q0 34 -3.5 65t-16.5 54t-39.5 36.5t-72.5 12.5q-47 -1 -73 -16t-39 -41.5t-16 -62.5t-3 -79v-684h-266v1039h266v-107z" />
<glyph unicode="n" horiz-adv-x="1023" d="M391 932h4q22 45 54 71.5t65.5 41t65.5 18.5t55 4q57 0 106.5 -15.5t86 -47.5t56.5 -82t17 -120v-802h-266v693q0 38 -3.5 69t-15 53.5t-34 35t-60.5 14.5q-38 1 -63.5 -13.5t-41 -40.5t-22 -61.5t-4.5 -76.5v-673h-266v1039h266v-107z" />
<glyph unicode="o" horiz-adv-x="1009" d="M375 339q0 -48 4 -82t18 -56.5t42.5 -33t76.5 -10.5q46 0 72.5 10.5t40 33t17 56.5t3.5 82v347q0 36 -2 71.5t-14.5 63.5t-39.5 45t-77 17q-53 0 -81.5 -17t-42 -45t-15.5 -63.5t-2 -71.5v-347zM516 -28q-132 0 -212 28.5t-123.5 90t-57.5 158.5t-14 234q0 89 2.5 167 t14.5 143t37 115.5t70 86t114 54t169 18.5q101 0 169.5 -19.5t113 -56t68 -90t34.5 -121t12.5 -149t1.5 -173.5q0 -131 -15 -223t-58.5 -150.5t-121.5 -85.5t-204 -27z" />
<glyph unicode="p" horiz-adv-x="1023" d="M385 341q0 -91 32 -137.5t97 -46.5q31 0 52 14t35 38t21 56.5t9 70.5v346q-3 39 -4.5 75t-12 64t-34 45t-70.5 17t-73 -24.5t-38 -60t-14 -75.5t0 -71v-311zM385 931h4q37 76 92.5 107t139.5 29q64 -1 114.5 -19t85.5 -61t54.5 -114t21.5 -178v-376q-2 -62 -14 -124 t-42 -111.5t-83 -80.5t-137 -31q-39 2 -73 8.5t-64 21.5t-56.5 40.5t-50.5 64.5h-4v-455h-254v1387h266v-108z" />
<glyph unicode="q" horiz-adv-x="1017" d="M614 652q1 31 -0.5 71t-13.5 75.5t-38 60t-73 24.5t-70 -17t-33.5 -45t-12 -64t-4.5 -75v-346q2 -38 9 -70.5t20.5 -56.5t34.5 -38t52 -14q65 0 97 46.5t32 137.5v311zM881 -347h-267v458h-4q-19 -39 -42.5 -65t-52 -41.5t-62.5 -23t-74 -9.5q-84 0 -137 31.5t-83 81.5 t-42 112.5t-15 124.5v376q3 108 22 178.5t54.5 112.5t85.5 59.5t115 18.5q41 1 75.5 -5.5t63 -22t51.5 -41.5t41 -64h4v105h267v-1386z" />
<glyph unicode="r" horiz-adv-x="687" d="M379 855h4q25 57 50 91t54 57q28 21 52.5 32.5t44.5 16t37 5.5t32 1v-284q-55 5 -102.5 0t-83 -24.5t-56.5 -55.5t-22 -93v-601h-266v1039h256v-184z" />
<glyph unicode="s" horiz-adv-x="886" d="M326 343q-8 -72 1.5 -110t29 -55t44.5 -19t48 -2q28 0 51.5 8.5t39 24t21 37t-1.5 46.5q-2 22 -15 39.5t-32.5 32.5t-42 27t-41.5 24l-145 91q-50 31 -90.5 65t-69.5 73.5t-44.5 86t-15.5 102.5q0 121 102.5 187t295.5 66t284 -88.5t86 -255.5h-266q4 87 -24.5 123.5 t-98.5 36.5q-47 0 -79.5 -20.5t-32.5 -64.5q0 -23 8.5 -40t22.5 -31t32 -25.5t37 -22.5l217 -134q25 -13 55.5 -36.5t57.5 -52t46.5 -59t22.5 -56.5q9 -68 0 -134t-50.5 -118.5t-124 -84.5t-220.5 -32q-35 0 -78.5 5.5t-88 20.5t-85.5 41t-70.5 67t-45 99.5t-7.5 137.5h267z " />
<glyph unicode="t" horiz-adv-x="571" d="M516 -4q-39 -4 -82.5 -7t-86 -1t-80.5 11t-67 29t-46 52t-17 80v705h-108v174h106v287h268v-287h113v-174h-113v-645q3 -17 16 -25t30.5 -11t36 -2t30.5 2v-188z" />
<glyph unicode="u" horiz-adv-x="978" d="M629 155h-4q-31 -94 -91 -137.5t-157 -45.5q-79 0 -129.5 18t-79 52.5t-39 85t-10.5 115.5v796h266v-711q0 -35 2.5 -71.5t24.5 -66.5q32 -33 82 -33q46 0 71 21t36.5 52.5t13 67.5t1.5 67v674h267v-1039h-254v155z" />
<glyph unicode="v" horiz-adv-x="913" d="M20 1039h287l113 -582q8 -35 14.5 -80.5t11 -90t7 -81.5t4.5 -56h4q1 19 4 56t7.5 81.5t10.5 90t15 80.5l114 582h277l-266 -1039h-332z" />
<glyph unicode="w" horiz-adv-x="1362" d="M909 401q11 -55 17.5 -110t9.5 -112h6q0 17 2.5 51t6.5 70t7.5 66.5t6.5 42.5l88 630h268l-234 -1039h-290l-88 420q-14 66 -21.5 130.5t-13.5 131.5h-8q-6 -126 -27 -247l-82 -435h-297l-237 1039h280l94 -633q2 -12 6 -43t7.5 -67t6.5 -70t3 -51h4q3 57 9.5 112 t17.5 111l110 641h219z" />
<glyph unicode="x" horiz-adv-x="904" d="M31 1039h313l88 -188q8 -23 16 -46.5t13 -46.5h4q6 25 14.5 48.5t18.5 48.5l94 184h295l-289 -503l295 -536h-299l-80 167q-19 38 -33 75.5t-20 77.5h-4q-8 -44 -24 -84.5t-36 -80.5l-75 -155h-306l306 531z" />
<glyph unicode="y" horiz-adv-x="913" d="M291 1039l117 -550q14 -70 22 -139l16 -138h5q6 68 16.5 135t24.5 134l116 558h271l-281 -1053q-17 -59 -31 -110.5t-32 -92.5t-45.5 -71.5t-70.5 -48t-107 -21.5t-156 8v186q16 0 42.5 -2t52 0t44 12.5t18.5 35.5q0 28 -8 66t-16 66l-279 1025h281z" />
<glyph unicode="z" horiz-adv-x="800" d="M330 184h422v-184h-705v188l406 667h-398v184h697v-171z" />
<glyph unicode="{" horiz-adv-x="556" d="M88 1143q0 60 13 105t43 74.5t78 44.5t118 15h152v-3q-48 -10 -78 -28.5t-47 -44.5t-23 -58.5t-6 -71.5v-339q0 -49 -6.5 -87.5t-25 -67t-51.5 -48t-85 -29.5v-4q54 -7 87 -30.5t51 -57t24 -75.5t6 -86v-317q0 -35 6 -66.5t23 -57.5t47 -46t78 -31v-3h-134 q-82 0 -134.5 17t-82.5 51t-41.5 85t-11.5 119v298q0 40 -7.5 72t-25 56.5t-47 41.5t-74.5 28v4q45 5 74.5 24t47 46.5t25 61t7.5 69.5v339z" />
<glyph unicode="|" horiz-adv-x="517" d="M358 1382v-1843h-204v1843h204z" />
<glyph unicode="}" horiz-adv-x="568" d="M473 802q0 -36 7.5 -70t25 -61t47 -45.5t74.5 -24.5v-3q-51 -6 -81 -23t-46.5 -43t-21.5 -60t-5 -74v-298q0 -69 -10.5 -120.5t-40 -85.5t-81 -51t-132.5 -17h-139v5q46 9 75.5 27t47 44t24 59t6.5 72v315q0 46 5.5 85.5t23 71t50.5 55t89 38.5v3q-52 10 -85 29.5 t-51.5 49t-25 67.5t-6.5 86v341q0 81 -34 134t-119 69v5h139q72 0 122 -14t81.5 -43t46 -75t14.5 -111v-337z" />
<glyph unicode="~" horiz-adv-x="1029" d="M973 527q-24 -38 -49.5 -76t-56 -69.5t-69 -51t-89.5 -19.5q-31 0 -66.5 9t-72.5 22.5t-73.5 29.5t-68.5 29.5t-58 22.5t-42 9q-32 0 -55 -14.5t-41.5 -37t-33 -49t-28.5 -50.5l-117 136q22 40 48.5 80.5t60 73.5t74 54t90.5 21t104 -19t105 -41.5t96.5 -41.5t77.5 -19 q28 0 49.5 13.5t38.5 33.5t31 44t28 44z" />
<glyph unicode="&#xa1;" horiz-adv-x="681" d="M209 -313v387q-3 81 0.5 159t11.5 159t17 161t14 159h180q3 -79 11 -159t16 -161t13 -159t3 -159v-387h-266zM209 1067h266v-244h-266v244z" />
<glyph unicode="&#xa2;" horiz-adv-x="1035" d="M397 253h4l115 612l-18 2q-39 0 -59.5 -18t-30 -49t-11 -72.5t-0.5 -89.5v-385zM877 401q2 -38 -1 -75.5t-6 -72.5q-8 -77 -42.5 -136t-90 -96t-129 -49.5t-159.5 2.5l-41 -199h-142l49 232q-84 39 -128.5 124.5t-39.5 225.5v338q-1 80 18 141.5t51 105.5t74.5 72.5 t88 42.5t91.5 14t87 -11l35 177h143l-43 -203q51 -20 86.5 -50t57.5 -66t32 -77t9 -83v-83h-267v145h-6l-125 -632q19 -17 48.5 -16t54.5 12q17 20 21 52t7 70v95h267z" />
<glyph unicode="&#xa3;" horiz-adv-x="1044" d="M76 621v109h129q-48 68 -71 146.5t-23 159.5q0 93 35.5 164t97 119t145 72.5t180.5 24.5q57 0 110 -10t99.5 -31t85.5 -54.5t68 -80.5q17 -30 25.5 -61.5t12 -64.5t3.5 -66.5v-66.5h-262q-1 43 -3 85t-17 74.5t-48 52.5t-94 20q-50 0 -82.5 -16t-52 -43t-27.5 -62.5 t-8 -74.5q0 -32 9.5 -70t23.5 -76t30.5 -74.5t30.5 -66.5h299v-109h-254q11 -25 15 -54t4 -55q0 -55 -20.5 -106t-55 -95.5t-79.5 -82.5t-93 -66l6 -4q29 15 53.5 25.5t48 18t47 11t50.5 3.5q29 1 63.5 -2.5t68 -9.5t63.5 -12t50 -9q51 -7 103 10t98 46l57 -200 q-26 -16 -57.5 -28.5t-65.5 -21t-69 -13t-66 -4.5q-37 0 -71.5 5t-67.5 12t-65 15t-64 14q-45 10 -83.5 12t-76.5 -3.5t-78 -19t-88 -35.5l-73 174q51 25 90.5 62.5t66.5 82.5t41.5 96.5t14.5 104.5q0 33 -7.5 66.5t-25.5 62.5h-176z" />
<glyph unicode="&#xa5;" horiz-adv-x="1032" d="M655 588v-111h222v-92h-222v-112h222v-92h-222v-181h-286v181h-230v92h230v112h-230v92h230v111l-406 794h320l161 -362q23 -52 41 -104.5t29 -108.5h4q11 56 29 108.5t41 104.5l162 362h311z" />
<glyph unicode="&#xa7;" horiz-adv-x="1041" d="M391 761q-15 -6 -33 -20t-31 -33.5t-17.5 -45t7.5 -54.5q10 -22 24 -40.5t36 -32.5l252 -185q34 17 56 48.5t22 67.5q0 21 -7 38t-18 31.5t-26 27.5t-31 26zM367 22q-1 -37 4.5 -68.5t22 -54t46 -35.5t76.5 -13q45 0 78.5 25.5t42.5 64.5q7 30 -1 57.5t-26 51t-42.5 43.5 t-49.5 37l-244 172q-50 35 -87 66.5t-62 66.5t-37 79t-12 105q0 81 43 152t133 115q-31 20 -51 43t-32 51t-17 61.5t-5 75.5q0 54 23 107.5t71 96t121.5 69t174.5 26.5q84 0 152.5 -21.5t116.5 -63t72 -102t19 -138.5h-252q6 62 -24 101q-17 19 -42.5 29t-62.5 10 q-24 0 -45.5 -6t-38 -18t-26 -31.5t-9.5 -46.5q0 -49 26.5 -80.5t68.5 -60.5l280 -199q42 -28 74.5 -58t55 -64t34.5 -74.5t12 -89.5q0 -84 -44.5 -155t-125.5 -116q24 -15 45.5 -43t37 -62t25 -71t9.5 -70q0 -72 -34 -131.5t-90 -102.5t-128.5 -66.5t-148.5 -23.5 q-80 0 -141.5 17t-106.5 47.5t-75 72t-46 90.5q-11 33 -11.5 66t-2.5 67h256z" />
<glyph unicode="&#xa8;" horiz-adv-x="684" d="M10 1187v212h260v-212h-260zM410 1187v212h262v-212h-262z" />
<glyph unicode="&#xa9;" horiz-adv-x="1710" d="M852 1573q111 0 213.5 -28.5t192 -80.5t162.5 -125t125.5 -162t81 -191.5t28.5 -213.5q0 -112 -28.5 -215.5t-81 -193.5t-125.5 -163.5t-162.5 -126t-192 -81.5t-213.5 -29t-214.5 29t-193 81.5t-163 126t-126 163.5t-81.5 193.5t-29 215.5q0 111 29 213.5t81.5 191.5 t126 162t163 125t192.5 80.5t215 28.5zM852 117q89 0 172 23.5t155 66t132 102.5t102.5 132.5t66 156t23.5 174.5q0 89 -23.5 172t-66 155t-102.5 131.5t-132 102t-155 65.5t-172 23q-91 0 -174.5 -23t-156.5 -65.5t-132.5 -102t-102 -131.5t-66 -155t-23.5 -172 q0 -136 51.5 -255t140 -208t208 -140.5t255.5 -51.5zM1262 627q-9 -73 -42.5 -131.5t-84.5 -99t-115.5 -62t-134.5 -21.5q-101 0 -183 36t-140.5 99t-90 147.5t-31.5 182.5q0 100 30.5 184.5t87.5 146.5t139 97t184 35q73 0 136.5 -20.5t113.5 -60t84 -96t47 -128.5h-183 q-14 75 -68.5 116.5t-131.5 41.5q-65 0 -113 -26.5t-80.5 -70t-48.5 -99.5t-16 -116q0 -57 17.5 -114.5t51.5 -103.5t83 -74.5t112 -28.5q37 0 71 12t60.5 34t43.5 52.5t19 67.5h183z" />
<glyph unicode="&#xab;" horiz-adv-x="1017" d="M152 376v188l321 259v-206l-192 -145l192 -150v-208zM532 376v188l326 259v-206l-196 -145l196 -150v-208z" />
<glyph unicode="&#xac;" horiz-adv-x="1038" d="M748 536h-695v203h920v-546h-225v343z" />
<glyph unicode="&#xae;" horiz-adv-x="1701" d="M852 -37q-111 0 -214.5 29t-193 81.5t-163 126t-126 163t-81.5 192.5t-29 215q0 110 29 212.5t81.5 192t126 163t163 125.5t192.5 81t215 29q110 0 212.5 -29t192 -81t163 -125.5t125.5 -163t81 -192t29 -212.5q0 -111 -29 -214.5t-81 -193t-125.5 -163t-163 -126 t-192 -81.5t-212.5 -29zM852 115q135 0 253.5 51t207 140t139.5 208t51 256q0 135 -51 253.5t-139.5 207t-207 139.5t-253.5 51q-136 0 -255.5 -51t-208 -139.5t-140 -207t-51.5 -253.5q0 -137 51.5 -256t140 -208t208 -140t255.5 -51zM1251 330h-198l-193 368h-170v-368 h-170v870h420q28 0 59 -1t62 -5t60.5 -13t54.5 -24q58 -38 80 -98t22 -127q0 -59 -15.5 -101.5t-45.5 -70.5t-74.5 -43t-102.5 -19zM944 827q36 -1 66 4t52 19.5t34 40.5t12 67q0 42 -20.5 65t-51.5 33.5t-67.5 12.5t-67.5 2h-211v-244h254z" />
<glyph unicode="&#xaf;" horiz-adv-x="684" d="M-12 1228v136h708v-136h-708z" />
<glyph unicode="&#xb0;" horiz-adv-x="833" d="M723 1128q0 -62 -24.5 -116t-66.5 -94.5t-98.5 -64t-120.5 -23.5q-65 0 -121.5 23.5t-98.5 64t-66.5 94.5t-24.5 116q-1 61 23.5 115.5t67 95t99 64t121.5 23.5q64 0 120.5 -23.5t98.5 -64t66.5 -95t24.5 -115.5zM266 1128q0 -30 11.5 -56t32 -44.5t47.5 -29.5t58 -11 q30 0 56.5 11t46 29.5t30.5 44.5t11 56q0 29 -11 55t-30.5 45t-46.5 30t-58 11q-30 0 -57 -11t-47.5 -30t-32 -45t-10.5 -55z" />
<glyph unicode="&#xb1;" horiz-adv-x="1011" d="M394 1026h224v-268h343v-219h-343v-268h-224v268h-341v219h341v268zM53 192h908v-220h-908v220z" />
<glyph unicode="&#xb4;" horiz-adv-x="684" d="M362 1428h318l-303 -269h-207z" />
<glyph unicode="&#xb5;" horiz-adv-x="1032" d="M629 0v139h-4q-15 -41 -37 -70.5t-51.5 -47t-67 -21t-84.5 7.5v-321h-266v1248h266v-640q0 -31 2.5 -64t24.5 -60q31 -30 82 -30q46 0 71 19t36.5 47t13 61t1.5 60v607h267v-935h-254z" />
<glyph unicode="&#xb6;" horiz-adv-x="1139" d="M750 1165h-140v-1379h-241v953q-80 0 -140 23.5t-100.5 65t-61 99.5t-20.5 127q0 93 28 156t81 101.5t129 54.5t172 16h620v-217h-86v-1379h-241v1379z" />
<glyph unicode="&#xb7;" horiz-adv-x="660" d="M477 580v-243h-270v243h270z" />
<glyph unicode="&#xbb;" horiz-adv-x="1048" d="M166 322l196 157l-196 138v206l326 -259v-188l-326 -262v208zM551 322l194 157l-194 138v206l321 -259v-188l-321 -262v208z" />
<glyph unicode="&#xbf;" horiz-adv-x="1050" d="M918 46q6 -102 -18.5 -176.5t-76.5 -123t-129 -72.5t-176 -24q-91 0 -164 23.5t-124.5 68t-79 108t-27.5 143.5q0 52 9 93t26.5 78t44 72t61.5 75q37 35 70.5 70.5t71.5 70.5q24 26 38 55t22 60t10.5 63t2.5 65h240q2 -32 -0.5 -63.5t-5.5 -63.5q-6 -66 -27 -114 t-52.5 -89t-70 -80.5t-78.5 -87.5q-23 -29 -38 -51.5t-24 -45t-13 -48.5t-4 -61q0 -81 27 -115t89 -34q47 0 73 9t42 33q12 18 16.5 38.5t6 41t1.5 41.5t3 41h254zM461 830v237h262v-237h-262z" />
<glyph unicode="&#xc0;" horiz-adv-x="1134" d="M18 0l367 1382h387l348 -1382h-307l-76 350h-336l-75 -350h-308zM446 553h246l-78 393q-11 48 -16.5 95.5t-11.5 96.5q-2 23 -4.5 46t-6.5 45h-4q-3 -22 -5.5 -45t-4.5 -46q-6 -49 -12 -96.5t-17 -95.5zM549 1771l192 -269h-206l-304 269h318z" />
<glyph unicode="&#xc2;" horiz-adv-x="1022" d="M346 1383h351l309 -1383h-278l-64 348h-302l-71 -348h-273zM622 553l-83 465l-23 211h-3l-20 -211l-94 -465h223zM374 1757h233l211 -269h-211l-114 151l-119 -151h-209z" />
<glyph unicode="&#xc3;" horiz-adv-x="1012" d="M346 1383h351l309 -1383h-278l-64 348h-302l-71 -348h-273zM622 553l-83 465l-23 211h-3l-20 -211l-94 -465h223zM177 1478q0 86 64 153.5t154 67.5q50 0 131 -30t111 -33q75 0 91 79h120q-41 -214 -195 -223q-53 -4 -139.5 28.5t-136.5 32.5q-35 0 -52.5 -19.5 t-33.5 -55.5h-114z" />
<glyph unicode="&#xc4;" horiz-adv-x="1026" d="M346 1383h351l309 -1383h-278l-64 348h-302l-71 -348h-273zM622 553l-83 465l-23 211h-3l-20 -211l-94 -465h223zM578 1734h237v-211h-237v211zM223 1734h233v-211h-233v211z" />
<glyph unicode="&#xc5;" horiz-adv-x="1019" d="M346 1383h351l309 -1383h-278l-64 348h-302l-71 -348h-273zM622 553l-83 465l-23 211h-3l-20 -211l-94 -465h223zM513 1790q83 0 141 -56t58 -142q0 -82 -58 -138t-141 -56q-81 0 -139 56t-58 138q0 86 58 142t139 56zM513 1699q-42 0 -72.5 -30t-30.5 -74 q0 -47 30.5 -77t72.5 -30q50 0 79.5 29.5t29.5 77.5q0 46 -29.5 75t-79.5 29z" />
<glyph unicode="&#xc6;" horiz-adv-x="1397" d="M1424 1406v-204h-457v-360h427v-201h-427v-437h457v-204h-721v358h-323l-124 -358h-277l538 1406h907zM652 1145l-199 -577h250v577h-51z" />
<glyph unicode="&#xca;" horiz-adv-x="942" d="M118 1383h726v-204h-467v-349h429v-201h-429v-429h467v-200h-726v1383zM342 1760h234l212 -268h-212l-116 151l-118 -151h-210z" />
<glyph unicode="&#xcb;" horiz-adv-x="952" d="M118 1383h726v-204h-467v-349h429v-201h-429v-429h467v-200h-726v1383zM521 1738h237v-211h-237v211zM165 1738h234v-211h-234v211z" />
<glyph unicode="&#xcd;" horiz-adv-x="702" d="M425 1407v-1407h-336v1407h336zM218 1519h-74l120 274h244z" />
<glyph unicode="&#xce;" horiz-adv-x="635" d="M412 1407v-1407h-336v1407h336zM-25 1521l223 272h151l215 -272h-230l-108 152l-134 -152h-117z" />
<glyph unicode="&#xd1;" horiz-adv-x="1227" d="M125 1383h270l262 -671l126 -403q-25 331 -34.5 473.5t-9.5 291.5v309h260v-1383h-267l-276 679l-114 369q15 -200 27 -390.5t12 -306.5v-351h-256v1383zM230 1478q0 86 64 153.5t155 67.5q49 0 130 -30t111 -33q75 0 93 79h119q-37 -214 -194 -223q-55 -4 -141 28.5 t-137 32.5q-35 0 -50 -17.5t-34 -57.5h-116z" />
<glyph unicode="&#xd2;" horiz-adv-x="1117" d="M1018 565q-5 -200 -31.5 -320t-124 -201t-293.5 -81q-299 0 -374.5 148.5t-82.5 427.5v30v174v7t-3 22q1 35 4 92.5t15 146.5t33 157t46 107q84 101 165.5 127.5t196.5 26.5q200 0 299 -98.5t124.5 -232.5t25.5 -310v-223zM377 942v-500q0 -265 192 -265q182 0 182 265 v478q0 91 -36 187.5t-146 98.5q-95 3 -143.5 -66t-48.5 -198zM260 1771h283l173 -270h-188z" />
<glyph unicode="&#xd3;" horiz-adv-x="1113" d="M1018 565q-5 -200 -31.5 -320t-124 -201t-293.5 -81q-299 0 -374.5 148.5t-82.5 427.5v30v174v7t-3 22q1 35 4 92.5t15 146.5t33 157t46 107q84 101 165.5 127.5t196.5 26.5q200 0 299 -98.5t124.5 -232.5t25.5 -310v-223zM377 942v-500q0 -265 192 -265q182 0 182 265 v478q0 91 -36 187.5t-146 98.5q-95 3 -143.5 -66t-48.5 -198zM585 1771h285l-274 -270h-186z" />
<glyph unicode="&#xd4;" horiz-adv-x="1139" d="M125 807q3 89 9 169.5t21.5 149t45 124.5t79.5 95t123.5 60.5t177.5 21.5t177.5 -21.5t123.5 -60.5t79.5 -95t45 -124.5t21.5 -149t9 -169.5v-199q0 -93 -4 -177t-19 -156t-44 -129.5t-80 -98t-126.5 -62.5t-182.5 -22t-182.5 22t-126 62.5t-80 98t-44.5 129.5t-19 156 t-4 177v199zM393 477q0 -29 1.5 -62.5t7.5 -67.5t18 -65t33 -55t52 -38.5t76 -14.5q70 0 108 32t56 80.5t21.5 105.5t3.5 107v358q0 28 -0.5 65.5t-5.5 77.5t-16 78.5t-32 69t-54 49.5t-81 19q-51 0 -85 -18.5t-55 -48.5t-31 -68.5t-14 -77.5t-3.5 -75.5t0.5 -63.5v-387z M695 1777l214 -272h-212l-117 153l-120 -153h-209l211 272h233z" />
<glyph unicode="&#xd5;" horiz-adv-x="1153" d="M125 810q3 89 9 169.5t21.5 150t45.5 125t79.5 95t123.5 61t179 21.5q104 0 178 -21.5t124 -61t79.5 -95t45 -125t21.5 -150t9 -169.5v-200q0 -93 -4 -177.5t-19 -156.5t-44.5 -130t-80 -98.5t-126.5 -62.5t-183 -22t-183 22t-127 62.5t-80.5 98.5t-44.5 130t-19 156 t-4 178v200zM394 478q0 -29 1.5 -62.5t7.5 -67t18 -65t33 -55.5t52.5 -38.5t76.5 -14.5q70 0 108 32t56 80.5t21.5 106t3.5 107.5v359q0 28 -0.5 65.5t-5.5 77.5t-16 79t-32 69.5t-54 49.5t-81 19q-51 0 -85.5 -18.5t-55.5 -48.5t-31 -68.5t-14 -77.5t-3.5 -76t0.5 -64v-389 zM924 1735q-12 -71 -36.5 -115t-55 -69t-63.5 -33.5t-63 -8.5q-14 0 -36 5t-46 11.5t-46.5 13.5t-35.5 11l-33 11t-36 9.5t-35.5 3t-32.5 -9.5q-11 -5 -20 -16t-15 -22.5t-9 -20.5t-4 -10h-116q4 58 26 101.5t53 72t66.5 42.5t66.5 14q23 0 40.5 -2.5t33 -6.5t32 -10.5 t37.5 -13.5q9 -4 24.5 -10t32 -12t32.5 -10t25 -4q39 0 61 20.5t32 58.5h121z" />
<glyph unicode="&#xd6;" horiz-adv-x="1113" d="M1018 565q-5 -200 -31.5 -320t-124 -201t-293.5 -81q-299 0 -374.5 148.5t-82.5 427.5v30v174v7t-3 22q1 35 4 92.5t15 146.5t33 157t46 107q84 101 165.5 127.5t196.5 26.5q200 0 299 -98.5t124.5 -232.5t25.5 -310v-223zM377 942v-500q0 -265 192 -265q182 0 182 265 v478q0 91 -36 187.5t-146 98.5q-95 3 -143.5 -66t-48.5 -198zM625 1742h238v-211h-238v211zM269 1742h233v-211h-233v211z" />
<glyph unicode="&#xd8;" horiz-adv-x="1134" d="M890 1304l83 132l90 -64l-106 -173q61 -112 61 -411v-223q-5 -200 -31.5 -320t-124 -201t-293.5 -81q-223 0 -328 105l-83 -136l-93 54l108 168q-61 133 -61 415v174v7t-3 22q1 35 4 92.5t15 146.5t33 157t46 107q84 101 165.5 127.5t196.5 26.5q221 0 321 -125zM377 506 l346 554q-5 141 -154 146q-95 3 -143.5 -68t-48.5 -196v-436zM395 316q35 -139 174 -139q182 0 182 265v439z" />
<glyph unicode="&#xd9;" horiz-adv-x="1120" d="M125 1383h256v-973q0 -140 51.5 -188.5t136.5 -48.5q51 0 88.5 18t61.5 70.5t24 152.5v969h259v-991q0 -223 -102 -326t-335 -103q-223 0 -331.5 96.5t-108.5 332.5v991zM260 1771h283l173 -270h-188z" />
<glyph unicode="&#xda;" horiz-adv-x="1110" d="M125 1383h256v-973q0 -140 51.5 -188.5t136.5 -48.5q51 0 88.5 18t61.5 70.5t24 152.5v969h259v-991q0 -223 -102 -326t-335 -103q-223 0 -331.5 96.5t-108.5 332.5v991zM581 1768h286l-275 -271h-185z" />
<glyph unicode="&#xdb;" horiz-adv-x="1117" d="M125 1383h256v-973q0 -140 51.5 -188.5t136.5 -48.5q51 0 88.5 18t61.5 70.5t24 152.5v969h259v-991q0 -223 -102 -326t-335 -103q-223 0 -331.5 96.5t-108.5 332.5v991zM445 1760h234l211 -268h-211l-114 151l-120 -151h-208z" />
<glyph unicode="&#xdc;" horiz-adv-x="1120" d="M125 1383h256v-973q0 -140 51.5 -188.5t136.5 -48.5q51 0 88.5 18t61.5 70.5t24 152.5v969h259v-991q0 -223 -102 -326t-335 -103q-223 0 -331.5 96.5t-108.5 332.5v991zM622 1738h237v-211h-237v211zM267 1738h231v-211h-231v211z" />
<glyph unicode="&#xdf;" horiz-adv-x="903" d="M348 0h-236v1067q0 172 96 260.5t234 88.5q127 0 223.5 -65t117.5 -172q12 -99 12 -134q0 -204 -147 -243q108 -19 142.5 -150t27.5 -268q-16 -410 -246 -410q-66 0 -138 26v173q19 -8 56 -15q88 5 88 158v219q0 78 -21.5 120t-103.5 42v181q62 3 87 22.5t25 94.5v121 q0 54 -30.5 83.5t-74.5 29.5q-46 0 -79 -34.5t-33 -97.5v-1097z" />
<glyph unicode="&#xe0;" horiz-adv-x="907" d="M92 728q-6 183 81.5 259t270.5 80q185 0 269 -68t84 -211v-626q0 -97 19 -162h-229q-9 22 -17 83q4 15 4 33q-84 -142 -223 -142q-51 0 -116 19q-151 49 -151 267q-5 126 42 194.5t135 121.5q48 29 141 67t121 61q37 32 37 84q0 95 -121 95q-73 -4 -88 -28 q-33 -40 -33 -127h-226zM555 546q-53 -33 -110 -71t-91 -82t-40 -106q11 -118 118 -133q40 6 52 11q29 19 43 37.5t22.5 77.5t5.5 150v116zM163 1425h284l173 -268h-188z" />
<glyph unicode="&#xe1;" horiz-adv-x="907" d="M92 728q-6 183 81.5 259t270.5 80q185 0 269 -68t84 -211v-626q0 -97 19 -162h-229q-9 22 -17 83q4 15 4 33q-84 -142 -223 -142q-51 0 -116 19q-151 49 -151 267q-5 126 42 194.5t135 121.5q48 29 141 67t121 61q37 32 37 84q0 95 -121 95q-73 -4 -88 -28 q-33 -40 -33 -127h-226zM555 546q-53 -33 -110 -71t-91 -82t-40 -106q11 -118 118 -133q40 6 52 11q29 19 43 37.5t22.5 77.5t5.5 150v116zM491 1425h283l-272 -268h-188z" />
<glyph unicode="&#xe2;" horiz-adv-x="907" d="M92 728q-6 183 81.5 259t270.5 80q185 0 269 -68t84 -211v-626q0 -97 19 -162h-229q-9 22 -17 83q4 15 4 33q-84 -142 -223 -142q-51 0 -116 19q-151 49 -151 267q-5 126 42 194.5t135 121.5q48 29 141 67t121 61q37 32 37 84q0 95 -121 95q-73 -4 -88 -28 q-33 -40 -33 -127h-226zM555 546q-53 -33 -110 -71t-91 -82t-40 -106q11 -118 118 -133q40 6 52 11q29 19 43 37.5t22.5 77.5t5.5 150v116zM351 1418h232l214 -268h-214l-114 151l-118 -151h-209z" />
<glyph unicode="&#xe3;" horiz-adv-x="998" d="M102 811q-6 203 91.5 288t300.5 89q206 0 299.5 -76t93.5 -235v-697q0 -108 22 -180h-256q-10 25 -18 92q4 17 4 37q-94 -158 -248 -158q-57 0 -129 21q-168 55 -168 297q-6 141 46.5 217t150.5 135q53 33 156.5 75t134.5 68q41 35 41 93q0 106 -134 106q-81 -4 -98 -31 q-37 -45 -37 -141h-252zM618 608q-59 -37 -122.5 -79t-101.5 -91t-44 -119q12 -131 131 -147q45 6 58 12q32 21 47.5 41.5t25 86t6.5 167.5v129zM145 1264q0 100 74 173.5t172 73.5q53 0 143.5 -33.5t122.5 -37.5q84 0 105 88h133q-43 -234 -217 -248q-62 -4 -158 32 t-149 36q-58 0 -97 -84h-129z" />
<glyph unicode="&#xe4;" horiz-adv-x="1029" d="M649 0q-14 25 -16.5 52t0.5 55h-4q-23 -32 -49.5 -57.5t-57.5 -42.5q-29 -16 -61 -25.5t-66 -9.5q-161 0 -235 75.5t-74 235.5q0 90 32.5 148.5t87 99t126 68.5t149.5 57q42 16 71 33t45.5 37.5t20 46t-5.5 57.5q-9 35 -40 44t-85 9q-45 0 -72.5 -10.5t-42.5 -30 t-20 -47.5t-4 -63h-254q-1 74 15 135.5t61 106t124 69t204 24.5q90 0 154 -13.5t106.5 -36t67 -53t37 -65t15 -70t1.5 -69.5v-614q0 -38 5.5 -74t16.5 -72h-252zM612 547q-49 -30 -105.5 -62t-109.5 -70q-29 -23 -37 -57.5t-8 -67.5q0 -30 5.5 -54.5t20 -42t38.5 -27 t61 -9.5q40 0 64.5 13.5t39 36.5t21 52t8 60t1 61t1.5 55v112zM183 1187v212h260v-212h-260zM583 1187v212h262v-212h-262z" />
<glyph unicode="&#xe5;" horiz-adv-x="914" d="M92 728q-6 183 81.5 259t270.5 80q185 0 269 -68t84 -211v-626q0 -97 19 -162h-229q-9 22 -17 83q4 15 4 33q-84 -142 -223 -142q-51 0 -116 19q-151 49 -151 267q-5 126 42 194.5t135 121.5q48 29 141 67t121 61q37 32 37 84q0 95 -121 95q-73 -4 -88 -28 q-33 -40 -33 -127h-226zM555 546q-53 -33 -110 -71t-91 -82t-40 -106q11 -118 118 -133q40 6 52 11q29 19 43 37.5t22.5 77.5t5.5 150v116zM465 1557q79 0 138 -57.5t59 -142.5q0 -79 -59 -136t-138 -57t-137.5 57t-58.5 136q0 85 58.5 142.5t137.5 57.5zM465 1466 q-46 0 -75.5 -31t-29.5 -73q0 -45 29.5 -76t75.5 -31t77.5 29t31.5 78q0 45 -31.5 74.5t-77.5 29.5z" />
<glyph unicode="&#xe6;" horiz-adv-x="1344" d="M693 1002q65 65 223 65q140 0 233.5 -75.5t93.5 -248.5v-265h-452v-180q0 -72 30 -108t76 -39q47 3 78 30.5t31 74.5v95h237q14 -128 -32.5 -214t-129 -126.5t-176.5 -40.5q-83 0 -151 31.5t-99 84.5q-26 -51 -99.5 -83.5t-160.5 -32.5q-81 0 -128 19q-162 59 -177 234 q-9 137 41 221t113 120t166 80t125 75q26 34 26 72q0 50 -40 73.5t-96 18.5q-102 -14 -90 -147h-242q-10 228 155 300q83 31 182 31q172 0 263 -65zM553 546q-38 -23 -83 -51t-74.5 -53.5t-50 -68.5t-17.5 -104q0 -53 28 -84t69 -34q51 3 89.5 44.5t38.5 106.5v244z M1006 660v105q0 57 -30 87.5t-74 30.5q-43 0 -77 -30.5t-34 -87.5v-105h215z" />
<glyph unicode="&#xe7;" horiz-adv-x="819" d="M502 679v112q0 43 -21 66.5t-60 23.5q-37 0 -63.5 -32.5t-26.5 -90.5v-435q0 -88 20.5 -126.5t66.5 -38.5q84 0 84 165v84h241v-112q0 -76 -25 -148.5t-91 -122.5t-185 -50l-54 -86q105 19 164 -20t59 -109t-58 -123.5t-169 -53.5q-93 0 -207 48l30 75q74 -28 139 -28 q49 0 76 22t27 49q0 59 -83 64q-61 -10 -75 -16l-35 39l92 143q-258 22 -258 361v340q0 213 82 300.5t246 87.5q165 0 245 -86t80 -230v-72v0h-241z" />
<glyph unicode="&#xe8;" horiz-adv-x="921" d="M98 708q0 359 365 359q157 -2 232.5 -59t97.5 -148t22 -246v-143h-476v-158q0 -153 114 -159q10 4 29 4q97 11 90 193h239q9 -174 -70 -274.5t-244 -102.5q-98 -4 -186 20t-150.5 121t-62.5 284v309zM339 653h237v105q0 125 -120 125q-117 0 -117 -125v-105zM158 1425 h284l172 -268h-187z" />
<glyph unicode="&#xe9;" horiz-adv-x="868" d="M98 708q0 359 365 359q157 -2 232.5 -59t97.5 -148t22 -246v-143h-476v-158q0 -153 114 -159q10 4 29 4q97 11 90 193h239q9 -174 -70 -274.5t-244 -102.5q-98 -4 -186 20t-150.5 121t-62.5 284v309zM339 653h237v105q0 125 -120 125q-117 0 -117 -125v-105zM486 1425 h283l-272 -268h-188z" />
<glyph unicode="&#xea;" horiz-adv-x="893" d="M98 708q0 359 365 359q157 -2 232.5 -59t97.5 -148t22 -246v-143h-476v-158q0 -153 114 -159q10 4 29 4q97 11 90 193h239q9 -174 -70 -274.5t-244 -102.5q-98 -4 -186 20t-150.5 121t-62.5 284v309zM339 653h237v105q0 125 -120 125q-117 0 -117 -125v-105zM342 1418 h234l212 -268h-212l-116 151l-118 -151h-210z" />
<glyph unicode="&#xeb;" horiz-adv-x="903" d="M98 708q0 359 365 359q157 -2 232.5 -59t97.5 -148t22 -246v-143h-476v-158q0 -153 114 -159q10 4 29 4q97 11 90 193h239q9 -174 -70 -274.5t-244 -102.5q-98 -4 -186 20t-150.5 121t-62.5 284v309zM339 653h237v105q0 125 -120 125q-117 0 -117 -125v-105zM521 1398 h237v-212h-237v212zM165 1398h234v-212h-234v212z" />
<glyph unicode="&#xec;" horiz-adv-x="494" d="M137 1037h237v-1037h-237v1037zM-46 1425h283l173 -268h-187z" />
<glyph unicode="&#xed;" horiz-adv-x="574" d="M152 0v1039h266v-1039h-266zM226 1428h318l-303 -269h-207z" />
<glyph unicode="&#xee;" horiz-adv-x="578" d="M187 1037h237v-1037h-237v1037zM168 1418h233l214 -268h-214l-114 151l-119 -151h-208z" />
<glyph unicode="&#xef;" horiz-adv-x="625" d="M194 1037h237v-1037h-237v1037zM373 1398h237v-212h-237v212zM18 1398h232v-212h-232v212z" />
<glyph unicode="&#xf7;" horiz-adv-x="1029" d="M0 429v226h1024v-226h-1024zM392 781v244h270v-244h-270zM392 0v243h270v-243h-270zM378 781v244h270v-244h-270zM378 0v243h270v-243h-270z" />
<glyph unicode="&#xf9;" horiz-adv-x="903" d="M154 1425h283l174 -268h-188zM553 1037h242v-1037h-230v165q-42 -195 -234 -195q-71 0 -131 30q-95 49 -95 263v774h241v-739q0 -147 103 -140q104 0 104 181v698z" />
<glyph unicode="&#xfa;" horiz-adv-x="900" d="M553 1037h242v-1037h-230v165q-42 -195 -234 -195q-71 0 -131 30q-95 49 -95 263v774h241v-739q0 -147 103 -140q104 0 104 181v698zM486 1425h283l-272 -268h-188z" />
<glyph unicode="&#xfb;" horiz-adv-x="914" d="M553 1037h242v-1037h-230v165q-42 -195 -234 -195q-71 0 -131 30q-95 49 -95 263v774h241v-739q0 -147 103 -140q104 0 104 181v698zM342 1436h234l212 -268h-212l-116 151l-118 -151h-210z" />
<glyph unicode="&#xfc;" horiz-adv-x="872" d="M553 1037h242v-1037h-230v165q-42 -195 -234 -195q-71 0 -131 30q-95 49 -95 263v774h241v-739q0 -147 103 -140q104 0 104 181v698zM521 1398h237v-212h-237v212zM165 1398h234v-212h-234v212z" />
<glyph unicode="&#xff;" horiz-adv-x="809" d="M11 1037h252l111 -584l29 -241l31 241l112 584h245l-278 -1149q-29 -140 -87 -191.5t-170 -51.5q-72 0 -116 4v186h48h28q40 0 53.5 8t13.5 36q0 16 -16 99zM471 1398h237v-212h-237v212zM116 1398h232v-212h-232v212z" />
<glyph unicode="&#x131;" horiz-adv-x="574" d="M152 0v1039h266v-1039h-266z" />
<glyph unicode="&#x152;" horiz-adv-x="1565" d="M769 1262v121h690v-204h-457v-353h423v-201h-423v-425h457v-200h-697v140q-120 -170 -265 -170q-55 0 -127 23q-129 44 -193.5 194t-64.5 378v261q0 296 115 441.5t271 145.5q94 0 166.5 -41.5t104.5 -109.5zM743 1010q0 87 -48.5 141.5t-118.5 54.5q-83 0 -144.5 -90.5 t-61.5 -278.5v-268q0 -392 191 -392q79 -4 130.5 47.5t51.5 202.5v583z" />
<glyph unicode="&#x153;" horiz-adv-x="1547" d="M509 -28q-131 -2 -211.5 27t-124.5 91t-58 159.5t-13 233.5q0 89 2.5 167t14.5 143t37 115.5t70 86t114 54t169 18.5q99 0 166 -19q60 -16 102 -46q36 24 81 39q75 26 173 26q139 0 220 -31.5t123 -90.5t54 -144t12 -191v-140h-532v-34v-117q1 -51 11.5 -82.5t29 -49.5 t43.5 -24t55 -6q73 0 99.5 48.5t23.5 146.5h266q4 -87 -15 -157.5t-63.5 -120t-116 -76t-173.5 -26.5q-116 0 -198 25q-47 14 -84 38q-30 -22 -69 -36q-79 -29 -208 -27zM368 339q0 -48 4 -82t18 -56.5t42.5 -33t76.5 -10.5q46 0 72.5 10.5t40 33t17 56.5t3.5 82v14 q-1 27 0 56v273q-2 26 -1 50l-1 25q-2 36 -14.5 64t-39.5 45t-77 17q-53 0 -81.5 -17t-42 -45t-15.5 -63.5t-2 -71.5v-347zM1174 654v90q-1 40 -8 66.5t-22.5 42.5t-42 23t-66.5 7q-50 0 -76 -16t-37.5 -42t-12.5 -59.5t-1 -68.5v-43h266z" />
<glyph unicode="&#x178;" horiz-adv-x="1138" d="M500 1020q23 -52 40.5 -104.5t26.5 -108.5h4q8 40 19 75t23.5 67t26 61.5t26.5 58.5l137 313h313l-405 -794v-588h-287v588l-399 794h313zM622 1738h237v-211h-237v211zM267 1738h231v-211h-231v211z" />
<glyph unicode="&#x192;" horiz-adv-x="987" d="M176 1016h256q25 201 72 313.5t119.5 165.5t177.5 53q90 0 198 -32l-47 -211q-47 26 -84 26q-63 0 -107 -82t-56 -233h231v-193h-260l-144 -807q-45 -192 -111.5 -292.5t-252.5 -100.5q-62 0 -168 21l47 227q59 -18 88 -18q101 0 121 163l147 807h-227v193z" />
<glyph unicode="&#x2c6;" horiz-adv-x="826" d="M141 1162l223 273h151l214 -273h-229l-108 154l-134 -154h-117z" />
<glyph unicode="&#x2c7;" horiz-adv-x="1024" d="M33 0v1355h958v-1355h-958zM807 184v987h-590v-987h590z" />
<glyph unicode="&#x2d8;" horiz-adv-x="1024" d="M161 1473h45q35 -136 229 -136q195 0 230 136h46q-13 -309 -276 -309q-118 0 -196 87.5t-78 221.5z" />
<glyph unicode="&#x2d9;" horiz-adv-x="1024" d="M435 1437q140 0 140 -135t-140 -135q-139 0 -139 135t139 135z" />
<glyph unicode="&#x2da;" horiz-adv-x="623" d="M326 1790q83 0 141 -56t58 -142q0 -82 -58 -138t-141 -56q-81 0 -139 56t-58 138q0 86 58 142t139 56zM326 1699q-42 0 -72.5 -30t-30.5 -74q0 -47 30.5 -77t72.5 -30q50 0 79.5 29.5t29.5 77.5q0 46 -29.5 75t-79.5 29z" />
<glyph unicode="&#x2db;" horiz-adv-x="625" d="M-264 0l870 1511h154l-871 -1511h-153zM104 1428l193 -269h-207l-303 269h317z" />
<glyph unicode="&#x2dc;" horiz-adv-x="1024" d="M198 1164h-48q57 267 170 267q42 0 150 -43q93 -34 123 -34q61 0 81 93h47q-51 -266 -174 -266q-42 0 -148 41q-98 36 -125 36q-56 0 -76 -94z" />
<glyph unicode="&#x2dd;" horiz-adv-x="1368" d="M362 1428h318l-303 -269h-207zM1046 1428h318l-303 -269h-207z" />
<glyph unicode="&#x3c0;" horiz-adv-x="931" d="M152 0v907h-89v136h808v-136h-65v-907h-268v907h-118v-907h-268z" />
<glyph unicode="&#x1000;" horiz-adv-x="1495" d="M1034 209q27 0 50.5 10t41 27.5t27.5 41t10 50.5v369q0 26 -10 50.5t-27.5 42t-41 29t-50.5 11.5h-49q-22 0 -44.5 -9.5t-40 -23.5t-29 -33.5t-13.5 -44.5v-391q0 -70 -17.5 -131.5t-51 -108.5t-85 -76.5t-116.5 -35.5l-33 223q25 0 40 10t23.5 27.5t11.5 41t3 50.5 l-2 391q-2 25 -14.5 44.5t-29 33.5t-39 23.5t-44.5 9.5h-49q-29 0 -51.5 -11.5t-40 -29t-27.5 -42t-10 -50.5v-369q0 -23 1 -45.5t6 -39.5t16 -30.5t34 -19.5l-43 -221q-59 12 -104.5 45.5t-76 81t-45 106.5t-14.5 123v369q0 73 28 138.5t76 114t112.5 77t138.5 28.5h49 q69 0 130.5 -24.5t110.5 -69.5q48 45 109 69.5t131 24.5h49q74 0 138.5 -28.5t111.5 -77t76 -114t29 -138.5v-369q0 -72 -28 -135.5t-74 -111.5t-108.5 -76.5t-134.5 -30.5l-47 225h37z" />
<glyph unicode="&#x1001;" horiz-adv-x="992" d="M328 338q0 -29 9 -52.5t27.5 -41t42 -27.5t50.5 -10h18q4 8 4 20.5t-7 26.5t-23.5 33.5t-40.5 46.5q-29 26 -47.5 39.5t-32.5 13.5v-49zM506 1067q74 0 138.5 -27.5t113.5 -76t76.5 -114t27.5 -138.5v-373q0 -76 -27.5 -140.5t-76.5 -112.5t-113.5 -75.5t-138.5 -27.5 h-49q-72 0 -136.5 26.5t-112.5 73.5t-77 110.5t-31 135.5h4q37 59 78 101t88 55.5t101.5 -6t117.5 -83.5q41 -41 70 -75.5t41 -69.5q16 16 25.5 38.5t9.5 49.5v373q0 26 -10.5 49.5t-27.5 42t-41 29t-50 10.5h-49q-27 0 -50.5 -10.5t-42 -29t-27.5 -42t-9 -49.5v-43l-228 55 q2 72 31 134.5t77 109.5t112.5 73.5t136.5 26.5h49z" />
<glyph unicode="&#x1002;" horiz-adv-x="964" d="M457 840q-29 0 -51.5 -10.5t-41 -28t-28.5 -41t-10 -49.5v-375q0 -23 1 -45.5t7 -41t17 -31.5t34 -17l-45 -224q-61 13 -106.5 46.5t-75 82t-45 107.5t-15.5 123v375q0 73 29 137.5t77 114t113.5 77t139.5 27.5h49q72 0 137.5 -27.5t114.5 -77t76.5 -114t27.5 -137.5 v-375q0 -70 -17.5 -131.5t-51 -109.5t-86 -77.5t-117.5 -35.5l-35 225q27 0 42 10t23.5 27.5t11.5 41t3 50.5v375q0 26 -10.5 49.5t-27.5 41t-41 28t-50 10.5h-49z" />
<glyph unicode="&#x1003;" horiz-adv-x="1502" d="M506 199q24 0 45.5 8t39 23.5t29 36t15.5 42.5v17.5v46t1 63.5t1 74v197q0 22 -1 44.5t-6 41t-17.5 32t-32.5 19.5l43 223q59 -14 105 -48t77 -81t45 -107.5t14 -123.5v-398q4 -22 15.5 -41.5t29 -35t39 -23.5t45.5 -8h49q27 0 50.5 10t42 27.5t29 42t10.5 51.5v377 q0 26 -10.5 49.5t-29 41t-42 29t-50.5 11.5h-36l47 227q71 -2 134.5 -31.5t111 -78t75 -113t27.5 -135.5v-377q0 -74 -29 -139.5t-77 -114.5t-113.5 -77t-139.5 -28h-49q-71 0 -132.5 25t-108.5 70q-50 -45 -112 -71t-134 -26h-49q-74 0 -139.5 29t-113.5 77t-77 113.5 t-29 139.5v270v2v2q2 21 16.5 38t35 34.5t44 33t43 29t32 25.5t7.5 24q-6 33 -31.5 43.5t-60.5 10.5h-86v225h195q106 0 151 -42t45 -110v-104q0 -39 -14 -68.5t-37.5 -56.5t-52.5 -49.5t-59 -42.5v-264q0 -27 10 -50.5t28.5 -42t42 -28.5t50.5 -10h49z" />
<glyph unicode="&#x1004;" horiz-adv-x="957" d="M457 1067h49q72 0 135.5 -26.5t111.5 -73.5t75.5 -109.5t29.5 -134.5l-223 -55v45q0 26 -10.5 49.5t-27.5 41t-41 28t-50 10.5h-49q-29 0 -51.5 -10.5t-41 -28t-27.5 -41t-9 -49.5v-373q0 -27 9 -50.5t27.5 -42t41 -27.5t51.5 -9h49q26 0 50 9t41 27.5t27.5 42t10.5 50.5 v49l223 -59q-2 -74 -29.5 -136.5t-75.5 -108.5t-111.5 -73.5t-135.5 -27.5h-49q-74 0 -138.5 28.5t-112.5 75.5t-77 112.5t-29 139.5v373q0 71 29 136.5t77 114t112.5 76t138.5 27.5z" />
<glyph unicode="&#x1005;" horiz-adv-x="961" d="M459 1077h49q74 0 139.5 -28.5t113.5 -76.5t76.5 -113.5t28.5 -139.5v-377q0 -76 -28.5 -140.5t-76.5 -113.5t-113.5 -76.5t-139.5 -27.5h-49q-74 0 -139.5 27.5t-114.5 76.5t-78 113.5t-29 140.5v377q0 74 29 139.5t78 113.5t114.5 76.5t139.5 28.5zM328 686v-344 q14 0 31.5 9t32 29.5t24.5 54.5t10 83t-9 82t-23.5 51.5t-32 25.5t-33.5 9zM459 850q-33 0 -61.5 -15.5t-47.5 -39.5q53 -7 87 -29.5t55.5 -59t30.5 -85t9 -107.5q0 -51 -8 -97t-26.5 -82t-50 -58.5t-78.5 -30.5q16 -17 39.5 -26t50.5 -9h49q27 0 50.5 10t40.5 27.5t28.5 42 t11.5 51.5v377q0 26 -11.5 50t-28.5 41t-40.5 28.5t-50.5 11.5h-49z" />
<glyph unicode="&#x1006;" horiz-adv-x="1502" d="M629 729q-6 47 -42 80t-87 33h-47q-25 0 -49.5 -5.5t-45 -16.5t-36 -31.5t-21.5 -51.5l-203 56q6 75 27.5 127.5t63.5 85t106.5 47t157.5 14.5h47q71 0 133.5 -25.5t109.5 -70.5q50 45 111 70.5t131 25.5h49q76 0 140.5 -27.5t112.5 -77t76 -114t28 -137.5v-375 q0 -74 -28 -139.5t-76 -113.5t-112.5 -75.5t-140.5 -27.5h-49q-70 0 -131 25.5t-111 70.5q-47 -45 -109.5 -70.5t-133.5 -25.5h-60q-37 0 -67 2q-60 4 -107 17t-80.5 41t-54 73t-31.5 112q0 4 4 8q25 58 60 102t80 62.5t99 3t120 -70.5q33 -29 58.5 -55.5t41.5 -53.5 q27 15 44.5 39.5t21.5 54.5v414zM858 315q2 -22 14.5 -41.5t29 -35t38 -23.5t45.5 -8h49q29 0 52.5 9t41 27.5t27.5 42t10 50.5v375q0 26 -10 49.5t-27.5 41t-41 29t-52.5 11.5h-49q-24 0 -45.5 -9.5t-38 -23.5t-29 -34.5t-16.5 -45.5zM483 184q-6 11 -12 19t-14 17 t-18.5 20.5t-24.5 23.5q-39 41 -68 55.5t-55 20.5q2 -49 12 -78t33.5 -45t59.5 -23.5t87 -9.5z" />
<glyph unicode="&#x1007;" horiz-adv-x="1075" d="M496 872q14 -20 34.5 -44.5t49.5 -55.5q26 -27 47.5 -45t42.5 -31q-2 43 -8.5 75t-23.5 53.5t-51 33.5t-91 14zM461 -16q-76 0 -140.5 27.5t-112.5 75.5t-76 112.5t-28 140.5v371q0 73 28 137.5t76 113t112.5 77t140.5 28.5h47q61 0 111.5 -6t89.5 -19.5t67.5 -35 t46.5 -56.5q56 -2 97 -22.5t66.5 -57t37.5 -88t10 -110.5l-149 -64q8 56 2 88.5t-25 51.5v-27q-37 -59 -74.5 -92t-80.5 -35t-94.5 26.5t-112.5 94.5q-31 30 -55.5 58t-41.5 54q-30 -16 -51.5 -46.5t-21.5 -69.5v-371q0 -29 10 -52.5t27.5 -41t41 -27.5t52.5 -10h76 q38 0 64 5t40 19.5t19.5 40t5.5 66.5l225 -12q0 -113 -22.5 -179.5t-66.5 -103.5t-110.5 -49t-154.5 -12h-76z" />
<glyph unicode="&#x1008;" horiz-adv-x="1302" d="M459 1077h49q74 0 139.5 -28.5t113.5 -76.5t76.5 -113.5t28.5 -139.5v-377q0 -76 -28.5 -140.5t-76.5 -113.5t-113.5 -76.5t-139.5 -27.5h-49q-74 0 -139.5 27.5t-114.5 76.5t-78 113.5t-29 140.5v377q0 74 29 139.5t78 113.5t114.5 76.5t139.5 28.5zM328 686v-344 q14 0 31.5 9t32 29.5t24.5 54.5t10 83t-9 82t-23.5 51.5t-32 25.5t-33.5 9zM459 850q-33 0 -61.5 -15.5t-47.5 -39.5q53 -7 87 -29.5t55.5 -59t30.5 -85t9 -107.5q0 -51 -8 -97t-26.5 -82t-50 -58.5t-78.5 -30.5q16 -17 39.5 -26t50.5 -9h49q27 0 50.5 10t40.5 27.5t28.5 42 t11.5 51.5v377q0 26 -11.5 50t-28.5 41t-40.5 28.5t-50.5 11.5h-49zM967 1079h227v-1898q0 -33 -10 -72t-32 -73.5t-54.5 -59.5t-79.5 -25h-82l-430 226v774h227v-651l234 -119v1898z" />
<glyph unicode="&#x1009;" horiz-adv-x="961" d="M340 8v-745q0 -29 4 -46.5t14.5 -26.5t27.5 -13t44 -4h614q31 0 53.5 5t37 19.5t20.5 38t6 62.5h225q0 -123 -25.5 -193t-70.5 -104.5t-107.5 -44t-138.5 -9.5h-614q-68 0 -125 19.5t-99 58.5t-65.5 98.5t-23.5 139.5v979q-15 43 -17 90l226 59v-49q0 -27 10 -50.5 t27.5 -41t40 -27.5t51.5 -10h47q26 0 49.5 10t41 27.5t28 41t10.5 50.5v371q0 26 -10.5 49.5t-28 41t-41 28t-49.5 10.5h-47q-29 0 -51.5 -10.5t-40 -28t-27.5 -41t-10 -49.5v-45l-226 57q4 70 33 132.5t76 108.5t110.5 72.5t135.5 26.5h47q73 0 138 -27.5t113 -76 t75.5 -113t27.5 -135.5v-371q0 -74 -27.5 -138.5t-75.5 -112.5t-113 -75.5t-138 -27.5h-47q-31 0 -59.5 6t-55.5 14z" />
<glyph unicode="&#x100a;" horiz-adv-x="1505" d="M506 1067q72 0 137.5 -27.5t113.5 -77t75.5 -114t27.5 -137.5v-371v-10q2 -27 13.5 -48.5t29 -38t40 -25.5t46.5 -9h49q27 0 50.5 10t41 27.5t27.5 41t10 52.5v371q0 26 -10 49.5t-27.5 42t-41 29t-50.5 10.5h-37l48 225q71 -2 133.5 -30.5t109.5 -77t75 -113t28 -135.5 v-371q0 -76 -29 -141.5t-77 -113.5t-112.5 -75.5t-138.5 -27.5h-49q-69 0 -131.5 25.5t-109.5 70.5q-50 -45 -111.5 -70.5t-130.5 -25.5h-49q-29 0 -55.5 4t-51.5 12v-733q0 -29 4 -46.5t14.5 -27.5t28 -14t43.5 -4h611q30 0 52.5 5t37 19.5t21.5 39t7 63.5h226 q0 -82 -11.5 -139.5t-33 -97.5t-51 -62.5t-68.5 -35t-84 -15.5t-96 -3h-611q-67 0 -125.5 19.5t-100.5 58.5t-65.5 99.5t-23.5 140.5v946q-23 51 -25 117l226 59v-47q0 -29 10 -52.5t28.5 -41t41 -27.5t51.5 -10h49q26 0 50 10t41 27.5t27.5 41t10.5 52.5v371 q0 26 -10.5 49.5t-27.5 42t-41 29t-50 10.5h-49q-29 0 -51.5 -10.5t-41 -29t-28.5 -42t-10 -49.5v-45l-226 57q2 72 32 134.5t77 109.5t111.5 73.5t136.5 26.5h49z" />
<glyph unicode="&#x100b;" horiz-adv-x="971" d="M457 1067h49q72 0 136.5 -26.5t113.5 -73.5t77.5 -110.5t30.5 -135.5l-227 -57v45q0 26 -11.5 49.5t-28.5 42t-41 29t-50 10.5h-49q-27 0 -50.5 -10.5t-42 -29t-28.5 -42t-10 -49.5v-367q0 -27 10 -51.5t28.5 -42t42 -27.5t50.5 -10h49q26 0 50 10t41 27.5t28.5 42 t11.5 51.5v51l227 -61q-2 -35 -9 -68t-19 -61v-301q0 -35 -4.5 -59.5t-17.5 -45t-42 -40t-76 -42.5q-82 -37 -181 -47t-226 21l-2 -80q45 -10 96 -16.5t106 -8.5q62 0 122.5 10.5t113.5 28.5q8 4 20.5 3t21.5 -6t16.5 -14t7.5 -24v-45l2 -268q0 -31 4 -48.5t14 -27.5 t27.5 -13t46.5 -3v-228q-84 0 -144.5 13.5t-100.5 49.5t-58.5 97.5t-18.5 159.5v115q-35 -2 -76 -2q-84 0 -169 10t-154 28q-10 2 -21.5 7.5t-20.5 18.5t-16.5 36.5t-7.5 64.5v258v2v84q0 11 6.5 26t18.5 26.5t29.5 12.5t40.5 -13q38 -27 97.5 -43.5t123 -20.5t124 6.5 t103.5 34.5l-2 88q-33 -10 -65.5 -17t-67.5 -7h-49q-74 0 -139.5 28.5t-114.5 76.5t-77 113.5t-28 139.5v367q0 73 28 138.5t77 115t114.5 77t139.5 27.5z" />
<glyph unicode="&#x100c;" horiz-adv-x="944" d="M848 236v-969q0 -82 -24.5 -141.5t-66.5 -99.5t-100.5 -59.5t-126.5 -19.5h-86q-77 0 -139.5 9.5t-108.5 44t-72 106.5t-26 195h228q0 -39 7 -64.5t20.5 -39t36 -18.5t54.5 -5h86q27 0 44.5 3t27.5 13t14.5 27.5t4.5 48.5v733q-27 -10 -56.5 -15t-58.5 -5h-49 q-74 0 -138.5 27.5t-113.5 76.5t-77 113.5t-28 138.5v375q0 73 28 137.5t77 114t113.5 77t138.5 27.5h49q72 0 135.5 -26.5t111.5 -73.5t76.5 -110.5t32.5 -135.5l-227 -55v45q0 26 -10.5 49.5t-27.5 41t-41 29t-50 11.5h-49q-27 0 -50.5 -11.5t-42 -29t-28.5 -41t-10 -49.5 v-375q0 -27 10 -50.5t28.5 -42t42 -27.5t50.5 -9h49q26 0 50 9t41 27.5t27.5 42t10.5 50.5v51l227 -61q-2 -25 -5 -47.5t-9 -42.5z" />
<glyph unicode="&#x100d;" horiz-adv-x="947" d="M346 -57q88 -23 178 -22t170 32q27 10 44.5 7t28.5 -12t16 -22.5t5 -23.5v-54v-585q0 -29 4.5 -46.5t14.5 -26.5t27.5 -12t44.5 -3v-228q-84 0 -143.5 13.5t-97.5 48.5t-56.5 96t-18.5 158v448q-47 -2 -98 3t-98.5 13.5t-85 17.5t-56.5 17q-20 13 -36.5 22t-27.5 20.5 t-18.5 28.5t-11.5 46t-6 71t-2 103v162q-21 53 -23 115l226 59v-49q0 -27 10 -50.5t27.5 -42t41 -27.5t50.5 -9h49q26 0 50 9t41 27.5t27.5 42t10.5 50.5v371q0 26 -10.5 50.5t-27.5 42t-41 28t-50 10.5h-49q-27 0 -50.5 -10.5t-41 -28t-27.5 -42t-10 -50.5v-43l-226 57 q2 72 31 134.5t77 108.5t111.5 72.5t135.5 26.5h49q74 0 138.5 -27.5t112.5 -76t75.5 -114t27.5 -138.5v-371q0 -74 -27.5 -138.5t-75.5 -112.5t-112.5 -76.5t-138.5 -28.5h-49q-56 0 -109 16v-57z" />
<glyph unicode="&#x100e;" horiz-adv-x="947" d="M500 207q26 0 49.5 10t41 27.5t28 41t10.5 50.5v373q0 22 -1 44.5t-6.5 41t-16.5 32t-34 17.5l43 221q62 -12 107 -46t73.5 -81t44 -106.5t15.5 -122.5v-373q0 -74 -27.5 -138.5t-76 -112.5t-113 -75.5t-137.5 -27.5h-49q-74 0 -138.5 27.5t-112.5 75.5t-76 112.5 t-28 138.5v268v2v2q0 19 14.5 37.5t34 34.5t43 30.5t42 29t31.5 26.5t13 25q2 32 -19.5 42.5t-72.5 10.5l-86 -2v225h164q53 0 94 -18.5t71 -46t44 -62.5t14 -68v-61q0 -35 -14 -65.5t-36.5 -56t-52.5 -48.5t-58 -43v-262q0 -27 10 -50.5t27.5 -41t41 -27.5t50.5 -10h49z " />
<glyph unicode="&#x100f;" horiz-adv-x="1860" d="M1405 213q27 0 50.5 9t40.5 25.5t27.5 40t10.5 50.5v373q0 26 -10.5 49.5t-27.5 42t-40.5 29t-50.5 10.5h-49q-27 0 -51.5 -10.5t-42 -29t-26.5 -42t-9 -49.5l-2 -369q0 -74 -22.5 -138.5t-61.5 -112.5t-91.5 -75.5t-111.5 -27.5h-16q-62 0 -113 27.5t-90 75.5 t-61.5 112.5t-22.5 138.5v385q-4 25 -15.5 45.5t-29 35.5t-39 24.5t-45.5 9.5h-49q-27 0 -50.5 -10.5t-42 -29t-27.5 -42t-9 -49.5v-373q0 -27 9 -50.5t27.5 -40t42 -25.5t50.5 -9h35l-46 -231q-71 2 -134.5 31.5t-110.5 76.5t-74 111.5t-27 136.5v373q0 73 28 138.5t77 114 t113.5 76t138.5 27.5h49q65 0 123.5 -21.5t105.5 -62.5q37 41 84 62.5t103 21.5h16q53 0 100 -22.5t86 -61.5q47 39 105.5 61.5t126.5 22.5h49q74 0 138.5 -27.5t112.5 -76t75.5 -114t27.5 -138.5v-373q0 -72 -26.5 -136.5t-73.5 -111.5t-109.5 -76.5t-134.5 -31.5l-47 231 h37zM860 334q2 -51 21.5 -86t46.5 -35h10q12 0 24.5 10t21.5 27.5t14.5 41t5.5 50.5l-5 381q-2 12 -5 32.5t-10 40t-18.5 34t-27.5 14.5h-10q-15 0 -26 -10.5t-20.5 -26.5t-14.5 -39t-7 -47v-387z" />
<glyph unicode="&#x1010;" horiz-adv-x="1502" d="M631 731q-4 23 -15.5 43.5t-29 34.5t-39 23.5t-45.5 9.5h-49q-27 0 -50.5 -10.5t-41 -29t-27.5 -42t-10 -49.5v-373q0 -27 10 -50.5t27.5 -41t41 -27.5t50.5 -10h49q26 0 49.5 10t41 27.5t29 41t11.5 50.5zM1034 209q27 0 50.5 10t41 27.5t27.5 41t10 50.5v373 q0 26 -10 49.5t-27.5 42t-41 29t-50.5 10.5h-49q-24 0 -45.5 -9.5t-39 -23.5t-29 -34.5t-15.5 -43.5v-393q0 -74 -27.5 -138.5t-75.5 -112.5t-113 -75.5t-138 -27.5h-49q-74 0 -138.5 27.5t-112.5 75.5t-76 112.5t-28 138.5v373q0 73 28 137.5t76 114t112.5 77t138.5 27.5 h49q69 0 130.5 -24.5t110.5 -69.5q48 45 110 69.5t132 24.5h49q74 0 138.5 -27.5t112.5 -77t76 -114t28 -137.5v-373q0 -72 -27 -135.5t-74 -111.5t-109.5 -76.5t-134.5 -30.5l-47 225h37z" />
<glyph unicode="&#x1011;" horiz-adv-x="1498" d="M858 723v-397q2 -25 13.5 -46.5t27.5 -38t39 -24.5t49 -8h47q29 0 52.5 9t41 26.5t27.5 41t10 52.5v373q0 26 -10 49.5t-27.5 42t-41 29t-52.5 10.5h-47q-26 0 -49 -9.5t-39 -25.5t-27.5 -37.5t-13.5 -46.5zM453 1067h49q69 0 131.5 -25.5t111.5 -70.5q48 45 109 70.5 t133 25.5h47q76 0 140.5 -27.5t112.5 -76t76 -114t28 -138.5v-373q0 -76 -28 -140.5t-76 -111.5t-112.5 -75.5t-140.5 -28.5h-47q-72 0 -133 25.5t-109 70.5q-49 -45 -111.5 -70.5t-131.5 -25.5h-49q-74 0 -138.5 28.5t-112.5 75.5t-77 111.5t-29 140.5v373q0 73 29 138.5 t77 114t112.5 76t138.5 27.5zM453 842q-27 0 -50.5 -10.5t-41 -29t-27.5 -42t-10 -49.5v-373q0 -29 10 -52.5t27.5 -41t41 -26.5t50.5 -9h49q24 0 46.5 8t40 24.5t29 38t13.5 46.5v397q-2 25 -13.5 46.5t-29 37.5t-40 25.5t-46.5 9.5h-49z" />
<glyph unicode="&#x1012;" horiz-adv-x="1064" d="M319 772q0 -8 9.5 -23.5t24 -32t30.5 -33.5t33 -32l-142 -166q-45 47 -76.5 81t-53 66t-33 63.5t-11.5 72.5q0 94 23.5 153.5t64.5 91t99.5 43t128.5 11.5h241q72 0 128.5 -12.5t96.5 -45t60.5 -91t20.5 -150.5q0 -33 -16.5 -63.5t-42 -60.5t-59.5 -56.5t-69 -48.5 q35 -27 69 -57.5t59.5 -61.5t42 -62.5t16.5 -60.5q0 -94 -15.5 -154.5t-51.5 -96.5t-94.5 -50t-144.5 -14h-184q-67 0 -134 5t-120 25.5t-86 59.5t-33 108l201 105q2 -19 5 -33t13.5 -24.5t28 -15.5t49.5 -5q19 0 54.5 1t74.5 1h75h56q45 0 61.5 19.5t16.5 68.5q0 4 -6 13 t-17.5 20.5t-24.5 24t-28 24.5q-32 27 -73 55q-15 8 -23 20.5t-8 32.5v144q0 8 8 17t23 14q41 22 73 43q29 18 52.5 35.5t23.5 27.5q0 43 -19.5 56.5t-58.5 13.5q-20 0 -53 1t-67.5 1h-68.5h-52q-47 0 -72 -13.5t-25 -54.5z" />
<glyph unicode="&#x1013;" horiz-adv-x="964" d="M457 1067h47q74 0 139.5 -27.5t113.5 -76t75.5 -114t27.5 -138.5v-373q0 -76 -27.5 -140.5t-75.5 -111.5t-113.5 -75.5t-139.5 -28.5h-47q-74 0 -139.5 28.5t-113.5 75.5t-76 111.5t-28 140.5v373q0 73 28 138.5t76 114t113.5 76t139.5 27.5zM592 242q-8 24 -19.5 47.5 t-23.5 42t-27.5 31t-34.5 12.5q-18 0 -35.5 -12.5t-33 -32t-27.5 -43t-22 -45.5q16 -17 38.5 -25t49.5 -8h47q26 0 47.5 8t40.5 25zM326 410q32 32 73 52.5t88 20.5q45 0 81 -17t67 -46v291q0 26 -10.5 49.5t-28.5 42t-42 29t-50 10.5h-47q-29 0 -51.5 -10.5t-41 -29 t-28.5 -42t-10 -49.5v-301z" />
<glyph unicode="&#x1014;" horiz-adv-x="1081" d="M121 268q36 74 86.5 111t104.5 41t109.5 -19.5t102.5 -72.5q31 -29 53.5 -59.5t36.5 -59.5h125l-483 498q-39 36 -55.5 77t-12.5 81t24.5 77t53.5 64.5t76 44t92 16.5h264q64 0 111 -28.5t70.5 -73.5t20.5 -99.5t-38 -101.5l-205 6l7 10.5t14.5 21.5t13.5 23.5t6 16.5 h-264l489 -498q33 -35 49.5 -71.5t16.5 -73.5v-6q-2 -37 -17.5 -72t-42 -62.5t-64.5 -47t-83 -25.5q-10 -2 -20.5 -3t-20.5 -1h-2h-88v-1035h-225v1035h-129h-2q-58 0 -101 27.5t-67.5 69.5t-26.5 92t21 97zM454 193q-4 12 -9 26t-17 29q-19 20 -42.5 34.5t-49 16.5t-50 -8 t-47.5 -39q-12 -14 -20 -27.5t-6 -29.5l65 -2h176z" />
<glyph unicode="&#x1015;" horiz-adv-x="957" d="M504 209q26 0 50 10t42 27.5t28.5 41t10.5 50.5v373q0 22 -2 45.5t-9.5 41t-21.5 30t-39 12.5l58 227q59 -10 104 -44t74.5 -81t45 -107.5t15.5 -123.5v-373q0 -74 -27.5 -138.5t-75.5 -112.5t-113.5 -76.5t-139.5 -28.5h-47q-74 0 -139.5 28.5t-113.5 76.5t-76 112.5 t-28 138.5v373q0 69 17.5 130.5t51.5 108.5t85 78t119 37l30 -225q-24 0 -40.5 -10.5t-23.5 -28t-10 -41t-3 -49.5v-373q0 -27 10 -50.5t28.5 -41t41 -27.5t51.5 -10h47z" />
<glyph unicode="&#x1016;" horiz-adv-x="951" d="M647 647l2 45q2 84 -12.5 134.5t-55.5 60.5q-18 -15 -23 -38.5t-1 -51t17 -56t34 -55.5q8 -10 20.5 -20.5t18.5 -18.5zM506 209q26 0 49.5 10t41 27.5t28 41t10.5 50.5v197q-25 18 -49.5 43.5t-51.5 62.5q-43 53 -55 106.5t-5 101.5t28.5 88t45 69.5t45 46t27.5 16.5 q62 -10 107 -44t74.5 -82t45 -107.5t15.5 -122.5v-375q0 -74 -27.5 -139.5t-77 -112.5t-114 -75.5t-137.5 -28.5h-50q-73 0 -137.5 28.5t-114 75.5t-77 112.5t-27.5 139.5v375q0 67 17.5 129.5t51 109.5t85 78t118.5 37l33 -225q-26 0 -41.5 -10.5t-24 -28t-11.5 -41 t-3 -49.5v-375q0 -27 11.5 -50.5t29 -41t41 -27.5t49.5 -10h50z" />
<glyph unicode="&#x1017;" horiz-adv-x="964" d="M586 891l35 178q61 -10 106 -44t74.5 -81t45 -107.5t15.5 -123.5v-373q0 -76 -27.5 -140.5t-76.5 -112.5t-113.5 -76.5t-138.5 -28.5h-49q-74 0 -138.5 28.5t-112.5 76.5t-77 112.5t-29 140.5v373q0 69 17.5 130.5t51.5 108.5t85 78t119 37l28 -172q19 -33 40.5 -55.5 t47.5 -22.5q27 0 51.5 21.5t45.5 52.5zM506 209q26 0 50 10t41 27.5t28.5 41t11.5 52.5v373v28q-33 -26 -69 -42.5t-79 -16.5q-53 0 -92 21.5t-69 58.5v-24.5v-24.5v-373q0 -29 9 -52.5t27.5 -41t42 -27.5t50.5 -10h49z" />
<glyph unicode="&#x1018;" horiz-adv-x="1498" d="M457 -18q-72 0 -136.5 27.5t-111.5 73.5t-77 108.5t-32 134.5l226 57v-45q0 -29 10 -52.5t28.5 -41t41 -26.5t51.5 -9h49q26 0 50 9t41 26.5t27.5 41t10.5 52.5v373q0 26 -10.5 49.5t-27.5 42t-41 29t-50 10.5h-49q-29 0 -51.5 -10.5t-41 -29t-28.5 -42t-10 -49.5v-52 l-226 64q2 72 31 134.5t77 109.5t112.5 73.5t136.5 26.5h49q69 0 131.5 -25.5t110.5 -70.5q49 45 110.5 70.5t130.5 25.5h49q74 0 138.5 -27.5t113.5 -76t77 -114t28 -138.5v-373q0 -74 -27 -137.5t-74 -110.5t-109.5 -76.5t-133.5 -31.5l-47 227h34q29 0 51.5 9t41 26.5 t27.5 41t9 52.5v373q0 26 -9 49.5t-27.5 42t-41 29t-51.5 10.5h-49q-24 0 -46.5 -10.5t-40 -25.5t-29 -38t-13.5 -47v-10v-373q0 -76 -27.5 -140.5t-75.5 -111.5t-112.5 -75.5t-138.5 -28.5h-49z" />
<glyph unicode="&#x1019;" horiz-adv-x="964" d="M635 416v297q0 22 -1 44.5t-8.5 41t-20.5 32t-38 17.5l56 223q59 -12 104 -46t76 -81t45 -107.5t14 -123.5v-375q0 -74 -27.5 -138.5t-75.5 -112.5t-113.5 -76.5t-139.5 -28.5h-49q-74 0 -138.5 28.5t-113.5 76.5t-77 112.5t-28 138.5v375q0 69 16.5 130.5t51.5 109.5 t85 78t120 36l33 -223q-27 -2 -42.5 -12.5t-23.5 -28t-10 -41t-2 -49.5v-305q32 32 73 51.5t88 19.5q46 0 81.5 -17.5t64.5 -45.5zM506 209q24 0 46.5 8t39.5 25q-8 22 -19.5 45.5t-23.5 42t-26.5 31t-33.5 12.5q-18 0 -35.5 -12.5t-31.5 -31t-27.5 -42t-23.5 -45.5 q16 -17 38.5 -25t47.5 -8h49z" />
<glyph unicode="&#x101a;" horiz-adv-x="1491" d="M997 838l47 227q72 -2 134.5 -31.5t108.5 -78t74 -112t28 -134.5v-369q0 -74 -29 -139.5t-76 -113.5t-111.5 -76.5t-138.5 -28.5h-49q-70 0 -131 24.5t-109 69.5q-49 -45 -110.5 -69.5t-130.5 -24.5h-49q-74 0 -138.5 28.5t-112.5 76.5t-76 113.5t-28 139.5v369 q0 63 14.5 122.5t45 106.5t76 81t104.5 46l43 -221q-23 -4 -34 -18.5t-16 -32t-6 -40t-1 -44.5v-369q0 -27 10 -51.5t27.5 -42t40 -27.5t51.5 -10h49q22 0 44.5 8t39 22.5t29 35t14.5 42.5l2 392q0 26 -3 49.5t-11.5 41t-23.5 28t-40 10.5l33 225q65 -8 116.5 -38t85 -78 t51 -108.5t17.5 -129.5v-392q2 -22 13.5 -42.5t29 -35t40 -22.5t44.5 -8h49q27 0 50.5 10t41 27.5t27.5 42t10 51.5v369q0 26 -10 49.5t-27.5 41t-41 28t-50.5 10.5h-37z" />
<glyph unicode="&#x101b;" horiz-adv-x="961" d="M385 217q18 19 23.5 41.5t0 45t-18.5 46t-32 43.5q-8 13 -23.5 28t-23.5 23v-106q0 -16 7.5 -34.5t17.5 -37t23.5 -32t25.5 -17.5zM864 -825h49l-2 -226q-86 0 -138 12.5t-81.5 39t-40 70.5t-12.5 108l-2 1530q0 26 -10.5 49.5t-27.5 42t-40.5 29t-50.5 10.5h-49 q-29 0 -51.5 -10.5t-41 -29t-28.5 -42t-10 -49.5v-148q26 -20 52 -50t54 -67q68 -90 87.5 -152.5t-11.5 -113.5l-111 -198q-63 10 -118.5 41.5t-95.5 78.5t-62.5 106.5t-22.5 127.5v375q0 73 28 138.5t77 114t114.5 77t139.5 28.5h49q74 0 139.5 -28.5t113.5 -77t75.5 -114 t27.5 -138.5v-1534z" />
<glyph unicode="&#x101c;" horiz-adv-x="1502" d="M446 842q-24 -2 -46.5 -13.5t-39 -29t-25.5 -40t-9 -48.5v-373q0 -27 10 -50.5t27.5 -42t41 -27.5t50.5 -9h37l-48 -227q-71 2 -133.5 31.5t-109.5 76.5t-74 111.5t-27 136.5v373q0 73 28 138.5t76 114t112.5 76t138.5 27.5h49q71 0 136 -26.5t113 -73.5t76.5 -109.5 t30.5 -134.5v-195v-190q0 -27 10.5 -50.5t27.5 -42t41 -27.5t50 -9h49q29 0 51.5 9t41 27.5t27.5 42t9 50.5v373q0 26 -9 49.5t-27.5 42t-41 29t-51.5 10.5h-34l45 225q71 -2 134.5 -30.5t109.5 -77t74 -113t28 -135.5v-373q0 -74 -29 -139.5t-77 -112.5t-112.5 -75.5 t-138.5 -28.5h-49q-71 0 -134.5 26.5t-112 73.5t-77 109.5t-30.5 132.5l-1 16t-1 44v62.5v71.5v193q0 26 -10.5 49.5t-27.5 42t-41 29t-50 10.5h-58z" />
<glyph unicode="&#x101d;" horiz-adv-x="954" d="M462 1069h49q74 0 139.5 -29t114.5 -78t78 -114.5t29 -141.5v-373q0 -76 -29 -141.5t-78 -113.5t-114.5 -77t-139.5 -29h-49q-76 0 -141.5 29t-113.5 77t-76.5 113.5t-28.5 141.5v373q0 76 28.5 141.5t76.5 114.5t113.5 78t141.5 29zM462 839q-26 0 -51 -10t-42 -28.5 t-27.5 -42t-10.5 -52.5v-373q0 -27 10.5 -51.5t27.5 -42t42 -27.5t51 -10h49q27 0 50.5 10t42 27.5t28.5 42t10 51.5v373q0 29 -10 52.5t-28.5 42t-42 28.5t-50.5 10h-49z" />
<glyph unicode="&#x101e;" horiz-adv-x="1502" d="M506 1067q74 0 138.5 -27.5t112.5 -76t75.5 -114t27.5 -136.5v-375v-10q2 -25 13.5 -47.5t29 -38t40 -24.5t46.5 -9h49q29 0 51.5 9t41 27.5t27.5 42t9 50.5v375q0 26 -9 49.5t-27.5 41t-41 28t-51.5 10.5h-34l47 225q71 -2 133.5 -30.5t109.5 -77t74 -112t27 -134.5 v-375q0 -74 -28 -139.5t-77 -112.5t-113.5 -75.5t-138.5 -28.5h-49q-69 0 -130.5 25.5t-110.5 70.5q-48 -45 -110.5 -70.5t-131.5 -25.5h-49q-72 0 -136.5 27.5t-112.5 73.5t-77 109.5t-31 135.5l226 61v-51q0 -27 10 -50.5t28.5 -42t41 -27.5t51.5 -9h49q26 0 50 9t41 27.5 t27.5 42t10.5 50.5v375q0 26 -10.5 49.5t-27.5 41t-41 28t-50 10.5h-49q-29 0 -51.5 -10.5t-41 -28t-28.5 -41t-10 -49.5v-45l-226 55q2 72 32 134.5t77 109.5t111.5 73.5t136.5 26.5h49z" />
<glyph unicode="&#x101f;" horiz-adv-x="1502" d="M1042 211q27 0 50.5 9t42 27.5t29 42t10.5 52.5v373q0 26 -10.5 49.5t-29 42t-42 29t-50.5 10.5h-49q-24 0 -46.5 -9.5t-40 -25.5t-29 -37.5t-15.5 -46.5q0 -2 1 -19.5t1 -44v-61.5v-72v-190q0 -76 -27.5 -140.5t-76.5 -112.5t-113.5 -76.5t-138.5 -28.5h-49 q-74 0 -139.5 28.5t-113.5 76.5t-77 112.5t-29 140.5v373q0 69 17.5 130.5t51.5 109.5t85 79t119 37l33 -225q-25 0 -41.5 -11.5t-23.5 -29t-10 -41t-3 -49.5v-373q0 -29 10 -52.5t28.5 -41t41 -27.5t51.5 -10h49q27 0 50.5 10t40.5 27.5t27.5 41t10.5 52.5v395 q0 21 -2 39.5t-8 33.5t-17.5 26.5t-29.5 15.5l43 221q45 -8 80.5 -28.5t64.5 -51.5q45 39 103.5 59.5t121.5 20.5h49q74 0 138.5 -27.5t113.5 -75.5t77 -114t28 -139v-373q0 -74 -26.5 -138.5t-74 -112.5t-111 -76.5t-134.5 -30.5l-47 227h36z" />
<glyph unicode="&#x1020;" horiz-adv-x="947" d="M174 -41q62 -37 134.5 -54.5t158.5 -15.5q45 0 88 7.5t80 17.5v92q-62 -22 -129 -22h-49q-74 0 -138.5 27.5t-112.5 75.5t-77 112.5t-29 140.5v371q0 73 29 138.5t77 114t112.5 76t138.5 27.5h49q72 0 135.5 -26.5t111.5 -72.5t76.5 -109.5t30.5 -135.5l-225 -55v43 q0 26 -10.5 49.5t-27.5 42t-41 29t-50 10.5h-49q-27 0 -50.5 -10.5t-42 -29t-27.5 -42t-9 -49.5v-371q0 -29 9 -52.5t27.5 -42t42 -27.5t50.5 -9h49q26 0 50 9t41 27.5t27.5 42t10.5 52.5v49l225 -61q0 -43 -12 -90v-193v-69.5v-62.5v-44v-19q0 -47 -30 -77.5t-68 -42.5 q-33 -9 -63 -17t-60.5 -14t-68.5 -10t-89 -4q-37 0 -72 3t-69 7v-430q0 -29 5 -46.5t18.5 -27.5t35 -13t55.5 -3h86q31 0 50.5 5t28.5 18.5t12.5 39t3.5 64.5l-136 -62l-38 82l165 80q64 27 107 22.5t69.5 -22.5t40 -47t17.5 -53q0 -84 -4 -141.5t-15.5 -97.5t-30 -62.5 t-46 -35t-65.5 -15.5t-89 -3h-283q-67 0 -109 19.5t-65.5 59.5t-31 99.5t-7.5 139.5v532l-2 113q0 24 10.5 36.5t22.5 16.5t24.5 2t16.5 -6z" />
<glyph unicode="&#x1021;" horiz-adv-x="1588" d="M1102 190q37 0 68.5 14.5t55 38t38 56.5t14.5 70v16q-21 -12 -46.5 -31.5t-57.5 -52.5q-62 -59 -72 -111zM319 772q0 -8 9.5 -23.5t23 -32t29.5 -33.5t33 -32l-142 -164q-45 45 -75.5 80t-52 67t-33 63.5t-11.5 70.5q-4 96 18.5 154.5t64.5 91.5t101.5 43t129.5 10h241 q72 0 130.5 -13.5t95.5 -47.5q45 28 96 44.5t108 16.5h50q73 0 138.5 -27.5t114 -76t76 -113t27.5 -137.5v-373q0 -74 -26.5 -139.5t-74 -114.5t-109.5 -79t-134 -32q-70 52 -104.5 97t-38 91t27.5 97t96 115q39 35 72 62.5t64 39.5v236q0 26 -10.5 49.5t-28 41t-41 28 t-49.5 10.5h-50q-43 0 -77.5 -25.5t-49.5 -64.5q-4 -31 -21 -59.5t-43 -56.5t-56.5 -52.5t-65.5 -44.5q37 -27 69.5 -56.5t59.5 -61.5t43.5 -62.5t16.5 -59.5q0 -94 -15.5 -154.5t-51.5 -97.5t-94.5 -51t-144.5 -14h-184q-68 0 -134.5 5t-118.5 25.5t-86 60.5t-34 109 l201 105q4 -19 7 -33t12.5 -24.5t26.5 -15.5t50 -5q19 0 54.5 1t74.5 1h75h56q45 0 61.5 19.5t16.5 68.5q0 10 -23.5 33.5t-52.5 46.5q-32 27 -73 57q-15 8 -24 19.5t-9 31.5l2 136q2 10 9 23t22 18q41 20 73 41q29 18 52.5 35.5t23.5 27.5q0 43 -19.5 56.5t-58.5 13.5 q-20 0 -53 1t-67.5 1h-68.5h-52q-47 0 -71 -13.5t-24 -54.5z" />
<glyph unicode="&#x1022;" horiz-adv-x="1494" d="M457 839q-27 0 -50.5 -10t-42 -28.5t-28.5 -42t-10 -50.5v-264q30 -20 59 -42.5t52.5 -49.5t37.5 -56.5t14 -68.5v-104q0 -68 -45 -110t-151 -42h-195v225h86q35 0 60.5 10.5t31.5 43.5q5 12 -7.5 24t-32 25.5t-43 29t-44 33t-35 34.5t-16.5 38v2v2v270q0 74 29 139.5 t77 113.5t113.5 77t139.5 29h49q72 0 134 -26t112 -71q47 45 108.5 70t132.5 25h49q74 0 139.5 -28t113.5 -77t77 -114.5t29 -139.5v-377q0 -71 -27.5 -135.5t-75 -113t-111 -78t-134.5 -31.5l-47 227h36q27 0 50.5 11.5t42 29t29 41t10.5 49.5v377q0 27 -10.5 51.5t-29 42 t-42 27.5t-50.5 10h-49q-24 0 -45.5 -8t-39 -23.5t-29 -35t-15.5 -41.5v-398q0 -63 -14 -123.5t-45 -107.5t-77 -81t-105 -48l-43 223q20 6 32.5 19.5t17.5 32t6 41t1 44.5v197q0 39 -1 74t-1 63.5v46t-2 28.5t-13.5 31.5t-29 36t-39 23.5t-45.5 8h-49z" />
<glyph unicode="&#x1023;" horiz-adv-x="1502" d="M1040 215q27 0 50.5 10.5t42 28.5t28.5 41.5t10 50.5v375q0 27 -10 51.5t-28.5 41.5t-42 27.5t-50.5 10.5h-49q-24 0 -45.5 -8t-39 -23.5t-29 -35t-15.5 -44.5v-19v-46v-63.5v-71.5v-195q0 -70 -16.5 -131t-51 -109.5t-86 -78t-118.5 -37.5l-33 225q27 2 42 12.5 t23.5 27.5t11.5 40.5t3 50.5l-2 395q-2 25 -14.5 44.5t-30 35t-39 23.5t-45.5 8h-49q-27 0 -50.5 -10.5t-42 -27.5t-27.5 -41.5t-9 -51.5v-375q0 -22 1 -44.5t6 -41t16 -32t34 -17.5l-43 -223q-61 12 -107.5 46t-76 82t-45 107.5t-15.5 122.5v375q0 74 29 139.5t77 114.5 t113.5 76.5t139.5 27.5h49q72 0 133 -25.5t111 -70.5q47 45 109.5 70.5t131.5 25.5h49q74 0 139.5 -27.5t113.5 -76.5t77 -114.5t29 -139.5v-375q0 -72 -28 -136.5t-75 -113.5t-110.5 -76.5t-134.5 -29.5l-47 225h36zM1171 -735v342q0 26 -10 50t-28.5 41t-42 27.5 t-50.5 10.5h-49q-24 0 -45.5 -8.5t-39 -23.5t-29 -35.5t-15.5 -43.5v-11v-23.5v-33v-36.5v-101q0 -67 -16.5 -129.5t-51 -109.5t-86 -78t-118.5 -39l-33 227q27 0 42 10.5t23.5 28t11.5 41t3 49.5l-2 205q-2 23 -14.5 43.5t-30 35.5t-39 23.5t-45.5 8.5h-49 q-27 0 -50.5 -10.5t-42 -27.5t-27.5 -41t-9 -50v-187q0 -22 1 -44.5t6 -40t16 -32t34 -18.5l-43 -223q-61 12 -107.5 46t-76 82t-45 107.5t-15.5 122.5v187q0 71 29 137t77 114t113.5 75.5t139.5 27.5h49q72 0 133 -24.5t111 -69.5q47 45 109.5 69.5t131.5 24.5h49 q74 0 139.5 -27.5t113.5 -75.5t77 -114t29 -137v-332q0 -29 4 -46t14 -27.5t27.5 -13.5t44.5 -3v-227q-82 0 -141.5 12t-98.5 47t-58.5 93.5t-19.5 150.5v4z" />
<glyph unicode="&#x1024;" horiz-adv-x="1815" d="M1176 719q0 26 -11.5 50t-29 42t-41 28.5t-50.5 10.5h-49q-24 0 -46.5 -9.5t-40 -23.5t-29 -34.5t-15.5 -45.5v-200q0 -86 2 -195q0 -72 -17.5 -133.5t-52 -109.5t-86 -77.5t-118.5 -37.5l-35 227q29 0 44 10t23.5 27.5t10.5 41t2 52.5v395q-4 25 -16.5 45.5t-29 34.5 t-39 23.5t-46.5 9.5h-49q-27 0 -50.5 -10.5t-42 -28.5t-28.5 -42t-10 -50v-377q0 -25 1 -47.5t7 -40.5t17 -30.5t34 -18.5l-45 -225q-61 14 -106.5 46.5t-75 82t-45 108.5t-15.5 125v377q0 74 28 139.5t77 114.5t114.5 76.5t139.5 27.5h49q72 0 134 -25.5t110 -70.5 q49 45 111.5 70.5t133.5 25.5h49q74 0 139.5 -27.5t114 -76.5t77 -114.5t28.5 -139.5v-1450q0 -80 -23.5 -140.5t-66.5 -100.5t-101.5 -59.5t-128.5 -19.5h-645q-51 0 -96 3.5t-84 14.5t-69.5 34.5t-52 62.5t-33 98.5t-11.5 143.5v41q0 59 16.5 103t44 75t64.5 50t76 29.5 t79 13.5t77 3q63 0 135.5 -18.5t149.5 -48t155 -69.5t151 -81l-71 -149q-23 10 -61 29.5t-86 44t-102 49t-109.5 44t-104.5 29.5t-89 5t-65.5 -27.5t-29.5 -69.5v-53q0 -39 6 -64.5t20 -39t37 -18.5t53 -5h645q27 0 45.5 3t28.5 13t14.5 27.5t4.5 46.5v1450zM1716 692v-1741 l-227 -2v1735q0 37 -1 83t-6 95t-16.5 96.5t-31 83t-48 58t-69.5 22.5q-76 0 -141.5 29t-113.5 78t-77 114.5t-29 139.5v276q0 74 29 139.5t77 113.5t113.5 77t141.5 29h49q72 0 136.5 -27t113.5 -75t77.5 -111.5t30.5 -135.5l-229 -55v45q0 27 -10 51.5t-27.5 42t-41 27.5 t-50.5 10h-49q-29 0 -52.5 -10t-42 -27.5t-27.5 -42t-9 -51.5v-276q0 -29 9 -52.5t27.5 -41t42 -27.5t52.5 -10q20 0 52 -7.5t65.5 -20.5t69.5 -32.5t69 -46.5q53 -45 81.5 -110.5t43 -140t16.5 -153.5t2 -149z" />
<glyph unicode="&#x1025;" horiz-adv-x="969" d="M115 236q-9 20 -12 42.5t-5 47.5l228 61v-51q0 -27 10 -50.5t28.5 -42t41 -27.5t51.5 -9h47q26 0 51 9t42 27.5t27.5 42t10.5 50.5v375q0 26 -10.5 49.5t-27.5 41t-42 29t-51 11.5h-47q-29 0 -51.5 -11.5t-41 -29t-28.5 -41t-10 -49.5v-45l-228 55q4 72 33 135.5 t77 110.5t112.5 73.5t136.5 26.5h47q74 0 139.5 -27.5t113.5 -77t75.5 -114t27.5 -137.5v-375q0 -74 -27.5 -138.5t-75.5 -113.5t-113.5 -76.5t-139.5 -27.5h-47q-31 0 -59.5 5t-57.5 15v-733q0 -31 4 -48.5t14.5 -27.5t27.5 -13t44 -3h86q33 0 55.5 5t37 18.5t20.5 39 t6 64.5h227q0 -82 -11 -140.5t-32.5 -98.5t-52.5 -62.5t-69 -35t-84 -15.5t-97 -3h-86q-68 0 -125 19.5t-100 59.5t-66.5 99.5t-23.5 141.5v969z" />
<glyph unicode="&#x1026;" horiz-adv-x="969" d="M115 236q-9 20 -12 42.5t-5 47.5l228 61v-51q0 -27 10 -50.5t28.5 -42t41 -27.5t51.5 -9h47q26 0 51 9t42 27.5t27.5 42t10.5 50.5v375q0 26 -10.5 49.5t-27.5 41t-42 29t-51 11.5h-47q-29 0 -51.5 -11.5t-41 -29t-28.5 -41t-10 -49.5v-45l-228 55q4 72 33 135.5 t77 110.5t112.5 73.5t136.5 26.5h47q74 0 139.5 -27.5t113.5 -77t75.5 -114t27.5 -137.5v-375q0 -74 -27.5 -138.5t-75.5 -113.5t-113.5 -76.5t-139.5 -27.5h-47q-31 0 -59.5 5t-57.5 15v-733q0 -31 4 -48.5t14.5 -27.5t27.5 -13t44 -3h86q33 0 55.5 5t37 18.5t20.5 39 t6 64.5h227q0 -82 -11 -140.5t-32.5 -98.5t-52.5 -62.5t-69 -35t-84 -15.5t-97 -3h-86q-68 0 -125 19.5t-100 59.5t-66.5 99.5t-23.5 141.5v969zM461 2126h51q74 0 140.5 -30t115.5 -79t79 -115.5t30 -142.5v-280q0 -74 -30 -140.5t-79 -117t-115.5 -79t-140.5 -28.5h-51 q-76 0 -141.5 28.5t-115.5 79t-79 117t-29 140.5v280q0 76 29 142.5t79 115.5t115.5 79t141.5 30zM600 1380q-8 25 -18.5 48.5t-23.5 44t-29.5 33t-34.5 12.5q-21 0 -38.5 -12.5t-32.5 -33t-27.5 -44t-22.5 -48.5q16 -16 38.5 -25t49.5 -9h51q25 0 48.5 9t39.5 25zM328 1552 q34 35 75 55.5t91 20.5q47 0 83.5 -18.5t67.5 -46.5v196q0 29 -10 52.5t-28.5 42t-43 28.5t-51.5 10h-51q-27 0 -51.5 -10t-43 -28.5t-28.5 -42t-10 -52.5v-207z" />
<glyph unicode="&#x1027;" horiz-adv-x="951" d="M471 162q51 2 89 10t61.5 26.5t36 49.5t14.5 80q-15 -2 -27 -6.5t-25.5 -12.5t-30 -21.5t-34.5 -31.5q-31 -29 -50.5 -52.5t-33.5 -41.5zM586 -16q-19 -2 -37.5 -2h-36.5h38.5t35.5 2zM854 813q-29 -57 -62.5 -101t-78.5 -61.5t-99.5 -4.5t-119.5 71q-33 28 -57.5 55 t-41.5 53q-30 -16 -48.5 -46.5t-18.5 -67.5v-373q0 -39 18.5 -68.5t48.5 -46.5q17 27 41.5 52.5t57.5 56.5q65 55 119.5 69.5t99.5 -3t78.5 -61.5t62.5 -101q2 -7 0 -9q-6 -67 -27.5 -112t-55.5 -73t-80 -41t-105 -17q-17 -2 -35.5 -2h-38.5h-55q-74 0 -138.5 27.5 t-113.5 75.5t-77 113.5t-28 139.5v373q0 73 28 137.5t77 114t113.5 77t138.5 27.5h51q76 0 136.5 -9t104.5 -36t70.5 -75t34.5 -126q2 -2 0 -8zM471 887q27 -37 84 -94q18 -21 34.5 -33t30 -20.5t25.5 -12.5t27 -6q-2 47 -14.5 77.5t-36 50t-61.5 28t-89 10.5z" />
<glyph unicode="&#x1028;" d="M774 239v-4q-1 -15 -6.5 -33.5t-15.5 -37.5t-24.5 -37t-33.5 -33q-28 -22 -63.5 -31t-70.5 -9t-64 7.5t-44 19.5q-38 29 -58 63t-18 81q0 16 3 32t7.5 29.5l8 24l5.5 16.5q9 30 2.5 45t-24 15t-42.5 -15t-52 -43l-17 141q35 35 79 50t82.5 10.5t65 -27.5t26.5 -62v-19 v-34q-1 -23 -1.5 -43t-2.5 -38.5t-7.5 -36.5t-17.5 -37q-3 -23 6.5 -32t21.5 -7t22 15.5t7 36.5v462q0 27 -10 50.5t-27.5 41t-41.5 28t-51 10.5h-49q-25 0 -50 -10q-35 -16 -56.5 -48t-21.5 -72v-1162q0 -2 -1 -2v-231q0 -27 10.5 -50.5t28 -41t41 -28t50.5 -10.5h49 q27 0 50.5 10.5t41.5 28t28 41t10 50.5v45l226 -57q-2 -72 -31 -134.5t-77 -109t-111.5 -73.5t-136.5 -27h-49q-74 0 -138.5 28t-113 76.5t-76.5 113t-28 138.5v374v10v619q-1 5 -1 18v374q0 55 16 105t44.5 92.5t68 76t87.5 54.5q66 29 141 29h50q74 0 139 -28t113 -76.5 t76 -113.5t28 -139z" />
<glyph unicode="&#x1029;" horiz-adv-x="1881" d="M907 1067q74 0 138.5 -27.5t113.5 -77t77 -115t28 -136.5v-373v-10q2 -27 12 -48.5t28.5 -37t41 -24.5t49.5 -9h47q26 0 50 9t41 27.5t27.5 42t10.5 50.5v373q0 26 -10.5 49.5t-27.5 41t-41 28t-50 10.5h-37l47 227q74 -2 136.5 -30.5t109.5 -78t73.5 -113t26.5 -134.5 v-373q0 -74 -27.5 -139.5t-76.5 -112.5t-113.5 -75.5t-138.5 -28.5h-47q-72 0 -134.5 25.5t-109.5 70.5q-49 -45 -110.5 -70.5t-133.5 -25.5h-47q-72 0 -136.5 27.5t-112.5 73.5t-76.5 109.5t-30.5 135.5l227 61v-51q0 -27 10.5 -50.5t27.5 -42t41 -27.5t50 -9h47 q29 0 51.5 9t41 27.5t27.5 42t9 50.5v373q0 26 -9 49.5t-27.5 41t-41 28t-51.5 10.5h-47q-26 0 -50 -10.5t-41 -28t-27.5 -41t-10.5 -49.5v-45l-227 57q2 70 30.5 133.5t76.5 110.5t112.5 73.5t136.5 26.5h47zM1559 1741q0 22 -5.5 43.5t-15.5 39t-28.5 29t-45.5 11.5h-1007 q-60 0 -93.5 -32t-33.5 -95v-2456q0 -26 4 -43.5t14 -28t27.5 -14.5t44.5 -4h1018q30 0 52.5 5t37 19.5t20.5 39t6 65.5v641h228v-641q0 -125 -25.5 -194.5t-71 -105.5t-109 -45t-138.5 -9h-1018q-68 0 -126 19.5t-100 59.5t-66 98t-24 138v2456q0 82 27 146.5t75 110.5 t112.5 71.5t138.5 25.5h1007q158 0 240 -87t82 -263h-227z" />
<glyph unicode="&#x102a;" horiz-adv-x="3654" d="M1804 1067q74 0 138.5 -27.5t112.5 -77t77 -115t29 -136.5v-373v-10q0 -27 11 -48.5t28.5 -37t40 -24.5t49.5 -9h47q26 0 49.5 9t42 27.5t29 42t10.5 50.5v373q0 26 -10.5 49.5t-29 41t-42 28t-49.5 10.5h-35l47 227q72 -2 134.5 -30.5t109.5 -78t73.5 -113t26.5 -134.5 v-373q0 -74 -27.5 -139.5t-75.5 -112.5t-114 -75.5t-139 -28.5h-47q-72 0 -134.5 25.5t-109.5 70.5q-47 -45 -108.5 -70.5t-133.5 -25.5h-49q-72 0 -135.5 27.5t-111.5 73.5t-76.5 109.5t-32.5 135.5l227 61v-51q0 -27 10.5 -50.5t27.5 -42t41 -27.5t50 -9h49q27 0 50.5 9 t41 27.5t27.5 42t10 50.5v373q0 26 -10 49.5t-27.5 41t-41 28t-50.5 10.5h-49q-26 0 -50 -10.5t-41 -28t-27.5 -41t-10.5 -49.5v-45l-227 57q4 70 32.5 133.5t76.5 110.5t111.5 73.5t135.5 26.5h49zM494 195q81 4 124.5 38.5t45.5 110.5q-23 -2 -47.5 -22.5t-57.5 -51.5 q-47 -47 -65 -75zM324 711v-310v-63q0 -39 18 -68.5t49 -46.5q19 27 43.5 52.5t57.5 56.5q65 55 121.5 74.5t101.5 5t78.5 -59.5t56.5 -116q2 -5 2 -9q-8 -67 -28.5 -112t-55.5 -74t-81 -42t-103 -17h-131q-74 0 -138.5 27.5t-112.5 75.5t-77 112.5t-29 140.5v254v119 q0 73 29 137.5t77 114t112.5 77t138.5 27.5h49q102 0 169.5 -22.5t109.5 -63.5t59.5 -93t19.5 -110l-207 -67q0 41 -13 65.5t-34.5 38.5t-49.5 19.5t-54 5.5h-49q-27 0 -50.5 -10.5t-41 -28t-27.5 -41t-10 -49.5zM3201 219h-37l47 -223q72 2 134.5 29.5t108.5 76t72.5 111.5 t26.5 135v371q0 72 -27.5 136.5t-74.5 112.5t-111.5 75.5t-138.5 27.5h-47q-74 0 -137.5 -26.5t-110.5 -73.5t-75.5 -109.5t-30.5 -134.5l225 -59v51q0 26 9 50t26.5 41t41 27.5t52.5 10.5h47q27 0 50.5 -10.5t41 -27.5t27.5 -41t10 -50v-371q0 -26 -10 -50t-27.5 -41 t-41 -27.5t-50.5 -10.5zM2458 1741q0 22 -5.5 43.5t-15.5 39t-28.5 29t-45.5 11.5h-1007q-60 0 -93.5 -32t-33.5 -95v-2456q0 -26 4 -43.5t14 -23t27.5 -5.5h44.5h1018h53t37 10.5t20.5 35t6.5 65.5v641h227v-641q0 -125 -25.5 -194.5t-70.5 -105.5t-108.5 -45t-139.5 -9 h-1018q-68 0 -126 19.5t-100 59.5t-65.5 98t-23.5 138v2456q0 82 26.5 146.5t74.5 110.5t112.5 71.5t138.5 25.5h1007q158 0 240 -87t82 -263h-227zM3295 1354v-230h-145q-72 0 -136.5 29t-111.5 78t-74.5 113.5t-27.5 140.5v276q0 76 27.5 141.5t74.5 114.5t111.5 78 t136.5 29h47q72 0 134.5 -28t109.5 -75t75.5 -110.5t30.5 -136.5l-221 -58v45q0 29 -10.5 52.5t-27.5 42t-40.5 28.5t-50.5 10h-47q-27 0 -49.5 -10t-40 -28.5t-27.5 -42t-10 -52.5v-276q0 -27 10 -51.5t27.5 -42t40 -27.5t49.5 -10h145z" />
<glyph unicode="&#x102b;" horiz-adv-x="432" d="M332 1759v-1759h-226l-2 1759q0 27 -9 50.5t-27.5 41t-42 27.5t-50.5 10h-49q-26 0 -49.5 -10t-41 -27.5t-29 -41t-11.5 -50.5v-377h-225v377q0 74 27.5 138.5t75.5 112.5t114 77t139 29h49q74 0 138.5 -29t113.5 -77t77 -112.5t28 -138.5z" />
<glyph unicode="&#x102c;" horiz-adv-x="749" d="M309 219q27 0 50.5 10.5t41 27.5t27.5 41t10 50v371q0 26 -10 50t-27.5 41t-41 27.5t-50.5 10.5h-49q-26 0 -50 -10.5t-41 -27.5t-27.5 -41t-10.5 -50v-51l-223 59q2 72 30.5 134.5t76 109.5t111 73.5t134.5 26.5h49q72 0 136.5 -27.5t112.5 -75.5t76 -112.5t28 -136.5 v-371q0 -72 -27 -135t-73 -111.5t-108.5 -76t-133.5 -29.5l-48 223h37z" />
<glyph unicode="&#x102d;" d="M-492 2124h49q74 0 139.5 -29t114.5 -78t78 -114.5t29 -141.5v-284q0 -76 -29 -141.5t-78 -113.5t-114.5 -77t-139.5 -29h-49q-76 0 -141.5 29t-113.5 77t-76.5 113.5t-28.5 141.5v284q0 76 28.5 141.5t76.5 114.5t113.5 78t141.5 29zM-492 1894q-26 0 -51 -10t-42 -28.5 t-27.5 -42t-10.5 -52.5v-284q0 -27 10.5 -51.5t27.5 -42t42 -27.5t51 -10h49q27 0 50.5 10t42 27.5t28.5 42t10 51.5v284q0 29 -10 52.5t-28.5 42t-42 28.5t-50.5 10h-49z" />
<glyph unicode="&#x102e;" d="M-494 2126h51q74 0 140.5 -30t115.5 -79t79 -115.5t30 -142.5v-280q0 -74 -30 -140.5t-79 -117t-115.5 -79t-140.5 -28.5h-51q-76 0 -141.5 28.5t-115.5 79t-79 117t-29 140.5v280q0 76 29 142.5t79 115.5t115.5 79t141.5 30zM-355 1380q-8 25 -18.5 48.5t-23.5 44 t-29.5 33t-34.5 12.5q-21 0 -38.5 -12.5t-32.5 -33t-27.5 -44t-22.5 -48.5q16 -16 38.5 -25t49.5 -9h51q25 0 48.5 9t39.5 25zM-627 1552q34 35 75 55.5t91 20.5q47 0 83.5 -18.5t67.5 -46.5v196q0 29 -10 52.5t-28.5 42t-43 28.5t-51.5 10h-51q-27 0 -51.5 -10t-43 -28.5 t-28.5 -42t-10 -52.5v-207z" />
<glyph unicode="&#x102f;" d="M-603 -825v780h230v-786h16h16.5h16.5l-2 -218q-86 0 -139.5 11.5t-83 37t-41 67.5t-13.5 108z" />
<glyph unicode="&#x1030;" d="M-760 -45h236v-1008h-236v1008zM-455 -813v768h236v-772h53l-2 -236q-90 0 -145.5 13.5t-85 41t-42 73.5t-14.5 112z" />
<glyph unicode="&#x1031;" horiz-adv-x="937" d="M494 195q81 4 124.5 38.5t45.5 110.5q-23 -2 -47.5 -22.5t-57.5 -51.5q-47 -47 -65 -75zM324 711v-310v-63q0 -39 18 -68.5t49 -46.5q19 27 43.5 52.5t57.5 56.5q65 55 121.5 74.5t101.5 5t78.5 -59.5t56.5 -116q2 -5 2 -9q-8 -67 -28.5 -112t-55.5 -74t-81 -42t-103 -17 h-131q-74 0 -138.5 27.5t-112.5 75.5t-77 112.5t-29 140.5v254v119q0 73 29 137.5t77 114t112.5 77t138.5 27.5h49q102 0 169.5 -22.5t109.5 -63.5t59.5 -93t19.5 -110l-207 -67q0 41 -13 65.5t-34.5 38.5t-49.5 19.5t-54 5.5h-49q-27 0 -50.5 -10.5t-41 -28t-27.5 -41 t-10 -49.5z" />
<glyph unicode="&#x1032;" d="M-712 1711l606 -286l-89 -211l-605 286z" />
<glyph unicode="&#x1033;" d="M-492 2124h49q74 0 139.5 -29t114.5 -78t78 -114.5t29 -141.5v-284q0 -76 -29 -141.5t-78 -113.5t-114.5 -77t-139.5 -29h-49q-76 0 -141.5 29t-113.5 77t-76.5 113.5t-28.5 141.5v284q0 76 28.5 141.5t76.5 114.5t113.5 78t141.5 29zM-492 1894q-26 0 -51 -10t-42 -28.5 t-27.5 -42t-10.5 -52.5v-284q0 -27 10.5 -51.5t27.5 -42t42 -27.5t51 -10h49q27 0 50.5 10t42 27.5t28.5 42t10 51.5v284q0 29 -10 52.5t-28.5 42t-42 28.5t-50.5 10h-49zM-480 1666v-89q0 -8 4 -13.5t10 -5.5q7 0 11 5.5t4 13.5v89q0 7 -4 12.5t-11 5.5q-6 0 -10 -5.5 t-4 -12.5zM-569 1674q0 17 6.5 31.5t17.5 25.5t25.5 17.5t31.5 6.5h45q18 0 32 -6.5t25 -17.5t17.5 -25.5t6.5 -31.5v-108q0 -16 -6.5 -30.5t-17.5 -25.5t-25 -17.5t-32 -6.5h-45q-17 0 -31.5 6.5t-25.5 17.5t-17.5 25.5t-6.5 30.5v108z" />
<glyph unicode="&#x1034;" d="M-106 1500l-605 -286l-89 211l606 286z" />
<glyph unicode="&#x1035;" d="M-337 1491q-17 0 -34.5 -13.5t-45.5 -41.5q-27 -25 -42.5 -45.5t-22.5 -35t-8 -25.5t3 -19h21q26 0 49.5 9t41 27.5t28 42t10.5 50.5v51zM-466 2091q71 0 135.5 -26.5t113 -74t77 -109.5t30.5 -134l-227 -55v43q0 26 -10.5 49.5t-28 42t-41 29t-49.5 10.5h-50 q-26 0 -49.5 -10.5t-41 -29t-28 -42t-10.5 -49.5v-295q0 -25 9.5 -48.5t23.5 -39.5q15 34 43.5 69t69.5 76q63 66 117.5 85t101.5 6t88 -55t78 -102l4 -2q-2 -71 -30.5 -133.5t-77 -109.5t-113 -75t-135.5 -28h-50q-73 0 -137.5 29t-114 77t-77 112.5t-27.5 138.5v295 q0 73 27.5 138.5t77 114t114 76t137.5 27.5h50z" />
<glyph unicode="&#x1036;" d="M-435 1549v-157q0 -14 7 -23.5t18 -9.5t18 9.5t7 23.5v157q0 14 -7 23.5t-18 9.5t-18 -9.5t-7 -23.5zM-593 1565q0 29 11 55t30.5 45.5t45.5 30.5t55 11h81q30 0 56 -11t45.5 -30.5t30.5 -45.5t11 -55v-192q0 -29 -11 -55t-30.5 -45.5t-45.5 -30.5t-56 -11h-81 q-29 0 -55 11t-45.5 30.5t-30.5 45.5t-11 55v192z" />
<glyph unicode="&#x1037;" d="M-495 -386v-157q0 -14 7 -23.5t18 -9.5t18 9.5t7 23.5v157q0 14 -7 23.5t-18 9.5t-18 -9.5t-7 -23.5zM-653 -370q0 29 11 55t30.5 45.5t45.5 30.5t55 11h81q30 0 56 -11t45.5 -30.5t30.5 -45.5t11 -55v-192q0 -29 -11 -55t-30.5 -45.5t-45.5 -30.5t-56 -11h-81 q-29 0 -55 11t-45.5 30.5t-30.5 45.5t-11 55v192z" />
<glyph unicode="&#x1038;" horiz-adv-x="569" d="M257 297v-157q0 -14 7 -23.5t18 -9.5t18 9.5t7 23.5v157q0 14 -7 23.5t-18 9.5t-18 -9.5t-7 -23.5zM99 313q0 29 11 55t30.5 45.5t45.5 30.5t55 11h81q30 0 56 -11t45.5 -30.5t30.5 -45.5t11 -55v-192q0 -29 -11 -55t-30.5 -45.5t-45.5 -30.5t-56 -11h-81q-29 0 -55 11 t-45.5 30.5t-30.5 45.5t-11 55v192zM257 918v-157q0 -14 7 -23.5t18 -9.5t18 9.5t7 23.5v157q0 14 -7 23.5t-18 9.5t-18 -9.5t-7 -23.5zM99 934q0 29 11 55t30.5 45.5t45.5 30.5t55 11h81q30 0 56 -11t45.5 -30.5t30.5 -45.5t11 -55v-192q0 -29 -11 -55t-30.5 -45.5 t-45.5 -30.5t-56 -11h-81q-29 0 -55 11t-45.5 30.5t-30.5 45.5t-11 55v192z" />
<glyph unicode="&#x1039;" horiz-adv-x="569" d="M387 918h-78v-918h-131v633q-45 0 -77.5 15.5t-55 44t-34 67.5t-11.5 84q0 63 15.5 105t44 66.5t70.5 36t95 11.5h344v-145h-49v-918h-133v918z" />
<glyph unicode="&#x103a;" d="M-362 1354v-230h-146q-72 0 -136.5 29t-111.5 78t-74.5 113.5t-27.5 140.5v276q0 76 27.5 141.5t74.5 114.5t111.5 78t136.5 29h47q72 0 134.5 -28t109.5 -75t75.5 -110.5t30.5 -136.5l-221 -58v45q0 29 -10 52.5t-27.5 42t-41 28.5t-50.5 10h-47q-27 0 -49.5 -10 t-39.5 -28.5t-27.5 -42t-10.5 -52.5v-276q0 -27 10.5 -51.5t27.5 -42t39.5 -27.5t49.5 -10h146z" />
<glyph unicode="&#x103b;" horiz-adv-x="298" d="M4 1057h223v-1880q0 -31 -9 -70t-30.5 -73.5t-54.5 -59.5t-78 -25h-82l-424 224v766h224v-644l231 -118v1880z" />
<glyph unicode="&#x103c;" horiz-adv-x="358" d="M991 1769q0 23 -5 44.5t-16.5 40t-29.5 28.5t-45 10h-436q-62 0 -95.5 -31.5t-33.5 -97.5v-2492q0 -31 4 -48.5t14 -27.5t28.5 -13t45.5 -3h446q31 0 53.5 5t38 18.5t21.5 39t6 64.5v653h230v-653q0 -84 -11.5 -143.5t-33 -98.5t-52 -62.5t-69.5 -34.5t-85 -15.5 t-98 -4.5h-446q-70 0 -128 19.5t-101 59.5t-68 101.5t-25 143.5v2492q0 82 28 148.5t76 113t113.5 72t141.5 25.5h436q162 0 244 -88t82 -265h-230z" />
<glyph unicode="&#x103d;" d="M-503 -1047q-75 -2 -129.5 13.5t-105.5 46.5q-119 74 -119 217v129q2 14 13.5 48t28.5 79t39 97t44 106q53 121 119 268h266q66 -150 119 -274q20 -54 41.5 -106t38 -96t28 -77t11.5 -45l-2 -129q0 -35 -4.5 -64.5t-14.5 -55t-28.5 -48.5t-45.5 -45q-28 -25 -58 -37 t-64.5 -18t-77.5 -7.5t-99 -1.5zM-480 -813q49 0 73.5 12.5t35 31.5t9.5 41.5t-1 45.5l-117 410l-125 -408q0 -22 1 -46t13.5 -43t38 -31.5t72.5 -12.5z" />
<glyph unicode="&#x103e;" d="M-377 -813q-2 -66 -13.5 -112t-42 -73.5t-85 -41t-144.5 -13.5l-2 236h51v772h236v-768z" />
<glyph unicode="&#x103f;" horiz-adv-x="2025" d="M1038 842h-34l45 225q71 -2 134.5 -30.5t109.5 -77t74 -113t28 -135.5v-324l2 2v-51q0 -27 9 -51.5t27.5 -42t42 -27.5t50.5 -10h49q27 0 50.5 10t42 27.5t28.5 42t10 51.5v373q0 26 -10 49.5t-28.5 41t-42 29t-50.5 11.5h-37l47 225q74 -2 136.5 -30.5t109.5 -77 t73.5 -113t26.5 -135.5v-373q0 -74 -27.5 -139.5t-76.5 -112.5t-113.5 -75.5t-138.5 -28.5h-49q-72 0 -134.5 25.5t-109.5 70.5q-47 -45 -109.5 -70.5t-134.5 -25.5h-49q-71 0 -132.5 25.5t-108.5 70.5q-50 -45 -111.5 -70.5t-132.5 -25.5h-47q-74 0 -137.5 27.5 t-111.5 73.5t-78 109.5t-32 135.5l228 61v-51q0 -27 10 -51.5t27.5 -42t41 -27.5t52.5 -10h47q26 0 50 10t42 27.5t28.5 42t10.5 51.5v373q0 26 -10.5 49.5t-28.5 41t-42 29t-50 11.5h-47q-29 0 -52.5 -11.5t-41 -29t-27.5 -41t-10 -49.5v-45l-228 57q4 72 33 134.5 t77 109.5t111.5 73.5t137.5 26.5h47q74 0 139.5 -27.5t113.5 -76t75.5 -114t27.5 -138.5v-373v-10q2 -25 13.5 -47.5t29 -39t40 -25.5t46.5 -9h49q27 0 50.5 10t42 27.5t27.5 42t9 51.5v373q0 26 -9 49.5t-27.5 41t-42 29t-50.5 11.5z" />
<glyph unicode="&#x1040;" horiz-adv-x="951" d="M500 209h6q26 0 50 10t41 27.5t27.5 41t10.5 50.5v373q0 26 -10.5 49.5t-27.5 42t-41 29t-50 10.5h-6v225h6q74 0 138.5 -27.5t112.5 -76t75.5 -114t27.5 -138.5v-373q0 -74 -27.5 -139.5t-75.5 -112.5t-112.5 -75.5t-138.5 -28.5h-6v227zM453 842q-27 -2 -49.5 -12.5 t-40 -28t-27.5 -41t-10 -49.5v-373q0 -27 10 -50.5t27.5 -41t40 -27.5t49.5 -10v-227q-74 2 -137.5 29.5t-111.5 75.5t-76 112.5t-28 138.5v373q0 73 28 137.5t76 113t111.5 77t137.5 28.5v-225zM500 209h6q26 0 50 10t41 27.5t27.5 41t10.5 50.5v373q0 26 -10.5 49.5 t-27.5 42t-41 29t-50 10.5h-6v225h6q74 0 138.5 -27.5t112.5 -76t75.5 -114t27.5 -138.5v-373q0 -74 -27.5 -139.5t-75.5 -112.5t-112.5 -75.5t-138.5 -28.5h-6v227zM453 842q-27 -2 -49.5 -12.5t-40 -28t-27.5 -41t-10 -49.5v-373q0 -27 10 -50.5t27.5 -41t40 -27.5 t49.5 -10v-227q-74 2 -137.5 29.5t-111.5 75.5t-76 112.5t-28 138.5v373q0 73 28 137.5t76 113t111.5 77t137.5 28.5v-225z" />
<glyph unicode="&#x1041;" horiz-adv-x="969" d="M510 1075q74 0 139.5 -27.5t113.5 -76.5t76.5 -114.5t28.5 -139.5v-377q0 -74 -28.5 -139.5t-76.5 -114.5t-113.5 -76.5t-139.5 -27.5h-49q-74 0 -137.5 26.5t-112.5 73.5t-78 110.5t-31 137.5l228 61v-51q0 -27 10 -51.5t27.5 -42t42 -27.5t51.5 -10h49q27 0 51.5 10 t42 27.5t27.5 42t10 51.5v377q0 26 -10 50t-27.5 41t-42 28.5t-51.5 11.5h-49q-27 0 -51.5 -11.5t-42 -28.5t-27.5 -41t-10 -50v-45l-228 55q2 74 32 137.5t78 110.5t111.5 73.5t137.5 26.5h49z" />
<glyph unicode="&#x1042;" horiz-adv-x="1121" d="M799 -696v1765h227v-1765q0 -82 -26.5 -147.5t-74.5 -111.5t-114 -72t-139 -26h-250q-162 0 -244 88t-82 265v77h228v-77q0 -23 5 -45.5t16 -40t29.5 -27.5t47.5 -10h250q59 0 93 31.5t34 95.5z" />
<glyph unicode="&#x1043;" horiz-adv-x="955" d="M510 1075q74 0 139.5 -27.5t113.5 -76.5t75.5 -114.5t27.5 -139.5v-377q0 -74 -27.5 -139.5t-75.5 -114.5t-113.5 -76.5t-139.5 -27.5h-31l381 -951l-213 -82l-463 1164q-39 45 -60.5 99t-23.5 118l230 61v-51q0 -27 10 -51.5t27.5 -42t41 -27.5t52.5 -10h49 q27 0 50.5 10t40.5 27.5t28.5 42t11.5 51.5v377q0 26 -11.5 50t-28.5 41t-40.5 28.5t-50.5 11.5h-49q-29 0 -52.5 -11.5t-41 -28.5t-27.5 -41t-10 -50v-45l-230 55q2 74 32 137.5t78 110.5t112.5 73.5t138.5 26.5h49z" />
<glyph unicode="&#x1044;" horiz-adv-x="960" d="M461 1075h49q72 0 136.5 -26.5t112.5 -73.5t76.5 -110.5t30.5 -137.5l-225 -55v45q0 26 -11.5 50t-28.5 41t-40.5 28.5t-50.5 11.5h-49q-29 0 -52.5 -11.5t-41 -28.5t-27.5 -41t-10 -50v-377q0 -27 10 -51.5t27.5 -42t41 -27.5t52.5 -10h49q27 0 50.5 10t40.5 27.5 t28.5 42t11.5 51.5v51l225 -61q-2 -64 -23.5 -118t-56.5 -99l-464 -1164l-213 82l378 951h-26q-76 0 -140.5 27.5t-113.5 76.5t-78 114.5t-29 139.5v377q0 74 29 139.5t78 114.5t113.5 76.5t140.5 27.5z" />
<glyph unicode="&#x1045;" horiz-adv-x="951" d="M324 518v-178q0 -6 1 -16.5t2 -20.5t5 -19.5t12 -13.5q45 31 49 105q2 41 -3 67.5t-15 43t-23.5 23.5t-27.5 9zM862 -301v-10v-375q0 -76 -27.5 -141.5t-76.5 -113.5t-114.5 -77t-139.5 -29h-49q-72 0 -136.5 28t-113.5 75t-78 110.5t-31 135.5l228 57v-45 q0 -29 10 -52.5t28.5 -41t42 -27.5t50.5 -10h49q26 0 50 10t42 27.5t28.5 41t10.5 52.5v229v2v1172q0 26 -10.5 50t-28.5 41t-42 28.5t-50 11.5h-49q-27 0 -50.5 -11.5t-42 -28.5t-28.5 -41t-10 -50v-62q55 -6 90 -29.5t55 -61.5t26.5 -88t4.5 -109q-4 -68 -31 -126.5 t-72 -94t-106.5 -41t-132.5 31.5q-29 45 -46.5 95.5t-17.5 107.5v377q0 74 29 139.5t78 114.5t114.5 76.5t139.5 27.5h49q74 0 139.5 -27.5t114.5 -76.5t76.5 -114.5t27.5 -139.5v-1018z" />
<glyph unicode="&#x1046;" horiz-adv-x="955" d="M106 1743q0 74 28 139.5t77 113.5t114.5 76.5t139.5 28.5h49q74 0 137.5 -26.5t111.5 -74.5t77.5 -110.5t31.5 -136.5l-227 -55v45q0 26 -10 50t-27.5 41t-42 28.5t-51.5 11.5h-49q-27 0 -51.5 -11.5t-42 -28.5t-27.5 -41t-10 -50v-1405q0 -74 45 -101.5t133 -27.5 q29 0 52.5 10t41 27.5t27.5 41t10 52.5v262q-29 21 -58.5 44.5t-52 50t-37 56t-14.5 66.5l8 111q7 35 21 64.5t36.5 50t55.5 29.5t76 3l199 -55l-35 -166l-56 23q-28 10 -49.5 14t-36 -2t-21.5 -26.5t-7 -59.5q0 -12 14 -25.5t35.5 -28t47.5 -30.5t48.5 -32.5t37.5 -36 t17 -40.5v0v-2v-272q0 -74 -28.5 -139.5t-76.5 -113.5t-113.5 -76.5t-139.5 -28.5q-92 0 -167 28.5t-129 76.5t-84 113.5t-30 141.5z" />
<glyph unicode="&#x1047;" horiz-adv-x="955" d="M330 330q0 -23 1 -43.5t5 -36.5l-213 -70q-10 35 -15.5 73t-5.5 77v377q0 73 28 138.5t77 114t113.5 77t140.5 28.5h49q74 0 139.5 -28.5t113.5 -77t76.5 -114t28.5 -138.5v-377q0 -90 -26 -162l-244 -786q-12 -48 -13 -84.5t16 -61t55 -38t106 -13.5v-227 q-94 0 -163 20.5t-116 55t-74.5 81.5t-40 101.5t-9.5 112t20 112.5l256 809q2 26 4 46.5t2 33.5v377q0 26 -11.5 49.5t-28.5 41t-40.5 29t-50.5 11.5h-49q-29 0 -52.5 -11.5t-41 -29t-27.5 -41t-10 -49.5v-377z" />
<glyph unicode="&#x1048;" horiz-adv-x="960" d="M371 209q16 18 15 48t-11 67q-13 47 -24 72.5t-23 37.5v-94q0 -21 1 -42.5t5 -38.5t12 -30.5t25 -19.5zM328 582q34 -7 62 -24t50.5 -47t39 -67.5t28.5 -85.5q14 -53 9 -101t-23.5 -91t-49 -84t-69.5 -82l-33 -20q-61 14 -106.5 46.5t-76 81t-46 107.5t-15.5 125v377 q0 74 29 139.5t78 114.5t113.5 76.5t140.5 27.5h47q76 0 141.5 -27.5t113.5 -76.5t76.5 -114.5t28.5 -139.5v-377q0 -70 -17.5 -132.5t-52 -109.5t-86 -77.5t-118.5 -36.5l-33 225q27 0 42 10t23.5 28.5t10.5 42t2 50.5v377q0 26 -10.5 50t-27.5 41t-42 28.5t-51 11.5h-47 q-29 0 -52.5 -11.5t-42 -28.5t-27.5 -41t-9 -50v-135z" />
<glyph unicode="&#x1049;" horiz-adv-x="964" d="M104 709q0 73 30 138.5t84 115t129 77t167 27.5q74 0 139.5 -27.5t113.5 -77t76.5 -115t28.5 -138.5v-273v-2v0q-2 -20 -17 -38.5t-37.5 -36t-48.5 -34t-47.5 -30.5t-35.5 -26.5t-14 -24.5q0 -39 7 -59.5t21.5 -27.5t36 -3t49.5 14l56 22l35 -165l-199 -56 q-43 -6 -76 3.5t-55.5 31t-36.5 51t-21 62.5l-8 110q0 37 14.5 68t37 57.5t52 49t58.5 42.5v265q0 26 -10 49.5t-27.5 41t-41 29t-52.5 11.5q-88 0 -133 -29t-45 -102v-1403q0 -29 10 -52.5t27.5 -41t42 -27.5t51.5 -10h49q27 0 51.5 10t42 27.5t27.5 41t10 52.5v45l227 -58 q-2 -71 -31.5 -134.5t-77.5 -110.5t-111.5 -75t-137.5 -28h-49q-74 0 -139.5 29t-114.5 78t-77 114.5t-28 139.5z" />
<glyph unicode="&#x104a;" horiz-adv-x="459" d="M100 -18l-2 1085h226v-1085h-224z" />
<glyph unicode="&#x104b;" horiz-adv-x="839" d="M414 1067h227v-1085h-227v1085zM100 -18l-2 1085h226v-1085h-224z" />
<glyph unicode="&#x104c;" horiz-adv-x="969" d="M862 -166v-559q0 -82 -7 -142.5t-30.5 -100.5t-65.5 -59.5t-112 -19.5h-287q-53 0 -92 4.5t-66.5 15.5t-46 34.5t-29.5 62.5t-15.5 98.5t-4.5 143.5q5 24 18 53t41 48.5t71 22.5t106 -22l170 -82l-41 -82l-135 62q0 -39 3 -64.5t12 -40t28.5 -19.5t50.5 -5h88 q35 0 57.5 3t35 14.5t17.5 28.5t5 46v426q-35 -4 -70 -7t-71 -1q-54 0 -107 6t-102.5 17.5t-94.5 25.5t-82 31v223q0 8 7.5 9t20.5 -4t32.5 -15.5t46.5 -22.5q20 -8 51 -19.5t67 -21.5t77 -17t86 -7q49 -2 98 5t95 20.5t87 33.5t72 45q16 14 16 0v-68v-100zM504 1085h-49 q-74 0 -138.5 -27.5t-113.5 -74.5t-78 -110.5t-31 -137.5l228 -55v45q0 27 10 50.5t28.5 42t42 28.5t52.5 10h49q26 0 50 -10t42 -28.5t28.5 -42t10.5 -50.5v-379q0 -27 -10.5 -50.5t-28.5 -41.5t-42 -28.5t-50 -10.5h-49q-29 0 -52.5 10.5t-42 28.5t-28.5 41.5t-10 50.5v51 l-228 -61q2 -74 31 -137.5t78 -110.5t113.5 -74.5t138.5 -27.5h49q74 0 139.5 28.5t114.5 76.5t76.5 114.5t27.5 140.5v379q0 74 -27.5 139.5t-76.5 114.5t-114.5 77.5t-139.5 28.5zM616 1350v-230h-149q-76 0 -141.5 29t-113.5 78t-77 114.5t-29 139.5v276q0 76 29 141.5 t77 114.5t113.5 78t141.5 29h49q74 0 138.5 -28t112.5 -75t77.5 -110.5t32.5 -137.5l-230 -57v45q0 29 -10 52.5t-27.5 42t-42 28.5t-51.5 10h-49q-27 0 -51.5 -10t-42 -28.5t-27.5 -42t-10 -52.5v-276q0 -27 10 -50.5t27.5 -42t42 -28.5t51.5 -10h149z" />
<glyph unicode="&#x104d;" horiz-adv-x="1272" d="M326 559q26 -20 51.5 -50t54.5 -67q70 -90 88.5 -152.5t-10.5 -113.5l-111 -201q-63 11 -118.5 42.5t-96.5 78.5t-63.5 106.5t-22.5 127.5v377q0 75 28 140.5t77 114t114.5 77t139.5 28.5h49q76 0 140.5 -28.5t113.5 -77t76.5 -114t27.5 -140.5v-1037l-227 -41v1078 q0 26 -10.5 50.5t-27.5 42t-42 28t-51 10.5h-49q-27 0 -50.5 -10.5t-42 -28t-28.5 -42t-10 -50.5v-148zM385 207q64 69 -27 188q-12 19 -23 32t-22 24v-105q0 -45 19.5 -81t52.5 -58zM946 -731v1415q0 37 -1 83t-6 95t-16.5 96.5t-30 83t-48 58t-70.5 22.5q-74 0 -139.5 29 t-114.5 78t-76.5 114.5t-27.5 139.5v276q0 74 27.5 139.5t76.5 113.5t114.5 77t139.5 29h49q74 0 137.5 -27t112.5 -75t79 -111.5t32 -135.5l-230 -55v45q0 27 -10 51.5t-27.5 42t-41 27.5t-52.5 10h-49q-26 0 -50 -10t-42 -27.5t-28.5 -42t-10.5 -51.5v-276 q0 -29 10.5 -52.5t28.5 -41t42 -27.5t50 -10q23 0 53.5 -7.5t65.5 -20.5t70.5 -32.5t66.5 -46.5q55 -45 84 -110.5t43 -140t16.5 -153.5t2.5 -149v-1423q0 -80 -24 -140.5t-67 -100.5t-101 -59.5t-128 -19.5h-405q-54 0 -99 3.5t-84 14.5t-69.5 34.5t-52 62.5t-33 98.5 t-11.5 143.5v41q0 90 36 149.5t90.5 91t116 38.5t114.5 -5q35 -8 61.5 -16t50 -19.5t46 -26t50 -35t63.5 -50t83 -70.5l-59 -113q-33 25 -75 58t-87 61.5t-89 48t-81 18.5t-60.5 -28t-29.5 -90v-53q0 -39 6 -64.5t20.5 -39t37 -18.5t55.5 -5h405q27 0 44.5 3t27.5 13 t14 27.5t4 46.5z" />
<glyph unicode="&#x104e;" horiz-adv-x="975" d="M463 1067h49q72 0 136.5 -26.5t112.5 -73.5t76.5 -110.5t32.5 -135.5l-229 -57v45q0 26 -9 49.5t-27.5 42t-42 29t-50.5 10.5h-49q-29 0 -52.5 -10.5t-41 -29t-27.5 -42t-10 -49.5v-377q0 -27 10 -50.5t27.5 -41t41 -27.5t52.5 -10h49q27 0 50.5 10t42 27.5t27.5 41 t9 50.5v53l229 -63q-2 -41 -12 -81t-29 -75v-1219h-229v1039q-43 -13 -88 -13h-49q-76 0 -141.5 29t-113.5 78t-76 113.5t-28 138.5v377q0 73 28 138.5t76 115t113.5 77t141.5 27.5z" />
<glyph unicode="&#x104f;" horiz-adv-x="1488" d="M471 158q53 2 91 10t62.5 27.5t37 51.5t14.5 81q-14 -4 -26.5 -8.5t-27 -12.5t-29.5 -20.5t-38 -32.5q-55 -57 -84 -96zM854 807q-29 -55 -63.5 -97t-78.5 -57.5t-98.5 -1t-117.5 71.5q-33 29 -58.5 55.5t-42.5 52.5q-33 -16 -51 -46.5t-18 -67.5v-379q0 -39 18 -69.5 t51 -47.5q17 27 42.5 53.5t58.5 57.5q65 57 121.5 71.5t100.5 -4t78.5 -62.5t61.5 -104q4 -6 4 -8q-8 -67 -29.5 -113t-56.5 -74t-82 -42t-106 -19l-131 -2q-74 0 -140.5 29t-115.5 78t-78 114.5t-29 141.5v379q0 74 29 140.5t78 115.5t115.5 76.5t140.5 27.5h49h4 q98 0 170 -15t117 -65q47 19 100 11.5t98 -41t74 -97t29 -159.5v-734h-185v646q0 36 -2 70t-8 59.5t-18.5 41t-30.5 13.5zM471 897q27 -41 84 -98q23 -21 38 -33t29.5 -20.5t27 -12.5t26.5 -8q-2 49 -14.5 81t-37 51.5t-62.5 28.5t-91 11zM1397 690v-713h-230v705 q0 37 -2 83t-7 95t-15 96.5t-29.5 84t-49.5 59t-71 22.5q-75 0 -141 29t-115 78t-76.5 114.5t-27.5 141.5v278q0 74 27.5 140.5t76.5 114.5t115 77t141 29h49q72 0 137.5 -28t114.5 -75t79 -110.5t32 -134.5l-231 -60v47q0 27 -10.5 50.5t-29 42t-42 28.5t-50.5 10h-49 q-26 0 -50.5 -10t-42 -28.5t-29 -42t-11.5 -50.5v-278q0 -27 11.5 -51.5t29 -42t42 -27.5t50.5 -10q23 0 53.5 -7.5t66.5 -20.5t71 -33.5t67 -45.5q54 -45 83.5 -111.5t43 -142t16.5 -154.5t3 -149z" />
<glyph unicode="&#x1050;" horiz-adv-x="964" d="M457 840q-29 0 -51.5 -10.5t-41 -28t-28.5 -41t-10 -49.5v-375q0 -23 1 -45.5t7 -41t17 -31.5t34 -17l-45 -224q-61 13 -106.5 46.5t-75 82t-45 107.5t-15.5 123v375q0 73 29 137.5t77 114t113.5 77t139.5 27.5h49q72 0 137.5 -27.5t114.5 -77t76.5 -114t27.5 -137.5 v-375q0 -70 -17.5 -131.5t-51 -109.5t-86 -77.5t-117.5 -35.5l-35 225q27 0 42 10t23.5 27.5t11.5 41t3 50.5v375q0 26 -10.5 49.5t-27.5 41t-41 28t-50 10.5h-49zM474 551v-89q0 -8 4 -13.5t10 -5.5q7 0 11 5.5t4 13.5v89q0 7 -4 12.5t-11 5.5q-6 0 -10 -5.5t-4 -12.5z M385 559q0 17 6.5 31.5t17.5 25.5t25.5 17.5t31.5 6.5h45q18 0 32 -6.5t25 -17.5t17.5 -25.5t6.5 -31.5v-108q0 -16 -6.5 -30.5t-17.5 -25.5t-25 -17.5t-32 -6.5h-45q-17 0 -31.5 6.5t-25.5 17.5t-17.5 25.5t-6.5 30.5v108z" />
<glyph unicode="&#x1051;" horiz-adv-x="964" d="M506 204q26 0 50 10.5t41 28t27.5 41t10.5 49.5v375q0 27 -3 50.5t-11.5 41t-23.5 27.5t-42 10l35 225q65 -6 117.5 -35.5t86 -77.5t51 -109.5t17.5 -131.5v-375q0 -73 -27.5 -137.5t-76.5 -114t-114.5 -77t-137.5 -27.5h-49q-74 0 -139.5 27.5t-113.5 77t-77 114 t-29 137.5v375q0 64 15.5 123t45 107.5t75 82t106.5 46.5l45 -224q-23 -4 -34 -17t-17 -31.5t-7 -41t-1 -45.5v-375q0 -26 10 -49.5t28.5 -41t41 -28t51.5 -10.5h49zM474 493q0 -7 4 -12.5t10 -5.5q7 0 11 5.5t4 12.5v89q0 8 -4 13.5t-11 5.5q-6 0 -10 -5.5t-4 -13.5v-89z M385 593q0 16 6.5 30.5t17.5 25.5t25.5 17.5t31.5 6.5h45q18 0 32 -6.5t25 -17.5t17.5 -25.5t6.5 -30.5v-108q0 -17 -6.5 -31.5t-17.5 -25.5t-25 -17.5t-32 -6.5h-45q-17 0 -31.5 6.5t-25.5 17.5t-17.5 25.5t-6.5 31.5v108z" />
<glyph unicode="&#x1052;" horiz-adv-x="947" d="M499 207q27 0 50.5 10t41 27.5t27.5 41t10 50.5v262q-28 20 -58 43t-52.5 48.5t-36.5 56t-14 65.5v61q0 33 14 68t44 62.5t71 46t94 18.5h164v-225l-86 2q-51 0 -72.5 -10.5t-19.5 -42.5q0 -13 13 -25t31.5 -26.5t42 -29t43 -30.5t34 -34.5t14.5 -37.5v-2v-2v-268 q0 -74 -28 -138.5t-76 -112.5t-112.5 -75.5t-138.5 -27.5h-49q-73 0 -137.5 27.5t-113 75.5t-76 112.5t-27.5 138.5v373q0 63 15.5 122.5t44 106.5t73.5 81t107 46l43 -221q-23 -4 -34 -17.5t-16.5 -32t-6.5 -41t-1 -44.5v-373q0 -27 10.5 -50.5t28 -41t41 -27.5t49.5 -10 h49z" />
<glyph unicode="&#x1053;" horiz-adv-x="953" d="M504 209q27 0 50 10t40.5 27.5t27.5 40.5t10 50v259q-58 42 -82 92t-24 123v104q0 33 10.5 60.5t34 47t60 30.5t89.5 11l137 -1v-223l-85 2q-16 0 -25 -2.5t-12.5 -8.5t-3 -16t2.5 -26q3 -20 22 -39.5t40.5 -41.5t40 -46.5t20.5 -53.5v-2v-2v-267q0 -73 -27.5 -137.5 t-75.5 -112.5t-112.5 -75.5t-137.5 -27.5h-48q-73 0 -137.5 27.5t-112.5 75.5t-76 112.5t-28 137.5v267v2v2q2 29 20.5 53.5t40.5 46.5t40.5 41.5t21.5 39.5q2 16 2.5 26t-3 16t-12.5 8.5t-25 2.5l-85 -2v223l138 1q52 0 89 -11t60.5 -30.5t34 -47t10.5 -60.5l-1 -104 q0 -73 -24 -123t-82 -92v-259q0 -27 10 -50t27.5 -40.5t41 -27.5t50.5 -10h48z" />
<glyph unicode="&#x1054;" horiz-adv-x="959" d="M634 711q0 29 -9 52.5t-27.5 41t-42 27.5t-50.5 10h-18q-4 -8 -4 -20.5t7 -26.5t23.5 -33.5t40.5 -46.5q29 -26 47.5 -39.5t32.5 -13.5v49zM456 -18q-74 0 -138.5 27.5t-113.5 76t-76.5 114t-27.5 138.5v373q0 76 27.5 140.5t76.5 112.5t113.5 75.5t138.5 27.5h49 q72 0 136.5 -26.5t112.5 -73.5t77 -110.5t31 -135.5l-13 -21q-28 -38 -69 -80t-88 -55.5t-101.5 6t-117.5 83.5q-41 41 -70 75.5t-41 69.5q-16 -16 -25.5 -38.5t-9.5 -49.5v-373q0 -26 10.5 -49.5t27.5 -42t41 -29t50 -10.5h49q27 0 50.5 10.5t42 29t27.5 42t9 49.5v43 l228 -55q-2 -72 -31 -134.5t-77 -109.5t-112.5 -73.5t-136.5 -26.5h-49z" />
<glyph unicode="&#x1055;" horiz-adv-x="937" d="M484 854q11 -14 26.5 -32.5t38.5 -41.5q32 -32 56.5 -50.5t46.5 -22.5q-2 75 -44.5 109.5t-123.5 37.5zM96 714q0 72 27.5 136t75 111.5t111 75t136.5 27.5h47h4h3h2h3q36 0 68 -3q58 -4 103.5 -17t78.5 -40t54 -71.5t29 -110.5q0 -3 -3 -7q-22 -71 -55.5 -115.5 t-77.5 -58.5t-99 4.5t-120 74.5q-32 28 -56.5 54.5t-40.5 52.5q-31 -17 -49.5 -46.5t-18.5 -66.5v-64v-355q0 -15 1.5 -30t7.5 -27.5t17.5 -20t31.5 -7.5q23 0 35.5 18t12.5 50q-1 3 -1 7v10h163v-16q2 -25 11 -46.5t38 -22.5q31 -1 40.5 18t9.5 51h160q0 -71 -14.5 -125.5 t-42.5 -91t-69 -53.5t-93 -12q-38 4 -68.5 16t-54.5 36q-26 -23 -60.5 -35t-76.5 -17q-34 -3 -66.5 2t-61 17.5t-51.5 30.5t-38 40q-30 43 -41.5 96.5t-11.5 111.5v419z" />
<glyph unicode="&#x1056;" horiz-adv-x="988" d="M518 209q28 0 52.5 10t43 28t29 41.5t10.5 50.5v260q-30 21 -60 44t-53.5 49t-38.5 56.5t-15 66.5l-1 105q0 34 11 61.5t35.5 47t63 30.5t93.5 11l200 -1v-224l-89 2q-35 -1 -62.5 -11.5t-33.5 -42.5q-3 -11 9.5 -23.5t32.5 -26t44.5 -28.5t45.5 -31.5t36 -35t16 -37.5 l1 -2v-3v-267q0 -74 -29 -139t-79.5 -113t-118 -76t-143.5 -28h-50q-76 0 -143 28t-117 76t-79 113t-29 139v190h234v-190q0 -27 10.5 -50.5t28.5 -41.5t42.5 -28t52.5 -10h50z" />
<glyph unicode="&#x1057;" horiz-adv-x="1001" d="M905 285q0 -59 -11.5 -113t-42.5 -98q-15 -23 -38.5 -41t-52.5 -30.5t-62.5 -18t-67.5 -1.5q-43 5 -77.5 17t-62.5 35q-24 -24 -54.5 -36t-69.5 -16q-53 -5 -94.5 12t-70 54t-43.5 93t-15 128h163q0 -32 9.5 -52t40.5 -19q15 0 24 6.5t14.5 16.5t8 22.5t3.5 24.5 q0 5 0.5 8t0.5 8h165q0 -2 -0.5 -5t-0.5 -5v-6q0 -33 12.5 -51.5t37.5 -18.5q19 0 30.5 8t17.5 20t7.5 27.5t1.5 30.5v312q-29 21 -57.5 43.5t-51.5 48.5t-37.5 56.5t-14.5 67.5v104q0 34 10.5 61.5t34 47.5t60.5 31t90 11l193 -1v-225l-86 2q-16 0 -31 -2.5t-27.5 -8.5 t-21.5 -16t-12 -26q-2 -12 10 -24.5t31 -26t42.5 -28.5t44 -31.5t35 -34.5t15.5 -38v-2v-1v-320z" />
<glyph unicode="&#x1058;" d="M-337 -402q0 27 -10.5 50.5t-28 42t-41 27.5t-49.5 9h-21q-4 -8 -3 -19t8 -25.5t22.5 -35t42.5 -45.5q28 -28 45.5 -41.5t34.5 -13.5v51zM-516 -1053q-73 0 -137.5 27.5t-114 76t-77 114t-27.5 138.5v295q0 74 27.5 138.5t77 112.5t114 77t137.5 29h50q71 0 135.5 -28 t113 -75t77 -109.5t30.5 -133.5l-4 -2q-37 -60 -78 -102t-88 -55t-101.5 6t-117.5 85q-41 41 -69.5 76t-43.5 69q-14 -16 -23.5 -39.5t-9.5 -48.5v-295q0 -26 10.5 -49.5t28 -42t41 -29t49.5 -10.5h50q26 0 49.5 10.5t41 29t28 42t10.5 49.5v43l227 -55q-2 -72 -30.5 -134 t-77 -109.5t-113 -74t-135.5 -26.5h-50z" />
<glyph unicode="&#x1059;" d="M-335 -410q0 28 -10.5 52t-28.5 42t-42.5 28.5t-51.5 10.5h-20q-4 -9 -3.5 -20.5t8.5 -27t24 -35.5t42 -46q29 -29 47 -42.5t35 -13.5v52zM-649 -738q3 -35 15.5 -56t43.5 -21q32 0 46.5 7.5t17.5 31.5v38h148q0 -5 0.5 -9t0.5 -9v-7q2 -18 7.5 -29t13 -16t17.5 -6.5 t21 -1.5q38 0 51.5 11.5t13.5 48.5h148q0 -71 -8 -126t-31.5 -93t-67 -57.5t-113.5 -19.5q-51 0 -85 13.5t-57 36.5q-64 -50 -175 -50q-55 0 -99.5 30t-75.5 76t-47.5 101.5t-16.5 106.5v328q0 75 28.5 141.5t78 116t115.5 78t141 28.5h50q74 0 139 -27.5t114 -75.5 t78.5 -112.5t31.5 -137.5l-3 -1q-38 -60 -80 -103t-90.5 -57t-104 6t-119.5 85q-40 42 -70 77.5t-44 70.5q-16 -17 -25 -40t-9 -49z" />
<glyph unicode="&#x105a;" horiz-adv-x="938" d="M457 1067h49q72 0 135.5 -26.5t111.5 -73.5t75.5 -109.5t29.5 -134.5l-223 -55v45q0 26 -10.5 49.5t-27.5 41t-41 28t-50 10.5h-49q-29 0 -51.5 -10.5t-41 -28t-27.5 -41t-9 -49.5v-373q0 -27 9 -50.5t27.5 -42t41 -27.5t51.5 -9h49q26 0 50 9t41 27.5t27.5 42t10.5 50.5 v49l223 -59q-2 -74 -29.5 -136.5t-75.5 -108.5t-111.5 -73.5t-135.5 -27.5h-49q-74 0 -138.5 28.5t-112.5 75.5t-77 112.5t-29 139.5v373q0 71 29 136.5t77 114t112.5 76t138.5 27.5zM179 -524v185q0 72 25 126.5t65.5 91t92.5 55t106 19t106 -17.5t92.5 -54.5t65.5 -91.5 t25 -128v-158q0 -60 -15 -110t-36 -94t-44.5 -84t-41.5 -79t-26 -79.5t3 -86.5h-179q-17 52 -12 102t23 97.5t43.5 92t49 86.5t40 80.5t16.5 74.5v158q0 39 -16.5 64.5t-40.5 38t-53 12t-53 -13t-40.5 -38t-16.5 -63.5v-185h-179z" />
<glyph unicode="&#x105b;" horiz-adv-x="1331" d="M496 872q14 -20 34.5 -44.5t49.5 -55.5q26 -27 47.5 -45t42.5 -31q-2 43 -8.5 75t-23.5 53.5t-51 33.5t-91 14zM461 -16q-76 0 -140.5 27.5t-112.5 75.5t-76 112.5t-28 140.5v371q0 73 28 137.5t76 113t112.5 77t140.5 28.5h47q61 0 111.5 -6t89.5 -19.5t67.5 -35 t46.5 -56.5q56 -2 97 -22.5t57 -44t22 -33.5l-90 -142q-21 34 -47 40v-27q-37 -59 -74.5 -92t-80.5 -35t-94.5 26.5t-112.5 94.5q-31 30 -55.5 58t-41.5 54q-30 -16 -51.5 -46.5t-21.5 -69.5v-371q0 -29 10 -52.5t27.5 -41t41 -27.5t52.5 -10h76q38 0 64 5t40 19.5t19.5 40 t5.5 66.5l225 -12q0 -113 -22.5 -179.5t-66.5 -103.5t-110.5 -49t-154.5 -12h-76zM1007 835v244h227v-1898q0 -33 -10 -72t-32 -73.5t-54.5 -59.5t-79.5 -25h-82l-430 226v774h227v-651l234 -119v1654z" />
<glyph unicode="&#x105c;" horiz-adv-x="964" d="M474 551v-89q0 -8 4 -13.5t10 -5.5q7 0 11 5.5t4 13.5v89q0 7 -4 12.5t-11 5.5q-6 0 -10 -5.5t-4 -12.5zM385 559q0 17 6.5 31.5t17.5 25.5t25.5 17.5t31.5 6.5h45q18 0 32 -6.5t25 -17.5t17.5 -25.5t6.5 -31.5v-108q0 -16 -6.5 -30.5t-17.5 -25.5t-25 -17.5t-32 -6.5 h-45q-17 0 -31.5 6.5t-25.5 17.5t-17.5 25.5t-6.5 30.5v108zM462 1069h49q74 0 139.5 -29t114.5 -78t78 -114.5t29 -141.5v-373q0 -76 -29 -141.5t-78 -113.5t-114.5 -77t-139.5 -29h-49q-76 0 -141.5 29t-113.5 77t-76.5 113.5t-28.5 141.5v373q0 76 28.5 141.5t76.5 114.5 t113.5 78t141.5 29zM462 839q-26 0 -51 -10t-42 -28.5t-27.5 -42t-10.5 -52.5v-373q0 -27 10.5 -51.5t27.5 -42t42 -27.5t51 -10h49q27 0 50.5 10t42 27.5t28.5 42t10 51.5v373q0 29 -10 52.5t-28.5 42t-42 28.5t-50.5 10h-49z" />
<glyph unicode="&#x105d;" horiz-adv-x="964" d="M635 416v297q0 22 -1 44.5t-8.5 41t-20.5 32t-38 17.5l56 223q59 -12 104 -46t76 -81t45 -107.5t14 -123.5v-375q0 -74 -28 -139q-1 -2 -2 -5v-919q0 -82 -7 -142.5t-30.5 -100.5t-65.5 -59.5t-112 -19.5h-287q-53 0 -92 4.5t-66.5 15.5t-46 34.5t-29.5 62.5t-15.5 98.5 t-4.5 143.5q5 24 18 53t41 48.5t71 22.5t106 -22l170 -82l-41 -82l-135 62q0 -39 3 -64.5t12 -40t28.5 -19.5t50.5 -5h88q35 0 57.5 3t35 14.5t17.5 28.5t5 46v721q-47 -14 -97 -14h-49q-74 0 -138.5 28.5t-113.5 76.5t-77 112.5t-28 138.5v375q0 69 16.5 130.5t51.5 109.5 t85 78t120 36l33 -223q-27 -2 -42.5 -12.5t-23.5 -28t-10 -41t-2 -49.5v-305q32 32 73 51.5t88 19.5q46 0 81.5 -17.5t64.5 -45.5zM506 209q24 0 46.5 8t39.5 25q-8 22 -19.5 45.5t-23.5 42t-26.5 31t-33.5 12.5q-18 0 -35.5 -12.5t-31.5 -31t-27.5 -42t-23.5 -45.5 q16 -17 38.5 -25t47.5 -8h49z" />
<glyph unicode="&#x105e;" d="M-486 -562h-164q-25 0 -46.5 -9.5t-38 -25.5t-26 -38t-9.5 -46v-44q0 -24 9.5 -46t26 -38t38 -25.5t46.5 -9.5h44q25 0 46.5 9.5t37.5 25.5t25.5 38t9.5 46zM-279 -725q0 -68 -26 -127.5t-70 -104t-104 -70t-127 -25.5h-44q-68 0 -127.5 25.5t-104 70t-70 104 t-25.5 127.5v44q0 67 25.5 127t70 104t104 70t127.5 26h164v299h207v-299h146v-208h-146v-163z" />
<glyph unicode="&#x105f;" horiz-adv-x="847" d="M-514 -543q-26 0 -48.5 -9.5t-39.5 -26.5t-26.5 -39.5t-9.5 -47.5v-45q0 -26 9.5 -48.5t26.5 -39t39.5 -26t48.5 -9.5h46q25 0 48 9.5t39.5 26t26.5 39t10 48.5v40h215v-40q0 -71 -26.5 -132.5t-72.5 -107.5t-108 -72.5t-132 -26.5h-46q-71 0 -132.5 26.5t-107.5 72.5 t-72.5 107.5t-26.5 132.5v45q0 61 20.5 115.5t56.5 98.5t85 74.5t106 42.5l-1 318h216v-525z" />
<glyph unicode="&#x1060;" horiz-adv-x="925" d="M-699 -801h594v-246h-665q-50 0 -89 19t-65 50.5t-39.5 72t-12 83t18 83.5t49.5 74l606 658l184 -164z" />
<glyph unicode="&#x1061;" horiz-adv-x="955" d="M522 -813q-2 -66 -13.5 -112t-42 -73.5t-78 -39.5t-106.5 -14q-141 -1 -165 -1l-2 236h171v835q-3 2 -6 3q-55 32 -95 79t-62.5 106.5t-22.5 127.5v375q0 73 28 138.5t77 114t114.5 77t139.5 28.5h49q74 0 139.5 -28.5t113.5 -77t75.5 -114t27.5 -138.5v-1762h-225 l-2 1762q0 26 -10.5 49.5t-27.5 42t-40.5 29t-50.5 10.5h-49q-29 0 -51.5 -10.5t-41 -29t-28.5 -42t-10 -49.5v-148q26 -20 52 -50t54 -67q68 -90 87 -153q15 -48 1 -89v-1015zM385 217q18 19 23.5 41.5t0 45t-18.5 46t-32 43.5q-8 13 -23.5 28t-23.5 23v-106 q0 -16 7.5 -34.5t17.5 -37t23.5 -32t25.5 -17.5z" />
<glyph unicode="&#x1062;" horiz-adv-x="714" d="M623 -18h-225v862h-297l2 223h26h53.5t67.5 0.5t67 0.5h52.5h25.5q71 -3 115 -17.5t68 -42t33.5 -69.5t11.5 -100v-857z" />
<glyph unicode="&#x1063;" horiz-adv-x="975" d="M511 1067q76 0 141.5 -27.5t113.5 -77t76 -115t28 -138.5v-377q0 -74 -28 -138.5t-76 -113.5t-113.5 -78t-141.5 -29h-49q-45 0 -88 13v-1039h-229v1219q-19 35 -29 75t-12 81l229 63v-53q0 -27 9 -50.5t27.5 -41t42 -27.5t50.5 -10h49q29 0 52.5 10t41 27.5t27.5 41 t10 50.5v377q0 26 -10 49.5t-27.5 42t-41 29t-52.5 10.5h-49q-27 0 -50.5 -10.5t-42 -29t-27.5 -42t-9 -49.5v-45l-229 57q4 72 32.5 135.5t76.5 110.5t112.5 73.5t136.5 26.5h49v0z" />
<glyph unicode="&#x1064;" horiz-adv-x="918" d="M434 842h-351v227h402q60 0 101.5 -26t63 -68.5t22.5 -96t-20 -107.5l-182 -564q-1 0 14 0t40.5 0.5t58 0.5h66.5q80 0 183 1v-227h-389q-62 0 -107.5 26t-71 69t-27.5 99t23 117l173 539q0 3 0.5 5.5t0.5 4.5z" />
<glyph unicode="&#x1065;" horiz-adv-x="954" d="M510 1075q74 0 139.5 -27.5t113.5 -76.5t76.5 -114.5t28.5 -139.5v-377q0 -74 -28.5 -139.5t-76.5 -114.5t-113.5 -76.5t-139.5 -27.5h-49q-74 0 -137.5 26.5t-112.5 73.5t-78 110.5t-31 137.5l228 61v-51q0 -27 10 -51.5t27.5 -42t42 -27.5t51.5 -10h49q27 0 51.5 10 t42 27.5t27.5 42t10 51.5v377q0 26 -10 50t-27.5 41t-42 28.5t-51.5 11.5h-49q-27 0 -51.5 -11.5t-42 -28.5t-27.5 -41t-10 -50v-45l-228 55q2 74 32 137.5t78 110.5t111.5 73.5t137.5 26.5h49z" />
<glyph unicode="&#x1066;" horiz-adv-x="957" d="M606 -813q-2 -66 -13.5 -112t-42 -73.5t-77.5 -39t-105 -14.5q-142 -1 -167 -1l-2 236h171v810q-27 7 -53 17q-65 29 -113 77t-76 112.5t-28 138.5v373q0 69 17.5 130.5t51.5 108.5t85 78t119 37l30 -225q-24 0 -40.5 -10.5t-23.5 -28t-10 -41t-3 -49.5v-373 q0 -27 10 -50.5t28.5 -41t41 -27.5t51.5 -10h47q26 0 50 10t42 27.5t28.5 41t10.5 50.5v373q0 22 -2 45.5t-9.5 41t-21.5 30t-39 12.5l58 227q59 -10 104 -44t74.5 -81t45 -107.5t15.5 -123.5v-373q0 -74 -27.5 -138.5t-75.5 -112.5t-114 -77q-18 -8 -37 -13v-810z" />
<glyph unicode="&#x1067;" horiz-adv-x="630" d="M263 280v-149q0 -13 7.5 -22.5t18.5 -9.5t18 9.5t7 22.5v149q0 12 -7 21t-18 9t-18.5 -9t-7.5 -21zM100 293q0 28 11.5 52.5t31.5 43t47 29t57 10.5h67v641h226v-860q-2 -54 -9 -93.5t-25.5 -67t-52.5 -43.5t-90 -22q-15 -3 -33 -3h-83q-30 0 -57 10.5t-47 28.5 t-31.5 42.5t-11.5 52.5v179z" />
<glyph unicode="&#x1068;" horiz-adv-x="847" d="M750 211v857h-225v-862h-424l2 -223h35.5h77t97.5 -0.5t97.5 -0.5h77h34.5q71 3 115 17.5t68 42t33.5 69t11.5 100.5zM590 1549v-157q0 -14 7 -23.5t18 -9.5t18 9.5t7 23.5v157q0 14 -7 23.5t-18 9.5t-18 -9.5t-7 -23.5zM432 1565q0 29 11 55t30.5 45.5t45.5 30.5t55 11 h81q30 0 56 -11t45.5 -30.5t30.5 -45.5t11 -55v-192q0 -29 -11 -55t-30.5 -45.5t-45.5 -30.5t-56 -11h-81q-29 0 -55 11t-45.5 30.5t-30.5 45.5t-11 55v192z" />
<glyph unicode="&#x1069;" horiz-adv-x="925" d="M492 210q15 0 40 7t51 17.5t48 22.5t31 22l160 -160q-24 -26 -64.5 -50.5t-86.5 -43.5t-93.5 -30.5t-85.5 -11.5h-21q-74 0 -139 28t-113.5 76.5t-76.5 113.5t-28 139v48q0 26 10 45.5t27 34.5l4 3q3 3 24 15t53 29.5t71.5 39.5t80.5 44q95 52 214 117q0 27 -10 50.5 t-28 41.5t-41.5 28t-50.5 10h-21q-19 0 -46 -10.5t-54 -26t-49 -33.5t-30 -33l-163 163q24 31 65 61t88.5 53.5t97 38t91.5 14.5h21q74 0 139 -28t113.5 -76.5t76.5 -113.5t28 -139v-47q0 -19 -8 -33t-22 -25.5t-32.5 -22t-38.5 -21.5l-383 -227q0 -27 10 -50.5t28 -41 t41.5 -28t50.5 -10.5h21z" />
<glyph unicode="&#x106a;" horiz-adv-x="815" d="M411 -17q-58 0 -114 20t-100.5 59.5t-71.5 98.5t-27 137v18h219v-18q0 -24 8 -42.5t21.5 -31t30 -18.5t34.5 -6t34.5 5.5t30 18t21.5 31t8 43.5v782h219v-782q0 -79 -27 -138.5t-71.5 -98.5t-100.5 -58.5t-114 -19.5zM411 -17q-58 0 -114 20t-100.5 59.5t-71.5 98.5 t-27 137v18h219v-18q0 -24 8 -42.5t21.5 -31t30 -18.5t34.5 -6t34.5 5.5t30 18t21.5 31t8 43.5v782h219v-782q0 -79 -27 -138.5t-71.5 -98.5t-100.5 -58.5t-114 -19.5z" />
<glyph unicode="&#x106b;" horiz-adv-x="816" d="M411 1079q58 0 114 -19.5t100.5 -58.5t71.5 -98.5t27 -138.5v-782h-219v782q0 25 -8 43.5t-21.5 31t-30 18t-34.5 5.5t-34.5 -6t-30 -18.5t-21.5 -31t-8 -42.5v-18h-219v18q0 78 27 137t71.5 98.5t100.5 59.5t114 20z" />
<glyph unicode="&#x106c;" horiz-adv-x="827" d="M411 -17q-58 0 -114 19.5t-100.5 58.5t-71.5 98.5t-27 138.5v782h219v-782q0 -25 8 -43.5t21.5 -31t30 -18t34.5 -5.5t34.5 6t30 18.5t21.5 31t8 42.5v18h219v-18q0 -78 -27 -137t-71.5 -98.5t-100.5 -59.5t-114 -20z" />
<glyph unicode="&#x106d;" horiz-adv-x="925" d="M459 210q27 0 50.5 10.5t41.5 28t28 41t10 50.5l-383 227q-20 11 -38.5 21.5t-32.5 22t-22 25.5t-8 33v47q0 74 28 139t76.5 113.5t113.5 76.5t139 28h21q42 0 91.5 -14.5t97 -38t88.5 -53.5t65 -61l-163 -163q-8 15 -30 33t-49 33.5t-54 26t-46 10.5h-21 q-27 0 -50.5 -10t-41.5 -28t-28 -41.5t-10 -50.5q119 -65 214 -117q40 -22 79.5 -44t71.5 -39.5t53 -29.5t25 -15l4 -3q17 -15 27 -34.5t10 -45.5v-48q0 -74 -28 -139t-76.5 -113.5t-113.5 -76.5t-139 -28h-21q-38 0 -85.5 11.5t-93.5 30.5t-86.5 43.5t-64.5 50.5l160 160 q9 -10 31 -22t48 -22.5t51 -17.5t40 -7h21z" />
<glyph unicode="&#x106e;" horiz-adv-x="1839" d="M1221 334q0 -66 -18.5 -125t-51.5 -105.5t-77.5 -77t-96.5 -39.5q-7 29 -22 84t-36 136h17q13 0 25 10t21 27t14.5 40.5t5.5 49.5q-1 113 -2 203q0 38 -0.5 75t-0.5 66.5v48v20.5q-5 42 -22.5 68t-40.5 26h-11q-10 0 -20.5 -5t-20.5 -12t-18.5 -15t-12.5 -13q9 -39 5 -66 v-19t0.5 -45t0.5 -63v-71v-193q0 -68 -17 -129t-51 -108t-85 -77t-118 -37l-33 223q27 1 42.5 11.5t23.5 27.5t10.5 40t2.5 49l-1 391q-4 23 -15 43t-28 34.5t-39 23t-46 8.5h-48q-27 0 -50.5 -10t-41.5 -27.5t-28 -41t-10 -49.5v-372q0 -23 1 -44.5t6.5 -40t17 -31.5 t33.5 -18l-44 -221q-60 12 -105 45.5t-74.5 81t-44 106.5t-14.5 122v372q0 73 27.5 137.5t75.5 112.5t112.5 75.5t138.5 27.5h48q65 0 118.5 -18t105.5 -62q35 32 81 56t109 24h17q54 0 101 -22t85 -62q47 40 105 62t124 22h49q73 0 137.5 -27.5t112.5 -75.5t75.5 -112.5 t27.5 -137.5v-372q0 -72 -26.5 -135t-73 -111t-109 -76.5t-134.5 -30.5l-47 225h37q26 0 49.5 10t41 27.5t27.5 41t10 49.5v372q0 26 -10 49.5t-27.5 41t-41 27.5t-49.5 10h-49q-27 0 -50.5 -10t-41 -27.5t-27.5 -41t-10 -49.5z" />
<glyph unicode="&#x106f;" horiz-adv-x="1499" d="M1295 -813q-2 -66 -13.5 -112t-42 -73.5t-76 -39t-98.5 -14.5q-26 -1 -337 -1l-2 236h333v801h-6l-47 227h36q27 0 50.5 9t42 27.5t29 42t10.5 52.5v373q0 26 -10.5 49.5t-29 42t-42 29t-50.5 10.5h-49q-24 0 -46.5 -9.5t-40 -25.5t-29 -37.5t-15.5 -46.5q0 -2 1 -19.5 t1 -44.5v-323q0 -76 -27.5 -140.5t-76.5 -112.5t-113.5 -76.5t-138.5 -28.5h-49q-74 0 -139.5 28.5t-113.5 76.5t-77 112.5t-29 140.5v373q0 69 17.5 130.5t51.5 109.5t85 79t119 37l33 -225q-25 0 -41.5 -11.5t-23.5 -29t-10 -41t-3 -49.5v-373q0 -29 10 -52.5t28.5 -41 t41 -27.5t51.5 -10h49q27 0 50.5 10t40.5 27.5t27.5 41t10.5 52.5v395q0 21 -2 39.5t-8 33.5t-17.5 26.5t-29.5 15.5l43 221q45 -8 80.5 -28.5t64.5 -51.5q45 39 103.5 59.5t121.5 20.5h49q74 0 138.5 -27.5t113.5 -75.5t77 -114t28 -139v-373q0 -74 -26.5 -138.5 t-74.5 -112.5l-3 -4v-900z" />
<glyph unicode="&#x1070;" horiz-adv-x="1500" d="M1173 -813q-2 -66 -13.5 -112t-42 -73.5t-75 -38.5t-93.5 -14q-28 -2 -546 -2l-2 236h536v794q-40 6 -77 21q-61 25 -108 70q-50 -45 -112 -71t-134 -26h-49q-74 0 -139.5 29t-113.5 77t-77 113.5t-29 139.5v274q2 21 16.5 38t35 34.5t44 33t43 29t32 25.5t7.5 24 q-6 33 -31.5 43.5t-60.5 10.5h-86v225h195q106 0 151 -42t45 -110v-104q0 -39 -14 -68.5t-37.5 -56.5t-52.5 -49.5t-59 -42.5v-264q0 -27 10 -50.5t28.5 -42t42 -28.5t50.5 -10h49q24 0 45.5 8t39 23.5t29 36t15.5 42.5v63q0 29 1 64t1 74v197q0 22 -1 44.5t-6 41t-17.5 32 t-32.5 19.5l43 223q59 -14 105 -48t77 -81t45 -107.5t14 -123.5v-398q4 -22 15.5 -41.5t29 -35t39 -23.5t45.5 -8h49q27 0 50.5 10t42 27.5t29 42t10.5 51.5v377q0 26 -10.5 49.5t-29 41t-42 29t-50.5 11.5h-36l47 227q71 -2 134.5 -31.5t111 -78t75 -113t27.5 -135.5v-377 q0 -74 -29 -139.5t-77 -114.5t-114 -77q-4 -2 -8 -3v-811z" />
<glyph unicode="&#x1071;" d="M-817 1549v-157q0 -14 7 -23.5t18 -9.5t18 9.5t7 23.5v157q0 14 -7 23.5t-18 9.5t-18 -9.5t-7 -23.5zM-975 1565q0 29 11 55t30.5 45.5t45.5 30.5t55 11h81q30 0 56 -11t45.5 -30.5t30.5 -45.5t11 -55v-192q0 -29 -11 -55t-30.5 -45.5t-45.5 -30.5t-56 -11h-81 q-29 0 -55 11t-45.5 30.5t-30.5 45.5t-11 55v192zM-285 1549v-157q0 -14 7 -23.5t18 -9.5t18 9.5t7 23.5v157q0 14 -7 23.5t-18 9.5t-18 -9.5t-7 -23.5zM-443 1565q0 29 11 55t30.5 45.5t45.5 30.5t55 11h81q30 0 56 -11t45.5 -30.5t30.5 -45.5t11 -55v-192q0 -29 -11 -55 t-30.5 -45.5t-45.5 -30.5t-56 -11h-81q-29 0 -55 11t-45.5 30.5t-30.5 45.5t-11 55v192z" />
<glyph unicode="&#x1072;" d="M-490 2123h49q72 0 135.5 -26.5t111.5 -73.5t75.5 -109.5t29.5 -134.5l-223 -55v45q0 26 -10.5 49.5t-27.5 41t-41 28t-50 10.5h-49q-29 0 -51.5 -10.5t-41 -28t-27.5 -41t-9 -49.5v-293q0 -27 9 -50.5t27.5 -42t41 -27.5t51.5 -9h49q26 0 50 9t41 27.5t27.5 42 t10.5 50.5v49l223 -59q-2 -74 -29.5 -136.5t-75.5 -108.5t-111.5 -73.5t-135.5 -27.5h-49q-74 0 -138.5 28.5t-112.5 75.5t-77 112.5t-29 139.5v293q0 71 29 136.5t77 114t112.5 76t138.5 27.5z" />
<glyph unicode="&#x1073;" d="M-539 1853l491 -456l-149 -174l-342 317l-342 -317l-149 174z" />
<glyph unicode="&#x1074;" d="M-460 1351q26 0 50 10t42 27.5t28.5 41t10.5 50.5v286q0 22 -2 45.5t-9.5 41t-21.5 30t-39 12.5l58 227q59 -10 104 -44t74.5 -81t45 -107.5t15.5 -123.5v-286q0 -74 -27.5 -138.5t-75.5 -112.5t-113.5 -76.5t-139.5 -28.5h-47q-74 0 -139.5 28.5t-113.5 76.5t-76 112.5 t-28 138.5v286q0 69 17.5 130.5t51.5 108.5t85 78t119 37l30 -225q-24 0 -40.5 -10.5t-23.5 -28t-10 -41t-3 -49.5v-286q0 -27 10 -50.5t28.5 -41t41 -27.5t51.5 -10h47z" />
<glyph unicode="&#x1075;" horiz-adv-x="943" d="M451 842q-27 0 -50.5 -10t-41 -27.5t-27.5 -41t-10 -50.5v-262q28 -20 58 -43t52.5 -48.5t36.5 -56t14 -65.5v-61q0 -33 -14 -68t-44 -62.5t-71 -46t-94 -18.5h-164v225l86 -2q51 0 72.5 10.5t19.5 42.5q0 13 -13 25t-31.5 26.5t-42 29t-43 30.5t-34 34.5t-14.5 37.5v2v2 v268q0 74 28 138.5t76 112.5t112.5 75.5t138.5 27.5h49q73 0 137.5 -27.5t113 -75.5t76 -112.5t27.5 -138.5v-373q0 -63 -15.5 -122.5t-44 -106.5t-73.5 -81t-107 -46l-43 221q23 4 34 17.5t16.5 32t6.5 41t1 44.5v373q0 27 -10.5 50.5t-28 41t-41 27.5t-49.5 10h-49z" />
<glyph unicode="&#x1076;" horiz-adv-x="992" d="M346 338q0 -26 10 -49.5t27.5 -41.5t41 -28.5t50.5 -10.5h20q4 9 3.5 20.5t-8 26.5t-23 34t-41.5 45q-28 29 -46 43t-34 13v-52zM525 1069q73 0 138 -28t113.5 -76.5t76.5 -113.5t28 -138v-375q0 -74 -28 -138.5t-76.5 -113t-113.5 -76.5t-138 -28h-50q-72 0 -136 27 t-112 74.5t-76.5 110.5t-30.5 135h3q37 59 78 101t88.5 56t102 -5.5t117.5 -83.5q39 -41 68.5 -76t43.5 -70q16 17 25 39.5t9 47.5v375q0 27 -10.5 50.5t-28 41t-41 28t-50.5 10.5h-37q-15 -3 -31.5 -20t-38 -37.5t-50 -39t-67.5 -24.5q-40 -6 -72 7.5t-56.5 39t-42.5 59.5 t-28.5 69.5t-15 69t-3.5 58.5l140 24q-3 -45 7.5 -71t27.5 -33.5t38 3t39 39.5q7 12 20.5 26.5t30.5 26.5t37 20t41 8h31q13 0 30 1z" />
<glyph unicode="&#x1077;" horiz-adv-x="943" d="M573 199q22 5 34 18.5t17.5 32t6.5 40.5t1 45v52q-5 -11 -10.5 -21.5t-10.5 -22.5q-15 -35 -23 -62t-11 -45q-4 -21 -4 -37zM501 841h-49q-27 0 -51 -10t-41.5 -28t-28 -42t-10.5 -51v-262q30 -21 49.5 -44t31 -49.5t16 -57t4.5 -67.5l-4 -105q0 -68 -56 -109.5 t-163 -41.5l-105 2v225l86 -2q17 0 26 6.5t13 17.5t4.5 26t0.5 33q-1 18 -20.5 33t-43.5 32t-44 38.5t-22 51.5v1v2v270q0 74 28 139.5t77 114t114 76.5t139 28h49q74 0 139.5 -28t114 -76.5t76.5 -114t28 -139.5v-375q0 -65 -15 -124t-45 -107t-75.5 -81.5t-106.5 -46.5 l-75 19q-42 24 -63.5 58t-24.5 79t11.5 101t43.5 125q32 74 61.5 124.5t61.5 81.5v146q0 27 -10.5 51t-28 42t-41.5 28t-51 10z" />
<glyph unicode="&#x1078;" horiz-adv-x="1502" d="M854 338q0 -27 11.5 -50.5t29 -41t41 -27.5t49.5 -10h49q27 0 50.5 10t41 27.5t27.5 41t10 50.5v373q0 26 -10 49.5t-27.5 42t-41 29t-50.5 10.5h-49q-24 0 -45.5 -9.5t-39 -23.5t-29 -34.5t-15.5 -43.5zM490 209l-47 -225q-72 2 -134.5 30.5t-109.5 76.5t-74 111.5 t-27 135.5v373q0 73 28 137.5t76 114t112.5 77t138.5 27.5h49q70 0 132 -24.5t110 -69.5q49 45 110.5 69.5t130.5 24.5h49q74 0 138.5 -27.5t112.5 -77t76 -114t28 -137.5v-373q0 -74 -28 -138.5t-76 -112.5t-112.5 -75.5t-138.5 -27.5h-49q-73 0 -138 27.5t-113 75.5 t-75.5 112.5t-27.5 138.5v393q-4 23 -15.5 43.5t-29 34.5t-39 23.5t-45.5 9.5h-49q-27 0 -50.5 -10.5t-41 -29t-27.5 -42t-10 -49.5v-373q0 -27 10 -50.5t27.5 -41t41 -27.5t50.5 -10h37z" />
<glyph unicode="&#x1079;" horiz-adv-x="1489" d="M859 333q0 -27 10 -50.5t28 -41.5t42 -28.5t51 -10.5h49q27 0 50.5 10.5t41 28.5t28 41.5t10.5 50.5v376q0 27 -10.5 50.5t-28 41t-41 28t-50.5 10.5h-49q-50 0 -86 -32t-43 -80zM324 576q40 -21 81 -69.5t90 -128.5q37 -62 60.5 -111t29 -91t-8.5 -79t-50 -74l-82 -47 q-72 2 -135.5 31t-111 77.5t-74.5 112.5t-27 136v376q0 73 28.5 138t77 114t113.5 77t139 28h50q71 0 133 -25t110 -70q48 45 110.5 70t132.5 25h49q73 0 138 -28t114 -77t77 -114t28 -138v-376q0 -74 -28 -138.5t-77 -113.5t-114 -77t-138 -28h-49q-74 0 -139.5 28 t-114.5 77t-77 113.5t-28 138.5q0 109 1 195v72t0.5 63t0.5 45.5v18.5q-8 48 -44 80t-85 32h-50q-27 0 -50.5 -10.5t-41.5 -28t-28 -41t-10 -50.5v-133zM461 202q6 17 -6 50.5t-52 97.5q-23 38 -42 62.5t-37 33.5v-113q0 -27 10 -50.5t28 -41.5t41.5 -28.5t50.5 -10.5h7z " />
<glyph unicode="&#x107a;" horiz-adv-x="1502" d="M633 711q0 26 -10.5 49.5t-27.5 42t-41 29t-50 10.5h-58q-24 -2 -46.5 -13.5t-39 -29t-25.5 -40t-9 -48.5v-373q0 -27 10 -50.5t27.5 -42t41 -27.5t50.5 -9h37l-48 -227q-71 2 -133.5 31.5t-109.5 76.5t-74 111.5t-27 136.5v373q0 73 28 138.5t76 114t112.5 76 t138.5 27.5h49q71 0 136 -26.5t113 -73.5t76.5 -109.5t30.5 -134.5v-395q2 -21 10 -41q11 -23 28 -41.5t41 -27.5t50 -9h49q29 0 51.5 9t41 27.5t27.5 42t9 50.5v373q0 26 -9 49.5t-27.5 42t-41 29t-51.5 10.5h-34l45 225q71 -2 134.5 -30.5t109.5 -77t74 -113t28 -135.5 v-373q0 -74 -29 -139.5t-77 -112.5t-112.5 -75.5t-138.5 -28.5h-49q-68 0 -129 24l1 -823h246l-2 -236q-26 0 -238 1q-57 3 -104 14.5t-77.5 39t-42 73.5t-13.5 112z" />
<glyph unicode="&#x107b;" horiz-adv-x="1501" d="M637 727q-7 48 -43 80t-86 32h-49q-27 0 -50.5 -10.5t-41 -28t-28 -41t-10.5 -50.5v-376q0 -27 10.5 -50.5t28 -41.5t41 -28.5t50.5 -10.5h49q27 0 51 10.5t42 28.5t28 41.5t10 50.5zM1174 576v133q0 27 -10 50.5t-28 41t-41.5 28t-50.5 10.5h-50q-49 0 -85 -32t-44 -80 v-18.5v-45.5t0.5 -63t0.5 -72q0 -86 1 -195q0 -74 -28.5 -138.5t-77 -113.5t-114 -77t-139.5 -28h-49q-74 0 -138.5 28t-113.5 77t-77 113.5t-28 138.5v376q0 73 28 138t77 114t113.5 77t138.5 28h49q70 0 132.5 -25t110.5 -70q48 45 110 70t133 25h50q73 0 138.5 -28 t114 -77t77 -114t28.5 -138v-376q0 -72 -27 -136t-74.5 -112.5t-111 -77.5t-135.5 -31l-82 47q-36 37 -50 74t-8.5 79t28.5 91t61 111q49 80 90 128.5t81 69.5zM1044 202q27 0 50.5 10.5t41.5 28.5t28 41.5t10 50.5v113q-18 -9 -37 -33.5t-42 -62.5q-40 -64 -52 -97.5 t-6 -50.5h7z" />
<glyph unicode="&#x107c;" horiz-adv-x="1489" d="M1168 335v52q-16 0 -33.5 -13.5t-46.5 -42.5q-26 -26 -41.5 -45.5t-23 -34.5t-8 -26t3.5 -20h19q27 0 51 10t41.5 28t27.5 41.5t10 50.5zM323 335q0 -27 10 -50.5t28 -41.5t41.5 -28t50.5 -10h20q4 9 3.5 20t-8 26t-23.5 34.5t-41 45.5q-29 29 -47 42.5t-34 13.5v-52z M502 1068q71 0 133 -25t110 -70q49 45 111.5 70t133.5 25h48q73 0 137 -27t112.5 -73.5t77.5 -110t31 -135.5l-228 -56v45q0 27 -10 50.5t-27.5 41.5t-41.5 28t-51 10h-48q-26 0 -48.5 -9t-39.5 -25t-28.5 -37t-14.5 -46q0 -99 0.5 -166.5t0.5 -112v-69v-36t-0.5 -14.5 t-0.5 -4q2 -22 11 -41t23 -33q14 34 43 69.5t70 76.5q63 64 117.5 84t101.5 6t88.5 -56.5t78.5 -102.5h4q-2 -72 -31 -135.5t-77 -110.5t-112.5 -74t-137.5 -27h-48q-71 0 -133.5 25.5t-111.5 70.5q-48 -45 -110 -70.5t-133 -25.5h-49q-73 0 -137 27t-112 74t-77 110.5 t-31 135.5h3q37 60 78.5 102.5t89 56.5t102 -6t117.5 -84q41 -41 70 -76.5t43 -69.5q14 14 23 33t11 41q0 98 -0.5 166t-0.5 112.5v69v36.5t0.5 14.5t0.5 3.5q-3 25 -14.5 46t-29 37t-40 25t-47.5 9h-49q-27 0 -50.5 -10t-41.5 -28t-28 -41.5t-10 -50.5v-45l-227 56 q2 72 31 135.5t77 110t112 73.5t137 27h49z" />
<glyph unicode="&#x107d;" horiz-adv-x="1489" d="M1164 340v51q-17 1 -34.5 -12.5t-45.5 -42.5q-26 -26 -41.5 -45.5t-23 -34t-8.5 -25.5t3 -20h20q27 0 50.5 10t41 27.5t28 41t10.5 50.5zM985 1070h49q72 0 136 -27t112 -73.5t76.5 -109t31.5 -134.5l-226 -57v45q0 27 -10.5 50.5t-28 41.5t-41 28t-50.5 10h-49 q-27 0 -50.5 -10t-41 -28t-28 -41.5t-10.5 -50.5v-374q0 -25 9 -47t25 -40q14 35 43 70t69 76q63 64 117 83.5t101.5 5.5t88.5 -56t78 -101l4 -1q-2 -72 -31 -135t-77 -110t-112 -74t-136 -27h-49q-70 0 -132 25t-110 70q-48 -46 -110.5 -72t-133.5 -26h-49q-74 0 -138.5 28 t-113 76.5t-76.5 113t-28 138.5v269v2v2q1 20 15.5 38t35 34.5t44 31.5t42.5 28.5t31 26t10 24.5q-3 16 -12 26t-21.5 16t-27.5 8.5t-31 2.5l-86 -2v224l192 2q53 0 90.5 -11t61 -30.5t34.5 -47.5t11 -62l-1 -105q0 -36 -14.5 -66.5t-37.5 -56.5t-52 -49t-58 -44v-261 q0 -27 10 -50.5t28 -41t41.5 -27.5t50.5 -10h49q27 0 50.5 10t41 27.5t28 41t10.5 50.5v377q0 73 28 138t76.5 113.5t113 76.5t138.5 28z" />
<glyph unicode="&#x107e;" horiz-adv-x="1489" d="M978 -813q-16 -66 -27.5 -112t-42 -73.5t-85 -41t-144.5 -13.5l-2 236h65l140 817q-80 23 -139 79q-48 -46 -110.5 -72t-133.5 -26h-49q-74 0 -138.5 28t-113 76.5t-76.5 113t-28 138.5v273q1 20 15.5 38t35 34.5t44 31.5t42.5 28.5t31 26t10 24.5q-3 16 -12 26t-21.5 16 t-27.5 8.5t-31 2.5l-86 -2v224l192 2q53 0 90.5 -11t61 -30.5t34.5 -47.5t11 -62l-1 -105q0 -36 -14.5 -66.5t-37.5 -56.5t-52 -49t-58 -44v-261q0 -27 10 -50.5t28 -41t41.5 -27.5t50.5 -10h49q27 0 50.5 10t41 27.5t28 41t10.5 50.5v377q0 73 28 138t76.5 113.5t113 76.5 t138.5 28h49q72 0 136 -27t112 -73.5t76.5 -109t31.5 -134.5l-226 -57v45q0 27 -10.5 50.5t-28 41.5t-41 28t-50.5 10h-49q-27 0 -50.5 -10t-41 -28t-28 -41.5t-10.5 -50.5v-374q0 -25 9 -47t25 -40q14 35 43 70t69 76q63 64 117 83.5t101.5 5.5t88.5 -56t78 -101l4 -1 q-2 -61 -23.5 -116t-57.5 -99.5t-85 -75.5t-106 -45zM1164 340v51q-17 1 -34.5 -12.5t-45.5 -42.5q-26 -26 -41.5 -45.5t-23 -34t-8.5 -25.5t3 -20h20q27 0 50.5 10t41 27.5t28 41t10.5 50.5z" />
<glyph unicode="&#x107f;" horiz-adv-x="951" d="M315 647q6 8 18.5 18.5t20.5 20.5q21 27 34 55.5t17 56t-1 51t-23 38.5q-41 -10 -55.5 -60.5t-12.5 -134.5zM506 209q26 0 49.5 10t41 27.5t29 41t11.5 50.5v375q0 26 -3 49.5t-11.5 41t-24 28t-41.5 10.5l33 225q67 -6 118.5 -37t85 -78t51 -109.5t17.5 -129.5v-375 q0 -74 -27.5 -139.5t-77 -112.5t-114 -75.5t-137.5 -28.5h-50q-73 0 -137.5 28.5t-114 75.5t-77 112.5t-27.5 139.5v375q0 63 15.5 122.5t45 107.5t74.5 82t107 44q6 0 27.5 -16.5t45 -46t45 -69.5t28.5 -88t-5 -101.5t-55 -106.5q-27 -37 -51.5 -62.5t-49.5 -43.5v-197 q0 -27 10.5 -50.5t28 -41t41 -27.5t49.5 -10h50z" />
<glyph unicode="&#x1080;" horiz-adv-x="1489" d="M453 188q-21 30 -67 77q-32 32 -57.5 51.5t-48.5 23.5q2 -78 45.5 -113t127.5 -39zM623 709q0 27 -10.5 51t-28 42t-41.5 28t-51 10h-49q-27 0 -54.5 -5.5t-49.5 -19.5t-36 -40t-14 -66l-208 69q2 58 20.5 111t60 92.5t110.5 63t171 23.5h49q74 0 139.5 -28.5t114 -77 t77 -114t28.5 -139.5v-396q3 -24 14.5 -44t28.5 -35t39 -23.5t47 -8.5h49q27 0 51 10t42 28t28 42t10 51v376q0 27 -10 51t-28 42t-42 28t-51 10h-36l47 228q73 -2 136.5 -31t110.5 -77.5t74.5 -113t27.5 -137.5v-376q0 -75 -28.5 -140t-77 -114t-114 -77t-140.5 -28h-49 q-70 0 -133 25t-111 70q-48 -45 -110.5 -70.5t-133.5 -25.5q-32 0 -53.5 0.5t-36 0.5t-23.5 0.5t-17 1.5q-59 4 -106 17.5t-81 41.5t-55.5 73t-29.5 113q-1 3 2 8q22 72 56.5 118t80 60.5t102 -5t123.5 -76.5q33 -29 58 -56t42 -53q27 14 45 39.5t23 56.5z" />
<glyph unicode="&#x1081;" horiz-adv-x="959" d="M372 -813q-2 -66 -12.5 -112t-37.5 -73.5t-76 -41t-130 -13.5l-2 236h46v914q-11 18 -21 38q-20 44 -30 94t-10 103v376q0 74 28 139.5t76.5 114t114 77t139.5 28.5h49q74 0 139.5 -28.5t114 -77t77 -114t28.5 -139.5v-248h-228v248q0 27 -10.5 51t-28 41.5t-41.5 28 t-51 10.5h-49q-27 0 -50.5 -10.5t-41.5 -28t-28 -41.5t-10 -51v-135q71 -11 113 -70t67 -151q13 -49 10.5 -92t-16.5 -84q-11 -51 -25.5 -83.5t-31 -52t-35 -28t-37.5 -11.5v-814zM371 201q16 19 15 47.5t-11 66.5q-12 48 -24 74t-24 38v-95q0 -21 0.5 -41.5t5 -38t13 -31 t25.5 -20.5z" />
<glyph unicode="&#x1082;" d="M-508 -287q-27 0 -49.5 -10t-39.5 -27.5t-27.5 -42t-10.5 -51.5v-276q0 -29 10.5 -52.5t27.5 -42t39.5 -28.5t49.5 -10h47q27 0 50.5 10t41 28.5t27.5 42t10 52.5v45l221 -58q-2 -73 -30.5 -136.5t-75.5 -110.5t-109.5 -75t-134.5 -28h-47q-72 0 -136.5 29t-111.5 78 t-74.5 114.5t-27.5 141.5v276q0 76 27.5 140.5t74.5 113.5t111.5 78t136.5 29h146v-230h-146z" />
<glyph unicode="&#x1083;" horiz-adv-x="690" d="M458 838l1 -1663h139l-1 -224h-26h-42.5h-42.5h-25q-71 3 -115 17t-68.5 41.5t-34 69.5t-11.5 101v1663l-140 -1l2 225h26h42.5h42h24.5q71 -3 115 -17t68.5 -41.5t34 -69.5t11.5 -101z" />
<glyph unicode="&#x1084;" horiz-adv-x="1064" d="M744 700q0 113 -25 126.5t-72 13.5h-52h-68.5t-67.5 -1t-53 -1q-39 0 -58.5 -13.5t-19.5 -56.5q0 -10 23.5 -27.5t52.5 -35.5q32 -21 73 -43q15 -5 23 -14t8 -17v-144q0 -20 -8 -32.5t-23 -20.5q-41 -28 -73 -55q-15 -12 -28 -24.5t-24.5 -24t-17.5 -20.5t-6 -13 q0 -49 16.5 -68.5t61.5 -19.5h56h75t74.5 -1t54.5 -1q32 0 49.5 5t28 15.5t13.5 24.5t5 33l201 -105q0 -69 -33 -108t-86 -59.5t-120 -25.5t-134 -5h-184q-86 0 -144.5 14t-94.5 50t-51.5 96.5t-15.5 154.5q0 29 16.5 60.5t42 62.5t59.5 61.5t69 57.5q-35 22 -69 48.5 t-59.5 56.5t-42 60.5t-16.5 63.5q0 92 20.5 150.5t60.5 91t96.5 45t128.5 12.5h241q70 0 128.5 -11.5t99.5 -43t64.5 -91t23.5 -153.5z" />
<glyph unicode="&#x1085;" d="M-276 1764q10 74 -23 99.5t-82 25.5q-18 0 -52 -1.5t-69.5 -1.5h-69.5h-52q-41 0 -60.5 -14t-19.5 -57q0 -12 23.5 -24.5t51.5 -26.5q33 -15 76 -29q15 -2 23 -12.5t10 -20.5v-145q0 -23 -10 -34t-23 -20q-43 -12 -76 -22q-28 -10 -51.5 -21.5t-23.5 -23.5 q0 -49 17.5 -69.5t62.5 -20.5h54h75h74.5h56.5q32 0 50.5 5t28 15.5t13.5 24.5t6 33l207 -107q0 -70 -35 -110.5t-88 -61t-122 -27t-138 -6.5q-21 0 -44.5 1t-48 1h-48h-41.5q-88 0 -148.5 14.5t-96.5 52.5t-52.5 99.5t-16.5 155.5q0 31 16.5 57.5t42 50t57.5 44t64 38.5 q-34 25 -67 44.5t-57.5 41t-40 45t-15.5 58.5q0 92 21.5 151.5t61.5 93t98.5 46t132.5 12.5q18 0 52 1t69.5 1h69.5h52q72 0 131.5 -11.5t101.5 -44t65.5 -93t23.5 -156.5q-161 -35 -217 -51z" />
<glyph unicode="&#x1086;" d="M-438 1703v-160q0 -14 7.5 -23.5t18.5 -9.5t18 10t7 23v160q0 14 -7 24t-18 10t-18.5 -10t-7.5 -24zM-598 1719q0 30 11.5 56.5t31 46t46 31t56.5 11.5h82q30 0 56.5 -11.5t46 -31t31 -46t11.5 -56.5v-195q0 -50 -31 -89l-208 -353l-134 81l126 217q-27 4 -49.5 17 t-39.5 32t-26.5 43.5t-9.5 51.5v195z" />
<glyph unicode="&#x1087;" horiz-adv-x="535" d="M257 294v-160q0 -14 7.5 -23.5t18.5 -9.5q13 0 19 12q6 9 6 21v160q0 14 -7 24t-18 10t-18.5 -10t-7.5 -24zM97 310q0 30 11.5 56.5t31 46t46 31t56.5 11.5h82q30 0 56.5 -11.5t46 -31t31 -46t11.5 -56.5v-195q0 -50 -31 -89l-208 -353l-134 81l126 217q-27 4 -49.5 17 t-39.5 32t-26.5 43.5t-9.5 51.5v195z" />
<glyph unicode="&#x1088;" horiz-adv-x="535" d="M257 294v-160q0 -14 7.5 -23.5t18.5 -9.5q13 0 19 12q6 9 6 21v160q0 14 -7 24t-18 10t-18.5 -10t-7.5 -24zM97 310q0 30 11.5 56.5t31 46t46 31t56.5 11.5h82q30 0 56.5 -11.5t46 -31t31 -46t11.5 -56.5v-195q0 -50 -31 -89l-208 -353l-134 81l126 217q-27 4 -49.5 17 t-39.5 32t-26.5 43.5t-9.5 51.5v195zM257 918v-157q0 -14 7 -23.5t18 -9.5t18 9.5t7 23.5v157q0 14 -7 23.5t-18 9.5t-18 -9.5t-7 -23.5zM99 934q0 29 11 55t30.5 45.5t45.5 30.5t55 11h81q30 0 56 -11t45.5 -30.5t30.5 -45.5t11 -55v-192q0 -29 -11 -55t-30.5 -45.5 t-45.5 -30.5t-56 -11h-81q-29 0 -55 11t-45.5 30.5t-30.5 45.5t-11 55v192z" />
<glyph unicode="&#x1089;" horiz-adv-x="535" d="M257 297v-157q0 -14 7 -23.5t18 -9.5t18 9.5t7 23.5v157q0 14 -7 23.5t-18 9.5t-18 -9.5t-7 -23.5zM99 313q0 29 11 55t30.5 45.5t45.5 30.5t55 11h81q30 0 56 -11t45.5 -30.5t30.5 -45.5t11 -55v-192q0 -29 -11 -55t-30.5 -45.5t-45.5 -30.5t-56 -11h-81q-29 0 -55 11 t-45.5 30.5t-30.5 45.5t-11 55v192z" />
<glyph unicode="&#x108a;" horiz-adv-x="894" d="M229 192q-14 0 -24 -7.5t-10 -18.5t10 -18t24 -7h160q12 0 21 6q12 6 12 19q0 11 -9.5 18.5t-23.5 7.5h-160zM408 352q27 0 51.5 -9.5t43.5 -26.5t32 -39.5t17 -49.5l217 126l81 -134l-353 -208q-39 -31 -89 -31h-195q-30 0 -56.5 11.5t-46 31t-31 46t-11.5 56.5v82 q0 30 11.5 56.5t31 46t46 31t56.5 11.5h195zM229 908q-14 0 -24 -7.5t-10 -18.5t10 -18t24 -7h160q12 0 21 6q12 6 12 19q0 11 -9.5 18.5t-23.5 7.5h-160zM408 1068q27 0 51.5 -9.5t43.5 -26.5t32 -39.5t17 -49.5l217 126l81 -134l-353 -208q-39 -31 -89 -31h-195 q-30 0 -56.5 11.5t-46 31t-31 46t-11.5 56.5v82q0 30 11.5 56.5t31 46t46 31t56.5 11.5h195z" />
<glyph unicode="&#x108b;" horiz-adv-x="535" d="M257 587v-157q0 -14 7 -23.5t18 -9.5t18 9.5t7 23.5v157q0 14 -7 23.5t-18 9.5t-18 -9.5t-7 -23.5zM99 603q0 29 11 55t30.5 45.5t45.5 30.5t55 11h81q30 0 56 -11t45.5 -30.5t30.5 -45.5t11 -55v-192q0 -29 -11 -55t-30.5 -45.5t-45.5 -30.5t-56 -11h-81q-29 0 -55 11 t-45.5 30.5t-30.5 45.5t-11 55v192z" />
<glyph unicode="&#x108c;" d="M-879 587v-157q0 -14 7 -23.5t18 -9.5t18 9.5t7 23.5v157q0 14 -7 23.5t-18 9.5t-18 -9.5t-7 -23.5zM-1037 603q0 29 11 55t30.5 45.5t45.5 30.5t55 11h81q30 0 56 -11t45.5 -30.5t30.5 -45.5t11 -55v-192q0 -29 -11 -55t-30.5 -45.5t-45.5 -30.5t-56 -11h-81 q-29 0 -55 11t-45.5 30.5t-30.5 45.5t-11 55v192zM-304 587v-157q0 -14 7 -23.5t18 -9.5t18 9.5t7 23.5v157q0 14 -7 23.5t-18 9.5t-18 -9.5t-7 -23.5zM-462 603q0 29 11 55t30.5 45.5t45.5 30.5t55 11h81q30 0 56 -11t45.5 -30.5t30.5 -45.5t11 -55v-192q0 -29 -11 -55 t-30.5 -45.5t-45.5 -30.5t-56 -11h-81q-29 0 -55 11t-45.5 30.5t-30.5 45.5t-11 55v192z" />
<glyph unicode="&#x108d;" d="M-123 -546l-775 -2v226h775v-224z" />
<glyph unicode="&#x108e;" horiz-adv-x="964" d="M457 -18q-74 0 -139.5 27.5t-113.5 76t-76 114t-28 138.5v373q0 76 28 140.5t76 111.5t113.5 75.5t139.5 28.5h47q74 0 139.5 -28.5t113.5 -75.5t75.5 -111.5t27.5 -140.5v-373q0 -73 -27.5 -138.5t-75.5 -114t-113.5 -76t-139.5 -27.5h-47zM592 807q-19 17 -40.5 25 t-47.5 8h-47q-27 0 -49.5 -8t-38.5 -25q10 -22 22 -45.5t27.5 -43t33 -32t35.5 -12.5q19 0 34.5 12.5t27.5 31t23.5 42t19.5 47.5zM326 338q0 -26 10 -49.5t28.5 -42t41 -29t51.5 -10.5h47q26 0 50 10.5t42 29t28.5 42t10.5 49.5v291q-31 -29 -67 -46t-81 -17 q-47 0 -88 20.5t-73 52.5v-301z" />
<glyph unicode="&#x108f;" horiz-adv-x="535" d="M308 294q0 14 -7.5 24t-18.5 10t-18 -10t-7 -24v-160q0 -12 6 -21q6 -12 19 -12q11 0 18.5 9.5t7.5 23.5v160zM468 115q0 -27 -9.5 -51.5t-26.5 -43.5t-39.5 -32t-49.5 -17l126 -217l-134 -81l-208 353q-31 39 -31 89v195q0 30 11.5 56.5t31 46t46 31t56.5 11.5h82 q30 0 56.5 -11.5t46 -31t31 -46t11.5 -56.5v-195zM308 918q0 14 -7 23.5t-18 9.5t-18 -9.5t-7 -23.5v-157q0 -14 7 -23.5t18 -9.5t18 9.5t7 23.5v157zM466 742q0 -29 -11 -55t-30.5 -45.5t-45.5 -30.5t-55 -11h-81q-30 0 -56 11t-45.5 30.5t-30.5 45.5t-11 55v192 q0 29 11 55t30.5 45.5t45.5 30.5t56 11h81q29 0 55 -11t45.5 -30.5t30.5 -45.5t11 -55v-192z" />
<glyph unicode="&#x1090;" horiz-adv-x="974" d="M463 2120h50q75 0 140.5 -28.5t114.5 -77.5t77.5 -115t28.5 -141v-1415q0 -74 -28.5 -140t-77.5 -115t-114.5 -77.5t-140.5 -28.5h-50q-75 0 -141 28.5t-114.5 77.5t-77 115t-28.5 140v1415q0 75 28.5 141t77 115t114.5 77.5t141 28.5zM463 1890q-27 0 -51 -10.5 t-42 -28.5t-28 -42t-10 -51v-1415q0 -27 10 -51t28 -41.5t42 -28t51 -10.5h50q27 0 51 10.5t42 28t28.5 41.5t10.5 51v1415q0 27 -10.5 51t-28.5 42t-42 28.5t-51 10.5h-50zM463 2120h50q75 0 140.5 -28.5t114.5 -77.5t77.5 -115t28.5 -141v-1415q0 -74 -28.5 -140 t-77.5 -115t-114.5 -77.5t-140.5 -28.5h-50q-75 0 -141 28.5t-114.5 77.5t-77 115t-28.5 140v1415q0 75 28.5 141t77 115t114.5 77.5t141 28.5zM463 1890q-27 0 -51 -10.5t-42 -28.5t-28 -42t-10 -51v-1415q0 -27 10 -51t28 -41.5t42 -28t51 -10.5h50q27 0 51 10.5t42 28 t28.5 41.5t10.5 51v1415q0 27 -10.5 51t-28.5 42t-42 28.5t-51 10.5h-50z" />
<glyph unicode="&#x1091;" horiz-adv-x="662" d="M212 217v1675q-46 -14 -85 -25q-33 -10 -63 -17.5t-37 -7.5l2 227q7 0 24.5 4t39 9.5t45.5 12t45 12t37 8.5t21 3q61 -5 99 -21t59.5 -44t30 -69.5t10.5 -96.5v-1676q50 17 91 31q35 12 66 22t38 10l-2 -225q-7 0 -24.5 -5t-40 -12.5l-48 -16t-48 -15.5t-39.5 -12t-23 -4 q-62 5 -100 20.5t-59 44t-29 70t-10 98.5z" />
<glyph unicode="&#x1092;" horiz-adv-x="961" d="M343 214l-1 272q0 91 22 188.5t55.5 191t72.5 179t72.5 154t55.5 115.5t22 64v377q0 27 -10.5 51t-28.5 42t-42 28.5t-51 10.5h-48q-27 0 -51 -10.5t-42 -28.5t-28.5 -42t-10.5 -51v-469h-229v832l229 1v-28q62 25 132 25h48q75 0 140.5 -28.5t114.5 -77t77.5 -114.5 t28.5 -141v-377q0 -43 -22 -104t-55.5 -134.5t-72.5 -156t-72.5 -168t-55.5 -170.5t-22 -163v-273h50l-2 -227q-87 0 -140 12.5t-82.5 40t-40.5 71.5t-13 108z" />
<glyph unicode="&#x1093;" horiz-adv-x="1088" d="M803 -17v739q0 27 -10.5 51t-28 42t-41.5 28t-51 10h-49q-22 0 -55 -15.5t-68 -40.5l-228 -815l-220 61l581 2070l220 -61l-274 -974q11 2 22 2h22h49q74 0 139.5 -28t114 -76.5t76.5 -114t28 -139.5v-739h-227z" />
<glyph unicode="&#x1094;" horiz-adv-x="1006" d="M838 2057l-21 -74v-1640l60 38l136 -210q-46 -28 -90 -56q-38 -24 -79 -51t-73 -49q-30 -12 -62 -14t-58.5 11t-43.5 41.5t-17 77.5v1044l-332 -1185l-219 61l581 2067z" />
<glyph unicode="&#x1095;" horiz-adv-x="1071" d="M643 853h-184q-27 0 -51 -10.5t-41.5 -28.5t-28 -42t-10.5 -51v-379q0 -27 10.5 -51t28 -42t41.5 -28t51 -10h50q27 0 51 10t42 28t28 42t10 51zM872 2121v-1039h130v-229h-130l-2 -511q0 -75 -28.5 -140.5t-77 -114t-114.5 -77t-141 -28.5h-50q-75 0 -140.5 28.5 t-114 77t-77 114t-28.5 140.5v379q0 75 28.5 140.5t77 114.5t114 77.5t140.5 28.5h184v1039h229z" />
<glyph unicode="&#x1096;" horiz-adv-x="1071" d="M640 1761q0 27 -10 51t-28 42t-42 28t-51 10h-50q-27 0 -51 -10t-41.5 -28t-28 -42t-10.5 -51v-379q0 -27 10.5 -51t28 -42t41.5 -28.5t51 -10.5h184zM643 -18v1039h-184q-75 0 -140.5 28.5t-114 77.5t-77 114.5t-28.5 140.5v379q0 75 28.5 140.5t77 114t114 77 t140.5 28.5h50q75 0 141 -28.5t114.5 -77t77 -114t28.5 -140.5l2 -511h130v-229h-130v-1039h-229z" />
<glyph unicode="&#x1097;" horiz-adv-x="820" d="M527 1892h-447v229h498q61 0 102.5 -26t63 -69t22.5 -97t-20 -109l-440 -1611q-1 0 18 0t51 0.5t73.5 0.5h84.5h230v-229h-484q-63 0 -109 26t-71.5 69.5t-28 100.5t22.5 118l432 1588q0 3 2 9z" />
<glyph unicode="&#x1098;" horiz-adv-x="951" d="M772 1051q45 -53 71 -121.5t26 -146.5v-411q0 -81 -28.5 -152t-77.5 -124.5t-115 -84t-141 -30.5h-49q-75 0 -141 30.5t-115 84t-77.5 124.5t-28.5 152v411q0 78 26 146.5t71 121.5q-45 53 -71 121t-26 146v411q0 76 17.5 143.5t52 119.5t86 85.5t120.5 41.5l33 -248 q-27 0 -42.5 -11.5t-23.5 -30.5t-10.5 -45t-2.5 -55v-411q0 -29 10 -55t28 -45.5t42 -31t52 -11.5h49q27 0 51 11.5t42 31t28.5 45.5t10.5 55v411q0 25 -1 49.5t-6.5 44.5t-17.5 34.5t-34 19.5l45 245q62 -14 108 -50.5t76 -89t45 -118t15 -135.5v-411q0 -78 -26 -146 t-71 -121zM458 926q-28 0 -52 -11t-42 -30.5t-28 -45.5t-10 -56v-411q0 -29 10 -55t28 -45.5t42 -30.5t52 -11h49q27 0 51 11t42 30.5t28.5 45.5t10.5 55v411q0 30 -10.5 56t-28.5 45.5t-42 30.5t-51 11h-49z" />
<glyph unicode="&#x1099;" horiz-adv-x="951" d="M772 1052q45 -53 71 -121t26 -146v-411q0 -71 -15 -136t-45 -117.5t-76 -89t-108 -50.5l-45 245q22 5 34 19.5t17.5 34.5t6.5 44.5t1 49.5v411q0 29 -10.5 55t-28.5 45.5t-42 31t-51 11.5h-49q-28 0 -52 -11.5t-42 -31t-28 -45.5t-10 -55v-411q0 -29 2.5 -55t10.5 -45 t23.5 -30.5t42.5 -11.5l-33 -248q-69 8 -120.5 41.5t-86 85.5t-52 119.5t-17.5 143.5v411q0 78 26 146t71 121q-45 53 -71 121.5t-26 146.5v411q0 81 28.5 152t77.5 124.5t115 84t141 30.5h49q75 0 141 -30.5t115 -84t77.5 -124.5t28.5 -152v-411q0 -78 -26 -146.5 t-71 -121.5zM458 1177h49q27 0 51 11t42 30.5t28.5 45.5t10.5 56v411q0 29 -10.5 55t-28.5 45.5t-42 30.5t-51 11h-49q-28 0 -52 -11t-42 -30.5t-28 -45.5t-10 -55v-411q0 -30 10 -56t28 -45.5t42 -30.5t52 -11z" />
<glyph unicode="&#x109a;" horiz-adv-x="535" d="M257 937v-157q0 -14 7 -23.5t18 -9.5t18 9.5t7 23.5v157q0 14 -7 23.5t-18 9.5t-18 -9.5t-7 -23.5zM99 953q0 29 11 55t30.5 45.5t45.5 30.5t55 11h81q30 0 56 -11t45.5 -30.5t30.5 -45.5t11 -55v-192q0 -29 -11 -55t-30.5 -45.5t-45.5 -30.5t-56 -11h-81q-29 0 -55 11 t-45.5 30.5t-30.5 45.5t-11 55v192z" />
<glyph unicode="&#x109b;" horiz-adv-x="564" d="M265 1703v-160q0 -14 7.5 -23.5t18.5 -9.5t18 10t7 23v160q0 14 -7 24t-18 10t-18.5 -10t-7.5 -24zM105 1719q0 30 11.5 56.5t31 46t46 31t56.5 11.5h82q30 0 56.5 -11.5t46 -31t31 -46t11.5 -56.5v-195q0 -50 -31 -89l-208 -353l-134 81l126 217q-27 4 -49.5 17 t-39.5 32t-26.5 43.5t-9.5 51.5v195z" />
<glyph unicode="&#x109c;" horiz-adv-x="894" d="M389 857q14 0 23.5 7.5t9.5 18.5q0 13 -12 19q-9 6 -21 6h-160q-14 0 -24 -7t-10 -18t10 -18.5t24 -7.5h160zM213 697q-30 0 -56.5 11.5t-46 31t-31 46t-11.5 56.5v82q0 30 11.5 56.5t31 46t46 31t56.5 11.5h195q50 0 89 -31l353 -208l-81 -134l-217 126 q-4 -27 -17 -49.5t-32 -39.5t-43.5 -26.5t-51.5 -9.5h-195zM389 141q14 0 23.5 7.5t9.5 18.5q0 13 -12 19q-9 6 -21 6h-160q-14 0 -24 -7t-10 -18t10 -18.5t24 -7.5h160zM213 -19q-30 0 -56.5 11.5t-46 31t-31 46t-11.5 56.5v82q0 30 11.5 56.5t31 46t46 31t56.5 11.5h195 q50 0 89 -31l353 -208l-81 -134l-217 126q-4 -27 -17 -49.5t-32 -39.5t-43.5 -26.5t-51.5 -9.5h-195z" />
<glyph unicode="&#x109d;" d="M-888 1614v196q0 77 26.5 135t69.5 96.5t98 58t113 20t113 -18.5t98 -57.5t69.5 -97t26.5 -136.5v-710l70 -71l-192 2q-19 9 -34 20q-13 9 -23.5 21.5t-10.5 27.5v710q0 41 -17.5 68.5t-43.5 41t-56 13t-56 -14t-43.5 -41t-17.5 -67.5v-196h-190z" />
<glyph unicode="&#x109e;" horiz-adv-x="690" d="M458 838l1 -1663h139l-1 -224h-26h-42.5h-42.5h-25q-71 3 -115 17t-68.5 41.5t-34 69.5t-11.5 101v1663l-140 -1l2 225h26h42.5h42h24.5q71 -3 115 -17t68.5 -41.5t34 -69.5t11.5 -101zM254 1549v-157q0 -14 7 -23.5t18 -9.5t18 9.5t7 23.5v157q0 14 -7 23.5t-18 9.5 t-18 -9.5t-7 -23.5zM96 1565q0 29 11 55t30.5 45.5t45.5 30.5t55 11h81q30 0 56 -11t45.5 -30.5t30.5 -45.5t11 -55v-192q0 -29 -11 -55t-30.5 -45.5t-45.5 -30.5t-56 -11h-81q-29 0 -55 11t-45.5 30.5t-30.5 45.5t-11 55v192z" />
<glyph unicode="&#x109f;" horiz-adv-x="1324" d="M458 851q-27 0 -51 -10t-42 -28t-28.5 -42t-10.5 -51v-379q0 -23 1 -45.5t6.5 -41.5t17.5 -32t34 -18l-45 -226q-62 13 -107.5 46.5t-76 82.5t-45.5 109t-15 125v379q0 75 28.5 141t77.5 114.5t115 77t141 28.5h49q75 0 140.5 -28.5t114.5 -77t77.5 -114.5t28.5 -141 v-1471q0 -15 1.5 -28t7.5 -23.5t18.5 -16.5t35.5 -7q18 1 30 4.5t19 12t10 22t3 35.5v1431q0 37 -1.5 84t-6.5 96t-16 96.5t-30.5 84t-48.5 59t-71 22.5q-75 0 -141 28.5t-114.5 77.5t-77 114.5t-28.5 140.5v278q0 75 28.5 141t77 115t114.5 77.5t141 28.5h49 q73 0 138 -27.5t113.5 -75t78 -111t31.5 -136.5l-229 -57v45q0 27 -10.5 51t-28.5 42t-42 28.5t-51 10.5h-49q-27 0 -51 -10.5t-42 -28.5t-28.5 -42t-10.5 -51v-278q0 -27 10.5 -51t28.5 -41.5t42 -28t51 -10.5q22 0 53.5 -7t66.5 -20.5t70.5 -33.5t67.5 -46 q54 -44 83 -110.5t43 -142t16.5 -155t2.5 -148.5v-1432q0 -72 -19.5 -127t-54.5 -93t-83 -60t-106 -29h-58q-58 7 -106 29t-83 60t-54.5 93t-19.5 127l1 1464q0 27 -10.5 51t-28.5 42t-42 28t-51 10h-49z" />
<glyph unicode="&#x1700;" />
<glyph unicode="&#x200b;" />
<glyph unicode="&#x200c;" />
<glyph unicode="&#x200d;" />
<glyph unicode="&#x2013;" horiz-adv-x="1023" d="M0 530v226h1024v-226h-1024z" />
<glyph unicode="&#x2014;" horiz-adv-x="2046" d="M0 530v226h2048v-226h-2048z" />
<glyph unicode="&#x2018;" horiz-adv-x="557" d="M403 1475q-66 -10 -101 -55.5t-30 -139.5h131v-266h-247v243q0 69 12 122t40.5 91t76 62.5t118.5 36.5v-94z" />
<glyph unicode="&#x2019;" horiz-adv-x="594" d="M166 1075q66 9 101 55t30 140h-131v266h248v-244q0 -68 -12 -121t-40.5 -91t-76.5 -62.5t-119 -36.5v94z" />
<glyph unicode="&#x201a;" horiz-adv-x="606" d="M182 -188q42 8 67.5 24t40 40t18.5 56t3 72h-129v266h246v-243q0 -70 -11.5 -122t-40 -88.5t-75.5 -60.5t-119 -39v95z" />
<glyph unicode="&#x201c;" horiz-adv-x="1005" d="M426 1475q-66 -10 -101 -55.5t-30 -139.5h131v-266h-248v243q0 69 12 122t40.5 91t76.5 62.5t119 36.5v-94zM829 1475q-66 -10 -101 -55.5t-30 -139.5h131v-266h-247v243q0 69 12 122t40.5 91t76 62.5t118.5 36.5v-94z" />
<glyph unicode="&#x201d;" horiz-adv-x="1035" d="M598 1075q66 9 101 55t30 140h-131v266h248v-244q0 -68 -12 -121t-40.5 -91t-76.5 -62.5t-119 -36.5v94zM195 1075q66 9 101 55t30 140h-131v266h247v-244q0 -68 -12 -121t-40.5 -91t-76 -62.5t-118.5 -36.5v94z" />
<glyph unicode="&#x2020;" horiz-adv-x="1035" d="M76 864v230h309v479h262v-479h301v-230h-301v-1181h-262v1181h-309z" />
<glyph unicode="&#x2022;" horiz-adv-x="864" d="M815 768q0 -80 -30.5 -150.5t-83 -123t-123 -83t-150.5 -30.5t-150 30.5t-121.5 83t-81.5 123t-30 150.5q0 79 30 149t81.5 122t121.5 82t150 30t150.5 -30t123 -82t83 -122t30.5 -149z" />
<glyph unicode="&#x2030;" horiz-adv-x="2291" d="M1186 750q75 0 127.5 -14.5t87.5 -40t55 -60.5t30 -76.5t12.5 -88.5t2.5 -95q0 -49 -2.5 -95.5t-12.5 -88.5t-30 -77t-55 -60.5t-87.5 -39.5t-127.5 -14q-74 0 -126 14t-86.5 39.5t-55 60.5t-30.5 77t-13 88.5t-3 95.5q0 48 3 95t13 88.5t30.5 76.5t55 60.5t86.5 40 t126 14.5zM1188 600q-45 0 -69 -16t-35 -45t-13 -71t-2 -93t2 -93t13 -71t35 -45t69 -16q44 0 67.5 16t34.5 45t13 71t2 93t-2 93t-13 71t-34.5 45t-67.5 16zM1919 750q75 0 127.5 -14.5t87.5 -40t55 -60.5t30 -76.5t12.5 -88.5t2.5 -95q0 -49 -2.5 -95.5t-12.5 -88.5 t-30 -77t-55 -60.5t-87.5 -39.5t-127.5 -14q-74 0 -125.5 14t-86.5 39.5t-55 60.5t-30.5 77t-13 88.5t-2.5 95.5q0 73 7.5 140.5t38.5 119.5t93.5 83.5t173.5 31.5zM1921 600q-45 0 -69 -16t-35 -45t-13 -71t-2 -93t2 -93t13 -71t35 -45t69 -16q44 0 67.5 16t34.5 45t13 71 t2 93t-2 93t-13 71t-34.5 45t-67.5 16zM356 1507q112 0 175.5 -31t94.5 -83t38.5 -119.5t7.5 -140.5t-7.5 -141t-38.5 -120t-94.5 -83t-175.5 -31q-74 0 -125.5 14t-86.5 39.5t-55 60.5t-30.5 77t-13 88.5t-2.5 95.5q0 48 2.5 95t13 88.5t30.5 76.5t55 60.5t86.5 39.5 t125.5 14zM358 1358q-44 0 -68 -16t-35 -45t-13 -71t-2 -93q0 -52 2 -93.5t13 -71t35 -45.5t68 -16t67.5 16t34.5 45.5t13 71t2 93.5q0 51 -2 93t-13 71t-34.5 45t-67.5 16zM354 -37l695 1569h147l-692 -1569h-150z" />
<glyph unicode="&#x2039;" horiz-adv-x="588" d="M119 418v209l321 288v-229l-194 -154l194 -174v-231z" />
<glyph unicode="&#x203a;" horiz-adv-x="545" d="M129 358l193 166l-193 162v229l322 -288v-209l-322 -291v231z" />
<glyph unicode="&#x2044;" horiz-adv-x="417" d="M-346 0l870 1511h154l-871 -1511h-153z" />
<glyph unicode="&#x20ac;" horiz-adv-x="1078" d="M753 781h-345v-156h345v-203h-344v-9q2 -33 8.5 -66.5t20 -64.5t36 -54.5t57 -38t83.5 -14.5q39 0 65 17.5t41.5 45.5t23.5 62q6 28 9 57h284q-7 -64 -23 -121q-22 -81 -71 -141t-129 -94t-200 -34q-118 0 -201 21.5t-138.5 62t-87.5 97.5t-49 127q-15 68 -21 147h-64 v203h60v156h-60v203h70q7 71 23 133q18 69 50.5 124t87 94t135 60t195.5 21q193 -3 299 -92q104 -87 120 -260h-288q-4 25 -11 49q-8 27 -22.5 48t-38.5 33.5t-59 12.5q-56 0 -93.5 -18.5t-60 -48t-33.5 -67.5t-16 -77q0 -6 -1 -12h343v-203z" />
<glyph unicode="&#x2122;" horiz-adv-x="1703" d="M1585 709h-164v667h-4l-215 -667h-96l-215 667h-4v-667h-164v827h264l166 -489h4l164 489h264v-827zM635 1376h-236v-667h-163v667h-234v160h633v-160z" />
<glyph unicode="&#x2202;" horiz-adv-x="893" d="M546 1056q-9 46 -32.5 79t-53.5 44l-121 -82l-79 79l53 42q-9 2 -35 4.5l-26 2.5q-33 4 -98 4v151q251 -8 343 -34q7 4 6 4h-1l116 75l79 -79l-72 -56q93 -65 124.5 -171t52.5 -275q9 -138 9 -244v-193q0 -173 -40.5 -270t-123 -132t-210.5 -35q-172 0 -258 89.5 t-93 298.5q0 124 -3 181q3 214 41.5 336t144.5 162q71 26 168 26q51 0 109 -7zM572 758q0 60 -37.5 92.5t-89.5 32.5q-50 0 -86 -36t-36 -108v-444q0 -137 130 -137q49 -4 84 35t35 102v463z" />
<glyph unicode="&#x220f;" horiz-adv-x="1686" d="M1645 -207h-562v47q115 0 159 39q40 36 40 127v1444h-868v-1444q0 -91 40 -127q43 -39 158 -39v-47h-561v47q115 0 159 39q40 36 40 127v1319q0 91 -40 127q-44 39 -159 39v47h1594v-47q-115 0 -159 -39q-40 -36 -40 -127v-1319q0 -91 40 -127q44 -39 159 -39v-47z" />
<glyph unicode="&#x2211;" horiz-adv-x="1460" d="M1423 188q-84 -328 -84 -395h-1304l743 864l-735 883l1221 -2l12 -326h-41q-31 143 -105 194q-64 44 -208 44h-590l610 -737l-649 -756h807q120 0 176 50q48 44 100 181h47z" />
<glyph unicode="&#x221a;" horiz-adv-x="1229" d="M1124 1602l-405 -1641l-402 715l-198 -92l-35 63l301 152l322 -572h4l340 1375h73z" />
<glyph unicode="&#x221e;" horiz-adv-x="1124" d="M1083 526q0 -156 -84 -244q-74 -79 -186 -79q-154 0 -258 221q-91 -180 -250 -180q-115 0 -189.5 80t-74.5 204q0 129 68 207q66 74 170 74q140 0 227 -176q43 116 107.5 165.5t174.5 49.5q130 0 212.5 -91t82.5 -231zM1034 526q0 108 -61.5 182t-151.5 74 q-81 0 -133 -65q-18 -23 -53 -104q-51 -122 -57 -134q57 -111 107 -158q57 -53 132 -53q98 0 157.5 69.5t59.5 188.5zM483 573q-79 170 -207 170q-85 0 -135.5 -60t-50.5 -155q0 -92 51.5 -155.5t120.5 -63.5q135 0 221 264z" />
<glyph unicode="&#x222b;" horiz-adv-x="1241" d="M912 1282l-165 -62q27 82 27 113q0 82 -71 82q-97 0 -97 -179q0 -113 31 -198h164l-16 -116h-153l-187 -1274h-312l184 1274h-108l15 116h110l25 162q46 327 365 327q198 0 198 -154q0 -36 -10 -91z" />
<glyph unicode="&#x2248;" horiz-adv-x="1029" d="M973 789q-24 -38 -49.5 -76t-56 -69.5t-69 -51t-89.5 -19.5q-31 0 -66.5 9t-72.5 22.5t-73.5 29.5t-68.5 29.5t-58 22.5t-42 9q-32 0 -55 -14.5t-41.5 -37t-33 -49t-28.5 -50.5l-117 136q22 40 48.5 80.5t60 73.5t74 54t90.5 21t104 -19t105 -41.5t96.5 -41.5t77.5 -19 q28 0 49.5 13.5t38.5 33.5t31 44t28 44zM973 394q-24 -38 -49.5 -76t-56 -69.5t-69 -51t-89.5 -19.5q-31 0 -66.5 9t-72.5 22.5t-73.5 29.5t-68.5 29.5t-58 22.5t-42 9q-32 0 -55 -14.5t-41.5 -37t-33 -49t-28.5 -50.5l-117 136q22 40 48.5 80.5t60 73.5t74 54t90.5 21 t104 -19t105 -41.5t96.5 -41.5t77.5 -19q28 0 49.5 13.5t38.5 33.5t31 44t28 44z" />
<glyph unicode="&#x2260;" horiz-adv-x="1029" d="M973 536h-920v203h920v-203zM973 177h-920v203h920v-203z" />
<glyph unicode="&#x2264;" horiz-adv-x="1012" d="M938 455v-204l-854 415v182l854 418v-204l-608 -308zM80 3v226h864v-226h-864z" />
<glyph unicode="&#x2265;" horiz-adv-x="1012" d="M694 754l-608 308v204l854 -418v-182l-854 -415v204zM80 3v226h864v-226h-864z" />
<glyph unicode="&#x25ca;" horiz-adv-x="1229" d="M1055 768l-441 -604l-440 604l440 604zM958 768l-344 471l-344 -471l344 -471z" />
<glyph unicode="&#xa900;" horiz-adv-x="1229" d="M345 -20q-105 0 -176 78q-70 79 -70 216v589q0 267 235 294h548q247 -8 247 -294v-589q0 -109 -37 -175q-38 -67 -91 -94q-53 -25 -101 -25h-555zM858 112q117 0 117 147v612q0 147 -140 147h-465q-130 -3 -130 -171v-575q0 -158 147 -158z" />
<glyph unicode="&#xa901;" horiz-adv-x="1125" d="M489 101l290 -2q105 0 105 89v73q0 9 -37 9q-91 0 -206 -43.5t-152 -125.5zM884 755v148q0 67 -20 99t-90 32h-433q-75 -2 -95 -46t-20 -106v-3h-127v16q0 238 211 263h506q206 -6 206 -263v-254h-681q-115 -2 -115 -169v-231q0 -140 131 -140q23 90 117 156.5t216 102.5 t216 36q116 0 116 -47v-105q0 -97 -34 -157t-81 -83.5t-91 -23.5h-496q-94 0 -157.5 70.5t-63.5 193.5v242q0 245 211 269h574z" />
<glyph unicode="&#xa902;" horiz-adv-x="1239" d="M699 -20h-159l-441 1177h141l379 -1006l363 1006h147z" />
<glyph unicode="&#xa903;" horiz-adv-x="1244" d="M387 716h-288v147q0 267 235 294h548q247 -8 247 -294v-118l-886 -430l-3 -43q0 -92 49 -131q10 23 86 76q88 61 212 109t236 48h306v-100q0 -108 -37.5 -175t-90.5 -93t-101 -26h-555q-105 0 -175.5 78.5t-70.5 215.5v135l876 407v55q0 147 -140 147h-465 q-130 -2 -130 -171v-31h147v-100zM387 114l471 -2q117 0 117 112v38h-140q-88 0 -172 -28t-199 -77q-70 -29 -110 -41q16 -2 33 -2z" />
<glyph unicode="&#xa904;" horiz-adv-x="1234" d="M239 969l189 188h454q247 -8 247 -294v-587q0 -158 -73.5 -226t-155.5 -68h-160v129l118 3q117 0 117 148v609q0 147 -140 147h-359l-237 -238v-148q0 -156 148 -156h95v-136h-137q-106 0 -176 79t-70 215v523h140v-188z" />
<glyph unicode="&#xa905;" horiz-adv-x="1234" d="M523 112v-132h-178q-105 0 -175.5 78.5t-70.5 215.5v589q0 267 235 294h801v-302h-141v164h-624q-130 -3 -130 -171v-576q0 -158 147 -158z" />
<glyph unicode="&#xa906;" horiz-adv-x="1234" d="M975 342v529q0 147 -140 147h-124l-471 -780v-258h-141v1177h141v-630l383 630h259q247 -8 247 -294v-677q-71 -206 -271 -206q-113 0 -180.5 53.5t-69.5 142.5q0 87 45.5 163t150.5 76h36q19 0 42 -5.5t47.5 -22t45.5 -45.5zM928 183q-9 109 -111 109q-85 -8 -85 -103 q0 -86 85 -97q96 0 111 91z" />
<glyph unicode="&#xa907;" horiz-adv-x="1239" d="M541 817v-139h-171q-130 -2 -130 -171v-235q0 -158 147 -158l471 -2q117 0 117 147v417h-140v141h140v209l-140 -106v168l140 98h154v-912q0 -108 -37.5 -175t-90.5 -93t-101 -26h-555q-105 0 -175.5 78.5t-70.5 215.5v249q0 267 235 294h207z" />
<glyph unicode="&#xa908;" horiz-adv-x="1229" d="M1129 409v-135q0 -108 -37.5 -175t-90.5 -93t-101 -26h-555q-105 0 -175.5 78.5t-70.5 215.5v883h141v-885q0 -158 147 -158l471 -2q117 0 117 147v150h154z" />
<glyph unicode="&#xa909;" horiz-adv-x="1244" d="M892 817q235 -27 235 -294v-249q0 -137 -70.5 -215.5t-175.5 -78.5h-555q-48 0 -101 26t-90.5 93t-37.5 175v912h154l140 -98v-168l-140 106v-209h140v-141h-140v-417q0 -147 117 -147l471 2q147 0 147 158v235q0 169 -130 171h-171v139h207z" />
<glyph unicode="&#xa90a;" horiz-adv-x="1353" d="M905 1022l-318 -321v-721h-488v312q0 63 13.5 110t65.5 78l268 267v116q0 86 -16.5 122.5t-77.5 36.5l-35 3q-49 0 -63 -32t-14 -110v-103h-141v201q0 170 147 176h171q82 0 126 -53t44 -144v-73l271 270h148q247 -8 247 -294v-883h-330v132h176v759q0 151 -141 151h-53z M240 286v-174l206 2v444l-165 -166q-41 -48 -41 -106z" />
<glyph unicode="&#xa90b;" horiz-adv-x="1234" d="M975 668v203q0 147 -140 147h-465q-130 -2 -130 -171v-179h735zM975 551h-876v312q0 267 235 294h548q247 -8 247 -294v-589q0 -108 -37.5 -175t-90.5 -93t-101 -26h-555q-105 0 -175.5 78.5t-70.5 215.5v111h403v-105h-262v-8q0 -158 147 -158l471 -2q117 0 117 147v292 z" />
<glyph unicode="&#xa90c;" horiz-adv-x="1244" d="M975 592v279q0 147 -140 147h-41l-415 -429zM240 633l500 524h142q247 -8 247 -294v-883h-347v132h193v345h-735v-345h211v-132h-352v1177h141v-524z" />
<glyph unicode="&#xa90d;" horiz-adv-x="1239" d="M753 468h376v-194q0 -108 -37.5 -175t-90.5 -93t-101 -26h-555q-105 0 -175.5 78.5t-70.5 215.5v589q0 267 235 294h548q247 -8 247 -294v-201h-371v115l217 3v91q0 147 -140 147h-465q-130 -2 -130 -171v-575q0 -158 147 -158l471 -2q117 0 117 147v85h-222v124z" />
<glyph unicode="&#xa90e;" horiz-adv-x="1229" d="M463 581q22 -95 104 -95q85 0 94 95q0 116 -100 116q-43 -2 -70.5 -33.5t-27.5 -82.5zM975 114v757q0 147 -140 147h-465q-130 -2 -130 -171v-34q0 -157 135 -157q33 153 195 153q96 0 150.5 -64t54.5 -169q0 -58 -31.5 -105t-83 -72t-102.5 -25q-57 3 -107 39l-184 -299 h179v-134h-347v118l246 424q-105 0 -175.5 78.5t-70.5 215.5v47q0 267 235 294h548q247 -8 247 -294v-883h-371v134h217z" />
<glyph unicode="&#xa90f;" horiz-adv-x="1324" d="M328 787h-142v77q0 267 236 294h548q248 -8 248 -294v-589q0 -109 -37.5 -176t-90.5 -93t-101 -26h-101v135h59q118 0 118 144v142q0 148 -142 148h-465q-87 -2 -108.5 -31.5t-21.5 -87.5v-450h-229v112h87v342q0 129 58 184t178 69h484q106 0 159 -41v226 q0 149 -142 149h-465q-130 -4 -130 -137v-97z" />
<glyph unicode="&#xa910;" horiz-adv-x="1253" d="M520 -467v-139h-169q-107 0 -179.5 80.5t-72.5 219.5v1462h145v-291q73 144 175.5 214.5t251.5 76.5q185 0 325 -108t156 -373q0 -118 -53.5 -200.5t-134 -138t-149.5 -55.5l295 -145v-156h-669v121h458l-444 201q212 0 332.5 70.5t164 148.5t43.5 152q0 143 -86 244 t-248 101q-78 -5 -141.5 -44.5t-110 -97t-89.5 -133t-76 -137.5v-915q0 -158 150 -158h126z" />
<glyph unicode="&#xa911;" horiz-adv-x="1244" d="M249 -3v-322q0 -60 30 -104t91 -44l474 -3q71 0 101.5 21.5t39.5 73.5q6 21 6 104h-223v120h371v-195q0 -137 -75.5 -198t-178.5 -61h-557q-83 0 -156 70.5t-73 230.5v778h377v-125h-227v-85q0 -56 27.5 -101.5t93.5 -45.5l474 3q151 0 151 138q0 9 -1 19v577 q0 168 -130 170h-471q-86 0 -115 -48t-29 -99v-91l220 -3v-116h-370v202q0 286 247 294h554q239 -27 239 -294v-590q0 -139 -72.5 -217t-181.5 -78h-557q-47 0 -79 19z" />
<glyph unicode="&#xa912;" horiz-adv-x="1234" d="M929 184q-9 108 -112 108q-85 -8 -85 -103q0 -86 85 -97q96 0 112 92zM1135 421q0 -435 -276 -441q-108 0 -178.5 52.5t-72.5 143.5q0 87 45.5 163.5t151.5 76.5q16 0 35.5 -0.5t42 -6t47 -22t46.5 -45.5q0 142 -47.5 213.5t-193.5 87.5q-101 0 -199 -49t-177.5 -142 t-118.5 -214v-258h-141v1177h141l883 -183v-123l-883 162v-485q80 113 206.5 187.5t282.5 74.5q69 0 124 -12q133 -27 203 -122.5t79 -234.5z" />
<glyph unicode="&#xa913;" horiz-adv-x="1234" d="M541 1157v-139h-171q-130 -2 -130 -171v-575q0 -158 147 -158l471 -2q117 0 117 147v1327l-140 -106v168l140 98h154v-1472q0 -108 -37.5 -175t-90.5 -93t-101 -26h-555q-105 0 -175.5 78.5t-70.5 215.5v589q0 267 235 294h207z" />
<glyph unicode="&#xa914;" horiz-adv-x="1229" d="M558 -470v-139h-213q-95 0 -170.5 76.5t-75.5 217.5v742h347v-114h-207v-41q0 -157 148 -157l471 -3q117 0 117 147v115l-393 130l-483 164v195q0 267 235 294h548q247 -8 247 -294v-135h-301v96l147 3v44q0 147 -140 147h-465q-131 -2 -131 -171v-96l401 -136l489 -147 v-194q0 -108 -37.5 -175t-90.5 -93t-101 -26h-555q-70 0 -106 18v-315q0 -153 148 -153h171z" />
<glyph unicode="&#xa915;" horiz-adv-x="1229" d="M240 416l735 364v91q0 147 -140 147h-465q-130 -2 -130 -171v-431zM240 272q0 -157 147 -157l471 -3q117 0 117 147v51h-222v117h376v-153q0 -108 -37.5 -175t-90.5 -93t-101 -26h-555q-105 0 -175.5 78.5t-70.5 215.5v589q0 266 235 294h548q247 -8 247 -294v-147z" />
<glyph unicode="&#xa916;" horiz-adv-x="1315" d="M731 1412h251v77q0 102 -158 102h-432q-72 0 -106.5 -51.5t-34.5 -111.5v-337q26 67 158 67h479q128 -22 181 -82.5t53 -250.5v-722h88v-123h-228v850q0 93 -21.5 138t-107.5 47h-461q-141 -42 -141 -245v-487q0 -101 24 -144q22 -39 81 -39h70v-120h-99 q-109 0 -168.5 65t-59.5 263v1116q0 296 245 311h533q122 -21 183.5 -83.5t61.5 -198.5v-164h-391v123z" />
<glyph unicode="&#xa917;" horiz-adv-x="1239" d="M887 112l-276 280l-271 -278zM782 1157h347v-883q0 -108 -37.5 -175t-90.5 -93t-101 -26h-555q-105 0 -175.5 78.5t-70.5 215.5v883h323v-139h-182v-788l371 351l364 -351v788h-193v139z" />
<glyph unicode="&#xa918;" horiz-adv-x="1234" d="M99 1157h783q247 -8 247 -294v-118l-886 -430l-3 -43q0 -158 147 -158l471 -2q117 0 117 112v38h-140q-88 0 -172 -28t-199 -76.5t-147 -48.5q-29 0 -29 26q0 22 87.5 82.5t211.5 108.5t236 48h306v-100q0 -108 -37.5 -175t-90.5 -93t-101 -26h-555q-105 0 -175.5 78.5 t-70.5 215.5v135l876 407v55q0 147 -140 147h-735z" />
<glyph unicode="&#xa919;" horiz-adv-x="1229" d="M975 342v529q0 147 -140 147h-124l-471 -780v-258h-141v1177h141v-630l383 630h259q247 -8 247 -294v-677q-71 -206 -271 -206q-113 0 -180.5 53.5t-69.5 142.5q0 87 45.5 163t150.5 76h36q19 0 42 -5.5t47.5 -22t45.5 -45.5zM928 183q-9 109 -111 109q-85 -8 -85 -103 q0 -86 85 -97q96 0 111 91z" />
<glyph unicode="&#xa91a;" horiz-adv-x="1234" d="M239 115h243v-135h-383v1177h140v-188l189 188h454q247 -8 247 -294v-1178q0 -159 -73.5 -226.5t-155.5 -67.5h-160v129l118 3q117 0 117 148v1200q0 147 -140 147h-359l-237 -238v-665z" />
<glyph unicode="&#xa91b;" horiz-adv-x="1737" d="M1488 112v759q0 147 -142 147h-247q-148 0 -148 -150q0 -10 1 -21v-575q0 -154 -81.5 -223t-195.5 -69h-330q-95 0 -170.5 76.5t-75.5 217.5v883h393v-139h-252v-746q0 -158 147 -158l253 -2q84 0 128 46t44 116v589q0 142 71.5 216t197.5 78h313q247 -8 247 -294v-883 h-371v132h218z" />
<glyph unicode="&#xa91c;" horiz-adv-x="1585" d="M1488 -316q0 -158 -72.5 -225t-157.5 -67h-888q-106 0 -177 77.5t-71 214.5v167h388v-111h-235v-41q0 -168 136 -168l806 -4q118 0 118 142v312q-37 -15 -77 -15h-294q-105 0 -176 79t-71 215v612q0 147 -142 147h-205q-130 -3 -130 -171v-575q0 -158 147 -158l94 -2 v-132h-136q-105 0 -175.5 79t-70.5 215v589q0 266 235 293h289q247 -8 247 -293v-589q0 -180 135 -180l212 4q118 0 118 147v626q0 147 -142 147h-100v138h148q247 -8 247 -293v-1180z" />
<glyph unicode="&#xa91d;" horiz-adv-x="1239" d="M700 1158h207q239 -26 239 -289v-592q0 -138 -72 -217.5t-179 -79.5h-557q-85 0 -159 69t-74 228v1471h153l144 -86v-152l-144 85v-1333q0 -150 119 -150l477 3q147 0 147 160v581q0 68 -23 116.5t-107 50.5h-171v135z" />
<glyph unicode="&#xa91e;" horiz-adv-x="1229" d="M975 -2q-29 -18 -75 -18h-555q-106 0 -176 78.5t-70 215.5v589q0 267 235 294h548q247 -8 247 -294v-201h-371v115l217 3v91q0 147 -140 147h-465q-131 -2 -131 -171v-575q0 -157 148 -157l471 -3q117 0 117 147v85h-222v124h376v-777q0 -159 -73.5 -229.5t-155.5 -70.5 h-555q-99 0 -172.5 61t-73.5 197v196h364v-121h-217q0 -82 3 -104q9 -52 40 -73t98 -21l471 4q58 0 87.5 39t29.5 108v321z" />
<glyph unicode="&#xa91f;" horiz-adv-x="1229" d="M239 344v-72q0 -157 148 -157l68 -3l520 521v524h154v-1472q0 -159 -73.5 -226.5t-155.5 -67.5h-106v132h64q117 0 117 148v756l-447 -447h-183q-95 0 -170.5 76.5t-75.5 217.5v883h412v-403q-9 -161 -79 -262q-57 -83 -193 -148zM239 492q64 17 100 86t36 176v264h-136 v-526z" />
<glyph unicode="&#xa920;" horiz-adv-x="1229" d="M399 362h-159v-90q0 -158 147 -158l471 -2q117 0 117 147v748l-375 -277l-360 277v-244h-141v394h171l330 -259l341 259h188v-883q0 -108 -37.5 -175t-90.5 -93t-101 -26h-555q-105 0 -175.5 78.5t-70.5 215.5v206h300v-118z" />
<glyph unicode="&#xa921;" horiz-adv-x="1234" d="M975 1449q0 147 -140 147h-465q-130 -3 -130 -136v-61h265v-112h-406v152q0 267 235 294h548q247 -8 247 -294v-1459h-147l-742 968v-845h206v-123h-347v1177h147l729 -945v1237z" />
<glyph unicode="&#xa922;" horiz-adv-x="1229" d="M211 568q-112 4 -112 124v171q0 267 235 294h548q247 -8 247 -294v-201h-342v115l188 3v91q0 147 -140 147h-465q-130 -2 -130 -171v-131q0 -41 33 -65t79 -24h230v-129h-219q-57 0 -93 -41q-31 -35 -31 -62q0 -6 1 -10v-113q0 -158 147 -158l471 -2q117 0 117 147v85 h-193v124h347v-194q0 -108 -37.5 -175t-90.5 -93t-101 -26h-555q-105 0 -175.5 78.5t-70.5 215.5v183q0 96 112 111z" />
<glyph unicode="&#xa923;" horiz-adv-x="1229" d="M975 427l-447 -447h-183q-95 0 -170.5 76.5t-75.5 217.5v883h300v-139h-159v-746q0 -158 147 -158l68 -2l520 521v385h-152v139h306v-883q0 -108 -37.5 -175t-90.5 -93t-101 -26h-106v132h64q117 0 117 147v168z" />
<glyph unicode="&#xa924;" horiz-adv-x="1229" d="M434 798v-118h-335v183q0 267 235 294h548q247 -8 247 -294v-589q0 -108 -37.5 -175t-90.5 -93t-101 -26h-555q-105 0 -175.5 78.5t-70.5 215.5v65l876 495v37q0 147 -140 147h-465q-130 -2 -130 -171v-49h194zM975 686l-735 -418v-38q0 -47 30.5 -81.5t87.5 -34.5 l500 -2q117 0 117 147v427z" />
<glyph unicode="&#xa925;" horiz-adv-x="1229" d="M345 -20q-105 0 -175.5 78.5t-70.5 215.5v589q0 267 235 294h548q247 -8 247 -294v-589q0 -108 -37.5 -175t-90.5 -93t-101 -26h-555zM970 948q-4 45 -37.5 57.5t-97.5 12.5h-465q-118 0 -124 -70q148 -130 383 -144q200 0 341 144zM975 783q-78 -79 -165 -100t-187 -21 q-120 8 -208 29.5t-175 96.5v-516q0 -158 147 -158l471 -2q117 0 117 147v524z" />
<glyph unicode="&#xa926;" d="M-683 1699l39 40h128l46 -45v-128l-40 -40h-134l-39 40v133z" />
<glyph unicode="&#xa927;" d="M-445 1415l190 -133h-172l-518 350h193z" />
<glyph unicode="&#xa928;" d="M-341 1282l-275 273l-271 -273h-163l434 457l437 -457h-162z" />
<glyph unicode="&#xa929;" d="M-1013 1573q0 -157 148 -157l473 -3q119 0 119 148v175h154v-160q0 -162 -70 -231q-65 -65 -148 -65h-569q-107 0 -178 79t-71 217v160h142v-163z" />
<glyph unicode="&#xa92a;" d="M-1013 1575q0 -156 148 -156l473 -4q119 0 119 148v176h154v-161q0 -161 -70 -230q-66 -65 -149 -65h-569q-106 0 -177 79t-71 216v161h142v-164zM-587 1526h-136l-47 47v124l41 42h142l47 -49v-117z" />
<glyph unicode="&#xa92b;" d="M-683 -187l40 41h132l45 -45v-131l-40 -41h-137l-40 41v135z" />
<glyph unicode="&#xa92c;" d="M-788 -20l-116 -40q-36 -36 -47.5 -68.5t-11.5 -96.5v-93q0 -156 146 -156l468 4q118 0 118 140v115h152v-100q0 -159 -73 -226t-156 -67h-550q-105 0 -175 78.5t-70 214.5v134q0 96 52 164t141 87z" />
<glyph unicode="&#xa92d;" d="M-777 -8l-119 -53q-41 -30 -53 -71t-12 -125v-59q0 -157 148 -157l474 3q118 0 118 142v116h155v-101q0 -160 -73.5 -227.5t-158.5 -67.5h-556q-107 0 -178 78.5t-71 216.5v137q0 210 173 254zM-593 -147q51 0 87.5 -28t36.5 -91q-8 -99 -131 -99q-97 10 -106 106 q0 98 113 112z" />
<glyph unicode="&#xa92e;" horiz-adv-x="1733" d="M1638 -2h-201q-114 90 -284 147.5t-288 57.5q-116 -1 -240 -41t-210.5 -90t-86.5 -74h-229q33 91 164 179t291 143t278 55q146 0 320.5 -52t308 -138.5t177.5 -186.5z" />
<glyph unicode="&#xa92f;" horiz-adv-x="365" d="M239 -20h-140v1176l140 -3v-1173z" />
<glyph unicode="&#xaa60;" horiz-adv-x="1476" d="M1156 543v167q0 27 -10 50.5t-27.5 41t-41 27.5t-50.5 10h-49q-49 0 -84.5 -31t-43.5 -79v-18.5t0.5 -45t0.5 -62.5v-71v-193q0 -69 -17 -130.5t-51 -108.5t-84.5 -77t-117.5 -37l-34 225q27 0 42.5 10t24 27.5t11 40.5t2.5 50l-1 390q-4 24 -15.5 44t-29 35t-39 23 t-45.5 8h-48q-27 0 -51 -10t-41 -27.5t-27 -41t-10 -50.5v-371q0 -23 1 -45t6 -40.5t16.5 -31.5t32.5 -17l-43 -222q-60 13 -105 46t-75 81t-44.5 106.5t-14.5 122.5v371q0 73 28 138t76 113t112.5 76t138.5 28h48q70 0 131 -25t110 -69q47 44 108.5 69t131.5 25h49 q73 0 137.5 -28t113 -76t76.5 -113t28 -138v-371q0 -72 -27 -136t-73.5 -111.5t-109.5 -76t-134 -30.5l-89 45q-16 34 -23.5 65.5t-6 67.5t12.5 78.5t32 99.5q41 110 87 158t105 44zM1038 211q25 1 46.5 12t37.5 28t25 39.5t9 48.5v71q-32 9 -52 -15t-40 -78 q-15 -38 -21 -64t-5 -42z" />
<glyph unicode="&#xaa61;" horiz-adv-x="1483" d="M857 714v-373q0 -27 10 -50.5t28 -41t41.5 -28t50.5 -10.5h48q27 0 50.5 10.5t41.5 28t28 41t10 50.5v373q0 27 -10 50.5t-28 41.5t-41.5 28t-50.5 10h-48q-27 0 -50.5 -10t-41.5 -28t-28 -41.5t-10 -50.5zM502 844h-49q-27 0 -50.5 -10t-41 -28t-28 -41.5t-10.5 -50.5 v-261q30 -21 59 -43.5t52 -49t37 -56.5t14 -66l1 -105q0 -34 -11 -61.5t-34.5 -47t-60.5 -30.5t-90 -11l-192 1v224l86 -2q32 0 58.5 10.5t33.5 42.5q2 11 -10 24t-31 26.5t-42.5 28.5t-44 31.5t-35 34.5t-15.5 38v2v1v269q0 73 28 138t76 113t112.5 76t138.5 28h49 q71 0 133 -25.5t110 -70.5q48 45 109.5 70.5t132.5 25.5h48q73 0 138 -28t113 -76t76 -113t28 -138v-373q0 -74 -28 -138.5t-76 -112.5t-113 -76t-138 -28h-48q-64 0 -121 20.5t-103 58.5q-29 -29 -64.5 -50.5t-80.5 -30.5l-44 221q21 5 33 18.5t17.5 32t6.5 40.5t1 45v373 q0 27 -10.5 50.5t-28 41.5t-41 28t-50.5 10z" />
<glyph unicode="&#xaa62;" horiz-adv-x="1287" d="M97 210l-1 859h226v-827q14 9 31 20q14 9 32.5 20.5t40.5 24.5q0 8 -0.5 15t-0.5 15v375q0 69 17 130.5t51.5 109t85 77.5t118.5 37l34 -224q-26 -1 -41.5 -11.5t-23.5 -28t-10.5 -41t-2.5 -49.5v-375q0 -27 10 -50.5t27.5 -41t41 -27.5t50.5 -10h49q27 0 50.5 10 t41 27.5t27.5 41t10 50.5v375q0 22 -1 44.5t-6 40.5t-17 31t-33 18l44 223q61 -13 106 -46t75 -81t45 -107t15 -123v-375q0 -74 -28 -139t-76.5 -113t-113.5 -76t-139 -28h-49q-74 0 -139 28.5t-114 76.5q-33 -18 -68 -36.5t-64 -33.5t-49.5 -25t-23.5 -10q-71 3 -114.5 17 t-68 41.5t-33.5 69.5t-11 101z" />
<glyph unicode="&#xaa63;" horiz-adv-x="1488" d="M631 337v51q-5 -10 -10 -20.5t-10 -22.5q-16 -36 -23.5 -63t-10.5 -45q-4 -21 -4 -36q22 5 33.5 18t17 31.5t6.5 41t1 45.5zM987 1067h49q74 0 139 -28t113.5 -76.5t76.5 -113.5t28 -139v-373q0 -74 -28 -139t-76.5 -113.5t-113.5 -76.5t-139 -28h-49q-64 0 -121 21 t-104 59q-28 -30 -64 -51t-81 -30l-75 20q-85 48 -88.5 136t55.5 225q61 144 122 205v145q0 27 -10 51t-28 41.5t-41.5 28t-50.5 10.5h-48q-27 0 -51 -10.5t-41.5 -28t-28 -41.5t-10.5 -51v-261q30 -21 49 -44t30.5 -49t16 -56.5t4.5 -66.5l-4 -105q0 -69 -55.5 -110 t-161.5 -41l-105 2v224l86 -1q16 0 25 6.5t13 17.5t4.5 25.5t0.5 31.5q-1 18 -20.5 33t-43 32.5t-43.5 38.5t-22 51v2v1v269q0 74 28 139t76.5 113.5t113.5 76.5t139 28h48q71 0 133 -25.5t110 -70.5q48 45 110 70.5t133 25.5zM987 841q-27 0 -50.5 -10.5t-41 -28 t-27.5 -41.5t-10 -51v-373q0 -27 10 -50.5t27.5 -41.5t41 -28t50.5 -10h49q27 0 50.5 10t41.5 28t28 41.5t10 50.5v373q0 27 -10 51t-28 41.5t-41.5 28t-50.5 10.5h-49z" />
<glyph unicode="&#xaa64;" horiz-adv-x="1501" d="M992 846q-27 0 -50.5 -10t-41.5 -28t-28 -41.5t-10 -50.5v-374q0 -27 10 -51t28 -41.5t41.5 -28t50.5 -10.5h49q27 0 50.5 10.5t41.5 28t28 41.5t10 51v374q0 27 -10 50.5t-28 41.5t-41.5 28t-50.5 10h-49zM505 210q27 0 50.5 10t41.5 28t28 41.5t10 50.5v375q0 23 -1 45 t-6.5 40.5t-17 31.5t-33.5 18l44 223q45 -9 81 -30t64 -51q46 38 103.5 59.5t122.5 21.5h49q73 0 138 -28t113.5 -76.5t76.5 -113.5t28 -139v-374q0 -74 -28 -139t-76.5 -113.5t-113.5 -76.5t-138 -28h-49q-71 0 -133 25t-110 70q-48 -45 -110.5 -71t-133.5 -26h-49 q-74 0 -139 28t-113.5 77t-76.5 113.5t-28 138.5v375q0 69 17 131t51.5 109t85.5 77.5t119 36.5l32 -225q-26 0 -41.5 -10.5t-23.5 -28t-10.5 -41t-2.5 -49.5v-375q0 -27 10 -50.5t28 -41.5t41.5 -28t50.5 -10h49z" />
<glyph unicode="&#xaa65;" horiz-adv-x="1501" d="M862 -814q-2 -66 -13.5 -112t-42 -73.5t-76 -39t-98.5 -14.5q-25 -1 -234 -1l-2 236h239v824q-61 -24 -129 -24h-49q-74 0 -138.5 28.5t-112.5 75.5t-77 112.5t-29 139.5v373q0 71 28 135.5t74 113t109.5 77t134.5 30.5l45 -225h-34q-29 0 -51.5 -10.5t-41 -29t-27.5 -42 t-9 -49.5v-373q0 -27 9 -50.5t27.5 -42t41 -27.5t51.5 -9h49q26 0 50 9t41 27.5t27.5 42t10.5 50.5v385q2 72 30.5 134.5t76.5 109.5t113 73.5t136 26.5h49q74 0 138.5 -27.5t112.5 -76t76 -114t28 -138.5v-373q0 -72 -27 -136.5t-74 -111.5t-109.5 -76.5t-133.5 -31.5 l-48 227h37q27 0 50.5 9t41 27.5t27.5 42t10 50.5v373q0 26 -9 48.5t-25.5 40t-39 29t-46.5 13.5h-58q-26 0 -50 -10.5t-41 -29t-27.5 -42t-10.5 -49.5v-350v-1175z" />
<glyph unicode="&#xaa66;" horiz-adv-x="1502" d="M631 731q-4 23 -15.5 43.5t-29 34.5t-39 23.5t-45.5 9.5h-49q-27 0 -50.5 -10.5t-41 -29t-27.5 -42t-10 -49.5v-373q0 -27 10 -50.5t27.5 -41t41 -27.5t50.5 -10h49q26 0 49.5 10t41 27.5t29 41t11.5 50.5zM1034 209q27 0 50.5 10t41 27.5t27.5 41t10 50.5v373 q0 26 -10 49.5t-27.5 42t-41 29t-50.5 10.5h-49q-24 0 -45.5 -9.5t-39 -23.5t-29 -34.5t-15.5 -43.5v-393q0 -74 -27.5 -138.5t-75.5 -112.5t-113 -75.5t-138 -27.5h-49q-74 0 -138.5 27.5t-112.5 75.5t-76 112.5t-28 138.5v373q0 73 28 137.5t76 114t112.5 77t138.5 27.5 h49q69 0 130.5 -24.5t110.5 -69.5q48 45 110 69.5t132 24.5h49q74 0 138.5 -27.5t112.5 -77t76 -114t28 -137.5v-373q0 -72 -27 -135.5t-74 -111.5t-109.5 -76.5t-134.5 -30.5l-47 225h37zM474 551v-89q0 -8 4 -13.5t10 -5.5q7 0 11 5.5t4 13.5v89q0 7 -4 12.5t-11 5.5 q-6 0 -10 -5.5t-4 -12.5zM385 559q0 17 6.5 31.5t17.5 25.5t25.5 17.5t31.5 6.5h45q18 0 32 -6.5t25 -17.5t17.5 -25.5t6.5 -31.5v-108q0 -16 -6.5 -30.5t-17.5 -25.5t-25 -17.5t-32 -6.5h-45q-17 0 -31.5 6.5t-25.5 17.5t-17.5 25.5t-6.5 30.5v108z" />
<glyph unicode="&#xaa67;" horiz-adv-x="1481" d="M474 551v-89q0 -8 4 -13.5t10 -5.5q7 0 11 5.5t4 13.5v89q0 7 -4 12.5t-11 5.5q-6 0 -10 -5.5t-4 -12.5zM385 559q0 17 6.5 31.5t17.5 25.5t25.5 17.5t31.5 6.5h45q18 0 32 -6.5t25 -17.5t17.5 -25.5t6.5 -31.5v-108q0 -16 -6.5 -30.5t-17.5 -25.5t-25 -17.5t-32 -6.5 h-45q-17 0 -31.5 6.5t-25.5 17.5t-17.5 25.5t-6.5 30.5v108zM858 723v-397q2 -25 13.5 -46.5t27.5 -38t39 -24.5t49 -8h47q29 0 52.5 9t41 26.5t27.5 41t10 52.5v373q0 26 -10 49.5t-27.5 42t-41 29t-52.5 10.5h-47q-26 0 -49 -9.5t-39 -25.5t-27.5 -37.5t-13.5 -46.5z M453 1067h49q69 0 131.5 -25.5t111.5 -70.5q48 45 109 70.5t133 25.5h47q76 0 140.5 -27.5t112.5 -76t76 -114t28 -138.5v-373q0 -76 -28 -140.5t-76 -111.5t-112.5 -75.5t-140.5 -28.5h-47q-72 0 -133 25.5t-109 70.5q-49 -45 -111.5 -70.5t-131.5 -25.5h-49 q-74 0 -138.5 28.5t-112.5 75.5t-77 111.5t-29 140.5v373q0 73 29 138.5t77 114t112.5 76t138.5 27.5zM453 842q-27 0 -50.5 -10.5t-41 -29t-27.5 -42t-10 -49.5v-373q0 -29 10 -52.5t27.5 -41t41 -26.5t50.5 -9h49q24 0 46.5 8t40 24.5t29 38t13.5 46.5v397 q-2 25 -13.5 46.5t-29 37.5t-40 25.5t-46.5 9.5h-49z" />
<glyph unicode="&#xaa68;" horiz-adv-x="1499" d="M635 740q-3 24 -14.5 44t-29 35t-39.5 23.5t-46 8.5h-50q-27 0 -51 -10t-41.5 -28t-28 -42t-10.5 -51v-378q0 -27 10.5 -51t28 -41.5t41.5 -28t51 -10.5h50q27 0 50.5 10.5t41.5 28t28 41.5t10 51zM1175 551v169q0 27 -10.5 51t-28 42t-41.5 28t-51 10h-49 q-25 0 -47 -8.5t-39.5 -23.5t-29 -35t-14.5 -44v-19.5t0.5 -46t0.5 -64v-72.5v-196q0 -74 -28.5 -139.5t-77.5 -114.5t-114.5 -77t-139.5 -28h-50q-75 0 -140 28t-114 77t-77 114.5t-28 139.5v378q0 75 28 140.5t77 114t114 77t140 28.5h50q71 0 133.5 -25.5t110.5 -70.5 q48 45 110.5 70.5t134.5 25.5h49q75 0 140.5 -28.5t114 -77t77 -114t28.5 -140.5v-378q0 -73 -27.5 -137.5t-74.5 -113t-111 -77.5t-136 -31l-59 32q-26 29 -41 62.5t-19 74t4.5 88.5t30.5 107q44 117 92.5 164.5t111.5 39.5zM1045 211q27 0 50.5 10.5t41.5 28.5t28 41.5 t10 50.5v72q-37 17 -58.5 -7.5t-44.5 -83.5q-16 -41 -22 -68t-5 -44zM474 551v-89q0 -8 4 -13.5t10 -5.5q7 0 11 5.5t4 13.5v89q0 7 -4 12.5t-11 5.5q-6 0 -10 -5.5t-4 -12.5zM385 559q0 17 6.5 31.5t17.5 25.5t25.5 17.5t31.5 6.5h45q18 0 32 -6.5t25 -17.5t17.5 -25.5 t6.5 -31.5v-108q0 -16 -6.5 -30.5t-17.5 -25.5t-25 -17.5t-32 -6.5h-45q-17 0 -31.5 6.5t-25.5 17.5t-17.5 25.5t-6.5 30.5v108z" />
<glyph unicode="&#xaa69;" horiz-adv-x="1488" d="M860 411v-84q2 -24 13 -45.5t28 -37.5t38.5 -25.5t45.5 -10.5q2 17 -3.5 44t-21.5 67q-22 57 -43.5 81t-56.5 11zM860 723v-179q61 7 109 -40.5t91 -160.5q26 -67 38 -120q31 16 50 46.5t19 68.5v374q0 26 -10 49.5t-27.5 41t-40.5 28t-50 10.5h-50q-25 0 -47.5 -9 t-39.5 -25t-28.5 -37.5t-13.5 -46.5zM456 1067h49q70 0 132.5 -25.5t109.5 -70.5q49 45 110.5 70.5t131.5 25.5h50q74 0 138.5 -28t112.5 -76.5t76 -113t28 -137.5v-374q0 -74 -28 -138.5t-76 -113t-112.5 -76.5t-138.5 -28h-50q-70 0 -131.5 25.5t-110.5 70.5 q-47 -45 -109.5 -70.5t-132.5 -25.5h-49q-73 0 -137.5 28t-113 76.5t-76.5 113t-28 138.5v374q0 73 28 137.5t76.5 113t113 76.5t137.5 28zM456 841q-26 0 -49.5 -10.5t-41 -28t-28 -41t-10.5 -49.5v-374q0 -27 10.5 -50.5t28 -41t41 -28t49.5 -10.5h49q26 0 48.5 9.5 t39.5 25.5t28 37.5t13 46.5v396q-2 25 -13 46.5t-28 37.5t-39.5 25t-48.5 9h-49zM474 551v-89q0 -8 4 -13.5t10 -5.5q7 0 11 5.5t4 13.5v89q0 7 -4 12.5t-11 5.5q-6 0 -10 -5.5t-4 -12.5zM385 559q0 17 6.5 31.5t17.5 25.5t25.5 17.5t31.5 6.5h45q18 0 32 -6.5t25 -17.5 t17.5 -25.5t6.5 -31.5v-108q0 -16 -6.5 -30.5t-17.5 -25.5t-25 -17.5t-32 -6.5h-45q-17 0 -31.5 6.5t-25.5 17.5t-17.5 25.5t-6.5 30.5v108z" />
<glyph unicode="&#xaa6a;" horiz-adv-x="1493" d="M860 411v-84q2 -24 13 -45.5t28 -37.5t38.5 -25.5t45.5 -10.5q2 17 -3.5 44t-21.5 67q-22 57 -43.5 81t-56.5 11zM860 723v-179q61 7 109 -40.5t91 -160.5q26 -67 38 -120q31 16 50 46.5t19 68.5v374q0 26 -10 49.5t-27.5 41t-40.5 28t-50 10.5h-50q-25 0 -47.5 -9 t-39.5 -25t-28.5 -37.5t-13.5 -46.5zM456 1067h49q70 0 132.5 -25.5t109.5 -70.5q49 45 110.5 70.5t131.5 25.5h50q74 0 138.5 -28t112.5 -76.5t76 -113t28 -137.5v-374q0 -74 -28 -138.5t-76 -113t-112.5 -76.5t-138.5 -28h-50q-70 0 -131.5 25.5t-110.5 70.5 q-47 -45 -109.5 -70.5t-132.5 -25.5h-49q-73 0 -137.5 28t-113 76.5t-76.5 113t-28 138.5v374q0 73 28 137.5t76.5 113t113 76.5t137.5 28zM456 841q-26 0 -49.5 -10.5t-41 -28t-28 -41t-10.5 -49.5v-374q0 -27 10.5 -50.5t28 -41t41 -28t49.5 -10.5h49q26 0 48.5 9.5 t39.5 25.5t28 37.5t13 46.5v396q-2 25 -13 46.5t-28 37.5t-39.5 25t-48.5 9h-49z" />
<glyph unicode="&#xaa6b;" horiz-adv-x="1132" d="M560 189q17 20 16 49t-12 67q-13 48 -24.5 73.5t-24.5 38.5v-95q0 -21 1 -42t5 -38.5t13 -31.5t26 -21zM515 612q31 -30 59 -59t51 -60.5t41.5 -68.5t30.5 -83q15 -55 10.5 -103t-23.5 -91.5t-50 -84.5t-70 -81l-34 -21q-62 13 -107.5 46.5t-76 82t-45.5 108.5t-15 125 v341q-40 33 -76 75t-63.5 92.5t-43.5 108t-16 121.5h137q0 -66 24.5 -124t62.5 -105q20 50 53.5 92t77 72.5t95.5 47.5t109 17h50q75 0 140.5 -28.5t114 -77t77 -114.5t28.5 -141v-377q0 -70 -17.5 -132.5t-52 -110.5t-86 -78.5t-119.5 -36.5l-33 227q27 0 42.5 10.5 t23.5 28.5t10.5 41.5t2.5 50.5v377q0 27 -10.5 51t-28 42t-41.5 28.5t-51 10.5h-50q-27 0 -51 -10.5t-41.5 -28.5t-28 -42t-10.5 -51v-87z" />
<glyph unicode="&#xaa6c;" horiz-adv-x="1824" d="M1378 207q27 0 50.5 10t41.5 27.5t28 41t10 50.5v375q0 23 -1 45.5t-6 41t-17 32t-33 18.5l43 221q60 -12 105 -45.5t75 -81.5t45 -107.5t15 -123.5v-375q0 -74 -28 -138.5t-76 -113.5t-113 -77t-139 -28h-49q-74 0 -139 28t-113.5 77t-76.5 113.5t-28 138.5l1 495 q0 19 -16.5 29.5t-36 11t-35.5 -9t-16 -29.5l-7 -497q0 -74 -28 -138.5t-76.5 -113.5t-113.5 -77t-139 -28h-49q-74 0 -139 28t-113.5 77t-76.5 113.5t-28 138.5v375q0 69 17 131t51.5 109.5t85 78t118.5 36.5l33 -224q-26 -1 -41.5 -11.5t-23.5 -28t-10.5 -41t-2.5 -50.5 v-375q0 -27 10 -50.5t27.5 -41t41.5 -27.5t51 -10h49q27 0 50.5 10t41.5 27.5t28 41t10 50.5l2 491q0 61 24 106t64 75.5t90.5 45.5t103.5 15t103.5 -15t90.5 -44.5t64 -74.5t24 -104l-2 -495q0 -27 10 -50.5t28 -41t41.5 -27.5t50.5 -10h49z" />
</font>
</defs>
</svg>
