<?xml version="1.0" standalone="no"?>
<!DOCTYPE svg PUBLIC "-//W3C//DTD SVG 1.1//EN" "http://www.w3.org/Graphics/SVG/1.1/DTD/svg11.dtd" >
<svg xmlns="http://www.w3.org/2000/svg">
<metadata>
This is a custom SVG webfont generated by Font Squirrel.
Copyright   : MyMyanmar Universal c 20072010 Technomation Studios
Designer    : Zaw Win Myat Htoo Myint Naung
Foundry     : Technomation Studios
Foundry URL : httpwwwmymyanmarnet
</metadata>
<defs>
<font id="MyMyanmarUniversalRegular" horiz-adv-x="0" >
<font-face units-per-em="2048" ascent="1638" descent="-410" />
<missing-glyph horiz-adv-x="1229" />
<glyph unicode="&#x1004;&#x103a;&#x1039;" d="M-916 1551q0 110 74 185q-36 51 -36 130q0 82 48.5 142t128.5 60q64 0 120 -38t56 -87q0 -28 -24 -52.5t-50 -24.5q-21 0 -45 24.5t-50 24.5q-28 0 -39.5 -18t-11.5 -31q0 -10 1.5 -19t14 -18t41 -20.5t81.5 -26.5q57 -18 87.5 -51.5t30.5 -66.5q0 -28 -21.5 -51 t-50.5 -23q-7 0 -18.5 9t-28.5 18t-36 18t-40 9q-92 0 -92 -93q0 -107 98 -107q20 0 34 11.5t27 25.5t27 25.5t34 11.5q70 0 70 -74q0 -36 -18 -64t-45 -47.5t-60.5 -28.5t-63.5 -9q-108 0 -175.5 74.5t-67.5 181.5z" />
<glyph unicode="&#x100b;&#x1039;&#x100b;" horiz-adv-x="1265" d="M177 648q0 89 32 167t87 136t131.5 91t168.5 33q200 0 336 -166q28 -36 28 -62q0 -64 -64 -64q-36 0 -54 34q-69 120 -243 120q-61 0 -116 -22t-95 -60t-63 -92t-23 -115q0 -62 23 -117t64 -96t93.5 -65t113.5 -24q144 0 233 107l34 18h51l49 -49v-240l-18 -36 q-90 -72 -141 -72q-13 0 -18 3q-90 -41 -190 -41q-74 0 -135.5 6.5t-112.5 13.5v-23q62 -36 129.5 -50t147.5 -14q133 0 179 36l74 56l85 -38v-701h115q66 0 66 -67q0 -72 -66 -67h-200l-43 52v637q-85 -38 -213 -38q-107 0 -200.5 25.5t-178.5 84.5l-20 41v230l92 36 q115 -133 292 -133q97 0 228 100l5 56q-87 -64 -244 -64q-87 0 -163.5 34.5t-133 93.5t-89.5 137t-33 168zM376 -356q0 69 45 115t114 46q18 0 41 -6t45 -17.5t37 -27t15 -36.5q0 -23 -23 -23q-7 0 -16 9t-23.5 20.5t-32 20.5t-40.5 9q-49 0 -81 -32t-32 -78q0 -48 32 -81.5 t78 -33.5q56 0 90 41l12 5h21l18 -18v-92l-8 -13q-25 -20 -42 -31.5t-31 -18t-28 -8t-32 -1.5q-56 0 -95 23v-23q26 -15 54 -20t62 -5q43 0 58 15l29 21l33 -16v-133h43q26 0 26 -26q0 -25 -26 -25h-76l-16 20v108q-36 -16 -89 -16q-36 0 -70.5 12t-65.5 32l-8 15v105l34 13 q43 -46 110 -51q38 0 89 41v20q-33 -25 -92 -25q-67 0 -113 48.5t-46 117.5z" />
<glyph unicode="&#x100b;&#x1039;&#x100c;" horiz-adv-x="1160" d="M97 -520q0 36 17 82t49 88.5t80.5 72t112.5 29.5h5q282 -28 282 -154v-5q-13 -74 -59 -74h-11q-17 0 -117 69l-62 10q-125 0 -158 -138v-21q0 -66 56 -133l430 5q151 0 151 154v422h-5q-128 -74 -254 -74q-222 0 -478 164l-5 31q12 74 61 74q205 -141 412 -141 q187 0 376 169l16 5q20 0 20 -23v-617q0 -64 -18 -123t-55 -102.5t-92 -70t-129 -26.5h-44q-481 0 -481 28q-100 41 -100 263v36zM97 553q0 197 149 384q179 133 333 133h41q204 0 391 -248l5 -36q0 -79 -79 -79q-46 0 -110 99q-115 116 -248 116q-49 0 -106.5 -22 t-106.5 -67t-82 -110t-33 -150q0 -140 95 -273q140 -108 268 -108q141 0 292 143l64 11q18 0 34.5 -15.5t16.5 -48.5q0 -54 -41 -72q-176 -169 -371 -169h-41q-325 0 -460 404z" />
<glyph unicode="&#x100d;&#x1039;&#x100d;" horiz-adv-x="1172" d="M102 -54v341l57 59h64l43 -23q100 -131 279 -131q77 0 141 29.5t111.5 80.5t74.5 119t27 142q0 77 -27 143.5t-74.5 116.5t-111.5 78t-141 28q-43 0 -72.5 -7.5t-59 -26.5t-69 -54t-106.5 -91q-20 -15 -49 -15q-81 0 -81 77q0 20 7 40q192 233 430 233h11 q107 0 199 -40.5t158.5 -111t104 -166.5t37.5 -204q0 -107 -40 -203t-107.5 -169t-161 -115.5t-201.5 -42.5q-169 0 -286 85v-121q33 -28 58.5 -44.5t51 -25.5t55 -11.5t70.5 -2.5q92 0 178 28t178 95l97 -49v-678h156q77 0 77 -80q0 -76 -77 -76h-243l-56 56l-10 607 q-141 -67 -295 -67q-184 0 -302 95l-72 56zM338 -358q0 18 15.5 33t36 24t41 14t30.5 5h2q62 0 100.5 -42t38.5 -104q0 -61 -40 -104.5t-101 -43.5q-46 0 -80 26v-36q21 -16 36.5 -19.5t43.5 -3.5q43 5 84 33l28 -13v-189h44q20 0 20 -21q0 -23 -20 -23h-69l-16 16l-2 166 q-38 -15 -82 -15q-51 0 -84 25l-21 16l-5 12v98l15 15h18l13 -5q28 -36 77 -36q41 0 70.5 29.5t29.5 72.5q0 44 -28.5 73.5t-71.5 29.5q-23 0 -37 -9t-50 -42q-3 -3 -13 -3q-23 0 -23 21z" />
<glyph unicode="&#x100e;&#x1039;&#x100d;" horiz-adv-x="1257" d="M136 489q0 74 46 148l2 3q18 28 49 50t63 38.5t58.5 26.5t37.5 18q48 33 48 79q0 62 -97 62q-31 0 -41 -16.5t-15 -37t-18 -37.5t-51 -17q-75 0 -75 77q0 90 64 138.5t157 48.5q56 0 99.5 -20.5t73 -52.5t44.5 -70.5t15 -74.5q0 -122 -122 -209q-174 -70 -174 -141 q0 -59 30.5 -110.5t78 -89.5t106 -61t117.5 -23q64 0 119 20.5t104 55.5q-10 98 -65 163t-137 65q-26 0 -42.5 -5t-34.5 -20.5t-41 -41t-61 -63.5q-13 -13 -26 -13q-49 0 -49 56q0 10 5 31q111 171 249 171h5q97 0 172.5 -69t103.5 -194q67 94 67 210q0 181 -164 330 q-56 49 -56 84q0 77 77 77q23 0 43 -10q254 -159 254 -481q0 -259 -215 -428q-26 -130 -106.5 -209.5t-180.5 -79.5q-95 0 -167 61v-92q36 -36 61.5 -48.5t66.5 -12.5q57 0 108 19t107 75l57 -41v-496h89q44 0 44 -59q0 -56 -44 -56h-140l-31 41l-8 445q-79 -49 -169 -49 q-54 0 -98.5 17t-77.5 53l-41 43l-13 33v251l33 41h36l26 -15q56 -92 161 -92q48 0 97 28t69 82q-84 -31 -182 -31q-87 0 -176.5 36t-161 96t-117.5 135.5t-46 157.5z" />
<glyph unicode="&#x100f;&#x1039;&#x100b;" horiz-adv-x="2524" d="M177 573q0 111 42 203t112.5 156t162.5 100t190 36q202 0 378 -123q72 130 221 130q151 0 220 -133q94 59 175 95t186 36q102 0 197 -36t167.5 -102.5t117.5 -158.5t45 -208q0 -100 -38.5 -192t-107.5 -162.5t-166.5 -111.5t-214.5 -41q-34 0 -71 4t-67.5 13t-51 28 t-20.5 50q0 80 79 80q23 0 65.5 -10.5t65.5 -10.5q82 0 149.5 27t115 75.5t74.5 112.5t27 138q0 75 -31 137.5t-79.5 108.5t-111 73t-126.5 27q-90 0 -183.5 -38.5t-167.5 -140.5l-8 -28q-43 -80 -43 -149q0 -77 46 -154l5 -25v-72q0 -102 -73 -172.5t-175 -70.5 q-103 0 -176 70.5t-73 172.5v74l5 23q44 82 44 164q0 57 -44 144l-5 18l-20 29q-21 29 -60.5 64t-103.5 63t-151 28q-69 0 -134.5 -24.5t-115.5 -68t-79.5 -107.5t-29.5 -141q0 -74 29.5 -139t82 -112.5t122 -74.5t145.5 -27q18 0 56.5 8t56.5 8q79 0 79 -80q0 -92 -192 -92 q-112 0 -210.5 41t-171.5 110t-116.5 161t-43.5 197zM1196 307q0 -36 25.5 -62.5t61.5 -26.5q35 0 61 26.5t26 62.5v46q-54 95 -54 205q0 102 54 200v79q0 33 -27 59t-60 26q-34 0 -60.5 -26t-26.5 -59v-79q46 -100 46 -190q0 -115 -46 -210v-51zM1533 -233q0 95 63 159 t155 64q23 0 55 -9t61.5 -24.5t51 -37t21.5 -50.5q0 -30 -33 -30q-10 0 -23 12.5t-30.5 26.5t-42 27t-57.5 13q-64 0 -109 -43.5t-45 -107.5t45 -110t106 -46q79 0 120 56l18 8h28l23 -23v-126l-7 -20q-36 -28 -59 -43.5t-39.5 -23t-31 -9t-37.5 -1.5q-43 0 -79 6.5 t-64 24.5v-36q59 -33 133 -33t103 20l38 31l43 -21v-181h62q33 0 33 -36t-33 -36h-105l-21 28v149q-46 -21 -104 -21q-116 0 -203 59l-10 21v143l46 18q62 -69 154 -69q46 0 117 51v28q-46 -31 -125 -31q-46 0 -85.5 18t-69 47.5t-46.5 70.5t-17 87z" />
<glyph unicode="&#x100f;&#x1039;&#x100c;" horiz-adv-x="2506" d="M164 573q0 111 42 203t112.5 156t162.5 100t190 36q202 0 379 -123q71 130 220 130q151 0 220 -133q95 59 175.5 95t185.5 36q102 0 197 -36t168 -102.5t117.5 -158.5t44.5 -208q0 -100 -38.5 -192t-107.5 -162.5t-166 -111.5t-215 -41q-33 0 -70.5 4t-68 13t-51 28 t-20.5 50q0 80 79 80q23 0 65.5 -10.5t65.5 -10.5q82 0 149.5 27t115 75.5t74.5 112.5t27 138q0 75 -30.5 137.5t-79.5 108.5t-111.5 73t-126.5 27q-90 0 -183.5 -38.5t-167.5 -140.5l-8 -28q-43 -80 -43 -149q0 -77 46 -154l5 -25v-72q0 -102 -73 -172.5t-175 -70.5 q-103 0 -176 70.5t-73 172.5v74l6 23q43 82 43 164q0 57 -43 144l-6 18l-21 29q-20 29 -59.5 64t-103.5 63t-151 28q-69 0 -134.5 -24.5t-115 -68t-79 -107.5t-29.5 -141q0 -74 29.5 -139t82 -112.5t121.5 -74.5t146 -27q17 0 55.5 8t56.5 8q80 0 80 -80q0 -92 -192 -92 q-113 0 -211.5 41t-171.5 110t-116.5 161t-43.5 197zM468 -197q0 182 244 182q146 0 213.5 -74.5t67.5 -174.5q0 -41 -11.5 -82t-30.5 -74t-43.5 -53.5t-52.5 -20.5q-67 0 -67 69q0 10 10.5 27t24.5 37.5t24.5 42t10.5 44.5q0 62 -38.5 97.5t-100.5 35.5q-35 0 -75 -14 t-40 -42v-338q0 -95 36 -125.5t133 -30.5h530q-74 105 -74 243q0 92 35.5 170t98.5 136t145 90t174 32q95 0 176.5 -31t142 -87.5t95 -135.5t34.5 -174q0 -202 -161 -328l-54 -46l-8 3q-15 -5 -23 -5q-20 0 -44.5 12.5t-24.5 51.5q0 51 41 66q138 103 138 246 q0 138 -89.5 219t-222.5 81q-64 0 -121.5 -23.5t-101 -64t-69.5 -94.5t-26 -118q0 -154 105 -223q29 -20 29 -51q0 -36 -31 -68t-64 -32h-630q-305 0 -305 287v338zM1183 307q0 -36 25.5 -62.5t61.5 -26.5t61.5 26.5t25.5 62.5v46q-54 95 -54 205q0 102 54 200v79 q0 33 -27 59t-60 26q-34 0 -60.5 -26t-26.5 -59v-79q46 -100 46 -190q0 -115 -46 -210v-51z" />
<glyph unicode="&#x100f;&#x1039;&#x100d;" horiz-adv-x="2552" d="M184 573q0 111 42.5 203t113 156t162.5 100t189 36q202 0 379 -123q72 130 220 130q151 0 220 -133q95 59 175.5 95t185.5 36q103 0 197.5 -36t167.5 -102.5t118 -158.5t45 -208q0 -100 -38.5 -192t-107.5 -162.5t-166.5 -111.5t-215.5 -41q-33 0 -70 4t-68 13t-51.5 28 t-20.5 50q0 80 80 80q23 0 65 -10.5t65 -10.5q82 0 150 27t115.5 75.5t74 112.5t26.5 138q0 75 -30.5 137.5t-79 108.5t-111.5 73t-127 27q-89 0 -182.5 -38.5t-167.5 -140.5l-8 -28q-44 -80 -44 -149q0 -77 46 -154l6 -25v-72q0 -102 -73 -172.5t-176 -70.5 q-102 0 -175 70.5t-73 172.5v74l5 23q44 82 44 164q0 57 -44 144l-5 18l-20 29q-21 29 -60.5 64t-103.5 63t-151 28q-70 0 -135 -24.5t-115 -68t-79.5 -107.5t-29.5 -141q0 -74 29.5 -139t82 -112.5t121.5 -74.5t146 -27q18 0 56.5 8t56.5 8q79 0 79 -80q0 -92 -192 -92 q-113 0 -211.5 41t-171.5 110t-116.5 161t-43.5 197zM527 -440q0 89 33.5 163.5t90 127t133 80.5t163.5 28t162.5 -32t133 -87t91 -129.5t33.5 -158.5q0 -131 -67 -228h100q36 49 51.5 86t15.5 88q0 82 -20.5 152.5t-79.5 144.5l46 87h535v118q0 54 64 54q62 0 62 -54v-197 l-44 -51h-486q53 -113 53 -236q0 -143 -74 -240l-46 -59l-36 -18h-276l-46 46v51l18 33q102 80 102 223q0 61 -23 112.5t-62.5 88.5t-92 59t-114.5 22q-125 0 -209.5 -78.5t-84.5 -203.5q0 -36 5 -57.5t20.5 -46t43.5 -56.5t74 -86q13 -13 13 -38q0 -64 -61 -64q-8 0 -16 1 t-18 4q-187 156 -187 343v8zM1203 307q0 -36 25.5 -62.5t61.5 -26.5t61.5 26.5t25.5 62.5v46q-53 95 -53 205q0 102 53 200v79q0 33 -26.5 59t-60.5 26q-33 0 -60 -26t-27 -59v-79q46 -100 46 -190q0 -115 -46 -210v-51z" />
<glyph unicode="&#x100f;&#x1039;&#x100e;" horiz-adv-x="2383" d="M84 573q0 111 42.5 203t113 156t162.5 100t189 36q203 0 379 -123q72 130 220 130q151 0 221 -133q94 59 175 95t186 36q102 0 196.5 -36t167.5 -102.5t118 -158.5t45 -208q0 -100 -38.5 -192t-107.5 -162.5t-166.5 -111.5t-214.5 -41q-34 0 -71 4t-67.5 13t-51 28 t-20.5 50q0 80 79 80q23 0 65 -10.5t66 -10.5q81 0 149 27t115.5 75.5t74.5 112.5t27 138q0 75 -31 137.5t-79.5 108.5t-111.5 73t-127 27q-89 0 -182.5 -38.5t-167.5 -140.5l-8 -28q-43 -80 -43 -149q0 -77 46 -154l5 -25v-72q0 -102 -73 -172.5t-176 -70.5 q-102 0 -175 70.5t-73 172.5v74l5 23q44 82 44 164q0 57 -44 144l-5 18l-20 29q-21 29 -60.5 64t-103.5 63t-151 28q-69 0 -134.5 -24.5t-115.5 -68t-79.5 -107.5t-29.5 -141q0 -74 29.5 -139t82 -112.5t121.5 -74.5t146 -27q18 0 56.5 8t56.5 8q79 0 79 -80q0 -92 -192 -92 q-112 0 -211 41t-171.5 110t-116.5 161t-44 197zM1103 307q0 -36 26 -62.5t61 -26.5q36 0 61.5 26.5t25.5 62.5v46q-53 95 -53 205q0 102 53 200v79q0 33 -26.5 59t-60.5 26q-33 0 -60 -26t-27 -59v-79q46 -100 46 -190q0 -115 -46 -210v-51zM1300 -494q0 59 36 110l3 5 q25 44 60 61.5t65.5 28t51 23.5t20.5 48q0 49 -72 49q-28 0 -35.5 -13t-11.5 -28t-13 -28t-40 -13q-56 0 -56 59q0 64 48.5 102.5t120.5 38.5q44 0 77 -15.5t55 -41t33.5 -55t11.5 -55.5q0 -92 -92 -161q-134 -49 -134 -107q0 -46 23.5 -86t60.5 -69.5t81.5 -46t88.5 -16.5 q56 0 107.5 23t89.5 61.5t61.5 89.5t23.5 108q0 138 -126 253q-41 38 -41 64q0 59 59 59q13 0 33 -8q192 -123 192 -368q0 -85 -29.5 -158t-83 -126.5t-125 -84.5t-156.5 -31q-69 0 -137 28.5t-124 74.5t-91 104.5t-35 120.5z" />
<glyph unicode="&#x100f;&#x1039;&#x100f;" horiz-adv-x="2501" d="M146 573q0 111 42 203t112.5 156t163 100t189.5 36q202 0 379 -123q71 130 220 130q151 0 220 -133q95 59 175.5 95t185.5 36q102 0 197 -36t168 -102.5t117.5 -158.5t44.5 -208q0 -100 -38 -192t-107.5 -162.5t-166.5 -111.5t-215 -41q-33 0 -70.5 4t-68 13t-51 28 t-20.5 50q0 80 79 80q23 0 65.5 -10.5t65.5 -10.5q82 0 150 27t115 75.5t74 112.5t27 138q0 75 -30.5 137.5t-79.5 108.5t-111.5 73t-126.5 27q-90 0 -183.5 -38.5t-167.5 -140.5l-8 -28q-43 -80 -43 -149q0 -77 46 -154l5 -25v-72q0 -102 -73 -172.5t-175 -70.5 q-103 0 -175.5 70.5t-72.5 172.5v74l5 23q43 82 43 164q0 57 -43 144l-5 18l-20 29q-21 29 -61 64t-104 63t-151 28q-69 0 -134.5 -24.5t-115 -68t-79 -107.5t-29.5 -141q0 -74 29.5 -139t82 -112.5t121.5 -74.5t146 -27q18 0 56 8t56 8q80 0 80 -80q0 -92 -192 -92 q-113 0 -211.5 41t-171.5 110t-116.5 161t-43.5 197zM343 -425q0 72 33.5 137t89.5 114t131.5 77t157.5 28q146 0 274 -74q62 79 172 79q102 0 169 -82l23 15q102 67 243 67q82 0 157.5 -28t133 -78t92 -118t34.5 -145q0 -79 -36 -147t-94.5 -118t-134 -78t-155.5 -28 q-174 0 -174 90q0 84 77 84q18 0 54 -7.5t54 -7.5q99 0 169.5 61.5t70.5 158.5q0 49 -20.5 86t-55 62.5t-78 38.5t-86.5 13q-118 0 -216 -75q-15 -25 -25 -30l-5 -23q-28 -51 -28 -80q0 -51 23 -97l10 -28v-51q0 -85 -59 -140t-143 -55q-85 0 -147.5 55t-62.5 140v53l10 29 q28 48 28 94q0 29 -28 80l-3 10q-12 13 -21 29.5t-30 29.5q-97 54 -199 54q-95 0 -164 -54t-69 -136q0 -48 21.5 -89t56 -72t79.5 -47.5t91 -16.5q18 0 50 7.5t50 7.5q77 0 77 -84q0 -87 -162 -87q-84 0 -162 29.5t-139.5 82t-97.5 120t-36 144.5zM1155 -251v-46 q35 -67 35 -136q0 -74 -35 -151v-25q0 -31 46 -31q38 0 38 31v23q-33 66 -33 153q0 72 33 136v46q0 28 -38 28q-46 0 -46 -28zM1165 307q0 -36 25.5 -62.5t61.5 -26.5t61.5 26.5t25.5 62.5v46q-54 95 -54 205q0 102 54 200v79q0 33 -27 59t-60 26t-60 -26t-27 -59v-79 q46 -100 46 -190q0 -115 -46 -210v-51z" />
<glyph unicode="&#x102d;&#x1036;" d="M-1108 1656q0 87 33 160t89.5 127t133 84.5t161.5 30.5q84 0 159.5 -30.5t132 -84.5t90 -127t33.5 -160q0 -82 -33.5 -155t-91 -126.5t-132 -84t-158.5 -30.5h-5q-85 0 -160.5 32t-130.5 85.5t-88 125t-33 153.5zM-945 1656q0 -51 20.5 -95.5t55 -78t81 -52.5t97.5 -19 t97 19t82 52.5t57.5 78t21.5 95.5q0 54 -20.5 100t-56 80.5t-81.5 54t-100 19.5q-108 0 -181 -73t-73 -181zM-148 1651q0 87 61 143.5t146 56.5q41 0 79.5 -15.5t68 -42.5t47 -64t17.5 -78q0 -87 -62.5 -147t-149.5 -60q-85 0 -146 60t-61 147zM8 1651q0 -56 51 -56t51 56 q0 46 -51 46t-51 -46z" />
<glyph unicode="&#x103b;&#x103d;" horiz-adv-x="379" d="M-827 -420q0 85 29.5 158t83.5 128t125.5 85.5t155.5 30.5q85 0 156.5 -32t125.5 -87t83.5 -128t29.5 -155q0 -151 -87 -253h35q210 0 210 309v1385q0 80 72 80q90 0 90 -80v-1385q0 -471 -336 -471q-7 0 -16 1.5t-20 1.5h-151q-25 0 -77.5 4t-118 18t-134.5 41 t-125.5 71.5t-93.5 113.5t-37 164zM-676 -420q0 -107 68 -176.5t175 -69.5q49 0 94 20.5t78 54t52.5 78.5t19.5 93q0 103 -68 177t-176 74q-107 0 -175 -71.5t-68 -179.5z" />
<glyph unicode="&#x103c;&#x103d;" horiz-adv-x="492" d="M169 -330v1917q0 497 499 497h348q500 0 502 -540h-169q0 373 -333 373h-348q-333 0 -333 -330v-1917q0 -341 333 -341h197l-18 18q-115 118 -115 279q0 85 29.5 159t82 128t124 84.5t158.5 30.5q82 0 154 -32t124.5 -87t83 -128t30.5 -155q0 -74 -28 -174 q-97 -289 -474 -287h-348q-499 0 -499 505zM883 -374q0 -107 69 -176.5t172 -69.5q48 0 93 20.5t79.5 54t54 78.5t19.5 93q0 51 -19.5 96t-51.5 79.5t-76.5 55t-96.5 20.5q-107 0 -175 -71.5t-68 -179.5z" />
<glyph unicode=" "  horiz-adv-x="1229" />
<glyph unicode="&#x09;" horiz-adv-x="1229" />
<glyph unicode="&#xa0;" horiz-adv-x="1229" />
<glyph unicode="&#xa0;" d="M-1489 -429q0 72 32 133.5t88.5 106.5t132 69t164.5 24q213 0 333 -130q133 130 338 130q87 0 162.5 -25.5t132 -71.5t88.5 -107.5t32 -133.5q0 -140 -110 -227.5t-287 -107.5h-46q-136 0 -136 79q0 67 115 72l3 -3q59 0 112.5 12t96 36t68 58.5t25.5 80.5q0 41 -22 77 t-57.5 61.5t-83 41t-98.5 15.5q-41 0 -82 -11.5t-77 -33.5t-61.5 -51.5t-35.5 -67.5q2 -8 2 -26q0 -153 -113.5 -241.5t-300.5 -88.5q-92 0 -167.5 24.5t-131 68t-86 103.5t-30.5 134zM-1328 -429q0 -87 74.5 -140.5t189.5 -53.5q218 0 243 164q-5 20 -5 33q0 8 2 16l3 17 q-38 151 -251 151q-107 0 -181.5 -49.5t-74.5 -137.5z" />
<glyph unicode="&#x1000;" horiz-adv-x="2245" d="M128 548q0 107 43.5 203t116.5 168t170.5 114t204.5 42q149 0 260 -62.5t191 -185.5q163 248 458 248q102 0 198 -38.5t168 -106t115.5 -158.5t43.5 -199q0 -222 -128 -352.5t-377 -156.5q-156 0 -156 82q0 79 82 79h-10l14 -1q14 -1 32 -2.5t34 -1.5h20 q169 26 248 111.5t79 231.5q0 74 -28 139.5t-78 113t-115 75.5t-142 28q-72 0 -138.5 -27t-119 -74t-84.5 -111t-32 -136v-67q0 -140 -66.5 -246.5t-189.5 -180.5q-18 -10 -46 -10q-79 0 -79 81q0 39 38 62q179 110 179 330q0 77 -28 146t-76.5 120.5t-118 80.5t-148.5 29 q-74 0 -140.5 -29t-118 -79t-82 -118t-30.5 -142q0 -46 5 -79.5t23 -66.5t52.5 -73t93.5 -93q59 -54 59 -93q0 -76 -80 -76q-23 0 -46 15q-123 79 -197 203.5t-74 262.5z" />
<glyph unicode="&#x1001;" horiz-adv-x="1290" d="M128 443q0 36 26 61q163 139 343 139q138 0 243 -73t156 -209q72 95 72 207q0 75 -29.5 140t-79.5 112.5t-118 74.5t-142 27q-107 0 -186.5 -46.5t-133.5 -127.5q-26 -41 -69 -41q-82 0 -82 81q0 16 13 41q64 116 188 183.5t262 67.5q108 0 204 -39.5t169 -108.5 t115 -162.5t42 -201.5q0 -233 -215 -412q-10 -10 -28 -15q-143 -77 -264 -77q-320 0 -466 305q-20 46 -20 74zM292 422q38 -89 130.5 -144t191.5 -55q77 0 154 36q-41 158 -169 217q-61 21 -110 21q-100 0 -197 -75z" />
<glyph unicode="&#x1002;" horiz-adv-x="1288" d="M118 566q0 107 38.5 200.5t106 161.5t160 106.5t199.5 38.5q110 0 202 -38.5t160 -106.5t106.5 -160t38.5 -202q0 -302 -179 -505q-21 -23 -54 -23q-82 0 -82 77q0 28 23 51q138 172 138 400q0 74 -26.5 138t-75.5 112.5t-113 75.5t-138 27t-138 -27t-111.5 -74 t-74.5 -112.5t-27 -139.5q0 -223 144 -397q23 -23 23 -51q0 -80 -80 -80q-33 0 -56 23q-184 203 -184 505z" />
<glyph unicode="&#x1003;" horiz-adv-x="2230" d="M108 489q0 49 10 84.5t37 66.5t75.5 59t125.5 64q82 38 82 82q0 28 -24.5 48.5t-73.5 20.5q-28 0 -47 -15.5t-35.5 -32t-33.5 -32t-35 -15.5q-79 0 -79 77t65.5 125.5t154.5 48.5q121 0 196.5 -62.5t75.5 -165.5q0 -82 -70.5 -148.5t-201.5 -120.5q-36 -15 -48 -97 q10 -56 47 -103.5t88 -80.5t111.5 -52.5t116.5 -21.5q82 2 150 33t118 83.5t76.5 121.5t26.5 151q0 115 -46 193t-128 124q-38 23 -38 62q0 84 89 84q26 0 47 -13q235 -143 235 -450v-41q0 -74 33.5 -137t86 -110.5t120 -74t136.5 -26.5q72 0 138.5 26.5t116.5 74 t80.5 110.5t30.5 137q0 79 -30.5 144.5t-81.5 111.5t-119 71.5t-145 25.5q-15 0 -46 -2.5t-46 -2.5q-85 0 -85 72q0 51 42.5 69t132.5 18q107 0 204.5 -38.5t173 -106.5t119 -161.5t43.5 -203.5q0 -102 -43.5 -193t-116.5 -160t-168 -109t-197 -40q-292 0 -458 251 q-156 -248 -451 -248q-87 0 -181.5 29.5t-174 84.5t-130.5 133t-51 178z" />
<glyph unicode="&#x1004;" horiz-adv-x="1288" d="M151 573q0 105 41 197.5t110 161.5t161.5 108.5t196.5 39.5q285 0 415 -207q26 -41 26 -74q0 -34 -22 -54.5t-52 -20.5q-18 0 -29 6q-23 7 -42 38t-52.5 65.5t-89.5 61.5t-154 27q-71 0 -135 -28.5t-111.5 -77t-75.5 -112.5t-28 -136q0 -71 28 -134t75.5 -110.5 t110 -75.5t134.5 -28q79 0 158.5 27t130.5 117q28 51 74 51q77 0 77 -72q0 -38 -25 -74q-136 -205 -415 -205q-108 0 -201 39.5t-161 109t-106.5 161.5t-38.5 199z" />
<glyph unicode="&#x1005;" horiz-adv-x="1288" d="M128 573q0 108 38.5 200t105 158.5t160 104t200.5 37.5q108 0 201.5 -40t161 -109t106 -161t38.5 -197q0 -210 -141 -366q-53 -44 -91.5 -69.5t-77 -41t-86 -20.5t-118.5 -5q-108 0 -199 39.5t-157.5 109t-103.5 162.5t-37 198zM284 573q0 -151 103 -253l2 -3 q143 98 143 251q0 146 -153 251q-95 -97 -95 -246zM530 233q46 -15 100 -15q71 0 135 28t113 75.5t77 110t28 134.5q0 71 -27 136.5t-74 113t-111 75.5t-139 28q-53 0 -102 -15q156 -126 156 -336q0 -202 -156 -335z" />
<glyph unicode="&#x1006;" horiz-adv-x="2245" d="M148 407q0 38 40 70t95 56.5t111.5 37.5t89.5 13q148 0 257 -74.5t158 -197.5q120 100 120 261q0 75 -37 137.5t-97.5 107.5t-134.5 70.5t-146 25.5q-92 0 -166 -45t-131 -127q-25 -41 -69 -41q-84 0 -84 85q0 28 19 60t48.5 61.5t65.5 55t66 43.5q126 69 261 69 q305 0 482 -230q153 230 448 230q107 0 203 -37t170.5 -105t118 -160t43.5 -200q0 -107 -43.5 -200.5t-116.5 -162.5t-170.5 -107.5t-204.5 -38.5h-8q-279 0 -438 236q-82 -116 -202 -177l-8 -5q-112 -54 -235 -54q-320 0 -484 287q-21 36 -21 56zM333 381 q123 -161 320 -161q51 0 105 16q-44 133 -177 176q-54 18 -97 18q-80 0 -151 -49zM1172 573q0 -76 29.5 -140t79.5 -111.5t118 -74.5t145 -27q76 0 143 27t118 74.5t80.5 111.5t29.5 140q0 75 -29.5 139t-80.5 110t-119 73t-142 27q-77 0 -145 -26t-118 -72t-79.5 -110 t-29.5 -141z" />
<glyph unicode="&#x1007;" horiz-adv-x="1288" d="M128 573q0 105 39.5 197.5t107.5 161.5t160 108.5t197 39.5q80 0 164.5 -26.5t153.5 -79t112.5 -129.5t43.5 -177q0 -56 -36 -133q90 -133 90 -159q0 -79 -80 -79q-38 0 -58.5 34.5t-58.5 83.5q-80 -49 -187 -49q-59 0 -114 16.5t-97.5 45t-68 69.5t-25.5 87 q0 110 71.5 165t171.5 55q123 0 238 -120q-7 66 -40.5 111t-79.5 73t-98.5 41t-98.5 13q-72 0 -136 -28.5t-112.5 -75.5t-76.5 -110t-28 -135q0 -81 30.5 -146.5t81.5 -111.5t121.5 -71.5t147.5 -25.5q38 0 67.5 9t55.5 20.5t45 21.5t37 10q79 0 79 -79q0 -31 -29.5 -56.5 t-75.5 -42.5t-99.5 -27t-102.5 -10q-108 0 -201 39.5t-162.5 109t-109 161.5t-39.5 199zM630 594q0 -26 38.5 -51.5t107.5 -25.5q51 0 94 26q-89 107 -158 107q-82 0 -82 -56z" />
<glyph unicode="&#x1008;" horiz-adv-x="1526" d="M128 573q0 108 38.5 200t105 158.5t160 104t200.5 37.5q108 0 201.5 -40t161 -109t106 -161t38.5 -197q0 -210 -141 -366q-117 -92 -197 -118q-2 -3 -4.5 -3t-5.5 -2v-423q0 -309 236 -309q256 0 256 309v1316q0 80 71 80q90 0 90 -80v-1318q0 -492 -417 -492 q-400 0 -397 494l2 410h-7q-108 0 -199 39.5t-157.5 109t-103.5 162.5t-37 198zM284 573q0 -151 103 -253l2 -3q143 98 143 251q0 146 -153 251q-95 -95 -95 -246zM530 233q46 -15 100 -15q71 0 135 28t113 75.5t77 110t28 134.5q0 71 -27 136.5t-74 113t-111 75.5t-139 28 q-53 0 -102 -15q156 -126 156 -336q0 -202 -156 -335z" />
<glyph unicode="&#x1009;" horiz-adv-x="1288" d="M148 781q0 25 16 46l41 56q64 87 171.5 139.5t217.5 52.5t203.5 -41t160 -111.5t103.5 -166.5t37 -206q0 -82 -38.5 -167.5t-105 -157t-160 -116.5t-200.5 -45q-164 0 -289 87v-509q0 -90 9 -149t26.5 -94.5t47 -50t70.5 -14.5h1139q13 0 21 19.5t11.5 43.5t6.5 45l2 20 q13 49 72 49q79 0 79 -151q0 -172 -115 -187h-1216q-304 0 -304 469v627q0 41 37 76.5t78 35.5q38 0 61 -33q80 -123 264 -123q77 0 141 32t110 79.5t73 105t27 108.5q0 77 -26 145t-72 116.5t-111 76.5t-142 28q-164 0 -294 -166q-24 -46 -70 -46q-82 0 -82 77z" />
<glyph unicode="&#x100a;" horiz-adv-x="2245" d="M169 781q0 25 15 48l44 54q77 95 178 142.5t221 47.5q115 0 214 -40t171.5 -111.5t115 -172.5t42.5 -222q0 -76 28 -141.5t78 -113t116.5 -73t143.5 -25.5q79 0 145.5 31t116.5 82t78.5 119t28.5 144q0 77 -28.5 142.5t-78.5 115.5t-116.5 78t-142.5 28q-16 0 -49 -2.5 t-49 -2.5q-89 0 -89 71q0 52 43.5 71t140.5 19q113 0 210 -39.5t169 -110t112.5 -166.5t40.5 -209q0 -107 -42 -204.5t-113.5 -170.5t-167.5 -116.5t-204 -43.5q-294 0 -450 261q-159 -253 -451 -253q-179 0 -305 84v-586q0 -112 38.5 -153t153.5 -41h1319q23 0 26.5 29 t7.5 66.5t19.5 67t61.5 29.5q82 0 82 -146q0 -208 -195 -208h-1321q-353 0 -353 356v707q0 41 37 78t78 37q36 0 64 -38q85 -123 287 -123q77 0 144.5 30.5t117.5 81.5t78.5 120.5t28.5 146.5q0 79 -28.5 145.5t-78.5 114t-116.5 74t-145.5 26.5q-210 0 -317 -166 q-29 -43 -75 -43q-79 0 -79 74z" />
<glyph unicode="&#x100b;" horiz-adv-x="1288" d="M141 548q0 112 39.5 209.5t108.5 168t164 110t205 39.5q246 0 415 -205q33 -41 33 -76q0 -77 -79 -77q-44 0 -67 41q-84 148 -300 148q-76 0 -142.5 -28t-115.5 -75.5t-77 -112.5t-28 -142q0 -74 28 -142t77 -119t114 -80.5t142 -29.5q179 0 287 130l41 23h64l58 -59 v-294l-20 -46q-90 -67 -145 -104t-98.5 -56t-84.5 -23t-102 -4q-182 0 -305 77v-80q72 -43 155 -63.5t181 -20.5q161 0 225 49l92 71l102 -48v-433h144q82 0 82 -84q0 -80 -82 -80h-246l-54 62v350q-97 -48 -248 -48q-136 0 -253.5 32t-227.5 106l-26 46v340l113 47 q141 -164 358 -164q118 0 284 123l5 66q-112 -77 -299 -77q-110 0 -205 42.5t-164 115.5t-108.5 170t-39.5 205z" />
<glyph unicode="&#x100c;" horiz-adv-x="1288" d="M148 -591q0 87 23.5 149.5t63 103.5t93 60t112.5 19q46 0 95 -12.5t88.5 -35.5t64 -52.5t24.5 -62.5q0 -77 -82 -77q-16 0 -35 12.5t-42 27t-48.5 27t-51.5 12.5q-72 0 -114 -46t-42 -115q0 -41 16.5 -88.5t47.5 -47.5h399q110 0 147.5 42.5t37.5 154.5v622 q-126 -87 -290 -87q-107 0 -199 42.5t-159 115.5t-105 170t-38 207t37 206t103.5 168t158.5 111.5t202 39.5q123 3 218 -47t171 -142l54 -64l-2 -8q5 -20 5 -26q0 -23 -16.5 -52t-60.5 -29q-59 0 -77 46q-125 163 -292 163q-76 0 -141.5 -28t-111.5 -76.5t-71.5 -116.5 t-25.5 -145q0 -76 26.5 -144t73 -119t110.5 -80.5t140 -29.5q182 0 264 123q23 33 61 33q41 0 79.5 -36t38.5 -77v-740q0 -358 -338 -358h-399q-213 0 -213 287z" />
<glyph unicode="&#x100d;" horiz-adv-x="1288" d="M159 -74v345l56 59h64l44 -23q102 -130 281 -130q77 0 141 29.5t112.5 80.5t75.5 119t27 142q0 77 -27 144.5t-74 117.5t-112.5 78t-142.5 28q-43 0 -72.5 -7.5t-60.5 -26.5t-70.5 -53.5t-106.5 -91.5q-20 -15 -48 -15q-82 0 -82 77q0 20 8 41q197 235 432 235h10 q108 0 200 -41t160 -111.5t105 -167.5t37 -207q0 -108 -38.5 -205t-107.5 -170t-162.5 -115.5t-203.5 -42.5q-166 0 -289 85v-123q36 -28 62.5 -43.5t52.5 -24.5t55.5 -11.5t70.5 -2.5q94 0 180 28t175 95l98 -51v-681h158q77 0 77 -80q0 -79 -77 -79h-245l-57 56l-10 612 q-146 -66 -297 -66q-187 0 -305 94l-71 57z" />
<glyph unicode="&#x100e;" horiz-adv-x="1288" d="M120 489q0 74 46 148l3 3q18 28 48.5 50t62.5 38.5t59 26.5t37 18q49 33 49 79q0 62 -97 62q-31 0 -41.5 -16.5t-15.5 -37t-17.5 -37.5t-51.5 -17q-74 0 -74 77q0 90 64 138.5t156 48.5q56 0 100 -20.5t73 -52.5t44.5 -70.5t15.5 -74.5q0 -122 -123 -209 q-174 -70 -174 -141q0 -59 31 -110.5t78 -89.5t106 -61t118 -23q77 0 143.5 29t116.5 80.5t79.5 116.5t29.5 140q0 181 -164 330q-57 49 -57 84q0 77 77 77q23 0 44 -10q253 -159 253 -481q0 -110 -39.5 -205t-108.5 -165.5t-164 -110t-205 -39.5q-87 0 -176.5 36t-161.5 96 t-118 135.5t-46 157.5z" />
<glyph unicode="&#x100f;" horiz-adv-x="2501" d="M131 573q0 113 43.5 205t113.5 157.5t161 101.5t188 36q200 0 379 -128q75 128 220 128q152 0 221 -131q94 59 175 95t186 36q102 0 196.5 -36t167.5 -102.5t118 -158.5t45 -208q0 -100 -38.5 -192t-107.5 -161t-166.5 -110t-214.5 -41q-34 0 -71 2.5t-67.5 13t-51 28 t-20.5 48.5q0 80 79 80q23 0 65.5 -9t65.5 -9q82 0 149.5 26.5t115 74t74.5 111.5t27 138q0 75 -31 137.5t-79.5 108.5t-111 73t-126.5 27q-90 0 -183.5 -38.5t-167.5 -140.5l-8 -28q-43 -80 -43 -149q0 -77 46 -154l5 -25v-72q0 -102 -73 -172.5t-176 -70.5 q-102 0 -175 70.5t-73 172.5v74l5 23q44 82 44 164q0 57 -44 144l-5 18l-20 29q-21 29 -60.5 64t-103.5 63t-151 28q-69 0 -134.5 -24.5t-115.5 -68t-79.5 -107.5t-29.5 -141q0 -74 29.5 -139t82 -112.5t121.5 -74.5t146 -27q18 0 56.5 8t56.5 8q79 0 79 -80q0 -92 -192 -92 q-112 0 -210.5 41t-171.5 110t-116.5 161t-43.5 197zM1149 307q0 -36 26 -62.5t61 -26.5q36 0 62 26.5t26 62.5v46q-54 95 -54 205q0 102 54 200v79q0 33 -27 55t-61 22q-33 0 -60 -22t-27 -55v-79q47 -100 47 -190q0 -115 -47 -210v-51z" />
<glyph unicode="&#x1010;" horiz-adv-x="2245" d="M128 576q0 108 41 198.5t112.5 158.5t170 105t214.5 37q289 0 448 -235q166 235 463 235q107 0 200.5 -38.5t164 -105t111.5 -158.5t41 -200q0 -105 -42 -198t-115 -162.5t-168 -109t-202 -39.5q-39 0 -87 8q-103 15 -103 82q0 82 85 82q36 0 61.5 -9t58.5 -9 q69 0 133 29t111.5 79t75.5 115.5t28 134.5q0 74 -28 138t-76.5 110t-114 72t-139.5 26q-67 0 -129.5 -22t-115 -63t-88.5 -96t-49 -121q3 -16 3 -32v-27q0 -108 -43.5 -199t-116.5 -157.5t-167.5 -103.5t-199.5 -37q-110 0 -207.5 39.5t-170.5 109t-116.5 162.5t-43.5 201z M292 576q0 -77 29.5 -142t80.5 -114t119 -75.5t145 -26.5q66 0 129 24t111.5 66.5t81.5 98.5t44 123q-3 13 -4 25.5t-1 25.5v19q0 9 2 22q-10 67 -43.5 122t-80.5 94.5t-108.5 61.5t-130.5 22q-77 0 -146 -24.5t-119 -69.5t-79.5 -109t-29.5 -143z" />
<glyph unicode="&#x1011;" horiz-adv-x="2245" d="M128 573q0 111 41 203t112.5 158.5t167.5 103.5t206 37q287 0 446 -230q153 230 450 230q108 0 204 -38.5t169 -105t115 -158.5t42 -200v-10q0 -107 -43.5 -198t-116.5 -159t-169 -105t-201 -37h-7q-282 0 -438 233q-161 -233 -451 -233q-107 0 -202 39.5t-168 109 t-115 162.5t-42 198zM292 573q0 -76 28 -140t78 -113t116.5 -75.5t140.5 -26.5q64 0 125.5 20.5t111.5 58.5t83.5 90.5t45.5 114.5q-2 18 -2 36v35v33q0 16 2 31q-12 62 -45.5 114.5t-83.5 91t-111.5 59t-125.5 20.5q-76 0 -143 -26t-115.5 -72t-76.5 -110t-28 -141z M1185 640q3 -20 4 -39.5t1 -39.5v-29q0 -15 -2 -28q13 -61 46 -113.5t81.5 -91t109 -60t126.5 -21.5q75 0 142.5 28t117.5 75.5t79.5 112.5t29.5 139q0 75 -30.5 139t-80.5 110t-118 73t-140 27q-133 0 -238 -75.5t-128 -206.5z" />
<glyph unicode="&#x1012;" horiz-adv-x="1288" d="M195 796v16q48 263 417 263h10q200 0 319 -80.5t119 -241.5q0 -118 -95 -190q92 -82 92 -187q0 -156 -112.5 -234t-319.5 -78h-16q-307 0 -404 243q-8 16 -8 31q0 74 79 74q49 0 70 -46q58 -148 276 -148q54 2 105 12.5t89.5 28t63 43.5t24.5 62q0 102 -154 133 q-13 -3 -28 -4t-33 -1q-75 0 -75 76q0 77 75 77h32q14 0 27 -2q158 20 158 122q0 36 -24 64.5t-64 49t-93.5 32t-115.5 11.5q-235 0 -263 -141q-13 -62 -75 -62q-76 0 -76 77z" />
<glyph unicode="&#x1013;" horiz-adv-x="1288" d="M128 573q0 108 39.5 199t107.5 158.5t160 106t197 38.5q103 0 196.5 -39.5t162.5 -107.5t110 -160t41 -195q0 -107 -38.5 -200.5t-107.5 -162.5t-162.5 -107.5t-201.5 -38.5q-105 0 -197 39.5t-160 109t-107.5 162.5t-39.5 198zM282 573q0 -74 35 -151q121 144 313 144 q194 0 322 -146q36 79 36 153q0 72 -29.5 136t-78 111.5t-112.5 74.5t-136 27q-74 0 -138 -27t-111.5 -73t-74 -110t-26.5 -139zM420 292q97 -74 212 -74q121 0 218 74q-90 120 -220 120q-128 0 -210 -120z" />
<glyph unicode="&#x1014;" horiz-adv-x="1288" d="M136 335q0 64 23 110.5t61.5 78.5t89.5 48.5t110 21.5q64 -8 128 -29.5t120 -67.5t97 -124.5t57 -195.5q130 41 130 161q0 123 -117 200q-13 7 -65.5 24t-147.5 42q-235 67 -235 241q0 102 71.5 166t178.5 64q36 0 82 -11.5t86 -33t68 -53.5t28 -71q0 -79 -79 -79 q-18 0 -38.5 12.5t-38.5 27t-29.5 26t-8.5 8.5q-29 15 -70 15q-97 0 -97 -61q0 -56 68 -79t196 -57q66 -18 122.5 -56t96 -89.5t62.5 -114t23 -126.5q0 -49 -15 -100t-49.5 -96t-88.5 -77t-133 -45v-773q-3 -79 -82 -79q-77 0 -77 79l3 773h-44q-218 0 -352 83.5t-134 236.5 zM266 343q0 -41 27 -71.5t74.5 -52.5t111.5 -32t138 -10h26q-3 10 -7 24t-9 35q-69 217 -230 217q-51 0 -91 -30.5t-40 -79.5z" />
<glyph unicode="&#x1015;" horiz-adv-x="1288" d="M118 584q0 69 19 139.5t52.5 133t80.5 116.5t106 92q13 10 46 10q75 0 75 -77q0 -15 -14.5 -40.5t-42.5 -46.5q-71 -53 -114.5 -132.5t-54.5 -194.5q0 -75 27 -141.5t74.5 -116.5t112.5 -79t142 -29q74 2 138 31.5t113 79.5t75.5 115t26.5 140q0 176 -168 327 q-62 54 -62 93q0 71 79 71q29 0 41 -10q264 -164 264 -481q0 -108 -38.5 -202.5t-106 -165t-161 -111.5t-201.5 -41q-105 0 -198.5 39.5t-162.5 110t-108.5 165.5t-39.5 205z" />
<glyph unicode="&#x1016;" horiz-adv-x="1288" d="M120 584q0 69 18 139.5t52.5 133t80.5 116.5t105 92q11 10 46 10q77 0 77 -79q0 -36 -38 -62q-187 -125 -187 -350q0 -75 28 -140t77 -115t114 -79.5t139 -29.5q172 0 274 141q-266 105 -266 389q0 166 138 305l5 5q23 15 44 15q25 0 46 -10q125 -72 194.5 -202.5 t69.5 -278.5q0 -108 -40 -202.5t-107.5 -165t-160 -111.5t-199.5 -41q-108 0 -200 41t-161 112.5t-109 165t-40 201.5zM794 748q0 -82 46 -149t135 -95q8 41 8 80q0 176 -143 304q-46 -66 -46 -140z" />
<glyph unicode="&#x1017;" horiz-adv-x="1288" d="M120 584q0 322 274 491l98 -61q-3 -13 -4.5 -23.5t-1.5 -22.5q0 -64 40 -113t101 -49q59 0 93.5 50t34.5 109q0 13 -1 23t-4 23l92 64q295 -161 295 -491q0 -108 -40 -202.5t-107.5 -165t-160 -111.5t-199.5 -41q-108 0 -200 41t-161 112.5t-109 165t-40 201.5zM274 584 q0 -72 28 -138.5t77 -116.5t113 -80.5t138 -30.5t138 29t112.5 80.5t75.5 116.5t27 140q0 148 -90 261q-79 -195 -271 -195q-187 0 -271 187q-77 -113 -77 -253z" />
<glyph unicode="&#x1018;" horiz-adv-x="2245" d="M164 796q0 44 31 80q169 199 435 199q289 0 453 -240q156 240 448 240q102 0 198 -39.5t169 -108.5t116.5 -161.5t43.5 -197.5q0 -110 -41 -202t-114 -160t-170 -105t-207 -37q-182 0 -182 79q0 85 82 85h-3q0 -5 80 -13q13 -3 41 -3q69 0 133 29.5t112.5 77t78 111.5 t29.5 133q0 74 -29.5 139.5t-79.5 114t-116.5 77t-140.5 28.5q-69 0 -134.5 -24.5t-115.5 -69.5t-82 -105t-37 -132q3 -12 3 -19v-9q0 -5 -1.5 -20.5t-3.5 -43.5v3q-13 -100 -56.5 -180.5t-112.5 -138.5t-157.5 -88.5t-190.5 -30.5q-139 0 -264.5 64t-189.5 179 q-10 21 -10 44q0 79 82 79q44 0 72 -38q59 -87 133 -133.5t164 -46.5q71 0 138 24.5t116.5 67t81.5 102.5t38 129v-5q2 5 2 15v19q0 12 3 27q-5 69 -40 130.5t-87.5 105t-117.5 69.5t-134 26q-195 0 -328 -164q-31 -39 -59 -39q-79 0 -79 77z" />
<glyph unicode="&#x1019;" horiz-adv-x="1303" d="M120 584q0 69 18 139.5t52.5 133t82 116.5t106.5 92q10 10 46 10q77 0 77 -79q0 -39 -39 -64q-179 -120 -179 -325q0 -34 4 -67t17 -72q133 154 325 154q194 0 325 -154q20 67 20 116q0 174 -161 348q-61 33 -61 72q0 71 79 71q31 0 41 -10q264 -164 264 -481 q0 -116 -38.5 -212t-106.5 -163.5t-160 -106t-202 -38.5q-241 0 -402 192q-41 59 -63 110t-32 93.5t-11.5 73t-1.5 51.5zM381 320q103 -102 249 -102q143 0 246 102q-95 148 -246 148q-146 0 -249 -148z" />
<glyph unicode="&#x101a;" horiz-adv-x="2245" d="M128 584q0 143 74 272.5t197 203.5q23 15 46 15q82 0 82 -79q0 -39 -35 -62q-200 -128 -200 -350q0 -75 29.5 -141.5t80.5 -116.5t119 -79t142 -29q85 0 154 30.5t116 84.5t74 124t27 150q0 115 -47 195.5t-132 131.5q-38 23 -38 62q0 79 82 79q23 0 43 -13 q251 -151 251 -455v-41q0 -72 33.5 -136t87 -111.5t121.5 -74t137 -26.5q74 0 140.5 26.5t116.5 73t79.5 110.5t29.5 138q0 79 -29.5 144.5t-82 112.5t-120.5 73t-144 26q-16 0 -49 -6.5t-49 -6.5q-82 0 -82 79q0 51 42.5 69t137.5 18q107 0 205.5 -38.5t171.5 -107.5 t116.5 -162.5t43.5 -203.5q0 -105 -43.5 -196t-116.5 -158.5t-167.5 -106t-199.5 -38.5q-292 0 -458 243q-162 -243 -451 -243q-110 0 -207.5 39.5t-170.5 109t-115 164t-42 207.5z" />
<glyph unicode="&#x101b;" horiz-adv-x="1329" d="M118 543q0 110 39.5 207t110 170t165 114t204.5 41q113 0 206.5 -43.5t161.5 -120t105 -181.5t37 -228v-1173h123q77 0 77 -82q0 -79 -77 -79h-220l-59 61v1273q0 87 -27 165t-74.5 135.5t-111.5 91t-138 33.5q-123 0 -215 -83.5t-125 -206.5q94 -2 172 -34t136 -88.5 t90 -135.5t32 -174q0 -74 -23 -151l-54 -36q-72 0 -122 5t-91 23t-79 48.5t-87 82.5q-82 87 -119 176.5t-37 189.5zM289 468q11 -58 43 -110.5t74 -91t87 -61.5t80 -26v26q0 110 -65 186.5t-180 76.5h-39z" />
<glyph unicode="&#x101c;" horiz-adv-x="2245" d="M128 584q0 102 42 193t114 156t165.5 103.5t198.5 38.5q97 0 184 -30.5t156 -87t118 -133t69 -171.5q10 -18 10 -36q0 -13 -1 -25.5t-1 -25.5q0 -74 29.5 -138t80.5 -110.5t119 -73t144 -26.5q72 0 138.5 26.5t116.5 74t79.5 110.5t29.5 134q0 72 -27 137t-74 114 t-111 77t-139 28q-20 0 -58.5 -7.5t-58.5 -7.5q-80 0 -80 76q0 95 200 95q107 0 199.5 -39.5t161.5 -108.5t108.5 -162.5t39.5 -201.5q0 -105 -42 -196t-114 -158.5t-166.5 -106t-196.5 -38.5q-98 0 -187.5 32t-161 89.5t-120.5 138t-64 178.5q-10 10 -10 25q0 11 1 21t1 20 q0 75 -30.5 139t-81.5 111t-119 74t-140 27q-69 0 -134 -25.5t-115 -71.5t-79.5 -107.5t-29.5 -133.5q0 -74 27 -139.5t73 -115.5t110 -79t138 -29q20 0 57.5 9t57.5 9q82 0 82 -80q0 -48 -55 -70t-145 -22q-105 0 -198 41t-162.5 111.5t-109 165t-39.5 202.5z" />
<glyph unicode="&#x101d;" horiz-adv-x="1288" d="M128 573q0 108 39.5 199t107.5 158.5t160 106t197 38.5q103 0 195 -39.5t162.5 -108.5t111.5 -160t41 -194v-10q0 -100 -41 -190.5t-110 -160t-162.5 -109t-196.5 -39.5q-105 0 -197 39.5t-160 109t-107.5 162.5t-39.5 198zM282 573q0 -74 28 -139t75.5 -114t111.5 -75.5 t135 -26.5q77 0 141 28t112.5 76.5t75.5 112.5t27 138q0 72 -29.5 135t-78 110t-114 75.5t-134.5 28.5q-74 0 -138 -27t-111.5 -73t-74 -110t-26.5 -139z" />
<glyph unicode="&#x101e;" horiz-adv-x="2245" d="M159 794q0 41 61 102q179 179 412 179q116 0 210.5 -38.5t163.5 -106t109 -162.5t47 -210q10 -161 106 -250.5t260 -89.5q77 0 143.5 26.5t116.5 73t79.5 110.5t29.5 138q0 77 -29.5 141t-80.5 112.5t-117.5 75.5t-143.5 27q-18 0 -51.5 -6.5t-51.5 -6.5q-79 0 -79 79 q0 87 184 87q110 0 206 -38.5t168 -107.5t114 -162.5t42 -200.5q0 -108 -42 -199t-115 -158.5t-168 -106t-197 -38.5q-300 0 -456 241q-156 -241 -448 -241q-281 0 -445 210q-23 26 -23 64q0 77 82 77q54 0 71 -49q31 -23 59 -50t63 -48.5t81 -35.5t112 -14q72 0 138.5 26.5 t118 74t82 110.5t30.5 132q0 79 -28 145.5t-77 114t-116.5 74.5t-147.5 27q-56 0 -124 -31t-126.5 -67t-99.5 -66.5t-44 -30.5q-79 0 -79 67z" />
<glyph unicode="&#x101f;" horiz-adv-x="2245" d="M128 573q0 282 189 477q26 25 59 25q85 0 85 -82q0 -25 -26 -51q-143 -148 -143 -369q0 -163 102.5 -259t265.5 -96q80 0 148 25.5t117.5 71.5t79 111.5t29.5 146.5q0 218 -153 369q-26 26 -26 51q0 82 87 82q23 0 50 -23t52.5 -56t47.5 -69t34 -62q90 113 202.5 161.5 t263.5 48.5q103 0 193.5 -38.5t160 -106t109 -160t39.5 -197.5q0 -107 -42 -200.5t-115 -162.5t-168 -107.5t-202 -38.5q-39 0 -87 8q-103 10 -103 82q0 82 85 82q36 0 61.5 -9t58.5 -9q72 0 134.5 29t110 79t75.5 115.5t28 134.5q0 72 -30.5 137t-80.5 114t-115.5 78 t-136.5 29q-72 0 -137.5 -25.5t-116.5 -69t-83 -103.5t-37 -132v-59q0 -5 1.5 -9t1.5 -9q0 -99 -46.5 -183.5t-123 -147.5t-174 -97.5t-199.5 -34.5q-113 0 -209 37t-166.5 103.5t-110 160t-39.5 208.5z" />
<glyph unicode="&#x1020;" horiz-adv-x="1288" d="M128 548q0 112 42 209.5t114 168t169 110t210 39.5q279 0 463 -238q16 -15 16 -46q0 -74 -77 -74h-10q-18 0 -57 41q-74 77 -156 119t-166 42q-77 0 -147.5 -29.5t-125.5 -80.5t-88 -119t-33 -142t26.5 -141t75.5 -118t113 -81.5t140 -30.5q136 0 256 107q59 51 98 51 q15 0 46 -2.5t46 -2.5l56 -59v-294l-23 -46q-92 -69 -149.5 -106t-106 -55t-100 -22t-125.5 -4q-172 0 -297 79v-309q0 -113 37 -155.5t147 -42.5h425q44 0 44 57q0 20 -16 20q-7 0 -30 -10t-36 -10q-77 0 -77 87q0 92 141 92q169 0 169 -177q0 -92 -52.5 -149.5 t-142.5 -57.5h-425h-20q-328 0 -323 346l5 506l108 47q87 -87 178 -125.5t190 -38.5q47 0 82.5 3.5t70 18t74.5 38.5t99 63v117q-136 -128 -349 -128q-110 0 -203.5 42.5t-161 115.5t-106 170t-38.5 205z" />
<glyph unicode="&#x1021;" horiz-adv-x="2092" d="M192 338q0 77 82 77q49 0 72 -49q61 -148 294 -148q148 0 226.5 37t78.5 109q0 43 -45 79t-99 49h-87q-79 0 -79 76q0 77 79 77h87q144 31 144 113q-3 2 -3 10t3 10q-29 144 -305 144q-264 0 -289 -141q-13 -62 -77 -62q-31 0 -56.5 23t-25.5 57v13q49 263 448 263 q287 0 402 -141q164 149 394 149q100 0 192 -36t164 -102.5t114 -158.5t42 -205q0 -271 -225 -420q-151 -97 -315 -97q-36 0 -77 5t-76.5 16.5t-61.5 32t-28 51.5v20q0 67 25.5 135t76.5 121.5t128 88t179 34.5q98 0 210 -46q3 16 3 31v31q0 76 -28 139t-78 109t-115.5 71.5 t-139.5 25.5q-215 0 -318 -171q0 -118 -102 -195q97 -82 97 -189q0 -156 -122.5 -233t-340.5 -77h-8q-327 0 -432 243q-8 18 -8 31zM1344 225q15 -2 30.5 -3.5t33.5 -1.5q202 0 317 159q-87 36 -151 36q-89 0 -149.5 -57.5t-80.5 -132.5z" />
<glyph unicode="&#x1022;" horiz-adv-x="2230" />
<glyph unicode="&#x1023;" horiz-adv-x="2255" d="M128 530q0 113 42 211.5t115 172.5t170.5 117.5t207.5 43.5q302 0 458 -263q156 263 446 263q115 0 212 -46t169 -123t111.5 -178t39.5 -213q0 -346 -253 -500q-21 -12 -44 -12q-79 0 -79 81q0 47 36 70q179 107 179 361q0 79 -28 150.5t-77 128t-118 89.5t-148 33 q-75 0 -139 -29t-112.5 -79t-80.5 -116.5t-42 -138.5q5 -15 5 -23q0 -102 -4 -157.5t-14 -79.5t-26.5 -28t-39.5 -4q-36 0 -60.5 23t-24.5 59q0 18 4 36t4 43q0 8 -2.5 32.5t-2.5 60.5v20q0 10 2 23q-13 161 -119 259.5t-262 98.5q-74 0 -141 -32t-115.5 -85.5t-76.5 -122.5 t-28 -146q0 -51 5 -89.5t24 -74.5t52.5 -78t92.5 -99q59 -58 59 -94q0 -77 -80 -77q-25 0 -46 13q-123 82 -197 217.5t-74 281.5zM356 -328q0 154 112.5 245t304.5 91q223 0 343 -128q118 120 338 120q95 0 171.5 -28t133 -79.5t87 -120.5t30.5 -153q0 -21 -6 -58t-14 -75.5 t-14 -70.5t-6 -45h222q80 0 80 -79t-80 -79h-274q-105 0 -105 145q0 62 16 146l20 113q3 10 3 31q0 41 -23 76.5t-60.5 62.5t-86 42.5t-96.5 15.5q-233 0 -259 -154q5 -25 5 -92q0 -110 -87 -110q-79 0 -79 77q0 18 2 31v43q-2 8 -2 23q0 21 2 33q-20 167 -248 167 q-108 0 -188.5 -50t-80.5 -140q0 -125 54 -197q18 -18 18 -46q0 -82 -87 -82q-36 0 -63 32t-45 79.5t-28 105t-10 108.5z" />
<glyph unicode="&#x1024;" horiz-adv-x="2698" d="M100 568q0 -148 75.5 -285t198.5 -222q23 -15 46 -15q82 0 82 79q0 18 -25.5 51.5t-57.5 70.5t-64 73t-43 56q-48 82 -48 192q0 80 29.5 151.5t79 125.5t119 86t148.5 32q77 0 142 -28.5t114 -77t79.5 -116.5t35.5 -145q3 -20 3 -33t2 -18q-12 -243 -179 -345 q-41 -26 -41 -69q0 -85 82 -85q28 0 41 10q248 154 259 494v-2v20q0 82 26.5 154t76.5 125.5t119 85.5t154 32q77 0 144.5 -29.5t117.5 -79.5t79.5 -119t29.5 -146v-1170q0 -102 -92 -102h-1490q-15 0 -29 19t-26 46t-18 56.5t-6 47.5q0 108 107.5 161.5t268.5 53.5 q379 0 730 -105q10 -2 25 -2q77 0 77 84q0 61 -54 77q-371 110 -778 110q-118 0 -212.5 -28t-162.5 -79.5t-105 -120.5t-37 -154q0 -66 16.5 -126t46 -105t69 -72t88.5 -27h1521q222 0 222 266v1170q0 116 -41 213t-112.5 167.5t-170 109t-216.5 38.5q-312 0 -458 -246 q-161 253 -458 253q-113 0 -210 -44.5t-167.5 -121.5t-111.5 -178t-41 -214zM1779 1603q0 84 32 158.5t87 130.5t129.5 88t158.5 32q266 0 400 -217q43 -72 43 -128q0 -80 -66 -80q-67 0 -77 64q-21 87 -105.5 147.5t-191.5 60.5q-110 0 -176.5 -73t-66.5 -183 q0 -203 274 -400q89 -64 140.5 -103.5t79.5 -74t38 -72t18 -95.5v2l5 -1623q-5 -82 -82 -82q-82 0 -89 82v1585q0 20 1 38t-28.5 54t-103.5 103.5t-228 188.5q-192 148 -192 397z" />
<glyph unicode="&#x1025;" horiz-adv-x="1285" d="M174 781q0 25 15 46l41 56q64 87 171.5 139.5t218.5 52.5q107 0 200.5 -41t161.5 -112.5t106 -167.5t38 -206q0 -108 -38 -205t-106 -171.5t-161.5 -118t-200.5 -43.5q-162 0 -290 90v-576q0 -113 37 -154t148 -41h458q10 0 40.5 15.5t48.5 15.5q77 0 77 -82 q0 -31 -21.5 -51.5t-52.5 -33t-65.5 -19t-59.5 -6.5h-425q-336 0 -336 356v694q0 41 37 76.5t78 35.5q39 0 62 -33q79 -123 264 -123q76 0 140 31t110 82t73 119t27 142q0 77 -25.5 144.5t-71.5 116.5t-111.5 77t-141.5 28q-164 0 -295 -164q-23 -49 -69 -49q-82 0 -82 80z " />
<glyph unicode="&#x1026;" horiz-adv-x="1283" d="M148 773q0 28 16 49l41 56q143 197 389 197q110 0 203.5 -42t160 -115t103.5 -170.5t37 -207.5q0 -92 -38.5 -181.5t-106 -162.5t-160 -118t-199.5 -45q-161 0 -289 90v-591q0 -116 35.5 -158t148.5 -42h422q18 0 23.5 28t13 62.5t23 63t50.5 28.5q80 0 80 -123 q0 -90 -51.5 -156.5t-138.5 -66.5h-422q-335 0 -335 364v709q0 41 37 79t78 38q33 0 61 -38q80 -125 264 -125q77 0 142 33t111 84.5t72 112.5t26 115q0 80 -26 147.5t-72 117.5t-111 78t-142 28q-164 0 -294 -169q-24 -48 -70 -48q-82 0 -82 79zM159 1582q0 100 33 188.5 t92 152.5t143.5 101t184.5 37t183 -38.5t143 -105t95 -153.5t35 -182q0 -97 -35 -181.5t-96 -147.5t-144.5 -100t-180.5 -39q-95 0 -178 37t-144.5 101t-96 148.5t-34.5 181.5zM300 1582q0 -69 33 -143q118 130 271 130q156 0 284 -138q39 79 39 151q0 69 -23 130.5 t-65.5 106.5t-100 71.5t-126.5 26.5q-67 0 -124.5 -26.5t-99.5 -71.5t-65 -106.5t-23 -130.5zM422 1324q87 -67 187 -67t190 64q-85 105 -192 105q-108 0 -185 -102z" />
<glyph unicode="&#x1027;" horiz-adv-x="1206" d="M102 532v64q0 111 38.5 201.5t107.5 154.5t162.5 98.5t201.5 34.5q77 0 158.5 -29t148.5 -74t109 -99t42 -105q0 -30 -18 -51q-107 -138 -302 -138q-279 0 -386 253q-118 -102 -118 -263q0 -167 112 -267q49 116 154 183.5t236 67.5q184 0 296 -138q24 -28 24 -51 q0 -51 -42.5 -105t-110.5 -99t-148.5 -73t-157.5 -28q-105 0 -197 34.5t-161 97.5t-109 147.5t-40 183.5zM497 238q53 -18 115 -18q179 0 276 138q-74 52 -153 52q-174 0 -238 -172zM499 916q64 -171 243 -171q82 0 149 49q-118 140 -279 140q-62 0 -113 -18z" />
<glyph unicode="&#x1028;" horiz-adv-x="1293" />
<glyph unicode="&#x1029;" horiz-adv-x="2516" d="M118 -361v1946q0 517 491 517h1191q509 0 509 -540h-164q0 371 -345 371h-1193q-323 0 -323 -348v-1949q0 -343 338 -343h1175q348 0 348 343v203q5 74 80 74q74 0 79 -74l3 -200q5 -256 -124.5 -381.5t-385.5 -125.5h-1180q-499 0 -499 507zM479 794q0 43 61 102 q182 179 412 179q116 0 210.5 -38.5t163.5 -106t109 -162.5t47 -210q8 -161 106.5 -252t259.5 -91q77 0 143.5 27t116.5 75.5t79.5 111.5t29.5 137q0 77 -29.5 142t-80.5 115t-117.5 78t-143.5 28q-18 0 -51.5 -6.5t-51.5 -6.5q-79 0 -79 80q0 87 184 87q110 0 206 -39.5 t168 -110t114 -165.5t42 -202q0 -105 -42 -198.5t-115 -162.5t-168 -109t-197 -40q-300 0 -456 249q-156 -241 -448 -241q-281 0 -445 210q-23 26 -23 64q0 77 82 77q54 0 71 -49q31 -23 59 -50t63 -48.5t81 -35.5t112 -14q72 0 138.5 26.5t118 74t82 110.5t30.5 132 q0 79 -28 145.5t-77 114t-116.5 74.5t-147.5 27q-56 0 -124 -31t-126.5 -67t-99.5 -66.5t-44 -30.5q-79 0 -79 67z" />
<glyph unicode="&#x102a;" horiz-adv-x="4846" d="M287 558v18q0 110 39.5 206t107.5 167.5t160 112.5t197 41q161 0 289 -90.5t185 -239.5q5 -15 5 -31q0 -76 -77 -76q-56 0 -79 61q-82 223 -320 223q-80 0 -146.5 -29.5t-115 -82t-75.5 -121.5t-27 -149q0 -153 118 -256q46 116 147 183.5t239 67.5q164 0 300 -135 q20 -21 20 -52q0 -51 -89 -153q-138 -156 -366 -156q-108 0 -201.5 37t-162.5 102t-108.5 155t-39.5 197zM684 236q56 -16 115 -16q179 0 276 138q-71 52 -153 52q-172 0 -238 -174zM1475 -361v1946q0 517 491 517h1190q510 0 510 -540h-164q0 371 -346 371h-1192 q-323 0 -323 -348v-1949q0 -343 338 -343h1175q348 0 348 343v203q5 74 79 74q75 0 80 -74l2 -200q5 -256 -124 -381.5t-385 -125.5h-1180q-499 0 -499 507zM1810 794q0 43 61 102q182 179 413 179q115 0 209.5 -38.5t163.5 -106t109 -162.5t47 -210q8 -161 106.5 -252 t260.5 -91q76 0 142.5 27t116.5 75.5t79.5 111.5t29.5 137q0 77 -29.5 142t-80.5 115t-117.5 78t-143.5 28q-18 0 -51.5 -6.5t-50.5 -6.5q-80 0 -80 80q0 87 185 87q110 0 206 -39.5t167.5 -110t113.5 -165.5t42 -202q0 -105 -42 -198.5t-115 -162.5t-167.5 -109t-197.5 -40 q-299 0 -455 249q-157 -241 -448 -241q-282 0 -446 210q-23 26 -23 64q0 77 82 77q54 0 72 -49q30 -23 58.5 -50t63 -48.5t80.5 -35.5t113 -14q71 0 137.5 26.5t118 74t82 110.5t30.5 132q0 79 -28 145.5t-76.5 114t-116.5 74.5t-147 27q-57 0 -124.5 -31t-126.5 -67 t-100 -66.5t-44 -30.5q-79 0 -79 67zM3809 763q0 33 37.5 85.5t102.5 101t151 84.5t183 36t186.5 -37t157.5 -102.5t109 -156t41 -201.5q0 -268 -215 -417q-133 -89 -259 -89q-43 0 -85.5 8.5t-75.5 24t-53.5 37.5t-20.5 50q0 69 79 69q13 0 33.5 -5t43.5 -11.5t43.5 -11.5 t35.5 -5q64 0 122 29.5t102.5 78t70 111t25.5 131.5q0 77 -29.5 142.5t-78 111.5t-111 71.5t-129.5 25.5q-43 0 -79 -9t-69.5 -28t-66.5 -47t-74 -69l-8 -11q-7 -7 -26.5 -33t-65.5 -26q-77 0 -77 62zM3876 1638q0 85 29.5 158t80.5 126.5t124 84.5t158 31q74 0 147 -25.5 t131.5 -70.5t96 -102.5t37.5 -119.5q0 -82 -77 -82q-31 0 -43.5 18t-23 46.5t-24.5 63t-52 64.5q-82 67 -192 67q-116 0 -182.5 -71.5t-66.5 -187.5q0 -207 323 -391q36 -21 36 -62q0 -74 -72 -74q-15 0 -73 29.5t-163 124.5q-194 171 -194 373z" />
<glyph unicode="&#x102b;" horiz-adv-x="394" d="M-397 1743v5q0 64 28.5 123t77 104t108.5 72t127 27q66 0 126.5 -27t105 -72t71.5 -105t27 -127v-1582q0 -82 -74 -82q-75 0 -75 82v1582q0 75 -55 123.5t-126 48.5q-75 0 -127.5 -55t-59.5 -124q-8 -72 -80 -72q-74 0 -74 79z" />
<glyph unicode="&#x102c;" horiz-adv-x="996" d="M-90 768q0 33 37.5 85.5t102.5 101.5t151 84.5t183 35.5t186.5 -37t157.5 -102.5t109 -156t41 -200.5q-10 -279 -184 -418q-72 -51 -152.5 -74t-170.5 -23q-138 0 -138 64q-5 64 28 73t88 6.5t128 14t155 90.5q92 80 92 267q0 76 -29 141.5t-78 111.5t-111.5 71.5 t-129.5 25.5q-43 0 -79 -9t-69 -28t-66.5 -47t-74.5 -69l-8 -11q-7 -7 -26.5 -32.5t-62.5 -25.5q-80 0 -80 61z" />
<glyph unicode="&#x102d;" d="M-1155 1610q0 98 33.5 182t93.5 147t143.5 99t183.5 36q94 0 177.5 -36t145 -100t96 -148.5t34.5 -179.5q0 -92 -36 -175t-97.5 -144.5t-143.5 -97.5t-176 -36h-6q-94 0 -176 36t-142 97.5t-95 144.5t-35 175zM-1014 1613q0 -64 25.5 -121.5t68 -100t99 -68t120.5 -25.5 t120 25.5t99.5 68t69 100t25.5 121.5q0 66 -24 125t-66.5 104t-100 70.5t-123.5 25.5q-67 0 -124.5 -25.5t-100 -70.5t-65.5 -104t-23 -125z" />
<glyph unicode="&#x102e;" d="M-1137 1608q0 100 36 184t97.5 147t144.5 97.5t181 34.5q92 0 174 -36t143 -100t97 -148.5t36 -178.5q0 -95 -36 -178t-97 -144.5t-143 -97.5t-174 -36h-11q-94 0 -176 36t-142.5 98.5t-95 146t-34.5 175.5zM-993 1608q0 -59 36 -139q115 134 268 134q162 0 285 -141 q35 84 35 146q0 64 -23 124t-64 103.5t-98.5 70.5t-123.5 27q-70 0 -127.5 -25.5t-99.5 -70.5t-65 -104t-23 -125zM-870 1354q87 -61 186 -61q98 0 187 61q-79 110 -192 110q-105 0 -181 -110z" />
<glyph unicode="&#x102f;" d="M-760 -10q2 77 66 77q67 0 67 -80v-665h125q64 0 64 -77t-64 -77h-207l-51 59v763z" />
<glyph unicode="&#x1030;" d="M-914 -10q0 77 74 77q75 0 75 -77v-748q0 -77 -75 -77q-74 0 -74 77v748zM-612 -10q0 77 69 77q75 0 75 -77v-671h145q70 0 70 -74q0 -77 -70 -77h-238l-51 56v766z" />
<glyph unicode="&#x1031;" horiz-adv-x="1178" d="M90 563q0 108 41 201.5t111 162.5t163.5 108.5t198.5 39.5q161 0 289 -87t185 -235q5 -16 5 -31q0 -77 -77 -77q-56 0 -79 62q-82 222 -320 222q-77 0 -143.5 -29.5t-115 -80.5t-77 -119t-28.5 -144q0 -152 118 -254q46 115 147 183t240 68q163 0 299 -136q21 -20 21 -51 q0 -56 -90 -154q-138 -148 -366 -148q-105 0 -198.5 34.5t-166.5 98.5t-115 157.5t-42 208.5zM497 225q56 -15 115 -15q179 0 276 138q-71 51 -153 51q-172 0 -238 -174z" />
<glyph unicode="&#x1032;" d="M-1070 1718q0 18 11.5 42t28 46t38.5 36t42 14q21 0 41 -15l571 -492q28 -23 28 -59q0 -74 -71 -74q-29 0 -47 15l-616 438q-26 18 -26 49z" />
<glyph unicode="&#x1033;" />
<glyph unicode="&#x1034;" />
<glyph unicode="&#x1035;" />
<glyph unicode="&#x1036;" d="M-860 1626q0 74 51 122.5t123 48.5q74 0 124 -50t50 -121q0 -70 -52.5 -123.5t-121.5 -53.5q-72 0 -123 52.5t-51 124.5zM-745 1626q0 -64 59 -64q61 0 61 64q0 58 -61 58q-59 0 -59 -58z" />
<glyph unicode="&#x1037;" d="M-768 -358q0 74 51 124t126 50q71 0 122.5 -51.5t51.5 -122.5q0 -70 -52.5 -123.5t-121.5 -53.5q-72 0 -124.5 52.5t-52.5 124.5zM-650 -358q0 -64 59 -64t59 64q0 58 -59 58t-59 -58z" />
<glyph unicode="&#x1038;" horiz-adv-x="581" d="M123 256q0 69 47.5 112.5t116.5 43.5q71 0 120 -43.5t49 -112.5t-49 -115t-120 -46q-69 0 -116.5 46t-47.5 115zM123 865q0 69 47.5 112.5t116.5 43.5q71 0 120 -43.5t49 -112.5t-49 -115t-120 -46q-69 0 -116.5 46t-47.5 115zM218 256q5 -64 69 -69q66 5 71 69 q-5 64 -71 69q-64 -5 -69 -69zM218 865q5 -64 69 -69q66 5 71 69q-5 64 -71 69q-64 -5 -69 -69z" />
<glyph unicode="&#x1039;" />
<glyph unicode="&#x103a;" d="M-1096 1638q0 85 29.5 158t83.5 126.5t125.5 84.5t156.5 31q74 0 147 -25.5t131.5 -70.5t96 -102.5t37.5 -119.5q0 -82 -77 -82q-31 0 -43.5 18t-21.5 46.5t-24.5 63t-53.5 64.5q-82 67 -192 67q-116 0 -182.5 -71.5t-66.5 -187.5q0 -207 323 -391q36 -21 36 -62 q0 -74 -75 -74q-18 0 -73 30.5t-160 123.5q-197 174 -197 373z" />
<glyph unicode="&#x103b;" horiz-adv-x="394" d="M-315 -179q0 77 56 77h36q69 0 69 -77v-476h59q213 0 213 302v1349q0 79 71 79q90 0 90 -79v-1349q0 -249 -93.5 -364t-280.5 -115h-151q-69 0 -69 74v579z" />
<glyph unicode="&#x103c;" horiz-adv-x="481" d="M164 -335v1925q0 496 499 496h356q499 0 499 -540l-164 -2q-5 376 -335 376h-356q-333 0 -333 -330v-1925q0 -341 333 -341h356q333 0 333 341v174q5 74 79 74q79 0 87 -74v-174q5 -254 -123 -379.5t-376 -125.5h-356q-499 0 -499 505z" />
<glyph unicode="&#x103d;" d="M-1068 -435q0 84 29.5 158.5t83.5 128t127 84.5t157 31q82 0 154 -32t124.5 -87t83 -128t30.5 -155q0 -85 -30.5 -156.5t-83 -125.5t-124.5 -84.5t-154 -30.5t-153.5 33.5t-125.5 88.5t-86 126.5t-32 148.5zM-914 -435q0 -108 69 -177t172 -69q48 0 93 20.5t79.5 54 t53.5 78t19 93.5q0 48 -19 94.5t-51 81t-77 55t-96 20.5q-107 0 -175 -72t-68 -179z" />
<glyph unicode="&#x103e;" d="M-916 -758q0 74 69 74h123v676q0 75 64 75t64 -75v-770l-44 -57h-207q-69 0 -69 77z" />
<glyph unicode="&#x1090;" d="M-916 -758q0 74 69 74h123v676q0 75 64 75t64 -75v-770l-44 -57h-207q-69 0 -69 77z" />
<glyph unicode="&#x103f;" horiz-adv-x="3131" d="M187 794q0 43 61 102q182 179 412 179q116 0 210.5 -38.5t163.5 -106t109 -162.5t47 -210q8 -161 106.5 -252t259.5 -91q77 0 143.5 27t116.5 75.5t79.5 111.5t29.5 137q0 77 -29.5 141t-80.5 112.5t-119 75.5t-142 27q-18 0 -51.5 -6.5t-50.5 -6.5q-80 0 -80 79 q0 87 184 87q108 0 204 -38.5t169 -106t115 -161t42 -203.5q0 -85 -23 -156q13 -23 21 -31l8 -10q38 -41 72.5 -69.5t71.5 -47.5t83 -28t113 -9t129.5 25.5t111 71.5t78 111.5t29.5 142.5q0 69 -25.5 131.5t-69 112.5t-102.5 79.5t-123 29.5q-15 0 -35.5 -5t-43.5 -11.5 t-43.5 -11.5t-33.5 -5q-79 0 -79 69q0 25 20.5 47t53.5 38.5t75.5 25.5t85.5 9q95 0 182 -42t151 -112.5t102.5 -162.5t38.5 -192q0 -110 -41 -202.5t-110 -159t-159 -103.5t-184 -37q-162 0 -274.5 57.5t-189.5 134.5q-36 -49 -83 -84.5t-102 -60t-113 -36t-114 -11.5 q-299 0 -456 241q-156 -241 -448 -241q-281 0 -445 210q-23 26 -23 64q0 77 82 77q54 0 72 -49q30 -23 58.5 -50t63 -48.5t80.5 -35.5t112 -14q72 0 138.5 26.5t118 74t82 110.5t30.5 132q0 79 -28 145.5t-76.5 114t-116.5 74.5t-148 27q-56 0 -124 -31t-126.5 -67 t-99.5 -66.5t-44 -30.5q-79 0 -79 67z" />
<glyph unicode="&#x108f;" horiz-adv-x="3131" d="M187 794q0 43 61 102q182 179 412 179q116 0 210.5 -38.5t163.5 -106t109 -162.5t47 -210q8 -161 106.5 -252t259.5 -91q77 0 143.5 27t116.5 75.5t79.5 111.5t29.5 137q0 77 -29.5 141t-80.5 112.5t-119 75.5t-142 27q-18 0 -51.5 -6.5t-50.5 -6.5q-80 0 -80 79 q0 87 184 87q108 0 204 -38.5t169 -106t115 -161t42 -203.5q0 -85 -23 -156q13 -23 21 -31l8 -10q38 -41 72.5 -69.5t71.5 -47.5t83 -28t113 -9t129.5 25.5t111 71.5t78 111.5t29.5 142.5q0 69 -25.5 131.5t-69 112.5t-102.5 79.5t-123 29.5q-15 0 -35.5 -5t-43.5 -11.5 t-43.5 -11.5t-33.5 -5q-79 0 -79 69q0 25 20.5 47t53.5 38.5t75.5 25.5t85.5 9q95 0 182 -42t151 -112.5t102.5 -162.5t38.5 -192q0 -110 -41 -202.5t-110 -159t-159 -103.5t-184 -37q-162 0 -274.5 57.5t-189.5 134.5q-36 -49 -83 -84.5t-102 -60t-113 -36t-114 -11.5 q-299 0 -456 241q-156 -241 -448 -241q-281 0 -445 210q-23 26 -23 64q0 77 82 77q54 0 72 -49q30 -23 58.5 -50t63 -48.5t80.5 -35.5t112 -14q72 0 138.5 26.5t118 74t82 110.5t30.5 132q0 79 -28 145.5t-76.5 114t-116.5 74.5t-148 27q-56 0 -124 -31t-126.5 -67 t-99.5 -66.5t-44 -30.5q-79 0 -79 67z" />
<glyph unicode="&#x1040;" horiz-adv-x="1293" d="M174 527v75q5 102 46 189t107.5 150t156 98.5t194.5 35.5q103 0 195 -39.5t162.5 -108.5t111.5 -160t41 -194v-10q0 -100 -41 -190.5t-110 -160t-162.5 -109t-196.5 -39.5q-97 0 -185.5 36t-156 98.5t-111 147t-51.5 181.5zM328 573q0 -74 28 -139t75.5 -114t111.5 -75.5 t135 -26.5q77 0 141 28t112.5 76.5t75.5 112.5t27 138q0 72 -29.5 135t-78 110t-113.5 75.5t-135 28.5q-74 0 -138 -27t-111.5 -73t-74 -110t-26.5 -139zM617 573q0 -25 16.5 -43t42.5 -18q25 0 43 18t18 43q0 23 -18 41t-43 18q-26 0 -42.5 -16.5t-16.5 -42.5z" />
<glyph unicode="&#x1041;" horiz-adv-x="1226" d="M128 343q0 72 77 72q46 0 71 -49q80 -148 295 -148q72 0 134.5 29t111 78t77 114t28.5 134q0 154 -95 250t-248 96q-190 0 -300 -171q-26 -41 -69 -41q-82 0 -82 81q0 11 13 41q64 118 184 184.5t259 66.5q107 0 196.5 -39.5t155 -107.5t102.5 -160t37 -200 q0 -105 -39.5 -197t-107.5 -161t-160 -110t-197 -41q-279 0 -415 205q-28 43 -28 74z" />
<glyph unicode="&#x1042;" horiz-adv-x="1073" d="M102 -438q0 80 77 80q46 0 55 -18t14 -46.5t22 -63t78 -70.5q80 -48 154 -48q54 0 97.5 25.5t76.5 70.5t51 101t18 118v1285q0 79 74 79q77 0 77 -79v-1285q0 -95 -29.5 -179.5t-82 -148.5t-125.5 -103.5t-157 -42.5q-67 0 -137.5 25.5t-129 70.5t-96 102.5t-37.5 124.5 v2z" />
<glyph unicode="&#x1043;" horiz-adv-x="1226" d="M123 236q0 35 24.5 67t57.5 32q38 0 61 -38q77 -120 302 -120q77 0 141 30.5t110 81.5t73 118t27 141q0 79 -25.5 147t-73 118t-111.5 78t-141 28q-89 0 -162 -46t-130 -131q-25 -41 -66 -41q-79 0 -79 82q0 21 7 41q64 118 184.5 184.5t258.5 66.5q108 0 197.5 -39.5 t154.5 -110t101 -168t36 -209.5q0 -108 -37 -204t-105 -169t-160 -115t-200 -42q-71 0 -158 20l430 -678q10 -10 10 -44q0 -79 -79 -79q-36 0 -59 36l-574 904q-15 23 -15 59z" />
<glyph unicode="&#x1044;" horiz-adv-x="1226" d="M151 548q0 110 36 207t101 169t154.5 114t200.5 42q138 0 259.5 -69t182.5 -187q13 -33 13 -41q0 -82 -84 -82q-41 0 -67 41q-56 85 -129 131t-163 46q-74 0 -138 -29.5t-111.5 -79.5t-74 -117.5t-26.5 -144.5q0 -74 26.5 -142t74 -119t111.5 -80.5t138 -29.5 q218 0 300 123q23 35 61 35q39 0 63 -30.5t24 -68.5q0 -36 -18 -62l-570 -901q-23 -36 -62 -36q-84 0 -84 79q0 21 15 44l428 678q-82 -20 -157 -20q-107 0 -199 42t-160 115t-106.5 169t-38.5 204z" />
<glyph unicode="&#x1045;" horiz-adv-x="1293" d="M120 553q0 105 42.5 199.5t113 166.5t162.5 114t194 42q108 0 200 -42t161 -115t107.5 -169t38.5 -204v-778q0 -107 -38.5 -203t-107.5 -169t-161 -115.5t-200 -42.5q-110 0 -202 42.5t-160 114t-105 167.5t-37 206q0 82 74 82q77 0 77 -82q0 -77 27 -143.5t74.5 -117.5 t112.5 -80.5t139 -29.5q75 0 140 30.5t112.5 82t74.5 118t27 140.5v778q0 72 -27 140t-74.5 119t-112.5 81.5t-140 30.5q-153 0 -253 -117q100 -3 165 -77t65 -177q0 -51 -18 -97t-50 -80.5t-75.5 -55t-94.5 -20.5t-96 21.5t-79.5 57.5t-55 83.5t-20.5 98.5zM279 535 q15 -79 90 -79q84 0 84 94q0 39 -25.5 64.5t-58.5 25.5q-46 0 -64 -24.5t-26 -80.5z" />
<glyph unicode="&#x1046;" horiz-adv-x="1293" d="M128 594v781q0 107 38.5 203t107.5 169t161 115.5t200 42.5q107 0 200.5 -42.5t161.5 -114t106.5 -169t38.5 -204.5q0 -80 -77 -80t-77 80q0 77 -27 143.5t-74 117.5t-111 80.5t-141 29.5q-74 0 -139.5 -31t-113 -82t-74 -119t-26.5 -139v-781q0 -77 26.5 -143.5 t74 -117.5t113 -80.5t139.5 -29.5q66 0 125 24t105 66.5t77 98.5t41 123q-102 28 -251 92q-95 16 -150 86t-55 168q0 48 18 94t49 81t73 55.5t93 20.5q49 0 96.5 -22t82 -58t56 -83t21.5 -96q0 -82 -59 -156l149 -57l36 -51q0 -112 -38.5 -210.5t-106.5 -173t-160 -118 t-202 -43.5q-108 0 -200 42t-161 115t-107.5 169t-38.5 204zM681 873q0 -90 82 -90q38 0 67.5 27t29.5 66q0 35 -28 63.5t-64 28.5t-61.5 -28.5t-25.5 -66.5z" />
<glyph unicode="&#x1047;" horiz-adv-x="1280" d="M128 550q0 108 37 204t103.5 169t157.5 115t199 42q107 0 202 -41t165 -111t111 -165t41 -202q0 -64 -9 -110.5t-33 -104t-65 -139.5t-105 -215q-97 -202 -97 -371q0 -77 25.5 -120.5t57.5 -70t57.5 -46t25.5 -50.5q0 -38 -22 -58.5t-55 -20.5q-54 0 -98.5 29.5 t-76.5 79.5t-51.5 116.5t-19.5 143.5q-2 102 23.5 200.5t71.5 195.5l182 379q15 34 24 72t9 87q0 72 -29.5 137t-78 114t-114 78t-136.5 29q-77 0 -141 -28t-109 -76.5t-70.5 -116.5t-25.5 -145q0 -12 5 -38t11.5 -52.5t11.5 -49.5t5 -34q0 -76 -81 -76q-34 0 -54.5 29 t-32 69t-16.5 82t-5 70z" />
<glyph unicode="&#x1048;" horiz-adv-x="1293" d="M128 550q0 108 38.5 204t106 167.5t161 112.5t201.5 41q107 0 200.5 -42t161.5 -114t107.5 -166.5t39.5 -202.5q0 -138 -71.5 -266t-186.5 -207q-23 -16 -46 -16q-77 0 -77 82q0 34 38 62q190 128 190 345q0 162 -95 264t-256 102q-182 0 -284 -138q274 -107 274 -420 q0 -153 -43.5 -231t-118.5 -78q-40 0 -79 23q-261 156 -261 478zM282 550q0 -215 174 -335q20 102 20 146q0 207 -184 276q-10 -33 -10 -87z" />
<glyph unicode="&#x1049;" horiz-adv-x="1293" d="M128 -233v778q0 108 38.5 204t107.5 169t161 115t200 42q110 0 202 -43.5t160 -117.5t106.5 -174t38.5 -210l-36 -54l-149 -54q59 -74 59 -153q0 -51 -20.5 -97.5t-55 -83.5t-80.5 -58.5t-100 -21.5q-51 0 -93 20.5t-73 55t-49 79t-18 96.5q0 94 45 150.5t165 102.5 l246 92q-10 62 -42 119.5t-78 99.5t-105 67.5t-123 25.5q-74 0 -139.5 -30.5t-113 -81.5t-74 -119t-26.5 -140v-778q0 -74 26.5 -140.5t74 -118t113 -82t139.5 -30.5t139.5 29.5t112.5 80.5t74 117.5t27 143.5q0 82 77 82t77 -82q0 -110 -38.5 -206t-106.5 -167.5 t-161.5 -114t-200.5 -42.5q-108 0 -200 42.5t-161 115.5t-107.5 169t-38.5 203zM681 266q0 -36 25.5 -65t61.5 -29q33 0 62.5 28t29.5 61q0 39 -29.5 65.5t-67.5 26.5q-82 0 -82 -87z" />
<glyph unicode="&#x104a;" horiz-adv-x="389" d="M128 141v857q0 98 72 98q69 0 69 -98v-857q0 -95 -69 -95q-72 0 -72 95z" />
<glyph unicode="&#x104b;" horiz-adv-x="781" d="M177 141v857q0 82 76 82q70 0 70 -82v-857q0 -80 -70 -80q-76 0 -76 80zM471 141v857q0 82 67 82q71 0 71 -82v-857q0 -80 -71 -80q-67 0 -67 80z" />
<glyph unicode="&#x104c;" horiz-adv-x="1293" d="M123 -607q0 85 44.5 132t121.5 47q141 0 141 -94q0 -82 -74 -82q-13 0 -36 9t-31 9q-15 0 -15 -18q0 -59 38 -59h428q56 0 93 9t57.5 32t28.5 61.5t8 97.5v268q-131 -84 -300 -84q-77 0 -130.5 6.5t-103.5 27t-106.5 59t-138.5 102.5l-20 46v297l54 61q15 0 47 6.5 t47 6.5q49 0 80 -46q79 -123 271 -123q77 0 142.5 32t112.5 83t74 116.5t27 131.5q0 77 -27 145t-74 120.5t-114 82t-143 29.5q-54 0 -108 -11.5t-101 -33.5t-84.5 -50t-57.5 -61q-31 -47 -72 -47q-79 0 -79 77q0 21 20 49l39 54q25 38 75 71.5t111.5 57.5t129.5 39.5 t129 15.5q110 0 205 -43.5t161.5 -116.5t105 -170.5t38.5 -207.5q0 -102 -40 -196.5t-109 -167.5t-161 -116.5t-200 -43.5q-212 0 -348 128v-121q172 -125 348 -125q179 0 346 169l107 -49v-468q0 -364 -340 -364h-428q-82 0 -135.5 64t-53.5 156zM215 1633q0 95 32 177 t89.5 143.5t137 96t174.5 34.5q79 0 161 -29.5t147 -78t106 -115t41 -138.5q0 -90 -71 -90q-39 0 -53 20.5t-24 51.5t-29.5 70.5t-65.5 77.5q-87 72 -212 72q-123 0 -201 -84.5t-78 -207.5q0 -205 358 -409q41 -23 41 -67q0 -82 -74 -82q-21 0 -91.5 38.5t-169.5 133.5 q-218 202 -218 386z" />
<glyph unicode="&#x104d;" horiz-adv-x="1672" d="M143 -492q0 157 84.5 259t238.5 102q49 0 100 -12.5t93 -35.5t70.5 -54t28.5 -64q0 -79 -80 -79q-15 0 -38 12.5t-50 28t-57.5 28.5t-61.5 13q-174 0 -174 -187q0 -26 6.5 -58t16.5 -60t23 -47.5t26 -19.5h850q66 0 89 36t23 151v1370q0 15 1.5 26.5t1.5 22.5 q0 20 -19.5 44.5t-85.5 85.5q-31 15 -84.5 64t-107.5 102.5t-96 98.5t-50 55q-100 126 -100 284q0 87 30.5 161.5t84.5 130.5t128 88t159 32q259 0 392 -217q46 -74 46 -131q0 -79 -69 -79q-62 0 -77 64q-23 100 -106.5 155t-190.5 55q-110 0 -176.5 -74.5t-66.5 -184.5 q0 -64 20.5 -120t67.5 -115t124 -123t190 -141q145 -100 145 -282q-2 3 -2 -340q0 -172 1 -428t1 -604q0 -353 -273 -353h-850q-108 0 -167 89.5t-59 250.5zM177 553q0 115 39.5 215t110 174t166.5 116.5t208 42.5q108 0 199 -45t156 -123t102.5 -187t37.5 -234v-893 q0 -85 -77 -85q-41 0 -61.5 19t-20.5 66l-3 893q0 92 -24 171.5t-69 137t-105 91t-132 33.5q-61 0 -116.5 -23t-101.5 -63t-79 -92.5t-49 -113.5q200 -8 318 -127t118 -319q0 -74 -23 -151l-54 -38q-69 0 -120.5 6.5t-93.5 24.5t-82 48.5t-88 81.5q-82 85 -119 175.5 t-37 198.5zM348 476q10 -48 38.5 -98t68 -92.5t87 -70.5t95.5 -31q0 57 -14 109.5t-44.5 93.5t-78 65t-113.5 24h-39z" />
<glyph unicode="&#x104e;" horiz-adv-x="1249" d="M154 543q0 110 35.5 207t101 169t155 114t199.5 42q138 0 260 -69t183 -187q13 -33 13 -41q0 -82 -85 -82q-41 0 -66 41q-57 85 -129.5 131t-162.5 46q-74 0 -138 -29.5t-111.5 -79.5t-74.5 -117.5t-27 -144.5q0 -75 27 -142.5t74.5 -119t111.5 -80.5t138 -29 q218 0 299 122q23 36 62 36q38 0 62.5 -30.5t24.5 -69.5q0 -18 -1.5 -33t-3.5 -28v-945q-31 -56 -69 -56q-64 0 -74.5 29.5t-20.5 93.5v791q-87 -72 -238 -72q-115 0 -215 38.5t-173 109t-115 167.5t-42 218z" />
<glyph unicode="&#x104f;" horiz-adv-x="1984" d="M177 581q0 118 39.5 218t108.5 172.5t166.5 113.5t212.5 41q166 0 271 -74q95 85 187 85q246 0 246 -392v-589q0 -79 -69 -79q-72 0 -72 79v484q0 118 -5 188.5t-16.5 107.5t-32 48.5t-53.5 11.5q-49 0 -82 -39q107 -112 107 -169q0 -30 -33 -59.5t-84.5 -52.5t-110 -37 t-107.5 -14q-133 0 -239.5 66.5t-152.5 189.5q-125 -126 -125 -297q0 -139 130 -254q26 51 69.5 93.5t96 73t111.5 48.5t115 18q46 0 102.5 -14t106.5 -37t83 -53.5t33 -64.5q0 -64 -46 -121.5t-116.5 -101t-155 -69t-158.5 -25.5q-110 0 -206 37t-167.5 105t-112.5 160 t-41 202zM586 950q64 -172 264 -172q100 0 151 28q-51 57 -84.5 90t-63 50t-61.5 22t-80 5q-64 0 -126 -23zM596 248q57 -15 113 -15q205 0 295 143q-44 28 -136 28q-77 0 -155 -44.5t-117 -111.5zM1060 1677q0 87 30.5 161t84.5 129t127 87t160 32q156 0 267.5 -76.5 t170.5 -245.5q7 -23 7 -39q0 -64 -66 -64q-18 0 -42.5 29.5t-49 68t-45 72t-27.5 40.5q-82 75 -200 75q-54 0 -103.5 -22t-87 -58t-59 -85.5t-21.5 -103.5q2 -23 12.5 -54t46 -70.5t107.5 -94.5t197 -129q64 -54 98.5 -90t51.5 -73t20.5 -79.5t3.5 -106.5v-762 q0 -141 -69 -141q-74 0 -74 74v829q0 75 -39.5 139t-119.5 107q-125 67 -200.5 131t-115.5 121.5t-52.5 107.5t-12.5 91z" />
<glyph unicode="&#x1050;" horiz-adv-x="1288" />
<glyph unicode="&#x1051;" horiz-adv-x="1288" />
<glyph unicode="&#x1052;" horiz-adv-x="1288" />
<glyph unicode="&#x1053;" horiz-adv-x="1293" />
<glyph unicode="&#x1054;" horiz-adv-x="1178" />
<glyph unicode="&#x1055;" horiz-adv-x="1178" />
<glyph unicode="&#x1056;" horiz-adv-x="1231" />
<glyph unicode="&#x1057;" horiz-adv-x="1231" />
<glyph unicode="&#x1058;" horiz-adv-x="3" />
<glyph unicode="&#x1059;" horiz-adv-x="3" />
<glyph unicode="&#x105a;" horiz-adv-x="1288" />
<glyph unicode="&#x105b;" horiz-adv-x="1516" />
<glyph unicode="&#x105c;" horiz-adv-x="1288" />
<glyph unicode="&#x105d;" horiz-adv-x="1265" />
<glyph unicode="&#x105e;" />
<glyph unicode="&#x105f;" />
<glyph unicode="&#x1060;" horiz-adv-x="3" />
<glyph unicode="&#x1061;" horiz-adv-x="1329" />
<glyph unicode="&#x1062;" horiz-adv-x="622" />
<glyph unicode="&#x1063;" horiz-adv-x="1249" />
<glyph unicode="&#x1064;" horiz-adv-x="622" />
<glyph unicode="&#x1065;" horiz-adv-x="1288" />
<glyph unicode="&#x1066;" horiz-adv-x="1288" />
<glyph unicode="&#x1067;" horiz-adv-x="581" />
<glyph unicode="&#x1068;" horiz-adv-x="755" />
<glyph unicode="&#x1069;" horiz-adv-x="906" />
<glyph unicode="&#x106a;" horiz-adv-x="906" />
<glyph unicode="&#x106b;" horiz-adv-x="906" />
<glyph unicode="&#x106c;" horiz-adv-x="906" />
<glyph unicode="&#x106d;" horiz-adv-x="906" />
<glyph unicode="&#x106e;" horiz-adv-x="2278" />
<glyph unicode="&#x106f;" horiz-adv-x="2245" />
<glyph unicode="&#x1070;" horiz-adv-x="2230" />
<glyph unicode="&#x1071;" />
<glyph unicode="&#x1072;" />
<glyph unicode="&#x1073;" />
<glyph unicode="&#x1074;" />
<glyph unicode="&#x1075;" horiz-adv-x="1288" />
<glyph unicode="&#x1076;" horiz-adv-x="1290" />
<glyph unicode="&#x1077;" horiz-adv-x="2245" />
<glyph unicode="&#x1078;" horiz-adv-x="2089" />
<glyph unicode="&#x1079;" horiz-adv-x="2056" />
<glyph unicode="&#x107a;" horiz-adv-x="2071" />
<glyph unicode="&#x107b;" horiz-adv-x="2071" />
<glyph unicode="&#x107c;" horiz-adv-x="2071" />
<glyph unicode="&#x107d;" horiz-adv-x="1288" />
<glyph unicode="&#x107e;" horiz-adv-x="3" />
<glyph unicode="&#x107f;" horiz-adv-x="622" />
<glyph unicode="&#x1080;" horiz-adv-x="1288" />
<glyph unicode="&#x1081;" />
<glyph unicode="&#x1082;" />
<glyph unicode="&#x1083;" horiz-adv-x="581" />
<glyph unicode="&#x1084;" horiz-adv-x="581" />
<glyph unicode="&#x1085;" horiz-adv-x="1167" />
<glyph unicode="&#x1086;" horiz-adv-x="581" />
<glyph unicode="&#x1087;" horiz-adv-x="870" />
<glyph unicode="&#x1088;" />
<glyph unicode="&#x1089;" horiz-adv-x="1288" />
<glyph unicode="&#x108a;" horiz-adv-x="581" />
<glyph unicode="&#x108c;" d="M-1894 -397q0 69 33 129.5t89.5 104t130.5 69t156 25.5q85 0 159 -24.5t129 -69t88.5 -107.5t35.5 -137q3 -82 77 -129.5t177 -47.5q43 0 88 13t81 36t59 55t23 68q0 41 -20.5 76.5t-52.5 61.5t-74.5 40t-83.5 14q-15 0 -46 -4t-46 -4q-84 0 -84 72q0 89 171 89 q72 0 142.5 -25.5t126.5 -71.5t90.5 -110t34.5 -141q0 -69 -33 -128t-89.5 -102.5t-129.5 -67.5t-152 -24q-87 0 -162.5 24t-132 67.5t-88.5 105t-32 136.5q0 38 -19 70t-53.5 57.5t-80.5 39.5t-100 14q-51 0 -96 -14t-79.5 -38.5t-55 -56.5t-20.5 -65q0 -38 21.5 -72.5 t55 -61.5t74.5 -42.5t79 -15.5q16 0 49 4t49 4q74 0 74 -64q0 -97 -172 -97q-77 0 -147 28t-124 75.5t-87 110t-33 131.5z" />
<glyph unicode="&#x108d;" d="M-1039 -512q0 79 29.5 147t79 119t119 80.5t151.5 29.5q79 0 149.5 -29.5t121.5 -82t80.5 -122.5t29.5 -150q0 -76 -30.5 -144t-83 -119.5t-122 -82t-145.5 -30.5q-80 0 -149 30.5t-120 83t-80.5 122t-29.5 148.5zM-924 -512q0 -115 74 -190.5t190 -75.5q56 0 104.5 20.5 t84.5 57.5t56.5 85.5t20.5 102.5t-22 101t-57.5 83t-84.5 56.5t-102 20.5q-116 0 -190 -73t-74 -188z" />
<glyph unicode="&#x108e;" d="M-1418 -310q0 77 84 77q16 0 35 -11.5t38 -25.5t38.5 -25.5t34.5 -11.5q46 0 138 123q118 192 351 192q87 0 161.5 -29.5t129.5 -83.5t85.5 -127t30.5 -160q0 -84 -32 -157t-88 -127t-129 -83t-158 -29h-8q-76 0 -144 25.5t-120.5 71.5t-87 108.5t-42.5 139.5 q-46 -18 -92 -18q-18 0 -55 10.5t-75.5 29.5t-66.5 47t-28 64zM-950 -392q0 -107 72 -177.5t179 -70.5q51 0 97 19t81 54t55.5 79.5t20.5 95.5q0 108 -73 179.5t-181 71.5q-54 0 -98.5 -19t-79 -52.5t-54 -79.5t-19.5 -100z" />
<glyph unicode="&#x1091;" d="M-891 -571q0 74 69 74h123v492q0 74 64 74t64 -74v-586l-43 -57h-208q-69 0 -69 77z" />
<glyph unicode="&#x1092;" d="M-1101 -758q0 74 80 74h153v676q5 75 80 75q71 0 71 -75v-768l-54 -59h-250q-80 0 -80 77zM-584 -8q5 75 80 75q76 0 76 -75v-676h157q76 0 76 -74q0 -77 -76 -77h-254l-59 59v768z" />
<glyph unicode="&#x1093;" d="M-1312 -758q0 74 80 74h153v676q5 75 80 75q71 0 71 -75v-768l-54 -59h-250q-80 0 -80 77zM-788 -10q0 77 74 77q75 0 75 -77v-748q0 -77 -75 -77q-74 0 -74 77v748zM-458 -8q5 75 80 75q76 0 76 -75v-676h157q76 0 76 -74q0 -77 -76 -77h-254l-59 59v768z" />
<glyph unicode="&#x1094;" d="M-271 -358q0 74 49.5 124t124.5 50q71 0 122.5 -51.5t51.5 -122.5q0 -70 -52.5 -123.5t-121.5 -53.5q-72 0 -123 52.5t-51 124.5zM-156 -358q0 -64 59 -64q61 0 61 64q0 58 -61 58q-59 0 -59 -58z" />
<glyph unicode="&#x1095;" d="M110 -358q0 74 50 124t124 50q72 0 123 -51.5t51 -122.5q0 -70 -52.5 -123.5t-121.5 -53.5q-72 0 -123 52.5t-51 124.5zM225 -358q0 -64 59 -64t59 64q0 58 -59 58t-59 -58z" />
<glyph unicode="&#x2000;" horiz-adv-x="1051" />
<glyph unicode="&#x2001;" horiz-adv-x="2102" />
<glyph unicode="&#x2002;" horiz-adv-x="1051" />
<glyph unicode="&#x2003;" horiz-adv-x="2102" />
<glyph unicode="&#x2004;" horiz-adv-x="700" />
<glyph unicode="&#x2005;" horiz-adv-x="525" />
<glyph unicode="&#x2006;" horiz-adv-x="350" />
<glyph unicode="&#x2007;" horiz-adv-x="350" />
<glyph unicode="&#x2008;" horiz-adv-x="262" />
<glyph unicode="&#x2009;" horiz-adv-x="420" />
<glyph unicode="&#x200a;" horiz-adv-x="116" />
<glyph unicode="&#x200b;" d="M-1474 -422q0 71 33.5 132.5t89.5 106.5t131.5 70.5t157.5 25.5q210 0 333 -131q123 131 325 131q87 0 162.5 -25.5t132 -69t88.5 -106.5t32 -134q0 -75 -31 -136.5t-86 -105t-130.5 -69t-162.5 -25.5q-217 0 -335 123q-120 -123 -330 -123q-85 0 -159 23t-130.5 68 t-88.5 106.5t-32 138.5zM-1310 -422q0 -90 73 -142.5t185 -52.5q205 0 238 149q-2 12 -2 46q0 25 2 38q-38 148 -248 148q-48 0 -93 -12.5t-79.5 -38t-55 -60t-20.5 -75.5zM-650 -384q3 -13 3 -38q0 -34 -3 -46q34 -149 238 -149q110 0 186 52.5t76 142.5q0 87 -76 136.5 t-178 49.5q-205 0 -246 -148z" />
<glyph unicode="&#x200c;" horiz-adv-x="712" />
<glyph unicode="&#x200d;" horiz-adv-x="3" />
<glyph unicode="&#x202f;" horiz-adv-x="420" />
<glyph unicode="&#x205f;" horiz-adv-x="525" />
<glyph unicode="&#x25cc;" horiz-adv-x="1326" d="M177 584q0 53 12 112l123 -20q-10 -41 -10 -92q0 -54 10 -92l-123 -21q-12 59 -12 113zM248 315l100 72q8 -13 15.5 -23.5t17.5 -23.5l47 -46q12 -10 25 -19t26 -19l-72 -100q-97 62 -159 159zM248 850q62 97 159 159l72 -100q-82 -51 -131 -131zM579 82l20 120 q38 -10 92 -10q51 0 90 10l23 -120q-28 -5 -56.5 -9t-56.5 -4t-56 4t-56 9zM579 1085q28 6 56 9.5t56 3.5t56.5 -3.5t56.5 -9.5l-23 -122q-46 12 -90 12q-46 0 -92 -12zM904 256q79 49 130 131l100 -72q-61 -97 -159 -159zM904 909l71 100q98 -62 159 -159l-100 -72 q-20 34 -46 62l-48 43q-8 5 -17 13t-19 13zM1070 492q10 38 10 92q0 51 -10 92l123 20q13 -64 13 -112q0 -49 -13 -113z" />
<glyph unicode="&#xe000;" horiz-adv-x="500" d="M0 0v0v0v0v0z" />
<glyph d="M-1923 -463q0 76 31 140t86 109t132 69.5t166 24.5q215 0 336 -128q122 135 335 135q77 0 151 -24t131.5 -66.5t92 -102.5t34.5 -129q0 -72 -34.5 -137t-92 -115t-131.5 -79.5t-154 -29.5h-36q-117 0 -117 87q0 69 77 69q10 0 37 -5t39 -5q39 0 83.5 16.5t83 46t63 66.5 t24.5 78q0 79 -75.5 129t-190.5 50q-241 0 -241 -199v-11q0 -107 -55 -186.5t-145 -122.5q-15 -8 -38 -8q-80 0 -80 79q0 41 44 62q61 30 88 80t27 117q0 89 -75.5 140.5t-177.5 51.5q-113 0 -183.5 -54t-70.5 -148q0 -29 2.5 -45.5t14 -33t38.5 -39.5t73 -64q46 -44 46 -74 q0 -72 -82 -72q-23 0 -41 10q-215 118 -215 318z" />
<glyph d="M-1062 -525q0 36 30.5 64t75.5 47.5t92 29.5t78 10q210 0 305 -171q30 41 30 94q0 82 -65 136t-168 54q-81 0 -227 -67q-18 -25 -59 -25q-77 0 -77 61q0 41 34.5 74.5t88.5 56.5t118 35.5t122 12.5q77 0 146.5 -23t121.5 -66.5t84 -106t32 -142.5q0 -79 -32 -141.5 t-84 -106t-121.5 -66.5t-146.5 -23q-232 0 -358 202q-20 36 -20 61zM-886 -550q72 -93 202 -93q36 0 80 13q-36 67 -110 92q-39 13 -69 13q-46 0 -103 -25z" />
<glyph d="M-1101 -453q0 77 31 138.5t83.5 105t122.5 66.5t152 23q85 0 156.5 -24.5t124 -68t80.5 -105t28 -135.5q0 -195 -140 -318q-18 -17 -52 -17q-76 0 -76 76q0 28 25 52q92 84 92 207q0 43 -20.5 78t-55 60.5t-78 38t-89.5 12.5t-87 -14t-74 -39.5t-52.5 -60t-19.5 -75.5 q0 -123 98 -207q23 -24 23 -52q0 -76 -75 -76q-48 0 -85.5 37t-61.5 89.5t-37 110t-13 98.5z" />
<glyph d="M-1928 -248q0 133 187 133q100 0 160 -45t60 -124q-10 -118 -210 -184q-17 -3 -17 -24q2 -33 24 -61t56.5 -47.5t76.5 -31t81 -11.5q48 0 94 15.5t82 42.5t58 66.5t22 88.5q-3 31 -9.5 52.5t-19 41t-35.5 40t-57 45.5q-43 31 -43 64q0 77 82 77q18 0 36 -10 q204 -105 204 -310v-8q0 -197 238 -197q49 0 97.5 14t87 37t63 55t24.5 71q0 36 -25.5 71.5t-65.5 64t-91 46t-102 17.5h-39q-89 0 -89 82q0 44 42 58t127 14q74 0 145.5 -28t126.5 -77t89.5 -114t34.5 -137q0 -71 -33 -130t-88 -102.5t-129.5 -68t-158.5 -24.5 q-213 0 -336 136q-120 -138 -332 -138q-70 0 -141.5 25.5t-130.5 67.5t-97 94.5t-38 106.5q0 33 6 58.5t26.5 47.5t59 40t100.5 38q41 16 41 36q-8 3 -27.5 5.5t-52.5 7.5q-13 -62 -79 -62q-85 0 -85 75z" />
<glyph d="M-1687 1549q0 118 87 187q-44 59 -44 130q0 41 17 78t45 64t65 43.5t78 16.5q34 0 71 -10t66.5 -28t48.5 -41t19 -49q0 -30 -27 -53t-55 -23q-18 0 -53.5 25.5t-61.5 25.5q-36 0 -46 -16.5t-10 -32.5q0 -7 1 -16t11.5 -18t33.5 -19.5t69 -20.5q110 -26 147 -60.5 t37 -67.5q0 -74 -87 -74q-8 0 -23 7.5t-34.5 18t-40 18t-38.5 7.5q-115 0 -115 -92q0 -108 115 -108q52 0 70 26q25 36 39 42.5t32 6.5q82 0 82 -75q0 -38 -21.5 -66t-53.5 -47.5t-70.5 -28.5t-71.5 -9q-123 0 -202.5 70.5t-79.5 188.5zM-1119 1656q0 87 32 161.5t88.5 128 t132 83t162.5 29.5q84 0 160 -30.5t133.5 -84.5t90.5 -128t33 -159q0 -84 -34.5 -157t-92 -125.5t-133 -83t-157.5 -30.5h-3q-79 0 -153 32t-132 85.5t-92.5 125t-34.5 153.5zM-960 1656q0 -51 22 -94.5t56.5 -78t80.5 -53.5t94 -19q108 0 183.5 69t75.5 176q0 108 -74 181 t-182 73t-182 -72t-74 -182z" />
<glyph d="M-1677 1551q0 118 87 187q-43 59 -43 131q0 41 16.5 78t44.5 64t65.5 43.5t78.5 16.5q33 0 70 -9t66.5 -27t48.5 -41t19 -48q0 -31 -26.5 -55.5t-55.5 -24.5q-7 0 -21 8t-29.5 18t-32 17.5t-32.5 7.5q-36 0 -46 -17.5t-10 -30.5q0 -8 1 -17t11.5 -19t33.5 -19t69 -19 q110 -26 147 -60.5t37 -67.5q0 -75 -87 -75q-5 0 -20 8t-35.5 18t-41 18t-36.5 8q-118 0 -118 -93q0 -107 116 -107q48 0 71 25q23 36 37.5 42.5t31.5 6.5q82 0 82 -74q0 -39 -20.5 -67t-52.5 -47t-70 -28t-72 -9q-123 0 -203.5 70.5t-80.5 187.5zM-1108 1659q0 87 32 161 t88 128t131.5 83.5t162.5 29.5q85 0 161.5 -29.5t133 -83.5t90 -128t33.5 -161q0 -85 -35 -158t-92.5 -125t-133 -83t-157.5 -31h-2q-80 0 -154 32t-131.5 86t-92 125.5t-34.5 153.5zM-950 1659q0 -41 18 -79q92 92 215 92q144 0 261 -103q18 39 18 90q0 107 -74 180 t-182 73q-107 0 -181.5 -71.5t-74.5 -181.5zM-835 1454q64 -41 141 -41q74 0 138 41q-66 67 -140 67q-80 0 -139 -67z" />
<glyph d="M-1339 1436q0 100 74 159q-41 56 -41 115q0 38 17 73t45 60.5t65 41t78 15.5q23 0 52.5 -8t56.5 -23.5t46 -38.5t19 -51q0 -77 -77 -77q-23 0 -55 23t-42 23q-48 0 -48 -38q0 -15 5 -24t23 -15.5t51 -14t90 -18.5q48 -18 53 -39.5t5 -36.5q0 -41 -21.5 -56.5t-65.5 -15.5 q-23 2 -43 2h-36q-36 0 -54 -3.5t-25.5 -10t-9 -16.5t-1.5 -23q0 -92 87 -92q31 0 45 8.5t25.5 20.5t23 22t34.5 10q77 0 77 -72q0 -36 -19 -61.5t-47 -43.5t-63 -26.5t-68 -8.5q-115 0 -185.5 65t-70.5 175zM-730 1549q0 84 59 140.5t146 56.5q82 0 145 -56.5t63 -140.5 q0 -44 -17 -79.5t-46.5 -64t-66.5 -43.5t-78 -15t-78 16.5t-65 43.5t-45 64t-17 78zM-596 1549q0 -28 20 -51t51 -23q28 0 51 23t23 51q0 69 -74 69q-71 0 -71 -69z" />
<glyph d="M-1073 -438q0 80 29.5 147.5t83.5 115t128 74.5t161 27q85 0 151.5 -31t112.5 -84.5t70.5 -126.5t24.5 -158q0 -158 -116 -253q-33 -28 -60 -46t-56 -28.5t-64 -14t-83 -3.5q-164 0 -273 99.5t-109 281.5zM-922 -451q0 -107 57 -156q82 59 82 156q0 103 -77 162 q-62 -51 -62 -162zM-712 -223q80 -102 80 -228q0 -125 -77 -217h15q103 0 161.5 62.5t58.5 167.5q0 95 -52.5 156.5t-144.5 61.5h-20q-10 0 -21 -3z" />
<glyph d="M-1897 -550q0 30 34.5 54.5t80.5 42.5t91 28t65 10q221 0 320 -166q64 54 64 123q0 87 -75.5 140.5t-185.5 53.5q-33 0 -55 -1t-46 -10t-58.5 -31t-96.5 -60q-10 -18 -36 -18q-74 0 -74 64q0 26 31 61.5t82 67.5t117.5 54t135.5 22q210 0 333 -131q126 133 330 133 q82 0 157.5 -25.5t132 -70t89.5 -106t33 -136.5q0 -151 -113.5 -241.5t-298.5 -90.5q-215 0 -330 120q-123 -125 -333 -125q-69 0 -120 10t-93.5 33t-82 60t-83.5 94q-15 18 -15 41zM-1690 -576q80 -67 187 -67q34 0 46 3q-59 74 -163 74q-39 0 -70 -10zM-1096 -453 q0 -41 23 -75.5t61.5 -60t88.5 -40t106 -14.5q233 0 233 192q0 41 -21.5 76t-56 60.5t-82 39.5t-96.5 14q-107 0 -181.5 -51.5t-74.5 -140.5z" />
<glyph horiz-adv-x="1326" />
<glyph d="M-1088 -404q0 79 33.5 145.5t88.5 116.5t126.5 78t148.5 28q54 0 123 -16.5t129 -53.5t102.5 -95t42.5 -142q0 -56 -26 -105q8 -10 22 -24t26.5 -32t21.5 -35t9 -32q0 -23 -24 -43.5t-47 -20.5q-28 0 -46 31q-6 8 -17.5 23t-28.5 41q-85 -36 -172 -36q-51 0 -99.5 13 t-84.5 36t-58 56t-22 72q0 76 64 116t141 40q21 0 40 -1.5t43.5 -9t55 -25.5t76.5 -49q-92 156 -266 156q-118 0 -192 -65t-74 -165q0 -59 26.5 -109t71.5 -87t104 -58.5t125 -21.5q80 0 128.5 28t74.5 28q25 0 45.5 -23t20.5 -49q0 -28 -25.5 -49.5t-64 -37t-86 -23.5 t-93.5 -8q-97 0 -181.5 32t-147 87.5t-98.5 129.5t-36 159zM-696 -404q0 -29 42 -45.5t73 -16.5q54 0 95 36q-64 49 -82 59q-44 13 -67 13q-20 0 -40.5 -11.5t-20.5 -34.5z" />
<glyph horiz-adv-x="415" d="M-804 -376q0 84 28 156t79.5 121.5t120.5 78t154 28.5q79 0 148 -29.5t119 -82t78 -124.5t28 -153q0 -159 -115 -267l5 -61h318v1702q0 59 59 59q56 0 56 -59v-1784l-51 -41h-464l-35 56v46q-70 -33 -152 -33q-79 0 -148 31t-119 83.5t-79.5 122.5t-29.5 150zM-689 -376 q0 -113 77 -192q110 71 110 192q0 115 -110 192q-77 -75 -77 -192zM-502 -115q115 -105 115 -261q0 -154 -115 -256q39 -13 74 -13q47 0 94 20.5t85.5 57.5t61.5 85.5t23 105.5q0 53 -20.5 103t-55 87.5t-82 59t-100.5 21.5q-46 0 -80 -10z" />
<glyph horiz-adv-x="1180" />
<glyph horiz-adv-x="2176" d="M148 781q0 25 16 48l43 54q157 192 400 192q115 0 213.5 -39.5t171.5 -112.5t115 -174t42 -222q0 -76 28.5 -141.5t78.5 -113t116.5 -73t143.5 -25.5q79 0 145.5 31t116.5 82t78 119t28 144q0 75 -28 142.5t-78 119t-116.5 81t-143.5 29.5q-15 0 -48.5 -3t-48.5 -3 q-90 0 -90 77q0 51 43.5 70.5t141.5 19.5q110 0 207 -42.5t170 -115.5t114 -170t41 -210q0 -107 -42 -204.5t-114 -170.5t-168 -116.5t-203 -43.5q-295 0 -451 261q-159 -253 -450 -253q-180 0 -305 84v-614q0 -115 38.5 -157.5t153.5 -39.5l678 5v-164h-678 q-353 0 -353 356v735q0 41 37 78t78 37q36 0 64 -38q84 -123 287 -123q76 0 144 30.5t118 81.5t78 120.5t28 146.5q0 79 -28 145.5t-78 114t-116.5 74t-145.5 26.5q-210 0 -318 -166q-28 -43 -74 -43q-80 0 -80 74z" />
<glyph horiz-adv-x="36" d="M-737 -233q0 95 62.5 159t154.5 64q23 0 55 -9t61.5 -24.5t51.5 -37t22 -50.5q0 -30 -34 -30q-10 0 -22.5 12.5t-30.5 26.5t-42.5 27t-57.5 13q-64 0 -109 -43.5t-45 -107.5t45 -110t106 -46q77 0 123 56l16 8h28l23 -23v-126l-8 -20q-36 -28 -59 -43.5t-39.5 -23 t-30.5 -9t-37 -1.5q-44 0 -80 6.5t-64 24.5v-36q59 -33 133 -33q75 0 103 20l38 31l44 -21v-181h61q33 0 33 -36t-33 -36h-105l-20 28v149q-46 -21 -105 -21q-115 0 -202 59l-11 21v143l46 18q62 -69 154 -69q46 0 118 51v28q-44 -31 -126 -31q-46 0 -85.5 18t-69 47.5 t-46 70.5t-16.5 87z" />
<glyph horiz-adv-x="3" d="M-453 -358q0 69 44.5 115t116.5 46q16 0 39 -6.5t46 -18t38 -27t15 -35.5q0 -23 -23 -23q-10 0 -19 9t-21.5 20.5t-30.5 20.5t-44 9q-48 0 -80 -32t-32 -78q0 -49 32 -82.5t80 -33.5q54 0 87 41l13 5h20l18 -20v-90l-5 -12q-46 -39 -71.5 -49t-61.5 -10q-59 0 -97 23v-23 q25 -16 53.5 -21t61.5 -5q44 0 59 15l28 21l33 -15v-134h44q26 0 26 -25q0 -26 -26 -26h-77l-13 21v107q-38 -15 -92 -15q-36 0 -70.5 11.5t-65.5 31.5l-5 16v105l31 10q44 -46 110 -49q36 0 92 41v21q-33 -26 -92 -26q-69 0 -115 48.5t-46 118.5z" />
<glyph horiz-adv-x="5" d="M-1987 -197q0 182 246 182q146 0 214 -74.5t68 -174.5q0 -43 -11.5 -84t-31 -73t-45 -52.5t-50.5 -20.5q-70 0 -70 69q0 10 10.5 27t24.5 37.5t24.5 42t10.5 44.5q0 62 -37.5 97.5t-98.5 35.5q-36 0 -75.5 -14t-39.5 -42v-338q0 -95 35.5 -125.5t133.5 -30.5h530 q-75 105 -75 243q0 95 36 173t98.5 134.5t144.5 88.5t174 32q93 0 174.5 -31t143 -86t96 -134.5t34.5 -176.5q0 -202 -161 -328l-54 -46l-7 3q-16 -5 -23 -5q-18 0 -43.5 10t-25.5 54q0 51 41 66q138 103 138 246q0 138 -89.5 219t-223.5 81q-64 0 -121.5 -23.5t-102 -64 t-70.5 -96t-26 -116.5q0 -154 108 -223q26 -18 26 -51q0 -36 -29.5 -68t-63.5 -32h-629q-308 0 -308 287v338z" />
<glyph d="M-1851 -440q0 87 32 160t88.5 126.5t134.5 83t168 29.5q84 0 159.5 -32t133 -87t92 -129.5t34.5 -158.5q0 -133 -69 -228h103q38 54 51 92.5t13 102.5q0 74 -23 140.5t-75 135.5l46 87h535v118q0 51 64 51q59 0 59 -51v-197l-41 -51h-489q54 -113 54 -236 q0 -146 -71 -240l-47 -59l-35 -18h-279l-47 46v51l18 33q105 82 105 223q0 61 -23 112.5t-64 88.5t-93.5 59t-110.5 22q-131 0 -214 -78.5t-83 -203.5q0 -36 5 -59t21.5 -46t44.5 -53.5t74 -87.5q13 -13 13 -38q0 -64 -64 -64q-5 0 -30 5q-190 159 -190 343v8z" />
<glyph d="M-865 51l33 41h36l25 -15q59 -90 162 -90q87 0 146 77t59 187q0 115 -58 193t-147 78q-26 0 -42.5 -5t-34.5 -20.5t-41 -41t-61 -63.5q-13 -13 -26 -13q-49 0 -49 56q0 10 5 31q110 171 249 171h5q64 0 117.5 -30.5t92 -81.5t59 -123t20.5 -151q0 -77 -21.5 -146 t-61.5 -121.5t-93.5 -83.5t-117.5 -31q-95 0 -167 62v-92q36 -36 61.5 -49t66.5 -13q57 0 108 19.5t107 75.5l59 -41v-497h87q44 0 44 -58q0 -57 -44 -57h-141l-30 41l-8 446q-79 -49 -169 -49q-51 3 -96 18t-81 51l-40 44l-13 33v248z" />
<glyph d="M-481 -358q0 18 15 33t37 24t42.5 14t30.5 5q64 0 101 -42t37 -104q0 -61 -39.5 -104.5t-98.5 -43.5q-48 0 -82 26v-36q21 -16 36 -19.5t46 -3.5q41 2 82 33l28 -13v-189h44q20 0 20 -21q0 -23 -20 -23h-67l-18 16l-2 166q-39 -15 -82 -15q-51 0 -85 25l-20 16l-5 12v98 l15 15h18l13 -5q28 -36 79 -36q39 0 68 29.5t29 72.5q0 44 -28 73.5t-69 29.5q-25 0 -39.5 -9t-49.5 -42q-3 -3 -13 -3q-23 0 -23 21z" />
<glyph d="M-1044 -538q0 59 38 113l2 3q29 43 63.5 61t64 28t50 23t20.5 49q0 49 -72 49q-28 0 -36 -13t-11.5 -28.5t-14 -28t-40.5 -12.5q-54 0 -54 58q0 67 48.5 104t120.5 37q43 0 76.5 -15t55 -41t33 -55.5t11.5 -54.5q0 -92 -92 -161q-135 -52 -135 -108q0 -43 24 -83 t61 -69.5t82 -47.5t89 -18q56 0 107 23.5t89.5 61.5t60.5 89.5t22 107.5q0 138 -123 254q-41 38 -41 64q0 58 59 58q12 0 33 -7q192 -123 192 -369q0 -84 -29.5 -157t-83.5 -127t-125.5 -84.5t-155.5 -30.5q-69 0 -138.5 29.5t-125.5 75.5t-90.5 105t-34.5 117z" />
<glyph d="M-1969 -428q0 72 34.5 137.5t91 114t131 76.5t156.5 28q145 0 273 -74q67 82 175 82q102 0 168 -84l24 15q102 66 243 66q82 0 157.5 -28t133 -78t90.5 -116.5t33 -145.5q0 -80 -35.5 -147.5t-94.5 -117.5t-134.5 -78t-152.5 -28q-176 0 -176 89q0 85 79 85q18 0 53.5 -8 t53.5 -8q100 0 169 61.5t69 158.5q0 98 -72.5 149t-165.5 51q-74 0 -130 -25.5t-110 -79.5l-5 -23q-29 -51 -29 -79q0 -51 24 -97l10 -29v-51q0 -84 -60.5 -139t-141.5 -55q-88 0 -149 55t-61 139v54l10 28q25 44 25 95q0 31 -25 79l-3 10q-13 13 -21.5 29.5t-31.5 29.5 q-93 54 -198 54q-94 0 -163.5 -53.5t-69.5 -135.5q0 -46 22 -87t56.5 -72t79.5 -49t91 -18q18 0 50 8t50 8q76 0 76 -85q0 -87 -163 -87q-82 0 -160.5 31t-139.5 82t-98.5 119t-37.5 144zM-1155 -256v-44q36 -66 36 -135q0 -74 -36 -151v-26q0 -31 47 -31q35 0 35 31v23 q-30 69 -30 154q0 69 30 135v44q0 31 -35 31q-47 0 -47 -31z" />
<glyph d="M-1920 -428q0 72 32 133.5t88.5 106.5t132 69t164.5 24q213 0 333 -130q133 130 338 130q87 0 162.5 -25.5t132 -71.5t88.5 -107.5t32 -133.5q0 -140 -110 -227.5t-287 -107.5h-46q-136 0 -136 79q0 67 115 72l3 -3q59 0 112.5 12t96 36t68 58.5t25.5 80.5q0 41 -22 77 t-57.5 61.5t-83 41t-98.5 15.5q-41 0 -82 -11.5t-77 -33.5t-61.5 -51.5t-35.5 -67.5q2 -8 2 -26q0 -153 -113.5 -241.5t-300.5 -88.5q-92 0 -167.5 24.5t-131 68t-86 103.5t-30.5 134zM-1759 -428q0 -87 74.5 -140.5t189.5 -53.5q218 0 243 164q-5 20 -5 33q0 8 1 15l4 18 q-38 151 -251 151q-107 0 -181.5 -49.5t-74.5 -137.5z" />
<glyph d="M-1920 -422q0 71 33.5 132.5t89.5 106.5t131.5 70.5t157.5 25.5q210 0 333 -131q123 131 325 131q87 0 162.5 -25.5t132 -69t88.5 -106.5t32 -134q0 -75 -31 -136.5t-86 -105t-130.5 -69t-162.5 -25.5q-217 0 -335 123q-120 -123 -330 -123q-85 0 -159 23t-130.5 68 t-88.5 106.5t-32 138.5zM-1756 -422q0 -90 73 -142.5t185 -52.5q205 0 238 149q-2 12 -2 46q0 25 2 38q-38 148 -248 148q-48 0 -93 -12.5t-79.5 -38t-55 -60t-20.5 -75.5zM-1096 -384q3 -13 3 -38q0 -34 -3 -46q34 -149 238 -149q110 0 186 52.5t76 142.5q0 87 -76 136.5 t-178 49.5q-205 0 -246 -148z" />
<glyph d="M-1034 -292q54 197 317 197q69 0 132 -18t109 -50t74 -76.5t28 -98.5q0 -66 -46 -115q46 -54 46 -118q0 -230 -330 -230h-13q-228 0 -310 174q-7 18 -7 36q0 69 77 69q46 0 66 -44q21 -46 67 -65t117 -19q185 0 185 74q0 38 -82 51h-54q-74 0 -74 74q0 77 74 77h59 q79 0 79 39q0 89 -197 89q-77 0 -110 -21.5t-51 -47t-32 -47.5t-50 -22q-74 0 -74 72v20z" />
<glyph d="M-1088 -448q0 69 30.5 130.5t84.5 106.5t124.5 71.5t149.5 26.5q85 0 155 -24t122.5 -69t82 -106.5t29.5 -135.5q0 -77 -29.5 -138.5t-82 -105t-124 -66.5t-153.5 -23q-84 0 -156 24.5t-124.5 68t-80.5 105t-28 135.5zM-937 -448q0 -36 10 -64q95 90 223 90 q138 0 236 -85q7 26 7 59q0 82 -67.5 134.5t-170.5 52.5q-102 0 -170 -52.5t-68 -134.5zM-817 -617q62 -28 123 -28q54 0 118 28q-51 46 -128 46q-67 0 -113 -46z" />
<glyph horiz-adv-x="1288" d="M128 381q0 29 22 66t60 70t90.5 56t114.5 23q123 0 217 -71q5 -3 82 -54t231 -148q7 23 7 43q0 123 -117 195q-16 10 -198 53q-263 64 -263 251q0 92 75.5 151t182.5 59q23 0 68 -10t91 -30.5t80.5 -50t34.5 -65.5q0 -74 -87 -74q-15 0 -33 12.5t-40 28t-50 28.5t-64 13 q-102 0 -102 -64t146 -95l123 -26q161 -41 235 -143t74 -235q0 -77 -30 -134l84 -56q59 -28 59 -115q0 -77 -79 -77q-28 0 -179 105q-67 -36 -156.5 -50t-212.5 -14q-128 0 -216.5 33.5t-144.5 86t-80.5 116.5t-24.5 122zM292 376q0 -36 15.5 -66.5t53.5 -53.5t104.5 -36 t169.5 -13q97 0 174 16q-13 10 -46 38q-41 36 -96 68t-109 56.5t-95 38.5t-56 14q-115 0 -115 -62z" />
<glyph d="M-1124 -525q0 90 74.5 145t181.5 55q44 0 102.5 -24.5t117.5 -57.5t110.5 -66.5t81.5 -51.5q3 -2 87 -56q0 74 -20.5 116.5t-64 69t-113.5 43.5t-173 40q-153 41 -153 166q0 146 222 146q18 0 58 -10t79.5 -27t70 -38.5t30.5 -47.5q0 -49 -64 -49q-10 0 -33 9t-50 20.5 t-51 22t-40 10.5q-51 0 -70 -9t-19 -29q0 -34 43 -44l51 -10q44 -10 105.5 -23t140.5 -41q179 -92 179 -269q0 -51 -23 -97l100 -54q28 -23 28 -49q0 -28 -20.5 -52.5t-48.5 -24.5t-61.5 18t-107.5 62q-107 -49 -302 -49q-448 0 -448 256zM-975 -520q0 -59 62.5 -89.5 t236.5 -30.5q36 0 74.5 1.5t81.5 3.5q-281 187 -366 187q-89 0 -89 -72z" />
<glyph d="M-1088 -417q0 205 202 320q21 10 41 10q77 0 77 -77q0 -38 -41 -61q-125 -72 -125 -192q0 -90 66.5 -146.5t173.5 -56.5q98 0 167 54t69 149q0 28 -2.5 48.5t-15.5 39.5t-37.5 41t-65.5 55q-46 33 -46 72q0 74 77 74q23 0 36 -10q205 -108 205 -320q0 -154 -106.5 -246 t-280.5 -92q-82 0 -153.5 24t-125.5 69t-84.5 106.5t-30.5 138.5z" />
<glyph d="M-1080 -412q0 200 199 315q18 10 41 10q75 0 75 -77q0 -38 -39 -61q-125 -69 -125 -187q0 -46 20.5 -84.5t53.5 -65.5t78 -41t91 -14q90 0 156 46q-169 79 -169 251q0 38 10.5 79t31 75.5t49.5 58t65 23.5q23 0 44 -16q199 -112 199 -312q0 -82 -30.5 -146t-83 -107.5 t-123 -66.5t-152.5 -23q-171 0 -281 92t-110 251zM-548 -323q0 -92 95 -115q2 8 2 26q0 82 -81 148q-16 -30 -16 -59z" />
<glyph d="M-1083 -468q0 222 225 330l82 -57q0 -56 18 -84t64 -28q69 0 69 87v25l87 57q233 -100 233 -330q0 -82 -32 -145t-85.5 -106.5t-124 -66.5t-147.5 -23q-87 0 -158.5 25.5t-123 71.5t-79.5 107.5t-28 136.5zM-932 -468q0 -98 69 -150.5t169 -52.5q98 0 168 54t70 149 q0 69 -46 128q-66 -116 -192 -116q-128 0 -197 108q-41 -56 -41 -120z" />
<glyph d="M-1874 -289q0 41 38.5 78t93.5 65t119 43.5t115 15.5q208 0 336 -138q120 135 327 135q85 0 159 -25.5t130.5 -70t89.5 -105t33 -126.5q0 -69 -33 -133t-89.5 -111.5t-127 -77t-146.5 -29.5h-52q-117 0 -117 79q0 77 76 77q11 0 31 -8h23q120 0 193 55.5t73 144.5 q0 41 -20.5 74.5t-53.5 57.5t-78 38t-91 14q-100 0 -175.5 -53.5t-75.5 -138.5v-12q0 -67 -30.5 -126t-85.5 -102.5t-130.5 -69t-165.5 -25.5q-189 0 -338 138q-28 23 -28 59q0 72 85 72q35 0 64 -36q110 -87 217 -87q108 0 182 51t74 141q0 82 -74 135.5t-182 53.5 q-54 0 -97.5 -19t-78 -40.5t-64 -41t-57.5 -19.5q-69 0 -69 67z" />
<glyph d="M-1088 -463q0 199 202 315q21 10 41 10q77 0 77 -77q0 -44 -41 -61q-125 -72 -125 -187q0 -26 2 -39q100 85 238 85q136 0 233 -85q3 13 3 39q0 28 -4 47t-17 37t-36 40t-64 55q-46 38 -46 72q0 74 77 74q23 0 36 -10q205 -108 205 -315q0 -82 -29.5 -145t-82 -107.5 t-123 -67.5t-152.5 -23q-174 0 -284 94.5t-110 248.5zM-845 -627q64 -41 151 -41q82 0 146 41q-59 61 -146 61q-89 0 -151 -61z" />
<glyph d="M-1748 -497q0 108 58.5 206.5t148.5 154.5q20 13 33 13q62 0 62 -64q0 -8 -17 -27t-39 -40l-43 -44q-22 -22 -32 -35q-46 -69 -46 -164q0 -53 23 -103t61.5 -88.5t88.5 -60.5t106 -22q123 0 201 79.5t78 202.5q0 77 -25.5 133t-94.5 115q-44 36 -44 54q0 64 62 64 q15 0 33 -10q187 -108 187 -346q0 -69 25.5 -124t65 -92t91 -57.5t102.5 -20.5q54 0 104 20.5t88 55t61 82t23 103.5q0 123 -80.5 199.5t-203.5 76.5q-10 0 -34.5 -5t-36.5 -5q-62 0 -62 62q0 64 133 64q85 0 158 -31t128 -83.5t87 -124t32 -153.5q0 -77 -32 -146 t-87 -121.5t-127 -82t-151 -29.5q-220 0 -343 187q-120 -182 -338 -182q-82 0 -155 29.5t-128 82t-88 124t-33 153.5z" />
<glyph />
<glyph />
<glyph />
<glyph />
<glyph horiz-adv-x="1288" d="M108 543q0 110 39.5 207t110 170t165 114t204.5 41q113 0 206.5 -43.5t161 -120t105 -181.5t37.5 -228v-912q-36 -58 -75 -58q-23 -3 -40.5 13.5t-41.5 47.5v909q0 87 -26.5 165t-74 135.5t-111.5 91t-138 33.5q-123 0 -215 -83.5t-126 -206.5q95 -2 173 -34t135.5 -88.5 t89.5 -135.5t32 -174q0 -74 -23 -151l-53 -36q-72 0 -122 5t-91 23t-79.5 48.5t-86.5 82.5q-82 87 -119 176.5t-37 189.5zM279 468q10 -58 42 -110.5t74.5 -91t87 -61.5t80.5 -26v26q0 110 -65 186.5t-181 76.5h-38z" />
<glyph d="M-1050 -538q0 85 31 158t83.5 126.5t123 85.5t152.5 32q92 0 162 -34.5t120 -93.5t76 -138t26 -166v-484h97q54 -8 54 -62q0 -58 -59 -58h-164l-46 46v558q0 66 -20.5 125t-55 101t-82 66.5t-103.5 24.5q-93 0 -162 -62.5t-94 -154.5q140 0 231 -91t91 -232 q0 -61 -18 -115l-41 -26q-61 0 -108.5 9t-84.5 29.5t-68 52.5t-61 78q-80 118 -80 225zM-922 -594q8 -36 30 -73t52.5 -67.5t65 -52.5t67.5 -25v21v15q0 80 -52.5 131t-133.5 51h-29z" />
<glyph d="M-1695 -340q0 40 40 78.5t97.5 68t117.5 46t104 16.5q76 0 144 -23t122 -70t88.5 -120t41.5 -173q11 -123 82.5 -191t191.5 -68q57 0 108 20.5t89.5 55t60 83.5t21.5 105t-21.5 107.5t-60 87t-89.5 57.5t-108 22q-12 0 -38 -5t-38 -5q-59 0 -59 56q0 69 135 69 q85 0 158 -29.5t126.5 -82t84.5 -123t31 -154.5q0 -82 -32 -151t-86 -121.5t-125.5 -82t-150.5 -29.5q-221 0 -344 189q-115 -181 -332 -181q-215 0 -336 158q-18 21 -18 46q0 59 64 59q16 0 43 -20.5t53.5 -43.5t44.5 -41t16 -15q56 -28 133 -28q51 0 101 20.5t88.5 55 t62.5 82t24 100.5q0 118 -79.5 193.5t-196.5 75.5q-39 0 -91.5 -23t-99.5 -51t-78 -50t-26 -22q-64 0 -64 52z" />
<glyph d="M-1743 -512q0 228 140 361q21 20 47 20q61 0 61 -61q0 8 -19 -21.5t-43.5 -78t-43.5 -107.5t-19 -113q0 -123 76.5 -194.5t199.5 -71.5t201 74t78 192q0 51 -20.5 110t-46 107.5t-46 79.5t-20.5 23q0 61 64 61t138 -161q123 169 333 169q82 0 153.5 -30.5t125.5 -83 t84.5 -123t30.5 -152.5t-32 -152.5t-87 -121.5t-126.5 -80.5t-151.5 -29.5q-138 0 -138 69q0 59 64 59q28 0 48.5 -6.5t38.5 -6.5q54 0 101.5 23t83 60.5t56 86t20.5 99.5q0 56 -21.5 106t-58.5 86t-87 57.5t-107 21.5q-51 0 -101 -19t-88 -52.5t-62.5 -79.5t-27.5 -97v-28 q3 -10 3 -17v-11q0 -80 -37 -144t-96 -110t-130.5 -71.5t-143.5 -25.5q-85 0 -156.5 28t-125 79.5t-83 122t-29.5 154.5z" />
<glyph d="M-1713 -407q0 128 66.5 194.5t202.5 64.5l382 -6l35 -79q-128 -123 -128 -269q0 -123 98 -251h87q-98 103 -98 261q0 80 32 150.5t87.5 121.5t128 80.5t154.5 29.5q85 0 158 -31t126.5 -84.5t84.5 -128t31 -158.5q0 -51 -14 -102.5t-38.5 -100t-60.5 -88t-79 -62.5 q-16 -5 -26 -5q-56 0 -56 64q0 -6 24 21t52.5 72t52.5 96t24 95q0 59 -21.5 112.5t-60 94.5t-89.5 65.5t-108 24.5q-58 0 -108 -20.5t-88.5 -56.5t-60.5 -84.5t-22 -105.5q0 -40 19.5 -84t41 -82t41 -65t19.5 -35q0 -10 -2.5 -33t-2.5 -36l-47 -41h-220l-36 16 q-51 69 -77.5 112.5t-41 79t-17 71.5t-2.5 87q0 138 57 233h-231q-82 0 -115 -27t-33 -111v-317q0 -34 43 -34q16 0 16 13q0 5 -8 23t-8 26q0 56 64 56q69 0 69 -105q0 -125 -130 -125q-69 0 -118 39.5t-49 106.5v317z" />
<glyph d="M-1587 -338q0 46 25.5 82t71.5 61.5t109 39.5t134 14q215 0 297 -105q126 110 297 110q80 0 150 -28t121.5 -79t82 -120.5t30.5 -148.5q0 -84 -32 -154.5t-87 -122t-128 -81t-155 -29.5q-18 0 -48.5 3t-61.5 13t-54 28t-23 49q0 61 26 113.5t68 89.5t98.5 59t117.5 22 q74 0 156 -34q3 13 3 24v20q0 115 -77 188t-194 73q-162 0 -239 -128q0 -87 -74 -146q69 -59 69 -143q0 -231 -353 -231q-246 0 -323 182q-7 10 -7 23q0 54 61 54q16 0 33.5 -14t33 -32t28.5 -34.5t23 -24.5q56 -38 161 -38q226 0 226 107q0 56 -36 71.5t-79.5 20.5 t-79.5 14t-36 48q0 43 36 51t79.5 10.5t79.5 16.5t36 73q0 115 -226 115q-192 0 -220 -105q-13 -46 -59 -46q-61 0 -61 69zM-722 -778q13 -3 25.5 -4t25.5 -1q151 0 236 120q-59 23 -113 23q-136 0 -174 -138z" />
<glyph d="M-1746 -760q0 56 62 56q10 0 24 -11.5t28 -24.5t29.5 -24.5t30.5 -11.5q74 0 74 54q0 15 -25.5 35.5t-57.5 37.5t-61.5 31t-34.5 19q-59 54 -59 143q0 62 36 119.5t92.5 101t126.5 70.5t140 27q217 0 337 -185q123 187 344 187q76 0 146.5 -29.5t124.5 -80.5t87 -120 t33 -146q0 -84 -32 -156t-87 -124.5t-128 -82t-155 -29.5q-133 0 -133 67q0 46 51 51l-5 -2h87q62 0 113 21.5t89.5 57.5t60 86t21.5 108q0 54 -21.5 101.5t-60 82t-89.5 55t-108 20.5q-51 0 -101 -19t-89.5 -56.5t-64 -91t-24.5 -122.5q0 -238 -187 -346q-20 -8 -38 -8 q-59 0 -59 62q0 8 15.5 24.5t34.5 37t39.5 41t31.5 35.5q46 69 46 164q0 59 -22 110t-59 88t-88.5 59t-109.5 22q-49 0 -96.5 -16.5t-86 -43.5t-61.5 -63t-23 -74q0 -59 36 -72q118 -51 157.5 -96t39.5 -111q0 -69 -57.5 -114t-147.5 -45q-64 0 -115 34.5t-51 96.5z" />
<glyph horiz-adv-x="433" d="M77 -791v1789q0 80 69 80q66 0 69 -80v-1687h182q64 0 64 -79q0 -82 -64 -82h-266z" />
<glyph horiz-adv-x="771" d="M72 1011q0 80 74 80t77 -80v-1782q0 -79 -75 -79q-71 0 -71 79zM410 -786v1807q0 80 74 80t74 -80v-1707h200q69 0 69 -82q0 -79 -69 -79h-297z" />
<glyph horiz-adv-x="468" d="M-205 1725q0 77 33.5 137.5t86 102.5t114 66.5t117.5 26.5l107 5q23 0 50 -24t27 -47q0 -75 -82 -75h-97q-33 0 -70 -16.5t-69 -43.5t-52.5 -61.5t-20.5 -67.5z" />
<glyph horiz-adv-x="404" d="M-847 -778q0 33 38 84l486 256v272q0 76 57 76h33q72 0 72 -76v-484h56q213 0 213 310v1359q0 79 71 79q90 0 90 -79v-1359q0 -495 -374 -495h-148q-70 0 -70 77v100q-110 -51 -209.5 -97t-194.5 -90q-120 8 -120 67z" />
<glyph horiz-adv-x="379" d="M-1178 -328q0 85 85 85q18 0 37 -13t39.5 -29.5t40 -29.5t36.5 -13q49 0 144 133q118 210 358 210q90 0 166.5 -34.5t132 -93.5t87.5 -138t32 -166q0 -136 -64 -231h145q64 13 67 77v1592q10 80 90 80q79 0 79 -80v-1587q0 -269 -251 -269h-340q-23 0 -34 8 q-53 -13 -110 -15h-7q-80 0 -150.5 29.5t-125.5 80.5t-89.5 119t-41.5 145q-44 -18 -95 -18q-18 0 -56.5 12.5t-77 33t-68 50t-29.5 62.5zM-701 -417q0 -115 75.5 -189.5t185.5 -74.5q53 0 102 20.5t83.5 57.5t55 84.5t20.5 101.5q0 53 -20.5 102t-56.5 87.5t-82 60 t-100 21.5q-118 0 -190.5 -78t-72.5 -193z" />
<glyph horiz-adv-x="494" d="M172 -330v1920q0 496 499 496h1275q499 0 499 -540h-167q0 374 -332 374h-1275q-333 0 -333 -330v-1920q0 -341 333 -341h1275q332 0 332 341v174q6 74 80 74q79 0 84 -74l3 -174q5 -254 -123 -378t-376 -124h-1275q-499 0 -499 502z" />
<glyph horiz-adv-x="489" d="M172 -328v1918q0 496 499 496h1262q499 0 499 -540h-166q0 374 -333 374h-1262q-333 0 -333 -330v-1918q0 -340 333 -340h1090l-18 18q-115 118 -115 279q0 84 29.5 158.5t82 128t124 84.5t158.5 31q82 0 154 -32t124.5 -87t83 -128t30.5 -155q0 -90 -31 -161 q-117 -272 -473 -300h-1239q-499 0 -499 504zM1779 -371q0 -108 69 -177t172 -69q48 0 93 20.5t79.5 54t54 78t19.5 93.5q0 51 -19.5 96t-51.5 79.5t-76.5 55t-96.5 20.5q-107 0 -175 -72t-68 -179z" />
<glyph horiz-adv-x="468" d="M174 -330v1920q0 496 499 496h338q499 0 499 -540h-166q0 374 -333 374h-338q-333 0 -333 -330v-1920q0 -341 333 -341h338q333 0 333 341v202q5 74 79 74q80 0 85 -74l2 -202q6 -254 -122 -379.5t-377 -125.5h-338q-499 0 -499 505zM689 -517q0 74 66 74h126v489 q0 74 64 74t64 -74v-584l-46 -56h-208q-66 0 -66 77z" />
<glyph horiz-adv-x="468" d="M174 -330v1920q0 496 499 496h338q499 0 499 -540h-166q0 374 -333 374h-338q-333 0 -333 -330v-1920q0 -341 333 -341h182l-13 13q-110 95 -130 248q-44 -18 -90 -18q-18 0 -55 10.5t-75.5 29.5t-66.5 47.5t-28 64.5q0 76 82 76q15 0 35.5 -11.5t39.5 -25.5t38.5 -25.5 t34.5 -11.5q46 0 138 123q121 189 351 189q92 0 167.5 -34.5t132 -89.5t87 -122.5t30.5 -137.5q0 -117 -76 -271q-108 -159 -446 -218h-338q-499 0 -499 505zM865 -358q0 -108 72 -178.5t179 -70.5q51 0 97.5 19.5t81 54t55 79t20.5 96.5q0 107 -73 178.5t-181 71.5 q-107 0 -179 -71.5t-72 -178.5z" />
<glyph horiz-adv-x="1280" />
<glyph horiz-adv-x="1226" />
<glyph />
<glyph />
<glyph />
<glyph />
<glyph />
<glyph horiz-adv-x="3" />
<glyph horiz-adv-x="3" />
</font>
</defs>
</svg>
